G04 #@! TF.GenerationSoftware,KiCad,Pcbnew,(5.0.1)-4*
G04 #@! TF.CreationDate,2019-01-15T19:26:54-05:00*
G04 #@! TF.ProjectId,CA6,4341362E6B696361645F706362000000,rev?*
G04 #@! TF.SameCoordinates,Original*
G04 #@! TF.FileFunction,Soldermask,Bot*
G04 #@! TF.FilePolarity,Negative*
%FSLAX46Y46*%
G04 Gerber Fmt 4.6, Leading zero omitted, Abs format (unit mm)*
G04 Created by KiCad (PCBNEW (5.0.1)-4) date 1/15/2019 7:26:54 PM*
%MOMM*%
%LPD*%
G01*
G04 APERTURE LIST*
%ADD10C,0.150000*%
G04 APERTURE END LIST*
D10*
G36*
X72215770Y-185637372D02*
X72331689Y-185660429D01*
X72513678Y-185735811D01*
X72677463Y-185845249D01*
X72816751Y-185984537D01*
X72926189Y-186148322D01*
X73001571Y-186330311D01*
X73022130Y-186433668D01*
X73040000Y-186523507D01*
X73040000Y-186720493D01*
X73024628Y-186797770D01*
X73001571Y-186913689D01*
X72926189Y-187095678D01*
X72816751Y-187259463D01*
X72677463Y-187398751D01*
X72513678Y-187508189D01*
X72331689Y-187583571D01*
X72215770Y-187606628D01*
X72138493Y-187622000D01*
X71941507Y-187622000D01*
X71864230Y-187606628D01*
X71748311Y-187583571D01*
X71566322Y-187508189D01*
X71402537Y-187398751D01*
X71263249Y-187259463D01*
X71153811Y-187095678D01*
X71078429Y-186913689D01*
X71055372Y-186797770D01*
X71040000Y-186720493D01*
X71040000Y-186523507D01*
X71057870Y-186433668D01*
X71078429Y-186330311D01*
X71153811Y-186148322D01*
X71263249Y-185984537D01*
X71402537Y-185845249D01*
X71566322Y-185735811D01*
X71748311Y-185660429D01*
X71864230Y-185637372D01*
X71941507Y-185622000D01*
X72138493Y-185622000D01*
X72215770Y-185637372D01*
X72215770Y-185637372D01*
G37*
G36*
X60215770Y-185637372D02*
X60331689Y-185660429D01*
X60513678Y-185735811D01*
X60677463Y-185845249D01*
X60816751Y-185984537D01*
X60926189Y-186148322D01*
X61001571Y-186330311D01*
X61022130Y-186433668D01*
X61040000Y-186523507D01*
X61040000Y-186720493D01*
X61024628Y-186797770D01*
X61001571Y-186913689D01*
X60926189Y-187095678D01*
X60816751Y-187259463D01*
X60677463Y-187398751D01*
X60513678Y-187508189D01*
X60331689Y-187583571D01*
X60215770Y-187606628D01*
X60138493Y-187622000D01*
X59941507Y-187622000D01*
X59864230Y-187606628D01*
X59748311Y-187583571D01*
X59566322Y-187508189D01*
X59402537Y-187398751D01*
X59263249Y-187259463D01*
X59153811Y-187095678D01*
X59078429Y-186913689D01*
X59055372Y-186797770D01*
X59040000Y-186720493D01*
X59040000Y-186523507D01*
X59057870Y-186433668D01*
X59078429Y-186330311D01*
X59153811Y-186148322D01*
X59263249Y-185984537D01*
X59402537Y-185845249D01*
X59566322Y-185735811D01*
X59748311Y-185660429D01*
X59864230Y-185637372D01*
X59941507Y-185622000D01*
X60138493Y-185622000D01*
X60215770Y-185637372D01*
X60215770Y-185637372D01*
G37*
G36*
X76736059Y-185764782D02*
X76877099Y-185823203D01*
X77004037Y-185908020D01*
X77111980Y-186015963D01*
X77196797Y-186142901D01*
X77255218Y-186283941D01*
X77285000Y-186433668D01*
X77285000Y-186586332D01*
X77255218Y-186736059D01*
X77196797Y-186877099D01*
X77111980Y-187004037D01*
X77004037Y-187111980D01*
X76877099Y-187196797D01*
X76736059Y-187255218D01*
X76586332Y-187285000D01*
X76433668Y-187285000D01*
X76283941Y-187255218D01*
X76142901Y-187196797D01*
X76015963Y-187111980D01*
X75908020Y-187004037D01*
X75823203Y-186877099D01*
X75764782Y-186736059D01*
X75735000Y-186586332D01*
X75735000Y-186433668D01*
X75764782Y-186283941D01*
X75823203Y-186142901D01*
X75908020Y-186015963D01*
X76015963Y-185908020D01*
X76142901Y-185823203D01*
X76283941Y-185764782D01*
X76433668Y-185735000D01*
X76586332Y-185735000D01*
X76736059Y-185764782D01*
X76736059Y-185764782D01*
G37*
G36*
X83736059Y-185764782D02*
X83877099Y-185823203D01*
X84004037Y-185908020D01*
X84111980Y-186015963D01*
X84196797Y-186142901D01*
X84255218Y-186283941D01*
X84285000Y-186433668D01*
X84285000Y-186586332D01*
X84255218Y-186736059D01*
X84196797Y-186877099D01*
X84111980Y-187004037D01*
X84004037Y-187111980D01*
X83877099Y-187196797D01*
X83736059Y-187255218D01*
X83586332Y-187285000D01*
X83433668Y-187285000D01*
X83283941Y-187255218D01*
X83142901Y-187196797D01*
X83015963Y-187111980D01*
X82908020Y-187004037D01*
X82823203Y-186877099D01*
X82764782Y-186736059D01*
X82735000Y-186586332D01*
X82735000Y-186433668D01*
X82764782Y-186283941D01*
X82823203Y-186142901D01*
X82908020Y-186015963D01*
X83015963Y-185908020D01*
X83142901Y-185823203D01*
X83283941Y-185764782D01*
X83433668Y-185735000D01*
X83586332Y-185735000D01*
X83736059Y-185764782D01*
X83736059Y-185764782D01*
G37*
G36*
X32770912Y-178244503D02*
X33407872Y-178508340D01*
X33981120Y-178891372D01*
X34468628Y-179378880D01*
X34851660Y-179952128D01*
X35088333Y-180523509D01*
X35115497Y-180589088D01*
X35250000Y-181265279D01*
X35250000Y-181954721D01*
X35216315Y-182124066D01*
X35115497Y-182630912D01*
X34851660Y-183267872D01*
X34468628Y-183841120D01*
X33981120Y-184328628D01*
X33407872Y-184711660D01*
X32770912Y-184975497D01*
X32094721Y-185110000D01*
X31405279Y-185110000D01*
X30729088Y-184975497D01*
X30092128Y-184711660D01*
X29518880Y-184328628D01*
X29031372Y-183841120D01*
X28648340Y-183267872D01*
X28384503Y-182630912D01*
X28283685Y-182124066D01*
X28250000Y-181954721D01*
X28250000Y-181265279D01*
X28384503Y-180589088D01*
X28411667Y-180523509D01*
X28648340Y-179952128D01*
X29031372Y-179378880D01*
X29518880Y-178891372D01*
X30092128Y-178508340D01*
X30729088Y-178244503D01*
X31405279Y-178110000D01*
X32094721Y-178110000D01*
X32770912Y-178244503D01*
X32770912Y-178244503D01*
G37*
G36*
X121670912Y-178244503D02*
X122307872Y-178508340D01*
X122881120Y-178891372D01*
X123368628Y-179378880D01*
X123751660Y-179952128D01*
X123988333Y-180523509D01*
X124015497Y-180589088D01*
X124150000Y-181265279D01*
X124150000Y-181954721D01*
X124116315Y-182124066D01*
X124015497Y-182630912D01*
X123751660Y-183267872D01*
X123368628Y-183841120D01*
X122881120Y-184328628D01*
X122307872Y-184711660D01*
X121670912Y-184975497D01*
X120994721Y-185110000D01*
X120305279Y-185110000D01*
X119629088Y-184975497D01*
X118992128Y-184711660D01*
X118418880Y-184328628D01*
X117931372Y-183841120D01*
X117548340Y-183267872D01*
X117284503Y-182630912D01*
X117183685Y-182124066D01*
X117150000Y-181954721D01*
X117150000Y-181265279D01*
X117284503Y-180589088D01*
X117311667Y-180523509D01*
X117548340Y-179952128D01*
X117931372Y-179378880D01*
X118418880Y-178891372D01*
X118992128Y-178508340D01*
X119629088Y-178244503D01*
X120305279Y-178110000D01*
X120994721Y-178110000D01*
X121670912Y-178244503D01*
X121670912Y-178244503D01*
G37*
G36*
X77692303Y-183234018D02*
X77692305Y-183234019D01*
X77692306Y-183234019D01*
X77806048Y-183281132D01*
X77806049Y-183281133D01*
X77908417Y-183349533D01*
X77995467Y-183436583D01*
X77995469Y-183436586D01*
X78063868Y-183538952D01*
X78110981Y-183652694D01*
X78135000Y-183773443D01*
X78135000Y-183896557D01*
X78110981Y-184017306D01*
X78063868Y-184131048D01*
X78063867Y-184131049D01*
X77995467Y-184233417D01*
X77908417Y-184320467D01*
X77908414Y-184320469D01*
X77806048Y-184388868D01*
X77692306Y-184435981D01*
X77692305Y-184435981D01*
X77692303Y-184435982D01*
X77571559Y-184460000D01*
X77448441Y-184460000D01*
X77327697Y-184435982D01*
X77327695Y-184435981D01*
X77327694Y-184435981D01*
X77213952Y-184388868D01*
X77111586Y-184320469D01*
X77111583Y-184320467D01*
X77024533Y-184233417D01*
X76956133Y-184131049D01*
X76956132Y-184131048D01*
X76909019Y-184017306D01*
X76885000Y-183896557D01*
X76885000Y-183773443D01*
X76909019Y-183652694D01*
X76956132Y-183538952D01*
X77024531Y-183436586D01*
X77024533Y-183436583D01*
X77111583Y-183349533D01*
X77213951Y-183281133D01*
X77213952Y-183281132D01*
X77327694Y-183234019D01*
X77327695Y-183234019D01*
X77327697Y-183234018D01*
X77448441Y-183210000D01*
X77571559Y-183210000D01*
X77692303Y-183234018D01*
X77692303Y-183234018D01*
G37*
G36*
X82692303Y-183234018D02*
X82692305Y-183234019D01*
X82692306Y-183234019D01*
X82806048Y-183281132D01*
X82806049Y-183281133D01*
X82908417Y-183349533D01*
X82995467Y-183436583D01*
X82995469Y-183436586D01*
X83063868Y-183538952D01*
X83110981Y-183652694D01*
X83135000Y-183773443D01*
X83135000Y-183896557D01*
X83110981Y-184017306D01*
X83063868Y-184131048D01*
X83063867Y-184131049D01*
X82995467Y-184233417D01*
X82908417Y-184320467D01*
X82908414Y-184320469D01*
X82806048Y-184388868D01*
X82692306Y-184435981D01*
X82692305Y-184435981D01*
X82692303Y-184435982D01*
X82571559Y-184460000D01*
X82448441Y-184460000D01*
X82327697Y-184435982D01*
X82327695Y-184435981D01*
X82327694Y-184435981D01*
X82213952Y-184388868D01*
X82111586Y-184320469D01*
X82111583Y-184320467D01*
X82024533Y-184233417D01*
X81956133Y-184131049D01*
X81956132Y-184131048D01*
X81909019Y-184017306D01*
X81885000Y-183896557D01*
X81885000Y-183773443D01*
X81909019Y-183652694D01*
X81956132Y-183538952D01*
X82024531Y-183436586D01*
X82024533Y-183436583D01*
X82111583Y-183349533D01*
X82213951Y-183281133D01*
X82213952Y-183281132D01*
X82327694Y-183234019D01*
X82327695Y-183234019D01*
X82327697Y-183234018D01*
X82448441Y-183210000D01*
X82571559Y-183210000D01*
X82692303Y-183234018D01*
X82692303Y-183234018D01*
G37*
G36*
X62287934Y-181554664D02*
X62442627Y-181618740D01*
X62581847Y-181711764D01*
X62700236Y-181830153D01*
X62793260Y-181969373D01*
X62857336Y-182124066D01*
X62890000Y-182288281D01*
X62890000Y-182455719D01*
X62857336Y-182619934D01*
X62793260Y-182774627D01*
X62700236Y-182913847D01*
X62581847Y-183032236D01*
X62442627Y-183125260D01*
X62287934Y-183189336D01*
X62123719Y-183222000D01*
X61956281Y-183222000D01*
X61792066Y-183189336D01*
X61637373Y-183125260D01*
X61498153Y-183032236D01*
X61379764Y-182913847D01*
X61286740Y-182774627D01*
X61222664Y-182619934D01*
X61190000Y-182455719D01*
X61190000Y-182288281D01*
X61222664Y-182124066D01*
X61286740Y-181969373D01*
X61379764Y-181830153D01*
X61498153Y-181711764D01*
X61637373Y-181618740D01*
X61792066Y-181554664D01*
X61956281Y-181522000D01*
X62123719Y-181522000D01*
X62287934Y-181554664D01*
X62287934Y-181554664D01*
G37*
G36*
X66287934Y-181554664D02*
X66442627Y-181618740D01*
X66581847Y-181711764D01*
X66700236Y-181830153D01*
X66793260Y-181969373D01*
X66857336Y-182124066D01*
X66890000Y-182288281D01*
X66890000Y-182455719D01*
X66857336Y-182619934D01*
X66793260Y-182774627D01*
X66700236Y-182913847D01*
X66581847Y-183032236D01*
X66442627Y-183125260D01*
X66287934Y-183189336D01*
X66123719Y-183222000D01*
X65956281Y-183222000D01*
X65792066Y-183189336D01*
X65637373Y-183125260D01*
X65498153Y-183032236D01*
X65379764Y-182913847D01*
X65286740Y-182774627D01*
X65222664Y-182619934D01*
X65190000Y-182455719D01*
X65190000Y-182288281D01*
X65222664Y-182124066D01*
X65286740Y-181969373D01*
X65379764Y-181830153D01*
X65498153Y-181711764D01*
X65637373Y-181618740D01*
X65792066Y-181554664D01*
X65956281Y-181522000D01*
X66123719Y-181522000D01*
X66287934Y-181554664D01*
X66287934Y-181554664D01*
G37*
G36*
X70287934Y-181554664D02*
X70442627Y-181618740D01*
X70581847Y-181711764D01*
X70700236Y-181830153D01*
X70793260Y-181969373D01*
X70857336Y-182124066D01*
X70890000Y-182288281D01*
X70890000Y-182455719D01*
X70857336Y-182619934D01*
X70793260Y-182774627D01*
X70700236Y-182913847D01*
X70581847Y-183032236D01*
X70442627Y-183125260D01*
X70287934Y-183189336D01*
X70123719Y-183222000D01*
X69956281Y-183222000D01*
X69792066Y-183189336D01*
X69637373Y-183125260D01*
X69498153Y-183032236D01*
X69379764Y-182913847D01*
X69286740Y-182774627D01*
X69222664Y-182619934D01*
X69190000Y-182455719D01*
X69190000Y-182288281D01*
X69222664Y-182124066D01*
X69286740Y-181969373D01*
X69379764Y-181830153D01*
X69498153Y-181711764D01*
X69637373Y-181618740D01*
X69792066Y-181554664D01*
X69956281Y-181522000D01*
X70123719Y-181522000D01*
X70287934Y-181554664D01*
X70287934Y-181554664D01*
G37*
G36*
X72215770Y-179637372D02*
X72331689Y-179660429D01*
X72513678Y-179735811D01*
X72677463Y-179845249D01*
X72816751Y-179984537D01*
X72926189Y-180148322D01*
X73001571Y-180330311D01*
X73040000Y-180523509D01*
X73040000Y-180720491D01*
X73001571Y-180913689D01*
X72926189Y-181095678D01*
X72816751Y-181259463D01*
X72677463Y-181398751D01*
X72513678Y-181508189D01*
X72331689Y-181583571D01*
X72215770Y-181606628D01*
X72138493Y-181622000D01*
X71941507Y-181622000D01*
X71864230Y-181606628D01*
X71748311Y-181583571D01*
X71566322Y-181508189D01*
X71402537Y-181398751D01*
X71263249Y-181259463D01*
X71153811Y-181095678D01*
X71078429Y-180913689D01*
X71040000Y-180720491D01*
X71040000Y-180523509D01*
X71078429Y-180330311D01*
X71153811Y-180148322D01*
X71263249Y-179984537D01*
X71402537Y-179845249D01*
X71566322Y-179735811D01*
X71748311Y-179660429D01*
X71864230Y-179637372D01*
X71941507Y-179622000D01*
X72138493Y-179622000D01*
X72215770Y-179637372D01*
X72215770Y-179637372D01*
G37*
G36*
X60215770Y-179637372D02*
X60331689Y-179660429D01*
X60513678Y-179735811D01*
X60677463Y-179845249D01*
X60816751Y-179984537D01*
X60926189Y-180148322D01*
X61001571Y-180330311D01*
X61040000Y-180523509D01*
X61040000Y-180720491D01*
X61001571Y-180913689D01*
X60926189Y-181095678D01*
X60816751Y-181259463D01*
X60677463Y-181398751D01*
X60513678Y-181508189D01*
X60331689Y-181583571D01*
X60215770Y-181606628D01*
X60138493Y-181622000D01*
X59941507Y-181622000D01*
X59864230Y-181606628D01*
X59748311Y-181583571D01*
X59566322Y-181508189D01*
X59402537Y-181398751D01*
X59263249Y-181259463D01*
X59153811Y-181095678D01*
X59078429Y-180913689D01*
X59040000Y-180720491D01*
X59040000Y-180523509D01*
X59078429Y-180330311D01*
X59153811Y-180148322D01*
X59263249Y-179984537D01*
X59402537Y-179845249D01*
X59566322Y-179735811D01*
X59748311Y-179660429D01*
X59864230Y-179637372D01*
X59941507Y-179622000D01*
X60138493Y-179622000D01*
X60215770Y-179637372D01*
X60215770Y-179637372D01*
G37*
G36*
X55754846Y-174382577D02*
X55866422Y-174416424D01*
X55905669Y-174428329D01*
X56044662Y-174502622D01*
X56166491Y-174602605D01*
X56166493Y-174602607D01*
X56187373Y-174628049D01*
X56266480Y-174724440D01*
X56340771Y-174863430D01*
X56352676Y-174902677D01*
X56386523Y-175014253D01*
X56398100Y-175131797D01*
X56398100Y-176658203D01*
X56386523Y-176775747D01*
X56352676Y-176887323D01*
X56340771Y-176926570D01*
X56266480Y-177065560D01*
X56166493Y-177187393D01*
X56044660Y-177287380D01*
X55905670Y-177361671D01*
X55866423Y-177373576D01*
X55754847Y-177407423D01*
X55650282Y-177417722D01*
X55598001Y-177422871D01*
X55598000Y-177422871D01*
X55441154Y-177407423D01*
X55329578Y-177373576D01*
X55290331Y-177361671D01*
X55151341Y-177287380D01*
X55029508Y-177187393D01*
X54929521Y-177065560D01*
X54855230Y-176926570D01*
X54843325Y-176887323D01*
X54809478Y-176775747D01*
X54797901Y-176658203D01*
X54797900Y-175131798D01*
X54809477Y-175014254D01*
X54855228Y-174863435D01*
X54855229Y-174863431D01*
X54929522Y-174724438D01*
X55029505Y-174602609D01*
X55029510Y-174602605D01*
X55054949Y-174581727D01*
X55151340Y-174502620D01*
X55290330Y-174428329D01*
X55329577Y-174416424D01*
X55441153Y-174382577D01*
X55545718Y-174372278D01*
X55597999Y-174367129D01*
X55598000Y-174367129D01*
X55754846Y-174382577D01*
X55754846Y-174382577D01*
G37*
G36*
X52252353Y-174382393D02*
X52279986Y-174390775D01*
X52400782Y-174427418D01*
X52400784Y-174427419D01*
X52537573Y-174500534D01*
X52657467Y-174598929D01*
X52657469Y-174598931D01*
X52660487Y-174602609D01*
X52755867Y-174718829D01*
X52758866Y-174724440D01*
X52828982Y-174855617D01*
X52865625Y-174976413D01*
X52874007Y-175004046D01*
X52885400Y-175119723D01*
X52885400Y-176670277D01*
X52874007Y-176785954D01*
X52828981Y-176934385D01*
X52755867Y-177071171D01*
X52657469Y-177191069D01*
X52537571Y-177289467D01*
X52400785Y-177362581D01*
X52400783Y-177362582D01*
X52279987Y-177399225D01*
X52252354Y-177407607D01*
X52098000Y-177422809D01*
X51943647Y-177407607D01*
X51916014Y-177399225D01*
X51795218Y-177362582D01*
X51795216Y-177362581D01*
X51658430Y-177289467D01*
X51538532Y-177191069D01*
X51440134Y-177071171D01*
X51367020Y-176934385D01*
X51321994Y-176785954D01*
X51310601Y-176670277D01*
X51310600Y-175119724D01*
X51321993Y-175004047D01*
X51364648Y-174863431D01*
X51367018Y-174855618D01*
X51367020Y-174855615D01*
X51440134Y-174718827D01*
X51538529Y-174598933D01*
X51538534Y-174598929D01*
X51618462Y-174533333D01*
X51658429Y-174500533D01*
X51795215Y-174427419D01*
X51795217Y-174427418D01*
X51916013Y-174390775D01*
X51943646Y-174382393D01*
X52098000Y-174367191D01*
X52252353Y-174382393D01*
X52252353Y-174382393D01*
G37*
G36*
X88304630Y-170104299D02*
X88464855Y-170152903D01*
X88612520Y-170231831D01*
X88741949Y-170338051D01*
X88848169Y-170467480D01*
X88927097Y-170615145D01*
X88975701Y-170775370D01*
X88992112Y-170942000D01*
X88975701Y-171108630D01*
X88927097Y-171268855D01*
X88848169Y-171416520D01*
X88741949Y-171545949D01*
X88612520Y-171652169D01*
X88464855Y-171731097D01*
X88304630Y-171779701D01*
X88179752Y-171792000D01*
X88096248Y-171792000D01*
X87971370Y-171779701D01*
X87811145Y-171731097D01*
X87663480Y-171652169D01*
X87534051Y-171545949D01*
X87427831Y-171416520D01*
X87348903Y-171268855D01*
X87300299Y-171108630D01*
X87283888Y-170942000D01*
X87300299Y-170775370D01*
X87348903Y-170615145D01*
X87427831Y-170467480D01*
X87534051Y-170338051D01*
X87663480Y-170231831D01*
X87811145Y-170152903D01*
X87971370Y-170104299D01*
X88096248Y-170092000D01*
X88179752Y-170092000D01*
X88304630Y-170104299D01*
X88304630Y-170104299D01*
G37*
G36*
X85764630Y-170104299D02*
X85924855Y-170152903D01*
X86072520Y-170231831D01*
X86201949Y-170338051D01*
X86308169Y-170467480D01*
X86387097Y-170615145D01*
X86435701Y-170775370D01*
X86452112Y-170942000D01*
X86435701Y-171108630D01*
X86387097Y-171268855D01*
X86308169Y-171416520D01*
X86201949Y-171545949D01*
X86072520Y-171652169D01*
X85924855Y-171731097D01*
X85764630Y-171779701D01*
X85639752Y-171792000D01*
X85556248Y-171792000D01*
X85431370Y-171779701D01*
X85271145Y-171731097D01*
X85123480Y-171652169D01*
X84994051Y-171545949D01*
X84887831Y-171416520D01*
X84808903Y-171268855D01*
X84760299Y-171108630D01*
X84743888Y-170942000D01*
X84760299Y-170775370D01*
X84808903Y-170615145D01*
X84887831Y-170467480D01*
X84994051Y-170338051D01*
X85123480Y-170231831D01*
X85271145Y-170152903D01*
X85431370Y-170104299D01*
X85556248Y-170092000D01*
X85639752Y-170092000D01*
X85764630Y-170104299D01*
X85764630Y-170104299D01*
G37*
G36*
X36163796Y-169361799D02*
X36163799Y-169361800D01*
X36163798Y-169361800D01*
X36318652Y-169425942D01*
X36318653Y-169425943D01*
X36458020Y-169519065D01*
X36576535Y-169637580D01*
X36576537Y-169637583D01*
X36669658Y-169776948D01*
X36719269Y-169896721D01*
X36733801Y-169931804D01*
X36766500Y-170096192D01*
X36766500Y-170263808D01*
X36733801Y-170428196D01*
X36733800Y-170428198D01*
X36669658Y-170583052D01*
X36669657Y-170583053D01*
X36576535Y-170722420D01*
X36458020Y-170840935D01*
X36458017Y-170840937D01*
X36318652Y-170934058D01*
X36198879Y-170983669D01*
X36163796Y-170998201D01*
X35999408Y-171030900D01*
X35831792Y-171030900D01*
X35667404Y-170998201D01*
X35632321Y-170983669D01*
X35512548Y-170934058D01*
X35373183Y-170840937D01*
X35373180Y-170840935D01*
X35254665Y-170722420D01*
X35161543Y-170583053D01*
X35161542Y-170583052D01*
X35097400Y-170428198D01*
X35097399Y-170428196D01*
X35064700Y-170263808D01*
X35064700Y-170096192D01*
X35097399Y-169931804D01*
X35111931Y-169896721D01*
X35161542Y-169776948D01*
X35254663Y-169637583D01*
X35254665Y-169637580D01*
X35373180Y-169519065D01*
X35512547Y-169425943D01*
X35512548Y-169425942D01*
X35667402Y-169361800D01*
X35667401Y-169361800D01*
X35667404Y-169361799D01*
X35831792Y-169329100D01*
X35999408Y-169329100D01*
X36163796Y-169361799D01*
X36163796Y-169361799D01*
G37*
G36*
X29153396Y-169361799D02*
X29153399Y-169361800D01*
X29153398Y-169361800D01*
X29308252Y-169425942D01*
X29308253Y-169425943D01*
X29447620Y-169519065D01*
X29566135Y-169637580D01*
X29566137Y-169637583D01*
X29659258Y-169776948D01*
X29708869Y-169896721D01*
X29723401Y-169931804D01*
X29756100Y-170096192D01*
X29756100Y-170263808D01*
X29723401Y-170428196D01*
X29723400Y-170428198D01*
X29659258Y-170583052D01*
X29659257Y-170583053D01*
X29566135Y-170722420D01*
X29447620Y-170840935D01*
X29447617Y-170840937D01*
X29308252Y-170934058D01*
X29188479Y-170983669D01*
X29153396Y-170998201D01*
X28989008Y-171030900D01*
X28821392Y-171030900D01*
X28657004Y-170998201D01*
X28621921Y-170983669D01*
X28502148Y-170934058D01*
X28362783Y-170840937D01*
X28362780Y-170840935D01*
X28244265Y-170722420D01*
X28151143Y-170583053D01*
X28151142Y-170583052D01*
X28087000Y-170428198D01*
X28086999Y-170428196D01*
X28054300Y-170263808D01*
X28054300Y-170096192D01*
X28086999Y-169931804D01*
X28101531Y-169896721D01*
X28151142Y-169776948D01*
X28244263Y-169637583D01*
X28244265Y-169637580D01*
X28362780Y-169519065D01*
X28502147Y-169425943D01*
X28502148Y-169425942D01*
X28657002Y-169361800D01*
X28657001Y-169361800D01*
X28657004Y-169361799D01*
X28821392Y-169329100D01*
X28989008Y-169329100D01*
X29153396Y-169361799D01*
X29153396Y-169361799D01*
G37*
G36*
X85764630Y-167564299D02*
X85924855Y-167612903D01*
X86072520Y-167691831D01*
X86201949Y-167798051D01*
X86308169Y-167927480D01*
X86387097Y-168075145D01*
X86435701Y-168235370D01*
X86452112Y-168402000D01*
X86435701Y-168568630D01*
X86387097Y-168728855D01*
X86308169Y-168876520D01*
X86201949Y-169005949D01*
X86072520Y-169112169D01*
X85924855Y-169191097D01*
X85764630Y-169239701D01*
X85639752Y-169252000D01*
X85556248Y-169252000D01*
X85431370Y-169239701D01*
X85271145Y-169191097D01*
X85123480Y-169112169D01*
X84994051Y-169005949D01*
X84887831Y-168876520D01*
X84808903Y-168728855D01*
X84760299Y-168568630D01*
X84743888Y-168402000D01*
X84760299Y-168235370D01*
X84808903Y-168075145D01*
X84887831Y-167927480D01*
X84994051Y-167798051D01*
X85123480Y-167691831D01*
X85271145Y-167612903D01*
X85431370Y-167564299D01*
X85556248Y-167552000D01*
X85639752Y-167552000D01*
X85764630Y-167564299D01*
X85764630Y-167564299D01*
G37*
G36*
X88304630Y-167564299D02*
X88464855Y-167612903D01*
X88612520Y-167691831D01*
X88741949Y-167798051D01*
X88848169Y-167927480D01*
X88927097Y-168075145D01*
X88975701Y-168235370D01*
X88992112Y-168402000D01*
X88975701Y-168568630D01*
X88927097Y-168728855D01*
X88848169Y-168876520D01*
X88741949Y-169005949D01*
X88612520Y-169112169D01*
X88464855Y-169191097D01*
X88304630Y-169239701D01*
X88179752Y-169252000D01*
X88096248Y-169252000D01*
X87971370Y-169239701D01*
X87811145Y-169191097D01*
X87663480Y-169112169D01*
X87534051Y-169005949D01*
X87427831Y-168876520D01*
X87348903Y-168728855D01*
X87300299Y-168568630D01*
X87283888Y-168402000D01*
X87300299Y-168235370D01*
X87348903Y-168075145D01*
X87427831Y-167927480D01*
X87534051Y-167798051D01*
X87663480Y-167691831D01*
X87811145Y-167612903D01*
X87971370Y-167564299D01*
X88096248Y-167552000D01*
X88179752Y-167552000D01*
X88304630Y-167564299D01*
X88304630Y-167564299D01*
G37*
G36*
X85764630Y-165024299D02*
X85924855Y-165072903D01*
X86072520Y-165151831D01*
X86201949Y-165258051D01*
X86308169Y-165387480D01*
X86387097Y-165535145D01*
X86435701Y-165695370D01*
X86452112Y-165862000D01*
X86435701Y-166028630D01*
X86387097Y-166188855D01*
X86308169Y-166336520D01*
X86201949Y-166465949D01*
X86072520Y-166572169D01*
X85924855Y-166651097D01*
X85764630Y-166699701D01*
X85639752Y-166712000D01*
X85556248Y-166712000D01*
X85431370Y-166699701D01*
X85271145Y-166651097D01*
X85123480Y-166572169D01*
X84994051Y-166465949D01*
X84887831Y-166336520D01*
X84808903Y-166188855D01*
X84760299Y-166028630D01*
X84743888Y-165862000D01*
X84760299Y-165695370D01*
X84808903Y-165535145D01*
X84887831Y-165387480D01*
X84994051Y-165258051D01*
X85123480Y-165151831D01*
X85271145Y-165072903D01*
X85431370Y-165024299D01*
X85556248Y-165012000D01*
X85639752Y-165012000D01*
X85764630Y-165024299D01*
X85764630Y-165024299D01*
G37*
G36*
X88304630Y-165024299D02*
X88464855Y-165072903D01*
X88612520Y-165151831D01*
X88741949Y-165258051D01*
X88848169Y-165387480D01*
X88927097Y-165535145D01*
X88975701Y-165695370D01*
X88992112Y-165862000D01*
X88975701Y-166028630D01*
X88927097Y-166188855D01*
X88848169Y-166336520D01*
X88741949Y-166465949D01*
X88612520Y-166572169D01*
X88464855Y-166651097D01*
X88304630Y-166699701D01*
X88179752Y-166712000D01*
X88096248Y-166712000D01*
X87971370Y-166699701D01*
X87811145Y-166651097D01*
X87663480Y-166572169D01*
X87534051Y-166465949D01*
X87427831Y-166336520D01*
X87348903Y-166188855D01*
X87300299Y-166028630D01*
X87283888Y-165862000D01*
X87300299Y-165695370D01*
X87348903Y-165535145D01*
X87427831Y-165387480D01*
X87534051Y-165258051D01*
X87663480Y-165151831D01*
X87811145Y-165072903D01*
X87971370Y-165024299D01*
X88096248Y-165012000D01*
X88179752Y-165012000D01*
X88304630Y-165024299D01*
X88304630Y-165024299D01*
G37*
G36*
X88304630Y-162484299D02*
X88464855Y-162532903D01*
X88612520Y-162611831D01*
X88741949Y-162718051D01*
X88848169Y-162847480D01*
X88927097Y-162995145D01*
X88975701Y-163155370D01*
X88992112Y-163322000D01*
X88975701Y-163488630D01*
X88927097Y-163648855D01*
X88848169Y-163796520D01*
X88741949Y-163925949D01*
X88612520Y-164032169D01*
X88464855Y-164111097D01*
X88304630Y-164159701D01*
X88179752Y-164172000D01*
X88096248Y-164172000D01*
X87971370Y-164159701D01*
X87811145Y-164111097D01*
X87663480Y-164032169D01*
X87534051Y-163925949D01*
X87427831Y-163796520D01*
X87348903Y-163648855D01*
X87300299Y-163488630D01*
X87283888Y-163322000D01*
X87300299Y-163155370D01*
X87348903Y-162995145D01*
X87427831Y-162847480D01*
X87534051Y-162718051D01*
X87663480Y-162611831D01*
X87811145Y-162532903D01*
X87971370Y-162484299D01*
X88096248Y-162472000D01*
X88179752Y-162472000D01*
X88304630Y-162484299D01*
X88304630Y-162484299D01*
G37*
G36*
X85764630Y-162484299D02*
X85924855Y-162532903D01*
X86072520Y-162611831D01*
X86201949Y-162718051D01*
X86308169Y-162847480D01*
X86387097Y-162995145D01*
X86435701Y-163155370D01*
X86452112Y-163322000D01*
X86435701Y-163488630D01*
X86387097Y-163648855D01*
X86308169Y-163796520D01*
X86201949Y-163925949D01*
X86072520Y-164032169D01*
X85924855Y-164111097D01*
X85764630Y-164159701D01*
X85639752Y-164172000D01*
X85556248Y-164172000D01*
X85431370Y-164159701D01*
X85271145Y-164111097D01*
X85123480Y-164032169D01*
X84994051Y-163925949D01*
X84887831Y-163796520D01*
X84808903Y-163648855D01*
X84760299Y-163488630D01*
X84743888Y-163322000D01*
X84760299Y-163155370D01*
X84808903Y-162995145D01*
X84887831Y-162847480D01*
X84994051Y-162718051D01*
X85123480Y-162611831D01*
X85271145Y-162532903D01*
X85431370Y-162484299D01*
X85556248Y-162472000D01*
X85639752Y-162472000D01*
X85764630Y-162484299D01*
X85764630Y-162484299D01*
G37*
G36*
X85764630Y-159944299D02*
X85924855Y-159992903D01*
X86072520Y-160071831D01*
X86201949Y-160178051D01*
X86308169Y-160307480D01*
X86387097Y-160455145D01*
X86435701Y-160615370D01*
X86452112Y-160782000D01*
X86435701Y-160948630D01*
X86387097Y-161108855D01*
X86308169Y-161256520D01*
X86201949Y-161385949D01*
X86072520Y-161492169D01*
X85924855Y-161571097D01*
X85764630Y-161619701D01*
X85639752Y-161632000D01*
X85556248Y-161632000D01*
X85431370Y-161619701D01*
X85271145Y-161571097D01*
X85123480Y-161492169D01*
X84994051Y-161385949D01*
X84887831Y-161256520D01*
X84808903Y-161108855D01*
X84760299Y-160948630D01*
X84743888Y-160782000D01*
X84760299Y-160615370D01*
X84808903Y-160455145D01*
X84887831Y-160307480D01*
X84994051Y-160178051D01*
X85123480Y-160071831D01*
X85271145Y-159992903D01*
X85431370Y-159944299D01*
X85556248Y-159932000D01*
X85639752Y-159932000D01*
X85764630Y-159944299D01*
X85764630Y-159944299D01*
G37*
G36*
X88304630Y-159944299D02*
X88464855Y-159992903D01*
X88612520Y-160071831D01*
X88741949Y-160178051D01*
X88848169Y-160307480D01*
X88927097Y-160455145D01*
X88975701Y-160615370D01*
X88992112Y-160782000D01*
X88975701Y-160948630D01*
X88927097Y-161108855D01*
X88848169Y-161256520D01*
X88741949Y-161385949D01*
X88612520Y-161492169D01*
X88464855Y-161571097D01*
X88304630Y-161619701D01*
X88179752Y-161632000D01*
X88096248Y-161632000D01*
X87971370Y-161619701D01*
X87811145Y-161571097D01*
X87663480Y-161492169D01*
X87534051Y-161385949D01*
X87427831Y-161256520D01*
X87348903Y-161108855D01*
X87300299Y-160948630D01*
X87283888Y-160782000D01*
X87300299Y-160615370D01*
X87348903Y-160455145D01*
X87427831Y-160307480D01*
X87534051Y-160178051D01*
X87663480Y-160071831D01*
X87811145Y-159992903D01*
X87971370Y-159944299D01*
X88096248Y-159932000D01*
X88179752Y-159932000D01*
X88304630Y-159944299D01*
X88304630Y-159944299D01*
G37*
G36*
X88988000Y-159092000D02*
X87288000Y-159092000D01*
X87288000Y-157392000D01*
X88988000Y-157392000D01*
X88988000Y-159092000D01*
X88988000Y-159092000D01*
G37*
G36*
X85764630Y-157404299D02*
X85924855Y-157452903D01*
X86072520Y-157531831D01*
X86201949Y-157638051D01*
X86308169Y-157767480D01*
X86387097Y-157915145D01*
X86435701Y-158075370D01*
X86452112Y-158242000D01*
X86435701Y-158408630D01*
X86387097Y-158568855D01*
X86308169Y-158716520D01*
X86201949Y-158845949D01*
X86072520Y-158952169D01*
X85924855Y-159031097D01*
X85764630Y-159079701D01*
X85639752Y-159092000D01*
X85556248Y-159092000D01*
X85431370Y-159079701D01*
X85271145Y-159031097D01*
X85123480Y-158952169D01*
X84994051Y-158845949D01*
X84887831Y-158716520D01*
X84808903Y-158568855D01*
X84760299Y-158408630D01*
X84743888Y-158242000D01*
X84760299Y-158075370D01*
X84808903Y-157915145D01*
X84887831Y-157767480D01*
X84994051Y-157638051D01*
X85123480Y-157531831D01*
X85271145Y-157452903D01*
X85431370Y-157404299D01*
X85556248Y-157392000D01*
X85639752Y-157392000D01*
X85764630Y-157404299D01*
X85764630Y-157404299D01*
G37*
G36*
X29153396Y-151581799D02*
X29153399Y-151581800D01*
X29153398Y-151581800D01*
X29308252Y-151645942D01*
X29308253Y-151645943D01*
X29447620Y-151739065D01*
X29566135Y-151857580D01*
X29566137Y-151857583D01*
X29659258Y-151996948D01*
X29708869Y-152116721D01*
X29723401Y-152151804D01*
X29756100Y-152316192D01*
X29756100Y-152483808D01*
X29723401Y-152648196D01*
X29723400Y-152648198D01*
X29659258Y-152803052D01*
X29659257Y-152803053D01*
X29566135Y-152942420D01*
X29447620Y-153060935D01*
X29447617Y-153060937D01*
X29308252Y-153154058D01*
X29188479Y-153203669D01*
X29153396Y-153218201D01*
X28989008Y-153250900D01*
X28821392Y-153250900D01*
X28657004Y-153218201D01*
X28621921Y-153203669D01*
X28502148Y-153154058D01*
X28362783Y-153060937D01*
X28362780Y-153060935D01*
X28244265Y-152942420D01*
X28151143Y-152803053D01*
X28151142Y-152803052D01*
X28087000Y-152648198D01*
X28086999Y-152648196D01*
X28054300Y-152483808D01*
X28054300Y-152316192D01*
X28086999Y-152151804D01*
X28101531Y-152116721D01*
X28151142Y-151996948D01*
X28244263Y-151857583D01*
X28244265Y-151857580D01*
X28362780Y-151739065D01*
X28502147Y-151645943D01*
X28502148Y-151645942D01*
X28657002Y-151581800D01*
X28657001Y-151581800D01*
X28657004Y-151581799D01*
X28821392Y-151549100D01*
X28989008Y-151549100D01*
X29153396Y-151581799D01*
X29153396Y-151581799D01*
G37*
G36*
X36163796Y-151581799D02*
X36163799Y-151581800D01*
X36163798Y-151581800D01*
X36318652Y-151645942D01*
X36318653Y-151645943D01*
X36458020Y-151739065D01*
X36576535Y-151857580D01*
X36576537Y-151857583D01*
X36669658Y-151996948D01*
X36719269Y-152116721D01*
X36733801Y-152151804D01*
X36766500Y-152316192D01*
X36766500Y-152483808D01*
X36733801Y-152648196D01*
X36733800Y-152648198D01*
X36669658Y-152803052D01*
X36669657Y-152803053D01*
X36576535Y-152942420D01*
X36458020Y-153060935D01*
X36458017Y-153060937D01*
X36318652Y-153154058D01*
X36198879Y-153203669D01*
X36163796Y-153218201D01*
X35999408Y-153250900D01*
X35831792Y-153250900D01*
X35667404Y-153218201D01*
X35632321Y-153203669D01*
X35512548Y-153154058D01*
X35373183Y-153060937D01*
X35373180Y-153060935D01*
X35254665Y-152942420D01*
X35161543Y-152803053D01*
X35161542Y-152803052D01*
X35097400Y-152648198D01*
X35097399Y-152648196D01*
X35064700Y-152483808D01*
X35064700Y-152316192D01*
X35097399Y-152151804D01*
X35111931Y-152116721D01*
X35161542Y-151996948D01*
X35254663Y-151857583D01*
X35254665Y-151857580D01*
X35373180Y-151739065D01*
X35512547Y-151645943D01*
X35512548Y-151645942D01*
X35667402Y-151581800D01*
X35667401Y-151581800D01*
X35667404Y-151581799D01*
X35831792Y-151549100D01*
X35999408Y-151549100D01*
X36163796Y-151581799D01*
X36163796Y-151581799D01*
G37*
G36*
X111926630Y-146990299D02*
X112086855Y-147038903D01*
X112234520Y-147117831D01*
X112363949Y-147224051D01*
X112470169Y-147353480D01*
X112549097Y-147501145D01*
X112597701Y-147661370D01*
X112614112Y-147828000D01*
X112597701Y-147994630D01*
X112549097Y-148154855D01*
X112470169Y-148302520D01*
X112363949Y-148431949D01*
X112234520Y-148538169D01*
X112086855Y-148617097D01*
X111926630Y-148665701D01*
X111801752Y-148678000D01*
X111718248Y-148678000D01*
X111593370Y-148665701D01*
X111433145Y-148617097D01*
X111285480Y-148538169D01*
X111156051Y-148431949D01*
X111049831Y-148302520D01*
X110970903Y-148154855D01*
X110922299Y-147994630D01*
X110905888Y-147828000D01*
X110922299Y-147661370D01*
X110970903Y-147501145D01*
X111049831Y-147353480D01*
X111156051Y-147224051D01*
X111285480Y-147117831D01*
X111433145Y-147038903D01*
X111593370Y-146990299D01*
X111718248Y-146978000D01*
X111801752Y-146978000D01*
X111926630Y-146990299D01*
X111926630Y-146990299D01*
G37*
G36*
X99910000Y-148678000D02*
X98210000Y-148678000D01*
X98210000Y-146978000D01*
X99910000Y-146978000D01*
X99910000Y-148678000D01*
X99910000Y-148678000D01*
G37*
G36*
X101766630Y-146990299D02*
X101926855Y-147038903D01*
X102074520Y-147117831D01*
X102203949Y-147224051D01*
X102310169Y-147353480D01*
X102389097Y-147501145D01*
X102437701Y-147661370D01*
X102454112Y-147828000D01*
X102437701Y-147994630D01*
X102389097Y-148154855D01*
X102310169Y-148302520D01*
X102203949Y-148431949D01*
X102074520Y-148538169D01*
X101926855Y-148617097D01*
X101766630Y-148665701D01*
X101641752Y-148678000D01*
X101558248Y-148678000D01*
X101433370Y-148665701D01*
X101273145Y-148617097D01*
X101125480Y-148538169D01*
X100996051Y-148431949D01*
X100889831Y-148302520D01*
X100810903Y-148154855D01*
X100762299Y-147994630D01*
X100745888Y-147828000D01*
X100762299Y-147661370D01*
X100810903Y-147501145D01*
X100889831Y-147353480D01*
X100996051Y-147224051D01*
X101125480Y-147117831D01*
X101273145Y-147038903D01*
X101433370Y-146990299D01*
X101558248Y-146978000D01*
X101641752Y-146978000D01*
X101766630Y-146990299D01*
X101766630Y-146990299D01*
G37*
G36*
X104306630Y-146990299D02*
X104466855Y-147038903D01*
X104614520Y-147117831D01*
X104743949Y-147224051D01*
X104850169Y-147353480D01*
X104929097Y-147501145D01*
X104977701Y-147661370D01*
X104994112Y-147828000D01*
X104977701Y-147994630D01*
X104929097Y-148154855D01*
X104850169Y-148302520D01*
X104743949Y-148431949D01*
X104614520Y-148538169D01*
X104466855Y-148617097D01*
X104306630Y-148665701D01*
X104181752Y-148678000D01*
X104098248Y-148678000D01*
X103973370Y-148665701D01*
X103813145Y-148617097D01*
X103665480Y-148538169D01*
X103536051Y-148431949D01*
X103429831Y-148302520D01*
X103350903Y-148154855D01*
X103302299Y-147994630D01*
X103285888Y-147828000D01*
X103302299Y-147661370D01*
X103350903Y-147501145D01*
X103429831Y-147353480D01*
X103536051Y-147224051D01*
X103665480Y-147117831D01*
X103813145Y-147038903D01*
X103973370Y-146990299D01*
X104098248Y-146978000D01*
X104181752Y-146978000D01*
X104306630Y-146990299D01*
X104306630Y-146990299D01*
G37*
G36*
X106846630Y-146990299D02*
X107006855Y-147038903D01*
X107154520Y-147117831D01*
X107283949Y-147224051D01*
X107390169Y-147353480D01*
X107469097Y-147501145D01*
X107517701Y-147661370D01*
X107534112Y-147828000D01*
X107517701Y-147994630D01*
X107469097Y-148154855D01*
X107390169Y-148302520D01*
X107283949Y-148431949D01*
X107154520Y-148538169D01*
X107006855Y-148617097D01*
X106846630Y-148665701D01*
X106721752Y-148678000D01*
X106638248Y-148678000D01*
X106513370Y-148665701D01*
X106353145Y-148617097D01*
X106205480Y-148538169D01*
X106076051Y-148431949D01*
X105969831Y-148302520D01*
X105890903Y-148154855D01*
X105842299Y-147994630D01*
X105825888Y-147828000D01*
X105842299Y-147661370D01*
X105890903Y-147501145D01*
X105969831Y-147353480D01*
X106076051Y-147224051D01*
X106205480Y-147117831D01*
X106353145Y-147038903D01*
X106513370Y-146990299D01*
X106638248Y-146978000D01*
X106721752Y-146978000D01*
X106846630Y-146990299D01*
X106846630Y-146990299D01*
G37*
G36*
X109386630Y-146990299D02*
X109546855Y-147038903D01*
X109694520Y-147117831D01*
X109823949Y-147224051D01*
X109930169Y-147353480D01*
X110009097Y-147501145D01*
X110057701Y-147661370D01*
X110074112Y-147828000D01*
X110057701Y-147994630D01*
X110009097Y-148154855D01*
X109930169Y-148302520D01*
X109823949Y-148431949D01*
X109694520Y-148538169D01*
X109546855Y-148617097D01*
X109386630Y-148665701D01*
X109261752Y-148678000D01*
X109178248Y-148678000D01*
X109053370Y-148665701D01*
X108893145Y-148617097D01*
X108745480Y-148538169D01*
X108616051Y-148431949D01*
X108509831Y-148302520D01*
X108430903Y-148154855D01*
X108382299Y-147994630D01*
X108365888Y-147828000D01*
X108382299Y-147661370D01*
X108430903Y-147501145D01*
X108509831Y-147353480D01*
X108616051Y-147224051D01*
X108745480Y-147117831D01*
X108893145Y-147038903D01*
X109053370Y-146990299D01*
X109178248Y-146978000D01*
X109261752Y-146978000D01*
X109386630Y-146990299D01*
X109386630Y-146990299D01*
G37*
G36*
X36163796Y-133801799D02*
X36163799Y-133801800D01*
X36163798Y-133801800D01*
X36318652Y-133865942D01*
X36318653Y-133865943D01*
X36458020Y-133959065D01*
X36576535Y-134077580D01*
X36576537Y-134077583D01*
X36669658Y-134216948D01*
X36719269Y-134336721D01*
X36733801Y-134371804D01*
X36766500Y-134536192D01*
X36766500Y-134703808D01*
X36733801Y-134868196D01*
X36733800Y-134868198D01*
X36669658Y-135023052D01*
X36669657Y-135023053D01*
X36576535Y-135162420D01*
X36458020Y-135280935D01*
X36458017Y-135280937D01*
X36318652Y-135374058D01*
X36198879Y-135423669D01*
X36163796Y-135438201D01*
X35999408Y-135470900D01*
X35831792Y-135470900D01*
X35667404Y-135438201D01*
X35632321Y-135423669D01*
X35512548Y-135374058D01*
X35373183Y-135280937D01*
X35373180Y-135280935D01*
X35254665Y-135162420D01*
X35161543Y-135023053D01*
X35161542Y-135023052D01*
X35097400Y-134868198D01*
X35097399Y-134868196D01*
X35064700Y-134703808D01*
X35064700Y-134536192D01*
X35097399Y-134371804D01*
X35111931Y-134336721D01*
X35161542Y-134216948D01*
X35254663Y-134077583D01*
X35254665Y-134077580D01*
X35373180Y-133959065D01*
X35512547Y-133865943D01*
X35512548Y-133865942D01*
X35667402Y-133801800D01*
X35667401Y-133801800D01*
X35667404Y-133801799D01*
X35831792Y-133769100D01*
X35999408Y-133769100D01*
X36163796Y-133801799D01*
X36163796Y-133801799D01*
G37*
G36*
X29153396Y-133801799D02*
X29153399Y-133801800D01*
X29153398Y-133801800D01*
X29308252Y-133865942D01*
X29308253Y-133865943D01*
X29447620Y-133959065D01*
X29566135Y-134077580D01*
X29566137Y-134077583D01*
X29659258Y-134216948D01*
X29708869Y-134336721D01*
X29723401Y-134371804D01*
X29756100Y-134536192D01*
X29756100Y-134703808D01*
X29723401Y-134868196D01*
X29723400Y-134868198D01*
X29659258Y-135023052D01*
X29659257Y-135023053D01*
X29566135Y-135162420D01*
X29447620Y-135280935D01*
X29447617Y-135280937D01*
X29308252Y-135374058D01*
X29188479Y-135423669D01*
X29153396Y-135438201D01*
X28989008Y-135470900D01*
X28821392Y-135470900D01*
X28657004Y-135438201D01*
X28621921Y-135423669D01*
X28502148Y-135374058D01*
X28362783Y-135280937D01*
X28362780Y-135280935D01*
X28244265Y-135162420D01*
X28151143Y-135023053D01*
X28151142Y-135023052D01*
X28087000Y-134868198D01*
X28086999Y-134868196D01*
X28054300Y-134703808D01*
X28054300Y-134536192D01*
X28086999Y-134371804D01*
X28101531Y-134336721D01*
X28151142Y-134216948D01*
X28244263Y-134077583D01*
X28244265Y-134077580D01*
X28362780Y-133959065D01*
X28502147Y-133865943D01*
X28502148Y-133865942D01*
X28657002Y-133801800D01*
X28657001Y-133801800D01*
X28657004Y-133801799D01*
X28821392Y-133769100D01*
X28989008Y-133769100D01*
X29153396Y-133801799D01*
X29153396Y-133801799D01*
G37*
G36*
X121100857Y-125182272D02*
X121301042Y-125265191D01*
X121481213Y-125385578D01*
X121634422Y-125538787D01*
X121754809Y-125718958D01*
X121837728Y-125919143D01*
X121880000Y-126131658D01*
X121880000Y-126348342D01*
X121837728Y-126560857D01*
X121754809Y-126761042D01*
X121634422Y-126941213D01*
X121481213Y-127094422D01*
X121301042Y-127214809D01*
X121100857Y-127297728D01*
X120888342Y-127340000D01*
X120671658Y-127340000D01*
X120459143Y-127297728D01*
X120258958Y-127214809D01*
X120078787Y-127094422D01*
X119925578Y-126941213D01*
X119805191Y-126761042D01*
X119722272Y-126560857D01*
X119680000Y-126348342D01*
X119680000Y-126131658D01*
X119722272Y-125919143D01*
X119805191Y-125718958D01*
X119925578Y-125538787D01*
X120078787Y-125385578D01*
X120258958Y-125265191D01*
X120459143Y-125182272D01*
X120671658Y-125140000D01*
X120888342Y-125140000D01*
X121100857Y-125182272D01*
X121100857Y-125182272D01*
G37*
G36*
X124813992Y-122897447D02*
X124813994Y-122897448D01*
X124813995Y-122897448D01*
X125109726Y-123019943D01*
X125109727Y-123019944D01*
X125375880Y-123197782D01*
X125602218Y-123424120D01*
X125602220Y-123424123D01*
X125780057Y-123690274D01*
X125902552Y-123986005D01*
X125965000Y-124299951D01*
X125965000Y-124620049D01*
X125902552Y-124933995D01*
X125780057Y-125229726D01*
X125675922Y-125385575D01*
X125602218Y-125495880D01*
X125375880Y-125722218D01*
X125375877Y-125722220D01*
X125109726Y-125900057D01*
X124813995Y-126022552D01*
X124813994Y-126022552D01*
X124813992Y-126022553D01*
X124500050Y-126085000D01*
X124179950Y-126085000D01*
X123866008Y-126022553D01*
X123866006Y-126022552D01*
X123866005Y-126022552D01*
X123570274Y-125900057D01*
X123304123Y-125722220D01*
X123304120Y-125722218D01*
X123077782Y-125495880D01*
X123004078Y-125385575D01*
X122899943Y-125229726D01*
X122777448Y-124933995D01*
X122715000Y-124620049D01*
X122715000Y-124299951D01*
X122777448Y-123986005D01*
X122899943Y-123690274D01*
X123077780Y-123424123D01*
X123077782Y-123424120D01*
X123304120Y-123197782D01*
X123570273Y-123019944D01*
X123570274Y-123019943D01*
X123866005Y-122897448D01*
X123866006Y-122897448D01*
X123866008Y-122897447D01*
X124179950Y-122835000D01*
X124500050Y-122835000D01*
X124813992Y-122897447D01*
X124813992Y-122897447D01*
G37*
G36*
X120253352Y-120900743D02*
X120398941Y-120961048D01*
X120529973Y-121048601D01*
X120641399Y-121160027D01*
X120728952Y-121291059D01*
X120789257Y-121436648D01*
X120820000Y-121591205D01*
X120820000Y-121748795D01*
X120789257Y-121903352D01*
X120728952Y-122048941D01*
X120641399Y-122179973D01*
X120529973Y-122291399D01*
X120398941Y-122378952D01*
X120253352Y-122439257D01*
X120098795Y-122470000D01*
X119941205Y-122470000D01*
X119786648Y-122439257D01*
X119641059Y-122378952D01*
X119510027Y-122291399D01*
X119398601Y-122179973D01*
X119311048Y-122048941D01*
X119250743Y-121903352D01*
X119220000Y-121748795D01*
X119220000Y-121591205D01*
X119250743Y-121436648D01*
X119311048Y-121291059D01*
X119398601Y-121160027D01*
X119510027Y-121048601D01*
X119641059Y-120961048D01*
X119786648Y-120900743D01*
X119941205Y-120870000D01*
X120098795Y-120870000D01*
X120253352Y-120900743D01*
X120253352Y-120900743D01*
G37*
G36*
X122033352Y-119870743D02*
X122178941Y-119931048D01*
X122309973Y-120018601D01*
X122421399Y-120130027D01*
X122508952Y-120261059D01*
X122569257Y-120406648D01*
X122600000Y-120561205D01*
X122600000Y-120718795D01*
X122569257Y-120873352D01*
X122508952Y-121018941D01*
X122421399Y-121149973D01*
X122309973Y-121261399D01*
X122178941Y-121348952D01*
X122033352Y-121409257D01*
X121878795Y-121440000D01*
X121721205Y-121440000D01*
X121566648Y-121409257D01*
X121421059Y-121348952D01*
X121290027Y-121261399D01*
X121178601Y-121149973D01*
X121091048Y-121018941D01*
X121030743Y-120873352D01*
X121000000Y-120718795D01*
X121000000Y-120561205D01*
X121030743Y-120406648D01*
X121091048Y-120261059D01*
X121178601Y-120130027D01*
X121290027Y-120018601D01*
X121421059Y-119931048D01*
X121566648Y-119870743D01*
X121721205Y-119840000D01*
X121878795Y-119840000D01*
X122033352Y-119870743D01*
X122033352Y-119870743D01*
G37*
G36*
X120253352Y-118870743D02*
X120398941Y-118931048D01*
X120529973Y-119018601D01*
X120641399Y-119130027D01*
X120728952Y-119261059D01*
X120789257Y-119406648D01*
X120820000Y-119561205D01*
X120820000Y-119718795D01*
X120789257Y-119873352D01*
X120728952Y-120018941D01*
X120641399Y-120149973D01*
X120529973Y-120261399D01*
X120398941Y-120348952D01*
X120253352Y-120409257D01*
X120098795Y-120440000D01*
X119941205Y-120440000D01*
X119786648Y-120409257D01*
X119641059Y-120348952D01*
X119510027Y-120261399D01*
X119398601Y-120149973D01*
X119311048Y-120018941D01*
X119250743Y-119873352D01*
X119220000Y-119718795D01*
X119220000Y-119561205D01*
X119250743Y-119406648D01*
X119311048Y-119261059D01*
X119398601Y-119130027D01*
X119510027Y-119018601D01*
X119641059Y-118931048D01*
X119786648Y-118870743D01*
X119941205Y-118840000D01*
X120098795Y-118840000D01*
X120253352Y-118870743D01*
X120253352Y-118870743D01*
G37*
G36*
X122033352Y-117840743D02*
X122178941Y-117901048D01*
X122309973Y-117988601D01*
X122421399Y-118100027D01*
X122508952Y-118231059D01*
X122569257Y-118376648D01*
X122600000Y-118531205D01*
X122600000Y-118688795D01*
X122569257Y-118843352D01*
X122508952Y-118988941D01*
X122421399Y-119119973D01*
X122309973Y-119231399D01*
X122178941Y-119318952D01*
X122033352Y-119379257D01*
X121878795Y-119410000D01*
X121721205Y-119410000D01*
X121566648Y-119379257D01*
X121421059Y-119318952D01*
X121290027Y-119231399D01*
X121178601Y-119119973D01*
X121091048Y-118988941D01*
X121030743Y-118843352D01*
X121000000Y-118688795D01*
X121000000Y-118531205D01*
X121030743Y-118376648D01*
X121091048Y-118231059D01*
X121178601Y-118100027D01*
X121290027Y-117988601D01*
X121421059Y-117901048D01*
X121566648Y-117840743D01*
X121721205Y-117810000D01*
X121878795Y-117810000D01*
X122033352Y-117840743D01*
X122033352Y-117840743D01*
G37*
G36*
X120253352Y-116840743D02*
X120398941Y-116901048D01*
X120529973Y-116988601D01*
X120641399Y-117100027D01*
X120728952Y-117231059D01*
X120789257Y-117376648D01*
X120820000Y-117531205D01*
X120820000Y-117688795D01*
X120789257Y-117843352D01*
X120728952Y-117988941D01*
X120641399Y-118119973D01*
X120529973Y-118231399D01*
X120398941Y-118318952D01*
X120253352Y-118379257D01*
X120098795Y-118410000D01*
X119941205Y-118410000D01*
X119786648Y-118379257D01*
X119641059Y-118318952D01*
X119510027Y-118231399D01*
X119398601Y-118119973D01*
X119311048Y-117988941D01*
X119250743Y-117843352D01*
X119220000Y-117688795D01*
X119220000Y-117531205D01*
X119250743Y-117376648D01*
X119311048Y-117231059D01*
X119398601Y-117100027D01*
X119510027Y-116988601D01*
X119641059Y-116901048D01*
X119786648Y-116840743D01*
X119941205Y-116810000D01*
X120098795Y-116810000D01*
X120253352Y-116840743D01*
X120253352Y-116840743D01*
G37*
G36*
X36163796Y-116021799D02*
X36163799Y-116021800D01*
X36163798Y-116021800D01*
X36318652Y-116085942D01*
X36456138Y-116177808D01*
X36458020Y-116179065D01*
X36576535Y-116297580D01*
X36576537Y-116297583D01*
X36669658Y-116436948D01*
X36719269Y-116556721D01*
X36733801Y-116591804D01*
X36766500Y-116756192D01*
X36766500Y-116923808D01*
X36733801Y-117088196D01*
X36733800Y-117088198D01*
X36669658Y-117243052D01*
X36598694Y-117349257D01*
X36576535Y-117382420D01*
X36458020Y-117500935D01*
X36458017Y-117500937D01*
X36318652Y-117594058D01*
X36198879Y-117643669D01*
X36163796Y-117658201D01*
X35999408Y-117690900D01*
X35831792Y-117690900D01*
X35667404Y-117658201D01*
X35632321Y-117643669D01*
X35512548Y-117594058D01*
X35373183Y-117500937D01*
X35373180Y-117500935D01*
X35254665Y-117382420D01*
X35232506Y-117349257D01*
X35161542Y-117243052D01*
X35097400Y-117088198D01*
X35097399Y-117088196D01*
X35064700Y-116923808D01*
X35064700Y-116756192D01*
X35097399Y-116591804D01*
X35111931Y-116556721D01*
X35161542Y-116436948D01*
X35254663Y-116297583D01*
X35254665Y-116297580D01*
X35373180Y-116179065D01*
X35375062Y-116177808D01*
X35512548Y-116085942D01*
X35667402Y-116021800D01*
X35667401Y-116021800D01*
X35667404Y-116021799D01*
X35831792Y-115989100D01*
X35999408Y-115989100D01*
X36163796Y-116021799D01*
X36163796Y-116021799D01*
G37*
G36*
X29153396Y-116021799D02*
X29153399Y-116021800D01*
X29153398Y-116021800D01*
X29308252Y-116085942D01*
X29445738Y-116177808D01*
X29447620Y-116179065D01*
X29566135Y-116297580D01*
X29566137Y-116297583D01*
X29659258Y-116436948D01*
X29708869Y-116556721D01*
X29723401Y-116591804D01*
X29756100Y-116756192D01*
X29756100Y-116923808D01*
X29723401Y-117088196D01*
X29723400Y-117088198D01*
X29659258Y-117243052D01*
X29588294Y-117349257D01*
X29566135Y-117382420D01*
X29447620Y-117500935D01*
X29447617Y-117500937D01*
X29308252Y-117594058D01*
X29188479Y-117643669D01*
X29153396Y-117658201D01*
X28989008Y-117690900D01*
X28821392Y-117690900D01*
X28657004Y-117658201D01*
X28621921Y-117643669D01*
X28502148Y-117594058D01*
X28362783Y-117500937D01*
X28362780Y-117500935D01*
X28244265Y-117382420D01*
X28222106Y-117349257D01*
X28151142Y-117243052D01*
X28087000Y-117088198D01*
X28086999Y-117088196D01*
X28054300Y-116923808D01*
X28054300Y-116756192D01*
X28086999Y-116591804D01*
X28101531Y-116556721D01*
X28151142Y-116436948D01*
X28244263Y-116297583D01*
X28244265Y-116297580D01*
X28362780Y-116179065D01*
X28364662Y-116177808D01*
X28502148Y-116085942D01*
X28657002Y-116021800D01*
X28657001Y-116021800D01*
X28657004Y-116021799D01*
X28821392Y-115989100D01*
X28989008Y-115989100D01*
X29153396Y-116021799D01*
X29153396Y-116021799D01*
G37*
G36*
X122033352Y-115810743D02*
X122178941Y-115871048D01*
X122309973Y-115958601D01*
X122421399Y-116070027D01*
X122508952Y-116201059D01*
X122569257Y-116346648D01*
X122600000Y-116501205D01*
X122600000Y-116658795D01*
X122569257Y-116813352D01*
X122508952Y-116958941D01*
X122421399Y-117089973D01*
X122309973Y-117201399D01*
X122178941Y-117288952D01*
X122033352Y-117349257D01*
X121878795Y-117380000D01*
X121721205Y-117380000D01*
X121566648Y-117349257D01*
X121421059Y-117288952D01*
X121290027Y-117201399D01*
X121178601Y-117089973D01*
X121091048Y-116958941D01*
X121030743Y-116813352D01*
X121000000Y-116658795D01*
X121000000Y-116501205D01*
X121030743Y-116346648D01*
X121091048Y-116201059D01*
X121178601Y-116070027D01*
X121290027Y-115958601D01*
X121421059Y-115871048D01*
X121566648Y-115810743D01*
X121721205Y-115780000D01*
X121878795Y-115780000D01*
X122033352Y-115810743D01*
X122033352Y-115810743D01*
G37*
G36*
X120253352Y-114810743D02*
X120398941Y-114871048D01*
X120529973Y-114958601D01*
X120641399Y-115070027D01*
X120728952Y-115201059D01*
X120789257Y-115346648D01*
X120820000Y-115501205D01*
X120820000Y-115658795D01*
X120789257Y-115813352D01*
X120728952Y-115958941D01*
X120641399Y-116089973D01*
X120529973Y-116201399D01*
X120398941Y-116288952D01*
X120253352Y-116349257D01*
X120098795Y-116380000D01*
X119941205Y-116380000D01*
X119786648Y-116349257D01*
X119641059Y-116288952D01*
X119510027Y-116201399D01*
X119398601Y-116089973D01*
X119311048Y-115958941D01*
X119250743Y-115813352D01*
X119220000Y-115658795D01*
X119220000Y-115501205D01*
X119250743Y-115346648D01*
X119311048Y-115201059D01*
X119398601Y-115070027D01*
X119510027Y-114958601D01*
X119641059Y-114871048D01*
X119786648Y-114810743D01*
X119941205Y-114780000D01*
X120098795Y-114780000D01*
X120253352Y-114810743D01*
X120253352Y-114810743D01*
G37*
G36*
X122033352Y-113780743D02*
X122178941Y-113841048D01*
X122309973Y-113928601D01*
X122421399Y-114040027D01*
X122508952Y-114171059D01*
X122569257Y-114316648D01*
X122600000Y-114471205D01*
X122600000Y-114628795D01*
X122569257Y-114783352D01*
X122508952Y-114928941D01*
X122421399Y-115059973D01*
X122309973Y-115171399D01*
X122178941Y-115258952D01*
X122033352Y-115319257D01*
X121878795Y-115350000D01*
X121721205Y-115350000D01*
X121566648Y-115319257D01*
X121421059Y-115258952D01*
X121290027Y-115171399D01*
X121178601Y-115059973D01*
X121091048Y-114928941D01*
X121030743Y-114783352D01*
X121000000Y-114628795D01*
X121000000Y-114471205D01*
X121030743Y-114316648D01*
X121091048Y-114171059D01*
X121178601Y-114040027D01*
X121290027Y-113928601D01*
X121421059Y-113841048D01*
X121566648Y-113780743D01*
X121721205Y-113750000D01*
X121878795Y-113750000D01*
X122033352Y-113780743D01*
X122033352Y-113780743D01*
G37*
G36*
X124813992Y-110197447D02*
X124813994Y-110197448D01*
X124813995Y-110197448D01*
X125109726Y-110319943D01*
X125109727Y-110319944D01*
X125375880Y-110497782D01*
X125602218Y-110724120D01*
X125602220Y-110724123D01*
X125780057Y-110990274D01*
X125834579Y-111121903D01*
X125902553Y-111286008D01*
X125965000Y-111599950D01*
X125965000Y-111920050D01*
X125957997Y-111955258D01*
X125902552Y-112233995D01*
X125780057Y-112529726D01*
X125780056Y-112529727D01*
X125602218Y-112795880D01*
X125375880Y-113022218D01*
X125375877Y-113022220D01*
X125109726Y-113200057D01*
X124813995Y-113322552D01*
X124813994Y-113322552D01*
X124813992Y-113322553D01*
X124500050Y-113385000D01*
X124179950Y-113385000D01*
X123866008Y-113322553D01*
X123866006Y-113322552D01*
X123866005Y-113322552D01*
X123570274Y-113200057D01*
X123304123Y-113022220D01*
X123304120Y-113022218D01*
X123077782Y-112795880D01*
X122899944Y-112529727D01*
X122899943Y-112529726D01*
X122777448Y-112233995D01*
X122722004Y-111955258D01*
X122715000Y-111920050D01*
X122715000Y-111599950D01*
X122777447Y-111286008D01*
X122845421Y-111121903D01*
X122899943Y-110990274D01*
X123077780Y-110724123D01*
X123077782Y-110724120D01*
X123304120Y-110497782D01*
X123570273Y-110319944D01*
X123570274Y-110319943D01*
X123866005Y-110197448D01*
X123866006Y-110197448D01*
X123866008Y-110197447D01*
X124179950Y-110135000D01*
X124500050Y-110135000D01*
X124813992Y-110197447D01*
X124813992Y-110197447D01*
G37*
G36*
X72486318Y-110864411D02*
X72558767Y-110878822D01*
X72615303Y-110902240D01*
X72695257Y-110935358D01*
X72818100Y-111017439D01*
X72922561Y-111121900D01*
X73004642Y-111244743D01*
X73061178Y-111381234D01*
X73090000Y-111526130D01*
X73090000Y-111673870D01*
X73061178Y-111818766D01*
X73004642Y-111955257D01*
X72922561Y-112078100D01*
X72818100Y-112182561D01*
X72695257Y-112264642D01*
X72615303Y-112297760D01*
X72558767Y-112321178D01*
X72486318Y-112335589D01*
X72413870Y-112350000D01*
X72266130Y-112350000D01*
X72193682Y-112335589D01*
X72121233Y-112321178D01*
X72064697Y-112297760D01*
X71984743Y-112264642D01*
X71861900Y-112182561D01*
X71757439Y-112078100D01*
X71675358Y-111955257D01*
X71618822Y-111818766D01*
X71590000Y-111673870D01*
X71590000Y-111526130D01*
X71618822Y-111381234D01*
X71675358Y-111244743D01*
X71757439Y-111121900D01*
X71861900Y-111017439D01*
X71984743Y-110935358D01*
X72064697Y-110902240D01*
X72121233Y-110878822D01*
X72193682Y-110864411D01*
X72266130Y-110850000D01*
X72413870Y-110850000D01*
X72486318Y-110864411D01*
X72486318Y-110864411D01*
G37*
G36*
X78986318Y-110864411D02*
X79058767Y-110878822D01*
X79115303Y-110902240D01*
X79195257Y-110935358D01*
X79318100Y-111017439D01*
X79422561Y-111121900D01*
X79504642Y-111244743D01*
X79561178Y-111381234D01*
X79590000Y-111526130D01*
X79590000Y-111673870D01*
X79561178Y-111818766D01*
X79504642Y-111955257D01*
X79422561Y-112078100D01*
X79318100Y-112182561D01*
X79195257Y-112264642D01*
X79115303Y-112297760D01*
X79058767Y-112321178D01*
X78986318Y-112335589D01*
X78913870Y-112350000D01*
X78766130Y-112350000D01*
X78693682Y-112335589D01*
X78621233Y-112321178D01*
X78564697Y-112297760D01*
X78484743Y-112264642D01*
X78361900Y-112182561D01*
X78257439Y-112078100D01*
X78175358Y-111955257D01*
X78118822Y-111818766D01*
X78090000Y-111673870D01*
X78090000Y-111526130D01*
X78118822Y-111381234D01*
X78175358Y-111244743D01*
X78257439Y-111121900D01*
X78361900Y-111017439D01*
X78484743Y-110935358D01*
X78564697Y-110902240D01*
X78621233Y-110878822D01*
X78693682Y-110864411D01*
X78766130Y-110850000D01*
X78913870Y-110850000D01*
X78986318Y-110864411D01*
X78986318Y-110864411D01*
G37*
G36*
X121100857Y-108922272D02*
X121301042Y-109005191D01*
X121481213Y-109125578D01*
X121634422Y-109278787D01*
X121754809Y-109458958D01*
X121837728Y-109659143D01*
X121880000Y-109871658D01*
X121880000Y-110088342D01*
X121837728Y-110300857D01*
X121754809Y-110501042D01*
X121634422Y-110681213D01*
X121481213Y-110834422D01*
X121301042Y-110954809D01*
X121100857Y-111037728D01*
X120888342Y-111080000D01*
X120671658Y-111080000D01*
X120459143Y-111037728D01*
X120258958Y-110954809D01*
X120078787Y-110834422D01*
X119925578Y-110681213D01*
X119805191Y-110501042D01*
X119722272Y-110300857D01*
X119680000Y-110088342D01*
X119680000Y-109871658D01*
X119722272Y-109659143D01*
X119805191Y-109458958D01*
X119925578Y-109278787D01*
X120078787Y-109125578D01*
X120258958Y-109005191D01*
X120459143Y-108922272D01*
X120671658Y-108880000D01*
X120888342Y-108880000D01*
X121100857Y-108922272D01*
X121100857Y-108922272D01*
G37*
G36*
X78986318Y-106364411D02*
X79058767Y-106378822D01*
X79115303Y-106402240D01*
X79195257Y-106435358D01*
X79318100Y-106517439D01*
X79422561Y-106621900D01*
X79504642Y-106744743D01*
X79561178Y-106881234D01*
X79590000Y-107026130D01*
X79590000Y-107173870D01*
X79561178Y-107318766D01*
X79504642Y-107455257D01*
X79422561Y-107578100D01*
X79318100Y-107682561D01*
X79195257Y-107764642D01*
X79115303Y-107797760D01*
X79058767Y-107821178D01*
X78986318Y-107835589D01*
X78913870Y-107850000D01*
X78766130Y-107850000D01*
X78693682Y-107835589D01*
X78621233Y-107821178D01*
X78564697Y-107797760D01*
X78484743Y-107764642D01*
X78361900Y-107682561D01*
X78257439Y-107578100D01*
X78175358Y-107455257D01*
X78118822Y-107318766D01*
X78090000Y-107173870D01*
X78090000Y-107026130D01*
X78118822Y-106881234D01*
X78175358Y-106744743D01*
X78257439Y-106621900D01*
X78361900Y-106517439D01*
X78484743Y-106435358D01*
X78564697Y-106402240D01*
X78621233Y-106378822D01*
X78693682Y-106364411D01*
X78766130Y-106350000D01*
X78913870Y-106350000D01*
X78986318Y-106364411D01*
X78986318Y-106364411D01*
G37*
G36*
X72486318Y-106364411D02*
X72558767Y-106378822D01*
X72615303Y-106402240D01*
X72695257Y-106435358D01*
X72818100Y-106517439D01*
X72922561Y-106621900D01*
X73004642Y-106744743D01*
X73061178Y-106881234D01*
X73090000Y-107026130D01*
X73090000Y-107173870D01*
X73061178Y-107318766D01*
X73004642Y-107455257D01*
X72922561Y-107578100D01*
X72818100Y-107682561D01*
X72695257Y-107764642D01*
X72615303Y-107797760D01*
X72558767Y-107821178D01*
X72486318Y-107835589D01*
X72413870Y-107850000D01*
X72266130Y-107850000D01*
X72193682Y-107835589D01*
X72121233Y-107821178D01*
X72064697Y-107797760D01*
X71984743Y-107764642D01*
X71861900Y-107682561D01*
X71757439Y-107578100D01*
X71675358Y-107455257D01*
X71618822Y-107318766D01*
X71590000Y-107173870D01*
X71590000Y-107026130D01*
X71618822Y-106881234D01*
X71675358Y-106744743D01*
X71757439Y-106621900D01*
X71861900Y-106517439D01*
X71984743Y-106435358D01*
X72064697Y-106402240D01*
X72121233Y-106378822D01*
X72193682Y-106364411D01*
X72266130Y-106350000D01*
X72413870Y-106350000D01*
X72486318Y-106364411D01*
X72486318Y-106364411D01*
G37*
G36*
X76640959Y-99079021D02*
X77220947Y-99194387D01*
X77857929Y-99458234D01*
X78431197Y-99841279D01*
X78918721Y-100328803D01*
X79301766Y-100902071D01*
X79565613Y-101539053D01*
X79700120Y-102215268D01*
X79700120Y-102904732D01*
X79565613Y-103580947D01*
X79301766Y-104217929D01*
X78918721Y-104791197D01*
X78431197Y-105278721D01*
X77857929Y-105661766D01*
X77220947Y-105925613D01*
X76640959Y-106040979D01*
X76544733Y-106060120D01*
X75855267Y-106060120D01*
X75759041Y-106040979D01*
X75179053Y-105925613D01*
X74542071Y-105661766D01*
X73968803Y-105278721D01*
X73481279Y-104791197D01*
X73098234Y-104217929D01*
X72834387Y-103580947D01*
X72699880Y-102904732D01*
X72699880Y-102215268D01*
X72834387Y-101539053D01*
X73098234Y-100902071D01*
X73481279Y-100328803D01*
X73968803Y-99841279D01*
X74542071Y-99458234D01*
X75179053Y-99194387D01*
X75759041Y-99079021D01*
X75855267Y-99059880D01*
X76544733Y-99059880D01*
X76640959Y-99079021D01*
X76640959Y-99079021D01*
G37*
G36*
X121100857Y-101052272D02*
X121301042Y-101135191D01*
X121481213Y-101255578D01*
X121634422Y-101408787D01*
X121754809Y-101588958D01*
X121837728Y-101789143D01*
X121880000Y-102001658D01*
X121880000Y-102218342D01*
X121837728Y-102430857D01*
X121754809Y-102631042D01*
X121634422Y-102811213D01*
X121481213Y-102964422D01*
X121301042Y-103084809D01*
X121100857Y-103167728D01*
X120888342Y-103210000D01*
X120671658Y-103210000D01*
X120459143Y-103167728D01*
X120258958Y-103084809D01*
X120078787Y-102964422D01*
X119925578Y-102811213D01*
X119805191Y-102631042D01*
X119722272Y-102430857D01*
X119680000Y-102218342D01*
X119680000Y-102001658D01*
X119722272Y-101789143D01*
X119805191Y-101588958D01*
X119925578Y-101408787D01*
X120078787Y-101255578D01*
X120258958Y-101135191D01*
X120459143Y-101052272D01*
X120671658Y-101010000D01*
X120888342Y-101010000D01*
X121100857Y-101052272D01*
X121100857Y-101052272D01*
G37*
G36*
X124813992Y-98767447D02*
X124813994Y-98767448D01*
X124813995Y-98767448D01*
X125109726Y-98889943D01*
X125109727Y-98889944D01*
X125375880Y-99067782D01*
X125602218Y-99294120D01*
X125602220Y-99294123D01*
X125780057Y-99560274D01*
X125902552Y-99856005D01*
X125902553Y-99856008D01*
X125965000Y-100169950D01*
X125965000Y-100490049D01*
X125902552Y-100803995D01*
X125780057Y-101099726D01*
X125675922Y-101255575D01*
X125602218Y-101365880D01*
X125375880Y-101592218D01*
X125375877Y-101592220D01*
X125109726Y-101770057D01*
X124813995Y-101892552D01*
X124813994Y-101892552D01*
X124813992Y-101892553D01*
X124500050Y-101955000D01*
X124179950Y-101955000D01*
X123866008Y-101892553D01*
X123866006Y-101892552D01*
X123866005Y-101892552D01*
X123570274Y-101770057D01*
X123304123Y-101592220D01*
X123304120Y-101592218D01*
X123077782Y-101365880D01*
X123004078Y-101255575D01*
X122899943Y-101099726D01*
X122777448Y-100803995D01*
X122715000Y-100490049D01*
X122715000Y-100169950D01*
X122777447Y-99856008D01*
X122777448Y-99856005D01*
X122899943Y-99560274D01*
X123077780Y-99294123D01*
X123077782Y-99294120D01*
X123304120Y-99067782D01*
X123570273Y-98889944D01*
X123570274Y-98889943D01*
X123866005Y-98767448D01*
X123866006Y-98767448D01*
X123866008Y-98767447D01*
X124179950Y-98705000D01*
X124500050Y-98705000D01*
X124813992Y-98767447D01*
X124813992Y-98767447D01*
G37*
G36*
X36163796Y-98241799D02*
X36163799Y-98241800D01*
X36163798Y-98241800D01*
X36318652Y-98305942D01*
X36318653Y-98305943D01*
X36458020Y-98399065D01*
X36576535Y-98517580D01*
X36576537Y-98517583D01*
X36669658Y-98656948D01*
X36715428Y-98767447D01*
X36733801Y-98811804D01*
X36766500Y-98976192D01*
X36766500Y-99143808D01*
X36733801Y-99308196D01*
X36733800Y-99308198D01*
X36669658Y-99463052D01*
X36669657Y-99463053D01*
X36576535Y-99602420D01*
X36458020Y-99720935D01*
X36458017Y-99720937D01*
X36318652Y-99814058D01*
X36217382Y-99856005D01*
X36163796Y-99878201D01*
X35999408Y-99910900D01*
X35831792Y-99910900D01*
X35667404Y-99878201D01*
X35613818Y-99856005D01*
X35512548Y-99814058D01*
X35373183Y-99720937D01*
X35373180Y-99720935D01*
X35254665Y-99602420D01*
X35161543Y-99463053D01*
X35161542Y-99463052D01*
X35097400Y-99308198D01*
X35097399Y-99308196D01*
X35064700Y-99143808D01*
X35064700Y-98976192D01*
X35097399Y-98811804D01*
X35115772Y-98767447D01*
X35161542Y-98656948D01*
X35254663Y-98517583D01*
X35254665Y-98517580D01*
X35373180Y-98399065D01*
X35512547Y-98305943D01*
X35512548Y-98305942D01*
X35667402Y-98241800D01*
X35667401Y-98241800D01*
X35667404Y-98241799D01*
X35831792Y-98209100D01*
X35999408Y-98209100D01*
X36163796Y-98241799D01*
X36163796Y-98241799D01*
G37*
G36*
X29153396Y-98241799D02*
X29153399Y-98241800D01*
X29153398Y-98241800D01*
X29308252Y-98305942D01*
X29308253Y-98305943D01*
X29447620Y-98399065D01*
X29566135Y-98517580D01*
X29566137Y-98517583D01*
X29659258Y-98656948D01*
X29705028Y-98767447D01*
X29723401Y-98811804D01*
X29756100Y-98976192D01*
X29756100Y-99143808D01*
X29723401Y-99308196D01*
X29723400Y-99308198D01*
X29659258Y-99463052D01*
X29659257Y-99463053D01*
X29566135Y-99602420D01*
X29447620Y-99720935D01*
X29447617Y-99720937D01*
X29308252Y-99814058D01*
X29206982Y-99856005D01*
X29153396Y-99878201D01*
X28989008Y-99910900D01*
X28821392Y-99910900D01*
X28657004Y-99878201D01*
X28603418Y-99856005D01*
X28502148Y-99814058D01*
X28362783Y-99720937D01*
X28362780Y-99720935D01*
X28244265Y-99602420D01*
X28151143Y-99463053D01*
X28151142Y-99463052D01*
X28087000Y-99308198D01*
X28086999Y-99308196D01*
X28054300Y-99143808D01*
X28054300Y-98976192D01*
X28086999Y-98811804D01*
X28105372Y-98767447D01*
X28151142Y-98656948D01*
X28244263Y-98517583D01*
X28244265Y-98517580D01*
X28362780Y-98399065D01*
X28502147Y-98305943D01*
X28502148Y-98305942D01*
X28657002Y-98241800D01*
X28657001Y-98241800D01*
X28657004Y-98241799D01*
X28821392Y-98209100D01*
X28989008Y-98209100D01*
X29153396Y-98241799D01*
X29153396Y-98241799D01*
G37*
G36*
X120253352Y-96770743D02*
X120398941Y-96831048D01*
X120529973Y-96918601D01*
X120641399Y-97030027D01*
X120728952Y-97161059D01*
X120789257Y-97306648D01*
X120820000Y-97461205D01*
X120820000Y-97618795D01*
X120789257Y-97773352D01*
X120728952Y-97918941D01*
X120641399Y-98049973D01*
X120529973Y-98161399D01*
X120398941Y-98248952D01*
X120253352Y-98309257D01*
X120098795Y-98340000D01*
X119941205Y-98340000D01*
X119786648Y-98309257D01*
X119641059Y-98248952D01*
X119510027Y-98161399D01*
X119398601Y-98049973D01*
X119311048Y-97918941D01*
X119250743Y-97773352D01*
X119220000Y-97618795D01*
X119220000Y-97461205D01*
X119250743Y-97306648D01*
X119311048Y-97161059D01*
X119398601Y-97030027D01*
X119510027Y-96918601D01*
X119641059Y-96831048D01*
X119786648Y-96770743D01*
X119941205Y-96740000D01*
X120098795Y-96740000D01*
X120253352Y-96770743D01*
X120253352Y-96770743D01*
G37*
G36*
X122033352Y-95740743D02*
X122178941Y-95801048D01*
X122309973Y-95888601D01*
X122421399Y-96000027D01*
X122508952Y-96131059D01*
X122569257Y-96276648D01*
X122600000Y-96431205D01*
X122600000Y-96588795D01*
X122569257Y-96743352D01*
X122508952Y-96888941D01*
X122421399Y-97019973D01*
X122309973Y-97131399D01*
X122178941Y-97218952D01*
X122033352Y-97279257D01*
X121878795Y-97310000D01*
X121721205Y-97310000D01*
X121566648Y-97279257D01*
X121421059Y-97218952D01*
X121290027Y-97131399D01*
X121178601Y-97019973D01*
X121091048Y-96888941D01*
X121030743Y-96743352D01*
X121000000Y-96588795D01*
X121000000Y-96431205D01*
X121030743Y-96276648D01*
X121091048Y-96131059D01*
X121178601Y-96000027D01*
X121290027Y-95888601D01*
X121421059Y-95801048D01*
X121566648Y-95740743D01*
X121721205Y-95710000D01*
X121878795Y-95710000D01*
X122033352Y-95740743D01*
X122033352Y-95740743D01*
G37*
G36*
X120253352Y-94740743D02*
X120398941Y-94801048D01*
X120529973Y-94888601D01*
X120641399Y-95000027D01*
X120728952Y-95131059D01*
X120789257Y-95276648D01*
X120820000Y-95431205D01*
X120820000Y-95588795D01*
X120789257Y-95743352D01*
X120728952Y-95888941D01*
X120641399Y-96019973D01*
X120529973Y-96131399D01*
X120398941Y-96218952D01*
X120253352Y-96279257D01*
X120098795Y-96310000D01*
X119941205Y-96310000D01*
X119786648Y-96279257D01*
X119641059Y-96218952D01*
X119510027Y-96131399D01*
X119398601Y-96019973D01*
X119311048Y-95888941D01*
X119250743Y-95743352D01*
X119220000Y-95588795D01*
X119220000Y-95431205D01*
X119250743Y-95276648D01*
X119311048Y-95131059D01*
X119398601Y-95000027D01*
X119510027Y-94888601D01*
X119641059Y-94801048D01*
X119786648Y-94740743D01*
X119941205Y-94710000D01*
X120098795Y-94710000D01*
X120253352Y-94740743D01*
X120253352Y-94740743D01*
G37*
G36*
X122033352Y-93710743D02*
X122178941Y-93771048D01*
X122309973Y-93858601D01*
X122421399Y-93970027D01*
X122508952Y-94101059D01*
X122569257Y-94246648D01*
X122600000Y-94401205D01*
X122600000Y-94558795D01*
X122569257Y-94713352D01*
X122508952Y-94858941D01*
X122421399Y-94989973D01*
X122309973Y-95101399D01*
X122178941Y-95188952D01*
X122033352Y-95249257D01*
X121878795Y-95280000D01*
X121721205Y-95280000D01*
X121566648Y-95249257D01*
X121421059Y-95188952D01*
X121290027Y-95101399D01*
X121178601Y-94989973D01*
X121091048Y-94858941D01*
X121030743Y-94713352D01*
X121000000Y-94558795D01*
X121000000Y-94401205D01*
X121030743Y-94246648D01*
X121091048Y-94101059D01*
X121178601Y-93970027D01*
X121290027Y-93858601D01*
X121421059Y-93771048D01*
X121566648Y-93710743D01*
X121721205Y-93680000D01*
X121878795Y-93680000D01*
X122033352Y-93710743D01*
X122033352Y-93710743D01*
G37*
G36*
X120253352Y-92710743D02*
X120398941Y-92771048D01*
X120529973Y-92858601D01*
X120641399Y-92970027D01*
X120728952Y-93101059D01*
X120789257Y-93246648D01*
X120820000Y-93401205D01*
X120820000Y-93558795D01*
X120789257Y-93713352D01*
X120728952Y-93858941D01*
X120641399Y-93989973D01*
X120529973Y-94101399D01*
X120398941Y-94188952D01*
X120253352Y-94249257D01*
X120098795Y-94280000D01*
X119941205Y-94280000D01*
X119786648Y-94249257D01*
X119641059Y-94188952D01*
X119510027Y-94101399D01*
X119398601Y-93989973D01*
X119311048Y-93858941D01*
X119250743Y-93713352D01*
X119220000Y-93558795D01*
X119220000Y-93401205D01*
X119250743Y-93246648D01*
X119311048Y-93101059D01*
X119398601Y-92970027D01*
X119510027Y-92858601D01*
X119641059Y-92771048D01*
X119786648Y-92710743D01*
X119941205Y-92680000D01*
X120098795Y-92680000D01*
X120253352Y-92710743D01*
X120253352Y-92710743D01*
G37*
G36*
X122033352Y-91680743D02*
X122178941Y-91741048D01*
X122309973Y-91828601D01*
X122421399Y-91940027D01*
X122508952Y-92071059D01*
X122569257Y-92216648D01*
X122600000Y-92371205D01*
X122600000Y-92528795D01*
X122569257Y-92683352D01*
X122508952Y-92828941D01*
X122421399Y-92959973D01*
X122309973Y-93071399D01*
X122178941Y-93158952D01*
X122033352Y-93219257D01*
X121878795Y-93250000D01*
X121721205Y-93250000D01*
X121566648Y-93219257D01*
X121421059Y-93158952D01*
X121290027Y-93071399D01*
X121178601Y-92959973D01*
X121091048Y-92828941D01*
X121030743Y-92683352D01*
X121000000Y-92528795D01*
X121000000Y-92371205D01*
X121030743Y-92216648D01*
X121091048Y-92071059D01*
X121178601Y-91940027D01*
X121290027Y-91828601D01*
X121421059Y-91741048D01*
X121566648Y-91680743D01*
X121721205Y-91650000D01*
X121878795Y-91650000D01*
X122033352Y-91680743D01*
X122033352Y-91680743D01*
G37*
G36*
X120253352Y-90680743D02*
X120398941Y-90741048D01*
X120529973Y-90828601D01*
X120641399Y-90940027D01*
X120728952Y-91071059D01*
X120789257Y-91216648D01*
X120820000Y-91371205D01*
X120820000Y-91528795D01*
X120789257Y-91683352D01*
X120728952Y-91828941D01*
X120641399Y-91959973D01*
X120529973Y-92071399D01*
X120398941Y-92158952D01*
X120253352Y-92219257D01*
X120098795Y-92250000D01*
X119941205Y-92250000D01*
X119786648Y-92219257D01*
X119641059Y-92158952D01*
X119510027Y-92071399D01*
X119398601Y-91959973D01*
X119311048Y-91828941D01*
X119250743Y-91683352D01*
X119220000Y-91528795D01*
X119220000Y-91371205D01*
X119250743Y-91216648D01*
X119311048Y-91071059D01*
X119398601Y-90940027D01*
X119510027Y-90828601D01*
X119641059Y-90741048D01*
X119786648Y-90680743D01*
X119941205Y-90650000D01*
X120098795Y-90650000D01*
X120253352Y-90680743D01*
X120253352Y-90680743D01*
G37*
G36*
X122033352Y-89650743D02*
X122178941Y-89711048D01*
X122309973Y-89798601D01*
X122421399Y-89910027D01*
X122508952Y-90041059D01*
X122569257Y-90186648D01*
X122600000Y-90341205D01*
X122600000Y-90498795D01*
X122569257Y-90653352D01*
X122508952Y-90798941D01*
X122421399Y-90929973D01*
X122309973Y-91041399D01*
X122178941Y-91128952D01*
X122033352Y-91189257D01*
X121878795Y-91220000D01*
X121721205Y-91220000D01*
X121566648Y-91189257D01*
X121421059Y-91128952D01*
X121290027Y-91041399D01*
X121178601Y-90929973D01*
X121091048Y-90798941D01*
X121030743Y-90653352D01*
X121000000Y-90498795D01*
X121000000Y-90341205D01*
X121030743Y-90186648D01*
X121091048Y-90041059D01*
X121178601Y-89910027D01*
X121290027Y-89798601D01*
X121421059Y-89711048D01*
X121566648Y-89650743D01*
X121721205Y-89620000D01*
X121878795Y-89620000D01*
X122033352Y-89650743D01*
X122033352Y-89650743D01*
G37*
G36*
X124813992Y-86067447D02*
X124813994Y-86067448D01*
X124813995Y-86067448D01*
X125109726Y-86189943D01*
X125109727Y-86189944D01*
X125375880Y-86367782D01*
X125602218Y-86594120D01*
X125602220Y-86594123D01*
X125780057Y-86860274D01*
X125902552Y-87156005D01*
X125965000Y-87469951D01*
X125965000Y-87790049D01*
X125902552Y-88103995D01*
X125780057Y-88399726D01*
X125780056Y-88399727D01*
X125602218Y-88665880D01*
X125375880Y-88892218D01*
X125375877Y-88892220D01*
X125109726Y-89070057D01*
X124813995Y-89192552D01*
X124813994Y-89192552D01*
X124813992Y-89192553D01*
X124500050Y-89255000D01*
X124179950Y-89255000D01*
X123866008Y-89192553D01*
X123866006Y-89192552D01*
X123866005Y-89192552D01*
X123570274Y-89070057D01*
X123304123Y-88892220D01*
X123304120Y-88892218D01*
X123077782Y-88665880D01*
X122899944Y-88399727D01*
X122899943Y-88399726D01*
X122777448Y-88103995D01*
X122715000Y-87790049D01*
X122715000Y-87469951D01*
X122777448Y-87156005D01*
X122899943Y-86860274D01*
X123077780Y-86594123D01*
X123077782Y-86594120D01*
X123304120Y-86367782D01*
X123570273Y-86189944D01*
X123570274Y-86189943D01*
X123866005Y-86067448D01*
X123866006Y-86067448D01*
X123866008Y-86067447D01*
X124179950Y-86005000D01*
X124500050Y-86005000D01*
X124813992Y-86067447D01*
X124813992Y-86067447D01*
G37*
G36*
X121100857Y-84792272D02*
X121301042Y-84875191D01*
X121481213Y-84995578D01*
X121634422Y-85148787D01*
X121754809Y-85328958D01*
X121837728Y-85529143D01*
X121880000Y-85741658D01*
X121880000Y-85958342D01*
X121837728Y-86170857D01*
X121754809Y-86371042D01*
X121634422Y-86551213D01*
X121481213Y-86704422D01*
X121301042Y-86824809D01*
X121100857Y-86907728D01*
X120888342Y-86950000D01*
X120671658Y-86950000D01*
X120459143Y-86907728D01*
X120258958Y-86824809D01*
X120078787Y-86704422D01*
X119925578Y-86551213D01*
X119805191Y-86371042D01*
X119722272Y-86170857D01*
X119680000Y-85958342D01*
X119680000Y-85741658D01*
X119722272Y-85529143D01*
X119805191Y-85328958D01*
X119925578Y-85148787D01*
X120078787Y-84995578D01*
X120258958Y-84875191D01*
X120459143Y-84792272D01*
X120671658Y-84750000D01*
X120888342Y-84750000D01*
X121100857Y-84792272D01*
X121100857Y-84792272D01*
G37*
G36*
X29153396Y-80461799D02*
X29153399Y-80461800D01*
X29153398Y-80461800D01*
X29308252Y-80525942D01*
X29308253Y-80525943D01*
X29447620Y-80619065D01*
X29566135Y-80737580D01*
X29566137Y-80737583D01*
X29659258Y-80876948D01*
X29708869Y-80996721D01*
X29723401Y-81031804D01*
X29756100Y-81196192D01*
X29756100Y-81363808D01*
X29723401Y-81528196D01*
X29723400Y-81528198D01*
X29659258Y-81683052D01*
X29659257Y-81683053D01*
X29566135Y-81822420D01*
X29447620Y-81940935D01*
X29447617Y-81940937D01*
X29308252Y-82034058D01*
X29188479Y-82083669D01*
X29153396Y-82098201D01*
X28989008Y-82130900D01*
X28821392Y-82130900D01*
X28657004Y-82098201D01*
X28621921Y-82083669D01*
X28502148Y-82034058D01*
X28362783Y-81940937D01*
X28362780Y-81940935D01*
X28244265Y-81822420D01*
X28151143Y-81683053D01*
X28151142Y-81683052D01*
X28087000Y-81528198D01*
X28086999Y-81528196D01*
X28054300Y-81363808D01*
X28054300Y-81196192D01*
X28086999Y-81031804D01*
X28101531Y-80996721D01*
X28151142Y-80876948D01*
X28244263Y-80737583D01*
X28244265Y-80737580D01*
X28362780Y-80619065D01*
X28502147Y-80525943D01*
X28502148Y-80525942D01*
X28657002Y-80461800D01*
X28657001Y-80461800D01*
X28657004Y-80461799D01*
X28821392Y-80429100D01*
X28989008Y-80429100D01*
X29153396Y-80461799D01*
X29153396Y-80461799D01*
G37*
G36*
X36163796Y-80461799D02*
X36163799Y-80461800D01*
X36163798Y-80461800D01*
X36318652Y-80525942D01*
X36318653Y-80525943D01*
X36458020Y-80619065D01*
X36576535Y-80737580D01*
X36576537Y-80737583D01*
X36669658Y-80876948D01*
X36719269Y-80996721D01*
X36733801Y-81031804D01*
X36766500Y-81196192D01*
X36766500Y-81363808D01*
X36733801Y-81528196D01*
X36733800Y-81528198D01*
X36669658Y-81683052D01*
X36669657Y-81683053D01*
X36576535Y-81822420D01*
X36458020Y-81940935D01*
X36458017Y-81940937D01*
X36318652Y-82034058D01*
X36198879Y-82083669D01*
X36163796Y-82098201D01*
X35999408Y-82130900D01*
X35831792Y-82130900D01*
X35667404Y-82098201D01*
X35632321Y-82083669D01*
X35512548Y-82034058D01*
X35373183Y-81940937D01*
X35373180Y-81940935D01*
X35254665Y-81822420D01*
X35161543Y-81683053D01*
X35161542Y-81683052D01*
X35097400Y-81528198D01*
X35097399Y-81528196D01*
X35064700Y-81363808D01*
X35064700Y-81196192D01*
X35097399Y-81031804D01*
X35111931Y-80996721D01*
X35161542Y-80876948D01*
X35254663Y-80737583D01*
X35254665Y-80737580D01*
X35373180Y-80619065D01*
X35512547Y-80525943D01*
X35512548Y-80525942D01*
X35667402Y-80461800D01*
X35667401Y-80461800D01*
X35667404Y-80461799D01*
X35831792Y-80429100D01*
X35999408Y-80429100D01*
X36163796Y-80461799D01*
X36163796Y-80461799D01*
G37*
G36*
X121100857Y-76922272D02*
X121301042Y-77005191D01*
X121481213Y-77125578D01*
X121634422Y-77278787D01*
X121754809Y-77458958D01*
X121837728Y-77659143D01*
X121880000Y-77871658D01*
X121880000Y-78088342D01*
X121837728Y-78300857D01*
X121754809Y-78501042D01*
X121634422Y-78681213D01*
X121481213Y-78834422D01*
X121301042Y-78954809D01*
X121100857Y-79037728D01*
X120888342Y-79080000D01*
X120671658Y-79080000D01*
X120459143Y-79037728D01*
X120258958Y-78954809D01*
X120078787Y-78834422D01*
X119925578Y-78681213D01*
X119805191Y-78501042D01*
X119722272Y-78300857D01*
X119680000Y-78088342D01*
X119680000Y-77871658D01*
X119722272Y-77659143D01*
X119805191Y-77458958D01*
X119925578Y-77278787D01*
X120078787Y-77125578D01*
X120258958Y-77005191D01*
X120459143Y-76922272D01*
X120671658Y-76880000D01*
X120888342Y-76880000D01*
X121100857Y-76922272D01*
X121100857Y-76922272D01*
G37*
G36*
X124813992Y-74637447D02*
X124813994Y-74637448D01*
X124813995Y-74637448D01*
X125109726Y-74759943D01*
X125109727Y-74759944D01*
X125375880Y-74937782D01*
X125602218Y-75164120D01*
X125602220Y-75164123D01*
X125780057Y-75430274D01*
X125902552Y-75726005D01*
X125965000Y-76039951D01*
X125965000Y-76360049D01*
X125902552Y-76673995D01*
X125780057Y-76969726D01*
X125675922Y-77125575D01*
X125602218Y-77235880D01*
X125375880Y-77462218D01*
X125375877Y-77462220D01*
X125109726Y-77640057D01*
X124813995Y-77762552D01*
X124813994Y-77762552D01*
X124813992Y-77762553D01*
X124500050Y-77825000D01*
X124179950Y-77825000D01*
X123866008Y-77762553D01*
X123866006Y-77762552D01*
X123866005Y-77762552D01*
X123570274Y-77640057D01*
X123304123Y-77462220D01*
X123304120Y-77462218D01*
X123077782Y-77235880D01*
X123004078Y-77125575D01*
X122899943Y-76969726D01*
X122777448Y-76673995D01*
X122715000Y-76360049D01*
X122715000Y-76039951D01*
X122777448Y-75726005D01*
X122899943Y-75430274D01*
X123077780Y-75164123D01*
X123077782Y-75164120D01*
X123304120Y-74937782D01*
X123570273Y-74759944D01*
X123570274Y-74759943D01*
X123866005Y-74637448D01*
X123866006Y-74637448D01*
X123866008Y-74637447D01*
X124179950Y-74575000D01*
X124500050Y-74575000D01*
X124813992Y-74637447D01*
X124813992Y-74637447D01*
G37*
G36*
X120253352Y-72640743D02*
X120398941Y-72701048D01*
X120529973Y-72788601D01*
X120641399Y-72900027D01*
X120728952Y-73031059D01*
X120789257Y-73176648D01*
X120820000Y-73331205D01*
X120820000Y-73488795D01*
X120789257Y-73643352D01*
X120728952Y-73788941D01*
X120641399Y-73919973D01*
X120529973Y-74031399D01*
X120398941Y-74118952D01*
X120253352Y-74179257D01*
X120098795Y-74210000D01*
X119941205Y-74210000D01*
X119786648Y-74179257D01*
X119641059Y-74118952D01*
X119510027Y-74031399D01*
X119398601Y-73919973D01*
X119311048Y-73788941D01*
X119250743Y-73643352D01*
X119220000Y-73488795D01*
X119220000Y-73331205D01*
X119250743Y-73176648D01*
X119311048Y-73031059D01*
X119398601Y-72900027D01*
X119510027Y-72788601D01*
X119641059Y-72701048D01*
X119786648Y-72640743D01*
X119941205Y-72610000D01*
X120098795Y-72610000D01*
X120253352Y-72640743D01*
X120253352Y-72640743D01*
G37*
G36*
X122033352Y-71610743D02*
X122178941Y-71671048D01*
X122309973Y-71758601D01*
X122421399Y-71870027D01*
X122508952Y-72001059D01*
X122569257Y-72146648D01*
X122600000Y-72301205D01*
X122600000Y-72458795D01*
X122569257Y-72613352D01*
X122508952Y-72758941D01*
X122421399Y-72889973D01*
X122309973Y-73001399D01*
X122178941Y-73088952D01*
X122033352Y-73149257D01*
X121878795Y-73180000D01*
X121721205Y-73180000D01*
X121566648Y-73149257D01*
X121421059Y-73088952D01*
X121290027Y-73001399D01*
X121178601Y-72889973D01*
X121091048Y-72758941D01*
X121030743Y-72613352D01*
X121000000Y-72458795D01*
X121000000Y-72301205D01*
X121030743Y-72146648D01*
X121091048Y-72001059D01*
X121178601Y-71870027D01*
X121290027Y-71758601D01*
X121421059Y-71671048D01*
X121566648Y-71610743D01*
X121721205Y-71580000D01*
X121878795Y-71580000D01*
X122033352Y-71610743D01*
X122033352Y-71610743D01*
G37*
G36*
X120253352Y-70610743D02*
X120398941Y-70671048D01*
X120529973Y-70758601D01*
X120641399Y-70870027D01*
X120728952Y-71001059D01*
X120789257Y-71146648D01*
X120820000Y-71301205D01*
X120820000Y-71458795D01*
X120789257Y-71613352D01*
X120728952Y-71758941D01*
X120641399Y-71889973D01*
X120529973Y-72001399D01*
X120398941Y-72088952D01*
X120253352Y-72149257D01*
X120098795Y-72180000D01*
X119941205Y-72180000D01*
X119786648Y-72149257D01*
X119641059Y-72088952D01*
X119510027Y-72001399D01*
X119398601Y-71889973D01*
X119311048Y-71758941D01*
X119250743Y-71613352D01*
X119220000Y-71458795D01*
X119220000Y-71301205D01*
X119250743Y-71146648D01*
X119311048Y-71001059D01*
X119398601Y-70870027D01*
X119510027Y-70758601D01*
X119641059Y-70671048D01*
X119786648Y-70610743D01*
X119941205Y-70580000D01*
X120098795Y-70580000D01*
X120253352Y-70610743D01*
X120253352Y-70610743D01*
G37*
G36*
X122033352Y-69580743D02*
X122178941Y-69641048D01*
X122309973Y-69728601D01*
X122421399Y-69840027D01*
X122508952Y-69971059D01*
X122569257Y-70116648D01*
X122600000Y-70271205D01*
X122600000Y-70428795D01*
X122569257Y-70583352D01*
X122508952Y-70728941D01*
X122421399Y-70859973D01*
X122309973Y-70971399D01*
X122178941Y-71058952D01*
X122033352Y-71119257D01*
X121878795Y-71150000D01*
X121721205Y-71150000D01*
X121566648Y-71119257D01*
X121421059Y-71058952D01*
X121290027Y-70971399D01*
X121178601Y-70859973D01*
X121091048Y-70728941D01*
X121030743Y-70583352D01*
X121000000Y-70428795D01*
X121000000Y-70271205D01*
X121030743Y-70116648D01*
X121091048Y-69971059D01*
X121178601Y-69840027D01*
X121290027Y-69728601D01*
X121421059Y-69641048D01*
X121566648Y-69580743D01*
X121721205Y-69550000D01*
X121878795Y-69550000D01*
X122033352Y-69580743D01*
X122033352Y-69580743D01*
G37*
G36*
X120253352Y-68580743D02*
X120398941Y-68641048D01*
X120529973Y-68728601D01*
X120641399Y-68840027D01*
X120728952Y-68971059D01*
X120789257Y-69116648D01*
X120820000Y-69271205D01*
X120820000Y-69428795D01*
X120789257Y-69583352D01*
X120728952Y-69728941D01*
X120641399Y-69859973D01*
X120529973Y-69971399D01*
X120398941Y-70058952D01*
X120253352Y-70119257D01*
X120098795Y-70150000D01*
X119941205Y-70150000D01*
X119786648Y-70119257D01*
X119641059Y-70058952D01*
X119510027Y-69971399D01*
X119398601Y-69859973D01*
X119311048Y-69728941D01*
X119250743Y-69583352D01*
X119220000Y-69428795D01*
X119220000Y-69271205D01*
X119250743Y-69116648D01*
X119311048Y-68971059D01*
X119398601Y-68840027D01*
X119510027Y-68728601D01*
X119641059Y-68641048D01*
X119786648Y-68580743D01*
X119941205Y-68550000D01*
X120098795Y-68550000D01*
X120253352Y-68580743D01*
X120253352Y-68580743D01*
G37*
G36*
X122033352Y-67550743D02*
X122178941Y-67611048D01*
X122309973Y-67698601D01*
X122421399Y-67810027D01*
X122508952Y-67941059D01*
X122569257Y-68086648D01*
X122600000Y-68241205D01*
X122600000Y-68398795D01*
X122569257Y-68553352D01*
X122508952Y-68698941D01*
X122421399Y-68829973D01*
X122309973Y-68941399D01*
X122178941Y-69028952D01*
X122033352Y-69089257D01*
X121878795Y-69120000D01*
X121721205Y-69120000D01*
X121566648Y-69089257D01*
X121421059Y-69028952D01*
X121290027Y-68941399D01*
X121178601Y-68829973D01*
X121091048Y-68698941D01*
X121030743Y-68553352D01*
X121000000Y-68398795D01*
X121000000Y-68241205D01*
X121030743Y-68086648D01*
X121091048Y-67941059D01*
X121178601Y-67810027D01*
X121290027Y-67698601D01*
X121421059Y-67611048D01*
X121566648Y-67550743D01*
X121721205Y-67520000D01*
X121878795Y-67520000D01*
X122033352Y-67550743D01*
X122033352Y-67550743D01*
G37*
G36*
X120253352Y-66550743D02*
X120398941Y-66611048D01*
X120529973Y-66698601D01*
X120641399Y-66810027D01*
X120728952Y-66941059D01*
X120789257Y-67086648D01*
X120820000Y-67241205D01*
X120820000Y-67398795D01*
X120789257Y-67553352D01*
X120728952Y-67698941D01*
X120641399Y-67829973D01*
X120529973Y-67941399D01*
X120398941Y-68028952D01*
X120253352Y-68089257D01*
X120098795Y-68120000D01*
X119941205Y-68120000D01*
X119786648Y-68089257D01*
X119641059Y-68028952D01*
X119510027Y-67941399D01*
X119398601Y-67829973D01*
X119311048Y-67698941D01*
X119250743Y-67553352D01*
X119220000Y-67398795D01*
X119220000Y-67241205D01*
X119250743Y-67086648D01*
X119311048Y-66941059D01*
X119398601Y-66810027D01*
X119510027Y-66698601D01*
X119641059Y-66611048D01*
X119786648Y-66550743D01*
X119941205Y-66520000D01*
X120098795Y-66520000D01*
X120253352Y-66550743D01*
X120253352Y-66550743D01*
G37*
G36*
X122033352Y-65520743D02*
X122178941Y-65581048D01*
X122309973Y-65668601D01*
X122421399Y-65780027D01*
X122508952Y-65911059D01*
X122569257Y-66056648D01*
X122600000Y-66211205D01*
X122600000Y-66368795D01*
X122569257Y-66523352D01*
X122508952Y-66668941D01*
X122421399Y-66799973D01*
X122309973Y-66911399D01*
X122178941Y-66998952D01*
X122033352Y-67059257D01*
X121878795Y-67090000D01*
X121721205Y-67090000D01*
X121566648Y-67059257D01*
X121421059Y-66998952D01*
X121290027Y-66911399D01*
X121178601Y-66799973D01*
X121091048Y-66668941D01*
X121030743Y-66523352D01*
X121000000Y-66368795D01*
X121000000Y-66211205D01*
X121030743Y-66056648D01*
X121091048Y-65911059D01*
X121178601Y-65780027D01*
X121290027Y-65668601D01*
X121421059Y-65581048D01*
X121566648Y-65520743D01*
X121721205Y-65490000D01*
X121878795Y-65490000D01*
X122033352Y-65520743D01*
X122033352Y-65520743D01*
G37*
G36*
X124813992Y-61937447D02*
X124813994Y-61937448D01*
X124813995Y-61937448D01*
X125109726Y-62059943D01*
X125109727Y-62059944D01*
X125375880Y-62237782D01*
X125602218Y-62464120D01*
X125602220Y-62464123D01*
X125780057Y-62730274D01*
X125874211Y-62957583D01*
X125902553Y-63026008D01*
X125965000Y-63339950D01*
X125965000Y-63660050D01*
X125916664Y-63903053D01*
X125902552Y-63973995D01*
X125780057Y-64269726D01*
X125747667Y-64318201D01*
X125602218Y-64535880D01*
X125375880Y-64762218D01*
X125375877Y-64762220D01*
X125109726Y-64940057D01*
X124813995Y-65062552D01*
X124813994Y-65062552D01*
X124813992Y-65062553D01*
X124500050Y-65125000D01*
X124179950Y-65125000D01*
X123866008Y-65062553D01*
X123866006Y-65062552D01*
X123866005Y-65062552D01*
X123570274Y-64940057D01*
X123304123Y-64762220D01*
X123304120Y-64762218D01*
X123077782Y-64535880D01*
X122932333Y-64318201D01*
X122899943Y-64269726D01*
X122777448Y-63973995D01*
X122763337Y-63903053D01*
X122715000Y-63660050D01*
X122715000Y-63339950D01*
X122777447Y-63026008D01*
X122805789Y-62957583D01*
X122899943Y-62730274D01*
X123077780Y-62464123D01*
X123077782Y-62464120D01*
X123304120Y-62237782D01*
X123570273Y-62059944D01*
X123570274Y-62059943D01*
X123866005Y-61937448D01*
X123866006Y-61937448D01*
X123866008Y-61937447D01*
X124179950Y-61875000D01*
X124500050Y-61875000D01*
X124813992Y-61937447D01*
X124813992Y-61937447D01*
G37*
G36*
X36163796Y-62681799D02*
X36163799Y-62681800D01*
X36163798Y-62681800D01*
X36318652Y-62745942D01*
X36318653Y-62745943D01*
X36458020Y-62839065D01*
X36576535Y-62957580D01*
X36576537Y-62957583D01*
X36669658Y-63096948D01*
X36719269Y-63216721D01*
X36733801Y-63251804D01*
X36766500Y-63416192D01*
X36766500Y-63583808D01*
X36733801Y-63748196D01*
X36733800Y-63748198D01*
X36669658Y-63903052D01*
X36669657Y-63903053D01*
X36576535Y-64042420D01*
X36458020Y-64160935D01*
X36458017Y-64160937D01*
X36318652Y-64254058D01*
X36198879Y-64303669D01*
X36163796Y-64318201D01*
X35999408Y-64350900D01*
X35831792Y-64350900D01*
X35667404Y-64318201D01*
X35632321Y-64303669D01*
X35512548Y-64254058D01*
X35373183Y-64160937D01*
X35373180Y-64160935D01*
X35254665Y-64042420D01*
X35161543Y-63903053D01*
X35161542Y-63903052D01*
X35097400Y-63748198D01*
X35097399Y-63748196D01*
X35064700Y-63583808D01*
X35064700Y-63416192D01*
X35097399Y-63251804D01*
X35111931Y-63216721D01*
X35161542Y-63096948D01*
X35254663Y-62957583D01*
X35254665Y-62957580D01*
X35373180Y-62839065D01*
X35512547Y-62745943D01*
X35512548Y-62745942D01*
X35667402Y-62681800D01*
X35667401Y-62681800D01*
X35667404Y-62681799D01*
X35831792Y-62649100D01*
X35999408Y-62649100D01*
X36163796Y-62681799D01*
X36163796Y-62681799D01*
G37*
G36*
X29153396Y-62681799D02*
X29153399Y-62681800D01*
X29153398Y-62681800D01*
X29308252Y-62745942D01*
X29308253Y-62745943D01*
X29447620Y-62839065D01*
X29566135Y-62957580D01*
X29566137Y-62957583D01*
X29659258Y-63096948D01*
X29708869Y-63216721D01*
X29723401Y-63251804D01*
X29756100Y-63416192D01*
X29756100Y-63583808D01*
X29723401Y-63748196D01*
X29723400Y-63748198D01*
X29659258Y-63903052D01*
X29659257Y-63903053D01*
X29566135Y-64042420D01*
X29447620Y-64160935D01*
X29447617Y-64160937D01*
X29308252Y-64254058D01*
X29188479Y-64303669D01*
X29153396Y-64318201D01*
X28989008Y-64350900D01*
X28821392Y-64350900D01*
X28657004Y-64318201D01*
X28621921Y-64303669D01*
X28502148Y-64254058D01*
X28362783Y-64160937D01*
X28362780Y-64160935D01*
X28244265Y-64042420D01*
X28151143Y-63903053D01*
X28151142Y-63903052D01*
X28087000Y-63748198D01*
X28086999Y-63748196D01*
X28054300Y-63583808D01*
X28054300Y-63416192D01*
X28086999Y-63251804D01*
X28101531Y-63216721D01*
X28151142Y-63096948D01*
X28244263Y-62957583D01*
X28244265Y-62957580D01*
X28362780Y-62839065D01*
X28502147Y-62745943D01*
X28502148Y-62745942D01*
X28657002Y-62681800D01*
X28657001Y-62681800D01*
X28657004Y-62681799D01*
X28821392Y-62649100D01*
X28989008Y-62649100D01*
X29153396Y-62681799D01*
X29153396Y-62681799D01*
G37*
G36*
X121100857Y-60662272D02*
X121301042Y-60745191D01*
X121481213Y-60865578D01*
X121634422Y-61018787D01*
X121754809Y-61198958D01*
X121837728Y-61399143D01*
X121880000Y-61611658D01*
X121880000Y-61828342D01*
X121837728Y-62040857D01*
X121754809Y-62241042D01*
X121634422Y-62421213D01*
X121481213Y-62574422D01*
X121301042Y-62694809D01*
X121100857Y-62777728D01*
X120888342Y-62820000D01*
X120671658Y-62820000D01*
X120459143Y-62777728D01*
X120258958Y-62694809D01*
X120078787Y-62574422D01*
X119925578Y-62421213D01*
X119805191Y-62241042D01*
X119722272Y-62040857D01*
X119680000Y-61828342D01*
X119680000Y-61611658D01*
X119722272Y-61399143D01*
X119805191Y-61198958D01*
X119925578Y-61018787D01*
X120078787Y-60865578D01*
X120258958Y-60745191D01*
X120459143Y-60662272D01*
X120671658Y-60620000D01*
X120888342Y-60620000D01*
X121100857Y-60662272D01*
X121100857Y-60662272D01*
G37*
G36*
X121100857Y-52792272D02*
X121301042Y-52875191D01*
X121481213Y-52995578D01*
X121634422Y-53148787D01*
X121754809Y-53328958D01*
X121837728Y-53529143D01*
X121880000Y-53741658D01*
X121880000Y-53958342D01*
X121837728Y-54170857D01*
X121754809Y-54371042D01*
X121634422Y-54551213D01*
X121481213Y-54704422D01*
X121301042Y-54824809D01*
X121100857Y-54907728D01*
X120888342Y-54950000D01*
X120671658Y-54950000D01*
X120459143Y-54907728D01*
X120258958Y-54824809D01*
X120078787Y-54704422D01*
X119925578Y-54551213D01*
X119805191Y-54371042D01*
X119722272Y-54170857D01*
X119680000Y-53958342D01*
X119680000Y-53741658D01*
X119722272Y-53529143D01*
X119805191Y-53328958D01*
X119925578Y-53148787D01*
X120078787Y-52995578D01*
X120258958Y-52875191D01*
X120459143Y-52792272D01*
X120671658Y-52750000D01*
X120888342Y-52750000D01*
X121100857Y-52792272D01*
X121100857Y-52792272D01*
G37*
G36*
X124813992Y-50507447D02*
X124813994Y-50507448D01*
X124813995Y-50507448D01*
X125109726Y-50629943D01*
X125109727Y-50629944D01*
X125375880Y-50807782D01*
X125602218Y-51034120D01*
X125602220Y-51034123D01*
X125780057Y-51300274D01*
X125902552Y-51596005D01*
X125965000Y-51909951D01*
X125965000Y-52230049D01*
X125902552Y-52543995D01*
X125780057Y-52839726D01*
X125675922Y-52995575D01*
X125602218Y-53105880D01*
X125375880Y-53332218D01*
X125375877Y-53332220D01*
X125109726Y-53510057D01*
X124813995Y-53632552D01*
X124813994Y-53632552D01*
X124813992Y-53632553D01*
X124500050Y-53695000D01*
X124179950Y-53695000D01*
X123866008Y-53632553D01*
X123866006Y-53632552D01*
X123866005Y-53632552D01*
X123570274Y-53510057D01*
X123304123Y-53332220D01*
X123304120Y-53332218D01*
X123077782Y-53105880D01*
X123004078Y-52995575D01*
X122899943Y-52839726D01*
X122777448Y-52543995D01*
X122715000Y-52230049D01*
X122715000Y-51909951D01*
X122777448Y-51596005D01*
X122899943Y-51300274D01*
X123077780Y-51034123D01*
X123077782Y-51034120D01*
X123304120Y-50807782D01*
X123570273Y-50629944D01*
X123570274Y-50629943D01*
X123866005Y-50507448D01*
X123866006Y-50507448D01*
X123866008Y-50507447D01*
X124179950Y-50445000D01*
X124500050Y-50445000D01*
X124813992Y-50507447D01*
X124813992Y-50507447D01*
G37*
G36*
X120253352Y-48510743D02*
X120398941Y-48571048D01*
X120529973Y-48658601D01*
X120641399Y-48770027D01*
X120728952Y-48901059D01*
X120789257Y-49046648D01*
X120820000Y-49201205D01*
X120820000Y-49358795D01*
X120789257Y-49513352D01*
X120728952Y-49658941D01*
X120641399Y-49789973D01*
X120529973Y-49901399D01*
X120398941Y-49988952D01*
X120253352Y-50049257D01*
X120098795Y-50080000D01*
X119941205Y-50080000D01*
X119786648Y-50049257D01*
X119641059Y-49988952D01*
X119510027Y-49901399D01*
X119398601Y-49789973D01*
X119311048Y-49658941D01*
X119250743Y-49513352D01*
X119220000Y-49358795D01*
X119220000Y-49201205D01*
X119250743Y-49046648D01*
X119311048Y-48901059D01*
X119398601Y-48770027D01*
X119510027Y-48658601D01*
X119641059Y-48571048D01*
X119786648Y-48510743D01*
X119941205Y-48480000D01*
X120098795Y-48480000D01*
X120253352Y-48510743D01*
X120253352Y-48510743D01*
G37*
G36*
X122033352Y-47480743D02*
X122178941Y-47541048D01*
X122309973Y-47628601D01*
X122421399Y-47740027D01*
X122508952Y-47871059D01*
X122569257Y-48016648D01*
X122600000Y-48171205D01*
X122600000Y-48328795D01*
X122569257Y-48483352D01*
X122508952Y-48628941D01*
X122421399Y-48759973D01*
X122309973Y-48871399D01*
X122178941Y-48958952D01*
X122033352Y-49019257D01*
X121878795Y-49050000D01*
X121721205Y-49050000D01*
X121566648Y-49019257D01*
X121421059Y-48958952D01*
X121290027Y-48871399D01*
X121178601Y-48759973D01*
X121091048Y-48628941D01*
X121030743Y-48483352D01*
X121000000Y-48328795D01*
X121000000Y-48171205D01*
X121030743Y-48016648D01*
X121091048Y-47871059D01*
X121178601Y-47740027D01*
X121290027Y-47628601D01*
X121421059Y-47541048D01*
X121566648Y-47480743D01*
X121721205Y-47450000D01*
X121878795Y-47450000D01*
X122033352Y-47480743D01*
X122033352Y-47480743D01*
G37*
G36*
X76640959Y-41279021D02*
X77220947Y-41394387D01*
X77857929Y-41658234D01*
X78431197Y-42041279D01*
X78918721Y-42528803D01*
X79301766Y-43102071D01*
X79565613Y-43739053D01*
X79700120Y-44415268D01*
X79700120Y-45104732D01*
X79565613Y-45780947D01*
X79301766Y-46417929D01*
X78918721Y-46991197D01*
X78431197Y-47478721D01*
X77857929Y-47861766D01*
X77220947Y-48125613D01*
X76640959Y-48240979D01*
X76544733Y-48260120D01*
X75855267Y-48260120D01*
X75759041Y-48240979D01*
X75179053Y-48125613D01*
X74542071Y-47861766D01*
X73968803Y-47478721D01*
X73481279Y-46991197D01*
X73098234Y-46417929D01*
X72834387Y-45780947D01*
X72699880Y-45104732D01*
X72699880Y-44415268D01*
X72834387Y-43739053D01*
X73098234Y-43102071D01*
X73481279Y-42528803D01*
X73968803Y-42041279D01*
X74542071Y-41658234D01*
X75179053Y-41394387D01*
X75759041Y-41279021D01*
X75855267Y-41259880D01*
X76544733Y-41259880D01*
X76640959Y-41279021D01*
X76640959Y-41279021D01*
G37*
G36*
X120253352Y-46480743D02*
X120398941Y-46541048D01*
X120529973Y-46628601D01*
X120641399Y-46740027D01*
X120728952Y-46871059D01*
X120789257Y-47016648D01*
X120820000Y-47171205D01*
X120820000Y-47328795D01*
X120789257Y-47483352D01*
X120728952Y-47628941D01*
X120641399Y-47759973D01*
X120529973Y-47871399D01*
X120398941Y-47958952D01*
X120253352Y-48019257D01*
X120098795Y-48050000D01*
X119941205Y-48050000D01*
X119786648Y-48019257D01*
X119641059Y-47958952D01*
X119510027Y-47871399D01*
X119398601Y-47759973D01*
X119311048Y-47628941D01*
X119250743Y-47483352D01*
X119220000Y-47328795D01*
X119220000Y-47171205D01*
X119250743Y-47016648D01*
X119311048Y-46871059D01*
X119398601Y-46740027D01*
X119510027Y-46628601D01*
X119641059Y-46541048D01*
X119786648Y-46480743D01*
X119941205Y-46450000D01*
X120098795Y-46450000D01*
X120253352Y-46480743D01*
X120253352Y-46480743D01*
G37*
G36*
X122033352Y-45450743D02*
X122178941Y-45511048D01*
X122309973Y-45598601D01*
X122421399Y-45710027D01*
X122508952Y-45841059D01*
X122569257Y-45986648D01*
X122600000Y-46141205D01*
X122600000Y-46298795D01*
X122569257Y-46453352D01*
X122508952Y-46598941D01*
X122421399Y-46729973D01*
X122309973Y-46841399D01*
X122178941Y-46928952D01*
X122033352Y-46989257D01*
X121878795Y-47020000D01*
X121721205Y-47020000D01*
X121566648Y-46989257D01*
X121421059Y-46928952D01*
X121290027Y-46841399D01*
X121178601Y-46729973D01*
X121091048Y-46598941D01*
X121030743Y-46453352D01*
X121000000Y-46298795D01*
X121000000Y-46141205D01*
X121030743Y-45986648D01*
X121091048Y-45841059D01*
X121178601Y-45710027D01*
X121290027Y-45598601D01*
X121421059Y-45511048D01*
X121566648Y-45450743D01*
X121721205Y-45420000D01*
X121878795Y-45420000D01*
X122033352Y-45450743D01*
X122033352Y-45450743D01*
G37*
G36*
X36163796Y-44901799D02*
X36163799Y-44901800D01*
X36163798Y-44901800D01*
X36318652Y-44965942D01*
X36349642Y-44986649D01*
X36458020Y-45059065D01*
X36576535Y-45177580D01*
X36576537Y-45177583D01*
X36669658Y-45316948D01*
X36712343Y-45420000D01*
X36733801Y-45471804D01*
X36766500Y-45636192D01*
X36766500Y-45803808D01*
X36733801Y-45968196D01*
X36725077Y-45989257D01*
X36669658Y-46123052D01*
X36657527Y-46141207D01*
X36576535Y-46262420D01*
X36458020Y-46380935D01*
X36458017Y-46380937D01*
X36318652Y-46474058D01*
X36198879Y-46523669D01*
X36163796Y-46538201D01*
X35999408Y-46570900D01*
X35831792Y-46570900D01*
X35667404Y-46538201D01*
X35632321Y-46523669D01*
X35512548Y-46474058D01*
X35373183Y-46380937D01*
X35373180Y-46380935D01*
X35254665Y-46262420D01*
X35173673Y-46141207D01*
X35161542Y-46123052D01*
X35106123Y-45989257D01*
X35097399Y-45968196D01*
X35064700Y-45803808D01*
X35064700Y-45636192D01*
X35097399Y-45471804D01*
X35118857Y-45420000D01*
X35161542Y-45316948D01*
X35254663Y-45177583D01*
X35254665Y-45177580D01*
X35373180Y-45059065D01*
X35481558Y-44986649D01*
X35512548Y-44965942D01*
X35667402Y-44901800D01*
X35667401Y-44901800D01*
X35667404Y-44901799D01*
X35831792Y-44869100D01*
X35999408Y-44869100D01*
X36163796Y-44901799D01*
X36163796Y-44901799D01*
G37*
G36*
X29153396Y-44901799D02*
X29153399Y-44901800D01*
X29153398Y-44901800D01*
X29308252Y-44965942D01*
X29339242Y-44986649D01*
X29447620Y-45059065D01*
X29566135Y-45177580D01*
X29566137Y-45177583D01*
X29659258Y-45316948D01*
X29701943Y-45420000D01*
X29723401Y-45471804D01*
X29756100Y-45636192D01*
X29756100Y-45803808D01*
X29723401Y-45968196D01*
X29714677Y-45989257D01*
X29659258Y-46123052D01*
X29647127Y-46141207D01*
X29566135Y-46262420D01*
X29447620Y-46380935D01*
X29447617Y-46380937D01*
X29308252Y-46474058D01*
X29188479Y-46523669D01*
X29153396Y-46538201D01*
X28989008Y-46570900D01*
X28821392Y-46570900D01*
X28657004Y-46538201D01*
X28621921Y-46523669D01*
X28502148Y-46474058D01*
X28362783Y-46380937D01*
X28362780Y-46380935D01*
X28244265Y-46262420D01*
X28163273Y-46141207D01*
X28151142Y-46123052D01*
X28095723Y-45989257D01*
X28086999Y-45968196D01*
X28054300Y-45803808D01*
X28054300Y-45636192D01*
X28086999Y-45471804D01*
X28108457Y-45420000D01*
X28151142Y-45316948D01*
X28244263Y-45177583D01*
X28244265Y-45177580D01*
X28362780Y-45059065D01*
X28471158Y-44986649D01*
X28502148Y-44965942D01*
X28657002Y-44901800D01*
X28657001Y-44901800D01*
X28657004Y-44901799D01*
X28821392Y-44869100D01*
X28989008Y-44869100D01*
X29153396Y-44901799D01*
X29153396Y-44901799D01*
G37*
G36*
X120253352Y-44450743D02*
X120398941Y-44511048D01*
X120529973Y-44598601D01*
X120641399Y-44710027D01*
X120728952Y-44841059D01*
X120789257Y-44986648D01*
X120820000Y-45141205D01*
X120820000Y-45298795D01*
X120789257Y-45453352D01*
X120728952Y-45598941D01*
X120641399Y-45729973D01*
X120529973Y-45841399D01*
X120398941Y-45928952D01*
X120253352Y-45989257D01*
X120098795Y-46020000D01*
X119941205Y-46020000D01*
X119786648Y-45989257D01*
X119641059Y-45928952D01*
X119510027Y-45841399D01*
X119398601Y-45729973D01*
X119311048Y-45598941D01*
X119250743Y-45453352D01*
X119220000Y-45298795D01*
X119220000Y-45141205D01*
X119250743Y-44986648D01*
X119311048Y-44841059D01*
X119398601Y-44710027D01*
X119510027Y-44598601D01*
X119641059Y-44511048D01*
X119786648Y-44450743D01*
X119941205Y-44420000D01*
X120098795Y-44420000D01*
X120253352Y-44450743D01*
X120253352Y-44450743D01*
G37*
G36*
X122033352Y-43420743D02*
X122178941Y-43481048D01*
X122309973Y-43568601D01*
X122421399Y-43680027D01*
X122508952Y-43811059D01*
X122569257Y-43956648D01*
X122600000Y-44111205D01*
X122600000Y-44268795D01*
X122569257Y-44423352D01*
X122508952Y-44568941D01*
X122421399Y-44699973D01*
X122309973Y-44811399D01*
X122178941Y-44898952D01*
X122033352Y-44959257D01*
X121878795Y-44990000D01*
X121721205Y-44990000D01*
X121566648Y-44959257D01*
X121421059Y-44898952D01*
X121290027Y-44811399D01*
X121178601Y-44699973D01*
X121091048Y-44568941D01*
X121030743Y-44423352D01*
X121000000Y-44268795D01*
X121000000Y-44111205D01*
X121030743Y-43956648D01*
X121091048Y-43811059D01*
X121178601Y-43680027D01*
X121290027Y-43568601D01*
X121421059Y-43481048D01*
X121566648Y-43420743D01*
X121721205Y-43390000D01*
X121878795Y-43390000D01*
X122033352Y-43420743D01*
X122033352Y-43420743D01*
G37*
G36*
X120253352Y-42420743D02*
X120398941Y-42481048D01*
X120529973Y-42568601D01*
X120641399Y-42680027D01*
X120728952Y-42811059D01*
X120789257Y-42956648D01*
X120820000Y-43111205D01*
X120820000Y-43268795D01*
X120789257Y-43423352D01*
X120728952Y-43568941D01*
X120641399Y-43699973D01*
X120529973Y-43811399D01*
X120398941Y-43898952D01*
X120253352Y-43959257D01*
X120098795Y-43990000D01*
X119941205Y-43990000D01*
X119786648Y-43959257D01*
X119641059Y-43898952D01*
X119510027Y-43811399D01*
X119398601Y-43699973D01*
X119311048Y-43568941D01*
X119250743Y-43423352D01*
X119220000Y-43268795D01*
X119220000Y-43111205D01*
X119250743Y-42956648D01*
X119311048Y-42811059D01*
X119398601Y-42680027D01*
X119510027Y-42568601D01*
X119641059Y-42481048D01*
X119786648Y-42420743D01*
X119941205Y-42390000D01*
X120098795Y-42390000D01*
X120253352Y-42420743D01*
X120253352Y-42420743D01*
G37*
G36*
X122033352Y-41390743D02*
X122178941Y-41451048D01*
X122309973Y-41538601D01*
X122421399Y-41650027D01*
X122508952Y-41781059D01*
X122569257Y-41926648D01*
X122600000Y-42081205D01*
X122600000Y-42238795D01*
X122569257Y-42393352D01*
X122508952Y-42538941D01*
X122421399Y-42669973D01*
X122309973Y-42781399D01*
X122178941Y-42868952D01*
X122033352Y-42929257D01*
X121878795Y-42960000D01*
X121721205Y-42960000D01*
X121566648Y-42929257D01*
X121421059Y-42868952D01*
X121290027Y-42781399D01*
X121178601Y-42669973D01*
X121091048Y-42538941D01*
X121030743Y-42393352D01*
X121000000Y-42238795D01*
X121000000Y-42081205D01*
X121030743Y-41926648D01*
X121091048Y-41781059D01*
X121178601Y-41650027D01*
X121290027Y-41538601D01*
X121421059Y-41451048D01*
X121566648Y-41390743D01*
X121721205Y-41360000D01*
X121878795Y-41360000D01*
X122033352Y-41390743D01*
X122033352Y-41390743D01*
G37*
G36*
X124813992Y-37807447D02*
X124813994Y-37807448D01*
X124813995Y-37807448D01*
X125109726Y-37929943D01*
X125109727Y-37929944D01*
X125375880Y-38107782D01*
X125602218Y-38334120D01*
X125602220Y-38334123D01*
X125780057Y-38600274D01*
X125902552Y-38896005D01*
X125965000Y-39209951D01*
X125965000Y-39530049D01*
X125902552Y-39843995D01*
X125780057Y-40139726D01*
X125780056Y-40139727D01*
X125602218Y-40405880D01*
X125375880Y-40632218D01*
X125375877Y-40632220D01*
X125109726Y-40810057D01*
X124813995Y-40932552D01*
X124813994Y-40932552D01*
X124813992Y-40932553D01*
X124500050Y-40995000D01*
X124179950Y-40995000D01*
X123866008Y-40932553D01*
X123866006Y-40932552D01*
X123866005Y-40932552D01*
X123570274Y-40810057D01*
X123304123Y-40632220D01*
X123304120Y-40632218D01*
X123077782Y-40405880D01*
X122899944Y-40139727D01*
X122899943Y-40139726D01*
X122777448Y-39843995D01*
X122715000Y-39530049D01*
X122715000Y-39209951D01*
X122777448Y-38896005D01*
X122899943Y-38600274D01*
X123077780Y-38334123D01*
X123077782Y-38334120D01*
X123304120Y-38107782D01*
X123570273Y-37929944D01*
X123570274Y-37929943D01*
X123866005Y-37807448D01*
X123866006Y-37807448D01*
X123866008Y-37807447D01*
X124179950Y-37745000D01*
X124500050Y-37745000D01*
X124813992Y-37807447D01*
X124813992Y-37807447D01*
G37*
G36*
X121100857Y-36532272D02*
X121301042Y-36615191D01*
X121481213Y-36735578D01*
X121634422Y-36888787D01*
X121754809Y-37068958D01*
X121837728Y-37269143D01*
X121880000Y-37481658D01*
X121880000Y-37698342D01*
X121837728Y-37910857D01*
X121754809Y-38111042D01*
X121634422Y-38291213D01*
X121481213Y-38444422D01*
X121301042Y-38564809D01*
X121100857Y-38647728D01*
X120888342Y-38690000D01*
X120671658Y-38690000D01*
X120459143Y-38647728D01*
X120258958Y-38564809D01*
X120078787Y-38444422D01*
X119925578Y-38291213D01*
X119805191Y-38111042D01*
X119722272Y-37910857D01*
X119680000Y-37698342D01*
X119680000Y-37481658D01*
X119722272Y-37269143D01*
X119805191Y-37068958D01*
X119925578Y-36888787D01*
X120078787Y-36735578D01*
X120258958Y-36615191D01*
X120459143Y-36532272D01*
X120671658Y-36490000D01*
X120888342Y-36490000D01*
X121100857Y-36532272D01*
X121100857Y-36532272D01*
G37*
G36*
X89073195Y-36087522D02*
X89122267Y-36097283D01*
X89260942Y-36154724D01*
X89385750Y-36238118D01*
X89491882Y-36344250D01*
X89491884Y-36344253D01*
X89575276Y-36469058D01*
X89632717Y-36607733D01*
X89662000Y-36754950D01*
X89662000Y-36905050D01*
X89632717Y-37052267D01*
X89625803Y-37068958D01*
X89575276Y-37190942D01*
X89491882Y-37315750D01*
X89385750Y-37421882D01*
X89385747Y-37421884D01*
X89260942Y-37505276D01*
X89122267Y-37562717D01*
X89073195Y-37572478D01*
X88975052Y-37592000D01*
X88824948Y-37592000D01*
X88726805Y-37572478D01*
X88677733Y-37562717D01*
X88539058Y-37505276D01*
X88414253Y-37421884D01*
X88414250Y-37421882D01*
X88308118Y-37315750D01*
X88224724Y-37190942D01*
X88174197Y-37068958D01*
X88167283Y-37052267D01*
X88138000Y-36905050D01*
X88138000Y-36754950D01*
X88167283Y-36607733D01*
X88224724Y-36469058D01*
X88308116Y-36344253D01*
X88308118Y-36344250D01*
X88414250Y-36238118D01*
X88539058Y-36154724D01*
X88677733Y-36097283D01*
X88726805Y-36087522D01*
X88824948Y-36068000D01*
X88975052Y-36068000D01*
X89073195Y-36087522D01*
X89073195Y-36087522D01*
G37*
G36*
X86533195Y-36087522D02*
X86582267Y-36097283D01*
X86720942Y-36154724D01*
X86845750Y-36238118D01*
X86951882Y-36344250D01*
X86951884Y-36344253D01*
X87035276Y-36469058D01*
X87092717Y-36607733D01*
X87122000Y-36754950D01*
X87122000Y-36905050D01*
X87092717Y-37052267D01*
X87085803Y-37068958D01*
X87035276Y-37190942D01*
X86951882Y-37315750D01*
X86845750Y-37421882D01*
X86845747Y-37421884D01*
X86720942Y-37505276D01*
X86582267Y-37562717D01*
X86533195Y-37572478D01*
X86435052Y-37592000D01*
X86284948Y-37592000D01*
X86186805Y-37572478D01*
X86137733Y-37562717D01*
X85999058Y-37505276D01*
X85874253Y-37421884D01*
X85874250Y-37421882D01*
X85768118Y-37315750D01*
X85684724Y-37190942D01*
X85634197Y-37068958D01*
X85627283Y-37052267D01*
X85598000Y-36905050D01*
X85598000Y-36754950D01*
X85627283Y-36607733D01*
X85684724Y-36469058D01*
X85768116Y-36344253D01*
X85768118Y-36344250D01*
X85874250Y-36238118D01*
X85999058Y-36154724D01*
X86137733Y-36097283D01*
X86186805Y-36087522D01*
X86284948Y-36068000D01*
X86435052Y-36068000D01*
X86533195Y-36087522D01*
X86533195Y-36087522D01*
G37*
G36*
X83993195Y-36087522D02*
X84042267Y-36097283D01*
X84180942Y-36154724D01*
X84305750Y-36238118D01*
X84411882Y-36344250D01*
X84411884Y-36344253D01*
X84495276Y-36469058D01*
X84552717Y-36607733D01*
X84582000Y-36754950D01*
X84582000Y-36905050D01*
X84552717Y-37052267D01*
X84545803Y-37068958D01*
X84495276Y-37190942D01*
X84411882Y-37315750D01*
X84305750Y-37421882D01*
X84305747Y-37421884D01*
X84180942Y-37505276D01*
X84042267Y-37562717D01*
X83993195Y-37572478D01*
X83895052Y-37592000D01*
X83744948Y-37592000D01*
X83646805Y-37572478D01*
X83597733Y-37562717D01*
X83459058Y-37505276D01*
X83334253Y-37421884D01*
X83334250Y-37421882D01*
X83228118Y-37315750D01*
X83144724Y-37190942D01*
X83094197Y-37068958D01*
X83087283Y-37052267D01*
X83058000Y-36905050D01*
X83058000Y-36754950D01*
X83087283Y-36607733D01*
X83144724Y-36469058D01*
X83228116Y-36344253D01*
X83228118Y-36344250D01*
X83334250Y-36238118D01*
X83459058Y-36154724D01*
X83597733Y-36097283D01*
X83646805Y-36087522D01*
X83744948Y-36068000D01*
X83895052Y-36068000D01*
X83993195Y-36087522D01*
X83993195Y-36087522D01*
G37*
G36*
X81453195Y-36087522D02*
X81502267Y-36097283D01*
X81640942Y-36154724D01*
X81765750Y-36238118D01*
X81871882Y-36344250D01*
X81871884Y-36344253D01*
X81955276Y-36469058D01*
X82012717Y-36607733D01*
X82042000Y-36754950D01*
X82042000Y-36905050D01*
X82012717Y-37052267D01*
X82005803Y-37068958D01*
X81955276Y-37190942D01*
X81871882Y-37315750D01*
X81765750Y-37421882D01*
X81765747Y-37421884D01*
X81640942Y-37505276D01*
X81502267Y-37562717D01*
X81453195Y-37572478D01*
X81355052Y-37592000D01*
X81204948Y-37592000D01*
X81106805Y-37572478D01*
X81057733Y-37562717D01*
X80919058Y-37505276D01*
X80794253Y-37421884D01*
X80794250Y-37421882D01*
X80688118Y-37315750D01*
X80604724Y-37190942D01*
X80554197Y-37068958D01*
X80547283Y-37052267D01*
X80518000Y-36905050D01*
X80518000Y-36754950D01*
X80547283Y-36607733D01*
X80604724Y-36469058D01*
X80688116Y-36344253D01*
X80688118Y-36344250D01*
X80794250Y-36238118D01*
X80919058Y-36154724D01*
X81057733Y-36097283D01*
X81106805Y-36087522D01*
X81204948Y-36068000D01*
X81355052Y-36068000D01*
X81453195Y-36087522D01*
X81453195Y-36087522D01*
G37*
G36*
X78913195Y-36087522D02*
X78962267Y-36097283D01*
X79100942Y-36154724D01*
X79225750Y-36238118D01*
X79331882Y-36344250D01*
X79331884Y-36344253D01*
X79415276Y-36469058D01*
X79472717Y-36607733D01*
X79502000Y-36754950D01*
X79502000Y-36905050D01*
X79472717Y-37052267D01*
X79465803Y-37068958D01*
X79415276Y-37190942D01*
X79331882Y-37315750D01*
X79225750Y-37421882D01*
X79225747Y-37421884D01*
X79100942Y-37505276D01*
X78962267Y-37562717D01*
X78913195Y-37572478D01*
X78815052Y-37592000D01*
X78664948Y-37592000D01*
X78566805Y-37572478D01*
X78517733Y-37562717D01*
X78379058Y-37505276D01*
X78254253Y-37421884D01*
X78254250Y-37421882D01*
X78148118Y-37315750D01*
X78064724Y-37190942D01*
X78014197Y-37068958D01*
X78007283Y-37052267D01*
X77978000Y-36905050D01*
X77978000Y-36754950D01*
X78007283Y-36607733D01*
X78064724Y-36469058D01*
X78148116Y-36344253D01*
X78148118Y-36344250D01*
X78254250Y-36238118D01*
X78379058Y-36154724D01*
X78517733Y-36097283D01*
X78566805Y-36087522D01*
X78664948Y-36068000D01*
X78815052Y-36068000D01*
X78913195Y-36087522D01*
X78913195Y-36087522D01*
G37*
G36*
X63673195Y-36087522D02*
X63722267Y-36097283D01*
X63860942Y-36154724D01*
X63985750Y-36238118D01*
X64091882Y-36344250D01*
X64091884Y-36344253D01*
X64175276Y-36469058D01*
X64232717Y-36607733D01*
X64262000Y-36754950D01*
X64262000Y-36905050D01*
X64232717Y-37052267D01*
X64225803Y-37068958D01*
X64175276Y-37190942D01*
X64091882Y-37315750D01*
X63985750Y-37421882D01*
X63985747Y-37421884D01*
X63860942Y-37505276D01*
X63722267Y-37562717D01*
X63673195Y-37572478D01*
X63575052Y-37592000D01*
X63424948Y-37592000D01*
X63326805Y-37572478D01*
X63277733Y-37562717D01*
X63139058Y-37505276D01*
X63014253Y-37421884D01*
X63014250Y-37421882D01*
X62908118Y-37315750D01*
X62824724Y-37190942D01*
X62774197Y-37068958D01*
X62767283Y-37052267D01*
X62738000Y-36905050D01*
X62738000Y-36754950D01*
X62767283Y-36607733D01*
X62824724Y-36469058D01*
X62908116Y-36344253D01*
X62908118Y-36344250D01*
X63014250Y-36238118D01*
X63139058Y-36154724D01*
X63277733Y-36097283D01*
X63326805Y-36087522D01*
X63424948Y-36068000D01*
X63575052Y-36068000D01*
X63673195Y-36087522D01*
X63673195Y-36087522D01*
G37*
G36*
X76373195Y-36087522D02*
X76422267Y-36097283D01*
X76560942Y-36154724D01*
X76685750Y-36238118D01*
X76791882Y-36344250D01*
X76791884Y-36344253D01*
X76875276Y-36469058D01*
X76932717Y-36607733D01*
X76962000Y-36754950D01*
X76962000Y-36905050D01*
X76932717Y-37052267D01*
X76925803Y-37068958D01*
X76875276Y-37190942D01*
X76791882Y-37315750D01*
X76685750Y-37421882D01*
X76685747Y-37421884D01*
X76560942Y-37505276D01*
X76422267Y-37562717D01*
X76373195Y-37572478D01*
X76275052Y-37592000D01*
X76124948Y-37592000D01*
X76026805Y-37572478D01*
X75977733Y-37562717D01*
X75839058Y-37505276D01*
X75714253Y-37421884D01*
X75714250Y-37421882D01*
X75608118Y-37315750D01*
X75524724Y-37190942D01*
X75474197Y-37068958D01*
X75467283Y-37052267D01*
X75438000Y-36905050D01*
X75438000Y-36754950D01*
X75467283Y-36607733D01*
X75524724Y-36469058D01*
X75608116Y-36344253D01*
X75608118Y-36344250D01*
X75714250Y-36238118D01*
X75839058Y-36154724D01*
X75977733Y-36097283D01*
X76026805Y-36087522D01*
X76124948Y-36068000D01*
X76275052Y-36068000D01*
X76373195Y-36087522D01*
X76373195Y-36087522D01*
G37*
G36*
X73833195Y-36087522D02*
X73882267Y-36097283D01*
X74020942Y-36154724D01*
X74145750Y-36238118D01*
X74251882Y-36344250D01*
X74251884Y-36344253D01*
X74335276Y-36469058D01*
X74392717Y-36607733D01*
X74422000Y-36754950D01*
X74422000Y-36905050D01*
X74392717Y-37052267D01*
X74385803Y-37068958D01*
X74335276Y-37190942D01*
X74251882Y-37315750D01*
X74145750Y-37421882D01*
X74145747Y-37421884D01*
X74020942Y-37505276D01*
X73882267Y-37562717D01*
X73833195Y-37572478D01*
X73735052Y-37592000D01*
X73584948Y-37592000D01*
X73486805Y-37572478D01*
X73437733Y-37562717D01*
X73299058Y-37505276D01*
X73174253Y-37421884D01*
X73174250Y-37421882D01*
X73068118Y-37315750D01*
X72984724Y-37190942D01*
X72934197Y-37068958D01*
X72927283Y-37052267D01*
X72898000Y-36905050D01*
X72898000Y-36754950D01*
X72927283Y-36607733D01*
X72984724Y-36469058D01*
X73068116Y-36344253D01*
X73068118Y-36344250D01*
X73174250Y-36238118D01*
X73299058Y-36154724D01*
X73437733Y-36097283D01*
X73486805Y-36087522D01*
X73584948Y-36068000D01*
X73735052Y-36068000D01*
X73833195Y-36087522D01*
X73833195Y-36087522D01*
G37*
G36*
X71293195Y-36087522D02*
X71342267Y-36097283D01*
X71480942Y-36154724D01*
X71605750Y-36238118D01*
X71711882Y-36344250D01*
X71711884Y-36344253D01*
X71795276Y-36469058D01*
X71852717Y-36607733D01*
X71882000Y-36754950D01*
X71882000Y-36905050D01*
X71852717Y-37052267D01*
X71845803Y-37068958D01*
X71795276Y-37190942D01*
X71711882Y-37315750D01*
X71605750Y-37421882D01*
X71605747Y-37421884D01*
X71480942Y-37505276D01*
X71342267Y-37562717D01*
X71293195Y-37572478D01*
X71195052Y-37592000D01*
X71044948Y-37592000D01*
X70946805Y-37572478D01*
X70897733Y-37562717D01*
X70759058Y-37505276D01*
X70634253Y-37421884D01*
X70634250Y-37421882D01*
X70528118Y-37315750D01*
X70444724Y-37190942D01*
X70394197Y-37068958D01*
X70387283Y-37052267D01*
X70358000Y-36905050D01*
X70358000Y-36754950D01*
X70387283Y-36607733D01*
X70444724Y-36469058D01*
X70528116Y-36344253D01*
X70528118Y-36344250D01*
X70634250Y-36238118D01*
X70759058Y-36154724D01*
X70897733Y-36097283D01*
X70946805Y-36087522D01*
X71044948Y-36068000D01*
X71195052Y-36068000D01*
X71293195Y-36087522D01*
X71293195Y-36087522D01*
G37*
G36*
X68753195Y-36087522D02*
X68802267Y-36097283D01*
X68940942Y-36154724D01*
X69065750Y-36238118D01*
X69171882Y-36344250D01*
X69171884Y-36344253D01*
X69255276Y-36469058D01*
X69312717Y-36607733D01*
X69342000Y-36754950D01*
X69342000Y-36905050D01*
X69312717Y-37052267D01*
X69305803Y-37068958D01*
X69255276Y-37190942D01*
X69171882Y-37315750D01*
X69065750Y-37421882D01*
X69065747Y-37421884D01*
X68940942Y-37505276D01*
X68802267Y-37562717D01*
X68753195Y-37572478D01*
X68655052Y-37592000D01*
X68504948Y-37592000D01*
X68406805Y-37572478D01*
X68357733Y-37562717D01*
X68219058Y-37505276D01*
X68094253Y-37421884D01*
X68094250Y-37421882D01*
X67988118Y-37315750D01*
X67904724Y-37190942D01*
X67854197Y-37068958D01*
X67847283Y-37052267D01*
X67818000Y-36905050D01*
X67818000Y-36754950D01*
X67847283Y-36607733D01*
X67904724Y-36469058D01*
X67988116Y-36344253D01*
X67988118Y-36344250D01*
X68094250Y-36238118D01*
X68219058Y-36154724D01*
X68357733Y-36097283D01*
X68406805Y-36087522D01*
X68504948Y-36068000D01*
X68655052Y-36068000D01*
X68753195Y-36087522D01*
X68753195Y-36087522D01*
G37*
G36*
X66213195Y-36087522D02*
X66262267Y-36097283D01*
X66400942Y-36154724D01*
X66525750Y-36238118D01*
X66631882Y-36344250D01*
X66631884Y-36344253D01*
X66715276Y-36469058D01*
X66772717Y-36607733D01*
X66802000Y-36754950D01*
X66802000Y-36905050D01*
X66772717Y-37052267D01*
X66765803Y-37068958D01*
X66715276Y-37190942D01*
X66631882Y-37315750D01*
X66525750Y-37421882D01*
X66525747Y-37421884D01*
X66400942Y-37505276D01*
X66262267Y-37562717D01*
X66213195Y-37572478D01*
X66115052Y-37592000D01*
X65964948Y-37592000D01*
X65866805Y-37572478D01*
X65817733Y-37562717D01*
X65679058Y-37505276D01*
X65554253Y-37421884D01*
X65554250Y-37421882D01*
X65448118Y-37315750D01*
X65364724Y-37190942D01*
X65314197Y-37068958D01*
X65307283Y-37052267D01*
X65278000Y-36905050D01*
X65278000Y-36754950D01*
X65307283Y-36607733D01*
X65364724Y-36469058D01*
X65448116Y-36344253D01*
X65448118Y-36344250D01*
X65554250Y-36238118D01*
X65679058Y-36154724D01*
X65817733Y-36097283D01*
X65866805Y-36087522D01*
X65964948Y-36068000D01*
X66115052Y-36068000D01*
X66213195Y-36087522D01*
X66213195Y-36087522D01*
G37*
G36*
X46482000Y-37592000D02*
X44958000Y-37592000D01*
X44958000Y-36068000D01*
X46482000Y-36068000D01*
X46482000Y-37592000D01*
X46482000Y-37592000D01*
G37*
G36*
X94153195Y-36087522D02*
X94202267Y-36097283D01*
X94340942Y-36154724D01*
X94465750Y-36238118D01*
X94571882Y-36344250D01*
X94571884Y-36344253D01*
X94655276Y-36469058D01*
X94712717Y-36607733D01*
X94742000Y-36754950D01*
X94742000Y-36905050D01*
X94712717Y-37052267D01*
X94705803Y-37068958D01*
X94655276Y-37190942D01*
X94571882Y-37315750D01*
X94465750Y-37421882D01*
X94465747Y-37421884D01*
X94340942Y-37505276D01*
X94202267Y-37562717D01*
X94153195Y-37572478D01*
X94055052Y-37592000D01*
X93904948Y-37592000D01*
X93806805Y-37572478D01*
X93757733Y-37562717D01*
X93619058Y-37505276D01*
X93494253Y-37421884D01*
X93494250Y-37421882D01*
X93388118Y-37315750D01*
X93304724Y-37190942D01*
X93254197Y-37068958D01*
X93247283Y-37052267D01*
X93218000Y-36905050D01*
X93218000Y-36754950D01*
X93247283Y-36607733D01*
X93304724Y-36469058D01*
X93388116Y-36344253D01*
X93388118Y-36344250D01*
X93494250Y-36238118D01*
X93619058Y-36154724D01*
X93757733Y-36097283D01*
X93806805Y-36087522D01*
X93904948Y-36068000D01*
X94055052Y-36068000D01*
X94153195Y-36087522D01*
X94153195Y-36087522D01*
G37*
G36*
X96693195Y-36087522D02*
X96742267Y-36097283D01*
X96880942Y-36154724D01*
X97005750Y-36238118D01*
X97111882Y-36344250D01*
X97111884Y-36344253D01*
X97195276Y-36469058D01*
X97252717Y-36607733D01*
X97282000Y-36754950D01*
X97282000Y-36905050D01*
X97252717Y-37052267D01*
X97245803Y-37068958D01*
X97195276Y-37190942D01*
X97111882Y-37315750D01*
X97005750Y-37421882D01*
X97005747Y-37421884D01*
X96880942Y-37505276D01*
X96742267Y-37562717D01*
X96693195Y-37572478D01*
X96595052Y-37592000D01*
X96444948Y-37592000D01*
X96346805Y-37572478D01*
X96297733Y-37562717D01*
X96159058Y-37505276D01*
X96034253Y-37421884D01*
X96034250Y-37421882D01*
X95928118Y-37315750D01*
X95844724Y-37190942D01*
X95794197Y-37068958D01*
X95787283Y-37052267D01*
X95758000Y-36905050D01*
X95758000Y-36754950D01*
X95787283Y-36607733D01*
X95844724Y-36469058D01*
X95928116Y-36344253D01*
X95928118Y-36344250D01*
X96034250Y-36238118D01*
X96159058Y-36154724D01*
X96297733Y-36097283D01*
X96346805Y-36087522D01*
X96444948Y-36068000D01*
X96595052Y-36068000D01*
X96693195Y-36087522D01*
X96693195Y-36087522D01*
G37*
G36*
X99233195Y-36087522D02*
X99282267Y-36097283D01*
X99420942Y-36154724D01*
X99545750Y-36238118D01*
X99651882Y-36344250D01*
X99651884Y-36344253D01*
X99735276Y-36469058D01*
X99792717Y-36607733D01*
X99822000Y-36754950D01*
X99822000Y-36905050D01*
X99792717Y-37052267D01*
X99785803Y-37068958D01*
X99735276Y-37190942D01*
X99651882Y-37315750D01*
X99545750Y-37421882D01*
X99545747Y-37421884D01*
X99420942Y-37505276D01*
X99282267Y-37562717D01*
X99233195Y-37572478D01*
X99135052Y-37592000D01*
X98984948Y-37592000D01*
X98886805Y-37572478D01*
X98837733Y-37562717D01*
X98699058Y-37505276D01*
X98574253Y-37421884D01*
X98574250Y-37421882D01*
X98468118Y-37315750D01*
X98384724Y-37190942D01*
X98334197Y-37068958D01*
X98327283Y-37052267D01*
X98298000Y-36905050D01*
X98298000Y-36754950D01*
X98327283Y-36607733D01*
X98384724Y-36469058D01*
X98468116Y-36344253D01*
X98468118Y-36344250D01*
X98574250Y-36238118D01*
X98699058Y-36154724D01*
X98837733Y-36097283D01*
X98886805Y-36087522D01*
X98984948Y-36068000D01*
X99135052Y-36068000D01*
X99233195Y-36087522D01*
X99233195Y-36087522D01*
G37*
G36*
X101773195Y-36087522D02*
X101822267Y-36097283D01*
X101960942Y-36154724D01*
X102085750Y-36238118D01*
X102191882Y-36344250D01*
X102191884Y-36344253D01*
X102275276Y-36469058D01*
X102332717Y-36607733D01*
X102362000Y-36754950D01*
X102362000Y-36905050D01*
X102332717Y-37052267D01*
X102325803Y-37068958D01*
X102275276Y-37190942D01*
X102191882Y-37315750D01*
X102085750Y-37421882D01*
X102085747Y-37421884D01*
X101960942Y-37505276D01*
X101822267Y-37562717D01*
X101773195Y-37572478D01*
X101675052Y-37592000D01*
X101524948Y-37592000D01*
X101426805Y-37572478D01*
X101377733Y-37562717D01*
X101239058Y-37505276D01*
X101114253Y-37421884D01*
X101114250Y-37421882D01*
X101008118Y-37315750D01*
X100924724Y-37190942D01*
X100874197Y-37068958D01*
X100867283Y-37052267D01*
X100838000Y-36905050D01*
X100838000Y-36754950D01*
X100867283Y-36607733D01*
X100924724Y-36469058D01*
X101008116Y-36344253D01*
X101008118Y-36344250D01*
X101114250Y-36238118D01*
X101239058Y-36154724D01*
X101377733Y-36097283D01*
X101426805Y-36087522D01*
X101524948Y-36068000D01*
X101675052Y-36068000D01*
X101773195Y-36087522D01*
X101773195Y-36087522D01*
G37*
G36*
X104313195Y-36087522D02*
X104362267Y-36097283D01*
X104500942Y-36154724D01*
X104625750Y-36238118D01*
X104731882Y-36344250D01*
X104731884Y-36344253D01*
X104815276Y-36469058D01*
X104872717Y-36607733D01*
X104902000Y-36754950D01*
X104902000Y-36905050D01*
X104872717Y-37052267D01*
X104865803Y-37068958D01*
X104815276Y-37190942D01*
X104731882Y-37315750D01*
X104625750Y-37421882D01*
X104625747Y-37421884D01*
X104500942Y-37505276D01*
X104362267Y-37562717D01*
X104313195Y-37572478D01*
X104215052Y-37592000D01*
X104064948Y-37592000D01*
X103966805Y-37572478D01*
X103917733Y-37562717D01*
X103779058Y-37505276D01*
X103654253Y-37421884D01*
X103654250Y-37421882D01*
X103548118Y-37315750D01*
X103464724Y-37190942D01*
X103414197Y-37068958D01*
X103407283Y-37052267D01*
X103378000Y-36905050D01*
X103378000Y-36754950D01*
X103407283Y-36607733D01*
X103464724Y-36469058D01*
X103548116Y-36344253D01*
X103548118Y-36344250D01*
X103654250Y-36238118D01*
X103779058Y-36154724D01*
X103917733Y-36097283D01*
X103966805Y-36087522D01*
X104064948Y-36068000D01*
X104215052Y-36068000D01*
X104313195Y-36087522D01*
X104313195Y-36087522D01*
G37*
G36*
X106853195Y-36087522D02*
X106902267Y-36097283D01*
X107040942Y-36154724D01*
X107165750Y-36238118D01*
X107271882Y-36344250D01*
X107271884Y-36344253D01*
X107355276Y-36469058D01*
X107412717Y-36607733D01*
X107442000Y-36754950D01*
X107442000Y-36905050D01*
X107412717Y-37052267D01*
X107405803Y-37068958D01*
X107355276Y-37190942D01*
X107271882Y-37315750D01*
X107165750Y-37421882D01*
X107165747Y-37421884D01*
X107040942Y-37505276D01*
X106902267Y-37562717D01*
X106853195Y-37572478D01*
X106755052Y-37592000D01*
X106604948Y-37592000D01*
X106506805Y-37572478D01*
X106457733Y-37562717D01*
X106319058Y-37505276D01*
X106194253Y-37421884D01*
X106194250Y-37421882D01*
X106088118Y-37315750D01*
X106004724Y-37190942D01*
X105954197Y-37068958D01*
X105947283Y-37052267D01*
X105918000Y-36905050D01*
X105918000Y-36754950D01*
X105947283Y-36607733D01*
X106004724Y-36469058D01*
X106088116Y-36344253D01*
X106088118Y-36344250D01*
X106194250Y-36238118D01*
X106319058Y-36154724D01*
X106457733Y-36097283D01*
X106506805Y-36087522D01*
X106604948Y-36068000D01*
X106755052Y-36068000D01*
X106853195Y-36087522D01*
X106853195Y-36087522D01*
G37*
G36*
X48433195Y-36087522D02*
X48482267Y-36097283D01*
X48620942Y-36154724D01*
X48745750Y-36238118D01*
X48851882Y-36344250D01*
X48851884Y-36344253D01*
X48935276Y-36469058D01*
X48992717Y-36607733D01*
X49022000Y-36754950D01*
X49022000Y-36905050D01*
X48992717Y-37052267D01*
X48985803Y-37068958D01*
X48935276Y-37190942D01*
X48851882Y-37315750D01*
X48745750Y-37421882D01*
X48745747Y-37421884D01*
X48620942Y-37505276D01*
X48482267Y-37562717D01*
X48433195Y-37572478D01*
X48335052Y-37592000D01*
X48184948Y-37592000D01*
X48086805Y-37572478D01*
X48037733Y-37562717D01*
X47899058Y-37505276D01*
X47774253Y-37421884D01*
X47774250Y-37421882D01*
X47668118Y-37315750D01*
X47584724Y-37190942D01*
X47534197Y-37068958D01*
X47527283Y-37052267D01*
X47498000Y-36905050D01*
X47498000Y-36754950D01*
X47527283Y-36607733D01*
X47584724Y-36469058D01*
X47668116Y-36344253D01*
X47668118Y-36344250D01*
X47774250Y-36238118D01*
X47899058Y-36154724D01*
X48037733Y-36097283D01*
X48086805Y-36087522D01*
X48184948Y-36068000D01*
X48335052Y-36068000D01*
X48433195Y-36087522D01*
X48433195Y-36087522D01*
G37*
G36*
X50973195Y-36087522D02*
X51022267Y-36097283D01*
X51160942Y-36154724D01*
X51285750Y-36238118D01*
X51391882Y-36344250D01*
X51391884Y-36344253D01*
X51475276Y-36469058D01*
X51532717Y-36607733D01*
X51562000Y-36754950D01*
X51562000Y-36905050D01*
X51532717Y-37052267D01*
X51525803Y-37068958D01*
X51475276Y-37190942D01*
X51391882Y-37315750D01*
X51285750Y-37421882D01*
X51285747Y-37421884D01*
X51160942Y-37505276D01*
X51022267Y-37562717D01*
X50973195Y-37572478D01*
X50875052Y-37592000D01*
X50724948Y-37592000D01*
X50626805Y-37572478D01*
X50577733Y-37562717D01*
X50439058Y-37505276D01*
X50314253Y-37421884D01*
X50314250Y-37421882D01*
X50208118Y-37315750D01*
X50124724Y-37190942D01*
X50074197Y-37068958D01*
X50067283Y-37052267D01*
X50038000Y-36905050D01*
X50038000Y-36754950D01*
X50067283Y-36607733D01*
X50124724Y-36469058D01*
X50208116Y-36344253D01*
X50208118Y-36344250D01*
X50314250Y-36238118D01*
X50439058Y-36154724D01*
X50577733Y-36097283D01*
X50626805Y-36087522D01*
X50724948Y-36068000D01*
X50875052Y-36068000D01*
X50973195Y-36087522D01*
X50973195Y-36087522D01*
G37*
G36*
X53513195Y-36087522D02*
X53562267Y-36097283D01*
X53700942Y-36154724D01*
X53825750Y-36238118D01*
X53931882Y-36344250D01*
X53931884Y-36344253D01*
X54015276Y-36469058D01*
X54072717Y-36607733D01*
X54102000Y-36754950D01*
X54102000Y-36905050D01*
X54072717Y-37052267D01*
X54065803Y-37068958D01*
X54015276Y-37190942D01*
X53931882Y-37315750D01*
X53825750Y-37421882D01*
X53825747Y-37421884D01*
X53700942Y-37505276D01*
X53562267Y-37562717D01*
X53513195Y-37572478D01*
X53415052Y-37592000D01*
X53264948Y-37592000D01*
X53166805Y-37572478D01*
X53117733Y-37562717D01*
X52979058Y-37505276D01*
X52854253Y-37421884D01*
X52854250Y-37421882D01*
X52748118Y-37315750D01*
X52664724Y-37190942D01*
X52614197Y-37068958D01*
X52607283Y-37052267D01*
X52578000Y-36905050D01*
X52578000Y-36754950D01*
X52607283Y-36607733D01*
X52664724Y-36469058D01*
X52748116Y-36344253D01*
X52748118Y-36344250D01*
X52854250Y-36238118D01*
X52979058Y-36154724D01*
X53117733Y-36097283D01*
X53166805Y-36087522D01*
X53264948Y-36068000D01*
X53415052Y-36068000D01*
X53513195Y-36087522D01*
X53513195Y-36087522D01*
G37*
G36*
X56053195Y-36087522D02*
X56102267Y-36097283D01*
X56240942Y-36154724D01*
X56365750Y-36238118D01*
X56471882Y-36344250D01*
X56471884Y-36344253D01*
X56555276Y-36469058D01*
X56612717Y-36607733D01*
X56642000Y-36754950D01*
X56642000Y-36905050D01*
X56612717Y-37052267D01*
X56605803Y-37068958D01*
X56555276Y-37190942D01*
X56471882Y-37315750D01*
X56365750Y-37421882D01*
X56365747Y-37421884D01*
X56240942Y-37505276D01*
X56102267Y-37562717D01*
X56053195Y-37572478D01*
X55955052Y-37592000D01*
X55804948Y-37592000D01*
X55706805Y-37572478D01*
X55657733Y-37562717D01*
X55519058Y-37505276D01*
X55394253Y-37421884D01*
X55394250Y-37421882D01*
X55288118Y-37315750D01*
X55204724Y-37190942D01*
X55154197Y-37068958D01*
X55147283Y-37052267D01*
X55118000Y-36905050D01*
X55118000Y-36754950D01*
X55147283Y-36607733D01*
X55204724Y-36469058D01*
X55288116Y-36344253D01*
X55288118Y-36344250D01*
X55394250Y-36238118D01*
X55519058Y-36154724D01*
X55657733Y-36097283D01*
X55706805Y-36087522D01*
X55804948Y-36068000D01*
X55955052Y-36068000D01*
X56053195Y-36087522D01*
X56053195Y-36087522D01*
G37*
G36*
X58593195Y-36087522D02*
X58642267Y-36097283D01*
X58780942Y-36154724D01*
X58905750Y-36238118D01*
X59011882Y-36344250D01*
X59011884Y-36344253D01*
X59095276Y-36469058D01*
X59152717Y-36607733D01*
X59182000Y-36754950D01*
X59182000Y-36905050D01*
X59152717Y-37052267D01*
X59145803Y-37068958D01*
X59095276Y-37190942D01*
X59011882Y-37315750D01*
X58905750Y-37421882D01*
X58905747Y-37421884D01*
X58780942Y-37505276D01*
X58642267Y-37562717D01*
X58593195Y-37572478D01*
X58495052Y-37592000D01*
X58344948Y-37592000D01*
X58246805Y-37572478D01*
X58197733Y-37562717D01*
X58059058Y-37505276D01*
X57934253Y-37421884D01*
X57934250Y-37421882D01*
X57828118Y-37315750D01*
X57744724Y-37190942D01*
X57694197Y-37068958D01*
X57687283Y-37052267D01*
X57658000Y-36905050D01*
X57658000Y-36754950D01*
X57687283Y-36607733D01*
X57744724Y-36469058D01*
X57828116Y-36344253D01*
X57828118Y-36344250D01*
X57934250Y-36238118D01*
X58059058Y-36154724D01*
X58197733Y-36097283D01*
X58246805Y-36087522D01*
X58344948Y-36068000D01*
X58495052Y-36068000D01*
X58593195Y-36087522D01*
X58593195Y-36087522D01*
G37*
G36*
X61133195Y-36087522D02*
X61182267Y-36097283D01*
X61320942Y-36154724D01*
X61445750Y-36238118D01*
X61551882Y-36344250D01*
X61551884Y-36344253D01*
X61635276Y-36469058D01*
X61692717Y-36607733D01*
X61722000Y-36754950D01*
X61722000Y-36905050D01*
X61692717Y-37052267D01*
X61685803Y-37068958D01*
X61635276Y-37190942D01*
X61551882Y-37315750D01*
X61445750Y-37421882D01*
X61445747Y-37421884D01*
X61320942Y-37505276D01*
X61182267Y-37562717D01*
X61133195Y-37572478D01*
X61035052Y-37592000D01*
X60884948Y-37592000D01*
X60786805Y-37572478D01*
X60737733Y-37562717D01*
X60599058Y-37505276D01*
X60474253Y-37421884D01*
X60474250Y-37421882D01*
X60368118Y-37315750D01*
X60284724Y-37190942D01*
X60234197Y-37068958D01*
X60227283Y-37052267D01*
X60198000Y-36905050D01*
X60198000Y-36754950D01*
X60227283Y-36607733D01*
X60284724Y-36469058D01*
X60368116Y-36344253D01*
X60368118Y-36344250D01*
X60474250Y-36238118D01*
X60599058Y-36154724D01*
X60737733Y-36097283D01*
X60786805Y-36087522D01*
X60884948Y-36068000D01*
X61035052Y-36068000D01*
X61133195Y-36087522D01*
X61133195Y-36087522D01*
G37*
G36*
X91613195Y-36087522D02*
X91662267Y-36097283D01*
X91800942Y-36154724D01*
X91925750Y-36238118D01*
X92031882Y-36344250D01*
X92031884Y-36344253D01*
X92115276Y-36469058D01*
X92172717Y-36607733D01*
X92202000Y-36754950D01*
X92202000Y-36905050D01*
X92172717Y-37052267D01*
X92165803Y-37068958D01*
X92115276Y-37190942D01*
X92031882Y-37315750D01*
X91925750Y-37421882D01*
X91925747Y-37421884D01*
X91800942Y-37505276D01*
X91662267Y-37562717D01*
X91613195Y-37572478D01*
X91515052Y-37592000D01*
X91364948Y-37592000D01*
X91266805Y-37572478D01*
X91217733Y-37562717D01*
X91079058Y-37505276D01*
X90954253Y-37421884D01*
X90954250Y-37421882D01*
X90848118Y-37315750D01*
X90764724Y-37190942D01*
X90714197Y-37068958D01*
X90707283Y-37052267D01*
X90678000Y-36905050D01*
X90678000Y-36754950D01*
X90707283Y-36607733D01*
X90764724Y-36469058D01*
X90848116Y-36344253D01*
X90848118Y-36344250D01*
X90954250Y-36238118D01*
X91079058Y-36154724D01*
X91217733Y-36097283D01*
X91266805Y-36087522D01*
X91364948Y-36068000D01*
X91515052Y-36068000D01*
X91613195Y-36087522D01*
X91613195Y-36087522D01*
G37*
G36*
X121670912Y-28384503D02*
X122307872Y-28648340D01*
X122881120Y-29031372D01*
X123368628Y-29518880D01*
X123751660Y-30092128D01*
X124015497Y-30729088D01*
X124150000Y-31405280D01*
X124150000Y-32094720D01*
X124015497Y-32770912D01*
X123751660Y-33407872D01*
X123368628Y-33981120D01*
X122881120Y-34468628D01*
X122307872Y-34851660D01*
X121670912Y-35115497D01*
X120994721Y-35250000D01*
X120305279Y-35250000D01*
X119629088Y-35115497D01*
X118992128Y-34851660D01*
X118418880Y-34468628D01*
X117931372Y-33981120D01*
X117548340Y-33407872D01*
X117284503Y-32770912D01*
X117150000Y-32094720D01*
X117150000Y-31405280D01*
X117284503Y-30729088D01*
X117548340Y-30092128D01*
X117931372Y-29518880D01*
X118418880Y-29031372D01*
X118992128Y-28648340D01*
X119629088Y-28384503D01*
X120305279Y-28250000D01*
X120994721Y-28250000D01*
X121670912Y-28384503D01*
X121670912Y-28384503D01*
G37*
G36*
X32770912Y-28384503D02*
X33407872Y-28648340D01*
X33981120Y-29031372D01*
X34468628Y-29518880D01*
X34851660Y-30092128D01*
X35115497Y-30729088D01*
X35250000Y-31405280D01*
X35250000Y-32094720D01*
X35115497Y-32770912D01*
X34851660Y-33407872D01*
X34468628Y-33981120D01*
X33981120Y-34468628D01*
X33407872Y-34851660D01*
X32770912Y-35115497D01*
X32094721Y-35250000D01*
X31405279Y-35250000D01*
X30729088Y-35115497D01*
X30092128Y-34851660D01*
X29518880Y-34468628D01*
X29031372Y-33981120D01*
X28648340Y-33407872D01*
X28384503Y-32770912D01*
X28250000Y-32094720D01*
X28250000Y-31405280D01*
X28384503Y-30729088D01*
X28648340Y-30092128D01*
X29031372Y-29518880D01*
X29518880Y-29031372D01*
X30092128Y-28648340D01*
X30729088Y-28384503D01*
X31405279Y-28250000D01*
X32094721Y-28250000D01*
X32770912Y-28384503D01*
X32770912Y-28384503D01*
G37*
G36*
X106853195Y-33547522D02*
X106902267Y-33557283D01*
X107040942Y-33614724D01*
X107165750Y-33698118D01*
X107271882Y-33804250D01*
X107355276Y-33929058D01*
X107412717Y-34067734D01*
X107442000Y-34214948D01*
X107442000Y-34365052D01*
X107412717Y-34512266D01*
X107355276Y-34650942D01*
X107271882Y-34775750D01*
X107165750Y-34881882D01*
X107165747Y-34881884D01*
X107040942Y-34965276D01*
X106902267Y-35022717D01*
X106853195Y-35032478D01*
X106755052Y-35052000D01*
X106604948Y-35052000D01*
X106506805Y-35032478D01*
X106457733Y-35022717D01*
X106319058Y-34965276D01*
X106194253Y-34881884D01*
X106194250Y-34881882D01*
X106088118Y-34775750D01*
X106004724Y-34650942D01*
X105947283Y-34512266D01*
X105918000Y-34365052D01*
X105918000Y-34214948D01*
X105947283Y-34067734D01*
X106004724Y-33929058D01*
X106088118Y-33804250D01*
X106194250Y-33698118D01*
X106319058Y-33614724D01*
X106457733Y-33557283D01*
X106506805Y-33547522D01*
X106604948Y-33528000D01*
X106755052Y-33528000D01*
X106853195Y-33547522D01*
X106853195Y-33547522D01*
G37*
G36*
X78913195Y-33547522D02*
X78962267Y-33557283D01*
X79100942Y-33614724D01*
X79225750Y-33698118D01*
X79331882Y-33804250D01*
X79415276Y-33929058D01*
X79472717Y-34067734D01*
X79502000Y-34214948D01*
X79502000Y-34365052D01*
X79472717Y-34512266D01*
X79415276Y-34650942D01*
X79331882Y-34775750D01*
X79225750Y-34881882D01*
X79225747Y-34881884D01*
X79100942Y-34965276D01*
X78962267Y-35022717D01*
X78913195Y-35032478D01*
X78815052Y-35052000D01*
X78664948Y-35052000D01*
X78566805Y-35032478D01*
X78517733Y-35022717D01*
X78379058Y-34965276D01*
X78254253Y-34881884D01*
X78254250Y-34881882D01*
X78148118Y-34775750D01*
X78064724Y-34650942D01*
X78007283Y-34512266D01*
X77978000Y-34365052D01*
X77978000Y-34214948D01*
X78007283Y-34067734D01*
X78064724Y-33929058D01*
X78148118Y-33804250D01*
X78254250Y-33698118D01*
X78379058Y-33614724D01*
X78517733Y-33557283D01*
X78566805Y-33547522D01*
X78664948Y-33528000D01*
X78815052Y-33528000D01*
X78913195Y-33547522D01*
X78913195Y-33547522D01*
G37*
G36*
X81453195Y-33547522D02*
X81502267Y-33557283D01*
X81640942Y-33614724D01*
X81765750Y-33698118D01*
X81871882Y-33804250D01*
X81955276Y-33929058D01*
X82012717Y-34067734D01*
X82042000Y-34214948D01*
X82042000Y-34365052D01*
X82012717Y-34512266D01*
X81955276Y-34650942D01*
X81871882Y-34775750D01*
X81765750Y-34881882D01*
X81765747Y-34881884D01*
X81640942Y-34965276D01*
X81502267Y-35022717D01*
X81453195Y-35032478D01*
X81355052Y-35052000D01*
X81204948Y-35052000D01*
X81106805Y-35032478D01*
X81057733Y-35022717D01*
X80919058Y-34965276D01*
X80794253Y-34881884D01*
X80794250Y-34881882D01*
X80688118Y-34775750D01*
X80604724Y-34650942D01*
X80547283Y-34512266D01*
X80518000Y-34365052D01*
X80518000Y-34214948D01*
X80547283Y-34067734D01*
X80604724Y-33929058D01*
X80688118Y-33804250D01*
X80794250Y-33698118D01*
X80919058Y-33614724D01*
X81057733Y-33557283D01*
X81106805Y-33547522D01*
X81204948Y-33528000D01*
X81355052Y-33528000D01*
X81453195Y-33547522D01*
X81453195Y-33547522D01*
G37*
G36*
X61133195Y-33547522D02*
X61182267Y-33557283D01*
X61320942Y-33614724D01*
X61445750Y-33698118D01*
X61551882Y-33804250D01*
X61635276Y-33929058D01*
X61692717Y-34067734D01*
X61722000Y-34214948D01*
X61722000Y-34365052D01*
X61692717Y-34512266D01*
X61635276Y-34650942D01*
X61551882Y-34775750D01*
X61445750Y-34881882D01*
X61445747Y-34881884D01*
X61320942Y-34965276D01*
X61182267Y-35022717D01*
X61133195Y-35032478D01*
X61035052Y-35052000D01*
X60884948Y-35052000D01*
X60786805Y-35032478D01*
X60737733Y-35022717D01*
X60599058Y-34965276D01*
X60474253Y-34881884D01*
X60474250Y-34881882D01*
X60368118Y-34775750D01*
X60284724Y-34650942D01*
X60227283Y-34512266D01*
X60198000Y-34365052D01*
X60198000Y-34214948D01*
X60227283Y-34067734D01*
X60284724Y-33929058D01*
X60368118Y-33804250D01*
X60474250Y-33698118D01*
X60599058Y-33614724D01*
X60737733Y-33557283D01*
X60786805Y-33547522D01*
X60884948Y-33528000D01*
X61035052Y-33528000D01*
X61133195Y-33547522D01*
X61133195Y-33547522D01*
G37*
G36*
X83993195Y-33547522D02*
X84042267Y-33557283D01*
X84180942Y-33614724D01*
X84305750Y-33698118D01*
X84411882Y-33804250D01*
X84495276Y-33929058D01*
X84552717Y-34067734D01*
X84582000Y-34214948D01*
X84582000Y-34365052D01*
X84552717Y-34512266D01*
X84495276Y-34650942D01*
X84411882Y-34775750D01*
X84305750Y-34881882D01*
X84305747Y-34881884D01*
X84180942Y-34965276D01*
X84042267Y-35022717D01*
X83993195Y-35032478D01*
X83895052Y-35052000D01*
X83744948Y-35052000D01*
X83646805Y-35032478D01*
X83597733Y-35022717D01*
X83459058Y-34965276D01*
X83334253Y-34881884D01*
X83334250Y-34881882D01*
X83228118Y-34775750D01*
X83144724Y-34650942D01*
X83087283Y-34512266D01*
X83058000Y-34365052D01*
X83058000Y-34214948D01*
X83087283Y-34067734D01*
X83144724Y-33929058D01*
X83228118Y-33804250D01*
X83334250Y-33698118D01*
X83459058Y-33614724D01*
X83597733Y-33557283D01*
X83646805Y-33547522D01*
X83744948Y-33528000D01*
X83895052Y-33528000D01*
X83993195Y-33547522D01*
X83993195Y-33547522D01*
G37*
G36*
X86533195Y-33547522D02*
X86582267Y-33557283D01*
X86720942Y-33614724D01*
X86845750Y-33698118D01*
X86951882Y-33804250D01*
X87035276Y-33929058D01*
X87092717Y-34067734D01*
X87122000Y-34214948D01*
X87122000Y-34365052D01*
X87092717Y-34512266D01*
X87035276Y-34650942D01*
X86951882Y-34775750D01*
X86845750Y-34881882D01*
X86845747Y-34881884D01*
X86720942Y-34965276D01*
X86582267Y-35022717D01*
X86533195Y-35032478D01*
X86435052Y-35052000D01*
X86284948Y-35052000D01*
X86186805Y-35032478D01*
X86137733Y-35022717D01*
X85999058Y-34965276D01*
X85874253Y-34881884D01*
X85874250Y-34881882D01*
X85768118Y-34775750D01*
X85684724Y-34650942D01*
X85627283Y-34512266D01*
X85598000Y-34365052D01*
X85598000Y-34214948D01*
X85627283Y-34067734D01*
X85684724Y-33929058D01*
X85768118Y-33804250D01*
X85874250Y-33698118D01*
X85999058Y-33614724D01*
X86137733Y-33557283D01*
X86186805Y-33547522D01*
X86284948Y-33528000D01*
X86435052Y-33528000D01*
X86533195Y-33547522D01*
X86533195Y-33547522D01*
G37*
G36*
X89073195Y-33547522D02*
X89122267Y-33557283D01*
X89260942Y-33614724D01*
X89385750Y-33698118D01*
X89491882Y-33804250D01*
X89575276Y-33929058D01*
X89632717Y-34067734D01*
X89662000Y-34214948D01*
X89662000Y-34365052D01*
X89632717Y-34512266D01*
X89575276Y-34650942D01*
X89491882Y-34775750D01*
X89385750Y-34881882D01*
X89385747Y-34881884D01*
X89260942Y-34965276D01*
X89122267Y-35022717D01*
X89073195Y-35032478D01*
X88975052Y-35052000D01*
X88824948Y-35052000D01*
X88726805Y-35032478D01*
X88677733Y-35022717D01*
X88539058Y-34965276D01*
X88414253Y-34881884D01*
X88414250Y-34881882D01*
X88308118Y-34775750D01*
X88224724Y-34650942D01*
X88167283Y-34512266D01*
X88138000Y-34365052D01*
X88138000Y-34214948D01*
X88167283Y-34067734D01*
X88224724Y-33929058D01*
X88308118Y-33804250D01*
X88414250Y-33698118D01*
X88539058Y-33614724D01*
X88677733Y-33557283D01*
X88726805Y-33547522D01*
X88824948Y-33528000D01*
X88975052Y-33528000D01*
X89073195Y-33547522D01*
X89073195Y-33547522D01*
G37*
G36*
X58593195Y-33547522D02*
X58642267Y-33557283D01*
X58780942Y-33614724D01*
X58905750Y-33698118D01*
X59011882Y-33804250D01*
X59095276Y-33929058D01*
X59152717Y-34067734D01*
X59182000Y-34214948D01*
X59182000Y-34365052D01*
X59152717Y-34512266D01*
X59095276Y-34650942D01*
X59011882Y-34775750D01*
X58905750Y-34881882D01*
X58905747Y-34881884D01*
X58780942Y-34965276D01*
X58642267Y-35022717D01*
X58593195Y-35032478D01*
X58495052Y-35052000D01*
X58344948Y-35052000D01*
X58246805Y-35032478D01*
X58197733Y-35022717D01*
X58059058Y-34965276D01*
X57934253Y-34881884D01*
X57934250Y-34881882D01*
X57828118Y-34775750D01*
X57744724Y-34650942D01*
X57687283Y-34512266D01*
X57658000Y-34365052D01*
X57658000Y-34214948D01*
X57687283Y-34067734D01*
X57744724Y-33929058D01*
X57828118Y-33804250D01*
X57934250Y-33698118D01*
X58059058Y-33614724D01*
X58197733Y-33557283D01*
X58246805Y-33547522D01*
X58344948Y-33528000D01*
X58495052Y-33528000D01*
X58593195Y-33547522D01*
X58593195Y-33547522D01*
G37*
G36*
X91613195Y-33547522D02*
X91662267Y-33557283D01*
X91800942Y-33614724D01*
X91925750Y-33698118D01*
X92031882Y-33804250D01*
X92115276Y-33929058D01*
X92172717Y-34067734D01*
X92202000Y-34214948D01*
X92202000Y-34365052D01*
X92172717Y-34512266D01*
X92115276Y-34650942D01*
X92031882Y-34775750D01*
X91925750Y-34881882D01*
X91925747Y-34881884D01*
X91800942Y-34965276D01*
X91662267Y-35022717D01*
X91613195Y-35032478D01*
X91515052Y-35052000D01*
X91364948Y-35052000D01*
X91266805Y-35032478D01*
X91217733Y-35022717D01*
X91079058Y-34965276D01*
X90954253Y-34881884D01*
X90954250Y-34881882D01*
X90848118Y-34775750D01*
X90764724Y-34650942D01*
X90707283Y-34512266D01*
X90678000Y-34365052D01*
X90678000Y-34214948D01*
X90707283Y-34067734D01*
X90764724Y-33929058D01*
X90848118Y-33804250D01*
X90954250Y-33698118D01*
X91079058Y-33614724D01*
X91217733Y-33557283D01*
X91266805Y-33547522D01*
X91364948Y-33528000D01*
X91515052Y-33528000D01*
X91613195Y-33547522D01*
X91613195Y-33547522D01*
G37*
G36*
X66213195Y-33547522D02*
X66262267Y-33557283D01*
X66400942Y-33614724D01*
X66525750Y-33698118D01*
X66631882Y-33804250D01*
X66715276Y-33929058D01*
X66772717Y-34067734D01*
X66802000Y-34214948D01*
X66802000Y-34365052D01*
X66772717Y-34512266D01*
X66715276Y-34650942D01*
X66631882Y-34775750D01*
X66525750Y-34881882D01*
X66525747Y-34881884D01*
X66400942Y-34965276D01*
X66262267Y-35022717D01*
X66213195Y-35032478D01*
X66115052Y-35052000D01*
X65964948Y-35052000D01*
X65866805Y-35032478D01*
X65817733Y-35022717D01*
X65679058Y-34965276D01*
X65554253Y-34881884D01*
X65554250Y-34881882D01*
X65448118Y-34775750D01*
X65364724Y-34650942D01*
X65307283Y-34512266D01*
X65278000Y-34365052D01*
X65278000Y-34214948D01*
X65307283Y-34067734D01*
X65364724Y-33929058D01*
X65448118Y-33804250D01*
X65554250Y-33698118D01*
X65679058Y-33614724D01*
X65817733Y-33557283D01*
X65866805Y-33547522D01*
X65964948Y-33528000D01*
X66115052Y-33528000D01*
X66213195Y-33547522D01*
X66213195Y-33547522D01*
G37*
G36*
X73833195Y-33547522D02*
X73882267Y-33557283D01*
X74020942Y-33614724D01*
X74145750Y-33698118D01*
X74251882Y-33804250D01*
X74335276Y-33929058D01*
X74392717Y-34067734D01*
X74422000Y-34214948D01*
X74422000Y-34365052D01*
X74392717Y-34512266D01*
X74335276Y-34650942D01*
X74251882Y-34775750D01*
X74145750Y-34881882D01*
X74145747Y-34881884D01*
X74020942Y-34965276D01*
X73882267Y-35022717D01*
X73833195Y-35032478D01*
X73735052Y-35052000D01*
X73584948Y-35052000D01*
X73486805Y-35032478D01*
X73437733Y-35022717D01*
X73299058Y-34965276D01*
X73174253Y-34881884D01*
X73174250Y-34881882D01*
X73068118Y-34775750D01*
X72984724Y-34650942D01*
X72927283Y-34512266D01*
X72898000Y-34365052D01*
X72898000Y-34214948D01*
X72927283Y-34067734D01*
X72984724Y-33929058D01*
X73068118Y-33804250D01*
X73174250Y-33698118D01*
X73299058Y-33614724D01*
X73437733Y-33557283D01*
X73486805Y-33547522D01*
X73584948Y-33528000D01*
X73735052Y-33528000D01*
X73833195Y-33547522D01*
X73833195Y-33547522D01*
G37*
G36*
X56053195Y-33547522D02*
X56102267Y-33557283D01*
X56240942Y-33614724D01*
X56365750Y-33698118D01*
X56471882Y-33804250D01*
X56555276Y-33929058D01*
X56612717Y-34067734D01*
X56642000Y-34214948D01*
X56642000Y-34365052D01*
X56612717Y-34512266D01*
X56555276Y-34650942D01*
X56471882Y-34775750D01*
X56365750Y-34881882D01*
X56365747Y-34881884D01*
X56240942Y-34965276D01*
X56102267Y-35022717D01*
X56053195Y-35032478D01*
X55955052Y-35052000D01*
X55804948Y-35052000D01*
X55706805Y-35032478D01*
X55657733Y-35022717D01*
X55519058Y-34965276D01*
X55394253Y-34881884D01*
X55394250Y-34881882D01*
X55288118Y-34775750D01*
X55204724Y-34650942D01*
X55147283Y-34512266D01*
X55118000Y-34365052D01*
X55118000Y-34214948D01*
X55147283Y-34067734D01*
X55204724Y-33929058D01*
X55288118Y-33804250D01*
X55394250Y-33698118D01*
X55519058Y-33614724D01*
X55657733Y-33557283D01*
X55706805Y-33547522D01*
X55804948Y-33528000D01*
X55955052Y-33528000D01*
X56053195Y-33547522D01*
X56053195Y-33547522D01*
G37*
G36*
X53513195Y-33547522D02*
X53562267Y-33557283D01*
X53700942Y-33614724D01*
X53825750Y-33698118D01*
X53931882Y-33804250D01*
X54015276Y-33929058D01*
X54072717Y-34067734D01*
X54102000Y-34214948D01*
X54102000Y-34365052D01*
X54072717Y-34512266D01*
X54015276Y-34650942D01*
X53931882Y-34775750D01*
X53825750Y-34881882D01*
X53825747Y-34881884D01*
X53700942Y-34965276D01*
X53562267Y-35022717D01*
X53513195Y-35032478D01*
X53415052Y-35052000D01*
X53264948Y-35052000D01*
X53166805Y-35032478D01*
X53117733Y-35022717D01*
X52979058Y-34965276D01*
X52854253Y-34881884D01*
X52854250Y-34881882D01*
X52748118Y-34775750D01*
X52664724Y-34650942D01*
X52607283Y-34512266D01*
X52578000Y-34365052D01*
X52578000Y-34214948D01*
X52607283Y-34067734D01*
X52664724Y-33929058D01*
X52748118Y-33804250D01*
X52854250Y-33698118D01*
X52979058Y-33614724D01*
X53117733Y-33557283D01*
X53166805Y-33547522D01*
X53264948Y-33528000D01*
X53415052Y-33528000D01*
X53513195Y-33547522D01*
X53513195Y-33547522D01*
G37*
G36*
X96693195Y-33547522D02*
X96742267Y-33557283D01*
X96880942Y-33614724D01*
X97005750Y-33698118D01*
X97111882Y-33804250D01*
X97195276Y-33929058D01*
X97252717Y-34067734D01*
X97282000Y-34214948D01*
X97282000Y-34365052D01*
X97252717Y-34512266D01*
X97195276Y-34650942D01*
X97111882Y-34775750D01*
X97005750Y-34881882D01*
X97005747Y-34881884D01*
X96880942Y-34965276D01*
X96742267Y-35022717D01*
X96693195Y-35032478D01*
X96595052Y-35052000D01*
X96444948Y-35052000D01*
X96346805Y-35032478D01*
X96297733Y-35022717D01*
X96159058Y-34965276D01*
X96034253Y-34881884D01*
X96034250Y-34881882D01*
X95928118Y-34775750D01*
X95844724Y-34650942D01*
X95787283Y-34512266D01*
X95758000Y-34365052D01*
X95758000Y-34214948D01*
X95787283Y-34067734D01*
X95844724Y-33929058D01*
X95928118Y-33804250D01*
X96034250Y-33698118D01*
X96159058Y-33614724D01*
X96297733Y-33557283D01*
X96346805Y-33547522D01*
X96444948Y-33528000D01*
X96595052Y-33528000D01*
X96693195Y-33547522D01*
X96693195Y-33547522D01*
G37*
G36*
X71293195Y-33547522D02*
X71342267Y-33557283D01*
X71480942Y-33614724D01*
X71605750Y-33698118D01*
X71711882Y-33804250D01*
X71795276Y-33929058D01*
X71852717Y-34067734D01*
X71882000Y-34214948D01*
X71882000Y-34365052D01*
X71852717Y-34512266D01*
X71795276Y-34650942D01*
X71711882Y-34775750D01*
X71605750Y-34881882D01*
X71605747Y-34881884D01*
X71480942Y-34965276D01*
X71342267Y-35022717D01*
X71293195Y-35032478D01*
X71195052Y-35052000D01*
X71044948Y-35052000D01*
X70946805Y-35032478D01*
X70897733Y-35022717D01*
X70759058Y-34965276D01*
X70634253Y-34881884D01*
X70634250Y-34881882D01*
X70528118Y-34775750D01*
X70444724Y-34650942D01*
X70387283Y-34512266D01*
X70358000Y-34365052D01*
X70358000Y-34214948D01*
X70387283Y-34067734D01*
X70444724Y-33929058D01*
X70528118Y-33804250D01*
X70634250Y-33698118D01*
X70759058Y-33614724D01*
X70897733Y-33557283D01*
X70946805Y-33547522D01*
X71044948Y-33528000D01*
X71195052Y-33528000D01*
X71293195Y-33547522D01*
X71293195Y-33547522D01*
G37*
G36*
X99233195Y-33547522D02*
X99282267Y-33557283D01*
X99420942Y-33614724D01*
X99545750Y-33698118D01*
X99651882Y-33804250D01*
X99735276Y-33929058D01*
X99792717Y-34067734D01*
X99822000Y-34214948D01*
X99822000Y-34365052D01*
X99792717Y-34512266D01*
X99735276Y-34650942D01*
X99651882Y-34775750D01*
X99545750Y-34881882D01*
X99545747Y-34881884D01*
X99420942Y-34965276D01*
X99282267Y-35022717D01*
X99233195Y-35032478D01*
X99135052Y-35052000D01*
X98984948Y-35052000D01*
X98886805Y-35032478D01*
X98837733Y-35022717D01*
X98699058Y-34965276D01*
X98574253Y-34881884D01*
X98574250Y-34881882D01*
X98468118Y-34775750D01*
X98384724Y-34650942D01*
X98327283Y-34512266D01*
X98298000Y-34365052D01*
X98298000Y-34214948D01*
X98327283Y-34067734D01*
X98384724Y-33929058D01*
X98468118Y-33804250D01*
X98574250Y-33698118D01*
X98699058Y-33614724D01*
X98837733Y-33557283D01*
X98886805Y-33547522D01*
X98984948Y-33528000D01*
X99135052Y-33528000D01*
X99233195Y-33547522D01*
X99233195Y-33547522D01*
G37*
G36*
X50973195Y-33547522D02*
X51022267Y-33557283D01*
X51160942Y-33614724D01*
X51285750Y-33698118D01*
X51391882Y-33804250D01*
X51475276Y-33929058D01*
X51532717Y-34067734D01*
X51562000Y-34214948D01*
X51562000Y-34365052D01*
X51532717Y-34512266D01*
X51475276Y-34650942D01*
X51391882Y-34775750D01*
X51285750Y-34881882D01*
X51285747Y-34881884D01*
X51160942Y-34965276D01*
X51022267Y-35022717D01*
X50973195Y-35032478D01*
X50875052Y-35052000D01*
X50724948Y-35052000D01*
X50626805Y-35032478D01*
X50577733Y-35022717D01*
X50439058Y-34965276D01*
X50314253Y-34881884D01*
X50314250Y-34881882D01*
X50208118Y-34775750D01*
X50124724Y-34650942D01*
X50067283Y-34512266D01*
X50038000Y-34365052D01*
X50038000Y-34214948D01*
X50067283Y-34067734D01*
X50124724Y-33929058D01*
X50208118Y-33804250D01*
X50314250Y-33698118D01*
X50439058Y-33614724D01*
X50577733Y-33557283D01*
X50626805Y-33547522D01*
X50724948Y-33528000D01*
X50875052Y-33528000D01*
X50973195Y-33547522D01*
X50973195Y-33547522D01*
G37*
G36*
X101773195Y-33547522D02*
X101822267Y-33557283D01*
X101960942Y-33614724D01*
X102085750Y-33698118D01*
X102191882Y-33804250D01*
X102275276Y-33929058D01*
X102332717Y-34067734D01*
X102362000Y-34214948D01*
X102362000Y-34365052D01*
X102332717Y-34512266D01*
X102275276Y-34650942D01*
X102191882Y-34775750D01*
X102085750Y-34881882D01*
X102085747Y-34881884D01*
X101960942Y-34965276D01*
X101822267Y-35022717D01*
X101773195Y-35032478D01*
X101675052Y-35052000D01*
X101524948Y-35052000D01*
X101426805Y-35032478D01*
X101377733Y-35022717D01*
X101239058Y-34965276D01*
X101114253Y-34881884D01*
X101114250Y-34881882D01*
X101008118Y-34775750D01*
X100924724Y-34650942D01*
X100867283Y-34512266D01*
X100838000Y-34365052D01*
X100838000Y-34214948D01*
X100867283Y-34067734D01*
X100924724Y-33929058D01*
X101008118Y-33804250D01*
X101114250Y-33698118D01*
X101239058Y-33614724D01*
X101377733Y-33557283D01*
X101426805Y-33547522D01*
X101524948Y-33528000D01*
X101675052Y-33528000D01*
X101773195Y-33547522D01*
X101773195Y-33547522D01*
G37*
G36*
X48433195Y-33547522D02*
X48482267Y-33557283D01*
X48620942Y-33614724D01*
X48745750Y-33698118D01*
X48851882Y-33804250D01*
X48935276Y-33929058D01*
X48992717Y-34067734D01*
X49022000Y-34214948D01*
X49022000Y-34365052D01*
X48992717Y-34512266D01*
X48935276Y-34650942D01*
X48851882Y-34775750D01*
X48745750Y-34881882D01*
X48745747Y-34881884D01*
X48620942Y-34965276D01*
X48482267Y-35022717D01*
X48433195Y-35032478D01*
X48335052Y-35052000D01*
X48184948Y-35052000D01*
X48086805Y-35032478D01*
X48037733Y-35022717D01*
X47899058Y-34965276D01*
X47774253Y-34881884D01*
X47774250Y-34881882D01*
X47668118Y-34775750D01*
X47584724Y-34650942D01*
X47527283Y-34512266D01*
X47498000Y-34365052D01*
X47498000Y-34214948D01*
X47527283Y-34067734D01*
X47584724Y-33929058D01*
X47668118Y-33804250D01*
X47774250Y-33698118D01*
X47899058Y-33614724D01*
X48037733Y-33557283D01*
X48086805Y-33547522D01*
X48184948Y-33528000D01*
X48335052Y-33528000D01*
X48433195Y-33547522D01*
X48433195Y-33547522D01*
G37*
G36*
X104313195Y-33547522D02*
X104362267Y-33557283D01*
X104500942Y-33614724D01*
X104625750Y-33698118D01*
X104731882Y-33804250D01*
X104815276Y-33929058D01*
X104872717Y-34067734D01*
X104902000Y-34214948D01*
X104902000Y-34365052D01*
X104872717Y-34512266D01*
X104815276Y-34650942D01*
X104731882Y-34775750D01*
X104625750Y-34881882D01*
X104625747Y-34881884D01*
X104500942Y-34965276D01*
X104362267Y-35022717D01*
X104313195Y-35032478D01*
X104215052Y-35052000D01*
X104064948Y-35052000D01*
X103966805Y-35032478D01*
X103917733Y-35022717D01*
X103779058Y-34965276D01*
X103654253Y-34881884D01*
X103654250Y-34881882D01*
X103548118Y-34775750D01*
X103464724Y-34650942D01*
X103407283Y-34512266D01*
X103378000Y-34365052D01*
X103378000Y-34214948D01*
X103407283Y-34067734D01*
X103464724Y-33929058D01*
X103548118Y-33804250D01*
X103654250Y-33698118D01*
X103779058Y-33614724D01*
X103917733Y-33557283D01*
X103966805Y-33547522D01*
X104064948Y-33528000D01*
X104215052Y-33528000D01*
X104313195Y-33547522D01*
X104313195Y-33547522D01*
G37*
G36*
X76373195Y-33547522D02*
X76422267Y-33557283D01*
X76560942Y-33614724D01*
X76685750Y-33698118D01*
X76791882Y-33804250D01*
X76875276Y-33929058D01*
X76932717Y-34067734D01*
X76962000Y-34214948D01*
X76962000Y-34365052D01*
X76932717Y-34512266D01*
X76875276Y-34650942D01*
X76791882Y-34775750D01*
X76685750Y-34881882D01*
X76685747Y-34881884D01*
X76560942Y-34965276D01*
X76422267Y-35022717D01*
X76373195Y-35032478D01*
X76275052Y-35052000D01*
X76124948Y-35052000D01*
X76026805Y-35032478D01*
X75977733Y-35022717D01*
X75839058Y-34965276D01*
X75714253Y-34881884D01*
X75714250Y-34881882D01*
X75608118Y-34775750D01*
X75524724Y-34650942D01*
X75467283Y-34512266D01*
X75438000Y-34365052D01*
X75438000Y-34214948D01*
X75467283Y-34067734D01*
X75524724Y-33929058D01*
X75608118Y-33804250D01*
X75714250Y-33698118D01*
X75839058Y-33614724D01*
X75977733Y-33557283D01*
X76026805Y-33547522D01*
X76124948Y-33528000D01*
X76275052Y-33528000D01*
X76373195Y-33547522D01*
X76373195Y-33547522D01*
G37*
G36*
X45893195Y-33547522D02*
X45942267Y-33557283D01*
X46080942Y-33614724D01*
X46205750Y-33698118D01*
X46311882Y-33804250D01*
X46395276Y-33929058D01*
X46452717Y-34067734D01*
X46482000Y-34214948D01*
X46482000Y-34365052D01*
X46452717Y-34512266D01*
X46395276Y-34650942D01*
X46311882Y-34775750D01*
X46205750Y-34881882D01*
X46205747Y-34881884D01*
X46080942Y-34965276D01*
X45942267Y-35022717D01*
X45893195Y-35032478D01*
X45795052Y-35052000D01*
X45644948Y-35052000D01*
X45546805Y-35032478D01*
X45497733Y-35022717D01*
X45359058Y-34965276D01*
X45234253Y-34881884D01*
X45234250Y-34881882D01*
X45128118Y-34775750D01*
X45044724Y-34650942D01*
X44987283Y-34512266D01*
X44958000Y-34365052D01*
X44958000Y-34214948D01*
X44987283Y-34067734D01*
X45044724Y-33929058D01*
X45128118Y-33804250D01*
X45234250Y-33698118D01*
X45359058Y-33614724D01*
X45497733Y-33557283D01*
X45546805Y-33547522D01*
X45644948Y-33528000D01*
X45795052Y-33528000D01*
X45893195Y-33547522D01*
X45893195Y-33547522D01*
G37*
G36*
X68753195Y-33547522D02*
X68802267Y-33557283D01*
X68940942Y-33614724D01*
X69065750Y-33698118D01*
X69171882Y-33804250D01*
X69255276Y-33929058D01*
X69312717Y-34067734D01*
X69342000Y-34214948D01*
X69342000Y-34365052D01*
X69312717Y-34512266D01*
X69255276Y-34650942D01*
X69171882Y-34775750D01*
X69065750Y-34881882D01*
X69065747Y-34881884D01*
X68940942Y-34965276D01*
X68802267Y-35022717D01*
X68753195Y-35032478D01*
X68655052Y-35052000D01*
X68504948Y-35052000D01*
X68406805Y-35032478D01*
X68357733Y-35022717D01*
X68219058Y-34965276D01*
X68094253Y-34881884D01*
X68094250Y-34881882D01*
X67988118Y-34775750D01*
X67904724Y-34650942D01*
X67847283Y-34512266D01*
X67818000Y-34365052D01*
X67818000Y-34214948D01*
X67847283Y-34067734D01*
X67904724Y-33929058D01*
X67988118Y-33804250D01*
X68094250Y-33698118D01*
X68219058Y-33614724D01*
X68357733Y-33557283D01*
X68406805Y-33547522D01*
X68504948Y-33528000D01*
X68655052Y-33528000D01*
X68753195Y-33547522D01*
X68753195Y-33547522D01*
G37*
G36*
X63673195Y-33547522D02*
X63722267Y-33557283D01*
X63860942Y-33614724D01*
X63985750Y-33698118D01*
X64091882Y-33804250D01*
X64175276Y-33929058D01*
X64232717Y-34067734D01*
X64262000Y-34214948D01*
X64262000Y-34365052D01*
X64232717Y-34512266D01*
X64175276Y-34650942D01*
X64091882Y-34775750D01*
X63985750Y-34881882D01*
X63985747Y-34881884D01*
X63860942Y-34965276D01*
X63722267Y-35022717D01*
X63673195Y-35032478D01*
X63575052Y-35052000D01*
X63424948Y-35052000D01*
X63326805Y-35032478D01*
X63277733Y-35022717D01*
X63139058Y-34965276D01*
X63014253Y-34881884D01*
X63014250Y-34881882D01*
X62908118Y-34775750D01*
X62824724Y-34650942D01*
X62767283Y-34512266D01*
X62738000Y-34365052D01*
X62738000Y-34214948D01*
X62767283Y-34067734D01*
X62824724Y-33929058D01*
X62908118Y-33804250D01*
X63014250Y-33698118D01*
X63139058Y-33614724D01*
X63277733Y-33557283D01*
X63326805Y-33547522D01*
X63424948Y-33528000D01*
X63575052Y-33528000D01*
X63673195Y-33547522D01*
X63673195Y-33547522D01*
G37*
G36*
X94153195Y-33547522D02*
X94202267Y-33557283D01*
X94340942Y-33614724D01*
X94465750Y-33698118D01*
X94571882Y-33804250D01*
X94655276Y-33929058D01*
X94712717Y-34067734D01*
X94742000Y-34214948D01*
X94742000Y-34365052D01*
X94712717Y-34512266D01*
X94655276Y-34650942D01*
X94571882Y-34775750D01*
X94465750Y-34881882D01*
X94465747Y-34881884D01*
X94340942Y-34965276D01*
X94202267Y-35022717D01*
X94153195Y-35032478D01*
X94055052Y-35052000D01*
X93904948Y-35052000D01*
X93806805Y-35032478D01*
X93757733Y-35022717D01*
X93619058Y-34965276D01*
X93494253Y-34881884D01*
X93494250Y-34881882D01*
X93388118Y-34775750D01*
X93304724Y-34650942D01*
X93247283Y-34512266D01*
X93218000Y-34365052D01*
X93218000Y-34214948D01*
X93247283Y-34067734D01*
X93304724Y-33929058D01*
X93388118Y-33804250D01*
X93494250Y-33698118D01*
X93619058Y-33614724D01*
X93757733Y-33557283D01*
X93806805Y-33547522D01*
X93904948Y-33528000D01*
X94055052Y-33528000D01*
X94153195Y-33547522D01*
X94153195Y-33547522D01*
G37*
M02*
