M48
;DRILL file {KiCad (5.0.1)-4} date 1/15/2019 7:27:00 PM
;FORMAT={-:-/ absolute / inch / decimal}
FMAT,2
INCH,TZ
T1C0.0669
T2C0.1260
T3C0.1260
T4C0.1280
%
G90
G05
M72
T1
X1.138Y-4.6
X1.414Y-4.6
X1.138Y-6.
X1.414Y-6.
X1.138Y-3.9
X1.414Y-3.9
X1.138Y-1.8
X1.414Y-1.8
X1.138Y-6.7
X1.414Y-6.7
X1.138Y-3.2
X1.414Y-3.2
X1.138Y-2.5
X1.414Y-2.5
X1.138Y-5.3
X1.414Y-5.3
T2
X1.25Y-7.15
X4.75Y-7.15
X1.25Y-1.25
X4.75Y-1.25
T3
X3.Y-1.7622
X3.Y-4.0378
T4
X4.8953Y-1.55
X4.8953Y-2.05
X4.8953Y-4.4
X4.8953Y-4.9
X4.8953Y-2.5
X4.8953Y-3.
X4.8953Y-3.45
X4.8953Y-3.95
T0
M30
