M48
;DRILL file {KiCad 4.0.7} date 01/11/18 09:06:55
;FORMAT={-:-/ absolute / inch / decimal}
FMAT,2
INCH,TZ
T1C0.014
T2C0.018
T3C0.030
T4C0.032
T5C0.035
T6C0.039
T7C0.040
T8C0.042
T9C0.047
T10C0.049
T11C0.053
T12C0.071
%
G90
G05
M72
T1
X1.0933Y-2.7358
X1.0933Y-4.1327
X1.0937Y-5.5295
X1.0941Y-2.0327
X1.0941Y-6.2264
X1.0945Y-3.428
X1.0949Y-6.9283
X1.0969Y-4.8299
X1.5484Y-1.7992
X1.5484Y-3.898
X1.5492Y-6.7
X1.5496Y-4.6016
X1.5496Y-5.3
X1.5508Y-2.5008
X1.5508Y-6.0004
X1.5512Y-3.1984
X1.7012Y-4.302
X1.7016Y-6.8079
X1.7024Y-2.2079
X1.7024Y-2.6087
X1.7024Y-3.6055
X1.7024Y-4.7075
X1.7024Y-5.0083
X1.7024Y-5.4087
X1.7024Y-6.1083
X1.7024Y-6.4071
X1.7028Y-2.9161
X1.7028Y-4.0051
X1.7028Y-5.7075
X1.7031Y-1.5079
X1.7031Y-1.9079
X1.7031Y-3.3079
X1.8024Y-5.6024
X1.8043Y-5.702
X1.8299Y-5.7457
X1.8343Y-5.3815
X1.8343Y-5.4555
X1.8449Y-5.2642
X1.8465Y-4.2634
X1.8465Y-4.3197
X1.8571Y-2.0465
X1.861Y-4.3705
X1.8665Y-5.1933
X1.8736Y-1.7591
X1.8776Y-4.2098
X1.8827Y-5.5665
X1.885Y-5.5197
X1.8909Y-5.7087
X1.8929Y-5.1764
X1.8976Y-4.3819
X1.9197Y-5.7276
X1.9264Y-3.6256
X1.928Y-4.3996
X1.9319Y-4.2449
X1.9327Y-4.5413
X1.9327Y-4.6303
X1.9449Y-5.2315
X1.9512Y-3.6059
X1.9539Y-5.6098
X1.9543Y-4.1181
X1.9555Y-4.028
X1.9567Y-4.2277
X1.9567Y-4.422
X1.9681Y-5.922
X1.9697Y-6.1681
X1.976Y-3.6272
X1.976Y-6.5067
X1.9815Y-4.1724
X1.9917Y-5.7394
X2.Y-3.6035
X2.0059Y-5.3539
X2.0071Y-5.6268
X2.0071Y-6.0614
X2.013Y-4.2138
X2.0268Y-3.6244
X2.0429Y-5.689
X2.0449Y-5.915
X2.0528Y-3.6031
X2.0598Y-6.1689
X2.061Y-3.8634
X2.078Y-3.624
X2.085Y-6.5882
X2.0866Y-5.7327
X2.0874Y-3.8457
X2.1031Y-3.6008
X2.1122Y-3.8638
X2.1197Y-5.7311
X2.1283Y-3.6209
X2.1398Y-3.8488
X2.1453Y-5.6165
X2.1535Y-3.5937
X2.1598Y-6.1681
X2.1681Y-3.863
X2.1783Y-3.6165
X2.1937Y-3.8461
X2.1972Y-5.4949
X2.1972Y-5.5457
X2.1988Y-5.4453
X2.2004Y-5.3961
X2.2051Y-3.5945
X2.2051Y-5.3457
X2.2098Y-6.5823
X2.2177Y-5.5209
X2.2185Y-3.8638
X2.2228Y-5.4697
X2.2244Y-5.4213
X2.2252Y-5.3713
X2.2303Y-3.6138
X2.2303Y-5.1665
X2.2394Y-5.1209
X2.2449Y-3.8449
X2.2449Y-6.9
X2.2496Y-6.1685
X2.252Y-5.8803
X2.2547Y-3.5929
X2.2571Y-5.9669
X2.2579Y-5.1496
X2.2579Y-6.3535
X2.2594Y-5.2217
X2.2642Y-5.1008
X2.2693Y-5.0213
X2.2697Y-3.8638
X2.276Y-5.7272
X2.2835Y-5.5961
X2.2843Y-5.6291
X2.289Y-4.9776
X2.2898Y-5.2236
X2.2949Y-3.8441
X2.3201Y-3.8634
X2.3252Y-6.2087
X2.3276Y-4.4894
X2.3346Y-4.2118
X2.3472Y-4.5496
X2.3476Y-3.8445
X2.3551Y-6.9496
X2.3717Y-3.863
X2.378Y-3.972
X2.3854Y-5.8839
X2.3882Y-4.1189
X2.3906Y-4.0291
X2.3949Y-5.2925
X2.3972Y-5.2488
X2.3972Y-5.5961
X2.3976Y-5.5634
X2.398Y-5.1587
X2.3992Y-5.1283
X2.4Y-5.39
X2.4098Y-6.4606
X2.41Y-5.32
X2.4106Y-6.1283
X2.4154Y-6.8728
X2.4173Y-3.9205
X2.4173Y-3.9701
X2.4303Y-4.8094
X2.4331Y-3.8091
X2.4378Y-4.6559
X2.4485Y-6.599
X2.4551Y-4.9264
X2.4772Y-4.8094
X2.4953Y-6.2075
X2.4961Y-5.587
X2.5Y-6.6
X2.5402Y-6.95
X2.5465Y-6.5975
X2.5559Y-6.0102
X2.5807Y-6.1272
X2.5835Y-5.6512
X2.5854Y-5.7701
X2.5913Y-6.0102
X2.5996Y-5.9035
X2.6087Y-5.6098
X2.626Y-6.0098
X2.6335Y-5.6283
X2.64Y-6.295
X2.6571Y-5.9051
X2.6583Y-5.6094
X2.662Y-6.32
X2.6626Y-6.0118
X2.672Y-6.274
X2.6831Y-5.6287
X2.7024Y-5.8217
X2.724Y-5.798
X2.76Y-6.435
X2.7634Y-5.6067
X2.7878Y-5.6264
X2.8118Y-5.6035
X2.8291Y-4.9492
X2.8362Y-4.5913
X2.8362Y-5.6217
X2.8425Y-6.95
X2.8441Y-4.4811
X2.8457Y-4.5425
X2.8531Y-4.9303
X2.8602Y-5.5984
X2.8606Y-4.6512
X2.88Y-5.23
X2.8846Y-5.6169
X2.894Y-5.0531
X2.894Y-5.1642
X2.9087Y-5.5969
X2.912Y-5.1305
X2.9224Y-5.7988
X2.9234Y-5.1027
X2.9335Y-5.6173
X2.9402Y-4.7906
X2.9465Y-5.0091
X2.9504Y-7.3268
X2.9579Y-5.598
X2.9614Y-4.9823
X2.9701Y-6.0701
X2.9717Y-5.0343
X2.9823Y-5.6189
X2.9882Y-4.6102
X3.0028Y-6.0744
X3.011Y-5.7988
X3.0157Y-5.0346
X3.022Y-4.4441
X3.0224Y-4.5827
X3.0224Y-6.0984
X3.0539Y-5.0303
X3.055Y-7.088
X3.0551Y-5.7972
X3.0591Y-5.6571
X3.0685Y-6.7669
X3.0715Y-6.381
X3.0732Y-7.185
X3.0917Y-5.0287
X3.0965Y-4.4567
X3.1035Y-6.212
X3.1094Y-5.8051
X3.1102Y-5.4634
X3.1185Y-5.4335
X3.122Y-5.2252
X3.1236Y-5.2555
X3.1272Y-5.3098
X3.128Y-5.3496
X3.1283Y-4.922
X3.1287Y-4.8807
X3.1287Y-5.1524
X3.1287Y-5.5799
X3.1291Y-4.602
X3.1524Y-4.6244
X3.1528Y-4.5169
X3.1543Y-4.5583
X3.1567Y-4.4866
X3.1776Y-4.6071
X3.1783Y-6.7272
X3.1787Y-4.639
X3.1902Y-4.4854
X3.22Y-7.088
X3.2232Y-4.8646
X3.2283Y-5.261
X3.23Y-4.21
X3.23Y-4.43
X3.2323Y-4.4882
X3.2335Y-5.5705
X3.2339Y-5.2126
X3.2402Y-5.502
X3.2435Y-5.601
X3.2488Y-4.8866
X3.2508Y-4.9724
X3.2598Y-4.1661
X3.2642Y-5.1783
X3.2646Y-5.2945
X3.276Y-4.8646
X3.2783Y-5.2106
X3.28Y-4.32
X3.2941Y-4.1642
X3.2984Y-5.1543
X3.3Y-4.6067
X3.3Y-4.911
X3.3004Y-6.4449
X3.324Y-4.9291
X3.326Y-7.2735
X3.3264Y-4.7846
X3.3268Y-5.0551
X3.3508Y-4.6965
X3.3528Y-5.0311
X3.3555Y-4.9331
X3.3622Y-6.1378
X3.3625Y-6.1075
X3.3625Y-6.1675
X3.3661Y-4.8197
X3.3697Y-4.4071
X3.3724Y-5.0059
X3.3772Y-4.3766
X3.3929Y-5.8748
X3.3938Y-4.3516
X3.3992Y-5.4913
X3.4008Y-4.6673
X3.4122Y-5.6602
X3.439Y-5.0602
X3.4402Y-5.165
X3.452Y-5.313
X3.4528Y-4.5807
X3.4595Y-7.2735
X3.4618Y-5.7197
X3.4875Y-6.1075
X3.4898Y-6.1378
X3.49Y-6.1675
X3.5051Y-4.787
X3.5051Y-5.1894
X3.5087Y-5.2417
X3.5654Y-5.4114
X3.57Y-4.34
X3.5756Y-6.3012
X3.5831Y-6.8929
X3.585Y-5.35
X3.585Y-5.49
X3.5913Y-5.5772
X3.5917Y-6.7827
X3.5941Y-4.6945
X3.5965Y-5.7346
X3.6012Y-5.7949
X3.6079Y-6.6567
X3.6106Y-5.0646
X3.6118Y-5.8744
X3.6244Y-4.665
X3.63Y-4.21
X3.6319Y-6.6224
X3.6409Y-4.5303
X3.6445Y-5.2555
X3.6445Y-5.6591
X3.648Y-4.5791
X3.648Y-6.6913
X3.6606Y-4.6331
X3.6705Y-4.5551
X3.6756Y-5.1402
X3.6764Y-6.4799
X3.6839Y-7.0496
X3.6937Y-5.9311
X3.7039Y-4.5028
X3.7291Y-5.0205
X3.75Y-4.39
X3.7673Y-5.9311
X3.8016Y-6.0965
X3.8835Y-6.0933
X3.9638Y-6.0953
X3.9661Y-5.987
X3.97Y-4.39
X4.05Y-6.0961
X4.0945Y-6.2291
X4.12Y-4.36
X4.1362Y-5.8949
X4.1433Y-6.0126
X4.2453Y-5.9571
X4.2945Y-1.3996
X4.3197Y-6.0933
X4.3752Y-1.6949
X4.376Y-3.5941
X4.3768Y-2.6453
X4.4098Y-6.0917
X4.4138Y-6.361
X4.4398Y-2.4843
X4.4402Y-1.5343
X4.4402Y-3.4339
X4.4402Y-4.3843
X4.4402Y-4.6047
X4.4693Y-6.5791
X4.4957Y-6.7354
X4.5154Y-1.4
X4.5213Y-6.6563
X4.5264Y-6.9488
X4.5311Y-7.0535
X4.5913Y-6.4606
X4.5921Y-6.2823
X4.6004Y-5.3098
X4.6713Y-6.3598
X4.9594Y-6.8398
X4.96Y-6.56
T2
X2.3598Y-4.4453
T3
X2.95Y-7.1579
X3.2425Y-5.7272
X4.5752Y-6.6311
X4.595Y-6.765
X4.685Y-6.63
X4.69Y-6.76
T4
X3.0516Y-7.2376
X3.2484Y-7.2376
T5
X4.7252Y-1.7004
X4.7252Y-1.7803
X4.7252Y-1.8602
X4.7252Y-1.9402
X4.7252Y-2.6504
X4.7252Y-2.7303
X4.7252Y-2.8102
X4.7252Y-2.8902
X4.7252Y-3.6004
X4.7252Y-3.6803
X4.7252Y-3.7602
X4.7252Y-3.8402
X4.7252Y-4.5504
X4.7252Y-4.6303
X4.7252Y-4.7102
X4.7252Y-4.7902
X4.7953Y-1.6598
X4.7953Y-1.7398
X4.7953Y-1.8197
X4.7953Y-1.8996
X4.7953Y-2.6098
X4.7953Y-2.6898
X4.7953Y-2.7697
X4.7953Y-2.8496
X4.7953Y-3.5598
X4.7953Y-3.6398
X4.7953Y-3.7197
X4.7953Y-3.7996
X4.7953Y-4.5098
X4.7953Y-4.5898
X4.7953Y-4.6697
X4.7953Y-4.7496
T6
X2.848Y-4.2165
X2.848Y-4.3937
X3.1039Y-4.2165
X3.1039Y-4.3937
X3.37Y-6.23
X3.37Y-6.33
X3.37Y-6.43
X3.37Y-6.53
X3.37Y-6.63
X3.37Y-6.73
X3.47Y-6.23
X3.47Y-6.33
X3.47Y-6.43
X3.47Y-6.53
X3.47Y-6.63
X3.47Y-6.73
X3.9Y-5.82
X4.Y-5.82
X4.1Y-5.82
X4.2Y-5.82
X4.3Y-5.82
X4.4Y-5.82
T7
X1.8Y-1.35
X1.8Y-1.45
X1.9Y-1.35
X1.9Y-1.45
X2.Y-1.35
X2.Y-1.45
X2.1Y-1.35
X2.1Y-1.45
X2.2Y-1.35
X2.2Y-1.45
X2.3Y-1.35
X2.3Y-1.45
X2.4Y-1.35
X2.4Y-1.45
X2.5Y-1.35
X2.5Y-1.45
X2.6Y-1.35
X2.6Y-1.45
X2.7Y-1.35
X2.7Y-1.45
X2.8Y-1.35
X2.8Y-1.45
X2.9Y-1.35
X2.9Y-1.45
X3.Y-1.35
X3.Y-1.45
X3.1Y-1.35
X3.1Y-1.45
X3.2Y-1.35
X3.2Y-1.45
X3.3Y-1.35
X3.3Y-1.45
X3.4Y-1.35
X3.4Y-1.45
X3.5Y-1.35
X3.5Y-1.45
X3.6Y-1.35
X3.6Y-1.45
X3.7Y-1.35
X3.7Y-1.45
X3.8Y-1.35
X3.8Y-1.45
X3.9Y-1.35
X3.9Y-1.45
X4.Y-1.35
X4.Y-1.45
X4.1Y-1.35
X4.1Y-1.45
X4.2Y-1.35
X4.2Y-1.45
T8
X3.0122Y-7.3429
X3.2878Y-7.3429
T9
X2.0511Y-6.9
X2.1889Y-6.9
T10
X2.34Y-7.31
X2.86Y-7.31
T11
X2.415Y-6.9498
X2.6Y-6.9498
X2.785Y-6.9498
T12
X4.7551Y-1.4799
X4.7551Y-2.1201
X4.7551Y-2.4299
X4.7551Y-3.0701
X4.7551Y-3.3799
X4.7551Y-4.0201
X4.7551Y-4.3299
X4.7551Y-4.9701
T0
M30
