G04 #@! TF.GenerationSoftware,KiCad,Pcbnew,(5.0.1)-4*
G04 #@! TF.CreationDate,2019-03-02T05:17:56-05:00*
G04 #@! TF.ProjectId,Dev,4465762E6B696361645F706362000000,rev?*
G04 #@! TF.SameCoordinates,Original*
G04 #@! TF.FileFunction,Legend,Top*
G04 #@! TF.FilePolarity,Positive*
%FSLAX46Y46*%
G04 Gerber Fmt 4.6, Leading zero omitted, Abs format (unit mm)*
G04 Created by KiCad (PCBNEW (5.0.1)-4) date 3/2/2019 5:17:56 AM*
%MOMM*%
%LPD*%
G01*
G04 APERTURE LIST*
%ADD10C,0.254000*%
%ADD11C,0.149860*%
%ADD12C,0.152400*%
%ADD13C,0.120000*%
%ADD14C,0.150000*%
G04 APERTURE END LIST*
D10*
X65237480Y-27435023D02*
X65237480Y-26165023D01*
X65539861Y-26165023D01*
X65721290Y-26225500D01*
X65842242Y-26346452D01*
X65902719Y-26467404D01*
X65963195Y-26709309D01*
X65963195Y-26890738D01*
X65902719Y-27132642D01*
X65842242Y-27253595D01*
X65721290Y-27374547D01*
X65539861Y-27435023D01*
X65237480Y-27435023D01*
X66991290Y-27374547D02*
X66870338Y-27435023D01*
X66628433Y-27435023D01*
X66507480Y-27374547D01*
X66447004Y-27253595D01*
X66447004Y-26769785D01*
X66507480Y-26648833D01*
X66628433Y-26588357D01*
X66870338Y-26588357D01*
X66991290Y-26648833D01*
X67051766Y-26769785D01*
X67051766Y-26890738D01*
X66447004Y-27011690D01*
X67475100Y-26588357D02*
X67777480Y-27435023D01*
X68079861Y-26588357D01*
X69531290Y-27435023D02*
X69531290Y-26165023D01*
X69954623Y-27072166D01*
X70377957Y-26165023D01*
X70377957Y-27435023D01*
X71164147Y-27435023D02*
X71043195Y-27374547D01*
X70982719Y-27314071D01*
X70922242Y-27193119D01*
X70922242Y-26830261D01*
X70982719Y-26709309D01*
X71043195Y-26648833D01*
X71164147Y-26588357D01*
X71345576Y-26588357D01*
X71466528Y-26648833D01*
X71527004Y-26709309D01*
X71587480Y-26830261D01*
X71587480Y-27193119D01*
X71527004Y-27314071D01*
X71466528Y-27374547D01*
X71345576Y-27435023D01*
X71164147Y-27435023D01*
X72676052Y-27435023D02*
X72676052Y-26165023D01*
X72676052Y-27374547D02*
X72555100Y-27435023D01*
X72313195Y-27435023D01*
X72192242Y-27374547D01*
X72131766Y-27314071D01*
X72071290Y-27193119D01*
X72071290Y-26830261D01*
X72131766Y-26709309D01*
X72192242Y-26648833D01*
X72313195Y-26588357D01*
X72555100Y-26588357D01*
X72676052Y-26648833D01*
X73825100Y-26588357D02*
X73825100Y-27435023D01*
X73280814Y-26588357D02*
X73280814Y-27253595D01*
X73341290Y-27374547D01*
X73462242Y-27435023D01*
X73643671Y-27435023D01*
X73764623Y-27374547D01*
X73825100Y-27314071D01*
X74611290Y-27435023D02*
X74490338Y-27374547D01*
X74429861Y-27253595D01*
X74429861Y-26165023D01*
X75578909Y-27374547D02*
X75457957Y-27435023D01*
X75216052Y-27435023D01*
X75095100Y-27374547D01*
X75034623Y-27253595D01*
X75034623Y-26769785D01*
X75095100Y-26648833D01*
X75216052Y-26588357D01*
X75457957Y-26588357D01*
X75578909Y-26648833D01*
X75639385Y-26769785D01*
X75639385Y-26890738D01*
X75034623Y-27011690D01*
X65177004Y-28444976D02*
X65237480Y-28384500D01*
X65358433Y-28324023D01*
X65660814Y-28324023D01*
X65781766Y-28384500D01*
X65842242Y-28444976D01*
X65902719Y-28565928D01*
X65902719Y-28686880D01*
X65842242Y-28868309D01*
X65116528Y-29594023D01*
X65902719Y-29594023D01*
X66688909Y-28324023D02*
X66809861Y-28324023D01*
X66930814Y-28384500D01*
X66991290Y-28444976D01*
X67051766Y-28565928D01*
X67112242Y-28807833D01*
X67112242Y-29110214D01*
X67051766Y-29352119D01*
X66991290Y-29473071D01*
X66930814Y-29533547D01*
X66809861Y-29594023D01*
X66688909Y-29594023D01*
X66567957Y-29533547D01*
X66507480Y-29473071D01*
X66447004Y-29352119D01*
X66386528Y-29110214D01*
X66386528Y-28807833D01*
X66447004Y-28565928D01*
X66507480Y-28444976D01*
X66567957Y-28384500D01*
X66688909Y-28324023D01*
X68321766Y-29594023D02*
X67596052Y-29594023D01*
X67958909Y-29594023D02*
X67958909Y-28324023D01*
X67837957Y-28505452D01*
X67717004Y-28626404D01*
X67596052Y-28686880D01*
X69047480Y-28868309D02*
X68926528Y-28807833D01*
X68866052Y-28747357D01*
X68805576Y-28626404D01*
X68805576Y-28565928D01*
X68866052Y-28444976D01*
X68926528Y-28384500D01*
X69047480Y-28324023D01*
X69289385Y-28324023D01*
X69410338Y-28384500D01*
X69470814Y-28444976D01*
X69531290Y-28565928D01*
X69531290Y-28626404D01*
X69470814Y-28747357D01*
X69410338Y-28807833D01*
X69289385Y-28868309D01*
X69047480Y-28868309D01*
X68926528Y-28928785D01*
X68866052Y-28989261D01*
X68805576Y-29110214D01*
X68805576Y-29352119D01*
X68866052Y-29473071D01*
X68926528Y-29533547D01*
X69047480Y-29594023D01*
X69289385Y-29594023D01*
X69410338Y-29533547D01*
X69470814Y-29473071D01*
X69531290Y-29352119D01*
X69531290Y-29110214D01*
X69470814Y-28989261D01*
X69410338Y-28928785D01*
X69289385Y-28868309D01*
X70075576Y-29473071D02*
X70136052Y-29533547D01*
X70075576Y-29594023D01*
X70015100Y-29533547D01*
X70075576Y-29473071D01*
X70075576Y-29594023D01*
X70559385Y-28324023D02*
X71406052Y-28324023D01*
X70861766Y-29594023D01*
X71889861Y-29473071D02*
X71950338Y-29533547D01*
X71889861Y-29594023D01*
X71829385Y-29533547D01*
X71889861Y-29473071D01*
X71889861Y-29594023D01*
X73159861Y-29594023D02*
X72434147Y-29594023D01*
X72797004Y-29594023D02*
X72797004Y-28324023D01*
X72676052Y-28505452D01*
X72555100Y-28626404D01*
X72434147Y-28686880D01*
X53658709Y-27879523D02*
X53658709Y-26609523D01*
X54082042Y-27516666D01*
X54505376Y-26609523D01*
X54505376Y-27879523D01*
X54807757Y-28000476D02*
X55775376Y-28000476D01*
X56682519Y-26609523D02*
X56077757Y-26609523D01*
X56017280Y-27214285D01*
X56077757Y-27153809D01*
X56198709Y-27093333D01*
X56501090Y-27093333D01*
X56622042Y-27153809D01*
X56682519Y-27214285D01*
X56742995Y-27335238D01*
X56742995Y-27637619D01*
X56682519Y-27758571D01*
X56622042Y-27819047D01*
X56501090Y-27879523D01*
X56198709Y-27879523D01*
X56077757Y-27819047D01*
X56017280Y-27758571D01*
X53658709Y-30419523D02*
X53658709Y-29149523D01*
X54082042Y-30056666D01*
X54505376Y-29149523D01*
X54505376Y-30419523D01*
X54807757Y-30540476D02*
X55775376Y-30540476D01*
X56622042Y-29572857D02*
X56622042Y-30419523D01*
X56319661Y-29089047D02*
X56017280Y-29996190D01*
X56803471Y-29996190D01*
X53658709Y-32959523D02*
X53658709Y-31689523D01*
X54082042Y-32596666D01*
X54505376Y-31689523D01*
X54505376Y-32959523D01*
X54807757Y-33080476D02*
X55775376Y-33080476D01*
X55956804Y-31689523D02*
X56742995Y-31689523D01*
X56319661Y-32173333D01*
X56501090Y-32173333D01*
X56622042Y-32233809D01*
X56682519Y-32294285D01*
X56742995Y-32415238D01*
X56742995Y-32717619D01*
X56682519Y-32838571D01*
X56622042Y-32899047D01*
X56501090Y-32959523D01*
X56138233Y-32959523D01*
X56017280Y-32899047D01*
X55956804Y-32838571D01*
X53688947Y-34229523D02*
X54475138Y-34229523D01*
X54051804Y-34713333D01*
X54233233Y-34713333D01*
X54354185Y-34773809D01*
X54414661Y-34834285D01*
X54475138Y-34955238D01*
X54475138Y-35257619D01*
X54414661Y-35378571D01*
X54354185Y-35439047D01*
X54233233Y-35499523D01*
X53870376Y-35499523D01*
X53749423Y-35439047D01*
X53688947Y-35378571D01*
X55019423Y-35378571D02*
X55079900Y-35439047D01*
X55019423Y-35499523D01*
X54958947Y-35439047D01*
X55019423Y-35378571D01*
X55019423Y-35499523D01*
X55503233Y-34229523D02*
X56289423Y-34229523D01*
X55866090Y-34713333D01*
X56047519Y-34713333D01*
X56168471Y-34773809D01*
X56228947Y-34834285D01*
X56289423Y-34955238D01*
X56289423Y-35257619D01*
X56228947Y-35378571D01*
X56168471Y-35439047D01*
X56047519Y-35499523D01*
X55684661Y-35499523D01*
X55563709Y-35439047D01*
X55503233Y-35378571D01*
X56652280Y-34229523D02*
X57075614Y-35499523D01*
X57498947Y-34229523D01*
X44917480Y-27879523D02*
X44917480Y-26609523D01*
X45340814Y-27516666D01*
X45764147Y-26609523D01*
X45764147Y-27879523D01*
X46066528Y-28000476D02*
X47034147Y-28000476D01*
X47276052Y-26730476D02*
X47336528Y-26670000D01*
X47457480Y-26609523D01*
X47759861Y-26609523D01*
X47880814Y-26670000D01*
X47941290Y-26730476D01*
X48001766Y-26851428D01*
X48001766Y-26972380D01*
X47941290Y-27153809D01*
X47215576Y-27879523D01*
X48001766Y-27879523D01*
X44917480Y-30419523D02*
X44917480Y-29149523D01*
X45340814Y-30056666D01*
X45764147Y-29149523D01*
X45764147Y-30419523D01*
X46066528Y-30540476D02*
X47034147Y-30540476D01*
X48001766Y-30419523D02*
X47276052Y-30419523D01*
X47638909Y-30419523D02*
X47638909Y-29149523D01*
X47517957Y-29330952D01*
X47397004Y-29451904D01*
X47276052Y-29512380D01*
X44917480Y-32959523D02*
X44917480Y-31689523D01*
X45340814Y-32596666D01*
X45764147Y-31689523D01*
X45764147Y-32959523D01*
X46066528Y-33080476D02*
X47034147Y-33080476D01*
X47578433Y-31689523D02*
X47699385Y-31689523D01*
X47820338Y-31750000D01*
X47880814Y-31810476D01*
X47941290Y-31931428D01*
X48001766Y-32173333D01*
X48001766Y-32475714D01*
X47941290Y-32717619D01*
X47880814Y-32838571D01*
X47820338Y-32899047D01*
X47699385Y-32959523D01*
X47578433Y-32959523D01*
X47457480Y-32899047D01*
X47397004Y-32838571D01*
X47336528Y-32717619D01*
X47276052Y-32475714D01*
X47276052Y-32173333D01*
X47336528Y-31931428D01*
X47397004Y-31810476D01*
X47457480Y-31750000D01*
X47578433Y-31689523D01*
X45582719Y-34290000D02*
X45461766Y-34229523D01*
X45280338Y-34229523D01*
X45098909Y-34290000D01*
X44977957Y-34410952D01*
X44917480Y-34531904D01*
X44857004Y-34773809D01*
X44857004Y-34955238D01*
X44917480Y-35197142D01*
X44977957Y-35318095D01*
X45098909Y-35439047D01*
X45280338Y-35499523D01*
X45401290Y-35499523D01*
X45582719Y-35439047D01*
X45643195Y-35378571D01*
X45643195Y-34955238D01*
X45401290Y-34955238D01*
X46187480Y-34652857D02*
X46187480Y-35499523D01*
X46187480Y-34773809D02*
X46247957Y-34713333D01*
X46368909Y-34652857D01*
X46550338Y-34652857D01*
X46671290Y-34713333D01*
X46731766Y-34834285D01*
X46731766Y-35499523D01*
X47880814Y-35499523D02*
X47880814Y-34229523D01*
X47880814Y-35439047D02*
X47759861Y-35499523D01*
X47517957Y-35499523D01*
X47397004Y-35439047D01*
X47336528Y-35378571D01*
X47276052Y-35257619D01*
X47276052Y-34894761D01*
X47336528Y-34773809D01*
X47397004Y-34713333D01*
X47517957Y-34652857D01*
X47759861Y-34652857D01*
X47880814Y-34713333D01*
D11*
G04 #@! TO.C,J2*
X22152000Y-27430000D02*
X37902000Y-27430000D01*
X37902000Y-27430000D02*
X37902000Y-43690000D01*
X37902000Y-43690000D02*
X22152000Y-43690000D01*
X22152000Y-43690000D02*
X22152000Y-27430000D01*
D12*
G04 #@! TO.C,J1*
X75946000Y-38557200D02*
X73558400Y-38557200D01*
X69697600Y-38557200D02*
X61442600Y-38557200D01*
X62026800Y-32562800D02*
X61442600Y-32562800D01*
X71628000Y-32562800D02*
X66446400Y-32562800D01*
X75946000Y-32562800D02*
X75463400Y-32562800D01*
X75946000Y-32943800D02*
X78435200Y-32943800D01*
X78435200Y-32943800D02*
X78435200Y-38176200D01*
X78435200Y-38176200D02*
X75946000Y-38176200D01*
X61442600Y-38557200D02*
X61442600Y-32562800D01*
X75946000Y-32562800D02*
X75946000Y-38557200D01*
D11*
G04 #@! TO.C,C1*
X39547800Y-36398200D02*
X39547800Y-38531800D01*
X44272200Y-38531800D02*
X39547800Y-38531800D01*
X39573200Y-36398200D02*
X44272200Y-36398200D01*
X44272200Y-36398200D02*
X44272200Y-38531800D01*
D13*
G04 #@! TO.C,P1*
X48200000Y-33655000D02*
X48200000Y-25975000D01*
X48200000Y-25975000D02*
X53400000Y-25975000D01*
X53400000Y-25975000D02*
X53400000Y-36255000D01*
X53400000Y-36255000D02*
X50800000Y-36255000D01*
X50800000Y-36255000D02*
X50800000Y-33655000D01*
X50800000Y-33655000D02*
X48200000Y-33655000D01*
X48200000Y-34925000D02*
X48200000Y-36255000D01*
X48200000Y-36255000D02*
X49470000Y-36255000D01*
D11*
G04 #@! TO.C,SW0*
X52770406Y-41275000D02*
G75*
G03X52770406Y-41275000I-1970406J0D01*
G01*
X53800000Y-38275000D02*
X53800000Y-44275000D01*
X53800000Y-44275000D02*
X47800000Y-44275000D01*
X47800000Y-44275000D02*
X47800000Y-38275000D01*
X47800000Y-38275000D02*
X53800000Y-38275000D01*
G04 #@! TO.C,J2*
D14*
X34023333Y-42487904D02*
X34023333Y-43059333D01*
X33985238Y-43173619D01*
X33909047Y-43249809D01*
X33794761Y-43287904D01*
X33718571Y-43287904D01*
X34366190Y-42564095D02*
X34404285Y-42526000D01*
X34480476Y-42487904D01*
X34670952Y-42487904D01*
X34747142Y-42526000D01*
X34785238Y-42564095D01*
X34823333Y-42640285D01*
X34823333Y-42716476D01*
X34785238Y-42830761D01*
X34328095Y-43287904D01*
X34823333Y-43287904D01*
X36137904Y-33788000D02*
X36709333Y-33788000D01*
X36823619Y-33826095D01*
X36899809Y-33902285D01*
X36937904Y-34016571D01*
X36937904Y-34092761D01*
X36709333Y-33445142D02*
X36709333Y-33064190D01*
X36937904Y-33521333D02*
X36137904Y-33254666D01*
X36937904Y-32988000D01*
X36861714Y-32264190D02*
X36899809Y-32302285D01*
X36937904Y-32416571D01*
X36937904Y-32492761D01*
X36899809Y-32607047D01*
X36823619Y-32683238D01*
X36747428Y-32721333D01*
X36595047Y-32759428D01*
X36480761Y-32759428D01*
X36328380Y-32721333D01*
X36252190Y-32683238D01*
X36176000Y-32607047D01*
X36137904Y-32492761D01*
X36137904Y-32416571D01*
X36176000Y-32302285D01*
X36214095Y-32264190D01*
X36937904Y-31921333D02*
X36137904Y-31921333D01*
X36937904Y-31464190D02*
X36480761Y-31807047D01*
X36137904Y-31464190D02*
X36595047Y-31921333D01*
X37014095Y-31311809D02*
X37014095Y-30702285D01*
X36937904Y-30054666D02*
X36556952Y-30321333D01*
X36937904Y-30511809D02*
X36137904Y-30511809D01*
X36137904Y-30207047D01*
X36176000Y-30130857D01*
X36214095Y-30092761D01*
X36290285Y-30054666D01*
X36404571Y-30054666D01*
X36480761Y-30092761D01*
X36518857Y-30130857D01*
X36556952Y-30207047D01*
X36556952Y-30511809D01*
X36137904Y-29483238D02*
X36709333Y-29483238D01*
X36823619Y-29521333D01*
X36899809Y-29597523D01*
X36937904Y-29711809D01*
X36937904Y-29788000D01*
X36404571Y-28759428D02*
X36937904Y-28759428D01*
X36099809Y-28949904D02*
X36671238Y-29140380D01*
X36671238Y-28645142D01*
X36137904Y-27959428D02*
X36137904Y-28340380D01*
X36518857Y-28378476D01*
X36480761Y-28340380D01*
X36442666Y-28264190D01*
X36442666Y-28073714D01*
X36480761Y-27997523D01*
X36518857Y-27959428D01*
X36595047Y-27921333D01*
X36785523Y-27921333D01*
X36861714Y-27959428D01*
X36899809Y-27997523D01*
X36937904Y-28073714D01*
X36937904Y-28264190D01*
X36899809Y-28340380D01*
X36861714Y-28378476D01*
G04 #@! TO.C,J1*
D12*
X73774333Y-38931904D02*
X73774333Y-39503333D01*
X73736238Y-39617619D01*
X73660047Y-39693809D01*
X73545761Y-39731904D01*
X73469571Y-39731904D01*
X74574333Y-39731904D02*
X74117190Y-39731904D01*
X74345761Y-39731904D02*
X74345761Y-38931904D01*
X74269571Y-39046190D01*
X74193380Y-39122380D01*
X74117190Y-39160476D01*
X65018095Y-33597904D02*
X65018095Y-34169333D01*
X64980000Y-34283619D01*
X64903809Y-34359809D01*
X64789523Y-34397904D01*
X64713333Y-34397904D01*
X65360952Y-34169333D02*
X65741904Y-34169333D01*
X65284761Y-34397904D02*
X65551428Y-33597904D01*
X65818095Y-34397904D01*
X66541904Y-34321714D02*
X66503809Y-34359809D01*
X66389523Y-34397904D01*
X66313333Y-34397904D01*
X66199047Y-34359809D01*
X66122857Y-34283619D01*
X66084761Y-34207428D01*
X66046666Y-34055047D01*
X66046666Y-33940761D01*
X66084761Y-33788380D01*
X66122857Y-33712190D01*
X66199047Y-33636000D01*
X66313333Y-33597904D01*
X66389523Y-33597904D01*
X66503809Y-33636000D01*
X66541904Y-33674095D01*
X66884761Y-34397904D02*
X66884761Y-33597904D01*
X67341904Y-34397904D02*
X66999047Y-33940761D01*
X67341904Y-33597904D02*
X66884761Y-34055047D01*
X67494285Y-34474095D02*
X68103809Y-34474095D01*
X68256190Y-34359809D02*
X68370476Y-34397904D01*
X68560952Y-34397904D01*
X68637142Y-34359809D01*
X68675238Y-34321714D01*
X68713333Y-34245523D01*
X68713333Y-34169333D01*
X68675238Y-34093142D01*
X68637142Y-34055047D01*
X68560952Y-34016952D01*
X68408571Y-33978857D01*
X68332380Y-33940761D01*
X68294285Y-33902666D01*
X68256190Y-33826476D01*
X68256190Y-33750285D01*
X68294285Y-33674095D01*
X68332380Y-33636000D01*
X68408571Y-33597904D01*
X68599047Y-33597904D01*
X68713333Y-33636000D01*
X68941904Y-33597904D02*
X69399047Y-33597904D01*
X69170476Y-34397904D02*
X69170476Y-33597904D01*
X69665714Y-33978857D02*
X69932380Y-33978857D01*
X70046666Y-34397904D02*
X69665714Y-34397904D01*
X69665714Y-33597904D01*
X70046666Y-33597904D01*
X70846666Y-34397904D02*
X70580000Y-34016952D01*
X70389523Y-34397904D02*
X70389523Y-33597904D01*
X70694285Y-33597904D01*
X70770476Y-33636000D01*
X70808571Y-33674095D01*
X70846666Y-33750285D01*
X70846666Y-33864571D01*
X70808571Y-33940761D01*
X70770476Y-33978857D01*
X70694285Y-34016952D01*
X70389523Y-34016952D01*
X71189523Y-33978857D02*
X71456190Y-33978857D01*
X71570476Y-34397904D02*
X71189523Y-34397904D01*
X71189523Y-33597904D01*
X71570476Y-33597904D01*
X72065714Y-33597904D02*
X72218095Y-33597904D01*
X72294285Y-33636000D01*
X72370476Y-33712190D01*
X72408571Y-33864571D01*
X72408571Y-34131238D01*
X72370476Y-34283619D01*
X72294285Y-34359809D01*
X72218095Y-34397904D01*
X72065714Y-34397904D01*
X71989523Y-34359809D01*
X71913333Y-34283619D01*
X71875238Y-34131238D01*
X71875238Y-33864571D01*
X71913333Y-33712190D01*
X71989523Y-33636000D01*
X72065714Y-33597904D01*
G04 #@! TO.C,C1*
D14*
X41776666Y-35972714D02*
X41738571Y-36010809D01*
X41624285Y-36048904D01*
X41548095Y-36048904D01*
X41433809Y-36010809D01*
X41357619Y-35934619D01*
X41319523Y-35858428D01*
X41281428Y-35706047D01*
X41281428Y-35591761D01*
X41319523Y-35439380D01*
X41357619Y-35363190D01*
X41433809Y-35287000D01*
X41548095Y-35248904D01*
X41624285Y-35248904D01*
X41738571Y-35287000D01*
X41776666Y-35325095D01*
X42538571Y-36048904D02*
X42081428Y-36048904D01*
X42310000Y-36048904D02*
X42310000Y-35248904D01*
X42233809Y-35363190D01*
X42157619Y-35439380D01*
X42081428Y-35477476D01*
G04 #@! TO.C,SW0*
X49733333Y-41598809D02*
X49847619Y-41636904D01*
X50038095Y-41636904D01*
X50114285Y-41598809D01*
X50152380Y-41560714D01*
X50190476Y-41484523D01*
X50190476Y-41408333D01*
X50152380Y-41332142D01*
X50114285Y-41294047D01*
X50038095Y-41255952D01*
X49885714Y-41217857D01*
X49809523Y-41179761D01*
X49771428Y-41141666D01*
X49733333Y-41065476D01*
X49733333Y-40989285D01*
X49771428Y-40913095D01*
X49809523Y-40875000D01*
X49885714Y-40836904D01*
X50076190Y-40836904D01*
X50190476Y-40875000D01*
X50457142Y-40836904D02*
X50647619Y-41636904D01*
X50800000Y-41065476D01*
X50952380Y-41636904D01*
X51142857Y-40836904D01*
X51600000Y-40836904D02*
X51676190Y-40836904D01*
X51752380Y-40875000D01*
X51790476Y-40913095D01*
X51828571Y-40989285D01*
X51866666Y-41141666D01*
X51866666Y-41332142D01*
X51828571Y-41484523D01*
X51790476Y-41560714D01*
X51752380Y-41598809D01*
X51676190Y-41636904D01*
X51600000Y-41636904D01*
X51523809Y-41598809D01*
X51485714Y-41560714D01*
X51447619Y-41484523D01*
X51409523Y-41332142D01*
X51409523Y-41141666D01*
X51447619Y-40989285D01*
X51485714Y-40913095D01*
X51523809Y-40875000D01*
X51600000Y-40836904D01*
G04 #@! TD*
M02*
