G04 #@! TF.GenerationSoftware,KiCad,Pcbnew,(5.0.1)-4*
G04 #@! TF.CreationDate,2019-03-02T05:17:56-05:00*
G04 #@! TF.ProjectId,Dev,4465762E6B696361645F706362000000,rev?*
G04 #@! TF.SameCoordinates,Original*
G04 #@! TF.FileFunction,Copper,L1,Top,Signal*
G04 #@! TF.FilePolarity,Positive*
%FSLAX46Y46*%
G04 Gerber Fmt 4.6, Leading zero omitted, Abs format (unit mm)*
G04 Created by KiCad (PCBNEW (5.0.1)-4) date 3/2/2019 5:17:56 AM*
%MOMM*%
%LPD*%
G01*
G04 APERTURE LIST*
G04 #@! TA.AperFunction,ComponentPad*
%ADD10C,2.200000*%
G04 #@! TD*
G04 #@! TA.AperFunction,ComponentPad*
%ADD11C,1.600000*%
G04 #@! TD*
G04 #@! TA.AperFunction,ComponentPad*
%ADD12C,5.000000*%
G04 #@! TD*
G04 #@! TA.AperFunction,SMDPad,CuDef*
%ADD13R,2.209800X2.794000*%
G04 #@! TD*
G04 #@! TA.AperFunction,SMDPad,CuDef*
%ADD14R,2.794000X2.794000*%
G04 #@! TD*
G04 #@! TA.AperFunction,WasherPad*
%ADD15C,1.701800*%
G04 #@! TD*
G04 #@! TA.AperFunction,SMDPad,CuDef*
%ADD16R,1.600200X1.803400*%
G04 #@! TD*
G04 #@! TA.AperFunction,ComponentPad*
%ADD17R,1.700000X1.700000*%
G04 #@! TD*
G04 #@! TA.AperFunction,ComponentPad*
%ADD18O,1.700000X1.700000*%
G04 #@! TD*
G04 #@! TA.AperFunction,SMDPad,CuDef*
%ADD19R,1.550000X1.300000*%
G04 #@! TD*
G04 #@! TA.AperFunction,ViaPad*
%ADD20C,0.660400*%
G04 #@! TD*
G04 #@! TA.AperFunction,Conductor*
%ADD21C,1.016000*%
G04 #@! TD*
G04 #@! TA.AperFunction,Conductor*
%ADD22C,0.508000*%
G04 #@! TD*
G04 #@! TA.AperFunction,Conductor*
%ADD23C,0.254000*%
G04 #@! TD*
G04 APERTURE END LIST*
D10*
G04 #@! TO.P,J2,8*
G04 #@! TO.N,GND*
X31112000Y-27430000D03*
X31112000Y-43690000D03*
D11*
G04 #@! TO.P,J2,5*
G04 #@! TO.N,/M_3*
X30092000Y-35060000D03*
G04 #@! TO.P,J2,3*
G04 #@! TO.N,/M_1*
X30092000Y-37090000D03*
G04 #@! TO.P,J2,6*
G04 #@! TO.N,/M_4*
X31872000Y-34030000D03*
G04 #@! TO.P,J2,4*
G04 #@! TO.N,/M_2*
X31872000Y-36060000D03*
G04 #@! TO.P,J2,8*
G04 #@! TO.N,GND*
X31872000Y-32000000D03*
G04 #@! TO.P,J2,7*
G04 #@! TO.N,/M_5*
X30092000Y-33030000D03*
G04 #@! TO.P,J2,2*
G04 #@! TO.N,/M_0*
X31872000Y-38090000D03*
G04 #@! TO.P,J2,1*
G04 #@! TO.N,3V3*
X30092000Y-39120000D03*
G04 #@! TD*
D12*
G04 #@! TO.P,X1,1*
G04 #@! TO.N,N/C*
X41275000Y-28575000D03*
G04 #@! TD*
D13*
G04 #@! TO.P,J1,1*
G04 #@! TO.N,/M_0*
X71551800Y-39268400D03*
D14*
G04 #@! TO.P,J1,2*
G04 #@! TO.N,3V3*
X64160400Y-31851600D03*
D13*
G04 #@! TO.P,J1,3*
G04 #@! TO.N,GND*
X73558400Y-31851600D03*
D15*
G04 #@! TO.P,J1,*
G04 #@! TO.N,*
X65430400Y-35560000D03*
X72440800Y-35560000D03*
G04 #@! TD*
D16*
G04 #@! TO.P,C1,1*
G04 #@! TO.N,3V3*
X40513000Y-37465000D03*
G04 #@! TO.P,C1,2*
G04 #@! TO.N,GND*
X43307000Y-37465000D03*
G04 #@! TD*
D17*
G04 #@! TO.P,P1,1*
G04 #@! TO.N,GND*
X49530000Y-34925000D03*
D18*
G04 #@! TO.P,P1,2*
G04 #@! TO.N,3V3*
X52070000Y-34925000D03*
G04 #@! TO.P,P1,3*
G04 #@! TO.N,/M_0*
X49530000Y-32385000D03*
G04 #@! TO.P,P1,4*
G04 #@! TO.N,/M_3*
X52070000Y-32385000D03*
G04 #@! TO.P,P1,5*
G04 #@! TO.N,/M_1*
X49530000Y-29845000D03*
G04 #@! TO.P,P1,6*
G04 #@! TO.N,/M_4*
X52070000Y-29845000D03*
G04 #@! TO.P,P1,7*
G04 #@! TO.N,/M_2*
X49530000Y-27305000D03*
G04 #@! TO.P,P1,8*
G04 #@! TO.N,/M_5*
X52070000Y-27305000D03*
G04 #@! TD*
D19*
G04 #@! TO.P,SW0,3*
G04 #@! TO.N,/M_5*
X54775000Y-39025000D03*
G04 #@! TO.P,SW0,1*
G04 #@! TO.N,GND*
X54775000Y-43525000D03*
G04 #@! TO.P,SW0,2*
X46825000Y-43525000D03*
G04 #@! TO.P,SW0,4*
G04 #@! TO.N,/M_5*
X46825000Y-39025000D03*
G04 #@! TD*
D12*
G04 #@! TO.P,X2,1*
G04 #@! TO.N,N/C*
X41275000Y-42545000D03*
G04 #@! TD*
G04 #@! TO.P,X3,1*
G04 #@! TO.N,N/C*
X60325000Y-28575000D03*
G04 #@! TD*
G04 #@! TO.P,X4,1*
G04 #@! TO.N,N/C*
X60325000Y-42545000D03*
G04 #@! TD*
D20*
G04 #@! TO.N,3V3*
X62484000Y-34036000D03*
X60706000Y-35814000D03*
G04 #@! TO.N,GND*
X71755000Y-31877000D03*
X46736000Y-42418000D03*
X54737000Y-42418000D03*
X41910000Y-37465000D03*
G04 #@! TO.N,/M_3*
X45361474Y-33677474D03*
X38348317Y-33180170D03*
X33020000Y-30861000D03*
X28991174Y-32267774D03*
G04 #@! TO.N,/M_1*
X38989000Y-31115000D03*
G04 #@! TO.N,/M_4*
X44323000Y-31242000D03*
X41148000Y-32131000D03*
G04 #@! TO.N,/M_5*
X51435000Y-38989000D03*
X48641000Y-38989000D03*
X43307000Y-33274000D03*
X39751000Y-32385000D03*
G04 #@! TD*
D21*
G04 #@! TO.N,3V3*
X48514000Y-40640000D02*
X55880000Y-40640000D01*
X62484000Y-34036000D02*
X64160400Y-32359600D01*
X55880000Y-40640000D02*
X60706000Y-35814000D01*
X64160400Y-32359600D02*
X64160400Y-31851600D01*
X40513000Y-37465000D02*
X40513000Y-38735000D01*
X52070000Y-36322000D02*
X52070000Y-34925000D01*
X50038000Y-38354000D02*
X52070000Y-36322000D01*
X50038000Y-39116000D02*
X50038000Y-38354000D01*
X48260000Y-40894000D02*
X48514000Y-40640000D01*
X48514000Y-40640000D02*
X50038000Y-39116000D01*
X45212000Y-40894000D02*
X48260000Y-40894000D01*
X43434000Y-39116000D02*
X45212000Y-40894000D01*
X40894000Y-39116000D02*
X43434000Y-39116000D01*
X40513000Y-38735000D02*
X40894000Y-39116000D01*
X30092000Y-39120000D02*
X30092000Y-39490000D01*
X30092000Y-39490000D02*
X30734000Y-40132000D01*
X37846000Y-40132000D02*
X40513000Y-37465000D01*
X30734000Y-40132000D02*
X37846000Y-40132000D01*
D22*
X30092000Y-39120000D02*
X30357000Y-39120000D01*
X64490600Y-31851600D02*
X64160400Y-31851600D01*
D21*
G04 #@! TO.N,GND*
X73558400Y-31851600D02*
X71780400Y-31851600D01*
X71780400Y-31851600D02*
X71755000Y-31877000D01*
D22*
X46825000Y-43525000D02*
X46825000Y-42507000D01*
X46825000Y-42507000D02*
X46736000Y-42418000D01*
X54775000Y-43525000D02*
X54775000Y-42456000D01*
X54775000Y-42456000D02*
X54737000Y-42418000D01*
X43307000Y-37465000D02*
X41910000Y-37465000D01*
G04 #@! TO.N,/M_0*
X71551800Y-39268400D02*
X66065400Y-39268400D01*
D23*
X50800000Y-31115000D02*
X49530000Y-32385000D01*
D22*
X57912000Y-31115000D02*
X53213000Y-31115000D01*
X66065400Y-39268400D02*
X57912000Y-31115000D01*
D23*
X53213000Y-31115000D02*
X50800000Y-31115000D01*
X71120000Y-38836600D02*
X71551800Y-39268400D01*
X31872000Y-38090000D02*
X36967000Y-38090000D01*
X42672000Y-32385000D02*
X49530000Y-32385000D01*
X36967000Y-38090000D02*
X42672000Y-32385000D01*
G04 #@! TO.N,/M_3*
X45361474Y-33677474D02*
X50777526Y-33677474D01*
X50777526Y-33677474D02*
X52070000Y-32385000D01*
X33020000Y-30861000D02*
X35339170Y-33180170D01*
X35339170Y-33180170D02*
X38348317Y-33180170D01*
X30092000Y-35060000D02*
X28961799Y-33929799D01*
X28961799Y-32297149D02*
X28991174Y-32267774D01*
X28961799Y-33929799D02*
X28961799Y-32297149D01*
G04 #@! TO.N,/M_1*
X28321000Y-35319000D02*
X30092000Y-37090000D01*
X28321000Y-32004000D02*
X28321000Y-35319000D01*
X30988000Y-29337000D02*
X28321000Y-32004000D01*
X37211000Y-29337000D02*
X30988000Y-29337000D01*
X38989000Y-31115000D02*
X37211000Y-29337000D01*
G04 #@! TO.N,/M_4*
X50800000Y-28575000D02*
X52070000Y-29845000D01*
X46990000Y-28575000D02*
X50800000Y-28575000D01*
X44323000Y-31242000D02*
X46990000Y-28575000D01*
X39249000Y-34030000D02*
X41148000Y-32131000D01*
X31872000Y-34030000D02*
X39249000Y-34030000D01*
G04 #@! TO.N,/M_2*
X46990000Y-27305000D02*
X49530000Y-27305000D01*
X38235000Y-36060000D02*
X46990000Y-27305000D01*
X31872000Y-36060000D02*
X38235000Y-36060000D01*
G04 #@! TO.N,/M_5*
X46825000Y-39025000D02*
X48605000Y-39025000D01*
X51471000Y-39025000D02*
X54775000Y-39025000D01*
X51435000Y-38989000D02*
X51471000Y-39025000D01*
X48605000Y-39025000D02*
X48641000Y-38989000D01*
X46825000Y-36792000D02*
X46825000Y-39025000D01*
X43307000Y-33274000D02*
X46825000Y-36792000D01*
X39243000Y-32385000D02*
X39751000Y-32385000D01*
X36957000Y-30099000D02*
X39243000Y-32385000D01*
X31115000Y-30099000D02*
X36957000Y-30099000D01*
X30092000Y-31122000D02*
X31115000Y-30099000D01*
X30092000Y-33030000D02*
X30092000Y-31122000D01*
G04 #@! TD*
M02*
