G04 #@! TF.GenerationSoftware,KiCad,Pcbnew,(5.0.1)-4*
G04 #@! TF.CreationDate,2019-03-02T05:17:56-05:00*
G04 #@! TF.ProjectId,Dev,4465762E6B696361645F706362000000,rev?*
G04 #@! TF.SameCoordinates,Original*
G04 #@! TF.FileFunction,Soldermask,Bot*
G04 #@! TF.FilePolarity,Negative*
%FSLAX46Y46*%
G04 Gerber Fmt 4.6, Leading zero omitted, Abs format (unit mm)*
G04 Created by KiCad (PCBNEW (5.0.1)-4) date 3/2/2019 5:17:56 AM*
%MOMM*%
%LPD*%
G01*
G04 APERTURE LIST*
%ADD10C,0.150000*%
G04 APERTURE END LIST*
D10*
G36*
X61112560Y-39948759D02*
X61603928Y-40152290D01*
X61603930Y-40152291D01*
X61814076Y-40292706D01*
X62046153Y-40447775D01*
X62422225Y-40823847D01*
X62422227Y-40823850D01*
X62570356Y-41045540D01*
X62717710Y-41266072D01*
X62921241Y-41757440D01*
X63025000Y-42279072D01*
X63025000Y-42810928D01*
X62921241Y-43332560D01*
X62717710Y-43823928D01*
X62422225Y-44266153D01*
X62046153Y-44642225D01*
X62046150Y-44642227D01*
X61603930Y-44937709D01*
X61603929Y-44937710D01*
X61603928Y-44937710D01*
X61112560Y-45141241D01*
X60590928Y-45245000D01*
X60059072Y-45245000D01*
X59537440Y-45141241D01*
X59046072Y-44937710D01*
X59046071Y-44937710D01*
X59046070Y-44937709D01*
X58603850Y-44642227D01*
X58603847Y-44642225D01*
X58227775Y-44266153D01*
X57932290Y-43823928D01*
X57728759Y-43332560D01*
X57625000Y-42810928D01*
X57625000Y-42279072D01*
X57728759Y-41757440D01*
X57932290Y-41266072D01*
X58079645Y-41045540D01*
X58227773Y-40823850D01*
X58227775Y-40823847D01*
X58603847Y-40447775D01*
X58835924Y-40292706D01*
X59046070Y-40152291D01*
X59046072Y-40152290D01*
X59537440Y-39948759D01*
X60059072Y-39845000D01*
X60590928Y-39845000D01*
X61112560Y-39948759D01*
X61112560Y-39948759D01*
G37*
G36*
X42062560Y-39948759D02*
X42553928Y-40152290D01*
X42553930Y-40152291D01*
X42764076Y-40292706D01*
X42996153Y-40447775D01*
X43372225Y-40823847D01*
X43372227Y-40823850D01*
X43520356Y-41045540D01*
X43667710Y-41266072D01*
X43871241Y-41757440D01*
X43975000Y-42279072D01*
X43975000Y-42810928D01*
X43871241Y-43332560D01*
X43667710Y-43823928D01*
X43372225Y-44266153D01*
X42996153Y-44642225D01*
X42996150Y-44642227D01*
X42553930Y-44937709D01*
X42553929Y-44937710D01*
X42553928Y-44937710D01*
X42062560Y-45141241D01*
X41540928Y-45245000D01*
X41009072Y-45245000D01*
X40487440Y-45141241D01*
X39996072Y-44937710D01*
X39996071Y-44937710D01*
X39996070Y-44937709D01*
X39553850Y-44642227D01*
X39553847Y-44642225D01*
X39177775Y-44266153D01*
X38882290Y-43823928D01*
X38678759Y-43332560D01*
X38575000Y-42810928D01*
X38575000Y-42279072D01*
X38678759Y-41757440D01*
X38882290Y-41266072D01*
X39029645Y-41045540D01*
X39177773Y-40823850D01*
X39177775Y-40823847D01*
X39553847Y-40447775D01*
X39785924Y-40292706D01*
X39996070Y-40152291D01*
X39996072Y-40152290D01*
X40487440Y-39948759D01*
X41009072Y-39845000D01*
X41540928Y-39845000D01*
X42062560Y-39948759D01*
X42062560Y-39948759D01*
G37*
G36*
X31491196Y-42439958D02*
X31727780Y-42537954D01*
X31940705Y-42680226D01*
X32121774Y-42861295D01*
X32264046Y-43074220D01*
X32362042Y-43310804D01*
X32412000Y-43561960D01*
X32412000Y-43818040D01*
X32362042Y-44069196D01*
X32264046Y-44305780D01*
X32121774Y-44518705D01*
X31940705Y-44699774D01*
X31727780Y-44842046D01*
X31491196Y-44940042D01*
X31240040Y-44990000D01*
X30983960Y-44990000D01*
X30732804Y-44940042D01*
X30496220Y-44842046D01*
X30283295Y-44699774D01*
X30102226Y-44518705D01*
X29959954Y-44305780D01*
X29861958Y-44069196D01*
X29812000Y-43818040D01*
X29812000Y-43561960D01*
X29861958Y-43310804D01*
X29959954Y-43074220D01*
X30102226Y-42861295D01*
X30283295Y-42680226D01*
X30496220Y-42537954D01*
X30732804Y-42439958D01*
X30983960Y-42390000D01*
X31240040Y-42390000D01*
X31491196Y-42439958D01*
X31491196Y-42439958D01*
G37*
G36*
X27907703Y-40120000D02*
X28084333Y-40155134D01*
X28416461Y-40292706D01*
X28648535Y-40447773D01*
X28715372Y-40492432D01*
X28969568Y-40746628D01*
X28969570Y-40746631D01*
X29169294Y-41045539D01*
X29306866Y-41377667D01*
X29377000Y-41730253D01*
X29377000Y-42089747D01*
X29306866Y-42442333D01*
X29169294Y-42774461D01*
X29111273Y-42861295D01*
X28969568Y-43073372D01*
X28715372Y-43327568D01*
X28715369Y-43327570D01*
X28416461Y-43527294D01*
X28084333Y-43664866D01*
X27908040Y-43699933D01*
X27731748Y-43735000D01*
X27372252Y-43735000D01*
X27195960Y-43699933D01*
X27019667Y-43664866D01*
X26687539Y-43527294D01*
X26388631Y-43327570D01*
X26388628Y-43327568D01*
X26134432Y-43073372D01*
X25992727Y-42861295D01*
X25934706Y-42774461D01*
X25797134Y-42442333D01*
X25727000Y-42089747D01*
X25727000Y-41730253D01*
X25797134Y-41377667D01*
X25934706Y-41045539D01*
X26134430Y-40746631D01*
X26134432Y-40746628D01*
X26388628Y-40492432D01*
X26455465Y-40447773D01*
X26687539Y-40292706D01*
X27019667Y-40155134D01*
X27196297Y-40120000D01*
X27372252Y-40085000D01*
X27731748Y-40085000D01*
X27907703Y-40120000D01*
X27907703Y-40120000D01*
G37*
G36*
X32047770Y-31015372D02*
X32163689Y-31038429D01*
X32345678Y-31113811D01*
X32509463Y-31223249D01*
X32648751Y-31362537D01*
X32758189Y-31526322D01*
X32833571Y-31708311D01*
X32851576Y-31798828D01*
X32872000Y-31901507D01*
X32872000Y-32098493D01*
X32862985Y-32143813D01*
X32833571Y-32291689D01*
X32758189Y-32473678D01*
X32648751Y-32637463D01*
X32509463Y-32776751D01*
X32345678Y-32886189D01*
X32313497Y-32899519D01*
X32291893Y-32911066D01*
X32272951Y-32926611D01*
X32257406Y-32945553D01*
X32245854Y-32967164D01*
X32238741Y-32990613D01*
X32236339Y-33015000D01*
X32238741Y-33039386D01*
X32245854Y-33062835D01*
X32257405Y-33084446D01*
X32272950Y-33103388D01*
X32291892Y-33118933D01*
X32313497Y-33130481D01*
X32345678Y-33143811D01*
X32509463Y-33253249D01*
X32648751Y-33392537D01*
X32758189Y-33556322D01*
X32833571Y-33738311D01*
X32854083Y-33841434D01*
X32872000Y-33931507D01*
X32872000Y-34128493D01*
X32862985Y-34173812D01*
X32833571Y-34321689D01*
X32758189Y-34503678D01*
X32648751Y-34667463D01*
X32509463Y-34806751D01*
X32345678Y-34916189D01*
X32313497Y-34929519D01*
X32291893Y-34941066D01*
X32272951Y-34956611D01*
X32257406Y-34975553D01*
X32245854Y-34997164D01*
X32238741Y-35020613D01*
X32236339Y-35045000D01*
X32238741Y-35069386D01*
X32245854Y-35092835D01*
X32257405Y-35114446D01*
X32272950Y-35133388D01*
X32291892Y-35148933D01*
X32313497Y-35160481D01*
X32345678Y-35173811D01*
X32509463Y-35283249D01*
X32648751Y-35422537D01*
X32758189Y-35586322D01*
X32833571Y-35768311D01*
X32853109Y-35866535D01*
X32872000Y-35961507D01*
X32872000Y-36158493D01*
X32862985Y-36203812D01*
X32833571Y-36351689D01*
X32758189Y-36533678D01*
X32648751Y-36697463D01*
X32509463Y-36836751D01*
X32345678Y-36946189D01*
X32313497Y-36959519D01*
X32291893Y-36971066D01*
X32272951Y-36986611D01*
X32257406Y-37005553D01*
X32245854Y-37027164D01*
X32238741Y-37050613D01*
X32236339Y-37075000D01*
X32238741Y-37099386D01*
X32245854Y-37122835D01*
X32257405Y-37144446D01*
X32272950Y-37163388D01*
X32291892Y-37178933D01*
X32313497Y-37190481D01*
X32345678Y-37203811D01*
X32509463Y-37313249D01*
X32648751Y-37452537D01*
X32758189Y-37616322D01*
X32833571Y-37798311D01*
X32854083Y-37901434D01*
X32872000Y-37991507D01*
X32872000Y-38188493D01*
X32862985Y-38233812D01*
X32833571Y-38381689D01*
X32758189Y-38563678D01*
X32648751Y-38727463D01*
X32509463Y-38866751D01*
X32345678Y-38976189D01*
X32163689Y-39051571D01*
X32047770Y-39074628D01*
X31970493Y-39090000D01*
X31773507Y-39090000D01*
X31696230Y-39074628D01*
X31580311Y-39051571D01*
X31398322Y-38976189D01*
X31285557Y-38900842D01*
X31263958Y-38889296D01*
X31240509Y-38882183D01*
X31216123Y-38879781D01*
X31191736Y-38882183D01*
X31168287Y-38889296D01*
X31146676Y-38900847D01*
X31127734Y-38916392D01*
X31112189Y-38935334D01*
X31100637Y-38956945D01*
X31093524Y-38980394D01*
X31091122Y-39004780D01*
X31092000Y-39013698D01*
X31092000Y-39218491D01*
X31053571Y-39411689D01*
X30978189Y-39593678D01*
X30868751Y-39757463D01*
X30729463Y-39896751D01*
X30565678Y-40006189D01*
X30383689Y-40081571D01*
X30267770Y-40104628D01*
X30190493Y-40120000D01*
X29993507Y-40120000D01*
X29916230Y-40104628D01*
X29800311Y-40081571D01*
X29618322Y-40006189D01*
X29454537Y-39896751D01*
X29315249Y-39757463D01*
X29205811Y-39593678D01*
X29130429Y-39411689D01*
X29092000Y-39218491D01*
X29092000Y-39021509D01*
X29093554Y-39013698D01*
X29116001Y-38900847D01*
X29130429Y-38828311D01*
X29205811Y-38646322D01*
X29315249Y-38482537D01*
X29454537Y-38343249D01*
X29618322Y-38233811D01*
X29650503Y-38220481D01*
X29672107Y-38208934D01*
X29691049Y-38193389D01*
X29706594Y-38174447D01*
X29718146Y-38152836D01*
X29725259Y-38129387D01*
X29727661Y-38105000D01*
X30456339Y-38105000D01*
X30458741Y-38129386D01*
X30465854Y-38152835D01*
X30477405Y-38174446D01*
X30492950Y-38193388D01*
X30511892Y-38208933D01*
X30533497Y-38220481D01*
X30565678Y-38233811D01*
X30678443Y-38309158D01*
X30700042Y-38320704D01*
X30723491Y-38327817D01*
X30747877Y-38330219D01*
X30772264Y-38327817D01*
X30795713Y-38320704D01*
X30817324Y-38309153D01*
X30836266Y-38293608D01*
X30851811Y-38274666D01*
X30863363Y-38253055D01*
X30870476Y-38229606D01*
X30872878Y-38205220D01*
X30872000Y-38196302D01*
X30872000Y-38005368D01*
X30869598Y-37980982D01*
X30862485Y-37957533D01*
X30850934Y-37935922D01*
X30835388Y-37916980D01*
X30816446Y-37901434D01*
X30794835Y-37889883D01*
X30771386Y-37882770D01*
X30747000Y-37880368D01*
X30722614Y-37882770D01*
X30699165Y-37889883D01*
X30677562Y-37901430D01*
X30565678Y-37976189D01*
X30533497Y-37989519D01*
X30511893Y-38001066D01*
X30492951Y-38016611D01*
X30477406Y-38035553D01*
X30465854Y-38057164D01*
X30458741Y-38080613D01*
X30456339Y-38105000D01*
X29727661Y-38105000D01*
X29725259Y-38080614D01*
X29718146Y-38057165D01*
X29706595Y-38035554D01*
X29691050Y-38016612D01*
X29672108Y-38001067D01*
X29650503Y-37989519D01*
X29618322Y-37976189D01*
X29454537Y-37866751D01*
X29315249Y-37727463D01*
X29205811Y-37563678D01*
X29130429Y-37381689D01*
X29094094Y-37199018D01*
X29092000Y-37188493D01*
X29092000Y-36991507D01*
X29095327Y-36974780D01*
X31091122Y-36974780D01*
X31092000Y-36983698D01*
X31092000Y-37174632D01*
X31094402Y-37199018D01*
X31101515Y-37222467D01*
X31113066Y-37244078D01*
X31128612Y-37263020D01*
X31147554Y-37278566D01*
X31169165Y-37290117D01*
X31192614Y-37297230D01*
X31217000Y-37299632D01*
X31241386Y-37297230D01*
X31264835Y-37290117D01*
X31286438Y-37278570D01*
X31398322Y-37203811D01*
X31430503Y-37190481D01*
X31452107Y-37178934D01*
X31471049Y-37163389D01*
X31486594Y-37144447D01*
X31498146Y-37122836D01*
X31505259Y-37099387D01*
X31507661Y-37075000D01*
X31505259Y-37050614D01*
X31498146Y-37027165D01*
X31486595Y-37005554D01*
X31471050Y-36986612D01*
X31452108Y-36971067D01*
X31430503Y-36959519D01*
X31398322Y-36946189D01*
X31285557Y-36870842D01*
X31263958Y-36859296D01*
X31240509Y-36852183D01*
X31216123Y-36849781D01*
X31191736Y-36852183D01*
X31168287Y-36859296D01*
X31146676Y-36870847D01*
X31127734Y-36886392D01*
X31112189Y-36905334D01*
X31100637Y-36926945D01*
X31093524Y-36950394D01*
X31091122Y-36974780D01*
X29095327Y-36974780D01*
X29116001Y-36870847D01*
X29130429Y-36798311D01*
X29205811Y-36616322D01*
X29315249Y-36452537D01*
X29454537Y-36313249D01*
X29618322Y-36203811D01*
X29650503Y-36190481D01*
X29672107Y-36178934D01*
X29691049Y-36163389D01*
X29706594Y-36144447D01*
X29718146Y-36122836D01*
X29725259Y-36099387D01*
X29727661Y-36075000D01*
X30456339Y-36075000D01*
X30458741Y-36099386D01*
X30465854Y-36122835D01*
X30477405Y-36144446D01*
X30492950Y-36163388D01*
X30511892Y-36178933D01*
X30533497Y-36190481D01*
X30565678Y-36203811D01*
X30678443Y-36279158D01*
X30700042Y-36290704D01*
X30723491Y-36297817D01*
X30747877Y-36300219D01*
X30772264Y-36297817D01*
X30795713Y-36290704D01*
X30817324Y-36279153D01*
X30836266Y-36263608D01*
X30851811Y-36244666D01*
X30863363Y-36223055D01*
X30870476Y-36199606D01*
X30872878Y-36175220D01*
X30872000Y-36166302D01*
X30872000Y-35975368D01*
X30869598Y-35950982D01*
X30862485Y-35927533D01*
X30850934Y-35905922D01*
X30835388Y-35886980D01*
X30816446Y-35871434D01*
X30794835Y-35859883D01*
X30771386Y-35852770D01*
X30747000Y-35850368D01*
X30722614Y-35852770D01*
X30699165Y-35859883D01*
X30677562Y-35871430D01*
X30565678Y-35946189D01*
X30533497Y-35959519D01*
X30511893Y-35971066D01*
X30492951Y-35986611D01*
X30477406Y-36005553D01*
X30465854Y-36027164D01*
X30458741Y-36050613D01*
X30456339Y-36075000D01*
X29727661Y-36075000D01*
X29725259Y-36050614D01*
X29718146Y-36027165D01*
X29706595Y-36005554D01*
X29691050Y-35986612D01*
X29672108Y-35971067D01*
X29650503Y-35959519D01*
X29618322Y-35946189D01*
X29454537Y-35836751D01*
X29315249Y-35697463D01*
X29205811Y-35533678D01*
X29130429Y-35351689D01*
X29094094Y-35169018D01*
X29092000Y-35158493D01*
X29092000Y-34961507D01*
X29095327Y-34944780D01*
X31091122Y-34944780D01*
X31092000Y-34953698D01*
X31092000Y-35144632D01*
X31094402Y-35169018D01*
X31101515Y-35192467D01*
X31113066Y-35214078D01*
X31128612Y-35233020D01*
X31147554Y-35248566D01*
X31169165Y-35260117D01*
X31192614Y-35267230D01*
X31217000Y-35269632D01*
X31241386Y-35267230D01*
X31264835Y-35260117D01*
X31286438Y-35248570D01*
X31398322Y-35173811D01*
X31430503Y-35160481D01*
X31452107Y-35148934D01*
X31471049Y-35133389D01*
X31486594Y-35114447D01*
X31498146Y-35092836D01*
X31505259Y-35069387D01*
X31507661Y-35045000D01*
X31505259Y-35020614D01*
X31498146Y-34997165D01*
X31486595Y-34975554D01*
X31471050Y-34956612D01*
X31452108Y-34941067D01*
X31430503Y-34929519D01*
X31398322Y-34916189D01*
X31285557Y-34840842D01*
X31263958Y-34829296D01*
X31240509Y-34822183D01*
X31216123Y-34819781D01*
X31191736Y-34822183D01*
X31168287Y-34829296D01*
X31146676Y-34840847D01*
X31127734Y-34856392D01*
X31112189Y-34875334D01*
X31100637Y-34896945D01*
X31093524Y-34920394D01*
X31091122Y-34944780D01*
X29095327Y-34944780D01*
X29116001Y-34840847D01*
X29130429Y-34768311D01*
X29205811Y-34586322D01*
X29315249Y-34422537D01*
X29454537Y-34283249D01*
X29618322Y-34173811D01*
X29650503Y-34160481D01*
X29672107Y-34148934D01*
X29691049Y-34133389D01*
X29706594Y-34114447D01*
X29718146Y-34092836D01*
X29725259Y-34069387D01*
X29727661Y-34045000D01*
X30456339Y-34045000D01*
X30458741Y-34069386D01*
X30465854Y-34092835D01*
X30477405Y-34114446D01*
X30492950Y-34133388D01*
X30511892Y-34148933D01*
X30533497Y-34160481D01*
X30565678Y-34173811D01*
X30678443Y-34249158D01*
X30700042Y-34260704D01*
X30723491Y-34267817D01*
X30747877Y-34270219D01*
X30772264Y-34267817D01*
X30795713Y-34260704D01*
X30817324Y-34249153D01*
X30836266Y-34233608D01*
X30851811Y-34214666D01*
X30863363Y-34193055D01*
X30870476Y-34169606D01*
X30872878Y-34145220D01*
X30872000Y-34136302D01*
X30872000Y-33945368D01*
X30869598Y-33920982D01*
X30862485Y-33897533D01*
X30850934Y-33875922D01*
X30835388Y-33856980D01*
X30816446Y-33841434D01*
X30794835Y-33829883D01*
X30771386Y-33822770D01*
X30747000Y-33820368D01*
X30722614Y-33822770D01*
X30699165Y-33829883D01*
X30677562Y-33841430D01*
X30565678Y-33916189D01*
X30533497Y-33929519D01*
X30511893Y-33941066D01*
X30492951Y-33956611D01*
X30477406Y-33975553D01*
X30465854Y-33997164D01*
X30458741Y-34020613D01*
X30456339Y-34045000D01*
X29727661Y-34045000D01*
X29725259Y-34020614D01*
X29718146Y-33997165D01*
X29706595Y-33975554D01*
X29691050Y-33956612D01*
X29672108Y-33941067D01*
X29650503Y-33929519D01*
X29618322Y-33916189D01*
X29454537Y-33806751D01*
X29315249Y-33667463D01*
X29205811Y-33503678D01*
X29130429Y-33321689D01*
X29094094Y-33139018D01*
X29092000Y-33128493D01*
X29092000Y-32931507D01*
X29095327Y-32914780D01*
X31091122Y-32914780D01*
X31092000Y-32923698D01*
X31092000Y-33114632D01*
X31094402Y-33139018D01*
X31101515Y-33162467D01*
X31113066Y-33184078D01*
X31128612Y-33203020D01*
X31147554Y-33218566D01*
X31169165Y-33230117D01*
X31192614Y-33237230D01*
X31217000Y-33239632D01*
X31241386Y-33237230D01*
X31264835Y-33230117D01*
X31286438Y-33218570D01*
X31398322Y-33143811D01*
X31430503Y-33130481D01*
X31452107Y-33118934D01*
X31471049Y-33103389D01*
X31486594Y-33084447D01*
X31498146Y-33062836D01*
X31505259Y-33039387D01*
X31507661Y-33015000D01*
X31505259Y-32990614D01*
X31498146Y-32967165D01*
X31486595Y-32945554D01*
X31471050Y-32926612D01*
X31452108Y-32911067D01*
X31430503Y-32899519D01*
X31398322Y-32886189D01*
X31285557Y-32810842D01*
X31263958Y-32799296D01*
X31240509Y-32792183D01*
X31216123Y-32789781D01*
X31191736Y-32792183D01*
X31168287Y-32799296D01*
X31146676Y-32810847D01*
X31127734Y-32826392D01*
X31112189Y-32845334D01*
X31100637Y-32866945D01*
X31093524Y-32890394D01*
X31091122Y-32914780D01*
X29095327Y-32914780D01*
X29116001Y-32810847D01*
X29130429Y-32738311D01*
X29205811Y-32556322D01*
X29315249Y-32392537D01*
X29454537Y-32253249D01*
X29618322Y-32143811D01*
X29800311Y-32068429D01*
X29916230Y-32045372D01*
X29993507Y-32030000D01*
X30190493Y-32030000D01*
X30267770Y-32045372D01*
X30383689Y-32068429D01*
X30565678Y-32143811D01*
X30678443Y-32219158D01*
X30700042Y-32230704D01*
X30723491Y-32237817D01*
X30747877Y-32240219D01*
X30772264Y-32237817D01*
X30795713Y-32230704D01*
X30817324Y-32219153D01*
X30836266Y-32203608D01*
X30851811Y-32184666D01*
X30863363Y-32163055D01*
X30870476Y-32139606D01*
X30872878Y-32115220D01*
X30872000Y-32106302D01*
X30872000Y-31901507D01*
X30892424Y-31798828D01*
X30910429Y-31708311D01*
X30985811Y-31526322D01*
X31095249Y-31362537D01*
X31234537Y-31223249D01*
X31398322Y-31113811D01*
X31580311Y-31038429D01*
X31696230Y-31015372D01*
X31773507Y-31000000D01*
X31970493Y-31000000D01*
X32047770Y-31015372D01*
X32047770Y-31015372D01*
G37*
G36*
X65635420Y-34529292D02*
X65736936Y-34549485D01*
X65928188Y-34628704D01*
X66063570Y-34719164D01*
X66100313Y-34743715D01*
X66246685Y-34890087D01*
X66246687Y-34890090D01*
X66361696Y-35062212D01*
X66440915Y-35253464D01*
X66446840Y-35283253D01*
X66481300Y-35456494D01*
X66481300Y-35663506D01*
X66474545Y-35697466D01*
X66440915Y-35866536D01*
X66361696Y-36057788D01*
X66264126Y-36203811D01*
X66246685Y-36229913D01*
X66100313Y-36376285D01*
X66100310Y-36376287D01*
X65928188Y-36491296D01*
X65736936Y-36570515D01*
X65635421Y-36590707D01*
X65533906Y-36610900D01*
X65326894Y-36610900D01*
X65225379Y-36590707D01*
X65123864Y-36570515D01*
X64932612Y-36491296D01*
X64760490Y-36376287D01*
X64760487Y-36376285D01*
X64614115Y-36229913D01*
X64596674Y-36203811D01*
X64499104Y-36057788D01*
X64419885Y-35866536D01*
X64386255Y-35697466D01*
X64379500Y-35663506D01*
X64379500Y-35456494D01*
X64413960Y-35283253D01*
X64419885Y-35253464D01*
X64499104Y-35062212D01*
X64614113Y-34890090D01*
X64614115Y-34890087D01*
X64760487Y-34743715D01*
X64797230Y-34719164D01*
X64932612Y-34628704D01*
X65123864Y-34549485D01*
X65225380Y-34529292D01*
X65326894Y-34509100D01*
X65533906Y-34509100D01*
X65635420Y-34529292D01*
X65635420Y-34529292D01*
G37*
G36*
X72645820Y-34529292D02*
X72747336Y-34549485D01*
X72938588Y-34628704D01*
X73073970Y-34719164D01*
X73110713Y-34743715D01*
X73257085Y-34890087D01*
X73257087Y-34890090D01*
X73372096Y-35062212D01*
X73451315Y-35253464D01*
X73457240Y-35283253D01*
X73491700Y-35456494D01*
X73491700Y-35663506D01*
X73484945Y-35697466D01*
X73451315Y-35866536D01*
X73372096Y-36057788D01*
X73274526Y-36203811D01*
X73257085Y-36229913D01*
X73110713Y-36376285D01*
X73110710Y-36376287D01*
X72938588Y-36491296D01*
X72747336Y-36570515D01*
X72645821Y-36590707D01*
X72544306Y-36610900D01*
X72337294Y-36610900D01*
X72235779Y-36590707D01*
X72134264Y-36570515D01*
X71943012Y-36491296D01*
X71770890Y-36376287D01*
X71770887Y-36376285D01*
X71624515Y-36229913D01*
X71607074Y-36203811D01*
X71509504Y-36057788D01*
X71430285Y-35866536D01*
X71396655Y-35697466D01*
X71389900Y-35663506D01*
X71389900Y-35456494D01*
X71424360Y-35283253D01*
X71430285Y-35253464D01*
X71509504Y-35062212D01*
X71624513Y-34890090D01*
X71624515Y-34890087D01*
X71770887Y-34743715D01*
X71807630Y-34719164D01*
X71943012Y-34628704D01*
X72134264Y-34549485D01*
X72235780Y-34529292D01*
X72337294Y-34509100D01*
X72544306Y-34509100D01*
X72645820Y-34529292D01*
X72645820Y-34529292D01*
G37*
G36*
X52198707Y-33882597D02*
X52275836Y-33890193D01*
X52377334Y-33920982D01*
X52473763Y-33950233D01*
X52656172Y-34047733D01*
X52816054Y-34178946D01*
X52947267Y-34338828D01*
X53044767Y-34521237D01*
X53044767Y-34521238D01*
X53104807Y-34719164D01*
X53125080Y-34925000D01*
X53104807Y-35130836D01*
X53079556Y-35214078D01*
X53044767Y-35328763D01*
X52947267Y-35511172D01*
X52816054Y-35671054D01*
X52656172Y-35802267D01*
X52473763Y-35899767D01*
X52453472Y-35905922D01*
X52275836Y-35959807D01*
X52198707Y-35967403D01*
X52121580Y-35975000D01*
X52018420Y-35975000D01*
X51941293Y-35967403D01*
X51864164Y-35959807D01*
X51686528Y-35905922D01*
X51666237Y-35899767D01*
X51483828Y-35802267D01*
X51323946Y-35671054D01*
X51192733Y-35511172D01*
X51095233Y-35328763D01*
X51060444Y-35214078D01*
X51035193Y-35130836D01*
X51014920Y-34925000D01*
X51035193Y-34719164D01*
X51095233Y-34521238D01*
X51095233Y-34521237D01*
X51192733Y-34338828D01*
X51323946Y-34178946D01*
X51483828Y-34047733D01*
X51666237Y-33950233D01*
X51762666Y-33920982D01*
X51864164Y-33890193D01*
X51941293Y-33882597D01*
X52018420Y-33875000D01*
X52121580Y-33875000D01*
X52198707Y-33882597D01*
X52198707Y-33882597D01*
G37*
G36*
X50580000Y-35975000D02*
X48480000Y-35975000D01*
X48480000Y-33875000D01*
X50580000Y-33875000D01*
X50580000Y-35975000D01*
X50580000Y-35975000D01*
G37*
G36*
X49658707Y-31342597D02*
X49735836Y-31350193D01*
X49867787Y-31390220D01*
X49933763Y-31410233D01*
X50116172Y-31507733D01*
X50276054Y-31638946D01*
X50407267Y-31798828D01*
X50504767Y-31981237D01*
X50504767Y-31981238D01*
X50564807Y-32179164D01*
X50585080Y-32385000D01*
X50564807Y-32590836D01*
X50550663Y-32637463D01*
X50504767Y-32788763D01*
X50407267Y-32971172D01*
X50276054Y-33131054D01*
X50116172Y-33262267D01*
X49933763Y-33359767D01*
X49867787Y-33379780D01*
X49735836Y-33419807D01*
X49658707Y-33427403D01*
X49581580Y-33435000D01*
X49478420Y-33435000D01*
X49401293Y-33427403D01*
X49324164Y-33419807D01*
X49192213Y-33379780D01*
X49126237Y-33359767D01*
X48943828Y-33262267D01*
X48783946Y-33131054D01*
X48652733Y-32971172D01*
X48555233Y-32788763D01*
X48509337Y-32637463D01*
X48495193Y-32590836D01*
X48474920Y-32385000D01*
X48495193Y-32179164D01*
X48555233Y-31981238D01*
X48555233Y-31981237D01*
X48652733Y-31798828D01*
X48783946Y-31638946D01*
X48943828Y-31507733D01*
X49126237Y-31410233D01*
X49192213Y-31390220D01*
X49324164Y-31350193D01*
X49401293Y-31342597D01*
X49478420Y-31335000D01*
X49581580Y-31335000D01*
X49658707Y-31342597D01*
X49658707Y-31342597D01*
G37*
G36*
X52198707Y-31342597D02*
X52275836Y-31350193D01*
X52407787Y-31390220D01*
X52473763Y-31410233D01*
X52656172Y-31507733D01*
X52816054Y-31638946D01*
X52947267Y-31798828D01*
X53044767Y-31981237D01*
X53044767Y-31981238D01*
X53104807Y-32179164D01*
X53125080Y-32385000D01*
X53104807Y-32590836D01*
X53090663Y-32637463D01*
X53044767Y-32788763D01*
X52947267Y-32971172D01*
X52816054Y-33131054D01*
X52656172Y-33262267D01*
X52473763Y-33359767D01*
X52407787Y-33379780D01*
X52275836Y-33419807D01*
X52198707Y-33427403D01*
X52121580Y-33435000D01*
X52018420Y-33435000D01*
X51941293Y-33427403D01*
X51864164Y-33419807D01*
X51732213Y-33379780D01*
X51666237Y-33359767D01*
X51483828Y-33262267D01*
X51323946Y-33131054D01*
X51192733Y-32971172D01*
X51095233Y-32788763D01*
X51049337Y-32637463D01*
X51035193Y-32590836D01*
X51014920Y-32385000D01*
X51035193Y-32179164D01*
X51095233Y-31981238D01*
X51095233Y-31981237D01*
X51192733Y-31798828D01*
X51323946Y-31638946D01*
X51483828Y-31507733D01*
X51666237Y-31410233D01*
X51732213Y-31390220D01*
X51864164Y-31350193D01*
X51941293Y-31342597D01*
X52018420Y-31335000D01*
X52121580Y-31335000D01*
X52198707Y-31342597D01*
X52198707Y-31342597D01*
G37*
G36*
X61112560Y-25978759D02*
X61598298Y-26179958D01*
X61603930Y-26182291D01*
X61747101Y-26277955D01*
X62046153Y-26477775D01*
X62422225Y-26853847D01*
X62422227Y-26853850D01*
X62586141Y-27099164D01*
X62717710Y-27296072D01*
X62921241Y-27787440D01*
X63025000Y-28309072D01*
X63025000Y-28840928D01*
X62921241Y-29362560D01*
X62763934Y-29742333D01*
X62717709Y-29853930D01*
X62570355Y-30074461D01*
X62422225Y-30296153D01*
X62046153Y-30672225D01*
X62046150Y-30672227D01*
X61603930Y-30967709D01*
X61603929Y-30967710D01*
X61603928Y-30967710D01*
X61112560Y-31171241D01*
X60590928Y-31275000D01*
X60059072Y-31275000D01*
X59537440Y-31171241D01*
X59046072Y-30967710D01*
X59046071Y-30967710D01*
X59046070Y-30967709D01*
X58603850Y-30672227D01*
X58603847Y-30672225D01*
X58227775Y-30296153D01*
X58079645Y-30074461D01*
X57932291Y-29853930D01*
X57886066Y-29742333D01*
X57728759Y-29362560D01*
X57625000Y-28840928D01*
X57625000Y-28309072D01*
X57728759Y-27787440D01*
X57932290Y-27296072D01*
X58063860Y-27099164D01*
X58227773Y-26853850D01*
X58227775Y-26853847D01*
X58603847Y-26477775D01*
X58902899Y-26277955D01*
X59046070Y-26182291D01*
X59051702Y-26179958D01*
X59537440Y-25978759D01*
X60059072Y-25875000D01*
X60590928Y-25875000D01*
X61112560Y-25978759D01*
X61112560Y-25978759D01*
G37*
G36*
X42062560Y-25978759D02*
X42548298Y-26179958D01*
X42553930Y-26182291D01*
X42697101Y-26277955D01*
X42996153Y-26477775D01*
X43372225Y-26853847D01*
X43372227Y-26853850D01*
X43536141Y-27099164D01*
X43667710Y-27296072D01*
X43871241Y-27787440D01*
X43975000Y-28309072D01*
X43975000Y-28840928D01*
X43871241Y-29362560D01*
X43713934Y-29742333D01*
X43667709Y-29853930D01*
X43520355Y-30074461D01*
X43372225Y-30296153D01*
X42996153Y-30672225D01*
X42996150Y-30672227D01*
X42553930Y-30967709D01*
X42553929Y-30967710D01*
X42553928Y-30967710D01*
X42062560Y-31171241D01*
X41540928Y-31275000D01*
X41009072Y-31275000D01*
X40487440Y-31171241D01*
X39996072Y-30967710D01*
X39996071Y-30967710D01*
X39996070Y-30967709D01*
X39553850Y-30672227D01*
X39553847Y-30672225D01*
X39177775Y-30296153D01*
X39029645Y-30074461D01*
X38882291Y-29853930D01*
X38836066Y-29742333D01*
X38678759Y-29362560D01*
X38575000Y-28840928D01*
X38575000Y-28309072D01*
X38678759Y-27787440D01*
X38882290Y-27296072D01*
X39013860Y-27099164D01*
X39177773Y-26853850D01*
X39177775Y-26853847D01*
X39553847Y-26477775D01*
X39852899Y-26277955D01*
X39996070Y-26182291D01*
X40001702Y-26179958D01*
X40487440Y-25978759D01*
X41009072Y-25875000D01*
X41540928Y-25875000D01*
X42062560Y-25978759D01*
X42062560Y-25978759D01*
G37*
G36*
X27908040Y-27420067D02*
X28084333Y-27455134D01*
X28416461Y-27592706D01*
X28707899Y-27787439D01*
X28715372Y-27792432D01*
X28969568Y-28046628D01*
X28969570Y-28046631D01*
X29169294Y-28345539D01*
X29306866Y-28677667D01*
X29377000Y-29030253D01*
X29377000Y-29389747D01*
X29306866Y-29742333D01*
X29169294Y-30074461D01*
X29052829Y-30248763D01*
X28969568Y-30373372D01*
X28715372Y-30627568D01*
X28715369Y-30627570D01*
X28416461Y-30827294D01*
X28084333Y-30964866D01*
X27908040Y-30999933D01*
X27731748Y-31035000D01*
X27372252Y-31035000D01*
X27195960Y-30999933D01*
X27019667Y-30964866D01*
X26687539Y-30827294D01*
X26388631Y-30627570D01*
X26388628Y-30627568D01*
X26134432Y-30373372D01*
X26051171Y-30248763D01*
X25934706Y-30074461D01*
X25797134Y-29742333D01*
X25727000Y-29389747D01*
X25727000Y-29030253D01*
X25797134Y-28677667D01*
X25934706Y-28345539D01*
X26134430Y-28046631D01*
X26134432Y-28046628D01*
X26388628Y-27792432D01*
X26396101Y-27787439D01*
X26687539Y-27592706D01*
X27019667Y-27455134D01*
X27195960Y-27420067D01*
X27372252Y-27385000D01*
X27731748Y-27385000D01*
X27908040Y-27420067D01*
X27908040Y-27420067D01*
G37*
G36*
X52198707Y-28802596D02*
X52275836Y-28810193D01*
X52377156Y-28840928D01*
X52473763Y-28870233D01*
X52656172Y-28967733D01*
X52816054Y-29098946D01*
X52947267Y-29258828D01*
X53044767Y-29441237D01*
X53044767Y-29441238D01*
X53104807Y-29639164D01*
X53125080Y-29845000D01*
X53104807Y-30050836D01*
X53097640Y-30074461D01*
X53044767Y-30248763D01*
X52947267Y-30431172D01*
X52816054Y-30591054D01*
X52656172Y-30722267D01*
X52473763Y-30819767D01*
X52448949Y-30827294D01*
X52275836Y-30879807D01*
X52198707Y-30887403D01*
X52121580Y-30895000D01*
X52018420Y-30895000D01*
X51941293Y-30887403D01*
X51864164Y-30879807D01*
X51691051Y-30827294D01*
X51666237Y-30819767D01*
X51483828Y-30722267D01*
X51323946Y-30591054D01*
X51192733Y-30431172D01*
X51095233Y-30248763D01*
X51042360Y-30074461D01*
X51035193Y-30050836D01*
X51014920Y-29845000D01*
X51035193Y-29639164D01*
X51095233Y-29441238D01*
X51095233Y-29441237D01*
X51192733Y-29258828D01*
X51323946Y-29098946D01*
X51483828Y-28967733D01*
X51666237Y-28870233D01*
X51762844Y-28840928D01*
X51864164Y-28810193D01*
X51941293Y-28802596D01*
X52018420Y-28795000D01*
X52121580Y-28795000D01*
X52198707Y-28802596D01*
X52198707Y-28802596D01*
G37*
G36*
X49658707Y-28802596D02*
X49735836Y-28810193D01*
X49837156Y-28840928D01*
X49933763Y-28870233D01*
X50116172Y-28967733D01*
X50276054Y-29098946D01*
X50407267Y-29258828D01*
X50504767Y-29441237D01*
X50504767Y-29441238D01*
X50564807Y-29639164D01*
X50585080Y-29845000D01*
X50564807Y-30050836D01*
X50557640Y-30074461D01*
X50504767Y-30248763D01*
X50407267Y-30431172D01*
X50276054Y-30591054D01*
X50116172Y-30722267D01*
X49933763Y-30819767D01*
X49908949Y-30827294D01*
X49735836Y-30879807D01*
X49658707Y-30887403D01*
X49581580Y-30895000D01*
X49478420Y-30895000D01*
X49401293Y-30887403D01*
X49324164Y-30879807D01*
X49151051Y-30827294D01*
X49126237Y-30819767D01*
X48943828Y-30722267D01*
X48783946Y-30591054D01*
X48652733Y-30431172D01*
X48555233Y-30248763D01*
X48502360Y-30074461D01*
X48495193Y-30050836D01*
X48474920Y-29845000D01*
X48495193Y-29639164D01*
X48555233Y-29441238D01*
X48555233Y-29441237D01*
X48652733Y-29258828D01*
X48783946Y-29098946D01*
X48943828Y-28967733D01*
X49126237Y-28870233D01*
X49222844Y-28840928D01*
X49324164Y-28810193D01*
X49401293Y-28802596D01*
X49478420Y-28795000D01*
X49581580Y-28795000D01*
X49658707Y-28802596D01*
X49658707Y-28802596D01*
G37*
G36*
X31491196Y-26179958D02*
X31727780Y-26277954D01*
X31940705Y-26420226D01*
X32121774Y-26601295D01*
X32264046Y-26814220D01*
X32362042Y-27050804D01*
X32412000Y-27301960D01*
X32412000Y-27558040D01*
X32362042Y-27809196D01*
X32264046Y-28045780D01*
X32121774Y-28258705D01*
X31940705Y-28439774D01*
X31727780Y-28582046D01*
X31491196Y-28680042D01*
X31240040Y-28730000D01*
X30983960Y-28730000D01*
X30732804Y-28680042D01*
X30496220Y-28582046D01*
X30283295Y-28439774D01*
X30102226Y-28258705D01*
X29959954Y-28045780D01*
X29861958Y-27809196D01*
X29812000Y-27558040D01*
X29812000Y-27301960D01*
X29861958Y-27050804D01*
X29959954Y-26814220D01*
X30102226Y-26601295D01*
X30283295Y-26420226D01*
X30496220Y-26277954D01*
X30732804Y-26179958D01*
X30983960Y-26130000D01*
X31240040Y-26130000D01*
X31491196Y-26179958D01*
X31491196Y-26179958D01*
G37*
G36*
X52198707Y-26262597D02*
X52275836Y-26270193D01*
X52407787Y-26310220D01*
X52473763Y-26330233D01*
X52656172Y-26427733D01*
X52816054Y-26558946D01*
X52947267Y-26718828D01*
X53044767Y-26901237D01*
X53044767Y-26901238D01*
X53104807Y-27099164D01*
X53125080Y-27305000D01*
X53104807Y-27510836D01*
X53079972Y-27592706D01*
X53044767Y-27708763D01*
X52947267Y-27891172D01*
X52816054Y-28051054D01*
X52656172Y-28182267D01*
X52473763Y-28279767D01*
X52407787Y-28299780D01*
X52275836Y-28339807D01*
X52198707Y-28347403D01*
X52121580Y-28355000D01*
X52018420Y-28355000D01*
X51941293Y-28347403D01*
X51864164Y-28339807D01*
X51732213Y-28299780D01*
X51666237Y-28279767D01*
X51483828Y-28182267D01*
X51323946Y-28051054D01*
X51192733Y-27891172D01*
X51095233Y-27708763D01*
X51060028Y-27592706D01*
X51035193Y-27510836D01*
X51014920Y-27305000D01*
X51035193Y-27099164D01*
X51095233Y-26901238D01*
X51095233Y-26901237D01*
X51192733Y-26718828D01*
X51323946Y-26558946D01*
X51483828Y-26427733D01*
X51666237Y-26330233D01*
X51732213Y-26310220D01*
X51864164Y-26270193D01*
X51941293Y-26262596D01*
X52018420Y-26255000D01*
X52121580Y-26255000D01*
X52198707Y-26262597D01*
X52198707Y-26262597D01*
G37*
G36*
X49658707Y-26262597D02*
X49735836Y-26270193D01*
X49867787Y-26310220D01*
X49933763Y-26330233D01*
X50116172Y-26427733D01*
X50276054Y-26558946D01*
X50407267Y-26718828D01*
X50504767Y-26901237D01*
X50504767Y-26901238D01*
X50564807Y-27099164D01*
X50585080Y-27305000D01*
X50564807Y-27510836D01*
X50539972Y-27592706D01*
X50504767Y-27708763D01*
X50407267Y-27891172D01*
X50276054Y-28051054D01*
X50116172Y-28182267D01*
X49933763Y-28279767D01*
X49867787Y-28299780D01*
X49735836Y-28339807D01*
X49658707Y-28347403D01*
X49581580Y-28355000D01*
X49478420Y-28355000D01*
X49401293Y-28347403D01*
X49324164Y-28339807D01*
X49192213Y-28299780D01*
X49126237Y-28279767D01*
X48943828Y-28182267D01*
X48783946Y-28051054D01*
X48652733Y-27891172D01*
X48555233Y-27708763D01*
X48520028Y-27592706D01*
X48495193Y-27510836D01*
X48474920Y-27305000D01*
X48495193Y-27099164D01*
X48555233Y-26901238D01*
X48555233Y-26901237D01*
X48652733Y-26718828D01*
X48783946Y-26558946D01*
X48943828Y-26427733D01*
X49126237Y-26330233D01*
X49192213Y-26310220D01*
X49324164Y-26270193D01*
X49401293Y-26262596D01*
X49478420Y-26255000D01*
X49581580Y-26255000D01*
X49658707Y-26262597D01*
X49658707Y-26262597D01*
G37*
M02*
