G04 #@! TF.FileFunction,Paste,Top*
%FSLAX46Y46*%
G04 Gerber Fmt 4.6, Leading zero omitted, Abs format (unit mm)*
G04 Created by KiCad (PCBNEW 4.0.5) date 01/22/17 20:45:39*
%MOMM*%
%LPD*%
G01*
G04 APERTURE LIST*
%ADD10C,0.150000*%
%ADD11C,0.127000*%
%ADD12C,0.299720*%
%ADD13R,2.032000X1.524000*%
%ADD14R,1.397000X0.889000*%
%ADD15R,0.889000X1.397000*%
%ADD16O,0.812800X3.352800*%
%ADD17R,1.600200X1.803400*%
%ADD18R,0.635000X1.143000*%
%ADD19R,0.899200X1.000800*%
%ADD20R,1.000800X0.899200*%
%ADD21R,1.803400X1.193800*%
%ADD22R,1.803400X1.600200*%
%ADD23R,1.000800X0.599400*%
%ADD24R,3.200000X3.100000*%
%ADD25R,3.800000X3.100000*%
%ADD26R,1.600200X3.599200*%
%ADD27R,2.400000X0.760000*%
%ADD28R,0.760000X2.400000*%
%ADD29R,2.400000X1.500000*%
%ADD30R,1.100000X0.600000*%
%ADD31R,1.397000X3.810000*%
%ADD32R,1.143000X0.635000*%
%ADD33R,3.300000X1.500000*%
%ADD34R,1.000000X1.500000*%
%ADD35R,1.000000X0.900000*%
%ADD36R,1.500000X1.550000*%
%ADD37R,0.400000X1.350000*%
%ADD38R,1.200000X1.400000*%
%ADD39R,2.800000X1.400000*%
%ADD40R,0.300000X1.450000*%
%ADD41R,1.450000X0.300000*%
G04 APERTURE END LIST*
D10*
D11*
X106196191Y-22950714D02*
X107163810Y-22950714D01*
X106680000Y-23434524D02*
X106680000Y-22466905D01*
X24916191Y-162650714D02*
X25883810Y-162650714D01*
X25400000Y-163134524D02*
X25400000Y-162166905D01*
X106196191Y-162650714D02*
X107163810Y-162650714D01*
X106680000Y-163134524D02*
X106680000Y-162166905D01*
D12*
X32607794Y-173882776D02*
X32107414Y-173882776D01*
X32107414Y-174669087D02*
X32107414Y-173167947D01*
X32822243Y-173167947D01*
X33394105Y-174669087D02*
X33394105Y-173668327D01*
X33394105Y-173954259D02*
X33465588Y-173811293D01*
X33537071Y-173739810D01*
X33680037Y-173668327D01*
X33823002Y-173668327D01*
X34537831Y-174669087D02*
X34394865Y-174597604D01*
X34323382Y-174526121D01*
X34251899Y-174383156D01*
X34251899Y-173954259D01*
X34323382Y-173811293D01*
X34394865Y-173739810D01*
X34537831Y-173668327D01*
X34752279Y-173668327D01*
X34895245Y-173739810D01*
X34966728Y-173811293D01*
X35038211Y-173954259D01*
X35038211Y-174383156D01*
X34966728Y-174526121D01*
X34895245Y-174597604D01*
X34752279Y-174669087D01*
X34537831Y-174669087D01*
X35681556Y-173668327D02*
X35681556Y-174669087D01*
X35681556Y-173811293D02*
X35753039Y-173739810D01*
X35896005Y-173668327D01*
X36110453Y-173668327D01*
X36253419Y-173739810D01*
X36324902Y-173882776D01*
X36324902Y-174669087D01*
X36825282Y-173668327D02*
X37397145Y-173668327D01*
X37039730Y-173167947D02*
X37039730Y-174454639D01*
X37111213Y-174597604D01*
X37254179Y-174669087D01*
X37397145Y-174669087D01*
X38969767Y-174597604D02*
X39184216Y-174669087D01*
X39541630Y-174669087D01*
X39684596Y-174597604D01*
X39756079Y-174526121D01*
X39827562Y-174383156D01*
X39827562Y-174240190D01*
X39756079Y-174097224D01*
X39684596Y-174025741D01*
X39541630Y-173954259D01*
X39255699Y-173882776D01*
X39112733Y-173811293D01*
X39041250Y-173739810D01*
X38969767Y-173596844D01*
X38969767Y-173453879D01*
X39041250Y-173310913D01*
X39112733Y-173239430D01*
X39255699Y-173167947D01*
X39613113Y-173167947D01*
X39827562Y-173239430D01*
X40685356Y-174669087D02*
X40542390Y-174597604D01*
X40470907Y-174526121D01*
X40399424Y-174383156D01*
X40399424Y-173954259D01*
X40470907Y-173811293D01*
X40542390Y-173739810D01*
X40685356Y-173668327D01*
X40899804Y-173668327D01*
X41042770Y-173739810D01*
X41114253Y-173811293D01*
X41185736Y-173954259D01*
X41185736Y-174383156D01*
X41114253Y-174526121D01*
X41042770Y-174597604D01*
X40899804Y-174669087D01*
X40685356Y-174669087D01*
X42043530Y-174669087D02*
X41900564Y-174597604D01*
X41829081Y-174454639D01*
X41829081Y-173167947D01*
X43258738Y-174669087D02*
X43258738Y-173167947D01*
X43258738Y-174597604D02*
X43115772Y-174669087D01*
X42829841Y-174669087D01*
X42686875Y-174597604D01*
X42615392Y-174526121D01*
X42543909Y-174383156D01*
X42543909Y-173954259D01*
X42615392Y-173811293D01*
X42686875Y-173739810D01*
X42829841Y-173668327D01*
X43115772Y-173668327D01*
X43258738Y-173739810D01*
X44545429Y-174597604D02*
X44402463Y-174669087D01*
X44116532Y-174669087D01*
X43973566Y-174597604D01*
X43902083Y-174454639D01*
X43902083Y-173882776D01*
X43973566Y-173739810D01*
X44116532Y-173668327D01*
X44402463Y-173668327D01*
X44545429Y-173739810D01*
X44616912Y-173882776D01*
X44616912Y-174025741D01*
X43902083Y-174168707D01*
X45260257Y-174669087D02*
X45260257Y-173668327D01*
X45260257Y-173954259D02*
X45331740Y-173811293D01*
X45403223Y-173739810D01*
X45546189Y-173668327D01*
X45689154Y-173668327D01*
X47333260Y-174669087D02*
X47333260Y-173167947D01*
X47905123Y-173167947D01*
X48048089Y-173239430D01*
X48119572Y-173310913D01*
X48191055Y-173453879D01*
X48191055Y-173668327D01*
X48119572Y-173811293D01*
X48048089Y-173882776D01*
X47905123Y-173954259D01*
X47333260Y-173954259D01*
X49477746Y-174669087D02*
X49477746Y-173882776D01*
X49406263Y-173739810D01*
X49263297Y-173668327D01*
X48977366Y-173668327D01*
X48834400Y-173739810D01*
X49477746Y-174597604D02*
X49334780Y-174669087D01*
X48977366Y-174669087D01*
X48834400Y-174597604D01*
X48762917Y-174454639D01*
X48762917Y-174311673D01*
X48834400Y-174168707D01*
X48977366Y-174097224D01*
X49334780Y-174097224D01*
X49477746Y-174025741D01*
X50121091Y-174597604D02*
X50264057Y-174669087D01*
X50549989Y-174669087D01*
X50692954Y-174597604D01*
X50764437Y-174454639D01*
X50764437Y-174383156D01*
X50692954Y-174240190D01*
X50549989Y-174168707D01*
X50335540Y-174168707D01*
X50192574Y-174097224D01*
X50121091Y-173954259D01*
X50121091Y-173882776D01*
X50192574Y-173739810D01*
X50335540Y-173668327D01*
X50549989Y-173668327D01*
X50692954Y-173739810D01*
X51193335Y-173668327D02*
X51765198Y-173668327D01*
X51407783Y-173167947D02*
X51407783Y-174454639D01*
X51479266Y-174597604D01*
X51622232Y-174669087D01*
X51765198Y-174669087D01*
X52837440Y-174597604D02*
X52694474Y-174669087D01*
X52408543Y-174669087D01*
X52265577Y-174597604D01*
X52194094Y-174454639D01*
X52194094Y-173882776D01*
X52265577Y-173739810D01*
X52408543Y-173668327D01*
X52694474Y-173668327D01*
X52837440Y-173739810D01*
X52908923Y-173882776D01*
X52908923Y-174025741D01*
X52194094Y-174168707D01*
X54695994Y-174097224D02*
X55839720Y-174097224D01*
X58413103Y-174669087D02*
X57698274Y-174669087D01*
X57698274Y-173167947D01*
X59556829Y-174669087D02*
X59556829Y-173882776D01*
X59485346Y-173739810D01*
X59342380Y-173668327D01*
X59056449Y-173668327D01*
X58913483Y-173739810D01*
X59556829Y-174597604D02*
X59413863Y-174669087D01*
X59056449Y-174669087D01*
X58913483Y-174597604D01*
X58842000Y-174454639D01*
X58842000Y-174311673D01*
X58913483Y-174168707D01*
X59056449Y-174097224D01*
X59413863Y-174097224D01*
X59556829Y-174025741D01*
X60128692Y-173668327D02*
X60486106Y-174669087D01*
X60843520Y-173668327D02*
X60486106Y-174669087D01*
X60343140Y-175026501D01*
X60271657Y-175097984D01*
X60128692Y-175169467D01*
X61987246Y-174597604D02*
X61844280Y-174669087D01*
X61558349Y-174669087D01*
X61415383Y-174597604D01*
X61343900Y-174454639D01*
X61343900Y-173882776D01*
X61415383Y-173739810D01*
X61558349Y-173668327D01*
X61844280Y-173668327D01*
X61987246Y-173739810D01*
X62058729Y-173882776D01*
X62058729Y-174025741D01*
X61343900Y-174168707D01*
X62702074Y-174669087D02*
X62702074Y-173668327D01*
X62702074Y-173954259D02*
X62773557Y-173811293D01*
X62845040Y-173739810D01*
X62988006Y-173668327D01*
X63130971Y-173668327D01*
X65489906Y-173167947D02*
X64775077Y-173167947D01*
X64703594Y-173882776D01*
X64775077Y-173811293D01*
X64918043Y-173739810D01*
X65275457Y-173739810D01*
X65418423Y-173811293D01*
X65489906Y-173882776D01*
X65561389Y-174025741D01*
X65561389Y-174383156D01*
X65489906Y-174526121D01*
X65418423Y-174597604D01*
X65275457Y-174669087D01*
X64918043Y-174669087D01*
X64775077Y-174597604D01*
X64703594Y-174526121D01*
D13*
X89712800Y-54229000D03*
X89712800Y-50927000D03*
D14*
X78930500Y-89585800D03*
X78930500Y-87680800D03*
D15*
X85572600Y-120396000D03*
X87477600Y-120396000D03*
X89369900Y-113119000D03*
X91274900Y-113119000D03*
D16*
X91186000Y-156819600D03*
X92456000Y-156819600D03*
X93726000Y-156819600D03*
X94996000Y-156819600D03*
X96266000Y-156819600D03*
X97536000Y-156819600D03*
X98806000Y-156819600D03*
X100076000Y-156819600D03*
X103886000Y-143408400D03*
X102616000Y-143408400D03*
X101346000Y-143408400D03*
X100076000Y-143408400D03*
X98806000Y-143408400D03*
X97536000Y-143408400D03*
X96266000Y-143408400D03*
X94996000Y-143408400D03*
X93726000Y-143408400D03*
X92456000Y-143408400D03*
X91186000Y-143408400D03*
D17*
X88125300Y-115164000D03*
X90919300Y-115164000D03*
D18*
X80137000Y-153289000D03*
X81661000Y-153289000D03*
X79248000Y-153289000D03*
X77724000Y-153289000D03*
X81254600Y-151676000D03*
X82778600Y-151676000D03*
D17*
X85928200Y-122453000D03*
X88722200Y-122453000D03*
D19*
X81493400Y-119786000D03*
X82997000Y-119786000D03*
X85333800Y-111417000D03*
X83830200Y-111417000D03*
D17*
X87617300Y-105207000D03*
X84823300Y-105207000D03*
D19*
X90642400Y-110833000D03*
X89138800Y-110833000D03*
X90642400Y-107429000D03*
X89138800Y-107429000D03*
X83830200Y-107442000D03*
X85333800Y-107442000D03*
D17*
X90411300Y-102921000D03*
X87617300Y-102921000D03*
D19*
X85918000Y-102971600D03*
X84414400Y-102971600D03*
X85918000Y-101549200D03*
X84414400Y-101549200D03*
X71854100Y-90284300D03*
X73357700Y-90284300D03*
D20*
X61849000Y-121274800D03*
X61849000Y-119771200D03*
X65659000Y-119771200D03*
X65659000Y-121274800D03*
D19*
X73319600Y-126721000D03*
X71816000Y-126721000D03*
X75270400Y-126721000D03*
X76774000Y-126721000D03*
D21*
X72517000Y-125272800D03*
X76581000Y-125272800D03*
X76581000Y-122885200D03*
X72517000Y-122885200D03*
D17*
X87503000Y-129794000D03*
X84709000Y-129794000D03*
D19*
X92979200Y-138328000D03*
X91475600Y-138328000D03*
X96022200Y-139649000D03*
X97525800Y-139649000D03*
D17*
X102032000Y-140056000D03*
X99238000Y-140056000D03*
X100457000Y-121133000D03*
X97663000Y-121133000D03*
X100457000Y-102362000D03*
X97663000Y-102362000D03*
X100457000Y-83540600D03*
X97663000Y-83540600D03*
D22*
X89636600Y-59232800D03*
X89636600Y-56438800D03*
D17*
X100444300Y-64770000D03*
X97650300Y-64770000D03*
X103187000Y-45974000D03*
X100393000Y-45974000D03*
X103124000Y-43307000D03*
X100330000Y-43307000D03*
D19*
X79258200Y-71628000D03*
X80761800Y-71628000D03*
D20*
X77254100Y-88072000D03*
X77254100Y-89575600D03*
D19*
X78704400Y-91033600D03*
X77200800Y-91033600D03*
D20*
X62242700Y-91818500D03*
X62242700Y-93322100D03*
X64020700Y-93322100D03*
X64020700Y-91818500D03*
D19*
X62443400Y-88417400D03*
X63947000Y-88417400D03*
D23*
X62494200Y-85153500D03*
X64607400Y-86106000D03*
X62494200Y-87058500D03*
D19*
X56581000Y-104736900D03*
X55077400Y-104736900D03*
X56581000Y-106210000D03*
X55077400Y-106210000D03*
D22*
X69570600Y-139852000D03*
X69570600Y-137058000D03*
X60464700Y-139891000D03*
X60464700Y-137097000D03*
D24*
X29700000Y-49290000D03*
D25*
X37100000Y-57390000D03*
D24*
X27800000Y-57390000D03*
X29700000Y-63260000D03*
D25*
X37100000Y-71360000D03*
D24*
X27800000Y-71360000D03*
X29700000Y-77230000D03*
D25*
X37100000Y-85330000D03*
D24*
X27800000Y-85330000D03*
X29700000Y-91200000D03*
D25*
X37100000Y-99300000D03*
D24*
X27800000Y-99300000D03*
X29700000Y-105170000D03*
D25*
X37100000Y-113270000D03*
D24*
X27800000Y-113270000D03*
X29700000Y-119140000D03*
D25*
X37100000Y-127240000D03*
D24*
X27800000Y-127240000D03*
X29700000Y-133110000D03*
D25*
X37100000Y-141210000D03*
D24*
X27800000Y-141210000D03*
X29700000Y-147080000D03*
D25*
X37100000Y-155180000D03*
D24*
X27800000Y-155180000D03*
D26*
X74168000Y-144406800D03*
X74168000Y-138905200D03*
X74168000Y-129558200D03*
X74168000Y-135059800D03*
D27*
X88310000Y-137160000D03*
X84410000Y-137160000D03*
X88310000Y-135890000D03*
X84410000Y-135890000D03*
X88310000Y-134620000D03*
X84410000Y-134620000D03*
X88310000Y-133350000D03*
X84410000Y-133350000D03*
X88310000Y-132080000D03*
X84410000Y-132080000D03*
D28*
X52832000Y-145460000D03*
X52832000Y-141560000D03*
X54102000Y-145460000D03*
X54102000Y-141560000D03*
X55372000Y-145460000D03*
X55372000Y-141560000D03*
X56642000Y-145460000D03*
X56642000Y-141560000D03*
X57912000Y-145460000D03*
X57912000Y-141560000D03*
D29*
X91616700Y-109131000D03*
D30*
X86066700Y-109581000D03*
X86066700Y-108681000D03*
D20*
X74066400Y-156118200D03*
X74066400Y-157621800D03*
D31*
X75717400Y-148742400D03*
X71145400Y-148742400D03*
D32*
X52451000Y-137541000D03*
X52451000Y-139065000D03*
X54356000Y-137541000D03*
X54356000Y-139065000D03*
X56388000Y-137541000D03*
X56388000Y-139065000D03*
X58420000Y-137541000D03*
X58420000Y-139065000D03*
X57378600Y-156972000D03*
X57378600Y-158496000D03*
D18*
X81483200Y-118288000D03*
X83007200Y-118288000D03*
X83007200Y-116040000D03*
X84531200Y-116040000D03*
X91744800Y-105537000D03*
X90220800Y-105537000D03*
X82753200Y-114478000D03*
X84277200Y-114478000D03*
X96596200Y-60172600D03*
X95072200Y-60172600D03*
X97815400Y-60172600D03*
X99339400Y-60172600D03*
X73482200Y-87198200D03*
X71958200Y-87198200D03*
X73482200Y-88785700D03*
X71958200Y-88785700D03*
D33*
X65036700Y-135267000D03*
D34*
X62786700Y-141567000D03*
X64286700Y-141567000D03*
X65786700Y-141567000D03*
X67286700Y-141567000D03*
D35*
X55025000Y-156026000D03*
X52925000Y-156026000D03*
X53975000Y-158426000D03*
D32*
X57378600Y-154153000D03*
X57378600Y-155677000D03*
D36*
X81010000Y-158570000D03*
X79010000Y-158570000D03*
D37*
X79360000Y-155895000D03*
X78710000Y-155895000D03*
X80010000Y-155895000D03*
X80660000Y-155895000D03*
X81310000Y-155895000D03*
D38*
X42080000Y-156016000D03*
X44280000Y-156016000D03*
D39*
X43180000Y-153416000D03*
D38*
X42080000Y-149920000D03*
X44280000Y-149920000D03*
D39*
X43180000Y-147320000D03*
D38*
X42080000Y-142046000D03*
X44280000Y-142046000D03*
D39*
X43180000Y-139446000D03*
D38*
X42080000Y-135950000D03*
X44280000Y-135950000D03*
D39*
X43180000Y-133350000D03*
D38*
X42080000Y-128076000D03*
X44280000Y-128076000D03*
D39*
X43180000Y-125476000D03*
D38*
X42080000Y-121980000D03*
X44280000Y-121980000D03*
D39*
X43180000Y-119380000D03*
D38*
X42080000Y-114106000D03*
X44280000Y-114106000D03*
D39*
X43180000Y-111506000D03*
D38*
X42080000Y-108010000D03*
X44280000Y-108010000D03*
D39*
X43180000Y-105410000D03*
D38*
X42080000Y-100136000D03*
X44280000Y-100136000D03*
D39*
X43180000Y-97536000D03*
D38*
X42080000Y-94040000D03*
X44280000Y-94040000D03*
D39*
X43180000Y-91440000D03*
D38*
X42080000Y-86166000D03*
X44280000Y-86166000D03*
D39*
X43180000Y-83566000D03*
D38*
X42080000Y-80070000D03*
X44280000Y-80070000D03*
D39*
X43180000Y-77470000D03*
D38*
X42080000Y-72196000D03*
X44280000Y-72196000D03*
D39*
X43180000Y-69596000D03*
D38*
X42080000Y-66100000D03*
X44280000Y-66100000D03*
D39*
X43180000Y-63500000D03*
D38*
X42080000Y-58226000D03*
X44280000Y-58226000D03*
D39*
X43180000Y-55626000D03*
D38*
X42080000Y-52130000D03*
X44280000Y-52130000D03*
D39*
X43180000Y-49530000D03*
D40*
X61353700Y-117380000D03*
X61861700Y-117380000D03*
X62357000Y-117380000D03*
X62852300Y-117380000D03*
X63360300Y-117380000D03*
X63855600Y-117380000D03*
X64350900Y-117380000D03*
X64858900Y-117380000D03*
X65354200Y-117380000D03*
X65849500Y-117380000D03*
X66357500Y-117380000D03*
X66852800Y-117380000D03*
X67348100Y-117380000D03*
X67856100Y-117380000D03*
X68351400Y-117380000D03*
X68846700Y-117380000D03*
X69354700Y-117380000D03*
X69850000Y-117380000D03*
X70358000Y-117380000D03*
X70853300Y-117380000D03*
X71361300Y-117380000D03*
X71856600Y-117380000D03*
X72351900Y-117380000D03*
X72859900Y-117380000D03*
X73355200Y-117380000D03*
X73850500Y-117380000D03*
X74358500Y-117380000D03*
X74853800Y-117380000D03*
X75349100Y-117380000D03*
X75857100Y-117380000D03*
X76352400Y-117380000D03*
X76847700Y-117380000D03*
X77355700Y-117380000D03*
X77851000Y-117380000D03*
X78346300Y-117380000D03*
X78854300Y-117380000D03*
D41*
X80804000Y-100926900D03*
X80804000Y-100431600D03*
X80804000Y-99936300D03*
X80804000Y-99428300D03*
X80804000Y-98933000D03*
X80804000Y-98437700D03*
X80804000Y-97929700D03*
X59404000Y-100431600D03*
X59404000Y-100926900D03*
X59404000Y-101434900D03*
X59404000Y-101930200D03*
X59404000Y-102425500D03*
X59404000Y-102933500D03*
X59404000Y-103428800D03*
X59404000Y-103924100D03*
X59404000Y-104432100D03*
X59404000Y-104927400D03*
X59404000Y-105422700D03*
X59404000Y-105930700D03*
X59404000Y-106426000D03*
X59404000Y-106934000D03*
X59404000Y-107429300D03*
X59404000Y-107937300D03*
X59404000Y-108432600D03*
X59404000Y-108927900D03*
X59404000Y-109435900D03*
X59404000Y-109931200D03*
X59404000Y-110426500D03*
X59404000Y-110934500D03*
X59404000Y-111429800D03*
X59404000Y-111925100D03*
X59404000Y-112433100D03*
X59404000Y-112928400D03*
X59404000Y-113423700D03*
X59404000Y-113931700D03*
X59404000Y-114427000D03*
X59404000Y-114922300D03*
X59404000Y-115430300D03*
X80804000Y-115430300D03*
X80804000Y-114922300D03*
X80804000Y-114427000D03*
X80804000Y-113931700D03*
X80804000Y-113423700D03*
X80804000Y-112928400D03*
X80804000Y-112433100D03*
X80804000Y-111925100D03*
X80804000Y-111429800D03*
X80804000Y-110934500D03*
X80804000Y-110426500D03*
X80804000Y-109931200D03*
X80804000Y-109435900D03*
X80804000Y-108927900D03*
X80804000Y-108432600D03*
X80804000Y-107937300D03*
X80804000Y-107429300D03*
X80804000Y-106934000D03*
X80804000Y-106426000D03*
X80804000Y-105930700D03*
X80804000Y-105422700D03*
X80804000Y-104927400D03*
X80804000Y-104432100D03*
X80804000Y-103924100D03*
X80804000Y-103428800D03*
X80804000Y-102933500D03*
X80804000Y-102425500D03*
X80804000Y-101930200D03*
X80804000Y-101434900D03*
D40*
X76352400Y-95980000D03*
X75857100Y-95980000D03*
X75349100Y-95980000D03*
X74853800Y-95980000D03*
X74358500Y-95980000D03*
X73850500Y-95980000D03*
X73355200Y-95980000D03*
X72859900Y-95980000D03*
X72351900Y-95980000D03*
X71856600Y-95980000D03*
X71361300Y-95980000D03*
X70853300Y-95980000D03*
X70358000Y-95980000D03*
X69850000Y-95980000D03*
X69354700Y-95980000D03*
X68846700Y-95980000D03*
X68351400Y-95980000D03*
X67856100Y-95980000D03*
X67348100Y-95980000D03*
X66852800Y-95980000D03*
X66357500Y-95980000D03*
X65849500Y-95980000D03*
X65354200Y-95980000D03*
X64858900Y-95980000D03*
X64350900Y-95980000D03*
X63855600Y-95980000D03*
X63360300Y-95980000D03*
X62852300Y-95980000D03*
X62357000Y-95980000D03*
X61861700Y-95980000D03*
X61353700Y-95980000D03*
X78854300Y-95980000D03*
X78346300Y-95980000D03*
X77851000Y-95980000D03*
X77355700Y-95980000D03*
X76847700Y-95980000D03*
D41*
X59404000Y-97929700D03*
X59404000Y-98437700D03*
X59404000Y-98933000D03*
X59404000Y-99428300D03*
X59404000Y-99936300D03*
M02*
