G04 #@! TF.FileFunction,Copper,L2,Bot,Signal*
%FSLAX46Y46*%
G04 Gerber Fmt 4.6, Leading zero omitted, Abs format (unit mm)*
G04 Created by KiCad (PCBNEW 4.0.7) date 01/10/18 16:34:53*
%MOMM*%
%LPD*%
G01*
G04 APERTURE LIST*
%ADD10C,0.100000*%
%ADD11C,2.200000*%
%ADD12C,1.600000*%
%ADD13R,1.700000X1.700000*%
%ADD14O,1.700000X1.700000*%
%ADD15R,3.500000X3.500000*%
%ADD16C,5.000000*%
%ADD17C,1.016000*%
%ADD18C,0.609600*%
%ADD19C,1.016000*%
%ADD20C,0.508000*%
%ADD21C,0.500000*%
%ADD22C,0.254000*%
G04 APERTURE END LIST*
D10*
D11*
X45210000Y-62360000D03*
X61470000Y-62360000D03*
D12*
X52840000Y-63380000D03*
X54870000Y-63380000D03*
X51810000Y-61600000D03*
X53840000Y-61600000D03*
X49780000Y-61600000D03*
X50810000Y-63380000D03*
X55870000Y-61600000D03*
X56900000Y-63380000D03*
D13*
X35560000Y-49022000D03*
D14*
X35560000Y-51562000D03*
X35560000Y-54102000D03*
D13*
X35560000Y-58928000D03*
D14*
X35560000Y-61468000D03*
X35560000Y-64008000D03*
D15*
X69850000Y-57404000D03*
X69850000Y-63404000D03*
X74550000Y-60404000D03*
X38100000Y-39116000D03*
X38100000Y-33116000D03*
X33400000Y-36116000D03*
X50546000Y-39116000D03*
X50546000Y-33116000D03*
X45846000Y-36116000D03*
X62992000Y-39116000D03*
X62992000Y-33116000D03*
X58292000Y-36116000D03*
X75946000Y-39116000D03*
X75946000Y-33116000D03*
X71246000Y-36116000D03*
D16*
X27940000Y-27940000D03*
X83820000Y-27940000D03*
X27940000Y-68580000D03*
X83820000Y-68580000D03*
D17*
X44196000Y-50800000D03*
X59944000Y-48665000D03*
X59690000Y-45212000D03*
D18*
X65532000Y-53086000D03*
X76200000Y-69850000D03*
X41910000Y-42418000D03*
X54356000Y-42672000D03*
X74422000Y-52578000D03*
X78232000Y-51054000D03*
X74168000Y-49784000D03*
X66802000Y-51816000D03*
X67564000Y-42164000D03*
X81026000Y-42672000D03*
X79502000Y-64770000D03*
X76200000Y-64770000D03*
X55372000Y-48768000D03*
X56388000Y-51308000D03*
X52578000Y-51308000D03*
X41783000Y-41148000D03*
X49530000Y-45847000D03*
D19*
X59944000Y-48665000D02*
X58317000Y-48665000D01*
X44196000Y-49022000D02*
X44196000Y-50800000D01*
X45974000Y-47244000D02*
X44196000Y-49022000D01*
X56896000Y-47244000D02*
X45974000Y-47244000D01*
X58317000Y-48665000D02*
X56896000Y-47244000D01*
X59690000Y-48411000D02*
X59690000Y-45212000D01*
X59690000Y-48411000D02*
X59944000Y-48665000D01*
D20*
X76200000Y-64770000D02*
X79502000Y-64770000D01*
X55372000Y-50292000D02*
X55372000Y-48768000D01*
X56388000Y-51308000D02*
X55372000Y-50292000D01*
X55870000Y-61600000D02*
X55870000Y-54600000D01*
X55870000Y-54600000D02*
X52578000Y-51308000D01*
D21*
X41498000Y-33116000D02*
X38100000Y-33116000D01*
X41656000Y-33274000D02*
X41498000Y-33116000D01*
X41656000Y-41021000D02*
X41656000Y-33274000D01*
X41783000Y-41148000D02*
X41656000Y-41021000D01*
X53848000Y-34798000D02*
X52228000Y-34798000D01*
X54102000Y-35052000D02*
X53848000Y-34798000D01*
X54102000Y-37465000D02*
X54102000Y-35052000D01*
X56134000Y-39497000D02*
X54102000Y-37465000D01*
X56134000Y-44450000D02*
X56134000Y-39497000D01*
X54610000Y-45974000D02*
X56134000Y-44450000D01*
X49657000Y-45974000D02*
X54610000Y-45974000D01*
X49530000Y-45847000D02*
X49657000Y-45974000D01*
X52228000Y-34798000D02*
X50546000Y-33116000D01*
D22*
G36*
X81163826Y-26161847D02*
X80685546Y-27313674D01*
X80684457Y-28560854D01*
X81160727Y-29713515D01*
X82041847Y-30596174D01*
X83193674Y-31074454D01*
X84440854Y-31075543D01*
X85593515Y-30599273D01*
X85650000Y-30542886D01*
X85650000Y-65975764D01*
X85598153Y-65923826D01*
X84446326Y-65445546D01*
X83199146Y-65444457D01*
X82046485Y-65920727D01*
X81163826Y-66801847D01*
X80685546Y-67953674D01*
X80684457Y-69200854D01*
X81160727Y-70353515D01*
X81217114Y-70410000D01*
X30544236Y-70410000D01*
X30596174Y-70358153D01*
X31074454Y-69206326D01*
X31075543Y-67959146D01*
X30599273Y-66806485D01*
X29718153Y-65923826D01*
X28566326Y-65445546D01*
X27319146Y-65444457D01*
X26166485Y-65920727D01*
X26110000Y-65977114D01*
X26110000Y-64364890D01*
X34118524Y-64364890D01*
X34288355Y-64774924D01*
X34678642Y-65203183D01*
X35203108Y-65449486D01*
X35433000Y-65328819D01*
X35433000Y-64135000D01*
X35687000Y-64135000D01*
X35687000Y-65328819D01*
X35916892Y-65449486D01*
X36441358Y-65203183D01*
X36831645Y-64774924D01*
X37001476Y-64364890D01*
X36880155Y-64135000D01*
X35687000Y-64135000D01*
X35433000Y-64135000D01*
X34239845Y-64135000D01*
X34118524Y-64364890D01*
X26110000Y-64364890D01*
X26110000Y-61468000D01*
X34045907Y-61468000D01*
X34158946Y-62036285D01*
X34480853Y-62518054D01*
X34821553Y-62745702D01*
X34678642Y-62812817D01*
X34288355Y-63241076D01*
X34118524Y-63651110D01*
X34239845Y-63881000D01*
X35433000Y-63881000D01*
X35433000Y-63861000D01*
X35687000Y-63861000D01*
X35687000Y-63881000D01*
X36880155Y-63881000D01*
X37001476Y-63651110D01*
X36974040Y-63584868D01*
X44164737Y-63584868D01*
X44275641Y-63862099D01*
X44921593Y-64105323D01*
X45611453Y-64082836D01*
X45645645Y-64068673D01*
X45075182Y-64638141D01*
X44730393Y-65468486D01*
X44729609Y-66367570D01*
X45072948Y-67198515D01*
X45708141Y-67834818D01*
X46538486Y-68179607D01*
X47437570Y-68180391D01*
X48268515Y-67837052D01*
X48904818Y-67201859D01*
X49249607Y-66371514D01*
X49249610Y-66367570D01*
X57429609Y-66367570D01*
X57772948Y-67198515D01*
X58408141Y-67834818D01*
X59238486Y-68179607D01*
X60137570Y-68180391D01*
X60968515Y-67837052D01*
X61604818Y-67201859D01*
X61949607Y-66371514D01*
X61950391Y-65472430D01*
X61607052Y-64641485D01*
X61005717Y-64039100D01*
X61181593Y-64105323D01*
X61871453Y-64082836D01*
X62404359Y-63862099D01*
X62473305Y-63689750D01*
X67465000Y-63689750D01*
X67465000Y-65280309D01*
X67561673Y-65513698D01*
X67740301Y-65692327D01*
X67973690Y-65789000D01*
X69564250Y-65789000D01*
X69723000Y-65630250D01*
X69723000Y-63531000D01*
X69977000Y-63531000D01*
X69977000Y-65630250D01*
X70135750Y-65789000D01*
X71726310Y-65789000D01*
X71959699Y-65692327D01*
X72138327Y-65513698D01*
X72235000Y-65280309D01*
X72235000Y-64956118D01*
X75260037Y-64956118D01*
X75402812Y-65301659D01*
X75666951Y-65566259D01*
X76012242Y-65709637D01*
X76386118Y-65709963D01*
X76509458Y-65659000D01*
X79192295Y-65659000D01*
X79314242Y-65709637D01*
X79688118Y-65709963D01*
X80033659Y-65567188D01*
X80298259Y-65303049D01*
X80441637Y-64957758D01*
X80441963Y-64583882D01*
X80299188Y-64238341D01*
X80035049Y-63973741D01*
X79689758Y-63830363D01*
X79315882Y-63830037D01*
X79192542Y-63881000D01*
X76509705Y-63881000D01*
X76387758Y-63830363D01*
X76013882Y-63830037D01*
X75668341Y-63972812D01*
X75403741Y-64236951D01*
X75260363Y-64582242D01*
X75260037Y-64956118D01*
X72235000Y-64956118D01*
X72235000Y-63689750D01*
X72076250Y-63531000D01*
X69977000Y-63531000D01*
X69723000Y-63531000D01*
X67623750Y-63531000D01*
X67465000Y-63689750D01*
X62473305Y-63689750D01*
X62515263Y-63584868D01*
X61470000Y-62539605D01*
X60424737Y-63584868D01*
X60517387Y-63816469D01*
X60141514Y-63660393D01*
X59242430Y-63659609D01*
X58411485Y-64002948D01*
X57775182Y-64638141D01*
X57430393Y-65468486D01*
X57429609Y-66367570D01*
X49249610Y-66367570D01*
X49250391Y-65472430D01*
X48907052Y-64641485D01*
X48271859Y-64005182D01*
X47441514Y-63660393D01*
X46542430Y-63659609D01*
X46162576Y-63816561D01*
X46255263Y-63584868D01*
X45210000Y-62539605D01*
X44164737Y-63584868D01*
X36974040Y-63584868D01*
X36831645Y-63241076D01*
X36441358Y-62812817D01*
X36298447Y-62745702D01*
X36639147Y-62518054D01*
X36937462Y-62071593D01*
X43464677Y-62071593D01*
X43487164Y-62761453D01*
X43707901Y-63294359D01*
X43985132Y-63405263D01*
X45030395Y-62360000D01*
X45389605Y-62360000D01*
X46434868Y-63405263D01*
X46712099Y-63294359D01*
X46955323Y-62648407D01*
X46953998Y-62607745D01*
X48951861Y-62607745D01*
X49025995Y-62853864D01*
X49416406Y-62994193D01*
X49375250Y-63093309D01*
X49374752Y-63664187D01*
X49592757Y-64191800D01*
X49996077Y-64595824D01*
X50523309Y-64814750D01*
X51094187Y-64815248D01*
X51621800Y-64597243D01*
X51825001Y-64394397D01*
X52026077Y-64595824D01*
X52553309Y-64814750D01*
X53124187Y-64815248D01*
X53651800Y-64597243D01*
X53855001Y-64394397D01*
X54056077Y-64595824D01*
X54583309Y-64814750D01*
X55154187Y-64815248D01*
X55681800Y-64597243D01*
X55885001Y-64394397D01*
X56086077Y-64595824D01*
X56613309Y-64814750D01*
X57184187Y-64815248D01*
X57711800Y-64597243D01*
X58115824Y-64193923D01*
X58334750Y-63666691D01*
X58335248Y-63095813D01*
X58117243Y-62568200D01*
X57713923Y-62164176D01*
X57490959Y-62071593D01*
X59724677Y-62071593D01*
X59747164Y-62761453D01*
X59967901Y-63294359D01*
X60245132Y-63405263D01*
X61290395Y-62360000D01*
X61649605Y-62360000D01*
X62694868Y-63405263D01*
X62972099Y-63294359D01*
X63215323Y-62648407D01*
X63192836Y-61958547D01*
X63014370Y-61527691D01*
X67465000Y-61527691D01*
X67465000Y-63118250D01*
X67623750Y-63277000D01*
X69723000Y-63277000D01*
X69723000Y-61177750D01*
X69564250Y-61019000D01*
X67973690Y-61019000D01*
X67740301Y-61115673D01*
X67561673Y-61294302D01*
X67465000Y-61527691D01*
X63014370Y-61527691D01*
X62972099Y-61425641D01*
X62694868Y-61314737D01*
X61649605Y-62360000D01*
X61290395Y-62360000D01*
X60245132Y-61314737D01*
X59967901Y-61425641D01*
X59724677Y-62071593D01*
X57490959Y-62071593D01*
X57266648Y-61978451D01*
X57304750Y-61886691D01*
X57305248Y-61315813D01*
X57230593Y-61135132D01*
X60424737Y-61135132D01*
X61470000Y-62180395D01*
X62515263Y-61135132D01*
X62404359Y-60857901D01*
X61758407Y-60614677D01*
X61068547Y-60637164D01*
X60535641Y-60857901D01*
X60424737Y-61135132D01*
X57230593Y-61135132D01*
X57087243Y-60788200D01*
X56759000Y-60459384D01*
X56759000Y-55654000D01*
X67452560Y-55654000D01*
X67452560Y-59154000D01*
X67496838Y-59389317D01*
X67635910Y-59605441D01*
X67848110Y-59750431D01*
X68100000Y-59801440D01*
X71600000Y-59801440D01*
X71835317Y-59757162D01*
X72051441Y-59618090D01*
X72152560Y-59470097D01*
X72152560Y-61328663D01*
X72138327Y-61294302D01*
X71959699Y-61115673D01*
X71726310Y-61019000D01*
X70135750Y-61019000D01*
X69977000Y-61177750D01*
X69977000Y-63277000D01*
X72076250Y-63277000D01*
X72235000Y-63118250D01*
X72235000Y-62448622D01*
X72335910Y-62605441D01*
X72548110Y-62750431D01*
X72800000Y-62801440D01*
X76300000Y-62801440D01*
X76535317Y-62757162D01*
X76751441Y-62618090D01*
X76896431Y-62405890D01*
X76947440Y-62154000D01*
X76947440Y-58654000D01*
X76903162Y-58418683D01*
X76764090Y-58202559D01*
X76551890Y-58057569D01*
X76300000Y-58006560D01*
X72800000Y-58006560D01*
X72564683Y-58050838D01*
X72348559Y-58189910D01*
X72247440Y-58337903D01*
X72247440Y-55654000D01*
X72203162Y-55418683D01*
X72064090Y-55202559D01*
X71851890Y-55057569D01*
X71600000Y-55006560D01*
X68100000Y-55006560D01*
X67864683Y-55050838D01*
X67648559Y-55189910D01*
X67503569Y-55402110D01*
X67452560Y-55654000D01*
X56759000Y-55654000D01*
X56759000Y-54600000D01*
X56691329Y-54259794D01*
X56498618Y-53971382D01*
X53425612Y-50898376D01*
X53375188Y-50776341D01*
X53111049Y-50511741D01*
X52765758Y-50368363D01*
X52391882Y-50368037D01*
X52046341Y-50510812D01*
X51781741Y-50774951D01*
X51638363Y-51120242D01*
X51638037Y-51494118D01*
X51780812Y-51839659D01*
X52044951Y-52104259D01*
X52168201Y-52155437D01*
X54981000Y-54968236D01*
X54981000Y-60459822D01*
X54854999Y-60585603D01*
X54653923Y-60384176D01*
X54126691Y-60165250D01*
X53555813Y-60164752D01*
X53028200Y-60382757D01*
X52824999Y-60585603D01*
X52623923Y-60384176D01*
X52096691Y-60165250D01*
X51525813Y-60164752D01*
X50998200Y-60382757D01*
X50594176Y-60786077D01*
X50466819Y-61092787D01*
X49959605Y-61600000D01*
X49973748Y-61614143D01*
X49794143Y-61793748D01*
X49780000Y-61779605D01*
X48951861Y-62607745D01*
X46953998Y-62607745D01*
X46932836Y-61958547D01*
X46712099Y-61425641D01*
X46606066Y-61383223D01*
X48333035Y-61383223D01*
X48360222Y-61953454D01*
X48526136Y-62354005D01*
X48772255Y-62428139D01*
X49600395Y-61600000D01*
X48772255Y-60771861D01*
X48526136Y-60845995D01*
X48333035Y-61383223D01*
X46606066Y-61383223D01*
X46434868Y-61314737D01*
X45389605Y-62360000D01*
X45030395Y-62360000D01*
X43985132Y-61314737D01*
X43707901Y-61425641D01*
X43464677Y-62071593D01*
X36937462Y-62071593D01*
X36961054Y-62036285D01*
X37074093Y-61468000D01*
X37007882Y-61135132D01*
X44164737Y-61135132D01*
X45210000Y-62180395D01*
X46255263Y-61135132D01*
X46144359Y-60857901D01*
X45498407Y-60614677D01*
X44808547Y-60637164D01*
X44275641Y-60857901D01*
X44164737Y-61135132D01*
X37007882Y-61135132D01*
X36961054Y-60899715D01*
X36755617Y-60592255D01*
X48951861Y-60592255D01*
X49780000Y-61420395D01*
X50608139Y-60592255D01*
X50534005Y-60346136D01*
X49996777Y-60153035D01*
X49426546Y-60180222D01*
X49025995Y-60346136D01*
X48951861Y-60592255D01*
X36755617Y-60592255D01*
X36639147Y-60417946D01*
X36597548Y-60390150D01*
X36645317Y-60381162D01*
X36861441Y-60242090D01*
X37006431Y-60029890D01*
X37057440Y-59778000D01*
X37057440Y-58078000D01*
X37013162Y-57842683D01*
X36874090Y-57626559D01*
X36661890Y-57481569D01*
X36410000Y-57430560D01*
X34710000Y-57430560D01*
X34474683Y-57474838D01*
X34258559Y-57613910D01*
X34113569Y-57826110D01*
X34062560Y-58078000D01*
X34062560Y-59778000D01*
X34106838Y-60013317D01*
X34245910Y-60229441D01*
X34458110Y-60374431D01*
X34525541Y-60388086D01*
X34480853Y-60417946D01*
X34158946Y-60899715D01*
X34045907Y-61468000D01*
X26110000Y-61468000D01*
X26110000Y-54458890D01*
X34118524Y-54458890D01*
X34288355Y-54868924D01*
X34678642Y-55297183D01*
X35203108Y-55543486D01*
X35433000Y-55422819D01*
X35433000Y-54229000D01*
X35687000Y-54229000D01*
X35687000Y-55422819D01*
X35916892Y-55543486D01*
X36441358Y-55297183D01*
X36831645Y-54868924D01*
X37001476Y-54458890D01*
X36880155Y-54229000D01*
X35687000Y-54229000D01*
X35433000Y-54229000D01*
X34239845Y-54229000D01*
X34118524Y-54458890D01*
X26110000Y-54458890D01*
X26110000Y-51562000D01*
X34045907Y-51562000D01*
X34158946Y-52130285D01*
X34480853Y-52612054D01*
X34821553Y-52839702D01*
X34678642Y-52906817D01*
X34288355Y-53335076D01*
X34118524Y-53745110D01*
X34239845Y-53975000D01*
X35433000Y-53975000D01*
X35433000Y-53955000D01*
X35687000Y-53955000D01*
X35687000Y-53975000D01*
X36880155Y-53975000D01*
X37001476Y-53745110D01*
X36831645Y-53335076D01*
X36441358Y-52906817D01*
X36298447Y-52839702D01*
X36639147Y-52612054D01*
X36961054Y-52130285D01*
X37074093Y-51562000D01*
X36967548Y-51026359D01*
X43052802Y-51026359D01*
X43226446Y-51446612D01*
X43547697Y-51768423D01*
X43967646Y-51942801D01*
X44422359Y-51943198D01*
X44842612Y-51769554D01*
X45164423Y-51448303D01*
X45338801Y-51028354D01*
X45339198Y-50573641D01*
X45339000Y-50573162D01*
X45339000Y-49495446D01*
X46447446Y-48387000D01*
X54512604Y-48387000D01*
X54432363Y-48580242D01*
X54432037Y-48954118D01*
X54483000Y-49077458D01*
X54483000Y-50292000D01*
X54550671Y-50632206D01*
X54646979Y-50776341D01*
X54743382Y-50920618D01*
X55540388Y-51717624D01*
X55590812Y-51839659D01*
X55854951Y-52104259D01*
X56200242Y-52247637D01*
X56574118Y-52247963D01*
X56919659Y-52105188D01*
X57184259Y-51841049D01*
X57327637Y-51495758D01*
X57327963Y-51121882D01*
X57185188Y-50776341D01*
X56921049Y-50511741D01*
X56797799Y-50460563D01*
X56261000Y-49923764D01*
X56261000Y-49077705D01*
X56311637Y-48955758D01*
X56311963Y-48581882D01*
X56231439Y-48387000D01*
X56422554Y-48387000D01*
X57508777Y-49473223D01*
X57879593Y-49720994D01*
X58317000Y-49808000D01*
X59943575Y-49808000D01*
X60170359Y-49808198D01*
X60590612Y-49634554D01*
X60912423Y-49313303D01*
X61086801Y-48893354D01*
X61087198Y-48438641D01*
X60913554Y-48018388D01*
X60833000Y-47937694D01*
X60833000Y-45212000D01*
X60833198Y-44985641D01*
X60659554Y-44565388D01*
X60338303Y-44243577D01*
X59918354Y-44069199D01*
X59463641Y-44068802D01*
X59043388Y-44242446D01*
X58721577Y-44563697D01*
X58547199Y-44983646D01*
X58546802Y-45438359D01*
X58547000Y-45438838D01*
X58547000Y-47278554D01*
X57704223Y-46435777D01*
X57333407Y-46188006D01*
X56896000Y-46101000D01*
X55734580Y-46101000D01*
X56759787Y-45075792D01*
X56759790Y-45075790D01*
X56951633Y-44788675D01*
X57019000Y-44450000D01*
X57019000Y-39497005D01*
X57019001Y-39497000D01*
X56951633Y-39158326D01*
X56951633Y-39158325D01*
X56759790Y-38871210D01*
X56759787Y-38871208D01*
X56366474Y-38477895D01*
X56542000Y-38513440D01*
X60042000Y-38513440D01*
X60277317Y-38469162D01*
X60493441Y-38330090D01*
X60594560Y-38182097D01*
X60594560Y-40866000D01*
X60638838Y-41101317D01*
X60777910Y-41317441D01*
X60990110Y-41462431D01*
X61242000Y-41513440D01*
X64742000Y-41513440D01*
X64977317Y-41469162D01*
X65193441Y-41330090D01*
X65338431Y-41117890D01*
X65389440Y-40866000D01*
X65389440Y-37366000D01*
X65345162Y-37130683D01*
X65206090Y-36914559D01*
X64993890Y-36769569D01*
X64742000Y-36718560D01*
X61242000Y-36718560D01*
X61006683Y-36762838D01*
X60790559Y-36901910D01*
X60689440Y-37049903D01*
X60689440Y-35179955D01*
X60777910Y-35317441D01*
X60990110Y-35462431D01*
X61242000Y-35513440D01*
X64742000Y-35513440D01*
X64977317Y-35469162D01*
X65193441Y-35330090D01*
X65338431Y-35117890D01*
X65389440Y-34866000D01*
X65389440Y-34366000D01*
X68848560Y-34366000D01*
X68848560Y-37866000D01*
X68892838Y-38101317D01*
X69031910Y-38317441D01*
X69244110Y-38462431D01*
X69496000Y-38513440D01*
X72996000Y-38513440D01*
X73231317Y-38469162D01*
X73447441Y-38330090D01*
X73548560Y-38182097D01*
X73548560Y-40866000D01*
X73592838Y-41101317D01*
X73731910Y-41317441D01*
X73944110Y-41462431D01*
X74196000Y-41513440D01*
X77696000Y-41513440D01*
X77931317Y-41469162D01*
X78147441Y-41330090D01*
X78292431Y-41117890D01*
X78343440Y-40866000D01*
X78343440Y-37366000D01*
X78299162Y-37130683D01*
X78160090Y-36914559D01*
X77947890Y-36769569D01*
X77696000Y-36718560D01*
X74196000Y-36718560D01*
X73960683Y-36762838D01*
X73744559Y-36901910D01*
X73643440Y-37049903D01*
X73643440Y-35179955D01*
X73731910Y-35317441D01*
X73944110Y-35462431D01*
X74196000Y-35513440D01*
X77696000Y-35513440D01*
X77931317Y-35469162D01*
X78147441Y-35330090D01*
X78292431Y-35117890D01*
X78343440Y-34866000D01*
X78343440Y-31366000D01*
X78299162Y-31130683D01*
X78160090Y-30914559D01*
X77947890Y-30769569D01*
X77696000Y-30718560D01*
X74196000Y-30718560D01*
X73960683Y-30762838D01*
X73744559Y-30901910D01*
X73599569Y-31114110D01*
X73548560Y-31366000D01*
X73548560Y-34052045D01*
X73460090Y-33914559D01*
X73247890Y-33769569D01*
X72996000Y-33718560D01*
X69496000Y-33718560D01*
X69260683Y-33762838D01*
X69044559Y-33901910D01*
X68899569Y-34114110D01*
X68848560Y-34366000D01*
X65389440Y-34366000D01*
X65389440Y-31366000D01*
X65345162Y-31130683D01*
X65206090Y-30914559D01*
X64993890Y-30769569D01*
X64742000Y-30718560D01*
X61242000Y-30718560D01*
X61006683Y-30762838D01*
X60790559Y-30901910D01*
X60645569Y-31114110D01*
X60594560Y-31366000D01*
X60594560Y-34052045D01*
X60506090Y-33914559D01*
X60293890Y-33769569D01*
X60042000Y-33718560D01*
X56542000Y-33718560D01*
X56306683Y-33762838D01*
X56090559Y-33901910D01*
X55945569Y-34114110D01*
X55894560Y-34366000D01*
X55894560Y-37866000D01*
X55927004Y-38038425D01*
X54987000Y-37098420D01*
X54987000Y-35052005D01*
X54987001Y-35052000D01*
X54919633Y-34713325D01*
X54727790Y-34426210D01*
X54727787Y-34426208D01*
X54473790Y-34172210D01*
X54411640Y-34130683D01*
X54186675Y-33980367D01*
X54130484Y-33969190D01*
X53848000Y-33912999D01*
X53847995Y-33913000D01*
X52943440Y-33913000D01*
X52943440Y-31366000D01*
X52899162Y-31130683D01*
X52760090Y-30914559D01*
X52547890Y-30769569D01*
X52296000Y-30718560D01*
X48796000Y-30718560D01*
X48560683Y-30762838D01*
X48344559Y-30901910D01*
X48199569Y-31114110D01*
X48148560Y-31366000D01*
X48148560Y-34052045D01*
X48060090Y-33914559D01*
X47847890Y-33769569D01*
X47596000Y-33718560D01*
X44096000Y-33718560D01*
X43860683Y-33762838D01*
X43644559Y-33901910D01*
X43499569Y-34114110D01*
X43448560Y-34366000D01*
X43448560Y-37866000D01*
X43492838Y-38101317D01*
X43631910Y-38317441D01*
X43844110Y-38462431D01*
X44096000Y-38513440D01*
X47596000Y-38513440D01*
X47831317Y-38469162D01*
X48047441Y-38330090D01*
X48148560Y-38182097D01*
X48148560Y-40866000D01*
X48192838Y-41101317D01*
X48331910Y-41317441D01*
X48544110Y-41462431D01*
X48796000Y-41513440D01*
X52296000Y-41513440D01*
X52531317Y-41469162D01*
X52747441Y-41330090D01*
X52892431Y-41117890D01*
X52943440Y-40866000D01*
X52943440Y-37366000D01*
X52899162Y-37130683D01*
X52760090Y-36914559D01*
X52547890Y-36769569D01*
X52296000Y-36718560D01*
X48796000Y-36718560D01*
X48560683Y-36762838D01*
X48344559Y-36901910D01*
X48243440Y-37049903D01*
X48243440Y-35179955D01*
X48331910Y-35317441D01*
X48544110Y-35462431D01*
X48796000Y-35513440D01*
X51736381Y-35513440D01*
X51889325Y-35615633D01*
X52228000Y-35683001D01*
X52228005Y-35683000D01*
X53217000Y-35683000D01*
X53217000Y-37464995D01*
X53216999Y-37465000D01*
X53273190Y-37747484D01*
X53284367Y-37803675D01*
X53476210Y-38090790D01*
X55249000Y-39863579D01*
X55249000Y-44083421D01*
X54243420Y-45089000D01*
X50101241Y-45089000D01*
X50063049Y-45050741D01*
X49717758Y-44907363D01*
X49343882Y-44907037D01*
X48998341Y-45049812D01*
X48733741Y-45313951D01*
X48590363Y-45659242D01*
X48590037Y-46033118D01*
X48618085Y-46101000D01*
X45974000Y-46101000D01*
X45536593Y-46188006D01*
X45165777Y-46435777D01*
X43387777Y-48213777D01*
X43140006Y-48584593D01*
X43053000Y-49022000D01*
X43053000Y-50799575D01*
X43052802Y-51026359D01*
X36967548Y-51026359D01*
X36961054Y-50993715D01*
X36639147Y-50511946D01*
X36597548Y-50484150D01*
X36645317Y-50475162D01*
X36861441Y-50336090D01*
X37006431Y-50123890D01*
X37057440Y-49872000D01*
X37057440Y-48172000D01*
X37013162Y-47936683D01*
X36874090Y-47720559D01*
X36661890Y-47575569D01*
X36410000Y-47524560D01*
X34710000Y-47524560D01*
X34474683Y-47568838D01*
X34258559Y-47707910D01*
X34113569Y-47920110D01*
X34062560Y-48172000D01*
X34062560Y-49872000D01*
X34106838Y-50107317D01*
X34245910Y-50323441D01*
X34458110Y-50468431D01*
X34525541Y-50482086D01*
X34480853Y-50511946D01*
X34158946Y-50993715D01*
X34045907Y-51562000D01*
X26110000Y-51562000D01*
X26110000Y-34366000D01*
X31002560Y-34366000D01*
X31002560Y-37866000D01*
X31046838Y-38101317D01*
X31185910Y-38317441D01*
X31398110Y-38462431D01*
X31650000Y-38513440D01*
X35150000Y-38513440D01*
X35385317Y-38469162D01*
X35601441Y-38330090D01*
X35702560Y-38182097D01*
X35702560Y-40866000D01*
X35746838Y-41101317D01*
X35885910Y-41317441D01*
X36098110Y-41462431D01*
X36350000Y-41513440D01*
X39850000Y-41513440D01*
X40085317Y-41469162D01*
X40301441Y-41330090D01*
X40446431Y-41117890D01*
X40497440Y-40866000D01*
X40497440Y-37366000D01*
X40453162Y-37130683D01*
X40314090Y-36914559D01*
X40101890Y-36769569D01*
X39850000Y-36718560D01*
X36350000Y-36718560D01*
X36114683Y-36762838D01*
X35898559Y-36901910D01*
X35797440Y-37049903D01*
X35797440Y-35179955D01*
X35885910Y-35317441D01*
X36098110Y-35462431D01*
X36350000Y-35513440D01*
X39850000Y-35513440D01*
X40085317Y-35469162D01*
X40301441Y-35330090D01*
X40446431Y-35117890D01*
X40497440Y-34866000D01*
X40497440Y-34001000D01*
X40771000Y-34001000D01*
X40771000Y-41020995D01*
X40770999Y-41021000D01*
X40827190Y-41303484D01*
X40838367Y-41359675D01*
X40878277Y-41419405D01*
X40985812Y-41679659D01*
X41249951Y-41944259D01*
X41595242Y-42087637D01*
X41969118Y-42087963D01*
X42314659Y-41945188D01*
X42579259Y-41681049D01*
X42722637Y-41335758D01*
X42722963Y-40961882D01*
X42580188Y-40616341D01*
X42541000Y-40577085D01*
X42541000Y-33274005D01*
X42541001Y-33274000D01*
X42473633Y-32935326D01*
X42473633Y-32935325D01*
X42281790Y-32648210D01*
X42281787Y-32648208D01*
X42123790Y-32490210D01*
X42073140Y-32456367D01*
X41836675Y-32298367D01*
X41780484Y-32287190D01*
X41498000Y-32230999D01*
X41497995Y-32231000D01*
X40497440Y-32231000D01*
X40497440Y-31366000D01*
X40453162Y-31130683D01*
X40314090Y-30914559D01*
X40101890Y-30769569D01*
X39850000Y-30718560D01*
X36350000Y-30718560D01*
X36114683Y-30762838D01*
X35898559Y-30901910D01*
X35753569Y-31114110D01*
X35702560Y-31366000D01*
X35702560Y-34052045D01*
X35614090Y-33914559D01*
X35401890Y-33769569D01*
X35150000Y-33718560D01*
X31650000Y-33718560D01*
X31414683Y-33762838D01*
X31198559Y-33901910D01*
X31053569Y-34114110D01*
X31002560Y-34366000D01*
X26110000Y-34366000D01*
X26110000Y-30544236D01*
X26161847Y-30596174D01*
X27313674Y-31074454D01*
X28560854Y-31075543D01*
X29713515Y-30599273D01*
X30596174Y-29718153D01*
X31074454Y-28566326D01*
X31075543Y-27319146D01*
X30599273Y-26166485D01*
X30542886Y-26110000D01*
X81215764Y-26110000D01*
X81163826Y-26161847D01*
X81163826Y-26161847D01*
G37*
X81163826Y-26161847D02*
X80685546Y-27313674D01*
X80684457Y-28560854D01*
X81160727Y-29713515D01*
X82041847Y-30596174D01*
X83193674Y-31074454D01*
X84440854Y-31075543D01*
X85593515Y-30599273D01*
X85650000Y-30542886D01*
X85650000Y-65975764D01*
X85598153Y-65923826D01*
X84446326Y-65445546D01*
X83199146Y-65444457D01*
X82046485Y-65920727D01*
X81163826Y-66801847D01*
X80685546Y-67953674D01*
X80684457Y-69200854D01*
X81160727Y-70353515D01*
X81217114Y-70410000D01*
X30544236Y-70410000D01*
X30596174Y-70358153D01*
X31074454Y-69206326D01*
X31075543Y-67959146D01*
X30599273Y-66806485D01*
X29718153Y-65923826D01*
X28566326Y-65445546D01*
X27319146Y-65444457D01*
X26166485Y-65920727D01*
X26110000Y-65977114D01*
X26110000Y-64364890D01*
X34118524Y-64364890D01*
X34288355Y-64774924D01*
X34678642Y-65203183D01*
X35203108Y-65449486D01*
X35433000Y-65328819D01*
X35433000Y-64135000D01*
X35687000Y-64135000D01*
X35687000Y-65328819D01*
X35916892Y-65449486D01*
X36441358Y-65203183D01*
X36831645Y-64774924D01*
X37001476Y-64364890D01*
X36880155Y-64135000D01*
X35687000Y-64135000D01*
X35433000Y-64135000D01*
X34239845Y-64135000D01*
X34118524Y-64364890D01*
X26110000Y-64364890D01*
X26110000Y-61468000D01*
X34045907Y-61468000D01*
X34158946Y-62036285D01*
X34480853Y-62518054D01*
X34821553Y-62745702D01*
X34678642Y-62812817D01*
X34288355Y-63241076D01*
X34118524Y-63651110D01*
X34239845Y-63881000D01*
X35433000Y-63881000D01*
X35433000Y-63861000D01*
X35687000Y-63861000D01*
X35687000Y-63881000D01*
X36880155Y-63881000D01*
X37001476Y-63651110D01*
X36974040Y-63584868D01*
X44164737Y-63584868D01*
X44275641Y-63862099D01*
X44921593Y-64105323D01*
X45611453Y-64082836D01*
X45645645Y-64068673D01*
X45075182Y-64638141D01*
X44730393Y-65468486D01*
X44729609Y-66367570D01*
X45072948Y-67198515D01*
X45708141Y-67834818D01*
X46538486Y-68179607D01*
X47437570Y-68180391D01*
X48268515Y-67837052D01*
X48904818Y-67201859D01*
X49249607Y-66371514D01*
X49249610Y-66367570D01*
X57429609Y-66367570D01*
X57772948Y-67198515D01*
X58408141Y-67834818D01*
X59238486Y-68179607D01*
X60137570Y-68180391D01*
X60968515Y-67837052D01*
X61604818Y-67201859D01*
X61949607Y-66371514D01*
X61950391Y-65472430D01*
X61607052Y-64641485D01*
X61005717Y-64039100D01*
X61181593Y-64105323D01*
X61871453Y-64082836D01*
X62404359Y-63862099D01*
X62473305Y-63689750D01*
X67465000Y-63689750D01*
X67465000Y-65280309D01*
X67561673Y-65513698D01*
X67740301Y-65692327D01*
X67973690Y-65789000D01*
X69564250Y-65789000D01*
X69723000Y-65630250D01*
X69723000Y-63531000D01*
X69977000Y-63531000D01*
X69977000Y-65630250D01*
X70135750Y-65789000D01*
X71726310Y-65789000D01*
X71959699Y-65692327D01*
X72138327Y-65513698D01*
X72235000Y-65280309D01*
X72235000Y-64956118D01*
X75260037Y-64956118D01*
X75402812Y-65301659D01*
X75666951Y-65566259D01*
X76012242Y-65709637D01*
X76386118Y-65709963D01*
X76509458Y-65659000D01*
X79192295Y-65659000D01*
X79314242Y-65709637D01*
X79688118Y-65709963D01*
X80033659Y-65567188D01*
X80298259Y-65303049D01*
X80441637Y-64957758D01*
X80441963Y-64583882D01*
X80299188Y-64238341D01*
X80035049Y-63973741D01*
X79689758Y-63830363D01*
X79315882Y-63830037D01*
X79192542Y-63881000D01*
X76509705Y-63881000D01*
X76387758Y-63830363D01*
X76013882Y-63830037D01*
X75668341Y-63972812D01*
X75403741Y-64236951D01*
X75260363Y-64582242D01*
X75260037Y-64956118D01*
X72235000Y-64956118D01*
X72235000Y-63689750D01*
X72076250Y-63531000D01*
X69977000Y-63531000D01*
X69723000Y-63531000D01*
X67623750Y-63531000D01*
X67465000Y-63689750D01*
X62473305Y-63689750D01*
X62515263Y-63584868D01*
X61470000Y-62539605D01*
X60424737Y-63584868D01*
X60517387Y-63816469D01*
X60141514Y-63660393D01*
X59242430Y-63659609D01*
X58411485Y-64002948D01*
X57775182Y-64638141D01*
X57430393Y-65468486D01*
X57429609Y-66367570D01*
X49249610Y-66367570D01*
X49250391Y-65472430D01*
X48907052Y-64641485D01*
X48271859Y-64005182D01*
X47441514Y-63660393D01*
X46542430Y-63659609D01*
X46162576Y-63816561D01*
X46255263Y-63584868D01*
X45210000Y-62539605D01*
X44164737Y-63584868D01*
X36974040Y-63584868D01*
X36831645Y-63241076D01*
X36441358Y-62812817D01*
X36298447Y-62745702D01*
X36639147Y-62518054D01*
X36937462Y-62071593D01*
X43464677Y-62071593D01*
X43487164Y-62761453D01*
X43707901Y-63294359D01*
X43985132Y-63405263D01*
X45030395Y-62360000D01*
X45389605Y-62360000D01*
X46434868Y-63405263D01*
X46712099Y-63294359D01*
X46955323Y-62648407D01*
X46953998Y-62607745D01*
X48951861Y-62607745D01*
X49025995Y-62853864D01*
X49416406Y-62994193D01*
X49375250Y-63093309D01*
X49374752Y-63664187D01*
X49592757Y-64191800D01*
X49996077Y-64595824D01*
X50523309Y-64814750D01*
X51094187Y-64815248D01*
X51621800Y-64597243D01*
X51825001Y-64394397D01*
X52026077Y-64595824D01*
X52553309Y-64814750D01*
X53124187Y-64815248D01*
X53651800Y-64597243D01*
X53855001Y-64394397D01*
X54056077Y-64595824D01*
X54583309Y-64814750D01*
X55154187Y-64815248D01*
X55681800Y-64597243D01*
X55885001Y-64394397D01*
X56086077Y-64595824D01*
X56613309Y-64814750D01*
X57184187Y-64815248D01*
X57711800Y-64597243D01*
X58115824Y-64193923D01*
X58334750Y-63666691D01*
X58335248Y-63095813D01*
X58117243Y-62568200D01*
X57713923Y-62164176D01*
X57490959Y-62071593D01*
X59724677Y-62071593D01*
X59747164Y-62761453D01*
X59967901Y-63294359D01*
X60245132Y-63405263D01*
X61290395Y-62360000D01*
X61649605Y-62360000D01*
X62694868Y-63405263D01*
X62972099Y-63294359D01*
X63215323Y-62648407D01*
X63192836Y-61958547D01*
X63014370Y-61527691D01*
X67465000Y-61527691D01*
X67465000Y-63118250D01*
X67623750Y-63277000D01*
X69723000Y-63277000D01*
X69723000Y-61177750D01*
X69564250Y-61019000D01*
X67973690Y-61019000D01*
X67740301Y-61115673D01*
X67561673Y-61294302D01*
X67465000Y-61527691D01*
X63014370Y-61527691D01*
X62972099Y-61425641D01*
X62694868Y-61314737D01*
X61649605Y-62360000D01*
X61290395Y-62360000D01*
X60245132Y-61314737D01*
X59967901Y-61425641D01*
X59724677Y-62071593D01*
X57490959Y-62071593D01*
X57266648Y-61978451D01*
X57304750Y-61886691D01*
X57305248Y-61315813D01*
X57230593Y-61135132D01*
X60424737Y-61135132D01*
X61470000Y-62180395D01*
X62515263Y-61135132D01*
X62404359Y-60857901D01*
X61758407Y-60614677D01*
X61068547Y-60637164D01*
X60535641Y-60857901D01*
X60424737Y-61135132D01*
X57230593Y-61135132D01*
X57087243Y-60788200D01*
X56759000Y-60459384D01*
X56759000Y-55654000D01*
X67452560Y-55654000D01*
X67452560Y-59154000D01*
X67496838Y-59389317D01*
X67635910Y-59605441D01*
X67848110Y-59750431D01*
X68100000Y-59801440D01*
X71600000Y-59801440D01*
X71835317Y-59757162D01*
X72051441Y-59618090D01*
X72152560Y-59470097D01*
X72152560Y-61328663D01*
X72138327Y-61294302D01*
X71959699Y-61115673D01*
X71726310Y-61019000D01*
X70135750Y-61019000D01*
X69977000Y-61177750D01*
X69977000Y-63277000D01*
X72076250Y-63277000D01*
X72235000Y-63118250D01*
X72235000Y-62448622D01*
X72335910Y-62605441D01*
X72548110Y-62750431D01*
X72800000Y-62801440D01*
X76300000Y-62801440D01*
X76535317Y-62757162D01*
X76751441Y-62618090D01*
X76896431Y-62405890D01*
X76947440Y-62154000D01*
X76947440Y-58654000D01*
X76903162Y-58418683D01*
X76764090Y-58202559D01*
X76551890Y-58057569D01*
X76300000Y-58006560D01*
X72800000Y-58006560D01*
X72564683Y-58050838D01*
X72348559Y-58189910D01*
X72247440Y-58337903D01*
X72247440Y-55654000D01*
X72203162Y-55418683D01*
X72064090Y-55202559D01*
X71851890Y-55057569D01*
X71600000Y-55006560D01*
X68100000Y-55006560D01*
X67864683Y-55050838D01*
X67648559Y-55189910D01*
X67503569Y-55402110D01*
X67452560Y-55654000D01*
X56759000Y-55654000D01*
X56759000Y-54600000D01*
X56691329Y-54259794D01*
X56498618Y-53971382D01*
X53425612Y-50898376D01*
X53375188Y-50776341D01*
X53111049Y-50511741D01*
X52765758Y-50368363D01*
X52391882Y-50368037D01*
X52046341Y-50510812D01*
X51781741Y-50774951D01*
X51638363Y-51120242D01*
X51638037Y-51494118D01*
X51780812Y-51839659D01*
X52044951Y-52104259D01*
X52168201Y-52155437D01*
X54981000Y-54968236D01*
X54981000Y-60459822D01*
X54854999Y-60585603D01*
X54653923Y-60384176D01*
X54126691Y-60165250D01*
X53555813Y-60164752D01*
X53028200Y-60382757D01*
X52824999Y-60585603D01*
X52623923Y-60384176D01*
X52096691Y-60165250D01*
X51525813Y-60164752D01*
X50998200Y-60382757D01*
X50594176Y-60786077D01*
X50466819Y-61092787D01*
X49959605Y-61600000D01*
X49973748Y-61614143D01*
X49794143Y-61793748D01*
X49780000Y-61779605D01*
X48951861Y-62607745D01*
X46953998Y-62607745D01*
X46932836Y-61958547D01*
X46712099Y-61425641D01*
X46606066Y-61383223D01*
X48333035Y-61383223D01*
X48360222Y-61953454D01*
X48526136Y-62354005D01*
X48772255Y-62428139D01*
X49600395Y-61600000D01*
X48772255Y-60771861D01*
X48526136Y-60845995D01*
X48333035Y-61383223D01*
X46606066Y-61383223D01*
X46434868Y-61314737D01*
X45389605Y-62360000D01*
X45030395Y-62360000D01*
X43985132Y-61314737D01*
X43707901Y-61425641D01*
X43464677Y-62071593D01*
X36937462Y-62071593D01*
X36961054Y-62036285D01*
X37074093Y-61468000D01*
X37007882Y-61135132D01*
X44164737Y-61135132D01*
X45210000Y-62180395D01*
X46255263Y-61135132D01*
X46144359Y-60857901D01*
X45498407Y-60614677D01*
X44808547Y-60637164D01*
X44275641Y-60857901D01*
X44164737Y-61135132D01*
X37007882Y-61135132D01*
X36961054Y-60899715D01*
X36755617Y-60592255D01*
X48951861Y-60592255D01*
X49780000Y-61420395D01*
X50608139Y-60592255D01*
X50534005Y-60346136D01*
X49996777Y-60153035D01*
X49426546Y-60180222D01*
X49025995Y-60346136D01*
X48951861Y-60592255D01*
X36755617Y-60592255D01*
X36639147Y-60417946D01*
X36597548Y-60390150D01*
X36645317Y-60381162D01*
X36861441Y-60242090D01*
X37006431Y-60029890D01*
X37057440Y-59778000D01*
X37057440Y-58078000D01*
X37013162Y-57842683D01*
X36874090Y-57626559D01*
X36661890Y-57481569D01*
X36410000Y-57430560D01*
X34710000Y-57430560D01*
X34474683Y-57474838D01*
X34258559Y-57613910D01*
X34113569Y-57826110D01*
X34062560Y-58078000D01*
X34062560Y-59778000D01*
X34106838Y-60013317D01*
X34245910Y-60229441D01*
X34458110Y-60374431D01*
X34525541Y-60388086D01*
X34480853Y-60417946D01*
X34158946Y-60899715D01*
X34045907Y-61468000D01*
X26110000Y-61468000D01*
X26110000Y-54458890D01*
X34118524Y-54458890D01*
X34288355Y-54868924D01*
X34678642Y-55297183D01*
X35203108Y-55543486D01*
X35433000Y-55422819D01*
X35433000Y-54229000D01*
X35687000Y-54229000D01*
X35687000Y-55422819D01*
X35916892Y-55543486D01*
X36441358Y-55297183D01*
X36831645Y-54868924D01*
X37001476Y-54458890D01*
X36880155Y-54229000D01*
X35687000Y-54229000D01*
X35433000Y-54229000D01*
X34239845Y-54229000D01*
X34118524Y-54458890D01*
X26110000Y-54458890D01*
X26110000Y-51562000D01*
X34045907Y-51562000D01*
X34158946Y-52130285D01*
X34480853Y-52612054D01*
X34821553Y-52839702D01*
X34678642Y-52906817D01*
X34288355Y-53335076D01*
X34118524Y-53745110D01*
X34239845Y-53975000D01*
X35433000Y-53975000D01*
X35433000Y-53955000D01*
X35687000Y-53955000D01*
X35687000Y-53975000D01*
X36880155Y-53975000D01*
X37001476Y-53745110D01*
X36831645Y-53335076D01*
X36441358Y-52906817D01*
X36298447Y-52839702D01*
X36639147Y-52612054D01*
X36961054Y-52130285D01*
X37074093Y-51562000D01*
X36967548Y-51026359D01*
X43052802Y-51026359D01*
X43226446Y-51446612D01*
X43547697Y-51768423D01*
X43967646Y-51942801D01*
X44422359Y-51943198D01*
X44842612Y-51769554D01*
X45164423Y-51448303D01*
X45338801Y-51028354D01*
X45339198Y-50573641D01*
X45339000Y-50573162D01*
X45339000Y-49495446D01*
X46447446Y-48387000D01*
X54512604Y-48387000D01*
X54432363Y-48580242D01*
X54432037Y-48954118D01*
X54483000Y-49077458D01*
X54483000Y-50292000D01*
X54550671Y-50632206D01*
X54646979Y-50776341D01*
X54743382Y-50920618D01*
X55540388Y-51717624D01*
X55590812Y-51839659D01*
X55854951Y-52104259D01*
X56200242Y-52247637D01*
X56574118Y-52247963D01*
X56919659Y-52105188D01*
X57184259Y-51841049D01*
X57327637Y-51495758D01*
X57327963Y-51121882D01*
X57185188Y-50776341D01*
X56921049Y-50511741D01*
X56797799Y-50460563D01*
X56261000Y-49923764D01*
X56261000Y-49077705D01*
X56311637Y-48955758D01*
X56311963Y-48581882D01*
X56231439Y-48387000D01*
X56422554Y-48387000D01*
X57508777Y-49473223D01*
X57879593Y-49720994D01*
X58317000Y-49808000D01*
X59943575Y-49808000D01*
X60170359Y-49808198D01*
X60590612Y-49634554D01*
X60912423Y-49313303D01*
X61086801Y-48893354D01*
X61087198Y-48438641D01*
X60913554Y-48018388D01*
X60833000Y-47937694D01*
X60833000Y-45212000D01*
X60833198Y-44985641D01*
X60659554Y-44565388D01*
X60338303Y-44243577D01*
X59918354Y-44069199D01*
X59463641Y-44068802D01*
X59043388Y-44242446D01*
X58721577Y-44563697D01*
X58547199Y-44983646D01*
X58546802Y-45438359D01*
X58547000Y-45438838D01*
X58547000Y-47278554D01*
X57704223Y-46435777D01*
X57333407Y-46188006D01*
X56896000Y-46101000D01*
X55734580Y-46101000D01*
X56759787Y-45075792D01*
X56759790Y-45075790D01*
X56951633Y-44788675D01*
X57019000Y-44450000D01*
X57019000Y-39497005D01*
X57019001Y-39497000D01*
X56951633Y-39158326D01*
X56951633Y-39158325D01*
X56759790Y-38871210D01*
X56759787Y-38871208D01*
X56366474Y-38477895D01*
X56542000Y-38513440D01*
X60042000Y-38513440D01*
X60277317Y-38469162D01*
X60493441Y-38330090D01*
X60594560Y-38182097D01*
X60594560Y-40866000D01*
X60638838Y-41101317D01*
X60777910Y-41317441D01*
X60990110Y-41462431D01*
X61242000Y-41513440D01*
X64742000Y-41513440D01*
X64977317Y-41469162D01*
X65193441Y-41330090D01*
X65338431Y-41117890D01*
X65389440Y-40866000D01*
X65389440Y-37366000D01*
X65345162Y-37130683D01*
X65206090Y-36914559D01*
X64993890Y-36769569D01*
X64742000Y-36718560D01*
X61242000Y-36718560D01*
X61006683Y-36762838D01*
X60790559Y-36901910D01*
X60689440Y-37049903D01*
X60689440Y-35179955D01*
X60777910Y-35317441D01*
X60990110Y-35462431D01*
X61242000Y-35513440D01*
X64742000Y-35513440D01*
X64977317Y-35469162D01*
X65193441Y-35330090D01*
X65338431Y-35117890D01*
X65389440Y-34866000D01*
X65389440Y-34366000D01*
X68848560Y-34366000D01*
X68848560Y-37866000D01*
X68892838Y-38101317D01*
X69031910Y-38317441D01*
X69244110Y-38462431D01*
X69496000Y-38513440D01*
X72996000Y-38513440D01*
X73231317Y-38469162D01*
X73447441Y-38330090D01*
X73548560Y-38182097D01*
X73548560Y-40866000D01*
X73592838Y-41101317D01*
X73731910Y-41317441D01*
X73944110Y-41462431D01*
X74196000Y-41513440D01*
X77696000Y-41513440D01*
X77931317Y-41469162D01*
X78147441Y-41330090D01*
X78292431Y-41117890D01*
X78343440Y-40866000D01*
X78343440Y-37366000D01*
X78299162Y-37130683D01*
X78160090Y-36914559D01*
X77947890Y-36769569D01*
X77696000Y-36718560D01*
X74196000Y-36718560D01*
X73960683Y-36762838D01*
X73744559Y-36901910D01*
X73643440Y-37049903D01*
X73643440Y-35179955D01*
X73731910Y-35317441D01*
X73944110Y-35462431D01*
X74196000Y-35513440D01*
X77696000Y-35513440D01*
X77931317Y-35469162D01*
X78147441Y-35330090D01*
X78292431Y-35117890D01*
X78343440Y-34866000D01*
X78343440Y-31366000D01*
X78299162Y-31130683D01*
X78160090Y-30914559D01*
X77947890Y-30769569D01*
X77696000Y-30718560D01*
X74196000Y-30718560D01*
X73960683Y-30762838D01*
X73744559Y-30901910D01*
X73599569Y-31114110D01*
X73548560Y-31366000D01*
X73548560Y-34052045D01*
X73460090Y-33914559D01*
X73247890Y-33769569D01*
X72996000Y-33718560D01*
X69496000Y-33718560D01*
X69260683Y-33762838D01*
X69044559Y-33901910D01*
X68899569Y-34114110D01*
X68848560Y-34366000D01*
X65389440Y-34366000D01*
X65389440Y-31366000D01*
X65345162Y-31130683D01*
X65206090Y-30914559D01*
X64993890Y-30769569D01*
X64742000Y-30718560D01*
X61242000Y-30718560D01*
X61006683Y-30762838D01*
X60790559Y-30901910D01*
X60645569Y-31114110D01*
X60594560Y-31366000D01*
X60594560Y-34052045D01*
X60506090Y-33914559D01*
X60293890Y-33769569D01*
X60042000Y-33718560D01*
X56542000Y-33718560D01*
X56306683Y-33762838D01*
X56090559Y-33901910D01*
X55945569Y-34114110D01*
X55894560Y-34366000D01*
X55894560Y-37866000D01*
X55927004Y-38038425D01*
X54987000Y-37098420D01*
X54987000Y-35052005D01*
X54987001Y-35052000D01*
X54919633Y-34713325D01*
X54727790Y-34426210D01*
X54727787Y-34426208D01*
X54473790Y-34172210D01*
X54411640Y-34130683D01*
X54186675Y-33980367D01*
X54130484Y-33969190D01*
X53848000Y-33912999D01*
X53847995Y-33913000D01*
X52943440Y-33913000D01*
X52943440Y-31366000D01*
X52899162Y-31130683D01*
X52760090Y-30914559D01*
X52547890Y-30769569D01*
X52296000Y-30718560D01*
X48796000Y-30718560D01*
X48560683Y-30762838D01*
X48344559Y-30901910D01*
X48199569Y-31114110D01*
X48148560Y-31366000D01*
X48148560Y-34052045D01*
X48060090Y-33914559D01*
X47847890Y-33769569D01*
X47596000Y-33718560D01*
X44096000Y-33718560D01*
X43860683Y-33762838D01*
X43644559Y-33901910D01*
X43499569Y-34114110D01*
X43448560Y-34366000D01*
X43448560Y-37866000D01*
X43492838Y-38101317D01*
X43631910Y-38317441D01*
X43844110Y-38462431D01*
X44096000Y-38513440D01*
X47596000Y-38513440D01*
X47831317Y-38469162D01*
X48047441Y-38330090D01*
X48148560Y-38182097D01*
X48148560Y-40866000D01*
X48192838Y-41101317D01*
X48331910Y-41317441D01*
X48544110Y-41462431D01*
X48796000Y-41513440D01*
X52296000Y-41513440D01*
X52531317Y-41469162D01*
X52747441Y-41330090D01*
X52892431Y-41117890D01*
X52943440Y-40866000D01*
X52943440Y-37366000D01*
X52899162Y-37130683D01*
X52760090Y-36914559D01*
X52547890Y-36769569D01*
X52296000Y-36718560D01*
X48796000Y-36718560D01*
X48560683Y-36762838D01*
X48344559Y-36901910D01*
X48243440Y-37049903D01*
X48243440Y-35179955D01*
X48331910Y-35317441D01*
X48544110Y-35462431D01*
X48796000Y-35513440D01*
X51736381Y-35513440D01*
X51889325Y-35615633D01*
X52228000Y-35683001D01*
X52228005Y-35683000D01*
X53217000Y-35683000D01*
X53217000Y-37464995D01*
X53216999Y-37465000D01*
X53273190Y-37747484D01*
X53284367Y-37803675D01*
X53476210Y-38090790D01*
X55249000Y-39863579D01*
X55249000Y-44083421D01*
X54243420Y-45089000D01*
X50101241Y-45089000D01*
X50063049Y-45050741D01*
X49717758Y-44907363D01*
X49343882Y-44907037D01*
X48998341Y-45049812D01*
X48733741Y-45313951D01*
X48590363Y-45659242D01*
X48590037Y-46033118D01*
X48618085Y-46101000D01*
X45974000Y-46101000D01*
X45536593Y-46188006D01*
X45165777Y-46435777D01*
X43387777Y-48213777D01*
X43140006Y-48584593D01*
X43053000Y-49022000D01*
X43053000Y-50799575D01*
X43052802Y-51026359D01*
X36967548Y-51026359D01*
X36961054Y-50993715D01*
X36639147Y-50511946D01*
X36597548Y-50484150D01*
X36645317Y-50475162D01*
X36861441Y-50336090D01*
X37006431Y-50123890D01*
X37057440Y-49872000D01*
X37057440Y-48172000D01*
X37013162Y-47936683D01*
X36874090Y-47720559D01*
X36661890Y-47575569D01*
X36410000Y-47524560D01*
X34710000Y-47524560D01*
X34474683Y-47568838D01*
X34258559Y-47707910D01*
X34113569Y-47920110D01*
X34062560Y-48172000D01*
X34062560Y-49872000D01*
X34106838Y-50107317D01*
X34245910Y-50323441D01*
X34458110Y-50468431D01*
X34525541Y-50482086D01*
X34480853Y-50511946D01*
X34158946Y-50993715D01*
X34045907Y-51562000D01*
X26110000Y-51562000D01*
X26110000Y-34366000D01*
X31002560Y-34366000D01*
X31002560Y-37866000D01*
X31046838Y-38101317D01*
X31185910Y-38317441D01*
X31398110Y-38462431D01*
X31650000Y-38513440D01*
X35150000Y-38513440D01*
X35385317Y-38469162D01*
X35601441Y-38330090D01*
X35702560Y-38182097D01*
X35702560Y-40866000D01*
X35746838Y-41101317D01*
X35885910Y-41317441D01*
X36098110Y-41462431D01*
X36350000Y-41513440D01*
X39850000Y-41513440D01*
X40085317Y-41469162D01*
X40301441Y-41330090D01*
X40446431Y-41117890D01*
X40497440Y-40866000D01*
X40497440Y-37366000D01*
X40453162Y-37130683D01*
X40314090Y-36914559D01*
X40101890Y-36769569D01*
X39850000Y-36718560D01*
X36350000Y-36718560D01*
X36114683Y-36762838D01*
X35898559Y-36901910D01*
X35797440Y-37049903D01*
X35797440Y-35179955D01*
X35885910Y-35317441D01*
X36098110Y-35462431D01*
X36350000Y-35513440D01*
X39850000Y-35513440D01*
X40085317Y-35469162D01*
X40301441Y-35330090D01*
X40446431Y-35117890D01*
X40497440Y-34866000D01*
X40497440Y-34001000D01*
X40771000Y-34001000D01*
X40771000Y-41020995D01*
X40770999Y-41021000D01*
X40827190Y-41303484D01*
X40838367Y-41359675D01*
X40878277Y-41419405D01*
X40985812Y-41679659D01*
X41249951Y-41944259D01*
X41595242Y-42087637D01*
X41969118Y-42087963D01*
X42314659Y-41945188D01*
X42579259Y-41681049D01*
X42722637Y-41335758D01*
X42722963Y-40961882D01*
X42580188Y-40616341D01*
X42541000Y-40577085D01*
X42541000Y-33274005D01*
X42541001Y-33274000D01*
X42473633Y-32935326D01*
X42473633Y-32935325D01*
X42281790Y-32648210D01*
X42281787Y-32648208D01*
X42123790Y-32490210D01*
X42073140Y-32456367D01*
X41836675Y-32298367D01*
X41780484Y-32287190D01*
X41498000Y-32230999D01*
X41497995Y-32231000D01*
X40497440Y-32231000D01*
X40497440Y-31366000D01*
X40453162Y-31130683D01*
X40314090Y-30914559D01*
X40101890Y-30769569D01*
X39850000Y-30718560D01*
X36350000Y-30718560D01*
X36114683Y-30762838D01*
X35898559Y-30901910D01*
X35753569Y-31114110D01*
X35702560Y-31366000D01*
X35702560Y-34052045D01*
X35614090Y-33914559D01*
X35401890Y-33769569D01*
X35150000Y-33718560D01*
X31650000Y-33718560D01*
X31414683Y-33762838D01*
X31198559Y-33901910D01*
X31053569Y-34114110D01*
X31002560Y-34366000D01*
X26110000Y-34366000D01*
X26110000Y-30544236D01*
X26161847Y-30596174D01*
X27313674Y-31074454D01*
X28560854Y-31075543D01*
X29713515Y-30599273D01*
X30596174Y-29718153D01*
X31074454Y-28566326D01*
X31075543Y-27319146D01*
X30599273Y-26166485D01*
X30542886Y-26110000D01*
X81215764Y-26110000D01*
X81163826Y-26161847D01*
M02*
