M48
;DRILL file {KiCad 4.0.7} date 01/10/18 16:35:00
;FORMAT={-:-/ absolute / inch / decimal}
FMAT,2
INCH,TZ
T1C0.012
T2C0.020
T3C0.035
T4C0.039
T5C0.071
T6C0.098
%
G90
G05
M72
T1
X1.645Y-1.62
X1.65Y-1.67
X1.95Y-1.805
X2.07Y-2.02
X2.14Y-1.68
X2.18Y-1.92
X2.22Y-2.02
X2.58Y-2.09
X2.63Y-2.04
X2.66Y-1.66
X2.92Y-1.96
X2.93Y-2.07
X3.Y-2.55
X3.Y-2.75
X3.08Y-2.01
X3.13Y-2.55
X3.19Y-1.68
T2
X1.74Y-2.
X2.35Y-1.78
X2.36Y-1.9159
T3
X1.9598Y-2.4252
X2.0004Y-2.4953
X2.0398Y-2.4252
X2.0803Y-2.4953
X2.1197Y-2.4252
X2.1602Y-2.4953
X2.1996Y-2.4252
X2.2402Y-2.4953
T4
X1.4Y-1.93
X1.4Y-2.03
X1.4Y-2.13
X1.4Y-2.32
X1.4Y-2.42
X1.4Y-2.52
T5
X1.7799Y-2.4551
X2.4201Y-2.4551
T6
X1.1Y-1.1
X1.1Y-2.7
X3.3Y-1.1
X3.3Y-2.7
T4
X1.315Y-1.3825G85X1.315Y-1.4613
G05
X1.5394Y-1.3038G85X1.4606Y-1.3038
G05
X1.5394Y-1.54G85X1.4606Y-1.54
G05
X1.805Y-1.3825G85X1.805Y-1.4613
G05
X2.0294Y-1.3038G85X1.9506Y-1.3038
G05
X2.0294Y-1.54G85X1.9506Y-1.54
G05
X2.295Y-1.3825G85X2.295Y-1.4613
G05
X2.5194Y-1.3038G85X2.4406Y-1.3038
G05
X2.5194Y-1.54G85X2.4406Y-1.54
G05
X2.7106Y-2.26G85X2.7894Y-2.26
G05
X2.7106Y-2.4962G85X2.7894Y-2.4962
G05
X2.805Y-1.3825G85X2.805Y-1.4613
G05
X2.935Y-2.4175G85X2.935Y-2.3387
G05
X3.0294Y-1.3038G85X2.9506Y-1.3038
G05
X3.0294Y-1.54G85X2.9506Y-1.54
G05
T0
M30
