G04 #@! TF.FileFunction,Soldermask,Top*
%FSLAX46Y46*%
G04 Gerber Fmt 4.6, Leading zero omitted, Abs format (unit mm)*
G04 Created by KiCad (PCBNEW 4.0.5) date 01/22/17 20:45:39*
%MOMM*%
%LPD*%
G01*
G04 APERTURE LIST*
%ADD10C,0.150000*%
%ADD11C,0.127000*%
%ADD12C,0.299720*%
%ADD13R,2.032000X1.524000*%
%ADD14R,1.397000X0.889000*%
%ADD15R,0.889000X1.397000*%
%ADD16O,0.812800X3.352800*%
%ADD17R,1.600200X1.803400*%
%ADD18R,0.635000X1.143000*%
%ADD19R,0.899200X1.000800*%
%ADD20R,1.000800X0.899200*%
%ADD21R,1.803400X1.193800*%
%ADD22R,1.803400X1.600200*%
%ADD23R,1.000800X0.599400*%
%ADD24R,3.200000X3.100000*%
%ADD25R,3.800000X3.100000*%
%ADD26C,1.900000*%
%ADD27R,1.600200X3.599200*%
%ADD28R,2.400000X0.760000*%
%ADD29R,0.760000X2.400000*%
%ADD30R,2.400000X1.500000*%
%ADD31R,1.100000X0.600000*%
%ADD32C,1.706880*%
%ADD33C,1.400000*%
%ADD34R,1.397000X3.810000*%
%ADD35R,1.143000X0.635000*%
%ADD36C,7.000000*%
%ADD37R,1.524000X1.524000*%
%ADD38C,1.524000*%
%ADD39C,3.250000*%
%ADD40C,1.600000*%
%ADD41C,3.200000*%
%ADD42C,7.000240*%
%ADD43R,3.300000X1.500000*%
%ADD44R,1.000000X1.500000*%
%ADD45R,1.397000X1.397000*%
%ADD46C,1.397000*%
%ADD47R,1.000000X0.900000*%
%ADD48O,3.048000X1.574800*%
%ADD49O,3.048000X1.600200*%
%ADD50R,1.500000X1.550000*%
%ADD51C,1.550000*%
%ADD52R,0.400000X1.350000*%
%ADD53C,1.250000*%
%ADD54C,1.168400*%
%ADD55R,1.200000X1.400000*%
%ADD56R,2.800000X1.400000*%
%ADD57C,1.500000*%
%ADD58R,0.300000X1.450000*%
%ADD59R,1.450000X0.300000*%
G04 APERTURE END LIST*
D10*
D11*
X106196191Y-22950714D02*
X107163810Y-22950714D01*
X106680000Y-23434524D02*
X106680000Y-22466905D01*
X24916191Y-162650714D02*
X25883810Y-162650714D01*
X25400000Y-163134524D02*
X25400000Y-162166905D01*
X106196191Y-162650714D02*
X107163810Y-162650714D01*
X106680000Y-163134524D02*
X106680000Y-162166905D01*
D12*
X32607794Y-184042776D02*
X32107414Y-184042776D01*
X32107414Y-184829087D02*
X32107414Y-183327947D01*
X32822243Y-183327947D01*
X33394105Y-184829087D02*
X33394105Y-183828327D01*
X33394105Y-184114259D02*
X33465588Y-183971293D01*
X33537071Y-183899810D01*
X33680037Y-183828327D01*
X33823002Y-183828327D01*
X34537831Y-184829087D02*
X34394865Y-184757604D01*
X34323382Y-184686121D01*
X34251899Y-184543156D01*
X34251899Y-184114259D01*
X34323382Y-183971293D01*
X34394865Y-183899810D01*
X34537831Y-183828327D01*
X34752279Y-183828327D01*
X34895245Y-183899810D01*
X34966728Y-183971293D01*
X35038211Y-184114259D01*
X35038211Y-184543156D01*
X34966728Y-184686121D01*
X34895245Y-184757604D01*
X34752279Y-184829087D01*
X34537831Y-184829087D01*
X35681556Y-183828327D02*
X35681556Y-184829087D01*
X35681556Y-183971293D02*
X35753039Y-183899810D01*
X35896005Y-183828327D01*
X36110453Y-183828327D01*
X36253419Y-183899810D01*
X36324902Y-184042776D01*
X36324902Y-184829087D01*
X36825282Y-183828327D02*
X37397145Y-183828327D01*
X37039730Y-183327947D02*
X37039730Y-184614639D01*
X37111213Y-184757604D01*
X37254179Y-184829087D01*
X37397145Y-184829087D01*
X38969767Y-184757604D02*
X39184216Y-184829087D01*
X39541630Y-184829087D01*
X39684596Y-184757604D01*
X39756079Y-184686121D01*
X39827562Y-184543156D01*
X39827562Y-184400190D01*
X39756079Y-184257224D01*
X39684596Y-184185741D01*
X39541630Y-184114259D01*
X39255699Y-184042776D01*
X39112733Y-183971293D01*
X39041250Y-183899810D01*
X38969767Y-183756844D01*
X38969767Y-183613879D01*
X39041250Y-183470913D01*
X39112733Y-183399430D01*
X39255699Y-183327947D01*
X39613113Y-183327947D01*
X39827562Y-183399430D01*
X40685356Y-184829087D02*
X40542390Y-184757604D01*
X40470907Y-184686121D01*
X40399424Y-184543156D01*
X40399424Y-184114259D01*
X40470907Y-183971293D01*
X40542390Y-183899810D01*
X40685356Y-183828327D01*
X40899804Y-183828327D01*
X41042770Y-183899810D01*
X41114253Y-183971293D01*
X41185736Y-184114259D01*
X41185736Y-184543156D01*
X41114253Y-184686121D01*
X41042770Y-184757604D01*
X40899804Y-184829087D01*
X40685356Y-184829087D01*
X42043530Y-184829087D02*
X41900564Y-184757604D01*
X41829081Y-184614639D01*
X41829081Y-183327947D01*
X43258738Y-184829087D02*
X43258738Y-183327947D01*
X43258738Y-184757604D02*
X43115772Y-184829087D01*
X42829841Y-184829087D01*
X42686875Y-184757604D01*
X42615392Y-184686121D01*
X42543909Y-184543156D01*
X42543909Y-184114259D01*
X42615392Y-183971293D01*
X42686875Y-183899810D01*
X42829841Y-183828327D01*
X43115772Y-183828327D01*
X43258738Y-183899810D01*
X44545429Y-184757604D02*
X44402463Y-184829087D01*
X44116532Y-184829087D01*
X43973566Y-184757604D01*
X43902083Y-184614639D01*
X43902083Y-184042776D01*
X43973566Y-183899810D01*
X44116532Y-183828327D01*
X44402463Y-183828327D01*
X44545429Y-183899810D01*
X44616912Y-184042776D01*
X44616912Y-184185741D01*
X43902083Y-184328707D01*
X45260257Y-184829087D02*
X45260257Y-183828327D01*
X45260257Y-184114259D02*
X45331740Y-183971293D01*
X45403223Y-183899810D01*
X45546189Y-183828327D01*
X45689154Y-183828327D01*
X47333260Y-184829087D02*
X47333260Y-183327947D01*
X47833640Y-184400190D01*
X48334020Y-183327947D01*
X48334020Y-184829087D01*
X49692195Y-184829087D02*
X49692195Y-184042776D01*
X49620712Y-183899810D01*
X49477746Y-183828327D01*
X49191815Y-183828327D01*
X49048849Y-183899810D01*
X49692195Y-184757604D02*
X49549229Y-184829087D01*
X49191815Y-184829087D01*
X49048849Y-184757604D01*
X48977366Y-184614639D01*
X48977366Y-184471673D01*
X49048849Y-184328707D01*
X49191815Y-184257224D01*
X49549229Y-184257224D01*
X49692195Y-184185741D01*
X50335540Y-184757604D02*
X50478506Y-184829087D01*
X50764438Y-184829087D01*
X50907403Y-184757604D01*
X50978886Y-184614639D01*
X50978886Y-184543156D01*
X50907403Y-184400190D01*
X50764438Y-184328707D01*
X50549989Y-184328707D01*
X50407023Y-184257224D01*
X50335540Y-184114259D01*
X50335540Y-184042776D01*
X50407023Y-183899810D01*
X50549989Y-183828327D01*
X50764438Y-183828327D01*
X50907403Y-183899810D01*
X51622232Y-184829087D02*
X51622232Y-183327947D01*
X51765198Y-184257224D02*
X52194095Y-184829087D01*
X52194095Y-183828327D02*
X51622232Y-184400190D01*
X53981167Y-184257224D02*
X55124893Y-184257224D01*
X57698276Y-184829087D02*
X56983447Y-184829087D01*
X56983447Y-183327947D01*
X58842002Y-184829087D02*
X58842002Y-184042776D01*
X58770519Y-183899810D01*
X58627553Y-183828327D01*
X58341622Y-183828327D01*
X58198656Y-183899810D01*
X58842002Y-184757604D02*
X58699036Y-184829087D01*
X58341622Y-184829087D01*
X58198656Y-184757604D01*
X58127173Y-184614639D01*
X58127173Y-184471673D01*
X58198656Y-184328707D01*
X58341622Y-184257224D01*
X58699036Y-184257224D01*
X58842002Y-184185741D01*
X59413865Y-183828327D02*
X59771279Y-184829087D01*
X60128693Y-183828327D02*
X59771279Y-184829087D01*
X59628313Y-185186501D01*
X59556830Y-185257984D01*
X59413865Y-185329467D01*
X61272419Y-184757604D02*
X61129453Y-184829087D01*
X60843522Y-184829087D01*
X60700556Y-184757604D01*
X60629073Y-184614639D01*
X60629073Y-184042776D01*
X60700556Y-183899810D01*
X60843522Y-183828327D01*
X61129453Y-183828327D01*
X61272419Y-183899810D01*
X61343902Y-184042776D01*
X61343902Y-184185741D01*
X60629073Y-184328707D01*
X61987247Y-184829087D02*
X61987247Y-183828327D01*
X61987247Y-184114259D02*
X62058730Y-183971293D01*
X62130213Y-183899810D01*
X62273179Y-183828327D01*
X62416144Y-183828327D01*
X64131733Y-184829087D02*
X64417665Y-184829087D01*
X64560630Y-184757604D01*
X64632113Y-184686121D01*
X64775079Y-184471673D01*
X64846562Y-184185741D01*
X64846562Y-183613879D01*
X64775079Y-183470913D01*
X64703596Y-183399430D01*
X64560630Y-183327947D01*
X64274699Y-183327947D01*
X64131733Y-183399430D01*
X64060250Y-183470913D01*
X63988767Y-183613879D01*
X63988767Y-183971293D01*
X64060250Y-184114259D01*
X64131733Y-184185741D01*
X64274699Y-184257224D01*
X64560630Y-184257224D01*
X64703596Y-184185741D01*
X64775079Y-184114259D01*
X64846562Y-183971293D01*
D13*
X89712800Y-54229000D03*
X89712800Y-50927000D03*
D14*
X78930500Y-89585800D03*
X78930500Y-87680800D03*
D15*
X85572600Y-120396000D03*
X87477600Y-120396000D03*
X89369900Y-113119000D03*
X91274900Y-113119000D03*
D16*
X91186000Y-156819600D03*
X92456000Y-156819600D03*
X93726000Y-156819600D03*
X94996000Y-156819600D03*
X96266000Y-156819600D03*
X97536000Y-156819600D03*
X98806000Y-156819600D03*
X100076000Y-156819600D03*
X103886000Y-143408400D03*
X102616000Y-143408400D03*
X101346000Y-143408400D03*
X100076000Y-143408400D03*
X98806000Y-143408400D03*
X97536000Y-143408400D03*
X96266000Y-143408400D03*
X94996000Y-143408400D03*
X93726000Y-143408400D03*
X92456000Y-143408400D03*
X91186000Y-143408400D03*
D17*
X88125300Y-115164000D03*
X90919300Y-115164000D03*
D18*
X80137000Y-153289000D03*
X81661000Y-153289000D03*
X79248000Y-153289000D03*
X77724000Y-153289000D03*
X81254600Y-151676000D03*
X82778600Y-151676000D03*
D17*
X85928200Y-122453000D03*
X88722200Y-122453000D03*
D19*
X81493400Y-119786000D03*
X82997000Y-119786000D03*
X85333800Y-111417000D03*
X83830200Y-111417000D03*
D17*
X87617300Y-105207000D03*
X84823300Y-105207000D03*
D19*
X90642400Y-110833000D03*
X89138800Y-110833000D03*
X90642400Y-107429000D03*
X89138800Y-107429000D03*
X83830200Y-107442000D03*
X85333800Y-107442000D03*
D17*
X90411300Y-102921000D03*
X87617300Y-102921000D03*
D19*
X85918000Y-102971600D03*
X84414400Y-102971600D03*
X85918000Y-101549200D03*
X84414400Y-101549200D03*
X71854100Y-90284300D03*
X73357700Y-90284300D03*
D20*
X61849000Y-121274800D03*
X61849000Y-119771200D03*
X65659000Y-119771200D03*
X65659000Y-121274800D03*
D19*
X73319600Y-126721000D03*
X71816000Y-126721000D03*
X75270400Y-126721000D03*
X76774000Y-126721000D03*
D21*
X72517000Y-125272800D03*
X76581000Y-125272800D03*
X76581000Y-122885200D03*
X72517000Y-122885200D03*
D17*
X87503000Y-129794000D03*
X84709000Y-129794000D03*
D19*
X92979200Y-138328000D03*
X91475600Y-138328000D03*
X96022200Y-139649000D03*
X97525800Y-139649000D03*
D17*
X102032000Y-140056000D03*
X99238000Y-140056000D03*
X100457000Y-121133000D03*
X97663000Y-121133000D03*
X100457000Y-102362000D03*
X97663000Y-102362000D03*
X100457000Y-83540600D03*
X97663000Y-83540600D03*
D22*
X89636600Y-59232800D03*
X89636600Y-56438800D03*
D17*
X100444300Y-64770000D03*
X97650300Y-64770000D03*
X103187000Y-45974000D03*
X100393000Y-45974000D03*
X103124000Y-43307000D03*
X100330000Y-43307000D03*
D19*
X79258200Y-71628000D03*
X80761800Y-71628000D03*
D20*
X77254100Y-88072000D03*
X77254100Y-89575600D03*
D19*
X78704400Y-91033600D03*
X77200800Y-91033600D03*
D20*
X62242700Y-91818500D03*
X62242700Y-93322100D03*
X64020700Y-93322100D03*
X64020700Y-91818500D03*
D19*
X62443400Y-88417400D03*
X63947000Y-88417400D03*
D23*
X62494200Y-85153500D03*
X64607400Y-86106000D03*
X62494200Y-87058500D03*
D19*
X56581000Y-104736900D03*
X55077400Y-104736900D03*
X56581000Y-106210000D03*
X55077400Y-106210000D03*
D22*
X69570600Y-139852000D03*
X69570600Y-137058000D03*
X60464700Y-139891000D03*
X60464700Y-137097000D03*
D24*
X29700000Y-49290000D03*
D25*
X37100000Y-57390000D03*
D24*
X27800000Y-57390000D03*
D26*
X35900000Y-53340000D03*
X28900000Y-53340000D03*
D24*
X29700000Y-63260000D03*
D25*
X37100000Y-71360000D03*
D24*
X27800000Y-71360000D03*
D26*
X35900000Y-67310000D03*
X28900000Y-67310000D03*
D24*
X29700000Y-77230000D03*
D25*
X37100000Y-85330000D03*
D24*
X27800000Y-85330000D03*
D26*
X35900000Y-81280000D03*
X28900000Y-81280000D03*
D24*
X29700000Y-91200000D03*
D25*
X37100000Y-99300000D03*
D24*
X27800000Y-99300000D03*
D26*
X35900000Y-95250000D03*
X28900000Y-95250000D03*
D24*
X29700000Y-105170000D03*
D25*
X37100000Y-113270000D03*
D24*
X27800000Y-113270000D03*
D26*
X35900000Y-109220000D03*
X28900000Y-109220000D03*
D24*
X29700000Y-119140000D03*
D25*
X37100000Y-127240000D03*
D24*
X27800000Y-127240000D03*
D26*
X35900000Y-123190000D03*
X28900000Y-123190000D03*
D24*
X29700000Y-133110000D03*
D25*
X37100000Y-141210000D03*
D24*
X27800000Y-141210000D03*
D26*
X35900000Y-137160000D03*
X28900000Y-137160000D03*
D24*
X29700000Y-147080000D03*
D25*
X37100000Y-155180000D03*
D24*
X27800000Y-155180000D03*
D26*
X35900000Y-151130000D03*
X28900000Y-151130000D03*
D27*
X74168000Y-144406800D03*
X74168000Y-138905200D03*
X74168000Y-129558200D03*
X74168000Y-135059800D03*
D28*
X88310000Y-137160000D03*
X84410000Y-137160000D03*
X88310000Y-135890000D03*
X84410000Y-135890000D03*
X88310000Y-134620000D03*
X84410000Y-134620000D03*
X88310000Y-133350000D03*
X84410000Y-133350000D03*
X88310000Y-132080000D03*
X84410000Y-132080000D03*
D29*
X52832000Y-145460000D03*
X52832000Y-141560000D03*
X54102000Y-145460000D03*
X54102000Y-141560000D03*
X55372000Y-145460000D03*
X55372000Y-141560000D03*
X56642000Y-145460000D03*
X56642000Y-141560000D03*
X57912000Y-145460000D03*
X57912000Y-141560000D03*
D30*
X91616700Y-109131000D03*
D31*
X86066700Y-109581000D03*
X86066700Y-108681000D03*
D20*
X74066400Y-156118200D03*
X74066400Y-157621800D03*
D32*
X60040000Y-157940000D03*
X72040000Y-157940000D03*
D33*
X66040000Y-153690000D03*
X70040000Y-153690000D03*
X62040000Y-153690000D03*
D32*
X60040000Y-151940000D03*
X72040000Y-151940000D03*
D34*
X75717400Y-148742400D03*
X71145400Y-148742400D03*
D35*
X52451000Y-137541000D03*
X52451000Y-139065000D03*
X54356000Y-137541000D03*
X54356000Y-139065000D03*
X56388000Y-137541000D03*
X56388000Y-139065000D03*
X58420000Y-137541000D03*
X58420000Y-139065000D03*
X57378600Y-156972000D03*
X57378600Y-158496000D03*
D18*
X81483200Y-118288000D03*
X83007200Y-118288000D03*
X83007200Y-116040000D03*
X84531200Y-116040000D03*
X91744800Y-105537000D03*
X90220800Y-105537000D03*
X82753200Y-114478000D03*
X84277200Y-114478000D03*
X96596200Y-60172600D03*
X95072200Y-60172600D03*
D36*
X66040000Y-147320000D03*
X102362000Y-38100000D03*
X29718000Y-38100000D03*
D18*
X97815400Y-60172600D03*
X99339400Y-60172600D03*
D37*
X35560000Y-36830000D03*
D38*
X35560000Y-34290000D03*
X38100000Y-36830000D03*
X38100000Y-34290000D03*
X40640000Y-36830000D03*
X40640000Y-34290000D03*
X43180000Y-36830000D03*
X43180000Y-34290000D03*
X45720000Y-36830000D03*
X45720000Y-34290000D03*
X48260000Y-36830000D03*
X48260000Y-34290000D03*
X50800000Y-36830000D03*
X50800000Y-34290000D03*
X53340000Y-36830000D03*
X53340000Y-34290000D03*
X55880000Y-36830000D03*
X55880000Y-34290000D03*
X58420000Y-36830000D03*
X58420000Y-34290000D03*
X60960000Y-36830000D03*
X60960000Y-34290000D03*
X63500000Y-36830000D03*
X63500000Y-34290000D03*
X66040000Y-36830000D03*
X66040000Y-34290000D03*
X68580000Y-36830000D03*
X68580000Y-34290000D03*
X71120000Y-36830000D03*
X71120000Y-34290000D03*
X73660000Y-36830000D03*
X73660000Y-34290000D03*
X76200000Y-36830000D03*
X76200000Y-34290000D03*
X78740000Y-36830000D03*
X78740000Y-34290000D03*
X81280000Y-36830000D03*
X81280000Y-34290000D03*
X83820000Y-36830000D03*
X83820000Y-34290000D03*
X86360000Y-36830000D03*
X86360000Y-34290000D03*
X88900000Y-36830000D03*
X88900000Y-34290000D03*
X91440000Y-36830000D03*
X91440000Y-34290000D03*
X93980000Y-36830000D03*
X93980000Y-34290000D03*
X96520000Y-36830000D03*
X96520000Y-34290000D03*
D37*
X35560000Y-43180000D03*
D38*
X35560000Y-40640000D03*
X38100000Y-43180000D03*
X38100000Y-40640000D03*
X40640000Y-43180000D03*
X40640000Y-40640000D03*
X43180000Y-43180000D03*
X43180000Y-40640000D03*
X45720000Y-43180000D03*
X45720000Y-40640000D03*
X48260000Y-43180000D03*
X48260000Y-40640000D03*
X50800000Y-43180000D03*
X50800000Y-40640000D03*
X53340000Y-43180000D03*
X53340000Y-40640000D03*
X55880000Y-43180000D03*
X55880000Y-40640000D03*
X58420000Y-43180000D03*
X58420000Y-40640000D03*
X60960000Y-43180000D03*
X60960000Y-40640000D03*
X63500000Y-43180000D03*
X63500000Y-40640000D03*
X66040000Y-43180000D03*
X66040000Y-40640000D03*
X68580000Y-43180000D03*
X68580000Y-40640000D03*
X71120000Y-43180000D03*
X71120000Y-40640000D03*
X73660000Y-43180000D03*
X73660000Y-40640000D03*
X76200000Y-43180000D03*
X76200000Y-40640000D03*
X78740000Y-43180000D03*
X78740000Y-40640000D03*
X81280000Y-43180000D03*
X81280000Y-40640000D03*
X83820000Y-43180000D03*
X83820000Y-40640000D03*
X86360000Y-43180000D03*
X86360000Y-40640000D03*
X88900000Y-43180000D03*
X88900000Y-40640000D03*
X91440000Y-43180000D03*
X91440000Y-40640000D03*
X93980000Y-43180000D03*
X93980000Y-40640000D03*
X96520000Y-43180000D03*
X96520000Y-40640000D03*
D18*
X73482200Y-87198200D03*
X71958200Y-87198200D03*
X73482200Y-88785700D03*
X71958200Y-88785700D03*
D39*
X104020000Y-136906000D03*
X104020000Y-124206000D03*
D40*
X101480000Y-131056000D03*
X101480000Y-129026000D03*
X99700000Y-132086000D03*
X99700000Y-130056000D03*
X99700000Y-134116000D03*
X101480000Y-133086000D03*
X99700000Y-128026000D03*
X101480000Y-126996000D03*
D39*
X104020000Y-99314000D03*
X104020000Y-86614000D03*
D40*
X101480000Y-93464000D03*
X101480000Y-91434000D03*
X99700000Y-94494000D03*
X99700000Y-92464000D03*
X99700000Y-96524000D03*
X101480000Y-95494000D03*
X99700000Y-90434000D03*
X101480000Y-89404000D03*
D39*
X104020000Y-80518000D03*
X104020000Y-67818000D03*
D40*
X101480000Y-74668000D03*
X101480000Y-72638000D03*
X99700000Y-75698000D03*
X99700000Y-73668000D03*
X99700000Y-77728000D03*
X101480000Y-76698000D03*
X99700000Y-71638000D03*
X101480000Y-70608000D03*
D39*
X104020000Y-118110000D03*
X104020000Y-105410000D03*
D40*
X101480000Y-112260000D03*
X101480000Y-110230000D03*
X99700000Y-113290000D03*
X99700000Y-111260000D03*
X99700000Y-115320000D03*
X101480000Y-114290000D03*
X99700000Y-109230000D03*
X101480000Y-108200000D03*
D41*
X101226000Y-57150000D03*
X101226000Y-49530000D03*
D40*
X92376000Y-53970000D03*
X92376000Y-51440000D03*
X94916000Y-55240000D03*
X94916000Y-52710000D03*
D42*
X66040000Y-72700000D03*
X66040000Y-130500000D03*
D43*
X65036700Y-135267000D03*
D44*
X62786700Y-141567000D03*
X64286700Y-141567000D03*
X65786700Y-141567000D03*
X67286700Y-141567000D03*
D45*
X87630000Y-157480000D03*
D46*
X87630000Y-154940000D03*
X87630000Y-152400000D03*
X87630000Y-149860000D03*
X87630000Y-147320000D03*
X87630000Y-144780000D03*
D47*
X55025000Y-156026000D03*
X52925000Y-156026000D03*
X53975000Y-158426000D03*
D35*
X57378600Y-154153000D03*
X57378600Y-155677000D03*
D48*
X54737000Y-151991000D03*
D49*
X54737000Y-148491000D03*
D50*
X81010000Y-158570000D03*
X79010000Y-158570000D03*
D51*
X76510000Y-158570000D03*
D52*
X79360000Y-155895000D03*
X78710000Y-155895000D03*
X80010000Y-155895000D03*
X80660000Y-155895000D03*
X81310000Y-155895000D03*
D53*
X82510000Y-155895000D03*
X77510000Y-155895000D03*
D51*
X83510000Y-158570000D03*
D54*
X55225000Y-154526000D03*
X52725000Y-154526000D03*
D55*
X42080000Y-156016000D03*
X44280000Y-156016000D03*
D56*
X43180000Y-153416000D03*
D55*
X42080000Y-149920000D03*
X44280000Y-149920000D03*
D56*
X43180000Y-147320000D03*
D55*
X42080000Y-142046000D03*
X44280000Y-142046000D03*
D56*
X43180000Y-139446000D03*
D55*
X42080000Y-135950000D03*
X44280000Y-135950000D03*
D56*
X43180000Y-133350000D03*
D55*
X42080000Y-128076000D03*
X44280000Y-128076000D03*
D56*
X43180000Y-125476000D03*
D55*
X42080000Y-121980000D03*
X44280000Y-121980000D03*
D56*
X43180000Y-119380000D03*
D55*
X42080000Y-114106000D03*
X44280000Y-114106000D03*
D56*
X43180000Y-111506000D03*
D55*
X42080000Y-108010000D03*
X44280000Y-108010000D03*
D56*
X43180000Y-105410000D03*
D55*
X42080000Y-100136000D03*
X44280000Y-100136000D03*
D56*
X43180000Y-97536000D03*
D55*
X42080000Y-94040000D03*
X44280000Y-94040000D03*
D56*
X43180000Y-91440000D03*
D55*
X42080000Y-86166000D03*
X44280000Y-86166000D03*
D56*
X43180000Y-83566000D03*
D55*
X42080000Y-80070000D03*
X44280000Y-80070000D03*
D56*
X43180000Y-77470000D03*
D55*
X42080000Y-72196000D03*
X44280000Y-72196000D03*
D56*
X43180000Y-69596000D03*
D55*
X42080000Y-66100000D03*
X44280000Y-66100000D03*
D56*
X43180000Y-63500000D03*
D55*
X42080000Y-58226000D03*
X44280000Y-58226000D03*
D56*
X43180000Y-55626000D03*
D55*
X42080000Y-52130000D03*
X44280000Y-52130000D03*
D56*
X43180000Y-49530000D03*
D57*
X83784000Y-62282000D03*
X79284000Y-62282000D03*
X79284000Y-68782000D03*
X83784000Y-68782000D03*
X91658000Y-62282000D03*
X87158000Y-62282000D03*
X87158000Y-68782000D03*
X91658000Y-68782000D03*
D58*
X61353700Y-117380000D03*
X61861700Y-117380000D03*
X62357000Y-117380000D03*
X62852300Y-117380000D03*
X63360300Y-117380000D03*
X63855600Y-117380000D03*
X64350900Y-117380000D03*
X64858900Y-117380000D03*
X65354200Y-117380000D03*
X65849500Y-117380000D03*
X66357500Y-117380000D03*
X66852800Y-117380000D03*
X67348100Y-117380000D03*
X67856100Y-117380000D03*
X68351400Y-117380000D03*
X68846700Y-117380000D03*
X69354700Y-117380000D03*
X69850000Y-117380000D03*
X70358000Y-117380000D03*
X70853300Y-117380000D03*
X71361300Y-117380000D03*
X71856600Y-117380000D03*
X72351900Y-117380000D03*
X72859900Y-117380000D03*
X73355200Y-117380000D03*
X73850500Y-117380000D03*
X74358500Y-117380000D03*
X74853800Y-117380000D03*
X75349100Y-117380000D03*
X75857100Y-117380000D03*
X76352400Y-117380000D03*
X76847700Y-117380000D03*
X77355700Y-117380000D03*
X77851000Y-117380000D03*
X78346300Y-117380000D03*
X78854300Y-117380000D03*
D59*
X80804000Y-100926900D03*
X80804000Y-100431600D03*
X80804000Y-99936300D03*
X80804000Y-99428300D03*
X80804000Y-98933000D03*
X80804000Y-98437700D03*
X80804000Y-97929700D03*
X59404000Y-100431600D03*
X59404000Y-100926900D03*
X59404000Y-101434900D03*
X59404000Y-101930200D03*
X59404000Y-102425500D03*
X59404000Y-102933500D03*
X59404000Y-103428800D03*
X59404000Y-103924100D03*
X59404000Y-104432100D03*
X59404000Y-104927400D03*
X59404000Y-105422700D03*
X59404000Y-105930700D03*
X59404000Y-106426000D03*
X59404000Y-106934000D03*
X59404000Y-107429300D03*
X59404000Y-107937300D03*
X59404000Y-108432600D03*
X59404000Y-108927900D03*
X59404000Y-109435900D03*
X59404000Y-109931200D03*
X59404000Y-110426500D03*
X59404000Y-110934500D03*
X59404000Y-111429800D03*
X59404000Y-111925100D03*
X59404000Y-112433100D03*
X59404000Y-112928400D03*
X59404000Y-113423700D03*
X59404000Y-113931700D03*
X59404000Y-114427000D03*
X59404000Y-114922300D03*
X59404000Y-115430300D03*
X80804000Y-115430300D03*
X80804000Y-114922300D03*
X80804000Y-114427000D03*
X80804000Y-113931700D03*
X80804000Y-113423700D03*
X80804000Y-112928400D03*
X80804000Y-112433100D03*
X80804000Y-111925100D03*
X80804000Y-111429800D03*
X80804000Y-110934500D03*
X80804000Y-110426500D03*
X80804000Y-109931200D03*
X80804000Y-109435900D03*
X80804000Y-108927900D03*
X80804000Y-108432600D03*
X80804000Y-107937300D03*
X80804000Y-107429300D03*
X80804000Y-106934000D03*
X80804000Y-106426000D03*
X80804000Y-105930700D03*
X80804000Y-105422700D03*
X80804000Y-104927400D03*
X80804000Y-104432100D03*
X80804000Y-103924100D03*
X80804000Y-103428800D03*
X80804000Y-102933500D03*
X80804000Y-102425500D03*
X80804000Y-101930200D03*
X80804000Y-101434900D03*
D58*
X76352400Y-95980000D03*
X75857100Y-95980000D03*
X75349100Y-95980000D03*
X74853800Y-95980000D03*
X74358500Y-95980000D03*
X73850500Y-95980000D03*
X73355200Y-95980000D03*
X72859900Y-95980000D03*
X72351900Y-95980000D03*
X71856600Y-95980000D03*
X71361300Y-95980000D03*
X70853300Y-95980000D03*
X70358000Y-95980000D03*
X69850000Y-95980000D03*
X69354700Y-95980000D03*
X68846700Y-95980000D03*
X68351400Y-95980000D03*
X67856100Y-95980000D03*
X67348100Y-95980000D03*
X66852800Y-95980000D03*
X66357500Y-95980000D03*
X65849500Y-95980000D03*
X65354200Y-95980000D03*
X64858900Y-95980000D03*
X64350900Y-95980000D03*
X63855600Y-95980000D03*
X63360300Y-95980000D03*
X62852300Y-95980000D03*
X62357000Y-95980000D03*
X61861700Y-95980000D03*
X61353700Y-95980000D03*
X78854300Y-95980000D03*
X78346300Y-95980000D03*
X77851000Y-95980000D03*
X77355700Y-95980000D03*
X76847700Y-95980000D03*
D59*
X59404000Y-97929700D03*
X59404000Y-98437700D03*
X59404000Y-98933000D03*
X59404000Y-99428300D03*
X59404000Y-99936300D03*
M02*
