G04 #@! TF.FileFunction,Copper,L1,Top,Signal*
%FSLAX46Y46*%
G04 Gerber Fmt 4.6, Leading zero omitted, Abs format (unit mm)*
G04 Created by KiCad (PCBNEW 4.0.5) date 01/22/17 20:45:39*
%MOMM*%
%LPD*%
G01*
G04 APERTURE LIST*
%ADD10C,0.150000*%
%ADD11C,0.127000*%
%ADD12C,0.299720*%
%ADD13R,2.032000X1.524000*%
%ADD14R,1.397000X0.889000*%
%ADD15R,0.889000X1.397000*%
%ADD16O,0.812800X3.352800*%
%ADD17R,1.600200X1.803400*%
%ADD18R,0.635000X1.143000*%
%ADD19R,0.899200X1.000800*%
%ADD20R,1.000800X0.899200*%
%ADD21R,1.803400X1.193800*%
%ADD22R,1.803400X1.600200*%
%ADD23R,1.000800X0.599400*%
%ADD24R,3.200000X3.100000*%
%ADD25R,3.800000X3.100000*%
%ADD26C,1.900000*%
%ADD27R,1.600200X3.599200*%
%ADD28R,2.400000X0.760000*%
%ADD29R,0.760000X2.400000*%
%ADD30R,2.400000X1.500000*%
%ADD31R,1.100000X0.600000*%
%ADD32C,1.706880*%
%ADD33C,1.400000*%
%ADD34R,1.397000X3.810000*%
%ADD35R,1.143000X0.635000*%
%ADD36C,7.000000*%
%ADD37R,1.524000X1.524000*%
%ADD38C,1.524000*%
%ADD39C,1.600000*%
%ADD40C,7.000240*%
%ADD41R,3.300000X1.500000*%
%ADD42R,1.000000X1.500000*%
%ADD43R,1.397000X1.397000*%
%ADD44C,1.397000*%
%ADD45C,0.381000*%
%ADD46R,1.000000X0.900000*%
%ADD47O,3.048000X1.574800*%
%ADD48O,3.048000X1.600200*%
%ADD49R,1.500000X1.550000*%
%ADD50C,1.550000*%
%ADD51R,0.400000X1.350000*%
%ADD52C,1.250000*%
%ADD53R,1.200000X1.400000*%
%ADD54R,2.800000X1.400000*%
%ADD55C,1.500000*%
%ADD56R,0.300000X1.450000*%
%ADD57R,1.450000X0.300000*%
%ADD58C,0.762000*%
%ADD59C,0.203200*%
%ADD60C,0.254000*%
%ADD61C,0.381000*%
%ADD62C,0.508000*%
%ADD63C,0.762000*%
G04 APERTURE END LIST*
D10*
D11*
X106196191Y-22950714D02*
X107163810Y-22950714D01*
X106680000Y-23434524D02*
X106680000Y-22466905D01*
X24916191Y-162650714D02*
X25883810Y-162650714D01*
X25400000Y-163134524D02*
X25400000Y-162166905D01*
X106196191Y-162650714D02*
X107163810Y-162650714D01*
X106680000Y-163134524D02*
X106680000Y-162166905D01*
D12*
X32607794Y-163722776D02*
X32107414Y-163722776D01*
X32107414Y-164509087D02*
X32107414Y-163007947D01*
X32822243Y-163007947D01*
X33394105Y-164509087D02*
X33394105Y-163508327D01*
X33394105Y-163794259D02*
X33465588Y-163651293D01*
X33537071Y-163579810D01*
X33680037Y-163508327D01*
X33823002Y-163508327D01*
X34537831Y-164509087D02*
X34394865Y-164437604D01*
X34323382Y-164366121D01*
X34251899Y-164223156D01*
X34251899Y-163794259D01*
X34323382Y-163651293D01*
X34394865Y-163579810D01*
X34537831Y-163508327D01*
X34752279Y-163508327D01*
X34895245Y-163579810D01*
X34966728Y-163651293D01*
X35038211Y-163794259D01*
X35038211Y-164223156D01*
X34966728Y-164366121D01*
X34895245Y-164437604D01*
X34752279Y-164509087D01*
X34537831Y-164509087D01*
X35681556Y-163508327D02*
X35681556Y-164509087D01*
X35681556Y-163651293D02*
X35753039Y-163579810D01*
X35896005Y-163508327D01*
X36110453Y-163508327D01*
X36253419Y-163579810D01*
X36324902Y-163722776D01*
X36324902Y-164509087D01*
X36825282Y-163508327D02*
X37397145Y-163508327D01*
X37039730Y-163007947D02*
X37039730Y-164294639D01*
X37111213Y-164437604D01*
X37254179Y-164509087D01*
X37397145Y-164509087D01*
X39899045Y-164366121D02*
X39827562Y-164437604D01*
X39613113Y-164509087D01*
X39470147Y-164509087D01*
X39255699Y-164437604D01*
X39112733Y-164294639D01*
X39041250Y-164151673D01*
X38969767Y-163865741D01*
X38969767Y-163651293D01*
X39041250Y-163365361D01*
X39112733Y-163222396D01*
X39255699Y-163079430D01*
X39470147Y-163007947D01*
X39613113Y-163007947D01*
X39827562Y-163079430D01*
X39899045Y-163150913D01*
X40756839Y-164509087D02*
X40613873Y-164437604D01*
X40542390Y-164366121D01*
X40470907Y-164223156D01*
X40470907Y-163794259D01*
X40542390Y-163651293D01*
X40613873Y-163579810D01*
X40756839Y-163508327D01*
X40971287Y-163508327D01*
X41114253Y-163579810D01*
X41185736Y-163651293D01*
X41257219Y-163794259D01*
X41257219Y-164223156D01*
X41185736Y-164366121D01*
X41114253Y-164437604D01*
X40971287Y-164509087D01*
X40756839Y-164509087D01*
X41900564Y-163508327D02*
X41900564Y-165009467D01*
X41900564Y-163579810D02*
X42043530Y-163508327D01*
X42329461Y-163508327D01*
X42472427Y-163579810D01*
X42543910Y-163651293D01*
X42615393Y-163794259D01*
X42615393Y-164223156D01*
X42543910Y-164366121D01*
X42472427Y-164437604D01*
X42329461Y-164509087D01*
X42043530Y-164509087D01*
X41900564Y-164437604D01*
X43258738Y-163508327D02*
X43258738Y-165009467D01*
X43258738Y-163579810D02*
X43401704Y-163508327D01*
X43687635Y-163508327D01*
X43830601Y-163579810D01*
X43902084Y-163651293D01*
X43973567Y-163794259D01*
X43973567Y-164223156D01*
X43902084Y-164366121D01*
X43830601Y-164437604D01*
X43687635Y-164509087D01*
X43401704Y-164509087D01*
X43258738Y-164437604D01*
X45188775Y-164437604D02*
X45045809Y-164509087D01*
X44759878Y-164509087D01*
X44616912Y-164437604D01*
X44545429Y-164294639D01*
X44545429Y-163722776D01*
X44616912Y-163579810D01*
X44759878Y-163508327D01*
X45045809Y-163508327D01*
X45188775Y-163579810D01*
X45260258Y-163722776D01*
X45260258Y-163865741D01*
X44545429Y-164008707D01*
X45903603Y-164509087D02*
X45903603Y-163508327D01*
X45903603Y-163794259D02*
X45975086Y-163651293D01*
X46046569Y-163579810D01*
X46189535Y-163508327D01*
X46332500Y-163508327D01*
X47976606Y-163937224D02*
X49120332Y-163937224D01*
X51693715Y-164509087D02*
X50978886Y-164509087D01*
X50978886Y-163007947D01*
X52837441Y-164509087D02*
X52837441Y-163722776D01*
X52765958Y-163579810D01*
X52622992Y-163508327D01*
X52337061Y-163508327D01*
X52194095Y-163579810D01*
X52837441Y-164437604D02*
X52694475Y-164509087D01*
X52337061Y-164509087D01*
X52194095Y-164437604D01*
X52122612Y-164294639D01*
X52122612Y-164151673D01*
X52194095Y-164008707D01*
X52337061Y-163937224D01*
X52694475Y-163937224D01*
X52837441Y-163865741D01*
X53409304Y-163508327D02*
X53766718Y-164509087D01*
X54124132Y-163508327D02*
X53766718Y-164509087D01*
X53623752Y-164866501D01*
X53552269Y-164937984D01*
X53409304Y-165009467D01*
X55267858Y-164437604D02*
X55124892Y-164509087D01*
X54838961Y-164509087D01*
X54695995Y-164437604D01*
X54624512Y-164294639D01*
X54624512Y-163722776D01*
X54695995Y-163579810D01*
X54838961Y-163508327D01*
X55124892Y-163508327D01*
X55267858Y-163579810D01*
X55339341Y-163722776D01*
X55339341Y-163865741D01*
X54624512Y-164008707D01*
X55982686Y-164509087D02*
X55982686Y-163508327D01*
X55982686Y-163794259D02*
X56054169Y-163651293D01*
X56125652Y-163579810D01*
X56268618Y-163508327D01*
X56411583Y-163508327D01*
X58842001Y-164509087D02*
X57984206Y-164509087D01*
X58413104Y-164509087D02*
X58413104Y-163007947D01*
X58270138Y-163222396D01*
X58127172Y-163365361D01*
X57984206Y-163436844D01*
D13*
X89712800Y-54229000D03*
X89712800Y-50927000D03*
D14*
X78930500Y-89585800D03*
X78930500Y-87680800D03*
D15*
X85572600Y-120396000D03*
X87477600Y-120396000D03*
X89369900Y-113119000D03*
X91274900Y-113119000D03*
D16*
X91186000Y-156819600D03*
X92456000Y-156819600D03*
X93726000Y-156819600D03*
X94996000Y-156819600D03*
X96266000Y-156819600D03*
X97536000Y-156819600D03*
X98806000Y-156819600D03*
X100076000Y-156819600D03*
X103886000Y-143408400D03*
X102616000Y-143408400D03*
X101346000Y-143408400D03*
X100076000Y-143408400D03*
X98806000Y-143408400D03*
X97536000Y-143408400D03*
X96266000Y-143408400D03*
X94996000Y-143408400D03*
X93726000Y-143408400D03*
X92456000Y-143408400D03*
X91186000Y-143408400D03*
D17*
X88125300Y-115164000D03*
X90919300Y-115164000D03*
D18*
X80137000Y-153289000D03*
X81661000Y-153289000D03*
X79248000Y-153289000D03*
X77724000Y-153289000D03*
X81254600Y-151676000D03*
X82778600Y-151676000D03*
D17*
X85928200Y-122453000D03*
X88722200Y-122453000D03*
D19*
X81493400Y-119786000D03*
X82997000Y-119786000D03*
X85333800Y-111417000D03*
X83830200Y-111417000D03*
D17*
X87617300Y-105207000D03*
X84823300Y-105207000D03*
D19*
X90642400Y-110833000D03*
X89138800Y-110833000D03*
X90642400Y-107429000D03*
X89138800Y-107429000D03*
X83830200Y-107442000D03*
X85333800Y-107442000D03*
D17*
X90411300Y-102921000D03*
X87617300Y-102921000D03*
D19*
X85918000Y-102971600D03*
X84414400Y-102971600D03*
X85918000Y-101549200D03*
X84414400Y-101549200D03*
X71854100Y-90284300D03*
X73357700Y-90284300D03*
D20*
X61849000Y-121274800D03*
X61849000Y-119771200D03*
X65659000Y-119771200D03*
X65659000Y-121274800D03*
D19*
X73319600Y-126721000D03*
X71816000Y-126721000D03*
X75270400Y-126721000D03*
X76774000Y-126721000D03*
D21*
X72517000Y-125272800D03*
X76581000Y-125272800D03*
X76581000Y-122885200D03*
X72517000Y-122885200D03*
D17*
X87503000Y-129794000D03*
X84709000Y-129794000D03*
D19*
X92979200Y-138328000D03*
X91475600Y-138328000D03*
X96022200Y-139649000D03*
X97525800Y-139649000D03*
D17*
X102032000Y-140056000D03*
X99238000Y-140056000D03*
X100457000Y-121133000D03*
X97663000Y-121133000D03*
X100457000Y-102362000D03*
X97663000Y-102362000D03*
X100457000Y-83540600D03*
X97663000Y-83540600D03*
D22*
X89636600Y-59232800D03*
X89636600Y-56438800D03*
D17*
X100444300Y-64770000D03*
X97650300Y-64770000D03*
X103187000Y-45974000D03*
X100393000Y-45974000D03*
X103124000Y-43307000D03*
X100330000Y-43307000D03*
D19*
X79258200Y-71628000D03*
X80761800Y-71628000D03*
D20*
X77254100Y-88072000D03*
X77254100Y-89575600D03*
D19*
X78704400Y-91033600D03*
X77200800Y-91033600D03*
D20*
X62242700Y-91818500D03*
X62242700Y-93322100D03*
X64020700Y-93322100D03*
X64020700Y-91818500D03*
D19*
X62443400Y-88417400D03*
X63947000Y-88417400D03*
D23*
X62494200Y-85153500D03*
X64607400Y-86106000D03*
X62494200Y-87058500D03*
D19*
X56581000Y-104736900D03*
X55077400Y-104736900D03*
X56581000Y-106210000D03*
X55077400Y-106210000D03*
D22*
X69570600Y-139852000D03*
X69570600Y-137058000D03*
X60464700Y-139891000D03*
X60464700Y-137097000D03*
D24*
X29700000Y-49290000D03*
D25*
X37100000Y-57390000D03*
D24*
X27800000Y-57390000D03*
D26*
X35900000Y-53340000D03*
X28900000Y-53340000D03*
D24*
X29700000Y-63260000D03*
D25*
X37100000Y-71360000D03*
D24*
X27800000Y-71360000D03*
D26*
X35900000Y-67310000D03*
X28900000Y-67310000D03*
D24*
X29700000Y-77230000D03*
D25*
X37100000Y-85330000D03*
D24*
X27800000Y-85330000D03*
D26*
X35900000Y-81280000D03*
X28900000Y-81280000D03*
D24*
X29700000Y-91200000D03*
D25*
X37100000Y-99300000D03*
D24*
X27800000Y-99300000D03*
D26*
X35900000Y-95250000D03*
X28900000Y-95250000D03*
D24*
X29700000Y-105170000D03*
D25*
X37100000Y-113270000D03*
D24*
X27800000Y-113270000D03*
D26*
X35900000Y-109220000D03*
X28900000Y-109220000D03*
D24*
X29700000Y-119140000D03*
D25*
X37100000Y-127240000D03*
D24*
X27800000Y-127240000D03*
D26*
X35900000Y-123190000D03*
X28900000Y-123190000D03*
D24*
X29700000Y-133110000D03*
D25*
X37100000Y-141210000D03*
D24*
X27800000Y-141210000D03*
D26*
X35900000Y-137160000D03*
X28900000Y-137160000D03*
D24*
X29700000Y-147080000D03*
D25*
X37100000Y-155180000D03*
D24*
X27800000Y-155180000D03*
D26*
X35900000Y-151130000D03*
X28900000Y-151130000D03*
D27*
X74168000Y-144406800D03*
X74168000Y-138905200D03*
X74168000Y-129558200D03*
X74168000Y-135059800D03*
D28*
X88310000Y-137160000D03*
X84410000Y-137160000D03*
X88310000Y-135890000D03*
X84410000Y-135890000D03*
X88310000Y-134620000D03*
X84410000Y-134620000D03*
X88310000Y-133350000D03*
X84410000Y-133350000D03*
X88310000Y-132080000D03*
X84410000Y-132080000D03*
D29*
X52832000Y-145460000D03*
X52832000Y-141560000D03*
X54102000Y-145460000D03*
X54102000Y-141560000D03*
X55372000Y-145460000D03*
X55372000Y-141560000D03*
X56642000Y-145460000D03*
X56642000Y-141560000D03*
X57912000Y-145460000D03*
X57912000Y-141560000D03*
D30*
X91616700Y-109131000D03*
D31*
X86066700Y-109581000D03*
X86066700Y-108681000D03*
D20*
X74066400Y-156118200D03*
X74066400Y-157621800D03*
D32*
X60040000Y-157940000D03*
X72040000Y-157940000D03*
D33*
X66040000Y-153690000D03*
X70040000Y-153690000D03*
X62040000Y-153690000D03*
D32*
X60040000Y-151940000D03*
X72040000Y-151940000D03*
D34*
X75717400Y-148742400D03*
X71145400Y-148742400D03*
D35*
X52451000Y-137541000D03*
X52451000Y-139065000D03*
X54356000Y-137541000D03*
X54356000Y-139065000D03*
X56388000Y-137541000D03*
X56388000Y-139065000D03*
X58420000Y-137541000D03*
X58420000Y-139065000D03*
X57378600Y-156972000D03*
X57378600Y-158496000D03*
D18*
X81483200Y-118288000D03*
X83007200Y-118288000D03*
X83007200Y-116040000D03*
X84531200Y-116040000D03*
X91744800Y-105537000D03*
X90220800Y-105537000D03*
X82753200Y-114478000D03*
X84277200Y-114478000D03*
X96596200Y-60172600D03*
X95072200Y-60172600D03*
D36*
X66040000Y-147320000D03*
X102362000Y-38100000D03*
X29718000Y-38100000D03*
D18*
X97815400Y-60172600D03*
X99339400Y-60172600D03*
D37*
X35560000Y-36830000D03*
D38*
X35560000Y-34290000D03*
X38100000Y-36830000D03*
X38100000Y-34290000D03*
X40640000Y-36830000D03*
X40640000Y-34290000D03*
X43180000Y-36830000D03*
X43180000Y-34290000D03*
X45720000Y-36830000D03*
X45720000Y-34290000D03*
X48260000Y-36830000D03*
X48260000Y-34290000D03*
X50800000Y-36830000D03*
X50800000Y-34290000D03*
X53340000Y-36830000D03*
X53340000Y-34290000D03*
X55880000Y-36830000D03*
X55880000Y-34290000D03*
X58420000Y-36830000D03*
X58420000Y-34290000D03*
X60960000Y-36830000D03*
X60960000Y-34290000D03*
X63500000Y-36830000D03*
X63500000Y-34290000D03*
X66040000Y-36830000D03*
X66040000Y-34290000D03*
X68580000Y-36830000D03*
X68580000Y-34290000D03*
X71120000Y-36830000D03*
X71120000Y-34290000D03*
X73660000Y-36830000D03*
X73660000Y-34290000D03*
X76200000Y-36830000D03*
X76200000Y-34290000D03*
X78740000Y-36830000D03*
X78740000Y-34290000D03*
X81280000Y-36830000D03*
X81280000Y-34290000D03*
X83820000Y-36830000D03*
X83820000Y-34290000D03*
X86360000Y-36830000D03*
X86360000Y-34290000D03*
X88900000Y-36830000D03*
X88900000Y-34290000D03*
X91440000Y-36830000D03*
X91440000Y-34290000D03*
X93980000Y-36830000D03*
X93980000Y-34290000D03*
X96520000Y-36830000D03*
X96520000Y-34290000D03*
D37*
X35560000Y-43180000D03*
D38*
X35560000Y-40640000D03*
X38100000Y-43180000D03*
X38100000Y-40640000D03*
X40640000Y-43180000D03*
X40640000Y-40640000D03*
X43180000Y-43180000D03*
X43180000Y-40640000D03*
X45720000Y-43180000D03*
X45720000Y-40640000D03*
X48260000Y-43180000D03*
X48260000Y-40640000D03*
X50800000Y-43180000D03*
X50800000Y-40640000D03*
X53340000Y-43180000D03*
X53340000Y-40640000D03*
X55880000Y-43180000D03*
X55880000Y-40640000D03*
X58420000Y-43180000D03*
X58420000Y-40640000D03*
X60960000Y-43180000D03*
X60960000Y-40640000D03*
X63500000Y-43180000D03*
X63500000Y-40640000D03*
X66040000Y-43180000D03*
X66040000Y-40640000D03*
X68580000Y-43180000D03*
X68580000Y-40640000D03*
X71120000Y-43180000D03*
X71120000Y-40640000D03*
X73660000Y-43180000D03*
X73660000Y-40640000D03*
X76200000Y-43180000D03*
X76200000Y-40640000D03*
X78740000Y-43180000D03*
X78740000Y-40640000D03*
X81280000Y-43180000D03*
X81280000Y-40640000D03*
X83820000Y-43180000D03*
X83820000Y-40640000D03*
X86360000Y-43180000D03*
X86360000Y-40640000D03*
X88900000Y-43180000D03*
X88900000Y-40640000D03*
X91440000Y-43180000D03*
X91440000Y-40640000D03*
X93980000Y-43180000D03*
X93980000Y-40640000D03*
X96520000Y-43180000D03*
X96520000Y-40640000D03*
D18*
X73482200Y-87198200D03*
X71958200Y-87198200D03*
X73482200Y-88785700D03*
X71958200Y-88785700D03*
D39*
X101480000Y-131056000D03*
X101480000Y-129026000D03*
X99700000Y-132086000D03*
X99700000Y-130056000D03*
X99700000Y-134116000D03*
X101480000Y-133086000D03*
X99700000Y-128026000D03*
X101480000Y-126996000D03*
X101480000Y-93464000D03*
X101480000Y-91434000D03*
X99700000Y-94494000D03*
X99700000Y-92464000D03*
X99700000Y-96524000D03*
X101480000Y-95494000D03*
X99700000Y-90434000D03*
X101480000Y-89404000D03*
X101480000Y-74668000D03*
X101480000Y-72638000D03*
X99700000Y-75698000D03*
X99700000Y-73668000D03*
X99700000Y-77728000D03*
X101480000Y-76698000D03*
X99700000Y-71638000D03*
X101480000Y-70608000D03*
X101480000Y-112260000D03*
X101480000Y-110230000D03*
X99700000Y-113290000D03*
X99700000Y-111260000D03*
X99700000Y-115320000D03*
X101480000Y-114290000D03*
X99700000Y-109230000D03*
X101480000Y-108200000D03*
X92376000Y-53970000D03*
X92376000Y-51440000D03*
X94916000Y-55240000D03*
X94916000Y-52710000D03*
D40*
X66040000Y-72700000D03*
X66040000Y-130500000D03*
D41*
X65036700Y-135267000D03*
D42*
X62786700Y-141567000D03*
X64286700Y-141567000D03*
X65786700Y-141567000D03*
X67286700Y-141567000D03*
D43*
X87630000Y-157480000D03*
D44*
X87630000Y-154940000D03*
X87630000Y-152400000D03*
X87630000Y-149860000D03*
X87630000Y-147320000D03*
X87630000Y-144780000D03*
D45*
X79502000Y-108712000D03*
X82677000Y-108712000D03*
X79502000Y-99441000D03*
X60706000Y-113030000D03*
D46*
X55025000Y-156026000D03*
X52925000Y-156026000D03*
X53975000Y-158426000D03*
D35*
X57378600Y-154153000D03*
X57378600Y-155677000D03*
D47*
X54737000Y-151991000D03*
D48*
X54737000Y-148491000D03*
D49*
X81010000Y-158570000D03*
X79010000Y-158570000D03*
D50*
X76510000Y-158570000D03*
D51*
X79360000Y-155895000D03*
X78710000Y-155895000D03*
X80010000Y-155895000D03*
X80660000Y-155895000D03*
X81310000Y-155895000D03*
D52*
X82510000Y-155895000D03*
X77510000Y-155895000D03*
D50*
X83510000Y-158570000D03*
D53*
X42080000Y-156016000D03*
X44280000Y-156016000D03*
D54*
X43180000Y-153416000D03*
D53*
X42080000Y-149920000D03*
X44280000Y-149920000D03*
D54*
X43180000Y-147320000D03*
D53*
X42080000Y-142046000D03*
X44280000Y-142046000D03*
D54*
X43180000Y-139446000D03*
D53*
X42080000Y-135950000D03*
X44280000Y-135950000D03*
D54*
X43180000Y-133350000D03*
D53*
X42080000Y-128076000D03*
X44280000Y-128076000D03*
D54*
X43180000Y-125476000D03*
D53*
X42080000Y-121980000D03*
X44280000Y-121980000D03*
D54*
X43180000Y-119380000D03*
D53*
X42080000Y-114106000D03*
X44280000Y-114106000D03*
D54*
X43180000Y-111506000D03*
D53*
X42080000Y-108010000D03*
X44280000Y-108010000D03*
D54*
X43180000Y-105410000D03*
D53*
X42080000Y-100136000D03*
X44280000Y-100136000D03*
D54*
X43180000Y-97536000D03*
D53*
X42080000Y-94040000D03*
X44280000Y-94040000D03*
D54*
X43180000Y-91440000D03*
D53*
X42080000Y-86166000D03*
X44280000Y-86166000D03*
D54*
X43180000Y-83566000D03*
D53*
X42080000Y-80070000D03*
X44280000Y-80070000D03*
D54*
X43180000Y-77470000D03*
D53*
X42080000Y-72196000D03*
X44280000Y-72196000D03*
D54*
X43180000Y-69596000D03*
D53*
X42080000Y-66100000D03*
X44280000Y-66100000D03*
D54*
X43180000Y-63500000D03*
D53*
X42080000Y-58226000D03*
X44280000Y-58226000D03*
D54*
X43180000Y-55626000D03*
D53*
X42080000Y-52130000D03*
X44280000Y-52130000D03*
D54*
X43180000Y-49530000D03*
D55*
X83784000Y-62282000D03*
X79284000Y-62282000D03*
X79284000Y-68782000D03*
X83784000Y-68782000D03*
X91658000Y-62282000D03*
X87158000Y-62282000D03*
X87158000Y-68782000D03*
X91658000Y-68782000D03*
D56*
X61353700Y-117380000D03*
X61861700Y-117380000D03*
X62357000Y-117380000D03*
X62852300Y-117380000D03*
X63360300Y-117380000D03*
X63855600Y-117380000D03*
X64350900Y-117380000D03*
X64858900Y-117380000D03*
X65354200Y-117380000D03*
X65849500Y-117380000D03*
X66357500Y-117380000D03*
X66852800Y-117380000D03*
X67348100Y-117380000D03*
X67856100Y-117380000D03*
X68351400Y-117380000D03*
X68846700Y-117380000D03*
X69354700Y-117380000D03*
X69850000Y-117380000D03*
X70358000Y-117380000D03*
X70853300Y-117380000D03*
X71361300Y-117380000D03*
X71856600Y-117380000D03*
X72351900Y-117380000D03*
X72859900Y-117380000D03*
X73355200Y-117380000D03*
X73850500Y-117380000D03*
X74358500Y-117380000D03*
X74853800Y-117380000D03*
X75349100Y-117380000D03*
X75857100Y-117380000D03*
X76352400Y-117380000D03*
X76847700Y-117380000D03*
X77355700Y-117380000D03*
X77851000Y-117380000D03*
X78346300Y-117380000D03*
X78854300Y-117380000D03*
D57*
X80804000Y-100926900D03*
X80804000Y-100431600D03*
X80804000Y-99936300D03*
X80804000Y-99428300D03*
X80804000Y-98933000D03*
X80804000Y-98437700D03*
X80804000Y-97929700D03*
X59404000Y-100431600D03*
X59404000Y-100926900D03*
X59404000Y-101434900D03*
X59404000Y-101930200D03*
X59404000Y-102425500D03*
X59404000Y-102933500D03*
X59404000Y-103428800D03*
X59404000Y-103924100D03*
X59404000Y-104432100D03*
X59404000Y-104927400D03*
X59404000Y-105422700D03*
X59404000Y-105930700D03*
X59404000Y-106426000D03*
X59404000Y-106934000D03*
X59404000Y-107429300D03*
X59404000Y-107937300D03*
X59404000Y-108432600D03*
X59404000Y-108927900D03*
X59404000Y-109435900D03*
X59404000Y-109931200D03*
X59404000Y-110426500D03*
X59404000Y-110934500D03*
X59404000Y-111429800D03*
X59404000Y-111925100D03*
X59404000Y-112433100D03*
X59404000Y-112928400D03*
X59404000Y-113423700D03*
X59404000Y-113931700D03*
X59404000Y-114427000D03*
X59404000Y-114922300D03*
X59404000Y-115430300D03*
X80804000Y-115430300D03*
X80804000Y-114922300D03*
X80804000Y-114427000D03*
X80804000Y-113931700D03*
X80804000Y-113423700D03*
X80804000Y-112928400D03*
X80804000Y-112433100D03*
X80804000Y-111925100D03*
X80804000Y-111429800D03*
X80804000Y-110934500D03*
X80804000Y-110426500D03*
X80804000Y-109931200D03*
X80804000Y-109435900D03*
X80804000Y-108927900D03*
X80804000Y-108432600D03*
X80804000Y-107937300D03*
X80804000Y-107429300D03*
X80804000Y-106934000D03*
X80804000Y-106426000D03*
X80804000Y-105930700D03*
X80804000Y-105422700D03*
X80804000Y-104927400D03*
X80804000Y-104432100D03*
X80804000Y-103924100D03*
X80804000Y-103428800D03*
X80804000Y-102933500D03*
X80804000Y-102425500D03*
X80804000Y-101930200D03*
X80804000Y-101434900D03*
D56*
X76352400Y-95980000D03*
X75857100Y-95980000D03*
X75349100Y-95980000D03*
X74853800Y-95980000D03*
X74358500Y-95980000D03*
X73850500Y-95980000D03*
X73355200Y-95980000D03*
X72859900Y-95980000D03*
X72351900Y-95980000D03*
X71856600Y-95980000D03*
X71361300Y-95980000D03*
X70853300Y-95980000D03*
X70358000Y-95980000D03*
X69850000Y-95980000D03*
X69354700Y-95980000D03*
X68846700Y-95980000D03*
X68351400Y-95980000D03*
X67856100Y-95980000D03*
X67348100Y-95980000D03*
X66852800Y-95980000D03*
X66357500Y-95980000D03*
X65849500Y-95980000D03*
X65354200Y-95980000D03*
X64858900Y-95980000D03*
X64350900Y-95980000D03*
X63855600Y-95980000D03*
X63360300Y-95980000D03*
X62852300Y-95980000D03*
X62357000Y-95980000D03*
X61861700Y-95980000D03*
X61353700Y-95980000D03*
X78854300Y-95980000D03*
X78346300Y-95980000D03*
X77851000Y-95980000D03*
X77355700Y-95980000D03*
X76847700Y-95980000D03*
D57*
X59404000Y-97929700D03*
X59404000Y-98437700D03*
X59404000Y-98933000D03*
X59404000Y-99428300D03*
X59404000Y-99936300D03*
D58*
X55626000Y-112420400D03*
X54203600Y-108915200D03*
X60736480Y-111434880D03*
X57251600Y-110947200D03*
X60746640Y-110429040D03*
X57083960Y-109199680D03*
X60766960Y-109479080D03*
X62042040Y-106791760D03*
X60934600Y-104175560D03*
X60716160Y-102595680D03*
X64343280Y-97683320D03*
X65597700Y-93496000D03*
X65841880Y-97718880D03*
X66842640Y-97764600D03*
X73558400Y-47218600D03*
X76200000Y-45745400D03*
X71069600Y-83389800D03*
X81132680Y-73167240D03*
X81132680Y-81554320D03*
X77876400Y-84810600D03*
X76504800Y-51841400D03*
X74371200Y-111988600D03*
X85877400Y-53086000D03*
X67259700Y-100893800D03*
X64531700Y-114944500D03*
X94335600Y-159258000D03*
X87249000Y-139928600D03*
X82130100Y-129328100D03*
X90271600Y-135280400D03*
X95732600Y-159182000D03*
X97104200Y-159258000D03*
X89027000Y-138861800D03*
X90855800Y-133350000D03*
X98171000Y-159258000D03*
X64046300Y-120052000D03*
X85953600Y-150596600D03*
X85572600Y-141859000D03*
X82335800Y-136506500D03*
X63557500Y-114998800D03*
X63980200Y-115941600D03*
X87553800Y-138125200D03*
X88493600Y-146050000D03*
X76682600Y-137160000D03*
X74689500Y-119046900D03*
X71272400Y-113944400D03*
X61341000Y-142138400D03*
X62052200Y-132918200D03*
X72644000Y-121666000D03*
X68224400Y-111734600D03*
X54864000Y-131826000D03*
X95072200Y-61671200D03*
X81178400Y-89281000D03*
X99339400Y-61671200D03*
X81889600Y-88493600D03*
X75976480Y-93583760D03*
X69284500Y-100712200D03*
X73476400Y-93400500D03*
X73036500Y-94344800D03*
X70307200Y-100685600D03*
X75044300Y-97282000D03*
X79242920Y-100812600D03*
X70612000Y-107010200D03*
X84912200Y-96367600D03*
X69888100Y-105308400D03*
X71501000Y-105410000D03*
X77343000Y-101904800D03*
X75819000Y-100787200D03*
X75819000Y-102158800D03*
X74803000Y-101828600D03*
X75462500Y-104962800D03*
X76911100Y-99268800D03*
X61945400Y-101321500D03*
X94538800Y-110210600D03*
X78744600Y-106232400D03*
X61353700Y-97371800D03*
X62695600Y-103073200D03*
X61454800Y-99824200D03*
X68630800Y-97459800D03*
X79273400Y-73456800D03*
X58877200Y-140081000D03*
X64516000Y-110490000D03*
X62206400Y-107879900D03*
X83743800Y-146100800D03*
X78486000Y-115824000D03*
X78486000Y-151702000D03*
X72326500Y-156108000D03*
X61645800Y-102412800D03*
X64262700Y-89780400D03*
X60452000Y-119761000D03*
X86055200Y-104660700D03*
X55659600Y-103437000D03*
X65252500Y-108503600D03*
X92608400Y-104241600D03*
X82778600Y-104076500D03*
X77490320Y-115890040D03*
X84540300Y-120462100D03*
X61976000Y-105283000D03*
X87122000Y-71628000D03*
X70612000Y-129540000D03*
X98704400Y-43383200D03*
X65963800Y-115519200D03*
X78486000Y-107671000D03*
X76250800Y-105664000D03*
X79349600Y-102920800D03*
X84759800Y-128016000D03*
X98653600Y-138684000D03*
X92456000Y-113119000D03*
X57429400Y-136550400D03*
X72567800Y-128282700D03*
X70154800Y-131928000D03*
X75641200Y-128308000D03*
X78435200Y-86385400D03*
X92659200Y-105537000D03*
X56159400Y-133312000D03*
X60198000Y-143205000D03*
X95935800Y-64770000D03*
X70307200Y-143104000D03*
X70307200Y-134302000D03*
X95961200Y-121006000D03*
X95961200Y-102362000D03*
X95834200Y-83591400D03*
X63246000Y-97891600D03*
X71628000Y-140589000D03*
X98831400Y-44983400D03*
X95275400Y-38760400D03*
X91770200Y-56464200D03*
X98704400Y-46659800D03*
X71958200Y-85750400D03*
X66903600Y-139294000D03*
X62814200Y-143205000D03*
X60980320Y-106690160D03*
X70700900Y-126314000D03*
X64135000Y-121539000D03*
X30480000Y-155194000D03*
X30480000Y-141224000D03*
X30480000Y-127254000D03*
X30480000Y-113284000D03*
X30480000Y-99314000D03*
X30480000Y-85344000D03*
X30480000Y-71374000D03*
X30480000Y-57404000D03*
X46482000Y-155956000D03*
X46482000Y-149860000D03*
X46482000Y-141986000D03*
X46482000Y-135890000D03*
X46482000Y-128016000D03*
X46482000Y-121920000D03*
X46482000Y-114046000D03*
X46482000Y-107950000D03*
X46482000Y-100076000D03*
X46482000Y-93980000D03*
X46482000Y-86106000D03*
X46482000Y-80010000D03*
X46482000Y-72136000D03*
X46482000Y-66040000D03*
X46482000Y-58166000D03*
X46482000Y-52070000D03*
X72771000Y-133350000D03*
X72745600Y-140614400D03*
X66852800Y-115951000D03*
X79171800Y-111557000D03*
X76504800Y-119278400D03*
X77724000Y-104648000D03*
X79438500Y-106934000D03*
X62344300Y-97358200D03*
X92303600Y-140843000D03*
X91363800Y-140843000D03*
X91592400Y-110820000D03*
X102032000Y-64770000D03*
X83972400Y-118288000D03*
X102108000Y-121107000D03*
X91668600Y-107442000D03*
X86512400Y-111455000D03*
X76362560Y-90337640D03*
X54038500Y-105486200D03*
X64604900Y-87122000D03*
X104724000Y-45999400D03*
X104597000Y-43307000D03*
X91236800Y-59537600D03*
X89077800Y-105207000D03*
X67665600Y-135433000D03*
X52705000Y-158369000D03*
X62242700Y-90766900D03*
X64020700Y-90766900D03*
X90335100Y-122453000D03*
X92468700Y-115164000D03*
X91909900Y-102921000D03*
X86893400Y-101244400D03*
X100660200Y-138709400D03*
X89154000Y-129794000D03*
X71856600Y-91440000D03*
X86360000Y-107442000D03*
X76771500Y-127838000D03*
X72745600Y-137643000D03*
X72758300Y-136309000D03*
X72771000Y-134239000D03*
X72745600Y-139700000D03*
X72771000Y-135331200D03*
X72745600Y-138633200D03*
X59385200Y-145465800D03*
X102108000Y-83540600D03*
X102159000Y-102362000D03*
X94919800Y-139179000D03*
X103886000Y-140640000D03*
X103886000Y-139522000D03*
X67183000Y-136144000D03*
X68173600Y-134722000D03*
X82550000Y-121221500D03*
X78206600Y-112649000D03*
X86423500Y-115164000D03*
X78003400Y-111379000D03*
X77241400Y-136194800D03*
X67828160Y-115986560D03*
X58521600Y-153695400D03*
X66802000Y-119253000D03*
X67220400Y-99922400D03*
X82226500Y-75836700D03*
D59*
X59118500Y-112433100D02*
X59105800Y-112420400D01*
X55626000Y-112420400D02*
X59105800Y-112420400D01*
X35560000Y-36830000D02*
X35560000Y-36855400D01*
X34188400Y-41808400D02*
X35560000Y-43180000D01*
X34188400Y-38227000D02*
X34188400Y-41808400D01*
X35560000Y-36855400D02*
X34188400Y-38227000D01*
X54203600Y-108915200D02*
X57213500Y-111925100D01*
X59118500Y-111925100D02*
X57213500Y-111925100D01*
X36838500Y-35568500D02*
X35560000Y-34290000D01*
X36838500Y-39361500D02*
X36838500Y-35568500D01*
X35560000Y-40640000D02*
X36838500Y-39361500D01*
X59404000Y-111429800D02*
X60731400Y-111429800D01*
X60731400Y-111429800D02*
X60736480Y-111434880D01*
X57264300Y-110934500D02*
X59118500Y-110934500D01*
X57264300Y-110934500D02*
X57251600Y-110947200D01*
X60744100Y-110426500D02*
X59404000Y-110426500D01*
X60746640Y-110429040D02*
X60744100Y-110426500D01*
X41900600Y-41900600D02*
X41900600Y-44542600D01*
X40640000Y-40640000D02*
X41900600Y-41900600D01*
X41900600Y-44542600D02*
X42900200Y-45542200D01*
X48818800Y-45542200D02*
X42900200Y-45542200D01*
X39357500Y-39357500D02*
X40640000Y-40640000D01*
X39357500Y-35572500D02*
X39357500Y-39357500D01*
X40640000Y-34290000D02*
X39357500Y-35572500D01*
X56257714Y-109880400D02*
X56261000Y-109880400D01*
X52705000Y-106349960D02*
X56257714Y-109880400D01*
X52705000Y-47599600D02*
X51206400Y-46101000D01*
X51206400Y-46101000D02*
X49377600Y-46101000D01*
X49377600Y-46101000D02*
X48818800Y-45542200D01*
X52705000Y-106349960D02*
X52705000Y-47599600D01*
X56311800Y-109931200D02*
X59118500Y-109931200D01*
X56261000Y-109880400D02*
X56311800Y-109931200D01*
X57083960Y-109199680D02*
X57650380Y-109199680D01*
X57886600Y-109435900D02*
X59118500Y-109435900D01*
X57650380Y-109199680D02*
X57886600Y-109435900D01*
X60215780Y-108927900D02*
X59404000Y-108927900D01*
X60766960Y-109479080D02*
X60215780Y-108927900D01*
X41897500Y-39357500D02*
X43180000Y-40640000D01*
X41897500Y-35572500D02*
X41897500Y-39357500D01*
X43180000Y-34290000D02*
X41897500Y-35572500D01*
X45720000Y-36830000D02*
X45720000Y-37896800D01*
X46983600Y-41941800D02*
X46983600Y-39160400D01*
X46983600Y-39160400D02*
X45720000Y-37896800D01*
X45745400Y-43180000D02*
X46983600Y-41941800D01*
X45745400Y-43180000D02*
X45720000Y-43180000D01*
X49569230Y-45660450D02*
X51527850Y-45660450D01*
X45720000Y-43180000D02*
X45720000Y-44424600D01*
X46380400Y-45085000D02*
X48993780Y-45085000D01*
X45720000Y-44424600D02*
X46380400Y-45085000D01*
X49569230Y-45660450D02*
X48993780Y-45085000D01*
X53147700Y-106072200D02*
X53147700Y-47280300D01*
X51527850Y-45660450D02*
X53147700Y-47280300D01*
X59118500Y-107429300D02*
X54504800Y-107429300D01*
X54504800Y-107429300D02*
X53147700Y-106072200D01*
X60294400Y-106934000D02*
X60294400Y-107010080D01*
X59118500Y-106934000D02*
X60294400Y-106934000D01*
X61457840Y-107375960D02*
X62042040Y-106791760D01*
X60660280Y-107375960D02*
X61457840Y-107375960D01*
X60294400Y-107010080D02*
X60660280Y-107375960D01*
X59404000Y-104927400D02*
X60182760Y-104927400D01*
X60182760Y-104927400D02*
X60934600Y-104175560D01*
X49926360Y-44787700D02*
X51556800Y-44787700D01*
X51556800Y-44787700D02*
X53625200Y-46856100D01*
X48260000Y-39090300D02*
X48260000Y-41122600D01*
X46983900Y-37814200D02*
X48260000Y-39090300D01*
X46983900Y-35566100D02*
X46983900Y-37814200D01*
X48260000Y-34290000D02*
X46983900Y-35566100D01*
X49521500Y-44382840D02*
X49926360Y-44787700D01*
X49521500Y-42384100D02*
X49521500Y-44382840D01*
X48260000Y-41122600D02*
X49521500Y-42384100D01*
X53625200Y-46856100D02*
X53625200Y-100258300D01*
X59118500Y-104432100D02*
X57799000Y-104432100D01*
X53625200Y-100258300D02*
X57799000Y-104432100D01*
X54057002Y-46443400D02*
X54057002Y-100115362D01*
X50800000Y-43180000D02*
X50800000Y-43186398D01*
X54057002Y-46443400D02*
X50800000Y-43186398D01*
X57865740Y-103924100D02*
X59118500Y-103924100D01*
X54057002Y-100115362D02*
X57865740Y-103924100D01*
X50800000Y-36830000D02*
X49530000Y-38100000D01*
X50800000Y-42672000D02*
X50800000Y-43180000D01*
X49530000Y-41402000D02*
X50800000Y-42672000D01*
X49530000Y-38100000D02*
X49530000Y-41402000D01*
X50795300Y-43175300D02*
X50800000Y-43180000D01*
X59404000Y-103428800D02*
X60187840Y-103428800D01*
X60700920Y-102610920D02*
X60716160Y-102595680D01*
X60700920Y-102915720D02*
X60700920Y-102610920D01*
X60187840Y-103428800D02*
X60700920Y-102915720D01*
X52063600Y-39376400D02*
X50800000Y-40640000D01*
X52063600Y-35553600D02*
X52063600Y-39376400D01*
X50800000Y-34290000D02*
X52063600Y-35553600D01*
X53340000Y-43180000D02*
X53340000Y-44880320D01*
X59118500Y-102933500D02*
X57476200Y-102933500D01*
X54489400Y-99946700D02*
X57476200Y-102933500D01*
X54489400Y-46029720D02*
X54489400Y-99946700D01*
X53340000Y-44880320D02*
X54489400Y-46029720D01*
X53340000Y-40640000D02*
X54580700Y-41880700D01*
X57543500Y-102425500D02*
X59118500Y-102425500D01*
X54947000Y-99829000D02*
X57543500Y-102425500D01*
X54947000Y-44486800D02*
X54947000Y-99829000D01*
X54580700Y-44120500D02*
X54947000Y-44486800D01*
X54580700Y-41880700D02*
X54580700Y-44120500D01*
X55880000Y-43180000D02*
X55880000Y-44475400D01*
X55880000Y-44475400D02*
X55397400Y-44958000D01*
X55397400Y-99635700D02*
X55397400Y-44958000D01*
X59118500Y-101930200D02*
X57691900Y-101930200D01*
X57691900Y-101930200D02*
X55397400Y-99635700D01*
X57131100Y-41891100D02*
X55880000Y-40640000D01*
X57131100Y-44410000D02*
X57131100Y-41891100D01*
X55837300Y-45703800D02*
X57131100Y-44410000D01*
X55837300Y-99500400D02*
X55837300Y-45703800D01*
X57771800Y-101434900D02*
X55837300Y-99500400D01*
X59118500Y-101434900D02*
X57771800Y-101434900D01*
X58420000Y-44212400D02*
X58420000Y-43180000D01*
X56269400Y-46363000D02*
X58420000Y-44212400D01*
X56269400Y-99344900D02*
X56269400Y-46363000D01*
X59118500Y-100926900D02*
X57851400Y-100926900D01*
X57851400Y-100926900D02*
X56269400Y-99344900D01*
X57137500Y-35572500D02*
X58420000Y-34290000D01*
X57137500Y-39357500D02*
X57137500Y-35572500D01*
X58420000Y-40640000D02*
X57137500Y-39357500D01*
X58420000Y-40640000D02*
X59690600Y-41910600D01*
X59118500Y-100431600D02*
X57931300Y-100431600D01*
X56714200Y-99214500D02*
X57931300Y-100431600D01*
X56714200Y-47146700D02*
X56714200Y-99214500D01*
X59690600Y-44170300D02*
X56714200Y-47146700D01*
X59690600Y-41910600D02*
X59690600Y-44170300D01*
X60209900Y-44785200D02*
X60210780Y-44785200D01*
X59118500Y-99936300D02*
X58051400Y-99936300D01*
X60209900Y-44785200D02*
X57146400Y-47848700D01*
X57146400Y-47848700D02*
X57146400Y-99031300D01*
X57146400Y-99031300D02*
X58051400Y-99936300D01*
X60960000Y-44035980D02*
X60960000Y-43180000D01*
X60210780Y-44785200D02*
X60960000Y-44035980D01*
X57581400Y-48717600D02*
X57581400Y-98891560D01*
X57581400Y-48717600D02*
X62240200Y-44058800D01*
X62240200Y-44058800D02*
X62240200Y-41920200D01*
X60960000Y-40640000D02*
X62240200Y-41920200D01*
X58118140Y-99428300D02*
X59118500Y-99428300D01*
X57581400Y-98891560D02*
X58118140Y-99428300D01*
X58014100Y-49478700D02*
X63474600Y-44018200D01*
X58014100Y-73018200D02*
X58014100Y-49478700D01*
X65722100Y-80726200D02*
X58014100Y-73018200D01*
X65722100Y-92401300D02*
X65722100Y-80726200D01*
X64911600Y-93211800D02*
X65722100Y-92401300D01*
X64911600Y-93868600D02*
X64911600Y-93211800D01*
X63474600Y-43205400D02*
X63500000Y-43180000D01*
X63474600Y-44018200D02*
X63474600Y-43205400D01*
X63855600Y-95694500D02*
X63855600Y-94742000D01*
X64490600Y-94107000D02*
X64673200Y-94107000D01*
X63855600Y-94742000D02*
X64490600Y-94107000D01*
X64673200Y-94107000D02*
X64911600Y-93868600D01*
X64350900Y-95980000D02*
X64350900Y-97675700D01*
X64350900Y-97675700D02*
X64343280Y-97683320D01*
X62236300Y-35553700D02*
X63500000Y-34290000D01*
X62236300Y-39376300D02*
X62236300Y-35553700D01*
X63500000Y-40640000D02*
X62236300Y-39376300D01*
X64858900Y-94496600D02*
X64858900Y-95694500D01*
X65597700Y-93757800D02*
X64858900Y-94496600D01*
X65597700Y-93496000D02*
X65597700Y-93757800D01*
X58454500Y-50174100D02*
X64761700Y-43866900D01*
X64761700Y-43866900D02*
X64761700Y-41918300D01*
X66040000Y-40640000D02*
X64761700Y-41918300D01*
X65436700Y-94627400D02*
X65436700Y-94634100D01*
X65436700Y-94627400D02*
X66283800Y-93780300D01*
X66283800Y-93780300D02*
X66283800Y-80635100D01*
X66283800Y-80635100D02*
X58454500Y-72805800D01*
X58454500Y-72805800D02*
X58454500Y-50174100D01*
X65354200Y-94716600D02*
X65354200Y-95694500D01*
X65436700Y-94634100D02*
X65354200Y-94716600D01*
X65849500Y-95980000D02*
X65849500Y-97711260D01*
X65849500Y-97711260D02*
X65841880Y-97718880D01*
X67306800Y-41913200D02*
X68580000Y-40640000D01*
X67306800Y-43878200D02*
X67306800Y-41913200D01*
X70690200Y-47261600D02*
X67306800Y-43878200D01*
X70690200Y-77012700D02*
X70690200Y-47261600D01*
X66842900Y-80860000D02*
X70690200Y-77012700D01*
X66842900Y-94142000D02*
X66842900Y-80860000D01*
X66357500Y-95694500D02*
X66357500Y-94627400D01*
X66357500Y-94627400D02*
X66842900Y-94142000D01*
X66852800Y-95980000D02*
X66852800Y-97754440D01*
X66852800Y-97754440D02*
X66842640Y-97764600D01*
X69844400Y-35565600D02*
X71120000Y-34290000D01*
X69844400Y-39364400D02*
X69844400Y-35565600D01*
X71120000Y-40640000D02*
X69844400Y-39364400D01*
X69839500Y-41920500D02*
X71120000Y-40640000D01*
X69839500Y-44455800D02*
X69839500Y-41920500D01*
X71198600Y-45814900D02*
X69839500Y-44455800D01*
X71198600Y-77204600D02*
X71198600Y-45814900D01*
X67348100Y-81055100D02*
X71198600Y-77204600D01*
X67348100Y-95694500D02*
X67348100Y-81055100D01*
X71719600Y-77393700D02*
X71719600Y-46212600D01*
X73660000Y-44272200D02*
X73660000Y-43180000D01*
X71719600Y-46212600D02*
X73660000Y-44272200D01*
X67856100Y-81257200D02*
X67856100Y-95694500D01*
X71719600Y-77393700D02*
X67856100Y-81257200D01*
X74934200Y-41914200D02*
X73660000Y-40640000D01*
X74934200Y-43907100D02*
X74934200Y-41914200D01*
X72253400Y-46587900D02*
X74934200Y-43907100D01*
X72253400Y-77570600D02*
X72253400Y-46587900D01*
X68351400Y-95694500D02*
X68351400Y-81472600D01*
X68351400Y-81472600D02*
X72253400Y-77570600D01*
X77470400Y-38100400D02*
X76200000Y-36830000D01*
X77470400Y-41337100D02*
X77470400Y-38100400D01*
X76200000Y-42607500D02*
X77470400Y-41337100D01*
X76200000Y-43510200D02*
X76200000Y-42607500D01*
X72761700Y-46948500D02*
X76200000Y-43510200D01*
X72761700Y-77793100D02*
X72761700Y-46948500D01*
X68846700Y-81708100D02*
X72761700Y-77793100D01*
X68846700Y-95694500D02*
X68846700Y-81708100D01*
X73270100Y-47506900D02*
X73558400Y-47218600D01*
X73270100Y-77995500D02*
X73270100Y-47506900D01*
X69354700Y-81910900D02*
X73270100Y-77995500D01*
X69354700Y-95694500D02*
X69354700Y-81910900D01*
X78740000Y-36830000D02*
X78740000Y-38303200D01*
X78740000Y-42672000D02*
X78740000Y-43180000D01*
X80010000Y-41402000D02*
X78740000Y-42672000D01*
X80010000Y-39573200D02*
X80010000Y-41402000D01*
X78740000Y-38303200D02*
X80010000Y-39573200D01*
X73812257Y-50873015D02*
X73810600Y-78207900D01*
X73810600Y-78207900D02*
X69850000Y-82168500D01*
X69850000Y-95694500D02*
X69850000Y-82168500D01*
X73812257Y-48133143D02*
X73812257Y-50873015D01*
X73812257Y-48133143D02*
X76200000Y-45745400D01*
X77444600Y-44119800D02*
X77446500Y-45540300D01*
X77446500Y-45540300D02*
X74320400Y-48666400D01*
X77448400Y-42290000D02*
X77444600Y-44119800D01*
X78740000Y-40998400D02*
X77448400Y-42290000D01*
X78740000Y-40640000D02*
X78740000Y-40998400D01*
X74320400Y-48666400D02*
X74320400Y-78443300D01*
X70358000Y-82405700D02*
X70358000Y-95694500D01*
X74320400Y-78443300D02*
X70358000Y-82405700D01*
X70853300Y-83606100D02*
X70853300Y-95694500D01*
X71069600Y-83389800D02*
X70853300Y-83606100D01*
X74765413Y-91526355D02*
X74899515Y-91526355D01*
X74765413Y-91526355D02*
X74766100Y-78748100D01*
X74766100Y-78748100D02*
X74764500Y-78749700D01*
X74764500Y-78749700D02*
X74764500Y-49009700D01*
X74764500Y-49009700D02*
X80004200Y-43770000D01*
X80004200Y-43770000D02*
X80004200Y-42413200D01*
X80004200Y-42413200D02*
X81280000Y-41137400D01*
X81280000Y-40640000D02*
X81280000Y-41137400D01*
X76847700Y-93474540D02*
X76847700Y-95980000D01*
X74899515Y-91526355D02*
X76847700Y-93474540D01*
X81280000Y-40640000D02*
X81280000Y-39344600D01*
X81280000Y-39344600D02*
X79990900Y-38055500D01*
X79990900Y-38055500D02*
X79990900Y-35579100D01*
X79990900Y-35579100D02*
X81280000Y-34290000D01*
X77355700Y-95980000D02*
X77355700Y-93317060D01*
X81132680Y-81554320D02*
X81132680Y-73167240D01*
X75234800Y-87452200D02*
X77876400Y-84810600D01*
X75234800Y-91196160D02*
X75234800Y-87452200D01*
X77355700Y-93317060D02*
X75234800Y-91196160D01*
X83820000Y-42683000D02*
X83820000Y-43180000D01*
X85090400Y-41412600D02*
X83820000Y-42683000D01*
X85090400Y-38100400D02*
X85090400Y-41412600D01*
X83820000Y-36830000D02*
X85090400Y-38100400D01*
X76495189Y-52587611D02*
X76495189Y-51851011D01*
X83223100Y-96659700D02*
X83223100Y-88042100D01*
X76495189Y-52587611D02*
X76486963Y-81305963D01*
X81953100Y-97929700D02*
X83223100Y-96659700D01*
X81089500Y-97929700D02*
X81953100Y-97929700D01*
X83223100Y-88042100D02*
X76486963Y-81305963D01*
X76495189Y-51851011D02*
X76504800Y-51841400D01*
X82530900Y-35579100D02*
X83820000Y-34290000D01*
X82530900Y-39350900D02*
X82530900Y-35579100D01*
X83820000Y-40640000D02*
X82530900Y-39350900D01*
X77248600Y-49256100D02*
X79895700Y-46609000D01*
X86360000Y-43180000D02*
X86385400Y-43205400D01*
X83997800Y-46609000D02*
X86385400Y-44221400D01*
X83858100Y-88034700D02*
X77248600Y-81425200D01*
X86385400Y-44221400D02*
X86385400Y-43205400D01*
X79895700Y-46609000D02*
X83997800Y-46609000D01*
X77248600Y-81425200D02*
X77248600Y-49256100D01*
X83858100Y-96736200D02*
X83858100Y-88034700D01*
X82156600Y-98437700D02*
X81089500Y-98437700D01*
X82156600Y-98437700D02*
X83858100Y-96736200D01*
X80804000Y-99936300D02*
X79189580Y-99936300D01*
X78923600Y-98510640D02*
X82592800Y-94841440D01*
X82592800Y-94841440D02*
X82592800Y-88072100D01*
X75625800Y-49951800D02*
X75625800Y-81092100D01*
X75625800Y-81092100D02*
X75619300Y-81098600D01*
X79654400Y-45923200D02*
X83027200Y-45923200D01*
X75625800Y-49951800D02*
X79654400Y-45923200D01*
X86360000Y-41073800D02*
X86360000Y-40640000D01*
X85107000Y-42326800D02*
X86360000Y-41073800D01*
X85107000Y-43843400D02*
X85107000Y-42326800D01*
X83027200Y-45923200D02*
X85107000Y-43843400D01*
X82592800Y-88072100D02*
X75619300Y-81098600D01*
X78923600Y-99670320D02*
X78923600Y-98510640D01*
X79189580Y-99936300D02*
X78923600Y-99670320D01*
X85779500Y-96803100D02*
X85779500Y-89284700D01*
X84785200Y-47294800D02*
X88900000Y-43180000D01*
X80225900Y-47294800D02*
X84785200Y-47294800D01*
X77698600Y-49822100D02*
X80225900Y-47294800D01*
X77698600Y-81203800D02*
X77698600Y-49822100D01*
X85779500Y-89284700D02*
X77698600Y-81203800D01*
X81089500Y-100431600D02*
X82156600Y-100431600D01*
X82156600Y-100426000D02*
X82156600Y-100431600D01*
X85779500Y-96803100D02*
X82156600Y-100426000D01*
X80556100Y-47955200D02*
X86106000Y-47955200D01*
X78143100Y-50368200D02*
X80556100Y-47955200D01*
X78143100Y-81013300D02*
X78143100Y-50368200D01*
X90170000Y-43891200D02*
X86106000Y-47955200D01*
X90170000Y-41910000D02*
X88900000Y-40640000D01*
X90170000Y-41910000D02*
X90170000Y-43891200D01*
X86233980Y-96978180D02*
X86233980Y-89104180D01*
X86233980Y-89104180D02*
X78143100Y-81013300D01*
X81089500Y-100926900D02*
X82285260Y-100926900D01*
X82285260Y-100926900D02*
X86233980Y-96978180D01*
X91440000Y-40640000D02*
X92710000Y-41910000D01*
X74358500Y-112001300D02*
X74358500Y-117665500D01*
X74358500Y-112001300D02*
X74371200Y-111988600D01*
X92710000Y-44831000D02*
X92710000Y-41910000D01*
X85877400Y-51663600D02*
X92710000Y-44831000D01*
X85877400Y-53086000D02*
X85877400Y-51663600D01*
X90176300Y-35553700D02*
X91440000Y-34290000D01*
X91440000Y-40640000D02*
X90176300Y-39376300D01*
X90176300Y-39376300D02*
X90176300Y-35553700D01*
X61861700Y-109770200D02*
X63299200Y-108332700D01*
X63299200Y-108332700D02*
X63299200Y-104854300D01*
X63299200Y-104854300D02*
X67259700Y-100893800D01*
X61861700Y-117665500D02*
X61861700Y-109770200D01*
X64681500Y-115913000D02*
X64858900Y-116090400D01*
X64681500Y-115094300D02*
X64681500Y-115913000D01*
X64531700Y-114944500D02*
X64681500Y-115094300D01*
X64858900Y-117665500D02*
X64858900Y-116090400D01*
X94996000Y-158598000D02*
X94996000Y-156820000D01*
X94335600Y-159258000D02*
X94996000Y-158598000D01*
X94996000Y-156820000D02*
X94996000Y-156819600D01*
X85724802Y-135890000D02*
X84410000Y-135890000D01*
X86080600Y-136244864D02*
X85724802Y-135890000D01*
X86080600Y-138814544D02*
X86080600Y-136244864D01*
X87249000Y-139928600D02*
X86080600Y-138814544D01*
X84410000Y-135890000D02*
X82904900Y-135890000D01*
X82130100Y-135115200D02*
X82130100Y-129328100D01*
X82904900Y-135890000D02*
X82130100Y-135115200D01*
X90271600Y-135280400D02*
X89636600Y-134645400D01*
X96266000Y-158648000D02*
X95732600Y-159182000D01*
X96266000Y-156820000D02*
X96266000Y-158648000D01*
X96266000Y-156819600D02*
X96266000Y-156820000D01*
X88335400Y-134645400D02*
X88310000Y-134620000D01*
X89636600Y-134645400D02*
X88335400Y-134645400D01*
X89027201Y-138862000D02*
X89027000Y-138861800D01*
X86918800Y-138861800D02*
X89027201Y-138862000D01*
X86588600Y-138532000D02*
X86918800Y-138861800D01*
X86588600Y-135306000D02*
X86588600Y-138532000D01*
X85902800Y-134620000D02*
X86588600Y-135306000D01*
X84410000Y-134620000D02*
X85902800Y-134620000D01*
X97536000Y-158826000D02*
X97536000Y-156820000D01*
X97104200Y-159258000D02*
X97536000Y-158826000D01*
X97536000Y-156820000D02*
X97536000Y-156819600D01*
X88310000Y-133350000D02*
X90855800Y-133350000D01*
X98806000Y-158674000D02*
X98171000Y-159258000D01*
X98806000Y-156820000D02*
X98806000Y-158674000D01*
X98806000Y-156820000D02*
X98806000Y-156819600D01*
X64350900Y-119747400D02*
X64046300Y-120052000D01*
X85979000Y-150571200D02*
X85953600Y-150596600D01*
X64350900Y-119747400D02*
X64350900Y-117665500D01*
X89306400Y-158623000D02*
X89306400Y-151790400D01*
X86537800Y-151130000D02*
X85979000Y-150571200D01*
X85979000Y-150571200D02*
X85928200Y-150520400D01*
X88646000Y-151130000D02*
X86537800Y-151130000D01*
X89306400Y-151790400D02*
X88646000Y-151130000D01*
X89941400Y-159258000D02*
X89306400Y-158623000D01*
X85928200Y-142976900D02*
X87795100Y-141110000D01*
X85928200Y-150520400D02*
X85928200Y-142976900D01*
X89890600Y-135890000D02*
X88310000Y-135890000D01*
X87795100Y-141110000D02*
X90220800Y-138684000D01*
X90220800Y-138684000D02*
X90220800Y-136220000D01*
X90220800Y-136220000D02*
X89890600Y-135890000D01*
X93065600Y-159258000D02*
X89941400Y-159258000D01*
X93726000Y-158598000D02*
X93065600Y-159258000D01*
X93726000Y-156820000D02*
X93726000Y-158598000D01*
X93726000Y-156820000D02*
X93726000Y-156819600D01*
X63281300Y-116213000D02*
X63281300Y-115275000D01*
X63360300Y-116292000D02*
X63281300Y-116213000D01*
X63360300Y-117665500D02*
X63360300Y-116292000D01*
X85572600Y-137592000D02*
X85572600Y-141859000D01*
X93726000Y-142011000D02*
X93726000Y-143408000D01*
X93726000Y-143408000D02*
X93726000Y-143408400D01*
X87630000Y-147320000D02*
X88773000Y-147320000D01*
X88773000Y-147320000D02*
X89763600Y-146329400D01*
X89763600Y-146329400D02*
X89763600Y-141224788D01*
X89763600Y-141224788D02*
X91008200Y-139979000D01*
X91008200Y-139979000D02*
X92659200Y-139979000D01*
X92659200Y-139979000D02*
X93243400Y-140564000D01*
X93243400Y-140564000D02*
X93243400Y-141529000D01*
X93243400Y-141529000D02*
X93726000Y-142011000D01*
X85140800Y-137160000D02*
X84410000Y-137160000D01*
X85572600Y-137592000D02*
X85140800Y-137160000D01*
X84410000Y-137160000D02*
X82904900Y-137160000D01*
X82904900Y-137075600D02*
X82335800Y-136506500D01*
X82904900Y-137160000D02*
X82904900Y-137075600D01*
X63281300Y-115275000D02*
X63557500Y-114998800D01*
X63855600Y-117665500D02*
X63855600Y-116066200D01*
X63855600Y-116066200D02*
X63980200Y-115941600D01*
X88310000Y-137160000D02*
X87985600Y-137160000D01*
X87553800Y-137592000D02*
X87985600Y-137160000D01*
X87553800Y-138125200D02*
X87553800Y-137592000D01*
X94996000Y-143408000D02*
X94996000Y-143408400D01*
X94996000Y-143408000D02*
X94996000Y-141503000D01*
X94996000Y-141503000D02*
X92938600Y-139446000D01*
X92938600Y-139446000D02*
X90830400Y-139446000D01*
X90830400Y-139446000D02*
X89306400Y-140969478D01*
X89306400Y-140969478D02*
X89306400Y-145343217D01*
X89306400Y-145343217D02*
X88493600Y-146050000D01*
X42080000Y-52130000D02*
X42080000Y-52748000D01*
X55511700Y-113423700D02*
X59118500Y-113423700D01*
X52298598Y-110210598D02*
X55511700Y-113423700D01*
X52298598Y-56134000D02*
X52298598Y-110210598D01*
X49504598Y-53340000D02*
X52298598Y-56134000D01*
X42672000Y-53340000D02*
X49504598Y-53340000D01*
X42080000Y-52748000D02*
X42672000Y-53340000D01*
X42080000Y-58226000D02*
X42080000Y-59098000D01*
X55257700Y-113931700D02*
X59118500Y-113931700D01*
X51816000Y-110490000D02*
X55257700Y-113931700D01*
X51816000Y-59867804D02*
X51816000Y-110490000D01*
X51384196Y-59436000D02*
X51816000Y-59867804D01*
X42418000Y-59436000D02*
X51384196Y-59436000D01*
X42080000Y-59098000D02*
X42418000Y-59436000D01*
X42080000Y-66100000D02*
X42080000Y-66972000D01*
X54991000Y-114427000D02*
X59118500Y-114427000D01*
X51409598Y-110845598D02*
X54991000Y-114427000D01*
X51409598Y-67818000D02*
X51409598Y-110845598D01*
X50901598Y-67310000D02*
X51409598Y-67818000D01*
X42418000Y-67310000D02*
X50901598Y-67310000D01*
X42080000Y-66972000D02*
X42418000Y-67310000D01*
X42080000Y-72196000D02*
X42080000Y-73068000D01*
X54724300Y-114922300D02*
X59118500Y-114922300D01*
X51003196Y-111201196D02*
X54724300Y-114922300D01*
X51003196Y-74117196D02*
X51003196Y-111201196D01*
X50292000Y-73406000D02*
X51003196Y-74117196D01*
X42418000Y-73406000D02*
X50292000Y-73406000D01*
X42080000Y-73068000D02*
X42418000Y-73406000D01*
X42672000Y-81280000D02*
X50038000Y-81280000D01*
X54470300Y-115430300D02*
X50546000Y-111506000D01*
X50546000Y-111506000D02*
X50546000Y-81788000D01*
X42672000Y-81280000D02*
X42080000Y-80688000D01*
X42080000Y-80070000D02*
X42080000Y-80688000D01*
X54470300Y-115430300D02*
X59118500Y-115430300D01*
X50038000Y-81280000D02*
X50546000Y-81788000D01*
X42080000Y-86166000D02*
X42080000Y-86784000D01*
X61353700Y-118732300D02*
X61353700Y-117665500D01*
X61214000Y-118872000D02*
X61353700Y-118732300D01*
X57150000Y-118872000D02*
X61214000Y-118872000D01*
X50139598Y-111861598D02*
X57150000Y-118872000D01*
X50139598Y-88239598D02*
X50139598Y-111861598D01*
X49276000Y-87376000D02*
X50139598Y-88239598D01*
X42672000Y-87376000D02*
X49276000Y-87376000D01*
X42080000Y-86784000D02*
X42672000Y-87376000D01*
X68351400Y-117665500D02*
X68351400Y-118719600D01*
X42080000Y-94912000D02*
X42080000Y-94040000D01*
X49733196Y-96215196D02*
X49733196Y-112217196D01*
X48768000Y-95250000D02*
X49733196Y-96215196D01*
X42418000Y-95250000D02*
X48768000Y-95250000D01*
X42080000Y-94912000D02*
X42418000Y-95250000D01*
X59817000Y-122301000D02*
X49733196Y-112217196D01*
X66548000Y-122301000D02*
X59817000Y-122301000D01*
X66802000Y-122047000D02*
X66548000Y-122301000D01*
X66802000Y-120269000D02*
X66802000Y-122047000D01*
X68351400Y-118719600D02*
X66802000Y-120269000D01*
X49276000Y-112395000D02*
X59690000Y-122809000D01*
X42080000Y-100136000D02*
X42080000Y-101262000D01*
X49276000Y-102616000D02*
X49276000Y-112395000D01*
X48006000Y-101346000D02*
X49276000Y-102616000D01*
X42164000Y-101346000D02*
X48006000Y-101346000D01*
X42080000Y-101262000D02*
X42164000Y-101346000D01*
X68846700Y-118859300D02*
X68846700Y-117665500D01*
X67208402Y-120497598D02*
X68846700Y-118859300D01*
X67208402Y-122402598D02*
X67208402Y-120497598D01*
X66802000Y-122809000D02*
X67208402Y-122402598D01*
X59690000Y-122809000D02*
X66802000Y-122809000D01*
X70358000Y-117665500D02*
X70358000Y-118618000D01*
X42080000Y-108882000D02*
X42080000Y-108010000D01*
X42080000Y-108882000D02*
X42418000Y-109220000D01*
X42418000Y-109220000D02*
X47498000Y-109220000D01*
X47498000Y-109220000D02*
X48869598Y-110591598D01*
X48869598Y-110591598D02*
X48869598Y-112776000D01*
X48996598Y-112877598D02*
X48869598Y-112776000D01*
X59436000Y-123317000D02*
X48996598Y-112877598D01*
X67056000Y-123317000D02*
X59436000Y-123317000D01*
X67691000Y-122682000D02*
X67056000Y-123317000D01*
X67691000Y-120700804D02*
X67691000Y-122682000D01*
X68724434Y-119667370D02*
X67691000Y-120700804D01*
X69308630Y-119667370D02*
X68724434Y-119667370D01*
X70358000Y-118618000D02*
X69308630Y-119667370D01*
X70853300Y-117665500D02*
X70853300Y-118757700D01*
X42080000Y-115232000D02*
X42080000Y-114106000D01*
X42164000Y-115316000D02*
X50800000Y-115316000D01*
X42080000Y-115232000D02*
X42164000Y-115316000D01*
X59309000Y-123825000D02*
X50800000Y-115316000D01*
X67183000Y-123825000D02*
X59309000Y-123825000D01*
X68199000Y-122809000D02*
X67183000Y-123825000D01*
X68199000Y-120904000D02*
X68199000Y-122809000D01*
X68961000Y-120142000D02*
X68199000Y-120904000D01*
X69469000Y-120142000D02*
X68961000Y-120142000D01*
X70853300Y-118757700D02*
X69469000Y-120142000D01*
X68707000Y-122936000D02*
X67310000Y-124333000D01*
X57845260Y-123190000D02*
X42672000Y-123190000D01*
X42672000Y-123190000D02*
X42080000Y-122598000D01*
X42080000Y-121980000D02*
X42080000Y-122598000D01*
X71361300Y-118884700D02*
X69596000Y-120650000D01*
X69596000Y-120650000D02*
X69088000Y-120650000D01*
X69088000Y-120650000D02*
X68707000Y-121031000D01*
X68707000Y-121031000D02*
X68707000Y-122936000D01*
X71361300Y-118884700D02*
X71361300Y-117665500D01*
X58988260Y-124333000D02*
X57845260Y-123190000D01*
X67310000Y-124333000D02*
X58988260Y-124333000D01*
X71856600Y-117665500D02*
X71856600Y-119024400D01*
X51943000Y-124841000D02*
X47498000Y-129286000D01*
X47498000Y-129286000D02*
X42672000Y-129286000D01*
X42672000Y-129286000D02*
X42080000Y-128694000D01*
X42080000Y-128694000D02*
X42080000Y-128076000D01*
X67437000Y-124841000D02*
X51943000Y-124841000D01*
X69215000Y-123063000D02*
X67437000Y-124841000D01*
X69215000Y-121183402D02*
X69215000Y-123063000D01*
X69240402Y-121158000D02*
X69215000Y-121183402D01*
X69723000Y-121158000D02*
X69240402Y-121158000D01*
X71856600Y-119024400D02*
X69723000Y-121158000D01*
X72351900Y-117665500D02*
X72351900Y-119164100D01*
X56108598Y-125247402D02*
X47752000Y-133604000D01*
X47752000Y-133604000D02*
X47752000Y-136144000D01*
X47752000Y-136144000D02*
X46736000Y-137160000D01*
X46736000Y-137160000D02*
X42418000Y-137160000D01*
X42418000Y-137160000D02*
X42080000Y-136822000D01*
X42080000Y-136822000D02*
X42080000Y-135950000D01*
X67605338Y-125247402D02*
X56108598Y-125247402D01*
X69723000Y-123129740D02*
X67605338Y-125247402D01*
X69723000Y-121793000D02*
X69723000Y-123129740D01*
X72351900Y-119164100D02*
X69723000Y-121793000D01*
X72859900Y-117665500D02*
X72859900Y-119230840D01*
X56464196Y-125653804D02*
X48158402Y-133959598D01*
X48158402Y-133959598D02*
X48158402Y-142341598D01*
X48158402Y-142341598D02*
X47244000Y-143256000D01*
X47244000Y-143256000D02*
X42672000Y-143256000D01*
X42672000Y-143256000D02*
X42080000Y-142664000D01*
X42080000Y-142664000D02*
X42080000Y-142046000D01*
X67773676Y-125653804D02*
X56464196Y-125653804D01*
X70129402Y-123298078D02*
X67773676Y-125653804D01*
X70129402Y-121961338D02*
X70129402Y-123298078D01*
X72859900Y-119230840D02*
X70129402Y-121961338D01*
X53086000Y-129667000D02*
X53025740Y-129667000D01*
X73355200Y-117665500D02*
X73355200Y-119310280D01*
X73355200Y-119310280D02*
X70535804Y-122129676D01*
X70535804Y-122129676D02*
X70535804Y-123466416D01*
X70535804Y-123466416D02*
X67942014Y-126060206D01*
X67942014Y-126060206D02*
X56692794Y-126060206D01*
X56692794Y-126060206D02*
X53086000Y-129667000D01*
X43290000Y-151130000D02*
X42080000Y-149920000D01*
X47117000Y-151130000D02*
X43290000Y-151130000D01*
X48564804Y-149682196D02*
X47117000Y-151130000D01*
X48564804Y-134127936D02*
X48564804Y-149682196D01*
X53025740Y-129667000D02*
X48564804Y-134127936D01*
X56861132Y-126466608D02*
X53500370Y-129827370D01*
X73850500Y-119389720D02*
X70942206Y-122298014D01*
X70942206Y-122298014D02*
X70942206Y-123634754D01*
X70942206Y-123634754D02*
X68110352Y-126466608D01*
X68110352Y-126466608D02*
X56861132Y-126466608D01*
X73850500Y-117665500D02*
X73850500Y-119389720D01*
X43544000Y-157480000D02*
X42080000Y-156016000D01*
X47117000Y-157480000D02*
X43544000Y-157480000D01*
X49022000Y-155575000D02*
X47117000Y-157480000D01*
X49022000Y-134366000D02*
X49022000Y-155575000D01*
X53500370Y-129887630D02*
X49022000Y-134366000D01*
X53500370Y-129827370D02*
X53500370Y-129887630D01*
D60*
X80129380Y-115430300D02*
X80804000Y-115430300D01*
X79946500Y-115613180D02*
X80129380Y-115430300D01*
X79946500Y-115829080D02*
X79946500Y-115613180D01*
X79946500Y-152718000D02*
X79946500Y-115829080D01*
X80315900Y-115430000D02*
X81089800Y-115430000D01*
X81089800Y-115430000D02*
X82562700Y-115430000D01*
X81089800Y-115430000D02*
X81089500Y-115430300D01*
X80010000Y-155895000D02*
X79946500Y-155895000D01*
X79946500Y-156439000D02*
X79946500Y-155895000D01*
X79946500Y-153480000D02*
X80137000Y-153289000D01*
X79946500Y-155895000D02*
X79946500Y-153480000D01*
X80137000Y-152908000D02*
X79946500Y-152718000D01*
X80137000Y-153289000D02*
X80137000Y-152908000D01*
X83007200Y-115875000D02*
X83007200Y-116040000D01*
X82562700Y-115430000D02*
X83007200Y-115875000D01*
X79438500Y-152718000D02*
X79438500Y-115425220D01*
X79248000Y-153289000D02*
X79248000Y-152908000D01*
X79248000Y-152908000D02*
X79438500Y-152718000D01*
X79941420Y-114922300D02*
X80804000Y-114922300D01*
X79438500Y-115425220D02*
X79941420Y-114922300D01*
X81089800Y-114922000D02*
X82550000Y-114922000D01*
X81089800Y-114922000D02*
X81089500Y-114922300D01*
X82550000Y-114922000D02*
X82753200Y-114478000D01*
X79360000Y-155895000D02*
X79438500Y-155895000D01*
X79438500Y-156439000D02*
X79438500Y-155895000D01*
X79438500Y-153480000D02*
X79248000Y-153289000D01*
X79438500Y-155895000D02*
X79438500Y-153480000D01*
D59*
X61861700Y-95694500D02*
X61861700Y-94411800D01*
X62484000Y-85547200D02*
X62494200Y-85153500D01*
X61404500Y-86588600D02*
X62484000Y-85547200D01*
X61404500Y-93954600D02*
X61404500Y-86588600D01*
X61861700Y-94411800D02*
X61404500Y-93954600D01*
X76981200Y-150933000D02*
X76981200Y-145891400D01*
X72991600Y-154922600D02*
X64625600Y-154922600D01*
X61569600Y-150241000D02*
X57404000Y-150241000D01*
X64135000Y-152806400D02*
X61569600Y-150241000D01*
X64135000Y-154432000D02*
X64135000Y-152806400D01*
X64625600Y-154922600D02*
X64135000Y-154432000D01*
X57404000Y-150241000D02*
X52809200Y-150243600D01*
X52809200Y-150243600D02*
X52307100Y-149741500D01*
X52307100Y-149741500D02*
X52307100Y-147819400D01*
X74689500Y-119046900D02*
X74853800Y-118882600D01*
X74853800Y-118882600D02*
X74853800Y-117665500D01*
X76981200Y-150933000D02*
X72991600Y-154922600D01*
X76682600Y-145592800D02*
X76682600Y-137160000D01*
X76981200Y-145891400D02*
X76682600Y-145592800D01*
X52632900Y-143310900D02*
X53856200Y-143310900D01*
X52307100Y-147819400D02*
X51762100Y-147274400D01*
X51762100Y-147274400D02*
X51762100Y-144181700D01*
X51762100Y-144181700D02*
X52632900Y-143310900D01*
X54102000Y-141560000D02*
X54102000Y-143065100D01*
X53856200Y-143310900D02*
X54102000Y-143065100D01*
X54356000Y-139065000D02*
X54102000Y-139395200D01*
X54102000Y-139395200D02*
X54102000Y-141560000D01*
X75349100Y-111925100D02*
X74625200Y-111201200D01*
X74625200Y-111201200D02*
X74015600Y-111201200D01*
X74015600Y-111201200D02*
X71272400Y-113944400D01*
X75349100Y-117665500D02*
X75349100Y-111925100D01*
X56642000Y-143027400D02*
X56642000Y-141560000D01*
X56946800Y-143332200D02*
X56642000Y-143027400D01*
X58953400Y-143332200D02*
X56946800Y-143332200D01*
X59842400Y-142443200D02*
X58953400Y-143332200D01*
X61036200Y-142443200D02*
X59842400Y-142443200D01*
X61341000Y-142138400D02*
X61036200Y-142443200D01*
X56642000Y-139395200D02*
X56642000Y-141560000D01*
X56388000Y-139065000D02*
X56642000Y-139395200D01*
X73490300Y-121235500D02*
X73074500Y-121235500D01*
X55372000Y-136626600D02*
X56438800Y-135559800D01*
X56438800Y-135559800D02*
X60071000Y-135559800D01*
X55372000Y-141560000D02*
X55372000Y-136626600D01*
X60071000Y-135547100D02*
X60071000Y-135559800D01*
X60071000Y-135547100D02*
X62052302Y-133565798D01*
X62052302Y-133565798D02*
X62052302Y-132918302D01*
X62052302Y-132918302D02*
X62052200Y-132918200D01*
X73490300Y-121235500D02*
X75857100Y-118868700D01*
X75857100Y-118868700D02*
X75857100Y-117665500D01*
X73074500Y-121235500D02*
X72644000Y-121666000D01*
X68224400Y-111734600D02*
X68228400Y-111738600D01*
X76352400Y-117665500D02*
X76352400Y-112142000D01*
X76352400Y-112142000D02*
X74832200Y-110621800D01*
X74832200Y-110621800D02*
X69345200Y-110621800D01*
X69345200Y-110621800D02*
X68228400Y-111738600D01*
X51435000Y-139065000D02*
X52451000Y-139065000D01*
X50800000Y-138430000D02*
X51435000Y-139065000D01*
X50800000Y-136652000D02*
X50800000Y-138430000D01*
X54864000Y-132588000D02*
X50800000Y-136652000D01*
X54864000Y-131826000D02*
X54864000Y-132588000D01*
X52832000Y-141560000D02*
X52832000Y-142339300D01*
X52832000Y-141560000D02*
X52832000Y-139395200D01*
X52501800Y-139065000D02*
X52451000Y-139065000D01*
X52832000Y-139395200D02*
X52501800Y-139065000D01*
X78053300Y-103669200D02*
X78053300Y-98293820D01*
X95072200Y-60172600D02*
X95072200Y-60452000D01*
X95072200Y-61671200D02*
X95072200Y-60452000D01*
X78053300Y-103669200D02*
X78816200Y-104432100D01*
X78816200Y-104432100D02*
X81089500Y-104432100D01*
X81178400Y-95168720D02*
X81178400Y-89281000D01*
X78053300Y-98293820D02*
X81178400Y-95168720D01*
X96621600Y-54415600D02*
X94916000Y-52710000D01*
X96621600Y-56134000D02*
X96621600Y-54415600D01*
X95072200Y-57683400D02*
X96621600Y-56134000D01*
X95072200Y-60172600D02*
X95072200Y-57683400D01*
X78485400Y-103263100D02*
X78485400Y-98405280D01*
X99339400Y-60172600D02*
X99339400Y-61671200D01*
X78485400Y-103263100D02*
X79146400Y-103924100D01*
X79146400Y-103924100D02*
X81089500Y-103924100D01*
X81889600Y-95001080D02*
X81889600Y-88493600D01*
X78485400Y-98405280D02*
X81889600Y-95001080D01*
X93295400Y-50520600D02*
X92376000Y-51440000D01*
X99339400Y-60172600D02*
X99339400Y-58750200D01*
X99339400Y-58750200D02*
X97688400Y-57099200D01*
X97688400Y-57099200D02*
X97688400Y-52857400D01*
X97688400Y-52857400D02*
X95351600Y-50520600D01*
X95351600Y-50520600D02*
X93295400Y-50520600D01*
D61*
X73482200Y-87198200D02*
X73482200Y-88785700D01*
X73357700Y-88910200D02*
X73357700Y-90284300D01*
X73482200Y-88785700D02*
X73357700Y-88910200D01*
D59*
X73357700Y-90284300D02*
X74112400Y-90284300D01*
X74358500Y-90530400D02*
X74358500Y-95694500D01*
X74112400Y-90284300D02*
X74358500Y-90530400D01*
X74853800Y-95694500D02*
X74853800Y-94716600D01*
X75989680Y-93583760D02*
X75976480Y-93583760D01*
X74853800Y-94716600D02*
X75989680Y-93583760D01*
X86690500Y-97198000D02*
X86690500Y-90093500D01*
X86690500Y-90093500D02*
X97263400Y-79520600D01*
X81089500Y-101434900D02*
X82453600Y-101434900D01*
X82453600Y-101434900D02*
X86690500Y-97198000D01*
X97263400Y-79520600D02*
X100825200Y-79520600D01*
X102868300Y-76056300D02*
X101480000Y-74668000D01*
X100825200Y-79520600D02*
X102868300Y-77477500D01*
X102868300Y-77477500D02*
X102868300Y-76056300D01*
X63705900Y-106290800D02*
X69284500Y-100712200D01*
X63705900Y-108501200D02*
X63705900Y-106290800D01*
X62357000Y-109850100D02*
X63705900Y-108501200D01*
X62357000Y-117665500D02*
X62357000Y-109850100D01*
X71856600Y-94536800D02*
X71856600Y-95694500D01*
X72992900Y-93400500D02*
X71856600Y-94536800D01*
X73476400Y-93400500D02*
X72992900Y-93400500D01*
X72351900Y-95694500D02*
X72351900Y-94627400D01*
X72634500Y-94344800D02*
X72351900Y-94627400D01*
X73036500Y-94344800D02*
X72634500Y-94344800D01*
X64112600Y-108669700D02*
X64112600Y-106878400D01*
X62852300Y-109930000D02*
X64112600Y-108669700D01*
X62852300Y-117665500D02*
X62852300Y-109930000D01*
X70307076Y-100683924D02*
X70307200Y-100685600D01*
X64112600Y-106878400D02*
X70307076Y-100683924D01*
X75349100Y-95694500D02*
X75349100Y-96977200D01*
X75349100Y-96977200D02*
X75044300Y-97282000D01*
X80804000Y-101930200D02*
X79989680Y-101930200D01*
X79242920Y-101183440D02*
X79242920Y-100812600D01*
X79989680Y-101930200D02*
X79242920Y-101183440D01*
X80086200Y-101930200D02*
X81089500Y-101930200D01*
X70644100Y-107028900D02*
X70644100Y-107042300D01*
X66431900Y-111241100D02*
X70644100Y-107028900D01*
X70644100Y-107042300D02*
X70612000Y-107010200D01*
X66431900Y-113048100D02*
X66431900Y-111241100D01*
X69850000Y-116466200D02*
X66431900Y-113048100D01*
X69850000Y-117665500D02*
X69850000Y-116466200D01*
X84802800Y-96483900D02*
X84802800Y-96477000D01*
X81089500Y-98933000D02*
X82353700Y-98933000D01*
X82353700Y-98933000D02*
X84802800Y-96483900D01*
X84802800Y-96477000D02*
X84912200Y-96367600D01*
X69888100Y-105308400D02*
X69888100Y-105308380D01*
X65217800Y-109980480D02*
X69888100Y-105308380D01*
X65217800Y-115721500D02*
X65217800Y-109980480D01*
X65354200Y-115857900D02*
X65217800Y-115721500D01*
X65354200Y-117665500D02*
X65354200Y-115857900D01*
X65659000Y-110871000D02*
X65659000Y-112814018D01*
X65659000Y-110871000D02*
X71120000Y-105410000D01*
X71120000Y-105410000D02*
X71501000Y-105410000D01*
X69354700Y-116509718D02*
X69354700Y-117380000D01*
X65659000Y-112814018D02*
X69354700Y-116509718D01*
X77343000Y-101904800D02*
X77343000Y-101219000D01*
X77343000Y-101219000D02*
X75857100Y-99718700D01*
X75857100Y-95694500D02*
X75857100Y-99718700D01*
X73850500Y-98735100D02*
X73850500Y-95694500D01*
X74873100Y-99757700D02*
X73850500Y-98735100D01*
X74873100Y-99746800D02*
X74873100Y-99757700D01*
X75819000Y-100787200D02*
X74873100Y-99746800D01*
X73355200Y-99338200D02*
X73355200Y-95694500D01*
X73988400Y-99971400D02*
X73355200Y-99338200D01*
X73988400Y-99959600D02*
X73988400Y-99971400D01*
X75819000Y-101889100D02*
X73988400Y-99959600D01*
X75819000Y-102158800D02*
X75819000Y-101889100D01*
X72859900Y-99865284D02*
X72859900Y-95694500D01*
X73177400Y-100177984D02*
X72859900Y-99865284D01*
X73177400Y-100177600D02*
X73177400Y-100177984D01*
X74803000Y-101828600D02*
X73177400Y-100177600D01*
X72415000Y-97815300D02*
X71361300Y-96761600D01*
X72415000Y-101915300D02*
X72415000Y-97815300D01*
X75462500Y-104962800D02*
X72415000Y-101915300D01*
X71361300Y-95694500D02*
X71361300Y-96761600D01*
X95834200Y-105232200D02*
X90999200Y-100397200D01*
X95834200Y-113969800D02*
X95834200Y-105232200D01*
X98679000Y-116814600D02*
X95834200Y-113969800D01*
X101269800Y-116814600D02*
X98679000Y-116814600D01*
X82131200Y-102425500D02*
X82131200Y-102425200D01*
X81089500Y-102425500D02*
X82131200Y-102425500D01*
X82131200Y-102425200D02*
X84159200Y-100397200D01*
X90999200Y-100397200D02*
X84159200Y-100397200D01*
X101480000Y-112260000D02*
X101480000Y-112275000D01*
X102946200Y-115138200D02*
X101269800Y-116814600D01*
X102946200Y-113741200D02*
X102946200Y-115138200D01*
X101480000Y-112275000D02*
X102946200Y-113741200D01*
X76911100Y-99268800D02*
X76911100Y-97408900D01*
X76911100Y-97408900D02*
X76352400Y-96850200D01*
X76352400Y-95694500D02*
X76352400Y-96850200D01*
X59118500Y-98933000D02*
X60312600Y-98933000D01*
X60744400Y-99364800D02*
X60744400Y-100120500D01*
X60744400Y-100120500D02*
X61945400Y-101321500D01*
X60312600Y-98933000D02*
X60744400Y-99364800D01*
X94538800Y-131521200D02*
X94538800Y-110210600D01*
X98704400Y-135686800D02*
X94538800Y-131521200D01*
X100939600Y-135686800D02*
X98704400Y-135686800D01*
X79901000Y-106426000D02*
X81089500Y-106426000D01*
X79707400Y-106232400D02*
X79901000Y-106426000D01*
X78744600Y-106232400D02*
X79707400Y-106232400D01*
X101480000Y-131056000D02*
X101490400Y-131056000D01*
X102844600Y-133781800D02*
X100939600Y-135686800D01*
X102844600Y-132410200D02*
X102844600Y-133781800D01*
X101490400Y-131056000D02*
X102844600Y-132410200D01*
X61353700Y-95694500D02*
X61353700Y-97371800D01*
X60845700Y-97929700D02*
X59118500Y-97929700D01*
X62695600Y-99779600D02*
X60845700Y-97929700D01*
X62695600Y-103073200D02*
X62695600Y-99779600D01*
X60683900Y-98437700D02*
X59118500Y-98437700D01*
X61454800Y-99208600D02*
X60683900Y-98437700D01*
X61454800Y-99824200D02*
X61454800Y-99208600D01*
X68632900Y-97817500D02*
X71953900Y-101138500D01*
X71953900Y-101138500D02*
X71953900Y-102713300D01*
X72898000Y-103657400D02*
X71953900Y-102713300D01*
X68630800Y-97459800D02*
X68632900Y-97817500D01*
X79258200Y-73441600D02*
X79258200Y-71628000D01*
X79273400Y-73456800D02*
X79258200Y-73441600D01*
D60*
X79284000Y-62282000D02*
X79284000Y-68782000D01*
X79258200Y-71628000D02*
X79258200Y-68807800D01*
X79258200Y-68807800D02*
X79284000Y-68782000D01*
D59*
X57938800Y-140081000D02*
X57912700Y-140054900D01*
X58877200Y-140081000D02*
X57938800Y-140081000D01*
X72517000Y-104038400D02*
X72898000Y-103657400D01*
X72517000Y-104038400D02*
X68737700Y-104038400D01*
X64497900Y-109870400D02*
X64519300Y-109849000D01*
X64519300Y-109849000D02*
X64519300Y-108256800D01*
X64519300Y-108256800D02*
X68737700Y-104038400D01*
X64516000Y-110490000D02*
X64497900Y-110471900D01*
X64497900Y-110471900D02*
X64497900Y-109870400D01*
X58420000Y-139065000D02*
X57912000Y-139293600D01*
X57912000Y-139293600D02*
X57912700Y-140054900D01*
X57912700Y-140054900D02*
X57912000Y-140054900D01*
X57912000Y-141560000D02*
X57912000Y-140807400D01*
X57912000Y-140807400D02*
X57912000Y-140054900D01*
X72910650Y-103644750D02*
X72898000Y-103657400D01*
X72910650Y-103644750D02*
X79692400Y-110426500D01*
X81089500Y-110426500D02*
X79692400Y-110426500D01*
X60243000Y-107879900D02*
X60185600Y-107937300D01*
X62206400Y-107879900D02*
X60243000Y-107879900D01*
X59118500Y-107937300D02*
X60185600Y-107937300D01*
X81254600Y-151460200D02*
X81254600Y-151676000D01*
X83743800Y-148971000D02*
X81254600Y-151460200D01*
X83743800Y-146100800D02*
X83743800Y-148971000D01*
X80886300Y-152044000D02*
X81254600Y-151676000D01*
X80660000Y-155895000D02*
X80660000Y-154531000D01*
X80660000Y-154531000D02*
X80886300Y-154305000D01*
X80886300Y-154305000D02*
X80886300Y-152044000D01*
X81254600Y-151676000D02*
X81254600Y-151581000D01*
X81254600Y-151581000D02*
X81254600Y-151486000D01*
X81254600Y-151581000D02*
X81274900Y-151581000D01*
X78486000Y-114795000D02*
X78486000Y-115824000D01*
X78854300Y-114427000D02*
X78486000Y-114795000D01*
X81089500Y-114427000D02*
X78854300Y-114427000D01*
D62*
X72336700Y-156119000D02*
X74065600Y-156119000D01*
X72326500Y-156108000D02*
X72336700Y-156119000D01*
D61*
X78710000Y-156748000D02*
X78710000Y-156240000D01*
X78333600Y-157124000D02*
X78710000Y-156748000D01*
X76555600Y-157124000D02*
X78333600Y-157124000D01*
X75549800Y-156119000D02*
X76555600Y-157124000D01*
X74066400Y-156119000D02*
X75549800Y-156119000D01*
D59*
X78486000Y-154368000D02*
X78486000Y-151702000D01*
X78710000Y-154592000D02*
X78486000Y-154368000D01*
X78710000Y-155895000D02*
X78710000Y-154592000D01*
D61*
X78710000Y-155895000D02*
X78710000Y-156240000D01*
D62*
X74065600Y-156119000D02*
X74066400Y-156119000D01*
D59*
X74065600Y-156119000D02*
X74066400Y-156118200D01*
X61645800Y-104658160D02*
X61645800Y-102412800D01*
X59118500Y-105422700D02*
X60881260Y-105422700D01*
X59118200Y-105423000D02*
X59118500Y-105422700D01*
X64262700Y-89780400D02*
X65029500Y-90547200D01*
X65029500Y-90547200D02*
X65029500Y-92313300D01*
X65029500Y-92313300D02*
X64020700Y-93322100D01*
X60881260Y-105422700D02*
X61645800Y-104658160D01*
X60462200Y-119771200D02*
X61849000Y-119771200D01*
X60452000Y-119761000D02*
X60462200Y-119771200D01*
X64770000Y-120396000D02*
X64389000Y-120777000D01*
X64389000Y-120777000D02*
X63754000Y-120777000D01*
X63754000Y-120777000D02*
X62748200Y-119771200D01*
X62748200Y-119771200D02*
X61849000Y-119771200D01*
X65849500Y-117665500D02*
X65849500Y-118554500D01*
X64770000Y-119126000D02*
X64770000Y-120396000D01*
X64897000Y-118999000D02*
X64770000Y-119126000D01*
X65405000Y-118999000D02*
X64897000Y-118999000D01*
X65849500Y-118554500D02*
X65405000Y-118999000D01*
X86055200Y-104660700D02*
X86042500Y-104660700D01*
X85496200Y-105207000D02*
X84823300Y-105207000D01*
X86042500Y-104660700D02*
X85496200Y-105207000D01*
X82423000Y-103428800D02*
X83235800Y-102616000D01*
X84302600Y-102971600D02*
X84414400Y-102971600D01*
X83947000Y-102616000D02*
X84302600Y-102971600D01*
X83235800Y-102616000D02*
X83947000Y-102616000D01*
X82423000Y-103428800D02*
X81089500Y-103428800D01*
X83324700Y-103403400D02*
X83982600Y-103403400D01*
X82778600Y-104076500D02*
X83324700Y-103403400D01*
X83982600Y-103403400D02*
X84414400Y-102971600D01*
X56617900Y-104736900D02*
X56617900Y-104428300D01*
X56617900Y-104428300D02*
X55659600Y-103437000D01*
X63360300Y-95694500D02*
X63360300Y-93827600D01*
X63360300Y-93827600D02*
X63980100Y-93322100D01*
X63980100Y-93322100D02*
X64020700Y-93322100D01*
X81089800Y-105931000D02*
X84150200Y-105931000D01*
X84150200Y-105931000D02*
X84683600Y-105207000D01*
X84683600Y-105207000D02*
X84823300Y-105207000D01*
X81089800Y-105931000D02*
X81089500Y-105930700D01*
X81089500Y-105931000D02*
X81089800Y-105931000D01*
X81089500Y-111429800D02*
X80022400Y-111429800D01*
X69184300Y-104571800D02*
X65252500Y-108503600D01*
X73164400Y-104571800D02*
X69184300Y-104571800D01*
X80022400Y-111429800D02*
X73164400Y-104571800D01*
X81089500Y-111430000D02*
X81089700Y-111430000D01*
X81089700Y-111430000D02*
X83817500Y-111430000D01*
X81089700Y-111430000D02*
X81089500Y-111429800D01*
X57378600Y-105423000D02*
X59118200Y-105423000D01*
X56578500Y-104736900D02*
X57378600Y-105423000D01*
X56617900Y-104736900D02*
X56578500Y-104736900D01*
X59118200Y-105423000D02*
X59118500Y-105423000D01*
X85140800Y-112328850D02*
X85140800Y-112331500D01*
X93510300Y-110108600D02*
X91681200Y-111937700D01*
X93510300Y-105143500D02*
X92608400Y-104241600D01*
X93510300Y-110108600D02*
X93510300Y-105143500D01*
X86616650Y-112328850D02*
X87007800Y-111937700D01*
X87007800Y-111937700D02*
X91681200Y-111937700D01*
X85140800Y-112328850D02*
X86616650Y-112328850D01*
X85140800Y-112331500D02*
X84806900Y-112665400D01*
X84180900Y-112039400D02*
X84806900Y-112665400D01*
X83830200Y-111417000D02*
X84175600Y-111762400D01*
X84175600Y-112039400D02*
X84175600Y-111762400D01*
X84175600Y-112039400D02*
X84180900Y-112039400D01*
X84806900Y-112665400D02*
X85710900Y-113569400D01*
X85710900Y-113569400D02*
X85710900Y-116341000D01*
X85710900Y-116341000D02*
X87477600Y-118107700D01*
X87477600Y-118107700D02*
X87477600Y-120396000D01*
X83817500Y-111430000D02*
X83830200Y-111417000D01*
X56581000Y-104736900D02*
X56617900Y-104736900D01*
X77851000Y-116250720D02*
X77851000Y-117380000D01*
X77490320Y-115890040D02*
X77851000Y-116250720D01*
D61*
X84540300Y-120462100D02*
X84540300Y-122183100D01*
X84810200Y-122453000D02*
X85928200Y-122453000D01*
X84540300Y-122183100D02*
X84810200Y-122453000D01*
X85928200Y-122453000D02*
X85928200Y-121285000D01*
X85928200Y-121285000D02*
X85572600Y-120929400D01*
X85572600Y-120929400D02*
X85572600Y-120396000D01*
D59*
X59118500Y-105931000D02*
X61328000Y-105931000D01*
X61328000Y-105931000D02*
X61976000Y-105283000D01*
X77851000Y-93218000D02*
X77851000Y-93136720D01*
X77851000Y-93136720D02*
X75666600Y-90952320D01*
X75666600Y-90952320D02*
X75666600Y-89659500D01*
X75666600Y-89659500D02*
X77254100Y-88072000D01*
D60*
X77851000Y-95694500D02*
X77851000Y-93218000D01*
X87158000Y-68782000D02*
X87158000Y-62282000D01*
X80761800Y-71628000D02*
X87122000Y-71628000D01*
D62*
X100330000Y-43307000D02*
X99491800Y-43383200D01*
X98704400Y-43383200D02*
X99491800Y-43383200D01*
X70629800Y-129558000D02*
X70612000Y-129540000D01*
X70629800Y-129558000D02*
X73934300Y-129558000D01*
D59*
X66357500Y-117665500D02*
X66357500Y-118681500D01*
X65532000Y-119507000D02*
X65532000Y-119771200D01*
X66357500Y-118681500D02*
X65532000Y-119507000D01*
D62*
X98005900Y-39154100D02*
X97624900Y-39535100D01*
X96520000Y-34290000D02*
X96520000Y-34302700D01*
X96520000Y-34302700D02*
X98005900Y-35788600D01*
X98005900Y-35788600D02*
X98005900Y-39154100D01*
D59*
X81089200Y-105423000D02*
X82879900Y-105423000D01*
X83540600Y-104762300D02*
X83540600Y-104153000D01*
X82879900Y-105423000D02*
X83540600Y-104762300D01*
D61*
X57429400Y-136550400D02*
X57429400Y-137541000D01*
D60*
X65963800Y-115519200D02*
X65963800Y-116078000D01*
X65963800Y-116078000D02*
X66357500Y-116484000D01*
X66357500Y-116484000D02*
X66357500Y-117665500D01*
D59*
X59118500Y-105931000D02*
X57048400Y-105931000D01*
X59080400Y-105969000D02*
X59118500Y-105931000D01*
X59118500Y-105930700D02*
X59118500Y-105931000D01*
D60*
X78486000Y-107671000D02*
X79565900Y-107671000D01*
X79565900Y-107671000D02*
X79831900Y-107937000D01*
X81089500Y-107937000D02*
X79831900Y-107937000D01*
D59*
X83248508Y-107937000D02*
X81089500Y-107937000D01*
X81089500Y-107937300D02*
X81089500Y-107937000D01*
D60*
X76250800Y-105664000D02*
X78028800Y-105664000D01*
X78270100Y-105422700D02*
X81089500Y-105422700D01*
X78028800Y-105664000D02*
X78270100Y-105422700D01*
D59*
X81089200Y-105423000D02*
X81089500Y-105422700D01*
X83820000Y-103873600D02*
X83540600Y-104153000D01*
X86664822Y-103873600D02*
X83820000Y-103873600D01*
X87706200Y-102832000D02*
X86664822Y-103873600D01*
X87706200Y-102819000D02*
X87706200Y-102832000D01*
X87617300Y-102921000D02*
X87706200Y-102819000D01*
D60*
X81089500Y-102934000D02*
X79362300Y-102933800D01*
X79362300Y-102933800D02*
X79349600Y-102920800D01*
D59*
X82270742Y-102934000D02*
X83439142Y-101752400D01*
X81089500Y-102934000D02*
X82270742Y-102934000D01*
X81089500Y-102933500D02*
X81089500Y-102934000D01*
D62*
X84759800Y-128016000D02*
X84709000Y-128066800D01*
X84709000Y-128066800D02*
X84709000Y-129794000D01*
X98691700Y-139510000D02*
X99237800Y-140056000D01*
X98653600Y-138684000D02*
X98691700Y-138722100D01*
X98691700Y-138722100D02*
X98691700Y-139510000D01*
X97624900Y-39535100D02*
X97624900Y-39547800D01*
X98069400Y-41046400D02*
X100330000Y-43307000D01*
X98069400Y-39992300D02*
X98069400Y-41046400D01*
X97624900Y-39547800D02*
X98069400Y-39992300D01*
D59*
X91274900Y-113119000D02*
X92456000Y-113119000D01*
D62*
X73418700Y-128283000D02*
X72567800Y-128282700D01*
X74168000Y-129558000D02*
X73418700Y-128283000D01*
D61*
X55166300Y-134417000D02*
X55166300Y-134419300D01*
X54356000Y-135229600D02*
X54356000Y-137541000D01*
X55166300Y-134419300D02*
X54356000Y-135229600D01*
D62*
X73934300Y-129558000D02*
X73609200Y-130556000D01*
X73609200Y-130556000D02*
X71526565Y-130555600D01*
X71526565Y-130555600D02*
X70154800Y-131928000D01*
X70307200Y-134302000D02*
X70307200Y-133705600D01*
X71983600Y-132029200D02*
X73901034Y-132029200D01*
X70307200Y-133705600D02*
X71983600Y-132029200D01*
X97650300Y-64770000D02*
X97650300Y-66778300D01*
X97650300Y-66778300D02*
X101480000Y-70608000D01*
X97663000Y-121133000D02*
X97663000Y-123179000D01*
X97663000Y-123179000D02*
X101480000Y-126996000D01*
X97663000Y-102362000D02*
X97663000Y-104383000D01*
X97663000Y-104383000D02*
X101480000Y-108200000D01*
X97663000Y-83540600D02*
X97663000Y-85587000D01*
X97663000Y-85587000D02*
X101480000Y-89404000D01*
X74168000Y-129558000D02*
X74168000Y-129184000D01*
X74168000Y-129134000D02*
X74168000Y-129184000D01*
X74993500Y-128308000D02*
X74168000Y-129134000D01*
X75641200Y-128308000D02*
X74993500Y-128308000D01*
D61*
X78930500Y-86880700D02*
X78930500Y-87680800D01*
X78930500Y-86880700D02*
X78435200Y-86385400D01*
D62*
X97663000Y-102362000D02*
X95961200Y-102362000D01*
X97932200Y-140056000D02*
X97525800Y-139649000D01*
X99237800Y-140056000D02*
X97932200Y-140056000D01*
D61*
X97650300Y-64274700D02*
X97650300Y-64770000D01*
X97218500Y-63842900D02*
X97650300Y-64274700D01*
X97218500Y-60172600D02*
X97218500Y-63842900D01*
D59*
X83743808Y-107442000D02*
X83248508Y-107937000D01*
X83830200Y-107442000D02*
X83743808Y-107442000D01*
X63131700Y-89105700D02*
X62443400Y-88417400D01*
X63131700Y-92392500D02*
X63131700Y-89105700D01*
X62242700Y-93281500D02*
X63131700Y-92392500D01*
X62242700Y-93322100D02*
X62242700Y-93281500D01*
X91744800Y-105537000D02*
X92659200Y-105537000D01*
X84251800Y-101752400D02*
X84338200Y-101752400D01*
X83439142Y-101752400D02*
X84251800Y-101752400D01*
X62494200Y-88366600D02*
X62443400Y-88417400D01*
X62494200Y-87058500D02*
X62494200Y-88366600D01*
X62245200Y-93322100D02*
X62242700Y-93322100D01*
X62852300Y-93853000D02*
X62245200Y-93322100D01*
X56769000Y-106210000D02*
X56581000Y-106210000D01*
X57048400Y-105931000D02*
X56769000Y-106210000D01*
X52451000Y-137541000D02*
X52578000Y-137541000D01*
D61*
X52578000Y-137541000D02*
X54356000Y-137541000D01*
X55435500Y-134148000D02*
X55166300Y-134417000D01*
X55435500Y-133782000D02*
X55435500Y-134148000D01*
X55905400Y-133312000D02*
X55435500Y-133782000D01*
X56159400Y-133312000D02*
X55905400Y-133312000D01*
X83070762Y-133350000D02*
X84410000Y-133350000D01*
X82702400Y-132982096D02*
X83070762Y-133350000D01*
X82702400Y-130683568D02*
X82702400Y-132982096D01*
X83591556Y-129794000D02*
X82702400Y-130683568D01*
X84709000Y-129794000D02*
X83591556Y-129794000D01*
D59*
X52832000Y-144221000D02*
X52832000Y-145460000D01*
X53238486Y-143815200D02*
X52832000Y-144221000D01*
X59588354Y-143815200D02*
X53238486Y-143815200D01*
X60198000Y-143205000D02*
X59588354Y-143815200D01*
D62*
X95935800Y-64770000D02*
X97650300Y-64770000D01*
X65786700Y-142469260D02*
X65786700Y-141567000D01*
X66319415Y-143001800D02*
X65786700Y-142469260D01*
X70207358Y-143001800D02*
X66319415Y-143001800D01*
X70307200Y-143104000D02*
X70207358Y-143001800D01*
X74168000Y-129558000D02*
X73934300Y-129558000D01*
X96088200Y-121133000D02*
X95961200Y-121006000D01*
X97663000Y-121133000D02*
X96088200Y-121133000D01*
D59*
X91744800Y-105804000D02*
X91744800Y-105537000D01*
D62*
X95885000Y-83540600D02*
X95834200Y-83591400D01*
X97633979Y-83540600D02*
X95885000Y-83540600D01*
D61*
X77645300Y-87680800D02*
X77254100Y-88072000D01*
X78930500Y-87680800D02*
X77645300Y-87680800D01*
D62*
X99682300Y-42659300D02*
X100330000Y-43307000D01*
X96520000Y-40640000D02*
X96532700Y-40640000D01*
X97624900Y-39535100D02*
X96520000Y-40640000D01*
D61*
X98806000Y-140487000D02*
X99237800Y-140056000D01*
X98806000Y-143408000D02*
X98806000Y-140487000D01*
D62*
X61023500Y-139332000D02*
X60464700Y-139890000D01*
X64884300Y-139332000D02*
X61023500Y-139332000D01*
X65786700Y-140234000D02*
X64884300Y-139332000D01*
X65786700Y-141567000D02*
X65786700Y-140234000D01*
D61*
X56388000Y-137541000D02*
X57429400Y-137541000D01*
X57429400Y-137541000D02*
X58420000Y-137541000D01*
D62*
X74168000Y-129558000D02*
X74168000Y-129558200D01*
X74168000Y-131762000D02*
X73901034Y-132029200D01*
X74168000Y-129558200D02*
X74168000Y-131762000D01*
D61*
X97815400Y-60172600D02*
X97218500Y-60172600D01*
X97218500Y-60172600D02*
X96596200Y-60172600D01*
D59*
X98806000Y-143408400D02*
X98806000Y-143408000D01*
X60464700Y-139891000D02*
X60464700Y-139890000D01*
X99238000Y-140056000D02*
X99237800Y-140056000D01*
D60*
X62852300Y-96786700D02*
X62852300Y-95694500D01*
X63246000Y-97891600D02*
X63246000Y-97231200D01*
X63246000Y-97231200D02*
X62852300Y-96786700D01*
D59*
X62852300Y-95694500D02*
X62852300Y-93853000D01*
D62*
X74168000Y-143281400D02*
X74168000Y-143789000D01*
X71628000Y-140868400D02*
X71628000Y-140589000D01*
X74168000Y-143281400D02*
X71628000Y-140868400D01*
D63*
X75717400Y-148742400D02*
X75717400Y-147015200D01*
X74168000Y-145465800D02*
X74168000Y-144406800D01*
X75717400Y-147015200D02*
X74168000Y-145465800D01*
D62*
X95262700Y-38760400D02*
X95275400Y-38760400D01*
D61*
X95250000Y-39370000D02*
X93980000Y-40640000D01*
X93980000Y-34290000D02*
X93980000Y-34277300D01*
X93980000Y-34277300D02*
X95250000Y-35547300D01*
X95250000Y-35547300D02*
X95262700Y-38760400D01*
X95262700Y-38760400D02*
X95250000Y-39370000D01*
X89636600Y-56438800D02*
X91795600Y-56438800D01*
X91795600Y-56438800D02*
X91770200Y-56464200D01*
X100393000Y-45974000D02*
X100394000Y-45974000D01*
D62*
X98704400Y-46659800D02*
X99707700Y-46659800D01*
X99707700Y-46659800D02*
X100394000Y-45974000D01*
D61*
X71958200Y-87198200D02*
X71958200Y-85750400D01*
X89712800Y-56362600D02*
X89636600Y-56438800D01*
X89712800Y-54229000D02*
X89712800Y-56362600D01*
X67286700Y-139677000D02*
X67286700Y-141567000D01*
X66903600Y-139294000D02*
X67286700Y-139677000D01*
X62786700Y-143178000D02*
X62814200Y-143205000D01*
X62786700Y-141567000D02*
X62786700Y-143178000D01*
X100393000Y-45974000D02*
X100330000Y-45974000D01*
D62*
X99568000Y-45339000D02*
X98831400Y-44983400D01*
X100330000Y-45974000D02*
X99568000Y-45339000D01*
D63*
X74168000Y-145448000D02*
X74168000Y-144406800D01*
X74168000Y-144406800D02*
X74168000Y-143789000D01*
D62*
X68152200Y-140794700D02*
X67286700Y-141567000D01*
X69037200Y-140005000D02*
X68152200Y-140794700D01*
X69570600Y-139852000D02*
X69037200Y-140005000D01*
D61*
X68152200Y-140794700D02*
X67364200Y-141582700D01*
D62*
X67348500Y-141567000D02*
X67364200Y-141582700D01*
X73962100Y-143535000D02*
X74168000Y-143789000D01*
D63*
X67364200Y-141582700D02*
X68021200Y-141757400D01*
X68021200Y-141757400D02*
X70891400Y-141757400D01*
X70891400Y-141757400D02*
X72669400Y-143535400D01*
X72669400Y-143535400D02*
X73962100Y-143535000D01*
D59*
X59404000Y-106426000D02*
X60716160Y-106426000D01*
X60716160Y-106426000D02*
X60980320Y-106690160D01*
X72517000Y-122758200D02*
X72517000Y-123063000D01*
D61*
X70700900Y-126314000D02*
X71475600Y-126314000D01*
X71475600Y-126314000D02*
X71816000Y-126721000D01*
D59*
X70700900Y-124879100D02*
X70700900Y-126314000D01*
X72517000Y-123063000D02*
X70700900Y-124879100D01*
X61849000Y-121274800D02*
X63870800Y-121274800D01*
X64399200Y-121274800D02*
X64135000Y-121539000D01*
X64399200Y-121274800D02*
X65659000Y-121274800D01*
X63870800Y-121274800D02*
X64135000Y-121539000D01*
D61*
X27800000Y-155180000D02*
X30466000Y-155180000D01*
X30466000Y-155180000D02*
X30480000Y-155194000D01*
X27800000Y-141210000D02*
X30466000Y-141210000D01*
X30466000Y-141210000D02*
X30480000Y-141224000D01*
X27800000Y-127240000D02*
X30466000Y-127240000D01*
X30466000Y-127240000D02*
X30480000Y-127254000D01*
X27800000Y-113270000D02*
X30466000Y-113270000D01*
X30466000Y-113270000D02*
X30480000Y-113284000D01*
X27800000Y-99300000D02*
X30466000Y-99300000D01*
X30466000Y-99300000D02*
X30480000Y-99314000D01*
X27800000Y-85330000D02*
X30466000Y-85330000D01*
X30466000Y-85330000D02*
X30480000Y-85344000D01*
X27800000Y-71360000D02*
X30466000Y-71360000D01*
X30466000Y-71360000D02*
X30480000Y-71374000D01*
X27800000Y-57390000D02*
X30466000Y-57390000D01*
X30466000Y-57390000D02*
X30480000Y-57404000D01*
X44280000Y-156016000D02*
X46422000Y-156016000D01*
X46422000Y-156016000D02*
X46482000Y-155956000D01*
X44280000Y-149920000D02*
X46422000Y-149920000D01*
X46422000Y-149920000D02*
X46482000Y-149860000D01*
X44280000Y-142046000D02*
X46422000Y-142046000D01*
X46422000Y-142046000D02*
X46482000Y-141986000D01*
X44280000Y-135950000D02*
X46422000Y-135950000D01*
X46422000Y-135950000D02*
X46482000Y-135890000D01*
X44280000Y-128076000D02*
X46422000Y-128076000D01*
X46422000Y-128076000D02*
X46482000Y-128016000D01*
X44280000Y-121980000D02*
X46422000Y-121980000D01*
X46422000Y-121980000D02*
X46482000Y-121920000D01*
X44280000Y-114106000D02*
X46422000Y-114106000D01*
X46422000Y-114106000D02*
X46482000Y-114046000D01*
X44280000Y-108010000D02*
X46422000Y-108010000D01*
X46422000Y-108010000D02*
X46482000Y-107950000D01*
X44280000Y-100136000D02*
X46422000Y-100136000D01*
X46422000Y-100136000D02*
X46482000Y-100076000D01*
X44280000Y-94040000D02*
X46422000Y-94040000D01*
X46422000Y-94040000D02*
X46482000Y-93980000D01*
X44280000Y-86166000D02*
X46422000Y-86166000D01*
X46422000Y-86166000D02*
X46482000Y-86106000D01*
X44280000Y-80070000D02*
X46422000Y-80070000D01*
X46422000Y-80070000D02*
X46482000Y-80010000D01*
X44280000Y-72196000D02*
X46422000Y-72196000D01*
X46422000Y-72196000D02*
X46482000Y-72136000D01*
X44280000Y-66100000D02*
X46422000Y-66100000D01*
X46422000Y-66100000D02*
X46482000Y-66040000D01*
X44280000Y-58226000D02*
X46422000Y-58226000D01*
X46422000Y-58226000D02*
X46482000Y-58166000D01*
X44280000Y-52130000D02*
X46422000Y-52130000D01*
X46422000Y-52130000D02*
X46482000Y-52070000D01*
X74168000Y-135059800D02*
X74168000Y-134264400D01*
X73253600Y-133350000D02*
X72771000Y-133350000D01*
X74168000Y-134264400D02*
X73253600Y-133350000D01*
X74168000Y-138905200D02*
X74168000Y-139649200D01*
X73279000Y-140614400D02*
X72745600Y-140614400D01*
X74168000Y-139649200D02*
X73279000Y-140614400D01*
D59*
X66852800Y-117666000D02*
X66852800Y-117665500D01*
X66852800Y-117665500D02*
X66852800Y-115951000D01*
X81089500Y-111925000D02*
X81089400Y-111925000D01*
X79540100Y-111925000D02*
X79171800Y-111557000D01*
X81089400Y-111925000D02*
X79540100Y-111925000D01*
X81089400Y-111925000D02*
X81089500Y-111925100D01*
X77368400Y-118516400D02*
X76835000Y-118987047D01*
X76835000Y-118987047D02*
X76504800Y-119278400D01*
X77355700Y-117666000D02*
X77368400Y-118516400D01*
X77355700Y-117666000D02*
X77355700Y-117665500D01*
X81089500Y-104927000D02*
X81089100Y-104927000D01*
X78003400Y-104927000D02*
X77724000Y-104648000D01*
X81089100Y-104927000D02*
X78003400Y-104927000D01*
X81089100Y-104927000D02*
X81089500Y-104927400D01*
D60*
X78346300Y-92290900D02*
X78346300Y-95694500D01*
D59*
X81089500Y-106934000D02*
X79438500Y-106934000D01*
X62344300Y-95707200D02*
X62344300Y-97358200D01*
X62357000Y-95694500D02*
X62344300Y-95707200D01*
X81089500Y-110934000D02*
X81090000Y-110934000D01*
X81090000Y-110934000D02*
X82829394Y-110934000D01*
X81090000Y-110934000D02*
X81089500Y-110934500D01*
D61*
X92303600Y-140843000D02*
X92303600Y-143256000D01*
X92303600Y-143256000D02*
X92456000Y-143408400D01*
X91363800Y-140843000D02*
X91363800Y-143230600D01*
X91363800Y-143230600D02*
X91186000Y-143408400D01*
D59*
X55372000Y-145460000D02*
X55372000Y-146354800D01*
X57912000Y-146329400D02*
X57912000Y-145460000D01*
X57226200Y-147015200D02*
X57912000Y-146329400D01*
X56032400Y-147015200D02*
X57226200Y-147015200D01*
X55372000Y-146354800D02*
X56032400Y-147015200D01*
D62*
X90642400Y-110833000D02*
X91579400Y-110833000D01*
X91616700Y-110795700D02*
X91592400Y-110820000D01*
X91616700Y-110795700D02*
X91616700Y-109131000D01*
X91579400Y-110833000D02*
X91592400Y-110820000D01*
X100444300Y-64770000D02*
X102032000Y-64770000D01*
X103212400Y-45999400D02*
X104724000Y-45999400D01*
D59*
X59378300Y-145472800D02*
X59385200Y-145465800D01*
D62*
X57912000Y-145460000D02*
X59378300Y-145472800D01*
D61*
X81010000Y-158570000D02*
X83510000Y-158570000D01*
X77724000Y-155681000D02*
X77510000Y-155895000D01*
X77724000Y-153289000D02*
X77724000Y-155681000D01*
X82778600Y-152629000D02*
X82778600Y-151676000D01*
X82118200Y-153289000D02*
X82778600Y-152629000D01*
X81686400Y-153289000D02*
X82118200Y-153289000D01*
X82510000Y-154138000D02*
X81661000Y-153289000D01*
X82510000Y-155895000D02*
X82510000Y-154138000D01*
X82510000Y-155895000D02*
X81310000Y-155895000D01*
X83510000Y-156895000D02*
X82510000Y-155895000D01*
X83510000Y-158570000D02*
X83510000Y-156895000D01*
X79010000Y-158570000D02*
X81010000Y-158570000D01*
X76510000Y-158570000D02*
X79010000Y-158570000D01*
D59*
X83972400Y-118288000D02*
X83007200Y-118288000D01*
D62*
X102083000Y-121133000D02*
X102108000Y-121107000D01*
X100457000Y-121133000D02*
X102083000Y-121133000D01*
X91655900Y-107429000D02*
X90642400Y-107429000D01*
X91668600Y-107442000D02*
X91655900Y-107429000D01*
X91616700Y-107494000D02*
X91668600Y-107442000D01*
X91616700Y-109131000D02*
X91616700Y-107494000D01*
X86474300Y-111417000D02*
X86512400Y-111455000D01*
X85333800Y-111417000D02*
X86474300Y-111417000D01*
D60*
X76896000Y-89575600D02*
X77254100Y-89575600D01*
X76362560Y-90337640D02*
X76896000Y-89575600D01*
X77063600Y-91033600D02*
X76362560Y-90337640D01*
X77200800Y-91033600D02*
X77063600Y-91033600D01*
D62*
X54686200Y-104978200D02*
X54038500Y-105486200D01*
X55003700Y-104736900D02*
X54686200Y-104978200D01*
X54584600Y-105892600D02*
X54038500Y-105486200D01*
X54991000Y-106210000D02*
X54584600Y-105892600D01*
X63947000Y-87779900D02*
X64604900Y-87122000D01*
X63947000Y-88417400D02*
X63947000Y-87779900D01*
X64604900Y-86108500D02*
X64607400Y-86106000D01*
X64604900Y-87122000D02*
X64604900Y-86108500D01*
X71958200Y-90180200D02*
X71854100Y-90284300D01*
X71958200Y-88785700D02*
X71958200Y-90180200D01*
X90932000Y-59232800D02*
X89636600Y-59232800D01*
X91236800Y-59537600D02*
X90932000Y-59232800D01*
X87617300Y-105207000D02*
X89077800Y-105207000D01*
X66421000Y-135433000D02*
X65036700Y-135267000D01*
X67665600Y-135433000D02*
X66421000Y-135433000D01*
X63576200Y-135839000D02*
X65036700Y-135267000D01*
X63576200Y-136322000D02*
X63576200Y-135839000D01*
X64312800Y-137058000D02*
X63576200Y-136322000D01*
X69570600Y-137058000D02*
X64312800Y-137058000D01*
D61*
X52762000Y-158426000D02*
X52705000Y-158369000D01*
X53975000Y-158426000D02*
X52762000Y-158426000D01*
D62*
X62242700Y-91818500D02*
X62242700Y-90766900D01*
X64020700Y-91818500D02*
X64020700Y-90766900D01*
X88722200Y-122453000D02*
X90335100Y-122453000D01*
X90919300Y-115164000D02*
X92468700Y-115164000D01*
X90411300Y-102921000D02*
X91909900Y-102921000D01*
X85918000Y-101549200D02*
X86309200Y-101244400D01*
X86309200Y-101244400D02*
X86893400Y-101244400D01*
X85918000Y-102971600D02*
X85918000Y-101549200D01*
D59*
X55077400Y-106210000D02*
X54991000Y-106210000D01*
X55077400Y-104736900D02*
X55003700Y-104736900D01*
X83007200Y-119776000D02*
X82997000Y-119786000D01*
X83007200Y-118288000D02*
X83007200Y-119776000D01*
D61*
X87896700Y-132080000D02*
X88310000Y-132080000D01*
X87503000Y-131686000D02*
X87896700Y-132080000D01*
X87503000Y-129794000D02*
X87503000Y-131686000D01*
D62*
X87503000Y-129794000D02*
X89154000Y-129794000D01*
D61*
X88310000Y-132080000D02*
X84410000Y-132080000D01*
D60*
X77200800Y-91145400D02*
X78346300Y-92290900D01*
X77200800Y-91033600D02*
X77200800Y-91145400D01*
D62*
X71854100Y-91437500D02*
X71856600Y-91440000D01*
X71854100Y-90284300D02*
X71854100Y-91437500D01*
D61*
X76774000Y-126721000D02*
X76774000Y-127836000D01*
D59*
X76774000Y-127836000D02*
X76771500Y-127838000D01*
D61*
X74168000Y-138468000D02*
X74168000Y-138905000D01*
X73342500Y-137643000D02*
X74168000Y-138468000D01*
X72745600Y-137643000D02*
X73342500Y-137643000D01*
X74168000Y-135496000D02*
X74168000Y-135382000D01*
X73355200Y-136309000D02*
X74168000Y-135496000D01*
X72758300Y-136309000D02*
X73355200Y-136309000D01*
X74168000Y-135059000D02*
X73997800Y-135059000D01*
X74168000Y-134658000D02*
X74168000Y-135059000D01*
X73456800Y-134239000D02*
X74168000Y-134658000D01*
X72771000Y-134239000D02*
X73456800Y-134239000D01*
X72750700Y-138638200D02*
X72745600Y-138633200D01*
X74168000Y-138905000D02*
X73380600Y-138633200D01*
X73380600Y-138633200D02*
X72750700Y-138638200D01*
D59*
X54102000Y-145460000D02*
X55372000Y-145460000D01*
D62*
X100457000Y-83540600D02*
X102108000Y-83540600D01*
X100457000Y-102362000D02*
X102159000Y-102362000D01*
D61*
X96022200Y-139649000D02*
X95948500Y-139649000D01*
D62*
X95478600Y-139179000D02*
X94919800Y-139179000D01*
X95948500Y-139649000D02*
X95478600Y-139179000D01*
X102845000Y-139522000D02*
X103886000Y-139522000D01*
X102032000Y-140056000D02*
X102845000Y-139522000D01*
D61*
X81686400Y-153289000D02*
X81661000Y-153289000D01*
D62*
X66840100Y-136144000D02*
X67183000Y-136144000D01*
X65887200Y-135267000D02*
X66840100Y-136144000D01*
X65036700Y-135267000D02*
X65887200Y-135267000D01*
X102616000Y-140640000D02*
X103886000Y-140640000D01*
X102616000Y-140640000D02*
X102032000Y-140056000D01*
X66649600Y-134722000D02*
X68173600Y-134722000D01*
X65913400Y-135267000D02*
X66649600Y-134722000D01*
X65887200Y-135267000D02*
X65913400Y-135267000D01*
D61*
X72776100Y-135326200D02*
X72771000Y-135331200D01*
X73997800Y-135059000D02*
X73406000Y-135331200D01*
X73406000Y-135331200D02*
X72776100Y-135326200D01*
X74168000Y-135059000D02*
X74168000Y-135059800D01*
X74168000Y-135059800D02*
X74168000Y-135382000D01*
X74168000Y-139319000D02*
X74168000Y-138905200D01*
X73279000Y-139700000D02*
X74168000Y-139319000D01*
X72745600Y-139700000D02*
X73279000Y-139700000D01*
X74168000Y-138905200D02*
X74168000Y-138905000D01*
X72263000Y-122657000D02*
X72262200Y-122657000D01*
D59*
X72262200Y-122657000D02*
X72263000Y-122656200D01*
D61*
X76774000Y-125491000D02*
X76327000Y-125044000D01*
X76774000Y-126721000D02*
X76774000Y-125491000D01*
D59*
X76327000Y-125044000D02*
X76327000Y-125043800D01*
D60*
X100648000Y-141491000D02*
X100660200Y-138709400D01*
X100076000Y-142062000D02*
X100648000Y-141491000D01*
X100076000Y-143408000D02*
X100076000Y-142062000D01*
D59*
X100076000Y-143408000D02*
X100076000Y-143408400D01*
D62*
X102616000Y-143408000D02*
X102616000Y-140640000D01*
D59*
X102616000Y-143408000D02*
X102616000Y-143408400D01*
D62*
X103886000Y-140640000D02*
X103886000Y-143408000D01*
D59*
X103886000Y-143408000D02*
X103886000Y-143408400D01*
D62*
X85344000Y-107442000D02*
X86360000Y-107442000D01*
D59*
X85344000Y-107442000D02*
X85333800Y-107442000D01*
D61*
X74826200Y-158570000D02*
X76510000Y-158570000D01*
X74066400Y-157810000D02*
X74826200Y-158570000D01*
X74066400Y-157622000D02*
X74066400Y-157810000D01*
D59*
X74066400Y-157622000D02*
X74066400Y-157621800D01*
D62*
X60464700Y-137096000D02*
X60465700Y-137096000D01*
X64148100Y-135267000D02*
X65036700Y-135267000D01*
X62318900Y-137096000D02*
X64148100Y-135267000D01*
X60465700Y-137096000D02*
X62318900Y-137096000D01*
D59*
X60465700Y-137096000D02*
X60464700Y-137097000D01*
D62*
X103175000Y-45999400D02*
X103212400Y-45999400D01*
D59*
X103212400Y-45999400D02*
X103187000Y-45974000D01*
D62*
X103251000Y-43307000D02*
X104597000Y-43307000D01*
D59*
X103251000Y-43307000D02*
X103124000Y-43307000D01*
X84228900Y-110312000D02*
X85333800Y-111417000D01*
X83451694Y-110312000D02*
X84228900Y-110312000D01*
X82829394Y-110934000D02*
X83451694Y-110312000D01*
D61*
X27800000Y-141210000D02*
X27800000Y-141185000D01*
X27800000Y-127240000D02*
X27800000Y-127215000D01*
X27800000Y-113270000D02*
X27800000Y-113245000D01*
X27800000Y-99300000D02*
X27800000Y-99274600D01*
X27800000Y-85330000D02*
X27800000Y-85304600D01*
X27800000Y-71360000D02*
X27800000Y-71334600D01*
X27800000Y-57390000D02*
X27800000Y-57364600D01*
X27800000Y-155180000D02*
X27800000Y-155155000D01*
D59*
X73319600Y-126721000D02*
X73319600Y-125720000D01*
X78346300Y-117665500D02*
X78346300Y-118503700D01*
X74295000Y-125745600D02*
X73319600Y-126721000D01*
X74295000Y-122555000D02*
X74295000Y-125745600D01*
X78346300Y-118503700D02*
X74295000Y-122555000D01*
X72593000Y-125043800D02*
X72593200Y-125044000D01*
X72263000Y-125043800D02*
X72593000Y-125043800D01*
X72644000Y-125044000D02*
X72593200Y-125044000D01*
X73319600Y-125720000D02*
X72644000Y-125044000D01*
D60*
X78930500Y-90807500D02*
X78704400Y-91033600D01*
X78930500Y-89585800D02*
X78930500Y-90807500D01*
X78854300Y-91183500D02*
X78704400Y-91033600D01*
X78854300Y-95694500D02*
X78854300Y-91183500D01*
D59*
X75270400Y-126721000D02*
X75270400Y-124068800D01*
X75270400Y-124068800D02*
X76581000Y-122758200D01*
X76581000Y-122758200D02*
X76581000Y-121285000D01*
X78854300Y-119011700D02*
X78854300Y-117665500D01*
X76581000Y-121285000D02*
X78854300Y-119011700D01*
X81089200Y-113932000D02*
X79489300Y-113932000D01*
X79489300Y-113932000D02*
X78206600Y-112649000D01*
X81788000Y-121158000D02*
X82486500Y-121158000D01*
X81788000Y-121158000D02*
X81493400Y-120863000D01*
X81493400Y-119786000D02*
X81493400Y-120863000D01*
X82486500Y-121158000D02*
X82550000Y-121221500D01*
X81089500Y-113932000D02*
X81089200Y-113932000D01*
X81089200Y-113932000D02*
X81089500Y-113931700D01*
X81483200Y-119776000D02*
X81493400Y-119786000D01*
X81483200Y-118288000D02*
X81483200Y-119776000D01*
X81089500Y-109436000D02*
X81089600Y-109436000D01*
X81089600Y-109436000D02*
X83058000Y-109436000D01*
X81089600Y-109436000D02*
X81089500Y-109435900D01*
X89138800Y-107429000D02*
X89116200Y-107429000D01*
X87673200Y-108872000D02*
X86257200Y-108872000D01*
X89116200Y-107429000D02*
X87673200Y-108872000D01*
X86257200Y-108872000D02*
X86066700Y-108681000D01*
X85870700Y-108877000D02*
X86066700Y-108681000D01*
X83616800Y-108877000D02*
X85870700Y-108877000D01*
X83058000Y-109436000D02*
X83616800Y-108877000D01*
X81089500Y-109931000D02*
X81089700Y-109931000D01*
X81089700Y-109931000D02*
X83197710Y-109931000D01*
X81089700Y-109931000D02*
X81089500Y-109931200D01*
X89138800Y-110833000D02*
X89116000Y-110833000D01*
X87674000Y-109391000D02*
X86257200Y-109391000D01*
X89116000Y-110833000D02*
X87674000Y-109391000D01*
X86257200Y-109391000D02*
X86066700Y-109581000D01*
X85870700Y-109385000D02*
X86066700Y-109581000D01*
X83743810Y-109385000D02*
X85870700Y-109385000D01*
X83197710Y-109931000D02*
X83743810Y-109385000D01*
X97536000Y-141300000D02*
X97536000Y-143408000D01*
X97078800Y-140843000D02*
X97536000Y-141300000D01*
X95326200Y-140843000D02*
X97078800Y-140843000D01*
X92979200Y-138496000D02*
X95326200Y-140843000D01*
X92979200Y-138328000D02*
X92979200Y-138496000D01*
X97536000Y-143408000D02*
X97536000Y-143408400D01*
X91094600Y-138709000D02*
X91475600Y-138328000D01*
X90855800Y-138709000D02*
X91094600Y-138709000D01*
X89154000Y-140411000D02*
X90855800Y-138709000D01*
X89154000Y-140411600D02*
X89154000Y-140411000D01*
X87630000Y-141935600D02*
X89154000Y-140411600D01*
X87630000Y-144780000D02*
X87630000Y-141935600D01*
X80804000Y-113423700D02*
X79697580Y-113423700D01*
X86423500Y-115164000D02*
X88125300Y-115164000D01*
X78882240Y-112257840D02*
X78003400Y-111379000D01*
X78882240Y-112608360D02*
X78882240Y-112257840D01*
X79697580Y-113423700D02*
X78882240Y-112608360D01*
X81089500Y-113424000D02*
X81089200Y-113424000D01*
X81089200Y-113424000D02*
X81089500Y-113423700D01*
X89369900Y-113919000D02*
X88125300Y-115164000D01*
X89369900Y-113119000D02*
X89369900Y-113919000D01*
D61*
X29700000Y-49290000D02*
X42940000Y-49290000D01*
X42940000Y-49290000D02*
X43180000Y-49530000D01*
X29725400Y-49239200D02*
X29741400Y-49239200D01*
D59*
X29700000Y-49280600D02*
X29700000Y-49290000D01*
X29741400Y-49239200D02*
X29700000Y-49280600D01*
D61*
X29741400Y-49239200D02*
X29757400Y-49239200D01*
X37100000Y-57390000D02*
X37352000Y-57390000D01*
X39116000Y-55626000D02*
X43180000Y-55626000D01*
X37352000Y-57390000D02*
X39116000Y-55626000D01*
X37365400Y-57099200D02*
X37125400Y-57339200D01*
D59*
X37125400Y-57364600D02*
X37125400Y-57339200D01*
X37100000Y-57390000D02*
X37125400Y-57364600D01*
D61*
X29700000Y-63260000D02*
X42940000Y-63260000D01*
X42940000Y-63260000D02*
X43180000Y-63500000D01*
X29725400Y-63209200D02*
X29741400Y-63209200D01*
D59*
X29700000Y-63250600D02*
X29700000Y-63260000D01*
X29741400Y-63209200D02*
X29700000Y-63250600D01*
D61*
X29741400Y-63209200D02*
X29757400Y-63209200D01*
X37100000Y-71360000D02*
X37352000Y-71360000D01*
X39116000Y-69596000D02*
X43180000Y-69596000D01*
X37352000Y-71360000D02*
X39116000Y-69596000D01*
X37365400Y-71069200D02*
X37125400Y-71309200D01*
D59*
X37125400Y-71334600D02*
X37125400Y-71309200D01*
X37100000Y-71360000D02*
X37125400Y-71334600D01*
D61*
X29700000Y-77230000D02*
X42940000Y-77230000D01*
X42940000Y-77230000D02*
X43180000Y-77470000D01*
X29725400Y-77179200D02*
X29741400Y-77179200D01*
D59*
X29700000Y-77220600D02*
X29700000Y-77230000D01*
X29741400Y-77179200D02*
X29700000Y-77220600D01*
D61*
X29741400Y-77179200D02*
X29757400Y-77179200D01*
X37100000Y-85330000D02*
X37606000Y-85330000D01*
X39370000Y-83566000D02*
X43180000Y-83566000D01*
X37606000Y-85330000D02*
X39370000Y-83566000D01*
X37365400Y-85039200D02*
X37125400Y-85279200D01*
D59*
X37125400Y-85304600D02*
X37125400Y-85279200D01*
X37100000Y-85330000D02*
X37125400Y-85304600D01*
D61*
X29700000Y-91200000D02*
X42940000Y-91200000D01*
X42940000Y-91200000D02*
X43180000Y-91440000D01*
X29725400Y-91149200D02*
X29741400Y-91149200D01*
D59*
X29700000Y-91190600D02*
X29700000Y-91200000D01*
X29741400Y-91149200D02*
X29700000Y-91190600D01*
D61*
X29741400Y-91149200D02*
X29757400Y-91149200D01*
X37100000Y-99300000D02*
X37352000Y-99300000D01*
X39116000Y-97536000D02*
X43180000Y-97536000D01*
X37352000Y-99300000D02*
X39116000Y-97536000D01*
X37365400Y-99009200D02*
X37125400Y-99249200D01*
D59*
X37125400Y-99274600D02*
X37125400Y-99249200D01*
X37100000Y-99300000D02*
X37125400Y-99274600D01*
D61*
X29700000Y-105170000D02*
X42940000Y-105170000D01*
X42940000Y-105170000D02*
X43180000Y-105410000D01*
X29725400Y-105119000D02*
X29741400Y-105119000D01*
D59*
X29700000Y-105160400D02*
X29700000Y-105170000D01*
X29741400Y-105119000D02*
X29700000Y-105160400D01*
D61*
X29741400Y-105119000D02*
X29757400Y-105119000D01*
X37100000Y-113270000D02*
X37352000Y-113270000D01*
X39116000Y-111506000D02*
X43180000Y-111506000D01*
X37352000Y-113270000D02*
X39116000Y-111506000D01*
X37365400Y-112979000D02*
X37125400Y-113219000D01*
D59*
X37125400Y-113244600D02*
X37125400Y-113219000D01*
X37100000Y-113270000D02*
X37125400Y-113244600D01*
D61*
X29700000Y-119140000D02*
X42940000Y-119140000D01*
X42940000Y-119140000D02*
X43180000Y-119380000D01*
X29725400Y-119089000D02*
X29741400Y-119089000D01*
D59*
X29700000Y-119130400D02*
X29700000Y-119140000D01*
X29741400Y-119089000D02*
X29700000Y-119130400D01*
D61*
X29741400Y-119089000D02*
X29757400Y-119089000D01*
X37100000Y-127240000D02*
X37352000Y-127240000D01*
X39116000Y-125476000D02*
X43180000Y-125476000D01*
X37352000Y-127240000D02*
X39116000Y-125476000D01*
X37365400Y-126949000D02*
X37125400Y-127189000D01*
D59*
X37125400Y-127214600D02*
X37125400Y-127189000D01*
X37100000Y-127240000D02*
X37125400Y-127214600D01*
D61*
X29700000Y-133110000D02*
X42940000Y-133110000D01*
X42940000Y-133110000D02*
X43180000Y-133350000D01*
X29725400Y-133059000D02*
X29741400Y-133059000D01*
D59*
X29700000Y-133100400D02*
X29700000Y-133110000D01*
X29741400Y-133059000D02*
X29700000Y-133100400D01*
D61*
X29741400Y-133059000D02*
X29757400Y-133059000D01*
X37100000Y-141210000D02*
X37352000Y-141210000D01*
X39116000Y-139446000D02*
X43180000Y-139446000D01*
X37352000Y-141210000D02*
X39116000Y-139446000D01*
X37365400Y-140919000D02*
X37125400Y-141159000D01*
D59*
X37125400Y-141184600D02*
X37125400Y-141159000D01*
X37100000Y-141210000D02*
X37125400Y-141184600D01*
D61*
X29700000Y-147080000D02*
X42940000Y-147080000D01*
X42940000Y-147080000D02*
X43180000Y-147320000D01*
X29725400Y-147029000D02*
X29741400Y-147029000D01*
D59*
X29700000Y-147070400D02*
X29700000Y-147080000D01*
X29741400Y-147029000D02*
X29700000Y-147070400D01*
D61*
X29741400Y-147029000D02*
X29757400Y-147029000D01*
X37100000Y-155180000D02*
X37606000Y-155180000D01*
X39370000Y-153416000D02*
X43180000Y-153416000D01*
X37606000Y-155180000D02*
X39370000Y-153416000D01*
X37365400Y-154889000D02*
X37125400Y-155129000D01*
D59*
X37125400Y-155154600D02*
X37125400Y-155129000D01*
X37100000Y-155180000D02*
X37125400Y-155154600D01*
X55025000Y-156026000D02*
X55200400Y-156026000D01*
X57378200Y-155676600D02*
X57378600Y-155677000D01*
X55549800Y-155676600D02*
X57378200Y-155676600D01*
X55200400Y-156026000D02*
X55549800Y-155676600D01*
X57378600Y-158496000D02*
X56241506Y-158496000D01*
X56241506Y-158496000D02*
X54971506Y-157226000D01*
X52925000Y-156026000D02*
X52925000Y-157014200D01*
X52925000Y-157014200D02*
X53136800Y-157226000D01*
X53136800Y-157226000D02*
X54971506Y-157226000D01*
X89862700Y-50927000D02*
X89712800Y-50927000D01*
X90629700Y-51694100D02*
X89862700Y-50927000D01*
X90629700Y-51948100D02*
X90629700Y-51694100D01*
X92376000Y-53694300D02*
X90629700Y-51948100D01*
X92376000Y-53970000D02*
X92376000Y-53694300D01*
D63*
X71145400Y-148742400D02*
X71145400Y-150050500D01*
X67048700Y-153690000D02*
X66040000Y-153690000D01*
X71145400Y-149593300D02*
X67048700Y-153690000D01*
D59*
X67348100Y-117380000D02*
X67348100Y-116466620D01*
X58255200Y-156972000D02*
X59855700Y-155371500D01*
X59855700Y-155371500D02*
X73279300Y-155371500D01*
X73279300Y-155371500D02*
X77387777Y-151263023D01*
X77387777Y-151263023D02*
X77393900Y-136347300D01*
X77393900Y-136347300D02*
X77241400Y-136194800D01*
X58255200Y-156972000D02*
X57378600Y-156972000D01*
X67348100Y-116466620D02*
X67828160Y-115986560D01*
X81089500Y-107429000D02*
X81089800Y-107429000D01*
X81089800Y-107429000D02*
X82156300Y-107429000D01*
X81089800Y-107429000D02*
X81089500Y-107429300D01*
X90220800Y-105842000D02*
X90220800Y-105537000D01*
X89560350Y-106501800D02*
X90220800Y-105842000D01*
X83388200Y-106501800D02*
X89560350Y-106501800D01*
X83387800Y-106502200D02*
X83388200Y-106501800D01*
X83083661Y-106502200D02*
X83387800Y-106502200D01*
X82156300Y-107429000D02*
X83083661Y-106502200D01*
X81089500Y-112433000D02*
X81089600Y-112433000D01*
X81089600Y-112433000D02*
X82969100Y-112433000D01*
X81089600Y-112433000D02*
X81089500Y-112433100D01*
X84061300Y-114262000D02*
X84277200Y-114478000D01*
X84061300Y-113525000D02*
X84061300Y-114262000D01*
X82969100Y-112433000D02*
X84061300Y-113525000D01*
X81089500Y-112928000D02*
X81089900Y-112928000D01*
X81089900Y-112928000D02*
X82765900Y-112928000D01*
X81089900Y-112928000D02*
X81089500Y-112928400D01*
X84531200Y-115900000D02*
X84531200Y-116040000D01*
X84201000Y-115570000D02*
X84531200Y-115900000D01*
X83934300Y-115570000D02*
X84201000Y-115570000D01*
X83515200Y-115150240D02*
X83934300Y-115570000D01*
X83515200Y-113677388D02*
X83515200Y-115150240D01*
X82765900Y-112928000D02*
X83515200Y-113677388D01*
X67856100Y-117665500D02*
X67856100Y-118579900D01*
X58013600Y-154152600D02*
X57378600Y-154153000D01*
X58013600Y-154152600D02*
X58521200Y-153695800D01*
X58521200Y-153695800D02*
X58521600Y-153695400D01*
X67183000Y-119253000D02*
X66802000Y-119253000D01*
X67856100Y-118579900D02*
X67183000Y-119253000D01*
X91658000Y-68782000D02*
X91658000Y-62282000D01*
X82226500Y-75836700D02*
X86723300Y-75836700D01*
X91658000Y-70902000D02*
X91658000Y-68782000D01*
X86723300Y-75836700D02*
X91658000Y-70902000D01*
X59118500Y-108432600D02*
X61788800Y-108432600D01*
X63381700Y-103761100D02*
X67220400Y-99922400D01*
X63381700Y-103759100D02*
X63381700Y-103761100D01*
X62892500Y-104248300D02*
X63381700Y-103759100D01*
X62892500Y-108164200D02*
X62892500Y-104248300D01*
X62490700Y-108566000D02*
X62892500Y-108164200D01*
X61922200Y-108566000D02*
X62490700Y-108566000D01*
X61788800Y-108432600D02*
X61922200Y-108566000D01*
X80149700Y-99428300D02*
X81089500Y-99428300D01*
X80137000Y-99441000D02*
X80149700Y-99428300D01*
X79502000Y-99441000D02*
X80137000Y-99441000D01*
X59404000Y-112928400D02*
X60604400Y-112928400D01*
X60604400Y-112928400D02*
X60706000Y-113030000D01*
X59118500Y-112928000D02*
X59118900Y-112928000D01*
X59118900Y-112928000D02*
X59118500Y-112928400D01*
X81089600Y-108928000D02*
X81089500Y-108928000D01*
X82156300Y-108928000D02*
X81089600Y-108928000D01*
X82372200Y-108712000D02*
X82156300Y-108928000D01*
X81089600Y-108928000D02*
X81089500Y-108927900D01*
X82677000Y-108712000D02*
X82372200Y-108712000D01*
X79959200Y-108433000D02*
X81089100Y-108433000D01*
X81089100Y-108433000D02*
X81089500Y-108433000D01*
X81089100Y-108433000D02*
X81089500Y-108432600D01*
X79679800Y-108712000D02*
X79959200Y-108433000D01*
X79502000Y-108712000D02*
X79679800Y-108712000D01*
M02*
