M48
;DRILL file {KiCad 4.0.5} date 01/22/17 20:45:49
;FORMAT={-:-/ absolute / inch / decimal}
FMAT,2
INCH,TZ
T1C0.046
T2C0.067
T3C0.126
T4C0.126
T5C0.128
%
G90
G05
M72
T1
X2.0758Y-6.0837
X2.1742Y-6.0837
T2
X1.1378Y-2.1
X1.1378Y-2.65
X1.1378Y-3.2
X1.1378Y-3.75
X1.1378Y-4.3
X1.1378Y-4.85
X1.1378Y-5.4
X1.1378Y-5.95
X1.4134Y-2.1
X1.4134Y-2.65
X1.4134Y-3.2
X1.4134Y-3.75
X1.4134Y-4.3
X1.4134Y-4.85
X1.4134Y-5.4
X1.4134Y-5.95
T3
X1.17Y-1.5
X2.6Y-5.8
X3.9853Y-1.95
X3.9853Y-2.25
X4.03Y-1.5
T4
X2.6Y-2.8622
X2.6Y-5.1378
T5
X4.0953Y-2.67
X4.0953Y-3.17
X4.0953Y-3.41
X4.0953Y-3.91
X4.0953Y-4.15
X4.0953Y-4.65
X4.0953Y-4.89
X4.0953Y-5.39
T0
M30
