G04 #@! TF.FileFunction,Legend,Top*
%FSLAX46Y46*%
G04 Gerber Fmt 4.6, Leading zero omitted, Abs format (unit mm)*
G04 Created by KiCad (PCBNEW 4.0.7) date 06/12/18 17:03:06*
%MOMM*%
%LPD*%
G01*
G04 APERTURE LIST*
%ADD10C,0.150000*%
%ADD11C,0.299720*%
%ADD12C,0.203200*%
%ADD13C,0.149860*%
%ADD14C,0.152400*%
%ADD15C,0.002500*%
%ADD16C,0.120000*%
G04 APERTURE END LIST*
D10*
D11*
X36455894Y-27174190D02*
X37170723Y-27174190D01*
X36312929Y-27603087D02*
X36813309Y-26101947D01*
X37313689Y-27603087D01*
X38457414Y-26602327D02*
X38457414Y-27603087D01*
X37814068Y-26602327D02*
X37814068Y-27388639D01*
X37885551Y-27531604D01*
X38028517Y-27603087D01*
X38242965Y-27603087D01*
X38385931Y-27531604D01*
X38457414Y-27460121D01*
X39029277Y-27603087D02*
X39815588Y-26602327D01*
X39029277Y-26602327D02*
X39815588Y-27603087D01*
X113455087Y-126017383D02*
X111953947Y-126017383D01*
X113026190Y-125517003D01*
X111953947Y-125016623D01*
X113455087Y-125016623D01*
X113455087Y-124087345D02*
X113383604Y-124230311D01*
X113312121Y-124301794D01*
X113169156Y-124373277D01*
X112740259Y-124373277D01*
X112597293Y-124301794D01*
X112525810Y-124230311D01*
X112454327Y-124087345D01*
X112454327Y-123872897D01*
X112525810Y-123729931D01*
X112597293Y-123658448D01*
X112740259Y-123586965D01*
X113169156Y-123586965D01*
X113312121Y-123658448D01*
X113383604Y-123729931D01*
X113455087Y-123872897D01*
X113455087Y-124087345D01*
X113455087Y-122300274D02*
X111953947Y-122300274D01*
X113383604Y-122300274D02*
X113455087Y-122443240D01*
X113455087Y-122729171D01*
X113383604Y-122872137D01*
X113312121Y-122943620D01*
X113169156Y-123015103D01*
X112740259Y-123015103D01*
X112597293Y-122943620D01*
X112525810Y-122872137D01*
X112454327Y-122729171D01*
X112454327Y-122443240D01*
X112525810Y-122300274D01*
X111953947Y-121728411D02*
X111953947Y-120799134D01*
X112525810Y-121299514D01*
X112525810Y-121085066D01*
X112597293Y-120942100D01*
X112668776Y-120870617D01*
X112811741Y-120799134D01*
X113169156Y-120799134D01*
X113312121Y-120870617D01*
X113383604Y-120942100D01*
X113455087Y-121085066D01*
X113455087Y-121513963D01*
X113383604Y-121656929D01*
X113312121Y-121728411D01*
X113455087Y-101887383D02*
X111953947Y-101887383D01*
X113026190Y-101387003D01*
X111953947Y-100886623D01*
X113455087Y-100886623D01*
X113455087Y-99957345D02*
X113383604Y-100100311D01*
X113312121Y-100171794D01*
X113169156Y-100243277D01*
X112740259Y-100243277D01*
X112597293Y-100171794D01*
X112525810Y-100100311D01*
X112454327Y-99957345D01*
X112454327Y-99742897D01*
X112525810Y-99599931D01*
X112597293Y-99528448D01*
X112740259Y-99456965D01*
X113169156Y-99456965D01*
X113312121Y-99528448D01*
X113383604Y-99599931D01*
X113455087Y-99742897D01*
X113455087Y-99957345D01*
X113455087Y-98170274D02*
X111953947Y-98170274D01*
X113383604Y-98170274D02*
X113455087Y-98313240D01*
X113455087Y-98599171D01*
X113383604Y-98742137D01*
X113312121Y-98813620D01*
X113169156Y-98885103D01*
X112740259Y-98885103D01*
X112597293Y-98813620D01*
X112525810Y-98742137D01*
X112454327Y-98599171D01*
X112454327Y-98313240D01*
X112525810Y-98170274D01*
X112096913Y-97526929D02*
X112025430Y-97455446D01*
X111953947Y-97312480D01*
X111953947Y-96955066D01*
X112025430Y-96812100D01*
X112096913Y-96740617D01*
X112239879Y-96669134D01*
X112382844Y-96669134D01*
X112597293Y-96740617D01*
X113455087Y-97598411D01*
X113455087Y-96669134D01*
X113455087Y-77757383D02*
X111953947Y-77757383D01*
X113026190Y-77257003D01*
X111953947Y-76756623D01*
X113455087Y-76756623D01*
X113455087Y-75827345D02*
X113383604Y-75970311D01*
X113312121Y-76041794D01*
X113169156Y-76113277D01*
X112740259Y-76113277D01*
X112597293Y-76041794D01*
X112525810Y-75970311D01*
X112454327Y-75827345D01*
X112454327Y-75612897D01*
X112525810Y-75469931D01*
X112597293Y-75398448D01*
X112740259Y-75326965D01*
X113169156Y-75326965D01*
X113312121Y-75398448D01*
X113383604Y-75469931D01*
X113455087Y-75612897D01*
X113455087Y-75827345D01*
X113455087Y-74040274D02*
X111953947Y-74040274D01*
X113383604Y-74040274D02*
X113455087Y-74183240D01*
X113455087Y-74469171D01*
X113383604Y-74612137D01*
X113312121Y-74683620D01*
X113169156Y-74755103D01*
X112740259Y-74755103D01*
X112597293Y-74683620D01*
X112525810Y-74612137D01*
X112454327Y-74469171D01*
X112454327Y-74183240D01*
X112525810Y-74040274D01*
X113455087Y-72539134D02*
X113455087Y-73396929D01*
X113455087Y-72968031D02*
X111953947Y-72968031D01*
X112168396Y-73110997D01*
X112311361Y-73253963D01*
X112382844Y-73396929D01*
X113455087Y-53627383D02*
X111953947Y-53627383D01*
X113026190Y-53127003D01*
X111953947Y-52626623D01*
X113455087Y-52626623D01*
X113455087Y-51697345D02*
X113383604Y-51840311D01*
X113312121Y-51911794D01*
X113169156Y-51983277D01*
X112740259Y-51983277D01*
X112597293Y-51911794D01*
X112525810Y-51840311D01*
X112454327Y-51697345D01*
X112454327Y-51482897D01*
X112525810Y-51339931D01*
X112597293Y-51268448D01*
X112740259Y-51196965D01*
X113169156Y-51196965D01*
X113312121Y-51268448D01*
X113383604Y-51339931D01*
X113455087Y-51482897D01*
X113455087Y-51697345D01*
X113455087Y-49910274D02*
X111953947Y-49910274D01*
X113383604Y-49910274D02*
X113455087Y-50053240D01*
X113455087Y-50339171D01*
X113383604Y-50482137D01*
X113312121Y-50553620D01*
X113169156Y-50625103D01*
X112740259Y-50625103D01*
X112597293Y-50553620D01*
X112525810Y-50482137D01*
X112454327Y-50339171D01*
X112454327Y-50053240D01*
X112525810Y-49910274D01*
X111953947Y-48909514D02*
X111953947Y-48766549D01*
X112025430Y-48623583D01*
X112096913Y-48552100D01*
X112239879Y-48480617D01*
X112525810Y-48409134D01*
X112883224Y-48409134D01*
X113169156Y-48480617D01*
X113312121Y-48552100D01*
X113383604Y-48623583D01*
X113455087Y-48766549D01*
X113455087Y-48909514D01*
X113383604Y-49052480D01*
X113312121Y-49123963D01*
X113169156Y-49195446D01*
X112883224Y-49266929D01*
X112525810Y-49266929D01*
X112239879Y-49195446D01*
X112096913Y-49123963D01*
X112025430Y-49052480D01*
X111953947Y-48909514D01*
D12*
X46195585Y-39041191D02*
X45648396Y-39041191D01*
X45921990Y-39041191D02*
X45921990Y-38083611D01*
X45830792Y-38220408D01*
X45739594Y-38311606D01*
X45648396Y-38357205D01*
X47973948Y-38083611D02*
X48566736Y-38083611D01*
X48247542Y-38448403D01*
X48384340Y-38448403D01*
X48475538Y-38494002D01*
X48521137Y-38539601D01*
X48566736Y-38630800D01*
X48566736Y-38858795D01*
X48521137Y-38949993D01*
X48475538Y-38995592D01*
X48384340Y-39041191D01*
X48110745Y-39041191D01*
X48019547Y-38995592D01*
X47973948Y-38949993D01*
X50892288Y-38083611D02*
X50436297Y-38083611D01*
X50390698Y-38539601D01*
X50436297Y-38494002D01*
X50527495Y-38448403D01*
X50755491Y-38448403D01*
X50846689Y-38494002D01*
X50892288Y-38539601D01*
X50937887Y-38630800D01*
X50937887Y-38858795D01*
X50892288Y-38949993D01*
X50846689Y-38995592D01*
X50755491Y-39041191D01*
X50527495Y-39041191D01*
X50436297Y-38995592D01*
X50390698Y-38949993D01*
X52716250Y-38083611D02*
X53354637Y-38083611D01*
X52944245Y-39041191D01*
X55224198Y-39041191D02*
X55406594Y-39041191D01*
X55497793Y-38995592D01*
X55543392Y-38949993D01*
X55634590Y-38813196D01*
X55680189Y-38630800D01*
X55680189Y-38266007D01*
X55634590Y-38174809D01*
X55588991Y-38129210D01*
X55497793Y-38083611D01*
X55315396Y-38083611D01*
X55224198Y-38129210D01*
X55178599Y-38174809D01*
X55133000Y-38266007D01*
X55133000Y-38494002D01*
X55178599Y-38585200D01*
X55224198Y-38630800D01*
X55315396Y-38676399D01*
X55497793Y-38676399D01*
X55588991Y-38630800D01*
X55634590Y-38585200D01*
X55680189Y-38494002D01*
X58051340Y-39041191D02*
X57504151Y-39041191D01*
X57777745Y-39041191D02*
X57777745Y-38083611D01*
X57686547Y-38220408D01*
X57595349Y-38311606D01*
X57504151Y-38357205D01*
X58963321Y-39041191D02*
X58416132Y-39041191D01*
X58689726Y-39041191D02*
X58689726Y-38083611D01*
X58598528Y-38220408D01*
X58507330Y-38311606D01*
X58416132Y-38357205D01*
X60604887Y-39041191D02*
X60057698Y-39041191D01*
X60331292Y-39041191D02*
X60331292Y-38083611D01*
X60240094Y-38220408D01*
X60148896Y-38311606D01*
X60057698Y-38357205D01*
X60924080Y-38083611D02*
X61516868Y-38083611D01*
X61197674Y-38448403D01*
X61334472Y-38448403D01*
X61425670Y-38494002D01*
X61471269Y-38539601D01*
X61516868Y-38630800D01*
X61516868Y-38858795D01*
X61471269Y-38949993D01*
X61425670Y-38995592D01*
X61334472Y-39041191D01*
X61060877Y-39041191D01*
X60969679Y-38995592D01*
X60924080Y-38949993D01*
X63158434Y-39041191D02*
X62611245Y-39041191D01*
X62884839Y-39041191D02*
X62884839Y-38083611D01*
X62793641Y-38220408D01*
X62702443Y-38311606D01*
X62611245Y-38357205D01*
X64024816Y-38083611D02*
X63568825Y-38083611D01*
X63523226Y-38539601D01*
X63568825Y-38494002D01*
X63660023Y-38448403D01*
X63888019Y-38448403D01*
X63979217Y-38494002D01*
X64024816Y-38539601D01*
X64070415Y-38630800D01*
X64070415Y-38858795D01*
X64024816Y-38949993D01*
X63979217Y-38995592D01*
X63888019Y-39041191D01*
X63660023Y-39041191D01*
X63568825Y-38995592D01*
X63523226Y-38949993D01*
X65711981Y-39041191D02*
X65164792Y-39041191D01*
X65438386Y-39041191D02*
X65438386Y-38083611D01*
X65347188Y-38220408D01*
X65255990Y-38311606D01*
X65164792Y-38357205D01*
X66031174Y-38083611D02*
X66669561Y-38083611D01*
X66259169Y-39041191D01*
X68265528Y-39041191D02*
X67718339Y-39041191D01*
X67991933Y-39041191D02*
X67991933Y-38083611D01*
X67900735Y-38220408D01*
X67809537Y-38311606D01*
X67718339Y-38357205D01*
X68721518Y-39041191D02*
X68903914Y-39041191D01*
X68995113Y-38995592D01*
X69040712Y-38949993D01*
X69131910Y-38813196D01*
X69177509Y-38630800D01*
X69177509Y-38266007D01*
X69131910Y-38174809D01*
X69086311Y-38129210D01*
X68995113Y-38083611D01*
X68812716Y-38083611D01*
X68721518Y-38129210D01*
X68675919Y-38174809D01*
X68630320Y-38266007D01*
X68630320Y-38494002D01*
X68675919Y-38585200D01*
X68721518Y-38630800D01*
X68812716Y-38676399D01*
X68995113Y-38676399D01*
X69086311Y-38630800D01*
X69131910Y-38585200D01*
X69177509Y-38494002D01*
X70271886Y-38174809D02*
X70317485Y-38129210D01*
X70408683Y-38083611D01*
X70636679Y-38083611D01*
X70727877Y-38129210D01*
X70773476Y-38174809D01*
X70819075Y-38266007D01*
X70819075Y-38357205D01*
X70773476Y-38494002D01*
X70226287Y-39041191D01*
X70819075Y-39041191D01*
X71731056Y-39041191D02*
X71183867Y-39041191D01*
X71457461Y-39041191D02*
X71457461Y-38083611D01*
X71366263Y-38220408D01*
X71275065Y-38311606D01*
X71183867Y-38357205D01*
X72825433Y-38174809D02*
X72871032Y-38129210D01*
X72962230Y-38083611D01*
X73190226Y-38083611D01*
X73281424Y-38129210D01*
X73327023Y-38174809D01*
X73372622Y-38266007D01*
X73372622Y-38357205D01*
X73327023Y-38494002D01*
X72779834Y-39041191D01*
X73372622Y-39041191D01*
X73691815Y-38083611D02*
X74284603Y-38083611D01*
X73965409Y-38448403D01*
X74102207Y-38448403D01*
X74193405Y-38494002D01*
X74239004Y-38539601D01*
X74284603Y-38630800D01*
X74284603Y-38858795D01*
X74239004Y-38949993D01*
X74193405Y-38995592D01*
X74102207Y-39041191D01*
X73828612Y-39041191D01*
X73737414Y-38995592D01*
X73691815Y-38949993D01*
X75378980Y-38174809D02*
X75424579Y-38129210D01*
X75515777Y-38083611D01*
X75743773Y-38083611D01*
X75834971Y-38129210D01*
X75880570Y-38174809D01*
X75926169Y-38266007D01*
X75926169Y-38357205D01*
X75880570Y-38494002D01*
X75333381Y-39041191D01*
X75926169Y-39041191D01*
X76792551Y-38083611D02*
X76336560Y-38083611D01*
X76290961Y-38539601D01*
X76336560Y-38494002D01*
X76427758Y-38448403D01*
X76655754Y-38448403D01*
X76746952Y-38494002D01*
X76792551Y-38539601D01*
X76838150Y-38630800D01*
X76838150Y-38858795D01*
X76792551Y-38949993D01*
X76746952Y-38995592D01*
X76655754Y-39041191D01*
X76427758Y-39041191D01*
X76336560Y-38995592D01*
X76290961Y-38949993D01*
X77932527Y-38174809D02*
X77978126Y-38129210D01*
X78069324Y-38083611D01*
X78297320Y-38083611D01*
X78388518Y-38129210D01*
X78434117Y-38174809D01*
X78479716Y-38266007D01*
X78479716Y-38357205D01*
X78434117Y-38494002D01*
X77886928Y-39041191D01*
X78479716Y-39041191D01*
X78798909Y-38083611D02*
X79437296Y-38083611D01*
X79026904Y-39041191D01*
X80486074Y-38174809D02*
X80531673Y-38129210D01*
X80622871Y-38083611D01*
X80850867Y-38083611D01*
X80942065Y-38129210D01*
X80987664Y-38174809D01*
X81033263Y-38266007D01*
X81033263Y-38357205D01*
X80987664Y-38494002D01*
X80440475Y-39041191D01*
X81033263Y-39041191D01*
X81489253Y-39041191D02*
X81671649Y-39041191D01*
X81762848Y-38995592D01*
X81808447Y-38949993D01*
X81899645Y-38813196D01*
X81945244Y-38630800D01*
X81945244Y-38266007D01*
X81899645Y-38174809D01*
X81854046Y-38129210D01*
X81762848Y-38083611D01*
X81580451Y-38083611D01*
X81489253Y-38129210D01*
X81443654Y-38174809D01*
X81398055Y-38266007D01*
X81398055Y-38494002D01*
X81443654Y-38585200D01*
X81489253Y-38630800D01*
X81580451Y-38676399D01*
X81762848Y-38676399D01*
X81854046Y-38630800D01*
X81899645Y-38585200D01*
X81945244Y-38494002D01*
X82994022Y-38083611D02*
X83586810Y-38083611D01*
X83267616Y-38448403D01*
X83404414Y-38448403D01*
X83495612Y-38494002D01*
X83541211Y-38539601D01*
X83586810Y-38630800D01*
X83586810Y-38858795D01*
X83541211Y-38949993D01*
X83495612Y-38995592D01*
X83404414Y-39041191D01*
X83130819Y-39041191D01*
X83039621Y-38995592D01*
X82994022Y-38949993D01*
X84498791Y-39041191D02*
X83951602Y-39041191D01*
X84225196Y-39041191D02*
X84225196Y-38083611D01*
X84133998Y-38220408D01*
X84042800Y-38311606D01*
X83951602Y-38357205D01*
X85547569Y-38083611D02*
X86140357Y-38083611D01*
X85821163Y-38448403D01*
X85957961Y-38448403D01*
X86049159Y-38494002D01*
X86094758Y-38539601D01*
X86140357Y-38630800D01*
X86140357Y-38858795D01*
X86094758Y-38949993D01*
X86049159Y-38995592D01*
X85957961Y-39041191D01*
X85684366Y-39041191D01*
X85593168Y-38995592D01*
X85547569Y-38949993D01*
X86459550Y-38083611D02*
X87052338Y-38083611D01*
X86733144Y-38448403D01*
X86869942Y-38448403D01*
X86961140Y-38494002D01*
X87006739Y-38539601D01*
X87052338Y-38630800D01*
X87052338Y-38858795D01*
X87006739Y-38949993D01*
X86961140Y-38995592D01*
X86869942Y-39041191D01*
X86596347Y-39041191D01*
X86505149Y-38995592D01*
X86459550Y-38949993D01*
X88101116Y-38083611D02*
X88693904Y-38083611D01*
X88374710Y-38448403D01*
X88511508Y-38448403D01*
X88602706Y-38494002D01*
X88648305Y-38539601D01*
X88693904Y-38630800D01*
X88693904Y-38858795D01*
X88648305Y-38949993D01*
X88602706Y-38995592D01*
X88511508Y-39041191D01*
X88237913Y-39041191D01*
X88146715Y-38995592D01*
X88101116Y-38949993D01*
X89560286Y-38083611D02*
X89104295Y-38083611D01*
X89058696Y-38539601D01*
X89104295Y-38494002D01*
X89195493Y-38448403D01*
X89423489Y-38448403D01*
X89514687Y-38494002D01*
X89560286Y-38539601D01*
X89605885Y-38630800D01*
X89605885Y-38858795D01*
X89560286Y-38949993D01*
X89514687Y-38995592D01*
X89423489Y-39041191D01*
X89195493Y-39041191D01*
X89104295Y-38995592D01*
X89058696Y-38949993D01*
X90654663Y-38083611D02*
X91247451Y-38083611D01*
X90928257Y-38448403D01*
X91065055Y-38448403D01*
X91156253Y-38494002D01*
X91201852Y-38539601D01*
X91247451Y-38630800D01*
X91247451Y-38858795D01*
X91201852Y-38949993D01*
X91156253Y-38995592D01*
X91065055Y-39041191D01*
X90791460Y-39041191D01*
X90700262Y-38995592D01*
X90654663Y-38949993D01*
X91566644Y-38083611D02*
X92205031Y-38083611D01*
X91794639Y-39041191D01*
X93208210Y-38083611D02*
X93800998Y-38083611D01*
X93481804Y-38448403D01*
X93618602Y-38448403D01*
X93709800Y-38494002D01*
X93755399Y-38539601D01*
X93800998Y-38630800D01*
X93800998Y-38858795D01*
X93755399Y-38949993D01*
X93709800Y-38995592D01*
X93618602Y-39041191D01*
X93345007Y-39041191D01*
X93253809Y-38995592D01*
X93208210Y-38949993D01*
X94256988Y-39041191D02*
X94439384Y-39041191D01*
X94530583Y-38995592D01*
X94576182Y-38949993D01*
X94667380Y-38813196D01*
X94712979Y-38630800D01*
X94712979Y-38266007D01*
X94667380Y-38174809D01*
X94621781Y-38129210D01*
X94530583Y-38083611D01*
X94348186Y-38083611D01*
X94256988Y-38129210D01*
X94211389Y-38174809D01*
X94165790Y-38266007D01*
X94165790Y-38494002D01*
X94211389Y-38585200D01*
X94256988Y-38630800D01*
X94348186Y-38676399D01*
X94530583Y-38676399D01*
X94621781Y-38630800D01*
X94667380Y-38585200D01*
X94712979Y-38494002D01*
X96263347Y-38402804D02*
X96263347Y-39041191D01*
X96035351Y-38038012D02*
X95807356Y-38721998D01*
X96400144Y-38721998D01*
X97266526Y-39041191D02*
X96719337Y-39041191D01*
X96992931Y-39041191D02*
X96992931Y-38083611D01*
X96901733Y-38220408D01*
X96810535Y-38311606D01*
X96719337Y-38357205D01*
X98816894Y-38402804D02*
X98816894Y-39041191D01*
X98588898Y-38038012D02*
X98360903Y-38721998D01*
X98953691Y-38721998D01*
X99227285Y-38083611D02*
X99820073Y-38083611D01*
X99500879Y-38448403D01*
X99637677Y-38448403D01*
X99728875Y-38494002D01*
X99774474Y-38539601D01*
X99820073Y-38630800D01*
X99820073Y-38858795D01*
X99774474Y-38949993D01*
X99728875Y-38995592D01*
X99637677Y-39041191D01*
X99364082Y-39041191D01*
X99272884Y-38995592D01*
X99227285Y-38949993D01*
X101370441Y-38402804D02*
X101370441Y-39041191D01*
X101142445Y-38038012D02*
X100914450Y-38721998D01*
X101507238Y-38721998D01*
X102328021Y-38083611D02*
X101872030Y-38083611D01*
X101826431Y-38539601D01*
X101872030Y-38494002D01*
X101963228Y-38448403D01*
X102191224Y-38448403D01*
X102282422Y-38494002D01*
X102328021Y-38539601D01*
X102373620Y-38630800D01*
X102373620Y-38858795D01*
X102328021Y-38949993D01*
X102282422Y-38995592D01*
X102191224Y-39041191D01*
X101963228Y-39041191D01*
X101872030Y-38995592D01*
X101826431Y-38949993D01*
X103923988Y-38402804D02*
X103923988Y-39041191D01*
X103695992Y-38038012D02*
X103467997Y-38721998D01*
X104060785Y-38721998D01*
X104334379Y-38083611D02*
X104972766Y-38083611D01*
X104562374Y-39041191D01*
X106477535Y-38402804D02*
X106477535Y-39041191D01*
X106249539Y-38038012D02*
X106021544Y-38721998D01*
X106614332Y-38721998D01*
X107024723Y-39041191D02*
X107207119Y-39041191D01*
X107298318Y-38995592D01*
X107343917Y-38949993D01*
X107435115Y-38813196D01*
X107480714Y-38630800D01*
X107480714Y-38266007D01*
X107435115Y-38174809D01*
X107389516Y-38129210D01*
X107298318Y-38083611D01*
X107115921Y-38083611D01*
X107024723Y-38129210D01*
X106979124Y-38174809D01*
X106933525Y-38266007D01*
X106933525Y-38494002D01*
X106979124Y-38585200D01*
X107024723Y-38630800D01*
X107115921Y-38676399D01*
X107298318Y-38676399D01*
X107389516Y-38630800D01*
X107435115Y-38585200D01*
X107480714Y-38494002D01*
X45394396Y-32078809D02*
X45439995Y-32033210D01*
X45531193Y-31987611D01*
X45759189Y-31987611D01*
X45850387Y-32033210D01*
X45895986Y-32078809D01*
X45941585Y-32170007D01*
X45941585Y-32261205D01*
X45895986Y-32398002D01*
X45348797Y-32945191D01*
X45941585Y-32945191D01*
X48221538Y-32306804D02*
X48221538Y-32945191D01*
X47993542Y-31942012D02*
X47765547Y-32625998D01*
X48358335Y-32625998D01*
X50592689Y-31987611D02*
X50410292Y-31987611D01*
X50319094Y-32033210D01*
X50273495Y-32078809D01*
X50182297Y-32215606D01*
X50136698Y-32398002D01*
X50136698Y-32762795D01*
X50182297Y-32853993D01*
X50227896Y-32899592D01*
X50319094Y-32945191D01*
X50501491Y-32945191D01*
X50592689Y-32899592D01*
X50638288Y-32853993D01*
X50683887Y-32762795D01*
X50683887Y-32534800D01*
X50638288Y-32443601D01*
X50592689Y-32398002D01*
X50501491Y-32352403D01*
X50319094Y-32352403D01*
X50227896Y-32398002D01*
X50182297Y-32443601D01*
X50136698Y-32534800D01*
X52690245Y-32398002D02*
X52599047Y-32352403D01*
X52553448Y-32306804D01*
X52507849Y-32215606D01*
X52507849Y-32170007D01*
X52553448Y-32078809D01*
X52599047Y-32033210D01*
X52690245Y-31987611D01*
X52872642Y-31987611D01*
X52963840Y-32033210D01*
X53009439Y-32078809D01*
X53055038Y-32170007D01*
X53055038Y-32215606D01*
X53009439Y-32306804D01*
X52963840Y-32352403D01*
X52872642Y-32398002D01*
X52690245Y-32398002D01*
X52599047Y-32443601D01*
X52553448Y-32489200D01*
X52507849Y-32580399D01*
X52507849Y-32762795D01*
X52553448Y-32853993D01*
X52599047Y-32899592D01*
X52690245Y-32945191D01*
X52872642Y-32945191D01*
X52963840Y-32899592D01*
X53009439Y-32853993D01*
X53055038Y-32762795D01*
X53055038Y-32580399D01*
X53009439Y-32489200D01*
X52963840Y-32443601D01*
X52872642Y-32398002D01*
X55426189Y-32945191D02*
X54879000Y-32945191D01*
X55152594Y-32945191D02*
X55152594Y-31987611D01*
X55061396Y-32124408D01*
X54970198Y-32215606D01*
X54879000Y-32261205D01*
X56018976Y-31987611D02*
X56110175Y-31987611D01*
X56201373Y-32033210D01*
X56246972Y-32078809D01*
X56292571Y-32170007D01*
X56338170Y-32352403D01*
X56338170Y-32580399D01*
X56292571Y-32762795D01*
X56246972Y-32853993D01*
X56201373Y-32899592D01*
X56110175Y-32945191D01*
X56018976Y-32945191D01*
X55927778Y-32899592D01*
X55882179Y-32853993D01*
X55836580Y-32762795D01*
X55790981Y-32580399D01*
X55790981Y-32352403D01*
X55836580Y-32170007D01*
X55882179Y-32078809D01*
X55927778Y-32033210D01*
X56018976Y-31987611D01*
X57979736Y-32945191D02*
X57432547Y-32945191D01*
X57706141Y-32945191D02*
X57706141Y-31987611D01*
X57614943Y-32124408D01*
X57523745Y-32215606D01*
X57432547Y-32261205D01*
X58344528Y-32078809D02*
X58390127Y-32033210D01*
X58481325Y-31987611D01*
X58709321Y-31987611D01*
X58800519Y-32033210D01*
X58846118Y-32078809D01*
X58891717Y-32170007D01*
X58891717Y-32261205D01*
X58846118Y-32398002D01*
X58298929Y-32945191D01*
X58891717Y-32945191D01*
X60533283Y-32945191D02*
X59986094Y-32945191D01*
X60259688Y-32945191D02*
X60259688Y-31987611D01*
X60168490Y-32124408D01*
X60077292Y-32215606D01*
X59986094Y-32261205D01*
X61354066Y-32306804D02*
X61354066Y-32945191D01*
X61126070Y-31942012D02*
X60898075Y-32625998D01*
X61490863Y-32625998D01*
X63086830Y-32945191D02*
X62539641Y-32945191D01*
X62813235Y-32945191D02*
X62813235Y-31987611D01*
X62722037Y-32124408D01*
X62630839Y-32215606D01*
X62539641Y-32261205D01*
X63907613Y-31987611D02*
X63725216Y-31987611D01*
X63634018Y-32033210D01*
X63588419Y-32078809D01*
X63497221Y-32215606D01*
X63451622Y-32398002D01*
X63451622Y-32762795D01*
X63497221Y-32853993D01*
X63542820Y-32899592D01*
X63634018Y-32945191D01*
X63816415Y-32945191D01*
X63907613Y-32899592D01*
X63953212Y-32853993D01*
X63998811Y-32762795D01*
X63998811Y-32534800D01*
X63953212Y-32443601D01*
X63907613Y-32398002D01*
X63816415Y-32352403D01*
X63634018Y-32352403D01*
X63542820Y-32398002D01*
X63497221Y-32443601D01*
X63451622Y-32534800D01*
X65640377Y-32945191D02*
X65093188Y-32945191D01*
X65366782Y-32945191D02*
X65366782Y-31987611D01*
X65275584Y-32124408D01*
X65184386Y-32215606D01*
X65093188Y-32261205D01*
X66187565Y-32398002D02*
X66096367Y-32352403D01*
X66050768Y-32306804D01*
X66005169Y-32215606D01*
X66005169Y-32170007D01*
X66050768Y-32078809D01*
X66096367Y-32033210D01*
X66187565Y-31987611D01*
X66369962Y-31987611D01*
X66461160Y-32033210D01*
X66506759Y-32078809D01*
X66552358Y-32170007D01*
X66552358Y-32215606D01*
X66506759Y-32306804D01*
X66461160Y-32352403D01*
X66369962Y-32398002D01*
X66187565Y-32398002D01*
X66096367Y-32443601D01*
X66050768Y-32489200D01*
X66005169Y-32580399D01*
X66005169Y-32762795D01*
X66050768Y-32853993D01*
X66096367Y-32899592D01*
X66187565Y-32945191D01*
X66369962Y-32945191D01*
X66461160Y-32899592D01*
X66506759Y-32853993D01*
X66552358Y-32762795D01*
X66552358Y-32580399D01*
X66506759Y-32489200D01*
X66461160Y-32443601D01*
X66369962Y-32398002D01*
X67646735Y-32078809D02*
X67692334Y-32033210D01*
X67783532Y-31987611D01*
X68011528Y-31987611D01*
X68102726Y-32033210D01*
X68148325Y-32078809D01*
X68193924Y-32170007D01*
X68193924Y-32261205D01*
X68148325Y-32398002D01*
X67601136Y-32945191D01*
X68193924Y-32945191D01*
X68786711Y-31987611D02*
X68877910Y-31987611D01*
X68969108Y-32033210D01*
X69014707Y-32078809D01*
X69060306Y-32170007D01*
X69105905Y-32352403D01*
X69105905Y-32580399D01*
X69060306Y-32762795D01*
X69014707Y-32853993D01*
X68969108Y-32899592D01*
X68877910Y-32945191D01*
X68786711Y-32945191D01*
X68695513Y-32899592D01*
X68649914Y-32853993D01*
X68604315Y-32762795D01*
X68558716Y-32580399D01*
X68558716Y-32352403D01*
X68604315Y-32170007D01*
X68649914Y-32078809D01*
X68695513Y-32033210D01*
X68786711Y-31987611D01*
X70200282Y-32078809D02*
X70245881Y-32033210D01*
X70337079Y-31987611D01*
X70565075Y-31987611D01*
X70656273Y-32033210D01*
X70701872Y-32078809D01*
X70747471Y-32170007D01*
X70747471Y-32261205D01*
X70701872Y-32398002D01*
X70154683Y-32945191D01*
X70747471Y-32945191D01*
X71112263Y-32078809D02*
X71157862Y-32033210D01*
X71249060Y-31987611D01*
X71477056Y-31987611D01*
X71568254Y-32033210D01*
X71613853Y-32078809D01*
X71659452Y-32170007D01*
X71659452Y-32261205D01*
X71613853Y-32398002D01*
X71066664Y-32945191D01*
X71659452Y-32945191D01*
X72753829Y-32078809D02*
X72799428Y-32033210D01*
X72890626Y-31987611D01*
X73118622Y-31987611D01*
X73209820Y-32033210D01*
X73255419Y-32078809D01*
X73301018Y-32170007D01*
X73301018Y-32261205D01*
X73255419Y-32398002D01*
X72708230Y-32945191D01*
X73301018Y-32945191D01*
X74121801Y-32306804D02*
X74121801Y-32945191D01*
X73893805Y-31942012D02*
X73665810Y-32625998D01*
X74258598Y-32625998D01*
X75307376Y-32078809D02*
X75352975Y-32033210D01*
X75444173Y-31987611D01*
X75672169Y-31987611D01*
X75763367Y-32033210D01*
X75808966Y-32078809D01*
X75854565Y-32170007D01*
X75854565Y-32261205D01*
X75808966Y-32398002D01*
X75261777Y-32945191D01*
X75854565Y-32945191D01*
X76675348Y-31987611D02*
X76492951Y-31987611D01*
X76401753Y-32033210D01*
X76356154Y-32078809D01*
X76264956Y-32215606D01*
X76219357Y-32398002D01*
X76219357Y-32762795D01*
X76264956Y-32853993D01*
X76310555Y-32899592D01*
X76401753Y-32945191D01*
X76584150Y-32945191D01*
X76675348Y-32899592D01*
X76720947Y-32853993D01*
X76766546Y-32762795D01*
X76766546Y-32534800D01*
X76720947Y-32443601D01*
X76675348Y-32398002D01*
X76584150Y-32352403D01*
X76401753Y-32352403D01*
X76310555Y-32398002D01*
X76264956Y-32443601D01*
X76219357Y-32534800D01*
X77860923Y-32078809D02*
X77906522Y-32033210D01*
X77997720Y-31987611D01*
X78225716Y-31987611D01*
X78316914Y-32033210D01*
X78362513Y-32078809D01*
X78408112Y-32170007D01*
X78408112Y-32261205D01*
X78362513Y-32398002D01*
X77815324Y-32945191D01*
X78408112Y-32945191D01*
X78955300Y-32398002D02*
X78864102Y-32352403D01*
X78818503Y-32306804D01*
X78772904Y-32215606D01*
X78772904Y-32170007D01*
X78818503Y-32078809D01*
X78864102Y-32033210D01*
X78955300Y-31987611D01*
X79137697Y-31987611D01*
X79228895Y-32033210D01*
X79274494Y-32078809D01*
X79320093Y-32170007D01*
X79320093Y-32215606D01*
X79274494Y-32306804D01*
X79228895Y-32352403D01*
X79137697Y-32398002D01*
X78955300Y-32398002D01*
X78864102Y-32443601D01*
X78818503Y-32489200D01*
X78772904Y-32580399D01*
X78772904Y-32762795D01*
X78818503Y-32853993D01*
X78864102Y-32899592D01*
X78955300Y-32945191D01*
X79137697Y-32945191D01*
X79228895Y-32899592D01*
X79274494Y-32853993D01*
X79320093Y-32762795D01*
X79320093Y-32580399D01*
X79274494Y-32489200D01*
X79228895Y-32443601D01*
X79137697Y-32398002D01*
X80368871Y-31987611D02*
X80961659Y-31987611D01*
X80642465Y-32352403D01*
X80779263Y-32352403D01*
X80870461Y-32398002D01*
X80916060Y-32443601D01*
X80961659Y-32534800D01*
X80961659Y-32762795D01*
X80916060Y-32853993D01*
X80870461Y-32899592D01*
X80779263Y-32945191D01*
X80505668Y-32945191D01*
X80414470Y-32899592D01*
X80368871Y-32853993D01*
X81554446Y-31987611D02*
X81645645Y-31987611D01*
X81736843Y-32033210D01*
X81782442Y-32078809D01*
X81828041Y-32170007D01*
X81873640Y-32352403D01*
X81873640Y-32580399D01*
X81828041Y-32762795D01*
X81782442Y-32853993D01*
X81736843Y-32899592D01*
X81645645Y-32945191D01*
X81554446Y-32945191D01*
X81463248Y-32899592D01*
X81417649Y-32853993D01*
X81372050Y-32762795D01*
X81326451Y-32580399D01*
X81326451Y-32352403D01*
X81372050Y-32170007D01*
X81417649Y-32078809D01*
X81463248Y-32033210D01*
X81554446Y-31987611D01*
X82922418Y-31987611D02*
X83515206Y-31987611D01*
X83196012Y-32352403D01*
X83332810Y-32352403D01*
X83424008Y-32398002D01*
X83469607Y-32443601D01*
X83515206Y-32534800D01*
X83515206Y-32762795D01*
X83469607Y-32853993D01*
X83424008Y-32899592D01*
X83332810Y-32945191D01*
X83059215Y-32945191D01*
X82968017Y-32899592D01*
X82922418Y-32853993D01*
X83879998Y-32078809D02*
X83925597Y-32033210D01*
X84016795Y-31987611D01*
X84244791Y-31987611D01*
X84335989Y-32033210D01*
X84381588Y-32078809D01*
X84427187Y-32170007D01*
X84427187Y-32261205D01*
X84381588Y-32398002D01*
X83834399Y-32945191D01*
X84427187Y-32945191D01*
X85475965Y-31987611D02*
X86068753Y-31987611D01*
X85749559Y-32352403D01*
X85886357Y-32352403D01*
X85977555Y-32398002D01*
X86023154Y-32443601D01*
X86068753Y-32534800D01*
X86068753Y-32762795D01*
X86023154Y-32853993D01*
X85977555Y-32899592D01*
X85886357Y-32945191D01*
X85612762Y-32945191D01*
X85521564Y-32899592D01*
X85475965Y-32853993D01*
X86889536Y-32306804D02*
X86889536Y-32945191D01*
X86661540Y-31942012D02*
X86433545Y-32625998D01*
X87026333Y-32625998D01*
X88029512Y-31987611D02*
X88622300Y-31987611D01*
X88303106Y-32352403D01*
X88439904Y-32352403D01*
X88531102Y-32398002D01*
X88576701Y-32443601D01*
X88622300Y-32534800D01*
X88622300Y-32762795D01*
X88576701Y-32853993D01*
X88531102Y-32899592D01*
X88439904Y-32945191D01*
X88166309Y-32945191D01*
X88075111Y-32899592D01*
X88029512Y-32853993D01*
X89443083Y-31987611D02*
X89260686Y-31987611D01*
X89169488Y-32033210D01*
X89123889Y-32078809D01*
X89032691Y-32215606D01*
X88987092Y-32398002D01*
X88987092Y-32762795D01*
X89032691Y-32853993D01*
X89078290Y-32899592D01*
X89169488Y-32945191D01*
X89351885Y-32945191D01*
X89443083Y-32899592D01*
X89488682Y-32853993D01*
X89534281Y-32762795D01*
X89534281Y-32534800D01*
X89488682Y-32443601D01*
X89443083Y-32398002D01*
X89351885Y-32352403D01*
X89169488Y-32352403D01*
X89078290Y-32398002D01*
X89032691Y-32443601D01*
X88987092Y-32534800D01*
X90583059Y-31987611D02*
X91175847Y-31987611D01*
X90856653Y-32352403D01*
X90993451Y-32352403D01*
X91084649Y-32398002D01*
X91130248Y-32443601D01*
X91175847Y-32534800D01*
X91175847Y-32762795D01*
X91130248Y-32853993D01*
X91084649Y-32899592D01*
X90993451Y-32945191D01*
X90719856Y-32945191D01*
X90628658Y-32899592D01*
X90583059Y-32853993D01*
X91723035Y-32398002D02*
X91631837Y-32352403D01*
X91586238Y-32306804D01*
X91540639Y-32215606D01*
X91540639Y-32170007D01*
X91586238Y-32078809D01*
X91631837Y-32033210D01*
X91723035Y-31987611D01*
X91905432Y-31987611D01*
X91996630Y-32033210D01*
X92042229Y-32078809D01*
X92087828Y-32170007D01*
X92087828Y-32215606D01*
X92042229Y-32306804D01*
X91996630Y-32352403D01*
X91905432Y-32398002D01*
X91723035Y-32398002D01*
X91631837Y-32443601D01*
X91586238Y-32489200D01*
X91540639Y-32580399D01*
X91540639Y-32762795D01*
X91586238Y-32853993D01*
X91631837Y-32899592D01*
X91723035Y-32945191D01*
X91905432Y-32945191D01*
X91996630Y-32899592D01*
X92042229Y-32853993D01*
X92087828Y-32762795D01*
X92087828Y-32580399D01*
X92042229Y-32489200D01*
X91996630Y-32443601D01*
X91905432Y-32398002D01*
X93638196Y-32306804D02*
X93638196Y-32945191D01*
X93410200Y-31942012D02*
X93182205Y-32625998D01*
X93774993Y-32625998D01*
X94322181Y-31987611D02*
X94413380Y-31987611D01*
X94504578Y-32033210D01*
X94550177Y-32078809D01*
X94595776Y-32170007D01*
X94641375Y-32352403D01*
X94641375Y-32580399D01*
X94595776Y-32762795D01*
X94550177Y-32853993D01*
X94504578Y-32899592D01*
X94413380Y-32945191D01*
X94322181Y-32945191D01*
X94230983Y-32899592D01*
X94185384Y-32853993D01*
X94139785Y-32762795D01*
X94094186Y-32580399D01*
X94094186Y-32352403D01*
X94139785Y-32170007D01*
X94185384Y-32078809D01*
X94230983Y-32033210D01*
X94322181Y-31987611D01*
X96191743Y-32306804D02*
X96191743Y-32945191D01*
X95963747Y-31942012D02*
X95735752Y-32625998D01*
X96328540Y-32625998D01*
X96647733Y-32078809D02*
X96693332Y-32033210D01*
X96784530Y-31987611D01*
X97012526Y-31987611D01*
X97103724Y-32033210D01*
X97149323Y-32078809D01*
X97194922Y-32170007D01*
X97194922Y-32261205D01*
X97149323Y-32398002D01*
X96602134Y-32945191D01*
X97194922Y-32945191D01*
X98745290Y-32306804D02*
X98745290Y-32945191D01*
X98517294Y-31942012D02*
X98289299Y-32625998D01*
X98882087Y-32625998D01*
X99657271Y-32306804D02*
X99657271Y-32945191D01*
X99429275Y-31942012D02*
X99201280Y-32625998D01*
X99794068Y-32625998D01*
X101298837Y-32306804D02*
X101298837Y-32945191D01*
X101070841Y-31942012D02*
X100842846Y-32625998D01*
X101435634Y-32625998D01*
X102210818Y-31987611D02*
X102028421Y-31987611D01*
X101937223Y-32033210D01*
X101891624Y-32078809D01*
X101800426Y-32215606D01*
X101754827Y-32398002D01*
X101754827Y-32762795D01*
X101800426Y-32853993D01*
X101846025Y-32899592D01*
X101937223Y-32945191D01*
X102119620Y-32945191D01*
X102210818Y-32899592D01*
X102256417Y-32853993D01*
X102302016Y-32762795D01*
X102302016Y-32534800D01*
X102256417Y-32443601D01*
X102210818Y-32398002D01*
X102119620Y-32352403D01*
X101937223Y-32352403D01*
X101846025Y-32398002D01*
X101800426Y-32443601D01*
X101754827Y-32534800D01*
X103852384Y-32306804D02*
X103852384Y-32945191D01*
X103624388Y-31942012D02*
X103396393Y-32625998D01*
X103989181Y-32625998D01*
X104490770Y-32398002D02*
X104399572Y-32352403D01*
X104353973Y-32306804D01*
X104308374Y-32215606D01*
X104308374Y-32170007D01*
X104353973Y-32078809D01*
X104399572Y-32033210D01*
X104490770Y-31987611D01*
X104673167Y-31987611D01*
X104764365Y-32033210D01*
X104809964Y-32078809D01*
X104855563Y-32170007D01*
X104855563Y-32215606D01*
X104809964Y-32306804D01*
X104764365Y-32352403D01*
X104673167Y-32398002D01*
X104490770Y-32398002D01*
X104399572Y-32443601D01*
X104353973Y-32489200D01*
X104308374Y-32580399D01*
X104308374Y-32762795D01*
X104353973Y-32853993D01*
X104399572Y-32899592D01*
X104490770Y-32945191D01*
X104673167Y-32945191D01*
X104764365Y-32899592D01*
X104809964Y-32853993D01*
X104855563Y-32762795D01*
X104855563Y-32580399D01*
X104809964Y-32489200D01*
X104764365Y-32443601D01*
X104673167Y-32398002D01*
X106451530Y-31987611D02*
X105995539Y-31987611D01*
X105949940Y-32443601D01*
X105995539Y-32398002D01*
X106086737Y-32352403D01*
X106314733Y-32352403D01*
X106405931Y-32398002D01*
X106451530Y-32443601D01*
X106497129Y-32534800D01*
X106497129Y-32762795D01*
X106451530Y-32853993D01*
X106405931Y-32899592D01*
X106314733Y-32945191D01*
X106086737Y-32945191D01*
X105995539Y-32899592D01*
X105949940Y-32853993D01*
X107089916Y-31987611D02*
X107181115Y-31987611D01*
X107272313Y-32033210D01*
X107317912Y-32078809D01*
X107363511Y-32170007D01*
X107409110Y-32352403D01*
X107409110Y-32580399D01*
X107363511Y-32762795D01*
X107317912Y-32853993D01*
X107272313Y-32899592D01*
X107181115Y-32945191D01*
X107089916Y-32945191D01*
X106998718Y-32899592D01*
X106953119Y-32853993D01*
X106907520Y-32762795D01*
X106861921Y-32580399D01*
X106861921Y-32352403D01*
X106907520Y-32170007D01*
X106953119Y-32078809D01*
X106998718Y-32033210D01*
X107089916Y-31987611D01*
X71210715Y-116239471D02*
X71150239Y-116299948D01*
X70968810Y-116360424D01*
X70847858Y-116360424D01*
X70666430Y-116299948D01*
X70545477Y-116178995D01*
X70485001Y-116058043D01*
X70424525Y-115816138D01*
X70424525Y-115634710D01*
X70485001Y-115392805D01*
X70545477Y-115271852D01*
X70666430Y-115150900D01*
X70847858Y-115090424D01*
X70968810Y-115090424D01*
X71150239Y-115150900D01*
X71210715Y-115211376D01*
X71694525Y-115997567D02*
X72299287Y-115997567D01*
X71573572Y-116360424D02*
X71996906Y-115090424D01*
X72420239Y-116360424D01*
X73387858Y-115090424D02*
X73145953Y-115090424D01*
X73025001Y-115150900D01*
X72964524Y-115211376D01*
X72843572Y-115392805D01*
X72783096Y-115634710D01*
X72783096Y-116118519D01*
X72843572Y-116239471D01*
X72904048Y-116299948D01*
X73025001Y-116360424D01*
X73266905Y-116360424D01*
X73387858Y-116299948D01*
X73448334Y-116239471D01*
X73508810Y-116118519D01*
X73508810Y-115816138D01*
X73448334Y-115695186D01*
X73387858Y-115634710D01*
X73266905Y-115574233D01*
X73025001Y-115574233D01*
X72904048Y-115634710D01*
X72843572Y-115695186D01*
X72783096Y-115816138D01*
X74839286Y-115090424D02*
X75565001Y-115090424D01*
X75202144Y-116360424D02*
X75202144Y-115090424D01*
X76472143Y-116299948D02*
X76351191Y-116360424D01*
X76109286Y-116360424D01*
X75988334Y-116299948D01*
X75927858Y-116178995D01*
X75927858Y-115695186D01*
X75988334Y-115574233D01*
X76109286Y-115513757D01*
X76351191Y-115513757D01*
X76472143Y-115574233D01*
X76532620Y-115695186D01*
X76532620Y-115816138D01*
X75927858Y-115937090D01*
X77016429Y-116299948D02*
X77137381Y-116360424D01*
X77379286Y-116360424D01*
X77500238Y-116299948D01*
X77560714Y-116178995D01*
X77560714Y-116118519D01*
X77500238Y-115997567D01*
X77379286Y-115937090D01*
X77197857Y-115937090D01*
X77076905Y-115876614D01*
X77016429Y-115755662D01*
X77016429Y-115695186D01*
X77076905Y-115574233D01*
X77197857Y-115513757D01*
X77379286Y-115513757D01*
X77500238Y-115574233D01*
X77923571Y-115513757D02*
X78407381Y-115513757D01*
X78105000Y-115090424D02*
X78105000Y-116178995D01*
X78165476Y-116299948D01*
X78286429Y-116360424D01*
X78407381Y-116360424D01*
X80161190Y-115090424D02*
X80161190Y-115997567D01*
X80100714Y-116178995D01*
X79979762Y-116299948D01*
X79798333Y-116360424D01*
X79677381Y-116360424D01*
X80765952Y-116360424D02*
X80765952Y-115513757D01*
X80765952Y-115090424D02*
X80705476Y-115150900D01*
X80765952Y-115211376D01*
X80826428Y-115150900D01*
X80765952Y-115090424D01*
X80765952Y-115211376D01*
X81915000Y-115513757D02*
X81915000Y-116541852D01*
X81854523Y-116662805D01*
X81794047Y-116723281D01*
X81673095Y-116783757D01*
X81491666Y-116783757D01*
X81370714Y-116723281D01*
X81915000Y-116299948D02*
X81794047Y-116360424D01*
X81552143Y-116360424D01*
X81431190Y-116299948D01*
X81370714Y-116239471D01*
X81310238Y-116118519D01*
X81310238Y-115755662D01*
X81370714Y-115634710D01*
X81431190Y-115574233D01*
X81552143Y-115513757D01*
X81794047Y-115513757D01*
X81915000Y-115574233D01*
X71603809Y-117319576D02*
X71664285Y-117259100D01*
X71785237Y-117198624D01*
X72087618Y-117198624D01*
X72208571Y-117259100D01*
X72269047Y-117319576D01*
X72329523Y-117440529D01*
X72329523Y-117561481D01*
X72269047Y-117742910D01*
X71543333Y-118468624D01*
X72329523Y-118468624D01*
X73115714Y-117198624D02*
X73236666Y-117198624D01*
X73357618Y-117259100D01*
X73418095Y-117319576D01*
X73478571Y-117440529D01*
X73539047Y-117682433D01*
X73539047Y-117984814D01*
X73478571Y-118226719D01*
X73418095Y-118347671D01*
X73357618Y-118408148D01*
X73236666Y-118468624D01*
X73115714Y-118468624D01*
X72994761Y-118408148D01*
X72934285Y-118347671D01*
X72873809Y-118226719D01*
X72813333Y-117984814D01*
X72813333Y-117682433D01*
X72873809Y-117440529D01*
X72934285Y-117319576D01*
X72994761Y-117259100D01*
X73115714Y-117198624D01*
X74748571Y-118468624D02*
X74022857Y-118468624D01*
X74385714Y-118468624D02*
X74385714Y-117198624D01*
X74264762Y-117380052D01*
X74143809Y-117501005D01*
X74022857Y-117561481D01*
X75474286Y-117742910D02*
X75353333Y-117682433D01*
X75292857Y-117621957D01*
X75232381Y-117501005D01*
X75232381Y-117440529D01*
X75292857Y-117319576D01*
X75353333Y-117259100D01*
X75474286Y-117198624D01*
X75716190Y-117198624D01*
X75837143Y-117259100D01*
X75897619Y-117319576D01*
X75958095Y-117440529D01*
X75958095Y-117501005D01*
X75897619Y-117621957D01*
X75837143Y-117682433D01*
X75716190Y-117742910D01*
X75474286Y-117742910D01*
X75353333Y-117803386D01*
X75292857Y-117863862D01*
X75232381Y-117984814D01*
X75232381Y-118226719D01*
X75292857Y-118347671D01*
X75353333Y-118408148D01*
X75474286Y-118468624D01*
X75716190Y-118468624D01*
X75837143Y-118408148D01*
X75897619Y-118347671D01*
X75958095Y-118226719D01*
X75958095Y-117984814D01*
X75897619Y-117863862D01*
X75837143Y-117803386D01*
X75716190Y-117742910D01*
X76502381Y-118347671D02*
X76562857Y-118408148D01*
X76502381Y-118468624D01*
X76441905Y-118408148D01*
X76502381Y-118347671D01*
X76502381Y-118468624D01*
X77651429Y-117198624D02*
X77409524Y-117198624D01*
X77288572Y-117259100D01*
X77228095Y-117319576D01*
X77107143Y-117501005D01*
X77046667Y-117742910D01*
X77046667Y-118226719D01*
X77107143Y-118347671D01*
X77167619Y-118408148D01*
X77288572Y-118468624D01*
X77530476Y-118468624D01*
X77651429Y-118408148D01*
X77711905Y-118347671D01*
X77772381Y-118226719D01*
X77772381Y-117924338D01*
X77711905Y-117803386D01*
X77651429Y-117742910D01*
X77530476Y-117682433D01*
X77288572Y-117682433D01*
X77167619Y-117742910D01*
X77107143Y-117803386D01*
X77046667Y-117924338D01*
X78316667Y-118347671D02*
X78377143Y-118408148D01*
X78316667Y-118468624D01*
X78256191Y-118408148D01*
X78316667Y-118347671D01*
X78316667Y-118468624D01*
X79586667Y-118468624D02*
X78860953Y-118468624D01*
X79223810Y-118468624D02*
X79223810Y-117198624D01*
X79102858Y-117380052D01*
X78981905Y-117501005D01*
X78860953Y-117561481D01*
X80070477Y-117319576D02*
X80130953Y-117259100D01*
X80251905Y-117198624D01*
X80554286Y-117198624D01*
X80675239Y-117259100D01*
X80735715Y-117319576D01*
X80796191Y-117440529D01*
X80796191Y-117561481D01*
X80735715Y-117742910D01*
X80010001Y-118468624D01*
X80796191Y-118468624D01*
D13*
X129740000Y-126240000D02*
X113990000Y-126240000D01*
X113990000Y-126240000D02*
X113990000Y-109980000D01*
X113990000Y-109980000D02*
X129740000Y-109980000D01*
X129740000Y-109980000D02*
X129740000Y-126240000D01*
X129740000Y-102110000D02*
X113990000Y-102110000D01*
X113990000Y-102110000D02*
X113990000Y-85850000D01*
X113990000Y-85850000D02*
X129740000Y-85850000D01*
X129740000Y-85850000D02*
X129740000Y-102110000D01*
X129740000Y-77980000D02*
X113990000Y-77980000D01*
X113990000Y-77980000D02*
X113990000Y-61720000D01*
X113990000Y-61720000D02*
X129740000Y-61720000D01*
X129740000Y-61720000D02*
X129740000Y-77980000D01*
X129740000Y-53850000D02*
X113990000Y-53850000D01*
X113990000Y-53850000D02*
X113990000Y-37590000D01*
X113990000Y-37590000D02*
X129740000Y-37590000D01*
X129740000Y-37590000D02*
X129740000Y-53850000D01*
D14*
X40640000Y-32385000D02*
X43180000Y-32385000D01*
X111760000Y-32385000D02*
X109220000Y-32385000D01*
D13*
X111760000Y-23550000D02*
X40640000Y-23550000D01*
X40640000Y-23550000D02*
X40640000Y-32350000D01*
X111760000Y-23550000D02*
X111760000Y-32350000D01*
D15*
G36*
X82458600Y-107373400D02*
X82458600Y-107652800D01*
X82453500Y-107917000D01*
X82450900Y-107998300D01*
X82448400Y-108135400D01*
X82443300Y-108265000D01*
X82440800Y-108386900D01*
X82435700Y-108491000D01*
X82433200Y-108577400D01*
X82430600Y-108638300D01*
X82428100Y-108673900D01*
X82428100Y-108676400D01*
X82423000Y-108727200D01*
X82420500Y-108798400D01*
X82412800Y-108877100D01*
X82412800Y-108912700D01*
X82367100Y-109504500D01*
X82301100Y-110111500D01*
X82217300Y-110726200D01*
X82113100Y-111343400D01*
X81991200Y-111953000D01*
X81854000Y-112547400D01*
X81755000Y-112918200D01*
X81755000Y-107454700D01*
X81755000Y-107261700D01*
X81755000Y-107071200D01*
X81752400Y-106888300D01*
X81749900Y-106720600D01*
X81747400Y-106575900D01*
X81742300Y-106448900D01*
X81739700Y-106405700D01*
X81732100Y-106250700D01*
X81724500Y-106098300D01*
X81714300Y-105953600D01*
X81704200Y-105813900D01*
X81696600Y-105689400D01*
X81686400Y-105577600D01*
X81678800Y-105486200D01*
X81671200Y-105417600D01*
X81663500Y-105374400D01*
X81658500Y-105359200D01*
X81640700Y-105344000D01*
X81597500Y-105318600D01*
X81541600Y-105285500D01*
X81473000Y-105244900D01*
X81468000Y-105242400D01*
X81381600Y-105194100D01*
X81290200Y-105143300D01*
X81206300Y-105095000D01*
X81150500Y-105067100D01*
X81010800Y-104988400D01*
X81287600Y-104709000D01*
X81567000Y-104432100D01*
X81518800Y-104122200D01*
X81495900Y-103972400D01*
X81473000Y-103837700D01*
X81452700Y-103708200D01*
X81429900Y-103583700D01*
X81404500Y-103456700D01*
X81376500Y-103322100D01*
X81346000Y-103177300D01*
X81310500Y-103014800D01*
X81269800Y-102829400D01*
X81234300Y-102679500D01*
X81178400Y-102438200D01*
X81127600Y-102222300D01*
X81079300Y-102031800D01*
X81036200Y-101856500D01*
X80995500Y-101699100D01*
X80954900Y-101551700D01*
X80914200Y-101412000D01*
X80871100Y-101274900D01*
X80827900Y-101137700D01*
X80779600Y-100992900D01*
X80726300Y-100843100D01*
X80723700Y-100832900D01*
X80685600Y-100721200D01*
X80652600Y-100637300D01*
X80627200Y-100578900D01*
X80609400Y-100543400D01*
X80591700Y-100525600D01*
X80586600Y-100523000D01*
X80576400Y-100535700D01*
X80561200Y-100576400D01*
X80540900Y-100632300D01*
X80515500Y-100700800D01*
X80449400Y-100883700D01*
X80370700Y-101081800D01*
X80284300Y-101282500D01*
X80190300Y-101473000D01*
X80182700Y-101490800D01*
X80081100Y-101691400D01*
X80129400Y-101861600D01*
X80284300Y-102456000D01*
X80421500Y-103078300D01*
X80540900Y-103723400D01*
X80642500Y-104394000D01*
X80726300Y-105090000D01*
X80792300Y-105811300D01*
X80805000Y-105986600D01*
X80810100Y-106095800D01*
X80815200Y-106230400D01*
X80820300Y-106387900D01*
X80825300Y-106565700D01*
X80827900Y-106756200D01*
X80830400Y-106959400D01*
X80833000Y-107167700D01*
X80833000Y-107381000D01*
X80833000Y-107591900D01*
X80833000Y-107800100D01*
X80833000Y-107998300D01*
X80830400Y-108183700D01*
X80825300Y-108353900D01*
X80822800Y-108501200D01*
X80817700Y-108625600D01*
X80812600Y-108699300D01*
X80805000Y-108816100D01*
X80797400Y-108940600D01*
X80787200Y-109067600D01*
X80779600Y-109179400D01*
X80777100Y-109227600D01*
X80749100Y-109662000D01*
X80716100Y-110070900D01*
X80678000Y-110457000D01*
X80637400Y-110825300D01*
X80589100Y-111180900D01*
X80538300Y-111531400D01*
X80507800Y-111706700D01*
X80490100Y-111818400D01*
X80469700Y-111932700D01*
X80449400Y-112047000D01*
X80429100Y-112153700D01*
X80411300Y-112250200D01*
X80393500Y-112331500D01*
X80383400Y-112392500D01*
X80373200Y-112428000D01*
X80373200Y-112428000D01*
X80378300Y-112445800D01*
X80403700Y-112471200D01*
X80449400Y-112509300D01*
X80520500Y-112560100D01*
X80535800Y-112572800D01*
X80622100Y-112633800D01*
X80718700Y-112702300D01*
X80812600Y-112773500D01*
X80873600Y-112816600D01*
X80934600Y-112864900D01*
X80987900Y-112900500D01*
X81026000Y-112925900D01*
X81046300Y-112933500D01*
X81048900Y-112933500D01*
X81053900Y-112915700D01*
X81066600Y-112872500D01*
X81087000Y-112806500D01*
X81107300Y-112722700D01*
X81132700Y-112623600D01*
X81155500Y-112537200D01*
X81290200Y-111953000D01*
X81407000Y-111368800D01*
X81508600Y-110779600D01*
X81589900Y-110180100D01*
X81658500Y-109565400D01*
X81709300Y-108933000D01*
X81739700Y-108414800D01*
X81744800Y-108305600D01*
X81749900Y-108168400D01*
X81752400Y-108008400D01*
X81755000Y-107835700D01*
X81755000Y-107647700D01*
X81755000Y-107454700D01*
X81755000Y-112918200D01*
X81701600Y-113121400D01*
X81691500Y-113159500D01*
X81671200Y-113230700D01*
X81643200Y-113319600D01*
X81612700Y-113418600D01*
X81577200Y-113530400D01*
X81541600Y-113644700D01*
X81503500Y-113756400D01*
X81468000Y-113868200D01*
X81432400Y-113967300D01*
X81404500Y-114058700D01*
X81379100Y-114129800D01*
X81361300Y-114180600D01*
X81348600Y-114206000D01*
X81348600Y-114206000D01*
X81335900Y-114208600D01*
X81305400Y-114190800D01*
X81262200Y-114150100D01*
X81239400Y-114127300D01*
X80944700Y-113835200D01*
X80655200Y-113565900D01*
X80363100Y-113319600D01*
X80063300Y-113088400D01*
X79753500Y-112870000D01*
X79474100Y-112689600D01*
X79395300Y-112641400D01*
X79296300Y-112585500D01*
X79187000Y-112522000D01*
X79072700Y-112458500D01*
X78958400Y-112395000D01*
X78851800Y-112339100D01*
X78760300Y-112290900D01*
X78689200Y-112255300D01*
X78686700Y-112255300D01*
X78646000Y-112235000D01*
X78620600Y-112219700D01*
X78615500Y-112214700D01*
X78630800Y-112204500D01*
X78666300Y-112179100D01*
X78717100Y-112146100D01*
X78757800Y-112115600D01*
X78836500Y-112062300D01*
X78920300Y-111998800D01*
X78996500Y-111937800D01*
X79016900Y-111920000D01*
X79070200Y-111876800D01*
X79115900Y-111838700D01*
X79148900Y-111813300D01*
X79159100Y-111805700D01*
X79176900Y-111805700D01*
X79220100Y-111821000D01*
X79281000Y-111848900D01*
X79357200Y-111884500D01*
X79443600Y-111925100D01*
X79535000Y-111970800D01*
X79629000Y-112019100D01*
X79717900Y-112067300D01*
X79748400Y-112085100D01*
X79799200Y-112113100D01*
X79837300Y-112133400D01*
X79855100Y-112141000D01*
X79855100Y-112141000D01*
X79860100Y-112133400D01*
X79867800Y-112108000D01*
X79880500Y-112062300D01*
X79895700Y-111993700D01*
X79916000Y-111902200D01*
X79941400Y-111780300D01*
X79956700Y-111706700D01*
X80063300Y-111127500D01*
X80154800Y-110551000D01*
X80231000Y-109969300D01*
X80289400Y-109380000D01*
X80332600Y-108773000D01*
X80363100Y-108145600D01*
X80368100Y-107970300D01*
X80370700Y-107853500D01*
X80373200Y-107744300D01*
X80375800Y-107645200D01*
X80375800Y-107548700D01*
X80375800Y-107452200D01*
X80375800Y-107350600D01*
X80373200Y-107241300D01*
X80370700Y-107124500D01*
X80368100Y-106989900D01*
X80363100Y-106840000D01*
X80358000Y-106669800D01*
X80350400Y-106471700D01*
X80342700Y-106286300D01*
X80327500Y-105951000D01*
X80302100Y-105595400D01*
X80266500Y-105219500D01*
X80225900Y-104833400D01*
X80177600Y-104444800D01*
X80137000Y-104162900D01*
X80111600Y-104000300D01*
X80083700Y-103827600D01*
X80055700Y-103652300D01*
X80022700Y-103474500D01*
X79989700Y-103299300D01*
X79956700Y-103129100D01*
X79923600Y-102966500D01*
X79890600Y-102816700D01*
X79860100Y-102679500D01*
X79829700Y-102562700D01*
X79804300Y-102463600D01*
X79783900Y-102389900D01*
X79763600Y-102344200D01*
X79761100Y-102341700D01*
X79725500Y-102275600D01*
X79578200Y-102483900D01*
X79286100Y-102875100D01*
X78961000Y-103258600D01*
X78610500Y-103637100D01*
X78234500Y-104005400D01*
X77835800Y-104363500D01*
X77416700Y-104706400D01*
X76974700Y-105034100D01*
X76517500Y-105346500D01*
X76233000Y-105526800D01*
X75775800Y-105793500D01*
X75313500Y-106032300D01*
X74848700Y-106243100D01*
X74376300Y-106428500D01*
X73893700Y-106586000D01*
X73395800Y-106718100D01*
X72880200Y-106827300D01*
X72572900Y-106883200D01*
X72478900Y-106898400D01*
X72410300Y-106913700D01*
X72362100Y-106928900D01*
X72331600Y-106944200D01*
X72311300Y-106961900D01*
X72301100Y-106977200D01*
X72298600Y-106997500D01*
X72296000Y-107048300D01*
X72293500Y-107124500D01*
X72293500Y-107226100D01*
X72290900Y-107348000D01*
X72288400Y-107490300D01*
X72288400Y-107650300D01*
X72288400Y-107825500D01*
X72285900Y-108013500D01*
X72285900Y-108211600D01*
X72285900Y-108417400D01*
X72285900Y-108628200D01*
X72285900Y-108841500D01*
X72285900Y-109057400D01*
X72285900Y-109270800D01*
X72285900Y-109479100D01*
X72285900Y-109682300D01*
X72288400Y-109877900D01*
X72288400Y-110060700D01*
X72290900Y-110228400D01*
X72290900Y-110383300D01*
X72293500Y-110517900D01*
X72293500Y-110632200D01*
X72296000Y-110726200D01*
X72298600Y-110792300D01*
X72301100Y-110830400D01*
X72303600Y-110838000D01*
X72334100Y-110906600D01*
X72384900Y-110962400D01*
X72445900Y-111003100D01*
X72481400Y-111013200D01*
X72532200Y-111015800D01*
X72611000Y-111005600D01*
X72720200Y-110987800D01*
X72740500Y-110982800D01*
X73019900Y-110929400D01*
X73296800Y-110886200D01*
X73566000Y-110850700D01*
X73820000Y-110827800D01*
X73898800Y-110822700D01*
X74066400Y-110810000D01*
X74183200Y-110921800D01*
X74244200Y-110980200D01*
X74320400Y-111048800D01*
X74399100Y-111117400D01*
X74447400Y-111158000D01*
X74597300Y-111279900D01*
X74320400Y-111292600D01*
X73883500Y-111320600D01*
X73464400Y-111368800D01*
X73058000Y-111434900D01*
X72674500Y-111518700D01*
X72555100Y-111549200D01*
X72458600Y-111572000D01*
X72382400Y-111587300D01*
X72318900Y-111597400D01*
X72263000Y-111602500D01*
X72209700Y-111605100D01*
X72194400Y-111605100D01*
X72031900Y-111592400D01*
X71882000Y-111559300D01*
X71734700Y-111498400D01*
X71734700Y-111498400D01*
X71694000Y-111475500D01*
X71655900Y-111452700D01*
X71615300Y-111424700D01*
X71572100Y-111389200D01*
X71521300Y-111343400D01*
X71460400Y-111285000D01*
X71386700Y-111213900D01*
X71297800Y-111122500D01*
X71193700Y-111013200D01*
X71155600Y-110972600D01*
X71084400Y-110901500D01*
X70998100Y-110812600D01*
X70899000Y-110708400D01*
X70792300Y-110599200D01*
X70683100Y-110484900D01*
X70576400Y-110373200D01*
X70515500Y-110309700D01*
X70383400Y-110172500D01*
X70271600Y-110058200D01*
X70180200Y-109961700D01*
X70101500Y-109880400D01*
X70040500Y-109811800D01*
X69989700Y-109755900D01*
X69951600Y-109710200D01*
X69921100Y-109672100D01*
X69898300Y-109636600D01*
X69883000Y-109606100D01*
X69867800Y-109575600D01*
X69857600Y-109542600D01*
X69844900Y-109507000D01*
X69842400Y-109496900D01*
X69837300Y-109484200D01*
X69832200Y-109468900D01*
X69829700Y-109451100D01*
X69827100Y-109428300D01*
X69824600Y-109402900D01*
X69822100Y-109367300D01*
X69819500Y-109324100D01*
X69817000Y-109268300D01*
X69814400Y-109202200D01*
X69814400Y-109120900D01*
X69811900Y-109024400D01*
X69811900Y-108912700D01*
X69809400Y-108780600D01*
X69809400Y-108630700D01*
X69809400Y-108458000D01*
X69806800Y-108262400D01*
X69806800Y-108041400D01*
X69806800Y-107795100D01*
X69804300Y-107518200D01*
X69804300Y-107213400D01*
X69804300Y-107111800D01*
X69799200Y-104825800D01*
X69839800Y-104739400D01*
X69908400Y-104625100D01*
X69992200Y-104538800D01*
X70091300Y-104480400D01*
X70208100Y-104447300D01*
X70253900Y-104442300D01*
X70307200Y-104442300D01*
X70375800Y-104444800D01*
X70452000Y-104449900D01*
X70528200Y-104457500D01*
X70596800Y-104465100D01*
X70650100Y-104472700D01*
X70683100Y-104482900D01*
X70685700Y-104485400D01*
X70690700Y-104503200D01*
X70693300Y-104546400D01*
X70693300Y-104612400D01*
X70695800Y-104693700D01*
X70693300Y-104764800D01*
X70690700Y-104863900D01*
X70688200Y-104935000D01*
X70685700Y-104980700D01*
X70683100Y-105011200D01*
X70675500Y-105023900D01*
X70667900Y-105029000D01*
X70657700Y-105026500D01*
X70606900Y-105026500D01*
X70561200Y-105044200D01*
X70533300Y-105069600D01*
X70528200Y-105110300D01*
X70543400Y-105158500D01*
X70579000Y-105201700D01*
X70599300Y-105217000D01*
X70627200Y-105237300D01*
X70673000Y-105272800D01*
X70723800Y-105316000D01*
X70731400Y-105326200D01*
X70772000Y-105359200D01*
X70830400Y-105412500D01*
X70904100Y-105476000D01*
X70990500Y-105549700D01*
X71084400Y-105628400D01*
X71178400Y-105709700D01*
X71269900Y-105791000D01*
X71356200Y-105864700D01*
X71432400Y-105928200D01*
X71493400Y-105981500D01*
X71528900Y-106009400D01*
X71579700Y-106052600D01*
X71640700Y-106103400D01*
X71699100Y-106154200D01*
X71704200Y-106159300D01*
X71765200Y-106205000D01*
X71828700Y-106250700D01*
X71887100Y-106281200D01*
X71889600Y-106283800D01*
X71935300Y-106304100D01*
X71976000Y-106314200D01*
X72024200Y-106321900D01*
X72087700Y-106324400D01*
X72143600Y-106324400D01*
X72288400Y-106316800D01*
X72458600Y-106299000D01*
X72646500Y-106271100D01*
X72854800Y-106235500D01*
X73073300Y-106189800D01*
X73296800Y-106136400D01*
X73527900Y-106078000D01*
X73754000Y-106014500D01*
X73977500Y-105945900D01*
X74190900Y-105872300D01*
X74259400Y-105846900D01*
X74416900Y-105785900D01*
X74594700Y-105707200D01*
X74790300Y-105615700D01*
X75001100Y-105511600D01*
X75217000Y-105399800D01*
X75438000Y-105277900D01*
X75659000Y-105153500D01*
X75821500Y-105056900D01*
X76113600Y-104876600D01*
X76372700Y-104693700D01*
X76606400Y-104508300D01*
X76817200Y-104320300D01*
X76880700Y-104256800D01*
X76995000Y-104137500D01*
X77081400Y-104030800D01*
X77142300Y-103936800D01*
X77175400Y-103858100D01*
X77183000Y-103792000D01*
X77177900Y-103766600D01*
X77152500Y-103728500D01*
X77114400Y-103705700D01*
X77061100Y-103698000D01*
X76987400Y-103703100D01*
X76896000Y-103723400D01*
X76786700Y-103759000D01*
X76654700Y-103812300D01*
X76499700Y-103880900D01*
X76319400Y-103964700D01*
X76154300Y-104048600D01*
X75846900Y-104201000D01*
X75552300Y-104340700D01*
X75275400Y-104470200D01*
X75018900Y-104582000D01*
X74800500Y-104673400D01*
X74719200Y-104706400D01*
X74650600Y-104734400D01*
X74594700Y-104754700D01*
X74561700Y-104767400D01*
X74554100Y-104769900D01*
X74549000Y-104757200D01*
X74546500Y-104716600D01*
X74541400Y-104663200D01*
X74538800Y-104655600D01*
X74521100Y-104541300D01*
X74477900Y-104434600D01*
X74409300Y-104330500D01*
X74401700Y-104322900D01*
X74353400Y-104259400D01*
X74625200Y-104155200D01*
X75130700Y-103944400D01*
X75631000Y-103718400D01*
X76123800Y-103469400D01*
X76601300Y-103207800D01*
X77068700Y-102928400D01*
X77523300Y-102636300D01*
X77957700Y-102334100D01*
X78369200Y-102019100D01*
X78760300Y-101696500D01*
X79123500Y-101366300D01*
X79461400Y-101033600D01*
X79557900Y-100932000D01*
X79781400Y-100680500D01*
X79982100Y-100441800D01*
X80162400Y-100208100D01*
X80322400Y-99979500D01*
X80467200Y-99750900D01*
X80599300Y-99514700D01*
X80637400Y-99443500D01*
X80756800Y-99212400D01*
X80848200Y-99405400D01*
X81064100Y-99888000D01*
X81267300Y-100396000D01*
X81457800Y-100929400D01*
X81633100Y-101480600D01*
X81793100Y-102052100D01*
X81937900Y-102636300D01*
X82064900Y-103230700D01*
X82176600Y-103835200D01*
X82237600Y-104241600D01*
X82252800Y-104343200D01*
X82263000Y-104416900D01*
X82268100Y-104467700D01*
X82270600Y-104503200D01*
X82268100Y-104523500D01*
X82260400Y-104536200D01*
X82252800Y-104543900D01*
X82250300Y-104546400D01*
X82174100Y-104597200D01*
X82095300Y-104653100D01*
X82021700Y-104706400D01*
X81953100Y-104757200D01*
X81897200Y-104800400D01*
X81856600Y-104833400D01*
X81836300Y-104853700D01*
X81833700Y-104858800D01*
X81849000Y-104869000D01*
X81887100Y-104894400D01*
X81945500Y-104927400D01*
X82016600Y-104965500D01*
X82082600Y-105001100D01*
X82161400Y-105041700D01*
X82232500Y-105079800D01*
X82288400Y-105112800D01*
X82326500Y-105133100D01*
X82339200Y-105143300D01*
X82344300Y-105163600D01*
X82351900Y-105211900D01*
X82362000Y-105285500D01*
X82369700Y-105384600D01*
X82379800Y-105501400D01*
X82392500Y-105636100D01*
X82402700Y-105783400D01*
X82412800Y-105940900D01*
X82420500Y-106034800D01*
X82433200Y-106268500D01*
X82443300Y-106530100D01*
X82450900Y-106801900D01*
X82456000Y-107086400D01*
X82458600Y-107373400D01*
X82458600Y-107373400D01*
X82458600Y-107373400D01*
G37*
X82458600Y-107373400D02*
X82458600Y-107652800D01*
X82453500Y-107917000D01*
X82450900Y-107998300D01*
X82448400Y-108135400D01*
X82443300Y-108265000D01*
X82440800Y-108386900D01*
X82435700Y-108491000D01*
X82433200Y-108577400D01*
X82430600Y-108638300D01*
X82428100Y-108673900D01*
X82428100Y-108676400D01*
X82423000Y-108727200D01*
X82420500Y-108798400D01*
X82412800Y-108877100D01*
X82412800Y-108912700D01*
X82367100Y-109504500D01*
X82301100Y-110111500D01*
X82217300Y-110726200D01*
X82113100Y-111343400D01*
X81991200Y-111953000D01*
X81854000Y-112547400D01*
X81755000Y-112918200D01*
X81755000Y-107454700D01*
X81755000Y-107261700D01*
X81755000Y-107071200D01*
X81752400Y-106888300D01*
X81749900Y-106720600D01*
X81747400Y-106575900D01*
X81742300Y-106448900D01*
X81739700Y-106405700D01*
X81732100Y-106250700D01*
X81724500Y-106098300D01*
X81714300Y-105953600D01*
X81704200Y-105813900D01*
X81696600Y-105689400D01*
X81686400Y-105577600D01*
X81678800Y-105486200D01*
X81671200Y-105417600D01*
X81663500Y-105374400D01*
X81658500Y-105359200D01*
X81640700Y-105344000D01*
X81597500Y-105318600D01*
X81541600Y-105285500D01*
X81473000Y-105244900D01*
X81468000Y-105242400D01*
X81381600Y-105194100D01*
X81290200Y-105143300D01*
X81206300Y-105095000D01*
X81150500Y-105067100D01*
X81010800Y-104988400D01*
X81287600Y-104709000D01*
X81567000Y-104432100D01*
X81518800Y-104122200D01*
X81495900Y-103972400D01*
X81473000Y-103837700D01*
X81452700Y-103708200D01*
X81429900Y-103583700D01*
X81404500Y-103456700D01*
X81376500Y-103322100D01*
X81346000Y-103177300D01*
X81310500Y-103014800D01*
X81269800Y-102829400D01*
X81234300Y-102679500D01*
X81178400Y-102438200D01*
X81127600Y-102222300D01*
X81079300Y-102031800D01*
X81036200Y-101856500D01*
X80995500Y-101699100D01*
X80954900Y-101551700D01*
X80914200Y-101412000D01*
X80871100Y-101274900D01*
X80827900Y-101137700D01*
X80779600Y-100992900D01*
X80726300Y-100843100D01*
X80723700Y-100832900D01*
X80685600Y-100721200D01*
X80652600Y-100637300D01*
X80627200Y-100578900D01*
X80609400Y-100543400D01*
X80591700Y-100525600D01*
X80586600Y-100523000D01*
X80576400Y-100535700D01*
X80561200Y-100576400D01*
X80540900Y-100632300D01*
X80515500Y-100700800D01*
X80449400Y-100883700D01*
X80370700Y-101081800D01*
X80284300Y-101282500D01*
X80190300Y-101473000D01*
X80182700Y-101490800D01*
X80081100Y-101691400D01*
X80129400Y-101861600D01*
X80284300Y-102456000D01*
X80421500Y-103078300D01*
X80540900Y-103723400D01*
X80642500Y-104394000D01*
X80726300Y-105090000D01*
X80792300Y-105811300D01*
X80805000Y-105986600D01*
X80810100Y-106095800D01*
X80815200Y-106230400D01*
X80820300Y-106387900D01*
X80825300Y-106565700D01*
X80827900Y-106756200D01*
X80830400Y-106959400D01*
X80833000Y-107167700D01*
X80833000Y-107381000D01*
X80833000Y-107591900D01*
X80833000Y-107800100D01*
X80833000Y-107998300D01*
X80830400Y-108183700D01*
X80825300Y-108353900D01*
X80822800Y-108501200D01*
X80817700Y-108625600D01*
X80812600Y-108699300D01*
X80805000Y-108816100D01*
X80797400Y-108940600D01*
X80787200Y-109067600D01*
X80779600Y-109179400D01*
X80777100Y-109227600D01*
X80749100Y-109662000D01*
X80716100Y-110070900D01*
X80678000Y-110457000D01*
X80637400Y-110825300D01*
X80589100Y-111180900D01*
X80538300Y-111531400D01*
X80507800Y-111706700D01*
X80490100Y-111818400D01*
X80469700Y-111932700D01*
X80449400Y-112047000D01*
X80429100Y-112153700D01*
X80411300Y-112250200D01*
X80393500Y-112331500D01*
X80383400Y-112392500D01*
X80373200Y-112428000D01*
X80373200Y-112428000D01*
X80378300Y-112445800D01*
X80403700Y-112471200D01*
X80449400Y-112509300D01*
X80520500Y-112560100D01*
X80535800Y-112572800D01*
X80622100Y-112633800D01*
X80718700Y-112702300D01*
X80812600Y-112773500D01*
X80873600Y-112816600D01*
X80934600Y-112864900D01*
X80987900Y-112900500D01*
X81026000Y-112925900D01*
X81046300Y-112933500D01*
X81048900Y-112933500D01*
X81053900Y-112915700D01*
X81066600Y-112872500D01*
X81087000Y-112806500D01*
X81107300Y-112722700D01*
X81132700Y-112623600D01*
X81155500Y-112537200D01*
X81290200Y-111953000D01*
X81407000Y-111368800D01*
X81508600Y-110779600D01*
X81589900Y-110180100D01*
X81658500Y-109565400D01*
X81709300Y-108933000D01*
X81739700Y-108414800D01*
X81744800Y-108305600D01*
X81749900Y-108168400D01*
X81752400Y-108008400D01*
X81755000Y-107835700D01*
X81755000Y-107647700D01*
X81755000Y-107454700D01*
X81755000Y-112918200D01*
X81701600Y-113121400D01*
X81691500Y-113159500D01*
X81671200Y-113230700D01*
X81643200Y-113319600D01*
X81612700Y-113418600D01*
X81577200Y-113530400D01*
X81541600Y-113644700D01*
X81503500Y-113756400D01*
X81468000Y-113868200D01*
X81432400Y-113967300D01*
X81404500Y-114058700D01*
X81379100Y-114129800D01*
X81361300Y-114180600D01*
X81348600Y-114206000D01*
X81348600Y-114206000D01*
X81335900Y-114208600D01*
X81305400Y-114190800D01*
X81262200Y-114150100D01*
X81239400Y-114127300D01*
X80944700Y-113835200D01*
X80655200Y-113565900D01*
X80363100Y-113319600D01*
X80063300Y-113088400D01*
X79753500Y-112870000D01*
X79474100Y-112689600D01*
X79395300Y-112641400D01*
X79296300Y-112585500D01*
X79187000Y-112522000D01*
X79072700Y-112458500D01*
X78958400Y-112395000D01*
X78851800Y-112339100D01*
X78760300Y-112290900D01*
X78689200Y-112255300D01*
X78686700Y-112255300D01*
X78646000Y-112235000D01*
X78620600Y-112219700D01*
X78615500Y-112214700D01*
X78630800Y-112204500D01*
X78666300Y-112179100D01*
X78717100Y-112146100D01*
X78757800Y-112115600D01*
X78836500Y-112062300D01*
X78920300Y-111998800D01*
X78996500Y-111937800D01*
X79016900Y-111920000D01*
X79070200Y-111876800D01*
X79115900Y-111838700D01*
X79148900Y-111813300D01*
X79159100Y-111805700D01*
X79176900Y-111805700D01*
X79220100Y-111821000D01*
X79281000Y-111848900D01*
X79357200Y-111884500D01*
X79443600Y-111925100D01*
X79535000Y-111970800D01*
X79629000Y-112019100D01*
X79717900Y-112067300D01*
X79748400Y-112085100D01*
X79799200Y-112113100D01*
X79837300Y-112133400D01*
X79855100Y-112141000D01*
X79855100Y-112141000D01*
X79860100Y-112133400D01*
X79867800Y-112108000D01*
X79880500Y-112062300D01*
X79895700Y-111993700D01*
X79916000Y-111902200D01*
X79941400Y-111780300D01*
X79956700Y-111706700D01*
X80063300Y-111127500D01*
X80154800Y-110551000D01*
X80231000Y-109969300D01*
X80289400Y-109380000D01*
X80332600Y-108773000D01*
X80363100Y-108145600D01*
X80368100Y-107970300D01*
X80370700Y-107853500D01*
X80373200Y-107744300D01*
X80375800Y-107645200D01*
X80375800Y-107548700D01*
X80375800Y-107452200D01*
X80375800Y-107350600D01*
X80373200Y-107241300D01*
X80370700Y-107124500D01*
X80368100Y-106989900D01*
X80363100Y-106840000D01*
X80358000Y-106669800D01*
X80350400Y-106471700D01*
X80342700Y-106286300D01*
X80327500Y-105951000D01*
X80302100Y-105595400D01*
X80266500Y-105219500D01*
X80225900Y-104833400D01*
X80177600Y-104444800D01*
X80137000Y-104162900D01*
X80111600Y-104000300D01*
X80083700Y-103827600D01*
X80055700Y-103652300D01*
X80022700Y-103474500D01*
X79989700Y-103299300D01*
X79956700Y-103129100D01*
X79923600Y-102966500D01*
X79890600Y-102816700D01*
X79860100Y-102679500D01*
X79829700Y-102562700D01*
X79804300Y-102463600D01*
X79783900Y-102389900D01*
X79763600Y-102344200D01*
X79761100Y-102341700D01*
X79725500Y-102275600D01*
X79578200Y-102483900D01*
X79286100Y-102875100D01*
X78961000Y-103258600D01*
X78610500Y-103637100D01*
X78234500Y-104005400D01*
X77835800Y-104363500D01*
X77416700Y-104706400D01*
X76974700Y-105034100D01*
X76517500Y-105346500D01*
X76233000Y-105526800D01*
X75775800Y-105793500D01*
X75313500Y-106032300D01*
X74848700Y-106243100D01*
X74376300Y-106428500D01*
X73893700Y-106586000D01*
X73395800Y-106718100D01*
X72880200Y-106827300D01*
X72572900Y-106883200D01*
X72478900Y-106898400D01*
X72410300Y-106913700D01*
X72362100Y-106928900D01*
X72331600Y-106944200D01*
X72311300Y-106961900D01*
X72301100Y-106977200D01*
X72298600Y-106997500D01*
X72296000Y-107048300D01*
X72293500Y-107124500D01*
X72293500Y-107226100D01*
X72290900Y-107348000D01*
X72288400Y-107490300D01*
X72288400Y-107650300D01*
X72288400Y-107825500D01*
X72285900Y-108013500D01*
X72285900Y-108211600D01*
X72285900Y-108417400D01*
X72285900Y-108628200D01*
X72285900Y-108841500D01*
X72285900Y-109057400D01*
X72285900Y-109270800D01*
X72285900Y-109479100D01*
X72285900Y-109682300D01*
X72288400Y-109877900D01*
X72288400Y-110060700D01*
X72290900Y-110228400D01*
X72290900Y-110383300D01*
X72293500Y-110517900D01*
X72293500Y-110632200D01*
X72296000Y-110726200D01*
X72298600Y-110792300D01*
X72301100Y-110830400D01*
X72303600Y-110838000D01*
X72334100Y-110906600D01*
X72384900Y-110962400D01*
X72445900Y-111003100D01*
X72481400Y-111013200D01*
X72532200Y-111015800D01*
X72611000Y-111005600D01*
X72720200Y-110987800D01*
X72740500Y-110982800D01*
X73019900Y-110929400D01*
X73296800Y-110886200D01*
X73566000Y-110850700D01*
X73820000Y-110827800D01*
X73898800Y-110822700D01*
X74066400Y-110810000D01*
X74183200Y-110921800D01*
X74244200Y-110980200D01*
X74320400Y-111048800D01*
X74399100Y-111117400D01*
X74447400Y-111158000D01*
X74597300Y-111279900D01*
X74320400Y-111292600D01*
X73883500Y-111320600D01*
X73464400Y-111368800D01*
X73058000Y-111434900D01*
X72674500Y-111518700D01*
X72555100Y-111549200D01*
X72458600Y-111572000D01*
X72382400Y-111587300D01*
X72318900Y-111597400D01*
X72263000Y-111602500D01*
X72209700Y-111605100D01*
X72194400Y-111605100D01*
X72031900Y-111592400D01*
X71882000Y-111559300D01*
X71734700Y-111498400D01*
X71734700Y-111498400D01*
X71694000Y-111475500D01*
X71655900Y-111452700D01*
X71615300Y-111424700D01*
X71572100Y-111389200D01*
X71521300Y-111343400D01*
X71460400Y-111285000D01*
X71386700Y-111213900D01*
X71297800Y-111122500D01*
X71193700Y-111013200D01*
X71155600Y-110972600D01*
X71084400Y-110901500D01*
X70998100Y-110812600D01*
X70899000Y-110708400D01*
X70792300Y-110599200D01*
X70683100Y-110484900D01*
X70576400Y-110373200D01*
X70515500Y-110309700D01*
X70383400Y-110172500D01*
X70271600Y-110058200D01*
X70180200Y-109961700D01*
X70101500Y-109880400D01*
X70040500Y-109811800D01*
X69989700Y-109755900D01*
X69951600Y-109710200D01*
X69921100Y-109672100D01*
X69898300Y-109636600D01*
X69883000Y-109606100D01*
X69867800Y-109575600D01*
X69857600Y-109542600D01*
X69844900Y-109507000D01*
X69842400Y-109496900D01*
X69837300Y-109484200D01*
X69832200Y-109468900D01*
X69829700Y-109451100D01*
X69827100Y-109428300D01*
X69824600Y-109402900D01*
X69822100Y-109367300D01*
X69819500Y-109324100D01*
X69817000Y-109268300D01*
X69814400Y-109202200D01*
X69814400Y-109120900D01*
X69811900Y-109024400D01*
X69811900Y-108912700D01*
X69809400Y-108780600D01*
X69809400Y-108630700D01*
X69809400Y-108458000D01*
X69806800Y-108262400D01*
X69806800Y-108041400D01*
X69806800Y-107795100D01*
X69804300Y-107518200D01*
X69804300Y-107213400D01*
X69804300Y-107111800D01*
X69799200Y-104825800D01*
X69839800Y-104739400D01*
X69908400Y-104625100D01*
X69992200Y-104538800D01*
X70091300Y-104480400D01*
X70208100Y-104447300D01*
X70253900Y-104442300D01*
X70307200Y-104442300D01*
X70375800Y-104444800D01*
X70452000Y-104449900D01*
X70528200Y-104457500D01*
X70596800Y-104465100D01*
X70650100Y-104472700D01*
X70683100Y-104482900D01*
X70685700Y-104485400D01*
X70690700Y-104503200D01*
X70693300Y-104546400D01*
X70693300Y-104612400D01*
X70695800Y-104693700D01*
X70693300Y-104764800D01*
X70690700Y-104863900D01*
X70688200Y-104935000D01*
X70685700Y-104980700D01*
X70683100Y-105011200D01*
X70675500Y-105023900D01*
X70667900Y-105029000D01*
X70657700Y-105026500D01*
X70606900Y-105026500D01*
X70561200Y-105044200D01*
X70533300Y-105069600D01*
X70528200Y-105110300D01*
X70543400Y-105158500D01*
X70579000Y-105201700D01*
X70599300Y-105217000D01*
X70627200Y-105237300D01*
X70673000Y-105272800D01*
X70723800Y-105316000D01*
X70731400Y-105326200D01*
X70772000Y-105359200D01*
X70830400Y-105412500D01*
X70904100Y-105476000D01*
X70990500Y-105549700D01*
X71084400Y-105628400D01*
X71178400Y-105709700D01*
X71269900Y-105791000D01*
X71356200Y-105864700D01*
X71432400Y-105928200D01*
X71493400Y-105981500D01*
X71528900Y-106009400D01*
X71579700Y-106052600D01*
X71640700Y-106103400D01*
X71699100Y-106154200D01*
X71704200Y-106159300D01*
X71765200Y-106205000D01*
X71828700Y-106250700D01*
X71887100Y-106281200D01*
X71889600Y-106283800D01*
X71935300Y-106304100D01*
X71976000Y-106314200D01*
X72024200Y-106321900D01*
X72087700Y-106324400D01*
X72143600Y-106324400D01*
X72288400Y-106316800D01*
X72458600Y-106299000D01*
X72646500Y-106271100D01*
X72854800Y-106235500D01*
X73073300Y-106189800D01*
X73296800Y-106136400D01*
X73527900Y-106078000D01*
X73754000Y-106014500D01*
X73977500Y-105945900D01*
X74190900Y-105872300D01*
X74259400Y-105846900D01*
X74416900Y-105785900D01*
X74594700Y-105707200D01*
X74790300Y-105615700D01*
X75001100Y-105511600D01*
X75217000Y-105399800D01*
X75438000Y-105277900D01*
X75659000Y-105153500D01*
X75821500Y-105056900D01*
X76113600Y-104876600D01*
X76372700Y-104693700D01*
X76606400Y-104508300D01*
X76817200Y-104320300D01*
X76880700Y-104256800D01*
X76995000Y-104137500D01*
X77081400Y-104030800D01*
X77142300Y-103936800D01*
X77175400Y-103858100D01*
X77183000Y-103792000D01*
X77177900Y-103766600D01*
X77152500Y-103728500D01*
X77114400Y-103705700D01*
X77061100Y-103698000D01*
X76987400Y-103703100D01*
X76896000Y-103723400D01*
X76786700Y-103759000D01*
X76654700Y-103812300D01*
X76499700Y-103880900D01*
X76319400Y-103964700D01*
X76154300Y-104048600D01*
X75846900Y-104201000D01*
X75552300Y-104340700D01*
X75275400Y-104470200D01*
X75018900Y-104582000D01*
X74800500Y-104673400D01*
X74719200Y-104706400D01*
X74650600Y-104734400D01*
X74594700Y-104754700D01*
X74561700Y-104767400D01*
X74554100Y-104769900D01*
X74549000Y-104757200D01*
X74546500Y-104716600D01*
X74541400Y-104663200D01*
X74538800Y-104655600D01*
X74521100Y-104541300D01*
X74477900Y-104434600D01*
X74409300Y-104330500D01*
X74401700Y-104322900D01*
X74353400Y-104259400D01*
X74625200Y-104155200D01*
X75130700Y-103944400D01*
X75631000Y-103718400D01*
X76123800Y-103469400D01*
X76601300Y-103207800D01*
X77068700Y-102928400D01*
X77523300Y-102636300D01*
X77957700Y-102334100D01*
X78369200Y-102019100D01*
X78760300Y-101696500D01*
X79123500Y-101366300D01*
X79461400Y-101033600D01*
X79557900Y-100932000D01*
X79781400Y-100680500D01*
X79982100Y-100441800D01*
X80162400Y-100208100D01*
X80322400Y-99979500D01*
X80467200Y-99750900D01*
X80599300Y-99514700D01*
X80637400Y-99443500D01*
X80756800Y-99212400D01*
X80848200Y-99405400D01*
X81064100Y-99888000D01*
X81267300Y-100396000D01*
X81457800Y-100929400D01*
X81633100Y-101480600D01*
X81793100Y-102052100D01*
X81937900Y-102636300D01*
X82064900Y-103230700D01*
X82176600Y-103835200D01*
X82237600Y-104241600D01*
X82252800Y-104343200D01*
X82263000Y-104416900D01*
X82268100Y-104467700D01*
X82270600Y-104503200D01*
X82268100Y-104523500D01*
X82260400Y-104536200D01*
X82252800Y-104543900D01*
X82250300Y-104546400D01*
X82174100Y-104597200D01*
X82095300Y-104653100D01*
X82021700Y-104706400D01*
X81953100Y-104757200D01*
X81897200Y-104800400D01*
X81856600Y-104833400D01*
X81836300Y-104853700D01*
X81833700Y-104858800D01*
X81849000Y-104869000D01*
X81887100Y-104894400D01*
X81945500Y-104927400D01*
X82016600Y-104965500D01*
X82082600Y-105001100D01*
X82161400Y-105041700D01*
X82232500Y-105079800D01*
X82288400Y-105112800D01*
X82326500Y-105133100D01*
X82339200Y-105143300D01*
X82344300Y-105163600D01*
X82351900Y-105211900D01*
X82362000Y-105285500D01*
X82369700Y-105384600D01*
X82379800Y-105501400D01*
X82392500Y-105636100D01*
X82402700Y-105783400D01*
X82412800Y-105940900D01*
X82420500Y-106034800D01*
X82433200Y-106268500D01*
X82443300Y-106530100D01*
X82450900Y-106801900D01*
X82456000Y-107086400D01*
X82458600Y-107373400D01*
X82458600Y-107373400D01*
G36*
X74259400Y-113629400D02*
X74195900Y-113690400D01*
X74107000Y-113756400D01*
X73987700Y-113817400D01*
X73837800Y-113870700D01*
X73654900Y-113919000D01*
X73444100Y-113959600D01*
X73289200Y-113982500D01*
X73210400Y-113990100D01*
X73106300Y-113997700D01*
X72981800Y-114002800D01*
X72847200Y-114007900D01*
X72707500Y-114013000D01*
X72565300Y-114013000D01*
X72430600Y-114013000D01*
X72311300Y-114013000D01*
X72209700Y-114007900D01*
X72151200Y-114005400D01*
X71920100Y-113980000D01*
X71711800Y-113946900D01*
X71523900Y-113906300D01*
X71358800Y-113860600D01*
X71219100Y-113807200D01*
X71107300Y-113748800D01*
X71026000Y-113685300D01*
X71020900Y-113680200D01*
X70967600Y-113624400D01*
X70962500Y-112524500D01*
X70960000Y-111422200D01*
X71097100Y-111567000D01*
X71186000Y-111655900D01*
X71262200Y-111727000D01*
X71330800Y-111785400D01*
X71401900Y-111831100D01*
X71475600Y-111876800D01*
X71480700Y-111879400D01*
X71676300Y-111970800D01*
X71874400Y-112029200D01*
X72077600Y-112059700D01*
X72199500Y-112064800D01*
X72252800Y-112064800D01*
X72306200Y-112062300D01*
X72359500Y-112057200D01*
X72420500Y-112047000D01*
X72494100Y-112031800D01*
X72588100Y-112008900D01*
X72707500Y-111981000D01*
X72720200Y-111978400D01*
X73007200Y-111912400D01*
X73273900Y-111861600D01*
X73527900Y-111821000D01*
X73781900Y-111790500D01*
X74038500Y-111770200D01*
X74074000Y-111767600D01*
X74259400Y-111757500D01*
X74259400Y-112694700D01*
X74259400Y-113629400D01*
X74259400Y-113629400D01*
X74259400Y-113629400D01*
G37*
X74259400Y-113629400D02*
X74195900Y-113690400D01*
X74107000Y-113756400D01*
X73987700Y-113817400D01*
X73837800Y-113870700D01*
X73654900Y-113919000D01*
X73444100Y-113959600D01*
X73289200Y-113982500D01*
X73210400Y-113990100D01*
X73106300Y-113997700D01*
X72981800Y-114002800D01*
X72847200Y-114007900D01*
X72707500Y-114013000D01*
X72565300Y-114013000D01*
X72430600Y-114013000D01*
X72311300Y-114013000D01*
X72209700Y-114007900D01*
X72151200Y-114005400D01*
X71920100Y-113980000D01*
X71711800Y-113946900D01*
X71523900Y-113906300D01*
X71358800Y-113860600D01*
X71219100Y-113807200D01*
X71107300Y-113748800D01*
X71026000Y-113685300D01*
X71020900Y-113680200D01*
X70967600Y-113624400D01*
X70962500Y-112524500D01*
X70960000Y-111422200D01*
X71097100Y-111567000D01*
X71186000Y-111655900D01*
X71262200Y-111727000D01*
X71330800Y-111785400D01*
X71401900Y-111831100D01*
X71475600Y-111876800D01*
X71480700Y-111879400D01*
X71676300Y-111970800D01*
X71874400Y-112029200D01*
X72077600Y-112059700D01*
X72199500Y-112064800D01*
X72252800Y-112064800D01*
X72306200Y-112062300D01*
X72359500Y-112057200D01*
X72420500Y-112047000D01*
X72494100Y-112031800D01*
X72588100Y-112008900D01*
X72707500Y-111981000D01*
X72720200Y-111978400D01*
X73007200Y-111912400D01*
X73273900Y-111861600D01*
X73527900Y-111821000D01*
X73781900Y-111790500D01*
X74038500Y-111770200D01*
X74074000Y-111767600D01*
X74259400Y-111757500D01*
X74259400Y-112694700D01*
X74259400Y-113629400D01*
X74259400Y-113629400D01*
G36*
X79804300Y-109308900D02*
X79804300Y-109402900D01*
X79801700Y-109479100D01*
X79796600Y-109542600D01*
X79789000Y-109601000D01*
X79781400Y-109659400D01*
X79766200Y-109725500D01*
X79763600Y-109743200D01*
X79684900Y-110035300D01*
X79583300Y-110317300D01*
X79456300Y-110584000D01*
X79309000Y-110835400D01*
X79222600Y-110952300D01*
X79222600Y-109296200D01*
X79217500Y-109062500D01*
X79184500Y-108833900D01*
X79123500Y-108615500D01*
X79057500Y-108452900D01*
X78950800Y-108262400D01*
X78823800Y-108092200D01*
X78674000Y-107944900D01*
X78506300Y-107823000D01*
X78320900Y-107726500D01*
X78117700Y-107655400D01*
X78013600Y-107635000D01*
X77889100Y-107622300D01*
X77751900Y-107617300D01*
X77614800Y-107622300D01*
X77487800Y-107635000D01*
X77381100Y-107652800D01*
X77150000Y-107723900D01*
X76934100Y-107820500D01*
X76728300Y-107942400D01*
X76535300Y-108089700D01*
X76388000Y-108226900D01*
X76243200Y-108381800D01*
X76123800Y-108539300D01*
X76014600Y-108709500D01*
X75923100Y-108882200D01*
X75821500Y-109123500D01*
X75745300Y-109372400D01*
X75699600Y-109618800D01*
X75681800Y-109862600D01*
X75694500Y-110103900D01*
X75737700Y-110340100D01*
X75768200Y-110451900D01*
X75844400Y-110650000D01*
X75940900Y-110827800D01*
X76060300Y-110990400D01*
X76172100Y-111109800D01*
X76332100Y-111244400D01*
X76507300Y-111351100D01*
X76695300Y-111429800D01*
X76893400Y-111480600D01*
X77101700Y-111500900D01*
X77317600Y-111490800D01*
X77492900Y-111462800D01*
X77729100Y-111396800D01*
X77955100Y-111300300D01*
X78171000Y-111175800D01*
X78374200Y-111020900D01*
X78549500Y-110855800D01*
X78717100Y-110660200D01*
X78864500Y-110451900D01*
X78983800Y-110230900D01*
X79082900Y-110002300D01*
X79154000Y-109771200D01*
X79202300Y-109532400D01*
X79222600Y-109296200D01*
X79222600Y-110952300D01*
X79138800Y-111069100D01*
X78948300Y-111285000D01*
X78742500Y-111478100D01*
X78519000Y-111650800D01*
X78282800Y-111800600D01*
X78031300Y-111925100D01*
X77772300Y-112019100D01*
X77538600Y-112080000D01*
X77434400Y-112095300D01*
X77312500Y-112108000D01*
X77180400Y-112115600D01*
X77053400Y-112118100D01*
X76934100Y-112115600D01*
X76850200Y-112110500D01*
X76614000Y-112064800D01*
X76388000Y-111993700D01*
X76174600Y-111897200D01*
X75979000Y-111775200D01*
X75907900Y-111721900D01*
X75880000Y-111699000D01*
X75854600Y-111678700D01*
X75826600Y-111655900D01*
X75796100Y-111630500D01*
X75760600Y-111602500D01*
X75717400Y-111564400D01*
X75661500Y-111516200D01*
X75592900Y-111457700D01*
X75509100Y-111386600D01*
X75405000Y-111297700D01*
X75283100Y-111191000D01*
X75239900Y-111155500D01*
X75135700Y-111066600D01*
X75034100Y-110977700D01*
X74937600Y-110893900D01*
X74848700Y-110817700D01*
X74772500Y-110754200D01*
X74714100Y-110705900D01*
X74701400Y-110695700D01*
X74488000Y-110497600D01*
X74305200Y-110291900D01*
X74150200Y-110076000D01*
X74025800Y-109855000D01*
X73931800Y-109623900D01*
X73865700Y-109385100D01*
X73855600Y-109316500D01*
X73842900Y-109204800D01*
X73835300Y-109072700D01*
X73837800Y-108927900D01*
X73842900Y-108780600D01*
X73855600Y-108640900D01*
X73875900Y-108516400D01*
X73881000Y-108488500D01*
X73957200Y-108196400D01*
X74061300Y-107922100D01*
X74190900Y-107663000D01*
X74350900Y-107419100D01*
X74536300Y-107190500D01*
X74693800Y-107030500D01*
X74909700Y-106845100D01*
X75140800Y-106687600D01*
X75384700Y-106560600D01*
X75643700Y-106459000D01*
X75877400Y-106395500D01*
X75943500Y-106385400D01*
X76029800Y-106377700D01*
X76134000Y-106372700D01*
X76245700Y-106372700D01*
X76360000Y-106372700D01*
X76469200Y-106377700D01*
X76568300Y-106382800D01*
X76647000Y-106393000D01*
X76687700Y-106400600D01*
X76730900Y-106415800D01*
X76794400Y-106436200D01*
X76868000Y-106464100D01*
X76949300Y-106494600D01*
X77035700Y-106527600D01*
X77119500Y-106560600D01*
X77198200Y-106593600D01*
X77264300Y-106621600D01*
X77312500Y-106641900D01*
X77340500Y-106657100D01*
X77345500Y-106659700D01*
X77327800Y-106667300D01*
X77287100Y-106677500D01*
X77238900Y-106687600D01*
X76982300Y-106761300D01*
X76728300Y-106862900D01*
X76479400Y-106992400D01*
X76238100Y-107147400D01*
X76164400Y-107203200D01*
X76062800Y-107284500D01*
X75951100Y-107386100D01*
X75836800Y-107500400D01*
X75725000Y-107619800D01*
X75623400Y-107734100D01*
X75542100Y-107835700D01*
X75372000Y-108089700D01*
X75229700Y-108346200D01*
X75115400Y-108615500D01*
X75024000Y-108900000D01*
X74975700Y-109108200D01*
X74960500Y-109184400D01*
X74947800Y-109250500D01*
X74940200Y-109316500D01*
X74935100Y-109390200D01*
X74932500Y-109476500D01*
X74932500Y-109583200D01*
X74932500Y-109616200D01*
X74932500Y-109735600D01*
X74935100Y-109832100D01*
X74937600Y-109908300D01*
X74945200Y-109976900D01*
X74955400Y-110040400D01*
X74963000Y-110073400D01*
X74993500Y-110223300D01*
X75003700Y-109938800D01*
X75016400Y-109722900D01*
X75041800Y-109524800D01*
X75079900Y-109336800D01*
X75135700Y-109141300D01*
X75158600Y-109070100D01*
X75270400Y-108793300D01*
X75407500Y-108526600D01*
X75565000Y-108277700D01*
X75747900Y-108044000D01*
X75948500Y-107828100D01*
X76167000Y-107635000D01*
X76395600Y-107464900D01*
X76644500Y-107317500D01*
X76901000Y-107195600D01*
X77170300Y-107101600D01*
X77348100Y-107055900D01*
X77467500Y-107035600D01*
X77607200Y-107022900D01*
X77754500Y-107015300D01*
X77901800Y-107012700D01*
X78036400Y-107017800D01*
X78153300Y-107030500D01*
X78158300Y-107033100D01*
X78394600Y-107086400D01*
X78620600Y-107170200D01*
X78828900Y-107279400D01*
X79024500Y-107414100D01*
X79202300Y-107571500D01*
X79359800Y-107751900D01*
X79496900Y-107955100D01*
X79613800Y-108176100D01*
X79695000Y-108384300D01*
X79730600Y-108498600D01*
X79758500Y-108605300D01*
X79778900Y-108706900D01*
X79791600Y-108816100D01*
X79801700Y-108935500D01*
X79804300Y-109075200D01*
X79804300Y-109189500D01*
X79804300Y-109308900D01*
X79804300Y-109308900D01*
X79804300Y-109308900D01*
G37*
X79804300Y-109308900D02*
X79804300Y-109402900D01*
X79801700Y-109479100D01*
X79796600Y-109542600D01*
X79789000Y-109601000D01*
X79781400Y-109659400D01*
X79766200Y-109725500D01*
X79763600Y-109743200D01*
X79684900Y-110035300D01*
X79583300Y-110317300D01*
X79456300Y-110584000D01*
X79309000Y-110835400D01*
X79222600Y-110952300D01*
X79222600Y-109296200D01*
X79217500Y-109062500D01*
X79184500Y-108833900D01*
X79123500Y-108615500D01*
X79057500Y-108452900D01*
X78950800Y-108262400D01*
X78823800Y-108092200D01*
X78674000Y-107944900D01*
X78506300Y-107823000D01*
X78320900Y-107726500D01*
X78117700Y-107655400D01*
X78013600Y-107635000D01*
X77889100Y-107622300D01*
X77751900Y-107617300D01*
X77614800Y-107622300D01*
X77487800Y-107635000D01*
X77381100Y-107652800D01*
X77150000Y-107723900D01*
X76934100Y-107820500D01*
X76728300Y-107942400D01*
X76535300Y-108089700D01*
X76388000Y-108226900D01*
X76243200Y-108381800D01*
X76123800Y-108539300D01*
X76014600Y-108709500D01*
X75923100Y-108882200D01*
X75821500Y-109123500D01*
X75745300Y-109372400D01*
X75699600Y-109618800D01*
X75681800Y-109862600D01*
X75694500Y-110103900D01*
X75737700Y-110340100D01*
X75768200Y-110451900D01*
X75844400Y-110650000D01*
X75940900Y-110827800D01*
X76060300Y-110990400D01*
X76172100Y-111109800D01*
X76332100Y-111244400D01*
X76507300Y-111351100D01*
X76695300Y-111429800D01*
X76893400Y-111480600D01*
X77101700Y-111500900D01*
X77317600Y-111490800D01*
X77492900Y-111462800D01*
X77729100Y-111396800D01*
X77955100Y-111300300D01*
X78171000Y-111175800D01*
X78374200Y-111020900D01*
X78549500Y-110855800D01*
X78717100Y-110660200D01*
X78864500Y-110451900D01*
X78983800Y-110230900D01*
X79082900Y-110002300D01*
X79154000Y-109771200D01*
X79202300Y-109532400D01*
X79222600Y-109296200D01*
X79222600Y-110952300D01*
X79138800Y-111069100D01*
X78948300Y-111285000D01*
X78742500Y-111478100D01*
X78519000Y-111650800D01*
X78282800Y-111800600D01*
X78031300Y-111925100D01*
X77772300Y-112019100D01*
X77538600Y-112080000D01*
X77434400Y-112095300D01*
X77312500Y-112108000D01*
X77180400Y-112115600D01*
X77053400Y-112118100D01*
X76934100Y-112115600D01*
X76850200Y-112110500D01*
X76614000Y-112064800D01*
X76388000Y-111993700D01*
X76174600Y-111897200D01*
X75979000Y-111775200D01*
X75907900Y-111721900D01*
X75880000Y-111699000D01*
X75854600Y-111678700D01*
X75826600Y-111655900D01*
X75796100Y-111630500D01*
X75760600Y-111602500D01*
X75717400Y-111564400D01*
X75661500Y-111516200D01*
X75592900Y-111457700D01*
X75509100Y-111386600D01*
X75405000Y-111297700D01*
X75283100Y-111191000D01*
X75239900Y-111155500D01*
X75135700Y-111066600D01*
X75034100Y-110977700D01*
X74937600Y-110893900D01*
X74848700Y-110817700D01*
X74772500Y-110754200D01*
X74714100Y-110705900D01*
X74701400Y-110695700D01*
X74488000Y-110497600D01*
X74305200Y-110291900D01*
X74150200Y-110076000D01*
X74025800Y-109855000D01*
X73931800Y-109623900D01*
X73865700Y-109385100D01*
X73855600Y-109316500D01*
X73842900Y-109204800D01*
X73835300Y-109072700D01*
X73837800Y-108927900D01*
X73842900Y-108780600D01*
X73855600Y-108640900D01*
X73875900Y-108516400D01*
X73881000Y-108488500D01*
X73957200Y-108196400D01*
X74061300Y-107922100D01*
X74190900Y-107663000D01*
X74350900Y-107419100D01*
X74536300Y-107190500D01*
X74693800Y-107030500D01*
X74909700Y-106845100D01*
X75140800Y-106687600D01*
X75384700Y-106560600D01*
X75643700Y-106459000D01*
X75877400Y-106395500D01*
X75943500Y-106385400D01*
X76029800Y-106377700D01*
X76134000Y-106372700D01*
X76245700Y-106372700D01*
X76360000Y-106372700D01*
X76469200Y-106377700D01*
X76568300Y-106382800D01*
X76647000Y-106393000D01*
X76687700Y-106400600D01*
X76730900Y-106415800D01*
X76794400Y-106436200D01*
X76868000Y-106464100D01*
X76949300Y-106494600D01*
X77035700Y-106527600D01*
X77119500Y-106560600D01*
X77198200Y-106593600D01*
X77264300Y-106621600D01*
X77312500Y-106641900D01*
X77340500Y-106657100D01*
X77345500Y-106659700D01*
X77327800Y-106667300D01*
X77287100Y-106677500D01*
X77238900Y-106687600D01*
X76982300Y-106761300D01*
X76728300Y-106862900D01*
X76479400Y-106992400D01*
X76238100Y-107147400D01*
X76164400Y-107203200D01*
X76062800Y-107284500D01*
X75951100Y-107386100D01*
X75836800Y-107500400D01*
X75725000Y-107619800D01*
X75623400Y-107734100D01*
X75542100Y-107835700D01*
X75372000Y-108089700D01*
X75229700Y-108346200D01*
X75115400Y-108615500D01*
X75024000Y-108900000D01*
X74975700Y-109108200D01*
X74960500Y-109184400D01*
X74947800Y-109250500D01*
X74940200Y-109316500D01*
X74935100Y-109390200D01*
X74932500Y-109476500D01*
X74932500Y-109583200D01*
X74932500Y-109616200D01*
X74932500Y-109735600D01*
X74935100Y-109832100D01*
X74937600Y-109908300D01*
X74945200Y-109976900D01*
X74955400Y-110040400D01*
X74963000Y-110073400D01*
X74993500Y-110223300D01*
X75003700Y-109938800D01*
X75016400Y-109722900D01*
X75041800Y-109524800D01*
X75079900Y-109336800D01*
X75135700Y-109141300D01*
X75158600Y-109070100D01*
X75270400Y-108793300D01*
X75407500Y-108526600D01*
X75565000Y-108277700D01*
X75747900Y-108044000D01*
X75948500Y-107828100D01*
X76167000Y-107635000D01*
X76395600Y-107464900D01*
X76644500Y-107317500D01*
X76901000Y-107195600D01*
X77170300Y-107101600D01*
X77348100Y-107055900D01*
X77467500Y-107035600D01*
X77607200Y-107022900D01*
X77754500Y-107015300D01*
X77901800Y-107012700D01*
X78036400Y-107017800D01*
X78153300Y-107030500D01*
X78158300Y-107033100D01*
X78394600Y-107086400D01*
X78620600Y-107170200D01*
X78828900Y-107279400D01*
X79024500Y-107414100D01*
X79202300Y-107571500D01*
X79359800Y-107751900D01*
X79496900Y-107955100D01*
X79613800Y-108176100D01*
X79695000Y-108384300D01*
X79730600Y-108498600D01*
X79758500Y-108605300D01*
X79778900Y-108706900D01*
X79791600Y-108816100D01*
X79801700Y-108935500D01*
X79804300Y-109075200D01*
X79804300Y-109189500D01*
X79804300Y-109308900D01*
X79804300Y-109308900D01*
G36*
X74259400Y-105222000D02*
X74259400Y-105321100D01*
X74254400Y-105392200D01*
X74249300Y-105437900D01*
X74241700Y-105460800D01*
X74239100Y-105460800D01*
X74211200Y-105476000D01*
X74160400Y-105498900D01*
X74091800Y-105524300D01*
X74013100Y-105552200D01*
X73931800Y-105580200D01*
X73853000Y-105605600D01*
X73784500Y-105623400D01*
X73619400Y-105661500D01*
X73454300Y-105691900D01*
X73284100Y-105709700D01*
X73101200Y-105722400D01*
X72971700Y-105725000D01*
X72865000Y-105727500D01*
X72755800Y-105727500D01*
X72656700Y-105725000D01*
X72570300Y-105719900D01*
X72514500Y-105717300D01*
X72245200Y-105676700D01*
X71981100Y-105615700D01*
X71732100Y-105534500D01*
X71501000Y-105437900D01*
X71290200Y-105323600D01*
X71109800Y-105201700D01*
X70957400Y-105084900D01*
X70962500Y-104825800D01*
X70967600Y-104566700D01*
X71023500Y-104510800D01*
X71102200Y-104447300D01*
X71208900Y-104388900D01*
X71341000Y-104335600D01*
X71498500Y-104289900D01*
X71676300Y-104251800D01*
X71871800Y-104218700D01*
X72082700Y-104195900D01*
X72306200Y-104180600D01*
X72539900Y-104173000D01*
X72776100Y-104175600D01*
X73050400Y-104188300D01*
X73304400Y-104211100D01*
X73533000Y-104246700D01*
X73733700Y-104289900D01*
X73908900Y-104340700D01*
X74056200Y-104404200D01*
X74132400Y-104444800D01*
X74173100Y-104475300D01*
X74190900Y-104503200D01*
X74195900Y-104536200D01*
X74180700Y-104604800D01*
X74135000Y-104670900D01*
X74058800Y-104734400D01*
X73957200Y-104795300D01*
X73827600Y-104851200D01*
X73675200Y-104902000D01*
X73672700Y-104902000D01*
X73472000Y-104950300D01*
X73248500Y-104980700D01*
X73007200Y-104998500D01*
X72740500Y-104998500D01*
X72453500Y-104980700D01*
X72138500Y-104950300D01*
X71800700Y-104902000D01*
X71732100Y-104891800D01*
X71671200Y-104881700D01*
X71622900Y-104874100D01*
X71597500Y-104874100D01*
X71592400Y-104874100D01*
X71602600Y-104881700D01*
X71638200Y-104896900D01*
X71696600Y-104914700D01*
X71770200Y-104935000D01*
X71856600Y-104960400D01*
X71950600Y-104985800D01*
X72049600Y-105008700D01*
X72146200Y-105031500D01*
X72240100Y-105051900D01*
X72321400Y-105069600D01*
X72357000Y-105074700D01*
X72473800Y-105095000D01*
X72578000Y-105110300D01*
X72671900Y-105123000D01*
X72768500Y-105130600D01*
X72870100Y-105135700D01*
X72986900Y-105138200D01*
X73119000Y-105140800D01*
X73248500Y-105140800D01*
X73411100Y-105140800D01*
X73548200Y-105138200D01*
X73665100Y-105133100D01*
X73764100Y-105125500D01*
X73850500Y-105112800D01*
X73934300Y-105097600D01*
X74015600Y-105077300D01*
X74099400Y-105049300D01*
X74127400Y-105041700D01*
X74259400Y-104998500D01*
X74259400Y-105222000D01*
X74259400Y-105222000D01*
X74259400Y-105222000D01*
G37*
X74259400Y-105222000D02*
X74259400Y-105321100D01*
X74254400Y-105392200D01*
X74249300Y-105437900D01*
X74241700Y-105460800D01*
X74239100Y-105460800D01*
X74211200Y-105476000D01*
X74160400Y-105498900D01*
X74091800Y-105524300D01*
X74013100Y-105552200D01*
X73931800Y-105580200D01*
X73853000Y-105605600D01*
X73784500Y-105623400D01*
X73619400Y-105661500D01*
X73454300Y-105691900D01*
X73284100Y-105709700D01*
X73101200Y-105722400D01*
X72971700Y-105725000D01*
X72865000Y-105727500D01*
X72755800Y-105727500D01*
X72656700Y-105725000D01*
X72570300Y-105719900D01*
X72514500Y-105717300D01*
X72245200Y-105676700D01*
X71981100Y-105615700D01*
X71732100Y-105534500D01*
X71501000Y-105437900D01*
X71290200Y-105323600D01*
X71109800Y-105201700D01*
X70957400Y-105084900D01*
X70962500Y-104825800D01*
X70967600Y-104566700D01*
X71023500Y-104510800D01*
X71102200Y-104447300D01*
X71208900Y-104388900D01*
X71341000Y-104335600D01*
X71498500Y-104289900D01*
X71676300Y-104251800D01*
X71871800Y-104218700D01*
X72082700Y-104195900D01*
X72306200Y-104180600D01*
X72539900Y-104173000D01*
X72776100Y-104175600D01*
X73050400Y-104188300D01*
X73304400Y-104211100D01*
X73533000Y-104246700D01*
X73733700Y-104289900D01*
X73908900Y-104340700D01*
X74056200Y-104404200D01*
X74132400Y-104444800D01*
X74173100Y-104475300D01*
X74190900Y-104503200D01*
X74195900Y-104536200D01*
X74180700Y-104604800D01*
X74135000Y-104670900D01*
X74058800Y-104734400D01*
X73957200Y-104795300D01*
X73827600Y-104851200D01*
X73675200Y-104902000D01*
X73672700Y-104902000D01*
X73472000Y-104950300D01*
X73248500Y-104980700D01*
X73007200Y-104998500D01*
X72740500Y-104998500D01*
X72453500Y-104980700D01*
X72138500Y-104950300D01*
X71800700Y-104902000D01*
X71732100Y-104891800D01*
X71671200Y-104881700D01*
X71622900Y-104874100D01*
X71597500Y-104874100D01*
X71592400Y-104874100D01*
X71602600Y-104881700D01*
X71638200Y-104896900D01*
X71696600Y-104914700D01*
X71770200Y-104935000D01*
X71856600Y-104960400D01*
X71950600Y-104985800D01*
X72049600Y-105008700D01*
X72146200Y-105031500D01*
X72240100Y-105051900D01*
X72321400Y-105069600D01*
X72357000Y-105074700D01*
X72473800Y-105095000D01*
X72578000Y-105110300D01*
X72671900Y-105123000D01*
X72768500Y-105130600D01*
X72870100Y-105135700D01*
X72986900Y-105138200D01*
X73119000Y-105140800D01*
X73248500Y-105140800D01*
X73411100Y-105140800D01*
X73548200Y-105138200D01*
X73665100Y-105133100D01*
X73764100Y-105125500D01*
X73850500Y-105112800D01*
X73934300Y-105097600D01*
X74015600Y-105077300D01*
X74099400Y-105049300D01*
X74127400Y-105041700D01*
X74259400Y-104998500D01*
X74259400Y-105222000D01*
X74259400Y-105222000D01*
G36*
X78846700Y-109136200D02*
X78844100Y-109357200D01*
X78813700Y-109580700D01*
X78757800Y-109796600D01*
X78676500Y-110007400D01*
X78572400Y-110205500D01*
X78445400Y-110393500D01*
X78303100Y-110563700D01*
X78140600Y-110718600D01*
X77965300Y-110848100D01*
X77777300Y-110957400D01*
X77576700Y-111036100D01*
X77525900Y-111053900D01*
X77459800Y-111066600D01*
X77373500Y-111079300D01*
X77279500Y-111089400D01*
X77183000Y-111094500D01*
X77096600Y-111097100D01*
X77028000Y-111092000D01*
X77005200Y-111089400D01*
X76962000Y-111079300D01*
X76944200Y-111069100D01*
X76956900Y-111059000D01*
X76997600Y-111046300D01*
X77043300Y-111033600D01*
X77236300Y-110972600D01*
X77424300Y-110881200D01*
X77607200Y-110764300D01*
X77777300Y-110622100D01*
X77934800Y-110459500D01*
X78079600Y-110281700D01*
X78201500Y-110086100D01*
X78305700Y-109877900D01*
X78376800Y-109689900D01*
X78430100Y-109486700D01*
X78460600Y-109278400D01*
X78470800Y-109075200D01*
X78458100Y-108879600D01*
X78425000Y-108706900D01*
X78381900Y-108577400D01*
X78326000Y-108447800D01*
X78259900Y-108325900D01*
X78188800Y-108219200D01*
X78115200Y-108132900D01*
X78069400Y-108092200D01*
X78036400Y-108064300D01*
X78018600Y-108046500D01*
X78018600Y-108044000D01*
X78036400Y-108044000D01*
X78079600Y-108054100D01*
X78132900Y-108071900D01*
X78193900Y-108097300D01*
X78252300Y-108122700D01*
X78262500Y-108127800D01*
X78407300Y-108219200D01*
X78534300Y-108333500D01*
X78640900Y-108470700D01*
X78727300Y-108628200D01*
X78790800Y-108803400D01*
X78831400Y-108996500D01*
X78846700Y-109136200D01*
X78846700Y-109136200D01*
X78846700Y-109136200D01*
G37*
X78846700Y-109136200D02*
X78844100Y-109357200D01*
X78813700Y-109580700D01*
X78757800Y-109796600D01*
X78676500Y-110007400D01*
X78572400Y-110205500D01*
X78445400Y-110393500D01*
X78303100Y-110563700D01*
X78140600Y-110718600D01*
X77965300Y-110848100D01*
X77777300Y-110957400D01*
X77576700Y-111036100D01*
X77525900Y-111053900D01*
X77459800Y-111066600D01*
X77373500Y-111079300D01*
X77279500Y-111089400D01*
X77183000Y-111094500D01*
X77096600Y-111097100D01*
X77028000Y-111092000D01*
X77005200Y-111089400D01*
X76962000Y-111079300D01*
X76944200Y-111069100D01*
X76956900Y-111059000D01*
X76997600Y-111046300D01*
X77043300Y-111033600D01*
X77236300Y-110972600D01*
X77424300Y-110881200D01*
X77607200Y-110764300D01*
X77777300Y-110622100D01*
X77934800Y-110459500D01*
X78079600Y-110281700D01*
X78201500Y-110086100D01*
X78305700Y-109877900D01*
X78376800Y-109689900D01*
X78430100Y-109486700D01*
X78460600Y-109278400D01*
X78470800Y-109075200D01*
X78458100Y-108879600D01*
X78425000Y-108706900D01*
X78381900Y-108577400D01*
X78326000Y-108447800D01*
X78259900Y-108325900D01*
X78188800Y-108219200D01*
X78115200Y-108132900D01*
X78069400Y-108092200D01*
X78036400Y-108064300D01*
X78018600Y-108046500D01*
X78018600Y-108044000D01*
X78036400Y-108044000D01*
X78079600Y-108054100D01*
X78132900Y-108071900D01*
X78193900Y-108097300D01*
X78252300Y-108122700D01*
X78262500Y-108127800D01*
X78407300Y-108219200D01*
X78534300Y-108333500D01*
X78640900Y-108470700D01*
X78727300Y-108628200D01*
X78790800Y-108803400D01*
X78831400Y-108996500D01*
X78846700Y-109136200D01*
X78846700Y-109136200D01*
D14*
X25400000Y-167182800D02*
X27787600Y-167182800D01*
X31648400Y-167182800D02*
X39903400Y-167182800D01*
X39319200Y-173177200D02*
X39903400Y-173177200D01*
X29718000Y-173177200D02*
X34899600Y-173177200D01*
X25400000Y-173177200D02*
X25882600Y-173177200D01*
X25400000Y-172796200D02*
X22910800Y-172796200D01*
X22910800Y-172796200D02*
X22910800Y-167563800D01*
X22910800Y-167563800D02*
X25400000Y-167563800D01*
X39903400Y-167182800D02*
X39903400Y-173177200D01*
X25400000Y-173177200D02*
X25400000Y-167182800D01*
X25400000Y-149402800D02*
X27787600Y-149402800D01*
X31648400Y-149402800D02*
X39903400Y-149402800D01*
X39319200Y-155397200D02*
X39903400Y-155397200D01*
X29718000Y-155397200D02*
X34899600Y-155397200D01*
X25400000Y-155397200D02*
X25882600Y-155397200D01*
X25400000Y-155016200D02*
X22910800Y-155016200D01*
X22910800Y-155016200D02*
X22910800Y-149783800D01*
X22910800Y-149783800D02*
X25400000Y-149783800D01*
X39903400Y-149402800D02*
X39903400Y-155397200D01*
X25400000Y-155397200D02*
X25400000Y-149402800D01*
X25400000Y-131622800D02*
X27787600Y-131622800D01*
X31648400Y-131622800D02*
X39903400Y-131622800D01*
X39319200Y-137617200D02*
X39903400Y-137617200D01*
X29718000Y-137617200D02*
X34899600Y-137617200D01*
X25400000Y-137617200D02*
X25882600Y-137617200D01*
X25400000Y-137236200D02*
X22910800Y-137236200D01*
X22910800Y-137236200D02*
X22910800Y-132003800D01*
X22910800Y-132003800D02*
X25400000Y-132003800D01*
X39903400Y-131622800D02*
X39903400Y-137617200D01*
X25400000Y-137617200D02*
X25400000Y-131622800D01*
X25400000Y-113842800D02*
X27787600Y-113842800D01*
X31648400Y-113842800D02*
X39903400Y-113842800D01*
X39319200Y-119837200D02*
X39903400Y-119837200D01*
X29718000Y-119837200D02*
X34899600Y-119837200D01*
X25400000Y-119837200D02*
X25882600Y-119837200D01*
X25400000Y-119456200D02*
X22910800Y-119456200D01*
X22910800Y-119456200D02*
X22910800Y-114223800D01*
X22910800Y-114223800D02*
X25400000Y-114223800D01*
X39903400Y-113842800D02*
X39903400Y-119837200D01*
X25400000Y-119837200D02*
X25400000Y-113842800D01*
X25400000Y-96062800D02*
X27787600Y-96062800D01*
X31648400Y-96062800D02*
X39903400Y-96062800D01*
X39319200Y-102057200D02*
X39903400Y-102057200D01*
X29718000Y-102057200D02*
X34899600Y-102057200D01*
X25400000Y-102057200D02*
X25882600Y-102057200D01*
X25400000Y-101676200D02*
X22910800Y-101676200D01*
X22910800Y-101676200D02*
X22910800Y-96443800D01*
X22910800Y-96443800D02*
X25400000Y-96443800D01*
X39903400Y-96062800D02*
X39903400Y-102057200D01*
X25400000Y-102057200D02*
X25400000Y-96062800D01*
X25400000Y-78282800D02*
X27787600Y-78282800D01*
X31648400Y-78282800D02*
X39903400Y-78282800D01*
X39319200Y-84277200D02*
X39903400Y-84277200D01*
X29718000Y-84277200D02*
X34899600Y-84277200D01*
X25400000Y-84277200D02*
X25882600Y-84277200D01*
X25400000Y-83896200D02*
X22910800Y-83896200D01*
X22910800Y-83896200D02*
X22910800Y-78663800D01*
X22910800Y-78663800D02*
X25400000Y-78663800D01*
X39903400Y-78282800D02*
X39903400Y-84277200D01*
X25400000Y-84277200D02*
X25400000Y-78282800D01*
X25400000Y-60502800D02*
X27787600Y-60502800D01*
X31648400Y-60502800D02*
X39903400Y-60502800D01*
X39319200Y-66497200D02*
X39903400Y-66497200D01*
X29718000Y-66497200D02*
X34899600Y-66497200D01*
X25400000Y-66497200D02*
X25882600Y-66497200D01*
X25400000Y-66116200D02*
X22910800Y-66116200D01*
X22910800Y-66116200D02*
X22910800Y-60883800D01*
X22910800Y-60883800D02*
X25400000Y-60883800D01*
X39903400Y-60502800D02*
X39903400Y-66497200D01*
X25400000Y-66497200D02*
X25400000Y-60502800D01*
X25400000Y-42722800D02*
X27787600Y-42722800D01*
X31648400Y-42722800D02*
X39903400Y-42722800D01*
X39319200Y-48717200D02*
X39903400Y-48717200D01*
X29718000Y-48717200D02*
X34899600Y-48717200D01*
X25400000Y-48717200D02*
X25882600Y-48717200D01*
X25400000Y-48336200D02*
X22910800Y-48336200D01*
X22910800Y-48336200D02*
X22910800Y-43103800D01*
X22910800Y-43103800D02*
X25400000Y-43103800D01*
X39903400Y-42722800D02*
X39903400Y-48717200D01*
X25400000Y-48717200D02*
X25400000Y-42722800D01*
D16*
X104960000Y-46989538D02*
G75*
G03X110510000Y-48534830I2990000J-462D01*
G01*
X104960000Y-46990462D02*
G75*
G02X110510000Y-45445170I2990000J462D01*
G01*
X110450000Y-46990000D02*
G75*
G03X110450000Y-46990000I-2500000J0D01*
G01*
X110510000Y-48535000D02*
X110510000Y-45445000D01*
X104960000Y-95249538D02*
G75*
G03X110510000Y-96794830I2990000J-462D01*
G01*
X104960000Y-95250462D02*
G75*
G02X110510000Y-93705170I2990000J462D01*
G01*
X110450000Y-95250000D02*
G75*
G03X110450000Y-95250000I-2500000J0D01*
G01*
X110510000Y-96795000D02*
X110510000Y-93705000D01*
X76199538Y-46170000D02*
G75*
G03X77744830Y-40620000I462J2990000D01*
G01*
X76200462Y-46170000D02*
G75*
G02X74655170Y-40620000I-462J2990000D01*
G01*
X78700000Y-43180000D02*
G75*
G03X78700000Y-43180000I-2500000J0D01*
G01*
X77745000Y-40620000D02*
X74655000Y-40620000D01*
X104960000Y-71119538D02*
G75*
G03X110510000Y-72664830I2990000J-462D01*
G01*
X104960000Y-71120462D02*
G75*
G02X110510000Y-69575170I2990000J462D01*
G01*
X110450000Y-71120000D02*
G75*
G03X110450000Y-71120000I-2500000J0D01*
G01*
X110510000Y-72665000D02*
X110510000Y-69575000D01*
X104960000Y-119379538D02*
G75*
G03X110510000Y-120924830I2990000J-462D01*
G01*
X104960000Y-119380462D02*
G75*
G02X110510000Y-117835170I2990000J462D01*
G01*
X110450000Y-119380000D02*
G75*
G03X110450000Y-119380000I-2500000J0D01*
G01*
X110510000Y-120925000D02*
X110510000Y-117835000D01*
X99940000Y-52820000D02*
X103260000Y-52820000D01*
X103260000Y-52820000D02*
X103260000Y-43700000D01*
X103260000Y-43700000D02*
X99940000Y-43700000D01*
X99940000Y-43700000D02*
X99940000Y-52820000D01*
X101600000Y-53630000D02*
X101600000Y-52820000D01*
X101600000Y-42890000D02*
X101600000Y-43700000D01*
X98670000Y-101080000D02*
X101990000Y-101080000D01*
X101990000Y-101080000D02*
X101990000Y-91960000D01*
X101990000Y-91960000D02*
X98670000Y-91960000D01*
X98670000Y-91960000D02*
X98670000Y-101080000D01*
X100330000Y-101890000D02*
X100330000Y-101080000D01*
X100330000Y-91150000D02*
X100330000Y-91960000D01*
X98670000Y-76950000D02*
X101990000Y-76950000D01*
X101990000Y-76950000D02*
X101990000Y-67830000D01*
X101990000Y-67830000D02*
X98670000Y-67830000D01*
X98670000Y-67830000D02*
X98670000Y-76950000D01*
X100330000Y-77760000D02*
X100330000Y-76950000D01*
X100330000Y-67020000D02*
X100330000Y-67830000D01*
X98670000Y-125210000D02*
X101990000Y-125210000D01*
X101990000Y-125210000D02*
X101990000Y-116090000D01*
X101990000Y-116090000D02*
X98670000Y-116090000D01*
X98670000Y-116090000D02*
X98670000Y-125210000D01*
X100330000Y-126020000D02*
X100330000Y-125210000D01*
X100330000Y-115280000D02*
X100330000Y-116090000D01*
X80760000Y-51190000D02*
X80760000Y-47870000D01*
X80760000Y-47870000D02*
X71640000Y-47870000D01*
X71640000Y-47870000D02*
X71640000Y-51190000D01*
X71640000Y-51190000D02*
X80760000Y-51190000D01*
X81570000Y-49530000D02*
X80760000Y-49530000D01*
X70830000Y-49530000D02*
X71640000Y-49530000D01*
D10*
X114533334Y-108341905D02*
X114533334Y-108913333D01*
X114495238Y-109027619D01*
X114419048Y-109103810D01*
X114304762Y-109141905D01*
X114228572Y-109141905D01*
X115028572Y-108684762D02*
X114952381Y-108646667D01*
X114914286Y-108608571D01*
X114876191Y-108532381D01*
X114876191Y-108494286D01*
X114914286Y-108418095D01*
X114952381Y-108380000D01*
X115028572Y-108341905D01*
X115180953Y-108341905D01*
X115257143Y-108380000D01*
X115295239Y-108418095D01*
X115333334Y-108494286D01*
X115333334Y-108532381D01*
X115295239Y-108608571D01*
X115257143Y-108646667D01*
X115180953Y-108684762D01*
X115028572Y-108684762D01*
X114952381Y-108722857D01*
X114914286Y-108760952D01*
X114876191Y-108837143D01*
X114876191Y-108989524D01*
X114914286Y-109065714D01*
X114952381Y-109103810D01*
X115028572Y-109141905D01*
X115180953Y-109141905D01*
X115257143Y-109103810D01*
X115295239Y-109065714D01*
X115333334Y-108989524D01*
X115333334Y-108837143D01*
X115295239Y-108760952D01*
X115257143Y-108722857D01*
X115180953Y-108684762D01*
X114623334Y-84221905D02*
X114623334Y-84793333D01*
X114585238Y-84907619D01*
X114509048Y-84983810D01*
X114394762Y-85021905D01*
X114318572Y-85021905D01*
X115347143Y-84488571D02*
X115347143Y-85021905D01*
X115156667Y-84183810D02*
X114966191Y-84755238D01*
X115461429Y-84755238D01*
X114733334Y-60191905D02*
X114733334Y-60763333D01*
X114695238Y-60877619D01*
X114619048Y-60953810D01*
X114504762Y-60991905D01*
X114428572Y-60991905D01*
X115495239Y-60191905D02*
X115114286Y-60191905D01*
X115076191Y-60572857D01*
X115114286Y-60534762D01*
X115190477Y-60496667D01*
X115380953Y-60496667D01*
X115457143Y-60534762D01*
X115495239Y-60572857D01*
X115533334Y-60649048D01*
X115533334Y-60839524D01*
X115495239Y-60915714D01*
X115457143Y-60953810D01*
X115380953Y-60991905D01*
X115190477Y-60991905D01*
X115114286Y-60953810D01*
X115076191Y-60915714D01*
X115293334Y-36251905D02*
X115293334Y-36823333D01*
X115255238Y-36937619D01*
X115179048Y-37013810D01*
X115064762Y-37051905D01*
X114988572Y-37051905D01*
X115598096Y-36251905D02*
X116093334Y-36251905D01*
X115826667Y-36556667D01*
X115940953Y-36556667D01*
X116017143Y-36594762D01*
X116055239Y-36632857D01*
X116093334Y-36709048D01*
X116093334Y-36899524D01*
X116055239Y-36975714D01*
X116017143Y-37013810D01*
X115940953Y-37051905D01*
X115712381Y-37051905D01*
X115636191Y-37013810D01*
X115598096Y-36975714D01*
X43548334Y-34867905D02*
X43548334Y-35439333D01*
X43510238Y-35553619D01*
X43434048Y-35629810D01*
X43319762Y-35667905D01*
X43243572Y-35667905D01*
X44272143Y-34867905D02*
X44119762Y-34867905D01*
X44043572Y-34906000D01*
X44005477Y-34944095D01*
X43929286Y-35058381D01*
X43891191Y-35210762D01*
X43891191Y-35515524D01*
X43929286Y-35591714D01*
X43967381Y-35629810D01*
X44043572Y-35667905D01*
X44195953Y-35667905D01*
X44272143Y-35629810D01*
X44310239Y-35591714D01*
X44348334Y-35515524D01*
X44348334Y-35325048D01*
X44310239Y-35248857D01*
X44272143Y-35210762D01*
X44195953Y-35172667D01*
X44043572Y-35172667D01*
X43967381Y-35210762D01*
X43929286Y-35248857D01*
X43891191Y-35325048D01*
X75209524Y-30105333D02*
X75590476Y-30105333D01*
X75133333Y-30333905D02*
X75400000Y-29533905D01*
X75666667Y-30333905D01*
X75933333Y-29533905D02*
X75933333Y-30181524D01*
X75971428Y-30257714D01*
X76009524Y-30295810D01*
X76085714Y-30333905D01*
X76238095Y-30333905D01*
X76314286Y-30295810D01*
X76352381Y-30257714D01*
X76390476Y-30181524D01*
X76390476Y-29533905D01*
X76695238Y-29533905D02*
X77228571Y-30333905D01*
X77228571Y-29533905D02*
X76695238Y-30333905D01*
D14*
X32340667Y-166655714D02*
X32302572Y-166693810D01*
X32188286Y-166731905D01*
X32112096Y-166731905D01*
X31997810Y-166693810D01*
X31921619Y-166617619D01*
X31883524Y-166541429D01*
X31845429Y-166389048D01*
X31845429Y-166274762D01*
X31883524Y-166122381D01*
X31921619Y-166046190D01*
X31997810Y-165970000D01*
X32112096Y-165931905D01*
X32188286Y-165931905D01*
X32302572Y-165970000D01*
X32340667Y-166008095D01*
X32645429Y-166503333D02*
X33026381Y-166503333D01*
X32569238Y-166731905D02*
X32835905Y-165931905D01*
X33102572Y-166731905D01*
X33369238Y-166731905D02*
X33369238Y-165931905D01*
X33635905Y-166503333D01*
X33902572Y-165931905D01*
X33902572Y-166731905D01*
X34207334Y-165931905D02*
X34740667Y-165931905D01*
X34397810Y-166731905D01*
X29985048Y-172243714D02*
X29946953Y-172281810D01*
X29832667Y-172319905D01*
X29756477Y-172319905D01*
X29642191Y-172281810D01*
X29566000Y-172205619D01*
X29527905Y-172129429D01*
X29489810Y-171977048D01*
X29489810Y-171862762D01*
X29527905Y-171710381D01*
X29566000Y-171634190D01*
X29642191Y-171558000D01*
X29756477Y-171519905D01*
X29832667Y-171519905D01*
X29946953Y-171558000D01*
X29985048Y-171596095D01*
X30289810Y-172091333D02*
X30670762Y-172091333D01*
X30213619Y-172319905D02*
X30480286Y-171519905D01*
X30746953Y-172319905D01*
X31013619Y-172319905D02*
X31013619Y-171519905D01*
X31280286Y-172091333D01*
X31546953Y-171519905D01*
X31546953Y-172319905D01*
X32499334Y-171481810D02*
X31813619Y-172510381D01*
X33032667Y-171900857D02*
X32766000Y-171900857D01*
X32766000Y-172319905D02*
X32766000Y-171519905D01*
X33146953Y-171519905D01*
X33832667Y-172319905D02*
X33451714Y-172319905D01*
X33451714Y-171519905D01*
X34061238Y-172091333D02*
X34442190Y-172091333D01*
X33985047Y-172319905D02*
X34251714Y-171519905D01*
X34518381Y-172319905D01*
X34746952Y-172281810D02*
X34861238Y-172319905D01*
X35051714Y-172319905D01*
X35127904Y-172281810D01*
X35166000Y-172243714D01*
X35204095Y-172167524D01*
X35204095Y-172091333D01*
X35166000Y-172015143D01*
X35127904Y-171977048D01*
X35051714Y-171938952D01*
X34899333Y-171900857D01*
X34823142Y-171862762D01*
X34785047Y-171824667D01*
X34746952Y-171748476D01*
X34746952Y-171672286D01*
X34785047Y-171596095D01*
X34823142Y-171558000D01*
X34899333Y-171519905D01*
X35089809Y-171519905D01*
X35204095Y-171558000D01*
X35546952Y-172319905D02*
X35546952Y-171519905D01*
X35546952Y-171900857D02*
X36004095Y-171900857D01*
X36004095Y-172319905D02*
X36004095Y-171519905D01*
X32340667Y-148875714D02*
X32302572Y-148913810D01*
X32188286Y-148951905D01*
X32112096Y-148951905D01*
X31997810Y-148913810D01*
X31921619Y-148837619D01*
X31883524Y-148761429D01*
X31845429Y-148609048D01*
X31845429Y-148494762D01*
X31883524Y-148342381D01*
X31921619Y-148266190D01*
X31997810Y-148190000D01*
X32112096Y-148151905D01*
X32188286Y-148151905D01*
X32302572Y-148190000D01*
X32340667Y-148228095D01*
X32645429Y-148723333D02*
X33026381Y-148723333D01*
X32569238Y-148951905D02*
X32835905Y-148151905D01*
X33102572Y-148951905D01*
X33369238Y-148951905D02*
X33369238Y-148151905D01*
X33635905Y-148723333D01*
X33902572Y-148151905D01*
X33902572Y-148951905D01*
X34626381Y-148151905D02*
X34474000Y-148151905D01*
X34397810Y-148190000D01*
X34359715Y-148228095D01*
X34283524Y-148342381D01*
X34245429Y-148494762D01*
X34245429Y-148799524D01*
X34283524Y-148875714D01*
X34321619Y-148913810D01*
X34397810Y-148951905D01*
X34550191Y-148951905D01*
X34626381Y-148913810D01*
X34664477Y-148875714D01*
X34702572Y-148799524D01*
X34702572Y-148609048D01*
X34664477Y-148532857D01*
X34626381Y-148494762D01*
X34550191Y-148456667D01*
X34397810Y-148456667D01*
X34321619Y-148494762D01*
X34283524Y-148532857D01*
X34245429Y-148609048D01*
X29985048Y-154463714D02*
X29946953Y-154501810D01*
X29832667Y-154539905D01*
X29756477Y-154539905D01*
X29642191Y-154501810D01*
X29566000Y-154425619D01*
X29527905Y-154349429D01*
X29489810Y-154197048D01*
X29489810Y-154082762D01*
X29527905Y-153930381D01*
X29566000Y-153854190D01*
X29642191Y-153778000D01*
X29756477Y-153739905D01*
X29832667Y-153739905D01*
X29946953Y-153778000D01*
X29985048Y-153816095D01*
X30289810Y-154311333D02*
X30670762Y-154311333D01*
X30213619Y-154539905D02*
X30480286Y-153739905D01*
X30746953Y-154539905D01*
X31013619Y-154539905D02*
X31013619Y-153739905D01*
X31280286Y-154311333D01*
X31546953Y-153739905D01*
X31546953Y-154539905D01*
X32499334Y-153701810D02*
X31813619Y-154730381D01*
X33032667Y-154120857D02*
X32766000Y-154120857D01*
X32766000Y-154539905D02*
X32766000Y-153739905D01*
X33146953Y-153739905D01*
X33832667Y-154539905D02*
X33451714Y-154539905D01*
X33451714Y-153739905D01*
X34061238Y-154311333D02*
X34442190Y-154311333D01*
X33985047Y-154539905D02*
X34251714Y-153739905D01*
X34518381Y-154539905D01*
X34746952Y-154501810D02*
X34861238Y-154539905D01*
X35051714Y-154539905D01*
X35127904Y-154501810D01*
X35166000Y-154463714D01*
X35204095Y-154387524D01*
X35204095Y-154311333D01*
X35166000Y-154235143D01*
X35127904Y-154197048D01*
X35051714Y-154158952D01*
X34899333Y-154120857D01*
X34823142Y-154082762D01*
X34785047Y-154044667D01*
X34746952Y-153968476D01*
X34746952Y-153892286D01*
X34785047Y-153816095D01*
X34823142Y-153778000D01*
X34899333Y-153739905D01*
X35089809Y-153739905D01*
X35204095Y-153778000D01*
X35546952Y-154539905D02*
X35546952Y-153739905D01*
X35546952Y-154120857D02*
X36004095Y-154120857D01*
X36004095Y-154539905D02*
X36004095Y-153739905D01*
X33191667Y-130810714D02*
X33153572Y-130848810D01*
X33039286Y-130886905D01*
X32963096Y-130886905D01*
X32848810Y-130848810D01*
X32772619Y-130772619D01*
X32734524Y-130696429D01*
X32696429Y-130544048D01*
X32696429Y-130429762D01*
X32734524Y-130277381D01*
X32772619Y-130201190D01*
X32848810Y-130125000D01*
X32963096Y-130086905D01*
X33039286Y-130086905D01*
X33153572Y-130125000D01*
X33191667Y-130163095D01*
X33496429Y-130658333D02*
X33877381Y-130658333D01*
X33420238Y-130886905D02*
X33686905Y-130086905D01*
X33953572Y-130886905D01*
X34220238Y-130886905D02*
X34220238Y-130086905D01*
X34486905Y-130658333D01*
X34753572Y-130086905D01*
X34753572Y-130886905D01*
X35515477Y-130086905D02*
X35134524Y-130086905D01*
X35096429Y-130467857D01*
X35134524Y-130429762D01*
X35210715Y-130391667D01*
X35401191Y-130391667D01*
X35477381Y-130429762D01*
X35515477Y-130467857D01*
X35553572Y-130544048D01*
X35553572Y-130734524D01*
X35515477Y-130810714D01*
X35477381Y-130848810D01*
X35401191Y-130886905D01*
X35210715Y-130886905D01*
X35134524Y-130848810D01*
X35096429Y-130810714D01*
X29985048Y-136683714D02*
X29946953Y-136721810D01*
X29832667Y-136759905D01*
X29756477Y-136759905D01*
X29642191Y-136721810D01*
X29566000Y-136645619D01*
X29527905Y-136569429D01*
X29489810Y-136417048D01*
X29489810Y-136302762D01*
X29527905Y-136150381D01*
X29566000Y-136074190D01*
X29642191Y-135998000D01*
X29756477Y-135959905D01*
X29832667Y-135959905D01*
X29946953Y-135998000D01*
X29985048Y-136036095D01*
X30289810Y-136531333D02*
X30670762Y-136531333D01*
X30213619Y-136759905D02*
X30480286Y-135959905D01*
X30746953Y-136759905D01*
X31013619Y-136759905D02*
X31013619Y-135959905D01*
X31280286Y-136531333D01*
X31546953Y-135959905D01*
X31546953Y-136759905D01*
X32499334Y-135921810D02*
X31813619Y-136950381D01*
X33032667Y-136340857D02*
X32766000Y-136340857D01*
X32766000Y-136759905D02*
X32766000Y-135959905D01*
X33146953Y-135959905D01*
X33832667Y-136759905D02*
X33451714Y-136759905D01*
X33451714Y-135959905D01*
X34061238Y-136531333D02*
X34442190Y-136531333D01*
X33985047Y-136759905D02*
X34251714Y-135959905D01*
X34518381Y-136759905D01*
X34746952Y-136721810D02*
X34861238Y-136759905D01*
X35051714Y-136759905D01*
X35127904Y-136721810D01*
X35166000Y-136683714D01*
X35204095Y-136607524D01*
X35204095Y-136531333D01*
X35166000Y-136455143D01*
X35127904Y-136417048D01*
X35051714Y-136378952D01*
X34899333Y-136340857D01*
X34823142Y-136302762D01*
X34785047Y-136264667D01*
X34746952Y-136188476D01*
X34746952Y-136112286D01*
X34785047Y-136036095D01*
X34823142Y-135998000D01*
X34899333Y-135959905D01*
X35089809Y-135959905D01*
X35204095Y-135998000D01*
X35546952Y-136759905D02*
X35546952Y-135959905D01*
X35546952Y-136340857D02*
X36004095Y-136340857D01*
X36004095Y-136759905D02*
X36004095Y-135959905D01*
X32340667Y-113315714D02*
X32302572Y-113353810D01*
X32188286Y-113391905D01*
X32112096Y-113391905D01*
X31997810Y-113353810D01*
X31921619Y-113277619D01*
X31883524Y-113201429D01*
X31845429Y-113049048D01*
X31845429Y-112934762D01*
X31883524Y-112782381D01*
X31921619Y-112706190D01*
X31997810Y-112630000D01*
X32112096Y-112591905D01*
X32188286Y-112591905D01*
X32302572Y-112630000D01*
X32340667Y-112668095D01*
X32645429Y-113163333D02*
X33026381Y-113163333D01*
X32569238Y-113391905D02*
X32835905Y-112591905D01*
X33102572Y-113391905D01*
X33369238Y-113391905D02*
X33369238Y-112591905D01*
X33635905Y-113163333D01*
X33902572Y-112591905D01*
X33902572Y-113391905D01*
X34626381Y-112858571D02*
X34626381Y-113391905D01*
X34435905Y-112553810D02*
X34245429Y-113125238D01*
X34740667Y-113125238D01*
X29985048Y-118903714D02*
X29946953Y-118941810D01*
X29832667Y-118979905D01*
X29756477Y-118979905D01*
X29642191Y-118941810D01*
X29566000Y-118865619D01*
X29527905Y-118789429D01*
X29489810Y-118637048D01*
X29489810Y-118522762D01*
X29527905Y-118370381D01*
X29566000Y-118294190D01*
X29642191Y-118218000D01*
X29756477Y-118179905D01*
X29832667Y-118179905D01*
X29946953Y-118218000D01*
X29985048Y-118256095D01*
X30289810Y-118751333D02*
X30670762Y-118751333D01*
X30213619Y-118979905D02*
X30480286Y-118179905D01*
X30746953Y-118979905D01*
X31013619Y-118979905D02*
X31013619Y-118179905D01*
X31280286Y-118751333D01*
X31546953Y-118179905D01*
X31546953Y-118979905D01*
X32499334Y-118141810D02*
X31813619Y-119170381D01*
X33032667Y-118560857D02*
X32766000Y-118560857D01*
X32766000Y-118979905D02*
X32766000Y-118179905D01*
X33146953Y-118179905D01*
X33832667Y-118979905D02*
X33451714Y-118979905D01*
X33451714Y-118179905D01*
X34061238Y-118751333D02*
X34442190Y-118751333D01*
X33985047Y-118979905D02*
X34251714Y-118179905D01*
X34518381Y-118979905D01*
X34746952Y-118941810D02*
X34861238Y-118979905D01*
X35051714Y-118979905D01*
X35127904Y-118941810D01*
X35166000Y-118903714D01*
X35204095Y-118827524D01*
X35204095Y-118751333D01*
X35166000Y-118675143D01*
X35127904Y-118637048D01*
X35051714Y-118598952D01*
X34899333Y-118560857D01*
X34823142Y-118522762D01*
X34785047Y-118484667D01*
X34746952Y-118408476D01*
X34746952Y-118332286D01*
X34785047Y-118256095D01*
X34823142Y-118218000D01*
X34899333Y-118179905D01*
X35089809Y-118179905D01*
X35204095Y-118218000D01*
X35546952Y-118979905D02*
X35546952Y-118179905D01*
X35546952Y-118560857D02*
X36004095Y-118560857D01*
X36004095Y-118979905D02*
X36004095Y-118179905D01*
X32340667Y-95535714D02*
X32302572Y-95573810D01*
X32188286Y-95611905D01*
X32112096Y-95611905D01*
X31997810Y-95573810D01*
X31921619Y-95497619D01*
X31883524Y-95421429D01*
X31845429Y-95269048D01*
X31845429Y-95154762D01*
X31883524Y-95002381D01*
X31921619Y-94926190D01*
X31997810Y-94850000D01*
X32112096Y-94811905D01*
X32188286Y-94811905D01*
X32302572Y-94850000D01*
X32340667Y-94888095D01*
X32645429Y-95383333D02*
X33026381Y-95383333D01*
X32569238Y-95611905D02*
X32835905Y-94811905D01*
X33102572Y-95611905D01*
X33369238Y-95611905D02*
X33369238Y-94811905D01*
X33635905Y-95383333D01*
X33902572Y-94811905D01*
X33902572Y-95611905D01*
X34207334Y-94811905D02*
X34702572Y-94811905D01*
X34435905Y-95116667D01*
X34550191Y-95116667D01*
X34626381Y-95154762D01*
X34664477Y-95192857D01*
X34702572Y-95269048D01*
X34702572Y-95459524D01*
X34664477Y-95535714D01*
X34626381Y-95573810D01*
X34550191Y-95611905D01*
X34321619Y-95611905D01*
X34245429Y-95573810D01*
X34207334Y-95535714D01*
X29985048Y-101123714D02*
X29946953Y-101161810D01*
X29832667Y-101199905D01*
X29756477Y-101199905D01*
X29642191Y-101161810D01*
X29566000Y-101085619D01*
X29527905Y-101009429D01*
X29489810Y-100857048D01*
X29489810Y-100742762D01*
X29527905Y-100590381D01*
X29566000Y-100514190D01*
X29642191Y-100438000D01*
X29756477Y-100399905D01*
X29832667Y-100399905D01*
X29946953Y-100438000D01*
X29985048Y-100476095D01*
X30289810Y-100971333D02*
X30670762Y-100971333D01*
X30213619Y-101199905D02*
X30480286Y-100399905D01*
X30746953Y-101199905D01*
X31013619Y-101199905D02*
X31013619Y-100399905D01*
X31280286Y-100971333D01*
X31546953Y-100399905D01*
X31546953Y-101199905D01*
X32499334Y-100361810D02*
X31813619Y-101390381D01*
X33032667Y-100780857D02*
X32766000Y-100780857D01*
X32766000Y-101199905D02*
X32766000Y-100399905D01*
X33146953Y-100399905D01*
X33832667Y-101199905D02*
X33451714Y-101199905D01*
X33451714Y-100399905D01*
X34061238Y-100971333D02*
X34442190Y-100971333D01*
X33985047Y-101199905D02*
X34251714Y-100399905D01*
X34518381Y-101199905D01*
X34746952Y-101161810D02*
X34861238Y-101199905D01*
X35051714Y-101199905D01*
X35127904Y-101161810D01*
X35166000Y-101123714D01*
X35204095Y-101047524D01*
X35204095Y-100971333D01*
X35166000Y-100895143D01*
X35127904Y-100857048D01*
X35051714Y-100818952D01*
X34899333Y-100780857D01*
X34823142Y-100742762D01*
X34785047Y-100704667D01*
X34746952Y-100628476D01*
X34746952Y-100552286D01*
X34785047Y-100476095D01*
X34823142Y-100438000D01*
X34899333Y-100399905D01*
X35089809Y-100399905D01*
X35204095Y-100438000D01*
X35546952Y-101199905D02*
X35546952Y-100399905D01*
X35546952Y-100780857D02*
X36004095Y-100780857D01*
X36004095Y-101199905D02*
X36004095Y-100399905D01*
X32340667Y-77755714D02*
X32302572Y-77793810D01*
X32188286Y-77831905D01*
X32112096Y-77831905D01*
X31997810Y-77793810D01*
X31921619Y-77717619D01*
X31883524Y-77641429D01*
X31845429Y-77489048D01*
X31845429Y-77374762D01*
X31883524Y-77222381D01*
X31921619Y-77146190D01*
X31997810Y-77070000D01*
X32112096Y-77031905D01*
X32188286Y-77031905D01*
X32302572Y-77070000D01*
X32340667Y-77108095D01*
X32645429Y-77603333D02*
X33026381Y-77603333D01*
X32569238Y-77831905D02*
X32835905Y-77031905D01*
X33102572Y-77831905D01*
X33369238Y-77831905D02*
X33369238Y-77031905D01*
X33635905Y-77603333D01*
X33902572Y-77031905D01*
X33902572Y-77831905D01*
X34245429Y-77108095D02*
X34283524Y-77070000D01*
X34359715Y-77031905D01*
X34550191Y-77031905D01*
X34626381Y-77070000D01*
X34664477Y-77108095D01*
X34702572Y-77184286D01*
X34702572Y-77260476D01*
X34664477Y-77374762D01*
X34207334Y-77831905D01*
X34702572Y-77831905D01*
X29985048Y-83343714D02*
X29946953Y-83381810D01*
X29832667Y-83419905D01*
X29756477Y-83419905D01*
X29642191Y-83381810D01*
X29566000Y-83305619D01*
X29527905Y-83229429D01*
X29489810Y-83077048D01*
X29489810Y-82962762D01*
X29527905Y-82810381D01*
X29566000Y-82734190D01*
X29642191Y-82658000D01*
X29756477Y-82619905D01*
X29832667Y-82619905D01*
X29946953Y-82658000D01*
X29985048Y-82696095D01*
X30289810Y-83191333D02*
X30670762Y-83191333D01*
X30213619Y-83419905D02*
X30480286Y-82619905D01*
X30746953Y-83419905D01*
X31013619Y-83419905D02*
X31013619Y-82619905D01*
X31280286Y-83191333D01*
X31546953Y-82619905D01*
X31546953Y-83419905D01*
X32499334Y-82581810D02*
X31813619Y-83610381D01*
X33032667Y-83000857D02*
X32766000Y-83000857D01*
X32766000Y-83419905D02*
X32766000Y-82619905D01*
X33146953Y-82619905D01*
X33832667Y-83419905D02*
X33451714Y-83419905D01*
X33451714Y-82619905D01*
X34061238Y-83191333D02*
X34442190Y-83191333D01*
X33985047Y-83419905D02*
X34251714Y-82619905D01*
X34518381Y-83419905D01*
X34746952Y-83381810D02*
X34861238Y-83419905D01*
X35051714Y-83419905D01*
X35127904Y-83381810D01*
X35166000Y-83343714D01*
X35204095Y-83267524D01*
X35204095Y-83191333D01*
X35166000Y-83115143D01*
X35127904Y-83077048D01*
X35051714Y-83038952D01*
X34899333Y-83000857D01*
X34823142Y-82962762D01*
X34785047Y-82924667D01*
X34746952Y-82848476D01*
X34746952Y-82772286D01*
X34785047Y-82696095D01*
X34823142Y-82658000D01*
X34899333Y-82619905D01*
X35089809Y-82619905D01*
X35204095Y-82658000D01*
X35546952Y-83419905D02*
X35546952Y-82619905D01*
X35546952Y-83000857D02*
X36004095Y-83000857D01*
X36004095Y-83419905D02*
X36004095Y-82619905D01*
X32340667Y-59975714D02*
X32302572Y-60013810D01*
X32188286Y-60051905D01*
X32112096Y-60051905D01*
X31997810Y-60013810D01*
X31921619Y-59937619D01*
X31883524Y-59861429D01*
X31845429Y-59709048D01*
X31845429Y-59594762D01*
X31883524Y-59442381D01*
X31921619Y-59366190D01*
X31997810Y-59290000D01*
X32112096Y-59251905D01*
X32188286Y-59251905D01*
X32302572Y-59290000D01*
X32340667Y-59328095D01*
X32645429Y-59823333D02*
X33026381Y-59823333D01*
X32569238Y-60051905D02*
X32835905Y-59251905D01*
X33102572Y-60051905D01*
X33369238Y-60051905D02*
X33369238Y-59251905D01*
X33635905Y-59823333D01*
X33902572Y-59251905D01*
X33902572Y-60051905D01*
X34702572Y-60051905D02*
X34245429Y-60051905D01*
X34474000Y-60051905D02*
X34474000Y-59251905D01*
X34397810Y-59366190D01*
X34321619Y-59442381D01*
X34245429Y-59480476D01*
X29985048Y-65563714D02*
X29946953Y-65601810D01*
X29832667Y-65639905D01*
X29756477Y-65639905D01*
X29642191Y-65601810D01*
X29566000Y-65525619D01*
X29527905Y-65449429D01*
X29489810Y-65297048D01*
X29489810Y-65182762D01*
X29527905Y-65030381D01*
X29566000Y-64954190D01*
X29642191Y-64878000D01*
X29756477Y-64839905D01*
X29832667Y-64839905D01*
X29946953Y-64878000D01*
X29985048Y-64916095D01*
X30289810Y-65411333D02*
X30670762Y-65411333D01*
X30213619Y-65639905D02*
X30480286Y-64839905D01*
X30746953Y-65639905D01*
X31013619Y-65639905D02*
X31013619Y-64839905D01*
X31280286Y-65411333D01*
X31546953Y-64839905D01*
X31546953Y-65639905D01*
X32499334Y-64801810D02*
X31813619Y-65830381D01*
X33032667Y-65220857D02*
X32766000Y-65220857D01*
X32766000Y-65639905D02*
X32766000Y-64839905D01*
X33146953Y-64839905D01*
X33832667Y-65639905D02*
X33451714Y-65639905D01*
X33451714Y-64839905D01*
X34061238Y-65411333D02*
X34442190Y-65411333D01*
X33985047Y-65639905D02*
X34251714Y-64839905D01*
X34518381Y-65639905D01*
X34746952Y-65601810D02*
X34861238Y-65639905D01*
X35051714Y-65639905D01*
X35127904Y-65601810D01*
X35166000Y-65563714D01*
X35204095Y-65487524D01*
X35204095Y-65411333D01*
X35166000Y-65335143D01*
X35127904Y-65297048D01*
X35051714Y-65258952D01*
X34899333Y-65220857D01*
X34823142Y-65182762D01*
X34785047Y-65144667D01*
X34746952Y-65068476D01*
X34746952Y-64992286D01*
X34785047Y-64916095D01*
X34823142Y-64878000D01*
X34899333Y-64839905D01*
X35089809Y-64839905D01*
X35204095Y-64878000D01*
X35546952Y-65639905D02*
X35546952Y-64839905D01*
X35546952Y-65220857D02*
X36004095Y-65220857D01*
X36004095Y-65639905D02*
X36004095Y-64839905D01*
X32340667Y-42195714D02*
X32302572Y-42233810D01*
X32188286Y-42271905D01*
X32112096Y-42271905D01*
X31997810Y-42233810D01*
X31921619Y-42157619D01*
X31883524Y-42081429D01*
X31845429Y-41929048D01*
X31845429Y-41814762D01*
X31883524Y-41662381D01*
X31921619Y-41586190D01*
X31997810Y-41510000D01*
X32112096Y-41471905D01*
X32188286Y-41471905D01*
X32302572Y-41510000D01*
X32340667Y-41548095D01*
X32645429Y-42043333D02*
X33026381Y-42043333D01*
X32569238Y-42271905D02*
X32835905Y-41471905D01*
X33102572Y-42271905D01*
X33369238Y-42271905D02*
X33369238Y-41471905D01*
X33635905Y-42043333D01*
X33902572Y-41471905D01*
X33902572Y-42271905D01*
X34435905Y-41471905D02*
X34512096Y-41471905D01*
X34588286Y-41510000D01*
X34626381Y-41548095D01*
X34664477Y-41624286D01*
X34702572Y-41776667D01*
X34702572Y-41967143D01*
X34664477Y-42119524D01*
X34626381Y-42195714D01*
X34588286Y-42233810D01*
X34512096Y-42271905D01*
X34435905Y-42271905D01*
X34359715Y-42233810D01*
X34321619Y-42195714D01*
X34283524Y-42119524D01*
X34245429Y-41967143D01*
X34245429Y-41776667D01*
X34283524Y-41624286D01*
X34321619Y-41548095D01*
X34359715Y-41510000D01*
X34435905Y-41471905D01*
X29985048Y-47783714D02*
X29946953Y-47821810D01*
X29832667Y-47859905D01*
X29756477Y-47859905D01*
X29642191Y-47821810D01*
X29566000Y-47745619D01*
X29527905Y-47669429D01*
X29489810Y-47517048D01*
X29489810Y-47402762D01*
X29527905Y-47250381D01*
X29566000Y-47174190D01*
X29642191Y-47098000D01*
X29756477Y-47059905D01*
X29832667Y-47059905D01*
X29946953Y-47098000D01*
X29985048Y-47136095D01*
X30289810Y-47631333D02*
X30670762Y-47631333D01*
X30213619Y-47859905D02*
X30480286Y-47059905D01*
X30746953Y-47859905D01*
X31013619Y-47859905D02*
X31013619Y-47059905D01*
X31280286Y-47631333D01*
X31546953Y-47059905D01*
X31546953Y-47859905D01*
X32499334Y-47021810D02*
X31813619Y-48050381D01*
X33032667Y-47440857D02*
X32766000Y-47440857D01*
X32766000Y-47859905D02*
X32766000Y-47059905D01*
X33146953Y-47059905D01*
X33832667Y-47859905D02*
X33451714Y-47859905D01*
X33451714Y-47059905D01*
X34061238Y-47631333D02*
X34442190Y-47631333D01*
X33985047Y-47859905D02*
X34251714Y-47059905D01*
X34518381Y-47859905D01*
X34746952Y-47821810D02*
X34861238Y-47859905D01*
X35051714Y-47859905D01*
X35127904Y-47821810D01*
X35166000Y-47783714D01*
X35204095Y-47707524D01*
X35204095Y-47631333D01*
X35166000Y-47555143D01*
X35127904Y-47517048D01*
X35051714Y-47478952D01*
X34899333Y-47440857D01*
X34823142Y-47402762D01*
X34785047Y-47364667D01*
X34746952Y-47288476D01*
X34746952Y-47212286D01*
X34785047Y-47136095D01*
X34823142Y-47098000D01*
X34899333Y-47059905D01*
X35089809Y-47059905D01*
X35204095Y-47098000D01*
X35546952Y-47859905D02*
X35546952Y-47059905D01*
X35546952Y-47440857D02*
X36004095Y-47440857D01*
X36004095Y-47859905D02*
X36004095Y-47059905D01*
D10*
X107211905Y-51402381D02*
X107211905Y-50402381D01*
X107450000Y-50402381D01*
X107592858Y-50450000D01*
X107688096Y-50545238D01*
X107735715Y-50640476D01*
X107783334Y-50830952D01*
X107783334Y-50973810D01*
X107735715Y-51164286D01*
X107688096Y-51259524D01*
X107592858Y-51354762D01*
X107450000Y-51402381D01*
X107211905Y-51402381D01*
X108735715Y-51402381D02*
X108164286Y-51402381D01*
X108450000Y-51402381D02*
X108450000Y-50402381D01*
X108354762Y-50545238D01*
X108259524Y-50640476D01*
X108164286Y-50688095D01*
X107211905Y-99662381D02*
X107211905Y-98662381D01*
X107450000Y-98662381D01*
X107592858Y-98710000D01*
X107688096Y-98805238D01*
X107735715Y-98900476D01*
X107783334Y-99090952D01*
X107783334Y-99233810D01*
X107735715Y-99424286D01*
X107688096Y-99519524D01*
X107592858Y-99614762D01*
X107450000Y-99662381D01*
X107211905Y-99662381D01*
X108164286Y-98757619D02*
X108211905Y-98710000D01*
X108307143Y-98662381D01*
X108545239Y-98662381D01*
X108640477Y-98710000D01*
X108688096Y-98757619D01*
X108735715Y-98852857D01*
X108735715Y-98948095D01*
X108688096Y-99090952D01*
X108116667Y-99662381D01*
X108735715Y-99662381D01*
X80612381Y-43918095D02*
X79612381Y-43918095D01*
X79612381Y-43680000D01*
X79660000Y-43537142D01*
X79755238Y-43441904D01*
X79850476Y-43394285D01*
X80040952Y-43346666D01*
X80183810Y-43346666D01*
X80374286Y-43394285D01*
X80469524Y-43441904D01*
X80564762Y-43537142D01*
X80612381Y-43680000D01*
X80612381Y-43918095D01*
X79612381Y-43013333D02*
X79612381Y-42394285D01*
X79993333Y-42727619D01*
X79993333Y-42584761D01*
X80040952Y-42489523D01*
X80088571Y-42441904D01*
X80183810Y-42394285D01*
X80421905Y-42394285D01*
X80517143Y-42441904D01*
X80564762Y-42489523D01*
X80612381Y-42584761D01*
X80612381Y-42870476D01*
X80564762Y-42965714D01*
X80517143Y-43013333D01*
X107211905Y-75532381D02*
X107211905Y-74532381D01*
X107450000Y-74532381D01*
X107592858Y-74580000D01*
X107688096Y-74675238D01*
X107735715Y-74770476D01*
X107783334Y-74960952D01*
X107783334Y-75103810D01*
X107735715Y-75294286D01*
X107688096Y-75389524D01*
X107592858Y-75484762D01*
X107450000Y-75532381D01*
X107211905Y-75532381D01*
X108640477Y-74865714D02*
X108640477Y-75532381D01*
X108402381Y-74484762D02*
X108164286Y-75199048D01*
X108783334Y-75199048D01*
X107211905Y-123792381D02*
X107211905Y-122792381D01*
X107450000Y-122792381D01*
X107592858Y-122840000D01*
X107688096Y-122935238D01*
X107735715Y-123030476D01*
X107783334Y-123220952D01*
X107783334Y-123363810D01*
X107735715Y-123554286D01*
X107688096Y-123649524D01*
X107592858Y-123744762D01*
X107450000Y-123792381D01*
X107211905Y-123792381D01*
X108688096Y-122792381D02*
X108211905Y-122792381D01*
X108164286Y-123268571D01*
X108211905Y-123220952D01*
X108307143Y-123173333D01*
X108545239Y-123173333D01*
X108640477Y-123220952D01*
X108688096Y-123268571D01*
X108735715Y-123363810D01*
X108735715Y-123601905D01*
X108688096Y-123697143D01*
X108640477Y-123744762D01*
X108545239Y-123792381D01*
X108307143Y-123792381D01*
X108211905Y-123744762D01*
X108164286Y-123697143D01*
X99392381Y-48426666D02*
X98916190Y-48760000D01*
X99392381Y-48998095D02*
X98392381Y-48998095D01*
X98392381Y-48617142D01*
X98440000Y-48521904D01*
X98487619Y-48474285D01*
X98582857Y-48426666D01*
X98725714Y-48426666D01*
X98820952Y-48474285D01*
X98868571Y-48521904D01*
X98916190Y-48617142D01*
X98916190Y-48998095D01*
X99392381Y-47474285D02*
X99392381Y-48045714D01*
X99392381Y-47760000D02*
X98392381Y-47760000D01*
X98535238Y-47855238D01*
X98630476Y-47950476D01*
X98678095Y-48045714D01*
X98122381Y-96686666D02*
X97646190Y-97020000D01*
X98122381Y-97258095D02*
X97122381Y-97258095D01*
X97122381Y-96877142D01*
X97170000Y-96781904D01*
X97217619Y-96734285D01*
X97312857Y-96686666D01*
X97455714Y-96686666D01*
X97550952Y-96734285D01*
X97598571Y-96781904D01*
X97646190Y-96877142D01*
X97646190Y-97258095D01*
X97217619Y-96305714D02*
X97170000Y-96258095D01*
X97122381Y-96162857D01*
X97122381Y-95924761D01*
X97170000Y-95829523D01*
X97217619Y-95781904D01*
X97312857Y-95734285D01*
X97408095Y-95734285D01*
X97550952Y-95781904D01*
X98122381Y-96353333D01*
X98122381Y-95734285D01*
X98122381Y-72556666D02*
X97646190Y-72890000D01*
X98122381Y-73128095D02*
X97122381Y-73128095D01*
X97122381Y-72747142D01*
X97170000Y-72651904D01*
X97217619Y-72604285D01*
X97312857Y-72556666D01*
X97455714Y-72556666D01*
X97550952Y-72604285D01*
X97598571Y-72651904D01*
X97646190Y-72747142D01*
X97646190Y-73128095D01*
X97122381Y-72223333D02*
X97122381Y-71604285D01*
X97503333Y-71937619D01*
X97503333Y-71794761D01*
X97550952Y-71699523D01*
X97598571Y-71651904D01*
X97693810Y-71604285D01*
X97931905Y-71604285D01*
X98027143Y-71651904D01*
X98074762Y-71699523D01*
X98122381Y-71794761D01*
X98122381Y-72080476D01*
X98074762Y-72175714D01*
X98027143Y-72223333D01*
X98122381Y-120816666D02*
X97646190Y-121150000D01*
X98122381Y-121388095D02*
X97122381Y-121388095D01*
X97122381Y-121007142D01*
X97170000Y-120911904D01*
X97217619Y-120864285D01*
X97312857Y-120816666D01*
X97455714Y-120816666D01*
X97550952Y-120864285D01*
X97598571Y-120911904D01*
X97646190Y-121007142D01*
X97646190Y-121388095D01*
X97455714Y-119959523D02*
X98122381Y-119959523D01*
X97074762Y-120197619D02*
X97789048Y-120435714D01*
X97789048Y-119816666D01*
X76033334Y-52642381D02*
X75700000Y-52166190D01*
X75461905Y-52642381D02*
X75461905Y-51642381D01*
X75842858Y-51642381D01*
X75938096Y-51690000D01*
X75985715Y-51737619D01*
X76033334Y-51832857D01*
X76033334Y-51975714D01*
X75985715Y-52070952D01*
X75938096Y-52118571D01*
X75842858Y-52166190D01*
X75461905Y-52166190D01*
X76938096Y-51642381D02*
X76461905Y-51642381D01*
X76414286Y-52118571D01*
X76461905Y-52070952D01*
X76557143Y-52023333D01*
X76795239Y-52023333D01*
X76890477Y-52070952D01*
X76938096Y-52118571D01*
X76985715Y-52213810D01*
X76985715Y-52451905D01*
X76938096Y-52547143D01*
X76890477Y-52594762D01*
X76795239Y-52642381D01*
X76557143Y-52642381D01*
X76461905Y-52594762D01*
X76414286Y-52547143D01*
M02*
