M48
;DRILL file {KiCad 4.0.7} date 06/12/18 17:03:12
;FORMAT={-:-/ absolute / inch / decimal}
FMAT,2
INCH,TZ
T1C0.030
T2C0.031
T3C0.035
T4C0.035
T5C0.040
T6C0.071
%
G90
G05
M72
T1
X1.1Y-2.05
X1.1Y-2.75
X1.1Y-3.45
X1.1Y-4.15
X1.1Y-4.85
X1.1Y-5.55
X1.1Y-6.25
X1.1Y-6.95
T2
X2.75Y-1.95
X3.25Y-1.95
X3.95Y-2.6
X3.95Y-3.1
X3.95Y-3.55
X3.95Y-4.05
X3.95Y-4.5
X3.95Y-5.
X4.Y-1.65
X4.Y-2.15
T3
X4.7252Y-1.7004
X4.7252Y-1.7803
X4.7252Y-1.8602
X4.7252Y-1.9402
X4.7252Y-2.6504
X4.7252Y-2.7303
X4.7252Y-2.8102
X4.7252Y-2.8902
X4.7252Y-3.6004
X4.7252Y-3.6803
X4.7252Y-3.7602
X4.7252Y-3.8402
X4.7252Y-4.5504
X4.7252Y-4.6303
X4.7252Y-4.7102
X4.7252Y-4.7902
X4.7953Y-1.6598
X4.7953Y-1.7398
X4.7953Y-1.8197
X4.7953Y-1.8996
X4.7953Y-2.6098
X4.7953Y-2.6898
X4.7953Y-2.7697
X4.7953Y-2.8496
X4.7953Y-3.5598
X4.7953Y-3.6398
X4.7953Y-3.7197
X4.7953Y-3.7996
X4.7953Y-4.5098
X4.7953Y-4.5898
X4.7953Y-4.6697
X4.7953Y-4.7496
T4
X3.Y-1.65
X3.Y-1.75
X4.2Y-1.85
X4.2Y-2.8
X4.2Y-3.75
X4.2Y-4.7
X4.3Y-1.85
X4.3Y-2.8
X4.3Y-3.75
X4.3Y-4.7
T5
X1.8Y-1.35
X1.8Y-1.45
X1.9Y-1.35
X1.9Y-1.45
X2.Y-1.35
X2.Y-1.45
X2.1Y-1.35
X2.1Y-1.45
X2.2Y-1.35
X2.2Y-1.45
X2.3Y-1.35
X2.3Y-1.45
X2.4Y-1.35
X2.4Y-1.45
X2.5Y-1.35
X2.5Y-1.45
X2.6Y-1.35
X2.6Y-1.45
X2.7Y-1.35
X2.7Y-1.45
X2.8Y-1.35
X2.8Y-1.45
X2.9Y-1.35
X2.9Y-1.45
X3.Y-1.35
X3.Y-1.45
X3.1Y-1.35
X3.1Y-1.45
X3.2Y-1.35
X3.2Y-1.45
X3.3Y-1.35
X3.3Y-1.45
X3.4Y-1.35
X3.4Y-1.45
X3.5Y-1.35
X3.5Y-1.45
X3.6Y-1.35
X3.6Y-1.45
X3.7Y-1.35
X3.7Y-1.45
X3.8Y-1.35
X3.8Y-1.45
X3.9Y-1.35
X3.9Y-1.45
X4.Y-1.35
X4.Y-1.45
X4.1Y-1.35
X4.1Y-1.45
X4.2Y-1.35
X4.2Y-1.45
T6
X4.7551Y-1.4799
X4.7551Y-2.1201
X4.7551Y-2.4299
X4.7551Y-3.0701
X4.7551Y-3.3799
X4.7551Y-4.0201
X4.7551Y-4.3299
X4.7551Y-4.9701
T0
M30
