G04 #@! TF.FileFunction,Copper,L2,Bot,Signal*
%FSLAX46Y46*%
G04 Gerber Fmt 4.6, Leading zero omitted, Abs format (unit mm)*
G04 Created by KiCad (PCBNEW 4.0.7) date 06/12/18 17:03:06*
%MOMM*%
%LPD*%
G01*
G04 APERTURE LIST*
%ADD10C,0.150000*%
%ADD11C,2.200000*%
%ADD12C,1.600000*%
%ADD13R,1.524000X1.524000*%
%ADD14C,1.524000*%
%ADD15C,7.000000*%
%ADD16C,1.701800*%
%ADD17R,1.800000X1.800000*%
%ADD18C,1.800000*%
%ADD19O,1.600000X1.600000*%
%ADD20C,1.270000*%
%ADD21C,0.254000*%
%ADD22C,0.152400*%
G04 APERTURE END LIST*
D10*
D11*
X120780000Y-126240000D03*
X120780000Y-109980000D03*
D12*
X121800000Y-118610000D03*
X121800000Y-116580000D03*
X120020000Y-119640000D03*
X120020000Y-117610000D03*
X120020000Y-121670000D03*
X121800000Y-120640000D03*
X120020000Y-115580000D03*
X121800000Y-114550000D03*
D11*
X120780000Y-102110000D03*
X120780000Y-85850000D03*
D12*
X121800000Y-94480000D03*
X121800000Y-92450000D03*
X120020000Y-95510000D03*
X120020000Y-93480000D03*
X120020000Y-97540000D03*
X121800000Y-96510000D03*
X120020000Y-91450000D03*
X121800000Y-90420000D03*
D11*
X120780000Y-77980000D03*
X120780000Y-61720000D03*
D12*
X121800000Y-70350000D03*
X121800000Y-68320000D03*
X120020000Y-71380000D03*
X120020000Y-69350000D03*
X120020000Y-73410000D03*
X121800000Y-72380000D03*
X120020000Y-67320000D03*
X121800000Y-66290000D03*
D11*
X120780000Y-53850000D03*
X120780000Y-37590000D03*
D12*
X121800000Y-46220000D03*
X121800000Y-44190000D03*
X120020000Y-47250000D03*
X120020000Y-45220000D03*
X120020000Y-49280000D03*
X121800000Y-48250000D03*
X120020000Y-43190000D03*
X121800000Y-42160000D03*
D13*
X45720000Y-36830000D03*
D14*
X45720000Y-34290000D03*
X48260000Y-36830000D03*
X48260000Y-34290000D03*
X50800000Y-36830000D03*
X50800000Y-34290000D03*
X53340000Y-36830000D03*
X53340000Y-34290000D03*
X55880000Y-36830000D03*
X55880000Y-34290000D03*
X58420000Y-36830000D03*
X58420000Y-34290000D03*
X60960000Y-36830000D03*
X60960000Y-34290000D03*
X63500000Y-36830000D03*
X63500000Y-34290000D03*
X66040000Y-36830000D03*
X66040000Y-34290000D03*
X68580000Y-36830000D03*
X68580000Y-34290000D03*
X71120000Y-36830000D03*
X71120000Y-34290000D03*
X73660000Y-36830000D03*
X73660000Y-34290000D03*
X76200000Y-36830000D03*
X76200000Y-34290000D03*
X78740000Y-36830000D03*
X78740000Y-34290000D03*
X81280000Y-36830000D03*
X81280000Y-34290000D03*
X83820000Y-36830000D03*
X83820000Y-34290000D03*
X86360000Y-36830000D03*
X86360000Y-34290000D03*
X88900000Y-36830000D03*
X88900000Y-34290000D03*
X91440000Y-36830000D03*
X91440000Y-34290000D03*
X93980000Y-36830000D03*
X93980000Y-34290000D03*
X96520000Y-36830000D03*
X96520000Y-34290000D03*
X99060000Y-36830000D03*
X99060000Y-34290000D03*
X101600000Y-36830000D03*
X101600000Y-34290000D03*
X104140000Y-36830000D03*
X104140000Y-34290000D03*
X106680000Y-36830000D03*
X106680000Y-34290000D03*
D15*
X120650000Y-181610000D03*
X31750000Y-181610000D03*
X120650000Y-31750000D03*
X31750000Y-31750000D03*
D16*
X35915600Y-170180000D03*
X28905200Y-170180000D03*
X35915600Y-152400000D03*
X28905200Y-152400000D03*
X35915600Y-134620000D03*
X28905200Y-134620000D03*
X35915600Y-116840000D03*
X28905200Y-116840000D03*
X35915600Y-99060000D03*
X28905200Y-99060000D03*
X35915600Y-81280000D03*
X28905200Y-81280000D03*
X35915600Y-63500000D03*
X28905200Y-63500000D03*
X35915600Y-45720000D03*
X28905200Y-45720000D03*
D17*
X109220000Y-46990000D03*
D18*
X106680000Y-46990000D03*
D17*
X109220000Y-95250000D03*
D18*
X106680000Y-95250000D03*
D17*
X76200000Y-41910000D03*
D18*
X76200000Y-44450000D03*
D17*
X109220000Y-71120000D03*
D18*
X106680000Y-71120000D03*
D17*
X109220000Y-119380000D03*
D18*
X106680000Y-119380000D03*
D12*
X101600000Y-54610000D03*
D19*
X101600000Y-41910000D03*
D12*
X100330000Y-102870000D03*
D19*
X100330000Y-90170000D03*
D12*
X100330000Y-78740000D03*
D19*
X100330000Y-66040000D03*
D12*
X100330000Y-127000000D03*
D19*
X100330000Y-114300000D03*
D12*
X82550000Y-49530000D03*
D19*
X69850000Y-49530000D03*
D20*
X27940000Y-176530000D03*
X27940000Y-158750000D03*
X27940000Y-140970000D03*
X27940000Y-123190000D03*
X27940000Y-105410000D03*
X27940000Y-87630000D03*
X27940000Y-69850000D03*
X27940000Y-52070000D03*
D21*
X121800000Y-42160000D02*
X121800000Y-41790000D01*
X121800000Y-41790000D02*
X120650000Y-40640000D01*
X120650000Y-40640000D02*
X102870000Y-40640000D01*
X102870000Y-40640000D02*
X101600000Y-41910000D01*
X121800000Y-90420000D02*
X121800000Y-90050000D01*
X121800000Y-90050000D02*
X120650000Y-88900000D01*
X120650000Y-88900000D02*
X101600000Y-88900000D01*
X101600000Y-88900000D02*
X100330000Y-90170000D01*
X121800000Y-66290000D02*
X121800000Y-65920000D01*
X121800000Y-65920000D02*
X120650000Y-64770000D01*
X120650000Y-64770000D02*
X101600000Y-64770000D01*
X101600000Y-64770000D02*
X100330000Y-66040000D01*
X121800000Y-114550000D02*
X121800000Y-114180000D01*
X121800000Y-114180000D02*
X120650000Y-113030000D01*
X120650000Y-113030000D02*
X101600000Y-113030000D01*
X101600000Y-113030000D02*
X100330000Y-114300000D01*
D22*
G36*
X123619886Y-26376117D02*
X125060976Y-27339024D01*
X126023883Y-28780116D01*
X126374270Y-30541630D01*
X126374270Y-38529151D01*
X126207175Y-38124749D01*
X125588508Y-37505002D01*
X124779767Y-37169183D01*
X123904075Y-37168419D01*
X123094749Y-37502825D01*
X122475002Y-38121492D01*
X122139183Y-38930233D01*
X122138419Y-39805925D01*
X122472825Y-40615251D01*
X123091492Y-41234998D01*
X123900233Y-41570817D01*
X124775925Y-41571581D01*
X125585251Y-41237175D01*
X126204998Y-40618508D01*
X126374270Y-40210856D01*
X126374270Y-51229151D01*
X126207175Y-50824749D01*
X125588508Y-50205002D01*
X124779767Y-49869183D01*
X123904075Y-49868419D01*
X123094749Y-50202825D01*
X122475002Y-50821492D01*
X122139183Y-51630233D01*
X122138419Y-52505925D01*
X122472825Y-53315251D01*
X123091492Y-53934998D01*
X123900233Y-54270817D01*
X124775925Y-54271581D01*
X125585251Y-53937175D01*
X126204998Y-53318508D01*
X126374270Y-52910856D01*
X126374270Y-62659151D01*
X126207175Y-62254749D01*
X125588508Y-61635002D01*
X124779767Y-61299183D01*
X123904075Y-61298419D01*
X123094749Y-61632825D01*
X122475002Y-62251492D01*
X122139183Y-63060233D01*
X122138419Y-63935925D01*
X122472825Y-64745251D01*
X123091492Y-65364998D01*
X123900233Y-65700817D01*
X124775925Y-65701581D01*
X125585251Y-65367175D01*
X126204998Y-64748508D01*
X126374270Y-64340856D01*
X126374270Y-75359151D01*
X126207175Y-74954749D01*
X125588508Y-74335002D01*
X124779767Y-73999183D01*
X123904075Y-73998419D01*
X123094749Y-74332825D01*
X122475002Y-74951492D01*
X122139183Y-75760233D01*
X122138419Y-76635925D01*
X122472825Y-77445251D01*
X123091492Y-78064998D01*
X123900233Y-78400817D01*
X124775925Y-78401581D01*
X125585251Y-78067175D01*
X126204998Y-77448508D01*
X126374270Y-77040856D01*
X126374270Y-86789151D01*
X126207175Y-86384749D01*
X125588508Y-85765002D01*
X124779767Y-85429183D01*
X123904075Y-85428419D01*
X123094749Y-85762825D01*
X122475002Y-86381492D01*
X122139183Y-87190233D01*
X122138419Y-88065925D01*
X122472825Y-88875251D01*
X123091492Y-89494998D01*
X123900233Y-89830817D01*
X124775925Y-89831581D01*
X125585251Y-89497175D01*
X126204998Y-88878508D01*
X126374270Y-88470856D01*
X126374270Y-99489151D01*
X126207175Y-99084749D01*
X125588508Y-98465002D01*
X124779767Y-98129183D01*
X123904075Y-98128419D01*
X123094749Y-98462825D01*
X122475002Y-99081492D01*
X122139183Y-99890233D01*
X122138419Y-100765925D01*
X122472825Y-101575251D01*
X123091492Y-102194998D01*
X123900233Y-102530817D01*
X124775925Y-102531581D01*
X125585251Y-102197175D01*
X126204998Y-101578508D01*
X126374270Y-101170856D01*
X126374270Y-110919151D01*
X126207175Y-110514749D01*
X125588508Y-109895002D01*
X124779767Y-109559183D01*
X123904075Y-109558419D01*
X123094749Y-109892825D01*
X122475002Y-110511492D01*
X122139183Y-111320233D01*
X122138419Y-112195925D01*
X122472825Y-113005251D01*
X123091492Y-113624998D01*
X123900233Y-113960817D01*
X124775925Y-113961581D01*
X125585251Y-113627175D01*
X126204998Y-113008508D01*
X126374270Y-112600856D01*
X126374270Y-123619151D01*
X126207175Y-123214749D01*
X125588508Y-122595002D01*
X124779767Y-122259183D01*
X123904075Y-122258419D01*
X123094749Y-122592825D01*
X122475002Y-123211492D01*
X122139183Y-124020233D01*
X122138419Y-124895925D01*
X122472825Y-125705251D01*
X123091492Y-126324998D01*
X123900233Y-126660817D01*
X124775925Y-126661581D01*
X125585251Y-126327175D01*
X126204998Y-125708508D01*
X126374270Y-125300856D01*
X126374270Y-182818370D01*
X126023883Y-184579884D01*
X125060976Y-186020976D01*
X123619886Y-186983883D01*
X121858370Y-187334270D01*
X30541630Y-187334270D01*
X28780116Y-186983883D01*
X27339024Y-186020976D01*
X26376117Y-184579886D01*
X26025730Y-182818370D01*
X26025730Y-182417249D01*
X27673094Y-182417249D01*
X28292351Y-183915965D01*
X29438004Y-185063619D01*
X30935637Y-185685490D01*
X32557249Y-185686906D01*
X34055965Y-185067649D01*
X35203619Y-183921996D01*
X35825490Y-182424363D01*
X35825496Y-182417249D01*
X116573094Y-182417249D01*
X117192351Y-183915965D01*
X118338004Y-185063619D01*
X119835637Y-185685490D01*
X121457249Y-185686906D01*
X122955965Y-185067649D01*
X124103619Y-183921996D01*
X124725490Y-182424363D01*
X124726906Y-180802751D01*
X124107649Y-179304035D01*
X122961996Y-178156381D01*
X121464363Y-177534510D01*
X119842751Y-177533094D01*
X118344035Y-178152351D01*
X117196381Y-179298004D01*
X116574510Y-180795637D01*
X116573094Y-182417249D01*
X35825496Y-182417249D01*
X35826906Y-180802751D01*
X35207649Y-179304035D01*
X34061996Y-178156381D01*
X32564363Y-177534510D01*
X30942751Y-177533094D01*
X29444035Y-178152351D01*
X28296381Y-179298004D01*
X27674510Y-180795637D01*
X27673094Y-182417249D01*
X26025730Y-182417249D01*
X26025730Y-170462622D01*
X27477852Y-170462622D01*
X27694658Y-170987331D01*
X28095757Y-171389131D01*
X28620087Y-171606852D01*
X29187822Y-171607348D01*
X29712531Y-171390542D01*
X30114331Y-170989443D01*
X30332052Y-170465113D01*
X30332054Y-170462622D01*
X34488252Y-170462622D01*
X34705058Y-170987331D01*
X35106157Y-171389131D01*
X35630487Y-171606852D01*
X36198222Y-171607348D01*
X36722931Y-171390542D01*
X37124731Y-170989443D01*
X37342452Y-170465113D01*
X37342948Y-169897378D01*
X37126142Y-169372669D01*
X36725043Y-168970869D01*
X36200713Y-168753148D01*
X35632978Y-168752652D01*
X35108269Y-168969458D01*
X34706469Y-169370557D01*
X34488748Y-169894887D01*
X34488252Y-170462622D01*
X30332054Y-170462622D01*
X30332548Y-169897378D01*
X30115742Y-169372669D01*
X29714643Y-168970869D01*
X29190313Y-168753148D01*
X28622578Y-168752652D01*
X28097869Y-168969458D01*
X27696069Y-169370557D01*
X27478348Y-169894887D01*
X27477852Y-170462622D01*
X26025730Y-170462622D01*
X26025730Y-152682622D01*
X27477852Y-152682622D01*
X27694658Y-153207331D01*
X28095757Y-153609131D01*
X28620087Y-153826852D01*
X29187822Y-153827348D01*
X29712531Y-153610542D01*
X30114331Y-153209443D01*
X30332052Y-152685113D01*
X30332054Y-152682622D01*
X34488252Y-152682622D01*
X34705058Y-153207331D01*
X35106157Y-153609131D01*
X35630487Y-153826852D01*
X36198222Y-153827348D01*
X36722931Y-153610542D01*
X37124731Y-153209443D01*
X37342452Y-152685113D01*
X37342948Y-152117378D01*
X37126142Y-151592669D01*
X36725043Y-151190869D01*
X36200713Y-150973148D01*
X35632978Y-150972652D01*
X35108269Y-151189458D01*
X34706469Y-151590557D01*
X34488748Y-152114887D01*
X34488252Y-152682622D01*
X30332054Y-152682622D01*
X30332548Y-152117378D01*
X30115742Y-151592669D01*
X29714643Y-151190869D01*
X29190313Y-150973148D01*
X28622578Y-150972652D01*
X28097869Y-151189458D01*
X27696069Y-151590557D01*
X27478348Y-152114887D01*
X27477852Y-152682622D01*
X26025730Y-152682622D01*
X26025730Y-134902622D01*
X27477852Y-134902622D01*
X27694658Y-135427331D01*
X28095757Y-135829131D01*
X28620087Y-136046852D01*
X29187822Y-136047348D01*
X29712531Y-135830542D01*
X30114331Y-135429443D01*
X30332052Y-134905113D01*
X30332054Y-134902622D01*
X34488252Y-134902622D01*
X34705058Y-135427331D01*
X35106157Y-135829131D01*
X35630487Y-136046852D01*
X36198222Y-136047348D01*
X36722931Y-135830542D01*
X37124731Y-135429443D01*
X37342452Y-134905113D01*
X37342948Y-134337378D01*
X37126142Y-133812669D01*
X36725043Y-133410869D01*
X36200713Y-133193148D01*
X35632978Y-133192652D01*
X35108269Y-133409458D01*
X34706469Y-133810557D01*
X34488748Y-134334887D01*
X34488252Y-134902622D01*
X30332054Y-134902622D01*
X30332548Y-134337378D01*
X30115742Y-133812669D01*
X29714643Y-133410869D01*
X29190313Y-133193148D01*
X28622578Y-133192652D01*
X28097869Y-133409458D01*
X27696069Y-133810557D01*
X27478348Y-134334887D01*
X27477852Y-134902622D01*
X26025730Y-134902622D01*
X26025730Y-127272542D01*
X98953562Y-127272542D01*
X99162634Y-127778536D01*
X99549428Y-128166005D01*
X100055056Y-128375960D01*
X100602542Y-128376438D01*
X101108536Y-128167366D01*
X101496005Y-127780572D01*
X101705960Y-127274944D01*
X101706438Y-126727458D01*
X101642186Y-126571954D01*
X119103509Y-126571954D01*
X119358158Y-127188251D01*
X119829269Y-127660185D01*
X120445120Y-127915909D01*
X121111954Y-127916491D01*
X121728251Y-127661842D01*
X122200185Y-127190731D01*
X122455909Y-126574880D01*
X122456491Y-125908046D01*
X122201842Y-125291749D01*
X121730731Y-124819815D01*
X121114880Y-124564091D01*
X120448046Y-124563509D01*
X119831749Y-124818158D01*
X119359815Y-125289269D01*
X119104091Y-125905120D01*
X119103509Y-126571954D01*
X101642186Y-126571954D01*
X101497366Y-126221464D01*
X101110572Y-125833995D01*
X100604944Y-125624040D01*
X100057458Y-125623562D01*
X99551464Y-125832634D01*
X99163995Y-126219428D01*
X98954040Y-126725056D01*
X98953562Y-127272542D01*
X26025730Y-127272542D01*
X26025730Y-119672346D01*
X105203545Y-119672346D01*
X105427809Y-120215107D01*
X105842708Y-120630731D01*
X106385078Y-120855943D01*
X106972346Y-120856455D01*
X107515107Y-120632191D01*
X107753923Y-120393791D01*
X107772690Y-120493527D01*
X107898884Y-120689638D01*
X108091434Y-120821202D01*
X108320000Y-120867488D01*
X110120000Y-120867488D01*
X110333527Y-120827310D01*
X110529638Y-120701116D01*
X110661202Y-120508566D01*
X110707488Y-120280000D01*
X110707488Y-118480000D01*
X110667310Y-118266473D01*
X110541116Y-118070362D01*
X110348566Y-117938798D01*
X110120000Y-117892512D01*
X108320000Y-117892512D01*
X108106473Y-117932690D01*
X107910362Y-118058884D01*
X107778798Y-118251434D01*
X107755262Y-118367655D01*
X107517292Y-118129269D01*
X106974922Y-117904057D01*
X106387654Y-117903545D01*
X105844893Y-118127809D01*
X105429269Y-118542708D01*
X105204057Y-119085078D01*
X105203545Y-119672346D01*
X26025730Y-119672346D01*
X26025730Y-117122622D01*
X27477852Y-117122622D01*
X27694658Y-117647331D01*
X28095757Y-118049131D01*
X28620087Y-118266852D01*
X29187822Y-118267348D01*
X29712531Y-118050542D01*
X30114331Y-117649443D01*
X30332052Y-117125113D01*
X30332054Y-117122622D01*
X34488252Y-117122622D01*
X34705058Y-117647331D01*
X35106157Y-118049131D01*
X35630487Y-118266852D01*
X36198222Y-118267348D01*
X36722931Y-118050542D01*
X37124731Y-117649443D01*
X37342452Y-117125113D01*
X37342948Y-116557378D01*
X37126142Y-116032669D01*
X36725043Y-115630869D01*
X36200713Y-115413148D01*
X35632978Y-115412652D01*
X35108269Y-115629458D01*
X34706469Y-116030557D01*
X34488748Y-116554887D01*
X34488252Y-117122622D01*
X30332054Y-117122622D01*
X30332548Y-116557378D01*
X30115742Y-116032669D01*
X29714643Y-115630869D01*
X29190313Y-115413148D01*
X28622578Y-115412652D01*
X28097869Y-115629458D01*
X27696069Y-116030557D01*
X27478348Y-116554887D01*
X27477852Y-117122622D01*
X26025730Y-117122622D01*
X26025730Y-114273039D01*
X98953800Y-114273039D01*
X98953800Y-114326961D01*
X99058557Y-114853610D01*
X99356880Y-115300081D01*
X99803351Y-115598404D01*
X100330000Y-115703161D01*
X100856649Y-115598404D01*
X101303120Y-115300081D01*
X101601443Y-114853610D01*
X101706200Y-114326961D01*
X101706200Y-114273039D01*
X101647341Y-113977134D01*
X101891275Y-113733200D01*
X120358726Y-113733200D01*
X120563859Y-113938334D01*
X120430206Y-114260206D01*
X120294944Y-114204040D01*
X119747458Y-114203562D01*
X119241464Y-114412634D01*
X118853995Y-114799428D01*
X118644040Y-115305056D01*
X118643562Y-115852542D01*
X118852634Y-116358536D01*
X119088759Y-116595073D01*
X118853995Y-116829428D01*
X118644040Y-117335056D01*
X118643562Y-117882542D01*
X118852634Y-118388536D01*
X119088759Y-118625073D01*
X118853995Y-118859428D01*
X118644040Y-119365056D01*
X118643562Y-119912542D01*
X118852634Y-120418536D01*
X119088759Y-120655073D01*
X118853995Y-120889428D01*
X118644040Y-121395056D01*
X118643562Y-121942542D01*
X118852634Y-122448536D01*
X119239428Y-122836005D01*
X119745056Y-123045960D01*
X120292542Y-123046438D01*
X120798536Y-122837366D01*
X121186005Y-122450572D01*
X121389794Y-121959794D01*
X121525056Y-122015960D01*
X122072542Y-122016438D01*
X122578536Y-121807366D01*
X122966005Y-121420572D01*
X123175960Y-120914944D01*
X123176438Y-120367458D01*
X122967366Y-119861464D01*
X122731241Y-119624927D01*
X122966005Y-119390572D01*
X123175960Y-118884944D01*
X123176438Y-118337458D01*
X122967366Y-117831464D01*
X122731241Y-117594927D01*
X122966005Y-117360572D01*
X123175960Y-116854944D01*
X123176438Y-116307458D01*
X122967366Y-115801464D01*
X122731241Y-115564927D01*
X122966005Y-115330572D01*
X123175960Y-114824944D01*
X123176438Y-114277458D01*
X122967366Y-113771464D01*
X122580572Y-113383995D01*
X122074944Y-113174040D01*
X121788264Y-113173790D01*
X121147237Y-112532763D01*
X120919103Y-112380328D01*
X120650000Y-112326800D01*
X101600000Y-112326800D01*
X101330897Y-112380328D01*
X101102762Y-112532763D01*
X100670881Y-112964644D01*
X100330000Y-112896839D01*
X99803351Y-113001596D01*
X99356880Y-113299919D01*
X99058557Y-113746390D01*
X98953800Y-114273039D01*
X26025730Y-114273039D01*
X26025730Y-110311954D01*
X119103509Y-110311954D01*
X119358158Y-110928251D01*
X119829269Y-111400185D01*
X120445120Y-111655909D01*
X121111954Y-111656491D01*
X121728251Y-111401842D01*
X122200185Y-110930731D01*
X122455909Y-110314880D01*
X122456491Y-109648046D01*
X122201842Y-109031749D01*
X121730731Y-108559815D01*
X121114880Y-108304091D01*
X120448046Y-108303509D01*
X119831749Y-108558158D01*
X119359815Y-109029269D01*
X119104091Y-109645120D01*
X119103509Y-110311954D01*
X26025730Y-110311954D01*
X26025730Y-103142542D01*
X98953562Y-103142542D01*
X99162634Y-103648536D01*
X99549428Y-104036005D01*
X100055056Y-104245960D01*
X100602542Y-104246438D01*
X101108536Y-104037366D01*
X101496005Y-103650572D01*
X101705960Y-103144944D01*
X101706438Y-102597458D01*
X101642186Y-102441954D01*
X119103509Y-102441954D01*
X119358158Y-103058251D01*
X119829269Y-103530185D01*
X120445120Y-103785909D01*
X121111954Y-103786491D01*
X121728251Y-103531842D01*
X122200185Y-103060731D01*
X122455909Y-102444880D01*
X122456491Y-101778046D01*
X122201842Y-101161749D01*
X121730731Y-100689815D01*
X121114880Y-100434091D01*
X120448046Y-100433509D01*
X119831749Y-100688158D01*
X119359815Y-101159269D01*
X119104091Y-101775120D01*
X119103509Y-102441954D01*
X101642186Y-102441954D01*
X101497366Y-102091464D01*
X101110572Y-101703995D01*
X100604944Y-101494040D01*
X100057458Y-101493562D01*
X99551464Y-101702634D01*
X99163995Y-102089428D01*
X98954040Y-102595056D01*
X98953562Y-103142542D01*
X26025730Y-103142542D01*
X26025730Y-99342622D01*
X27477852Y-99342622D01*
X27694658Y-99867331D01*
X28095757Y-100269131D01*
X28620087Y-100486852D01*
X29187822Y-100487348D01*
X29712531Y-100270542D01*
X30114331Y-99869443D01*
X30332052Y-99345113D01*
X30332054Y-99342622D01*
X34488252Y-99342622D01*
X34705058Y-99867331D01*
X35106157Y-100269131D01*
X35630487Y-100486852D01*
X36198222Y-100487348D01*
X36722931Y-100270542D01*
X37124731Y-99869443D01*
X37342452Y-99345113D01*
X37342948Y-98777378D01*
X37126142Y-98252669D01*
X36725043Y-97850869D01*
X36200713Y-97633148D01*
X35632978Y-97632652D01*
X35108269Y-97849458D01*
X34706469Y-98250557D01*
X34488748Y-98774887D01*
X34488252Y-99342622D01*
X30332054Y-99342622D01*
X30332548Y-98777378D01*
X30115742Y-98252669D01*
X29714643Y-97850869D01*
X29190313Y-97633148D01*
X28622578Y-97632652D01*
X28097869Y-97849458D01*
X27696069Y-98250557D01*
X27478348Y-98774887D01*
X27477852Y-99342622D01*
X26025730Y-99342622D01*
X26025730Y-95542346D01*
X105203545Y-95542346D01*
X105427809Y-96085107D01*
X105842708Y-96500731D01*
X106385078Y-96725943D01*
X106972346Y-96726455D01*
X107515107Y-96502191D01*
X107753923Y-96263791D01*
X107772690Y-96363527D01*
X107898884Y-96559638D01*
X108091434Y-96691202D01*
X108320000Y-96737488D01*
X110120000Y-96737488D01*
X110333527Y-96697310D01*
X110529638Y-96571116D01*
X110661202Y-96378566D01*
X110707488Y-96150000D01*
X110707488Y-94350000D01*
X110667310Y-94136473D01*
X110541116Y-93940362D01*
X110348566Y-93808798D01*
X110120000Y-93762512D01*
X108320000Y-93762512D01*
X108106473Y-93802690D01*
X107910362Y-93928884D01*
X107778798Y-94121434D01*
X107755262Y-94237655D01*
X107517292Y-93999269D01*
X106974922Y-93774057D01*
X106387654Y-93773545D01*
X105844893Y-93997809D01*
X105429269Y-94412708D01*
X105204057Y-94955078D01*
X105203545Y-95542346D01*
X26025730Y-95542346D01*
X26025730Y-90143039D01*
X98953800Y-90143039D01*
X98953800Y-90196961D01*
X99058557Y-90723610D01*
X99356880Y-91170081D01*
X99803351Y-91468404D01*
X100330000Y-91573161D01*
X100856649Y-91468404D01*
X101303120Y-91170081D01*
X101601443Y-90723610D01*
X101706200Y-90196961D01*
X101706200Y-90143039D01*
X101647341Y-89847134D01*
X101891275Y-89603200D01*
X120358726Y-89603200D01*
X120563859Y-89808334D01*
X120430206Y-90130206D01*
X120294944Y-90074040D01*
X119747458Y-90073562D01*
X119241464Y-90282634D01*
X118853995Y-90669428D01*
X118644040Y-91175056D01*
X118643562Y-91722542D01*
X118852634Y-92228536D01*
X119088759Y-92465073D01*
X118853995Y-92699428D01*
X118644040Y-93205056D01*
X118643562Y-93752542D01*
X118852634Y-94258536D01*
X119088759Y-94495073D01*
X118853995Y-94729428D01*
X118644040Y-95235056D01*
X118643562Y-95782542D01*
X118852634Y-96288536D01*
X119088759Y-96525073D01*
X118853995Y-96759428D01*
X118644040Y-97265056D01*
X118643562Y-97812542D01*
X118852634Y-98318536D01*
X119239428Y-98706005D01*
X119745056Y-98915960D01*
X120292542Y-98916438D01*
X120798536Y-98707366D01*
X121186005Y-98320572D01*
X121389794Y-97829794D01*
X121525056Y-97885960D01*
X122072542Y-97886438D01*
X122578536Y-97677366D01*
X122966005Y-97290572D01*
X123175960Y-96784944D01*
X123176438Y-96237458D01*
X122967366Y-95731464D01*
X122731241Y-95494927D01*
X122966005Y-95260572D01*
X123175960Y-94754944D01*
X123176438Y-94207458D01*
X122967366Y-93701464D01*
X122731241Y-93464927D01*
X122966005Y-93230572D01*
X123175960Y-92724944D01*
X123176438Y-92177458D01*
X122967366Y-91671464D01*
X122731241Y-91434927D01*
X122966005Y-91200572D01*
X123175960Y-90694944D01*
X123176438Y-90147458D01*
X122967366Y-89641464D01*
X122580572Y-89253995D01*
X122074944Y-89044040D01*
X121788264Y-89043790D01*
X121147237Y-88402763D01*
X120919103Y-88250328D01*
X120650000Y-88196800D01*
X101600000Y-88196800D01*
X101330897Y-88250328D01*
X101102762Y-88402763D01*
X100670881Y-88834644D01*
X100330000Y-88766839D01*
X99803351Y-88871596D01*
X99356880Y-89169919D01*
X99058557Y-89616390D01*
X98953800Y-90143039D01*
X26025730Y-90143039D01*
X26025730Y-86181954D01*
X119103509Y-86181954D01*
X119358158Y-86798251D01*
X119829269Y-87270185D01*
X120445120Y-87525909D01*
X121111954Y-87526491D01*
X121728251Y-87271842D01*
X122200185Y-86800731D01*
X122455909Y-86184880D01*
X122456491Y-85518046D01*
X122201842Y-84901749D01*
X121730731Y-84429815D01*
X121114880Y-84174091D01*
X120448046Y-84173509D01*
X119831749Y-84428158D01*
X119359815Y-84899269D01*
X119104091Y-85515120D01*
X119103509Y-86181954D01*
X26025730Y-86181954D01*
X26025730Y-81562622D01*
X27477852Y-81562622D01*
X27694658Y-82087331D01*
X28095757Y-82489131D01*
X28620087Y-82706852D01*
X29187822Y-82707348D01*
X29712531Y-82490542D01*
X30114331Y-82089443D01*
X30332052Y-81565113D01*
X30332054Y-81562622D01*
X34488252Y-81562622D01*
X34705058Y-82087331D01*
X35106157Y-82489131D01*
X35630487Y-82706852D01*
X36198222Y-82707348D01*
X36722931Y-82490542D01*
X37124731Y-82089443D01*
X37342452Y-81565113D01*
X37342948Y-80997378D01*
X37126142Y-80472669D01*
X36725043Y-80070869D01*
X36200713Y-79853148D01*
X35632978Y-79852652D01*
X35108269Y-80069458D01*
X34706469Y-80470557D01*
X34488748Y-80994887D01*
X34488252Y-81562622D01*
X30332054Y-81562622D01*
X30332548Y-80997378D01*
X30115742Y-80472669D01*
X29714643Y-80070869D01*
X29190313Y-79853148D01*
X28622578Y-79852652D01*
X28097869Y-80069458D01*
X27696069Y-80470557D01*
X27478348Y-80994887D01*
X27477852Y-81562622D01*
X26025730Y-81562622D01*
X26025730Y-79012542D01*
X98953562Y-79012542D01*
X99162634Y-79518536D01*
X99549428Y-79906005D01*
X100055056Y-80115960D01*
X100602542Y-80116438D01*
X101108536Y-79907366D01*
X101496005Y-79520572D01*
X101705960Y-79014944D01*
X101706438Y-78467458D01*
X101642186Y-78311954D01*
X119103509Y-78311954D01*
X119358158Y-78928251D01*
X119829269Y-79400185D01*
X120445120Y-79655909D01*
X121111954Y-79656491D01*
X121728251Y-79401842D01*
X122200185Y-78930731D01*
X122455909Y-78314880D01*
X122456491Y-77648046D01*
X122201842Y-77031749D01*
X121730731Y-76559815D01*
X121114880Y-76304091D01*
X120448046Y-76303509D01*
X119831749Y-76558158D01*
X119359815Y-77029269D01*
X119104091Y-77645120D01*
X119103509Y-78311954D01*
X101642186Y-78311954D01*
X101497366Y-77961464D01*
X101110572Y-77573995D01*
X100604944Y-77364040D01*
X100057458Y-77363562D01*
X99551464Y-77572634D01*
X99163995Y-77959428D01*
X98954040Y-78465056D01*
X98953562Y-79012542D01*
X26025730Y-79012542D01*
X26025730Y-71412346D01*
X105203545Y-71412346D01*
X105427809Y-71955107D01*
X105842708Y-72370731D01*
X106385078Y-72595943D01*
X106972346Y-72596455D01*
X107515107Y-72372191D01*
X107753923Y-72133791D01*
X107772690Y-72233527D01*
X107898884Y-72429638D01*
X108091434Y-72561202D01*
X108320000Y-72607488D01*
X110120000Y-72607488D01*
X110333527Y-72567310D01*
X110529638Y-72441116D01*
X110661202Y-72248566D01*
X110707488Y-72020000D01*
X110707488Y-70220000D01*
X110667310Y-70006473D01*
X110541116Y-69810362D01*
X110348566Y-69678798D01*
X110120000Y-69632512D01*
X108320000Y-69632512D01*
X108106473Y-69672690D01*
X107910362Y-69798884D01*
X107778798Y-69991434D01*
X107755262Y-70107655D01*
X107517292Y-69869269D01*
X106974922Y-69644057D01*
X106387654Y-69643545D01*
X105844893Y-69867809D01*
X105429269Y-70282708D01*
X105204057Y-70825078D01*
X105203545Y-71412346D01*
X26025730Y-71412346D01*
X26025730Y-66013039D01*
X98953800Y-66013039D01*
X98953800Y-66066961D01*
X99058557Y-66593610D01*
X99356880Y-67040081D01*
X99803351Y-67338404D01*
X100330000Y-67443161D01*
X100856649Y-67338404D01*
X101303120Y-67040081D01*
X101601443Y-66593610D01*
X101706200Y-66066961D01*
X101706200Y-66013039D01*
X101647341Y-65717134D01*
X101891275Y-65473200D01*
X120358726Y-65473200D01*
X120563859Y-65678334D01*
X120430206Y-66000206D01*
X120294944Y-65944040D01*
X119747458Y-65943562D01*
X119241464Y-66152634D01*
X118853995Y-66539428D01*
X118644040Y-67045056D01*
X118643562Y-67592542D01*
X118852634Y-68098536D01*
X119088759Y-68335073D01*
X118853995Y-68569428D01*
X118644040Y-69075056D01*
X118643562Y-69622542D01*
X118852634Y-70128536D01*
X119088759Y-70365073D01*
X118853995Y-70599428D01*
X118644040Y-71105056D01*
X118643562Y-71652542D01*
X118852634Y-72158536D01*
X119088759Y-72395073D01*
X118853995Y-72629428D01*
X118644040Y-73135056D01*
X118643562Y-73682542D01*
X118852634Y-74188536D01*
X119239428Y-74576005D01*
X119745056Y-74785960D01*
X120292542Y-74786438D01*
X120798536Y-74577366D01*
X121186005Y-74190572D01*
X121389794Y-73699794D01*
X121525056Y-73755960D01*
X122072542Y-73756438D01*
X122578536Y-73547366D01*
X122966005Y-73160572D01*
X123175960Y-72654944D01*
X123176438Y-72107458D01*
X122967366Y-71601464D01*
X122731241Y-71364927D01*
X122966005Y-71130572D01*
X123175960Y-70624944D01*
X123176438Y-70077458D01*
X122967366Y-69571464D01*
X122731241Y-69334927D01*
X122966005Y-69100572D01*
X123175960Y-68594944D01*
X123176438Y-68047458D01*
X122967366Y-67541464D01*
X122731241Y-67304927D01*
X122966005Y-67070572D01*
X123175960Y-66564944D01*
X123176438Y-66017458D01*
X122967366Y-65511464D01*
X122580572Y-65123995D01*
X122074944Y-64914040D01*
X121788264Y-64913790D01*
X121147237Y-64272763D01*
X120919103Y-64120328D01*
X120650000Y-64066800D01*
X101600000Y-64066800D01*
X101330897Y-64120328D01*
X101102762Y-64272763D01*
X100670881Y-64704644D01*
X100330000Y-64636839D01*
X99803351Y-64741596D01*
X99356880Y-65039919D01*
X99058557Y-65486390D01*
X98953800Y-66013039D01*
X26025730Y-66013039D01*
X26025730Y-63782622D01*
X27477852Y-63782622D01*
X27694658Y-64307331D01*
X28095757Y-64709131D01*
X28620087Y-64926852D01*
X29187822Y-64927348D01*
X29712531Y-64710542D01*
X30114331Y-64309443D01*
X30332052Y-63785113D01*
X30332054Y-63782622D01*
X34488252Y-63782622D01*
X34705058Y-64307331D01*
X35106157Y-64709131D01*
X35630487Y-64926852D01*
X36198222Y-64927348D01*
X36722931Y-64710542D01*
X37124731Y-64309443D01*
X37342452Y-63785113D01*
X37342948Y-63217378D01*
X37126142Y-62692669D01*
X36725043Y-62290869D01*
X36200713Y-62073148D01*
X35632978Y-62072652D01*
X35108269Y-62289458D01*
X34706469Y-62690557D01*
X34488748Y-63214887D01*
X34488252Y-63782622D01*
X30332054Y-63782622D01*
X30332548Y-63217378D01*
X30115742Y-62692669D01*
X29714643Y-62290869D01*
X29190313Y-62073148D01*
X28622578Y-62072652D01*
X28097869Y-62289458D01*
X27696069Y-62690557D01*
X27478348Y-63214887D01*
X27477852Y-63782622D01*
X26025730Y-63782622D01*
X26025730Y-62051954D01*
X119103509Y-62051954D01*
X119358158Y-62668251D01*
X119829269Y-63140185D01*
X120445120Y-63395909D01*
X121111954Y-63396491D01*
X121728251Y-63141842D01*
X122200185Y-62670731D01*
X122455909Y-62054880D01*
X122456491Y-61388046D01*
X122201842Y-60771749D01*
X121730731Y-60299815D01*
X121114880Y-60044091D01*
X120448046Y-60043509D01*
X119831749Y-60298158D01*
X119359815Y-60769269D01*
X119104091Y-61385120D01*
X119103509Y-62051954D01*
X26025730Y-62051954D01*
X26025730Y-54882542D01*
X100223562Y-54882542D01*
X100432634Y-55388536D01*
X100819428Y-55776005D01*
X101325056Y-55985960D01*
X101872542Y-55986438D01*
X102378536Y-55777366D01*
X102766005Y-55390572D01*
X102975960Y-54884944D01*
X102976438Y-54337458D01*
X102912186Y-54181954D01*
X119103509Y-54181954D01*
X119358158Y-54798251D01*
X119829269Y-55270185D01*
X120445120Y-55525909D01*
X121111954Y-55526491D01*
X121728251Y-55271842D01*
X122200185Y-54800731D01*
X122455909Y-54184880D01*
X122456491Y-53518046D01*
X122201842Y-52901749D01*
X121730731Y-52429815D01*
X121114880Y-52174091D01*
X120448046Y-52173509D01*
X119831749Y-52428158D01*
X119359815Y-52899269D01*
X119104091Y-53515120D01*
X119103509Y-54181954D01*
X102912186Y-54181954D01*
X102767366Y-53831464D01*
X102380572Y-53443995D01*
X101874944Y-53234040D01*
X101327458Y-53233562D01*
X100821464Y-53442634D01*
X100433995Y-53829428D01*
X100224040Y-54335056D01*
X100223562Y-54882542D01*
X26025730Y-54882542D01*
X26025730Y-49530000D01*
X68446839Y-49530000D01*
X68551596Y-50056649D01*
X68849919Y-50503120D01*
X69296390Y-50801443D01*
X69823039Y-50906200D01*
X69876961Y-50906200D01*
X70403610Y-50801443D01*
X70850081Y-50503120D01*
X71148404Y-50056649D01*
X71198949Y-49802542D01*
X81173562Y-49802542D01*
X81382634Y-50308536D01*
X81769428Y-50696005D01*
X82275056Y-50905960D01*
X82822542Y-50906438D01*
X83328536Y-50697366D01*
X83716005Y-50310572D01*
X83925960Y-49804944D01*
X83926438Y-49257458D01*
X83717366Y-48751464D01*
X83330572Y-48363995D01*
X82824944Y-48154040D01*
X82277458Y-48153562D01*
X81771464Y-48362634D01*
X81383995Y-48749428D01*
X81174040Y-49255056D01*
X81173562Y-49802542D01*
X71198949Y-49802542D01*
X71253161Y-49530000D01*
X71148404Y-49003351D01*
X70850081Y-48556880D01*
X70403610Y-48258557D01*
X69876961Y-48153800D01*
X69823039Y-48153800D01*
X69296390Y-48258557D01*
X68849919Y-48556880D01*
X68551596Y-49003351D01*
X68446839Y-49530000D01*
X26025730Y-49530000D01*
X26025730Y-47282346D01*
X105203545Y-47282346D01*
X105427809Y-47825107D01*
X105842708Y-48240731D01*
X106385078Y-48465943D01*
X106972346Y-48466455D01*
X107515107Y-48242191D01*
X107753923Y-48003791D01*
X107772690Y-48103527D01*
X107898884Y-48299638D01*
X108091434Y-48431202D01*
X108320000Y-48477488D01*
X110120000Y-48477488D01*
X110333527Y-48437310D01*
X110529638Y-48311116D01*
X110661202Y-48118566D01*
X110707488Y-47890000D01*
X110707488Y-46090000D01*
X110667310Y-45876473D01*
X110541116Y-45680362D01*
X110348566Y-45548798D01*
X110120000Y-45502512D01*
X108320000Y-45502512D01*
X108106473Y-45542690D01*
X107910362Y-45668884D01*
X107778798Y-45861434D01*
X107755262Y-45977655D01*
X107517292Y-45739269D01*
X106974922Y-45514057D01*
X106387654Y-45513545D01*
X105844893Y-45737809D01*
X105429269Y-46152708D01*
X105204057Y-46695078D01*
X105203545Y-47282346D01*
X26025730Y-47282346D01*
X26025730Y-46002622D01*
X27477852Y-46002622D01*
X27694658Y-46527331D01*
X28095757Y-46929131D01*
X28620087Y-47146852D01*
X29187822Y-47147348D01*
X29712531Y-46930542D01*
X30114331Y-46529443D01*
X30332052Y-46005113D01*
X30332054Y-46002622D01*
X34488252Y-46002622D01*
X34705058Y-46527331D01*
X35106157Y-46929131D01*
X35630487Y-47146852D01*
X36198222Y-47147348D01*
X36722931Y-46930542D01*
X37124731Y-46529443D01*
X37342452Y-46005113D01*
X37342948Y-45437378D01*
X37126142Y-44912669D01*
X36956117Y-44742346D01*
X74723545Y-44742346D01*
X74947809Y-45285107D01*
X75362708Y-45700731D01*
X75905078Y-45925943D01*
X76492346Y-45926455D01*
X77035107Y-45702191D01*
X77450731Y-45287292D01*
X77675943Y-44744922D01*
X77676455Y-44157654D01*
X77452191Y-43614893D01*
X77221181Y-43383480D01*
X77426391Y-43298479D01*
X77588479Y-43136391D01*
X77676200Y-42924613D01*
X77676200Y-42231850D01*
X77532150Y-42087800D01*
X76377800Y-42087800D01*
X76377800Y-42107800D01*
X76022200Y-42107800D01*
X76022200Y-42087800D01*
X74867850Y-42087800D01*
X74723800Y-42231850D01*
X74723800Y-42924613D01*
X74811521Y-43136391D01*
X74973609Y-43298479D01*
X75178875Y-43383503D01*
X74949269Y-43612708D01*
X74724057Y-44155078D01*
X74723545Y-44742346D01*
X36956117Y-44742346D01*
X36725043Y-44510869D01*
X36200713Y-44293148D01*
X35632978Y-44292652D01*
X35108269Y-44509458D01*
X34706469Y-44910557D01*
X34488748Y-45434887D01*
X34488252Y-46002622D01*
X30332054Y-46002622D01*
X30332548Y-45437378D01*
X30115742Y-44912669D01*
X29714643Y-44510869D01*
X29190313Y-44293148D01*
X28622578Y-44292652D01*
X28097869Y-44509458D01*
X27696069Y-44910557D01*
X27478348Y-45434887D01*
X27477852Y-46002622D01*
X26025730Y-46002622D01*
X26025730Y-41883039D01*
X100223800Y-41883039D01*
X100223800Y-41936961D01*
X100328557Y-42463610D01*
X100626880Y-42910081D01*
X101073351Y-43208404D01*
X101600000Y-43313161D01*
X102126649Y-43208404D01*
X102573120Y-42910081D01*
X102871443Y-42463610D01*
X102976200Y-41936961D01*
X102976200Y-41883039D01*
X102917341Y-41587134D01*
X103161275Y-41343200D01*
X120358726Y-41343200D01*
X120563859Y-41548334D01*
X120430206Y-41870206D01*
X120294944Y-41814040D01*
X119747458Y-41813562D01*
X119241464Y-42022634D01*
X118853995Y-42409428D01*
X118644040Y-42915056D01*
X118643562Y-43462542D01*
X118852634Y-43968536D01*
X119088759Y-44205073D01*
X118853995Y-44439428D01*
X118644040Y-44945056D01*
X118643562Y-45492542D01*
X118852634Y-45998536D01*
X119088759Y-46235073D01*
X118853995Y-46469428D01*
X118644040Y-46975056D01*
X118643562Y-47522542D01*
X118852634Y-48028536D01*
X119088759Y-48265073D01*
X118853995Y-48499428D01*
X118644040Y-49005056D01*
X118643562Y-49552542D01*
X118852634Y-50058536D01*
X119239428Y-50446005D01*
X119745056Y-50655960D01*
X120292542Y-50656438D01*
X120798536Y-50447366D01*
X121186005Y-50060572D01*
X121389794Y-49569794D01*
X121525056Y-49625960D01*
X122072542Y-49626438D01*
X122578536Y-49417366D01*
X122966005Y-49030572D01*
X123175960Y-48524944D01*
X123176438Y-47977458D01*
X122967366Y-47471464D01*
X122731241Y-47234927D01*
X122966005Y-47000572D01*
X123175960Y-46494944D01*
X123176438Y-45947458D01*
X122967366Y-45441464D01*
X122731241Y-45204927D01*
X122966005Y-44970572D01*
X123175960Y-44464944D01*
X123176438Y-43917458D01*
X122967366Y-43411464D01*
X122731241Y-43174927D01*
X122966005Y-42940572D01*
X123175960Y-42434944D01*
X123176438Y-41887458D01*
X122967366Y-41381464D01*
X122580572Y-40993995D01*
X122074944Y-40784040D01*
X121788264Y-40783790D01*
X121147237Y-40142763D01*
X120919103Y-39990328D01*
X120650000Y-39936800D01*
X102870000Y-39936800D01*
X102600897Y-39990328D01*
X102372762Y-40142763D01*
X101940881Y-40574644D01*
X101600000Y-40506839D01*
X101073351Y-40611596D01*
X100626880Y-40909919D01*
X100328557Y-41356390D01*
X100223800Y-41883039D01*
X26025730Y-41883039D01*
X26025730Y-40895387D01*
X74723800Y-40895387D01*
X74723800Y-41588150D01*
X74867850Y-41732200D01*
X76022200Y-41732200D01*
X76022200Y-40577850D01*
X76377800Y-40577850D01*
X76377800Y-41732200D01*
X77532150Y-41732200D01*
X77676200Y-41588150D01*
X77676200Y-40895387D01*
X77588479Y-40683609D01*
X77426391Y-40521521D01*
X77214614Y-40433800D01*
X76521850Y-40433800D01*
X76377800Y-40577850D01*
X76022200Y-40577850D01*
X75878150Y-40433800D01*
X75185386Y-40433800D01*
X74973609Y-40521521D01*
X74811521Y-40683609D01*
X74723800Y-40895387D01*
X26025730Y-40895387D01*
X26025730Y-36068000D01*
X44370512Y-36068000D01*
X44370512Y-37592000D01*
X44410690Y-37805527D01*
X44536884Y-38001638D01*
X44729434Y-38133202D01*
X44958000Y-38179488D01*
X46482000Y-38179488D01*
X46695527Y-38139310D01*
X46891638Y-38013116D01*
X47023202Y-37820566D01*
X47069488Y-37592000D01*
X47069488Y-37453010D01*
X47124868Y-37587039D01*
X47500981Y-37963809D01*
X47992648Y-38167967D01*
X48525017Y-38168432D01*
X49017039Y-37965132D01*
X49393809Y-37589019D01*
X49530083Y-37260835D01*
X49664868Y-37587039D01*
X50040981Y-37963809D01*
X50532648Y-38167967D01*
X51065017Y-38168432D01*
X51557039Y-37965132D01*
X51933809Y-37589019D01*
X52070083Y-37260835D01*
X52204868Y-37587039D01*
X52580981Y-37963809D01*
X53072648Y-38167967D01*
X53605017Y-38168432D01*
X54097039Y-37965132D01*
X54473809Y-37589019D01*
X54610083Y-37260835D01*
X54744868Y-37587039D01*
X55120981Y-37963809D01*
X55612648Y-38167967D01*
X56145017Y-38168432D01*
X56637039Y-37965132D01*
X57013809Y-37589019D01*
X57150083Y-37260835D01*
X57284868Y-37587039D01*
X57660981Y-37963809D01*
X58152648Y-38167967D01*
X58685017Y-38168432D01*
X59177039Y-37965132D01*
X59553809Y-37589019D01*
X59690083Y-37260835D01*
X59824868Y-37587039D01*
X60200981Y-37963809D01*
X60692648Y-38167967D01*
X61225017Y-38168432D01*
X61717039Y-37965132D01*
X62093809Y-37589019D01*
X62230083Y-37260835D01*
X62364868Y-37587039D01*
X62740981Y-37963809D01*
X63232648Y-38167967D01*
X63765017Y-38168432D01*
X64257039Y-37965132D01*
X64633809Y-37589019D01*
X64770083Y-37260835D01*
X64904868Y-37587039D01*
X65280981Y-37963809D01*
X65772648Y-38167967D01*
X66305017Y-38168432D01*
X66797039Y-37965132D01*
X67173809Y-37589019D01*
X67310083Y-37260835D01*
X67444868Y-37587039D01*
X67820981Y-37963809D01*
X68312648Y-38167967D01*
X68845017Y-38168432D01*
X69337039Y-37965132D01*
X69713809Y-37589019D01*
X69850083Y-37260835D01*
X69984868Y-37587039D01*
X70360981Y-37963809D01*
X70852648Y-38167967D01*
X71385017Y-38168432D01*
X71877039Y-37965132D01*
X72253809Y-37589019D01*
X72390083Y-37260835D01*
X72524868Y-37587039D01*
X72900981Y-37963809D01*
X73392648Y-38167967D01*
X73925017Y-38168432D01*
X74417039Y-37965132D01*
X74793809Y-37589019D01*
X74930083Y-37260835D01*
X75064868Y-37587039D01*
X75440981Y-37963809D01*
X75932648Y-38167967D01*
X76465017Y-38168432D01*
X76957039Y-37965132D01*
X77333809Y-37589019D01*
X77470083Y-37260835D01*
X77604868Y-37587039D01*
X77980981Y-37963809D01*
X78472648Y-38167967D01*
X79005017Y-38168432D01*
X79497039Y-37965132D01*
X79873809Y-37589019D01*
X80010083Y-37260835D01*
X80144868Y-37587039D01*
X80520981Y-37963809D01*
X81012648Y-38167967D01*
X81545017Y-38168432D01*
X82037039Y-37965132D01*
X82413809Y-37589019D01*
X82550083Y-37260835D01*
X82684868Y-37587039D01*
X83060981Y-37963809D01*
X83552648Y-38167967D01*
X84085017Y-38168432D01*
X84577039Y-37965132D01*
X84953809Y-37589019D01*
X85090083Y-37260835D01*
X85224868Y-37587039D01*
X85600981Y-37963809D01*
X86092648Y-38167967D01*
X86625017Y-38168432D01*
X87117039Y-37965132D01*
X87493809Y-37589019D01*
X87630083Y-37260835D01*
X87764868Y-37587039D01*
X88140981Y-37963809D01*
X88632648Y-38167967D01*
X89165017Y-38168432D01*
X89657039Y-37965132D01*
X90033809Y-37589019D01*
X90170083Y-37260835D01*
X90304868Y-37587039D01*
X90680981Y-37963809D01*
X91172648Y-38167967D01*
X91705017Y-38168432D01*
X92197039Y-37965132D01*
X92573809Y-37589019D01*
X92710083Y-37260835D01*
X92844868Y-37587039D01*
X93220981Y-37963809D01*
X93712648Y-38167967D01*
X94245017Y-38168432D01*
X94737039Y-37965132D01*
X95113809Y-37589019D01*
X95250083Y-37260835D01*
X95384868Y-37587039D01*
X95760981Y-37963809D01*
X96252648Y-38167967D01*
X96785017Y-38168432D01*
X97277039Y-37965132D01*
X97653809Y-37589019D01*
X97790083Y-37260835D01*
X97924868Y-37587039D01*
X98300981Y-37963809D01*
X98792648Y-38167967D01*
X99325017Y-38168432D01*
X99817039Y-37965132D01*
X100193809Y-37589019D01*
X100330083Y-37260835D01*
X100464868Y-37587039D01*
X100840981Y-37963809D01*
X101332648Y-38167967D01*
X101865017Y-38168432D01*
X102357039Y-37965132D01*
X102733809Y-37589019D01*
X102870083Y-37260835D01*
X103004868Y-37587039D01*
X103380981Y-37963809D01*
X103872648Y-38167967D01*
X104405017Y-38168432D01*
X104897039Y-37965132D01*
X105052997Y-37809445D01*
X105952002Y-37809445D01*
X106028697Y-38028933D01*
X106537087Y-38186912D01*
X107067233Y-38138314D01*
X107331303Y-38028933D01*
X107368684Y-37921954D01*
X119103509Y-37921954D01*
X119358158Y-38538251D01*
X119829269Y-39010185D01*
X120445120Y-39265909D01*
X121111954Y-39266491D01*
X121728251Y-39011842D01*
X122200185Y-38540731D01*
X122455909Y-37924880D01*
X122456491Y-37258046D01*
X122201842Y-36641749D01*
X121730731Y-36169815D01*
X121114880Y-35914091D01*
X120448046Y-35913509D01*
X119831749Y-36168158D01*
X119359815Y-36639269D01*
X119104091Y-37255120D01*
X119103509Y-37921954D01*
X107368684Y-37921954D01*
X107407998Y-37809445D01*
X106680000Y-37081447D01*
X105952002Y-37809445D01*
X105052997Y-37809445D01*
X105273809Y-37589019D01*
X105399902Y-37285353D01*
X105481067Y-37481303D01*
X105700555Y-37557998D01*
X106428553Y-36830000D01*
X106931447Y-36830000D01*
X107659445Y-37557998D01*
X107878933Y-37481303D01*
X108036912Y-36972913D01*
X107988314Y-36442767D01*
X107878933Y-36178697D01*
X107659445Y-36102002D01*
X106931447Y-36830000D01*
X106428553Y-36830000D01*
X105700555Y-36102002D01*
X105481067Y-36178697D01*
X105411424Y-36402813D01*
X105275132Y-36072961D01*
X104899019Y-35696191D01*
X104570835Y-35559917D01*
X104897039Y-35425132D01*
X105273809Y-35049019D01*
X105410083Y-34720835D01*
X105544868Y-35047039D01*
X105920981Y-35423809D01*
X106224647Y-35549902D01*
X106028697Y-35631067D01*
X105952002Y-35850555D01*
X106680000Y-36578553D01*
X107407998Y-35850555D01*
X107331303Y-35631067D01*
X107107187Y-35561424D01*
X107437039Y-35425132D01*
X107813809Y-35049019D01*
X108017967Y-34557352D01*
X108018432Y-34024983D01*
X107815132Y-33532961D01*
X107439019Y-33156191D01*
X106947352Y-32952033D01*
X106414983Y-32951568D01*
X105922961Y-33154868D01*
X105546191Y-33530981D01*
X105409917Y-33859165D01*
X105275132Y-33532961D01*
X104899019Y-33156191D01*
X104407352Y-32952033D01*
X103874983Y-32951568D01*
X103382961Y-33154868D01*
X103006191Y-33530981D01*
X102869917Y-33859165D01*
X102735132Y-33532961D01*
X102359019Y-33156191D01*
X101867352Y-32952033D01*
X101334983Y-32951568D01*
X100842961Y-33154868D01*
X100466191Y-33530981D01*
X100329917Y-33859165D01*
X100195132Y-33532961D01*
X99819019Y-33156191D01*
X99327352Y-32952033D01*
X98794983Y-32951568D01*
X98302961Y-33154868D01*
X97926191Y-33530981D01*
X97789917Y-33859165D01*
X97655132Y-33532961D01*
X97279019Y-33156191D01*
X96787352Y-32952033D01*
X96254983Y-32951568D01*
X95762961Y-33154868D01*
X95386191Y-33530981D01*
X95249917Y-33859165D01*
X95115132Y-33532961D01*
X94739019Y-33156191D01*
X94247352Y-32952033D01*
X93714983Y-32951568D01*
X93222961Y-33154868D01*
X92846191Y-33530981D01*
X92709917Y-33859165D01*
X92575132Y-33532961D01*
X92199019Y-33156191D01*
X91707352Y-32952033D01*
X91174983Y-32951568D01*
X90682961Y-33154868D01*
X90306191Y-33530981D01*
X90169917Y-33859165D01*
X90035132Y-33532961D01*
X89659019Y-33156191D01*
X89167352Y-32952033D01*
X88634983Y-32951568D01*
X88142961Y-33154868D01*
X87766191Y-33530981D01*
X87629917Y-33859165D01*
X87495132Y-33532961D01*
X87119019Y-33156191D01*
X86627352Y-32952033D01*
X86094983Y-32951568D01*
X85602961Y-33154868D01*
X85226191Y-33530981D01*
X85089917Y-33859165D01*
X84955132Y-33532961D01*
X84579019Y-33156191D01*
X84087352Y-32952033D01*
X83554983Y-32951568D01*
X83062961Y-33154868D01*
X82686191Y-33530981D01*
X82549917Y-33859165D01*
X82415132Y-33532961D01*
X82039019Y-33156191D01*
X81547352Y-32952033D01*
X81014983Y-32951568D01*
X80522961Y-33154868D01*
X80146191Y-33530981D01*
X80009917Y-33859165D01*
X79875132Y-33532961D01*
X79499019Y-33156191D01*
X79007352Y-32952033D01*
X78474983Y-32951568D01*
X77982961Y-33154868D01*
X77606191Y-33530981D01*
X77469917Y-33859165D01*
X77335132Y-33532961D01*
X76959019Y-33156191D01*
X76467352Y-32952033D01*
X75934983Y-32951568D01*
X75442961Y-33154868D01*
X75066191Y-33530981D01*
X74929917Y-33859165D01*
X74795132Y-33532961D01*
X74419019Y-33156191D01*
X73927352Y-32952033D01*
X73394983Y-32951568D01*
X72902961Y-33154868D01*
X72526191Y-33530981D01*
X72389917Y-33859165D01*
X72255132Y-33532961D01*
X71879019Y-33156191D01*
X71387352Y-32952033D01*
X70854983Y-32951568D01*
X70362961Y-33154868D01*
X69986191Y-33530981D01*
X69849917Y-33859165D01*
X69715132Y-33532961D01*
X69339019Y-33156191D01*
X68847352Y-32952033D01*
X68314983Y-32951568D01*
X67822961Y-33154868D01*
X67446191Y-33530981D01*
X67309917Y-33859165D01*
X67175132Y-33532961D01*
X66799019Y-33156191D01*
X66307352Y-32952033D01*
X65774983Y-32951568D01*
X65282961Y-33154868D01*
X64906191Y-33530981D01*
X64769917Y-33859165D01*
X64635132Y-33532961D01*
X64259019Y-33156191D01*
X63767352Y-32952033D01*
X63234983Y-32951568D01*
X62742961Y-33154868D01*
X62366191Y-33530981D01*
X62229917Y-33859165D01*
X62095132Y-33532961D01*
X61719019Y-33156191D01*
X61227352Y-32952033D01*
X60694983Y-32951568D01*
X60202961Y-33154868D01*
X59826191Y-33530981D01*
X59689917Y-33859165D01*
X59555132Y-33532961D01*
X59179019Y-33156191D01*
X58687352Y-32952033D01*
X58154983Y-32951568D01*
X57662961Y-33154868D01*
X57286191Y-33530981D01*
X57149917Y-33859165D01*
X57015132Y-33532961D01*
X56639019Y-33156191D01*
X56147352Y-32952033D01*
X55614983Y-32951568D01*
X55122961Y-33154868D01*
X54746191Y-33530981D01*
X54609917Y-33859165D01*
X54475132Y-33532961D01*
X54099019Y-33156191D01*
X53607352Y-32952033D01*
X53074983Y-32951568D01*
X52582961Y-33154868D01*
X52206191Y-33530981D01*
X52069917Y-33859165D01*
X51935132Y-33532961D01*
X51559019Y-33156191D01*
X51067352Y-32952033D01*
X50534983Y-32951568D01*
X50042961Y-33154868D01*
X49666191Y-33530981D01*
X49529917Y-33859165D01*
X49395132Y-33532961D01*
X49019019Y-33156191D01*
X48527352Y-32952033D01*
X47994983Y-32951568D01*
X47502961Y-33154868D01*
X47126191Y-33530981D01*
X46989917Y-33859165D01*
X46855132Y-33532961D01*
X46479019Y-33156191D01*
X45987352Y-32952033D01*
X45454983Y-32951568D01*
X44962961Y-33154868D01*
X44586191Y-33530981D01*
X44382033Y-34022648D01*
X44381568Y-34555017D01*
X44584868Y-35047039D01*
X44960981Y-35423809D01*
X45097537Y-35480512D01*
X44958000Y-35480512D01*
X44744473Y-35520690D01*
X44548362Y-35646884D01*
X44416798Y-35839434D01*
X44370512Y-36068000D01*
X26025730Y-36068000D01*
X26025730Y-32557249D01*
X27673094Y-32557249D01*
X28292351Y-34055965D01*
X29438004Y-35203619D01*
X30935637Y-35825490D01*
X32557249Y-35826906D01*
X34055965Y-35207649D01*
X35203619Y-34061996D01*
X35825490Y-32564363D01*
X35825496Y-32557249D01*
X116573094Y-32557249D01*
X117192351Y-34055965D01*
X118338004Y-35203619D01*
X119835637Y-35825490D01*
X121457249Y-35826906D01*
X122955965Y-35207649D01*
X124103619Y-34061996D01*
X124725490Y-32564363D01*
X124726906Y-30942751D01*
X124107649Y-29444035D01*
X122961996Y-28296381D01*
X121464363Y-27674510D01*
X119842751Y-27673094D01*
X118344035Y-28292351D01*
X117196381Y-29438004D01*
X116574510Y-30935637D01*
X116573094Y-32557249D01*
X35825496Y-32557249D01*
X35826906Y-30942751D01*
X35207649Y-29444035D01*
X34061996Y-28296381D01*
X32564363Y-27674510D01*
X30942751Y-27673094D01*
X29444035Y-28292351D01*
X28296381Y-29438004D01*
X27674510Y-30935637D01*
X27673094Y-32557249D01*
X26025730Y-32557249D01*
X26025730Y-30541630D01*
X26376117Y-28780114D01*
X27339024Y-27339024D01*
X28780116Y-26376117D01*
X30541630Y-26025730D01*
X121858370Y-26025730D01*
X123619886Y-26376117D01*
X123619886Y-26376117D01*
G37*
X123619886Y-26376117D02*
X125060976Y-27339024D01*
X126023883Y-28780116D01*
X126374270Y-30541630D01*
X126374270Y-38529151D01*
X126207175Y-38124749D01*
X125588508Y-37505002D01*
X124779767Y-37169183D01*
X123904075Y-37168419D01*
X123094749Y-37502825D01*
X122475002Y-38121492D01*
X122139183Y-38930233D01*
X122138419Y-39805925D01*
X122472825Y-40615251D01*
X123091492Y-41234998D01*
X123900233Y-41570817D01*
X124775925Y-41571581D01*
X125585251Y-41237175D01*
X126204998Y-40618508D01*
X126374270Y-40210856D01*
X126374270Y-51229151D01*
X126207175Y-50824749D01*
X125588508Y-50205002D01*
X124779767Y-49869183D01*
X123904075Y-49868419D01*
X123094749Y-50202825D01*
X122475002Y-50821492D01*
X122139183Y-51630233D01*
X122138419Y-52505925D01*
X122472825Y-53315251D01*
X123091492Y-53934998D01*
X123900233Y-54270817D01*
X124775925Y-54271581D01*
X125585251Y-53937175D01*
X126204998Y-53318508D01*
X126374270Y-52910856D01*
X126374270Y-62659151D01*
X126207175Y-62254749D01*
X125588508Y-61635002D01*
X124779767Y-61299183D01*
X123904075Y-61298419D01*
X123094749Y-61632825D01*
X122475002Y-62251492D01*
X122139183Y-63060233D01*
X122138419Y-63935925D01*
X122472825Y-64745251D01*
X123091492Y-65364998D01*
X123900233Y-65700817D01*
X124775925Y-65701581D01*
X125585251Y-65367175D01*
X126204998Y-64748508D01*
X126374270Y-64340856D01*
X126374270Y-75359151D01*
X126207175Y-74954749D01*
X125588508Y-74335002D01*
X124779767Y-73999183D01*
X123904075Y-73998419D01*
X123094749Y-74332825D01*
X122475002Y-74951492D01*
X122139183Y-75760233D01*
X122138419Y-76635925D01*
X122472825Y-77445251D01*
X123091492Y-78064998D01*
X123900233Y-78400817D01*
X124775925Y-78401581D01*
X125585251Y-78067175D01*
X126204998Y-77448508D01*
X126374270Y-77040856D01*
X126374270Y-86789151D01*
X126207175Y-86384749D01*
X125588508Y-85765002D01*
X124779767Y-85429183D01*
X123904075Y-85428419D01*
X123094749Y-85762825D01*
X122475002Y-86381492D01*
X122139183Y-87190233D01*
X122138419Y-88065925D01*
X122472825Y-88875251D01*
X123091492Y-89494998D01*
X123900233Y-89830817D01*
X124775925Y-89831581D01*
X125585251Y-89497175D01*
X126204998Y-88878508D01*
X126374270Y-88470856D01*
X126374270Y-99489151D01*
X126207175Y-99084749D01*
X125588508Y-98465002D01*
X124779767Y-98129183D01*
X123904075Y-98128419D01*
X123094749Y-98462825D01*
X122475002Y-99081492D01*
X122139183Y-99890233D01*
X122138419Y-100765925D01*
X122472825Y-101575251D01*
X123091492Y-102194998D01*
X123900233Y-102530817D01*
X124775925Y-102531581D01*
X125585251Y-102197175D01*
X126204998Y-101578508D01*
X126374270Y-101170856D01*
X126374270Y-110919151D01*
X126207175Y-110514749D01*
X125588508Y-109895002D01*
X124779767Y-109559183D01*
X123904075Y-109558419D01*
X123094749Y-109892825D01*
X122475002Y-110511492D01*
X122139183Y-111320233D01*
X122138419Y-112195925D01*
X122472825Y-113005251D01*
X123091492Y-113624998D01*
X123900233Y-113960817D01*
X124775925Y-113961581D01*
X125585251Y-113627175D01*
X126204998Y-113008508D01*
X126374270Y-112600856D01*
X126374270Y-123619151D01*
X126207175Y-123214749D01*
X125588508Y-122595002D01*
X124779767Y-122259183D01*
X123904075Y-122258419D01*
X123094749Y-122592825D01*
X122475002Y-123211492D01*
X122139183Y-124020233D01*
X122138419Y-124895925D01*
X122472825Y-125705251D01*
X123091492Y-126324998D01*
X123900233Y-126660817D01*
X124775925Y-126661581D01*
X125585251Y-126327175D01*
X126204998Y-125708508D01*
X126374270Y-125300856D01*
X126374270Y-182818370D01*
X126023883Y-184579884D01*
X125060976Y-186020976D01*
X123619886Y-186983883D01*
X121858370Y-187334270D01*
X30541630Y-187334270D01*
X28780116Y-186983883D01*
X27339024Y-186020976D01*
X26376117Y-184579886D01*
X26025730Y-182818370D01*
X26025730Y-182417249D01*
X27673094Y-182417249D01*
X28292351Y-183915965D01*
X29438004Y-185063619D01*
X30935637Y-185685490D01*
X32557249Y-185686906D01*
X34055965Y-185067649D01*
X35203619Y-183921996D01*
X35825490Y-182424363D01*
X35825496Y-182417249D01*
X116573094Y-182417249D01*
X117192351Y-183915965D01*
X118338004Y-185063619D01*
X119835637Y-185685490D01*
X121457249Y-185686906D01*
X122955965Y-185067649D01*
X124103619Y-183921996D01*
X124725490Y-182424363D01*
X124726906Y-180802751D01*
X124107649Y-179304035D01*
X122961996Y-178156381D01*
X121464363Y-177534510D01*
X119842751Y-177533094D01*
X118344035Y-178152351D01*
X117196381Y-179298004D01*
X116574510Y-180795637D01*
X116573094Y-182417249D01*
X35825496Y-182417249D01*
X35826906Y-180802751D01*
X35207649Y-179304035D01*
X34061996Y-178156381D01*
X32564363Y-177534510D01*
X30942751Y-177533094D01*
X29444035Y-178152351D01*
X28296381Y-179298004D01*
X27674510Y-180795637D01*
X27673094Y-182417249D01*
X26025730Y-182417249D01*
X26025730Y-170462622D01*
X27477852Y-170462622D01*
X27694658Y-170987331D01*
X28095757Y-171389131D01*
X28620087Y-171606852D01*
X29187822Y-171607348D01*
X29712531Y-171390542D01*
X30114331Y-170989443D01*
X30332052Y-170465113D01*
X30332054Y-170462622D01*
X34488252Y-170462622D01*
X34705058Y-170987331D01*
X35106157Y-171389131D01*
X35630487Y-171606852D01*
X36198222Y-171607348D01*
X36722931Y-171390542D01*
X37124731Y-170989443D01*
X37342452Y-170465113D01*
X37342948Y-169897378D01*
X37126142Y-169372669D01*
X36725043Y-168970869D01*
X36200713Y-168753148D01*
X35632978Y-168752652D01*
X35108269Y-168969458D01*
X34706469Y-169370557D01*
X34488748Y-169894887D01*
X34488252Y-170462622D01*
X30332054Y-170462622D01*
X30332548Y-169897378D01*
X30115742Y-169372669D01*
X29714643Y-168970869D01*
X29190313Y-168753148D01*
X28622578Y-168752652D01*
X28097869Y-168969458D01*
X27696069Y-169370557D01*
X27478348Y-169894887D01*
X27477852Y-170462622D01*
X26025730Y-170462622D01*
X26025730Y-152682622D01*
X27477852Y-152682622D01*
X27694658Y-153207331D01*
X28095757Y-153609131D01*
X28620087Y-153826852D01*
X29187822Y-153827348D01*
X29712531Y-153610542D01*
X30114331Y-153209443D01*
X30332052Y-152685113D01*
X30332054Y-152682622D01*
X34488252Y-152682622D01*
X34705058Y-153207331D01*
X35106157Y-153609131D01*
X35630487Y-153826852D01*
X36198222Y-153827348D01*
X36722931Y-153610542D01*
X37124731Y-153209443D01*
X37342452Y-152685113D01*
X37342948Y-152117378D01*
X37126142Y-151592669D01*
X36725043Y-151190869D01*
X36200713Y-150973148D01*
X35632978Y-150972652D01*
X35108269Y-151189458D01*
X34706469Y-151590557D01*
X34488748Y-152114887D01*
X34488252Y-152682622D01*
X30332054Y-152682622D01*
X30332548Y-152117378D01*
X30115742Y-151592669D01*
X29714643Y-151190869D01*
X29190313Y-150973148D01*
X28622578Y-150972652D01*
X28097869Y-151189458D01*
X27696069Y-151590557D01*
X27478348Y-152114887D01*
X27477852Y-152682622D01*
X26025730Y-152682622D01*
X26025730Y-134902622D01*
X27477852Y-134902622D01*
X27694658Y-135427331D01*
X28095757Y-135829131D01*
X28620087Y-136046852D01*
X29187822Y-136047348D01*
X29712531Y-135830542D01*
X30114331Y-135429443D01*
X30332052Y-134905113D01*
X30332054Y-134902622D01*
X34488252Y-134902622D01*
X34705058Y-135427331D01*
X35106157Y-135829131D01*
X35630487Y-136046852D01*
X36198222Y-136047348D01*
X36722931Y-135830542D01*
X37124731Y-135429443D01*
X37342452Y-134905113D01*
X37342948Y-134337378D01*
X37126142Y-133812669D01*
X36725043Y-133410869D01*
X36200713Y-133193148D01*
X35632978Y-133192652D01*
X35108269Y-133409458D01*
X34706469Y-133810557D01*
X34488748Y-134334887D01*
X34488252Y-134902622D01*
X30332054Y-134902622D01*
X30332548Y-134337378D01*
X30115742Y-133812669D01*
X29714643Y-133410869D01*
X29190313Y-133193148D01*
X28622578Y-133192652D01*
X28097869Y-133409458D01*
X27696069Y-133810557D01*
X27478348Y-134334887D01*
X27477852Y-134902622D01*
X26025730Y-134902622D01*
X26025730Y-127272542D01*
X98953562Y-127272542D01*
X99162634Y-127778536D01*
X99549428Y-128166005D01*
X100055056Y-128375960D01*
X100602542Y-128376438D01*
X101108536Y-128167366D01*
X101496005Y-127780572D01*
X101705960Y-127274944D01*
X101706438Y-126727458D01*
X101642186Y-126571954D01*
X119103509Y-126571954D01*
X119358158Y-127188251D01*
X119829269Y-127660185D01*
X120445120Y-127915909D01*
X121111954Y-127916491D01*
X121728251Y-127661842D01*
X122200185Y-127190731D01*
X122455909Y-126574880D01*
X122456491Y-125908046D01*
X122201842Y-125291749D01*
X121730731Y-124819815D01*
X121114880Y-124564091D01*
X120448046Y-124563509D01*
X119831749Y-124818158D01*
X119359815Y-125289269D01*
X119104091Y-125905120D01*
X119103509Y-126571954D01*
X101642186Y-126571954D01*
X101497366Y-126221464D01*
X101110572Y-125833995D01*
X100604944Y-125624040D01*
X100057458Y-125623562D01*
X99551464Y-125832634D01*
X99163995Y-126219428D01*
X98954040Y-126725056D01*
X98953562Y-127272542D01*
X26025730Y-127272542D01*
X26025730Y-119672346D01*
X105203545Y-119672346D01*
X105427809Y-120215107D01*
X105842708Y-120630731D01*
X106385078Y-120855943D01*
X106972346Y-120856455D01*
X107515107Y-120632191D01*
X107753923Y-120393791D01*
X107772690Y-120493527D01*
X107898884Y-120689638D01*
X108091434Y-120821202D01*
X108320000Y-120867488D01*
X110120000Y-120867488D01*
X110333527Y-120827310D01*
X110529638Y-120701116D01*
X110661202Y-120508566D01*
X110707488Y-120280000D01*
X110707488Y-118480000D01*
X110667310Y-118266473D01*
X110541116Y-118070362D01*
X110348566Y-117938798D01*
X110120000Y-117892512D01*
X108320000Y-117892512D01*
X108106473Y-117932690D01*
X107910362Y-118058884D01*
X107778798Y-118251434D01*
X107755262Y-118367655D01*
X107517292Y-118129269D01*
X106974922Y-117904057D01*
X106387654Y-117903545D01*
X105844893Y-118127809D01*
X105429269Y-118542708D01*
X105204057Y-119085078D01*
X105203545Y-119672346D01*
X26025730Y-119672346D01*
X26025730Y-117122622D01*
X27477852Y-117122622D01*
X27694658Y-117647331D01*
X28095757Y-118049131D01*
X28620087Y-118266852D01*
X29187822Y-118267348D01*
X29712531Y-118050542D01*
X30114331Y-117649443D01*
X30332052Y-117125113D01*
X30332054Y-117122622D01*
X34488252Y-117122622D01*
X34705058Y-117647331D01*
X35106157Y-118049131D01*
X35630487Y-118266852D01*
X36198222Y-118267348D01*
X36722931Y-118050542D01*
X37124731Y-117649443D01*
X37342452Y-117125113D01*
X37342948Y-116557378D01*
X37126142Y-116032669D01*
X36725043Y-115630869D01*
X36200713Y-115413148D01*
X35632978Y-115412652D01*
X35108269Y-115629458D01*
X34706469Y-116030557D01*
X34488748Y-116554887D01*
X34488252Y-117122622D01*
X30332054Y-117122622D01*
X30332548Y-116557378D01*
X30115742Y-116032669D01*
X29714643Y-115630869D01*
X29190313Y-115413148D01*
X28622578Y-115412652D01*
X28097869Y-115629458D01*
X27696069Y-116030557D01*
X27478348Y-116554887D01*
X27477852Y-117122622D01*
X26025730Y-117122622D01*
X26025730Y-114273039D01*
X98953800Y-114273039D01*
X98953800Y-114326961D01*
X99058557Y-114853610D01*
X99356880Y-115300081D01*
X99803351Y-115598404D01*
X100330000Y-115703161D01*
X100856649Y-115598404D01*
X101303120Y-115300081D01*
X101601443Y-114853610D01*
X101706200Y-114326961D01*
X101706200Y-114273039D01*
X101647341Y-113977134D01*
X101891275Y-113733200D01*
X120358726Y-113733200D01*
X120563859Y-113938334D01*
X120430206Y-114260206D01*
X120294944Y-114204040D01*
X119747458Y-114203562D01*
X119241464Y-114412634D01*
X118853995Y-114799428D01*
X118644040Y-115305056D01*
X118643562Y-115852542D01*
X118852634Y-116358536D01*
X119088759Y-116595073D01*
X118853995Y-116829428D01*
X118644040Y-117335056D01*
X118643562Y-117882542D01*
X118852634Y-118388536D01*
X119088759Y-118625073D01*
X118853995Y-118859428D01*
X118644040Y-119365056D01*
X118643562Y-119912542D01*
X118852634Y-120418536D01*
X119088759Y-120655073D01*
X118853995Y-120889428D01*
X118644040Y-121395056D01*
X118643562Y-121942542D01*
X118852634Y-122448536D01*
X119239428Y-122836005D01*
X119745056Y-123045960D01*
X120292542Y-123046438D01*
X120798536Y-122837366D01*
X121186005Y-122450572D01*
X121389794Y-121959794D01*
X121525056Y-122015960D01*
X122072542Y-122016438D01*
X122578536Y-121807366D01*
X122966005Y-121420572D01*
X123175960Y-120914944D01*
X123176438Y-120367458D01*
X122967366Y-119861464D01*
X122731241Y-119624927D01*
X122966005Y-119390572D01*
X123175960Y-118884944D01*
X123176438Y-118337458D01*
X122967366Y-117831464D01*
X122731241Y-117594927D01*
X122966005Y-117360572D01*
X123175960Y-116854944D01*
X123176438Y-116307458D01*
X122967366Y-115801464D01*
X122731241Y-115564927D01*
X122966005Y-115330572D01*
X123175960Y-114824944D01*
X123176438Y-114277458D01*
X122967366Y-113771464D01*
X122580572Y-113383995D01*
X122074944Y-113174040D01*
X121788264Y-113173790D01*
X121147237Y-112532763D01*
X120919103Y-112380328D01*
X120650000Y-112326800D01*
X101600000Y-112326800D01*
X101330897Y-112380328D01*
X101102762Y-112532763D01*
X100670881Y-112964644D01*
X100330000Y-112896839D01*
X99803351Y-113001596D01*
X99356880Y-113299919D01*
X99058557Y-113746390D01*
X98953800Y-114273039D01*
X26025730Y-114273039D01*
X26025730Y-110311954D01*
X119103509Y-110311954D01*
X119358158Y-110928251D01*
X119829269Y-111400185D01*
X120445120Y-111655909D01*
X121111954Y-111656491D01*
X121728251Y-111401842D01*
X122200185Y-110930731D01*
X122455909Y-110314880D01*
X122456491Y-109648046D01*
X122201842Y-109031749D01*
X121730731Y-108559815D01*
X121114880Y-108304091D01*
X120448046Y-108303509D01*
X119831749Y-108558158D01*
X119359815Y-109029269D01*
X119104091Y-109645120D01*
X119103509Y-110311954D01*
X26025730Y-110311954D01*
X26025730Y-103142542D01*
X98953562Y-103142542D01*
X99162634Y-103648536D01*
X99549428Y-104036005D01*
X100055056Y-104245960D01*
X100602542Y-104246438D01*
X101108536Y-104037366D01*
X101496005Y-103650572D01*
X101705960Y-103144944D01*
X101706438Y-102597458D01*
X101642186Y-102441954D01*
X119103509Y-102441954D01*
X119358158Y-103058251D01*
X119829269Y-103530185D01*
X120445120Y-103785909D01*
X121111954Y-103786491D01*
X121728251Y-103531842D01*
X122200185Y-103060731D01*
X122455909Y-102444880D01*
X122456491Y-101778046D01*
X122201842Y-101161749D01*
X121730731Y-100689815D01*
X121114880Y-100434091D01*
X120448046Y-100433509D01*
X119831749Y-100688158D01*
X119359815Y-101159269D01*
X119104091Y-101775120D01*
X119103509Y-102441954D01*
X101642186Y-102441954D01*
X101497366Y-102091464D01*
X101110572Y-101703995D01*
X100604944Y-101494040D01*
X100057458Y-101493562D01*
X99551464Y-101702634D01*
X99163995Y-102089428D01*
X98954040Y-102595056D01*
X98953562Y-103142542D01*
X26025730Y-103142542D01*
X26025730Y-99342622D01*
X27477852Y-99342622D01*
X27694658Y-99867331D01*
X28095757Y-100269131D01*
X28620087Y-100486852D01*
X29187822Y-100487348D01*
X29712531Y-100270542D01*
X30114331Y-99869443D01*
X30332052Y-99345113D01*
X30332054Y-99342622D01*
X34488252Y-99342622D01*
X34705058Y-99867331D01*
X35106157Y-100269131D01*
X35630487Y-100486852D01*
X36198222Y-100487348D01*
X36722931Y-100270542D01*
X37124731Y-99869443D01*
X37342452Y-99345113D01*
X37342948Y-98777378D01*
X37126142Y-98252669D01*
X36725043Y-97850869D01*
X36200713Y-97633148D01*
X35632978Y-97632652D01*
X35108269Y-97849458D01*
X34706469Y-98250557D01*
X34488748Y-98774887D01*
X34488252Y-99342622D01*
X30332054Y-99342622D01*
X30332548Y-98777378D01*
X30115742Y-98252669D01*
X29714643Y-97850869D01*
X29190313Y-97633148D01*
X28622578Y-97632652D01*
X28097869Y-97849458D01*
X27696069Y-98250557D01*
X27478348Y-98774887D01*
X27477852Y-99342622D01*
X26025730Y-99342622D01*
X26025730Y-95542346D01*
X105203545Y-95542346D01*
X105427809Y-96085107D01*
X105842708Y-96500731D01*
X106385078Y-96725943D01*
X106972346Y-96726455D01*
X107515107Y-96502191D01*
X107753923Y-96263791D01*
X107772690Y-96363527D01*
X107898884Y-96559638D01*
X108091434Y-96691202D01*
X108320000Y-96737488D01*
X110120000Y-96737488D01*
X110333527Y-96697310D01*
X110529638Y-96571116D01*
X110661202Y-96378566D01*
X110707488Y-96150000D01*
X110707488Y-94350000D01*
X110667310Y-94136473D01*
X110541116Y-93940362D01*
X110348566Y-93808798D01*
X110120000Y-93762512D01*
X108320000Y-93762512D01*
X108106473Y-93802690D01*
X107910362Y-93928884D01*
X107778798Y-94121434D01*
X107755262Y-94237655D01*
X107517292Y-93999269D01*
X106974922Y-93774057D01*
X106387654Y-93773545D01*
X105844893Y-93997809D01*
X105429269Y-94412708D01*
X105204057Y-94955078D01*
X105203545Y-95542346D01*
X26025730Y-95542346D01*
X26025730Y-90143039D01*
X98953800Y-90143039D01*
X98953800Y-90196961D01*
X99058557Y-90723610D01*
X99356880Y-91170081D01*
X99803351Y-91468404D01*
X100330000Y-91573161D01*
X100856649Y-91468404D01*
X101303120Y-91170081D01*
X101601443Y-90723610D01*
X101706200Y-90196961D01*
X101706200Y-90143039D01*
X101647341Y-89847134D01*
X101891275Y-89603200D01*
X120358726Y-89603200D01*
X120563859Y-89808334D01*
X120430206Y-90130206D01*
X120294944Y-90074040D01*
X119747458Y-90073562D01*
X119241464Y-90282634D01*
X118853995Y-90669428D01*
X118644040Y-91175056D01*
X118643562Y-91722542D01*
X118852634Y-92228536D01*
X119088759Y-92465073D01*
X118853995Y-92699428D01*
X118644040Y-93205056D01*
X118643562Y-93752542D01*
X118852634Y-94258536D01*
X119088759Y-94495073D01*
X118853995Y-94729428D01*
X118644040Y-95235056D01*
X118643562Y-95782542D01*
X118852634Y-96288536D01*
X119088759Y-96525073D01*
X118853995Y-96759428D01*
X118644040Y-97265056D01*
X118643562Y-97812542D01*
X118852634Y-98318536D01*
X119239428Y-98706005D01*
X119745056Y-98915960D01*
X120292542Y-98916438D01*
X120798536Y-98707366D01*
X121186005Y-98320572D01*
X121389794Y-97829794D01*
X121525056Y-97885960D01*
X122072542Y-97886438D01*
X122578536Y-97677366D01*
X122966005Y-97290572D01*
X123175960Y-96784944D01*
X123176438Y-96237458D01*
X122967366Y-95731464D01*
X122731241Y-95494927D01*
X122966005Y-95260572D01*
X123175960Y-94754944D01*
X123176438Y-94207458D01*
X122967366Y-93701464D01*
X122731241Y-93464927D01*
X122966005Y-93230572D01*
X123175960Y-92724944D01*
X123176438Y-92177458D01*
X122967366Y-91671464D01*
X122731241Y-91434927D01*
X122966005Y-91200572D01*
X123175960Y-90694944D01*
X123176438Y-90147458D01*
X122967366Y-89641464D01*
X122580572Y-89253995D01*
X122074944Y-89044040D01*
X121788264Y-89043790D01*
X121147237Y-88402763D01*
X120919103Y-88250328D01*
X120650000Y-88196800D01*
X101600000Y-88196800D01*
X101330897Y-88250328D01*
X101102762Y-88402763D01*
X100670881Y-88834644D01*
X100330000Y-88766839D01*
X99803351Y-88871596D01*
X99356880Y-89169919D01*
X99058557Y-89616390D01*
X98953800Y-90143039D01*
X26025730Y-90143039D01*
X26025730Y-86181954D01*
X119103509Y-86181954D01*
X119358158Y-86798251D01*
X119829269Y-87270185D01*
X120445120Y-87525909D01*
X121111954Y-87526491D01*
X121728251Y-87271842D01*
X122200185Y-86800731D01*
X122455909Y-86184880D01*
X122456491Y-85518046D01*
X122201842Y-84901749D01*
X121730731Y-84429815D01*
X121114880Y-84174091D01*
X120448046Y-84173509D01*
X119831749Y-84428158D01*
X119359815Y-84899269D01*
X119104091Y-85515120D01*
X119103509Y-86181954D01*
X26025730Y-86181954D01*
X26025730Y-81562622D01*
X27477852Y-81562622D01*
X27694658Y-82087331D01*
X28095757Y-82489131D01*
X28620087Y-82706852D01*
X29187822Y-82707348D01*
X29712531Y-82490542D01*
X30114331Y-82089443D01*
X30332052Y-81565113D01*
X30332054Y-81562622D01*
X34488252Y-81562622D01*
X34705058Y-82087331D01*
X35106157Y-82489131D01*
X35630487Y-82706852D01*
X36198222Y-82707348D01*
X36722931Y-82490542D01*
X37124731Y-82089443D01*
X37342452Y-81565113D01*
X37342948Y-80997378D01*
X37126142Y-80472669D01*
X36725043Y-80070869D01*
X36200713Y-79853148D01*
X35632978Y-79852652D01*
X35108269Y-80069458D01*
X34706469Y-80470557D01*
X34488748Y-80994887D01*
X34488252Y-81562622D01*
X30332054Y-81562622D01*
X30332548Y-80997378D01*
X30115742Y-80472669D01*
X29714643Y-80070869D01*
X29190313Y-79853148D01*
X28622578Y-79852652D01*
X28097869Y-80069458D01*
X27696069Y-80470557D01*
X27478348Y-80994887D01*
X27477852Y-81562622D01*
X26025730Y-81562622D01*
X26025730Y-79012542D01*
X98953562Y-79012542D01*
X99162634Y-79518536D01*
X99549428Y-79906005D01*
X100055056Y-80115960D01*
X100602542Y-80116438D01*
X101108536Y-79907366D01*
X101496005Y-79520572D01*
X101705960Y-79014944D01*
X101706438Y-78467458D01*
X101642186Y-78311954D01*
X119103509Y-78311954D01*
X119358158Y-78928251D01*
X119829269Y-79400185D01*
X120445120Y-79655909D01*
X121111954Y-79656491D01*
X121728251Y-79401842D01*
X122200185Y-78930731D01*
X122455909Y-78314880D01*
X122456491Y-77648046D01*
X122201842Y-77031749D01*
X121730731Y-76559815D01*
X121114880Y-76304091D01*
X120448046Y-76303509D01*
X119831749Y-76558158D01*
X119359815Y-77029269D01*
X119104091Y-77645120D01*
X119103509Y-78311954D01*
X101642186Y-78311954D01*
X101497366Y-77961464D01*
X101110572Y-77573995D01*
X100604944Y-77364040D01*
X100057458Y-77363562D01*
X99551464Y-77572634D01*
X99163995Y-77959428D01*
X98954040Y-78465056D01*
X98953562Y-79012542D01*
X26025730Y-79012542D01*
X26025730Y-71412346D01*
X105203545Y-71412346D01*
X105427809Y-71955107D01*
X105842708Y-72370731D01*
X106385078Y-72595943D01*
X106972346Y-72596455D01*
X107515107Y-72372191D01*
X107753923Y-72133791D01*
X107772690Y-72233527D01*
X107898884Y-72429638D01*
X108091434Y-72561202D01*
X108320000Y-72607488D01*
X110120000Y-72607488D01*
X110333527Y-72567310D01*
X110529638Y-72441116D01*
X110661202Y-72248566D01*
X110707488Y-72020000D01*
X110707488Y-70220000D01*
X110667310Y-70006473D01*
X110541116Y-69810362D01*
X110348566Y-69678798D01*
X110120000Y-69632512D01*
X108320000Y-69632512D01*
X108106473Y-69672690D01*
X107910362Y-69798884D01*
X107778798Y-69991434D01*
X107755262Y-70107655D01*
X107517292Y-69869269D01*
X106974922Y-69644057D01*
X106387654Y-69643545D01*
X105844893Y-69867809D01*
X105429269Y-70282708D01*
X105204057Y-70825078D01*
X105203545Y-71412346D01*
X26025730Y-71412346D01*
X26025730Y-66013039D01*
X98953800Y-66013039D01*
X98953800Y-66066961D01*
X99058557Y-66593610D01*
X99356880Y-67040081D01*
X99803351Y-67338404D01*
X100330000Y-67443161D01*
X100856649Y-67338404D01*
X101303120Y-67040081D01*
X101601443Y-66593610D01*
X101706200Y-66066961D01*
X101706200Y-66013039D01*
X101647341Y-65717134D01*
X101891275Y-65473200D01*
X120358726Y-65473200D01*
X120563859Y-65678334D01*
X120430206Y-66000206D01*
X120294944Y-65944040D01*
X119747458Y-65943562D01*
X119241464Y-66152634D01*
X118853995Y-66539428D01*
X118644040Y-67045056D01*
X118643562Y-67592542D01*
X118852634Y-68098536D01*
X119088759Y-68335073D01*
X118853995Y-68569428D01*
X118644040Y-69075056D01*
X118643562Y-69622542D01*
X118852634Y-70128536D01*
X119088759Y-70365073D01*
X118853995Y-70599428D01*
X118644040Y-71105056D01*
X118643562Y-71652542D01*
X118852634Y-72158536D01*
X119088759Y-72395073D01*
X118853995Y-72629428D01*
X118644040Y-73135056D01*
X118643562Y-73682542D01*
X118852634Y-74188536D01*
X119239428Y-74576005D01*
X119745056Y-74785960D01*
X120292542Y-74786438D01*
X120798536Y-74577366D01*
X121186005Y-74190572D01*
X121389794Y-73699794D01*
X121525056Y-73755960D01*
X122072542Y-73756438D01*
X122578536Y-73547366D01*
X122966005Y-73160572D01*
X123175960Y-72654944D01*
X123176438Y-72107458D01*
X122967366Y-71601464D01*
X122731241Y-71364927D01*
X122966005Y-71130572D01*
X123175960Y-70624944D01*
X123176438Y-70077458D01*
X122967366Y-69571464D01*
X122731241Y-69334927D01*
X122966005Y-69100572D01*
X123175960Y-68594944D01*
X123176438Y-68047458D01*
X122967366Y-67541464D01*
X122731241Y-67304927D01*
X122966005Y-67070572D01*
X123175960Y-66564944D01*
X123176438Y-66017458D01*
X122967366Y-65511464D01*
X122580572Y-65123995D01*
X122074944Y-64914040D01*
X121788264Y-64913790D01*
X121147237Y-64272763D01*
X120919103Y-64120328D01*
X120650000Y-64066800D01*
X101600000Y-64066800D01*
X101330897Y-64120328D01*
X101102762Y-64272763D01*
X100670881Y-64704644D01*
X100330000Y-64636839D01*
X99803351Y-64741596D01*
X99356880Y-65039919D01*
X99058557Y-65486390D01*
X98953800Y-66013039D01*
X26025730Y-66013039D01*
X26025730Y-63782622D01*
X27477852Y-63782622D01*
X27694658Y-64307331D01*
X28095757Y-64709131D01*
X28620087Y-64926852D01*
X29187822Y-64927348D01*
X29712531Y-64710542D01*
X30114331Y-64309443D01*
X30332052Y-63785113D01*
X30332054Y-63782622D01*
X34488252Y-63782622D01*
X34705058Y-64307331D01*
X35106157Y-64709131D01*
X35630487Y-64926852D01*
X36198222Y-64927348D01*
X36722931Y-64710542D01*
X37124731Y-64309443D01*
X37342452Y-63785113D01*
X37342948Y-63217378D01*
X37126142Y-62692669D01*
X36725043Y-62290869D01*
X36200713Y-62073148D01*
X35632978Y-62072652D01*
X35108269Y-62289458D01*
X34706469Y-62690557D01*
X34488748Y-63214887D01*
X34488252Y-63782622D01*
X30332054Y-63782622D01*
X30332548Y-63217378D01*
X30115742Y-62692669D01*
X29714643Y-62290869D01*
X29190313Y-62073148D01*
X28622578Y-62072652D01*
X28097869Y-62289458D01*
X27696069Y-62690557D01*
X27478348Y-63214887D01*
X27477852Y-63782622D01*
X26025730Y-63782622D01*
X26025730Y-62051954D01*
X119103509Y-62051954D01*
X119358158Y-62668251D01*
X119829269Y-63140185D01*
X120445120Y-63395909D01*
X121111954Y-63396491D01*
X121728251Y-63141842D01*
X122200185Y-62670731D01*
X122455909Y-62054880D01*
X122456491Y-61388046D01*
X122201842Y-60771749D01*
X121730731Y-60299815D01*
X121114880Y-60044091D01*
X120448046Y-60043509D01*
X119831749Y-60298158D01*
X119359815Y-60769269D01*
X119104091Y-61385120D01*
X119103509Y-62051954D01*
X26025730Y-62051954D01*
X26025730Y-54882542D01*
X100223562Y-54882542D01*
X100432634Y-55388536D01*
X100819428Y-55776005D01*
X101325056Y-55985960D01*
X101872542Y-55986438D01*
X102378536Y-55777366D01*
X102766005Y-55390572D01*
X102975960Y-54884944D01*
X102976438Y-54337458D01*
X102912186Y-54181954D01*
X119103509Y-54181954D01*
X119358158Y-54798251D01*
X119829269Y-55270185D01*
X120445120Y-55525909D01*
X121111954Y-55526491D01*
X121728251Y-55271842D01*
X122200185Y-54800731D01*
X122455909Y-54184880D01*
X122456491Y-53518046D01*
X122201842Y-52901749D01*
X121730731Y-52429815D01*
X121114880Y-52174091D01*
X120448046Y-52173509D01*
X119831749Y-52428158D01*
X119359815Y-52899269D01*
X119104091Y-53515120D01*
X119103509Y-54181954D01*
X102912186Y-54181954D01*
X102767366Y-53831464D01*
X102380572Y-53443995D01*
X101874944Y-53234040D01*
X101327458Y-53233562D01*
X100821464Y-53442634D01*
X100433995Y-53829428D01*
X100224040Y-54335056D01*
X100223562Y-54882542D01*
X26025730Y-54882542D01*
X26025730Y-49530000D01*
X68446839Y-49530000D01*
X68551596Y-50056649D01*
X68849919Y-50503120D01*
X69296390Y-50801443D01*
X69823039Y-50906200D01*
X69876961Y-50906200D01*
X70403610Y-50801443D01*
X70850081Y-50503120D01*
X71148404Y-50056649D01*
X71198949Y-49802542D01*
X81173562Y-49802542D01*
X81382634Y-50308536D01*
X81769428Y-50696005D01*
X82275056Y-50905960D01*
X82822542Y-50906438D01*
X83328536Y-50697366D01*
X83716005Y-50310572D01*
X83925960Y-49804944D01*
X83926438Y-49257458D01*
X83717366Y-48751464D01*
X83330572Y-48363995D01*
X82824944Y-48154040D01*
X82277458Y-48153562D01*
X81771464Y-48362634D01*
X81383995Y-48749428D01*
X81174040Y-49255056D01*
X81173562Y-49802542D01*
X71198949Y-49802542D01*
X71253161Y-49530000D01*
X71148404Y-49003351D01*
X70850081Y-48556880D01*
X70403610Y-48258557D01*
X69876961Y-48153800D01*
X69823039Y-48153800D01*
X69296390Y-48258557D01*
X68849919Y-48556880D01*
X68551596Y-49003351D01*
X68446839Y-49530000D01*
X26025730Y-49530000D01*
X26025730Y-47282346D01*
X105203545Y-47282346D01*
X105427809Y-47825107D01*
X105842708Y-48240731D01*
X106385078Y-48465943D01*
X106972346Y-48466455D01*
X107515107Y-48242191D01*
X107753923Y-48003791D01*
X107772690Y-48103527D01*
X107898884Y-48299638D01*
X108091434Y-48431202D01*
X108320000Y-48477488D01*
X110120000Y-48477488D01*
X110333527Y-48437310D01*
X110529638Y-48311116D01*
X110661202Y-48118566D01*
X110707488Y-47890000D01*
X110707488Y-46090000D01*
X110667310Y-45876473D01*
X110541116Y-45680362D01*
X110348566Y-45548798D01*
X110120000Y-45502512D01*
X108320000Y-45502512D01*
X108106473Y-45542690D01*
X107910362Y-45668884D01*
X107778798Y-45861434D01*
X107755262Y-45977655D01*
X107517292Y-45739269D01*
X106974922Y-45514057D01*
X106387654Y-45513545D01*
X105844893Y-45737809D01*
X105429269Y-46152708D01*
X105204057Y-46695078D01*
X105203545Y-47282346D01*
X26025730Y-47282346D01*
X26025730Y-46002622D01*
X27477852Y-46002622D01*
X27694658Y-46527331D01*
X28095757Y-46929131D01*
X28620087Y-47146852D01*
X29187822Y-47147348D01*
X29712531Y-46930542D01*
X30114331Y-46529443D01*
X30332052Y-46005113D01*
X30332054Y-46002622D01*
X34488252Y-46002622D01*
X34705058Y-46527331D01*
X35106157Y-46929131D01*
X35630487Y-47146852D01*
X36198222Y-47147348D01*
X36722931Y-46930542D01*
X37124731Y-46529443D01*
X37342452Y-46005113D01*
X37342948Y-45437378D01*
X37126142Y-44912669D01*
X36956117Y-44742346D01*
X74723545Y-44742346D01*
X74947809Y-45285107D01*
X75362708Y-45700731D01*
X75905078Y-45925943D01*
X76492346Y-45926455D01*
X77035107Y-45702191D01*
X77450731Y-45287292D01*
X77675943Y-44744922D01*
X77676455Y-44157654D01*
X77452191Y-43614893D01*
X77221181Y-43383480D01*
X77426391Y-43298479D01*
X77588479Y-43136391D01*
X77676200Y-42924613D01*
X77676200Y-42231850D01*
X77532150Y-42087800D01*
X76377800Y-42087800D01*
X76377800Y-42107800D01*
X76022200Y-42107800D01*
X76022200Y-42087800D01*
X74867850Y-42087800D01*
X74723800Y-42231850D01*
X74723800Y-42924613D01*
X74811521Y-43136391D01*
X74973609Y-43298479D01*
X75178875Y-43383503D01*
X74949269Y-43612708D01*
X74724057Y-44155078D01*
X74723545Y-44742346D01*
X36956117Y-44742346D01*
X36725043Y-44510869D01*
X36200713Y-44293148D01*
X35632978Y-44292652D01*
X35108269Y-44509458D01*
X34706469Y-44910557D01*
X34488748Y-45434887D01*
X34488252Y-46002622D01*
X30332054Y-46002622D01*
X30332548Y-45437378D01*
X30115742Y-44912669D01*
X29714643Y-44510869D01*
X29190313Y-44293148D01*
X28622578Y-44292652D01*
X28097869Y-44509458D01*
X27696069Y-44910557D01*
X27478348Y-45434887D01*
X27477852Y-46002622D01*
X26025730Y-46002622D01*
X26025730Y-41883039D01*
X100223800Y-41883039D01*
X100223800Y-41936961D01*
X100328557Y-42463610D01*
X100626880Y-42910081D01*
X101073351Y-43208404D01*
X101600000Y-43313161D01*
X102126649Y-43208404D01*
X102573120Y-42910081D01*
X102871443Y-42463610D01*
X102976200Y-41936961D01*
X102976200Y-41883039D01*
X102917341Y-41587134D01*
X103161275Y-41343200D01*
X120358726Y-41343200D01*
X120563859Y-41548334D01*
X120430206Y-41870206D01*
X120294944Y-41814040D01*
X119747458Y-41813562D01*
X119241464Y-42022634D01*
X118853995Y-42409428D01*
X118644040Y-42915056D01*
X118643562Y-43462542D01*
X118852634Y-43968536D01*
X119088759Y-44205073D01*
X118853995Y-44439428D01*
X118644040Y-44945056D01*
X118643562Y-45492542D01*
X118852634Y-45998536D01*
X119088759Y-46235073D01*
X118853995Y-46469428D01*
X118644040Y-46975056D01*
X118643562Y-47522542D01*
X118852634Y-48028536D01*
X119088759Y-48265073D01*
X118853995Y-48499428D01*
X118644040Y-49005056D01*
X118643562Y-49552542D01*
X118852634Y-50058536D01*
X119239428Y-50446005D01*
X119745056Y-50655960D01*
X120292542Y-50656438D01*
X120798536Y-50447366D01*
X121186005Y-50060572D01*
X121389794Y-49569794D01*
X121525056Y-49625960D01*
X122072542Y-49626438D01*
X122578536Y-49417366D01*
X122966005Y-49030572D01*
X123175960Y-48524944D01*
X123176438Y-47977458D01*
X122967366Y-47471464D01*
X122731241Y-47234927D01*
X122966005Y-47000572D01*
X123175960Y-46494944D01*
X123176438Y-45947458D01*
X122967366Y-45441464D01*
X122731241Y-45204927D01*
X122966005Y-44970572D01*
X123175960Y-44464944D01*
X123176438Y-43917458D01*
X122967366Y-43411464D01*
X122731241Y-43174927D01*
X122966005Y-42940572D01*
X123175960Y-42434944D01*
X123176438Y-41887458D01*
X122967366Y-41381464D01*
X122580572Y-40993995D01*
X122074944Y-40784040D01*
X121788264Y-40783790D01*
X121147237Y-40142763D01*
X120919103Y-39990328D01*
X120650000Y-39936800D01*
X102870000Y-39936800D01*
X102600897Y-39990328D01*
X102372762Y-40142763D01*
X101940881Y-40574644D01*
X101600000Y-40506839D01*
X101073351Y-40611596D01*
X100626880Y-40909919D01*
X100328557Y-41356390D01*
X100223800Y-41883039D01*
X26025730Y-41883039D01*
X26025730Y-40895387D01*
X74723800Y-40895387D01*
X74723800Y-41588150D01*
X74867850Y-41732200D01*
X76022200Y-41732200D01*
X76022200Y-40577850D01*
X76377800Y-40577850D01*
X76377800Y-41732200D01*
X77532150Y-41732200D01*
X77676200Y-41588150D01*
X77676200Y-40895387D01*
X77588479Y-40683609D01*
X77426391Y-40521521D01*
X77214614Y-40433800D01*
X76521850Y-40433800D01*
X76377800Y-40577850D01*
X76022200Y-40577850D01*
X75878150Y-40433800D01*
X75185386Y-40433800D01*
X74973609Y-40521521D01*
X74811521Y-40683609D01*
X74723800Y-40895387D01*
X26025730Y-40895387D01*
X26025730Y-36068000D01*
X44370512Y-36068000D01*
X44370512Y-37592000D01*
X44410690Y-37805527D01*
X44536884Y-38001638D01*
X44729434Y-38133202D01*
X44958000Y-38179488D01*
X46482000Y-38179488D01*
X46695527Y-38139310D01*
X46891638Y-38013116D01*
X47023202Y-37820566D01*
X47069488Y-37592000D01*
X47069488Y-37453010D01*
X47124868Y-37587039D01*
X47500981Y-37963809D01*
X47992648Y-38167967D01*
X48525017Y-38168432D01*
X49017039Y-37965132D01*
X49393809Y-37589019D01*
X49530083Y-37260835D01*
X49664868Y-37587039D01*
X50040981Y-37963809D01*
X50532648Y-38167967D01*
X51065017Y-38168432D01*
X51557039Y-37965132D01*
X51933809Y-37589019D01*
X52070083Y-37260835D01*
X52204868Y-37587039D01*
X52580981Y-37963809D01*
X53072648Y-38167967D01*
X53605017Y-38168432D01*
X54097039Y-37965132D01*
X54473809Y-37589019D01*
X54610083Y-37260835D01*
X54744868Y-37587039D01*
X55120981Y-37963809D01*
X55612648Y-38167967D01*
X56145017Y-38168432D01*
X56637039Y-37965132D01*
X57013809Y-37589019D01*
X57150083Y-37260835D01*
X57284868Y-37587039D01*
X57660981Y-37963809D01*
X58152648Y-38167967D01*
X58685017Y-38168432D01*
X59177039Y-37965132D01*
X59553809Y-37589019D01*
X59690083Y-37260835D01*
X59824868Y-37587039D01*
X60200981Y-37963809D01*
X60692648Y-38167967D01*
X61225017Y-38168432D01*
X61717039Y-37965132D01*
X62093809Y-37589019D01*
X62230083Y-37260835D01*
X62364868Y-37587039D01*
X62740981Y-37963809D01*
X63232648Y-38167967D01*
X63765017Y-38168432D01*
X64257039Y-37965132D01*
X64633809Y-37589019D01*
X64770083Y-37260835D01*
X64904868Y-37587039D01*
X65280981Y-37963809D01*
X65772648Y-38167967D01*
X66305017Y-38168432D01*
X66797039Y-37965132D01*
X67173809Y-37589019D01*
X67310083Y-37260835D01*
X67444868Y-37587039D01*
X67820981Y-37963809D01*
X68312648Y-38167967D01*
X68845017Y-38168432D01*
X69337039Y-37965132D01*
X69713809Y-37589019D01*
X69850083Y-37260835D01*
X69984868Y-37587039D01*
X70360981Y-37963809D01*
X70852648Y-38167967D01*
X71385017Y-38168432D01*
X71877039Y-37965132D01*
X72253809Y-37589019D01*
X72390083Y-37260835D01*
X72524868Y-37587039D01*
X72900981Y-37963809D01*
X73392648Y-38167967D01*
X73925017Y-38168432D01*
X74417039Y-37965132D01*
X74793809Y-37589019D01*
X74930083Y-37260835D01*
X75064868Y-37587039D01*
X75440981Y-37963809D01*
X75932648Y-38167967D01*
X76465017Y-38168432D01*
X76957039Y-37965132D01*
X77333809Y-37589019D01*
X77470083Y-37260835D01*
X77604868Y-37587039D01*
X77980981Y-37963809D01*
X78472648Y-38167967D01*
X79005017Y-38168432D01*
X79497039Y-37965132D01*
X79873809Y-37589019D01*
X80010083Y-37260835D01*
X80144868Y-37587039D01*
X80520981Y-37963809D01*
X81012648Y-38167967D01*
X81545017Y-38168432D01*
X82037039Y-37965132D01*
X82413809Y-37589019D01*
X82550083Y-37260835D01*
X82684868Y-37587039D01*
X83060981Y-37963809D01*
X83552648Y-38167967D01*
X84085017Y-38168432D01*
X84577039Y-37965132D01*
X84953809Y-37589019D01*
X85090083Y-37260835D01*
X85224868Y-37587039D01*
X85600981Y-37963809D01*
X86092648Y-38167967D01*
X86625017Y-38168432D01*
X87117039Y-37965132D01*
X87493809Y-37589019D01*
X87630083Y-37260835D01*
X87764868Y-37587039D01*
X88140981Y-37963809D01*
X88632648Y-38167967D01*
X89165017Y-38168432D01*
X89657039Y-37965132D01*
X90033809Y-37589019D01*
X90170083Y-37260835D01*
X90304868Y-37587039D01*
X90680981Y-37963809D01*
X91172648Y-38167967D01*
X91705017Y-38168432D01*
X92197039Y-37965132D01*
X92573809Y-37589019D01*
X92710083Y-37260835D01*
X92844868Y-37587039D01*
X93220981Y-37963809D01*
X93712648Y-38167967D01*
X94245017Y-38168432D01*
X94737039Y-37965132D01*
X95113809Y-37589019D01*
X95250083Y-37260835D01*
X95384868Y-37587039D01*
X95760981Y-37963809D01*
X96252648Y-38167967D01*
X96785017Y-38168432D01*
X97277039Y-37965132D01*
X97653809Y-37589019D01*
X97790083Y-37260835D01*
X97924868Y-37587039D01*
X98300981Y-37963809D01*
X98792648Y-38167967D01*
X99325017Y-38168432D01*
X99817039Y-37965132D01*
X100193809Y-37589019D01*
X100330083Y-37260835D01*
X100464868Y-37587039D01*
X100840981Y-37963809D01*
X101332648Y-38167967D01*
X101865017Y-38168432D01*
X102357039Y-37965132D01*
X102733809Y-37589019D01*
X102870083Y-37260835D01*
X103004868Y-37587039D01*
X103380981Y-37963809D01*
X103872648Y-38167967D01*
X104405017Y-38168432D01*
X104897039Y-37965132D01*
X105052997Y-37809445D01*
X105952002Y-37809445D01*
X106028697Y-38028933D01*
X106537087Y-38186912D01*
X107067233Y-38138314D01*
X107331303Y-38028933D01*
X107368684Y-37921954D01*
X119103509Y-37921954D01*
X119358158Y-38538251D01*
X119829269Y-39010185D01*
X120445120Y-39265909D01*
X121111954Y-39266491D01*
X121728251Y-39011842D01*
X122200185Y-38540731D01*
X122455909Y-37924880D01*
X122456491Y-37258046D01*
X122201842Y-36641749D01*
X121730731Y-36169815D01*
X121114880Y-35914091D01*
X120448046Y-35913509D01*
X119831749Y-36168158D01*
X119359815Y-36639269D01*
X119104091Y-37255120D01*
X119103509Y-37921954D01*
X107368684Y-37921954D01*
X107407998Y-37809445D01*
X106680000Y-37081447D01*
X105952002Y-37809445D01*
X105052997Y-37809445D01*
X105273809Y-37589019D01*
X105399902Y-37285353D01*
X105481067Y-37481303D01*
X105700555Y-37557998D01*
X106428553Y-36830000D01*
X106931447Y-36830000D01*
X107659445Y-37557998D01*
X107878933Y-37481303D01*
X108036912Y-36972913D01*
X107988314Y-36442767D01*
X107878933Y-36178697D01*
X107659445Y-36102002D01*
X106931447Y-36830000D01*
X106428553Y-36830000D01*
X105700555Y-36102002D01*
X105481067Y-36178697D01*
X105411424Y-36402813D01*
X105275132Y-36072961D01*
X104899019Y-35696191D01*
X104570835Y-35559917D01*
X104897039Y-35425132D01*
X105273809Y-35049019D01*
X105410083Y-34720835D01*
X105544868Y-35047039D01*
X105920981Y-35423809D01*
X106224647Y-35549902D01*
X106028697Y-35631067D01*
X105952002Y-35850555D01*
X106680000Y-36578553D01*
X107407998Y-35850555D01*
X107331303Y-35631067D01*
X107107187Y-35561424D01*
X107437039Y-35425132D01*
X107813809Y-35049019D01*
X108017967Y-34557352D01*
X108018432Y-34024983D01*
X107815132Y-33532961D01*
X107439019Y-33156191D01*
X106947352Y-32952033D01*
X106414983Y-32951568D01*
X105922961Y-33154868D01*
X105546191Y-33530981D01*
X105409917Y-33859165D01*
X105275132Y-33532961D01*
X104899019Y-33156191D01*
X104407352Y-32952033D01*
X103874983Y-32951568D01*
X103382961Y-33154868D01*
X103006191Y-33530981D01*
X102869917Y-33859165D01*
X102735132Y-33532961D01*
X102359019Y-33156191D01*
X101867352Y-32952033D01*
X101334983Y-32951568D01*
X100842961Y-33154868D01*
X100466191Y-33530981D01*
X100329917Y-33859165D01*
X100195132Y-33532961D01*
X99819019Y-33156191D01*
X99327352Y-32952033D01*
X98794983Y-32951568D01*
X98302961Y-33154868D01*
X97926191Y-33530981D01*
X97789917Y-33859165D01*
X97655132Y-33532961D01*
X97279019Y-33156191D01*
X96787352Y-32952033D01*
X96254983Y-32951568D01*
X95762961Y-33154868D01*
X95386191Y-33530981D01*
X95249917Y-33859165D01*
X95115132Y-33532961D01*
X94739019Y-33156191D01*
X94247352Y-32952033D01*
X93714983Y-32951568D01*
X93222961Y-33154868D01*
X92846191Y-33530981D01*
X92709917Y-33859165D01*
X92575132Y-33532961D01*
X92199019Y-33156191D01*
X91707352Y-32952033D01*
X91174983Y-32951568D01*
X90682961Y-33154868D01*
X90306191Y-33530981D01*
X90169917Y-33859165D01*
X90035132Y-33532961D01*
X89659019Y-33156191D01*
X89167352Y-32952033D01*
X88634983Y-32951568D01*
X88142961Y-33154868D01*
X87766191Y-33530981D01*
X87629917Y-33859165D01*
X87495132Y-33532961D01*
X87119019Y-33156191D01*
X86627352Y-32952033D01*
X86094983Y-32951568D01*
X85602961Y-33154868D01*
X85226191Y-33530981D01*
X85089917Y-33859165D01*
X84955132Y-33532961D01*
X84579019Y-33156191D01*
X84087352Y-32952033D01*
X83554983Y-32951568D01*
X83062961Y-33154868D01*
X82686191Y-33530981D01*
X82549917Y-33859165D01*
X82415132Y-33532961D01*
X82039019Y-33156191D01*
X81547352Y-32952033D01*
X81014983Y-32951568D01*
X80522961Y-33154868D01*
X80146191Y-33530981D01*
X80009917Y-33859165D01*
X79875132Y-33532961D01*
X79499019Y-33156191D01*
X79007352Y-32952033D01*
X78474983Y-32951568D01*
X77982961Y-33154868D01*
X77606191Y-33530981D01*
X77469917Y-33859165D01*
X77335132Y-33532961D01*
X76959019Y-33156191D01*
X76467352Y-32952033D01*
X75934983Y-32951568D01*
X75442961Y-33154868D01*
X75066191Y-33530981D01*
X74929917Y-33859165D01*
X74795132Y-33532961D01*
X74419019Y-33156191D01*
X73927352Y-32952033D01*
X73394983Y-32951568D01*
X72902961Y-33154868D01*
X72526191Y-33530981D01*
X72389917Y-33859165D01*
X72255132Y-33532961D01*
X71879019Y-33156191D01*
X71387352Y-32952033D01*
X70854983Y-32951568D01*
X70362961Y-33154868D01*
X69986191Y-33530981D01*
X69849917Y-33859165D01*
X69715132Y-33532961D01*
X69339019Y-33156191D01*
X68847352Y-32952033D01*
X68314983Y-32951568D01*
X67822961Y-33154868D01*
X67446191Y-33530981D01*
X67309917Y-33859165D01*
X67175132Y-33532961D01*
X66799019Y-33156191D01*
X66307352Y-32952033D01*
X65774983Y-32951568D01*
X65282961Y-33154868D01*
X64906191Y-33530981D01*
X64769917Y-33859165D01*
X64635132Y-33532961D01*
X64259019Y-33156191D01*
X63767352Y-32952033D01*
X63234983Y-32951568D01*
X62742961Y-33154868D01*
X62366191Y-33530981D01*
X62229917Y-33859165D01*
X62095132Y-33532961D01*
X61719019Y-33156191D01*
X61227352Y-32952033D01*
X60694983Y-32951568D01*
X60202961Y-33154868D01*
X59826191Y-33530981D01*
X59689917Y-33859165D01*
X59555132Y-33532961D01*
X59179019Y-33156191D01*
X58687352Y-32952033D01*
X58154983Y-32951568D01*
X57662961Y-33154868D01*
X57286191Y-33530981D01*
X57149917Y-33859165D01*
X57015132Y-33532961D01*
X56639019Y-33156191D01*
X56147352Y-32952033D01*
X55614983Y-32951568D01*
X55122961Y-33154868D01*
X54746191Y-33530981D01*
X54609917Y-33859165D01*
X54475132Y-33532961D01*
X54099019Y-33156191D01*
X53607352Y-32952033D01*
X53074983Y-32951568D01*
X52582961Y-33154868D01*
X52206191Y-33530981D01*
X52069917Y-33859165D01*
X51935132Y-33532961D01*
X51559019Y-33156191D01*
X51067352Y-32952033D01*
X50534983Y-32951568D01*
X50042961Y-33154868D01*
X49666191Y-33530981D01*
X49529917Y-33859165D01*
X49395132Y-33532961D01*
X49019019Y-33156191D01*
X48527352Y-32952033D01*
X47994983Y-32951568D01*
X47502961Y-33154868D01*
X47126191Y-33530981D01*
X46989917Y-33859165D01*
X46855132Y-33532961D01*
X46479019Y-33156191D01*
X45987352Y-32952033D01*
X45454983Y-32951568D01*
X44962961Y-33154868D01*
X44586191Y-33530981D01*
X44382033Y-34022648D01*
X44381568Y-34555017D01*
X44584868Y-35047039D01*
X44960981Y-35423809D01*
X45097537Y-35480512D01*
X44958000Y-35480512D01*
X44744473Y-35520690D01*
X44548362Y-35646884D01*
X44416798Y-35839434D01*
X44370512Y-36068000D01*
X26025730Y-36068000D01*
X26025730Y-32557249D01*
X27673094Y-32557249D01*
X28292351Y-34055965D01*
X29438004Y-35203619D01*
X30935637Y-35825490D01*
X32557249Y-35826906D01*
X34055965Y-35207649D01*
X35203619Y-34061996D01*
X35825490Y-32564363D01*
X35825496Y-32557249D01*
X116573094Y-32557249D01*
X117192351Y-34055965D01*
X118338004Y-35203619D01*
X119835637Y-35825490D01*
X121457249Y-35826906D01*
X122955965Y-35207649D01*
X124103619Y-34061996D01*
X124725490Y-32564363D01*
X124726906Y-30942751D01*
X124107649Y-29444035D01*
X122961996Y-28296381D01*
X121464363Y-27674510D01*
X119842751Y-27673094D01*
X118344035Y-28292351D01*
X117196381Y-29438004D01*
X116574510Y-30935637D01*
X116573094Y-32557249D01*
X35825496Y-32557249D01*
X35826906Y-30942751D01*
X35207649Y-29444035D01*
X34061996Y-28296381D01*
X32564363Y-27674510D01*
X30942751Y-27673094D01*
X29444035Y-28292351D01*
X28296381Y-29438004D01*
X27674510Y-30935637D01*
X27673094Y-32557249D01*
X26025730Y-32557249D01*
X26025730Y-30541630D01*
X26376117Y-28780114D01*
X27339024Y-27339024D01*
X28780116Y-26376117D01*
X30541630Y-26025730D01*
X121858370Y-26025730D01*
X123619886Y-26376117D01*
M02*
