G04 #@! TF.FileFunction,Legend,Top*
%FSLAX46Y46*%
G04 Gerber Fmt 4.6, Leading zero omitted, Abs format (unit mm)*
G04 Created by KiCad (PCBNEW 4.0.7) date 03/31/18 19:23:34*
%MOMM*%
%LPD*%
G01*
G04 APERTURE LIST*
%ADD10C,0.150000*%
%ADD11C,0.203200*%
%ADD12C,0.120000*%
%ADD13C,0.149860*%
G04 APERTURE END LIST*
D10*
D11*
X61540571Y-48085829D02*
X61685714Y-48134210D01*
X61734095Y-48182590D01*
X61782476Y-48279352D01*
X61782476Y-48424495D01*
X61734095Y-48521257D01*
X61685714Y-48569638D01*
X61588952Y-48618019D01*
X61201905Y-48618019D01*
X61201905Y-47602019D01*
X61540571Y-47602019D01*
X61637333Y-47650400D01*
X61685714Y-47698781D01*
X61734095Y-47795543D01*
X61734095Y-47892305D01*
X61685714Y-47989067D01*
X61637333Y-48037448D01*
X61540571Y-48085829D01*
X61201905Y-48085829D01*
X62604952Y-48569638D02*
X62508190Y-48618019D01*
X62314667Y-48618019D01*
X62217905Y-48569638D01*
X62169524Y-48472876D01*
X62169524Y-48085829D01*
X62217905Y-47989067D01*
X62314667Y-47940686D01*
X62508190Y-47940686D01*
X62604952Y-47989067D01*
X62653333Y-48085829D01*
X62653333Y-48182590D01*
X62169524Y-48279352D01*
X63524190Y-48618019D02*
X63524190Y-48085829D01*
X63475809Y-47989067D01*
X63379047Y-47940686D01*
X63185524Y-47940686D01*
X63088762Y-47989067D01*
X63524190Y-48569638D02*
X63427428Y-48618019D01*
X63185524Y-48618019D01*
X63088762Y-48569638D01*
X63040381Y-48472876D01*
X63040381Y-48376114D01*
X63088762Y-48279352D01*
X63185524Y-48230971D01*
X63427428Y-48230971D01*
X63524190Y-48182590D01*
X64008000Y-48618019D02*
X64008000Y-47940686D01*
X64008000Y-48037448D02*
X64056381Y-47989067D01*
X64153143Y-47940686D01*
X64298285Y-47940686D01*
X64395047Y-47989067D01*
X64443428Y-48085829D01*
X64443428Y-48618019D01*
X64443428Y-48085829D02*
X64491809Y-47989067D01*
X64588571Y-47940686D01*
X64733714Y-47940686D01*
X64830476Y-47989067D01*
X64878857Y-48085829D01*
X64878857Y-48618019D01*
X66136762Y-48618019D02*
X66136762Y-47602019D01*
X66378667Y-47602019D01*
X66523809Y-47650400D01*
X66620571Y-47747162D01*
X66668952Y-47843924D01*
X66717333Y-48037448D01*
X66717333Y-48182590D01*
X66668952Y-48376114D01*
X66620571Y-48472876D01*
X66523809Y-48569638D01*
X66378667Y-48618019D01*
X66136762Y-48618019D01*
X67539809Y-48569638D02*
X67443047Y-48618019D01*
X67249524Y-48618019D01*
X67152762Y-48569638D01*
X67104381Y-48472876D01*
X67104381Y-48085829D01*
X67152762Y-47989067D01*
X67249524Y-47940686D01*
X67443047Y-47940686D01*
X67539809Y-47989067D01*
X67588190Y-48085829D01*
X67588190Y-48182590D01*
X67104381Y-48279352D01*
X67878476Y-47940686D02*
X68265524Y-47940686D01*
X68023619Y-47602019D02*
X68023619Y-48472876D01*
X68072000Y-48569638D01*
X68168762Y-48618019D01*
X68265524Y-48618019D01*
X68991237Y-48569638D02*
X68894475Y-48618019D01*
X68700952Y-48618019D01*
X68604190Y-48569638D01*
X68555809Y-48472876D01*
X68555809Y-48085829D01*
X68604190Y-47989067D01*
X68700952Y-47940686D01*
X68894475Y-47940686D01*
X68991237Y-47989067D01*
X69039618Y-48085829D01*
X69039618Y-48182590D01*
X68555809Y-48279352D01*
X69910475Y-48569638D02*
X69813713Y-48618019D01*
X69620190Y-48618019D01*
X69523428Y-48569638D01*
X69475047Y-48521257D01*
X69426666Y-48424495D01*
X69426666Y-48134210D01*
X69475047Y-48037448D01*
X69523428Y-47989067D01*
X69620190Y-47940686D01*
X69813713Y-47940686D01*
X69910475Y-47989067D01*
X70200761Y-47940686D02*
X70587809Y-47940686D01*
X70345904Y-47602019D02*
X70345904Y-48472876D01*
X70394285Y-48569638D01*
X70491047Y-48618019D01*
X70587809Y-48618019D01*
X71700570Y-48618019D02*
X71700570Y-47602019D01*
X72039236Y-48327733D01*
X72377903Y-47602019D01*
X72377903Y-48618019D01*
X73006856Y-48618019D02*
X72910094Y-48569638D01*
X72861713Y-48521257D01*
X72813332Y-48424495D01*
X72813332Y-48134210D01*
X72861713Y-48037448D01*
X72910094Y-47989067D01*
X73006856Y-47940686D01*
X73151998Y-47940686D01*
X73248760Y-47989067D01*
X73297141Y-48037448D01*
X73345522Y-48134210D01*
X73345522Y-48424495D01*
X73297141Y-48521257D01*
X73248760Y-48569638D01*
X73151998Y-48618019D01*
X73006856Y-48618019D01*
X74216379Y-48618019D02*
X74216379Y-47602019D01*
X74216379Y-48569638D02*
X74119617Y-48618019D01*
X73926094Y-48618019D01*
X73829332Y-48569638D01*
X73780951Y-48521257D01*
X73732570Y-48424495D01*
X73732570Y-48134210D01*
X73780951Y-48037448D01*
X73829332Y-47989067D01*
X73926094Y-47940686D01*
X74119617Y-47940686D01*
X74216379Y-47989067D01*
X75135617Y-47940686D02*
X75135617Y-48618019D01*
X74700189Y-47940686D02*
X74700189Y-48472876D01*
X74748570Y-48569638D01*
X74845332Y-48618019D01*
X74990474Y-48618019D01*
X75087236Y-48569638D01*
X75135617Y-48521257D01*
X75764570Y-48618019D02*
X75667808Y-48569638D01*
X75619427Y-48472876D01*
X75619427Y-47602019D01*
X76538664Y-48569638D02*
X76441902Y-48618019D01*
X76248379Y-48618019D01*
X76151617Y-48569638D01*
X76103236Y-48472876D01*
X76103236Y-48085829D01*
X76151617Y-47989067D01*
X76248379Y-47940686D01*
X76441902Y-47940686D01*
X76538664Y-47989067D01*
X76587045Y-48085829D01*
X76587045Y-48182590D01*
X76103236Y-48279352D01*
X61153524Y-49425981D02*
X61201905Y-49377600D01*
X61298667Y-49329219D01*
X61540571Y-49329219D01*
X61637333Y-49377600D01*
X61685714Y-49425981D01*
X61734095Y-49522743D01*
X61734095Y-49619505D01*
X61685714Y-49764648D01*
X61105143Y-50345219D01*
X61734095Y-50345219D01*
X62363048Y-49329219D02*
X62459809Y-49329219D01*
X62556571Y-49377600D01*
X62604952Y-49425981D01*
X62653333Y-49522743D01*
X62701714Y-49716267D01*
X62701714Y-49958171D01*
X62653333Y-50151695D01*
X62604952Y-50248457D01*
X62556571Y-50296838D01*
X62459809Y-50345219D01*
X62363048Y-50345219D01*
X62266286Y-50296838D01*
X62217905Y-50248457D01*
X62169524Y-50151695D01*
X62121143Y-49958171D01*
X62121143Y-49716267D01*
X62169524Y-49522743D01*
X62217905Y-49425981D01*
X62266286Y-49377600D01*
X62363048Y-49329219D01*
X63669333Y-50345219D02*
X63088762Y-50345219D01*
X63379048Y-50345219D02*
X63379048Y-49329219D01*
X63282286Y-49474362D01*
X63185524Y-49571124D01*
X63088762Y-49619505D01*
X64249905Y-49764648D02*
X64153143Y-49716267D01*
X64104762Y-49667886D01*
X64056381Y-49571124D01*
X64056381Y-49522743D01*
X64104762Y-49425981D01*
X64153143Y-49377600D01*
X64249905Y-49329219D01*
X64443428Y-49329219D01*
X64540190Y-49377600D01*
X64588571Y-49425981D01*
X64636952Y-49522743D01*
X64636952Y-49571124D01*
X64588571Y-49667886D01*
X64540190Y-49716267D01*
X64443428Y-49764648D01*
X64249905Y-49764648D01*
X64153143Y-49813029D01*
X64104762Y-49861410D01*
X64056381Y-49958171D01*
X64056381Y-50151695D01*
X64104762Y-50248457D01*
X64153143Y-50296838D01*
X64249905Y-50345219D01*
X64443428Y-50345219D01*
X64540190Y-50296838D01*
X64588571Y-50248457D01*
X64636952Y-50151695D01*
X64636952Y-49958171D01*
X64588571Y-49861410D01*
X64540190Y-49813029D01*
X64443428Y-49764648D01*
X65072381Y-50248457D02*
X65120762Y-50296838D01*
X65072381Y-50345219D01*
X65024000Y-50296838D01*
X65072381Y-50248457D01*
X65072381Y-50345219D01*
X65459429Y-49329219D02*
X66088381Y-49329219D01*
X65749715Y-49716267D01*
X65894857Y-49716267D01*
X65991619Y-49764648D01*
X66040000Y-49813029D01*
X66088381Y-49909790D01*
X66088381Y-50151695D01*
X66040000Y-50248457D01*
X65991619Y-50296838D01*
X65894857Y-50345219D01*
X65604572Y-50345219D01*
X65507810Y-50296838D01*
X65459429Y-50248457D01*
X66523810Y-50248457D02*
X66572191Y-50296838D01*
X66523810Y-50345219D01*
X66475429Y-50296838D01*
X66523810Y-50248457D01*
X66523810Y-50345219D01*
X66910858Y-49329219D02*
X67539810Y-49329219D01*
X67201144Y-49716267D01*
X67346286Y-49716267D01*
X67443048Y-49764648D01*
X67491429Y-49813029D01*
X67539810Y-49909790D01*
X67539810Y-50151695D01*
X67491429Y-50248457D01*
X67443048Y-50296838D01*
X67346286Y-50345219D01*
X67056001Y-50345219D01*
X66959239Y-50296838D01*
X66910858Y-50248457D01*
X68507429Y-50345219D02*
X67926858Y-50345219D01*
X68217144Y-50345219D02*
X68217144Y-49329219D01*
X68120382Y-49474362D01*
X68023620Y-49571124D01*
X67926858Y-49619505D01*
D12*
X60788000Y-44188000D02*
X60788000Y-43188000D01*
X62148000Y-43188000D02*
X62148000Y-44188000D01*
D13*
X32312000Y-37590000D02*
X48062000Y-37590000D01*
X48062000Y-37590000D02*
X48062000Y-53850000D01*
X48062000Y-53850000D02*
X32312000Y-53850000D01*
X32312000Y-53850000D02*
X32312000Y-37590000D01*
D12*
X77326000Y-43120000D02*
X76986000Y-43120000D01*
X76986000Y-43120000D02*
X76986000Y-48320000D01*
X76986000Y-48320000D02*
X77326000Y-48320000D01*
X79646000Y-43120000D02*
X79986000Y-43120000D01*
X79986000Y-43120000D02*
X79986000Y-48320000D01*
X79986000Y-48320000D02*
X79646000Y-48320000D01*
X81636000Y-47490000D02*
X81636000Y-47890000D01*
X81636000Y-47490000D02*
X82036000Y-47490000D01*
X81636000Y-47490000D02*
X82436000Y-48290000D01*
X82036000Y-46490000D02*
X82836000Y-47290000D01*
X82036000Y-46490000D02*
X82436000Y-46490000D01*
X82036000Y-46490000D02*
X82036000Y-46890000D01*
X79987736Y-47819917D02*
G75*
G03X79986000Y-43620000I-101736J2099917D01*
G01*
D13*
X55829200Y-48082200D02*
X55956200Y-48082200D01*
X57835800Y-48056800D02*
X57937400Y-48056800D01*
X57957233Y-48058882D02*
G75*
G03X57962800Y-42367200I-1061233J2846882D01*
G01*
X55818104Y-42345949D02*
G75*
G03X55829200Y-48082200I1077896J-2866051D01*
G01*
X58064400Y-48006000D02*
X57835800Y-48006000D01*
X58318400Y-47879000D02*
X57835800Y-47879000D01*
X58521600Y-47752000D02*
X57835800Y-47752000D01*
X58699400Y-47625000D02*
X57835800Y-47625000D01*
X57835800Y-47625000D02*
X57835800Y-48056800D01*
X55956200Y-47625000D02*
X55956200Y-48082200D01*
X55676800Y-48006000D02*
X55956200Y-48006000D01*
X55422800Y-47879000D02*
X55956200Y-47879000D01*
X55219600Y-47752000D02*
X55956200Y-47752000D01*
X55041800Y-47625000D02*
X55956200Y-47625000D01*
X53594000Y-48514000D02*
X55778400Y-48514000D01*
X60198000Y-48514000D02*
X58013600Y-48514000D01*
X54356000Y-41910000D02*
X55778400Y-41910000D01*
X58039000Y-41910000D02*
X59436000Y-41910000D01*
X53594000Y-49174400D02*
X54356000Y-49174400D01*
X60198000Y-48514000D02*
X60198000Y-42672000D01*
X60198000Y-42672000D02*
X59436000Y-41910000D01*
X54356000Y-41910000D02*
X53594000Y-42672000D01*
X53594000Y-42672000D02*
X53594000Y-48514000D01*
X53949600Y-40944800D02*
X53949600Y-41706800D01*
X53594000Y-41325800D02*
X54356000Y-41325800D01*
D12*
X52062000Y-43860000D02*
X51062000Y-43860000D01*
X51062000Y-42500000D02*
X52062000Y-42500000D01*
D10*
X61301334Y-46077143D02*
X61253715Y-46124762D01*
X61110858Y-46172381D01*
X61015620Y-46172381D01*
X60872762Y-46124762D01*
X60777524Y-46029524D01*
X60729905Y-45934286D01*
X60682286Y-45743810D01*
X60682286Y-45600952D01*
X60729905Y-45410476D01*
X60777524Y-45315238D01*
X60872762Y-45220000D01*
X61015620Y-45172381D01*
X61110858Y-45172381D01*
X61253715Y-45220000D01*
X61301334Y-45267619D01*
X61682286Y-45267619D02*
X61729905Y-45220000D01*
X61825143Y-45172381D01*
X62063239Y-45172381D01*
X62158477Y-45220000D01*
X62206096Y-45267619D01*
X62253715Y-45362857D01*
X62253715Y-45458095D01*
X62206096Y-45600952D01*
X61634667Y-46172381D01*
X62253715Y-46172381D01*
X46977334Y-52647905D02*
X46977334Y-53219333D01*
X46939238Y-53333619D01*
X46863048Y-53409810D01*
X46748762Y-53447905D01*
X46672572Y-53447905D01*
X47777334Y-53447905D02*
X47320191Y-53447905D01*
X47548762Y-53447905D02*
X47548762Y-52647905D01*
X47472572Y-52762190D01*
X47396381Y-52838381D01*
X47320191Y-52876476D01*
X46551905Y-44075000D02*
X47123333Y-44075000D01*
X47237619Y-44113096D01*
X47313810Y-44189286D01*
X47351905Y-44303572D01*
X47351905Y-44379762D01*
X47123333Y-43732143D02*
X47123333Y-43351191D01*
X47351905Y-43808334D02*
X46551905Y-43541667D01*
X47351905Y-43275000D01*
X47275714Y-42551191D02*
X47313810Y-42589286D01*
X47351905Y-42703572D01*
X47351905Y-42779762D01*
X47313810Y-42894048D01*
X47237619Y-42970239D01*
X47161429Y-43008334D01*
X47009048Y-43046429D01*
X46894762Y-43046429D01*
X46742381Y-43008334D01*
X46666190Y-42970239D01*
X46590000Y-42894048D01*
X46551905Y-42779762D01*
X46551905Y-42703572D01*
X46590000Y-42589286D01*
X46628095Y-42551191D01*
X47351905Y-42208334D02*
X46551905Y-42208334D01*
X47351905Y-41751191D02*
X46894762Y-42094048D01*
X46551905Y-41751191D02*
X47009048Y-42208334D01*
X47428095Y-41598810D02*
X47428095Y-40989286D01*
X47351905Y-40341667D02*
X46970952Y-40608334D01*
X47351905Y-40798810D02*
X46551905Y-40798810D01*
X46551905Y-40494048D01*
X46590000Y-40417857D01*
X46628095Y-40379762D01*
X46704286Y-40341667D01*
X46818571Y-40341667D01*
X46894762Y-40379762D01*
X46932857Y-40417857D01*
X46970952Y-40494048D01*
X46970952Y-40798810D01*
X46551905Y-39770238D02*
X47123333Y-39770238D01*
X47237619Y-39808334D01*
X47313810Y-39884524D01*
X47351905Y-39998810D01*
X47351905Y-40075000D01*
X46818571Y-39046429D02*
X47351905Y-39046429D01*
X46513810Y-39236905D02*
X47085238Y-39427381D01*
X47085238Y-38932143D01*
X46551905Y-38246428D02*
X46551905Y-38627381D01*
X46932857Y-38665476D01*
X46894762Y-38627381D01*
X46856667Y-38551190D01*
X46856667Y-38360714D01*
X46894762Y-38284524D01*
X46932857Y-38246428D01*
X47009048Y-38208333D01*
X47199524Y-38208333D01*
X47275714Y-38246428D01*
X47313810Y-38284524D01*
X47351905Y-38360714D01*
X47351905Y-38551190D01*
X47313810Y-38627381D01*
X47275714Y-38665476D01*
X76962095Y-49744381D02*
X76962095Y-50553905D01*
X77009714Y-50649143D01*
X77057333Y-50696762D01*
X77152571Y-50744381D01*
X77343048Y-50744381D01*
X77438286Y-50696762D01*
X77485905Y-50649143D01*
X77533524Y-50553905D01*
X77533524Y-49744381D01*
X77914476Y-49744381D02*
X78533524Y-49744381D01*
X78200190Y-50125333D01*
X78343048Y-50125333D01*
X78438286Y-50172952D01*
X78485905Y-50220571D01*
X78533524Y-50315810D01*
X78533524Y-50553905D01*
X78485905Y-50649143D01*
X78438286Y-50696762D01*
X78343048Y-50744381D01*
X78057333Y-50744381D01*
X77962095Y-50696762D01*
X77914476Y-50649143D01*
X58794667Y-49561714D02*
X58756572Y-49599810D01*
X58642286Y-49637905D01*
X58566096Y-49637905D01*
X58451810Y-49599810D01*
X58375619Y-49523619D01*
X58337524Y-49447429D01*
X58299429Y-49295048D01*
X58299429Y-49180762D01*
X58337524Y-49028381D01*
X58375619Y-48952190D01*
X58451810Y-48876000D01*
X58566096Y-48837905D01*
X58642286Y-48837905D01*
X58756572Y-48876000D01*
X58794667Y-48914095D01*
X59556572Y-49637905D02*
X59099429Y-49637905D01*
X59328000Y-49637905D02*
X59328000Y-48837905D01*
X59251810Y-48952190D01*
X59175619Y-49028381D01*
X59099429Y-49066476D01*
X55784905Y-45599305D02*
X55327762Y-45599305D01*
X55556333Y-45599305D02*
X55556333Y-44799305D01*
X55480143Y-44913590D01*
X55403952Y-44989781D01*
X55327762Y-45027876D01*
X56280143Y-44799305D02*
X56356334Y-44799305D01*
X56432524Y-44837400D01*
X56470619Y-44875495D01*
X56508715Y-44951686D01*
X56546810Y-45104067D01*
X56546810Y-45294543D01*
X56508715Y-45446924D01*
X56470619Y-45523114D01*
X56432524Y-45561210D01*
X56356334Y-45599305D01*
X56280143Y-45599305D01*
X56203953Y-45561210D01*
X56165857Y-45523114D01*
X56127762Y-45446924D01*
X56089667Y-45294543D01*
X56089667Y-45104067D01*
X56127762Y-44951686D01*
X56165857Y-44875495D01*
X56203953Y-44837400D01*
X56280143Y-44799305D01*
X57042048Y-44799305D02*
X57118239Y-44799305D01*
X57194429Y-44837400D01*
X57232524Y-44875495D01*
X57270620Y-44951686D01*
X57308715Y-45104067D01*
X57308715Y-45294543D01*
X57270620Y-45446924D01*
X57232524Y-45523114D01*
X57194429Y-45561210D01*
X57118239Y-45599305D01*
X57042048Y-45599305D01*
X56965858Y-45561210D01*
X56927762Y-45523114D01*
X56889667Y-45446924D01*
X56851572Y-45294543D01*
X56851572Y-45104067D01*
X56889667Y-44951686D01*
X56927762Y-44875495D01*
X56965858Y-44837400D01*
X57042048Y-44799305D01*
X57994429Y-45065971D02*
X57994429Y-45599305D01*
X57651572Y-45065971D02*
X57651572Y-45485019D01*
X57689667Y-45561210D01*
X57765858Y-45599305D01*
X57880144Y-45599305D01*
X57956334Y-45561210D01*
X57994429Y-45523114D01*
X58642049Y-45180257D02*
X58375382Y-45180257D01*
X58375382Y-45599305D02*
X58375382Y-44799305D01*
X58756335Y-44799305D01*
X51395334Y-42182381D02*
X51062000Y-41706190D01*
X50823905Y-42182381D02*
X50823905Y-41182381D01*
X51204858Y-41182381D01*
X51300096Y-41230000D01*
X51347715Y-41277619D01*
X51395334Y-41372857D01*
X51395334Y-41515714D01*
X51347715Y-41610952D01*
X51300096Y-41658571D01*
X51204858Y-41706190D01*
X50823905Y-41706190D01*
X52347715Y-42182381D02*
X51776286Y-42182381D01*
X52062000Y-42182381D02*
X52062000Y-41182381D01*
X51966762Y-41325238D01*
X51871524Y-41420476D01*
X51776286Y-41468095D01*
M02*
