G04 #@! TF.FileFunction,Copper,L1,Top,Signal*
%FSLAX46Y46*%
G04 Gerber Fmt 4.6, Leading zero omitted, Abs format (unit mm)*
G04 Created by KiCad (PCBNEW 4.0.7) date 01/10/18 16:29:44*
%MOMM*%
%LPD*%
G01*
G04 APERTURE LIST*
%ADD10C,0.150000*%
%ADD11R,0.900000X0.500000*%
%ADD12C,2.200000*%
%ADD13C,1.600000*%
%ADD14R,1.800000X1.800000*%
%ADD15C,1.800000*%
%ADD16R,1.600200X3.599200*%
%ADD17R,0.500000X0.900000*%
%ADD18C,5.000000*%
%ADD19C,1.016000*%
%ADD20C,0.762000*%
%ADD21C,0.508000*%
G04 APERTURE END LIST*
D10*
D11*
X82042000Y-43700000D03*
X82042000Y-45200000D03*
D12*
X41272000Y-37590000D03*
X41272000Y-53850000D03*
D13*
X40252000Y-45220000D03*
X40252000Y-47250000D03*
X42032000Y-44190000D03*
X42032000Y-46220000D03*
X42032000Y-42160000D03*
X40252000Y-43190000D03*
X42032000Y-48250000D03*
X40252000Y-49280000D03*
D14*
X84836000Y-48260000D03*
D15*
X84836000Y-45720000D03*
X84836000Y-43180000D03*
D16*
X77470000Y-43223200D03*
X77470000Y-48724800D03*
D17*
X71386000Y-43942000D03*
X72886000Y-43942000D03*
D18*
X51435000Y-38735000D03*
X51435000Y-52705000D03*
X70485000Y-38735000D03*
X70485000Y-52705000D03*
D19*
X81788000Y-47752000D03*
D20*
X77470000Y-48724800D02*
X80815200Y-48724800D01*
X82042000Y-47498000D02*
X81788000Y-47752000D01*
X82042000Y-47498000D02*
X82042000Y-45200000D01*
X80815200Y-48724800D02*
X81788000Y-47752000D01*
X42032000Y-48250000D02*
X71872000Y-48250000D01*
X83566000Y-48260000D02*
X84836000Y-48260000D01*
X80010000Y-51816000D02*
X83566000Y-48260000D01*
X75438000Y-51816000D02*
X80010000Y-51816000D01*
X71872000Y-48250000D02*
X75438000Y-51816000D01*
D21*
X84836000Y-48260000D02*
X84582000Y-48260000D01*
D20*
X40252000Y-49280000D02*
X40136000Y-49280000D01*
X40136000Y-49280000D02*
X37846000Y-46990000D01*
X46990000Y-43942000D02*
X71386000Y-43942000D01*
X43434000Y-40386000D02*
X46990000Y-43942000D01*
X40386000Y-40386000D02*
X43434000Y-40386000D01*
X37846000Y-42926000D02*
X40386000Y-40386000D01*
X37846000Y-46990000D02*
X37846000Y-42926000D01*
X40252000Y-49280000D02*
X40644000Y-49280000D01*
X82042000Y-43700000D02*
X84316000Y-43700000D01*
X84316000Y-43700000D02*
X84836000Y-43180000D01*
X77470000Y-43223200D02*
X81565200Y-43223200D01*
X81565200Y-43223200D02*
X82042000Y-43700000D01*
X72886000Y-43942000D02*
X76751200Y-43942000D01*
X76751200Y-43942000D02*
X77470000Y-43223200D01*
M02*
