G04 #@! TF.FileFunction,Copper,L2,Bot,Signal*
%FSLAX46Y46*%
G04 Gerber Fmt 4.6, Leading zero omitted, Abs format (unit mm)*
G04 Created by KiCad (PCBNEW 4.0.7) date 02/05/18 16:40:09*
%MOMM*%
%LPD*%
G01*
G04 APERTURE LIST*
%ADD10C,0.100000*%
%ADD11R,4.000000X4.000000*%
%ADD12C,4.000000*%
%ADD13C,1.701800*%
%ADD14C,6.400000*%
%ADD15R,1.700000X1.700000*%
%ADD16O,1.700000X1.700000*%
%ADD17C,0.609600*%
%ADD18C,0.762000*%
%ADD19C,0.254000*%
%ADD20C,0.508000*%
G04 APERTURE END LIST*
D10*
D11*
X51117500Y-44767500D03*
D12*
X61117500Y-44767500D03*
D13*
X58166000Y-88544400D03*
X58166000Y-95554800D03*
D14*
X95250000Y-29210000D03*
X29210000Y-29210000D03*
X95250000Y-95250000D03*
X29210000Y-95250000D03*
D15*
X85725000Y-97155000D03*
D16*
X83185000Y-97155000D03*
X80645000Y-97155000D03*
X78105000Y-97155000D03*
X75565000Y-97155000D03*
X73025000Y-97155000D03*
D11*
X46736000Y-87630000D03*
X46736000Y-93630000D03*
X51436000Y-90630000D03*
D17*
X90551000Y-81915000D03*
X90551000Y-86106000D03*
X88392000Y-95504000D03*
X85852000Y-93980000D03*
X90678000Y-93980000D03*
X87376000Y-92202000D03*
X89408000Y-92202000D03*
X89154000Y-89408000D03*
X87376000Y-89408000D03*
X83058000Y-87630000D03*
X81534000Y-92964000D03*
X82550000Y-93726000D03*
X65532000Y-97790000D03*
X59690000Y-97536000D03*
X71628000Y-46228000D03*
X74422000Y-46228000D03*
X73152000Y-46228000D03*
X71628000Y-42672000D03*
X74676000Y-42672000D03*
X73152000Y-42672000D03*
X68834000Y-43180000D03*
X69342000Y-41656000D03*
X70358000Y-40640000D03*
X62738000Y-41656000D03*
X58928000Y-37084000D03*
X61468000Y-40640000D03*
X74168000Y-34798000D03*
X65278000Y-33782000D03*
X40640000Y-27432000D03*
X33020000Y-34544000D03*
X34544000Y-32512000D03*
X36068000Y-34544000D03*
X35052000Y-62484000D03*
X33782000Y-60198000D03*
X43180000Y-83566000D03*
X40640000Y-84582000D03*
X39370000Y-96774000D03*
X35814000Y-96774000D03*
X37592000Y-93980000D03*
X81661000Y-85979000D03*
X74803000Y-85725000D03*
X80645000Y-94615000D03*
X73025000Y-91363821D03*
X76835000Y-88900000D03*
X55245000Y-81280000D03*
X56515000Y-89535000D03*
X89916000Y-30480000D03*
X98298000Y-33909000D03*
X78105000Y-68580000D03*
X74930000Y-68580000D03*
X71755000Y-68580000D03*
X68580000Y-68580000D03*
X65405000Y-68580000D03*
X62230000Y-68580000D03*
X59055000Y-68580000D03*
X55880000Y-62230000D03*
X52705000Y-62230000D03*
X49530000Y-62230000D03*
X46355000Y-62230000D03*
X59055000Y-62230000D03*
X55880000Y-68580000D03*
X52705000Y-68580000D03*
X46355000Y-68580000D03*
X49530000Y-68580000D03*
X71755000Y-55880000D03*
X68580000Y-55880000D03*
X65405000Y-55880000D03*
X62230000Y-55880000D03*
X59055000Y-55880000D03*
X55880000Y-55880000D03*
X52705000Y-55880000D03*
X49530000Y-55880000D03*
X46355000Y-55880000D03*
X74930000Y-55880000D03*
X78105000Y-55880000D03*
X74930000Y-62230000D03*
X78105000Y-62230000D03*
X71755000Y-62230000D03*
X68580000Y-62230000D03*
X65405000Y-62230000D03*
X62230000Y-62230000D03*
X73025000Y-88468179D03*
X76835000Y-83820000D03*
X73025000Y-85725000D03*
X72166198Y-93345000D03*
D18*
X90551000Y-86106000D02*
X90551000Y-81915000D01*
D19*
X81407000Y-85725000D02*
X81661000Y-85979000D01*
X74803000Y-85725000D02*
X81407000Y-85725000D01*
X80645000Y-94615000D02*
X83185000Y-97155000D01*
X76835000Y-88900000D02*
X74371179Y-91363821D01*
X74371179Y-91363821D02*
X73025000Y-91363821D01*
D20*
X55245000Y-88265000D02*
X55245000Y-81280000D01*
X56515000Y-89535000D02*
X55245000Y-88265000D01*
D18*
X90805000Y-30480000D02*
X89916000Y-30480000D01*
X91400802Y-31075802D02*
X90805000Y-30480000D01*
X90805000Y-30480000D02*
X90551000Y-30480000D01*
X91440000Y-31075802D02*
X91400802Y-31075802D01*
X98298000Y-33909000D02*
X94273198Y-33909000D01*
X94273198Y-33909000D02*
X91440000Y-31075802D01*
D19*
X71755000Y-68580000D02*
X74930000Y-68580000D01*
X65405000Y-68580000D02*
X68580000Y-68580000D01*
X59055000Y-68580000D02*
X62230000Y-68580000D01*
X55880000Y-62230000D02*
X52705000Y-62230000D01*
X49530000Y-62230000D02*
X46355000Y-62230000D01*
X52705000Y-68580000D02*
X55880000Y-68580000D01*
X49530000Y-68580000D02*
X46355000Y-68580000D01*
X71755000Y-55880000D02*
X74930000Y-55880000D01*
X65405000Y-55880000D02*
X68580000Y-55880000D01*
X59055000Y-55880000D02*
X62230000Y-55880000D01*
X52705000Y-55880000D02*
X55880000Y-55880000D01*
X46355000Y-55880000D02*
X49530000Y-55880000D01*
X78105000Y-55880000D02*
X74930000Y-55880000D01*
X74930000Y-55880000D02*
X74930000Y-62230000D01*
X78105000Y-62230000D02*
X71755000Y-62230000D01*
X68580000Y-62230000D02*
X65405000Y-62230000D01*
X62230000Y-62230000D02*
X59055000Y-62230000D01*
X72166198Y-93345000D02*
X72166198Y-89326981D01*
X72166198Y-89326981D02*
X73025000Y-88468179D01*
D18*
X74930000Y-83820000D02*
X76835000Y-83820000D01*
X73025000Y-85725000D02*
X74930000Y-83820000D01*
D19*
G36*
X79248000Y-74168000D02*
X45212000Y-74168000D01*
X45212000Y-50292000D01*
X79248000Y-50292000D01*
X79248000Y-74168000D01*
X79248000Y-74168000D01*
G37*
X79248000Y-74168000D02*
X45212000Y-74168000D01*
X45212000Y-50292000D01*
X79248000Y-50292000D01*
X79248000Y-74168000D01*
G36*
X92000741Y-27034811D02*
X91415667Y-28443825D01*
X91414581Y-29688855D01*
X91193807Y-29541338D01*
X91129300Y-29528507D01*
X90805000Y-29464000D01*
X89916000Y-29464000D01*
X89527194Y-29541338D01*
X89197580Y-29761580D01*
X88977338Y-30091194D01*
X88900000Y-30480000D01*
X88977338Y-30868806D01*
X89197580Y-31198420D01*
X89527194Y-31418662D01*
X89916000Y-31496000D01*
X90384160Y-31496000D01*
X90682381Y-31794222D01*
X90800514Y-31873156D01*
X93554777Y-34627420D01*
X93884391Y-34847662D01*
X93948898Y-34860493D01*
X94273198Y-34925000D01*
X98298000Y-34925000D01*
X98350000Y-34914657D01*
X98350000Y-79883000D01*
X61087000Y-79883000D01*
X61087000Y-76327000D01*
X81280000Y-76327000D01*
X81329410Y-76316994D01*
X81371035Y-76288553D01*
X81398315Y-76246159D01*
X81407000Y-76200000D01*
X81407000Y-48260000D01*
X81396994Y-48210590D01*
X81368553Y-48168965D01*
X81326159Y-48141685D01*
X81280000Y-48133000D01*
X43180000Y-48133000D01*
X43130590Y-48143006D01*
X43088965Y-48171447D01*
X43061685Y-48213841D01*
X43053000Y-48260000D01*
X43053000Y-76200000D01*
X43063006Y-76249410D01*
X43091447Y-76291035D01*
X43133841Y-76318315D01*
X43180000Y-76327000D01*
X59563000Y-76327000D01*
X59563000Y-79883000D01*
X33020000Y-79883000D01*
X32970590Y-79893006D01*
X32928965Y-79921447D01*
X32901685Y-79963841D01*
X32893000Y-80010000D01*
X32893000Y-81280000D01*
X32903006Y-81329410D01*
X32931447Y-81371035D01*
X32973841Y-81398315D01*
X33020000Y-81407000D01*
X54305089Y-81407000D01*
X54305037Y-81466118D01*
X54356000Y-81589458D01*
X54356000Y-88265000D01*
X54423671Y-88605206D01*
X54526957Y-88759784D01*
X54616382Y-88893618D01*
X55667388Y-89944624D01*
X55717812Y-90066659D01*
X55981951Y-90331259D01*
X56327242Y-90474637D01*
X56701118Y-90474963D01*
X57046659Y-90332188D01*
X57311259Y-90068049D01*
X57406764Y-89838047D01*
X57869139Y-90030042D01*
X58460267Y-90030558D01*
X59006595Y-89804820D01*
X59424951Y-89387194D01*
X59651642Y-88841261D01*
X59652158Y-88250133D01*
X59426420Y-87703805D01*
X59008794Y-87285449D01*
X58462861Y-87058758D01*
X57871733Y-87058242D01*
X57325405Y-87283980D01*
X56907049Y-87701606D01*
X56680358Y-88247539D01*
X56680187Y-88442951D01*
X56134000Y-87896764D01*
X56134000Y-85725000D01*
X72009001Y-85725000D01*
X72086338Y-86113807D01*
X72306580Y-86443420D01*
X72636193Y-86663662D01*
X73025000Y-86740999D01*
X73413807Y-86663662D01*
X73743420Y-86443420D01*
X73983699Y-86203141D01*
X74005812Y-86256659D01*
X74269951Y-86521259D01*
X74615242Y-86664637D01*
X74989118Y-86664963D01*
X75334659Y-86522188D01*
X75369908Y-86487000D01*
X80854036Y-86487000D01*
X80863812Y-86510659D01*
X81127951Y-86775259D01*
X81473242Y-86918637D01*
X81847118Y-86918963D01*
X82192659Y-86776188D01*
X82457259Y-86512049D01*
X82600637Y-86166758D01*
X82600963Y-85792882D01*
X82458188Y-85447341D01*
X82194049Y-85182741D01*
X81848758Y-85039363D01*
X81725921Y-85039256D01*
X81698605Y-85021004D01*
X81407000Y-84963000D01*
X75370248Y-84963000D01*
X75336049Y-84928741D01*
X75280971Y-84905870D01*
X75350841Y-84836000D01*
X76835000Y-84836000D01*
X77223806Y-84758662D01*
X77553420Y-84538420D01*
X77773662Y-84208806D01*
X77851000Y-83820000D01*
X77773662Y-83431194D01*
X77553420Y-83101580D01*
X77223806Y-82881338D01*
X76835000Y-82804000D01*
X74930000Y-82804000D01*
X74605700Y-82868507D01*
X74541193Y-82881338D01*
X74211580Y-83101579D01*
X72306580Y-85006580D01*
X72086338Y-85336193D01*
X72009001Y-85725000D01*
X56134000Y-85725000D01*
X56134000Y-81589705D01*
X56184637Y-81467758D01*
X56184690Y-81407000D01*
X89691981Y-81407000D01*
X89612338Y-81526194D01*
X89535000Y-81915000D01*
X89535000Y-86106000D01*
X89612338Y-86494806D01*
X89832580Y-86824420D01*
X90162194Y-87044662D01*
X90551000Y-87122000D01*
X90939806Y-87044662D01*
X91269420Y-86824420D01*
X91489662Y-86494806D01*
X91567000Y-86106000D01*
X91567000Y-81915000D01*
X91489662Y-81526194D01*
X91410019Y-81407000D01*
X98350000Y-81407000D01*
X98350000Y-92927168D01*
X97425189Y-92000741D01*
X96016175Y-91415667D01*
X94490518Y-91414336D01*
X93080485Y-91996950D01*
X92000741Y-93074811D01*
X91415667Y-94483825D01*
X91414336Y-96009482D01*
X91996950Y-97419515D01*
X92925812Y-98350000D01*
X87119415Y-98350000D01*
X87210000Y-98131309D01*
X87210000Y-97738750D01*
X87051250Y-97580000D01*
X86150000Y-97580000D01*
X86150000Y-98005000D01*
X85300000Y-98005000D01*
X85300000Y-97580000D01*
X84875000Y-97580000D01*
X84875000Y-96730000D01*
X85300000Y-96730000D01*
X85300000Y-95828750D01*
X86150000Y-95828750D01*
X86150000Y-96730000D01*
X87051250Y-96730000D01*
X87210000Y-96571250D01*
X87210000Y-96178691D01*
X87113327Y-95945302D01*
X86934699Y-95766673D01*
X86701310Y-95670000D01*
X86308750Y-95670000D01*
X86150000Y-95828750D01*
X85300000Y-95828750D01*
X85141250Y-95670000D01*
X84748690Y-95670000D01*
X84515301Y-95766673D01*
X84336673Y-95945302D01*
X84309047Y-96011998D01*
X84240000Y-96011998D01*
X84240000Y-96083255D01*
X84235054Y-96075853D01*
X83753285Y-95753946D01*
X83185000Y-95640907D01*
X82820951Y-95713321D01*
X81584921Y-94477291D01*
X81584963Y-94428882D01*
X81442188Y-94083341D01*
X81178049Y-93818741D01*
X80832758Y-93675363D01*
X80458882Y-93675037D01*
X80113341Y-93817812D01*
X79848741Y-94081951D01*
X79705363Y-94427242D01*
X79705037Y-94801118D01*
X79847812Y-95146659D01*
X80111951Y-95411259D01*
X80457242Y-95554637D01*
X80507050Y-95554680D01*
X80601858Y-95649488D01*
X80076715Y-95753946D01*
X79594946Y-96075853D01*
X79375000Y-96405026D01*
X79155054Y-96075853D01*
X78673285Y-95753946D01*
X78105000Y-95640907D01*
X77536715Y-95753946D01*
X77054946Y-96075853D01*
X76835000Y-96405026D01*
X76615054Y-96075853D01*
X76133285Y-95753946D01*
X75565000Y-95640907D01*
X74996715Y-95753946D01*
X74514946Y-96075853D01*
X74295000Y-96405026D01*
X74075054Y-96075853D01*
X73593285Y-95753946D01*
X73025000Y-95640907D01*
X72456715Y-95753946D01*
X71974946Y-96075853D01*
X71653039Y-96557622D01*
X71540000Y-97125907D01*
X71540000Y-97184093D01*
X71653039Y-97752378D01*
X71974946Y-98234147D01*
X72148333Y-98350000D01*
X31532832Y-98350000D01*
X32459259Y-97425189D01*
X33044333Y-96016175D01*
X33045403Y-94788750D01*
X44101000Y-94788750D01*
X44101000Y-95756309D01*
X44197673Y-95989698D01*
X44376301Y-96168327D01*
X44609690Y-96265000D01*
X45577250Y-96265000D01*
X45736000Y-96106250D01*
X45736000Y-94630000D01*
X47736000Y-94630000D01*
X47736000Y-96106250D01*
X47894750Y-96265000D01*
X48862310Y-96265000D01*
X49095699Y-96168327D01*
X49274327Y-95989698D01*
X49332578Y-95849067D01*
X56679842Y-95849067D01*
X56905580Y-96395395D01*
X57323206Y-96813751D01*
X57869139Y-97040442D01*
X58460267Y-97040958D01*
X59006595Y-96815220D01*
X59424951Y-96397594D01*
X59651642Y-95851661D01*
X59652158Y-95260533D01*
X59426420Y-94714205D01*
X59008794Y-94295849D01*
X58462861Y-94069158D01*
X57871733Y-94068642D01*
X57325405Y-94294380D01*
X56907049Y-94712006D01*
X56680358Y-95257939D01*
X56679842Y-95849067D01*
X49332578Y-95849067D01*
X49371000Y-95756309D01*
X49371000Y-94788750D01*
X49212250Y-94630000D01*
X47736000Y-94630000D01*
X45736000Y-94630000D01*
X44259750Y-94630000D01*
X44101000Y-94788750D01*
X33045403Y-94788750D01*
X33045664Y-94490518D01*
X32868377Y-94061450D01*
X64205588Y-94061450D01*
X64390809Y-94509719D01*
X64733477Y-94852985D01*
X65181422Y-95038988D01*
X65666450Y-95039412D01*
X66114719Y-94854191D01*
X66457985Y-94511523D01*
X66643988Y-94063578D01*
X66643989Y-94061450D01*
X66705588Y-94061450D01*
X66890809Y-94509719D01*
X67233477Y-94852985D01*
X67681422Y-95038988D01*
X68166450Y-95039412D01*
X68614719Y-94854191D01*
X68957985Y-94511523D01*
X69143988Y-94063578D01*
X69144412Y-93578550D01*
X69124814Y-93531118D01*
X71226235Y-93531118D01*
X71369010Y-93876659D01*
X71633149Y-94141259D01*
X71978440Y-94284637D01*
X72352316Y-94284963D01*
X72697857Y-94142188D01*
X72962457Y-93878049D01*
X73105835Y-93532758D01*
X73106161Y-93158882D01*
X72963386Y-92813341D01*
X72928198Y-92778092D01*
X72928198Y-92303537D01*
X73211118Y-92303784D01*
X73556659Y-92161009D01*
X73591908Y-92125821D01*
X74371179Y-92125821D01*
X74662784Y-92067817D01*
X74909994Y-91902636D01*
X76972709Y-89839921D01*
X77021118Y-89839963D01*
X77366659Y-89697188D01*
X77631259Y-89433049D01*
X77774637Y-89087758D01*
X77774963Y-88713882D01*
X77632188Y-88368341D01*
X77368049Y-88103741D01*
X77022758Y-87960363D01*
X76648882Y-87960037D01*
X76303341Y-88102812D01*
X76038741Y-88366951D01*
X75895363Y-88712242D01*
X75895320Y-88762050D01*
X74055549Y-90601821D01*
X73592248Y-90601821D01*
X73558049Y-90567562D01*
X73212758Y-90424184D01*
X72928198Y-90423936D01*
X72928198Y-89642611D01*
X73162710Y-89408100D01*
X73211118Y-89408142D01*
X73556659Y-89265367D01*
X73821259Y-89001228D01*
X73964637Y-88655937D01*
X73964963Y-88282061D01*
X73822188Y-87936520D01*
X73558049Y-87671920D01*
X73212758Y-87528542D01*
X72838882Y-87528216D01*
X72493341Y-87670991D01*
X72228741Y-87935130D01*
X72085363Y-88280421D01*
X72085320Y-88330229D01*
X71627383Y-88788166D01*
X71462202Y-89035376D01*
X71404198Y-89326981D01*
X71404198Y-92777752D01*
X71369939Y-92811951D01*
X71226561Y-93157242D01*
X71226235Y-93531118D01*
X69124814Y-93531118D01*
X68959191Y-93130281D01*
X68616523Y-92787015D01*
X68168578Y-92601012D01*
X67683550Y-92600588D01*
X67235281Y-92785809D01*
X66892015Y-93128477D01*
X66706012Y-93576422D01*
X66705588Y-94061450D01*
X66643989Y-94061450D01*
X66644412Y-93578550D01*
X66459191Y-93130281D01*
X66116523Y-92787015D01*
X65668578Y-92601012D01*
X65183550Y-92600588D01*
X64735281Y-92785809D01*
X64392015Y-93128477D01*
X64206012Y-93576422D01*
X64205588Y-94061450D01*
X32868377Y-94061450D01*
X32463050Y-93080485D01*
X31385189Y-92000741D01*
X30188161Y-91503691D01*
X44101000Y-91503691D01*
X44101000Y-92471250D01*
X44259750Y-92630000D01*
X45736000Y-92630000D01*
X45736000Y-91153750D01*
X45577250Y-90995000D01*
X44609690Y-90995000D01*
X44376301Y-91091673D01*
X44197673Y-91270302D01*
X44101000Y-91503691D01*
X30188161Y-91503691D01*
X29976175Y-91415667D01*
X28450518Y-91414336D01*
X27040485Y-91996950D01*
X26110000Y-92925812D01*
X26110000Y-85630000D01*
X44088560Y-85630000D01*
X44088560Y-89630000D01*
X44132838Y-89865317D01*
X44271910Y-90081441D01*
X44484110Y-90226431D01*
X44736000Y-90277440D01*
X48736000Y-90277440D01*
X48788560Y-90267550D01*
X48788560Y-90995000D01*
X47894750Y-90995000D01*
X47736000Y-91153750D01*
X47736000Y-92630000D01*
X48788560Y-92630000D01*
X48832838Y-92865317D01*
X48971910Y-93081441D01*
X49184110Y-93226431D01*
X49436000Y-93277440D01*
X53436000Y-93277440D01*
X53671317Y-93233162D01*
X53887441Y-93094090D01*
X54032431Y-92881890D01*
X54083440Y-92630000D01*
X54083440Y-88630000D01*
X54039162Y-88394683D01*
X53900090Y-88178559D01*
X53687890Y-88033569D01*
X53436000Y-87982560D01*
X49436000Y-87982560D01*
X49383440Y-87992450D01*
X49383440Y-85630000D01*
X49339162Y-85394683D01*
X49200090Y-85178559D01*
X48987890Y-85033569D01*
X48736000Y-84982560D01*
X44736000Y-84982560D01*
X44500683Y-85026838D01*
X44284559Y-85165910D01*
X44139569Y-85378110D01*
X44088560Y-85630000D01*
X26110000Y-85630000D01*
X26110000Y-81407000D01*
X27940000Y-81407000D01*
X27989410Y-81396994D01*
X28031035Y-81368553D01*
X28058315Y-81326159D01*
X28067000Y-81280000D01*
X28067000Y-80010000D01*
X28056994Y-79960590D01*
X28028553Y-79918965D01*
X27986159Y-79891685D01*
X27940000Y-79883000D01*
X26110000Y-79883000D01*
X26110000Y-42767500D01*
X48470060Y-42767500D01*
X48470060Y-46767500D01*
X48514338Y-47002817D01*
X48653410Y-47218941D01*
X48865610Y-47363931D01*
X49117500Y-47414940D01*
X53117500Y-47414940D01*
X53352817Y-47370662D01*
X53568941Y-47231590D01*
X53647733Y-47116274D01*
X60182940Y-47116274D01*
X60460828Y-47372633D01*
X61507755Y-47425628D01*
X61774172Y-47372633D01*
X62052060Y-47116274D01*
X61117500Y-46181714D01*
X60182940Y-47116274D01*
X53647733Y-47116274D01*
X53713931Y-47019390D01*
X53764940Y-46767500D01*
X53764940Y-45157755D01*
X58459372Y-45157755D01*
X58512367Y-45424172D01*
X58768726Y-45702060D01*
X59703286Y-44767500D01*
X62531714Y-44767500D01*
X63466274Y-45702060D01*
X63722633Y-45424172D01*
X63775628Y-44377245D01*
X63722633Y-44110828D01*
X63466274Y-43832940D01*
X62531714Y-44767500D01*
X59703286Y-44767500D01*
X58768726Y-43832940D01*
X58512367Y-44110828D01*
X58459372Y-45157755D01*
X53764940Y-45157755D01*
X53764940Y-42767500D01*
X53720662Y-42532183D01*
X53647655Y-42418726D01*
X60182940Y-42418726D01*
X61117500Y-43353286D01*
X62052060Y-42418726D01*
X61774172Y-42162367D01*
X60727245Y-42109372D01*
X60460828Y-42162367D01*
X60182940Y-42418726D01*
X53647655Y-42418726D01*
X53581590Y-42316059D01*
X53369390Y-42171069D01*
X53117500Y-42120060D01*
X49117500Y-42120060D01*
X48882183Y-42164338D01*
X48666059Y-42303410D01*
X48521069Y-42515610D01*
X48470060Y-42767500D01*
X26110000Y-42767500D01*
X26110000Y-31532832D01*
X27034811Y-32459259D01*
X28443825Y-33044333D01*
X29969482Y-33045664D01*
X31379515Y-32463050D01*
X32459259Y-31385189D01*
X33044333Y-29976175D01*
X33045664Y-28450518D01*
X32463050Y-27040485D01*
X31534188Y-26110000D01*
X92927168Y-26110000D01*
X92000741Y-27034811D01*
X92000741Y-27034811D01*
G37*
X92000741Y-27034811D02*
X91415667Y-28443825D01*
X91414581Y-29688855D01*
X91193807Y-29541338D01*
X91129300Y-29528507D01*
X90805000Y-29464000D01*
X89916000Y-29464000D01*
X89527194Y-29541338D01*
X89197580Y-29761580D01*
X88977338Y-30091194D01*
X88900000Y-30480000D01*
X88977338Y-30868806D01*
X89197580Y-31198420D01*
X89527194Y-31418662D01*
X89916000Y-31496000D01*
X90384160Y-31496000D01*
X90682381Y-31794222D01*
X90800514Y-31873156D01*
X93554777Y-34627420D01*
X93884391Y-34847662D01*
X93948898Y-34860493D01*
X94273198Y-34925000D01*
X98298000Y-34925000D01*
X98350000Y-34914657D01*
X98350000Y-79883000D01*
X61087000Y-79883000D01*
X61087000Y-76327000D01*
X81280000Y-76327000D01*
X81329410Y-76316994D01*
X81371035Y-76288553D01*
X81398315Y-76246159D01*
X81407000Y-76200000D01*
X81407000Y-48260000D01*
X81396994Y-48210590D01*
X81368553Y-48168965D01*
X81326159Y-48141685D01*
X81280000Y-48133000D01*
X43180000Y-48133000D01*
X43130590Y-48143006D01*
X43088965Y-48171447D01*
X43061685Y-48213841D01*
X43053000Y-48260000D01*
X43053000Y-76200000D01*
X43063006Y-76249410D01*
X43091447Y-76291035D01*
X43133841Y-76318315D01*
X43180000Y-76327000D01*
X59563000Y-76327000D01*
X59563000Y-79883000D01*
X33020000Y-79883000D01*
X32970590Y-79893006D01*
X32928965Y-79921447D01*
X32901685Y-79963841D01*
X32893000Y-80010000D01*
X32893000Y-81280000D01*
X32903006Y-81329410D01*
X32931447Y-81371035D01*
X32973841Y-81398315D01*
X33020000Y-81407000D01*
X54305089Y-81407000D01*
X54305037Y-81466118D01*
X54356000Y-81589458D01*
X54356000Y-88265000D01*
X54423671Y-88605206D01*
X54526957Y-88759784D01*
X54616382Y-88893618D01*
X55667388Y-89944624D01*
X55717812Y-90066659D01*
X55981951Y-90331259D01*
X56327242Y-90474637D01*
X56701118Y-90474963D01*
X57046659Y-90332188D01*
X57311259Y-90068049D01*
X57406764Y-89838047D01*
X57869139Y-90030042D01*
X58460267Y-90030558D01*
X59006595Y-89804820D01*
X59424951Y-89387194D01*
X59651642Y-88841261D01*
X59652158Y-88250133D01*
X59426420Y-87703805D01*
X59008794Y-87285449D01*
X58462861Y-87058758D01*
X57871733Y-87058242D01*
X57325405Y-87283980D01*
X56907049Y-87701606D01*
X56680358Y-88247539D01*
X56680187Y-88442951D01*
X56134000Y-87896764D01*
X56134000Y-85725000D01*
X72009001Y-85725000D01*
X72086338Y-86113807D01*
X72306580Y-86443420D01*
X72636193Y-86663662D01*
X73025000Y-86740999D01*
X73413807Y-86663662D01*
X73743420Y-86443420D01*
X73983699Y-86203141D01*
X74005812Y-86256659D01*
X74269951Y-86521259D01*
X74615242Y-86664637D01*
X74989118Y-86664963D01*
X75334659Y-86522188D01*
X75369908Y-86487000D01*
X80854036Y-86487000D01*
X80863812Y-86510659D01*
X81127951Y-86775259D01*
X81473242Y-86918637D01*
X81847118Y-86918963D01*
X82192659Y-86776188D01*
X82457259Y-86512049D01*
X82600637Y-86166758D01*
X82600963Y-85792882D01*
X82458188Y-85447341D01*
X82194049Y-85182741D01*
X81848758Y-85039363D01*
X81725921Y-85039256D01*
X81698605Y-85021004D01*
X81407000Y-84963000D01*
X75370248Y-84963000D01*
X75336049Y-84928741D01*
X75280971Y-84905870D01*
X75350841Y-84836000D01*
X76835000Y-84836000D01*
X77223806Y-84758662D01*
X77553420Y-84538420D01*
X77773662Y-84208806D01*
X77851000Y-83820000D01*
X77773662Y-83431194D01*
X77553420Y-83101580D01*
X77223806Y-82881338D01*
X76835000Y-82804000D01*
X74930000Y-82804000D01*
X74605700Y-82868507D01*
X74541193Y-82881338D01*
X74211580Y-83101579D01*
X72306580Y-85006580D01*
X72086338Y-85336193D01*
X72009001Y-85725000D01*
X56134000Y-85725000D01*
X56134000Y-81589705D01*
X56184637Y-81467758D01*
X56184690Y-81407000D01*
X89691981Y-81407000D01*
X89612338Y-81526194D01*
X89535000Y-81915000D01*
X89535000Y-86106000D01*
X89612338Y-86494806D01*
X89832580Y-86824420D01*
X90162194Y-87044662D01*
X90551000Y-87122000D01*
X90939806Y-87044662D01*
X91269420Y-86824420D01*
X91489662Y-86494806D01*
X91567000Y-86106000D01*
X91567000Y-81915000D01*
X91489662Y-81526194D01*
X91410019Y-81407000D01*
X98350000Y-81407000D01*
X98350000Y-92927168D01*
X97425189Y-92000741D01*
X96016175Y-91415667D01*
X94490518Y-91414336D01*
X93080485Y-91996950D01*
X92000741Y-93074811D01*
X91415667Y-94483825D01*
X91414336Y-96009482D01*
X91996950Y-97419515D01*
X92925812Y-98350000D01*
X87119415Y-98350000D01*
X87210000Y-98131309D01*
X87210000Y-97738750D01*
X87051250Y-97580000D01*
X86150000Y-97580000D01*
X86150000Y-98005000D01*
X85300000Y-98005000D01*
X85300000Y-97580000D01*
X84875000Y-97580000D01*
X84875000Y-96730000D01*
X85300000Y-96730000D01*
X85300000Y-95828750D01*
X86150000Y-95828750D01*
X86150000Y-96730000D01*
X87051250Y-96730000D01*
X87210000Y-96571250D01*
X87210000Y-96178691D01*
X87113327Y-95945302D01*
X86934699Y-95766673D01*
X86701310Y-95670000D01*
X86308750Y-95670000D01*
X86150000Y-95828750D01*
X85300000Y-95828750D01*
X85141250Y-95670000D01*
X84748690Y-95670000D01*
X84515301Y-95766673D01*
X84336673Y-95945302D01*
X84309047Y-96011998D01*
X84240000Y-96011998D01*
X84240000Y-96083255D01*
X84235054Y-96075853D01*
X83753285Y-95753946D01*
X83185000Y-95640907D01*
X82820951Y-95713321D01*
X81584921Y-94477291D01*
X81584963Y-94428882D01*
X81442188Y-94083341D01*
X81178049Y-93818741D01*
X80832758Y-93675363D01*
X80458882Y-93675037D01*
X80113341Y-93817812D01*
X79848741Y-94081951D01*
X79705363Y-94427242D01*
X79705037Y-94801118D01*
X79847812Y-95146659D01*
X80111951Y-95411259D01*
X80457242Y-95554637D01*
X80507050Y-95554680D01*
X80601858Y-95649488D01*
X80076715Y-95753946D01*
X79594946Y-96075853D01*
X79375000Y-96405026D01*
X79155054Y-96075853D01*
X78673285Y-95753946D01*
X78105000Y-95640907D01*
X77536715Y-95753946D01*
X77054946Y-96075853D01*
X76835000Y-96405026D01*
X76615054Y-96075853D01*
X76133285Y-95753946D01*
X75565000Y-95640907D01*
X74996715Y-95753946D01*
X74514946Y-96075853D01*
X74295000Y-96405026D01*
X74075054Y-96075853D01*
X73593285Y-95753946D01*
X73025000Y-95640907D01*
X72456715Y-95753946D01*
X71974946Y-96075853D01*
X71653039Y-96557622D01*
X71540000Y-97125907D01*
X71540000Y-97184093D01*
X71653039Y-97752378D01*
X71974946Y-98234147D01*
X72148333Y-98350000D01*
X31532832Y-98350000D01*
X32459259Y-97425189D01*
X33044333Y-96016175D01*
X33045403Y-94788750D01*
X44101000Y-94788750D01*
X44101000Y-95756309D01*
X44197673Y-95989698D01*
X44376301Y-96168327D01*
X44609690Y-96265000D01*
X45577250Y-96265000D01*
X45736000Y-96106250D01*
X45736000Y-94630000D01*
X47736000Y-94630000D01*
X47736000Y-96106250D01*
X47894750Y-96265000D01*
X48862310Y-96265000D01*
X49095699Y-96168327D01*
X49274327Y-95989698D01*
X49332578Y-95849067D01*
X56679842Y-95849067D01*
X56905580Y-96395395D01*
X57323206Y-96813751D01*
X57869139Y-97040442D01*
X58460267Y-97040958D01*
X59006595Y-96815220D01*
X59424951Y-96397594D01*
X59651642Y-95851661D01*
X59652158Y-95260533D01*
X59426420Y-94714205D01*
X59008794Y-94295849D01*
X58462861Y-94069158D01*
X57871733Y-94068642D01*
X57325405Y-94294380D01*
X56907049Y-94712006D01*
X56680358Y-95257939D01*
X56679842Y-95849067D01*
X49332578Y-95849067D01*
X49371000Y-95756309D01*
X49371000Y-94788750D01*
X49212250Y-94630000D01*
X47736000Y-94630000D01*
X45736000Y-94630000D01*
X44259750Y-94630000D01*
X44101000Y-94788750D01*
X33045403Y-94788750D01*
X33045664Y-94490518D01*
X32868377Y-94061450D01*
X64205588Y-94061450D01*
X64390809Y-94509719D01*
X64733477Y-94852985D01*
X65181422Y-95038988D01*
X65666450Y-95039412D01*
X66114719Y-94854191D01*
X66457985Y-94511523D01*
X66643988Y-94063578D01*
X66643989Y-94061450D01*
X66705588Y-94061450D01*
X66890809Y-94509719D01*
X67233477Y-94852985D01*
X67681422Y-95038988D01*
X68166450Y-95039412D01*
X68614719Y-94854191D01*
X68957985Y-94511523D01*
X69143988Y-94063578D01*
X69144412Y-93578550D01*
X69124814Y-93531118D01*
X71226235Y-93531118D01*
X71369010Y-93876659D01*
X71633149Y-94141259D01*
X71978440Y-94284637D01*
X72352316Y-94284963D01*
X72697857Y-94142188D01*
X72962457Y-93878049D01*
X73105835Y-93532758D01*
X73106161Y-93158882D01*
X72963386Y-92813341D01*
X72928198Y-92778092D01*
X72928198Y-92303537D01*
X73211118Y-92303784D01*
X73556659Y-92161009D01*
X73591908Y-92125821D01*
X74371179Y-92125821D01*
X74662784Y-92067817D01*
X74909994Y-91902636D01*
X76972709Y-89839921D01*
X77021118Y-89839963D01*
X77366659Y-89697188D01*
X77631259Y-89433049D01*
X77774637Y-89087758D01*
X77774963Y-88713882D01*
X77632188Y-88368341D01*
X77368049Y-88103741D01*
X77022758Y-87960363D01*
X76648882Y-87960037D01*
X76303341Y-88102812D01*
X76038741Y-88366951D01*
X75895363Y-88712242D01*
X75895320Y-88762050D01*
X74055549Y-90601821D01*
X73592248Y-90601821D01*
X73558049Y-90567562D01*
X73212758Y-90424184D01*
X72928198Y-90423936D01*
X72928198Y-89642611D01*
X73162710Y-89408100D01*
X73211118Y-89408142D01*
X73556659Y-89265367D01*
X73821259Y-89001228D01*
X73964637Y-88655937D01*
X73964963Y-88282061D01*
X73822188Y-87936520D01*
X73558049Y-87671920D01*
X73212758Y-87528542D01*
X72838882Y-87528216D01*
X72493341Y-87670991D01*
X72228741Y-87935130D01*
X72085363Y-88280421D01*
X72085320Y-88330229D01*
X71627383Y-88788166D01*
X71462202Y-89035376D01*
X71404198Y-89326981D01*
X71404198Y-92777752D01*
X71369939Y-92811951D01*
X71226561Y-93157242D01*
X71226235Y-93531118D01*
X69124814Y-93531118D01*
X68959191Y-93130281D01*
X68616523Y-92787015D01*
X68168578Y-92601012D01*
X67683550Y-92600588D01*
X67235281Y-92785809D01*
X66892015Y-93128477D01*
X66706012Y-93576422D01*
X66705588Y-94061450D01*
X66643989Y-94061450D01*
X66644412Y-93578550D01*
X66459191Y-93130281D01*
X66116523Y-92787015D01*
X65668578Y-92601012D01*
X65183550Y-92600588D01*
X64735281Y-92785809D01*
X64392015Y-93128477D01*
X64206012Y-93576422D01*
X64205588Y-94061450D01*
X32868377Y-94061450D01*
X32463050Y-93080485D01*
X31385189Y-92000741D01*
X30188161Y-91503691D01*
X44101000Y-91503691D01*
X44101000Y-92471250D01*
X44259750Y-92630000D01*
X45736000Y-92630000D01*
X45736000Y-91153750D01*
X45577250Y-90995000D01*
X44609690Y-90995000D01*
X44376301Y-91091673D01*
X44197673Y-91270302D01*
X44101000Y-91503691D01*
X30188161Y-91503691D01*
X29976175Y-91415667D01*
X28450518Y-91414336D01*
X27040485Y-91996950D01*
X26110000Y-92925812D01*
X26110000Y-85630000D01*
X44088560Y-85630000D01*
X44088560Y-89630000D01*
X44132838Y-89865317D01*
X44271910Y-90081441D01*
X44484110Y-90226431D01*
X44736000Y-90277440D01*
X48736000Y-90277440D01*
X48788560Y-90267550D01*
X48788560Y-90995000D01*
X47894750Y-90995000D01*
X47736000Y-91153750D01*
X47736000Y-92630000D01*
X48788560Y-92630000D01*
X48832838Y-92865317D01*
X48971910Y-93081441D01*
X49184110Y-93226431D01*
X49436000Y-93277440D01*
X53436000Y-93277440D01*
X53671317Y-93233162D01*
X53887441Y-93094090D01*
X54032431Y-92881890D01*
X54083440Y-92630000D01*
X54083440Y-88630000D01*
X54039162Y-88394683D01*
X53900090Y-88178559D01*
X53687890Y-88033569D01*
X53436000Y-87982560D01*
X49436000Y-87982560D01*
X49383440Y-87992450D01*
X49383440Y-85630000D01*
X49339162Y-85394683D01*
X49200090Y-85178559D01*
X48987890Y-85033569D01*
X48736000Y-84982560D01*
X44736000Y-84982560D01*
X44500683Y-85026838D01*
X44284559Y-85165910D01*
X44139569Y-85378110D01*
X44088560Y-85630000D01*
X26110000Y-85630000D01*
X26110000Y-81407000D01*
X27940000Y-81407000D01*
X27989410Y-81396994D01*
X28031035Y-81368553D01*
X28058315Y-81326159D01*
X28067000Y-81280000D01*
X28067000Y-80010000D01*
X28056994Y-79960590D01*
X28028553Y-79918965D01*
X27986159Y-79891685D01*
X27940000Y-79883000D01*
X26110000Y-79883000D01*
X26110000Y-42767500D01*
X48470060Y-42767500D01*
X48470060Y-46767500D01*
X48514338Y-47002817D01*
X48653410Y-47218941D01*
X48865610Y-47363931D01*
X49117500Y-47414940D01*
X53117500Y-47414940D01*
X53352817Y-47370662D01*
X53568941Y-47231590D01*
X53647733Y-47116274D01*
X60182940Y-47116274D01*
X60460828Y-47372633D01*
X61507755Y-47425628D01*
X61774172Y-47372633D01*
X62052060Y-47116274D01*
X61117500Y-46181714D01*
X60182940Y-47116274D01*
X53647733Y-47116274D01*
X53713931Y-47019390D01*
X53764940Y-46767500D01*
X53764940Y-45157755D01*
X58459372Y-45157755D01*
X58512367Y-45424172D01*
X58768726Y-45702060D01*
X59703286Y-44767500D01*
X62531714Y-44767500D01*
X63466274Y-45702060D01*
X63722633Y-45424172D01*
X63775628Y-44377245D01*
X63722633Y-44110828D01*
X63466274Y-43832940D01*
X62531714Y-44767500D01*
X59703286Y-44767500D01*
X58768726Y-43832940D01*
X58512367Y-44110828D01*
X58459372Y-45157755D01*
X53764940Y-45157755D01*
X53764940Y-42767500D01*
X53720662Y-42532183D01*
X53647655Y-42418726D01*
X60182940Y-42418726D01*
X61117500Y-43353286D01*
X62052060Y-42418726D01*
X61774172Y-42162367D01*
X60727245Y-42109372D01*
X60460828Y-42162367D01*
X60182940Y-42418726D01*
X53647655Y-42418726D01*
X53581590Y-42316059D01*
X53369390Y-42171069D01*
X53117500Y-42120060D01*
X49117500Y-42120060D01*
X48882183Y-42164338D01*
X48666059Y-42303410D01*
X48521069Y-42515610D01*
X48470060Y-42767500D01*
X26110000Y-42767500D01*
X26110000Y-31532832D01*
X27034811Y-32459259D01*
X28443825Y-33044333D01*
X29969482Y-33045664D01*
X31379515Y-32463050D01*
X32459259Y-31385189D01*
X33044333Y-29976175D01*
X33045664Y-28450518D01*
X32463050Y-27040485D01*
X31534188Y-26110000D01*
X92927168Y-26110000D01*
X92000741Y-27034811D01*
M02*
