G04 #@! TF.FileFunction,Paste,Top*
%FSLAX46Y46*%
G04 Gerber Fmt 4.6, Leading zero omitted, Abs format (unit mm)*
G04 Created by KiCad (PCBNEW 4.0.7) date 03/08/18 15:58:25*
%MOMM*%
%LPD*%
G01*
G04 APERTURE LIST*
%ADD10C,0.100000*%
%ADD11R,0.800000X0.900000*%
%ADD12R,4.780000X0.500000*%
%ADD13R,13.000000X4.750000*%
%ADD14R,1.600000X1.000000*%
%ADD15R,2.000000X3.800000*%
%ADD16R,2.000000X1.500000*%
%ADD17R,2.082800X3.810000*%
%ADD18R,2.750000X3.050000*%
%ADD19R,2.794000X2.209800*%
%ADD20R,2.794000X2.794000*%
%ADD21R,1.700000X0.900000*%
%ADD22R,0.500000X0.900000*%
%ADD23R,0.900000X0.500000*%
%ADD24R,2.200000X1.200000*%
%ADD25R,3.050000X2.750000*%
%ADD26R,3.300000X2.500000*%
%ADD27R,1.000000X0.900000*%
%ADD28R,0.750000X0.800000*%
%ADD29R,1.600000X3.500000*%
%ADD30R,0.600000X1.500000*%
%ADD31R,2.500000X3.300000*%
%ADD32R,0.900000X1.700000*%
%ADD33R,0.650000X0.400000*%
%ADD34R,3.000000X1.000000*%
G04 APERTURE END LIST*
D10*
D11*
X52375000Y-65059000D03*
X53425000Y-65059000D03*
X52375000Y-66359000D03*
X53425000Y-66359000D03*
X55575000Y-66359000D03*
X55575000Y-65059000D03*
X54525000Y-66359000D03*
X54525000Y-65059000D03*
D12*
X53975000Y-67799000D03*
X53975000Y-63519000D03*
D11*
X69901000Y-70901000D03*
X70951000Y-70901000D03*
X69901000Y-72201000D03*
X70951000Y-72201000D03*
X73101000Y-72201000D03*
X73101000Y-70901000D03*
X72051000Y-72201000D03*
X72051000Y-70901000D03*
D12*
X71501000Y-73641000D03*
X71501000Y-69361000D03*
D13*
X35560000Y-84910000D03*
X35560000Y-94160000D03*
D14*
X38735000Y-98830000D03*
X38735000Y-101830000D03*
X28987750Y-64978148D03*
X28987750Y-67978148D03*
X76200000Y-99290000D03*
X76200000Y-96290000D03*
D15*
X85700000Y-95885000D03*
D16*
X79400000Y-95885000D03*
X79400000Y-98185000D03*
X79400000Y-93585000D03*
D17*
X40513000Y-66421000D03*
X45593000Y-66421000D03*
D18*
X44578000Y-53248000D03*
X41528000Y-56598000D03*
X41528000Y-53248000D03*
X44578000Y-56598000D03*
D19*
X89636600Y-107365800D03*
D20*
X97053400Y-99974400D03*
D19*
X97053400Y-109372400D03*
D21*
X57912000Y-91366000D03*
X57912000Y-88466000D03*
D22*
X61710000Y-91440000D03*
X60210000Y-91440000D03*
D23*
X30480000Y-74180000D03*
X30480000Y-75680000D03*
X28575000Y-75680000D03*
X28575000Y-74180000D03*
D22*
X36334000Y-64008000D03*
X37834000Y-64008000D03*
X33135000Y-69850000D03*
X31635000Y-69850000D03*
X84316000Y-104648000D03*
X82816000Y-104648000D03*
X79871000Y-106172000D03*
X78371000Y-106172000D03*
D24*
X30090000Y-72650000D03*
X30090000Y-77210000D03*
D25*
X38065000Y-76455000D03*
X34715000Y-73405000D03*
X38065000Y-73405000D03*
X34715000Y-76455000D03*
D26*
X46355000Y-77880000D03*
X46355000Y-84680000D03*
D27*
X84235000Y-108528000D03*
X82135000Y-108528000D03*
X83185000Y-110928000D03*
D28*
X35560000Y-100445000D03*
X35560000Y-98945000D03*
X30892750Y-67228148D03*
X30892750Y-65728148D03*
X74041000Y-97802000D03*
X74041000Y-99302000D03*
X63500000Y-91325000D03*
X63500000Y-92825000D03*
D29*
X44450000Y-100170000D03*
X44450000Y-105570000D03*
D30*
X72390000Y-100805000D03*
X71120000Y-100805000D03*
X69850000Y-100805000D03*
X68580000Y-100805000D03*
X67310000Y-100805000D03*
X66040000Y-100805000D03*
X64770000Y-100805000D03*
X64770000Y-106205000D03*
X66040000Y-106205000D03*
X67310000Y-106205000D03*
X68580000Y-106205000D03*
X69850000Y-106205000D03*
X71120000Y-106205000D03*
X72390000Y-106205000D03*
D23*
X88646000Y-99580000D03*
X88646000Y-101080000D03*
X88646000Y-103390000D03*
X88646000Y-104890000D03*
D11*
X52375000Y-82585000D03*
X53425000Y-82585000D03*
X52375000Y-83885000D03*
X53425000Y-83885000D03*
X55575000Y-83885000D03*
X55575000Y-82585000D03*
X54525000Y-83885000D03*
X54525000Y-82585000D03*
D12*
X53975000Y-85325000D03*
X53975000Y-81045000D03*
D11*
X52375000Y-76743000D03*
X53425000Y-76743000D03*
X52375000Y-78043000D03*
X53425000Y-78043000D03*
X55575000Y-78043000D03*
X55575000Y-76743000D03*
X54525000Y-78043000D03*
X54525000Y-76743000D03*
D12*
X53975000Y-79483000D03*
X53975000Y-75203000D03*
D11*
X52375000Y-70901000D03*
X53425000Y-70901000D03*
X52375000Y-72201000D03*
X53425000Y-72201000D03*
X55575000Y-72201000D03*
X55575000Y-70901000D03*
X54525000Y-72201000D03*
X54525000Y-70901000D03*
D12*
X53975000Y-73641000D03*
X53975000Y-69361000D03*
D11*
X52375000Y-59217000D03*
X53425000Y-59217000D03*
X52375000Y-60517000D03*
X53425000Y-60517000D03*
X55575000Y-60517000D03*
X55575000Y-59217000D03*
X54525000Y-60517000D03*
X54525000Y-59217000D03*
D12*
X53975000Y-61957000D03*
X53975000Y-57677000D03*
D11*
X52375000Y-53375000D03*
X53425000Y-53375000D03*
X52375000Y-54675000D03*
X53425000Y-54675000D03*
X55575000Y-54675000D03*
X55575000Y-53375000D03*
X54525000Y-54675000D03*
X54525000Y-53375000D03*
D12*
X53975000Y-56115000D03*
X53975000Y-51835000D03*
D11*
X58217000Y-82585000D03*
X59267000Y-82585000D03*
X58217000Y-83885000D03*
X59267000Y-83885000D03*
X61417000Y-83885000D03*
X61417000Y-82585000D03*
X60367000Y-83885000D03*
X60367000Y-82585000D03*
D12*
X59817000Y-85325000D03*
X59817000Y-81045000D03*
D11*
X58217000Y-76743000D03*
X59267000Y-76743000D03*
X58217000Y-78043000D03*
X59267000Y-78043000D03*
X61417000Y-78043000D03*
X61417000Y-76743000D03*
X60367000Y-78043000D03*
X60367000Y-76743000D03*
D12*
X59817000Y-79483000D03*
X59817000Y-75203000D03*
D11*
X58217000Y-70901000D03*
X59267000Y-70901000D03*
X58217000Y-72201000D03*
X59267000Y-72201000D03*
X61417000Y-72201000D03*
X61417000Y-70901000D03*
X60367000Y-72201000D03*
X60367000Y-70901000D03*
D12*
X59817000Y-73641000D03*
X59817000Y-69361000D03*
D11*
X58217000Y-65059000D03*
X59267000Y-65059000D03*
X58217000Y-66359000D03*
X59267000Y-66359000D03*
X61417000Y-66359000D03*
X61417000Y-65059000D03*
X60367000Y-66359000D03*
X60367000Y-65059000D03*
D12*
X59817000Y-67799000D03*
X59817000Y-63519000D03*
D11*
X58217000Y-59217000D03*
X59267000Y-59217000D03*
X58217000Y-60517000D03*
X59267000Y-60517000D03*
X61417000Y-60517000D03*
X61417000Y-59217000D03*
X60367000Y-60517000D03*
X60367000Y-59217000D03*
D12*
X59817000Y-61957000D03*
X59817000Y-57677000D03*
D11*
X58217000Y-53375000D03*
X59267000Y-53375000D03*
X58217000Y-54675000D03*
X59267000Y-54675000D03*
X61417000Y-54675000D03*
X61417000Y-53375000D03*
X60367000Y-54675000D03*
X60367000Y-53375000D03*
D12*
X59817000Y-56115000D03*
X59817000Y-51835000D03*
D11*
X64059000Y-82585000D03*
X65109000Y-82585000D03*
X64059000Y-83885000D03*
X65109000Y-83885000D03*
X67259000Y-83885000D03*
X67259000Y-82585000D03*
X66209000Y-83885000D03*
X66209000Y-82585000D03*
D12*
X65659000Y-85325000D03*
X65659000Y-81045000D03*
D11*
X64059000Y-76743000D03*
X65109000Y-76743000D03*
X64059000Y-78043000D03*
X65109000Y-78043000D03*
X67259000Y-78043000D03*
X67259000Y-76743000D03*
X66209000Y-78043000D03*
X66209000Y-76743000D03*
D12*
X65659000Y-79483000D03*
X65659000Y-75203000D03*
D11*
X64059000Y-70901000D03*
X65109000Y-70901000D03*
X64059000Y-72201000D03*
X65109000Y-72201000D03*
X67259000Y-72201000D03*
X67259000Y-70901000D03*
X66209000Y-72201000D03*
X66209000Y-70901000D03*
D12*
X65659000Y-73641000D03*
X65659000Y-69361000D03*
D11*
X64059000Y-65059000D03*
X65109000Y-65059000D03*
X64059000Y-66359000D03*
X65109000Y-66359000D03*
X67259000Y-66359000D03*
X67259000Y-65059000D03*
X66209000Y-66359000D03*
X66209000Y-65059000D03*
D12*
X65659000Y-67799000D03*
X65659000Y-63519000D03*
D11*
X64059000Y-59217000D03*
X65109000Y-59217000D03*
X64059000Y-60517000D03*
X65109000Y-60517000D03*
X67259000Y-60517000D03*
X67259000Y-59217000D03*
X66209000Y-60517000D03*
X66209000Y-59217000D03*
D12*
X65659000Y-61957000D03*
X65659000Y-57677000D03*
D11*
X64059000Y-53375000D03*
X65109000Y-53375000D03*
X64059000Y-54675000D03*
X65109000Y-54675000D03*
X67259000Y-54675000D03*
X67259000Y-53375000D03*
X66209000Y-54675000D03*
X66209000Y-53375000D03*
D12*
X65659000Y-56115000D03*
X65659000Y-51835000D03*
D11*
X69901000Y-82585000D03*
X70951000Y-82585000D03*
X69901000Y-83885000D03*
X70951000Y-83885000D03*
X73101000Y-83885000D03*
X73101000Y-82585000D03*
X72051000Y-83885000D03*
X72051000Y-82585000D03*
D12*
X71501000Y-85325000D03*
X71501000Y-81045000D03*
D11*
X69901000Y-76743000D03*
X70951000Y-76743000D03*
X69901000Y-78043000D03*
X70951000Y-78043000D03*
X73101000Y-78043000D03*
X73101000Y-76743000D03*
X72051000Y-78043000D03*
X72051000Y-76743000D03*
D12*
X71501000Y-79483000D03*
X71501000Y-75203000D03*
D11*
X69901000Y-65059000D03*
X70951000Y-65059000D03*
X69901000Y-66359000D03*
X70951000Y-66359000D03*
X73101000Y-66359000D03*
X73101000Y-65059000D03*
X72051000Y-66359000D03*
X72051000Y-65059000D03*
D12*
X71501000Y-67799000D03*
X71501000Y-63519000D03*
D11*
X69901000Y-59217000D03*
X70951000Y-59217000D03*
X69901000Y-60517000D03*
X70951000Y-60517000D03*
X73101000Y-60517000D03*
X73101000Y-59217000D03*
X72051000Y-60517000D03*
X72051000Y-59217000D03*
D12*
X71501000Y-61957000D03*
X71501000Y-57677000D03*
D11*
X69901000Y-53375000D03*
X70951000Y-53375000D03*
X69901000Y-54675000D03*
X70951000Y-54675000D03*
X73101000Y-54675000D03*
X73101000Y-53375000D03*
X72051000Y-54675000D03*
X72051000Y-53375000D03*
D12*
X71501000Y-56115000D03*
X71501000Y-51835000D03*
D31*
X73250000Y-93345000D03*
X66450000Y-93345000D03*
D11*
X75743000Y-82585000D03*
X76793000Y-82585000D03*
X75743000Y-83885000D03*
X76793000Y-83885000D03*
X78943000Y-83885000D03*
X78943000Y-82585000D03*
X77893000Y-83885000D03*
X77893000Y-82585000D03*
D12*
X77343000Y-85325000D03*
X77343000Y-81045000D03*
D32*
X38692750Y-66478148D03*
X35792750Y-66478148D03*
D23*
X63627000Y-96635000D03*
X63627000Y-95135000D03*
D33*
X32482750Y-65828148D03*
X32482750Y-67128148D03*
X34382750Y-66478148D03*
X32482750Y-66478148D03*
X34382750Y-67128148D03*
X34382750Y-65828148D03*
D23*
X43815000Y-90055000D03*
X43815000Y-91555000D03*
D34*
X46355000Y-74690000D03*
X46355000Y-70090000D03*
D11*
X75743000Y-76743000D03*
X76793000Y-76743000D03*
X75743000Y-78043000D03*
X76793000Y-78043000D03*
X78943000Y-78043000D03*
X78943000Y-76743000D03*
X77893000Y-78043000D03*
X77893000Y-76743000D03*
D12*
X77343000Y-79483000D03*
X77343000Y-75203000D03*
D11*
X75743000Y-70901000D03*
X76793000Y-70901000D03*
X75743000Y-72201000D03*
X76793000Y-72201000D03*
X78943000Y-72201000D03*
X78943000Y-70901000D03*
X77893000Y-72201000D03*
X77893000Y-70901000D03*
D12*
X77343000Y-73641000D03*
X77343000Y-69361000D03*
D11*
X75743000Y-65059000D03*
X76793000Y-65059000D03*
X75743000Y-66359000D03*
X76793000Y-66359000D03*
X78943000Y-66359000D03*
X78943000Y-65059000D03*
X77893000Y-66359000D03*
X77893000Y-65059000D03*
D12*
X77343000Y-67799000D03*
X77343000Y-63519000D03*
D11*
X75743000Y-59217000D03*
X76793000Y-59217000D03*
X75743000Y-60517000D03*
X76793000Y-60517000D03*
X78943000Y-60517000D03*
X78943000Y-59217000D03*
X77893000Y-60517000D03*
X77893000Y-59217000D03*
D12*
X77343000Y-61957000D03*
X77343000Y-57677000D03*
D11*
X75743000Y-53375000D03*
X76793000Y-53375000D03*
X75743000Y-54675000D03*
X76793000Y-54675000D03*
X78943000Y-54675000D03*
X78943000Y-53375000D03*
X77893000Y-54675000D03*
X77893000Y-53375000D03*
D12*
X77343000Y-56115000D03*
X77343000Y-51835000D03*
D11*
X81585000Y-82585000D03*
X82635000Y-82585000D03*
X81585000Y-83885000D03*
X82635000Y-83885000D03*
X84785000Y-83885000D03*
X84785000Y-82585000D03*
X83735000Y-83885000D03*
X83735000Y-82585000D03*
D12*
X83185000Y-85325000D03*
X83185000Y-81045000D03*
D11*
X81585000Y-76743000D03*
X82635000Y-76743000D03*
X81585000Y-78043000D03*
X82635000Y-78043000D03*
X84785000Y-78043000D03*
X84785000Y-76743000D03*
X83735000Y-78043000D03*
X83735000Y-76743000D03*
D12*
X83185000Y-79483000D03*
X83185000Y-75203000D03*
D11*
X81585000Y-70901000D03*
X82635000Y-70901000D03*
X81585000Y-72201000D03*
X82635000Y-72201000D03*
X84785000Y-72201000D03*
X84785000Y-70901000D03*
X83735000Y-72201000D03*
X83735000Y-70901000D03*
D12*
X83185000Y-73641000D03*
X83185000Y-69361000D03*
D11*
X81585000Y-65059000D03*
X82635000Y-65059000D03*
X81585000Y-66359000D03*
X82635000Y-66359000D03*
X84785000Y-66359000D03*
X84785000Y-65059000D03*
X83735000Y-66359000D03*
X83735000Y-65059000D03*
D12*
X83185000Y-67799000D03*
X83185000Y-63519000D03*
D11*
X81585000Y-59217000D03*
X82635000Y-59217000D03*
X81585000Y-60517000D03*
X82635000Y-60517000D03*
X84785000Y-60517000D03*
X84785000Y-59217000D03*
X83735000Y-60517000D03*
X83735000Y-59217000D03*
D12*
X83185000Y-61957000D03*
X83185000Y-57677000D03*
D11*
X81585000Y-53375000D03*
X82635000Y-53375000D03*
X81585000Y-54675000D03*
X82635000Y-54675000D03*
X84785000Y-54675000D03*
X84785000Y-53375000D03*
X83735000Y-54675000D03*
X83735000Y-53375000D03*
D12*
X83185000Y-56115000D03*
X83185000Y-51835000D03*
M02*
