G04 #@! TF.FileFunction,Copper,L1,Top,Signal*
%FSLAX46Y46*%
G04 Gerber Fmt 4.6, Leading zero omitted, Abs format (unit mm)*
G04 Created by KiCad (PCBNEW 4.0.7) date 02/03/18 13:53:17*
%MOMM*%
%LPD*%
G01*
G04 APERTURE LIST*
%ADD10C,0.100000*%
%ADD11R,1.000000X3.200000*%
%ADD12R,13.000000X4.750000*%
%ADD13R,1.000000X1.600000*%
%ADD14R,1.600000X1.000000*%
%ADD15R,3.800000X2.000000*%
%ADD16R,1.500000X2.000000*%
%ADD17R,0.500000X4.780000*%
%ADD18R,2.780000X4.780000*%
%ADD19R,4.000000X4.000000*%
%ADD20C,4.000000*%
%ADD21R,3.810000X2.082800*%
%ADD22R,8.890000X11.430000*%
%ADD23R,3.050000X2.750000*%
%ADD24R,2.794000X2.209800*%
%ADD25R,2.794000X2.794000*%
%ADD26C,1.701800*%
%ADD27R,1.700000X0.900000*%
%ADD28C,6.400000*%
%ADD29R,1.143000X0.508000*%
%ADD30R,0.900000X0.500000*%
%ADD31R,0.500000X0.900000*%
%ADD32R,1.200000X2.200000*%
%ADD33R,5.800000X6.400000*%
%ADD34R,2.750000X3.050000*%
%ADD35R,1.700000X1.700000*%
%ADD36O,1.700000X1.700000*%
%ADD37R,2.500000X3.300000*%
%ADD38R,1.000000X0.900000*%
%ADD39R,0.800000X0.750000*%
%ADD40R,0.750000X0.800000*%
%ADD41R,1.600000X3.500000*%
%ADD42R,0.600000X1.500000*%
%ADD43C,0.609600*%
%ADD44C,0.762000*%
%ADD45C,2.032000*%
%ADD46C,0.508000*%
%ADD47C,0.254000*%
%ADD48C,0.304800*%
G04 APERTURE END LIST*
D10*
D11*
X81990000Y-71755000D03*
X88190000Y-71755000D03*
X81990000Y-65405000D03*
X88190000Y-65405000D03*
X81990000Y-59055000D03*
X88190000Y-59055000D03*
X81990000Y-52705000D03*
X88190000Y-52705000D03*
D12*
X32512000Y-47191000D03*
X32512000Y-56441000D03*
D13*
X30504000Y-62484000D03*
X33504000Y-62484000D03*
X64540000Y-43180000D03*
X67540000Y-43180000D03*
D14*
X83185000Y-89130000D03*
X83185000Y-86130000D03*
D15*
X88265000Y-93955000D03*
D16*
X88265000Y-87655000D03*
X85965000Y-87655000D03*
X90565000Y-87655000D03*
D17*
X75965000Y-71755000D03*
X80245000Y-71755000D03*
D18*
X78105000Y-71755000D03*
D17*
X69615000Y-71755000D03*
X73895000Y-71755000D03*
D18*
X71755000Y-71755000D03*
D17*
X63265000Y-71755000D03*
X67545000Y-71755000D03*
D18*
X65405000Y-71755000D03*
D17*
X56915000Y-71755000D03*
X61195000Y-71755000D03*
D18*
X59055000Y-71755000D03*
D17*
X50565000Y-71755000D03*
X54845000Y-71755000D03*
D18*
X52705000Y-71755000D03*
D17*
X44215000Y-71755000D03*
X48495000Y-71755000D03*
D18*
X46355000Y-71755000D03*
D17*
X75965000Y-65405000D03*
X80245000Y-65405000D03*
D18*
X78105000Y-65405000D03*
D17*
X69615000Y-65405000D03*
X73895000Y-65405000D03*
D18*
X71755000Y-65405000D03*
D17*
X63265000Y-65405000D03*
X67545000Y-65405000D03*
D18*
X65405000Y-65405000D03*
D17*
X56915000Y-65405000D03*
X61195000Y-65405000D03*
D18*
X59055000Y-65405000D03*
D17*
X50565000Y-65405000D03*
X54845000Y-65405000D03*
D18*
X52705000Y-65405000D03*
D17*
X44215000Y-65405000D03*
X48495000Y-65405000D03*
D18*
X46355000Y-65405000D03*
D17*
X75965000Y-59055000D03*
X80245000Y-59055000D03*
D18*
X78105000Y-59055000D03*
D17*
X69615000Y-59055000D03*
X73895000Y-59055000D03*
D18*
X71755000Y-59055000D03*
D17*
X63265000Y-59055000D03*
X67545000Y-59055000D03*
D18*
X65405000Y-59055000D03*
D17*
X56915000Y-59055000D03*
X61195000Y-59055000D03*
D18*
X59055000Y-59055000D03*
D17*
X50565000Y-59055000D03*
X54845000Y-59055000D03*
D18*
X52705000Y-59055000D03*
D17*
X44215000Y-59055000D03*
X48495000Y-59055000D03*
D18*
X46355000Y-59055000D03*
D17*
X75965000Y-52705000D03*
X80245000Y-52705000D03*
D18*
X78105000Y-52705000D03*
D17*
X69615000Y-52705000D03*
X73895000Y-52705000D03*
D18*
X71755000Y-52705000D03*
D17*
X63265000Y-52705000D03*
X67545000Y-52705000D03*
D18*
X65405000Y-52705000D03*
D17*
X56915000Y-52705000D03*
X61195000Y-52705000D03*
D18*
X59055000Y-52705000D03*
D17*
X50565000Y-52705000D03*
X54845000Y-52705000D03*
D18*
X52705000Y-52705000D03*
D17*
X44215000Y-52705000D03*
X48495000Y-52705000D03*
D18*
X46355000Y-52705000D03*
D19*
X51117500Y-44767500D03*
D20*
X61117500Y-44767500D03*
D21*
X73152000Y-39370000D03*
X73152000Y-44450000D03*
D22*
X84709000Y-41910000D03*
D23*
X86325000Y-43435000D03*
X82975000Y-40385000D03*
X86325000Y-40385000D03*
X82975000Y-43435000D03*
D24*
X54457600Y-94665800D03*
D25*
X61874400Y-87274400D03*
D24*
X61874400Y-96672400D03*
D26*
X58166000Y-88544400D03*
X58166000Y-95554800D03*
D27*
X43180000Y-78920000D03*
X43180000Y-76020000D03*
D28*
X95250000Y-29210000D03*
X29210000Y-29210000D03*
X95250000Y-95250000D03*
X29210000Y-95250000D03*
D29*
X69215000Y-36830000D03*
X69215000Y-38100000D03*
X69215000Y-39370000D03*
X69215000Y-40640000D03*
X62865000Y-40640000D03*
X62865000Y-39370000D03*
X62865000Y-38100000D03*
X62865000Y-36830000D03*
D30*
X43180000Y-82665000D03*
X43180000Y-81165000D03*
D31*
X41680000Y-27305000D03*
X43180000Y-27305000D03*
X43180000Y-29845000D03*
X41680000Y-29845000D03*
D30*
X73025000Y-34810000D03*
X73025000Y-36310000D03*
D31*
X58940000Y-38100000D03*
X60440000Y-38100000D03*
D30*
X67945000Y-92190000D03*
X67945000Y-90690000D03*
X65405000Y-92190000D03*
X65405000Y-90690000D03*
D32*
X39110000Y-34535000D03*
X34550000Y-34535000D03*
D33*
X36830000Y-40835000D03*
D34*
X35305000Y-42510000D03*
X38355000Y-39160000D03*
X38355000Y-42510000D03*
X35305000Y-39160000D03*
D35*
X85725000Y-97155000D03*
D36*
X83185000Y-97155000D03*
X80645000Y-97155000D03*
X78105000Y-97155000D03*
X75565000Y-97155000D03*
X73025000Y-97155000D03*
D19*
X46736000Y-87630000D03*
X46736000Y-93630000D03*
X51436000Y-90630000D03*
D37*
X51660000Y-38100000D03*
X44860000Y-38100000D03*
D38*
X67725000Y-95320000D03*
X65625000Y-95320000D03*
X66675000Y-97720000D03*
D39*
X32500000Y-60198000D03*
X31000000Y-60198000D03*
X65290000Y-34925000D03*
X66790000Y-34925000D03*
D40*
X83185000Y-92825000D03*
X83185000Y-91325000D03*
X40640000Y-85610000D03*
X40640000Y-87110000D03*
D41*
X37592000Y-91280000D03*
X37592000Y-96680000D03*
D42*
X80645000Y-87470000D03*
X79375000Y-87470000D03*
X78105000Y-87470000D03*
X76835000Y-87470000D03*
X75565000Y-87470000D03*
X74295000Y-87470000D03*
X73025000Y-87470000D03*
X73025000Y-92870000D03*
X74295000Y-92870000D03*
X75565000Y-92870000D03*
X76835000Y-92870000D03*
X78105000Y-92870000D03*
X79375000Y-92870000D03*
X80645000Y-92870000D03*
D43*
X90551000Y-81915000D03*
X90551000Y-86106000D03*
X88392000Y-95504000D03*
X85852000Y-93980000D03*
X90678000Y-93980000D03*
X87376000Y-92202000D03*
X89408000Y-92202000D03*
X89154000Y-89408000D03*
X87376000Y-89408000D03*
X83058000Y-87630000D03*
X81534000Y-92964000D03*
X82550000Y-93726000D03*
X65532000Y-97790000D03*
X59690000Y-97536000D03*
X71628000Y-46228000D03*
X74422000Y-46228000D03*
X73152000Y-46228000D03*
X71628000Y-42672000D03*
X74676000Y-42672000D03*
X73152000Y-42672000D03*
X68834000Y-43180000D03*
X69342000Y-41656000D03*
X70358000Y-40640000D03*
X62738000Y-41656000D03*
X58928000Y-37084000D03*
X61468000Y-40640000D03*
X74168000Y-34798000D03*
X65278000Y-33782000D03*
X40640000Y-27432000D03*
X33020000Y-34544000D03*
X34544000Y-32512000D03*
X36068000Y-34544000D03*
X35052000Y-62484000D03*
X33782000Y-60198000D03*
X43180000Y-83566000D03*
X40640000Y-84582000D03*
X39370000Y-96774000D03*
X35814000Y-96774000D03*
X37592000Y-93980000D03*
X80645000Y-94615000D03*
X73025000Y-91363821D03*
X76835000Y-88900000D03*
X55245000Y-81280000D03*
X56515000Y-89535000D03*
X86360000Y-30480000D03*
X95758000Y-34036000D03*
X78105000Y-68580000D03*
X74930000Y-68580000D03*
X71755000Y-68580000D03*
X68580000Y-68580000D03*
X65405000Y-68580000D03*
X62230000Y-68580000D03*
X59055000Y-68580000D03*
X55880000Y-62230000D03*
X52705000Y-62230000D03*
X49530000Y-62230000D03*
X46355000Y-62230000D03*
X59055000Y-62230000D03*
X55880000Y-68580000D03*
X52705000Y-68580000D03*
X46355000Y-68580000D03*
X49530000Y-68580000D03*
X71755000Y-55880000D03*
X68580000Y-55880000D03*
X65405000Y-55880000D03*
X62230000Y-55880000D03*
X59055000Y-55880000D03*
X55880000Y-55880000D03*
X52705000Y-55880000D03*
X49530000Y-55880000D03*
X46355000Y-55880000D03*
X74930000Y-55880000D03*
X78105000Y-55880000D03*
X74930000Y-62230000D03*
X78105000Y-62230000D03*
X71755000Y-62230000D03*
X68580000Y-62230000D03*
X65405000Y-62230000D03*
X62230000Y-62230000D03*
X73025000Y-88468179D03*
X76835000Y-83820000D03*
X73025000Y-85725000D03*
X72166198Y-93345000D03*
D44*
X90565000Y-87655000D02*
X90565000Y-86120000D01*
X90551000Y-81915000D02*
X91186000Y-81915000D01*
X90565000Y-86120000D02*
X90551000Y-86106000D01*
D45*
X94312118Y-81915000D02*
X95122989Y-81104129D01*
X60325000Y-81915000D02*
X91186000Y-81915000D01*
X91186000Y-81915000D02*
X94312118Y-81915000D01*
X59055000Y-83185000D02*
X60325000Y-81915000D01*
X88597118Y-33020000D02*
X66802000Y-33020000D01*
X47149000Y-83185000D02*
X59055000Y-83185000D01*
X46736000Y-83598000D02*
X47149000Y-83185000D01*
X95122989Y-39545871D02*
X88597118Y-33020000D01*
X46736000Y-87630000D02*
X46736000Y-83598000D01*
X95122989Y-81104129D02*
X95122989Y-39545871D01*
D44*
X66790000Y-34925000D02*
X66790000Y-33032000D01*
X66790000Y-33032000D02*
X66802000Y-33020000D01*
X88265000Y-93955000D02*
X88265000Y-95377000D01*
X88265000Y-95377000D02*
X88392000Y-95504000D01*
X88265000Y-93955000D02*
X85877000Y-93955000D01*
X85877000Y-93955000D02*
X85852000Y-93980000D01*
X88265000Y-93955000D02*
X90653000Y-93955000D01*
X90653000Y-93955000D02*
X90678000Y-93980000D01*
X88265000Y-93955000D02*
X88265000Y-93091000D01*
X88265000Y-93091000D02*
X87376000Y-92202000D01*
X88265000Y-93345000D02*
X89408000Y-92202000D01*
X88265000Y-93955000D02*
X88265000Y-93345000D01*
X88265000Y-87655000D02*
X88265000Y-88519000D01*
X88265000Y-88519000D02*
X89154000Y-89408000D01*
X88265000Y-88519000D02*
X87376000Y-89408000D01*
X83185000Y-86130000D02*
X83185000Y-87503000D01*
X83185000Y-87503000D02*
X83058000Y-87630000D01*
X88265000Y-93955000D02*
X88265000Y-87655000D01*
X80645000Y-92870000D02*
X81440000Y-92870000D01*
X81440000Y-92870000D02*
X81534000Y-92964000D01*
X83185000Y-92825000D02*
X83185000Y-93091000D01*
X83185000Y-93091000D02*
X82550000Y-93726000D01*
X66675000Y-97720000D02*
X65602000Y-97720000D01*
X65602000Y-97720000D02*
X65532000Y-97790000D01*
X61874400Y-96672400D02*
X60553600Y-96672400D01*
X60553600Y-96672400D02*
X59690000Y-97536000D01*
X73152000Y-44450000D02*
X73152000Y-44704000D01*
X73152000Y-44704000D02*
X71628000Y-46228000D01*
X73152000Y-44450000D02*
X73152000Y-44958000D01*
X73152000Y-44958000D02*
X74422000Y-46228000D01*
X73152000Y-44450000D02*
X73152000Y-46228000D01*
X73152000Y-44450000D02*
X73152000Y-44196000D01*
X73152000Y-44196000D02*
X71628000Y-42672000D01*
X73152000Y-44196000D02*
X74676000Y-42672000D01*
X73152000Y-44450000D02*
X73152000Y-42672000D01*
X67540000Y-43180000D02*
X68834000Y-43180000D01*
X69215000Y-40640000D02*
X69215000Y-41529000D01*
X69215000Y-41529000D02*
X69342000Y-41656000D01*
X69215000Y-40640000D02*
X70358000Y-40640000D01*
X62865000Y-40640000D02*
X62865000Y-41529000D01*
X62865000Y-41529000D02*
X62738000Y-41656000D01*
X58940000Y-38100000D02*
X58940000Y-37096000D01*
X58940000Y-37096000D02*
X58928000Y-37084000D01*
X62865000Y-40640000D02*
X61468000Y-40640000D01*
X73025000Y-34810000D02*
X74156000Y-34810000D01*
X74156000Y-34810000D02*
X74168000Y-34798000D01*
X65290000Y-34925000D02*
X65290000Y-33794000D01*
X65290000Y-33794000D02*
X65278000Y-33782000D01*
X41680000Y-27305000D02*
X40767000Y-27305000D01*
X40767000Y-27305000D02*
X40640000Y-27432000D01*
X34550000Y-34535000D02*
X33029000Y-34535000D01*
X33029000Y-34535000D02*
X33020000Y-34544000D01*
X34550000Y-34535000D02*
X34550000Y-32518000D01*
X34550000Y-32518000D02*
X34544000Y-32512000D01*
X34550000Y-34535000D02*
X36059000Y-34535000D01*
X36059000Y-34535000D02*
X36068000Y-34544000D01*
X33504000Y-62484000D02*
X35052000Y-62484000D01*
X32500000Y-60198000D02*
X33782000Y-60198000D01*
X43180000Y-82665000D02*
X43180000Y-83566000D01*
X40640000Y-85610000D02*
X40640000Y-84582000D01*
X37592000Y-96680000D02*
X39276000Y-96680000D01*
X39276000Y-96680000D02*
X39370000Y-96774000D01*
X37592000Y-96680000D02*
X35908000Y-96680000D01*
X35908000Y-96680000D02*
X35814000Y-96774000D01*
X37592000Y-96680000D02*
X37592000Y-93980000D01*
X84455000Y-90400000D02*
X84455000Y-93345000D01*
X84455000Y-93345000D02*
X80645000Y-97155000D01*
D46*
X80645000Y-90170000D02*
X81800000Y-91325000D01*
X81800000Y-91325000D02*
X83185000Y-91325000D01*
X80645000Y-87470000D02*
X80645000Y-90170000D01*
D44*
X84455000Y-90400000D02*
X83185000Y-89130000D01*
X83185000Y-91325000D02*
X83185000Y-89130000D01*
X85965000Y-88025000D02*
X84860000Y-89130000D01*
X84860000Y-89130000D02*
X83185000Y-89130000D01*
X85965000Y-87655000D02*
X85965000Y-88025000D01*
D47*
X67945000Y-92190000D02*
X67745000Y-92190000D01*
X67745000Y-92190000D02*
X66959799Y-92975201D01*
X66959799Y-92975201D02*
X66959799Y-94604799D01*
X66959799Y-94604799D02*
X67675000Y-95320000D01*
X67675000Y-95320000D02*
X67725000Y-95320000D01*
X65405000Y-92190000D02*
X65605000Y-92190000D01*
X65605000Y-92190000D02*
X66390201Y-92975201D01*
X66390201Y-92975201D02*
X66390201Y-94604799D01*
X66390201Y-94604799D02*
X65675000Y-95320000D01*
X65675000Y-95320000D02*
X65625000Y-95320000D01*
D44*
X32512000Y-47191000D02*
X32512000Y-45153000D01*
X32512000Y-45153000D02*
X36830000Y-40835000D01*
D47*
X80031001Y-94001001D02*
X80645000Y-94615000D01*
X80031001Y-94001001D02*
X74976001Y-94001001D01*
X74976001Y-94001001D02*
X74295000Y-93320000D01*
X74295000Y-93320000D02*
X74295000Y-92870000D01*
X76767081Y-94615000D02*
X74320000Y-94615000D01*
X74320000Y-94615000D02*
X73025000Y-93320000D01*
X73025000Y-93320000D02*
X73025000Y-92870000D01*
X78105000Y-97155000D02*
X78105000Y-95952919D01*
X78105000Y-95952919D02*
X76767081Y-94615000D01*
X71120000Y-92837769D02*
X72593948Y-91363821D01*
X71120000Y-95250000D02*
X71120000Y-92837769D01*
X72593948Y-91363821D02*
X73025000Y-91363821D01*
X73025000Y-97155000D02*
X71120000Y-95250000D01*
X76835000Y-88900000D02*
X76835000Y-87470000D01*
X75565000Y-87470000D02*
X75565000Y-85217000D01*
X61874400Y-85699600D02*
X61874400Y-87274400D01*
X63246000Y-84328000D02*
X61874400Y-85699600D01*
X74676000Y-84328000D02*
X63246000Y-84328000D01*
X75565000Y-85217000D02*
X74676000Y-84328000D01*
X75565000Y-87470000D02*
X75565000Y-87020000D01*
X62585600Y-87274400D02*
X61874400Y-87274400D01*
X78105000Y-87470000D02*
X78105000Y-86466000D01*
X75205000Y-83566000D02*
X61321186Y-83566000D01*
X78105000Y-86466000D02*
X75205000Y-83566000D01*
X61321186Y-83566000D02*
X54457600Y-90429586D01*
X54457600Y-90429586D02*
X54457600Y-94665800D01*
X78105000Y-87470000D02*
X78105000Y-87020000D01*
D44*
X41680000Y-29845000D02*
X41680000Y-31965000D01*
X41680000Y-31965000D02*
X39110000Y-34535000D01*
X73025000Y-36310000D02*
X73025000Y-39243000D01*
X73025000Y-39243000D02*
X73152000Y-39370000D01*
X69215000Y-39370000D02*
X73152000Y-39370000D01*
X69215000Y-38100000D02*
X71882000Y-38100000D01*
X71882000Y-38100000D02*
X73152000Y-39370000D01*
D46*
X74295000Y-87470000D02*
X74295000Y-89281000D01*
X74295000Y-89281000D02*
X74152012Y-89423988D01*
X74152012Y-89423988D02*
X60467988Y-89423988D01*
X60467988Y-89423988D02*
X60452000Y-89408000D01*
X60452000Y-89408000D02*
X59817000Y-89408000D01*
X57150000Y-90170000D02*
X56515000Y-89535000D01*
X59817000Y-89408000D02*
X59055000Y-90170000D01*
X59055000Y-90170000D02*
X57150000Y-90170000D01*
X55130000Y-81165000D02*
X43180000Y-81165000D01*
X55245000Y-81280000D02*
X55130000Y-81165000D01*
X43180000Y-78920000D02*
X43180000Y-81165000D01*
D47*
X74295000Y-87920000D02*
X74295000Y-87935802D01*
X74295000Y-87470000D02*
X74295000Y-87920000D01*
X73650970Y-90297010D02*
X73412959Y-90058999D01*
X76835000Y-92870000D02*
X76835000Y-92420000D01*
X65605000Y-90690000D02*
X65405000Y-90690000D01*
X66236001Y-90058999D02*
X65605000Y-90690000D01*
X73412959Y-90058999D02*
X66236001Y-90058999D01*
X76835000Y-92420000D02*
X74712010Y-90297010D01*
X74712010Y-90297010D02*
X73650970Y-90297010D01*
D44*
X98298000Y-82296000D02*
X98298000Y-36576000D01*
X98298000Y-36576000D02*
X95758000Y-34036000D01*
X95599001Y-84994999D02*
X98298000Y-82296000D01*
X79396000Y-85958000D02*
X80359001Y-84994999D01*
X80359001Y-84994999D02*
X95599001Y-84994999D01*
X79375000Y-85958000D02*
X79396000Y-85958000D01*
X79375000Y-87470000D02*
X79375000Y-85958000D01*
X60706000Y-33528000D02*
X60706000Y-38100000D01*
X86360000Y-30480000D02*
X63754000Y-30480000D01*
X63754000Y-30480000D02*
X60706000Y-33528000D01*
X79375000Y-86741000D02*
X79375000Y-87470000D01*
X60706000Y-38100000D02*
X60440000Y-38100000D01*
X62865000Y-38100000D02*
X60440000Y-38100000D01*
D47*
X74930000Y-68580000D02*
X78105000Y-68580000D01*
X68580000Y-68580000D02*
X71755000Y-68580000D01*
X62230000Y-68580000D02*
X65405000Y-68580000D01*
X59055000Y-62230000D02*
X55880000Y-62230000D01*
X52705000Y-62230000D02*
X49530000Y-62230000D01*
X46355000Y-62230000D02*
X49530000Y-62230000D01*
X46355000Y-68580000D02*
X46355000Y-65405000D01*
X55880000Y-68580000D02*
X59055000Y-68580000D01*
X46355000Y-68580000D02*
X52705000Y-68580000D01*
X46355000Y-52705000D02*
X46355000Y-55880000D01*
X68580000Y-55880000D02*
X71755000Y-55880000D01*
X62230000Y-55880000D02*
X65405000Y-55880000D01*
X55880000Y-55880000D02*
X59055000Y-55880000D01*
X49530000Y-55880000D02*
X52705000Y-55880000D01*
X74930000Y-55880000D02*
X78105000Y-55880000D01*
X74930000Y-62230000D02*
X78105000Y-62230000D01*
X71755000Y-62230000D02*
X68580000Y-62230000D01*
X65405000Y-62230000D02*
X62230000Y-62230000D01*
D44*
X85979000Y-27305000D02*
X43180000Y-27305000D01*
X97028000Y-38354000D02*
X85979000Y-27305000D01*
X95083144Y-83820000D02*
X97028000Y-81875144D01*
X76835000Y-83820000D02*
X95083144Y-83820000D01*
X97028000Y-81875144D02*
X97028000Y-38354000D01*
D47*
X73025000Y-87470000D02*
X73025000Y-88468179D01*
D44*
X73025000Y-87470000D02*
X73025000Y-85725000D01*
X43180000Y-27305000D02*
X43180000Y-29845000D01*
D47*
X75565000Y-97155000D02*
X72166198Y-93756198D01*
X72166198Y-93756198D02*
X72166198Y-93345000D01*
X72865000Y-87630000D02*
X73025000Y-87470000D01*
X73025000Y-87920000D02*
X73025000Y-87470000D01*
X68660989Y-90678011D02*
X68649000Y-90690000D01*
X73313535Y-90678011D02*
X68660989Y-90678011D01*
X68649000Y-90690000D02*
X67945000Y-90690000D01*
X73440544Y-90805020D02*
X73313535Y-90678011D01*
X73950021Y-90805021D02*
X73440544Y-90805020D01*
X75565000Y-92420000D02*
X73950021Y-90805021D01*
X75565000Y-92870000D02*
X75565000Y-92420000D01*
D48*
G36*
X37947600Y-86360000D02*
X37959607Y-86419292D01*
X37993736Y-86469242D01*
X38044609Y-86501977D01*
X38100000Y-86512400D01*
X39830498Y-86512400D01*
X40003034Y-86630288D01*
X40265000Y-86683338D01*
X41015000Y-86683338D01*
X41259730Y-86637289D01*
X41453813Y-86512400D01*
X48361600Y-86512400D01*
X48361600Y-90956662D01*
X44736000Y-90956662D01*
X44491270Y-91002711D01*
X44266501Y-91147346D01*
X44115712Y-91368034D01*
X44062662Y-91630000D01*
X44062662Y-95630000D01*
X44108711Y-95874730D01*
X44253346Y-96099499D01*
X44474034Y-96250288D01*
X44736000Y-96303338D01*
X48361600Y-96303338D01*
X48361600Y-98324600D01*
X39065338Y-98324600D01*
X39065338Y-97754799D01*
X39370000Y-97815400D01*
X39768526Y-97736128D01*
X40106381Y-97510381D01*
X40332128Y-97172526D01*
X40411400Y-96774000D01*
X40332128Y-96375474D01*
X40106381Y-96037619D01*
X40012381Y-95943619D01*
X39909281Y-95874730D01*
X39674527Y-95717872D01*
X39276000Y-95638600D01*
X39065338Y-95638600D01*
X39065338Y-94930000D01*
X39019289Y-94685270D01*
X38874654Y-94460501D01*
X38653966Y-94309712D01*
X38633400Y-94305547D01*
X38633400Y-93980000D01*
X38554128Y-93581473D01*
X38328381Y-93243619D01*
X37990527Y-93017872D01*
X37592000Y-92938600D01*
X37193473Y-93017872D01*
X36855619Y-93243619D01*
X36629872Y-93581473D01*
X36550600Y-93980000D01*
X36550600Y-94302084D01*
X36547270Y-94302711D01*
X36322501Y-94447346D01*
X36171712Y-94668034D01*
X36118662Y-94930000D01*
X36118662Y-95638600D01*
X35908000Y-95638600D01*
X35509473Y-95717872D01*
X35274719Y-95874730D01*
X35171619Y-95943619D01*
X35077619Y-96037619D01*
X34851872Y-96375474D01*
X34772600Y-96774000D01*
X34851872Y-97172526D01*
X35077619Y-97510381D01*
X35415474Y-97736128D01*
X35814000Y-97815400D01*
X36118662Y-97754799D01*
X36118662Y-98324600D01*
X31594229Y-98324600D01*
X32480780Y-97439596D01*
X33069729Y-96021250D01*
X33071069Y-94485488D01*
X32484596Y-93066116D01*
X31399596Y-91979220D01*
X29981250Y-91390271D01*
X28445488Y-91388931D01*
X27026116Y-91975404D01*
X26135400Y-92864566D01*
X26135400Y-59823000D01*
X31426662Y-59823000D01*
X31426662Y-60573000D01*
X31472711Y-60817730D01*
X31617346Y-61042499D01*
X31838034Y-61193288D01*
X32100000Y-61246338D01*
X32503759Y-61246338D01*
X32383712Y-61422034D01*
X32330662Y-61684000D01*
X32330662Y-63284000D01*
X32376711Y-63528730D01*
X32521346Y-63753499D01*
X32742034Y-63904288D01*
X33004000Y-63957338D01*
X34004000Y-63957338D01*
X34248730Y-63911289D01*
X34473499Y-63766654D01*
X34624288Y-63545966D01*
X34628453Y-63525400D01*
X35052000Y-63525400D01*
X35450527Y-63446128D01*
X35788381Y-63220381D01*
X36014128Y-62882527D01*
X36093400Y-62484000D01*
X36014128Y-62085473D01*
X35788381Y-61747619D01*
X35450527Y-61521872D01*
X35052000Y-61442600D01*
X34631916Y-61442600D01*
X34631289Y-61439270D01*
X34486654Y-61214501D01*
X34295066Y-61083595D01*
X34518381Y-60934381D01*
X34744128Y-60596527D01*
X34823400Y-60198000D01*
X34744128Y-59799473D01*
X34518381Y-59461619D01*
X34180527Y-59235872D01*
X33782000Y-59156600D01*
X32934261Y-59156600D01*
X32900000Y-59149662D01*
X32100000Y-59149662D01*
X31855270Y-59195711D01*
X31630501Y-59340346D01*
X31479712Y-59561034D01*
X31426662Y-59823000D01*
X26135400Y-59823000D01*
X26135400Y-54762400D01*
X37947600Y-54762400D01*
X37947600Y-86360000D01*
X37947600Y-86360000D01*
G37*
X37947600Y-86360000D02*
X37959607Y-86419292D01*
X37993736Y-86469242D01*
X38044609Y-86501977D01*
X38100000Y-86512400D01*
X39830498Y-86512400D01*
X40003034Y-86630288D01*
X40265000Y-86683338D01*
X41015000Y-86683338D01*
X41259730Y-86637289D01*
X41453813Y-86512400D01*
X48361600Y-86512400D01*
X48361600Y-90956662D01*
X44736000Y-90956662D01*
X44491270Y-91002711D01*
X44266501Y-91147346D01*
X44115712Y-91368034D01*
X44062662Y-91630000D01*
X44062662Y-95630000D01*
X44108711Y-95874730D01*
X44253346Y-96099499D01*
X44474034Y-96250288D01*
X44736000Y-96303338D01*
X48361600Y-96303338D01*
X48361600Y-98324600D01*
X39065338Y-98324600D01*
X39065338Y-97754799D01*
X39370000Y-97815400D01*
X39768526Y-97736128D01*
X40106381Y-97510381D01*
X40332128Y-97172526D01*
X40411400Y-96774000D01*
X40332128Y-96375474D01*
X40106381Y-96037619D01*
X40012381Y-95943619D01*
X39909281Y-95874730D01*
X39674527Y-95717872D01*
X39276000Y-95638600D01*
X39065338Y-95638600D01*
X39065338Y-94930000D01*
X39019289Y-94685270D01*
X38874654Y-94460501D01*
X38653966Y-94309712D01*
X38633400Y-94305547D01*
X38633400Y-93980000D01*
X38554128Y-93581473D01*
X38328381Y-93243619D01*
X37990527Y-93017872D01*
X37592000Y-92938600D01*
X37193473Y-93017872D01*
X36855619Y-93243619D01*
X36629872Y-93581473D01*
X36550600Y-93980000D01*
X36550600Y-94302084D01*
X36547270Y-94302711D01*
X36322501Y-94447346D01*
X36171712Y-94668034D01*
X36118662Y-94930000D01*
X36118662Y-95638600D01*
X35908000Y-95638600D01*
X35509473Y-95717872D01*
X35274719Y-95874730D01*
X35171619Y-95943619D01*
X35077619Y-96037619D01*
X34851872Y-96375474D01*
X34772600Y-96774000D01*
X34851872Y-97172526D01*
X35077619Y-97510381D01*
X35415474Y-97736128D01*
X35814000Y-97815400D01*
X36118662Y-97754799D01*
X36118662Y-98324600D01*
X31594229Y-98324600D01*
X32480780Y-97439596D01*
X33069729Y-96021250D01*
X33071069Y-94485488D01*
X32484596Y-93066116D01*
X31399596Y-91979220D01*
X29981250Y-91390271D01*
X28445488Y-91388931D01*
X27026116Y-91975404D01*
X26135400Y-92864566D01*
X26135400Y-59823000D01*
X31426662Y-59823000D01*
X31426662Y-60573000D01*
X31472711Y-60817730D01*
X31617346Y-61042499D01*
X31838034Y-61193288D01*
X32100000Y-61246338D01*
X32503759Y-61246338D01*
X32383712Y-61422034D01*
X32330662Y-61684000D01*
X32330662Y-63284000D01*
X32376711Y-63528730D01*
X32521346Y-63753499D01*
X32742034Y-63904288D01*
X33004000Y-63957338D01*
X34004000Y-63957338D01*
X34248730Y-63911289D01*
X34473499Y-63766654D01*
X34624288Y-63545966D01*
X34628453Y-63525400D01*
X35052000Y-63525400D01*
X35450527Y-63446128D01*
X35788381Y-63220381D01*
X36014128Y-62882527D01*
X36093400Y-62484000D01*
X36014128Y-62085473D01*
X35788381Y-61747619D01*
X35450527Y-61521872D01*
X35052000Y-61442600D01*
X34631916Y-61442600D01*
X34631289Y-61439270D01*
X34486654Y-61214501D01*
X34295066Y-61083595D01*
X34518381Y-60934381D01*
X34744128Y-60596527D01*
X34823400Y-60198000D01*
X34744128Y-59799473D01*
X34518381Y-59461619D01*
X34180527Y-59235872D01*
X33782000Y-59156600D01*
X32934261Y-59156600D01*
X32900000Y-59149662D01*
X32100000Y-59149662D01*
X31855270Y-59195711D01*
X31630501Y-59340346D01*
X31479712Y-59561034D01*
X31426662Y-59823000D01*
X26135400Y-59823000D01*
X26135400Y-54762400D01*
X37947600Y-54762400D01*
X37947600Y-86360000D01*
G36*
X44932600Y-41122600D02*
X39370000Y-41122600D01*
X39310708Y-41134607D01*
X39260758Y-41168736D01*
X39228023Y-41219609D01*
X39217600Y-41275000D01*
X39217600Y-44932600D01*
X26822400Y-44932600D01*
X26822400Y-38252400D01*
X42545000Y-38252400D01*
X42604292Y-38240393D01*
X42654242Y-38206264D01*
X42686977Y-38155391D01*
X42697400Y-38100000D01*
X42697400Y-36982400D01*
X44932600Y-36982400D01*
X44932600Y-41122600D01*
X44932600Y-41122600D01*
G37*
X44932600Y-41122600D02*
X39370000Y-41122600D01*
X39310708Y-41134607D01*
X39260758Y-41168736D01*
X39228023Y-41219609D01*
X39217600Y-41275000D01*
X39217600Y-44932600D01*
X26822400Y-44932600D01*
X26822400Y-38252400D01*
X42545000Y-38252400D01*
X42604292Y-38240393D01*
X42654242Y-38206264D01*
X42686977Y-38155391D01*
X42697400Y-38100000D01*
X42697400Y-36982400D01*
X44932600Y-36982400D01*
X44932600Y-41122600D01*
G36*
X53187600Y-47472600D02*
X45720000Y-47472600D01*
X45660708Y-47484607D01*
X45612237Y-47517237D01*
X44342237Y-48787237D01*
X44308801Y-48837653D01*
X44297600Y-48895000D01*
X44297600Y-50285678D01*
X44291662Y-50315000D01*
X44291662Y-55095000D01*
X44297600Y-55126558D01*
X44297600Y-56635678D01*
X44291662Y-56665000D01*
X44291662Y-61445000D01*
X44297600Y-61476558D01*
X44297600Y-62985678D01*
X44291662Y-63015000D01*
X44291662Y-67795000D01*
X44297600Y-67826558D01*
X44297600Y-69335678D01*
X44291662Y-69365000D01*
X44291662Y-74145000D01*
X44297600Y-74176558D01*
X44297600Y-76047600D01*
X42062400Y-76047600D01*
X42062400Y-45783126D01*
X44513126Y-43332400D01*
X50165000Y-43332400D01*
X50224292Y-43320393D01*
X50274242Y-43286264D01*
X50306977Y-43235391D01*
X50317400Y-43180000D01*
X50317400Y-36982400D01*
X53187600Y-36982400D01*
X53187600Y-47472600D01*
X53187600Y-47472600D01*
G37*
X53187600Y-47472600D02*
X45720000Y-47472600D01*
X45660708Y-47484607D01*
X45612237Y-47517237D01*
X44342237Y-48787237D01*
X44308801Y-48837653D01*
X44297600Y-48895000D01*
X44297600Y-50285678D01*
X44291662Y-50315000D01*
X44291662Y-55095000D01*
X44297600Y-55126558D01*
X44297600Y-56635678D01*
X44291662Y-56665000D01*
X44291662Y-61445000D01*
X44297600Y-61476558D01*
X44297600Y-62985678D01*
X44291662Y-63015000D01*
X44291662Y-67795000D01*
X44297600Y-67826558D01*
X44297600Y-69335678D01*
X44291662Y-69365000D01*
X44291662Y-74145000D01*
X44297600Y-74176558D01*
X44297600Y-76047600D01*
X42062400Y-76047600D01*
X42062400Y-45783126D01*
X44513126Y-43332400D01*
X50165000Y-43332400D01*
X50224292Y-43320393D01*
X50274242Y-43286264D01*
X50306977Y-43235391D01*
X50317400Y-43180000D01*
X50317400Y-36982400D01*
X53187600Y-36982400D01*
X53187600Y-47472600D01*
G36*
X90017600Y-36811270D02*
X90017600Y-73507600D01*
X85242400Y-73507600D01*
X85242400Y-36347400D01*
X89553730Y-36347400D01*
X90017600Y-36811270D01*
X90017600Y-36811270D01*
G37*
X90017600Y-36811270D02*
X90017600Y-73507600D01*
X85242400Y-73507600D01*
X85242400Y-36347400D01*
X89553730Y-36347400D01*
X90017600Y-36811270D01*
D47*
G36*
X64528000Y-33842324D02*
X64528000Y-34419315D01*
X64501536Y-34550000D01*
X64501536Y-35300000D01*
X64528103Y-35441190D01*
X64611546Y-35570865D01*
X64738866Y-35657859D01*
X64890000Y-35688464D01*
X65690000Y-35688464D01*
X65831190Y-35661897D01*
X65848081Y-35651028D01*
X65851673Y-35659699D01*
X66030302Y-35838327D01*
X66263691Y-35935000D01*
X66504250Y-35935000D01*
X66663000Y-35776250D01*
X66663000Y-35052000D01*
X66917000Y-35052000D01*
X66917000Y-35776250D01*
X67075750Y-35935000D01*
X67316309Y-35935000D01*
X67549698Y-35838327D01*
X67728327Y-35659699D01*
X67825000Y-35426310D01*
X67825000Y-35210750D01*
X67666250Y-35052000D01*
X66917000Y-35052000D01*
X66663000Y-35052000D01*
X66643000Y-35052000D01*
X66643000Y-34798000D01*
X66663000Y-34798000D01*
X66663000Y-34073750D01*
X66917000Y-34073750D01*
X66917000Y-34798000D01*
X67666250Y-34798000D01*
X67825000Y-34639250D01*
X67825000Y-34423690D01*
X67728327Y-34190301D01*
X67549698Y-34011673D01*
X67316309Y-33915000D01*
X67075750Y-33915000D01*
X66917000Y-34073750D01*
X66663000Y-34073750D01*
X66504250Y-33915000D01*
X66263691Y-33915000D01*
X66052000Y-34002685D01*
X66052000Y-33794000D01*
X66049613Y-33782000D01*
X71628000Y-33782000D01*
X71628000Y-37338000D01*
X70368609Y-37338000D01*
X70421500Y-37210309D01*
X70421500Y-37115750D01*
X70262750Y-36957000D01*
X69342000Y-36957000D01*
X69342000Y-36977000D01*
X69088000Y-36977000D01*
X69088000Y-36957000D01*
X68167250Y-36957000D01*
X68008500Y-37115750D01*
X68008500Y-37210309D01*
X68105173Y-37443698D01*
X68283801Y-37622327D01*
X68323866Y-37638922D01*
X68285641Y-37694866D01*
X68255036Y-37846000D01*
X68255036Y-38354000D01*
X68281603Y-38495190D01*
X68365046Y-38624865D01*
X68492366Y-38711859D01*
X68605288Y-38734726D01*
X68502310Y-38754103D01*
X68372635Y-38837546D01*
X68285641Y-38964866D01*
X68255036Y-39116000D01*
X68255036Y-39624000D01*
X68281603Y-39765190D01*
X68365046Y-39894865D01*
X68492366Y-39981859D01*
X68605288Y-40004726D01*
X68502310Y-40024103D01*
X68372635Y-40107546D01*
X68285641Y-40234866D01*
X68255036Y-40386000D01*
X68255036Y-40894000D01*
X68281603Y-41035190D01*
X68365046Y-41164865D01*
X68453000Y-41224961D01*
X68453000Y-41529000D01*
X68511004Y-41820605D01*
X68644437Y-42020301D01*
X68676185Y-42067815D01*
X68803185Y-42194815D01*
X69050395Y-42359996D01*
X69342000Y-42417999D01*
X69633604Y-42359996D01*
X69880815Y-42194815D01*
X70045996Y-41947604D01*
X70103999Y-41656000D01*
X70053476Y-41402000D01*
X70358000Y-41402000D01*
X70649605Y-41343996D01*
X70896815Y-41178815D01*
X71061996Y-40931605D01*
X71094477Y-40768310D01*
X71095866Y-40769259D01*
X71247000Y-40799864D01*
X71628000Y-40799864D01*
X71628000Y-41910001D01*
X71336396Y-41968004D01*
X71089185Y-42133185D01*
X70924004Y-42380396D01*
X70866001Y-42672000D01*
X70924004Y-42963604D01*
X71017499Y-43103529D01*
X70976135Y-43130146D01*
X70889141Y-43257466D01*
X70858536Y-43408600D01*
X70858536Y-44323000D01*
X68210557Y-44323000D01*
X68310865Y-44258454D01*
X68397859Y-44131134D01*
X68428464Y-43980000D01*
X68428464Y-43942000D01*
X68834000Y-43942000D01*
X69125605Y-43883996D01*
X69372815Y-43718815D01*
X69537996Y-43471605D01*
X69596000Y-43180000D01*
X69537996Y-42888395D01*
X69372815Y-42641185D01*
X69125605Y-42476004D01*
X68834000Y-42418000D01*
X68428464Y-42418000D01*
X68428464Y-42380000D01*
X68401897Y-42238810D01*
X68318454Y-42109135D01*
X68191134Y-42022141D01*
X68040000Y-41991536D01*
X67040000Y-41991536D01*
X66898810Y-42018103D01*
X66769135Y-42101546D01*
X66682141Y-42228866D01*
X66651536Y-42380000D01*
X66651536Y-43980000D01*
X66678103Y-44121190D01*
X66761546Y-44250865D01*
X66867119Y-44323000D01*
X65585244Y-44323000D01*
X65675000Y-44106310D01*
X65675000Y-43465750D01*
X65516250Y-43307000D01*
X64667000Y-43307000D01*
X64667000Y-43327000D01*
X64413000Y-43327000D01*
X64413000Y-43307000D01*
X63563750Y-43307000D01*
X63405000Y-43465750D01*
X63405000Y-44068681D01*
X63137191Y-43420534D01*
X62467989Y-42750163D01*
X61722000Y-42440401D01*
X61722000Y-41402000D01*
X62026524Y-41402000D01*
X61976001Y-41656000D01*
X62034004Y-41947604D01*
X62199185Y-42194815D01*
X62446396Y-42359996D01*
X62738000Y-42417999D01*
X63029604Y-42359996D01*
X63188702Y-42253690D01*
X63405000Y-42253690D01*
X63405000Y-42894250D01*
X63563750Y-43053000D01*
X64413000Y-43053000D01*
X64413000Y-41903750D01*
X64667000Y-41903750D01*
X64667000Y-43053000D01*
X65516250Y-43053000D01*
X65675000Y-42894250D01*
X65675000Y-42253690D01*
X65578327Y-42020301D01*
X65399698Y-41841673D01*
X65166309Y-41745000D01*
X64825750Y-41745000D01*
X64667000Y-41903750D01*
X64413000Y-41903750D01*
X64254250Y-41745000D01*
X63913691Y-41745000D01*
X63680302Y-41841673D01*
X63501673Y-42020301D01*
X63405000Y-42253690D01*
X63188702Y-42253690D01*
X63276815Y-42194815D01*
X63403815Y-42067815D01*
X63568996Y-41820605D01*
X63574484Y-41793013D01*
X63627000Y-41529000D01*
X63627000Y-41224167D01*
X63707365Y-41172454D01*
X63794359Y-41045134D01*
X63824964Y-40894000D01*
X63824964Y-40386000D01*
X63798397Y-40244810D01*
X63714954Y-40115135D01*
X63587634Y-40028141D01*
X63474712Y-40005274D01*
X63577690Y-39985897D01*
X63707365Y-39902454D01*
X63794359Y-39775134D01*
X63824964Y-39624000D01*
X63824964Y-39116000D01*
X63798397Y-38974810D01*
X63714954Y-38845135D01*
X63587634Y-38758141D01*
X63474712Y-38735274D01*
X63577690Y-38715897D01*
X63707365Y-38632454D01*
X63794359Y-38505134D01*
X63824964Y-38354000D01*
X63824964Y-37846000D01*
X63798397Y-37704810D01*
X63756028Y-37638966D01*
X63796199Y-37622327D01*
X63974827Y-37443698D01*
X64071500Y-37210309D01*
X64071500Y-37115750D01*
X63912750Y-36957000D01*
X62992000Y-36957000D01*
X62992000Y-36977000D01*
X62738000Y-36977000D01*
X62738000Y-36957000D01*
X62718000Y-36957000D01*
X62718000Y-36703000D01*
X62738000Y-36703000D01*
X62738000Y-36099750D01*
X62992000Y-36099750D01*
X62992000Y-36703000D01*
X63912750Y-36703000D01*
X64071500Y-36544250D01*
X64071500Y-36449691D01*
X68008500Y-36449691D01*
X68008500Y-36544250D01*
X68167250Y-36703000D01*
X69088000Y-36703000D01*
X69088000Y-36099750D01*
X69342000Y-36099750D01*
X69342000Y-36703000D01*
X70262750Y-36703000D01*
X70421500Y-36544250D01*
X70421500Y-36449691D01*
X70324827Y-36216302D01*
X70146199Y-36037673D01*
X69912810Y-35941000D01*
X69500750Y-35941000D01*
X69342000Y-36099750D01*
X69088000Y-36099750D01*
X68929250Y-35941000D01*
X68517190Y-35941000D01*
X68283801Y-36037673D01*
X68105173Y-36216302D01*
X68008500Y-36449691D01*
X64071500Y-36449691D01*
X63974827Y-36216302D01*
X63796199Y-36037673D01*
X63562810Y-35941000D01*
X63150750Y-35941000D01*
X62992000Y-36099750D01*
X62738000Y-36099750D01*
X62579250Y-35941000D01*
X62167190Y-35941000D01*
X61933801Y-36037673D01*
X61755173Y-36216302D01*
X61722000Y-36296389D01*
X61722000Y-33782000D01*
X64516001Y-33782000D01*
X64528000Y-33842324D01*
X64528000Y-33842324D01*
G37*
X64528000Y-33842324D02*
X64528000Y-34419315D01*
X64501536Y-34550000D01*
X64501536Y-35300000D01*
X64528103Y-35441190D01*
X64611546Y-35570865D01*
X64738866Y-35657859D01*
X64890000Y-35688464D01*
X65690000Y-35688464D01*
X65831190Y-35661897D01*
X65848081Y-35651028D01*
X65851673Y-35659699D01*
X66030302Y-35838327D01*
X66263691Y-35935000D01*
X66504250Y-35935000D01*
X66663000Y-35776250D01*
X66663000Y-35052000D01*
X66917000Y-35052000D01*
X66917000Y-35776250D01*
X67075750Y-35935000D01*
X67316309Y-35935000D01*
X67549698Y-35838327D01*
X67728327Y-35659699D01*
X67825000Y-35426310D01*
X67825000Y-35210750D01*
X67666250Y-35052000D01*
X66917000Y-35052000D01*
X66663000Y-35052000D01*
X66643000Y-35052000D01*
X66643000Y-34798000D01*
X66663000Y-34798000D01*
X66663000Y-34073750D01*
X66917000Y-34073750D01*
X66917000Y-34798000D01*
X67666250Y-34798000D01*
X67825000Y-34639250D01*
X67825000Y-34423690D01*
X67728327Y-34190301D01*
X67549698Y-34011673D01*
X67316309Y-33915000D01*
X67075750Y-33915000D01*
X66917000Y-34073750D01*
X66663000Y-34073750D01*
X66504250Y-33915000D01*
X66263691Y-33915000D01*
X66052000Y-34002685D01*
X66052000Y-33794000D01*
X66049613Y-33782000D01*
X71628000Y-33782000D01*
X71628000Y-37338000D01*
X70368609Y-37338000D01*
X70421500Y-37210309D01*
X70421500Y-37115750D01*
X70262750Y-36957000D01*
X69342000Y-36957000D01*
X69342000Y-36977000D01*
X69088000Y-36977000D01*
X69088000Y-36957000D01*
X68167250Y-36957000D01*
X68008500Y-37115750D01*
X68008500Y-37210309D01*
X68105173Y-37443698D01*
X68283801Y-37622327D01*
X68323866Y-37638922D01*
X68285641Y-37694866D01*
X68255036Y-37846000D01*
X68255036Y-38354000D01*
X68281603Y-38495190D01*
X68365046Y-38624865D01*
X68492366Y-38711859D01*
X68605288Y-38734726D01*
X68502310Y-38754103D01*
X68372635Y-38837546D01*
X68285641Y-38964866D01*
X68255036Y-39116000D01*
X68255036Y-39624000D01*
X68281603Y-39765190D01*
X68365046Y-39894865D01*
X68492366Y-39981859D01*
X68605288Y-40004726D01*
X68502310Y-40024103D01*
X68372635Y-40107546D01*
X68285641Y-40234866D01*
X68255036Y-40386000D01*
X68255036Y-40894000D01*
X68281603Y-41035190D01*
X68365046Y-41164865D01*
X68453000Y-41224961D01*
X68453000Y-41529000D01*
X68511004Y-41820605D01*
X68644437Y-42020301D01*
X68676185Y-42067815D01*
X68803185Y-42194815D01*
X69050395Y-42359996D01*
X69342000Y-42417999D01*
X69633604Y-42359996D01*
X69880815Y-42194815D01*
X70045996Y-41947604D01*
X70103999Y-41656000D01*
X70053476Y-41402000D01*
X70358000Y-41402000D01*
X70649605Y-41343996D01*
X70896815Y-41178815D01*
X71061996Y-40931605D01*
X71094477Y-40768310D01*
X71095866Y-40769259D01*
X71247000Y-40799864D01*
X71628000Y-40799864D01*
X71628000Y-41910001D01*
X71336396Y-41968004D01*
X71089185Y-42133185D01*
X70924004Y-42380396D01*
X70866001Y-42672000D01*
X70924004Y-42963604D01*
X71017499Y-43103529D01*
X70976135Y-43130146D01*
X70889141Y-43257466D01*
X70858536Y-43408600D01*
X70858536Y-44323000D01*
X68210557Y-44323000D01*
X68310865Y-44258454D01*
X68397859Y-44131134D01*
X68428464Y-43980000D01*
X68428464Y-43942000D01*
X68834000Y-43942000D01*
X69125605Y-43883996D01*
X69372815Y-43718815D01*
X69537996Y-43471605D01*
X69596000Y-43180000D01*
X69537996Y-42888395D01*
X69372815Y-42641185D01*
X69125605Y-42476004D01*
X68834000Y-42418000D01*
X68428464Y-42418000D01*
X68428464Y-42380000D01*
X68401897Y-42238810D01*
X68318454Y-42109135D01*
X68191134Y-42022141D01*
X68040000Y-41991536D01*
X67040000Y-41991536D01*
X66898810Y-42018103D01*
X66769135Y-42101546D01*
X66682141Y-42228866D01*
X66651536Y-42380000D01*
X66651536Y-43980000D01*
X66678103Y-44121190D01*
X66761546Y-44250865D01*
X66867119Y-44323000D01*
X65585244Y-44323000D01*
X65675000Y-44106310D01*
X65675000Y-43465750D01*
X65516250Y-43307000D01*
X64667000Y-43307000D01*
X64667000Y-43327000D01*
X64413000Y-43327000D01*
X64413000Y-43307000D01*
X63563750Y-43307000D01*
X63405000Y-43465750D01*
X63405000Y-44068681D01*
X63137191Y-43420534D01*
X62467989Y-42750163D01*
X61722000Y-42440401D01*
X61722000Y-41402000D01*
X62026524Y-41402000D01*
X61976001Y-41656000D01*
X62034004Y-41947604D01*
X62199185Y-42194815D01*
X62446396Y-42359996D01*
X62738000Y-42417999D01*
X63029604Y-42359996D01*
X63188702Y-42253690D01*
X63405000Y-42253690D01*
X63405000Y-42894250D01*
X63563750Y-43053000D01*
X64413000Y-43053000D01*
X64413000Y-41903750D01*
X64667000Y-41903750D01*
X64667000Y-43053000D01*
X65516250Y-43053000D01*
X65675000Y-42894250D01*
X65675000Y-42253690D01*
X65578327Y-42020301D01*
X65399698Y-41841673D01*
X65166309Y-41745000D01*
X64825750Y-41745000D01*
X64667000Y-41903750D01*
X64413000Y-41903750D01*
X64254250Y-41745000D01*
X63913691Y-41745000D01*
X63680302Y-41841673D01*
X63501673Y-42020301D01*
X63405000Y-42253690D01*
X63188702Y-42253690D01*
X63276815Y-42194815D01*
X63403815Y-42067815D01*
X63568996Y-41820605D01*
X63574484Y-41793013D01*
X63627000Y-41529000D01*
X63627000Y-41224167D01*
X63707365Y-41172454D01*
X63794359Y-41045134D01*
X63824964Y-40894000D01*
X63824964Y-40386000D01*
X63798397Y-40244810D01*
X63714954Y-40115135D01*
X63587634Y-40028141D01*
X63474712Y-40005274D01*
X63577690Y-39985897D01*
X63707365Y-39902454D01*
X63794359Y-39775134D01*
X63824964Y-39624000D01*
X63824964Y-39116000D01*
X63798397Y-38974810D01*
X63714954Y-38845135D01*
X63587634Y-38758141D01*
X63474712Y-38735274D01*
X63577690Y-38715897D01*
X63707365Y-38632454D01*
X63794359Y-38505134D01*
X63824964Y-38354000D01*
X63824964Y-37846000D01*
X63798397Y-37704810D01*
X63756028Y-37638966D01*
X63796199Y-37622327D01*
X63974827Y-37443698D01*
X64071500Y-37210309D01*
X64071500Y-37115750D01*
X63912750Y-36957000D01*
X62992000Y-36957000D01*
X62992000Y-36977000D01*
X62738000Y-36977000D01*
X62738000Y-36957000D01*
X62718000Y-36957000D01*
X62718000Y-36703000D01*
X62738000Y-36703000D01*
X62738000Y-36099750D01*
X62992000Y-36099750D01*
X62992000Y-36703000D01*
X63912750Y-36703000D01*
X64071500Y-36544250D01*
X64071500Y-36449691D01*
X68008500Y-36449691D01*
X68008500Y-36544250D01*
X68167250Y-36703000D01*
X69088000Y-36703000D01*
X69088000Y-36099750D01*
X69342000Y-36099750D01*
X69342000Y-36703000D01*
X70262750Y-36703000D01*
X70421500Y-36544250D01*
X70421500Y-36449691D01*
X70324827Y-36216302D01*
X70146199Y-36037673D01*
X69912810Y-35941000D01*
X69500750Y-35941000D01*
X69342000Y-36099750D01*
X69088000Y-36099750D01*
X68929250Y-35941000D01*
X68517190Y-35941000D01*
X68283801Y-36037673D01*
X68105173Y-36216302D01*
X68008500Y-36449691D01*
X64071500Y-36449691D01*
X63974827Y-36216302D01*
X63796199Y-36037673D01*
X63562810Y-35941000D01*
X63150750Y-35941000D01*
X62992000Y-36099750D01*
X62738000Y-36099750D01*
X62579250Y-35941000D01*
X62167190Y-35941000D01*
X61933801Y-36037673D01*
X61755173Y-36216302D01*
X61722000Y-36296389D01*
X61722000Y-33782000D01*
X64516001Y-33782000D01*
X64528000Y-33842324D01*
G36*
X46482000Y-52578000D02*
X46502000Y-52578000D01*
X46502000Y-52832000D01*
X46482000Y-52832000D01*
X46482000Y-55571250D01*
X46640750Y-55730000D01*
X47871309Y-55730000D01*
X47982283Y-55684033D01*
X47993110Y-55691431D01*
X48245000Y-55742440D01*
X48745000Y-55742440D01*
X48980317Y-55698162D01*
X49196441Y-55559090D01*
X49237499Y-55499000D01*
X49820383Y-55499000D01*
X49850910Y-55546441D01*
X50063110Y-55691431D01*
X50315000Y-55742440D01*
X50815000Y-55742440D01*
X51050317Y-55698162D01*
X51074406Y-55682661D01*
X51188691Y-55730000D01*
X52419250Y-55730000D01*
X52578000Y-55571250D01*
X52578000Y-52832000D01*
X52558000Y-52832000D01*
X52558000Y-52578000D01*
X52578000Y-52578000D01*
X52578000Y-52558000D01*
X52832000Y-52558000D01*
X52832000Y-52578000D01*
X52852000Y-52578000D01*
X52852000Y-52832000D01*
X52832000Y-52832000D01*
X52832000Y-55571250D01*
X52990750Y-55730000D01*
X54221309Y-55730000D01*
X54332283Y-55684033D01*
X54343110Y-55691431D01*
X54595000Y-55742440D01*
X55095000Y-55742440D01*
X55330317Y-55698162D01*
X55546441Y-55559090D01*
X55587499Y-55499000D01*
X56170383Y-55499000D01*
X56200910Y-55546441D01*
X56413110Y-55691431D01*
X56665000Y-55742440D01*
X57165000Y-55742440D01*
X57400317Y-55698162D01*
X57424406Y-55682661D01*
X57538691Y-55730000D01*
X58769250Y-55730000D01*
X58928000Y-55571250D01*
X58928000Y-52832000D01*
X58908000Y-52832000D01*
X58908000Y-52578000D01*
X58928000Y-52578000D01*
X58928000Y-52558000D01*
X59182000Y-52558000D01*
X59182000Y-52578000D01*
X59202000Y-52578000D01*
X59202000Y-52832000D01*
X59182000Y-52832000D01*
X59182000Y-55571250D01*
X59340750Y-55730000D01*
X60571309Y-55730000D01*
X60682283Y-55684033D01*
X60693110Y-55691431D01*
X60945000Y-55742440D01*
X61445000Y-55742440D01*
X61680317Y-55698162D01*
X61896441Y-55559090D01*
X61937499Y-55499000D01*
X62520383Y-55499000D01*
X62550910Y-55546441D01*
X62763110Y-55691431D01*
X63015000Y-55742440D01*
X63515000Y-55742440D01*
X63750317Y-55698162D01*
X63774406Y-55682661D01*
X63888691Y-55730000D01*
X65119250Y-55730000D01*
X65278000Y-55571250D01*
X65278000Y-52832000D01*
X65258000Y-52832000D01*
X65258000Y-52578000D01*
X65278000Y-52578000D01*
X65278000Y-52558000D01*
X65532000Y-52558000D01*
X65532000Y-52578000D01*
X65552000Y-52578000D01*
X65552000Y-52832000D01*
X65532000Y-52832000D01*
X65532000Y-55571250D01*
X65690750Y-55730000D01*
X66921309Y-55730000D01*
X67032283Y-55684033D01*
X67043110Y-55691431D01*
X67295000Y-55742440D01*
X67795000Y-55742440D01*
X68030317Y-55698162D01*
X68246441Y-55559090D01*
X68287499Y-55499000D01*
X68870383Y-55499000D01*
X68900910Y-55546441D01*
X69113110Y-55691431D01*
X69365000Y-55742440D01*
X69865000Y-55742440D01*
X70100317Y-55698162D01*
X70124406Y-55682661D01*
X70238691Y-55730000D01*
X71469250Y-55730000D01*
X71628000Y-55571250D01*
X71628000Y-52832000D01*
X71608000Y-52832000D01*
X71608000Y-52578000D01*
X71628000Y-52578000D01*
X71628000Y-52558000D01*
X71882000Y-52558000D01*
X71882000Y-52578000D01*
X71902000Y-52578000D01*
X71902000Y-52832000D01*
X71882000Y-52832000D01*
X71882000Y-55571250D01*
X72040750Y-55730000D01*
X73271309Y-55730000D01*
X73382283Y-55684033D01*
X73393110Y-55691431D01*
X73645000Y-55742440D01*
X74145000Y-55742440D01*
X74380317Y-55698162D01*
X74596441Y-55559090D01*
X74637499Y-55499000D01*
X75220383Y-55499000D01*
X75250910Y-55546441D01*
X75463110Y-55691431D01*
X75715000Y-55742440D01*
X76215000Y-55742440D01*
X76450317Y-55698162D01*
X76474406Y-55682661D01*
X76588691Y-55730000D01*
X77819250Y-55730000D01*
X77978000Y-55571250D01*
X77978000Y-52832000D01*
X77958000Y-52832000D01*
X77958000Y-52578000D01*
X77978000Y-52578000D01*
X77978000Y-52558000D01*
X78232000Y-52558000D01*
X78232000Y-52578000D01*
X78252000Y-52578000D01*
X78252000Y-52832000D01*
X78232000Y-52832000D01*
X78232000Y-55571250D01*
X78390750Y-55730000D01*
X79248000Y-55730000D01*
X79248000Y-56030000D01*
X78390750Y-56030000D01*
X78232000Y-56188750D01*
X78232000Y-58928000D01*
X78252000Y-58928000D01*
X78252000Y-59182000D01*
X78232000Y-59182000D01*
X78232000Y-61921250D01*
X78390750Y-62080000D01*
X79248000Y-62080000D01*
X79248000Y-62380000D01*
X78390750Y-62380000D01*
X78232000Y-62538750D01*
X78232000Y-65278000D01*
X78252000Y-65278000D01*
X78252000Y-65532000D01*
X78232000Y-65532000D01*
X78232000Y-68271250D01*
X78390750Y-68430000D01*
X79248000Y-68430000D01*
X79248000Y-68730000D01*
X78390750Y-68730000D01*
X78232000Y-68888750D01*
X78232000Y-71628000D01*
X78252000Y-71628000D01*
X78252000Y-71882000D01*
X78232000Y-71882000D01*
X78232000Y-71902000D01*
X77978000Y-71902000D01*
X77978000Y-71882000D01*
X77958000Y-71882000D01*
X77958000Y-71628000D01*
X77978000Y-71628000D01*
X77978000Y-68888750D01*
X77819250Y-68730000D01*
X76588691Y-68730000D01*
X76477717Y-68775967D01*
X76466890Y-68768569D01*
X76215000Y-68717560D01*
X75715000Y-68717560D01*
X75479683Y-68761838D01*
X75263559Y-68900910D01*
X75222501Y-68961000D01*
X74639617Y-68961000D01*
X74609090Y-68913559D01*
X74396890Y-68768569D01*
X74145000Y-68717560D01*
X73645000Y-68717560D01*
X73409683Y-68761838D01*
X73385594Y-68777339D01*
X73271309Y-68730000D01*
X72040750Y-68730000D01*
X71882000Y-68888750D01*
X71882000Y-71628000D01*
X71902000Y-71628000D01*
X71902000Y-71882000D01*
X71882000Y-71882000D01*
X71882000Y-71902000D01*
X71628000Y-71902000D01*
X71628000Y-71882000D01*
X71608000Y-71882000D01*
X71608000Y-71628000D01*
X71628000Y-71628000D01*
X71628000Y-68888750D01*
X71469250Y-68730000D01*
X70238691Y-68730000D01*
X70127717Y-68775967D01*
X70116890Y-68768569D01*
X69865000Y-68717560D01*
X69365000Y-68717560D01*
X69129683Y-68761838D01*
X68913559Y-68900910D01*
X68872501Y-68961000D01*
X68289617Y-68961000D01*
X68259090Y-68913559D01*
X68046890Y-68768569D01*
X67795000Y-68717560D01*
X67295000Y-68717560D01*
X67059683Y-68761838D01*
X67035594Y-68777339D01*
X66921309Y-68730000D01*
X65690750Y-68730000D01*
X65532000Y-68888750D01*
X65532000Y-71628000D01*
X65552000Y-71628000D01*
X65552000Y-71882000D01*
X65532000Y-71882000D01*
X65532000Y-71902000D01*
X65278000Y-71902000D01*
X65278000Y-71882000D01*
X65258000Y-71882000D01*
X65258000Y-71628000D01*
X65278000Y-71628000D01*
X65278000Y-68888750D01*
X65119250Y-68730000D01*
X63888691Y-68730000D01*
X63777717Y-68775967D01*
X63766890Y-68768569D01*
X63515000Y-68717560D01*
X63015000Y-68717560D01*
X62779683Y-68761838D01*
X62563559Y-68900910D01*
X62522501Y-68961000D01*
X61939617Y-68961000D01*
X61909090Y-68913559D01*
X61696890Y-68768569D01*
X61445000Y-68717560D01*
X60945000Y-68717560D01*
X60709683Y-68761838D01*
X60685594Y-68777339D01*
X60571309Y-68730000D01*
X59340750Y-68730000D01*
X59182000Y-68888750D01*
X59182000Y-71628000D01*
X59202000Y-71628000D01*
X59202000Y-71882000D01*
X59182000Y-71882000D01*
X59182000Y-71902000D01*
X58928000Y-71902000D01*
X58928000Y-71882000D01*
X58908000Y-71882000D01*
X58908000Y-71628000D01*
X58928000Y-71628000D01*
X58928000Y-68888750D01*
X58769250Y-68730000D01*
X57538691Y-68730000D01*
X57427717Y-68775967D01*
X57416890Y-68768569D01*
X57165000Y-68717560D01*
X56665000Y-68717560D01*
X56429683Y-68761838D01*
X56213559Y-68900910D01*
X56172501Y-68961000D01*
X55589617Y-68961000D01*
X55559090Y-68913559D01*
X55346890Y-68768569D01*
X55095000Y-68717560D01*
X54595000Y-68717560D01*
X54359683Y-68761838D01*
X54335594Y-68777339D01*
X54221309Y-68730000D01*
X52990750Y-68730000D01*
X52832000Y-68888750D01*
X52832000Y-71628000D01*
X52852000Y-71628000D01*
X52852000Y-71882000D01*
X52832000Y-71882000D01*
X52832000Y-71902000D01*
X52578000Y-71902000D01*
X52578000Y-71882000D01*
X52558000Y-71882000D01*
X52558000Y-71628000D01*
X52578000Y-71628000D01*
X52578000Y-68888750D01*
X52419250Y-68730000D01*
X51188691Y-68730000D01*
X51077717Y-68775967D01*
X51066890Y-68768569D01*
X50815000Y-68717560D01*
X50315000Y-68717560D01*
X50079683Y-68761838D01*
X49863559Y-68900910D01*
X49822501Y-68961000D01*
X49239617Y-68961000D01*
X49209090Y-68913559D01*
X48996890Y-68768569D01*
X48745000Y-68717560D01*
X48245000Y-68717560D01*
X48009683Y-68761838D01*
X47985594Y-68777339D01*
X47871309Y-68730000D01*
X46640750Y-68730000D01*
X46482000Y-68888750D01*
X46482000Y-71628000D01*
X46502000Y-71628000D01*
X46502000Y-71882000D01*
X46482000Y-71882000D01*
X46482000Y-71902000D01*
X46228000Y-71902000D01*
X46228000Y-71882000D01*
X46208000Y-71882000D01*
X46208000Y-71628000D01*
X46228000Y-71628000D01*
X46228000Y-68888750D01*
X46069250Y-68730000D01*
X45212000Y-68730000D01*
X45212000Y-68430000D01*
X46069250Y-68430000D01*
X46228000Y-68271250D01*
X46228000Y-65532000D01*
X46208000Y-65532000D01*
X46208000Y-65278000D01*
X46228000Y-65278000D01*
X46228000Y-62538750D01*
X46482000Y-62538750D01*
X46482000Y-65278000D01*
X46502000Y-65278000D01*
X46502000Y-65532000D01*
X46482000Y-65532000D01*
X46482000Y-68271250D01*
X46640750Y-68430000D01*
X47871309Y-68430000D01*
X47982283Y-68384033D01*
X47993110Y-68391431D01*
X48245000Y-68442440D01*
X48745000Y-68442440D01*
X48980317Y-68398162D01*
X49196441Y-68259090D01*
X49237499Y-68199000D01*
X49820383Y-68199000D01*
X49850910Y-68246441D01*
X50063110Y-68391431D01*
X50315000Y-68442440D01*
X50815000Y-68442440D01*
X51050317Y-68398162D01*
X51074406Y-68382661D01*
X51188691Y-68430000D01*
X52419250Y-68430000D01*
X52578000Y-68271250D01*
X52578000Y-65532000D01*
X52558000Y-65532000D01*
X52558000Y-65278000D01*
X52578000Y-65278000D01*
X52578000Y-62538750D01*
X52832000Y-62538750D01*
X52832000Y-65278000D01*
X52852000Y-65278000D01*
X52852000Y-65532000D01*
X52832000Y-65532000D01*
X52832000Y-68271250D01*
X52990750Y-68430000D01*
X54221309Y-68430000D01*
X54332283Y-68384033D01*
X54343110Y-68391431D01*
X54595000Y-68442440D01*
X55095000Y-68442440D01*
X55330317Y-68398162D01*
X55546441Y-68259090D01*
X55587499Y-68199000D01*
X56170383Y-68199000D01*
X56200910Y-68246441D01*
X56413110Y-68391431D01*
X56665000Y-68442440D01*
X57165000Y-68442440D01*
X57400317Y-68398162D01*
X57424406Y-68382661D01*
X57538691Y-68430000D01*
X58769250Y-68430000D01*
X58928000Y-68271250D01*
X58928000Y-65532000D01*
X58908000Y-65532000D01*
X58908000Y-65278000D01*
X58928000Y-65278000D01*
X58928000Y-62538750D01*
X59182000Y-62538750D01*
X59182000Y-65278000D01*
X59202000Y-65278000D01*
X59202000Y-65532000D01*
X59182000Y-65532000D01*
X59182000Y-68271250D01*
X59340750Y-68430000D01*
X60571309Y-68430000D01*
X60682283Y-68384033D01*
X60693110Y-68391431D01*
X60945000Y-68442440D01*
X61445000Y-68442440D01*
X61680317Y-68398162D01*
X61896441Y-68259090D01*
X61937499Y-68199000D01*
X62520383Y-68199000D01*
X62550910Y-68246441D01*
X62763110Y-68391431D01*
X63015000Y-68442440D01*
X63515000Y-68442440D01*
X63750317Y-68398162D01*
X63774406Y-68382661D01*
X63888691Y-68430000D01*
X65119250Y-68430000D01*
X65278000Y-68271250D01*
X65278000Y-65532000D01*
X65258000Y-65532000D01*
X65258000Y-65278000D01*
X65278000Y-65278000D01*
X65278000Y-62538750D01*
X65532000Y-62538750D01*
X65532000Y-65278000D01*
X65552000Y-65278000D01*
X65552000Y-65532000D01*
X65532000Y-65532000D01*
X65532000Y-68271250D01*
X65690750Y-68430000D01*
X66921309Y-68430000D01*
X67032283Y-68384033D01*
X67043110Y-68391431D01*
X67295000Y-68442440D01*
X67795000Y-68442440D01*
X68030317Y-68398162D01*
X68246441Y-68259090D01*
X68287499Y-68199000D01*
X68870383Y-68199000D01*
X68900910Y-68246441D01*
X69113110Y-68391431D01*
X69365000Y-68442440D01*
X69865000Y-68442440D01*
X70100317Y-68398162D01*
X70124406Y-68382661D01*
X70238691Y-68430000D01*
X71469250Y-68430000D01*
X71628000Y-68271250D01*
X71628000Y-65532000D01*
X71608000Y-65532000D01*
X71608000Y-65278000D01*
X71628000Y-65278000D01*
X71628000Y-62538750D01*
X71882000Y-62538750D01*
X71882000Y-65278000D01*
X71902000Y-65278000D01*
X71902000Y-65532000D01*
X71882000Y-65532000D01*
X71882000Y-68271250D01*
X72040750Y-68430000D01*
X73271309Y-68430000D01*
X73382283Y-68384033D01*
X73393110Y-68391431D01*
X73645000Y-68442440D01*
X74145000Y-68442440D01*
X74380317Y-68398162D01*
X74596441Y-68259090D01*
X74637499Y-68199000D01*
X75220383Y-68199000D01*
X75250910Y-68246441D01*
X75463110Y-68391431D01*
X75715000Y-68442440D01*
X76215000Y-68442440D01*
X76450317Y-68398162D01*
X76474406Y-68382661D01*
X76588691Y-68430000D01*
X77819250Y-68430000D01*
X77978000Y-68271250D01*
X77978000Y-65532000D01*
X77958000Y-65532000D01*
X77958000Y-65278000D01*
X77978000Y-65278000D01*
X77978000Y-62538750D01*
X77819250Y-62380000D01*
X76588691Y-62380000D01*
X76477717Y-62425967D01*
X76466890Y-62418569D01*
X76215000Y-62367560D01*
X75715000Y-62367560D01*
X75479683Y-62411838D01*
X75263559Y-62550910D01*
X75222501Y-62611000D01*
X74639617Y-62611000D01*
X74609090Y-62563559D01*
X74396890Y-62418569D01*
X74145000Y-62367560D01*
X73645000Y-62367560D01*
X73409683Y-62411838D01*
X73385594Y-62427339D01*
X73271309Y-62380000D01*
X72040750Y-62380000D01*
X71882000Y-62538750D01*
X71628000Y-62538750D01*
X71469250Y-62380000D01*
X70238691Y-62380000D01*
X70127717Y-62425967D01*
X70116890Y-62418569D01*
X69865000Y-62367560D01*
X69365000Y-62367560D01*
X69129683Y-62411838D01*
X68913559Y-62550910D01*
X68872501Y-62611000D01*
X68289617Y-62611000D01*
X68259090Y-62563559D01*
X68046890Y-62418569D01*
X67795000Y-62367560D01*
X67295000Y-62367560D01*
X67059683Y-62411838D01*
X67035594Y-62427339D01*
X66921309Y-62380000D01*
X65690750Y-62380000D01*
X65532000Y-62538750D01*
X65278000Y-62538750D01*
X65119250Y-62380000D01*
X63888691Y-62380000D01*
X63777717Y-62425967D01*
X63766890Y-62418569D01*
X63515000Y-62367560D01*
X63015000Y-62367560D01*
X62779683Y-62411838D01*
X62563559Y-62550910D01*
X62522501Y-62611000D01*
X61939617Y-62611000D01*
X61909090Y-62563559D01*
X61696890Y-62418569D01*
X61445000Y-62367560D01*
X60945000Y-62367560D01*
X60709683Y-62411838D01*
X60685594Y-62427339D01*
X60571309Y-62380000D01*
X59340750Y-62380000D01*
X59182000Y-62538750D01*
X58928000Y-62538750D01*
X58769250Y-62380000D01*
X57538691Y-62380000D01*
X57427717Y-62425967D01*
X57416890Y-62418569D01*
X57165000Y-62367560D01*
X56665000Y-62367560D01*
X56429683Y-62411838D01*
X56213559Y-62550910D01*
X56172501Y-62611000D01*
X55589617Y-62611000D01*
X55559090Y-62563559D01*
X55346890Y-62418569D01*
X55095000Y-62367560D01*
X54595000Y-62367560D01*
X54359683Y-62411838D01*
X54335594Y-62427339D01*
X54221309Y-62380000D01*
X52990750Y-62380000D01*
X52832000Y-62538750D01*
X52578000Y-62538750D01*
X52419250Y-62380000D01*
X51188691Y-62380000D01*
X51077717Y-62425967D01*
X51066890Y-62418569D01*
X50815000Y-62367560D01*
X50315000Y-62367560D01*
X50079683Y-62411838D01*
X49863559Y-62550910D01*
X49822501Y-62611000D01*
X49239617Y-62611000D01*
X49209090Y-62563559D01*
X48996890Y-62418569D01*
X48745000Y-62367560D01*
X48245000Y-62367560D01*
X48009683Y-62411838D01*
X47985594Y-62427339D01*
X47871309Y-62380000D01*
X46640750Y-62380000D01*
X46482000Y-62538750D01*
X46228000Y-62538750D01*
X46069250Y-62380000D01*
X45212000Y-62380000D01*
X45212000Y-62080000D01*
X46069250Y-62080000D01*
X46228000Y-61921250D01*
X46228000Y-59182000D01*
X46208000Y-59182000D01*
X46208000Y-58928000D01*
X46228000Y-58928000D01*
X46228000Y-56188750D01*
X46482000Y-56188750D01*
X46482000Y-58928000D01*
X46502000Y-58928000D01*
X46502000Y-59182000D01*
X46482000Y-59182000D01*
X46482000Y-61921250D01*
X46640750Y-62080000D01*
X47871309Y-62080000D01*
X47982283Y-62034033D01*
X47993110Y-62041431D01*
X48245000Y-62092440D01*
X48745000Y-62092440D01*
X48980317Y-62048162D01*
X49196441Y-61909090D01*
X49237499Y-61849000D01*
X49820383Y-61849000D01*
X49850910Y-61896441D01*
X50063110Y-62041431D01*
X50315000Y-62092440D01*
X50815000Y-62092440D01*
X51050317Y-62048162D01*
X51074406Y-62032661D01*
X51188691Y-62080000D01*
X52419250Y-62080000D01*
X52578000Y-61921250D01*
X52578000Y-59182000D01*
X52558000Y-59182000D01*
X52558000Y-58928000D01*
X52578000Y-58928000D01*
X52578000Y-56188750D01*
X52832000Y-56188750D01*
X52832000Y-58928000D01*
X52852000Y-58928000D01*
X52852000Y-59182000D01*
X52832000Y-59182000D01*
X52832000Y-61921250D01*
X52990750Y-62080000D01*
X54221309Y-62080000D01*
X54332283Y-62034033D01*
X54343110Y-62041431D01*
X54595000Y-62092440D01*
X55095000Y-62092440D01*
X55330317Y-62048162D01*
X55546441Y-61909090D01*
X55587499Y-61849000D01*
X56170383Y-61849000D01*
X56200910Y-61896441D01*
X56413110Y-62041431D01*
X56665000Y-62092440D01*
X57165000Y-62092440D01*
X57400317Y-62048162D01*
X57424406Y-62032661D01*
X57538691Y-62080000D01*
X58769250Y-62080000D01*
X58928000Y-61921250D01*
X58928000Y-59182000D01*
X58908000Y-59182000D01*
X58908000Y-58928000D01*
X58928000Y-58928000D01*
X58928000Y-56188750D01*
X59182000Y-56188750D01*
X59182000Y-58928000D01*
X59202000Y-58928000D01*
X59202000Y-59182000D01*
X59182000Y-59182000D01*
X59182000Y-61921250D01*
X59340750Y-62080000D01*
X60571309Y-62080000D01*
X60682283Y-62034033D01*
X60693110Y-62041431D01*
X60945000Y-62092440D01*
X61445000Y-62092440D01*
X61680317Y-62048162D01*
X61896441Y-61909090D01*
X61937499Y-61849000D01*
X62520383Y-61849000D01*
X62550910Y-61896441D01*
X62763110Y-62041431D01*
X63015000Y-62092440D01*
X63515000Y-62092440D01*
X63750317Y-62048162D01*
X63774406Y-62032661D01*
X63888691Y-62080000D01*
X65119250Y-62080000D01*
X65278000Y-61921250D01*
X65278000Y-59182000D01*
X65258000Y-59182000D01*
X65258000Y-58928000D01*
X65278000Y-58928000D01*
X65278000Y-56188750D01*
X65532000Y-56188750D01*
X65532000Y-58928000D01*
X65552000Y-58928000D01*
X65552000Y-59182000D01*
X65532000Y-59182000D01*
X65532000Y-61921250D01*
X65690750Y-62080000D01*
X66921309Y-62080000D01*
X67032283Y-62034033D01*
X67043110Y-62041431D01*
X67295000Y-62092440D01*
X67795000Y-62092440D01*
X68030317Y-62048162D01*
X68246441Y-61909090D01*
X68287499Y-61849000D01*
X68870383Y-61849000D01*
X68900910Y-61896441D01*
X69113110Y-62041431D01*
X69365000Y-62092440D01*
X69865000Y-62092440D01*
X70100317Y-62048162D01*
X70124406Y-62032661D01*
X70238691Y-62080000D01*
X71469250Y-62080000D01*
X71628000Y-61921250D01*
X71628000Y-59182000D01*
X71608000Y-59182000D01*
X71608000Y-58928000D01*
X71628000Y-58928000D01*
X71628000Y-56188750D01*
X71882000Y-56188750D01*
X71882000Y-58928000D01*
X71902000Y-58928000D01*
X71902000Y-59182000D01*
X71882000Y-59182000D01*
X71882000Y-61921250D01*
X72040750Y-62080000D01*
X73271309Y-62080000D01*
X73382283Y-62034033D01*
X73393110Y-62041431D01*
X73645000Y-62092440D01*
X74145000Y-62092440D01*
X74380317Y-62048162D01*
X74596441Y-61909090D01*
X74637499Y-61849000D01*
X75220383Y-61849000D01*
X75250910Y-61896441D01*
X75463110Y-62041431D01*
X75715000Y-62092440D01*
X76215000Y-62092440D01*
X76450317Y-62048162D01*
X76474406Y-62032661D01*
X76588691Y-62080000D01*
X77819250Y-62080000D01*
X77978000Y-61921250D01*
X77978000Y-59182000D01*
X77958000Y-59182000D01*
X77958000Y-58928000D01*
X77978000Y-58928000D01*
X77978000Y-56188750D01*
X77819250Y-56030000D01*
X76588691Y-56030000D01*
X76477717Y-56075967D01*
X76466890Y-56068569D01*
X76215000Y-56017560D01*
X75715000Y-56017560D01*
X75479683Y-56061838D01*
X75263559Y-56200910D01*
X75222501Y-56261000D01*
X74639617Y-56261000D01*
X74609090Y-56213559D01*
X74396890Y-56068569D01*
X74145000Y-56017560D01*
X73645000Y-56017560D01*
X73409683Y-56061838D01*
X73385594Y-56077339D01*
X73271309Y-56030000D01*
X72040750Y-56030000D01*
X71882000Y-56188750D01*
X71628000Y-56188750D01*
X71469250Y-56030000D01*
X70238691Y-56030000D01*
X70127717Y-56075967D01*
X70116890Y-56068569D01*
X69865000Y-56017560D01*
X69365000Y-56017560D01*
X69129683Y-56061838D01*
X68913559Y-56200910D01*
X68872501Y-56261000D01*
X68289617Y-56261000D01*
X68259090Y-56213559D01*
X68046890Y-56068569D01*
X67795000Y-56017560D01*
X67295000Y-56017560D01*
X67059683Y-56061838D01*
X67035594Y-56077339D01*
X66921309Y-56030000D01*
X65690750Y-56030000D01*
X65532000Y-56188750D01*
X65278000Y-56188750D01*
X65119250Y-56030000D01*
X63888691Y-56030000D01*
X63777717Y-56075967D01*
X63766890Y-56068569D01*
X63515000Y-56017560D01*
X63015000Y-56017560D01*
X62779683Y-56061838D01*
X62563559Y-56200910D01*
X62522501Y-56261000D01*
X61939617Y-56261000D01*
X61909090Y-56213559D01*
X61696890Y-56068569D01*
X61445000Y-56017560D01*
X60945000Y-56017560D01*
X60709683Y-56061838D01*
X60685594Y-56077339D01*
X60571309Y-56030000D01*
X59340750Y-56030000D01*
X59182000Y-56188750D01*
X58928000Y-56188750D01*
X58769250Y-56030000D01*
X57538691Y-56030000D01*
X57427717Y-56075967D01*
X57416890Y-56068569D01*
X57165000Y-56017560D01*
X56665000Y-56017560D01*
X56429683Y-56061838D01*
X56213559Y-56200910D01*
X56172501Y-56261000D01*
X55589617Y-56261000D01*
X55559090Y-56213559D01*
X55346890Y-56068569D01*
X55095000Y-56017560D01*
X54595000Y-56017560D01*
X54359683Y-56061838D01*
X54335594Y-56077339D01*
X54221309Y-56030000D01*
X52990750Y-56030000D01*
X52832000Y-56188750D01*
X52578000Y-56188750D01*
X52419250Y-56030000D01*
X51188691Y-56030000D01*
X51077717Y-56075967D01*
X51066890Y-56068569D01*
X50815000Y-56017560D01*
X50315000Y-56017560D01*
X50079683Y-56061838D01*
X49863559Y-56200910D01*
X49822501Y-56261000D01*
X49239617Y-56261000D01*
X49209090Y-56213559D01*
X48996890Y-56068569D01*
X48745000Y-56017560D01*
X48245000Y-56017560D01*
X48009683Y-56061838D01*
X47985594Y-56077339D01*
X47871309Y-56030000D01*
X46640750Y-56030000D01*
X46482000Y-56188750D01*
X46228000Y-56188750D01*
X46069250Y-56030000D01*
X45212000Y-56030000D01*
X45212000Y-55730000D01*
X46069250Y-55730000D01*
X46228000Y-55571250D01*
X46228000Y-52832000D01*
X46208000Y-52832000D01*
X46208000Y-52578000D01*
X46228000Y-52578000D01*
X46228000Y-52558000D01*
X46482000Y-52558000D01*
X46482000Y-52578000D01*
X46482000Y-52578000D01*
G37*
X46482000Y-52578000D02*
X46502000Y-52578000D01*
X46502000Y-52832000D01*
X46482000Y-52832000D01*
X46482000Y-55571250D01*
X46640750Y-55730000D01*
X47871309Y-55730000D01*
X47982283Y-55684033D01*
X47993110Y-55691431D01*
X48245000Y-55742440D01*
X48745000Y-55742440D01*
X48980317Y-55698162D01*
X49196441Y-55559090D01*
X49237499Y-55499000D01*
X49820383Y-55499000D01*
X49850910Y-55546441D01*
X50063110Y-55691431D01*
X50315000Y-55742440D01*
X50815000Y-55742440D01*
X51050317Y-55698162D01*
X51074406Y-55682661D01*
X51188691Y-55730000D01*
X52419250Y-55730000D01*
X52578000Y-55571250D01*
X52578000Y-52832000D01*
X52558000Y-52832000D01*
X52558000Y-52578000D01*
X52578000Y-52578000D01*
X52578000Y-52558000D01*
X52832000Y-52558000D01*
X52832000Y-52578000D01*
X52852000Y-52578000D01*
X52852000Y-52832000D01*
X52832000Y-52832000D01*
X52832000Y-55571250D01*
X52990750Y-55730000D01*
X54221309Y-55730000D01*
X54332283Y-55684033D01*
X54343110Y-55691431D01*
X54595000Y-55742440D01*
X55095000Y-55742440D01*
X55330317Y-55698162D01*
X55546441Y-55559090D01*
X55587499Y-55499000D01*
X56170383Y-55499000D01*
X56200910Y-55546441D01*
X56413110Y-55691431D01*
X56665000Y-55742440D01*
X57165000Y-55742440D01*
X57400317Y-55698162D01*
X57424406Y-55682661D01*
X57538691Y-55730000D01*
X58769250Y-55730000D01*
X58928000Y-55571250D01*
X58928000Y-52832000D01*
X58908000Y-52832000D01*
X58908000Y-52578000D01*
X58928000Y-52578000D01*
X58928000Y-52558000D01*
X59182000Y-52558000D01*
X59182000Y-52578000D01*
X59202000Y-52578000D01*
X59202000Y-52832000D01*
X59182000Y-52832000D01*
X59182000Y-55571250D01*
X59340750Y-55730000D01*
X60571309Y-55730000D01*
X60682283Y-55684033D01*
X60693110Y-55691431D01*
X60945000Y-55742440D01*
X61445000Y-55742440D01*
X61680317Y-55698162D01*
X61896441Y-55559090D01*
X61937499Y-55499000D01*
X62520383Y-55499000D01*
X62550910Y-55546441D01*
X62763110Y-55691431D01*
X63015000Y-55742440D01*
X63515000Y-55742440D01*
X63750317Y-55698162D01*
X63774406Y-55682661D01*
X63888691Y-55730000D01*
X65119250Y-55730000D01*
X65278000Y-55571250D01*
X65278000Y-52832000D01*
X65258000Y-52832000D01*
X65258000Y-52578000D01*
X65278000Y-52578000D01*
X65278000Y-52558000D01*
X65532000Y-52558000D01*
X65532000Y-52578000D01*
X65552000Y-52578000D01*
X65552000Y-52832000D01*
X65532000Y-52832000D01*
X65532000Y-55571250D01*
X65690750Y-55730000D01*
X66921309Y-55730000D01*
X67032283Y-55684033D01*
X67043110Y-55691431D01*
X67295000Y-55742440D01*
X67795000Y-55742440D01*
X68030317Y-55698162D01*
X68246441Y-55559090D01*
X68287499Y-55499000D01*
X68870383Y-55499000D01*
X68900910Y-55546441D01*
X69113110Y-55691431D01*
X69365000Y-55742440D01*
X69865000Y-55742440D01*
X70100317Y-55698162D01*
X70124406Y-55682661D01*
X70238691Y-55730000D01*
X71469250Y-55730000D01*
X71628000Y-55571250D01*
X71628000Y-52832000D01*
X71608000Y-52832000D01*
X71608000Y-52578000D01*
X71628000Y-52578000D01*
X71628000Y-52558000D01*
X71882000Y-52558000D01*
X71882000Y-52578000D01*
X71902000Y-52578000D01*
X71902000Y-52832000D01*
X71882000Y-52832000D01*
X71882000Y-55571250D01*
X72040750Y-55730000D01*
X73271309Y-55730000D01*
X73382283Y-55684033D01*
X73393110Y-55691431D01*
X73645000Y-55742440D01*
X74145000Y-55742440D01*
X74380317Y-55698162D01*
X74596441Y-55559090D01*
X74637499Y-55499000D01*
X75220383Y-55499000D01*
X75250910Y-55546441D01*
X75463110Y-55691431D01*
X75715000Y-55742440D01*
X76215000Y-55742440D01*
X76450317Y-55698162D01*
X76474406Y-55682661D01*
X76588691Y-55730000D01*
X77819250Y-55730000D01*
X77978000Y-55571250D01*
X77978000Y-52832000D01*
X77958000Y-52832000D01*
X77958000Y-52578000D01*
X77978000Y-52578000D01*
X77978000Y-52558000D01*
X78232000Y-52558000D01*
X78232000Y-52578000D01*
X78252000Y-52578000D01*
X78252000Y-52832000D01*
X78232000Y-52832000D01*
X78232000Y-55571250D01*
X78390750Y-55730000D01*
X79248000Y-55730000D01*
X79248000Y-56030000D01*
X78390750Y-56030000D01*
X78232000Y-56188750D01*
X78232000Y-58928000D01*
X78252000Y-58928000D01*
X78252000Y-59182000D01*
X78232000Y-59182000D01*
X78232000Y-61921250D01*
X78390750Y-62080000D01*
X79248000Y-62080000D01*
X79248000Y-62380000D01*
X78390750Y-62380000D01*
X78232000Y-62538750D01*
X78232000Y-65278000D01*
X78252000Y-65278000D01*
X78252000Y-65532000D01*
X78232000Y-65532000D01*
X78232000Y-68271250D01*
X78390750Y-68430000D01*
X79248000Y-68430000D01*
X79248000Y-68730000D01*
X78390750Y-68730000D01*
X78232000Y-68888750D01*
X78232000Y-71628000D01*
X78252000Y-71628000D01*
X78252000Y-71882000D01*
X78232000Y-71882000D01*
X78232000Y-71902000D01*
X77978000Y-71902000D01*
X77978000Y-71882000D01*
X77958000Y-71882000D01*
X77958000Y-71628000D01*
X77978000Y-71628000D01*
X77978000Y-68888750D01*
X77819250Y-68730000D01*
X76588691Y-68730000D01*
X76477717Y-68775967D01*
X76466890Y-68768569D01*
X76215000Y-68717560D01*
X75715000Y-68717560D01*
X75479683Y-68761838D01*
X75263559Y-68900910D01*
X75222501Y-68961000D01*
X74639617Y-68961000D01*
X74609090Y-68913559D01*
X74396890Y-68768569D01*
X74145000Y-68717560D01*
X73645000Y-68717560D01*
X73409683Y-68761838D01*
X73385594Y-68777339D01*
X73271309Y-68730000D01*
X72040750Y-68730000D01*
X71882000Y-68888750D01*
X71882000Y-71628000D01*
X71902000Y-71628000D01*
X71902000Y-71882000D01*
X71882000Y-71882000D01*
X71882000Y-71902000D01*
X71628000Y-71902000D01*
X71628000Y-71882000D01*
X71608000Y-71882000D01*
X71608000Y-71628000D01*
X71628000Y-71628000D01*
X71628000Y-68888750D01*
X71469250Y-68730000D01*
X70238691Y-68730000D01*
X70127717Y-68775967D01*
X70116890Y-68768569D01*
X69865000Y-68717560D01*
X69365000Y-68717560D01*
X69129683Y-68761838D01*
X68913559Y-68900910D01*
X68872501Y-68961000D01*
X68289617Y-68961000D01*
X68259090Y-68913559D01*
X68046890Y-68768569D01*
X67795000Y-68717560D01*
X67295000Y-68717560D01*
X67059683Y-68761838D01*
X67035594Y-68777339D01*
X66921309Y-68730000D01*
X65690750Y-68730000D01*
X65532000Y-68888750D01*
X65532000Y-71628000D01*
X65552000Y-71628000D01*
X65552000Y-71882000D01*
X65532000Y-71882000D01*
X65532000Y-71902000D01*
X65278000Y-71902000D01*
X65278000Y-71882000D01*
X65258000Y-71882000D01*
X65258000Y-71628000D01*
X65278000Y-71628000D01*
X65278000Y-68888750D01*
X65119250Y-68730000D01*
X63888691Y-68730000D01*
X63777717Y-68775967D01*
X63766890Y-68768569D01*
X63515000Y-68717560D01*
X63015000Y-68717560D01*
X62779683Y-68761838D01*
X62563559Y-68900910D01*
X62522501Y-68961000D01*
X61939617Y-68961000D01*
X61909090Y-68913559D01*
X61696890Y-68768569D01*
X61445000Y-68717560D01*
X60945000Y-68717560D01*
X60709683Y-68761838D01*
X60685594Y-68777339D01*
X60571309Y-68730000D01*
X59340750Y-68730000D01*
X59182000Y-68888750D01*
X59182000Y-71628000D01*
X59202000Y-71628000D01*
X59202000Y-71882000D01*
X59182000Y-71882000D01*
X59182000Y-71902000D01*
X58928000Y-71902000D01*
X58928000Y-71882000D01*
X58908000Y-71882000D01*
X58908000Y-71628000D01*
X58928000Y-71628000D01*
X58928000Y-68888750D01*
X58769250Y-68730000D01*
X57538691Y-68730000D01*
X57427717Y-68775967D01*
X57416890Y-68768569D01*
X57165000Y-68717560D01*
X56665000Y-68717560D01*
X56429683Y-68761838D01*
X56213559Y-68900910D01*
X56172501Y-68961000D01*
X55589617Y-68961000D01*
X55559090Y-68913559D01*
X55346890Y-68768569D01*
X55095000Y-68717560D01*
X54595000Y-68717560D01*
X54359683Y-68761838D01*
X54335594Y-68777339D01*
X54221309Y-68730000D01*
X52990750Y-68730000D01*
X52832000Y-68888750D01*
X52832000Y-71628000D01*
X52852000Y-71628000D01*
X52852000Y-71882000D01*
X52832000Y-71882000D01*
X52832000Y-71902000D01*
X52578000Y-71902000D01*
X52578000Y-71882000D01*
X52558000Y-71882000D01*
X52558000Y-71628000D01*
X52578000Y-71628000D01*
X52578000Y-68888750D01*
X52419250Y-68730000D01*
X51188691Y-68730000D01*
X51077717Y-68775967D01*
X51066890Y-68768569D01*
X50815000Y-68717560D01*
X50315000Y-68717560D01*
X50079683Y-68761838D01*
X49863559Y-68900910D01*
X49822501Y-68961000D01*
X49239617Y-68961000D01*
X49209090Y-68913559D01*
X48996890Y-68768569D01*
X48745000Y-68717560D01*
X48245000Y-68717560D01*
X48009683Y-68761838D01*
X47985594Y-68777339D01*
X47871309Y-68730000D01*
X46640750Y-68730000D01*
X46482000Y-68888750D01*
X46482000Y-71628000D01*
X46502000Y-71628000D01*
X46502000Y-71882000D01*
X46482000Y-71882000D01*
X46482000Y-71902000D01*
X46228000Y-71902000D01*
X46228000Y-71882000D01*
X46208000Y-71882000D01*
X46208000Y-71628000D01*
X46228000Y-71628000D01*
X46228000Y-68888750D01*
X46069250Y-68730000D01*
X45212000Y-68730000D01*
X45212000Y-68430000D01*
X46069250Y-68430000D01*
X46228000Y-68271250D01*
X46228000Y-65532000D01*
X46208000Y-65532000D01*
X46208000Y-65278000D01*
X46228000Y-65278000D01*
X46228000Y-62538750D01*
X46482000Y-62538750D01*
X46482000Y-65278000D01*
X46502000Y-65278000D01*
X46502000Y-65532000D01*
X46482000Y-65532000D01*
X46482000Y-68271250D01*
X46640750Y-68430000D01*
X47871309Y-68430000D01*
X47982283Y-68384033D01*
X47993110Y-68391431D01*
X48245000Y-68442440D01*
X48745000Y-68442440D01*
X48980317Y-68398162D01*
X49196441Y-68259090D01*
X49237499Y-68199000D01*
X49820383Y-68199000D01*
X49850910Y-68246441D01*
X50063110Y-68391431D01*
X50315000Y-68442440D01*
X50815000Y-68442440D01*
X51050317Y-68398162D01*
X51074406Y-68382661D01*
X51188691Y-68430000D01*
X52419250Y-68430000D01*
X52578000Y-68271250D01*
X52578000Y-65532000D01*
X52558000Y-65532000D01*
X52558000Y-65278000D01*
X52578000Y-65278000D01*
X52578000Y-62538750D01*
X52832000Y-62538750D01*
X52832000Y-65278000D01*
X52852000Y-65278000D01*
X52852000Y-65532000D01*
X52832000Y-65532000D01*
X52832000Y-68271250D01*
X52990750Y-68430000D01*
X54221309Y-68430000D01*
X54332283Y-68384033D01*
X54343110Y-68391431D01*
X54595000Y-68442440D01*
X55095000Y-68442440D01*
X55330317Y-68398162D01*
X55546441Y-68259090D01*
X55587499Y-68199000D01*
X56170383Y-68199000D01*
X56200910Y-68246441D01*
X56413110Y-68391431D01*
X56665000Y-68442440D01*
X57165000Y-68442440D01*
X57400317Y-68398162D01*
X57424406Y-68382661D01*
X57538691Y-68430000D01*
X58769250Y-68430000D01*
X58928000Y-68271250D01*
X58928000Y-65532000D01*
X58908000Y-65532000D01*
X58908000Y-65278000D01*
X58928000Y-65278000D01*
X58928000Y-62538750D01*
X59182000Y-62538750D01*
X59182000Y-65278000D01*
X59202000Y-65278000D01*
X59202000Y-65532000D01*
X59182000Y-65532000D01*
X59182000Y-68271250D01*
X59340750Y-68430000D01*
X60571309Y-68430000D01*
X60682283Y-68384033D01*
X60693110Y-68391431D01*
X60945000Y-68442440D01*
X61445000Y-68442440D01*
X61680317Y-68398162D01*
X61896441Y-68259090D01*
X61937499Y-68199000D01*
X62520383Y-68199000D01*
X62550910Y-68246441D01*
X62763110Y-68391431D01*
X63015000Y-68442440D01*
X63515000Y-68442440D01*
X63750317Y-68398162D01*
X63774406Y-68382661D01*
X63888691Y-68430000D01*
X65119250Y-68430000D01*
X65278000Y-68271250D01*
X65278000Y-65532000D01*
X65258000Y-65532000D01*
X65258000Y-65278000D01*
X65278000Y-65278000D01*
X65278000Y-62538750D01*
X65532000Y-62538750D01*
X65532000Y-65278000D01*
X65552000Y-65278000D01*
X65552000Y-65532000D01*
X65532000Y-65532000D01*
X65532000Y-68271250D01*
X65690750Y-68430000D01*
X66921309Y-68430000D01*
X67032283Y-68384033D01*
X67043110Y-68391431D01*
X67295000Y-68442440D01*
X67795000Y-68442440D01*
X68030317Y-68398162D01*
X68246441Y-68259090D01*
X68287499Y-68199000D01*
X68870383Y-68199000D01*
X68900910Y-68246441D01*
X69113110Y-68391431D01*
X69365000Y-68442440D01*
X69865000Y-68442440D01*
X70100317Y-68398162D01*
X70124406Y-68382661D01*
X70238691Y-68430000D01*
X71469250Y-68430000D01*
X71628000Y-68271250D01*
X71628000Y-65532000D01*
X71608000Y-65532000D01*
X71608000Y-65278000D01*
X71628000Y-65278000D01*
X71628000Y-62538750D01*
X71882000Y-62538750D01*
X71882000Y-65278000D01*
X71902000Y-65278000D01*
X71902000Y-65532000D01*
X71882000Y-65532000D01*
X71882000Y-68271250D01*
X72040750Y-68430000D01*
X73271309Y-68430000D01*
X73382283Y-68384033D01*
X73393110Y-68391431D01*
X73645000Y-68442440D01*
X74145000Y-68442440D01*
X74380317Y-68398162D01*
X74596441Y-68259090D01*
X74637499Y-68199000D01*
X75220383Y-68199000D01*
X75250910Y-68246441D01*
X75463110Y-68391431D01*
X75715000Y-68442440D01*
X76215000Y-68442440D01*
X76450317Y-68398162D01*
X76474406Y-68382661D01*
X76588691Y-68430000D01*
X77819250Y-68430000D01*
X77978000Y-68271250D01*
X77978000Y-65532000D01*
X77958000Y-65532000D01*
X77958000Y-65278000D01*
X77978000Y-65278000D01*
X77978000Y-62538750D01*
X77819250Y-62380000D01*
X76588691Y-62380000D01*
X76477717Y-62425967D01*
X76466890Y-62418569D01*
X76215000Y-62367560D01*
X75715000Y-62367560D01*
X75479683Y-62411838D01*
X75263559Y-62550910D01*
X75222501Y-62611000D01*
X74639617Y-62611000D01*
X74609090Y-62563559D01*
X74396890Y-62418569D01*
X74145000Y-62367560D01*
X73645000Y-62367560D01*
X73409683Y-62411838D01*
X73385594Y-62427339D01*
X73271309Y-62380000D01*
X72040750Y-62380000D01*
X71882000Y-62538750D01*
X71628000Y-62538750D01*
X71469250Y-62380000D01*
X70238691Y-62380000D01*
X70127717Y-62425967D01*
X70116890Y-62418569D01*
X69865000Y-62367560D01*
X69365000Y-62367560D01*
X69129683Y-62411838D01*
X68913559Y-62550910D01*
X68872501Y-62611000D01*
X68289617Y-62611000D01*
X68259090Y-62563559D01*
X68046890Y-62418569D01*
X67795000Y-62367560D01*
X67295000Y-62367560D01*
X67059683Y-62411838D01*
X67035594Y-62427339D01*
X66921309Y-62380000D01*
X65690750Y-62380000D01*
X65532000Y-62538750D01*
X65278000Y-62538750D01*
X65119250Y-62380000D01*
X63888691Y-62380000D01*
X63777717Y-62425967D01*
X63766890Y-62418569D01*
X63515000Y-62367560D01*
X63015000Y-62367560D01*
X62779683Y-62411838D01*
X62563559Y-62550910D01*
X62522501Y-62611000D01*
X61939617Y-62611000D01*
X61909090Y-62563559D01*
X61696890Y-62418569D01*
X61445000Y-62367560D01*
X60945000Y-62367560D01*
X60709683Y-62411838D01*
X60685594Y-62427339D01*
X60571309Y-62380000D01*
X59340750Y-62380000D01*
X59182000Y-62538750D01*
X58928000Y-62538750D01*
X58769250Y-62380000D01*
X57538691Y-62380000D01*
X57427717Y-62425967D01*
X57416890Y-62418569D01*
X57165000Y-62367560D01*
X56665000Y-62367560D01*
X56429683Y-62411838D01*
X56213559Y-62550910D01*
X56172501Y-62611000D01*
X55589617Y-62611000D01*
X55559090Y-62563559D01*
X55346890Y-62418569D01*
X55095000Y-62367560D01*
X54595000Y-62367560D01*
X54359683Y-62411838D01*
X54335594Y-62427339D01*
X54221309Y-62380000D01*
X52990750Y-62380000D01*
X52832000Y-62538750D01*
X52578000Y-62538750D01*
X52419250Y-62380000D01*
X51188691Y-62380000D01*
X51077717Y-62425967D01*
X51066890Y-62418569D01*
X50815000Y-62367560D01*
X50315000Y-62367560D01*
X50079683Y-62411838D01*
X49863559Y-62550910D01*
X49822501Y-62611000D01*
X49239617Y-62611000D01*
X49209090Y-62563559D01*
X48996890Y-62418569D01*
X48745000Y-62367560D01*
X48245000Y-62367560D01*
X48009683Y-62411838D01*
X47985594Y-62427339D01*
X47871309Y-62380000D01*
X46640750Y-62380000D01*
X46482000Y-62538750D01*
X46228000Y-62538750D01*
X46069250Y-62380000D01*
X45212000Y-62380000D01*
X45212000Y-62080000D01*
X46069250Y-62080000D01*
X46228000Y-61921250D01*
X46228000Y-59182000D01*
X46208000Y-59182000D01*
X46208000Y-58928000D01*
X46228000Y-58928000D01*
X46228000Y-56188750D01*
X46482000Y-56188750D01*
X46482000Y-58928000D01*
X46502000Y-58928000D01*
X46502000Y-59182000D01*
X46482000Y-59182000D01*
X46482000Y-61921250D01*
X46640750Y-62080000D01*
X47871309Y-62080000D01*
X47982283Y-62034033D01*
X47993110Y-62041431D01*
X48245000Y-62092440D01*
X48745000Y-62092440D01*
X48980317Y-62048162D01*
X49196441Y-61909090D01*
X49237499Y-61849000D01*
X49820383Y-61849000D01*
X49850910Y-61896441D01*
X50063110Y-62041431D01*
X50315000Y-62092440D01*
X50815000Y-62092440D01*
X51050317Y-62048162D01*
X51074406Y-62032661D01*
X51188691Y-62080000D01*
X52419250Y-62080000D01*
X52578000Y-61921250D01*
X52578000Y-59182000D01*
X52558000Y-59182000D01*
X52558000Y-58928000D01*
X52578000Y-58928000D01*
X52578000Y-56188750D01*
X52832000Y-56188750D01*
X52832000Y-58928000D01*
X52852000Y-58928000D01*
X52852000Y-59182000D01*
X52832000Y-59182000D01*
X52832000Y-61921250D01*
X52990750Y-62080000D01*
X54221309Y-62080000D01*
X54332283Y-62034033D01*
X54343110Y-62041431D01*
X54595000Y-62092440D01*
X55095000Y-62092440D01*
X55330317Y-62048162D01*
X55546441Y-61909090D01*
X55587499Y-61849000D01*
X56170383Y-61849000D01*
X56200910Y-61896441D01*
X56413110Y-62041431D01*
X56665000Y-62092440D01*
X57165000Y-62092440D01*
X57400317Y-62048162D01*
X57424406Y-62032661D01*
X57538691Y-62080000D01*
X58769250Y-62080000D01*
X58928000Y-61921250D01*
X58928000Y-59182000D01*
X58908000Y-59182000D01*
X58908000Y-58928000D01*
X58928000Y-58928000D01*
X58928000Y-56188750D01*
X59182000Y-56188750D01*
X59182000Y-58928000D01*
X59202000Y-58928000D01*
X59202000Y-59182000D01*
X59182000Y-59182000D01*
X59182000Y-61921250D01*
X59340750Y-62080000D01*
X60571309Y-62080000D01*
X60682283Y-62034033D01*
X60693110Y-62041431D01*
X60945000Y-62092440D01*
X61445000Y-62092440D01*
X61680317Y-62048162D01*
X61896441Y-61909090D01*
X61937499Y-61849000D01*
X62520383Y-61849000D01*
X62550910Y-61896441D01*
X62763110Y-62041431D01*
X63015000Y-62092440D01*
X63515000Y-62092440D01*
X63750317Y-62048162D01*
X63774406Y-62032661D01*
X63888691Y-62080000D01*
X65119250Y-62080000D01*
X65278000Y-61921250D01*
X65278000Y-59182000D01*
X65258000Y-59182000D01*
X65258000Y-58928000D01*
X65278000Y-58928000D01*
X65278000Y-56188750D01*
X65532000Y-56188750D01*
X65532000Y-58928000D01*
X65552000Y-58928000D01*
X65552000Y-59182000D01*
X65532000Y-59182000D01*
X65532000Y-61921250D01*
X65690750Y-62080000D01*
X66921309Y-62080000D01*
X67032283Y-62034033D01*
X67043110Y-62041431D01*
X67295000Y-62092440D01*
X67795000Y-62092440D01*
X68030317Y-62048162D01*
X68246441Y-61909090D01*
X68287499Y-61849000D01*
X68870383Y-61849000D01*
X68900910Y-61896441D01*
X69113110Y-62041431D01*
X69365000Y-62092440D01*
X69865000Y-62092440D01*
X70100317Y-62048162D01*
X70124406Y-62032661D01*
X70238691Y-62080000D01*
X71469250Y-62080000D01*
X71628000Y-61921250D01*
X71628000Y-59182000D01*
X71608000Y-59182000D01*
X71608000Y-58928000D01*
X71628000Y-58928000D01*
X71628000Y-56188750D01*
X71882000Y-56188750D01*
X71882000Y-58928000D01*
X71902000Y-58928000D01*
X71902000Y-59182000D01*
X71882000Y-59182000D01*
X71882000Y-61921250D01*
X72040750Y-62080000D01*
X73271309Y-62080000D01*
X73382283Y-62034033D01*
X73393110Y-62041431D01*
X73645000Y-62092440D01*
X74145000Y-62092440D01*
X74380317Y-62048162D01*
X74596441Y-61909090D01*
X74637499Y-61849000D01*
X75220383Y-61849000D01*
X75250910Y-61896441D01*
X75463110Y-62041431D01*
X75715000Y-62092440D01*
X76215000Y-62092440D01*
X76450317Y-62048162D01*
X76474406Y-62032661D01*
X76588691Y-62080000D01*
X77819250Y-62080000D01*
X77978000Y-61921250D01*
X77978000Y-59182000D01*
X77958000Y-59182000D01*
X77958000Y-58928000D01*
X77978000Y-58928000D01*
X77978000Y-56188750D01*
X77819250Y-56030000D01*
X76588691Y-56030000D01*
X76477717Y-56075967D01*
X76466890Y-56068569D01*
X76215000Y-56017560D01*
X75715000Y-56017560D01*
X75479683Y-56061838D01*
X75263559Y-56200910D01*
X75222501Y-56261000D01*
X74639617Y-56261000D01*
X74609090Y-56213559D01*
X74396890Y-56068569D01*
X74145000Y-56017560D01*
X73645000Y-56017560D01*
X73409683Y-56061838D01*
X73385594Y-56077339D01*
X73271309Y-56030000D01*
X72040750Y-56030000D01*
X71882000Y-56188750D01*
X71628000Y-56188750D01*
X71469250Y-56030000D01*
X70238691Y-56030000D01*
X70127717Y-56075967D01*
X70116890Y-56068569D01*
X69865000Y-56017560D01*
X69365000Y-56017560D01*
X69129683Y-56061838D01*
X68913559Y-56200910D01*
X68872501Y-56261000D01*
X68289617Y-56261000D01*
X68259090Y-56213559D01*
X68046890Y-56068569D01*
X67795000Y-56017560D01*
X67295000Y-56017560D01*
X67059683Y-56061838D01*
X67035594Y-56077339D01*
X66921309Y-56030000D01*
X65690750Y-56030000D01*
X65532000Y-56188750D01*
X65278000Y-56188750D01*
X65119250Y-56030000D01*
X63888691Y-56030000D01*
X63777717Y-56075967D01*
X63766890Y-56068569D01*
X63515000Y-56017560D01*
X63015000Y-56017560D01*
X62779683Y-56061838D01*
X62563559Y-56200910D01*
X62522501Y-56261000D01*
X61939617Y-56261000D01*
X61909090Y-56213559D01*
X61696890Y-56068569D01*
X61445000Y-56017560D01*
X60945000Y-56017560D01*
X60709683Y-56061838D01*
X60685594Y-56077339D01*
X60571309Y-56030000D01*
X59340750Y-56030000D01*
X59182000Y-56188750D01*
X58928000Y-56188750D01*
X58769250Y-56030000D01*
X57538691Y-56030000D01*
X57427717Y-56075967D01*
X57416890Y-56068569D01*
X57165000Y-56017560D01*
X56665000Y-56017560D01*
X56429683Y-56061838D01*
X56213559Y-56200910D01*
X56172501Y-56261000D01*
X55589617Y-56261000D01*
X55559090Y-56213559D01*
X55346890Y-56068569D01*
X55095000Y-56017560D01*
X54595000Y-56017560D01*
X54359683Y-56061838D01*
X54335594Y-56077339D01*
X54221309Y-56030000D01*
X52990750Y-56030000D01*
X52832000Y-56188750D01*
X52578000Y-56188750D01*
X52419250Y-56030000D01*
X51188691Y-56030000D01*
X51077717Y-56075967D01*
X51066890Y-56068569D01*
X50815000Y-56017560D01*
X50315000Y-56017560D01*
X50079683Y-56061838D01*
X49863559Y-56200910D01*
X49822501Y-56261000D01*
X49239617Y-56261000D01*
X49209090Y-56213559D01*
X48996890Y-56068569D01*
X48745000Y-56017560D01*
X48245000Y-56017560D01*
X48009683Y-56061838D01*
X47985594Y-56077339D01*
X47871309Y-56030000D01*
X46640750Y-56030000D01*
X46482000Y-56188750D01*
X46228000Y-56188750D01*
X46069250Y-56030000D01*
X45212000Y-56030000D01*
X45212000Y-55730000D01*
X46069250Y-55730000D01*
X46228000Y-55571250D01*
X46228000Y-52832000D01*
X46208000Y-52832000D01*
X46208000Y-52578000D01*
X46228000Y-52578000D01*
X46228000Y-52558000D01*
X46482000Y-52558000D01*
X46482000Y-52578000D01*
G36*
X50673000Y-54737000D02*
X48387000Y-54737000D01*
X48387000Y-50673000D01*
X50673000Y-50673000D01*
X50673000Y-54737000D01*
X50673000Y-54737000D01*
G37*
X50673000Y-54737000D02*
X48387000Y-54737000D01*
X48387000Y-50673000D01*
X50673000Y-50673000D01*
X50673000Y-54737000D01*
G36*
X57023000Y-54737000D02*
X54737000Y-54737000D01*
X54737000Y-50673000D01*
X57023000Y-50673000D01*
X57023000Y-54737000D01*
X57023000Y-54737000D01*
G37*
X57023000Y-54737000D02*
X54737000Y-54737000D01*
X54737000Y-50673000D01*
X57023000Y-50673000D01*
X57023000Y-54737000D01*
G36*
X63373000Y-54737000D02*
X61087000Y-54737000D01*
X61087000Y-50673000D01*
X63373000Y-50673000D01*
X63373000Y-54737000D01*
X63373000Y-54737000D01*
G37*
X63373000Y-54737000D02*
X61087000Y-54737000D01*
X61087000Y-50673000D01*
X63373000Y-50673000D01*
X63373000Y-54737000D01*
G36*
X69723000Y-54737000D02*
X67437000Y-54737000D01*
X67437000Y-50673000D01*
X69723000Y-50673000D01*
X69723000Y-54737000D01*
X69723000Y-54737000D01*
G37*
X69723000Y-54737000D02*
X67437000Y-54737000D01*
X67437000Y-50673000D01*
X69723000Y-50673000D01*
X69723000Y-54737000D01*
G36*
X76073000Y-54737000D02*
X73787000Y-54737000D01*
X73787000Y-50673000D01*
X76073000Y-50673000D01*
X76073000Y-54737000D01*
X76073000Y-54737000D01*
G37*
X76073000Y-54737000D02*
X73787000Y-54737000D01*
X73787000Y-50673000D01*
X76073000Y-50673000D01*
X76073000Y-54737000D01*
G36*
X50673000Y-61087000D02*
X48387000Y-61087000D01*
X48387000Y-57023000D01*
X50673000Y-57023000D01*
X50673000Y-61087000D01*
X50673000Y-61087000D01*
G37*
X50673000Y-61087000D02*
X48387000Y-61087000D01*
X48387000Y-57023000D01*
X50673000Y-57023000D01*
X50673000Y-61087000D01*
G36*
X57023000Y-61087000D02*
X54737000Y-61087000D01*
X54737000Y-57023000D01*
X57023000Y-57023000D01*
X57023000Y-61087000D01*
X57023000Y-61087000D01*
G37*
X57023000Y-61087000D02*
X54737000Y-61087000D01*
X54737000Y-57023000D01*
X57023000Y-57023000D01*
X57023000Y-61087000D01*
G36*
X63373000Y-61087000D02*
X61087000Y-61087000D01*
X61087000Y-57023000D01*
X63373000Y-57023000D01*
X63373000Y-61087000D01*
X63373000Y-61087000D01*
G37*
X63373000Y-61087000D02*
X61087000Y-61087000D01*
X61087000Y-57023000D01*
X63373000Y-57023000D01*
X63373000Y-61087000D01*
G36*
X69723000Y-61087000D02*
X67437000Y-61087000D01*
X67437000Y-57023000D01*
X69723000Y-57023000D01*
X69723000Y-61087000D01*
X69723000Y-61087000D01*
G37*
X69723000Y-61087000D02*
X67437000Y-61087000D01*
X67437000Y-57023000D01*
X69723000Y-57023000D01*
X69723000Y-61087000D01*
G36*
X76073000Y-61087000D02*
X73787000Y-61087000D01*
X73787000Y-57023000D01*
X76073000Y-57023000D01*
X76073000Y-61087000D01*
X76073000Y-61087000D01*
G37*
X76073000Y-61087000D02*
X73787000Y-61087000D01*
X73787000Y-57023000D01*
X76073000Y-57023000D01*
X76073000Y-61087000D01*
G36*
X50673000Y-67437000D02*
X48387000Y-67437000D01*
X48387000Y-63373000D01*
X50673000Y-63373000D01*
X50673000Y-67437000D01*
X50673000Y-67437000D01*
G37*
X50673000Y-67437000D02*
X48387000Y-67437000D01*
X48387000Y-63373000D01*
X50673000Y-63373000D01*
X50673000Y-67437000D01*
G36*
X57023000Y-67437000D02*
X54737000Y-67437000D01*
X54737000Y-63373000D01*
X57023000Y-63373000D01*
X57023000Y-67437000D01*
X57023000Y-67437000D01*
G37*
X57023000Y-67437000D02*
X54737000Y-67437000D01*
X54737000Y-63373000D01*
X57023000Y-63373000D01*
X57023000Y-67437000D01*
G36*
X63373000Y-67437000D02*
X61087000Y-67437000D01*
X61087000Y-63373000D01*
X63373000Y-63373000D01*
X63373000Y-67437000D01*
X63373000Y-67437000D01*
G37*
X63373000Y-67437000D02*
X61087000Y-67437000D01*
X61087000Y-63373000D01*
X63373000Y-63373000D01*
X63373000Y-67437000D01*
G36*
X69723000Y-67437000D02*
X67437000Y-67437000D01*
X67437000Y-63373000D01*
X69723000Y-63373000D01*
X69723000Y-67437000D01*
X69723000Y-67437000D01*
G37*
X69723000Y-67437000D02*
X67437000Y-67437000D01*
X67437000Y-63373000D01*
X69723000Y-63373000D01*
X69723000Y-67437000D01*
G36*
X76073000Y-67437000D02*
X73787000Y-67437000D01*
X73787000Y-63373000D01*
X76073000Y-63373000D01*
X76073000Y-67437000D01*
X76073000Y-67437000D01*
G37*
X76073000Y-67437000D02*
X73787000Y-67437000D01*
X73787000Y-63373000D01*
X76073000Y-63373000D01*
X76073000Y-67437000D01*
G36*
X50673000Y-73787000D02*
X48387000Y-73787000D01*
X48387000Y-69723000D01*
X50673000Y-69723000D01*
X50673000Y-73787000D01*
X50673000Y-73787000D01*
G37*
X50673000Y-73787000D02*
X48387000Y-73787000D01*
X48387000Y-69723000D01*
X50673000Y-69723000D01*
X50673000Y-73787000D01*
G36*
X57023000Y-73787000D02*
X54737000Y-73787000D01*
X54737000Y-69723000D01*
X57023000Y-69723000D01*
X57023000Y-73787000D01*
X57023000Y-73787000D01*
G37*
X57023000Y-73787000D02*
X54737000Y-73787000D01*
X54737000Y-69723000D01*
X57023000Y-69723000D01*
X57023000Y-73787000D01*
G36*
X63373000Y-73787000D02*
X61087000Y-73787000D01*
X61087000Y-69723000D01*
X63373000Y-69723000D01*
X63373000Y-73787000D01*
X63373000Y-73787000D01*
G37*
X63373000Y-73787000D02*
X61087000Y-73787000D01*
X61087000Y-69723000D01*
X63373000Y-69723000D01*
X63373000Y-73787000D01*
G36*
X69723000Y-73787000D02*
X67437000Y-73787000D01*
X67437000Y-69723000D01*
X69723000Y-69723000D01*
X69723000Y-73787000D01*
X69723000Y-73787000D01*
G37*
X69723000Y-73787000D02*
X67437000Y-73787000D01*
X67437000Y-69723000D01*
X69723000Y-69723000D01*
X69723000Y-73787000D01*
G36*
X76073000Y-73787000D02*
X73787000Y-73787000D01*
X73787000Y-69723000D01*
X76073000Y-69723000D01*
X76073000Y-73787000D01*
X76073000Y-73787000D01*
G37*
X76073000Y-73787000D02*
X73787000Y-73787000D01*
X73787000Y-69723000D01*
X76073000Y-69723000D01*
X76073000Y-73787000D01*
G36*
X82169000Y-73025000D02*
X80137000Y-73025000D01*
X80137000Y-70485000D01*
X82169000Y-70485000D01*
X82169000Y-73025000D01*
X82169000Y-73025000D01*
G37*
X82169000Y-73025000D02*
X80137000Y-73025000D01*
X80137000Y-70485000D01*
X82169000Y-70485000D01*
X82169000Y-73025000D01*
G36*
X82169000Y-66675000D02*
X80137000Y-66675000D01*
X80137000Y-64135000D01*
X82169000Y-64135000D01*
X82169000Y-66675000D01*
X82169000Y-66675000D01*
G37*
X82169000Y-66675000D02*
X80137000Y-66675000D01*
X80137000Y-64135000D01*
X82169000Y-64135000D01*
X82169000Y-66675000D01*
G36*
X82169000Y-60325000D02*
X80137000Y-60325000D01*
X80137000Y-57785000D01*
X82169000Y-57785000D01*
X82169000Y-60325000D01*
X82169000Y-60325000D01*
G37*
X82169000Y-60325000D02*
X80137000Y-60325000D01*
X80137000Y-57785000D01*
X82169000Y-57785000D01*
X82169000Y-60325000D01*
G36*
X82169000Y-53975000D02*
X80137000Y-53975000D01*
X80137000Y-51435000D01*
X82169000Y-51435000D01*
X82169000Y-53975000D01*
X82169000Y-53975000D01*
G37*
X82169000Y-53975000D02*
X80137000Y-53975000D01*
X80137000Y-51435000D01*
X82169000Y-51435000D01*
X82169000Y-53975000D01*
M02*
