M48
;DRILL file {KiCad 4.0.7} date 02/05/18 16:36:16
;FORMAT={-:-/ absolute / inch / decimal}
FMAT,2
INCH,TZ
T1C0.012
T2C0.039
T3C0.079
T4C0.118
T5C0.126
%
G90
G05
M72
T1
X1.3Y-1.36
X1.33Y-2.37
X1.36Y-1.28
X1.38Y-2.46
X1.41Y-3.81
X1.42Y-1.36
X1.48Y-3.7
X1.55Y-3.81
X1.6Y-1.08
X1.6Y-3.33
X1.7Y-3.29
X1.825Y-2.2
X1.825Y-2.45
X1.825Y-2.7
X1.95Y-2.2
X1.95Y-2.45
X1.95Y-2.7
X2.075Y-2.2
X2.075Y-2.45
X2.075Y-2.7
X2.175Y-3.2
X2.2Y-2.2
X2.2Y-2.45
X2.2Y-2.7
X2.225Y-3.525
X2.32Y-1.46
X2.325Y-2.2
X2.325Y-2.45
X2.325Y-2.7
X2.35Y-3.84
X2.42Y-1.6
X2.45Y-2.2
X2.45Y-2.45
X2.45Y-2.7
X2.47Y-1.64
X2.57Y-1.33
X2.575Y-2.2
X2.575Y-2.45
X2.575Y-2.7
X2.58Y-3.85
X2.7Y-2.2
X2.7Y-2.45
X2.7Y-2.7
X2.71Y-1.7
X2.73Y-1.64
X2.77Y-1.6
X2.82Y-1.68
X2.82Y-1.82
X2.825Y-2.2
X2.825Y-2.45
X2.825Y-2.7
X2.8412Y-3.675
X2.875Y-3.375
X2.875Y-3.483
X2.875Y-3.597
X2.88Y-1.68
X2.88Y-1.82
X2.92Y-1.37
X2.93Y-1.82
X2.94Y-1.68
X2.945Y-3.375
X2.95Y-2.2
X2.95Y-2.45
X2.95Y-2.7
X3.025Y-3.3
X3.025Y-3.5
X3.075Y-2.2
X3.075Y-2.45
X3.075Y-2.7
X3.175Y-3.725
X3.21Y-3.66
X3.215Y-3.385
X3.25Y-3.69
X3.27Y-3.45
X3.38Y-3.7
X3.44Y-3.52
X3.44Y-3.63
X3.48Y-3.76
X3.51Y-3.52
X3.52Y-3.63
X3.54Y-1.2
X3.565Y-3.225
X3.565Y-3.39
X3.57Y-3.7
X3.87Y-1.335
T2
X2.875Y-3.825
X2.975Y-3.825
X3.075Y-3.825
X3.175Y-3.825
X3.275Y-3.825
X3.375Y-3.825
T3
X2.0125Y-1.7625
X2.4062Y-1.7625
T5
X1.15Y-1.15
X1.15Y-3.75
X3.75Y-1.15
X3.75Y-3.75
T4
X1.84Y-3.45G85X1.84Y-3.45
G05
X1.84Y-3.6862G85X1.84Y-3.6862
G05
X2.025Y-3.5681G85X2.025Y-3.5681
G05
T0
M30
