M48
;DRILL file {KiCad 4.0.7} date 03/08/18 15:58:33
;FORMAT={-:-/ absolute / inch / decimal}
FMAT,2
INCH,TZ
T1C0.012
T2C0.030
T3C0.039
T4C0.047
T5C0.118
T6C0.126
%
G90
G05
M72
T1
X1.13Y-3.02
X1.13Y-3.06
X1.14Y-2.71
X1.15Y-3.08
X1.21Y-3.08
X1.215Y-2.68
X1.235Y-2.92
X1.275Y-2.665
X1.33Y-2.75
X1.4Y-2.52
X1.4Y-3.995
X1.525Y-4.055
X1.53Y-4.29
X1.61Y-4.37
X1.675Y-3.55
X1.69Y-4.155
X1.75Y-4.26
X1.805Y-4.155
X2.24Y-2.125
X2.24Y-2.355
X2.24Y-2.585
X2.24Y-2.815
X2.24Y-3.045
X2.24Y-3.275
X2.38Y-3.66
X2.42Y-3.7
X2.45Y-3.93
X2.46Y-3.6
X2.47Y-2.125
X2.47Y-2.355
X2.47Y-2.585
X2.47Y-2.815
X2.47Y-3.045
X2.47Y-3.275
X2.47Y-4.15
X2.56Y-4.05
X2.6Y-3.92
X2.64Y-4.09
X2.7Y-2.125
X2.7Y-2.355
X2.7Y-2.585
X2.7Y-2.815
X2.7Y-3.045
X2.7Y-3.275
X2.85Y-4.235
X2.88Y-3.835
X2.91Y-3.99
X2.91Y-4.17
X2.93Y-2.125
X2.93Y-2.355
X2.93Y-2.585
X2.93Y-2.815
X2.93Y-3.045
X2.93Y-3.275
X3.Y-3.835
X3.16Y-2.125
X3.16Y-2.355
X3.16Y-2.585
X3.16Y-2.815
X3.16Y-3.045
X3.16Y-3.275
X3.2Y-3.775
X3.23Y-4.37
X3.31Y-3.74
X3.31Y-3.775
X3.31Y-3.81
X3.39Y-2.125
X3.39Y-2.355
X3.39Y-2.585
X3.39Y-2.815
X3.39Y-3.045
X3.39Y-3.275
X3.43Y-3.94
X3.43Y-4.02
X3.74Y-4.305
T2
X1.05Y-2.625
X1.23Y-3.9
T3
X2.45Y-4.31
X2.55Y-4.31
X2.65Y-4.31
X2.75Y-4.31
X2.85Y-4.31
X2.95Y-4.31
T4
X1.7Y-2.7531
X1.7Y-2.95
T6
X1.175Y-1.175
X1.175Y-4.225
X4.225Y-1.175
X4.225Y-4.225
T5
X2.125Y-3.85G85X2.125Y-3.85
G05
X2.125Y-4.0862G85X2.125Y-4.0862
G05
X2.31Y-3.9681G85X2.31Y-3.9681
G05
T0
M30
