G04 #@! TF.FileFunction,Copper,L2,Bot,Signal*
%FSLAX46Y46*%
G04 Gerber Fmt 4.6, Leading zero omitted, Abs format (unit mm)*
G04 Created by KiCad (PCBNEW 4.0.7) date 03/08/18 15:58:25*
%MOMM*%
%LPD*%
G01*
G04 APERTURE LIST*
%ADD10C,0.100000*%
%ADD11R,2.400000X2.400000*%
%ADD12C,2.400000*%
%ADD13C,1.701800*%
%ADD14C,6.400000*%
%ADD15R,1.700000X1.700000*%
%ADD16O,1.700000X1.700000*%
%ADD17R,4.000000X4.000000*%
%ADD18C,0.609600*%
%ADD19C,1.270000*%
%ADD20C,1.016000*%
%ADD21C,1.524000*%
%ADD22C,0.508000*%
%ADD23C,0.254000*%
G04 APERTURE END LIST*
D10*
D11*
X43180000Y-74930000D03*
D12*
X43180000Y-69930000D03*
D13*
X93345000Y-101244400D03*
X93345000Y-108254800D03*
D14*
X107315000Y-29845000D03*
X29845000Y-29845000D03*
X107315000Y-107315000D03*
X29845000Y-107315000D03*
D15*
X74930000Y-109474000D03*
D16*
X72390000Y-109474000D03*
X69850000Y-109474000D03*
X67310000Y-109474000D03*
X64770000Y-109474000D03*
X62230000Y-109474000D03*
D17*
X53975000Y-97790000D03*
X53975000Y-103790000D03*
X58675000Y-100790000D03*
D18*
X61468000Y-93980000D03*
D19*
X26670000Y-66675000D03*
X31242000Y-99060000D03*
D18*
X62484000Y-91440000D03*
X42545000Y-90170000D03*
X33782000Y-69850000D03*
X28702000Y-77724000D03*
X28702000Y-76708000D03*
X29210000Y-78232000D03*
X30734000Y-78232000D03*
X31369000Y-74168000D03*
X35560000Y-64008000D03*
X28956000Y-68834000D03*
X30861000Y-68072000D03*
X32385000Y-67691000D03*
X84074000Y-96774000D03*
X84074000Y-94996000D03*
X84074000Y-95885000D03*
X81280000Y-95885000D03*
X76200000Y-97409000D03*
X73152000Y-97409000D03*
X72390000Y-107569000D03*
X94996000Y-109347000D03*
X82042000Y-110998000D03*
X35560000Y-101473000D03*
X38735000Y-102997000D03*
X44450000Y-108204000D03*
X42926000Y-105537000D03*
X45847000Y-105537000D03*
X73914000Y-105918000D03*
X73914000Y-101346000D03*
X62738000Y-105410000D03*
X67056000Y-103886000D03*
X87122000Y-102108000D03*
X87122000Y-100076000D03*
X66040000Y-99568000D03*
X60452000Y-92964000D03*
X86106000Y-83185000D03*
X80264000Y-83185000D03*
X74422000Y-83185000D03*
X68580000Y-83185000D03*
X62738000Y-83185000D03*
X56896000Y-83185000D03*
X86106000Y-77343000D03*
X80264000Y-77343000D03*
X74422000Y-77343000D03*
X68580000Y-77343000D03*
X62738000Y-77343000D03*
X56896000Y-77343000D03*
X86106000Y-71501000D03*
X80264000Y-71501000D03*
X74422000Y-71501000D03*
X68580000Y-71501000D03*
X62738000Y-71501000D03*
X56896000Y-71501000D03*
X86106000Y-65659000D03*
X80264000Y-65659000D03*
X74422000Y-65659000D03*
X68580000Y-65659000D03*
X62738000Y-65659000D03*
X56896000Y-65659000D03*
X86106000Y-59817000D03*
X80264000Y-59817000D03*
X74422000Y-59817000D03*
X68580000Y-59817000D03*
X62738000Y-59817000D03*
X56896000Y-59817000D03*
X80264000Y-53975000D03*
X68580000Y-53975000D03*
X56896000Y-53975000D03*
X62738000Y-53975000D03*
X74422000Y-53975000D03*
X86106000Y-53975000D03*
X40894000Y-110998000D03*
X38862000Y-108966000D03*
X65024000Y-102870000D03*
X62230000Y-99822000D03*
D20*
X55372000Y-94488000D02*
X53975000Y-95885000D01*
X60960000Y-94488000D02*
X55372000Y-94488000D01*
X61468000Y-93980000D02*
X60960000Y-94488000D01*
X53975000Y-95885000D02*
X53975000Y-97790000D01*
D21*
X26670000Y-94488000D02*
X26670000Y-66675000D01*
X31242000Y-99060000D02*
X26670000Y-94488000D01*
D22*
X42545000Y-90170000D02*
X42545000Y-91440000D01*
D23*
X73914000Y-101346000D02*
X73914000Y-105918000D01*
X63754000Y-104394000D02*
X62738000Y-105410000D01*
X66548000Y-104394000D02*
X63754000Y-104394000D01*
X67056000Y-103886000D02*
X66548000Y-104394000D01*
D22*
X87122000Y-100076000D02*
X87122000Y-102108000D01*
D23*
X66040000Y-97028000D02*
X66040000Y-99568000D01*
X61976000Y-92964000D02*
X66040000Y-97028000D01*
X60452000Y-92964000D02*
X61976000Y-92964000D01*
X80264000Y-83185000D02*
X86106000Y-83185000D01*
X68580000Y-83185000D02*
X74422000Y-83185000D01*
X56896000Y-83185000D02*
X62738000Y-83185000D01*
X80264000Y-77343000D02*
X86106000Y-77343000D01*
X68580000Y-77343000D02*
X74422000Y-77343000D01*
X56896000Y-77343000D02*
X62738000Y-77343000D01*
X80264000Y-71501000D02*
X86106000Y-71501000D01*
X68580000Y-71501000D02*
X74422000Y-71501000D01*
X56896000Y-71501000D02*
X62738000Y-71501000D01*
X80264000Y-65659000D02*
X86106000Y-65659000D01*
X68580000Y-65659000D02*
X74422000Y-65659000D01*
X56896000Y-65659000D02*
X62738000Y-65659000D01*
X80264000Y-59817000D02*
X86106000Y-59817000D01*
X68580000Y-59817000D02*
X74422000Y-59817000D01*
X56896000Y-59817000D02*
X62738000Y-59817000D01*
X86106000Y-53975000D02*
X80264000Y-53975000D01*
X74422000Y-53975000D02*
X68580000Y-53975000D01*
X62738000Y-53975000D02*
X56896000Y-53975000D01*
X68580000Y-53975000D02*
X62738000Y-53975000D01*
X80264000Y-53975000D02*
X74422000Y-53975000D01*
D22*
X40894000Y-110998000D02*
X38862000Y-108966000D01*
D23*
X65024000Y-102870000D02*
X62230000Y-100076000D01*
X62230000Y-99822000D02*
X62230000Y-100076000D01*
G36*
X48133000Y-86868000D02*
X28956000Y-86868000D01*
X28906590Y-86878006D01*
X28864965Y-86906447D01*
X28837685Y-86948841D01*
X28829000Y-86995000D01*
X28829000Y-90805000D01*
X28839006Y-90854410D01*
X28867447Y-90896035D01*
X28909841Y-90923315D01*
X28956000Y-90932000D01*
X111304000Y-90932000D01*
X111304000Y-107905089D01*
X111040438Y-109230102D01*
X110315319Y-110315319D01*
X109230102Y-111040438D01*
X107905089Y-111304000D01*
X58547000Y-111304000D01*
X58547000Y-109449883D01*
X60999000Y-109449883D01*
X60999000Y-109498117D01*
X61092704Y-109969200D01*
X61359552Y-110368565D01*
X61758917Y-110635413D01*
X62230000Y-110729117D01*
X62701083Y-110635413D01*
X63100448Y-110368565D01*
X63367296Y-109969200D01*
X63461000Y-109498117D01*
X63461000Y-109449883D01*
X63539000Y-109449883D01*
X63539000Y-109498117D01*
X63632704Y-109969200D01*
X63899552Y-110368565D01*
X64298917Y-110635413D01*
X64770000Y-110729117D01*
X65241083Y-110635413D01*
X65640448Y-110368565D01*
X65907296Y-109969200D01*
X66001000Y-109498117D01*
X66001000Y-109449883D01*
X66079000Y-109449883D01*
X66079000Y-109498117D01*
X66172704Y-109969200D01*
X66439552Y-110368565D01*
X66838917Y-110635413D01*
X67310000Y-110729117D01*
X67781083Y-110635413D01*
X68180448Y-110368565D01*
X68447296Y-109969200D01*
X68541000Y-109498117D01*
X68541000Y-109449883D01*
X68619000Y-109449883D01*
X68619000Y-109498117D01*
X68712704Y-109969200D01*
X68979552Y-110368565D01*
X69378917Y-110635413D01*
X69850000Y-110729117D01*
X70321083Y-110635413D01*
X70720448Y-110368565D01*
X70987296Y-109969200D01*
X71081000Y-109498117D01*
X71081000Y-109449883D01*
X71159000Y-109449883D01*
X71159000Y-109498117D01*
X71252704Y-109969200D01*
X71519552Y-110368565D01*
X71918917Y-110635413D01*
X72390000Y-110729117D01*
X72861083Y-110635413D01*
X73260448Y-110368565D01*
X73527296Y-109969200D01*
X73621000Y-109498117D01*
X73621000Y-109449883D01*
X73527296Y-108978800D01*
X73260448Y-108579435D01*
X73139718Y-108498765D01*
X92112887Y-108498765D01*
X92300037Y-108951703D01*
X92646274Y-109298545D01*
X93098885Y-109486485D01*
X93588965Y-109486913D01*
X94041903Y-109299763D01*
X94388745Y-108953526D01*
X94576685Y-108500915D01*
X94577101Y-108024180D01*
X103733380Y-108024180D01*
X104277406Y-109340824D01*
X105283878Y-110349054D01*
X106599570Y-110895377D01*
X108024180Y-110896620D01*
X109340824Y-110352594D01*
X110349054Y-109346122D01*
X110895377Y-108030430D01*
X110896620Y-106605820D01*
X110352594Y-105289176D01*
X109346122Y-104280946D01*
X108030430Y-103734623D01*
X106605820Y-103733380D01*
X105289176Y-104277406D01*
X104280946Y-105283878D01*
X103734623Y-106599570D01*
X103733380Y-108024180D01*
X94577101Y-108024180D01*
X94577113Y-108010835D01*
X94389963Y-107557897D01*
X94043726Y-107211055D01*
X93591115Y-107023115D01*
X93101035Y-107022687D01*
X92648097Y-107209837D01*
X92301255Y-107556074D01*
X92113315Y-108008685D01*
X92112887Y-108498765D01*
X73139718Y-108498765D01*
X72861083Y-108312587D01*
X72390000Y-108218883D01*
X71918917Y-108312587D01*
X71519552Y-108579435D01*
X71252704Y-108978800D01*
X71159000Y-109449883D01*
X71081000Y-109449883D01*
X70987296Y-108978800D01*
X70720448Y-108579435D01*
X70321083Y-108312587D01*
X69850000Y-108218883D01*
X69378917Y-108312587D01*
X68979552Y-108579435D01*
X68712704Y-108978800D01*
X68619000Y-109449883D01*
X68541000Y-109449883D01*
X68447296Y-108978800D01*
X68180448Y-108579435D01*
X67781083Y-108312587D01*
X67310000Y-108218883D01*
X66838917Y-108312587D01*
X66439552Y-108579435D01*
X66172704Y-108978800D01*
X66079000Y-109449883D01*
X66001000Y-109449883D01*
X65907296Y-108978800D01*
X65640448Y-108579435D01*
X65241083Y-108312587D01*
X64770000Y-108218883D01*
X64298917Y-108312587D01*
X63899552Y-108579435D01*
X63632704Y-108978800D01*
X63539000Y-109449883D01*
X63461000Y-109449883D01*
X63367296Y-108978800D01*
X63100448Y-108579435D01*
X62701083Y-108312587D01*
X62230000Y-108218883D01*
X61758917Y-108312587D01*
X61359552Y-108579435D01*
X61092704Y-108978800D01*
X60999000Y-109449883D01*
X58547000Y-109449883D01*
X58547000Y-106711148D01*
X80969633Y-106711148D01*
X81116266Y-107066027D01*
X81387544Y-107337779D01*
X81742168Y-107485032D01*
X82126148Y-107485367D01*
X82481027Y-107338734D01*
X82752779Y-107067456D01*
X82900032Y-106712832D01*
X82900033Y-106711148D01*
X83469633Y-106711148D01*
X83616266Y-107066027D01*
X83887544Y-107337779D01*
X84242168Y-107485032D01*
X84626148Y-107485367D01*
X84981027Y-107338734D01*
X85252779Y-107067456D01*
X85400032Y-106712832D01*
X85400367Y-106328852D01*
X85253734Y-105973973D01*
X84982456Y-105702221D01*
X84627832Y-105554968D01*
X84243852Y-105554633D01*
X83888973Y-105701266D01*
X83617221Y-105972544D01*
X83469968Y-106327168D01*
X83469633Y-106711148D01*
X82900033Y-106711148D01*
X82900367Y-106328852D01*
X82753734Y-105973973D01*
X82482456Y-105702221D01*
X82127832Y-105554968D01*
X81743852Y-105554633D01*
X81388973Y-105701266D01*
X81117221Y-105972544D01*
X80969968Y-106327168D01*
X80969633Y-106711148D01*
X58547000Y-106711148D01*
X58547000Y-105545816D01*
X62052081Y-105545816D01*
X62156268Y-105797967D01*
X62349018Y-105991054D01*
X62600987Y-106095681D01*
X62873816Y-106095919D01*
X63125967Y-105991732D01*
X63319054Y-105798982D01*
X63423681Y-105547013D01*
X63423772Y-105442648D01*
X63964420Y-104902000D01*
X66548000Y-104902000D01*
X66742403Y-104863331D01*
X66907210Y-104753210D01*
X67088591Y-104571829D01*
X67191816Y-104571919D01*
X67443967Y-104467732D01*
X67637054Y-104274982D01*
X67741681Y-104023013D01*
X67741919Y-103750184D01*
X67637732Y-103498033D01*
X67444982Y-103304946D01*
X67193013Y-103200319D01*
X66920184Y-103200081D01*
X66668033Y-103304268D01*
X66474946Y-103497018D01*
X66370319Y-103748987D01*
X66370228Y-103853352D01*
X66337580Y-103886000D01*
X63754000Y-103886000D01*
X63559597Y-103924669D01*
X63394790Y-104034790D01*
X62705409Y-104724171D01*
X62602184Y-104724081D01*
X62350033Y-104828268D01*
X62156946Y-105021018D01*
X62052319Y-105272987D01*
X62052081Y-105545816D01*
X58547000Y-105545816D01*
X58547000Y-103178464D01*
X60675000Y-103178464D01*
X60816190Y-103151897D01*
X60945865Y-103068454D01*
X61032859Y-102941134D01*
X61063464Y-102790000D01*
X61063464Y-99957816D01*
X61544081Y-99957816D01*
X61648268Y-100209967D01*
X61841018Y-100403054D01*
X61852486Y-100407816D01*
X61870790Y-100435210D01*
X64338171Y-102902591D01*
X64338081Y-103005816D01*
X64442268Y-103257967D01*
X64635018Y-103451054D01*
X64886987Y-103555681D01*
X65159816Y-103555919D01*
X65411967Y-103451732D01*
X65605054Y-103258982D01*
X65709681Y-103007013D01*
X65709919Y-102734184D01*
X65605732Y-102482033D01*
X65412982Y-102288946D01*
X65161013Y-102184319D01*
X65056648Y-102184228D01*
X64354236Y-101481816D01*
X73228081Y-101481816D01*
X73332268Y-101733967D01*
X73406000Y-101807828D01*
X73406000Y-105456092D01*
X73332946Y-105529018D01*
X73228319Y-105780987D01*
X73228081Y-106053816D01*
X73332268Y-106305967D01*
X73525018Y-106499054D01*
X73776987Y-106603681D01*
X74049816Y-106603919D01*
X74301967Y-106499732D01*
X74495054Y-106306982D01*
X74599681Y-106055013D01*
X74599919Y-105782184D01*
X74495732Y-105530033D01*
X74422000Y-105456172D01*
X74422000Y-101807908D01*
X74495054Y-101734982D01*
X74599681Y-101483013D01*
X74599919Y-101210184D01*
X74495732Y-100958033D01*
X74302982Y-100764946D01*
X74051013Y-100660319D01*
X73778184Y-100660081D01*
X73526033Y-100764268D01*
X73332946Y-100957018D01*
X73228319Y-101208987D01*
X73228081Y-101481816D01*
X64354236Y-101481816D01*
X62890962Y-100018542D01*
X62915681Y-99959013D01*
X62915919Y-99686184D01*
X62811732Y-99434033D01*
X62618982Y-99240946D01*
X62367013Y-99136319D01*
X62094184Y-99136081D01*
X61842033Y-99240268D01*
X61648946Y-99433018D01*
X61544319Y-99684987D01*
X61544081Y-99957816D01*
X61063464Y-99957816D01*
X61063464Y-98790000D01*
X61036897Y-98648810D01*
X60953454Y-98519135D01*
X60826134Y-98432141D01*
X60675000Y-98401536D01*
X58547000Y-98401536D01*
X58547000Y-95377000D01*
X60960000Y-95377000D01*
X61300206Y-95309329D01*
X61588618Y-95116618D01*
X62096618Y-94608618D01*
X62289329Y-94320206D01*
X62343160Y-94049580D01*
X65532000Y-97238420D01*
X65532000Y-99106092D01*
X65458946Y-99179018D01*
X65354319Y-99430987D01*
X65354081Y-99703816D01*
X65458268Y-99955967D01*
X65651018Y-100149054D01*
X65902987Y-100253681D01*
X66175816Y-100253919D01*
X66277712Y-100211816D01*
X86436081Y-100211816D01*
X86487000Y-100335049D01*
X86487000Y-101848934D01*
X86436319Y-101970987D01*
X86436081Y-102243816D01*
X86540268Y-102495967D01*
X86733018Y-102689054D01*
X86984987Y-102793681D01*
X87257816Y-102793919D01*
X87509967Y-102689732D01*
X87703054Y-102496982D01*
X87807681Y-102245013D01*
X87807919Y-101972184D01*
X87757000Y-101848951D01*
X87757000Y-101488365D01*
X92112887Y-101488365D01*
X92300037Y-101941303D01*
X92646274Y-102288145D01*
X93098885Y-102476085D01*
X93588965Y-102476513D01*
X94041903Y-102289363D01*
X94388745Y-101943126D01*
X94576685Y-101490515D01*
X94577113Y-101000435D01*
X94389963Y-100547497D01*
X94043726Y-100200655D01*
X93591115Y-100012715D01*
X93101035Y-100012287D01*
X92648097Y-100199437D01*
X92301255Y-100545674D01*
X92113315Y-100998285D01*
X92112887Y-101488365D01*
X87757000Y-101488365D01*
X87757000Y-100335066D01*
X87807681Y-100213013D01*
X87807919Y-99940184D01*
X87703732Y-99688033D01*
X87510982Y-99494946D01*
X87259013Y-99390319D01*
X86986184Y-99390081D01*
X86734033Y-99494268D01*
X86540946Y-99687018D01*
X86436319Y-99938987D01*
X86436081Y-100211816D01*
X66277712Y-100211816D01*
X66427967Y-100149732D01*
X66621054Y-99956982D01*
X66725681Y-99705013D01*
X66725919Y-99432184D01*
X66621732Y-99180033D01*
X66548000Y-99106172D01*
X66548000Y-97028000D01*
X66509331Y-96833597D01*
X66399210Y-96668790D01*
X62335210Y-92604790D01*
X62170403Y-92494669D01*
X61976000Y-92456000D01*
X60913908Y-92456000D01*
X60840982Y-92382946D01*
X60589013Y-92278319D01*
X60316184Y-92278081D01*
X60064033Y-92382268D01*
X59870946Y-92575018D01*
X59766319Y-92826987D01*
X59766081Y-93099816D01*
X59870268Y-93351967D01*
X60063018Y-93545054D01*
X60192934Y-93599000D01*
X58547000Y-93599000D01*
X58547000Y-92710000D01*
X58536994Y-92660590D01*
X58508553Y-92618965D01*
X58466159Y-92591685D01*
X58420000Y-92583000D01*
X56515000Y-92583000D01*
X56465590Y-92593006D01*
X56423965Y-92621447D01*
X56396685Y-92663841D01*
X56388000Y-92710000D01*
X56388000Y-93599000D01*
X55372000Y-93599000D01*
X55031794Y-93666671D01*
X54743382Y-93859382D01*
X53346382Y-95256382D01*
X53249393Y-95401536D01*
X51975000Y-95401536D01*
X51833810Y-95428103D01*
X51704135Y-95511546D01*
X51617141Y-95638866D01*
X51586536Y-95790000D01*
X51586536Y-99790000D01*
X51613103Y-99931190D01*
X51696546Y-100060865D01*
X51823866Y-100147859D01*
X51975000Y-100178464D01*
X55975000Y-100178464D01*
X56116190Y-100151897D01*
X56245865Y-100068454D01*
X56286536Y-100008930D01*
X56286536Y-102790000D01*
X56313103Y-102931190D01*
X56388000Y-103047584D01*
X56388000Y-111304000D01*
X41509511Y-111304000D01*
X41579681Y-111135013D01*
X41579919Y-110862184D01*
X41475732Y-110610033D01*
X41282982Y-110416946D01*
X41159838Y-110365812D01*
X39494200Y-108700174D01*
X39443732Y-108578033D01*
X39250982Y-108384946D01*
X38999013Y-108280319D01*
X38726184Y-108280081D01*
X38474033Y-108384268D01*
X38280946Y-108577018D01*
X38176319Y-108828987D01*
X38176081Y-109101816D01*
X38280268Y-109353967D01*
X38473018Y-109547054D01*
X38596162Y-109598188D01*
X40261800Y-111263826D01*
X40278400Y-111304000D01*
X29254911Y-111304000D01*
X27929898Y-111040438D01*
X26844681Y-110315319D01*
X26119562Y-109230102D01*
X25879689Y-108024180D01*
X26263380Y-108024180D01*
X26807406Y-109340824D01*
X27813878Y-110349054D01*
X29129570Y-110895377D01*
X30554180Y-110896620D01*
X31870824Y-110352594D01*
X32879054Y-109346122D01*
X33425377Y-108030430D01*
X33426620Y-106605820D01*
X32882594Y-105289176D01*
X31876122Y-104280946D01*
X30560430Y-103734623D01*
X29135820Y-103733380D01*
X27819176Y-104277406D01*
X26810946Y-105283878D01*
X26264623Y-106599570D01*
X26263380Y-108024180D01*
X25879689Y-108024180D01*
X25856000Y-107905089D01*
X25856000Y-95287577D01*
X25861777Y-95296223D01*
X30433777Y-99868223D01*
X30804593Y-100115994D01*
X31242000Y-100203000D01*
X31679407Y-100115994D01*
X32050223Y-99868223D01*
X32297994Y-99497407D01*
X32385000Y-99060000D01*
X32297994Y-98622593D01*
X32050223Y-98251777D01*
X27813000Y-94014554D01*
X27813000Y-73730000D01*
X41591536Y-73730000D01*
X41591536Y-76130000D01*
X41618103Y-76271190D01*
X41701546Y-76400865D01*
X41828866Y-76487859D01*
X41980000Y-76518464D01*
X44380000Y-76518464D01*
X44521190Y-76491897D01*
X44650865Y-76408454D01*
X44737859Y-76281134D01*
X44768464Y-76130000D01*
X44768464Y-73730000D01*
X44741897Y-73588810D01*
X44658454Y-73459135D01*
X44531134Y-73372141D01*
X44380000Y-73341536D01*
X41980000Y-73341536D01*
X41838810Y-73368103D01*
X41709135Y-73451546D01*
X41622141Y-73578866D01*
X41591536Y-73730000D01*
X27813000Y-73730000D01*
X27813000Y-66675000D01*
X27725994Y-66237593D01*
X27478223Y-65866777D01*
X27107407Y-65619006D01*
X26670000Y-65532000D01*
X26232593Y-65619006D01*
X25861777Y-65866777D01*
X25856000Y-65875423D01*
X25856000Y-30554180D01*
X26263380Y-30554180D01*
X26807406Y-31870824D01*
X27813878Y-32879054D01*
X29129570Y-33425377D01*
X30554180Y-33426620D01*
X31870824Y-32882594D01*
X32879054Y-31876122D01*
X33425377Y-30560430D01*
X33426620Y-29135820D01*
X32882594Y-27819176D01*
X31876122Y-26810946D01*
X30560430Y-26264623D01*
X29135820Y-26263380D01*
X27819176Y-26807406D01*
X26810946Y-27813878D01*
X26264623Y-29129570D01*
X26263380Y-30554180D01*
X25856000Y-30554180D01*
X25856000Y-29254911D01*
X26119562Y-27929898D01*
X26844681Y-26844681D01*
X27929898Y-26119562D01*
X29254911Y-25856000D01*
X48133000Y-25856000D01*
X48133000Y-86868000D01*
X48133000Y-86868000D01*
G37*
X48133000Y-86868000D02*
X28956000Y-86868000D01*
X28906590Y-86878006D01*
X28864965Y-86906447D01*
X28837685Y-86948841D01*
X28829000Y-86995000D01*
X28829000Y-90805000D01*
X28839006Y-90854410D01*
X28867447Y-90896035D01*
X28909841Y-90923315D01*
X28956000Y-90932000D01*
X111304000Y-90932000D01*
X111304000Y-107905089D01*
X111040438Y-109230102D01*
X110315319Y-110315319D01*
X109230102Y-111040438D01*
X107905089Y-111304000D01*
X58547000Y-111304000D01*
X58547000Y-109449883D01*
X60999000Y-109449883D01*
X60999000Y-109498117D01*
X61092704Y-109969200D01*
X61359552Y-110368565D01*
X61758917Y-110635413D01*
X62230000Y-110729117D01*
X62701083Y-110635413D01*
X63100448Y-110368565D01*
X63367296Y-109969200D01*
X63461000Y-109498117D01*
X63461000Y-109449883D01*
X63539000Y-109449883D01*
X63539000Y-109498117D01*
X63632704Y-109969200D01*
X63899552Y-110368565D01*
X64298917Y-110635413D01*
X64770000Y-110729117D01*
X65241083Y-110635413D01*
X65640448Y-110368565D01*
X65907296Y-109969200D01*
X66001000Y-109498117D01*
X66001000Y-109449883D01*
X66079000Y-109449883D01*
X66079000Y-109498117D01*
X66172704Y-109969200D01*
X66439552Y-110368565D01*
X66838917Y-110635413D01*
X67310000Y-110729117D01*
X67781083Y-110635413D01*
X68180448Y-110368565D01*
X68447296Y-109969200D01*
X68541000Y-109498117D01*
X68541000Y-109449883D01*
X68619000Y-109449883D01*
X68619000Y-109498117D01*
X68712704Y-109969200D01*
X68979552Y-110368565D01*
X69378917Y-110635413D01*
X69850000Y-110729117D01*
X70321083Y-110635413D01*
X70720448Y-110368565D01*
X70987296Y-109969200D01*
X71081000Y-109498117D01*
X71081000Y-109449883D01*
X71159000Y-109449883D01*
X71159000Y-109498117D01*
X71252704Y-109969200D01*
X71519552Y-110368565D01*
X71918917Y-110635413D01*
X72390000Y-110729117D01*
X72861083Y-110635413D01*
X73260448Y-110368565D01*
X73527296Y-109969200D01*
X73621000Y-109498117D01*
X73621000Y-109449883D01*
X73527296Y-108978800D01*
X73260448Y-108579435D01*
X73139718Y-108498765D01*
X92112887Y-108498765D01*
X92300037Y-108951703D01*
X92646274Y-109298545D01*
X93098885Y-109486485D01*
X93588965Y-109486913D01*
X94041903Y-109299763D01*
X94388745Y-108953526D01*
X94576685Y-108500915D01*
X94577101Y-108024180D01*
X103733380Y-108024180D01*
X104277406Y-109340824D01*
X105283878Y-110349054D01*
X106599570Y-110895377D01*
X108024180Y-110896620D01*
X109340824Y-110352594D01*
X110349054Y-109346122D01*
X110895377Y-108030430D01*
X110896620Y-106605820D01*
X110352594Y-105289176D01*
X109346122Y-104280946D01*
X108030430Y-103734623D01*
X106605820Y-103733380D01*
X105289176Y-104277406D01*
X104280946Y-105283878D01*
X103734623Y-106599570D01*
X103733380Y-108024180D01*
X94577101Y-108024180D01*
X94577113Y-108010835D01*
X94389963Y-107557897D01*
X94043726Y-107211055D01*
X93591115Y-107023115D01*
X93101035Y-107022687D01*
X92648097Y-107209837D01*
X92301255Y-107556074D01*
X92113315Y-108008685D01*
X92112887Y-108498765D01*
X73139718Y-108498765D01*
X72861083Y-108312587D01*
X72390000Y-108218883D01*
X71918917Y-108312587D01*
X71519552Y-108579435D01*
X71252704Y-108978800D01*
X71159000Y-109449883D01*
X71081000Y-109449883D01*
X70987296Y-108978800D01*
X70720448Y-108579435D01*
X70321083Y-108312587D01*
X69850000Y-108218883D01*
X69378917Y-108312587D01*
X68979552Y-108579435D01*
X68712704Y-108978800D01*
X68619000Y-109449883D01*
X68541000Y-109449883D01*
X68447296Y-108978800D01*
X68180448Y-108579435D01*
X67781083Y-108312587D01*
X67310000Y-108218883D01*
X66838917Y-108312587D01*
X66439552Y-108579435D01*
X66172704Y-108978800D01*
X66079000Y-109449883D01*
X66001000Y-109449883D01*
X65907296Y-108978800D01*
X65640448Y-108579435D01*
X65241083Y-108312587D01*
X64770000Y-108218883D01*
X64298917Y-108312587D01*
X63899552Y-108579435D01*
X63632704Y-108978800D01*
X63539000Y-109449883D01*
X63461000Y-109449883D01*
X63367296Y-108978800D01*
X63100448Y-108579435D01*
X62701083Y-108312587D01*
X62230000Y-108218883D01*
X61758917Y-108312587D01*
X61359552Y-108579435D01*
X61092704Y-108978800D01*
X60999000Y-109449883D01*
X58547000Y-109449883D01*
X58547000Y-106711148D01*
X80969633Y-106711148D01*
X81116266Y-107066027D01*
X81387544Y-107337779D01*
X81742168Y-107485032D01*
X82126148Y-107485367D01*
X82481027Y-107338734D01*
X82752779Y-107067456D01*
X82900032Y-106712832D01*
X82900033Y-106711148D01*
X83469633Y-106711148D01*
X83616266Y-107066027D01*
X83887544Y-107337779D01*
X84242168Y-107485032D01*
X84626148Y-107485367D01*
X84981027Y-107338734D01*
X85252779Y-107067456D01*
X85400032Y-106712832D01*
X85400367Y-106328852D01*
X85253734Y-105973973D01*
X84982456Y-105702221D01*
X84627832Y-105554968D01*
X84243852Y-105554633D01*
X83888973Y-105701266D01*
X83617221Y-105972544D01*
X83469968Y-106327168D01*
X83469633Y-106711148D01*
X82900033Y-106711148D01*
X82900367Y-106328852D01*
X82753734Y-105973973D01*
X82482456Y-105702221D01*
X82127832Y-105554968D01*
X81743852Y-105554633D01*
X81388973Y-105701266D01*
X81117221Y-105972544D01*
X80969968Y-106327168D01*
X80969633Y-106711148D01*
X58547000Y-106711148D01*
X58547000Y-105545816D01*
X62052081Y-105545816D01*
X62156268Y-105797967D01*
X62349018Y-105991054D01*
X62600987Y-106095681D01*
X62873816Y-106095919D01*
X63125967Y-105991732D01*
X63319054Y-105798982D01*
X63423681Y-105547013D01*
X63423772Y-105442648D01*
X63964420Y-104902000D01*
X66548000Y-104902000D01*
X66742403Y-104863331D01*
X66907210Y-104753210D01*
X67088591Y-104571829D01*
X67191816Y-104571919D01*
X67443967Y-104467732D01*
X67637054Y-104274982D01*
X67741681Y-104023013D01*
X67741919Y-103750184D01*
X67637732Y-103498033D01*
X67444982Y-103304946D01*
X67193013Y-103200319D01*
X66920184Y-103200081D01*
X66668033Y-103304268D01*
X66474946Y-103497018D01*
X66370319Y-103748987D01*
X66370228Y-103853352D01*
X66337580Y-103886000D01*
X63754000Y-103886000D01*
X63559597Y-103924669D01*
X63394790Y-104034790D01*
X62705409Y-104724171D01*
X62602184Y-104724081D01*
X62350033Y-104828268D01*
X62156946Y-105021018D01*
X62052319Y-105272987D01*
X62052081Y-105545816D01*
X58547000Y-105545816D01*
X58547000Y-103178464D01*
X60675000Y-103178464D01*
X60816190Y-103151897D01*
X60945865Y-103068454D01*
X61032859Y-102941134D01*
X61063464Y-102790000D01*
X61063464Y-99957816D01*
X61544081Y-99957816D01*
X61648268Y-100209967D01*
X61841018Y-100403054D01*
X61852486Y-100407816D01*
X61870790Y-100435210D01*
X64338171Y-102902591D01*
X64338081Y-103005816D01*
X64442268Y-103257967D01*
X64635018Y-103451054D01*
X64886987Y-103555681D01*
X65159816Y-103555919D01*
X65411967Y-103451732D01*
X65605054Y-103258982D01*
X65709681Y-103007013D01*
X65709919Y-102734184D01*
X65605732Y-102482033D01*
X65412982Y-102288946D01*
X65161013Y-102184319D01*
X65056648Y-102184228D01*
X64354236Y-101481816D01*
X73228081Y-101481816D01*
X73332268Y-101733967D01*
X73406000Y-101807828D01*
X73406000Y-105456092D01*
X73332946Y-105529018D01*
X73228319Y-105780987D01*
X73228081Y-106053816D01*
X73332268Y-106305967D01*
X73525018Y-106499054D01*
X73776987Y-106603681D01*
X74049816Y-106603919D01*
X74301967Y-106499732D01*
X74495054Y-106306982D01*
X74599681Y-106055013D01*
X74599919Y-105782184D01*
X74495732Y-105530033D01*
X74422000Y-105456172D01*
X74422000Y-101807908D01*
X74495054Y-101734982D01*
X74599681Y-101483013D01*
X74599919Y-101210184D01*
X74495732Y-100958033D01*
X74302982Y-100764946D01*
X74051013Y-100660319D01*
X73778184Y-100660081D01*
X73526033Y-100764268D01*
X73332946Y-100957018D01*
X73228319Y-101208987D01*
X73228081Y-101481816D01*
X64354236Y-101481816D01*
X62890962Y-100018542D01*
X62915681Y-99959013D01*
X62915919Y-99686184D01*
X62811732Y-99434033D01*
X62618982Y-99240946D01*
X62367013Y-99136319D01*
X62094184Y-99136081D01*
X61842033Y-99240268D01*
X61648946Y-99433018D01*
X61544319Y-99684987D01*
X61544081Y-99957816D01*
X61063464Y-99957816D01*
X61063464Y-98790000D01*
X61036897Y-98648810D01*
X60953454Y-98519135D01*
X60826134Y-98432141D01*
X60675000Y-98401536D01*
X58547000Y-98401536D01*
X58547000Y-95377000D01*
X60960000Y-95377000D01*
X61300206Y-95309329D01*
X61588618Y-95116618D01*
X62096618Y-94608618D01*
X62289329Y-94320206D01*
X62343160Y-94049580D01*
X65532000Y-97238420D01*
X65532000Y-99106092D01*
X65458946Y-99179018D01*
X65354319Y-99430987D01*
X65354081Y-99703816D01*
X65458268Y-99955967D01*
X65651018Y-100149054D01*
X65902987Y-100253681D01*
X66175816Y-100253919D01*
X66277712Y-100211816D01*
X86436081Y-100211816D01*
X86487000Y-100335049D01*
X86487000Y-101848934D01*
X86436319Y-101970987D01*
X86436081Y-102243816D01*
X86540268Y-102495967D01*
X86733018Y-102689054D01*
X86984987Y-102793681D01*
X87257816Y-102793919D01*
X87509967Y-102689732D01*
X87703054Y-102496982D01*
X87807681Y-102245013D01*
X87807919Y-101972184D01*
X87757000Y-101848951D01*
X87757000Y-101488365D01*
X92112887Y-101488365D01*
X92300037Y-101941303D01*
X92646274Y-102288145D01*
X93098885Y-102476085D01*
X93588965Y-102476513D01*
X94041903Y-102289363D01*
X94388745Y-101943126D01*
X94576685Y-101490515D01*
X94577113Y-101000435D01*
X94389963Y-100547497D01*
X94043726Y-100200655D01*
X93591115Y-100012715D01*
X93101035Y-100012287D01*
X92648097Y-100199437D01*
X92301255Y-100545674D01*
X92113315Y-100998285D01*
X92112887Y-101488365D01*
X87757000Y-101488365D01*
X87757000Y-100335066D01*
X87807681Y-100213013D01*
X87807919Y-99940184D01*
X87703732Y-99688033D01*
X87510982Y-99494946D01*
X87259013Y-99390319D01*
X86986184Y-99390081D01*
X86734033Y-99494268D01*
X86540946Y-99687018D01*
X86436319Y-99938987D01*
X86436081Y-100211816D01*
X66277712Y-100211816D01*
X66427967Y-100149732D01*
X66621054Y-99956982D01*
X66725681Y-99705013D01*
X66725919Y-99432184D01*
X66621732Y-99180033D01*
X66548000Y-99106172D01*
X66548000Y-97028000D01*
X66509331Y-96833597D01*
X66399210Y-96668790D01*
X62335210Y-92604790D01*
X62170403Y-92494669D01*
X61976000Y-92456000D01*
X60913908Y-92456000D01*
X60840982Y-92382946D01*
X60589013Y-92278319D01*
X60316184Y-92278081D01*
X60064033Y-92382268D01*
X59870946Y-92575018D01*
X59766319Y-92826987D01*
X59766081Y-93099816D01*
X59870268Y-93351967D01*
X60063018Y-93545054D01*
X60192934Y-93599000D01*
X58547000Y-93599000D01*
X58547000Y-92710000D01*
X58536994Y-92660590D01*
X58508553Y-92618965D01*
X58466159Y-92591685D01*
X58420000Y-92583000D01*
X56515000Y-92583000D01*
X56465590Y-92593006D01*
X56423965Y-92621447D01*
X56396685Y-92663841D01*
X56388000Y-92710000D01*
X56388000Y-93599000D01*
X55372000Y-93599000D01*
X55031794Y-93666671D01*
X54743382Y-93859382D01*
X53346382Y-95256382D01*
X53249393Y-95401536D01*
X51975000Y-95401536D01*
X51833810Y-95428103D01*
X51704135Y-95511546D01*
X51617141Y-95638866D01*
X51586536Y-95790000D01*
X51586536Y-99790000D01*
X51613103Y-99931190D01*
X51696546Y-100060865D01*
X51823866Y-100147859D01*
X51975000Y-100178464D01*
X55975000Y-100178464D01*
X56116190Y-100151897D01*
X56245865Y-100068454D01*
X56286536Y-100008930D01*
X56286536Y-102790000D01*
X56313103Y-102931190D01*
X56388000Y-103047584D01*
X56388000Y-111304000D01*
X41509511Y-111304000D01*
X41579681Y-111135013D01*
X41579919Y-110862184D01*
X41475732Y-110610033D01*
X41282982Y-110416946D01*
X41159838Y-110365812D01*
X39494200Y-108700174D01*
X39443732Y-108578033D01*
X39250982Y-108384946D01*
X38999013Y-108280319D01*
X38726184Y-108280081D01*
X38474033Y-108384268D01*
X38280946Y-108577018D01*
X38176319Y-108828987D01*
X38176081Y-109101816D01*
X38280268Y-109353967D01*
X38473018Y-109547054D01*
X38596162Y-109598188D01*
X40261800Y-111263826D01*
X40278400Y-111304000D01*
X29254911Y-111304000D01*
X27929898Y-111040438D01*
X26844681Y-110315319D01*
X26119562Y-109230102D01*
X25879689Y-108024180D01*
X26263380Y-108024180D01*
X26807406Y-109340824D01*
X27813878Y-110349054D01*
X29129570Y-110895377D01*
X30554180Y-110896620D01*
X31870824Y-110352594D01*
X32879054Y-109346122D01*
X33425377Y-108030430D01*
X33426620Y-106605820D01*
X32882594Y-105289176D01*
X31876122Y-104280946D01*
X30560430Y-103734623D01*
X29135820Y-103733380D01*
X27819176Y-104277406D01*
X26810946Y-105283878D01*
X26264623Y-106599570D01*
X26263380Y-108024180D01*
X25879689Y-108024180D01*
X25856000Y-107905089D01*
X25856000Y-95287577D01*
X25861777Y-95296223D01*
X30433777Y-99868223D01*
X30804593Y-100115994D01*
X31242000Y-100203000D01*
X31679407Y-100115994D01*
X32050223Y-99868223D01*
X32297994Y-99497407D01*
X32385000Y-99060000D01*
X32297994Y-98622593D01*
X32050223Y-98251777D01*
X27813000Y-94014554D01*
X27813000Y-73730000D01*
X41591536Y-73730000D01*
X41591536Y-76130000D01*
X41618103Y-76271190D01*
X41701546Y-76400865D01*
X41828866Y-76487859D01*
X41980000Y-76518464D01*
X44380000Y-76518464D01*
X44521190Y-76491897D01*
X44650865Y-76408454D01*
X44737859Y-76281134D01*
X44768464Y-76130000D01*
X44768464Y-73730000D01*
X44741897Y-73588810D01*
X44658454Y-73459135D01*
X44531134Y-73372141D01*
X44380000Y-73341536D01*
X41980000Y-73341536D01*
X41838810Y-73368103D01*
X41709135Y-73451546D01*
X41622141Y-73578866D01*
X41591536Y-73730000D01*
X27813000Y-73730000D01*
X27813000Y-66675000D01*
X27725994Y-66237593D01*
X27478223Y-65866777D01*
X27107407Y-65619006D01*
X26670000Y-65532000D01*
X26232593Y-65619006D01*
X25861777Y-65866777D01*
X25856000Y-65875423D01*
X25856000Y-30554180D01*
X26263380Y-30554180D01*
X26807406Y-31870824D01*
X27813878Y-32879054D01*
X29129570Y-33425377D01*
X30554180Y-33426620D01*
X31870824Y-32882594D01*
X32879054Y-31876122D01*
X33425377Y-30560430D01*
X33426620Y-29135820D01*
X32882594Y-27819176D01*
X31876122Y-26810946D01*
X30560430Y-26264623D01*
X29135820Y-26263380D01*
X27819176Y-26807406D01*
X26810946Y-27813878D01*
X26264623Y-29129570D01*
X26263380Y-30554180D01*
X25856000Y-30554180D01*
X25856000Y-29254911D01*
X26119562Y-27929898D01*
X26844681Y-26844681D01*
X27929898Y-26119562D01*
X29254911Y-25856000D01*
X48133000Y-25856000D01*
X48133000Y-86868000D01*
G36*
X105145485Y-26591950D02*
X104065741Y-27669811D01*
X103480667Y-29078825D01*
X103479336Y-30604482D01*
X104061950Y-32014515D01*
X105139811Y-33094259D01*
X106548825Y-33679333D01*
X108074482Y-33680664D01*
X109484515Y-33098050D01*
X110564259Y-32020189D01*
X111050000Y-30850395D01*
X111050000Y-88138000D01*
X88265000Y-88138000D01*
X88265000Y-84582000D01*
X88254994Y-84532590D01*
X88226553Y-84490965D01*
X88184159Y-84463685D01*
X88138000Y-84455000D01*
X51689000Y-84455000D01*
X51689000Y-52705000D01*
X88265000Y-52705000D01*
X88314410Y-52694994D01*
X88356035Y-52666553D01*
X88383315Y-52624159D01*
X88392000Y-52578000D01*
X88392000Y-46355000D01*
X88381994Y-46305590D01*
X88353553Y-46263965D01*
X88311159Y-46236685D01*
X88265000Y-46228000D01*
X50927000Y-46228000D01*
X50927000Y-26110000D01*
X106311893Y-26110000D01*
X105145485Y-26591950D01*
X105145485Y-26591950D01*
G37*
X105145485Y-26591950D02*
X104065741Y-27669811D01*
X103480667Y-29078825D01*
X103479336Y-30604482D01*
X104061950Y-32014515D01*
X105139811Y-33094259D01*
X106548825Y-33679333D01*
X108074482Y-33680664D01*
X109484515Y-33098050D01*
X110564259Y-32020189D01*
X111050000Y-30850395D01*
X111050000Y-88138000D01*
X88265000Y-88138000D01*
X88265000Y-84582000D01*
X88254994Y-84532590D01*
X88226553Y-84490965D01*
X88184159Y-84463685D01*
X88138000Y-84455000D01*
X51689000Y-84455000D01*
X51689000Y-52705000D01*
X88265000Y-52705000D01*
X88314410Y-52694994D01*
X88356035Y-52666553D01*
X88383315Y-52624159D01*
X88392000Y-52578000D01*
X88392000Y-46355000D01*
X88381994Y-46305590D01*
X88353553Y-46263965D01*
X88311159Y-46236685D01*
X88265000Y-46228000D01*
X50927000Y-46228000D01*
X50927000Y-26110000D01*
X106311893Y-26110000D01*
X105145485Y-26591950D01*
M02*
