G04 #@! TF.FileFunction,Soldermask,Top*
%FSLAX46Y46*%
G04 Gerber Fmt 4.6, Leading zero omitted, Abs format (unit mm)*
G04 Created by KiCad (PCBNEW 4.0.7) date 02/03/18 13:53:17*
%MOMM*%
%LPD*%
G01*
G04 APERTURE LIST*
%ADD10C,0.100000*%
%ADD11R,1.400000X3.600000*%
%ADD12R,13.400000X5.150000*%
%ADD13R,1.400000X2.000000*%
%ADD14R,2.000000X1.400000*%
%ADD15R,4.200000X2.400000*%
%ADD16R,1.900000X2.400000*%
%ADD17R,0.900000X5.180000*%
%ADD18R,3.180000X5.180000*%
%ADD19R,4.400000X4.400000*%
%ADD20C,4.400000*%
%ADD21R,4.210000X2.482800*%
%ADD22R,9.290000X11.830000*%
%ADD23R,3.194000X2.609800*%
%ADD24R,3.194000X3.194000*%
%ADD25C,2.101800*%
%ADD26R,2.100000X1.300000*%
%ADD27C,6.800000*%
%ADD28R,1.543000X0.908000*%
%ADD29C,1.568400*%
%ADD30R,1.300000X0.900000*%
%ADD31R,0.900000X1.300000*%
%ADD32R,1.600000X2.600000*%
%ADD33R,6.200000X6.800000*%
%ADD34R,2.100000X2.100000*%
%ADD35O,2.100000X2.100000*%
%ADD36R,2.900000X3.700000*%
%ADD37R,1.400000X1.300000*%
%ADD38R,1.200000X1.150000*%
%ADD39R,1.150000X1.200000*%
%ADD40R,2.000000X3.900000*%
%ADD41R,1.000000X1.900000*%
G04 APERTURE END LIST*
D10*
D11*
X81990000Y-71755000D03*
X88190000Y-71755000D03*
X81990000Y-65405000D03*
X88190000Y-65405000D03*
X81990000Y-59055000D03*
X88190000Y-59055000D03*
X81990000Y-52705000D03*
X88190000Y-52705000D03*
D12*
X32512000Y-47191000D03*
X32512000Y-56441000D03*
D13*
X30504000Y-62484000D03*
X33504000Y-62484000D03*
X64540000Y-43180000D03*
X67540000Y-43180000D03*
D14*
X83185000Y-89130000D03*
X83185000Y-86130000D03*
D15*
X88265000Y-93955000D03*
D16*
X88265000Y-87655000D03*
X85965000Y-87655000D03*
X90565000Y-87655000D03*
D17*
X75965000Y-71755000D03*
X80245000Y-71755000D03*
D18*
X78105000Y-71755000D03*
D17*
X69615000Y-71755000D03*
X73895000Y-71755000D03*
D18*
X71755000Y-71755000D03*
D17*
X63265000Y-71755000D03*
X67545000Y-71755000D03*
D18*
X65405000Y-71755000D03*
D17*
X56915000Y-71755000D03*
X61195000Y-71755000D03*
D18*
X59055000Y-71755000D03*
D17*
X50565000Y-71755000D03*
X54845000Y-71755000D03*
D18*
X52705000Y-71755000D03*
D17*
X44215000Y-71755000D03*
X48495000Y-71755000D03*
D18*
X46355000Y-71755000D03*
D17*
X75965000Y-65405000D03*
X80245000Y-65405000D03*
D18*
X78105000Y-65405000D03*
D17*
X69615000Y-65405000D03*
X73895000Y-65405000D03*
D18*
X71755000Y-65405000D03*
D17*
X63265000Y-65405000D03*
X67545000Y-65405000D03*
D18*
X65405000Y-65405000D03*
D17*
X56915000Y-65405000D03*
X61195000Y-65405000D03*
D18*
X59055000Y-65405000D03*
D17*
X50565000Y-65405000D03*
X54845000Y-65405000D03*
D18*
X52705000Y-65405000D03*
D17*
X44215000Y-65405000D03*
X48495000Y-65405000D03*
D18*
X46355000Y-65405000D03*
D17*
X75965000Y-59055000D03*
X80245000Y-59055000D03*
D18*
X78105000Y-59055000D03*
D17*
X69615000Y-59055000D03*
X73895000Y-59055000D03*
D18*
X71755000Y-59055000D03*
D17*
X63265000Y-59055000D03*
X67545000Y-59055000D03*
D18*
X65405000Y-59055000D03*
D17*
X56915000Y-59055000D03*
X61195000Y-59055000D03*
D18*
X59055000Y-59055000D03*
D17*
X50565000Y-59055000D03*
X54845000Y-59055000D03*
D18*
X52705000Y-59055000D03*
D17*
X44215000Y-59055000D03*
X48495000Y-59055000D03*
D18*
X46355000Y-59055000D03*
D17*
X75965000Y-52705000D03*
X80245000Y-52705000D03*
D18*
X78105000Y-52705000D03*
D17*
X69615000Y-52705000D03*
X73895000Y-52705000D03*
D18*
X71755000Y-52705000D03*
D17*
X63265000Y-52705000D03*
X67545000Y-52705000D03*
D18*
X65405000Y-52705000D03*
D17*
X56915000Y-52705000D03*
X61195000Y-52705000D03*
D18*
X59055000Y-52705000D03*
D17*
X50565000Y-52705000D03*
X54845000Y-52705000D03*
D18*
X52705000Y-52705000D03*
D17*
X44215000Y-52705000D03*
X48495000Y-52705000D03*
D18*
X46355000Y-52705000D03*
D19*
X51117500Y-44767500D03*
D20*
X61117500Y-44767500D03*
D21*
X73152000Y-39370000D03*
X73152000Y-44450000D03*
D22*
X84709000Y-41910000D03*
D23*
X54457600Y-94665800D03*
D24*
X61874400Y-87274400D03*
D23*
X61874400Y-96672400D03*
D25*
X58166000Y-88544400D03*
X58166000Y-95554800D03*
D26*
X43180000Y-78920000D03*
X43180000Y-76020000D03*
D27*
X95250000Y-29210000D03*
X29210000Y-29210000D03*
X95250000Y-95250000D03*
X29210000Y-95250000D03*
D28*
X69215000Y-36830000D03*
X69215000Y-38100000D03*
X69215000Y-39370000D03*
X69215000Y-40640000D03*
X62865000Y-40640000D03*
X62865000Y-39370000D03*
X62865000Y-38100000D03*
X62865000Y-36830000D03*
D29*
X67925000Y-93820000D03*
X65425000Y-93820000D03*
D30*
X43180000Y-82665000D03*
X43180000Y-81165000D03*
D31*
X41680000Y-27305000D03*
X43180000Y-27305000D03*
X43180000Y-29845000D03*
X41680000Y-29845000D03*
D30*
X73025000Y-34810000D03*
X73025000Y-36310000D03*
D31*
X58940000Y-38100000D03*
X60440000Y-38100000D03*
D30*
X67945000Y-92190000D03*
X67945000Y-90690000D03*
X65405000Y-92190000D03*
X65405000Y-90690000D03*
D32*
X39110000Y-34535000D03*
X34550000Y-34535000D03*
D33*
X36830000Y-40835000D03*
D34*
X85725000Y-97155000D03*
D35*
X83185000Y-97155000D03*
X80645000Y-97155000D03*
X78105000Y-97155000D03*
X75565000Y-97155000D03*
X73025000Y-97155000D03*
D19*
X46736000Y-87630000D03*
X46736000Y-93630000D03*
X51436000Y-90630000D03*
D36*
X51660000Y-38100000D03*
X44860000Y-38100000D03*
D37*
X67725000Y-95320000D03*
X65625000Y-95320000D03*
X66675000Y-97720000D03*
D38*
X32500000Y-60198000D03*
X31000000Y-60198000D03*
X65290000Y-34925000D03*
X66790000Y-34925000D03*
D39*
X83185000Y-92825000D03*
X83185000Y-91325000D03*
X40640000Y-85610000D03*
X40640000Y-87110000D03*
D40*
X37592000Y-91280000D03*
X37592000Y-96680000D03*
D41*
X80645000Y-87470000D03*
X79375000Y-87470000D03*
X78105000Y-87470000D03*
X76835000Y-87470000D03*
X75565000Y-87470000D03*
X74295000Y-87470000D03*
X73025000Y-87470000D03*
X73025000Y-92870000D03*
X74295000Y-92870000D03*
X75565000Y-92870000D03*
X76835000Y-92870000D03*
X78105000Y-92870000D03*
X79375000Y-92870000D03*
X80645000Y-92870000D03*
M02*
