G04 #@! TF.FileFunction,Copper,L1,Top,Signal*
%FSLAX46Y46*%
G04 Gerber Fmt 4.6, Leading zero omitted, Abs format (unit mm)*
G04 Created by KiCad (PCBNEW 4.0.7) date 03/08/18 15:58:25*
%MOMM*%
%LPD*%
G01*
G04 APERTURE LIST*
%ADD10C,0.100000*%
%ADD11R,2.400000X2.400000*%
%ADD12C,2.400000*%
%ADD13R,4.780000X0.500000*%
%ADD14R,4.780000X2.780000*%
%ADD15R,13.000000X4.750000*%
%ADD16R,1.600000X1.000000*%
%ADD17R,2.000000X3.800000*%
%ADD18R,2.000000X1.500000*%
%ADD19R,2.082800X3.810000*%
%ADD20R,11.430000X8.890000*%
%ADD21R,2.750000X3.050000*%
%ADD22R,2.794000X2.209800*%
%ADD23R,2.794000X2.794000*%
%ADD24C,1.701800*%
%ADD25R,1.700000X0.900000*%
%ADD26C,6.400000*%
%ADD27R,0.500000X0.900000*%
%ADD28R,0.900000X0.500000*%
%ADD29R,2.200000X1.200000*%
%ADD30R,6.400000X5.800000*%
%ADD31R,3.050000X2.750000*%
%ADD32R,1.700000X1.700000*%
%ADD33O,1.700000X1.700000*%
%ADD34R,4.000000X4.000000*%
%ADD35R,3.300000X2.500000*%
%ADD36R,1.000000X0.900000*%
%ADD37R,0.750000X0.800000*%
%ADD38R,1.600000X3.500000*%
%ADD39R,0.600000X1.500000*%
%ADD40R,2.500000X3.300000*%
%ADD41R,0.900000X1.700000*%
%ADD42R,0.650000X0.400000*%
%ADD43R,3.000000X1.000000*%
%ADD44C,0.609600*%
%ADD45C,1.270000*%
%ADD46C,1.016000*%
%ADD47C,1.524000*%
%ADD48C,0.254000*%
%ADD49C,0.508000*%
G04 APERTURE END LIST*
D10*
D11*
X43180000Y-74930000D03*
D12*
X43180000Y-69930000D03*
D13*
X53975000Y-67799000D03*
X53975000Y-63519000D03*
D14*
X53975000Y-65659000D03*
D13*
X71501000Y-73641000D03*
X71501000Y-69361000D03*
D14*
X71501000Y-71501000D03*
D15*
X35560000Y-84910000D03*
X35560000Y-94160000D03*
D16*
X38735000Y-98830000D03*
X38735000Y-101830000D03*
X28987750Y-64978148D03*
X28987750Y-67978148D03*
X76200000Y-99290000D03*
X76200000Y-96290000D03*
D17*
X85700000Y-95885000D03*
D18*
X79400000Y-95885000D03*
X79400000Y-98185000D03*
X79400000Y-93585000D03*
D19*
X40513000Y-66421000D03*
X45593000Y-66421000D03*
D20*
X43053000Y-54864000D03*
D21*
X44578000Y-53248000D03*
X41528000Y-56598000D03*
X41528000Y-53248000D03*
X44578000Y-56598000D03*
D22*
X89636600Y-107365800D03*
D23*
X97053400Y-99974400D03*
D22*
X97053400Y-109372400D03*
D24*
X93345000Y-101244400D03*
X93345000Y-108254800D03*
D25*
X57912000Y-91366000D03*
X57912000Y-88466000D03*
D26*
X107315000Y-29845000D03*
X29845000Y-29845000D03*
X107315000Y-107315000D03*
X29845000Y-107315000D03*
D27*
X61710000Y-91440000D03*
X60210000Y-91440000D03*
D28*
X30480000Y-74180000D03*
X30480000Y-75680000D03*
X28575000Y-75680000D03*
X28575000Y-74180000D03*
D27*
X36334000Y-64008000D03*
X37834000Y-64008000D03*
X33135000Y-69850000D03*
X31635000Y-69850000D03*
X84316000Y-104648000D03*
X82816000Y-104648000D03*
X79871000Y-106172000D03*
X78371000Y-106172000D03*
D29*
X30090000Y-72650000D03*
X30090000Y-77210000D03*
D30*
X36390000Y-74930000D03*
D31*
X38065000Y-76455000D03*
X34715000Y-73405000D03*
X38065000Y-73405000D03*
X34715000Y-76455000D03*
D32*
X74930000Y-109474000D03*
D33*
X72390000Y-109474000D03*
X69850000Y-109474000D03*
X67310000Y-109474000D03*
X64770000Y-109474000D03*
X62230000Y-109474000D03*
D34*
X53975000Y-97790000D03*
X53975000Y-103790000D03*
X58675000Y-100790000D03*
D35*
X46355000Y-77880000D03*
X46355000Y-84680000D03*
D36*
X84235000Y-108528000D03*
X82135000Y-108528000D03*
X83185000Y-110928000D03*
D37*
X35560000Y-100445000D03*
X35560000Y-98945000D03*
X30892750Y-67228148D03*
X30892750Y-65728148D03*
X74041000Y-97802000D03*
X74041000Y-99302000D03*
X63500000Y-91325000D03*
X63500000Y-92825000D03*
D38*
X44450000Y-100170000D03*
X44450000Y-105570000D03*
D39*
X72390000Y-100805000D03*
X71120000Y-100805000D03*
X69850000Y-100805000D03*
X68580000Y-100805000D03*
X67310000Y-100805000D03*
X66040000Y-100805000D03*
X64770000Y-100805000D03*
X64770000Y-106205000D03*
X66040000Y-106205000D03*
X67310000Y-106205000D03*
X68580000Y-106205000D03*
X69850000Y-106205000D03*
X71120000Y-106205000D03*
X72390000Y-106205000D03*
D28*
X88646000Y-99580000D03*
X88646000Y-101080000D03*
X88646000Y-103390000D03*
X88646000Y-104890000D03*
D13*
X53975000Y-85325000D03*
X53975000Y-81045000D03*
D14*
X53975000Y-83185000D03*
D13*
X53975000Y-79483000D03*
X53975000Y-75203000D03*
D14*
X53975000Y-77343000D03*
D13*
X53975000Y-73641000D03*
X53975000Y-69361000D03*
D14*
X53975000Y-71501000D03*
D13*
X53975000Y-61957000D03*
X53975000Y-57677000D03*
D14*
X53975000Y-59817000D03*
D13*
X53975000Y-56115000D03*
X53975000Y-51835000D03*
D14*
X53975000Y-53975000D03*
D13*
X59817000Y-85325000D03*
X59817000Y-81045000D03*
D14*
X59817000Y-83185000D03*
D13*
X59817000Y-79483000D03*
X59817000Y-75203000D03*
D14*
X59817000Y-77343000D03*
D13*
X59817000Y-73641000D03*
X59817000Y-69361000D03*
D14*
X59817000Y-71501000D03*
D13*
X59817000Y-67799000D03*
X59817000Y-63519000D03*
D14*
X59817000Y-65659000D03*
D13*
X59817000Y-61957000D03*
X59817000Y-57677000D03*
D14*
X59817000Y-59817000D03*
D13*
X59817000Y-56115000D03*
X59817000Y-51835000D03*
D14*
X59817000Y-53975000D03*
D13*
X65659000Y-85325000D03*
X65659000Y-81045000D03*
D14*
X65659000Y-83185000D03*
D13*
X65659000Y-79483000D03*
X65659000Y-75203000D03*
D14*
X65659000Y-77343000D03*
D13*
X65659000Y-73641000D03*
X65659000Y-69361000D03*
D14*
X65659000Y-71501000D03*
D13*
X65659000Y-67799000D03*
X65659000Y-63519000D03*
D14*
X65659000Y-65659000D03*
D13*
X65659000Y-61957000D03*
X65659000Y-57677000D03*
D14*
X65659000Y-59817000D03*
D13*
X65659000Y-56115000D03*
X65659000Y-51835000D03*
D14*
X65659000Y-53975000D03*
D13*
X71501000Y-85325000D03*
X71501000Y-81045000D03*
D14*
X71501000Y-83185000D03*
D13*
X71501000Y-79483000D03*
X71501000Y-75203000D03*
D14*
X71501000Y-77343000D03*
D13*
X71501000Y-67799000D03*
X71501000Y-63519000D03*
D14*
X71501000Y-65659000D03*
D13*
X71501000Y-61957000D03*
X71501000Y-57677000D03*
D14*
X71501000Y-59817000D03*
D13*
X71501000Y-56115000D03*
X71501000Y-51835000D03*
D14*
X71501000Y-53975000D03*
D40*
X73250000Y-93345000D03*
X66450000Y-93345000D03*
D13*
X77343000Y-85325000D03*
X77343000Y-81045000D03*
D14*
X77343000Y-83185000D03*
D41*
X38692750Y-66478148D03*
X35792750Y-66478148D03*
D28*
X63627000Y-96635000D03*
X63627000Y-95135000D03*
D42*
X32482750Y-65828148D03*
X32482750Y-67128148D03*
X34382750Y-66478148D03*
X32482750Y-66478148D03*
X34382750Y-67128148D03*
X34382750Y-65828148D03*
D28*
X43815000Y-90055000D03*
X43815000Y-91555000D03*
D43*
X46355000Y-74690000D03*
X46355000Y-70090000D03*
D13*
X77343000Y-79483000D03*
X77343000Y-75203000D03*
D14*
X77343000Y-77343000D03*
D13*
X77343000Y-73641000D03*
X77343000Y-69361000D03*
D14*
X77343000Y-71501000D03*
D13*
X77343000Y-67799000D03*
X77343000Y-63519000D03*
D14*
X77343000Y-65659000D03*
D13*
X77343000Y-61957000D03*
X77343000Y-57677000D03*
D14*
X77343000Y-59817000D03*
D13*
X77343000Y-56115000D03*
X77343000Y-51835000D03*
D14*
X77343000Y-53975000D03*
D13*
X83185000Y-85325000D03*
X83185000Y-81045000D03*
D14*
X83185000Y-83185000D03*
D13*
X83185000Y-79483000D03*
X83185000Y-75203000D03*
D14*
X83185000Y-77343000D03*
D13*
X83185000Y-73641000D03*
X83185000Y-69361000D03*
D14*
X83185000Y-71501000D03*
D13*
X83185000Y-67799000D03*
X83185000Y-63519000D03*
D14*
X83185000Y-65659000D03*
D13*
X83185000Y-61957000D03*
X83185000Y-57677000D03*
D14*
X83185000Y-59817000D03*
D13*
X83185000Y-56115000D03*
X83185000Y-51835000D03*
D14*
X83185000Y-53975000D03*
D44*
X61468000Y-93980000D03*
D45*
X26670000Y-66675000D03*
X31242000Y-99060000D03*
D44*
X62484000Y-91440000D03*
X42545000Y-90170000D03*
X33782000Y-69850000D03*
X28702000Y-77724000D03*
X28702000Y-76708000D03*
X29210000Y-78232000D03*
X30734000Y-78232000D03*
X31369000Y-74168000D03*
X35560000Y-64008000D03*
X28956000Y-68834000D03*
X30861000Y-68072000D03*
X32385000Y-67691000D03*
X84074000Y-96774000D03*
X84074000Y-94996000D03*
X84074000Y-95885000D03*
X81280000Y-95885000D03*
X76200000Y-97409000D03*
X73152000Y-97409000D03*
X72390000Y-107569000D03*
X94996000Y-109347000D03*
X82042000Y-110998000D03*
X35560000Y-101473000D03*
X38735000Y-102997000D03*
X44450000Y-108204000D03*
X42926000Y-105537000D03*
X45847000Y-105537000D03*
X73914000Y-105918000D03*
X73914000Y-101346000D03*
X62738000Y-105410000D03*
X67056000Y-103886000D03*
X87122000Y-102108000D03*
X87122000Y-100076000D03*
X66040000Y-99568000D03*
X60452000Y-92964000D03*
X86106000Y-83185000D03*
X80264000Y-83185000D03*
X74422000Y-83185000D03*
X68580000Y-83185000D03*
X62738000Y-83185000D03*
X56896000Y-83185000D03*
X86106000Y-77343000D03*
X80264000Y-77343000D03*
X74422000Y-77343000D03*
X68580000Y-77343000D03*
X62738000Y-77343000D03*
X56896000Y-77343000D03*
X86106000Y-71501000D03*
X80264000Y-71501000D03*
X74422000Y-71501000D03*
X68580000Y-71501000D03*
X62738000Y-71501000D03*
X56896000Y-71501000D03*
X86106000Y-65659000D03*
X80264000Y-65659000D03*
X74422000Y-65659000D03*
X68580000Y-65659000D03*
X62738000Y-65659000D03*
X56896000Y-65659000D03*
X86106000Y-59817000D03*
X80264000Y-59817000D03*
X74422000Y-59817000D03*
X68580000Y-59817000D03*
X62738000Y-59817000D03*
X56896000Y-59817000D03*
X80264000Y-53975000D03*
X68580000Y-53975000D03*
X56896000Y-53975000D03*
X62738000Y-53975000D03*
X74422000Y-53975000D03*
X86106000Y-53975000D03*
X40894000Y-110998000D03*
X38862000Y-108966000D03*
X65024000Y-102870000D03*
X62230000Y-99822000D03*
D46*
X63500000Y-92825000D02*
X65930000Y-92825000D01*
X65930000Y-92825000D02*
X66450000Y-93345000D01*
X63500000Y-92825000D02*
X62623000Y-92825000D01*
X62623000Y-92825000D02*
X61468000Y-93980000D01*
D47*
X26670000Y-66675000D02*
X28366852Y-64978148D01*
X28366852Y-64978148D02*
X28987750Y-64978148D01*
X31357000Y-98945000D02*
X31242000Y-99060000D01*
X35560000Y-98945000D02*
X31357000Y-98945000D01*
D48*
X32482750Y-65828148D02*
X30992750Y-65828148D01*
X30992750Y-65828148D02*
X30892750Y-65728148D01*
D46*
X30892750Y-65728148D02*
X29737750Y-65728148D01*
X29737750Y-65728148D02*
X28987750Y-64978148D01*
D48*
X30992750Y-65828148D02*
X30892750Y-65728148D01*
D49*
X63500000Y-91325000D02*
X62599000Y-91325000D01*
X62484000Y-91440000D02*
X61710000Y-91440000D01*
X62599000Y-91325000D02*
X62484000Y-91440000D01*
X43815000Y-90055000D02*
X42660000Y-90055000D01*
X42660000Y-90055000D02*
X42545000Y-90170000D01*
X33135000Y-69850000D02*
X33782000Y-69850000D01*
X30090000Y-77210000D02*
X29216000Y-77210000D01*
X29216000Y-77210000D02*
X28702000Y-77724000D01*
X30090000Y-77210000D02*
X29204000Y-77210000D01*
X29204000Y-77210000D02*
X28702000Y-76708000D01*
X30090000Y-77210000D02*
X30090000Y-77352000D01*
X30090000Y-77352000D02*
X29210000Y-78232000D01*
X30090000Y-77210000D02*
X30090000Y-77588000D01*
X30090000Y-77588000D02*
X30734000Y-78232000D01*
X30480000Y-74180000D02*
X31357000Y-74180000D01*
X31357000Y-74180000D02*
X31369000Y-74168000D01*
D48*
X36334000Y-64008000D02*
X35560000Y-64008000D01*
X28987750Y-67978148D02*
X28987750Y-68802250D01*
X28987750Y-68802250D02*
X28956000Y-68834000D01*
X30892750Y-67228148D02*
X30892750Y-68040250D01*
X30892750Y-68040250D02*
X30861000Y-68072000D01*
X32482750Y-67128148D02*
X32482750Y-67593250D01*
X32482750Y-67593250D02*
X32385000Y-67691000D01*
X32482750Y-67128148D02*
X30992750Y-67128148D01*
X30992750Y-67128148D02*
X30892750Y-67228148D01*
D46*
X30892750Y-67228148D02*
X29737750Y-67228148D01*
X29737750Y-67228148D02*
X28987750Y-67978148D01*
D49*
X85700000Y-95885000D02*
X84963000Y-95885000D01*
X84963000Y-95885000D02*
X84074000Y-96774000D01*
X84963000Y-95885000D02*
X84074000Y-94996000D01*
X85700000Y-95885000D02*
X84074000Y-95885000D01*
X79400000Y-95885000D02*
X81280000Y-95885000D01*
X76200000Y-96290000D02*
X76200000Y-97409000D01*
X74041000Y-97802000D02*
X73545000Y-97802000D01*
X73545000Y-97802000D02*
X73152000Y-97409000D01*
X72390000Y-106205000D02*
X72390000Y-107569000D01*
X97053400Y-109372400D02*
X95021400Y-109372400D01*
X95021400Y-109372400D02*
X94996000Y-109347000D01*
X83185000Y-110928000D02*
X82112000Y-110928000D01*
X82112000Y-110928000D02*
X82042000Y-110998000D01*
X35560000Y-100445000D02*
X35560000Y-101473000D01*
X38735000Y-101830000D02*
X38735000Y-102997000D01*
D46*
X44450000Y-105570000D02*
X44450000Y-108204000D01*
X44450000Y-105570000D02*
X42959000Y-105570000D01*
X42959000Y-105570000D02*
X42926000Y-105537000D01*
X44450000Y-105570000D02*
X45814000Y-105570000D01*
X45814000Y-105570000D02*
X45847000Y-105537000D01*
D48*
X30992750Y-67128148D02*
X30892750Y-67228148D01*
D49*
X74041000Y-99302000D02*
X76188000Y-99302000D01*
X76188000Y-99302000D02*
X76200000Y-99290000D01*
D48*
X74041000Y-100203000D02*
X74041000Y-101219000D01*
X71374000Y-110998000D02*
X69850000Y-109474000D01*
X72898000Y-110998000D02*
X71374000Y-110998000D01*
X73660000Y-110236000D02*
X72898000Y-110998000D01*
X73660000Y-106172000D02*
X73660000Y-110236000D01*
X73914000Y-105918000D02*
X73660000Y-106172000D01*
X74041000Y-101219000D02*
X73914000Y-101346000D01*
D49*
X73406000Y-99314000D02*
X73406000Y-99060000D01*
X70981000Y-96635000D02*
X63627000Y-96635000D01*
X73406000Y-99060000D02*
X70981000Y-96635000D01*
X88646000Y-101080000D02*
X88646000Y-103390000D01*
X74041000Y-99302000D02*
X74041000Y-100203000D01*
X74918000Y-101080000D02*
X88646000Y-101080000D01*
X74041000Y-100203000D02*
X74918000Y-101080000D01*
X72390000Y-100805000D02*
X72390000Y-100330000D01*
X72390000Y-100330000D02*
X73406000Y-99314000D01*
X73406000Y-99314000D02*
X73430000Y-99290000D01*
X73430000Y-99290000D02*
X74029000Y-99290000D01*
X74029000Y-99290000D02*
X74041000Y-99302000D01*
D46*
X79400000Y-98185000D02*
X78345000Y-98185000D01*
X77240000Y-99290000D02*
X74053000Y-99290000D01*
X78345000Y-98185000D02*
X77240000Y-99290000D01*
X74053000Y-99290000D02*
X74041000Y-99302000D01*
D49*
X84316000Y-104648000D02*
X85598000Y-104648000D01*
X85020000Y-108528000D02*
X84235000Y-108528000D01*
X85852000Y-107696000D02*
X85020000Y-108528000D01*
X85852000Y-104902000D02*
X85852000Y-107696000D01*
X85598000Y-104648000D02*
X85852000Y-104902000D01*
X82135000Y-108528000D02*
X81096000Y-108528000D01*
X79871000Y-107303000D02*
X79871000Y-106172000D01*
X81096000Y-108528000D02*
X79871000Y-107303000D01*
D48*
X66040000Y-106205000D02*
X66040000Y-107442000D01*
X70612000Y-107696000D02*
X72390000Y-109474000D01*
X66294000Y-107696000D02*
X70612000Y-107696000D01*
X66040000Y-107442000D02*
X66294000Y-107696000D01*
X67310000Y-109474000D02*
X67056000Y-109474000D01*
X67056000Y-109474000D02*
X64770000Y-107188000D01*
X64770000Y-107188000D02*
X64770000Y-106205000D01*
X68580000Y-100805000D02*
X68580000Y-102362000D01*
X62230000Y-105918000D02*
X62230000Y-109474000D01*
X62738000Y-105410000D02*
X62230000Y-105918000D01*
X68580000Y-102362000D02*
X67056000Y-103886000D01*
X62230000Y-109220000D02*
X62230000Y-109474000D01*
D49*
X88646000Y-99580000D02*
X87618000Y-99580000D01*
X71120000Y-101600000D02*
X71120000Y-100805000D01*
X71882000Y-102362000D02*
X71120000Y-101600000D01*
X86868000Y-102362000D02*
X71882000Y-102362000D01*
X87122000Y-102108000D02*
X86868000Y-102362000D01*
X87618000Y-99580000D02*
X87122000Y-100076000D01*
X97053400Y-99974400D02*
X95402400Y-99974400D01*
X95008000Y-99580000D02*
X88646000Y-99580000D01*
X95402400Y-99974400D02*
X95008000Y-99580000D01*
X88646000Y-104890000D02*
X87364000Y-104890000D01*
X69850000Y-102362000D02*
X69850000Y-100805000D01*
X70866000Y-103378000D02*
X69850000Y-102362000D01*
X85852000Y-103378000D02*
X70866000Y-103378000D01*
X87364000Y-104890000D02*
X85852000Y-103378000D01*
X88646000Y-104890000D02*
X88646000Y-106375200D01*
X88646000Y-106375200D02*
X89636600Y-107365800D01*
X57912000Y-88466000D02*
X57912000Y-86360000D01*
X57912000Y-86360000D02*
X58947000Y-85325000D01*
X58947000Y-85325000D02*
X59817000Y-85325000D01*
X28575000Y-74180000D02*
X28575000Y-73660000D01*
X28575000Y-73660000D02*
X29585000Y-72650000D01*
X29585000Y-72650000D02*
X30090000Y-72650000D01*
D46*
X38692750Y-66478148D02*
X40455852Y-66478148D01*
X40455852Y-66478148D02*
X40513000Y-66421000D01*
D48*
X38692750Y-66478148D02*
X38692750Y-64600750D01*
X38100000Y-64008000D02*
X37834000Y-64008000D01*
X38692750Y-64600750D02*
X38100000Y-64008000D01*
D49*
X38500750Y-66670148D02*
X38692750Y-66478148D01*
D48*
X60210000Y-91440000D02*
X60210000Y-92722000D01*
X66040000Y-99568000D02*
X66040000Y-100805000D01*
X60210000Y-92722000D02*
X60452000Y-92964000D01*
D49*
X60210000Y-91440000D02*
X57986000Y-91440000D01*
X57986000Y-91440000D02*
X57912000Y-91366000D01*
X71120000Y-106205000D02*
X71120000Y-105664000D01*
X71120000Y-105664000D02*
X71882000Y-104902000D01*
X71882000Y-104902000D02*
X76708000Y-104902000D01*
X76708000Y-104902000D02*
X77978000Y-106172000D01*
X77978000Y-106172000D02*
X78371000Y-106172000D01*
D48*
X31635000Y-69850000D02*
X31750000Y-69850000D01*
X31750000Y-69850000D02*
X33274000Y-68326000D01*
X32950148Y-66478148D02*
X32482750Y-66478148D01*
X33274000Y-66802000D02*
X32950148Y-66478148D01*
X33274000Y-68326000D02*
X33274000Y-66802000D01*
D49*
X31635000Y-69850000D02*
X26670000Y-69850000D01*
X26162000Y-97790000D02*
X26162000Y-70358000D01*
X67310000Y-99314000D02*
X66294000Y-98298000D01*
X66294000Y-98298000D02*
X65024000Y-98298000D01*
X65024000Y-98298000D02*
X61468000Y-101854000D01*
X61468000Y-101854000D02*
X61468000Y-104140000D01*
X67310000Y-99314000D02*
X67310000Y-100805000D01*
X55626000Y-109982000D02*
X38354000Y-109982000D01*
X61468000Y-104140000D02*
X55626000Y-109982000D01*
X38354000Y-109982000D02*
X26162000Y-97790000D01*
X26162000Y-70358000D02*
X26670000Y-69850000D01*
D48*
X53975000Y-83185000D02*
X56896000Y-83185000D01*
X74422000Y-83185000D02*
X80264000Y-83185000D01*
X62738000Y-83185000D02*
X68580000Y-83185000D01*
X53975000Y-77343000D02*
X56896000Y-77343000D01*
X74422000Y-77343000D02*
X80264000Y-77343000D01*
X62738000Y-77343000D02*
X68580000Y-77343000D01*
X53975000Y-71501000D02*
X56896000Y-71501000D01*
X74422000Y-71501000D02*
X80264000Y-71501000D01*
X62738000Y-71501000D02*
X68580000Y-71501000D01*
X53975000Y-65659000D02*
X56896000Y-65659000D01*
X74422000Y-65659000D02*
X80264000Y-65659000D01*
X62738000Y-65659000D02*
X68580000Y-65659000D01*
X53975000Y-59817000D02*
X56896000Y-59817000D01*
X74422000Y-59817000D02*
X80264000Y-59817000D01*
X62738000Y-59817000D02*
X68580000Y-59817000D01*
X56896000Y-53975000D02*
X53975000Y-53975000D01*
D49*
X28575000Y-75680000D02*
X30480000Y-75680000D01*
X27178000Y-97282000D02*
X27178000Y-76327000D01*
X27825000Y-75680000D02*
X28575000Y-75680000D01*
X27178000Y-76327000D02*
X27825000Y-75680000D01*
X38862000Y-108966000D02*
X27178000Y-97282000D01*
X63246000Y-103632000D02*
X55880000Y-110998000D01*
X63754000Y-103632000D02*
X63246000Y-103632000D01*
X55880000Y-110998000D02*
X40894000Y-110998000D01*
X64770000Y-100805000D02*
X64770000Y-101854000D01*
X63754000Y-108458000D02*
X64770000Y-109474000D01*
X63754000Y-102870000D02*
X63754000Y-103632000D01*
X63754000Y-103632000D02*
X63754000Y-108458000D01*
X64770000Y-101854000D02*
X63754000Y-102870000D01*
D48*
X69850000Y-106205000D02*
X69850000Y-105156000D01*
X82308000Y-104140000D02*
X82816000Y-104648000D01*
X70866000Y-104140000D02*
X82308000Y-104140000D01*
X69850000Y-105156000D02*
X70866000Y-104140000D01*
D46*
X79400000Y-93585000D02*
X79400000Y-93370000D01*
X79400000Y-93370000D02*
X78740000Y-92710000D01*
X78740000Y-92710000D02*
X73123000Y-92710000D01*
D48*
X34382750Y-67128148D02*
X35142750Y-67128148D01*
X35142750Y-67128148D02*
X35792750Y-66478148D01*
X34814750Y-65828148D02*
X35142750Y-65828148D01*
X35142750Y-65828148D02*
X35792750Y-66478148D01*
X35792750Y-66478148D02*
X35464750Y-66478148D01*
X35464750Y-66478148D02*
X35210750Y-66224148D01*
X34382750Y-65828148D02*
X34814750Y-65828148D01*
X35210750Y-66224148D02*
X35210750Y-66478148D01*
X34814750Y-65828148D02*
X35210750Y-66224148D01*
X35464750Y-66478148D02*
X35210750Y-66732148D01*
X34382750Y-67128148D02*
X34814750Y-67128148D01*
X35210750Y-66478148D02*
X35792750Y-66478148D01*
X35210750Y-66732148D02*
X35210750Y-66478148D01*
X34814750Y-67128148D02*
X35210750Y-66732148D01*
X43815000Y-91555000D02*
X54979000Y-91555000D01*
X62484000Y-94996000D02*
X63488000Y-94996000D01*
X61976000Y-95504000D02*
X62484000Y-94996000D01*
X58928000Y-95504000D02*
X61976000Y-95504000D01*
X54979000Y-91555000D02*
X58928000Y-95504000D01*
X63488000Y-94996000D02*
X63627000Y-95135000D01*
X62230000Y-95504000D02*
X62230000Y-99822000D01*
X67310000Y-105156000D02*
X65024000Y-102870000D01*
X62230000Y-95504000D02*
X62599000Y-95135000D01*
X63627000Y-95135000D02*
X62599000Y-95135000D01*
X67310000Y-105156000D02*
X67310000Y-106205000D01*
G36*
X43223810Y-90943103D02*
X43094135Y-91026546D01*
X43007141Y-91153866D01*
X42976536Y-91305000D01*
X42976536Y-91805000D01*
X43003103Y-91946190D01*
X43086546Y-92075865D01*
X43213866Y-92162859D01*
X43365000Y-92193464D01*
X44265000Y-92193464D01*
X44406190Y-92166897D01*
X44535865Y-92083454D01*
X44549841Y-92063000D01*
X54768580Y-92063000D01*
X56388000Y-93682420D01*
X56388000Y-95304974D01*
X56334699Y-95251673D01*
X56101310Y-95155000D01*
X55133750Y-95155000D01*
X54975000Y-95313750D01*
X54975000Y-96790000D01*
X55138000Y-96790000D01*
X55138000Y-98790000D01*
X54975000Y-98790000D01*
X54975000Y-100266250D01*
X55133750Y-100425000D01*
X56101310Y-100425000D01*
X56286536Y-100348277D01*
X56286536Y-101570546D01*
X56253454Y-101519135D01*
X56126134Y-101432141D01*
X55975000Y-101401536D01*
X51975000Y-101401536D01*
X51833810Y-101428103D01*
X51704135Y-101511546D01*
X51617141Y-101638866D01*
X51586536Y-101790000D01*
X51586536Y-105790000D01*
X51613103Y-105931190D01*
X51696546Y-106060865D01*
X51823866Y-106147859D01*
X51975000Y-106178464D01*
X55975000Y-106178464D01*
X56116190Y-106151897D01*
X56245865Y-106068454D01*
X56332859Y-105941134D01*
X56363464Y-105790000D01*
X56363464Y-103009454D01*
X56388000Y-103047584D01*
X56388000Y-108321974D01*
X55362974Y-109347000D01*
X39446368Y-109347000D01*
X39547681Y-109103013D01*
X39547919Y-108830184D01*
X39443732Y-108578033D01*
X39250982Y-108384946D01*
X39127838Y-108333812D01*
X36331026Y-105537000D01*
X42037000Y-105537000D01*
X42104671Y-105877205D01*
X42297382Y-106165618D01*
X42330382Y-106198618D01*
X42618794Y-106391329D01*
X42959000Y-106459000D01*
X43261536Y-106459000D01*
X43261536Y-107320000D01*
X43288103Y-107461190D01*
X43371546Y-107590865D01*
X43498866Y-107677859D01*
X43561000Y-107690441D01*
X43561000Y-108204000D01*
X43628671Y-108544206D01*
X43821382Y-108832618D01*
X44109794Y-109025329D01*
X44450000Y-109093000D01*
X44790206Y-109025329D01*
X45078618Y-108832618D01*
X45271329Y-108544206D01*
X45339000Y-108204000D01*
X45339000Y-107691717D01*
X45391190Y-107681897D01*
X45520865Y-107598454D01*
X45607859Y-107471134D01*
X45638464Y-107320000D01*
X45638464Y-106459000D01*
X45814000Y-106459000D01*
X46154206Y-106391329D01*
X46442618Y-106198618D01*
X46475618Y-106165618D01*
X46668329Y-105877205D01*
X46736000Y-105537000D01*
X46668329Y-105196795D01*
X46475618Y-104908382D01*
X46187205Y-104715671D01*
X45847000Y-104648000D01*
X45681098Y-104681000D01*
X45638464Y-104681000D01*
X45638464Y-103820000D01*
X45611897Y-103678810D01*
X45528454Y-103549135D01*
X45401134Y-103462141D01*
X45250000Y-103431536D01*
X43650000Y-103431536D01*
X43508810Y-103458103D01*
X43379135Y-103541546D01*
X43292141Y-103668866D01*
X43261536Y-103820000D01*
X43261536Y-104681000D01*
X43091902Y-104681000D01*
X42926000Y-104648000D01*
X42585795Y-104715671D01*
X42297382Y-104908382D01*
X42104671Y-105196795D01*
X42037000Y-105537000D01*
X36331026Y-105537000D01*
X30139026Y-99345000D01*
X34416998Y-99345000D01*
X34416998Y-99980000D01*
X34809699Y-99980000D01*
X34796536Y-100045000D01*
X34796536Y-100845000D01*
X34823103Y-100986190D01*
X34906546Y-101115865D01*
X34925000Y-101128474D01*
X34925000Y-101213934D01*
X34874319Y-101335987D01*
X34874081Y-101608816D01*
X34978268Y-101860967D01*
X35171018Y-102054054D01*
X35422987Y-102158681D01*
X35695816Y-102158919D01*
X35947967Y-102054732D01*
X36141054Y-101861982D01*
X36245681Y-101610013D01*
X36245919Y-101337184D01*
X36242951Y-101330000D01*
X37546536Y-101330000D01*
X37546536Y-102330000D01*
X37573103Y-102471190D01*
X37656546Y-102600865D01*
X37783866Y-102687859D01*
X37935000Y-102718464D01*
X38100000Y-102718464D01*
X38100000Y-102737934D01*
X38049319Y-102859987D01*
X38049081Y-103132816D01*
X38153268Y-103384967D01*
X38346018Y-103578054D01*
X38597987Y-103682681D01*
X38870816Y-103682919D01*
X39122967Y-103578732D01*
X39316054Y-103385982D01*
X39420681Y-103134013D01*
X39420919Y-102861184D01*
X39370000Y-102737951D01*
X39370000Y-102718464D01*
X39535000Y-102718464D01*
X39676190Y-102691897D01*
X39805865Y-102608454D01*
X39892859Y-102481134D01*
X39923464Y-102330000D01*
X39923464Y-101330000D01*
X39899709Y-101203750D01*
X43015000Y-101203750D01*
X43015000Y-102046309D01*
X43111673Y-102279698D01*
X43290301Y-102458327D01*
X43523690Y-102555000D01*
X43891250Y-102555000D01*
X44050000Y-102396250D01*
X44050000Y-101045000D01*
X44850000Y-101045000D01*
X44850000Y-102396250D01*
X45008750Y-102555000D01*
X45376310Y-102555000D01*
X45609699Y-102458327D01*
X45788327Y-102279698D01*
X45885000Y-102046309D01*
X45885000Y-101203750D01*
X45726250Y-101045000D01*
X44850000Y-101045000D01*
X44050000Y-101045000D01*
X43173750Y-101045000D01*
X43015000Y-101203750D01*
X39899709Y-101203750D01*
X39896897Y-101188810D01*
X39813454Y-101059135D01*
X39686134Y-100972141D01*
X39535000Y-100941536D01*
X37935000Y-100941536D01*
X37793810Y-100968103D01*
X37664135Y-101051546D01*
X37577141Y-101178866D01*
X37546536Y-101330000D01*
X36242951Y-101330000D01*
X36195000Y-101213951D01*
X36195000Y-101130445D01*
X36205865Y-101123454D01*
X36292859Y-100996134D01*
X36323464Y-100845000D01*
X36323464Y-100045000D01*
X36311233Y-99980000D01*
X36703002Y-99980000D01*
X36703002Y-99345000D01*
X36570000Y-99345000D01*
X36570000Y-99303750D01*
X36505000Y-99238750D01*
X37300000Y-99238750D01*
X37300000Y-99456309D01*
X37396673Y-99689698D01*
X37575301Y-99868327D01*
X37808690Y-99965000D01*
X38176250Y-99965000D01*
X38335000Y-99806250D01*
X38335000Y-99080000D01*
X39135000Y-99080000D01*
X39135000Y-99806250D01*
X39293750Y-99965000D01*
X39661310Y-99965000D01*
X39894699Y-99868327D01*
X40073327Y-99689698D01*
X40170000Y-99456309D01*
X40170000Y-99238750D01*
X40011250Y-99080000D01*
X39135000Y-99080000D01*
X38335000Y-99080000D01*
X37458750Y-99080000D01*
X37300000Y-99238750D01*
X36505000Y-99238750D01*
X36411250Y-99145000D01*
X35747500Y-99145000D01*
X35747500Y-99345000D01*
X35372500Y-99345000D01*
X35372500Y-99145000D01*
X34708750Y-99145000D01*
X34550000Y-99303750D01*
X34550000Y-99345000D01*
X34416998Y-99345000D01*
X30139026Y-99345000D01*
X29212717Y-98418691D01*
X34550000Y-98418691D01*
X34550000Y-98586250D01*
X34708750Y-98745000D01*
X35372500Y-98745000D01*
X35372500Y-98068750D01*
X35747500Y-98068750D01*
X35747500Y-98745000D01*
X36411250Y-98745000D01*
X36570000Y-98586250D01*
X36570000Y-98418691D01*
X36480944Y-98203691D01*
X37300000Y-98203691D01*
X37300000Y-98421250D01*
X37458750Y-98580000D01*
X38335000Y-98580000D01*
X38335000Y-97853750D01*
X39135000Y-97853750D01*
X39135000Y-98580000D01*
X40011250Y-98580000D01*
X40170000Y-98421250D01*
X40170000Y-98293691D01*
X43015000Y-98293691D01*
X43015000Y-99136250D01*
X43173750Y-99295000D01*
X44050000Y-99295000D01*
X44050000Y-97943750D01*
X44850000Y-97943750D01*
X44850000Y-99295000D01*
X45726250Y-99295000D01*
X45885000Y-99136250D01*
X45885000Y-98948750D01*
X51340000Y-98948750D01*
X51340000Y-99916309D01*
X51436673Y-100149698D01*
X51615301Y-100328327D01*
X51848690Y-100425000D01*
X52816250Y-100425000D01*
X52975000Y-100266250D01*
X52975000Y-98790000D01*
X51498750Y-98790000D01*
X51340000Y-98948750D01*
X45885000Y-98948750D01*
X45885000Y-98293691D01*
X45788327Y-98060302D01*
X45609699Y-97881673D01*
X45376310Y-97785000D01*
X45008750Y-97785000D01*
X44850000Y-97943750D01*
X44050000Y-97943750D01*
X43891250Y-97785000D01*
X43523690Y-97785000D01*
X43290301Y-97881673D01*
X43111673Y-98060302D01*
X43015000Y-98293691D01*
X40170000Y-98293691D01*
X40170000Y-98203691D01*
X40073327Y-97970302D01*
X39894699Y-97791673D01*
X39661310Y-97695000D01*
X39293750Y-97695000D01*
X39135000Y-97853750D01*
X38335000Y-97853750D01*
X38176250Y-97695000D01*
X37808690Y-97695000D01*
X37575301Y-97791673D01*
X37396673Y-97970302D01*
X37300000Y-98203691D01*
X36480944Y-98203691D01*
X36473327Y-98185302D01*
X36294699Y-98006673D01*
X36061310Y-97910000D01*
X35906250Y-97910000D01*
X35747500Y-98068750D01*
X35372500Y-98068750D01*
X35213750Y-97910000D01*
X35058690Y-97910000D01*
X34825301Y-98006673D01*
X34646673Y-98185302D01*
X34550000Y-98418691D01*
X29212717Y-98418691D01*
X28067000Y-97272974D01*
X28067000Y-95461750D01*
X28425000Y-95461750D01*
X28425000Y-96661309D01*
X28521673Y-96894698D01*
X28700301Y-97073327D01*
X28933690Y-97170000D01*
X34258250Y-97170000D01*
X34417000Y-97011250D01*
X34417000Y-95303000D01*
X36703000Y-95303000D01*
X36703000Y-97011250D01*
X36861750Y-97170000D01*
X42186310Y-97170000D01*
X42419699Y-97073327D01*
X42598327Y-96894698D01*
X42695000Y-96661309D01*
X42695000Y-95663691D01*
X51340000Y-95663691D01*
X51340000Y-96631250D01*
X51498750Y-96790000D01*
X52975000Y-96790000D01*
X52975000Y-95313750D01*
X52816250Y-95155000D01*
X51848690Y-95155000D01*
X51615301Y-95251673D01*
X51436673Y-95430302D01*
X51340000Y-95663691D01*
X42695000Y-95663691D01*
X42695000Y-95461750D01*
X42536250Y-95303000D01*
X36703000Y-95303000D01*
X34417000Y-95303000D01*
X28583750Y-95303000D01*
X28425000Y-95461750D01*
X28067000Y-95461750D01*
X28067000Y-91658691D01*
X28425000Y-91658691D01*
X28425000Y-92858250D01*
X28583750Y-93017000D01*
X34417000Y-93017000D01*
X34417000Y-91308750D01*
X36703000Y-91308750D01*
X36703000Y-93017000D01*
X42536250Y-93017000D01*
X42695000Y-92858250D01*
X42695000Y-91658691D01*
X42598327Y-91425302D01*
X42419699Y-91246673D01*
X42186310Y-91150000D01*
X36861750Y-91150000D01*
X36703000Y-91308750D01*
X34417000Y-91308750D01*
X34258250Y-91150000D01*
X28933690Y-91150000D01*
X28700301Y-91246673D01*
X28521673Y-91425302D01*
X28425000Y-91658691D01*
X28067000Y-91658691D01*
X28067000Y-90932000D01*
X43282817Y-90932000D01*
X43223810Y-90943103D01*
X43223810Y-90943103D01*
G37*
X43223810Y-90943103D02*
X43094135Y-91026546D01*
X43007141Y-91153866D01*
X42976536Y-91305000D01*
X42976536Y-91805000D01*
X43003103Y-91946190D01*
X43086546Y-92075865D01*
X43213866Y-92162859D01*
X43365000Y-92193464D01*
X44265000Y-92193464D01*
X44406190Y-92166897D01*
X44535865Y-92083454D01*
X44549841Y-92063000D01*
X54768580Y-92063000D01*
X56388000Y-93682420D01*
X56388000Y-95304974D01*
X56334699Y-95251673D01*
X56101310Y-95155000D01*
X55133750Y-95155000D01*
X54975000Y-95313750D01*
X54975000Y-96790000D01*
X55138000Y-96790000D01*
X55138000Y-98790000D01*
X54975000Y-98790000D01*
X54975000Y-100266250D01*
X55133750Y-100425000D01*
X56101310Y-100425000D01*
X56286536Y-100348277D01*
X56286536Y-101570546D01*
X56253454Y-101519135D01*
X56126134Y-101432141D01*
X55975000Y-101401536D01*
X51975000Y-101401536D01*
X51833810Y-101428103D01*
X51704135Y-101511546D01*
X51617141Y-101638866D01*
X51586536Y-101790000D01*
X51586536Y-105790000D01*
X51613103Y-105931190D01*
X51696546Y-106060865D01*
X51823866Y-106147859D01*
X51975000Y-106178464D01*
X55975000Y-106178464D01*
X56116190Y-106151897D01*
X56245865Y-106068454D01*
X56332859Y-105941134D01*
X56363464Y-105790000D01*
X56363464Y-103009454D01*
X56388000Y-103047584D01*
X56388000Y-108321974D01*
X55362974Y-109347000D01*
X39446368Y-109347000D01*
X39547681Y-109103013D01*
X39547919Y-108830184D01*
X39443732Y-108578033D01*
X39250982Y-108384946D01*
X39127838Y-108333812D01*
X36331026Y-105537000D01*
X42037000Y-105537000D01*
X42104671Y-105877205D01*
X42297382Y-106165618D01*
X42330382Y-106198618D01*
X42618794Y-106391329D01*
X42959000Y-106459000D01*
X43261536Y-106459000D01*
X43261536Y-107320000D01*
X43288103Y-107461190D01*
X43371546Y-107590865D01*
X43498866Y-107677859D01*
X43561000Y-107690441D01*
X43561000Y-108204000D01*
X43628671Y-108544206D01*
X43821382Y-108832618D01*
X44109794Y-109025329D01*
X44450000Y-109093000D01*
X44790206Y-109025329D01*
X45078618Y-108832618D01*
X45271329Y-108544206D01*
X45339000Y-108204000D01*
X45339000Y-107691717D01*
X45391190Y-107681897D01*
X45520865Y-107598454D01*
X45607859Y-107471134D01*
X45638464Y-107320000D01*
X45638464Y-106459000D01*
X45814000Y-106459000D01*
X46154206Y-106391329D01*
X46442618Y-106198618D01*
X46475618Y-106165618D01*
X46668329Y-105877205D01*
X46736000Y-105537000D01*
X46668329Y-105196795D01*
X46475618Y-104908382D01*
X46187205Y-104715671D01*
X45847000Y-104648000D01*
X45681098Y-104681000D01*
X45638464Y-104681000D01*
X45638464Y-103820000D01*
X45611897Y-103678810D01*
X45528454Y-103549135D01*
X45401134Y-103462141D01*
X45250000Y-103431536D01*
X43650000Y-103431536D01*
X43508810Y-103458103D01*
X43379135Y-103541546D01*
X43292141Y-103668866D01*
X43261536Y-103820000D01*
X43261536Y-104681000D01*
X43091902Y-104681000D01*
X42926000Y-104648000D01*
X42585795Y-104715671D01*
X42297382Y-104908382D01*
X42104671Y-105196795D01*
X42037000Y-105537000D01*
X36331026Y-105537000D01*
X30139026Y-99345000D01*
X34416998Y-99345000D01*
X34416998Y-99980000D01*
X34809699Y-99980000D01*
X34796536Y-100045000D01*
X34796536Y-100845000D01*
X34823103Y-100986190D01*
X34906546Y-101115865D01*
X34925000Y-101128474D01*
X34925000Y-101213934D01*
X34874319Y-101335987D01*
X34874081Y-101608816D01*
X34978268Y-101860967D01*
X35171018Y-102054054D01*
X35422987Y-102158681D01*
X35695816Y-102158919D01*
X35947967Y-102054732D01*
X36141054Y-101861982D01*
X36245681Y-101610013D01*
X36245919Y-101337184D01*
X36242951Y-101330000D01*
X37546536Y-101330000D01*
X37546536Y-102330000D01*
X37573103Y-102471190D01*
X37656546Y-102600865D01*
X37783866Y-102687859D01*
X37935000Y-102718464D01*
X38100000Y-102718464D01*
X38100000Y-102737934D01*
X38049319Y-102859987D01*
X38049081Y-103132816D01*
X38153268Y-103384967D01*
X38346018Y-103578054D01*
X38597987Y-103682681D01*
X38870816Y-103682919D01*
X39122967Y-103578732D01*
X39316054Y-103385982D01*
X39420681Y-103134013D01*
X39420919Y-102861184D01*
X39370000Y-102737951D01*
X39370000Y-102718464D01*
X39535000Y-102718464D01*
X39676190Y-102691897D01*
X39805865Y-102608454D01*
X39892859Y-102481134D01*
X39923464Y-102330000D01*
X39923464Y-101330000D01*
X39899709Y-101203750D01*
X43015000Y-101203750D01*
X43015000Y-102046309D01*
X43111673Y-102279698D01*
X43290301Y-102458327D01*
X43523690Y-102555000D01*
X43891250Y-102555000D01*
X44050000Y-102396250D01*
X44050000Y-101045000D01*
X44850000Y-101045000D01*
X44850000Y-102396250D01*
X45008750Y-102555000D01*
X45376310Y-102555000D01*
X45609699Y-102458327D01*
X45788327Y-102279698D01*
X45885000Y-102046309D01*
X45885000Y-101203750D01*
X45726250Y-101045000D01*
X44850000Y-101045000D01*
X44050000Y-101045000D01*
X43173750Y-101045000D01*
X43015000Y-101203750D01*
X39899709Y-101203750D01*
X39896897Y-101188810D01*
X39813454Y-101059135D01*
X39686134Y-100972141D01*
X39535000Y-100941536D01*
X37935000Y-100941536D01*
X37793810Y-100968103D01*
X37664135Y-101051546D01*
X37577141Y-101178866D01*
X37546536Y-101330000D01*
X36242951Y-101330000D01*
X36195000Y-101213951D01*
X36195000Y-101130445D01*
X36205865Y-101123454D01*
X36292859Y-100996134D01*
X36323464Y-100845000D01*
X36323464Y-100045000D01*
X36311233Y-99980000D01*
X36703002Y-99980000D01*
X36703002Y-99345000D01*
X36570000Y-99345000D01*
X36570000Y-99303750D01*
X36505000Y-99238750D01*
X37300000Y-99238750D01*
X37300000Y-99456309D01*
X37396673Y-99689698D01*
X37575301Y-99868327D01*
X37808690Y-99965000D01*
X38176250Y-99965000D01*
X38335000Y-99806250D01*
X38335000Y-99080000D01*
X39135000Y-99080000D01*
X39135000Y-99806250D01*
X39293750Y-99965000D01*
X39661310Y-99965000D01*
X39894699Y-99868327D01*
X40073327Y-99689698D01*
X40170000Y-99456309D01*
X40170000Y-99238750D01*
X40011250Y-99080000D01*
X39135000Y-99080000D01*
X38335000Y-99080000D01*
X37458750Y-99080000D01*
X37300000Y-99238750D01*
X36505000Y-99238750D01*
X36411250Y-99145000D01*
X35747500Y-99145000D01*
X35747500Y-99345000D01*
X35372500Y-99345000D01*
X35372500Y-99145000D01*
X34708750Y-99145000D01*
X34550000Y-99303750D01*
X34550000Y-99345000D01*
X34416998Y-99345000D01*
X30139026Y-99345000D01*
X29212717Y-98418691D01*
X34550000Y-98418691D01*
X34550000Y-98586250D01*
X34708750Y-98745000D01*
X35372500Y-98745000D01*
X35372500Y-98068750D01*
X35747500Y-98068750D01*
X35747500Y-98745000D01*
X36411250Y-98745000D01*
X36570000Y-98586250D01*
X36570000Y-98418691D01*
X36480944Y-98203691D01*
X37300000Y-98203691D01*
X37300000Y-98421250D01*
X37458750Y-98580000D01*
X38335000Y-98580000D01*
X38335000Y-97853750D01*
X39135000Y-97853750D01*
X39135000Y-98580000D01*
X40011250Y-98580000D01*
X40170000Y-98421250D01*
X40170000Y-98293691D01*
X43015000Y-98293691D01*
X43015000Y-99136250D01*
X43173750Y-99295000D01*
X44050000Y-99295000D01*
X44050000Y-97943750D01*
X44850000Y-97943750D01*
X44850000Y-99295000D01*
X45726250Y-99295000D01*
X45885000Y-99136250D01*
X45885000Y-98948750D01*
X51340000Y-98948750D01*
X51340000Y-99916309D01*
X51436673Y-100149698D01*
X51615301Y-100328327D01*
X51848690Y-100425000D01*
X52816250Y-100425000D01*
X52975000Y-100266250D01*
X52975000Y-98790000D01*
X51498750Y-98790000D01*
X51340000Y-98948750D01*
X45885000Y-98948750D01*
X45885000Y-98293691D01*
X45788327Y-98060302D01*
X45609699Y-97881673D01*
X45376310Y-97785000D01*
X45008750Y-97785000D01*
X44850000Y-97943750D01*
X44050000Y-97943750D01*
X43891250Y-97785000D01*
X43523690Y-97785000D01*
X43290301Y-97881673D01*
X43111673Y-98060302D01*
X43015000Y-98293691D01*
X40170000Y-98293691D01*
X40170000Y-98203691D01*
X40073327Y-97970302D01*
X39894699Y-97791673D01*
X39661310Y-97695000D01*
X39293750Y-97695000D01*
X39135000Y-97853750D01*
X38335000Y-97853750D01*
X38176250Y-97695000D01*
X37808690Y-97695000D01*
X37575301Y-97791673D01*
X37396673Y-97970302D01*
X37300000Y-98203691D01*
X36480944Y-98203691D01*
X36473327Y-98185302D01*
X36294699Y-98006673D01*
X36061310Y-97910000D01*
X35906250Y-97910000D01*
X35747500Y-98068750D01*
X35372500Y-98068750D01*
X35213750Y-97910000D01*
X35058690Y-97910000D01*
X34825301Y-98006673D01*
X34646673Y-98185302D01*
X34550000Y-98418691D01*
X29212717Y-98418691D01*
X28067000Y-97272974D01*
X28067000Y-95461750D01*
X28425000Y-95461750D01*
X28425000Y-96661309D01*
X28521673Y-96894698D01*
X28700301Y-97073327D01*
X28933690Y-97170000D01*
X34258250Y-97170000D01*
X34417000Y-97011250D01*
X34417000Y-95303000D01*
X36703000Y-95303000D01*
X36703000Y-97011250D01*
X36861750Y-97170000D01*
X42186310Y-97170000D01*
X42419699Y-97073327D01*
X42598327Y-96894698D01*
X42695000Y-96661309D01*
X42695000Y-95663691D01*
X51340000Y-95663691D01*
X51340000Y-96631250D01*
X51498750Y-96790000D01*
X52975000Y-96790000D01*
X52975000Y-95313750D01*
X52816250Y-95155000D01*
X51848690Y-95155000D01*
X51615301Y-95251673D01*
X51436673Y-95430302D01*
X51340000Y-95663691D01*
X42695000Y-95663691D01*
X42695000Y-95461750D01*
X42536250Y-95303000D01*
X36703000Y-95303000D01*
X34417000Y-95303000D01*
X28583750Y-95303000D01*
X28425000Y-95461750D01*
X28067000Y-95461750D01*
X28067000Y-91658691D01*
X28425000Y-91658691D01*
X28425000Y-92858250D01*
X28583750Y-93017000D01*
X34417000Y-93017000D01*
X34417000Y-91308750D01*
X36703000Y-91308750D01*
X36703000Y-93017000D01*
X42536250Y-93017000D01*
X42695000Y-92858250D01*
X42695000Y-91658691D01*
X42598327Y-91425302D01*
X42419699Y-91246673D01*
X42186310Y-91150000D01*
X36861750Y-91150000D01*
X36703000Y-91308750D01*
X34417000Y-91308750D01*
X34258250Y-91150000D01*
X28933690Y-91150000D01*
X28700301Y-91246673D01*
X28521673Y-91425302D01*
X28425000Y-91658691D01*
X28067000Y-91658691D01*
X28067000Y-90932000D01*
X43282817Y-90932000D01*
X43223810Y-90943103D01*
G36*
X85598000Y-51943000D02*
X50165000Y-51943000D01*
X50115590Y-51953006D01*
X50075197Y-51980197D01*
X48805197Y-53250197D01*
X48777334Y-53292211D01*
X48768000Y-53340000D01*
X48768000Y-59563000D01*
X25856000Y-59563000D01*
X25856000Y-49022000D01*
X85598000Y-49022000D01*
X85598000Y-51943000D01*
X85598000Y-51943000D01*
G37*
X85598000Y-51943000D02*
X50165000Y-51943000D01*
X50115590Y-51953006D01*
X50075197Y-51980197D01*
X48805197Y-53250197D01*
X48777334Y-53292211D01*
X48768000Y-53340000D01*
X48768000Y-59563000D01*
X25856000Y-59563000D01*
X25856000Y-49022000D01*
X85598000Y-49022000D01*
X85598000Y-51943000D01*
G36*
X39243000Y-77470000D02*
X39253006Y-77519410D01*
X39275079Y-77554374D01*
X44355079Y-83269374D01*
X44395384Y-83299656D01*
X44450000Y-83312000D01*
X47498000Y-83312000D01*
X47498000Y-85598000D01*
X33147000Y-85598000D01*
X33147000Y-71882000D01*
X39243000Y-71882000D01*
X39243000Y-77470000D01*
X39243000Y-77470000D01*
G37*
X39243000Y-77470000D02*
X39253006Y-77519410D01*
X39275079Y-77554374D01*
X44355079Y-83269374D01*
X44395384Y-83299656D01*
X44450000Y-83312000D01*
X47498000Y-83312000D01*
X47498000Y-85598000D01*
X33147000Y-85598000D01*
X33147000Y-71882000D01*
X39243000Y-71882000D01*
X39243000Y-77470000D01*
G36*
X47498000Y-70993000D02*
X42037000Y-70993000D01*
X42037000Y-69267606D01*
X43232606Y-68072000D01*
X44450000Y-68072000D01*
X44499410Y-68061994D01*
X44541035Y-68033553D01*
X44568315Y-67991159D01*
X44577000Y-67945000D01*
X44577000Y-64897000D01*
X47498000Y-64897000D01*
X47498000Y-70993000D01*
X47498000Y-70993000D01*
G37*
X47498000Y-70993000D02*
X42037000Y-70993000D01*
X42037000Y-69267606D01*
X43232606Y-68072000D01*
X44450000Y-68072000D01*
X44499410Y-68061994D01*
X44541035Y-68033553D01*
X44568315Y-67991159D01*
X44577000Y-67945000D01*
X44577000Y-64897000D01*
X47498000Y-64897000D01*
X47498000Y-70993000D01*
G36*
X48133000Y-79375000D02*
X48143006Y-79424410D01*
X48170197Y-79464803D01*
X50673000Y-81967606D01*
X50673000Y-85090000D01*
X50683006Y-85139410D01*
X50711447Y-85181035D01*
X50753841Y-85208315D01*
X50800000Y-85217000D01*
X85598000Y-85217000D01*
X85598000Y-88138000D01*
X49022000Y-88138000D01*
X49022000Y-83185000D01*
X49011994Y-83135590D01*
X48984803Y-83095197D01*
X45174803Y-79285197D01*
X45132789Y-79257334D01*
X45085000Y-79248000D01*
X44502606Y-79248000D01*
X42037000Y-76782394D01*
X42037000Y-73787000D01*
X48133000Y-73787000D01*
X48133000Y-79375000D01*
X48133000Y-79375000D01*
G37*
X48133000Y-79375000D02*
X48143006Y-79424410D01*
X48170197Y-79464803D01*
X50673000Y-81967606D01*
X50673000Y-85090000D01*
X50683006Y-85139410D01*
X50711447Y-85181035D01*
X50753841Y-85208315D01*
X50800000Y-85217000D01*
X85598000Y-85217000D01*
X85598000Y-88138000D01*
X49022000Y-88138000D01*
X49022000Y-83185000D01*
X49011994Y-83135590D01*
X48984803Y-83095197D01*
X45174803Y-79285197D01*
X45132789Y-79257334D01*
X45085000Y-79248000D01*
X44502606Y-79248000D01*
X42037000Y-76782394D01*
X42037000Y-73787000D01*
X48133000Y-73787000D01*
X48133000Y-79375000D01*
G36*
X55118000Y-57785000D02*
X52832000Y-57785000D01*
X52832000Y-56007000D01*
X55118000Y-56007000D01*
X55118000Y-57785000D01*
X55118000Y-57785000D01*
G37*
X55118000Y-57785000D02*
X52832000Y-57785000D01*
X52832000Y-56007000D01*
X55118000Y-56007000D01*
X55118000Y-57785000D01*
G36*
X55118000Y-63627000D02*
X52832000Y-63627000D01*
X52832000Y-61849000D01*
X55118000Y-61849000D01*
X55118000Y-63627000D01*
X55118000Y-63627000D01*
G37*
X55118000Y-63627000D02*
X52832000Y-63627000D01*
X52832000Y-61849000D01*
X55118000Y-61849000D01*
X55118000Y-63627000D01*
G36*
X55118000Y-69469000D02*
X52832000Y-69469000D01*
X52832000Y-67691000D01*
X55118000Y-67691000D01*
X55118000Y-69469000D01*
X55118000Y-69469000D01*
G37*
X55118000Y-69469000D02*
X52832000Y-69469000D01*
X52832000Y-67691000D01*
X55118000Y-67691000D01*
X55118000Y-69469000D01*
G36*
X55118000Y-75311000D02*
X52832000Y-75311000D01*
X52832000Y-73533000D01*
X55118000Y-73533000D01*
X55118000Y-75311000D01*
X55118000Y-75311000D01*
G37*
X55118000Y-75311000D02*
X52832000Y-75311000D01*
X52832000Y-73533000D01*
X55118000Y-73533000D01*
X55118000Y-75311000D01*
G36*
X55118000Y-81153000D02*
X52832000Y-81153000D01*
X52832000Y-79375000D01*
X55118000Y-79375000D01*
X55118000Y-81153000D01*
X55118000Y-81153000D01*
G37*
X55118000Y-81153000D02*
X52832000Y-81153000D01*
X52832000Y-79375000D01*
X55118000Y-79375000D01*
X55118000Y-81153000D01*
G36*
X60960000Y-81153000D02*
X58674000Y-81153000D01*
X58674000Y-79375000D01*
X60960000Y-79375000D01*
X60960000Y-81153000D01*
X60960000Y-81153000D01*
G37*
X60960000Y-81153000D02*
X58674000Y-81153000D01*
X58674000Y-79375000D01*
X60960000Y-79375000D01*
X60960000Y-81153000D01*
G36*
X60960000Y-75311000D02*
X58674000Y-75311000D01*
X58674000Y-73533000D01*
X60960000Y-73533000D01*
X60960000Y-75311000D01*
X60960000Y-75311000D01*
G37*
X60960000Y-75311000D02*
X58674000Y-75311000D01*
X58674000Y-73533000D01*
X60960000Y-73533000D01*
X60960000Y-75311000D01*
G36*
X60960000Y-69469000D02*
X58674000Y-69469000D01*
X58674000Y-67691000D01*
X60960000Y-67691000D01*
X60960000Y-69469000D01*
X60960000Y-69469000D01*
G37*
X60960000Y-69469000D02*
X58674000Y-69469000D01*
X58674000Y-67691000D01*
X60960000Y-67691000D01*
X60960000Y-69469000D01*
G36*
X60960000Y-63627000D02*
X58674000Y-63627000D01*
X58674000Y-61849000D01*
X60960000Y-61849000D01*
X60960000Y-63627000D01*
X60960000Y-63627000D01*
G37*
X60960000Y-63627000D02*
X58674000Y-63627000D01*
X58674000Y-61849000D01*
X60960000Y-61849000D01*
X60960000Y-63627000D01*
G36*
X60960000Y-57785000D02*
X58674000Y-57785000D01*
X58674000Y-56007000D01*
X60960000Y-56007000D01*
X60960000Y-57785000D01*
X60960000Y-57785000D01*
G37*
X60960000Y-57785000D02*
X58674000Y-57785000D01*
X58674000Y-56007000D01*
X60960000Y-56007000D01*
X60960000Y-57785000D01*
G36*
X66802000Y-81153000D02*
X64516000Y-81153000D01*
X64516000Y-79375000D01*
X66802000Y-79375000D01*
X66802000Y-81153000D01*
X66802000Y-81153000D01*
G37*
X66802000Y-81153000D02*
X64516000Y-81153000D01*
X64516000Y-79375000D01*
X66802000Y-79375000D01*
X66802000Y-81153000D01*
G36*
X66802000Y-75311000D02*
X64516000Y-75311000D01*
X64516000Y-73533000D01*
X66802000Y-73533000D01*
X66802000Y-75311000D01*
X66802000Y-75311000D01*
G37*
X66802000Y-75311000D02*
X64516000Y-75311000D01*
X64516000Y-73533000D01*
X66802000Y-73533000D01*
X66802000Y-75311000D01*
G36*
X66802000Y-69469000D02*
X64516000Y-69469000D01*
X64516000Y-67691000D01*
X66802000Y-67691000D01*
X66802000Y-69469000D01*
X66802000Y-69469000D01*
G37*
X66802000Y-69469000D02*
X64516000Y-69469000D01*
X64516000Y-67691000D01*
X66802000Y-67691000D01*
X66802000Y-69469000D01*
G36*
X66802000Y-63627000D02*
X64516000Y-63627000D01*
X64516000Y-61849000D01*
X66802000Y-61849000D01*
X66802000Y-63627000D01*
X66802000Y-63627000D01*
G37*
X66802000Y-63627000D02*
X64516000Y-63627000D01*
X64516000Y-61849000D01*
X66802000Y-61849000D01*
X66802000Y-63627000D01*
G36*
X66802000Y-57785000D02*
X64516000Y-57785000D01*
X64516000Y-56007000D01*
X66802000Y-56007000D01*
X66802000Y-57785000D01*
X66802000Y-57785000D01*
G37*
X66802000Y-57785000D02*
X64516000Y-57785000D01*
X64516000Y-56007000D01*
X66802000Y-56007000D01*
X66802000Y-57785000D01*
G36*
X72644000Y-81153000D02*
X70358000Y-81153000D01*
X70358000Y-79375000D01*
X72644000Y-79375000D01*
X72644000Y-81153000D01*
X72644000Y-81153000D01*
G37*
X72644000Y-81153000D02*
X70358000Y-81153000D01*
X70358000Y-79375000D01*
X72644000Y-79375000D01*
X72644000Y-81153000D01*
G36*
X72644000Y-75311000D02*
X70358000Y-75311000D01*
X70358000Y-73533000D01*
X72644000Y-73533000D01*
X72644000Y-75311000D01*
X72644000Y-75311000D01*
G37*
X72644000Y-75311000D02*
X70358000Y-75311000D01*
X70358000Y-73533000D01*
X72644000Y-73533000D01*
X72644000Y-75311000D01*
G36*
X72644000Y-69469000D02*
X70358000Y-69469000D01*
X70358000Y-67691000D01*
X72644000Y-67691000D01*
X72644000Y-69469000D01*
X72644000Y-69469000D01*
G37*
X72644000Y-69469000D02*
X70358000Y-69469000D01*
X70358000Y-67691000D01*
X72644000Y-67691000D01*
X72644000Y-69469000D01*
G36*
X72644000Y-63627000D02*
X70358000Y-63627000D01*
X70358000Y-61849000D01*
X72644000Y-61849000D01*
X72644000Y-63627000D01*
X72644000Y-63627000D01*
G37*
X72644000Y-63627000D02*
X70358000Y-63627000D01*
X70358000Y-61849000D01*
X72644000Y-61849000D01*
X72644000Y-63627000D01*
G36*
X72644000Y-57785000D02*
X70358000Y-57785000D01*
X70358000Y-56007000D01*
X72644000Y-56007000D01*
X72644000Y-57785000D01*
X72644000Y-57785000D01*
G37*
X72644000Y-57785000D02*
X70358000Y-57785000D01*
X70358000Y-56007000D01*
X72644000Y-56007000D01*
X72644000Y-57785000D01*
G36*
X78486000Y-81153000D02*
X76200000Y-81153000D01*
X76200000Y-79375000D01*
X78486000Y-79375000D01*
X78486000Y-81153000D01*
X78486000Y-81153000D01*
G37*
X78486000Y-81153000D02*
X76200000Y-81153000D01*
X76200000Y-79375000D01*
X78486000Y-79375000D01*
X78486000Y-81153000D01*
G36*
X78486000Y-75311000D02*
X76200000Y-75311000D01*
X76200000Y-73533000D01*
X78486000Y-73533000D01*
X78486000Y-75311000D01*
X78486000Y-75311000D01*
G37*
X78486000Y-75311000D02*
X76200000Y-75311000D01*
X76200000Y-73533000D01*
X78486000Y-73533000D01*
X78486000Y-75311000D01*
G36*
X78486000Y-69469000D02*
X76200000Y-69469000D01*
X76200000Y-67691000D01*
X78486000Y-67691000D01*
X78486000Y-69469000D01*
X78486000Y-69469000D01*
G37*
X78486000Y-69469000D02*
X76200000Y-69469000D01*
X76200000Y-67691000D01*
X78486000Y-67691000D01*
X78486000Y-69469000D01*
G36*
X78486000Y-63627000D02*
X76200000Y-63627000D01*
X76200000Y-61849000D01*
X78486000Y-61849000D01*
X78486000Y-63627000D01*
X78486000Y-63627000D01*
G37*
X78486000Y-63627000D02*
X76200000Y-63627000D01*
X76200000Y-61849000D01*
X78486000Y-61849000D01*
X78486000Y-63627000D01*
G36*
X78486000Y-57785000D02*
X76200000Y-57785000D01*
X76200000Y-56007000D01*
X78486000Y-56007000D01*
X78486000Y-57785000D01*
X78486000Y-57785000D01*
G37*
X78486000Y-57785000D02*
X76200000Y-57785000D01*
X76200000Y-56007000D01*
X78486000Y-56007000D01*
X78486000Y-57785000D01*
G36*
X84328000Y-81153000D02*
X82042000Y-81153000D01*
X82042000Y-79375000D01*
X84328000Y-79375000D01*
X84328000Y-81153000D01*
X84328000Y-81153000D01*
G37*
X84328000Y-81153000D02*
X82042000Y-81153000D01*
X82042000Y-79375000D01*
X84328000Y-79375000D01*
X84328000Y-81153000D01*
G36*
X84328000Y-75311000D02*
X82042000Y-75311000D01*
X82042000Y-73533000D01*
X84328000Y-73533000D01*
X84328000Y-75311000D01*
X84328000Y-75311000D01*
G37*
X84328000Y-75311000D02*
X82042000Y-75311000D01*
X82042000Y-73533000D01*
X84328000Y-73533000D01*
X84328000Y-75311000D01*
G36*
X84328000Y-69469000D02*
X82042000Y-69469000D01*
X82042000Y-67691000D01*
X84328000Y-67691000D01*
X84328000Y-69469000D01*
X84328000Y-69469000D01*
G37*
X84328000Y-69469000D02*
X82042000Y-69469000D01*
X82042000Y-67691000D01*
X84328000Y-67691000D01*
X84328000Y-69469000D01*
G36*
X84328000Y-63627000D02*
X82042000Y-63627000D01*
X82042000Y-61849000D01*
X84328000Y-61849000D01*
X84328000Y-63627000D01*
X84328000Y-63627000D01*
G37*
X84328000Y-63627000D02*
X82042000Y-63627000D01*
X82042000Y-61849000D01*
X84328000Y-61849000D01*
X84328000Y-63627000D01*
G36*
X84328000Y-57785000D02*
X82042000Y-57785000D01*
X82042000Y-56007000D01*
X84328000Y-56007000D01*
X84328000Y-57785000D01*
X84328000Y-57785000D01*
G37*
X84328000Y-57785000D02*
X82042000Y-57785000D01*
X82042000Y-56007000D01*
X84328000Y-56007000D01*
X84328000Y-57785000D01*
G36*
X105145485Y-26591950D02*
X104065741Y-27669811D01*
X103480667Y-29078825D01*
X103479336Y-30604482D01*
X104061950Y-32014515D01*
X105139811Y-33094259D01*
X106548825Y-33679333D01*
X108074482Y-33680664D01*
X109484515Y-33098050D01*
X110564259Y-32020189D01*
X111050000Y-30850395D01*
X111050000Y-88138000D01*
X88265000Y-88138000D01*
X88265000Y-84582000D01*
X88254994Y-84532590D01*
X88226553Y-84490965D01*
X88184159Y-84463685D01*
X88138000Y-84455000D01*
X85710503Y-84455000D01*
X85575000Y-84427560D01*
X80795000Y-84427560D01*
X80649169Y-84455000D01*
X79868503Y-84455000D01*
X79733000Y-84427560D01*
X74953000Y-84427560D01*
X74807169Y-84455000D01*
X74026503Y-84455000D01*
X73891000Y-84427560D01*
X69111000Y-84427560D01*
X68965169Y-84455000D01*
X68184503Y-84455000D01*
X68049000Y-84427560D01*
X63269000Y-84427560D01*
X63123169Y-84455000D01*
X62342503Y-84455000D01*
X62207000Y-84427560D01*
X57427000Y-84427560D01*
X57281169Y-84455000D01*
X56500503Y-84455000D01*
X56365000Y-84427560D01*
X51689000Y-84427560D01*
X51689000Y-81942440D01*
X56365000Y-81942440D01*
X56600317Y-81898162D01*
X56816441Y-81759090D01*
X56896063Y-81642559D01*
X56962910Y-81746441D01*
X57175110Y-81891431D01*
X57427000Y-81942440D01*
X62207000Y-81942440D01*
X62442317Y-81898162D01*
X62658441Y-81759090D01*
X62738063Y-81642559D01*
X62804910Y-81746441D01*
X63017110Y-81891431D01*
X63269000Y-81942440D01*
X68049000Y-81942440D01*
X68284317Y-81898162D01*
X68500441Y-81759090D01*
X68580063Y-81642559D01*
X68646910Y-81746441D01*
X68859110Y-81891431D01*
X69111000Y-81942440D01*
X73891000Y-81942440D01*
X74126317Y-81898162D01*
X74342441Y-81759090D01*
X74422063Y-81642559D01*
X74488910Y-81746441D01*
X74701110Y-81891431D01*
X74953000Y-81942440D01*
X79733000Y-81942440D01*
X79968317Y-81898162D01*
X80184441Y-81759090D01*
X80264063Y-81642559D01*
X80330910Y-81746441D01*
X80543110Y-81891431D01*
X80795000Y-81942440D01*
X85575000Y-81942440D01*
X85810317Y-81898162D01*
X86026441Y-81759090D01*
X86171431Y-81546890D01*
X86222440Y-81295000D01*
X86222440Y-80795000D01*
X86178162Y-80559683D01*
X86039090Y-80343559D01*
X85922559Y-80263937D01*
X86026441Y-80197090D01*
X86171431Y-79984890D01*
X86222440Y-79733000D01*
X86222440Y-79233000D01*
X86178162Y-78997683D01*
X86039090Y-78781559D01*
X85826890Y-78636569D01*
X85575000Y-78585560D01*
X80795000Y-78585560D01*
X80559683Y-78629838D01*
X80343559Y-78768910D01*
X80263937Y-78885441D01*
X80197090Y-78781559D01*
X79984890Y-78636569D01*
X79733000Y-78585560D01*
X74953000Y-78585560D01*
X74717683Y-78629838D01*
X74501559Y-78768910D01*
X74421937Y-78885441D01*
X74355090Y-78781559D01*
X74142890Y-78636569D01*
X73891000Y-78585560D01*
X69111000Y-78585560D01*
X68875683Y-78629838D01*
X68659559Y-78768910D01*
X68579937Y-78885441D01*
X68513090Y-78781559D01*
X68300890Y-78636569D01*
X68049000Y-78585560D01*
X63269000Y-78585560D01*
X63033683Y-78629838D01*
X62817559Y-78768910D01*
X62737937Y-78885441D01*
X62671090Y-78781559D01*
X62458890Y-78636569D01*
X62207000Y-78585560D01*
X57427000Y-78585560D01*
X57191683Y-78629838D01*
X56975559Y-78768910D01*
X56895937Y-78885441D01*
X56829090Y-78781559D01*
X56616890Y-78636569D01*
X56365000Y-78585560D01*
X51689000Y-78585560D01*
X51689000Y-76100440D01*
X56365000Y-76100440D01*
X56600317Y-76056162D01*
X56816441Y-75917090D01*
X56896063Y-75800559D01*
X56962910Y-75904441D01*
X57175110Y-76049431D01*
X57427000Y-76100440D01*
X62207000Y-76100440D01*
X62442317Y-76056162D01*
X62658441Y-75917090D01*
X62738063Y-75800559D01*
X62804910Y-75904441D01*
X63017110Y-76049431D01*
X63269000Y-76100440D01*
X68049000Y-76100440D01*
X68284317Y-76056162D01*
X68500441Y-75917090D01*
X68580063Y-75800559D01*
X68646910Y-75904441D01*
X68859110Y-76049431D01*
X69111000Y-76100440D01*
X73891000Y-76100440D01*
X74126317Y-76056162D01*
X74342441Y-75917090D01*
X74422063Y-75800559D01*
X74488910Y-75904441D01*
X74701110Y-76049431D01*
X74953000Y-76100440D01*
X79733000Y-76100440D01*
X79968317Y-76056162D01*
X80184441Y-75917090D01*
X80264063Y-75800559D01*
X80330910Y-75904441D01*
X80543110Y-76049431D01*
X80795000Y-76100440D01*
X85575000Y-76100440D01*
X85810317Y-76056162D01*
X86026441Y-75917090D01*
X86171431Y-75704890D01*
X86222440Y-75453000D01*
X86222440Y-74953000D01*
X86178162Y-74717683D01*
X86039090Y-74501559D01*
X85922559Y-74421937D01*
X86026441Y-74355090D01*
X86171431Y-74142890D01*
X86222440Y-73891000D01*
X86222440Y-73391000D01*
X86178162Y-73155683D01*
X86039090Y-72939559D01*
X85826890Y-72794569D01*
X85575000Y-72743560D01*
X80795000Y-72743560D01*
X80559683Y-72787838D01*
X80343559Y-72926910D01*
X80263937Y-73043441D01*
X80197090Y-72939559D01*
X79984890Y-72794569D01*
X79733000Y-72743560D01*
X74953000Y-72743560D01*
X74717683Y-72787838D01*
X74501559Y-72926910D01*
X74421937Y-73043441D01*
X74355090Y-72939559D01*
X74142890Y-72794569D01*
X73891000Y-72743560D01*
X69111000Y-72743560D01*
X68875683Y-72787838D01*
X68659559Y-72926910D01*
X68579937Y-73043441D01*
X68513090Y-72939559D01*
X68300890Y-72794569D01*
X68049000Y-72743560D01*
X63269000Y-72743560D01*
X63033683Y-72787838D01*
X62817559Y-72926910D01*
X62737937Y-73043441D01*
X62671090Y-72939559D01*
X62458890Y-72794569D01*
X62207000Y-72743560D01*
X57427000Y-72743560D01*
X57191683Y-72787838D01*
X56975559Y-72926910D01*
X56895937Y-73043441D01*
X56829090Y-72939559D01*
X56616890Y-72794569D01*
X56365000Y-72743560D01*
X51689000Y-72743560D01*
X51689000Y-70258440D01*
X56365000Y-70258440D01*
X56600317Y-70214162D01*
X56816441Y-70075090D01*
X56896063Y-69958559D01*
X56962910Y-70062441D01*
X57175110Y-70207431D01*
X57427000Y-70258440D01*
X62207000Y-70258440D01*
X62442317Y-70214162D01*
X62658441Y-70075090D01*
X62738063Y-69958559D01*
X62804910Y-70062441D01*
X63017110Y-70207431D01*
X63269000Y-70258440D01*
X68049000Y-70258440D01*
X68284317Y-70214162D01*
X68500441Y-70075090D01*
X68580063Y-69958559D01*
X68646910Y-70062441D01*
X68859110Y-70207431D01*
X69111000Y-70258440D01*
X73891000Y-70258440D01*
X74126317Y-70214162D01*
X74342441Y-70075090D01*
X74422063Y-69958559D01*
X74488910Y-70062441D01*
X74701110Y-70207431D01*
X74953000Y-70258440D01*
X79733000Y-70258440D01*
X79968317Y-70214162D01*
X80184441Y-70075090D01*
X80264063Y-69958559D01*
X80330910Y-70062441D01*
X80543110Y-70207431D01*
X80795000Y-70258440D01*
X85575000Y-70258440D01*
X85810317Y-70214162D01*
X86026441Y-70075090D01*
X86171431Y-69862890D01*
X86222440Y-69611000D01*
X86222440Y-69111000D01*
X86178162Y-68875683D01*
X86039090Y-68659559D01*
X85922559Y-68579937D01*
X86026441Y-68513090D01*
X86171431Y-68300890D01*
X86222440Y-68049000D01*
X86222440Y-67549000D01*
X86178162Y-67313683D01*
X86039090Y-67097559D01*
X85826890Y-66952569D01*
X85575000Y-66901560D01*
X80795000Y-66901560D01*
X80559683Y-66945838D01*
X80343559Y-67084910D01*
X80263937Y-67201441D01*
X80197090Y-67097559D01*
X79984890Y-66952569D01*
X79733000Y-66901560D01*
X74953000Y-66901560D01*
X74717683Y-66945838D01*
X74501559Y-67084910D01*
X74421937Y-67201441D01*
X74355090Y-67097559D01*
X74142890Y-66952569D01*
X73891000Y-66901560D01*
X69111000Y-66901560D01*
X68875683Y-66945838D01*
X68659559Y-67084910D01*
X68579937Y-67201441D01*
X68513090Y-67097559D01*
X68300890Y-66952569D01*
X68049000Y-66901560D01*
X63269000Y-66901560D01*
X63033683Y-66945838D01*
X62817559Y-67084910D01*
X62737937Y-67201441D01*
X62671090Y-67097559D01*
X62458890Y-66952569D01*
X62207000Y-66901560D01*
X57427000Y-66901560D01*
X57191683Y-66945838D01*
X56975559Y-67084910D01*
X56895937Y-67201441D01*
X56829090Y-67097559D01*
X56616890Y-66952569D01*
X56365000Y-66901560D01*
X51689000Y-66901560D01*
X51689000Y-64416440D01*
X56365000Y-64416440D01*
X56600317Y-64372162D01*
X56816441Y-64233090D01*
X56896063Y-64116559D01*
X56962910Y-64220441D01*
X57175110Y-64365431D01*
X57427000Y-64416440D01*
X62207000Y-64416440D01*
X62442317Y-64372162D01*
X62658441Y-64233090D01*
X62738063Y-64116559D01*
X62804910Y-64220441D01*
X63017110Y-64365431D01*
X63269000Y-64416440D01*
X68049000Y-64416440D01*
X68284317Y-64372162D01*
X68500441Y-64233090D01*
X68580063Y-64116559D01*
X68646910Y-64220441D01*
X68859110Y-64365431D01*
X69111000Y-64416440D01*
X73891000Y-64416440D01*
X74126317Y-64372162D01*
X74342441Y-64233090D01*
X74422063Y-64116559D01*
X74488910Y-64220441D01*
X74701110Y-64365431D01*
X74953000Y-64416440D01*
X79733000Y-64416440D01*
X79968317Y-64372162D01*
X80184441Y-64233090D01*
X80264063Y-64116559D01*
X80330910Y-64220441D01*
X80543110Y-64365431D01*
X80795000Y-64416440D01*
X85575000Y-64416440D01*
X85810317Y-64372162D01*
X86026441Y-64233090D01*
X86171431Y-64020890D01*
X86222440Y-63769000D01*
X86222440Y-63269000D01*
X86178162Y-63033683D01*
X86039090Y-62817559D01*
X85922559Y-62737937D01*
X86026441Y-62671090D01*
X86171431Y-62458890D01*
X86222440Y-62207000D01*
X86222440Y-61707000D01*
X86178162Y-61471683D01*
X86039090Y-61255559D01*
X85826890Y-61110569D01*
X85575000Y-61059560D01*
X80795000Y-61059560D01*
X80559683Y-61103838D01*
X80343559Y-61242910D01*
X80263937Y-61359441D01*
X80197090Y-61255559D01*
X79984890Y-61110569D01*
X79733000Y-61059560D01*
X74953000Y-61059560D01*
X74717683Y-61103838D01*
X74501559Y-61242910D01*
X74421937Y-61359441D01*
X74355090Y-61255559D01*
X74142890Y-61110569D01*
X73891000Y-61059560D01*
X69111000Y-61059560D01*
X68875683Y-61103838D01*
X68659559Y-61242910D01*
X68579937Y-61359441D01*
X68513090Y-61255559D01*
X68300890Y-61110569D01*
X68049000Y-61059560D01*
X63269000Y-61059560D01*
X63033683Y-61103838D01*
X62817559Y-61242910D01*
X62737937Y-61359441D01*
X62671090Y-61255559D01*
X62458890Y-61110569D01*
X62207000Y-61059560D01*
X57427000Y-61059560D01*
X57191683Y-61103838D01*
X56975559Y-61242910D01*
X56895937Y-61359441D01*
X56829090Y-61255559D01*
X56616890Y-61110569D01*
X56365000Y-61059560D01*
X51689000Y-61059560D01*
X51689000Y-58574440D01*
X56365000Y-58574440D01*
X56600317Y-58530162D01*
X56816441Y-58391090D01*
X56896063Y-58274559D01*
X56962910Y-58378441D01*
X57175110Y-58523431D01*
X57427000Y-58574440D01*
X62207000Y-58574440D01*
X62442317Y-58530162D01*
X62658441Y-58391090D01*
X62738063Y-58274559D01*
X62804910Y-58378441D01*
X63017110Y-58523431D01*
X63269000Y-58574440D01*
X68049000Y-58574440D01*
X68284317Y-58530162D01*
X68500441Y-58391090D01*
X68580063Y-58274559D01*
X68646910Y-58378441D01*
X68859110Y-58523431D01*
X69111000Y-58574440D01*
X73891000Y-58574440D01*
X74126317Y-58530162D01*
X74342441Y-58391090D01*
X74422063Y-58274559D01*
X74488910Y-58378441D01*
X74701110Y-58523431D01*
X74953000Y-58574440D01*
X79733000Y-58574440D01*
X79968317Y-58530162D01*
X80184441Y-58391090D01*
X80264063Y-58274559D01*
X80330910Y-58378441D01*
X80543110Y-58523431D01*
X80795000Y-58574440D01*
X85575000Y-58574440D01*
X85810317Y-58530162D01*
X86026441Y-58391090D01*
X86171431Y-58178890D01*
X86222440Y-57927000D01*
X86222440Y-57427000D01*
X86178162Y-57191683D01*
X86039090Y-56975559D01*
X85922559Y-56895937D01*
X86026441Y-56829090D01*
X86171431Y-56616890D01*
X86222440Y-56365000D01*
X86222440Y-55865000D01*
X86178162Y-55629683D01*
X86039090Y-55413559D01*
X85826890Y-55268569D01*
X85575000Y-55217560D01*
X80795000Y-55217560D01*
X80559683Y-55261838D01*
X80343559Y-55400910D01*
X80263937Y-55517441D01*
X80197090Y-55413559D01*
X79984890Y-55268569D01*
X79733000Y-55217560D01*
X74953000Y-55217560D01*
X74717683Y-55261838D01*
X74501559Y-55400910D01*
X74421937Y-55517441D01*
X74355090Y-55413559D01*
X74142890Y-55268569D01*
X73891000Y-55217560D01*
X69111000Y-55217560D01*
X68875683Y-55261838D01*
X68659559Y-55400910D01*
X68579937Y-55517441D01*
X68513090Y-55413559D01*
X68300890Y-55268569D01*
X68049000Y-55217560D01*
X63269000Y-55217560D01*
X63033683Y-55261838D01*
X62817559Y-55400910D01*
X62737937Y-55517441D01*
X62671090Y-55413559D01*
X62458890Y-55268569D01*
X62207000Y-55217560D01*
X57427000Y-55217560D01*
X57191683Y-55261838D01*
X56975559Y-55400910D01*
X56895937Y-55517441D01*
X56829090Y-55413559D01*
X56616890Y-55268569D01*
X56365000Y-55217560D01*
X51689000Y-55217560D01*
X51689000Y-52732440D01*
X56365000Y-52732440D01*
X56510831Y-52705000D01*
X57291497Y-52705000D01*
X57427000Y-52732440D01*
X62207000Y-52732440D01*
X62352831Y-52705000D01*
X63133497Y-52705000D01*
X63269000Y-52732440D01*
X68049000Y-52732440D01*
X68194831Y-52705000D01*
X68975497Y-52705000D01*
X69111000Y-52732440D01*
X73891000Y-52732440D01*
X74036831Y-52705000D01*
X74817497Y-52705000D01*
X74953000Y-52732440D01*
X79733000Y-52732440D01*
X79878831Y-52705000D01*
X80659497Y-52705000D01*
X80795000Y-52732440D01*
X85575000Y-52732440D01*
X85720831Y-52705000D01*
X88265000Y-52705000D01*
X88314410Y-52694994D01*
X88356035Y-52666553D01*
X88383315Y-52624159D01*
X88392000Y-52578000D01*
X88392000Y-46355000D01*
X88381994Y-46305590D01*
X88353553Y-46263965D01*
X88311159Y-46236685D01*
X88265000Y-46228000D01*
X50927000Y-46228000D01*
X50927000Y-26110000D01*
X106311893Y-26110000D01*
X105145485Y-26591950D01*
X105145485Y-26591950D01*
G37*
X105145485Y-26591950D02*
X104065741Y-27669811D01*
X103480667Y-29078825D01*
X103479336Y-30604482D01*
X104061950Y-32014515D01*
X105139811Y-33094259D01*
X106548825Y-33679333D01*
X108074482Y-33680664D01*
X109484515Y-33098050D01*
X110564259Y-32020189D01*
X111050000Y-30850395D01*
X111050000Y-88138000D01*
X88265000Y-88138000D01*
X88265000Y-84582000D01*
X88254994Y-84532590D01*
X88226553Y-84490965D01*
X88184159Y-84463685D01*
X88138000Y-84455000D01*
X85710503Y-84455000D01*
X85575000Y-84427560D01*
X80795000Y-84427560D01*
X80649169Y-84455000D01*
X79868503Y-84455000D01*
X79733000Y-84427560D01*
X74953000Y-84427560D01*
X74807169Y-84455000D01*
X74026503Y-84455000D01*
X73891000Y-84427560D01*
X69111000Y-84427560D01*
X68965169Y-84455000D01*
X68184503Y-84455000D01*
X68049000Y-84427560D01*
X63269000Y-84427560D01*
X63123169Y-84455000D01*
X62342503Y-84455000D01*
X62207000Y-84427560D01*
X57427000Y-84427560D01*
X57281169Y-84455000D01*
X56500503Y-84455000D01*
X56365000Y-84427560D01*
X51689000Y-84427560D01*
X51689000Y-81942440D01*
X56365000Y-81942440D01*
X56600317Y-81898162D01*
X56816441Y-81759090D01*
X56896063Y-81642559D01*
X56962910Y-81746441D01*
X57175110Y-81891431D01*
X57427000Y-81942440D01*
X62207000Y-81942440D01*
X62442317Y-81898162D01*
X62658441Y-81759090D01*
X62738063Y-81642559D01*
X62804910Y-81746441D01*
X63017110Y-81891431D01*
X63269000Y-81942440D01*
X68049000Y-81942440D01*
X68284317Y-81898162D01*
X68500441Y-81759090D01*
X68580063Y-81642559D01*
X68646910Y-81746441D01*
X68859110Y-81891431D01*
X69111000Y-81942440D01*
X73891000Y-81942440D01*
X74126317Y-81898162D01*
X74342441Y-81759090D01*
X74422063Y-81642559D01*
X74488910Y-81746441D01*
X74701110Y-81891431D01*
X74953000Y-81942440D01*
X79733000Y-81942440D01*
X79968317Y-81898162D01*
X80184441Y-81759090D01*
X80264063Y-81642559D01*
X80330910Y-81746441D01*
X80543110Y-81891431D01*
X80795000Y-81942440D01*
X85575000Y-81942440D01*
X85810317Y-81898162D01*
X86026441Y-81759090D01*
X86171431Y-81546890D01*
X86222440Y-81295000D01*
X86222440Y-80795000D01*
X86178162Y-80559683D01*
X86039090Y-80343559D01*
X85922559Y-80263937D01*
X86026441Y-80197090D01*
X86171431Y-79984890D01*
X86222440Y-79733000D01*
X86222440Y-79233000D01*
X86178162Y-78997683D01*
X86039090Y-78781559D01*
X85826890Y-78636569D01*
X85575000Y-78585560D01*
X80795000Y-78585560D01*
X80559683Y-78629838D01*
X80343559Y-78768910D01*
X80263937Y-78885441D01*
X80197090Y-78781559D01*
X79984890Y-78636569D01*
X79733000Y-78585560D01*
X74953000Y-78585560D01*
X74717683Y-78629838D01*
X74501559Y-78768910D01*
X74421937Y-78885441D01*
X74355090Y-78781559D01*
X74142890Y-78636569D01*
X73891000Y-78585560D01*
X69111000Y-78585560D01*
X68875683Y-78629838D01*
X68659559Y-78768910D01*
X68579937Y-78885441D01*
X68513090Y-78781559D01*
X68300890Y-78636569D01*
X68049000Y-78585560D01*
X63269000Y-78585560D01*
X63033683Y-78629838D01*
X62817559Y-78768910D01*
X62737937Y-78885441D01*
X62671090Y-78781559D01*
X62458890Y-78636569D01*
X62207000Y-78585560D01*
X57427000Y-78585560D01*
X57191683Y-78629838D01*
X56975559Y-78768910D01*
X56895937Y-78885441D01*
X56829090Y-78781559D01*
X56616890Y-78636569D01*
X56365000Y-78585560D01*
X51689000Y-78585560D01*
X51689000Y-76100440D01*
X56365000Y-76100440D01*
X56600317Y-76056162D01*
X56816441Y-75917090D01*
X56896063Y-75800559D01*
X56962910Y-75904441D01*
X57175110Y-76049431D01*
X57427000Y-76100440D01*
X62207000Y-76100440D01*
X62442317Y-76056162D01*
X62658441Y-75917090D01*
X62738063Y-75800559D01*
X62804910Y-75904441D01*
X63017110Y-76049431D01*
X63269000Y-76100440D01*
X68049000Y-76100440D01*
X68284317Y-76056162D01*
X68500441Y-75917090D01*
X68580063Y-75800559D01*
X68646910Y-75904441D01*
X68859110Y-76049431D01*
X69111000Y-76100440D01*
X73891000Y-76100440D01*
X74126317Y-76056162D01*
X74342441Y-75917090D01*
X74422063Y-75800559D01*
X74488910Y-75904441D01*
X74701110Y-76049431D01*
X74953000Y-76100440D01*
X79733000Y-76100440D01*
X79968317Y-76056162D01*
X80184441Y-75917090D01*
X80264063Y-75800559D01*
X80330910Y-75904441D01*
X80543110Y-76049431D01*
X80795000Y-76100440D01*
X85575000Y-76100440D01*
X85810317Y-76056162D01*
X86026441Y-75917090D01*
X86171431Y-75704890D01*
X86222440Y-75453000D01*
X86222440Y-74953000D01*
X86178162Y-74717683D01*
X86039090Y-74501559D01*
X85922559Y-74421937D01*
X86026441Y-74355090D01*
X86171431Y-74142890D01*
X86222440Y-73891000D01*
X86222440Y-73391000D01*
X86178162Y-73155683D01*
X86039090Y-72939559D01*
X85826890Y-72794569D01*
X85575000Y-72743560D01*
X80795000Y-72743560D01*
X80559683Y-72787838D01*
X80343559Y-72926910D01*
X80263937Y-73043441D01*
X80197090Y-72939559D01*
X79984890Y-72794569D01*
X79733000Y-72743560D01*
X74953000Y-72743560D01*
X74717683Y-72787838D01*
X74501559Y-72926910D01*
X74421937Y-73043441D01*
X74355090Y-72939559D01*
X74142890Y-72794569D01*
X73891000Y-72743560D01*
X69111000Y-72743560D01*
X68875683Y-72787838D01*
X68659559Y-72926910D01*
X68579937Y-73043441D01*
X68513090Y-72939559D01*
X68300890Y-72794569D01*
X68049000Y-72743560D01*
X63269000Y-72743560D01*
X63033683Y-72787838D01*
X62817559Y-72926910D01*
X62737937Y-73043441D01*
X62671090Y-72939559D01*
X62458890Y-72794569D01*
X62207000Y-72743560D01*
X57427000Y-72743560D01*
X57191683Y-72787838D01*
X56975559Y-72926910D01*
X56895937Y-73043441D01*
X56829090Y-72939559D01*
X56616890Y-72794569D01*
X56365000Y-72743560D01*
X51689000Y-72743560D01*
X51689000Y-70258440D01*
X56365000Y-70258440D01*
X56600317Y-70214162D01*
X56816441Y-70075090D01*
X56896063Y-69958559D01*
X56962910Y-70062441D01*
X57175110Y-70207431D01*
X57427000Y-70258440D01*
X62207000Y-70258440D01*
X62442317Y-70214162D01*
X62658441Y-70075090D01*
X62738063Y-69958559D01*
X62804910Y-70062441D01*
X63017110Y-70207431D01*
X63269000Y-70258440D01*
X68049000Y-70258440D01*
X68284317Y-70214162D01*
X68500441Y-70075090D01*
X68580063Y-69958559D01*
X68646910Y-70062441D01*
X68859110Y-70207431D01*
X69111000Y-70258440D01*
X73891000Y-70258440D01*
X74126317Y-70214162D01*
X74342441Y-70075090D01*
X74422063Y-69958559D01*
X74488910Y-70062441D01*
X74701110Y-70207431D01*
X74953000Y-70258440D01*
X79733000Y-70258440D01*
X79968317Y-70214162D01*
X80184441Y-70075090D01*
X80264063Y-69958559D01*
X80330910Y-70062441D01*
X80543110Y-70207431D01*
X80795000Y-70258440D01*
X85575000Y-70258440D01*
X85810317Y-70214162D01*
X86026441Y-70075090D01*
X86171431Y-69862890D01*
X86222440Y-69611000D01*
X86222440Y-69111000D01*
X86178162Y-68875683D01*
X86039090Y-68659559D01*
X85922559Y-68579937D01*
X86026441Y-68513090D01*
X86171431Y-68300890D01*
X86222440Y-68049000D01*
X86222440Y-67549000D01*
X86178162Y-67313683D01*
X86039090Y-67097559D01*
X85826890Y-66952569D01*
X85575000Y-66901560D01*
X80795000Y-66901560D01*
X80559683Y-66945838D01*
X80343559Y-67084910D01*
X80263937Y-67201441D01*
X80197090Y-67097559D01*
X79984890Y-66952569D01*
X79733000Y-66901560D01*
X74953000Y-66901560D01*
X74717683Y-66945838D01*
X74501559Y-67084910D01*
X74421937Y-67201441D01*
X74355090Y-67097559D01*
X74142890Y-66952569D01*
X73891000Y-66901560D01*
X69111000Y-66901560D01*
X68875683Y-66945838D01*
X68659559Y-67084910D01*
X68579937Y-67201441D01*
X68513090Y-67097559D01*
X68300890Y-66952569D01*
X68049000Y-66901560D01*
X63269000Y-66901560D01*
X63033683Y-66945838D01*
X62817559Y-67084910D01*
X62737937Y-67201441D01*
X62671090Y-67097559D01*
X62458890Y-66952569D01*
X62207000Y-66901560D01*
X57427000Y-66901560D01*
X57191683Y-66945838D01*
X56975559Y-67084910D01*
X56895937Y-67201441D01*
X56829090Y-67097559D01*
X56616890Y-66952569D01*
X56365000Y-66901560D01*
X51689000Y-66901560D01*
X51689000Y-64416440D01*
X56365000Y-64416440D01*
X56600317Y-64372162D01*
X56816441Y-64233090D01*
X56896063Y-64116559D01*
X56962910Y-64220441D01*
X57175110Y-64365431D01*
X57427000Y-64416440D01*
X62207000Y-64416440D01*
X62442317Y-64372162D01*
X62658441Y-64233090D01*
X62738063Y-64116559D01*
X62804910Y-64220441D01*
X63017110Y-64365431D01*
X63269000Y-64416440D01*
X68049000Y-64416440D01*
X68284317Y-64372162D01*
X68500441Y-64233090D01*
X68580063Y-64116559D01*
X68646910Y-64220441D01*
X68859110Y-64365431D01*
X69111000Y-64416440D01*
X73891000Y-64416440D01*
X74126317Y-64372162D01*
X74342441Y-64233090D01*
X74422063Y-64116559D01*
X74488910Y-64220441D01*
X74701110Y-64365431D01*
X74953000Y-64416440D01*
X79733000Y-64416440D01*
X79968317Y-64372162D01*
X80184441Y-64233090D01*
X80264063Y-64116559D01*
X80330910Y-64220441D01*
X80543110Y-64365431D01*
X80795000Y-64416440D01*
X85575000Y-64416440D01*
X85810317Y-64372162D01*
X86026441Y-64233090D01*
X86171431Y-64020890D01*
X86222440Y-63769000D01*
X86222440Y-63269000D01*
X86178162Y-63033683D01*
X86039090Y-62817559D01*
X85922559Y-62737937D01*
X86026441Y-62671090D01*
X86171431Y-62458890D01*
X86222440Y-62207000D01*
X86222440Y-61707000D01*
X86178162Y-61471683D01*
X86039090Y-61255559D01*
X85826890Y-61110569D01*
X85575000Y-61059560D01*
X80795000Y-61059560D01*
X80559683Y-61103838D01*
X80343559Y-61242910D01*
X80263937Y-61359441D01*
X80197090Y-61255559D01*
X79984890Y-61110569D01*
X79733000Y-61059560D01*
X74953000Y-61059560D01*
X74717683Y-61103838D01*
X74501559Y-61242910D01*
X74421937Y-61359441D01*
X74355090Y-61255559D01*
X74142890Y-61110569D01*
X73891000Y-61059560D01*
X69111000Y-61059560D01*
X68875683Y-61103838D01*
X68659559Y-61242910D01*
X68579937Y-61359441D01*
X68513090Y-61255559D01*
X68300890Y-61110569D01*
X68049000Y-61059560D01*
X63269000Y-61059560D01*
X63033683Y-61103838D01*
X62817559Y-61242910D01*
X62737937Y-61359441D01*
X62671090Y-61255559D01*
X62458890Y-61110569D01*
X62207000Y-61059560D01*
X57427000Y-61059560D01*
X57191683Y-61103838D01*
X56975559Y-61242910D01*
X56895937Y-61359441D01*
X56829090Y-61255559D01*
X56616890Y-61110569D01*
X56365000Y-61059560D01*
X51689000Y-61059560D01*
X51689000Y-58574440D01*
X56365000Y-58574440D01*
X56600317Y-58530162D01*
X56816441Y-58391090D01*
X56896063Y-58274559D01*
X56962910Y-58378441D01*
X57175110Y-58523431D01*
X57427000Y-58574440D01*
X62207000Y-58574440D01*
X62442317Y-58530162D01*
X62658441Y-58391090D01*
X62738063Y-58274559D01*
X62804910Y-58378441D01*
X63017110Y-58523431D01*
X63269000Y-58574440D01*
X68049000Y-58574440D01*
X68284317Y-58530162D01*
X68500441Y-58391090D01*
X68580063Y-58274559D01*
X68646910Y-58378441D01*
X68859110Y-58523431D01*
X69111000Y-58574440D01*
X73891000Y-58574440D01*
X74126317Y-58530162D01*
X74342441Y-58391090D01*
X74422063Y-58274559D01*
X74488910Y-58378441D01*
X74701110Y-58523431D01*
X74953000Y-58574440D01*
X79733000Y-58574440D01*
X79968317Y-58530162D01*
X80184441Y-58391090D01*
X80264063Y-58274559D01*
X80330910Y-58378441D01*
X80543110Y-58523431D01*
X80795000Y-58574440D01*
X85575000Y-58574440D01*
X85810317Y-58530162D01*
X86026441Y-58391090D01*
X86171431Y-58178890D01*
X86222440Y-57927000D01*
X86222440Y-57427000D01*
X86178162Y-57191683D01*
X86039090Y-56975559D01*
X85922559Y-56895937D01*
X86026441Y-56829090D01*
X86171431Y-56616890D01*
X86222440Y-56365000D01*
X86222440Y-55865000D01*
X86178162Y-55629683D01*
X86039090Y-55413559D01*
X85826890Y-55268569D01*
X85575000Y-55217560D01*
X80795000Y-55217560D01*
X80559683Y-55261838D01*
X80343559Y-55400910D01*
X80263937Y-55517441D01*
X80197090Y-55413559D01*
X79984890Y-55268569D01*
X79733000Y-55217560D01*
X74953000Y-55217560D01*
X74717683Y-55261838D01*
X74501559Y-55400910D01*
X74421937Y-55517441D01*
X74355090Y-55413559D01*
X74142890Y-55268569D01*
X73891000Y-55217560D01*
X69111000Y-55217560D01*
X68875683Y-55261838D01*
X68659559Y-55400910D01*
X68579937Y-55517441D01*
X68513090Y-55413559D01*
X68300890Y-55268569D01*
X68049000Y-55217560D01*
X63269000Y-55217560D01*
X63033683Y-55261838D01*
X62817559Y-55400910D01*
X62737937Y-55517441D01*
X62671090Y-55413559D01*
X62458890Y-55268569D01*
X62207000Y-55217560D01*
X57427000Y-55217560D01*
X57191683Y-55261838D01*
X56975559Y-55400910D01*
X56895937Y-55517441D01*
X56829090Y-55413559D01*
X56616890Y-55268569D01*
X56365000Y-55217560D01*
X51689000Y-55217560D01*
X51689000Y-52732440D01*
X56365000Y-52732440D01*
X56510831Y-52705000D01*
X57291497Y-52705000D01*
X57427000Y-52732440D01*
X62207000Y-52732440D01*
X62352831Y-52705000D01*
X63133497Y-52705000D01*
X63269000Y-52732440D01*
X68049000Y-52732440D01*
X68194831Y-52705000D01*
X68975497Y-52705000D01*
X69111000Y-52732440D01*
X73891000Y-52732440D01*
X74036831Y-52705000D01*
X74817497Y-52705000D01*
X74953000Y-52732440D01*
X79733000Y-52732440D01*
X79878831Y-52705000D01*
X80659497Y-52705000D01*
X80795000Y-52732440D01*
X85575000Y-52732440D01*
X85720831Y-52705000D01*
X88265000Y-52705000D01*
X88314410Y-52694994D01*
X88356035Y-52666553D01*
X88383315Y-52624159D01*
X88392000Y-52578000D01*
X88392000Y-46355000D01*
X88381994Y-46305590D01*
X88353553Y-46263965D01*
X88311159Y-46236685D01*
X88265000Y-46228000D01*
X50927000Y-46228000D01*
X50927000Y-26110000D01*
X106311893Y-26110000D01*
X105145485Y-26591950D01*
M02*
