G04 #@! TF.FileFunction,Legend,Bot*
%FSLAX46Y46*%
G04 Gerber Fmt 4.6, Leading zero omitted, Abs format (unit mm)*
G04 Created by KiCad (PCBNEW 4.0.7) date 02/03/18 13:53:17*
%MOMM*%
%LPD*%
G01*
G04 APERTURE LIST*
%ADD10C,0.100000*%
%ADD11C,0.120000*%
%ADD12C,0.150000*%
G04 APERTURE END LIST*
D10*
D11*
X67207500Y-44767500D02*
G75*
G03X67207500Y-44767500I-11090000J0D01*
G01*
X56117500Y-55817500D02*
X56117500Y-33717500D01*
X56157500Y-55817500D02*
X56157500Y-33717500D01*
X56197500Y-55817500D02*
X56197500Y-33717500D01*
X56237500Y-55817500D02*
X56237500Y-33717500D01*
X56277500Y-55816500D02*
X56277500Y-33718500D01*
X56317500Y-55816500D02*
X56317500Y-33718500D01*
X56357500Y-55815500D02*
X56357500Y-33719500D01*
X56397500Y-55814500D02*
X56397500Y-33720500D01*
X56437500Y-55813500D02*
X56437500Y-33721500D01*
X56477500Y-55812500D02*
X56477500Y-33722500D01*
X56517500Y-55810500D02*
X56517500Y-33724500D01*
X56557500Y-55809500D02*
X56557500Y-33725500D01*
X56597500Y-55807500D02*
X56597500Y-33727500D01*
X56637500Y-55805500D02*
X56637500Y-33729500D01*
X56677500Y-55803500D02*
X56677500Y-33731500D01*
X56717500Y-55801500D02*
X56717500Y-33733500D01*
X56757500Y-55799500D02*
X56757500Y-33735500D01*
X56797500Y-55797500D02*
X56797500Y-33737500D01*
X56838500Y-55794500D02*
X56838500Y-33740500D01*
X56878500Y-55791500D02*
X56878500Y-33743500D01*
X56918500Y-55789500D02*
X56918500Y-33745500D01*
X56958500Y-55786500D02*
X56958500Y-33748500D01*
X56998500Y-55783500D02*
X56998500Y-33751500D01*
X57038500Y-55779500D02*
X57038500Y-33755500D01*
X57078500Y-55776500D02*
X57078500Y-33758500D01*
X57118500Y-55772500D02*
X57118500Y-33762500D01*
X57158500Y-55769500D02*
X57158500Y-33765500D01*
X57198500Y-55765500D02*
X57198500Y-33769500D01*
X57238500Y-55761500D02*
X57238500Y-33773500D01*
X57278500Y-55757500D02*
X57278500Y-33777500D01*
X57318500Y-55752500D02*
X57318500Y-33782500D01*
X57358500Y-55748500D02*
X57358500Y-33786500D01*
X57398500Y-55743500D02*
X57398500Y-33791500D01*
X57438500Y-55739500D02*
X57438500Y-33795500D01*
X57478500Y-55734500D02*
X57478500Y-33800500D01*
X57518500Y-55729500D02*
X57518500Y-33805500D01*
X57558500Y-55724500D02*
X57558500Y-33810500D01*
X57598500Y-55718500D02*
X57598500Y-33816500D01*
X57638500Y-55713500D02*
X57638500Y-33821500D01*
X57678500Y-55707500D02*
X57678500Y-33827500D01*
X57718500Y-55701500D02*
X57718500Y-33833500D01*
X57758500Y-55696500D02*
X57758500Y-33838500D01*
X57798500Y-55690500D02*
X57798500Y-33844500D01*
X57838500Y-55683500D02*
X57838500Y-33851500D01*
X57878500Y-55677500D02*
X57878500Y-33857500D01*
X57918500Y-55670500D02*
X57918500Y-33864500D01*
X57958500Y-55664500D02*
X57958500Y-33870500D01*
X57998500Y-55657500D02*
X57998500Y-33877500D01*
X58038500Y-55650500D02*
X58038500Y-33884500D01*
X58078500Y-55643500D02*
X58078500Y-33891500D01*
X58118500Y-55636500D02*
X58118500Y-33898500D01*
X58158500Y-55628500D02*
X58158500Y-33906500D01*
X58198500Y-55621500D02*
X58198500Y-33913500D01*
X58238500Y-55613500D02*
X58238500Y-33921500D01*
X58278500Y-55605500D02*
X58278500Y-33929500D01*
X58318500Y-55597500D02*
X58318500Y-33937500D01*
X58358500Y-55589500D02*
X58358500Y-33945500D01*
X58398500Y-55581500D02*
X58398500Y-33953500D01*
X58438500Y-55572500D02*
X58438500Y-33962500D01*
X58478500Y-55563500D02*
X58478500Y-33971500D01*
X58518500Y-55555500D02*
X58518500Y-33979500D01*
X58558500Y-55546500D02*
X58558500Y-33988500D01*
X58598500Y-55537500D02*
X58598500Y-33997500D01*
X58638500Y-55527500D02*
X58638500Y-34007500D01*
X58678500Y-55518500D02*
X58678500Y-34016500D01*
X58718500Y-55508500D02*
X58718500Y-34026500D01*
X58758500Y-55499500D02*
X58758500Y-34035500D01*
X58798500Y-55489500D02*
X58798500Y-34045500D01*
X58838500Y-55479500D02*
X58838500Y-34055500D01*
X58878500Y-55469500D02*
X58878500Y-34065500D01*
X58918500Y-55458500D02*
X58918500Y-34076500D01*
X58958500Y-55448500D02*
X58958500Y-46947500D01*
X58958500Y-42587500D02*
X58958500Y-34086500D01*
X58998500Y-55437500D02*
X58998500Y-46947500D01*
X58998500Y-42587500D02*
X58998500Y-34097500D01*
X59038500Y-55426500D02*
X59038500Y-46947500D01*
X59038500Y-42587500D02*
X59038500Y-34108500D01*
X59078500Y-55415500D02*
X59078500Y-46947500D01*
X59078500Y-42587500D02*
X59078500Y-34119500D01*
X59118500Y-55404500D02*
X59118500Y-46947500D01*
X59118500Y-42587500D02*
X59118500Y-34130500D01*
X59158500Y-55393500D02*
X59158500Y-46947500D01*
X59158500Y-42587500D02*
X59158500Y-34141500D01*
X59198500Y-55381500D02*
X59198500Y-46947500D01*
X59198500Y-42587500D02*
X59198500Y-34153500D01*
X59238500Y-55370500D02*
X59238500Y-46947500D01*
X59238500Y-42587500D02*
X59238500Y-34164500D01*
X59278500Y-55358500D02*
X59278500Y-46947500D01*
X59278500Y-42587500D02*
X59278500Y-34176500D01*
X59318500Y-55346500D02*
X59318500Y-46947500D01*
X59318500Y-42587500D02*
X59318500Y-34188500D01*
X59358500Y-55334500D02*
X59358500Y-46947500D01*
X59358500Y-42587500D02*
X59358500Y-34200500D01*
X59398500Y-55321500D02*
X59398500Y-46947500D01*
X59398500Y-42587500D02*
X59398500Y-34213500D01*
X59438500Y-55309500D02*
X59438500Y-46947500D01*
X59438500Y-42587500D02*
X59438500Y-34225500D01*
X59478500Y-55296500D02*
X59478500Y-46947500D01*
X59478500Y-42587500D02*
X59478500Y-34238500D01*
X59518500Y-55283500D02*
X59518500Y-46947500D01*
X59518500Y-42587500D02*
X59518500Y-34251500D01*
X59558500Y-55270500D02*
X59558500Y-46947500D01*
X59558500Y-42587500D02*
X59558500Y-34264500D01*
X59598500Y-55257500D02*
X59598500Y-46947500D01*
X59598500Y-42587500D02*
X59598500Y-34277500D01*
X59638500Y-55244500D02*
X59638500Y-46947500D01*
X59638500Y-42587500D02*
X59638500Y-34290500D01*
X59678500Y-55231500D02*
X59678500Y-46947500D01*
X59678500Y-42587500D02*
X59678500Y-34303500D01*
X59718500Y-55217500D02*
X59718500Y-46947500D01*
X59718500Y-42587500D02*
X59718500Y-34317500D01*
X59758500Y-55203500D02*
X59758500Y-46947500D01*
X59758500Y-42587500D02*
X59758500Y-34331500D01*
X59798500Y-55189500D02*
X59798500Y-46947500D01*
X59798500Y-42587500D02*
X59798500Y-34345500D01*
X59838500Y-55175500D02*
X59838500Y-46947500D01*
X59838500Y-42587500D02*
X59838500Y-34359500D01*
X59878500Y-55161500D02*
X59878500Y-46947500D01*
X59878500Y-42587500D02*
X59878500Y-34373500D01*
X59918500Y-55146500D02*
X59918500Y-46947500D01*
X59918500Y-42587500D02*
X59918500Y-34388500D01*
X59958500Y-55131500D02*
X59958500Y-46947500D01*
X59958500Y-42587500D02*
X59958500Y-34403500D01*
X59998500Y-55117500D02*
X59998500Y-46947500D01*
X59998500Y-42587500D02*
X59998500Y-34417500D01*
X60038500Y-55102500D02*
X60038500Y-46947500D01*
X60038500Y-42587500D02*
X60038500Y-34432500D01*
X60078500Y-55086500D02*
X60078500Y-46947500D01*
X60078500Y-42587500D02*
X60078500Y-34448500D01*
X60118500Y-55071500D02*
X60118500Y-46947500D01*
X60118500Y-42587500D02*
X60118500Y-34463500D01*
X60158500Y-55055500D02*
X60158500Y-46947500D01*
X60158500Y-42587500D02*
X60158500Y-34479500D01*
X60198500Y-55040500D02*
X60198500Y-46947500D01*
X60198500Y-42587500D02*
X60198500Y-34494500D01*
X60238500Y-55024500D02*
X60238500Y-46947500D01*
X60238500Y-42587500D02*
X60238500Y-34510500D01*
X60278500Y-55008500D02*
X60278500Y-46947500D01*
X60278500Y-42587500D02*
X60278500Y-34526500D01*
X60318500Y-54991500D02*
X60318500Y-46947500D01*
X60318500Y-42587500D02*
X60318500Y-34543500D01*
X60358500Y-54975500D02*
X60358500Y-46947500D01*
X60358500Y-42587500D02*
X60358500Y-34559500D01*
X60398500Y-54958500D02*
X60398500Y-46947500D01*
X60398500Y-42587500D02*
X60398500Y-34576500D01*
X60438500Y-54941500D02*
X60438500Y-46947500D01*
X60438500Y-42587500D02*
X60438500Y-34593500D01*
X60478500Y-54924500D02*
X60478500Y-46947500D01*
X60478500Y-42587500D02*
X60478500Y-34610500D01*
X60518500Y-54907500D02*
X60518500Y-46947500D01*
X60518500Y-42587500D02*
X60518500Y-34627500D01*
X60558500Y-54890500D02*
X60558500Y-46947500D01*
X60558500Y-42587500D02*
X60558500Y-34644500D01*
X60598500Y-54872500D02*
X60598500Y-46947500D01*
X60598500Y-42587500D02*
X60598500Y-34662500D01*
X60638500Y-54855500D02*
X60638500Y-46947500D01*
X60638500Y-42587500D02*
X60638500Y-34679500D01*
X60678500Y-54837500D02*
X60678500Y-46947500D01*
X60678500Y-42587500D02*
X60678500Y-34697500D01*
X60718500Y-54818500D02*
X60718500Y-46947500D01*
X60718500Y-42587500D02*
X60718500Y-34716500D01*
X60758500Y-54800500D02*
X60758500Y-46947500D01*
X60758500Y-42587500D02*
X60758500Y-34734500D01*
X60798500Y-54782500D02*
X60798500Y-46947500D01*
X60798500Y-42587500D02*
X60798500Y-34752500D01*
X60838500Y-54763500D02*
X60838500Y-46947500D01*
X60838500Y-42587500D02*
X60838500Y-34771500D01*
X60878500Y-54744500D02*
X60878500Y-46947500D01*
X60878500Y-42587500D02*
X60878500Y-34790500D01*
X60918500Y-54725500D02*
X60918500Y-46947500D01*
X60918500Y-42587500D02*
X60918500Y-34809500D01*
X60958500Y-54706500D02*
X60958500Y-46947500D01*
X60958500Y-42587500D02*
X60958500Y-34828500D01*
X60998500Y-54686500D02*
X60998500Y-46947500D01*
X60998500Y-42587500D02*
X60998500Y-34848500D01*
X61038500Y-54666500D02*
X61038500Y-46947500D01*
X61038500Y-42587500D02*
X61038500Y-34868500D01*
X61078500Y-54646500D02*
X61078500Y-46947500D01*
X61078500Y-42587500D02*
X61078500Y-34888500D01*
X61118500Y-54626500D02*
X61118500Y-46947500D01*
X61118500Y-42587500D02*
X61118500Y-34908500D01*
X61158500Y-54606500D02*
X61158500Y-46947500D01*
X61158500Y-42587500D02*
X61158500Y-34928500D01*
X61198500Y-54586500D02*
X61198500Y-46947500D01*
X61198500Y-42587500D02*
X61198500Y-34948500D01*
X61238500Y-54565500D02*
X61238500Y-46947500D01*
X61238500Y-42587500D02*
X61238500Y-34969500D01*
X61278500Y-54544500D02*
X61278500Y-46947500D01*
X61278500Y-42587500D02*
X61278500Y-34990500D01*
X61318500Y-54523500D02*
X61318500Y-46947500D01*
X61318500Y-42587500D02*
X61318500Y-35011500D01*
X61358500Y-54501500D02*
X61358500Y-46947500D01*
X61358500Y-42587500D02*
X61358500Y-35033500D01*
X61398500Y-54480500D02*
X61398500Y-46947500D01*
X61398500Y-42587500D02*
X61398500Y-35054500D01*
X61438500Y-54458500D02*
X61438500Y-46947500D01*
X61438500Y-42587500D02*
X61438500Y-35076500D01*
X61478500Y-54436500D02*
X61478500Y-46947500D01*
X61478500Y-42587500D02*
X61478500Y-35098500D01*
X61518500Y-54414500D02*
X61518500Y-46947500D01*
X61518500Y-42587500D02*
X61518500Y-35120500D01*
X61558500Y-54392500D02*
X61558500Y-46947500D01*
X61558500Y-42587500D02*
X61558500Y-35142500D01*
X61598500Y-54369500D02*
X61598500Y-46947500D01*
X61598500Y-42587500D02*
X61598500Y-35165500D01*
X61638500Y-54346500D02*
X61638500Y-46947500D01*
X61638500Y-42587500D02*
X61638500Y-35188500D01*
X61678500Y-54323500D02*
X61678500Y-46947500D01*
X61678500Y-42587500D02*
X61678500Y-35211500D01*
X61718500Y-54300500D02*
X61718500Y-46947500D01*
X61718500Y-42587500D02*
X61718500Y-35234500D01*
X61758500Y-54276500D02*
X61758500Y-46947500D01*
X61758500Y-42587500D02*
X61758500Y-35258500D01*
X61798500Y-54253500D02*
X61798500Y-46947500D01*
X61798500Y-42587500D02*
X61798500Y-35281500D01*
X61838500Y-54229500D02*
X61838500Y-46947500D01*
X61838500Y-42587500D02*
X61838500Y-35305500D01*
X61878500Y-54204500D02*
X61878500Y-46947500D01*
X61878500Y-42587500D02*
X61878500Y-35330500D01*
X61918500Y-54180500D02*
X61918500Y-46947500D01*
X61918500Y-42587500D02*
X61918500Y-35354500D01*
X61958500Y-54155500D02*
X61958500Y-46947500D01*
X61958500Y-42587500D02*
X61958500Y-35379500D01*
X61998500Y-54130500D02*
X61998500Y-46947500D01*
X61998500Y-42587500D02*
X61998500Y-35404500D01*
X62038500Y-54105500D02*
X62038500Y-46947500D01*
X62038500Y-42587500D02*
X62038500Y-35429500D01*
X62078500Y-54080500D02*
X62078500Y-46947500D01*
X62078500Y-42587500D02*
X62078500Y-35454500D01*
X62118500Y-54054500D02*
X62118500Y-46947500D01*
X62118500Y-42587500D02*
X62118500Y-35480500D01*
X62158500Y-54028500D02*
X62158500Y-46947500D01*
X62158500Y-42587500D02*
X62158500Y-35506500D01*
X62198500Y-54002500D02*
X62198500Y-46947500D01*
X62198500Y-42587500D02*
X62198500Y-35532500D01*
X62238500Y-53976500D02*
X62238500Y-46947500D01*
X62238500Y-42587500D02*
X62238500Y-35558500D01*
X62278500Y-53949500D02*
X62278500Y-46947500D01*
X62278500Y-42587500D02*
X62278500Y-35585500D01*
X62318500Y-53923500D02*
X62318500Y-46947500D01*
X62318500Y-42587500D02*
X62318500Y-35611500D01*
X62358500Y-53895500D02*
X62358500Y-46947500D01*
X62358500Y-42587500D02*
X62358500Y-35639500D01*
X62398500Y-53868500D02*
X62398500Y-46947500D01*
X62398500Y-42587500D02*
X62398500Y-35666500D01*
X62438500Y-53840500D02*
X62438500Y-46947500D01*
X62438500Y-42587500D02*
X62438500Y-35694500D01*
X62478500Y-53813500D02*
X62478500Y-46947500D01*
X62478500Y-42587500D02*
X62478500Y-35721500D01*
X62518500Y-53784500D02*
X62518500Y-46947500D01*
X62518500Y-42587500D02*
X62518500Y-35750500D01*
X62558500Y-53756500D02*
X62558500Y-46947500D01*
X62558500Y-42587500D02*
X62558500Y-35778500D01*
X62598500Y-53727500D02*
X62598500Y-46947500D01*
X62598500Y-42587500D02*
X62598500Y-35807500D01*
X62638500Y-53698500D02*
X62638500Y-46947500D01*
X62638500Y-42587500D02*
X62638500Y-35836500D01*
X62678500Y-53669500D02*
X62678500Y-46947500D01*
X62678500Y-42587500D02*
X62678500Y-35865500D01*
X62718500Y-53640500D02*
X62718500Y-46947500D01*
X62718500Y-42587500D02*
X62718500Y-35894500D01*
X62758500Y-53610500D02*
X62758500Y-46947500D01*
X62758500Y-42587500D02*
X62758500Y-35924500D01*
X62798500Y-53580500D02*
X62798500Y-46947500D01*
X62798500Y-42587500D02*
X62798500Y-35954500D01*
X62838500Y-53550500D02*
X62838500Y-46947500D01*
X62838500Y-42587500D02*
X62838500Y-35984500D01*
X62878500Y-53519500D02*
X62878500Y-46947500D01*
X62878500Y-42587500D02*
X62878500Y-36015500D01*
X62918500Y-53488500D02*
X62918500Y-46947500D01*
X62918500Y-42587500D02*
X62918500Y-36046500D01*
X62958500Y-53457500D02*
X62958500Y-46947500D01*
X62958500Y-42587500D02*
X62958500Y-36077500D01*
X62998500Y-53425500D02*
X62998500Y-46947500D01*
X62998500Y-42587500D02*
X62998500Y-36109500D01*
X63038500Y-53394500D02*
X63038500Y-46947500D01*
X63038500Y-42587500D02*
X63038500Y-36140500D01*
X63078500Y-53362500D02*
X63078500Y-46947500D01*
X63078500Y-42587500D02*
X63078500Y-36172500D01*
X63118500Y-53329500D02*
X63118500Y-46947500D01*
X63118500Y-42587500D02*
X63118500Y-36205500D01*
X63158500Y-53296500D02*
X63158500Y-46947500D01*
X63158500Y-42587500D02*
X63158500Y-36238500D01*
X63198500Y-53263500D02*
X63198500Y-46947500D01*
X63198500Y-42587500D02*
X63198500Y-36271500D01*
X63238500Y-53230500D02*
X63238500Y-46947500D01*
X63238500Y-42587500D02*
X63238500Y-36304500D01*
X63278500Y-53196500D02*
X63278500Y-46947500D01*
X63278500Y-42587500D02*
X63278500Y-36338500D01*
X63318500Y-53162500D02*
X63318500Y-36372500D01*
X63358500Y-53128500D02*
X63358500Y-36406500D01*
X63398500Y-53093500D02*
X63398500Y-36441500D01*
X63438500Y-53059500D02*
X63438500Y-36475500D01*
X63478500Y-53023500D02*
X63478500Y-36511500D01*
X63518500Y-52988500D02*
X63518500Y-36546500D01*
X63558500Y-52952500D02*
X63558500Y-36582500D01*
X63598500Y-52915500D02*
X63598500Y-36619500D01*
X63638500Y-52878500D02*
X63638500Y-36656500D01*
X63678500Y-52841500D02*
X63678500Y-36693500D01*
X63718500Y-52804500D02*
X63718500Y-36730500D01*
X63758500Y-52766500D02*
X63758500Y-36768500D01*
X63798500Y-52728500D02*
X63798500Y-36806500D01*
X63838500Y-52689500D02*
X63838500Y-36845500D01*
X63878500Y-52650500D02*
X63878500Y-36884500D01*
X63918500Y-52611500D02*
X63918500Y-36923500D01*
X63958500Y-52571500D02*
X63958500Y-36963500D01*
X63998500Y-52531500D02*
X63998500Y-37003500D01*
X64038500Y-52490500D02*
X64038500Y-37044500D01*
X64078500Y-52449500D02*
X64078500Y-37085500D01*
X64118500Y-52408500D02*
X64118500Y-37126500D01*
X64158500Y-52366500D02*
X64158500Y-37168500D01*
X64198500Y-52324500D02*
X64198500Y-37210500D01*
X64238500Y-52281500D02*
X64238500Y-37253500D01*
X64278500Y-52238500D02*
X64278500Y-37296500D01*
X64317500Y-52194500D02*
X64317500Y-37340500D01*
X64357500Y-52150500D02*
X64357500Y-37384500D01*
X64397500Y-52105500D02*
X64397500Y-37429500D01*
X64437500Y-52060500D02*
X64437500Y-37474500D01*
X64477500Y-52014500D02*
X64477500Y-37520500D01*
X64517500Y-51968500D02*
X64517500Y-37566500D01*
X64557500Y-51922500D02*
X64557500Y-37612500D01*
X64597500Y-51874500D02*
X64597500Y-37660500D01*
X64637500Y-51827500D02*
X64637500Y-37707500D01*
X64677500Y-51778500D02*
X64677500Y-37756500D01*
X64717500Y-51730500D02*
X64717500Y-37804500D01*
X64757500Y-51680500D02*
X64757500Y-37854500D01*
X64797500Y-51630500D02*
X64797500Y-37904500D01*
X64837500Y-51579500D02*
X64837500Y-37955500D01*
X64877500Y-51528500D02*
X64877500Y-38006500D01*
X64917500Y-51476500D02*
X64917500Y-38058500D01*
X64957500Y-51424500D02*
X64957500Y-38110500D01*
X64997500Y-51371500D02*
X64997500Y-38163500D01*
X65037500Y-51317500D02*
X65037500Y-38217500D01*
X65077500Y-51263500D02*
X65077500Y-38271500D01*
X65117500Y-51207500D02*
X65117500Y-38327500D01*
X65157500Y-51151500D02*
X65157500Y-38383500D01*
X65197500Y-51095500D02*
X65197500Y-38439500D01*
X65237500Y-51037500D02*
X65237500Y-38497500D01*
X65277500Y-50979500D02*
X65277500Y-38555500D01*
X65317500Y-50920500D02*
X65317500Y-38614500D01*
X65357500Y-50860500D02*
X65357500Y-38674500D01*
X65397500Y-50800500D02*
X65397500Y-38734500D01*
X65437500Y-50738500D02*
X65437500Y-38796500D01*
X65477500Y-50675500D02*
X65477500Y-38859500D01*
X65517500Y-50612500D02*
X65517500Y-38922500D01*
X65557500Y-50548500D02*
X65557500Y-38986500D01*
X65597500Y-50482500D02*
X65597500Y-39052500D01*
X65637500Y-50416500D02*
X65637500Y-39118500D01*
X65677500Y-50348500D02*
X65677500Y-39186500D01*
X65717500Y-50280500D02*
X65717500Y-39254500D01*
X65757500Y-50210500D02*
X65757500Y-39324500D01*
X65797500Y-50139500D02*
X65797500Y-39395500D01*
X65837500Y-50067500D02*
X65837500Y-39467500D01*
X65877500Y-49993500D02*
X65877500Y-39541500D01*
X65917500Y-49919500D02*
X65917500Y-39615500D01*
X65957500Y-49842500D02*
X65957500Y-39692500D01*
X65997500Y-49765500D02*
X65997500Y-39769500D01*
X66037500Y-49685500D02*
X66037500Y-39849500D01*
X66077500Y-49605500D02*
X66077500Y-39929500D01*
X66117500Y-49522500D02*
X66117500Y-40012500D01*
X66157500Y-49438500D02*
X66157500Y-40096500D01*
X66197500Y-49352500D02*
X66197500Y-40182500D01*
X66237500Y-49263500D02*
X66237500Y-40271500D01*
X66277500Y-49173500D02*
X66277500Y-40361500D01*
X66317500Y-49080500D02*
X66317500Y-40454500D01*
X66357500Y-48985500D02*
X66357500Y-40549500D01*
X66397500Y-48888500D02*
X66397500Y-40646500D01*
X66437500Y-48788500D02*
X66437500Y-40746500D01*
X66477500Y-48685500D02*
X66477500Y-40849500D01*
X66517500Y-48578500D02*
X66517500Y-40956500D01*
X66557500Y-48468500D02*
X66557500Y-41066500D01*
X66597500Y-48355500D02*
X66597500Y-41179500D01*
X66637500Y-48237500D02*
X66637500Y-41297500D01*
X66677500Y-48115500D02*
X66677500Y-41419500D01*
X66717500Y-47988500D02*
X66717500Y-41546500D01*
X66757500Y-47855500D02*
X66757500Y-41679500D01*
X66797500Y-47715500D02*
X66797500Y-41819500D01*
X66837500Y-47568500D02*
X66837500Y-41966500D01*
X66877500Y-47413500D02*
X66877500Y-42121500D01*
X66917500Y-47247500D02*
X66917500Y-42287500D01*
X66957500Y-47069500D02*
X66957500Y-42465500D01*
X66997500Y-46875500D02*
X66997500Y-42659500D01*
X67037500Y-46662500D02*
X67037500Y-42872500D01*
X67077500Y-46421500D02*
X67077500Y-43113500D01*
X67117500Y-46138500D02*
X67117500Y-43396500D01*
X67157500Y-45779500D02*
X67157500Y-43755500D01*
X67197500Y-45198500D02*
X67197500Y-44336500D01*
X45917500Y-44767500D02*
X48917500Y-44767500D01*
X47417500Y-46267500D02*
X47417500Y-43267500D01*
D12*
X56284166Y-57434643D02*
X56331785Y-57482262D01*
X56474642Y-57529881D01*
X56569880Y-57529881D01*
X56712738Y-57482262D01*
X56807976Y-57387024D01*
X56855595Y-57291786D01*
X56903214Y-57101310D01*
X56903214Y-56958452D01*
X56855595Y-56767976D01*
X56807976Y-56672738D01*
X56712738Y-56577500D01*
X56569880Y-56529881D01*
X56474642Y-56529881D01*
X56331785Y-56577500D01*
X56284166Y-56625119D01*
X55427023Y-56529881D02*
X55617500Y-56529881D01*
X55712738Y-56577500D01*
X55760357Y-56625119D01*
X55855595Y-56767976D01*
X55903214Y-56958452D01*
X55903214Y-57339405D01*
X55855595Y-57434643D01*
X55807976Y-57482262D01*
X55712738Y-57529881D01*
X55522261Y-57529881D01*
X55427023Y-57482262D01*
X55379404Y-57434643D01*
X55331785Y-57339405D01*
X55331785Y-57101310D01*
X55379404Y-57006071D01*
X55427023Y-56958452D01*
X55522261Y-56910833D01*
X55712738Y-56910833D01*
X55807976Y-56958452D01*
X55855595Y-57006071D01*
X55903214Y-57101310D01*
M02*
