G04 #@! TF.FileFunction,Soldermask,Top*
%FSLAX46Y46*%
G04 Gerber Fmt 4.6, Leading zero omitted, Abs format (unit mm)*
G04 Created by KiCad (PCBNEW 4.0.7) date 03/08/18 15:58:25*
%MOMM*%
%LPD*%
G01*
G04 APERTURE LIST*
%ADD10C,0.100000*%
%ADD11R,2.800000X2.800000*%
%ADD12C,2.800000*%
%ADD13R,5.180000X0.900000*%
%ADD14R,5.180000X3.180000*%
%ADD15R,13.400000X5.150000*%
%ADD16R,2.000000X1.400000*%
%ADD17R,2.400000X4.200000*%
%ADD18R,2.400000X1.900000*%
%ADD19R,2.482800X4.210000*%
%ADD20R,11.830000X9.290000*%
%ADD21R,3.194000X2.609800*%
%ADD22R,3.194000X3.194000*%
%ADD23C,2.101800*%
%ADD24R,2.100000X1.300000*%
%ADD25C,6.800000*%
%ADD26C,1.568400*%
%ADD27R,0.900000X1.300000*%
%ADD28R,1.300000X0.900000*%
%ADD29R,2.600000X1.600000*%
%ADD30R,6.800000X6.200000*%
%ADD31R,2.100000X2.100000*%
%ADD32O,2.100000X2.100000*%
%ADD33R,4.400000X4.400000*%
%ADD34R,3.700000X2.900000*%
%ADD35R,1.400000X1.300000*%
%ADD36R,1.150000X1.200000*%
%ADD37R,2.000000X3.900000*%
%ADD38R,1.000000X1.900000*%
%ADD39R,2.900000X3.700000*%
%ADD40R,1.300000X2.100000*%
%ADD41R,1.050000X0.800000*%
%ADD42R,3.400000X1.400000*%
G04 APERTURE END LIST*
D10*
D11*
X43180000Y-74930000D03*
D12*
X43180000Y-69930000D03*
D13*
X53975000Y-67799000D03*
X53975000Y-63519000D03*
D14*
X53975000Y-65659000D03*
D13*
X71501000Y-73641000D03*
X71501000Y-69361000D03*
D14*
X71501000Y-71501000D03*
D15*
X35560000Y-84910000D03*
X35560000Y-94160000D03*
D16*
X38735000Y-98830000D03*
X38735000Y-101830000D03*
X28987750Y-64978148D03*
X28987750Y-67978148D03*
X76200000Y-99290000D03*
X76200000Y-96290000D03*
D17*
X85700000Y-95885000D03*
D18*
X79400000Y-95885000D03*
X79400000Y-98185000D03*
X79400000Y-93585000D03*
D19*
X40513000Y-66421000D03*
X45593000Y-66421000D03*
D20*
X43053000Y-54864000D03*
D21*
X89636600Y-107365800D03*
D22*
X97053400Y-99974400D03*
D21*
X97053400Y-109372400D03*
D23*
X93345000Y-101244400D03*
X93345000Y-108254800D03*
D24*
X57912000Y-91366000D03*
X57912000Y-88466000D03*
D25*
X107315000Y-29845000D03*
X29845000Y-29845000D03*
X107315000Y-107315000D03*
X29845000Y-107315000D03*
D26*
X84435000Y-106520000D03*
X81935000Y-106520000D03*
D27*
X61710000Y-91440000D03*
X60210000Y-91440000D03*
D28*
X30480000Y-74180000D03*
X30480000Y-75680000D03*
X28575000Y-75680000D03*
X28575000Y-74180000D03*
D27*
X36334000Y-64008000D03*
X37834000Y-64008000D03*
X33135000Y-69850000D03*
X31635000Y-69850000D03*
X84316000Y-104648000D03*
X82816000Y-104648000D03*
X79871000Y-106172000D03*
X78371000Y-106172000D03*
D29*
X30090000Y-72650000D03*
X30090000Y-77210000D03*
D30*
X36390000Y-74930000D03*
D31*
X74930000Y-109474000D03*
D32*
X72390000Y-109474000D03*
X69850000Y-109474000D03*
X67310000Y-109474000D03*
X64770000Y-109474000D03*
X62230000Y-109474000D03*
D33*
X53975000Y-97790000D03*
X53975000Y-103790000D03*
X58675000Y-100790000D03*
D34*
X46355000Y-77880000D03*
X46355000Y-84680000D03*
D35*
X84235000Y-108528000D03*
X82135000Y-108528000D03*
X83185000Y-110928000D03*
D36*
X35560000Y-100445000D03*
X35560000Y-98945000D03*
X30892750Y-67228148D03*
X30892750Y-65728148D03*
X74041000Y-97802000D03*
X74041000Y-99302000D03*
X63500000Y-91325000D03*
X63500000Y-92825000D03*
D37*
X44450000Y-100170000D03*
X44450000Y-105570000D03*
D38*
X72390000Y-100805000D03*
X71120000Y-100805000D03*
X69850000Y-100805000D03*
X68580000Y-100805000D03*
X67310000Y-100805000D03*
X66040000Y-100805000D03*
X64770000Y-100805000D03*
X64770000Y-106205000D03*
X66040000Y-106205000D03*
X67310000Y-106205000D03*
X68580000Y-106205000D03*
X69850000Y-106205000D03*
X71120000Y-106205000D03*
X72390000Y-106205000D03*
D28*
X88646000Y-99580000D03*
X88646000Y-101080000D03*
X88646000Y-103390000D03*
X88646000Y-104890000D03*
D13*
X53975000Y-85325000D03*
X53975000Y-81045000D03*
D14*
X53975000Y-83185000D03*
D13*
X53975000Y-79483000D03*
X53975000Y-75203000D03*
D14*
X53975000Y-77343000D03*
D13*
X53975000Y-73641000D03*
X53975000Y-69361000D03*
D14*
X53975000Y-71501000D03*
D13*
X53975000Y-61957000D03*
X53975000Y-57677000D03*
D14*
X53975000Y-59817000D03*
D13*
X53975000Y-56115000D03*
X53975000Y-51835000D03*
D14*
X53975000Y-53975000D03*
D13*
X59817000Y-85325000D03*
X59817000Y-81045000D03*
D14*
X59817000Y-83185000D03*
D13*
X59817000Y-79483000D03*
X59817000Y-75203000D03*
D14*
X59817000Y-77343000D03*
D13*
X59817000Y-73641000D03*
X59817000Y-69361000D03*
D14*
X59817000Y-71501000D03*
D13*
X59817000Y-67799000D03*
X59817000Y-63519000D03*
D14*
X59817000Y-65659000D03*
D13*
X59817000Y-61957000D03*
X59817000Y-57677000D03*
D14*
X59817000Y-59817000D03*
D13*
X59817000Y-56115000D03*
X59817000Y-51835000D03*
D14*
X59817000Y-53975000D03*
D13*
X65659000Y-85325000D03*
X65659000Y-81045000D03*
D14*
X65659000Y-83185000D03*
D13*
X65659000Y-79483000D03*
X65659000Y-75203000D03*
D14*
X65659000Y-77343000D03*
D13*
X65659000Y-73641000D03*
X65659000Y-69361000D03*
D14*
X65659000Y-71501000D03*
D13*
X65659000Y-67799000D03*
X65659000Y-63519000D03*
D14*
X65659000Y-65659000D03*
D13*
X65659000Y-61957000D03*
X65659000Y-57677000D03*
D14*
X65659000Y-59817000D03*
D13*
X65659000Y-56115000D03*
X65659000Y-51835000D03*
D14*
X65659000Y-53975000D03*
D13*
X71501000Y-85325000D03*
X71501000Y-81045000D03*
D14*
X71501000Y-83185000D03*
D13*
X71501000Y-79483000D03*
X71501000Y-75203000D03*
D14*
X71501000Y-77343000D03*
D13*
X71501000Y-67799000D03*
X71501000Y-63519000D03*
D14*
X71501000Y-65659000D03*
D13*
X71501000Y-61957000D03*
X71501000Y-57677000D03*
D14*
X71501000Y-59817000D03*
D13*
X71501000Y-56115000D03*
X71501000Y-51835000D03*
D14*
X71501000Y-53975000D03*
D39*
X73250000Y-93345000D03*
X66450000Y-93345000D03*
D13*
X77343000Y-85325000D03*
X77343000Y-81045000D03*
D14*
X77343000Y-83185000D03*
D40*
X38692750Y-66478148D03*
X35792750Y-66478148D03*
D28*
X63627000Y-96635000D03*
X63627000Y-95135000D03*
D41*
X32482750Y-65828148D03*
X32482750Y-67128148D03*
X34382750Y-66478148D03*
X32482750Y-66478148D03*
X34382750Y-67128148D03*
X34382750Y-65828148D03*
D28*
X43815000Y-90055000D03*
X43815000Y-91555000D03*
D42*
X46355000Y-74690000D03*
X46355000Y-70090000D03*
D13*
X77343000Y-79483000D03*
X77343000Y-75203000D03*
D14*
X77343000Y-77343000D03*
D13*
X77343000Y-73641000D03*
X77343000Y-69361000D03*
D14*
X77343000Y-71501000D03*
D13*
X77343000Y-67799000D03*
X77343000Y-63519000D03*
D14*
X77343000Y-65659000D03*
D13*
X77343000Y-61957000D03*
X77343000Y-57677000D03*
D14*
X77343000Y-59817000D03*
D13*
X77343000Y-56115000D03*
X77343000Y-51835000D03*
D14*
X77343000Y-53975000D03*
D13*
X83185000Y-85325000D03*
X83185000Y-81045000D03*
D14*
X83185000Y-83185000D03*
D13*
X83185000Y-79483000D03*
X83185000Y-75203000D03*
D14*
X83185000Y-77343000D03*
D13*
X83185000Y-73641000D03*
X83185000Y-69361000D03*
D14*
X83185000Y-71501000D03*
D13*
X83185000Y-67799000D03*
X83185000Y-63519000D03*
D14*
X83185000Y-65659000D03*
D13*
X83185000Y-61957000D03*
X83185000Y-57677000D03*
D14*
X83185000Y-59817000D03*
D13*
X83185000Y-56115000D03*
X83185000Y-51835000D03*
D14*
X83185000Y-53975000D03*
M02*
