G04 #@! TF.FileFunction,Copper,L2,Bot,Signal*
%FSLAX46Y46*%
G04 Gerber Fmt 4.6, Leading zero omitted, Abs format (unit mm)*
G04 Created by KiCad (PCBNEW 4.0.7) date 06/28/18 16:26:39*
%MOMM*%
%LPD*%
G01*
G04 APERTURE LIST*
%ADD10C,0.150000*%
%ADD11C,2.200000*%
%ADD12C,1.600000*%
%ADD13C,1.701800*%
%ADD14R,1.700000X1.700000*%
%ADD15O,1.700000X1.700000*%
%ADD16C,5.000000*%
%ADD17C,9.000000*%
%ADD18C,0.889000*%
%ADD19C,0.508000*%
%ADD20C,0.254000*%
G04 APERTURE END LIST*
D10*
D11*
X37844000Y-47374000D03*
X54104000Y-47374000D03*
D12*
X45474000Y-48394000D03*
X47504000Y-48394000D03*
X44444000Y-46614000D03*
X46474000Y-46614000D03*
X42414000Y-46614000D03*
X43444000Y-48394000D03*
X48504000Y-46614000D03*
X49534000Y-48394000D03*
D13*
X77724000Y-42570400D03*
X77724000Y-49580800D03*
D14*
X32766000Y-49784000D03*
D15*
X35306000Y-49784000D03*
D16*
X28448000Y-50292000D03*
X85852000Y-50292000D03*
D17*
X30734000Y-41910000D03*
D16*
X28448000Y-23368000D03*
X85852000Y-23368000D03*
D18*
X48006000Y-40386000D03*
X45720000Y-42672000D03*
X62230000Y-52324000D03*
X67818000Y-52070000D03*
X66294000Y-46990000D03*
X68072000Y-43688000D03*
X68326000Y-40386000D03*
X57658000Y-51308000D03*
X57658000Y-48006000D03*
X57658000Y-44704000D03*
X58420000Y-40386000D03*
X59436000Y-38862000D03*
X56388000Y-37846000D03*
X60706000Y-38608000D03*
X56134000Y-49022000D03*
X49530000Y-51308000D03*
X53594000Y-45212000D03*
X47498000Y-44196000D03*
X55118000Y-44958000D03*
D19*
X45720000Y-42672000D02*
X48006000Y-40386000D01*
X59944000Y-37846000D02*
X56388000Y-37846000D01*
X60706000Y-38608000D02*
X59944000Y-37846000D01*
D20*
X53848000Y-49022000D02*
X56134000Y-49022000D01*
X53594000Y-48768000D02*
X53848000Y-49022000D01*
X51308000Y-48768000D02*
X53594000Y-48768000D01*
X49784000Y-50292000D02*
X51308000Y-48768000D01*
X49784000Y-51054000D02*
X49784000Y-50292000D01*
X49530000Y-51308000D02*
X49784000Y-51054000D01*
X46474000Y-46614000D02*
X46474000Y-46490000D01*
X46474000Y-46490000D02*
X47752000Y-45212000D01*
X47752000Y-45212000D02*
X53594000Y-45212000D01*
X54356000Y-44196000D02*
X47498000Y-44196000D01*
X55118000Y-44958000D02*
X54356000Y-44196000D01*
G36*
X83195826Y-21589847D02*
X82717546Y-22741674D01*
X82716457Y-23988854D01*
X83192727Y-25141515D01*
X84073847Y-26024174D01*
X85225674Y-26502454D01*
X86472854Y-26503543D01*
X87625515Y-26027273D01*
X88215000Y-25438816D01*
X88215000Y-48221695D01*
X87630153Y-47635826D01*
X86478326Y-47157546D01*
X85231146Y-47156457D01*
X84078485Y-47632727D01*
X83195826Y-48513847D01*
X82717546Y-49665674D01*
X82716457Y-50912854D01*
X83192727Y-52065515D01*
X83781184Y-52655000D01*
X53798910Y-52655000D01*
X54238818Y-52215859D01*
X54583607Y-51385514D01*
X54584391Y-50486430D01*
X54294153Y-49784000D01*
X55369358Y-49784000D01*
X55521714Y-49936622D01*
X55918332Y-50101313D01*
X56347784Y-50101687D01*
X56744689Y-49937689D01*
X56807420Y-49875067D01*
X76237842Y-49875067D01*
X76463580Y-50421395D01*
X76881206Y-50839751D01*
X77427139Y-51066442D01*
X78018267Y-51066958D01*
X78564595Y-50841220D01*
X78982951Y-50423594D01*
X79209642Y-49877661D01*
X79210158Y-49286533D01*
X78984420Y-48740205D01*
X78566794Y-48321849D01*
X78020861Y-48095158D01*
X77429733Y-48094642D01*
X76883405Y-48320380D01*
X76465049Y-48738006D01*
X76238358Y-49283939D01*
X76237842Y-49875067D01*
X56807420Y-49875067D01*
X57048622Y-49634286D01*
X57213313Y-49237668D01*
X57213687Y-48808216D01*
X57049689Y-48411311D01*
X56746286Y-48107378D01*
X56349668Y-47942687D01*
X55920216Y-47942313D01*
X55711448Y-48028574D01*
X55849323Y-47662407D01*
X55826836Y-46972547D01*
X55606099Y-46439641D01*
X55328868Y-46328737D01*
X54283605Y-47374000D01*
X54297748Y-47388143D01*
X54118143Y-47567748D01*
X54104000Y-47553605D01*
X54089858Y-47567748D01*
X53910253Y-47388143D01*
X53924395Y-47374000D01*
X52879132Y-46328737D01*
X52601901Y-46439641D01*
X52358677Y-47085593D01*
X52381164Y-47775453D01*
X52476660Y-48006000D01*
X51308000Y-48006000D01*
X51031673Y-48060965D01*
X51016395Y-48064004D01*
X50964616Y-48098602D01*
X50751243Y-47582200D01*
X50347923Y-47178176D01*
X49900648Y-46992451D01*
X49938750Y-46900691D01*
X49939248Y-46329813D01*
X49792229Y-45974000D01*
X52829358Y-45974000D01*
X52981714Y-46126622D01*
X53074937Y-46165332D01*
X54104000Y-47194395D01*
X55149263Y-46149132D01*
X55104601Y-46037489D01*
X55331784Y-46037687D01*
X55728689Y-45873689D01*
X56032622Y-45570286D01*
X56197313Y-45173668D01*
X56197687Y-44744216D01*
X56033689Y-44347311D01*
X55730286Y-44043378D01*
X55333668Y-43878687D01*
X55116128Y-43878498D01*
X54894815Y-43657185D01*
X54750864Y-43561000D01*
X54647605Y-43492004D01*
X54356000Y-43434000D01*
X48262642Y-43434000D01*
X48110286Y-43281378D01*
X47713668Y-43116687D01*
X47284216Y-43116313D01*
X46887311Y-43280311D01*
X46583378Y-43583714D01*
X46418687Y-43980332D01*
X46418313Y-44409784D01*
X46582311Y-44806689D01*
X46830779Y-45055591D01*
X46707167Y-45179203D01*
X46189813Y-45178752D01*
X45662200Y-45396757D01*
X45458999Y-45599603D01*
X45257923Y-45398176D01*
X44730691Y-45179250D01*
X44159813Y-45178752D01*
X43632200Y-45396757D01*
X43228176Y-45800077D01*
X43100819Y-46106787D01*
X42593605Y-46614000D01*
X42607748Y-46628143D01*
X42428143Y-46807748D01*
X42414000Y-46793605D01*
X41585861Y-47621745D01*
X41659995Y-47867864D01*
X42050406Y-48008193D01*
X42009250Y-48107309D01*
X42008752Y-48678187D01*
X42226757Y-49205800D01*
X42630077Y-49609824D01*
X43157309Y-49828750D01*
X43728187Y-49829248D01*
X44255800Y-49611243D01*
X44459001Y-49408397D01*
X44660077Y-49609824D01*
X45187309Y-49828750D01*
X45758187Y-49829248D01*
X46285800Y-49611243D01*
X46489001Y-49408397D01*
X46690077Y-49609824D01*
X47217309Y-49828750D01*
X47788187Y-49829248D01*
X48315800Y-49611243D01*
X48519001Y-49408397D01*
X48720077Y-49609824D01*
X49206122Y-49811647D01*
X49080004Y-50000395D01*
X49022000Y-50292000D01*
X49022000Y-50349881D01*
X48919311Y-50392311D01*
X48615378Y-50695714D01*
X48450687Y-51092332D01*
X48450313Y-51521784D01*
X48614311Y-51918689D01*
X48917714Y-52222622D01*
X49314332Y-52387313D01*
X49743784Y-52387687D01*
X50140689Y-52223689D01*
X50332464Y-52032249D01*
X50406948Y-52212515D01*
X50848661Y-52655000D01*
X41098910Y-52655000D01*
X41538818Y-52215859D01*
X41883607Y-51385514D01*
X41884391Y-50486430D01*
X41541052Y-49655485D01*
X40905859Y-49019182D01*
X40075514Y-48674393D01*
X39176430Y-48673609D01*
X38796576Y-48830561D01*
X38889263Y-48598868D01*
X37844000Y-47553605D01*
X36798737Y-48598868D01*
X36909641Y-48876099D01*
X37555593Y-49119323D01*
X38245453Y-49096836D01*
X38279645Y-49082673D01*
X37709182Y-49652141D01*
X37364393Y-50482486D01*
X37363609Y-51381570D01*
X37706948Y-52212515D01*
X38148661Y-52655000D01*
X30518305Y-52655000D01*
X31104174Y-52070153D01*
X31499546Y-51117990D01*
X31664110Y-51230431D01*
X31916000Y-51281440D01*
X33616000Y-51281440D01*
X33851317Y-51237162D01*
X34067441Y-51098090D01*
X34212431Y-50885890D01*
X34226086Y-50818459D01*
X34255946Y-50863147D01*
X34737715Y-51185054D01*
X35306000Y-51298093D01*
X35874285Y-51185054D01*
X36356054Y-50863147D01*
X36677961Y-50381378D01*
X36791000Y-49813093D01*
X36791000Y-49754907D01*
X36677961Y-49186622D01*
X36356054Y-48704853D01*
X35874285Y-48382946D01*
X35306000Y-48269907D01*
X34737715Y-48382946D01*
X34255946Y-48704853D01*
X34228150Y-48746452D01*
X34219162Y-48698683D01*
X34080090Y-48482559D01*
X33867890Y-48337569D01*
X33616000Y-48286560D01*
X31916000Y-48286560D01*
X31680683Y-48330838D01*
X31464559Y-48469910D01*
X31319569Y-48682110D01*
X31271981Y-48917108D01*
X31107273Y-48518485D01*
X30226153Y-47635826D01*
X29074326Y-47157546D01*
X27827146Y-47156457D01*
X26674485Y-47632727D01*
X26085000Y-48221184D01*
X26085000Y-47085593D01*
X36098677Y-47085593D01*
X36121164Y-47775453D01*
X36341901Y-48308359D01*
X36619132Y-48419263D01*
X37664395Y-47374000D01*
X38023605Y-47374000D01*
X39068868Y-48419263D01*
X39346099Y-48308359D01*
X39589323Y-47662407D01*
X39566836Y-46972547D01*
X39346099Y-46439641D01*
X39240066Y-46397223D01*
X40967035Y-46397223D01*
X40994222Y-46967454D01*
X41160136Y-47368005D01*
X41406255Y-47442139D01*
X42234395Y-46614000D01*
X41406255Y-45785861D01*
X41160136Y-45859995D01*
X40967035Y-46397223D01*
X39240066Y-46397223D01*
X39068868Y-46328737D01*
X38023605Y-47374000D01*
X37664395Y-47374000D01*
X36619132Y-46328737D01*
X36341901Y-46439641D01*
X36098677Y-47085593D01*
X26085000Y-47085593D01*
X26085000Y-44105298D01*
X26378220Y-44814944D01*
X27821458Y-46260703D01*
X29708104Y-47044107D01*
X31750934Y-47045890D01*
X33638944Y-46265780D01*
X33755795Y-46149132D01*
X36798737Y-46149132D01*
X37844000Y-47194395D01*
X38889263Y-46149132D01*
X38778359Y-45871901D01*
X38132407Y-45628677D01*
X37442547Y-45651164D01*
X36909641Y-45871901D01*
X36798737Y-46149132D01*
X33755795Y-46149132D01*
X34299620Y-45606255D01*
X41585861Y-45606255D01*
X42414000Y-46434395D01*
X43242139Y-45606255D01*
X43168005Y-45360136D01*
X42630777Y-45167035D01*
X42060546Y-45194222D01*
X41659995Y-45360136D01*
X41585861Y-45606255D01*
X34299620Y-45606255D01*
X35084703Y-44822542D01*
X35868107Y-42935896D01*
X35868150Y-42885784D01*
X44640313Y-42885784D01*
X44804311Y-43282689D01*
X45107714Y-43586622D01*
X45504332Y-43751313D01*
X45933784Y-43751687D01*
X46330689Y-43587689D01*
X46634622Y-43284286D01*
X46799313Y-42887668D01*
X46799333Y-42864667D01*
X76237842Y-42864667D01*
X76463580Y-43410995D01*
X76881206Y-43829351D01*
X77427139Y-44056042D01*
X78018267Y-44056558D01*
X78564595Y-43830820D01*
X78982951Y-43413194D01*
X79209642Y-42867261D01*
X79210158Y-42276133D01*
X78984420Y-41729805D01*
X78566794Y-41311449D01*
X78020861Y-41084758D01*
X77429733Y-41084242D01*
X76883405Y-41309980D01*
X76465049Y-41727606D01*
X76238358Y-42273539D01*
X76237842Y-42864667D01*
X46799333Y-42864667D01*
X46799346Y-42849890D01*
X48183581Y-41465655D01*
X48219784Y-41465687D01*
X48616689Y-41301689D01*
X48920622Y-40998286D01*
X49085313Y-40601668D01*
X49085687Y-40172216D01*
X48921689Y-39775311D01*
X48618286Y-39471378D01*
X48221668Y-39306687D01*
X47792216Y-39306313D01*
X47395311Y-39470311D01*
X47091378Y-39773714D01*
X46926687Y-40170332D01*
X46926654Y-40208110D01*
X45542419Y-41592345D01*
X45506216Y-41592313D01*
X45109311Y-41756311D01*
X44805378Y-42059714D01*
X44640687Y-42456332D01*
X44640313Y-42885784D01*
X35868150Y-42885784D01*
X35869890Y-40893066D01*
X35089780Y-39005056D01*
X34146157Y-38059784D01*
X55308313Y-38059784D01*
X55472311Y-38456689D01*
X55775714Y-38760622D01*
X56172332Y-38925313D01*
X56601784Y-38925687D01*
X56998689Y-38761689D01*
X57025425Y-38735000D01*
X59575764Y-38735000D01*
X59626345Y-38785581D01*
X59626313Y-38821784D01*
X59790311Y-39218689D01*
X60093714Y-39522622D01*
X60490332Y-39687313D01*
X60919784Y-39687687D01*
X61316689Y-39523689D01*
X61620622Y-39220286D01*
X61785313Y-38823668D01*
X61785687Y-38394216D01*
X61621689Y-37997311D01*
X61318286Y-37693378D01*
X60921668Y-37528687D01*
X60883890Y-37528654D01*
X60572618Y-37217382D01*
X60284206Y-37024671D01*
X59944000Y-36957000D01*
X57025863Y-36957000D01*
X57000286Y-36931378D01*
X56603668Y-36766687D01*
X56174216Y-36766313D01*
X55777311Y-36930311D01*
X55473378Y-37233714D01*
X55308687Y-37630332D01*
X55308313Y-38059784D01*
X34146157Y-38059784D01*
X33646542Y-37559297D01*
X31759896Y-36775893D01*
X29717066Y-36774110D01*
X27829056Y-37554220D01*
X26383297Y-38997458D01*
X26085000Y-39715837D01*
X26085000Y-25438305D01*
X26669847Y-26024174D01*
X27821674Y-26502454D01*
X29068854Y-26503543D01*
X30221515Y-26027273D01*
X31104174Y-25146153D01*
X31582454Y-23994326D01*
X31583543Y-22747146D01*
X31107273Y-21594485D01*
X30518816Y-21005000D01*
X83781695Y-21005000D01*
X83195826Y-21589847D01*
X83195826Y-21589847D01*
G37*
X83195826Y-21589847D02*
X82717546Y-22741674D01*
X82716457Y-23988854D01*
X83192727Y-25141515D01*
X84073847Y-26024174D01*
X85225674Y-26502454D01*
X86472854Y-26503543D01*
X87625515Y-26027273D01*
X88215000Y-25438816D01*
X88215000Y-48221695D01*
X87630153Y-47635826D01*
X86478326Y-47157546D01*
X85231146Y-47156457D01*
X84078485Y-47632727D01*
X83195826Y-48513847D01*
X82717546Y-49665674D01*
X82716457Y-50912854D01*
X83192727Y-52065515D01*
X83781184Y-52655000D01*
X53798910Y-52655000D01*
X54238818Y-52215859D01*
X54583607Y-51385514D01*
X54584391Y-50486430D01*
X54294153Y-49784000D01*
X55369358Y-49784000D01*
X55521714Y-49936622D01*
X55918332Y-50101313D01*
X56347784Y-50101687D01*
X56744689Y-49937689D01*
X56807420Y-49875067D01*
X76237842Y-49875067D01*
X76463580Y-50421395D01*
X76881206Y-50839751D01*
X77427139Y-51066442D01*
X78018267Y-51066958D01*
X78564595Y-50841220D01*
X78982951Y-50423594D01*
X79209642Y-49877661D01*
X79210158Y-49286533D01*
X78984420Y-48740205D01*
X78566794Y-48321849D01*
X78020861Y-48095158D01*
X77429733Y-48094642D01*
X76883405Y-48320380D01*
X76465049Y-48738006D01*
X76238358Y-49283939D01*
X76237842Y-49875067D01*
X56807420Y-49875067D01*
X57048622Y-49634286D01*
X57213313Y-49237668D01*
X57213687Y-48808216D01*
X57049689Y-48411311D01*
X56746286Y-48107378D01*
X56349668Y-47942687D01*
X55920216Y-47942313D01*
X55711448Y-48028574D01*
X55849323Y-47662407D01*
X55826836Y-46972547D01*
X55606099Y-46439641D01*
X55328868Y-46328737D01*
X54283605Y-47374000D01*
X54297748Y-47388143D01*
X54118143Y-47567748D01*
X54104000Y-47553605D01*
X54089858Y-47567748D01*
X53910253Y-47388143D01*
X53924395Y-47374000D01*
X52879132Y-46328737D01*
X52601901Y-46439641D01*
X52358677Y-47085593D01*
X52381164Y-47775453D01*
X52476660Y-48006000D01*
X51308000Y-48006000D01*
X51031673Y-48060965D01*
X51016395Y-48064004D01*
X50964616Y-48098602D01*
X50751243Y-47582200D01*
X50347923Y-47178176D01*
X49900648Y-46992451D01*
X49938750Y-46900691D01*
X49939248Y-46329813D01*
X49792229Y-45974000D01*
X52829358Y-45974000D01*
X52981714Y-46126622D01*
X53074937Y-46165332D01*
X54104000Y-47194395D01*
X55149263Y-46149132D01*
X55104601Y-46037489D01*
X55331784Y-46037687D01*
X55728689Y-45873689D01*
X56032622Y-45570286D01*
X56197313Y-45173668D01*
X56197687Y-44744216D01*
X56033689Y-44347311D01*
X55730286Y-44043378D01*
X55333668Y-43878687D01*
X55116128Y-43878498D01*
X54894815Y-43657185D01*
X54750864Y-43561000D01*
X54647605Y-43492004D01*
X54356000Y-43434000D01*
X48262642Y-43434000D01*
X48110286Y-43281378D01*
X47713668Y-43116687D01*
X47284216Y-43116313D01*
X46887311Y-43280311D01*
X46583378Y-43583714D01*
X46418687Y-43980332D01*
X46418313Y-44409784D01*
X46582311Y-44806689D01*
X46830779Y-45055591D01*
X46707167Y-45179203D01*
X46189813Y-45178752D01*
X45662200Y-45396757D01*
X45458999Y-45599603D01*
X45257923Y-45398176D01*
X44730691Y-45179250D01*
X44159813Y-45178752D01*
X43632200Y-45396757D01*
X43228176Y-45800077D01*
X43100819Y-46106787D01*
X42593605Y-46614000D01*
X42607748Y-46628143D01*
X42428143Y-46807748D01*
X42414000Y-46793605D01*
X41585861Y-47621745D01*
X41659995Y-47867864D01*
X42050406Y-48008193D01*
X42009250Y-48107309D01*
X42008752Y-48678187D01*
X42226757Y-49205800D01*
X42630077Y-49609824D01*
X43157309Y-49828750D01*
X43728187Y-49829248D01*
X44255800Y-49611243D01*
X44459001Y-49408397D01*
X44660077Y-49609824D01*
X45187309Y-49828750D01*
X45758187Y-49829248D01*
X46285800Y-49611243D01*
X46489001Y-49408397D01*
X46690077Y-49609824D01*
X47217309Y-49828750D01*
X47788187Y-49829248D01*
X48315800Y-49611243D01*
X48519001Y-49408397D01*
X48720077Y-49609824D01*
X49206122Y-49811647D01*
X49080004Y-50000395D01*
X49022000Y-50292000D01*
X49022000Y-50349881D01*
X48919311Y-50392311D01*
X48615378Y-50695714D01*
X48450687Y-51092332D01*
X48450313Y-51521784D01*
X48614311Y-51918689D01*
X48917714Y-52222622D01*
X49314332Y-52387313D01*
X49743784Y-52387687D01*
X50140689Y-52223689D01*
X50332464Y-52032249D01*
X50406948Y-52212515D01*
X50848661Y-52655000D01*
X41098910Y-52655000D01*
X41538818Y-52215859D01*
X41883607Y-51385514D01*
X41884391Y-50486430D01*
X41541052Y-49655485D01*
X40905859Y-49019182D01*
X40075514Y-48674393D01*
X39176430Y-48673609D01*
X38796576Y-48830561D01*
X38889263Y-48598868D01*
X37844000Y-47553605D01*
X36798737Y-48598868D01*
X36909641Y-48876099D01*
X37555593Y-49119323D01*
X38245453Y-49096836D01*
X38279645Y-49082673D01*
X37709182Y-49652141D01*
X37364393Y-50482486D01*
X37363609Y-51381570D01*
X37706948Y-52212515D01*
X38148661Y-52655000D01*
X30518305Y-52655000D01*
X31104174Y-52070153D01*
X31499546Y-51117990D01*
X31664110Y-51230431D01*
X31916000Y-51281440D01*
X33616000Y-51281440D01*
X33851317Y-51237162D01*
X34067441Y-51098090D01*
X34212431Y-50885890D01*
X34226086Y-50818459D01*
X34255946Y-50863147D01*
X34737715Y-51185054D01*
X35306000Y-51298093D01*
X35874285Y-51185054D01*
X36356054Y-50863147D01*
X36677961Y-50381378D01*
X36791000Y-49813093D01*
X36791000Y-49754907D01*
X36677961Y-49186622D01*
X36356054Y-48704853D01*
X35874285Y-48382946D01*
X35306000Y-48269907D01*
X34737715Y-48382946D01*
X34255946Y-48704853D01*
X34228150Y-48746452D01*
X34219162Y-48698683D01*
X34080090Y-48482559D01*
X33867890Y-48337569D01*
X33616000Y-48286560D01*
X31916000Y-48286560D01*
X31680683Y-48330838D01*
X31464559Y-48469910D01*
X31319569Y-48682110D01*
X31271981Y-48917108D01*
X31107273Y-48518485D01*
X30226153Y-47635826D01*
X29074326Y-47157546D01*
X27827146Y-47156457D01*
X26674485Y-47632727D01*
X26085000Y-48221184D01*
X26085000Y-47085593D01*
X36098677Y-47085593D01*
X36121164Y-47775453D01*
X36341901Y-48308359D01*
X36619132Y-48419263D01*
X37664395Y-47374000D01*
X38023605Y-47374000D01*
X39068868Y-48419263D01*
X39346099Y-48308359D01*
X39589323Y-47662407D01*
X39566836Y-46972547D01*
X39346099Y-46439641D01*
X39240066Y-46397223D01*
X40967035Y-46397223D01*
X40994222Y-46967454D01*
X41160136Y-47368005D01*
X41406255Y-47442139D01*
X42234395Y-46614000D01*
X41406255Y-45785861D01*
X41160136Y-45859995D01*
X40967035Y-46397223D01*
X39240066Y-46397223D01*
X39068868Y-46328737D01*
X38023605Y-47374000D01*
X37664395Y-47374000D01*
X36619132Y-46328737D01*
X36341901Y-46439641D01*
X36098677Y-47085593D01*
X26085000Y-47085593D01*
X26085000Y-44105298D01*
X26378220Y-44814944D01*
X27821458Y-46260703D01*
X29708104Y-47044107D01*
X31750934Y-47045890D01*
X33638944Y-46265780D01*
X33755795Y-46149132D01*
X36798737Y-46149132D01*
X37844000Y-47194395D01*
X38889263Y-46149132D01*
X38778359Y-45871901D01*
X38132407Y-45628677D01*
X37442547Y-45651164D01*
X36909641Y-45871901D01*
X36798737Y-46149132D01*
X33755795Y-46149132D01*
X34299620Y-45606255D01*
X41585861Y-45606255D01*
X42414000Y-46434395D01*
X43242139Y-45606255D01*
X43168005Y-45360136D01*
X42630777Y-45167035D01*
X42060546Y-45194222D01*
X41659995Y-45360136D01*
X41585861Y-45606255D01*
X34299620Y-45606255D01*
X35084703Y-44822542D01*
X35868107Y-42935896D01*
X35868150Y-42885784D01*
X44640313Y-42885784D01*
X44804311Y-43282689D01*
X45107714Y-43586622D01*
X45504332Y-43751313D01*
X45933784Y-43751687D01*
X46330689Y-43587689D01*
X46634622Y-43284286D01*
X46799313Y-42887668D01*
X46799333Y-42864667D01*
X76237842Y-42864667D01*
X76463580Y-43410995D01*
X76881206Y-43829351D01*
X77427139Y-44056042D01*
X78018267Y-44056558D01*
X78564595Y-43830820D01*
X78982951Y-43413194D01*
X79209642Y-42867261D01*
X79210158Y-42276133D01*
X78984420Y-41729805D01*
X78566794Y-41311449D01*
X78020861Y-41084758D01*
X77429733Y-41084242D01*
X76883405Y-41309980D01*
X76465049Y-41727606D01*
X76238358Y-42273539D01*
X76237842Y-42864667D01*
X46799333Y-42864667D01*
X46799346Y-42849890D01*
X48183581Y-41465655D01*
X48219784Y-41465687D01*
X48616689Y-41301689D01*
X48920622Y-40998286D01*
X49085313Y-40601668D01*
X49085687Y-40172216D01*
X48921689Y-39775311D01*
X48618286Y-39471378D01*
X48221668Y-39306687D01*
X47792216Y-39306313D01*
X47395311Y-39470311D01*
X47091378Y-39773714D01*
X46926687Y-40170332D01*
X46926654Y-40208110D01*
X45542419Y-41592345D01*
X45506216Y-41592313D01*
X45109311Y-41756311D01*
X44805378Y-42059714D01*
X44640687Y-42456332D01*
X44640313Y-42885784D01*
X35868150Y-42885784D01*
X35869890Y-40893066D01*
X35089780Y-39005056D01*
X34146157Y-38059784D01*
X55308313Y-38059784D01*
X55472311Y-38456689D01*
X55775714Y-38760622D01*
X56172332Y-38925313D01*
X56601784Y-38925687D01*
X56998689Y-38761689D01*
X57025425Y-38735000D01*
X59575764Y-38735000D01*
X59626345Y-38785581D01*
X59626313Y-38821784D01*
X59790311Y-39218689D01*
X60093714Y-39522622D01*
X60490332Y-39687313D01*
X60919784Y-39687687D01*
X61316689Y-39523689D01*
X61620622Y-39220286D01*
X61785313Y-38823668D01*
X61785687Y-38394216D01*
X61621689Y-37997311D01*
X61318286Y-37693378D01*
X60921668Y-37528687D01*
X60883890Y-37528654D01*
X60572618Y-37217382D01*
X60284206Y-37024671D01*
X59944000Y-36957000D01*
X57025863Y-36957000D01*
X57000286Y-36931378D01*
X56603668Y-36766687D01*
X56174216Y-36766313D01*
X55777311Y-36930311D01*
X55473378Y-37233714D01*
X55308687Y-37630332D01*
X55308313Y-38059784D01*
X34146157Y-38059784D01*
X33646542Y-37559297D01*
X31759896Y-36775893D01*
X29717066Y-36774110D01*
X27829056Y-37554220D01*
X26383297Y-38997458D01*
X26085000Y-39715837D01*
X26085000Y-25438305D01*
X26669847Y-26024174D01*
X27821674Y-26502454D01*
X29068854Y-26503543D01*
X30221515Y-26027273D01*
X31104174Y-25146153D01*
X31582454Y-23994326D01*
X31583543Y-22747146D01*
X31107273Y-21594485D01*
X30518816Y-21005000D01*
X83781695Y-21005000D01*
X83195826Y-21589847D01*
M02*
