M48
;DRILL file {KiCad 4.0.7} date 06/27/18 11:16:00
;FORMAT={-:-/ absolute / inch / decimal}
FMAT,2
INCH,TZ
T1C0.020
T2C0.035
T3C0.035
T4C0.071
T5C0.098
%
G90
G05
M72
T1
X1.95Y-1.775
X2.15Y-1.75
X2.375Y-1.75
X2.6Y-2.05
X2.89Y-1.99
T2
X1.5797Y-1.7004
X1.5797Y-1.7803
X1.5797Y-1.8602
X1.5797Y-1.9402
X1.6498Y-1.6598
X1.6498Y-1.7398
X1.6498Y-1.8197
X1.6498Y-1.8996
T3
X3.12Y-1.55
X3.12Y-1.65
X3.12Y-1.95
X3.12Y-2.05
T4
X1.6199Y-1.4799
X1.6199Y-2.1201
T5
X2.025Y-1.525
X2.025Y-2.075
X2.775Y-1.525
X2.775Y-2.075
T0
M30
