G04 #@! TF.FileFunction,Legend,Top*
%FSLAX46Y46*%
G04 Gerber Fmt 4.6, Leading zero omitted, Abs format (unit mm)*
G04 Created by KiCad (PCBNEW 4.0.7) date 01/10/18 16:30:40*
%MOMM*%
%LPD*%
G01*
G04 APERTURE LIST*
%ADD10C,0.150000*%
%ADD11C,0.200000*%
%ADD12C,0.203200*%
%ADD13C,0.120000*%
%ADD14C,0.149860*%
G04 APERTURE END LIST*
D10*
D11*
X85090000Y-45720000D02*
X86106000Y-45720000D01*
D12*
X36576000Y-36760150D02*
X36703000Y-36802483D01*
X36745333Y-36844817D01*
X36787667Y-36929483D01*
X36787667Y-37056483D01*
X36745333Y-37141150D01*
X36703000Y-37183483D01*
X36618333Y-37225817D01*
X36279667Y-37225817D01*
X36279667Y-36336817D01*
X36576000Y-36336817D01*
X36660667Y-36379150D01*
X36703000Y-36421483D01*
X36745333Y-36506150D01*
X36745333Y-36590817D01*
X36703000Y-36675483D01*
X36660667Y-36717817D01*
X36576000Y-36760150D01*
X36279667Y-36760150D01*
X37507333Y-37183483D02*
X37422667Y-37225817D01*
X37253333Y-37225817D01*
X37168667Y-37183483D01*
X37126333Y-37098817D01*
X37126333Y-36760150D01*
X37168667Y-36675483D01*
X37253333Y-36633150D01*
X37422667Y-36633150D01*
X37507333Y-36675483D01*
X37549667Y-36760150D01*
X37549667Y-36844817D01*
X37126333Y-36929483D01*
X38311667Y-37225817D02*
X38311667Y-36760150D01*
X38269333Y-36675483D01*
X38184667Y-36633150D01*
X38015333Y-36633150D01*
X37930667Y-36675483D01*
X38311667Y-37183483D02*
X38227000Y-37225817D01*
X38015333Y-37225817D01*
X37930667Y-37183483D01*
X37888333Y-37098817D01*
X37888333Y-37014150D01*
X37930667Y-36929483D01*
X38015333Y-36887150D01*
X38227000Y-36887150D01*
X38311667Y-36844817D01*
X38735000Y-37225817D02*
X38735000Y-36633150D01*
X38735000Y-36717817D02*
X38777333Y-36675483D01*
X38862000Y-36633150D01*
X38989000Y-36633150D01*
X39073666Y-36675483D01*
X39116000Y-36760150D01*
X39116000Y-37225817D01*
X39116000Y-36760150D02*
X39158333Y-36675483D01*
X39243000Y-36633150D01*
X39370000Y-36633150D01*
X39454666Y-36675483D01*
X39497000Y-36760150D01*
X39497000Y-37225817D01*
X40597666Y-36760150D02*
X40893999Y-36760150D01*
X41020999Y-37225817D02*
X40597666Y-37225817D01*
X40597666Y-36336817D01*
X41020999Y-36336817D01*
X41401999Y-37225817D02*
X41401999Y-36633150D01*
X41401999Y-36717817D02*
X41444332Y-36675483D01*
X41528999Y-36633150D01*
X41655999Y-36633150D01*
X41740665Y-36675483D01*
X41782999Y-36760150D01*
X41782999Y-37225817D01*
X41782999Y-36760150D02*
X41825332Y-36675483D01*
X41909999Y-36633150D01*
X42036999Y-36633150D01*
X42121665Y-36675483D01*
X42163999Y-36760150D01*
X42163999Y-37225817D01*
X42587332Y-37225817D02*
X42587332Y-36633150D01*
X42587332Y-36336817D02*
X42544998Y-36379150D01*
X42587332Y-36421483D01*
X42629665Y-36379150D01*
X42587332Y-36336817D01*
X42587332Y-36421483D01*
X42883665Y-36633150D02*
X43222331Y-36633150D01*
X43010665Y-36336817D02*
X43010665Y-37098817D01*
X43052998Y-37183483D01*
X43137665Y-37225817D01*
X43222331Y-37225817D01*
X44195998Y-37225817D02*
X44195998Y-36336817D01*
X44492331Y-36971817D01*
X44788664Y-36336817D01*
X44788664Y-37225817D01*
X45338998Y-37225817D02*
X45254331Y-37183483D01*
X45211998Y-37141150D01*
X45169664Y-37056483D01*
X45169664Y-36802483D01*
X45211998Y-36717817D01*
X45254331Y-36675483D01*
X45338998Y-36633150D01*
X45465998Y-36633150D01*
X45550664Y-36675483D01*
X45592998Y-36717817D01*
X45635331Y-36802483D01*
X45635331Y-37056483D01*
X45592998Y-37141150D01*
X45550664Y-37183483D01*
X45465998Y-37225817D01*
X45338998Y-37225817D01*
X46397331Y-37225817D02*
X46397331Y-36336817D01*
X46397331Y-37183483D02*
X46312664Y-37225817D01*
X46143331Y-37225817D01*
X46058664Y-37183483D01*
X46016331Y-37141150D01*
X45973997Y-37056483D01*
X45973997Y-36802483D01*
X46016331Y-36717817D01*
X46058664Y-36675483D01*
X46143331Y-36633150D01*
X46312664Y-36633150D01*
X46397331Y-36675483D01*
X47201664Y-36633150D02*
X47201664Y-37225817D01*
X46820664Y-36633150D02*
X46820664Y-37098817D01*
X46862997Y-37183483D01*
X46947664Y-37225817D01*
X47074664Y-37225817D01*
X47159330Y-37183483D01*
X47201664Y-37141150D01*
X47751997Y-37225817D02*
X47667330Y-37183483D01*
X47624997Y-37098817D01*
X47624997Y-36336817D01*
X48429330Y-37183483D02*
X48344664Y-37225817D01*
X48175330Y-37225817D01*
X48090664Y-37183483D01*
X48048330Y-37098817D01*
X48048330Y-36760150D01*
X48090664Y-36675483D01*
X48175330Y-36633150D01*
X48344664Y-36633150D01*
X48429330Y-36675483D01*
X48471664Y-36760150D01*
X48471664Y-36844817D01*
X48048330Y-36929483D01*
X36237333Y-37958183D02*
X36279667Y-37915850D01*
X36364333Y-37873517D01*
X36576000Y-37873517D01*
X36660667Y-37915850D01*
X36703000Y-37958183D01*
X36745333Y-38042850D01*
X36745333Y-38127517D01*
X36703000Y-38254517D01*
X36195000Y-38762517D01*
X36745333Y-38762517D01*
X37295667Y-37873517D02*
X37380334Y-37873517D01*
X37465000Y-37915850D01*
X37507334Y-37958183D01*
X37549667Y-38042850D01*
X37592000Y-38212183D01*
X37592000Y-38423850D01*
X37549667Y-38593183D01*
X37507334Y-38677850D01*
X37465000Y-38720183D01*
X37380334Y-38762517D01*
X37295667Y-38762517D01*
X37211000Y-38720183D01*
X37168667Y-38677850D01*
X37126334Y-38593183D01*
X37084000Y-38423850D01*
X37084000Y-38212183D01*
X37126334Y-38042850D01*
X37168667Y-37958183D01*
X37211000Y-37915850D01*
X37295667Y-37873517D01*
X38438667Y-38762517D02*
X37930667Y-38762517D01*
X38184667Y-38762517D02*
X38184667Y-37873517D01*
X38100001Y-38000517D01*
X38015334Y-38085183D01*
X37930667Y-38127517D01*
X38735001Y-37873517D02*
X39327668Y-37873517D01*
X38946668Y-38762517D01*
X39666335Y-38677850D02*
X39708668Y-38720183D01*
X39666335Y-38762517D01*
X39624001Y-38720183D01*
X39666335Y-38677850D01*
X39666335Y-38762517D01*
X40555334Y-38762517D02*
X40047334Y-38762517D01*
X40301334Y-38762517D02*
X40301334Y-37873517D01*
X40216668Y-38000517D01*
X40132001Y-38085183D01*
X40047334Y-38127517D01*
X40894001Y-37958183D02*
X40936335Y-37915850D01*
X41021001Y-37873517D01*
X41232668Y-37873517D01*
X41317335Y-37915850D01*
X41359668Y-37958183D01*
X41402001Y-38042850D01*
X41402001Y-38127517D01*
X41359668Y-38254517D01*
X40851668Y-38762517D01*
X41402001Y-38762517D01*
X41783002Y-38677850D02*
X41825335Y-38720183D01*
X41783002Y-38762517D01*
X41740668Y-38720183D01*
X41783002Y-38677850D01*
X41783002Y-38762517D01*
X42164001Y-37958183D02*
X42206335Y-37915850D01*
X42291001Y-37873517D01*
X42502668Y-37873517D01*
X42587335Y-37915850D01*
X42629668Y-37958183D01*
X42672001Y-38042850D01*
X42672001Y-38127517D01*
X42629668Y-38254517D01*
X42121668Y-38762517D01*
X42672001Y-38762517D01*
X42968335Y-37873517D02*
X43518668Y-37873517D01*
X43222335Y-38212183D01*
X43349335Y-38212183D01*
X43434002Y-38254517D01*
X43476335Y-38296850D01*
X43518668Y-38381517D01*
X43518668Y-38593183D01*
X43476335Y-38677850D01*
X43434002Y-38720183D01*
X43349335Y-38762517D01*
X43095335Y-38762517D01*
X43010668Y-38720183D01*
X42968335Y-38677850D01*
D13*
X73658000Y-49586000D02*
X73658000Y-48656000D01*
X73658000Y-46426000D02*
X73658000Y-47356000D01*
X73658000Y-46426000D02*
X71498000Y-46426000D01*
X73658000Y-49586000D02*
X72198000Y-49586000D01*
X60906000Y-46720000D02*
X60906000Y-44720000D01*
X63046000Y-44720000D02*
X63046000Y-46720000D01*
X75835000Y-44650000D02*
X77835000Y-44650000D01*
X77835000Y-46790000D02*
X75835000Y-46790000D01*
X70784000Y-47760000D02*
X70784000Y-48760000D01*
X69424000Y-48760000D02*
X69424000Y-47760000D01*
X83824000Y-48240000D02*
G75*
G02X83824000Y-53360000I0J-2560000D01*
G01*
X77664000Y-53360000D02*
X83824000Y-53360000D01*
X77664000Y-48240000D02*
X83824000Y-48240000D01*
X77664000Y-53360000D02*
X77664000Y-48240000D01*
X77664000Y-47840000D02*
X78784000Y-47840000D01*
X78784000Y-47840000D02*
X78784000Y-48240000D01*
X78784000Y-48240000D02*
X77664000Y-48240000D01*
X77664000Y-48240000D02*
X77664000Y-47840000D01*
X77534000Y-52070000D02*
X77664000Y-52070000D01*
X77664000Y-52070000D02*
X77664000Y-52070000D01*
X77664000Y-52070000D02*
X77534000Y-52070000D01*
X77534000Y-52070000D02*
X77534000Y-52070000D01*
X77534000Y-49530000D02*
X77664000Y-49530000D01*
X77664000Y-49530000D02*
X77664000Y-49530000D01*
X77664000Y-49530000D02*
X77534000Y-49530000D01*
X77534000Y-49530000D02*
X77534000Y-49530000D01*
D14*
X55829200Y-48590200D02*
X55956200Y-48590200D01*
X57835800Y-48564800D02*
X57937400Y-48564800D01*
X57957233Y-48566882D02*
G75*
G03X57962800Y-42875200I-1061233J2846882D01*
G01*
X55818104Y-42853949D02*
G75*
G03X55829200Y-48590200I1077896J-2866051D01*
G01*
X58064400Y-48514000D02*
X57835800Y-48514000D01*
X58318400Y-48387000D02*
X57835800Y-48387000D01*
X58521600Y-48260000D02*
X57835800Y-48260000D01*
X58699400Y-48133000D02*
X57835800Y-48133000D01*
X57835800Y-48133000D02*
X57835800Y-48564800D01*
X55956200Y-48133000D02*
X55956200Y-48590200D01*
X55676800Y-48514000D02*
X55956200Y-48514000D01*
X55422800Y-48387000D02*
X55956200Y-48387000D01*
X55219600Y-48260000D02*
X55956200Y-48260000D01*
X55041800Y-48133000D02*
X55956200Y-48133000D01*
X53594000Y-49022000D02*
X55778400Y-49022000D01*
X60198000Y-49022000D02*
X58013600Y-49022000D01*
X54356000Y-42418000D02*
X55778400Y-42418000D01*
X58039000Y-42418000D02*
X59436000Y-42418000D01*
X53594000Y-49682400D02*
X54356000Y-49682400D01*
X60198000Y-49022000D02*
X60198000Y-43180000D01*
X60198000Y-43180000D02*
X59436000Y-42418000D01*
X54356000Y-42418000D02*
X53594000Y-43180000D01*
X53594000Y-43180000D02*
X53594000Y-49022000D01*
X53949600Y-41452800D02*
X53949600Y-42214800D01*
X53594000Y-41833800D02*
X54356000Y-41833800D01*
D13*
X71216000Y-43272000D02*
X70516000Y-43272000D01*
X70516000Y-42072000D02*
X71216000Y-42072000D01*
X67402000Y-39782000D02*
X67402000Y-40482000D01*
X66202000Y-40482000D02*
X66202000Y-39782000D01*
X63846000Y-41306000D02*
X63846000Y-42006000D01*
X62646000Y-42006000D02*
X62646000Y-41306000D01*
X83824000Y-38080000D02*
G75*
G02X83824000Y-43200000I0J-2560000D01*
G01*
X77664000Y-43200000D02*
X83824000Y-43200000D01*
X77664000Y-38080000D02*
X83824000Y-38080000D01*
X77664000Y-43200000D02*
X77664000Y-38080000D01*
X77664000Y-37680000D02*
X78784000Y-37680000D01*
X78784000Y-37680000D02*
X78784000Y-38080000D01*
X78784000Y-38080000D02*
X77664000Y-38080000D01*
X77664000Y-38080000D02*
X77664000Y-37680000D01*
X77534000Y-41910000D02*
X77664000Y-41910000D01*
X77664000Y-41910000D02*
X77664000Y-41910000D01*
X77664000Y-41910000D02*
X77534000Y-41910000D01*
X77534000Y-41910000D02*
X77534000Y-41910000D01*
X77534000Y-39370000D02*
X77664000Y-39370000D01*
X77664000Y-39370000D02*
X77664000Y-39370000D01*
X77664000Y-39370000D02*
X77534000Y-39370000D01*
X77534000Y-39370000D02*
X77534000Y-39370000D01*
D14*
X35229800Y-41783000D02*
X35433000Y-41783000D01*
X35229800Y-49657000D02*
X35433000Y-49657000D01*
D10*
X37592000Y-41795000D02*
X40102800Y-41795000D01*
X40102800Y-41795000D02*
X40102800Y-49645000D01*
X40102800Y-49645000D02*
X37592000Y-49645000D01*
X35229800Y-49645000D02*
X35229800Y-41795000D01*
D13*
X62312000Y-51808000D02*
X62312000Y-50808000D01*
X63672000Y-50808000D02*
X63672000Y-51808000D01*
X64344000Y-51808000D02*
X64344000Y-50808000D01*
X65704000Y-50808000D02*
X65704000Y-51808000D01*
D10*
X64008000Y-43434000D02*
X69088000Y-43434000D01*
X69088000Y-43434000D02*
X69088000Y-48006000D01*
X69088000Y-48006000D02*
X64008000Y-48006000D01*
X64008000Y-48006000D02*
X64008000Y-43434000D01*
X64008000Y-44958000D02*
X64516000Y-44958000D01*
X64516000Y-44958000D02*
X64516000Y-46228000D01*
X64516000Y-46228000D02*
X64008000Y-46228000D01*
X72802762Y-46013619D02*
X72707524Y-45966000D01*
X72612286Y-45870762D01*
X72469429Y-45727905D01*
X72374190Y-45680286D01*
X72278952Y-45680286D01*
X72326571Y-45918381D02*
X72231333Y-45870762D01*
X72136095Y-45775524D01*
X72088476Y-45585048D01*
X72088476Y-45251714D01*
X72136095Y-45061238D01*
X72231333Y-44966000D01*
X72326571Y-44918381D01*
X72517048Y-44918381D01*
X72612286Y-44966000D01*
X72707524Y-45061238D01*
X72755143Y-45251714D01*
X72755143Y-45585048D01*
X72707524Y-45775524D01*
X72612286Y-45870762D01*
X72517048Y-45918381D01*
X72326571Y-45918381D01*
X73707524Y-45918381D02*
X73136095Y-45918381D01*
X73421809Y-45918381D02*
X73421809Y-44918381D01*
X73326571Y-45061238D01*
X73231333Y-45156476D01*
X73136095Y-45204095D01*
X61809334Y-48871143D02*
X61761715Y-48918762D01*
X61618858Y-48966381D01*
X61523620Y-48966381D01*
X61380762Y-48918762D01*
X61285524Y-48823524D01*
X61237905Y-48728286D01*
X61190286Y-48537810D01*
X61190286Y-48394952D01*
X61237905Y-48204476D01*
X61285524Y-48109238D01*
X61380762Y-48014000D01*
X61523620Y-47966381D01*
X61618858Y-47966381D01*
X61761715Y-48014000D01*
X61809334Y-48061619D01*
X62142667Y-47966381D02*
X62761715Y-47966381D01*
X62428381Y-48347333D01*
X62571239Y-48347333D01*
X62666477Y-48394952D01*
X62714096Y-48442571D01*
X62761715Y-48537810D01*
X62761715Y-48775905D01*
X62714096Y-48871143D01*
X62666477Y-48918762D01*
X62571239Y-48966381D01*
X62285524Y-48966381D01*
X62190286Y-48918762D01*
X62142667Y-48871143D01*
X76668334Y-44140381D02*
X76335000Y-43664190D01*
X76096905Y-44140381D02*
X76096905Y-43140381D01*
X76477858Y-43140381D01*
X76573096Y-43188000D01*
X76620715Y-43235619D01*
X76668334Y-43330857D01*
X76668334Y-43473714D01*
X76620715Y-43568952D01*
X76573096Y-43616571D01*
X76477858Y-43664190D01*
X76096905Y-43664190D01*
X77620715Y-44140381D02*
X77049286Y-44140381D01*
X77335000Y-44140381D02*
X77335000Y-43140381D01*
X77239762Y-43283238D01*
X77144524Y-43378476D01*
X77049286Y-43426095D01*
X70191334Y-46680381D02*
X69858000Y-46204190D01*
X69619905Y-46680381D02*
X69619905Y-45680381D01*
X70000858Y-45680381D01*
X70096096Y-45728000D01*
X70143715Y-45775619D01*
X70191334Y-45870857D01*
X70191334Y-46013714D01*
X70143715Y-46108952D01*
X70096096Y-46156571D01*
X70000858Y-46204190D01*
X69619905Y-46204190D01*
X71048477Y-46013714D02*
X71048477Y-46680381D01*
X70810381Y-45632762D02*
X70572286Y-46347048D01*
X71191334Y-46347048D01*
X75715905Y-54300381D02*
X75715905Y-53300381D01*
X75954000Y-53300381D01*
X76096858Y-53348000D01*
X76192096Y-53443238D01*
X76239715Y-53538476D01*
X76287334Y-53728952D01*
X76287334Y-53871810D01*
X76239715Y-54062286D01*
X76192096Y-54157524D01*
X76096858Y-54252762D01*
X75954000Y-54300381D01*
X75715905Y-54300381D01*
X77239715Y-54300381D02*
X76668286Y-54300381D01*
X76954000Y-54300381D02*
X76954000Y-53300381D01*
X76858762Y-53443238D01*
X76763524Y-53538476D01*
X76668286Y-53586095D01*
X59302667Y-50069714D02*
X59264572Y-50107810D01*
X59150286Y-50145905D01*
X59074096Y-50145905D01*
X58959810Y-50107810D01*
X58883619Y-50031619D01*
X58845524Y-49955429D01*
X58807429Y-49803048D01*
X58807429Y-49688762D01*
X58845524Y-49536381D01*
X58883619Y-49460190D01*
X58959810Y-49384000D01*
X59074096Y-49345905D01*
X59150286Y-49345905D01*
X59264572Y-49384000D01*
X59302667Y-49422095D01*
X60064572Y-50145905D02*
X59607429Y-50145905D01*
X59836000Y-50145905D02*
X59836000Y-49345905D01*
X59759810Y-49460190D01*
X59683619Y-49536381D01*
X59607429Y-49574476D01*
X55784905Y-46107305D02*
X55327762Y-46107305D01*
X55556333Y-46107305D02*
X55556333Y-45307305D01*
X55480143Y-45421590D01*
X55403952Y-45497781D01*
X55327762Y-45535876D01*
X56280143Y-45307305D02*
X56356334Y-45307305D01*
X56432524Y-45345400D01*
X56470619Y-45383495D01*
X56508715Y-45459686D01*
X56546810Y-45612067D01*
X56546810Y-45802543D01*
X56508715Y-45954924D01*
X56470619Y-46031114D01*
X56432524Y-46069210D01*
X56356334Y-46107305D01*
X56280143Y-46107305D01*
X56203953Y-46069210D01*
X56165857Y-46031114D01*
X56127762Y-45954924D01*
X56089667Y-45802543D01*
X56089667Y-45612067D01*
X56127762Y-45459686D01*
X56165857Y-45383495D01*
X56203953Y-45345400D01*
X56280143Y-45307305D01*
X57042048Y-45307305D02*
X57118239Y-45307305D01*
X57194429Y-45345400D01*
X57232524Y-45383495D01*
X57270620Y-45459686D01*
X57308715Y-45612067D01*
X57308715Y-45802543D01*
X57270620Y-45954924D01*
X57232524Y-46031114D01*
X57194429Y-46069210D01*
X57118239Y-46107305D01*
X57042048Y-46107305D01*
X56965858Y-46069210D01*
X56927762Y-46031114D01*
X56889667Y-45954924D01*
X56851572Y-45802543D01*
X56851572Y-45612067D01*
X56889667Y-45459686D01*
X56927762Y-45383495D01*
X56965858Y-45345400D01*
X57042048Y-45307305D01*
X57994429Y-45573971D02*
X57994429Y-46107305D01*
X57651572Y-45573971D02*
X57651572Y-45993019D01*
X57689667Y-46069210D01*
X57765858Y-46107305D01*
X57880144Y-46107305D01*
X57956334Y-46069210D01*
X57994429Y-46031114D01*
X58642049Y-45688257D02*
X58375382Y-45688257D01*
X58375382Y-46107305D02*
X58375382Y-45307305D01*
X58756335Y-45307305D01*
X72985334Y-43029143D02*
X72937715Y-43076762D01*
X72794858Y-43124381D01*
X72699620Y-43124381D01*
X72556762Y-43076762D01*
X72461524Y-42981524D01*
X72413905Y-42886286D01*
X72366286Y-42695810D01*
X72366286Y-42552952D01*
X72413905Y-42362476D01*
X72461524Y-42267238D01*
X72556762Y-42172000D01*
X72699620Y-42124381D01*
X72794858Y-42124381D01*
X72937715Y-42172000D01*
X72985334Y-42219619D01*
X73366286Y-42219619D02*
X73413905Y-42172000D01*
X73509143Y-42124381D01*
X73747239Y-42124381D01*
X73842477Y-42172000D01*
X73890096Y-42219619D01*
X73937715Y-42314857D01*
X73937715Y-42410095D01*
X73890096Y-42552952D01*
X73318667Y-43124381D01*
X73937715Y-43124381D01*
X65111334Y-39981143D02*
X65063715Y-40028762D01*
X64920858Y-40076381D01*
X64825620Y-40076381D01*
X64682762Y-40028762D01*
X64587524Y-39933524D01*
X64539905Y-39838286D01*
X64492286Y-39647810D01*
X64492286Y-39504952D01*
X64539905Y-39314476D01*
X64587524Y-39219238D01*
X64682762Y-39124000D01*
X64825620Y-39076381D01*
X64920858Y-39076381D01*
X65063715Y-39124000D01*
X65111334Y-39171619D01*
X65968477Y-39409714D02*
X65968477Y-40076381D01*
X65730381Y-39028762D02*
X65492286Y-39743048D01*
X66111334Y-39743048D01*
X61555334Y-41505143D02*
X61507715Y-41552762D01*
X61364858Y-41600381D01*
X61269620Y-41600381D01*
X61126762Y-41552762D01*
X61031524Y-41457524D01*
X60983905Y-41362286D01*
X60936286Y-41171810D01*
X60936286Y-41028952D01*
X60983905Y-40838476D01*
X61031524Y-40743238D01*
X61126762Y-40648000D01*
X61269620Y-40600381D01*
X61364858Y-40600381D01*
X61507715Y-40648000D01*
X61555334Y-40695619D01*
X62460096Y-40600381D02*
X61983905Y-40600381D01*
X61936286Y-41076571D01*
X61983905Y-41028952D01*
X62079143Y-40981333D01*
X62317239Y-40981333D01*
X62412477Y-41028952D01*
X62460096Y-41076571D01*
X62507715Y-41171810D01*
X62507715Y-41409905D01*
X62460096Y-41505143D01*
X62412477Y-41552762D01*
X62317239Y-41600381D01*
X62079143Y-41600381D01*
X61983905Y-41552762D01*
X61936286Y-41505143D01*
X74946381Y-41378095D02*
X73946381Y-41378095D01*
X73946381Y-41140000D01*
X73994000Y-40997142D01*
X74089238Y-40901904D01*
X74184476Y-40854285D01*
X74374952Y-40806666D01*
X74517810Y-40806666D01*
X74708286Y-40854285D01*
X74803524Y-40901904D01*
X74898762Y-40997142D01*
X74946381Y-41140000D01*
X74946381Y-41378095D01*
X74041619Y-40425714D02*
X73994000Y-40378095D01*
X73946381Y-40282857D01*
X73946381Y-40044761D01*
X73994000Y-39949523D01*
X74041619Y-39901904D01*
X74136857Y-39854285D01*
X74232095Y-39854285D01*
X74374952Y-39901904D01*
X74946381Y-40473333D01*
X74946381Y-39854285D01*
X38201634Y-40786105D02*
X38201634Y-41357533D01*
X38163538Y-41471819D01*
X38087348Y-41548010D01*
X37973062Y-41586105D01*
X37896872Y-41586105D01*
X39001634Y-41586105D02*
X38544491Y-41586105D01*
X38773062Y-41586105D02*
X38773062Y-40786105D01*
X38696872Y-40900390D01*
X38620681Y-40976581D01*
X38544491Y-41014676D01*
X62571334Y-53792381D02*
X62238000Y-53316190D01*
X61999905Y-53792381D02*
X61999905Y-52792381D01*
X62380858Y-52792381D01*
X62476096Y-52840000D01*
X62523715Y-52887619D01*
X62571334Y-52982857D01*
X62571334Y-53125714D01*
X62523715Y-53220952D01*
X62476096Y-53268571D01*
X62380858Y-53316190D01*
X61999905Y-53316190D01*
X62952286Y-52887619D02*
X62999905Y-52840000D01*
X63095143Y-52792381D01*
X63333239Y-52792381D01*
X63428477Y-52840000D01*
X63476096Y-52887619D01*
X63523715Y-52982857D01*
X63523715Y-53078095D01*
X63476096Y-53220952D01*
X62904667Y-53792381D01*
X63523715Y-53792381D01*
X64857334Y-53792381D02*
X64524000Y-53316190D01*
X64285905Y-53792381D02*
X64285905Y-52792381D01*
X64666858Y-52792381D01*
X64762096Y-52840000D01*
X64809715Y-52887619D01*
X64857334Y-52982857D01*
X64857334Y-53125714D01*
X64809715Y-53220952D01*
X64762096Y-53268571D01*
X64666858Y-53316190D01*
X64285905Y-53316190D01*
X65190667Y-52792381D02*
X65809715Y-52792381D01*
X65476381Y-53173333D01*
X65619239Y-53173333D01*
X65714477Y-53220952D01*
X65762096Y-53268571D01*
X65809715Y-53363810D01*
X65809715Y-53601905D01*
X65762096Y-53697143D01*
X65714477Y-53744762D01*
X65619239Y-53792381D01*
X65333524Y-53792381D01*
X65238286Y-53744762D01*
X65190667Y-53697143D01*
X65786095Y-43902381D02*
X65786095Y-44711905D01*
X65833714Y-44807143D01*
X65881333Y-44854762D01*
X65976571Y-44902381D01*
X66167048Y-44902381D01*
X66262286Y-44854762D01*
X66309905Y-44807143D01*
X66357524Y-44711905D01*
X66357524Y-43902381D01*
X67357524Y-44902381D02*
X66786095Y-44902381D01*
X67071809Y-44902381D02*
X67071809Y-43902381D01*
X66976571Y-44045238D01*
X66881333Y-44140476D01*
X66786095Y-44188095D01*
M02*
