M48
;DRILL file {KiCad 4.0.7} date 01/10/18 16:31:02
;FORMAT={-:-/ absolute / inch / decimal}
FMAT,2
INCH,TZ
T1C0.014
T2C0.020
T3C0.032
T4C0.035
T5C0.042
T6C0.098
%
G90
G05
M72
T1
X2.49Y-1.57
X2.6Y-1.62
X2.6Y-1.86
X2.63Y-1.51
X2.85Y-1.64
T2
X2.24Y-2.02
X2.44Y-1.8
X2.89Y-1.99
T3
X1.5424Y-1.7016
X1.5424Y-1.8984
T4
X3.01Y-1.55
X3.01Y-1.65
X3.01Y-1.95
X3.01Y-2.05
T5
X1.4371Y-1.6622
X1.4371Y-1.9378
T6
X2.025Y-1.525
X2.025Y-2.075
X2.775Y-1.525
X2.775Y-2.075
T0
M30
