G04 #@! TF.FileFunction,Copper,L2,Bot,Signal*
%FSLAX46Y46*%
G04 Gerber Fmt 4.6, Leading zero omitted, Abs format (unit mm)*
G04 Created by KiCad (PCBNEW 4.0.7) date 03/31/18 19:24:12*
%MOMM*%
%LPD*%
G01*
G04 APERTURE LIST*
%ADD10C,0.150000*%
%ADD11R,1.800000X1.800000*%
%ADD12C,1.800000*%
%ADD13C,5.000000*%
%ADD14C,2.200000*%
%ADD15C,1.600000*%
%ADD16C,1.016000*%
%ADD17C,0.254000*%
G04 APERTURE END LIST*
D10*
D11*
X79248000Y-52070000D03*
D12*
X79248000Y-49530000D03*
D11*
X79248000Y-41910000D03*
D12*
X79248000Y-39370000D03*
D13*
X51435000Y-38735000D03*
X51435000Y-52705000D03*
X70485000Y-38735000D03*
X70485000Y-52705000D03*
D14*
X41145000Y-37590000D03*
X41145000Y-53850000D03*
D15*
X40125000Y-45220000D03*
X40125000Y-47250000D03*
X41905000Y-44190000D03*
X41905000Y-46220000D03*
X41905000Y-42160000D03*
X40125000Y-43190000D03*
X41905000Y-48250000D03*
X40125000Y-49280000D03*
D16*
X66040000Y-52070000D03*
X54610000Y-44450000D03*
X60325000Y-44450000D03*
X49530000Y-45085000D03*
X73406000Y-50546000D03*
D17*
G36*
X40099737Y-36365132D02*
X41145000Y-37410395D01*
X42190263Y-36365132D01*
X42152206Y-36270000D01*
X49466873Y-36270000D01*
X48778826Y-36956847D01*
X48300546Y-38108674D01*
X48299457Y-39355854D01*
X48775727Y-40508515D01*
X49656847Y-41391174D01*
X50808674Y-41869454D01*
X52055854Y-41870543D01*
X53208515Y-41394273D01*
X54091174Y-40513153D01*
X54569454Y-39361326D01*
X54570543Y-38114146D01*
X54094273Y-36961485D01*
X53403994Y-36270000D01*
X68516873Y-36270000D01*
X67828826Y-36956847D01*
X67350546Y-38108674D01*
X67349457Y-39355854D01*
X67825727Y-40508515D01*
X68706847Y-41391174D01*
X69858674Y-41869454D01*
X71105854Y-41870543D01*
X72258515Y-41394273D01*
X72643459Y-41010000D01*
X77700560Y-41010000D01*
X77700560Y-42810000D01*
X77744838Y-43045317D01*
X77883910Y-43261441D01*
X78096110Y-43406431D01*
X78348000Y-43457440D01*
X80148000Y-43457440D01*
X80383317Y-43413162D01*
X80599441Y-43274090D01*
X80744431Y-43061890D01*
X80795440Y-42810000D01*
X80795440Y-41010000D01*
X80751162Y-40774683D01*
X80612090Y-40558559D01*
X80399890Y-40413569D01*
X80379466Y-40409433D01*
X80548551Y-40240643D01*
X80782733Y-39676670D01*
X80783265Y-39066009D01*
X80550068Y-38501629D01*
X80118643Y-38069449D01*
X79554670Y-37835267D01*
X78944009Y-37834735D01*
X78379629Y-38067932D01*
X77947449Y-38499357D01*
X77713267Y-39063330D01*
X77712735Y-39673991D01*
X77945932Y-40238371D01*
X78113880Y-40406613D01*
X78112683Y-40406838D01*
X77896559Y-40545910D01*
X77751569Y-40758110D01*
X77700560Y-41010000D01*
X72643459Y-41010000D01*
X73141174Y-40513153D01*
X73619454Y-39361326D01*
X73620543Y-38114146D01*
X73144273Y-36961485D01*
X72453994Y-36270000D01*
X85675400Y-36270000D01*
X85675400Y-55170000D01*
X72453127Y-55170000D01*
X73141174Y-54483153D01*
X73619454Y-53331326D01*
X73620543Y-52084146D01*
X73242826Y-51170000D01*
X77700560Y-51170000D01*
X77700560Y-52970000D01*
X77744838Y-53205317D01*
X77883910Y-53421441D01*
X78096110Y-53566431D01*
X78348000Y-53617440D01*
X80148000Y-53617440D01*
X80383317Y-53573162D01*
X80599441Y-53434090D01*
X80744431Y-53221890D01*
X80795440Y-52970000D01*
X80795440Y-51170000D01*
X80751162Y-50934683D01*
X80612090Y-50718559D01*
X80399890Y-50573569D01*
X80379466Y-50569433D01*
X80548551Y-50400643D01*
X80782733Y-49836670D01*
X80783265Y-49226009D01*
X80550068Y-48661629D01*
X80118643Y-48229449D01*
X79554670Y-47995267D01*
X78944009Y-47994735D01*
X78379629Y-48227932D01*
X77947449Y-48659357D01*
X77713267Y-49223330D01*
X77712735Y-49833991D01*
X77945932Y-50398371D01*
X78113880Y-50566613D01*
X78112683Y-50566838D01*
X77896559Y-50705910D01*
X77751569Y-50918110D01*
X77700560Y-51170000D01*
X73242826Y-51170000D01*
X73144273Y-50931485D01*
X72263153Y-50048826D01*
X71111326Y-49570546D01*
X69864146Y-49569457D01*
X68711485Y-50045727D01*
X67828826Y-50926847D01*
X67350546Y-52078674D01*
X67349457Y-53325854D01*
X67825727Y-54478515D01*
X68516006Y-55170000D01*
X53403127Y-55170000D01*
X54091174Y-54483153D01*
X54569454Y-53331326D01*
X54570543Y-52084146D01*
X54094273Y-50931485D01*
X53213153Y-50048826D01*
X52061326Y-49570546D01*
X50814146Y-49569457D01*
X49661485Y-50045727D01*
X48778826Y-50926847D01*
X48300546Y-52078674D01*
X48299457Y-53325854D01*
X48775727Y-54478515D01*
X49466006Y-55170000D01*
X42152206Y-55170000D01*
X42190263Y-55074868D01*
X41145000Y-54029605D01*
X40099737Y-55074868D01*
X40137794Y-55170000D01*
X36295400Y-55170000D01*
X36295400Y-53977063D01*
X36303141Y-53984818D01*
X37133486Y-54329607D01*
X38032570Y-54330391D01*
X38863515Y-53987052D01*
X39465900Y-53385717D01*
X39399677Y-53561593D01*
X39422164Y-54251453D01*
X39642901Y-54784359D01*
X39920132Y-54895263D01*
X40965395Y-53850000D01*
X41324605Y-53850000D01*
X42369868Y-54895263D01*
X42647099Y-54784359D01*
X42890323Y-54138407D01*
X42867836Y-53448547D01*
X42647099Y-52915641D01*
X42369868Y-52804737D01*
X41324605Y-53850000D01*
X40965395Y-53850000D01*
X39920132Y-52804737D01*
X39688531Y-52897387D01*
X39801581Y-52625132D01*
X40099737Y-52625132D01*
X41145000Y-53670395D01*
X42190263Y-52625132D01*
X42079359Y-52347901D01*
X41433407Y-52104677D01*
X40743547Y-52127164D01*
X40210641Y-52347901D01*
X40099737Y-52625132D01*
X39801581Y-52625132D01*
X39844607Y-52521514D01*
X39845391Y-51622430D01*
X39502052Y-50791485D01*
X38866859Y-50155182D01*
X38036514Y-49810393D01*
X37137430Y-49809609D01*
X36306485Y-50152948D01*
X36295400Y-50164014D01*
X36295400Y-43474187D01*
X38689752Y-43474187D01*
X38907757Y-44001800D01*
X39110603Y-44205001D01*
X38909176Y-44406077D01*
X38690250Y-44933309D01*
X38689752Y-45504187D01*
X38907757Y-46031800D01*
X39110603Y-46235001D01*
X38909176Y-46436077D01*
X38690250Y-46963309D01*
X38689752Y-47534187D01*
X38907757Y-48061800D01*
X39110603Y-48265001D01*
X38909176Y-48466077D01*
X38690250Y-48993309D01*
X38689752Y-49564187D01*
X38907757Y-50091800D01*
X39311077Y-50495824D01*
X39838309Y-50714750D01*
X40409187Y-50715248D01*
X40936800Y-50497243D01*
X41340824Y-50093923D01*
X41526549Y-49646648D01*
X41618309Y-49684750D01*
X42189187Y-49685248D01*
X42716800Y-49467243D01*
X43120824Y-49063923D01*
X43339750Y-48536691D01*
X43340248Y-47965813D01*
X43122243Y-47438200D01*
X42919397Y-47234999D01*
X43120824Y-47033923D01*
X43339750Y-46506691D01*
X43340248Y-45935813D01*
X43122243Y-45408200D01*
X42919397Y-45204999D01*
X43120824Y-45003923D01*
X43339750Y-44476691D01*
X43340248Y-43905813D01*
X43122243Y-43378200D01*
X42718923Y-42974176D01*
X42412213Y-42846819D01*
X41905000Y-42339605D01*
X41890858Y-42353748D01*
X41711253Y-42174143D01*
X41725395Y-42160000D01*
X42084605Y-42160000D01*
X42912745Y-42988139D01*
X43158864Y-42914005D01*
X43351965Y-42376777D01*
X43324778Y-41806546D01*
X43158864Y-41405995D01*
X42912745Y-41331861D01*
X42084605Y-42160000D01*
X41725395Y-42160000D01*
X40897255Y-41331861D01*
X40651136Y-41405995D01*
X40510807Y-41796406D01*
X40411691Y-41755250D01*
X39840813Y-41754752D01*
X39313200Y-41972757D01*
X38909176Y-42376077D01*
X38690250Y-42903309D01*
X38689752Y-43474187D01*
X36295400Y-43474187D01*
X36295400Y-41277063D01*
X36303141Y-41284818D01*
X37133486Y-41629607D01*
X38032570Y-41630391D01*
X38863515Y-41287052D01*
X38998547Y-41152255D01*
X41076861Y-41152255D01*
X41905000Y-41980395D01*
X42733139Y-41152255D01*
X42659005Y-40906136D01*
X42121777Y-40713035D01*
X41551546Y-40740222D01*
X41150995Y-40906136D01*
X41076861Y-41152255D01*
X38998547Y-41152255D01*
X39499818Y-40651859D01*
X39844607Y-39821514D01*
X39845391Y-38922430D01*
X39800948Y-38814868D01*
X40099737Y-38814868D01*
X40210641Y-39092099D01*
X40856593Y-39335323D01*
X41546453Y-39312836D01*
X42079359Y-39092099D01*
X42190263Y-38814868D01*
X41145000Y-37769605D01*
X40099737Y-38814868D01*
X39800948Y-38814868D01*
X39688439Y-38542576D01*
X39920132Y-38635263D01*
X40965395Y-37590000D01*
X41324605Y-37590000D01*
X42369868Y-38635263D01*
X42647099Y-38524359D01*
X42890323Y-37878407D01*
X42867836Y-37188547D01*
X42647099Y-36655641D01*
X42369868Y-36544737D01*
X41324605Y-37590000D01*
X40965395Y-37590000D01*
X39920132Y-36544737D01*
X39642901Y-36655641D01*
X39399677Y-37301593D01*
X39422164Y-37991453D01*
X39436327Y-38025645D01*
X38866859Y-37455182D01*
X38036514Y-37110393D01*
X37137430Y-37109609D01*
X36306485Y-37452948D01*
X36295400Y-37464014D01*
X36295400Y-36270000D01*
X40137794Y-36270000D01*
X40099737Y-36365132D01*
X40099737Y-36365132D01*
G37*
X40099737Y-36365132D02*
X41145000Y-37410395D01*
X42190263Y-36365132D01*
X42152206Y-36270000D01*
X49466873Y-36270000D01*
X48778826Y-36956847D01*
X48300546Y-38108674D01*
X48299457Y-39355854D01*
X48775727Y-40508515D01*
X49656847Y-41391174D01*
X50808674Y-41869454D01*
X52055854Y-41870543D01*
X53208515Y-41394273D01*
X54091174Y-40513153D01*
X54569454Y-39361326D01*
X54570543Y-38114146D01*
X54094273Y-36961485D01*
X53403994Y-36270000D01*
X68516873Y-36270000D01*
X67828826Y-36956847D01*
X67350546Y-38108674D01*
X67349457Y-39355854D01*
X67825727Y-40508515D01*
X68706847Y-41391174D01*
X69858674Y-41869454D01*
X71105854Y-41870543D01*
X72258515Y-41394273D01*
X72643459Y-41010000D01*
X77700560Y-41010000D01*
X77700560Y-42810000D01*
X77744838Y-43045317D01*
X77883910Y-43261441D01*
X78096110Y-43406431D01*
X78348000Y-43457440D01*
X80148000Y-43457440D01*
X80383317Y-43413162D01*
X80599441Y-43274090D01*
X80744431Y-43061890D01*
X80795440Y-42810000D01*
X80795440Y-41010000D01*
X80751162Y-40774683D01*
X80612090Y-40558559D01*
X80399890Y-40413569D01*
X80379466Y-40409433D01*
X80548551Y-40240643D01*
X80782733Y-39676670D01*
X80783265Y-39066009D01*
X80550068Y-38501629D01*
X80118643Y-38069449D01*
X79554670Y-37835267D01*
X78944009Y-37834735D01*
X78379629Y-38067932D01*
X77947449Y-38499357D01*
X77713267Y-39063330D01*
X77712735Y-39673991D01*
X77945932Y-40238371D01*
X78113880Y-40406613D01*
X78112683Y-40406838D01*
X77896559Y-40545910D01*
X77751569Y-40758110D01*
X77700560Y-41010000D01*
X72643459Y-41010000D01*
X73141174Y-40513153D01*
X73619454Y-39361326D01*
X73620543Y-38114146D01*
X73144273Y-36961485D01*
X72453994Y-36270000D01*
X85675400Y-36270000D01*
X85675400Y-55170000D01*
X72453127Y-55170000D01*
X73141174Y-54483153D01*
X73619454Y-53331326D01*
X73620543Y-52084146D01*
X73242826Y-51170000D01*
X77700560Y-51170000D01*
X77700560Y-52970000D01*
X77744838Y-53205317D01*
X77883910Y-53421441D01*
X78096110Y-53566431D01*
X78348000Y-53617440D01*
X80148000Y-53617440D01*
X80383317Y-53573162D01*
X80599441Y-53434090D01*
X80744431Y-53221890D01*
X80795440Y-52970000D01*
X80795440Y-51170000D01*
X80751162Y-50934683D01*
X80612090Y-50718559D01*
X80399890Y-50573569D01*
X80379466Y-50569433D01*
X80548551Y-50400643D01*
X80782733Y-49836670D01*
X80783265Y-49226009D01*
X80550068Y-48661629D01*
X80118643Y-48229449D01*
X79554670Y-47995267D01*
X78944009Y-47994735D01*
X78379629Y-48227932D01*
X77947449Y-48659357D01*
X77713267Y-49223330D01*
X77712735Y-49833991D01*
X77945932Y-50398371D01*
X78113880Y-50566613D01*
X78112683Y-50566838D01*
X77896559Y-50705910D01*
X77751569Y-50918110D01*
X77700560Y-51170000D01*
X73242826Y-51170000D01*
X73144273Y-50931485D01*
X72263153Y-50048826D01*
X71111326Y-49570546D01*
X69864146Y-49569457D01*
X68711485Y-50045727D01*
X67828826Y-50926847D01*
X67350546Y-52078674D01*
X67349457Y-53325854D01*
X67825727Y-54478515D01*
X68516006Y-55170000D01*
X53403127Y-55170000D01*
X54091174Y-54483153D01*
X54569454Y-53331326D01*
X54570543Y-52084146D01*
X54094273Y-50931485D01*
X53213153Y-50048826D01*
X52061326Y-49570546D01*
X50814146Y-49569457D01*
X49661485Y-50045727D01*
X48778826Y-50926847D01*
X48300546Y-52078674D01*
X48299457Y-53325854D01*
X48775727Y-54478515D01*
X49466006Y-55170000D01*
X42152206Y-55170000D01*
X42190263Y-55074868D01*
X41145000Y-54029605D01*
X40099737Y-55074868D01*
X40137794Y-55170000D01*
X36295400Y-55170000D01*
X36295400Y-53977063D01*
X36303141Y-53984818D01*
X37133486Y-54329607D01*
X38032570Y-54330391D01*
X38863515Y-53987052D01*
X39465900Y-53385717D01*
X39399677Y-53561593D01*
X39422164Y-54251453D01*
X39642901Y-54784359D01*
X39920132Y-54895263D01*
X40965395Y-53850000D01*
X41324605Y-53850000D01*
X42369868Y-54895263D01*
X42647099Y-54784359D01*
X42890323Y-54138407D01*
X42867836Y-53448547D01*
X42647099Y-52915641D01*
X42369868Y-52804737D01*
X41324605Y-53850000D01*
X40965395Y-53850000D01*
X39920132Y-52804737D01*
X39688531Y-52897387D01*
X39801581Y-52625132D01*
X40099737Y-52625132D01*
X41145000Y-53670395D01*
X42190263Y-52625132D01*
X42079359Y-52347901D01*
X41433407Y-52104677D01*
X40743547Y-52127164D01*
X40210641Y-52347901D01*
X40099737Y-52625132D01*
X39801581Y-52625132D01*
X39844607Y-52521514D01*
X39845391Y-51622430D01*
X39502052Y-50791485D01*
X38866859Y-50155182D01*
X38036514Y-49810393D01*
X37137430Y-49809609D01*
X36306485Y-50152948D01*
X36295400Y-50164014D01*
X36295400Y-43474187D01*
X38689752Y-43474187D01*
X38907757Y-44001800D01*
X39110603Y-44205001D01*
X38909176Y-44406077D01*
X38690250Y-44933309D01*
X38689752Y-45504187D01*
X38907757Y-46031800D01*
X39110603Y-46235001D01*
X38909176Y-46436077D01*
X38690250Y-46963309D01*
X38689752Y-47534187D01*
X38907757Y-48061800D01*
X39110603Y-48265001D01*
X38909176Y-48466077D01*
X38690250Y-48993309D01*
X38689752Y-49564187D01*
X38907757Y-50091800D01*
X39311077Y-50495824D01*
X39838309Y-50714750D01*
X40409187Y-50715248D01*
X40936800Y-50497243D01*
X41340824Y-50093923D01*
X41526549Y-49646648D01*
X41618309Y-49684750D01*
X42189187Y-49685248D01*
X42716800Y-49467243D01*
X43120824Y-49063923D01*
X43339750Y-48536691D01*
X43340248Y-47965813D01*
X43122243Y-47438200D01*
X42919397Y-47234999D01*
X43120824Y-47033923D01*
X43339750Y-46506691D01*
X43340248Y-45935813D01*
X43122243Y-45408200D01*
X42919397Y-45204999D01*
X43120824Y-45003923D01*
X43339750Y-44476691D01*
X43340248Y-43905813D01*
X43122243Y-43378200D01*
X42718923Y-42974176D01*
X42412213Y-42846819D01*
X41905000Y-42339605D01*
X41890858Y-42353748D01*
X41711253Y-42174143D01*
X41725395Y-42160000D01*
X42084605Y-42160000D01*
X42912745Y-42988139D01*
X43158864Y-42914005D01*
X43351965Y-42376777D01*
X43324778Y-41806546D01*
X43158864Y-41405995D01*
X42912745Y-41331861D01*
X42084605Y-42160000D01*
X41725395Y-42160000D01*
X40897255Y-41331861D01*
X40651136Y-41405995D01*
X40510807Y-41796406D01*
X40411691Y-41755250D01*
X39840813Y-41754752D01*
X39313200Y-41972757D01*
X38909176Y-42376077D01*
X38690250Y-42903309D01*
X38689752Y-43474187D01*
X36295400Y-43474187D01*
X36295400Y-41277063D01*
X36303141Y-41284818D01*
X37133486Y-41629607D01*
X38032570Y-41630391D01*
X38863515Y-41287052D01*
X38998547Y-41152255D01*
X41076861Y-41152255D01*
X41905000Y-41980395D01*
X42733139Y-41152255D01*
X42659005Y-40906136D01*
X42121777Y-40713035D01*
X41551546Y-40740222D01*
X41150995Y-40906136D01*
X41076861Y-41152255D01*
X38998547Y-41152255D01*
X39499818Y-40651859D01*
X39844607Y-39821514D01*
X39845391Y-38922430D01*
X39800948Y-38814868D01*
X40099737Y-38814868D01*
X40210641Y-39092099D01*
X40856593Y-39335323D01*
X41546453Y-39312836D01*
X42079359Y-39092099D01*
X42190263Y-38814868D01*
X41145000Y-37769605D01*
X40099737Y-38814868D01*
X39800948Y-38814868D01*
X39688439Y-38542576D01*
X39920132Y-38635263D01*
X40965395Y-37590000D01*
X41324605Y-37590000D01*
X42369868Y-38635263D01*
X42647099Y-38524359D01*
X42890323Y-37878407D01*
X42867836Y-37188547D01*
X42647099Y-36655641D01*
X42369868Y-36544737D01*
X41324605Y-37590000D01*
X40965395Y-37590000D01*
X39920132Y-36544737D01*
X39642901Y-36655641D01*
X39399677Y-37301593D01*
X39422164Y-37991453D01*
X39436327Y-38025645D01*
X38866859Y-37455182D01*
X38036514Y-37110393D01*
X37137430Y-37109609D01*
X36306485Y-37452948D01*
X36295400Y-37464014D01*
X36295400Y-36270000D01*
X40137794Y-36270000D01*
X40099737Y-36365132D01*
M02*
