G04 (created by PCBNEW (2013-07-07 BZR 4022)-stable) date 2/21/2016 2:52:37 PM*
%MOIN*%
G04 Gerber Fmt 3.4, Leading zero omitted, Abs format*
%FSLAX34Y34*%
G01*
G70*
G90*
G04 APERTURE LIST*
%ADD10C,0.00590551*%
%ADD11C,0.008*%
%ADD12C,0.005*%
%ADD13C,0.0118*%
%ADD14C,0.006*%
%ADD15C,0.0059*%
%ADD16C,0.00787402*%
%ADD17C,0.00984252*%
%ADD18C,9.84252e-005*%
%ADD19C,0.00575*%
%ADD20C,0.0047*%
G04 APERTURE END LIST*
G54D10*
G54D11*
X13871Y-15111D02*
X13889Y-15093D01*
X13925Y-15075D01*
X14015Y-15075D01*
X14051Y-15093D01*
X14069Y-15111D01*
X14087Y-15147D01*
X14087Y-15183D01*
X14069Y-15237D01*
X13853Y-15452D01*
X14087Y-15452D01*
X14984Y-15201D02*
X14984Y-15452D01*
X14895Y-15057D02*
X14805Y-15326D01*
X15038Y-15326D01*
X15918Y-15075D02*
X15846Y-15075D01*
X15810Y-15093D01*
X15792Y-15111D01*
X15756Y-15165D01*
X15738Y-15237D01*
X15738Y-15380D01*
X15756Y-15416D01*
X15774Y-15434D01*
X15810Y-15452D01*
X15882Y-15452D01*
X15918Y-15434D01*
X15936Y-15416D01*
X15954Y-15380D01*
X15954Y-15291D01*
X15936Y-15255D01*
X15918Y-15237D01*
X15882Y-15219D01*
X15810Y-15219D01*
X15774Y-15237D01*
X15756Y-15255D01*
X15738Y-15291D01*
X16744Y-15237D02*
X16708Y-15219D01*
X16690Y-15201D01*
X16672Y-15165D01*
X16672Y-15147D01*
X16690Y-15111D01*
X16708Y-15093D01*
X16744Y-15075D01*
X16816Y-15075D01*
X16851Y-15093D01*
X16869Y-15111D01*
X16887Y-15147D01*
X16887Y-15165D01*
X16869Y-15201D01*
X16851Y-15219D01*
X16816Y-15237D01*
X16744Y-15237D01*
X16708Y-15255D01*
X16690Y-15273D01*
X16672Y-15308D01*
X16672Y-15380D01*
X16690Y-15416D01*
X16708Y-15434D01*
X16744Y-15452D01*
X16816Y-15452D01*
X16851Y-15434D01*
X16869Y-15416D01*
X16887Y-15380D01*
X16887Y-15308D01*
X16869Y-15273D01*
X16851Y-15255D01*
X16816Y-15237D01*
X17821Y-15452D02*
X17605Y-15452D01*
X17713Y-15452D02*
X17713Y-15075D01*
X17677Y-15129D01*
X17641Y-15165D01*
X17605Y-15183D01*
X18054Y-15075D02*
X18090Y-15075D01*
X18126Y-15093D01*
X18144Y-15111D01*
X18162Y-15147D01*
X18180Y-15219D01*
X18180Y-15308D01*
X18162Y-15380D01*
X18144Y-15416D01*
X18126Y-15434D01*
X18090Y-15452D01*
X18054Y-15452D01*
X18018Y-15434D01*
X18000Y-15416D01*
X17982Y-15380D01*
X17964Y-15308D01*
X17964Y-15219D01*
X17982Y-15147D01*
X18000Y-15111D01*
X18018Y-15093D01*
X18054Y-15075D01*
X18826Y-15452D02*
X18611Y-15452D01*
X18718Y-15452D02*
X18718Y-15075D01*
X18683Y-15129D01*
X18647Y-15165D01*
X18611Y-15183D01*
X18970Y-15111D02*
X18988Y-15093D01*
X19024Y-15075D01*
X19113Y-15075D01*
X19149Y-15093D01*
X19167Y-15111D01*
X19185Y-15147D01*
X19185Y-15183D01*
X19167Y-15237D01*
X18952Y-15452D01*
X19185Y-15452D01*
X19832Y-15452D02*
X19616Y-15452D01*
X19724Y-15452D02*
X19724Y-15075D01*
X19688Y-15129D01*
X19652Y-15165D01*
X19616Y-15183D01*
X20155Y-15201D02*
X20155Y-15452D01*
X20065Y-15057D02*
X19975Y-15326D01*
X20209Y-15326D01*
X20837Y-15452D02*
X20621Y-15452D01*
X20729Y-15452D02*
X20729Y-15075D01*
X20693Y-15129D01*
X20657Y-15165D01*
X20621Y-15183D01*
X21160Y-15075D02*
X21088Y-15075D01*
X21052Y-15093D01*
X21034Y-15111D01*
X20998Y-15165D01*
X20980Y-15237D01*
X20980Y-15380D01*
X20998Y-15416D01*
X21016Y-15434D01*
X21052Y-15452D01*
X21124Y-15452D01*
X21160Y-15434D01*
X21178Y-15416D01*
X21196Y-15380D01*
X21196Y-15291D01*
X21178Y-15255D01*
X21160Y-15237D01*
X21124Y-15219D01*
X21052Y-15219D01*
X21016Y-15237D01*
X20998Y-15255D01*
X20980Y-15291D01*
X21842Y-15452D02*
X21627Y-15452D01*
X21734Y-15452D02*
X21734Y-15075D01*
X21699Y-15129D01*
X21663Y-15165D01*
X21627Y-15183D01*
X22058Y-15237D02*
X22022Y-15219D01*
X22004Y-15201D01*
X21986Y-15165D01*
X21986Y-15147D01*
X22004Y-15111D01*
X22022Y-15093D01*
X22058Y-15075D01*
X22129Y-15075D01*
X22165Y-15093D01*
X22183Y-15111D01*
X22201Y-15147D01*
X22201Y-15165D01*
X22183Y-15201D01*
X22165Y-15219D01*
X22129Y-15237D01*
X22058Y-15237D01*
X22022Y-15255D01*
X22004Y-15273D01*
X21986Y-15308D01*
X21986Y-15380D01*
X22004Y-15416D01*
X22022Y-15434D01*
X22058Y-15452D01*
X22129Y-15452D01*
X22165Y-15434D01*
X22183Y-15416D01*
X22201Y-15380D01*
X22201Y-15308D01*
X22183Y-15273D01*
X22165Y-15255D01*
X22129Y-15237D01*
X22632Y-15111D02*
X22650Y-15093D01*
X22686Y-15075D01*
X22776Y-15075D01*
X22812Y-15093D01*
X22830Y-15111D01*
X22848Y-15147D01*
X22848Y-15183D01*
X22830Y-15237D01*
X22614Y-15452D01*
X22848Y-15452D01*
X23081Y-15075D02*
X23117Y-15075D01*
X23153Y-15093D01*
X23171Y-15111D01*
X23189Y-15147D01*
X23207Y-15219D01*
X23207Y-15308D01*
X23189Y-15380D01*
X23171Y-15416D01*
X23153Y-15434D01*
X23117Y-15452D01*
X23081Y-15452D01*
X23045Y-15434D01*
X23027Y-15416D01*
X23009Y-15380D01*
X22991Y-15308D01*
X22991Y-15219D01*
X23009Y-15147D01*
X23027Y-15111D01*
X23045Y-15093D01*
X23081Y-15075D01*
X23637Y-15111D02*
X23655Y-15093D01*
X23691Y-15075D01*
X23781Y-15075D01*
X23817Y-15093D01*
X23835Y-15111D01*
X23853Y-15147D01*
X23853Y-15183D01*
X23835Y-15237D01*
X23619Y-15452D01*
X23853Y-15452D01*
X23996Y-15111D02*
X24014Y-15093D01*
X24050Y-15075D01*
X24140Y-15075D01*
X24176Y-15093D01*
X24194Y-15111D01*
X24212Y-15147D01*
X24212Y-15183D01*
X24194Y-15237D01*
X23979Y-15452D01*
X24212Y-15452D01*
X24643Y-15111D02*
X24661Y-15093D01*
X24697Y-15075D01*
X24786Y-15075D01*
X24822Y-15093D01*
X24840Y-15111D01*
X24858Y-15147D01*
X24858Y-15183D01*
X24840Y-15237D01*
X24625Y-15452D01*
X24858Y-15452D01*
X25181Y-15201D02*
X25181Y-15452D01*
X25092Y-15057D02*
X25002Y-15326D01*
X25235Y-15326D01*
X25648Y-15111D02*
X25666Y-15093D01*
X25702Y-15075D01*
X25792Y-15075D01*
X25828Y-15093D01*
X25846Y-15111D01*
X25864Y-15147D01*
X25864Y-15183D01*
X25846Y-15237D01*
X25630Y-15452D01*
X25864Y-15452D01*
X26187Y-15075D02*
X26115Y-15075D01*
X26079Y-15093D01*
X26061Y-15111D01*
X26025Y-15165D01*
X26007Y-15237D01*
X26007Y-15380D01*
X26025Y-15416D01*
X26043Y-15434D01*
X26079Y-15452D01*
X26151Y-15452D01*
X26187Y-15434D01*
X26205Y-15416D01*
X26223Y-15380D01*
X26223Y-15291D01*
X26205Y-15255D01*
X26187Y-15237D01*
X26151Y-15219D01*
X26079Y-15219D01*
X26043Y-15237D01*
X26025Y-15255D01*
X26007Y-15291D01*
X26653Y-15111D02*
X26671Y-15093D01*
X26707Y-15075D01*
X26797Y-15075D01*
X26833Y-15093D01*
X26851Y-15111D01*
X26869Y-15147D01*
X26869Y-15183D01*
X26851Y-15237D01*
X26635Y-15452D01*
X26869Y-15452D01*
X27084Y-15237D02*
X27048Y-15219D01*
X27030Y-15201D01*
X27012Y-15165D01*
X27012Y-15147D01*
X27030Y-15111D01*
X27048Y-15093D01*
X27084Y-15075D01*
X27156Y-15075D01*
X27192Y-15093D01*
X27210Y-15111D01*
X27228Y-15147D01*
X27228Y-15165D01*
X27210Y-15201D01*
X27192Y-15219D01*
X27156Y-15237D01*
X27084Y-15237D01*
X27048Y-15255D01*
X27030Y-15273D01*
X27012Y-15308D01*
X27012Y-15380D01*
X27030Y-15416D01*
X27048Y-15434D01*
X27084Y-15452D01*
X27156Y-15452D01*
X27192Y-15434D01*
X27210Y-15416D01*
X27228Y-15380D01*
X27228Y-15308D01*
X27210Y-15273D01*
X27192Y-15255D01*
X27156Y-15237D01*
X27641Y-15075D02*
X27874Y-15075D01*
X27749Y-15219D01*
X27802Y-15219D01*
X27838Y-15237D01*
X27856Y-15255D01*
X27874Y-15291D01*
X27874Y-15380D01*
X27856Y-15416D01*
X27838Y-15434D01*
X27802Y-15452D01*
X27695Y-15452D01*
X27659Y-15434D01*
X27641Y-15416D01*
X28108Y-15075D02*
X28143Y-15075D01*
X28179Y-15093D01*
X28197Y-15111D01*
X28215Y-15147D01*
X28233Y-15219D01*
X28233Y-15308D01*
X28215Y-15380D01*
X28197Y-15416D01*
X28179Y-15434D01*
X28143Y-15452D01*
X28108Y-15452D01*
X28072Y-15434D01*
X28054Y-15416D01*
X28036Y-15380D01*
X28018Y-15308D01*
X28018Y-15219D01*
X28036Y-15147D01*
X28054Y-15111D01*
X28072Y-15093D01*
X28108Y-15075D01*
X28646Y-15075D02*
X28880Y-15075D01*
X28754Y-15219D01*
X28808Y-15219D01*
X28844Y-15237D01*
X28862Y-15255D01*
X28880Y-15291D01*
X28880Y-15380D01*
X28862Y-15416D01*
X28844Y-15434D01*
X28808Y-15452D01*
X28700Y-15452D01*
X28664Y-15434D01*
X28646Y-15416D01*
X29023Y-15111D02*
X29041Y-15093D01*
X29077Y-15075D01*
X29167Y-15075D01*
X29203Y-15093D01*
X29221Y-15111D01*
X29239Y-15147D01*
X29239Y-15183D01*
X29221Y-15237D01*
X29005Y-15452D01*
X29239Y-15452D01*
X29651Y-15075D02*
X29885Y-15075D01*
X29759Y-15219D01*
X29813Y-15219D01*
X29849Y-15237D01*
X29867Y-15255D01*
X29885Y-15291D01*
X29885Y-15380D01*
X29867Y-15416D01*
X29849Y-15434D01*
X29813Y-15452D01*
X29705Y-15452D01*
X29669Y-15434D01*
X29651Y-15416D01*
X30208Y-15201D02*
X30208Y-15452D01*
X30118Y-15057D02*
X30028Y-15326D01*
X30262Y-15326D01*
X30657Y-15075D02*
X30890Y-15075D01*
X30765Y-15219D01*
X30818Y-15219D01*
X30854Y-15237D01*
X30872Y-15255D01*
X30890Y-15291D01*
X30890Y-15380D01*
X30872Y-15416D01*
X30854Y-15434D01*
X30818Y-15452D01*
X30711Y-15452D01*
X30675Y-15434D01*
X30657Y-15416D01*
X31213Y-15075D02*
X31142Y-15075D01*
X31106Y-15093D01*
X31088Y-15111D01*
X31052Y-15165D01*
X31034Y-15237D01*
X31034Y-15380D01*
X31052Y-15416D01*
X31070Y-15434D01*
X31106Y-15452D01*
X31177Y-15452D01*
X31213Y-15434D01*
X31231Y-15416D01*
X31249Y-15380D01*
X31249Y-15291D01*
X31231Y-15255D01*
X31213Y-15237D01*
X31177Y-15219D01*
X31106Y-15219D01*
X31070Y-15237D01*
X31052Y-15255D01*
X31034Y-15291D01*
X31662Y-15075D02*
X31896Y-15075D01*
X31770Y-15219D01*
X31824Y-15219D01*
X31860Y-15237D01*
X31878Y-15255D01*
X31896Y-15291D01*
X31896Y-15380D01*
X31878Y-15416D01*
X31860Y-15434D01*
X31824Y-15452D01*
X31716Y-15452D01*
X31680Y-15434D01*
X31662Y-15416D01*
X32111Y-15237D02*
X32075Y-15219D01*
X32057Y-15201D01*
X32039Y-15165D01*
X32039Y-15147D01*
X32057Y-15111D01*
X32075Y-15093D01*
X32111Y-15075D01*
X32183Y-15075D01*
X32219Y-15093D01*
X32237Y-15111D01*
X32255Y-15147D01*
X32255Y-15165D01*
X32237Y-15201D01*
X32219Y-15219D01*
X32183Y-15237D01*
X32111Y-15237D01*
X32075Y-15255D01*
X32057Y-15273D01*
X32039Y-15308D01*
X32039Y-15380D01*
X32057Y-15416D01*
X32075Y-15434D01*
X32111Y-15452D01*
X32183Y-15452D01*
X32219Y-15434D01*
X32237Y-15416D01*
X32255Y-15380D01*
X32255Y-15308D01*
X32237Y-15273D01*
X32219Y-15255D01*
X32183Y-15237D01*
X32865Y-15201D02*
X32865Y-15452D01*
X32775Y-15057D02*
X32685Y-15326D01*
X32919Y-15326D01*
X33134Y-15075D02*
X33170Y-15075D01*
X33206Y-15093D01*
X33224Y-15111D01*
X33242Y-15147D01*
X33260Y-15219D01*
X33260Y-15308D01*
X33242Y-15380D01*
X33224Y-15416D01*
X33206Y-15434D01*
X33170Y-15452D01*
X33134Y-15452D01*
X33098Y-15434D01*
X33080Y-15416D01*
X33062Y-15380D01*
X33044Y-15308D01*
X33044Y-15219D01*
X33062Y-15147D01*
X33080Y-15111D01*
X33098Y-15093D01*
X33134Y-15075D01*
X33870Y-15201D02*
X33870Y-15452D01*
X33781Y-15057D02*
X33691Y-15326D01*
X33924Y-15326D01*
X34050Y-15111D02*
X34068Y-15093D01*
X34104Y-15075D01*
X34193Y-15075D01*
X34229Y-15093D01*
X34247Y-15111D01*
X34265Y-15147D01*
X34265Y-15183D01*
X34247Y-15237D01*
X34032Y-15452D01*
X34265Y-15452D01*
X34876Y-15201D02*
X34876Y-15452D01*
X34786Y-15057D02*
X34696Y-15326D01*
X34929Y-15326D01*
X35235Y-15201D02*
X35235Y-15452D01*
X35145Y-15057D02*
X35055Y-15326D01*
X35289Y-15326D01*
X35881Y-15201D02*
X35881Y-15452D01*
X35791Y-15057D02*
X35701Y-15326D01*
X35935Y-15326D01*
X36240Y-15075D02*
X36168Y-15075D01*
X36132Y-15093D01*
X36114Y-15111D01*
X36078Y-15165D01*
X36060Y-15237D01*
X36060Y-15380D01*
X36078Y-15416D01*
X36096Y-15434D01*
X36132Y-15452D01*
X36204Y-15452D01*
X36240Y-15434D01*
X36258Y-15416D01*
X36276Y-15380D01*
X36276Y-15291D01*
X36258Y-15255D01*
X36240Y-15237D01*
X36204Y-15219D01*
X36132Y-15219D01*
X36096Y-15237D01*
X36078Y-15255D01*
X36060Y-15291D01*
X36886Y-15201D02*
X36886Y-15452D01*
X36797Y-15057D02*
X36707Y-15326D01*
X36940Y-15326D01*
X37138Y-15237D02*
X37102Y-15219D01*
X37084Y-15201D01*
X37066Y-15165D01*
X37066Y-15147D01*
X37084Y-15111D01*
X37102Y-15093D01*
X37138Y-15075D01*
X37209Y-15075D01*
X37245Y-15093D01*
X37263Y-15111D01*
X37281Y-15147D01*
X37281Y-15165D01*
X37263Y-15201D01*
X37245Y-15219D01*
X37209Y-15237D01*
X37138Y-15237D01*
X37102Y-15255D01*
X37084Y-15273D01*
X37066Y-15308D01*
X37066Y-15380D01*
X37084Y-15416D01*
X37102Y-15434D01*
X37138Y-15452D01*
X37209Y-15452D01*
X37245Y-15434D01*
X37263Y-15416D01*
X37281Y-15380D01*
X37281Y-15308D01*
X37263Y-15273D01*
X37245Y-15255D01*
X37209Y-15237D01*
X37910Y-15075D02*
X37730Y-15075D01*
X37712Y-15255D01*
X37730Y-15237D01*
X37766Y-15219D01*
X37856Y-15219D01*
X37892Y-15237D01*
X37910Y-15255D01*
X37928Y-15291D01*
X37928Y-15380D01*
X37910Y-15416D01*
X37892Y-15434D01*
X37856Y-15452D01*
X37766Y-15452D01*
X37730Y-15434D01*
X37712Y-15416D01*
X38161Y-15075D02*
X38197Y-15075D01*
X38233Y-15093D01*
X38251Y-15111D01*
X38269Y-15147D01*
X38287Y-15219D01*
X38287Y-15308D01*
X38269Y-15380D01*
X38251Y-15416D01*
X38233Y-15434D01*
X38197Y-15452D01*
X38161Y-15452D01*
X38125Y-15434D01*
X38107Y-15416D01*
X38089Y-15380D01*
X38071Y-15308D01*
X38071Y-15219D01*
X38089Y-15147D01*
X38107Y-15111D01*
X38125Y-15093D01*
X38161Y-15075D01*
X14162Y-17977D02*
X13946Y-17977D01*
X14054Y-17977D02*
X14054Y-17600D01*
X14018Y-17654D01*
X13982Y-17690D01*
X13946Y-17708D01*
X14862Y-17600D02*
X15095Y-17600D01*
X14970Y-17744D01*
X15023Y-17744D01*
X15059Y-17762D01*
X15077Y-17780D01*
X15095Y-17816D01*
X15095Y-17905D01*
X15077Y-17941D01*
X15059Y-17959D01*
X15023Y-17977D01*
X14916Y-17977D01*
X14880Y-17959D01*
X14862Y-17941D01*
X16011Y-17600D02*
X15831Y-17600D01*
X15813Y-17780D01*
X15831Y-17762D01*
X15867Y-17744D01*
X15957Y-17744D01*
X15993Y-17762D01*
X16011Y-17780D01*
X16029Y-17816D01*
X16029Y-17905D01*
X16011Y-17941D01*
X15993Y-17959D01*
X15957Y-17977D01*
X15867Y-17977D01*
X15831Y-17959D01*
X15813Y-17941D01*
X16729Y-17600D02*
X16980Y-17600D01*
X16819Y-17977D01*
X17716Y-17977D02*
X17788Y-17977D01*
X17824Y-17959D01*
X17842Y-17941D01*
X17878Y-17887D01*
X17896Y-17816D01*
X17896Y-17672D01*
X17878Y-17636D01*
X17860Y-17618D01*
X17824Y-17600D01*
X17752Y-17600D01*
X17716Y-17618D01*
X17698Y-17636D01*
X17680Y-17672D01*
X17680Y-17762D01*
X17698Y-17798D01*
X17716Y-17816D01*
X17752Y-17833D01*
X17824Y-17833D01*
X17860Y-17816D01*
X17878Y-17798D01*
X17896Y-17762D01*
X18829Y-17977D02*
X18614Y-17977D01*
X18722Y-17977D02*
X18722Y-17600D01*
X18686Y-17654D01*
X18650Y-17690D01*
X18614Y-17708D01*
X19188Y-17977D02*
X18973Y-17977D01*
X19081Y-17977D02*
X19081Y-17600D01*
X19045Y-17654D01*
X19009Y-17690D01*
X18973Y-17708D01*
X19835Y-17977D02*
X19619Y-17977D01*
X19727Y-17977D02*
X19727Y-17600D01*
X19691Y-17654D01*
X19655Y-17690D01*
X19619Y-17708D01*
X19960Y-17600D02*
X20194Y-17600D01*
X20068Y-17744D01*
X20122Y-17744D01*
X20158Y-17762D01*
X20176Y-17780D01*
X20194Y-17816D01*
X20194Y-17905D01*
X20176Y-17941D01*
X20158Y-17959D01*
X20122Y-17977D01*
X20014Y-17977D01*
X19978Y-17959D01*
X19960Y-17941D01*
X20840Y-17977D02*
X20625Y-17977D01*
X20732Y-17977D02*
X20732Y-17600D01*
X20696Y-17654D01*
X20661Y-17690D01*
X20625Y-17708D01*
X21181Y-17600D02*
X21002Y-17600D01*
X20984Y-17780D01*
X21002Y-17762D01*
X21038Y-17744D01*
X21127Y-17744D01*
X21163Y-17762D01*
X21181Y-17780D01*
X21199Y-17816D01*
X21199Y-17905D01*
X21181Y-17941D01*
X21163Y-17959D01*
X21127Y-17977D01*
X21038Y-17977D01*
X21002Y-17959D01*
X20984Y-17941D01*
X21845Y-17977D02*
X21630Y-17977D01*
X21738Y-17977D02*
X21738Y-17600D01*
X21702Y-17654D01*
X21666Y-17690D01*
X21630Y-17708D01*
X21971Y-17600D02*
X22222Y-17600D01*
X22061Y-17977D01*
X22851Y-17977D02*
X22635Y-17977D01*
X22743Y-17977D02*
X22743Y-17600D01*
X22707Y-17654D01*
X22671Y-17690D01*
X22635Y-17708D01*
X23030Y-17977D02*
X23102Y-17977D01*
X23138Y-17959D01*
X23156Y-17941D01*
X23192Y-17887D01*
X23210Y-17816D01*
X23210Y-17672D01*
X23192Y-17636D01*
X23174Y-17618D01*
X23138Y-17600D01*
X23066Y-17600D01*
X23030Y-17618D01*
X23012Y-17636D01*
X22994Y-17672D01*
X22994Y-17762D01*
X23012Y-17798D01*
X23030Y-17816D01*
X23066Y-17833D01*
X23138Y-17833D01*
X23174Y-17816D01*
X23192Y-17798D01*
X23210Y-17762D01*
X23641Y-17636D02*
X23659Y-17618D01*
X23694Y-17600D01*
X23784Y-17600D01*
X23820Y-17618D01*
X23838Y-17636D01*
X23856Y-17672D01*
X23856Y-17708D01*
X23838Y-17762D01*
X23623Y-17977D01*
X23856Y-17977D01*
X24215Y-17977D02*
X24000Y-17977D01*
X24107Y-17977D02*
X24107Y-17600D01*
X24071Y-17654D01*
X24036Y-17690D01*
X24000Y-17708D01*
X24646Y-17636D02*
X24664Y-17618D01*
X24700Y-17600D01*
X24790Y-17600D01*
X24825Y-17618D01*
X24843Y-17636D01*
X24861Y-17672D01*
X24861Y-17708D01*
X24843Y-17762D01*
X24628Y-17977D01*
X24861Y-17977D01*
X24987Y-17600D02*
X25220Y-17600D01*
X25095Y-17744D01*
X25149Y-17744D01*
X25185Y-17762D01*
X25202Y-17780D01*
X25220Y-17816D01*
X25220Y-17905D01*
X25202Y-17941D01*
X25185Y-17959D01*
X25149Y-17977D01*
X25041Y-17977D01*
X25005Y-17959D01*
X24987Y-17941D01*
X25651Y-17636D02*
X25669Y-17618D01*
X25705Y-17600D01*
X25795Y-17600D01*
X25831Y-17618D01*
X25849Y-17636D01*
X25867Y-17672D01*
X25867Y-17708D01*
X25849Y-17762D01*
X25633Y-17977D01*
X25867Y-17977D01*
X26208Y-17600D02*
X26028Y-17600D01*
X26010Y-17780D01*
X26028Y-17762D01*
X26064Y-17744D01*
X26154Y-17744D01*
X26190Y-17762D01*
X26208Y-17780D01*
X26226Y-17816D01*
X26226Y-17905D01*
X26208Y-17941D01*
X26190Y-17959D01*
X26154Y-17977D01*
X26064Y-17977D01*
X26028Y-17959D01*
X26010Y-17941D01*
X26657Y-17636D02*
X26675Y-17618D01*
X26710Y-17600D01*
X26800Y-17600D01*
X26836Y-17618D01*
X26854Y-17636D01*
X26872Y-17672D01*
X26872Y-17708D01*
X26854Y-17762D01*
X26639Y-17977D01*
X26872Y-17977D01*
X26998Y-17600D02*
X27249Y-17600D01*
X27087Y-17977D01*
X27662Y-17636D02*
X27680Y-17618D01*
X27716Y-17600D01*
X27806Y-17600D01*
X27841Y-17618D01*
X27859Y-17636D01*
X27877Y-17672D01*
X27877Y-17708D01*
X27859Y-17762D01*
X27644Y-17977D01*
X27877Y-17977D01*
X28057Y-17977D02*
X28129Y-17977D01*
X28165Y-17959D01*
X28183Y-17941D01*
X28218Y-17887D01*
X28236Y-17816D01*
X28236Y-17672D01*
X28218Y-17636D01*
X28201Y-17618D01*
X28165Y-17600D01*
X28093Y-17600D01*
X28057Y-17618D01*
X28039Y-17636D01*
X28021Y-17672D01*
X28021Y-17762D01*
X28039Y-17798D01*
X28057Y-17816D01*
X28093Y-17833D01*
X28165Y-17833D01*
X28201Y-17816D01*
X28218Y-17798D01*
X28236Y-17762D01*
X28649Y-17600D02*
X28883Y-17600D01*
X28757Y-17744D01*
X28811Y-17744D01*
X28847Y-17762D01*
X28865Y-17780D01*
X28883Y-17816D01*
X28883Y-17905D01*
X28865Y-17941D01*
X28847Y-17959D01*
X28811Y-17977D01*
X28703Y-17977D01*
X28667Y-17959D01*
X28649Y-17941D01*
X29242Y-17977D02*
X29026Y-17977D01*
X29134Y-17977D02*
X29134Y-17600D01*
X29098Y-17654D01*
X29062Y-17690D01*
X29026Y-17708D01*
X29655Y-17600D02*
X29888Y-17600D01*
X29762Y-17744D01*
X29816Y-17744D01*
X29852Y-17762D01*
X29870Y-17780D01*
X29888Y-17816D01*
X29888Y-17905D01*
X29870Y-17941D01*
X29852Y-17959D01*
X29816Y-17977D01*
X29709Y-17977D01*
X29673Y-17959D01*
X29655Y-17941D01*
X30014Y-17600D02*
X30247Y-17600D01*
X30121Y-17744D01*
X30175Y-17744D01*
X30211Y-17762D01*
X30229Y-17780D01*
X30247Y-17816D01*
X30247Y-17905D01*
X30229Y-17941D01*
X30211Y-17959D01*
X30175Y-17977D01*
X30068Y-17977D01*
X30032Y-17959D01*
X30014Y-17941D01*
X30660Y-17600D02*
X30893Y-17600D01*
X30768Y-17744D01*
X30822Y-17744D01*
X30857Y-17762D01*
X30875Y-17780D01*
X30893Y-17816D01*
X30893Y-17905D01*
X30875Y-17941D01*
X30857Y-17959D01*
X30822Y-17977D01*
X30714Y-17977D01*
X30678Y-17959D01*
X30660Y-17941D01*
X31234Y-17600D02*
X31055Y-17600D01*
X31037Y-17780D01*
X31055Y-17762D01*
X31091Y-17744D01*
X31181Y-17744D01*
X31217Y-17762D01*
X31234Y-17780D01*
X31252Y-17816D01*
X31252Y-17905D01*
X31234Y-17941D01*
X31217Y-17959D01*
X31181Y-17977D01*
X31091Y-17977D01*
X31055Y-17959D01*
X31037Y-17941D01*
X31665Y-17600D02*
X31899Y-17600D01*
X31773Y-17744D01*
X31827Y-17744D01*
X31863Y-17762D01*
X31881Y-17780D01*
X31899Y-17816D01*
X31899Y-17905D01*
X31881Y-17941D01*
X31863Y-17959D01*
X31827Y-17977D01*
X31719Y-17977D01*
X31683Y-17959D01*
X31665Y-17941D01*
X32024Y-17600D02*
X32276Y-17600D01*
X32114Y-17977D01*
X32671Y-17600D02*
X32904Y-17600D01*
X32778Y-17744D01*
X32832Y-17744D01*
X32868Y-17762D01*
X32886Y-17780D01*
X32904Y-17816D01*
X32904Y-17905D01*
X32886Y-17941D01*
X32868Y-17959D01*
X32832Y-17977D01*
X32725Y-17977D01*
X32689Y-17959D01*
X32671Y-17941D01*
X33084Y-17977D02*
X33155Y-17977D01*
X33191Y-17959D01*
X33209Y-17941D01*
X33245Y-17887D01*
X33263Y-17816D01*
X33263Y-17672D01*
X33245Y-17636D01*
X33227Y-17618D01*
X33191Y-17600D01*
X33119Y-17600D01*
X33084Y-17618D01*
X33066Y-17636D01*
X33048Y-17672D01*
X33048Y-17762D01*
X33066Y-17798D01*
X33084Y-17816D01*
X33119Y-17833D01*
X33191Y-17833D01*
X33227Y-17816D01*
X33245Y-17798D01*
X33263Y-17762D01*
X33873Y-17726D02*
X33873Y-17977D01*
X33784Y-17582D02*
X33694Y-17851D01*
X33927Y-17851D01*
X34268Y-17977D02*
X34053Y-17977D01*
X34161Y-17977D02*
X34161Y-17600D01*
X34125Y-17654D01*
X34089Y-17690D01*
X34053Y-17708D01*
X34879Y-17726D02*
X34879Y-17977D01*
X34789Y-17582D02*
X34699Y-17851D01*
X34933Y-17851D01*
X35040Y-17600D02*
X35274Y-17600D01*
X35148Y-17744D01*
X35202Y-17744D01*
X35238Y-17762D01*
X35256Y-17780D01*
X35274Y-17816D01*
X35274Y-17905D01*
X35256Y-17941D01*
X35238Y-17959D01*
X35202Y-17977D01*
X35094Y-17977D01*
X35058Y-17959D01*
X35040Y-17941D01*
X35884Y-17726D02*
X35884Y-17977D01*
X35794Y-17582D02*
X35705Y-17851D01*
X35938Y-17851D01*
X36261Y-17600D02*
X36082Y-17600D01*
X36064Y-17780D01*
X36082Y-17762D01*
X36118Y-17744D01*
X36207Y-17744D01*
X36243Y-17762D01*
X36261Y-17780D01*
X36279Y-17816D01*
X36279Y-17905D01*
X36261Y-17941D01*
X36243Y-17959D01*
X36207Y-17977D01*
X36118Y-17977D01*
X36082Y-17959D01*
X36064Y-17941D01*
X36889Y-17726D02*
X36889Y-17977D01*
X36800Y-17582D02*
X36710Y-17851D01*
X36943Y-17851D01*
X37051Y-17600D02*
X37302Y-17600D01*
X37141Y-17977D01*
X37895Y-17726D02*
X37895Y-17977D01*
X37805Y-17582D02*
X37715Y-17851D01*
X37949Y-17851D01*
X38110Y-17977D02*
X38182Y-17977D01*
X38218Y-17959D01*
X38236Y-17941D01*
X38272Y-17887D01*
X38290Y-17816D01*
X38290Y-17672D01*
X38272Y-17636D01*
X38254Y-17618D01*
X38218Y-17600D01*
X38146Y-17600D01*
X38110Y-17618D01*
X38092Y-17636D01*
X38074Y-17672D01*
X38074Y-17762D01*
X38092Y-17798D01*
X38110Y-17816D01*
X38146Y-17833D01*
X38218Y-17833D01*
X38254Y-17816D01*
X38272Y-17798D01*
X38290Y-17762D01*
G54D12*
X41809Y-9011D02*
X42190Y-9011D01*
X42000Y-9202D02*
X42000Y-8821D01*
X9809Y-64011D02*
X10190Y-64011D01*
X10000Y-64202D02*
X10000Y-63821D01*
X41809Y-64011D02*
X42190Y-64011D01*
X42000Y-64202D02*
X42000Y-63821D01*
G54D13*
X12837Y-70429D02*
X12640Y-70429D01*
X12640Y-70739D02*
X12640Y-70148D01*
X12922Y-70148D01*
X13147Y-70739D02*
X13147Y-70345D01*
X13147Y-70457D02*
X13175Y-70401D01*
X13203Y-70373D01*
X13259Y-70345D01*
X13316Y-70345D01*
X13597Y-70739D02*
X13541Y-70711D01*
X13513Y-70682D01*
X13484Y-70626D01*
X13484Y-70457D01*
X13513Y-70401D01*
X13541Y-70373D01*
X13597Y-70345D01*
X13681Y-70345D01*
X13738Y-70373D01*
X13766Y-70401D01*
X13794Y-70457D01*
X13794Y-70626D01*
X13766Y-70682D01*
X13738Y-70711D01*
X13681Y-70739D01*
X13597Y-70739D01*
X14047Y-70345D02*
X14047Y-70739D01*
X14047Y-70401D02*
X14075Y-70373D01*
X14132Y-70345D01*
X14216Y-70345D01*
X14272Y-70373D01*
X14301Y-70429D01*
X14301Y-70739D01*
X14498Y-70345D02*
X14723Y-70345D01*
X14582Y-70148D02*
X14582Y-70654D01*
X14610Y-70711D01*
X14666Y-70739D01*
X14723Y-70739D01*
X15342Y-70711D02*
X15426Y-70739D01*
X15567Y-70739D01*
X15623Y-70711D01*
X15651Y-70682D01*
X15680Y-70626D01*
X15680Y-70570D01*
X15651Y-70514D01*
X15623Y-70485D01*
X15567Y-70457D01*
X15454Y-70429D01*
X15398Y-70401D01*
X15370Y-70373D01*
X15342Y-70317D01*
X15342Y-70260D01*
X15370Y-70204D01*
X15398Y-70176D01*
X15454Y-70148D01*
X15595Y-70148D01*
X15680Y-70176D01*
X15933Y-70739D02*
X15933Y-70345D01*
X15933Y-70148D02*
X15905Y-70176D01*
X15933Y-70204D01*
X15961Y-70176D01*
X15933Y-70148D01*
X15933Y-70204D01*
X16299Y-70739D02*
X16242Y-70711D01*
X16214Y-70654D01*
X16214Y-70148D01*
X16524Y-70739D02*
X16524Y-70148D01*
X16580Y-70514D02*
X16749Y-70739D01*
X16749Y-70345D02*
X16524Y-70570D01*
X17424Y-70711D02*
X17509Y-70739D01*
X17650Y-70739D01*
X17706Y-70711D01*
X17734Y-70682D01*
X17762Y-70626D01*
X17762Y-70570D01*
X17734Y-70514D01*
X17706Y-70485D01*
X17650Y-70457D01*
X17537Y-70429D01*
X17481Y-70401D01*
X17453Y-70373D01*
X17424Y-70317D01*
X17424Y-70260D01*
X17453Y-70204D01*
X17481Y-70176D01*
X17537Y-70148D01*
X17678Y-70148D01*
X17762Y-70176D01*
X18269Y-70711D02*
X18212Y-70739D01*
X18100Y-70739D01*
X18044Y-70711D01*
X18015Y-70682D01*
X17987Y-70626D01*
X17987Y-70457D01*
X18015Y-70401D01*
X18044Y-70373D01*
X18100Y-70345D01*
X18212Y-70345D01*
X18269Y-70373D01*
X18522Y-70739D02*
X18522Y-70345D01*
X18522Y-70457D02*
X18550Y-70401D01*
X18578Y-70373D01*
X18635Y-70345D01*
X18691Y-70345D01*
X19113Y-70711D02*
X19057Y-70739D01*
X18944Y-70739D01*
X18888Y-70711D01*
X18860Y-70654D01*
X18860Y-70429D01*
X18888Y-70373D01*
X18944Y-70345D01*
X19057Y-70345D01*
X19113Y-70373D01*
X19141Y-70429D01*
X19141Y-70485D01*
X18860Y-70542D01*
X19620Y-70711D02*
X19563Y-70739D01*
X19451Y-70739D01*
X19394Y-70711D01*
X19366Y-70654D01*
X19366Y-70429D01*
X19394Y-70373D01*
X19451Y-70345D01*
X19563Y-70345D01*
X19620Y-70373D01*
X19648Y-70429D01*
X19648Y-70485D01*
X19366Y-70542D01*
X19901Y-70345D02*
X19901Y-70739D01*
X19901Y-70401D02*
X19929Y-70373D01*
X19985Y-70345D01*
X20070Y-70345D01*
X20126Y-70373D01*
X20154Y-70429D01*
X20154Y-70739D01*
X20886Y-70514D02*
X21336Y-70514D01*
X22349Y-70739D02*
X22068Y-70739D01*
X22068Y-70148D01*
X22800Y-70739D02*
X22800Y-70429D01*
X22772Y-70373D01*
X22715Y-70345D01*
X22603Y-70345D01*
X22546Y-70373D01*
X22800Y-70711D02*
X22743Y-70739D01*
X22603Y-70739D01*
X22546Y-70711D01*
X22518Y-70654D01*
X22518Y-70598D01*
X22546Y-70542D01*
X22603Y-70514D01*
X22743Y-70514D01*
X22800Y-70485D01*
X23025Y-70345D02*
X23166Y-70739D01*
X23306Y-70345D02*
X23166Y-70739D01*
X23109Y-70879D01*
X23081Y-70908D01*
X23025Y-70936D01*
X23757Y-70711D02*
X23700Y-70739D01*
X23588Y-70739D01*
X23531Y-70711D01*
X23503Y-70654D01*
X23503Y-70429D01*
X23531Y-70373D01*
X23588Y-70345D01*
X23700Y-70345D01*
X23757Y-70373D01*
X23785Y-70429D01*
X23785Y-70485D01*
X23503Y-70542D01*
X24038Y-70739D02*
X24038Y-70345D01*
X24038Y-70457D02*
X24066Y-70401D01*
X24094Y-70373D01*
X24151Y-70345D01*
X24207Y-70345D01*
X24798Y-70148D02*
X25192Y-70148D01*
X24939Y-70739D01*
G54D14*
X34356Y-62614D02*
X34325Y-62599D01*
X34280Y-62599D01*
X34234Y-62614D01*
X34203Y-62645D01*
X34188Y-62675D01*
X34173Y-62736D01*
X34173Y-62782D01*
X34188Y-62843D01*
X34203Y-62873D01*
X34234Y-62904D01*
X34280Y-62919D01*
X34310Y-62919D01*
X34356Y-62904D01*
X34371Y-62889D01*
X34371Y-62782D01*
X34310Y-62782D01*
X34508Y-62919D02*
X34508Y-62599D01*
X34691Y-62919D01*
X34691Y-62599D01*
X34843Y-62919D02*
X34843Y-62599D01*
X34920Y-62599D01*
X34965Y-62614D01*
X34996Y-62645D01*
X35011Y-62675D01*
X35026Y-62736D01*
X35026Y-62782D01*
X35011Y-62843D01*
X34996Y-62873D01*
X34965Y-62904D01*
X34920Y-62919D01*
X34843Y-62919D01*
G54D11*
X23750Y-25154D02*
X23726Y-25178D01*
X23654Y-25202D01*
X23607Y-25202D01*
X23535Y-25178D01*
X23488Y-25130D01*
X23464Y-25083D01*
X23440Y-24988D01*
X23440Y-24916D01*
X23464Y-24821D01*
X23488Y-24773D01*
X23535Y-24726D01*
X23607Y-24702D01*
X23654Y-24702D01*
X23726Y-24726D01*
X23750Y-24750D01*
X24178Y-25202D02*
X24178Y-24940D01*
X24154Y-24892D01*
X24107Y-24869D01*
X24011Y-24869D01*
X23964Y-24892D01*
X24178Y-25178D02*
X24130Y-25202D01*
X24011Y-25202D01*
X23964Y-25178D01*
X23940Y-25130D01*
X23940Y-25083D01*
X23964Y-25035D01*
X24011Y-25011D01*
X24130Y-25011D01*
X24178Y-24988D01*
X24416Y-25202D02*
X24416Y-24869D01*
X24416Y-24916D02*
X24440Y-24892D01*
X24488Y-24869D01*
X24559Y-24869D01*
X24607Y-24892D01*
X24630Y-24940D01*
X24630Y-25202D01*
X24630Y-24940D02*
X24654Y-24892D01*
X24702Y-24869D01*
X24773Y-24869D01*
X24821Y-24892D01*
X24845Y-24940D01*
X24845Y-25202D01*
X25273Y-25178D02*
X25226Y-25202D01*
X25130Y-25202D01*
X25083Y-25178D01*
X25059Y-25130D01*
X25059Y-24940D01*
X25083Y-24892D01*
X25130Y-24869D01*
X25226Y-24869D01*
X25273Y-24892D01*
X25297Y-24940D01*
X25297Y-24988D01*
X25059Y-25035D01*
X25511Y-25202D02*
X25511Y-24869D01*
X25511Y-24964D02*
X25535Y-24916D01*
X25559Y-24892D01*
X25607Y-24869D01*
X25654Y-24869D01*
X26035Y-25202D02*
X26035Y-24940D01*
X26011Y-24892D01*
X25964Y-24869D01*
X25869Y-24869D01*
X25821Y-24892D01*
X26035Y-25178D02*
X25988Y-25202D01*
X25869Y-25202D01*
X25821Y-25178D01*
X25797Y-25130D01*
X25797Y-25083D01*
X25821Y-25035D01*
X25869Y-25011D01*
X25988Y-25011D01*
X26035Y-24988D01*
X26630Y-25059D02*
X26869Y-25059D01*
X26583Y-25202D02*
X26750Y-24702D01*
X26916Y-25202D01*
X27035Y-25202D02*
X27297Y-24869D01*
X27035Y-24869D02*
X27297Y-25202D01*
X27678Y-25178D02*
X27630Y-25202D01*
X27535Y-25202D01*
X27488Y-25178D01*
X27464Y-25130D01*
X27464Y-24940D01*
X27488Y-24892D01*
X27535Y-24869D01*
X27630Y-24869D01*
X27678Y-24892D01*
X27702Y-24940D01*
X27702Y-24988D01*
X27464Y-25035D01*
X28511Y-24702D02*
X28416Y-24702D01*
X28369Y-24726D01*
X28345Y-24750D01*
X28297Y-24821D01*
X28273Y-24916D01*
X28273Y-25107D01*
X28297Y-25154D01*
X28321Y-25178D01*
X28369Y-25202D01*
X28464Y-25202D01*
X28511Y-25178D01*
X28535Y-25154D01*
X28559Y-25107D01*
X28559Y-24988D01*
X28535Y-24940D01*
X28511Y-24916D01*
X28464Y-24892D01*
X28369Y-24892D01*
X28321Y-24916D01*
X28297Y-24940D01*
X28273Y-24988D01*
X24261Y-25482D02*
X24428Y-25982D01*
X24595Y-25482D01*
X24952Y-25958D02*
X24904Y-25982D01*
X24809Y-25982D01*
X24761Y-25958D01*
X24738Y-25910D01*
X24738Y-25720D01*
X24761Y-25672D01*
X24809Y-25649D01*
X24904Y-25649D01*
X24952Y-25672D01*
X24976Y-25720D01*
X24976Y-25768D01*
X24738Y-25815D01*
X25190Y-25982D02*
X25190Y-25649D01*
X25190Y-25744D02*
X25214Y-25696D01*
X25238Y-25672D01*
X25285Y-25649D01*
X25333Y-25649D01*
X25476Y-25958D02*
X25523Y-25982D01*
X25619Y-25982D01*
X25666Y-25958D01*
X25690Y-25910D01*
X25690Y-25887D01*
X25666Y-25839D01*
X25619Y-25815D01*
X25547Y-25815D01*
X25499Y-25791D01*
X25476Y-25744D01*
X25476Y-25720D01*
X25499Y-25672D01*
X25547Y-25649D01*
X25619Y-25649D01*
X25666Y-25672D01*
X25904Y-25982D02*
X25904Y-25649D01*
X25904Y-25482D02*
X25880Y-25506D01*
X25904Y-25530D01*
X25928Y-25506D01*
X25904Y-25482D01*
X25904Y-25530D01*
X26214Y-25982D02*
X26166Y-25958D01*
X26142Y-25934D01*
X26119Y-25887D01*
X26119Y-25744D01*
X26142Y-25696D01*
X26166Y-25672D01*
X26214Y-25649D01*
X26285Y-25649D01*
X26333Y-25672D01*
X26357Y-25696D01*
X26380Y-25744D01*
X26380Y-25887D01*
X26357Y-25934D01*
X26333Y-25958D01*
X26285Y-25982D01*
X26214Y-25982D01*
X26595Y-25649D02*
X26595Y-25982D01*
X26595Y-25696D02*
X26619Y-25672D01*
X26666Y-25649D01*
X26738Y-25649D01*
X26785Y-25672D01*
X26809Y-25720D01*
X26809Y-25982D01*
X27380Y-25482D02*
X27690Y-25482D01*
X27523Y-25672D01*
X27595Y-25672D01*
X27642Y-25696D01*
X27666Y-25720D01*
X27690Y-25768D01*
X27690Y-25887D01*
X27666Y-25934D01*
X27642Y-25958D01*
X27595Y-25982D01*
X27452Y-25982D01*
X27404Y-25958D01*
X27380Y-25934D01*
X23702Y-26500D02*
X23535Y-26500D01*
X23535Y-26762D02*
X23535Y-26262D01*
X23773Y-26262D01*
X24154Y-26738D02*
X24107Y-26762D01*
X24011Y-26762D01*
X23964Y-26738D01*
X23940Y-26690D01*
X23940Y-26500D01*
X23964Y-26452D01*
X24011Y-26429D01*
X24107Y-26429D01*
X24154Y-26452D01*
X24178Y-26500D01*
X24178Y-26548D01*
X23940Y-26595D01*
X24392Y-26762D02*
X24392Y-26262D01*
X24392Y-26452D02*
X24440Y-26429D01*
X24535Y-26429D01*
X24583Y-26452D01*
X24607Y-26476D01*
X24630Y-26524D01*
X24630Y-26667D01*
X24607Y-26714D01*
X24583Y-26738D01*
X24535Y-26762D01*
X24440Y-26762D01*
X24392Y-26738D01*
X25202Y-26310D02*
X25226Y-26286D01*
X25273Y-26262D01*
X25392Y-26262D01*
X25440Y-26286D01*
X25464Y-26310D01*
X25488Y-26357D01*
X25488Y-26405D01*
X25464Y-26476D01*
X25178Y-26762D01*
X25488Y-26762D01*
X25964Y-26762D02*
X25678Y-26762D01*
X25821Y-26762D02*
X25821Y-26262D01*
X25773Y-26333D01*
X25726Y-26381D01*
X25678Y-26405D01*
X26202Y-26738D02*
X26202Y-26762D01*
X26178Y-26810D01*
X26154Y-26833D01*
X26773Y-26310D02*
X26797Y-26286D01*
X26845Y-26262D01*
X26964Y-26262D01*
X27011Y-26286D01*
X27035Y-26310D01*
X27059Y-26357D01*
X27059Y-26405D01*
X27035Y-26476D01*
X26750Y-26762D01*
X27059Y-26762D01*
X27369Y-26262D02*
X27416Y-26262D01*
X27464Y-26286D01*
X27488Y-26310D01*
X27511Y-26357D01*
X27535Y-26452D01*
X27535Y-26571D01*
X27511Y-26667D01*
X27488Y-26714D01*
X27464Y-26738D01*
X27416Y-26762D01*
X27369Y-26762D01*
X27321Y-26738D01*
X27297Y-26714D01*
X27273Y-26667D01*
X27250Y-26571D01*
X27250Y-26452D01*
X27273Y-26357D01*
X27297Y-26310D01*
X27321Y-26286D01*
X27369Y-26262D01*
X28011Y-26762D02*
X27726Y-26762D01*
X27869Y-26762D02*
X27869Y-26262D01*
X27821Y-26333D01*
X27773Y-26381D01*
X27726Y-26405D01*
X28464Y-26262D02*
X28226Y-26262D01*
X28202Y-26500D01*
X28226Y-26476D01*
X28273Y-26452D01*
X28392Y-26452D01*
X28440Y-26476D01*
X28464Y-26500D01*
X28488Y-26548D01*
X28488Y-26667D01*
X28464Y-26714D01*
X28440Y-26738D01*
X28392Y-26762D01*
X28273Y-26762D01*
X28226Y-26738D01*
X28202Y-26714D01*
G54D15*
X34870Y-19520D02*
X34870Y-20350D01*
X35770Y-19520D02*
X35770Y-20350D01*
X34870Y-19520D02*
X35770Y-19520D01*
X35770Y-19580D02*
X34870Y-19580D01*
X34870Y-19640D02*
X35770Y-19640D01*
X34870Y-21700D02*
X35770Y-21700D01*
X35770Y-21700D02*
X35770Y-21050D01*
X34870Y-19700D02*
X35770Y-19700D01*
X34870Y-21050D02*
X34870Y-21700D01*
X31425Y-35595D02*
G75*
G03X31425Y-35595I-50J0D01*
G74*
G01*
X31405Y-35095D02*
X31405Y-35495D01*
X31405Y-35495D02*
X30745Y-35495D01*
X30745Y-35495D02*
X30745Y-35095D01*
X30745Y-34695D02*
X30745Y-34295D01*
X30745Y-34295D02*
X31405Y-34295D01*
X31405Y-34295D02*
X31405Y-34695D01*
X33415Y-47700D02*
G75*
G03X33415Y-47700I-50J0D01*
G74*
G01*
X33865Y-47730D02*
X33465Y-47730D01*
X33465Y-47730D02*
X33465Y-47070D01*
X33465Y-47070D02*
X33865Y-47070D01*
X34255Y-47070D02*
X34655Y-47070D01*
X34665Y-47070D02*
X34665Y-47730D01*
X34665Y-47730D02*
X34265Y-47730D01*
X34920Y-44835D02*
G75*
G03X34920Y-44835I-50J0D01*
G74*
G01*
X35360Y-44865D02*
X34960Y-44865D01*
X34960Y-44865D02*
X34960Y-44205D01*
X34960Y-44205D02*
X35360Y-44205D01*
X35760Y-44205D02*
X36160Y-44205D01*
X36160Y-44205D02*
X36160Y-44865D01*
X36160Y-44865D02*
X35760Y-44865D01*
X35400Y-55750D02*
X35400Y-62450D01*
X41400Y-62450D02*
X41400Y-55750D01*
X41400Y-62450D02*
X35400Y-62450D01*
X35400Y-55750D02*
X41400Y-55750D01*
X36175Y-45760D02*
X34315Y-45760D01*
X34315Y-45760D02*
X34315Y-44920D01*
X34315Y-44920D02*
X36175Y-44920D01*
X36175Y-44920D02*
X36175Y-45760D01*
X31360Y-60060D02*
X32340Y-60060D01*
X32340Y-60060D02*
X32340Y-60640D01*
X32340Y-60640D02*
X31360Y-60640D01*
X31360Y-60640D02*
X31360Y-60060D01*
X31390Y-60640D02*
X30410Y-60640D01*
X30410Y-60640D02*
X30410Y-60060D01*
X30410Y-60060D02*
X31390Y-60060D01*
X31390Y-60060D02*
X31390Y-60640D01*
X31800Y-59424D02*
X32780Y-59424D01*
X32780Y-59424D02*
X32780Y-60004D01*
X32780Y-60004D02*
X31800Y-60004D01*
X31800Y-60004D02*
X31800Y-59424D01*
X35310Y-48629D02*
X34550Y-48629D01*
X34550Y-48629D02*
X33450Y-48629D01*
X33450Y-48629D02*
X33450Y-47789D01*
X33450Y-47789D02*
X35310Y-47789D01*
X35310Y-47789D02*
X35310Y-48629D01*
X32920Y-47419D02*
X31840Y-47419D01*
X31840Y-47419D02*
X31840Y-46899D01*
X31840Y-46899D02*
X32920Y-46899D01*
X32920Y-46899D02*
X32920Y-47419D01*
X32760Y-43604D02*
X33840Y-43604D01*
X33840Y-43604D02*
X33840Y-44124D01*
X33840Y-44124D02*
X32760Y-44124D01*
X32760Y-44124D02*
X32760Y-43604D01*
X33015Y-41000D02*
X34875Y-41000D01*
X34875Y-41000D02*
X34875Y-41840D01*
X34875Y-41840D02*
X33015Y-41840D01*
X33015Y-41840D02*
X33015Y-41000D01*
X34850Y-43375D02*
X35930Y-43375D01*
X35930Y-43375D02*
X35930Y-43895D01*
X35930Y-43895D02*
X34850Y-43895D01*
X34850Y-43895D02*
X34850Y-43375D01*
X35930Y-42034D02*
X35930Y-42554D01*
X34850Y-42034D02*
X35930Y-42034D01*
X35920Y-42554D02*
X34850Y-42554D01*
X34850Y-42554D02*
X34850Y-42034D01*
X33840Y-42560D02*
X32760Y-42560D01*
X32760Y-42560D02*
X32760Y-42040D01*
X32760Y-42040D02*
X33840Y-42040D01*
X33840Y-42040D02*
X33840Y-42560D01*
X35975Y-40940D02*
X35215Y-40940D01*
X35215Y-40940D02*
X34115Y-40940D01*
X34115Y-40940D02*
X34115Y-40100D01*
X34115Y-40100D02*
X35975Y-40100D01*
X35975Y-40100D02*
X35975Y-40940D01*
X32990Y-40280D02*
X34070Y-40280D01*
X34070Y-40280D02*
X34070Y-40800D01*
X34070Y-40800D02*
X32990Y-40800D01*
X32990Y-40800D02*
X32990Y-40280D01*
X32990Y-39720D02*
X34070Y-39720D01*
X34070Y-39720D02*
X34070Y-40240D01*
X34070Y-40240D02*
X32990Y-40240D01*
X32990Y-40240D02*
X32990Y-39720D01*
X29125Y-35805D02*
X28045Y-35805D01*
X28045Y-35805D02*
X28045Y-35285D01*
X28045Y-35285D02*
X29125Y-35285D01*
X29125Y-35285D02*
X29125Y-35805D01*
X24610Y-46910D02*
X24610Y-47990D01*
X24610Y-47990D02*
X24090Y-47990D01*
X24090Y-47990D02*
X24090Y-46910D01*
X24090Y-46910D02*
X24610Y-46910D01*
X25590Y-47980D02*
X25590Y-46910D01*
X25590Y-46910D02*
X26110Y-46910D01*
X26110Y-46910D02*
X26110Y-47990D01*
X26110Y-47990D02*
X25590Y-47990D01*
X28030Y-49630D02*
X29110Y-49630D01*
X29110Y-49630D02*
X29110Y-50150D01*
X29110Y-50150D02*
X28030Y-50150D01*
X28030Y-50150D02*
X28030Y-49630D01*
X30470Y-50150D02*
X29390Y-50150D01*
X29390Y-50150D02*
X29390Y-49630D01*
X29390Y-49630D02*
X30470Y-49630D01*
X30470Y-49630D02*
X30470Y-50150D01*
X29030Y-49480D02*
X29670Y-49480D01*
X29030Y-48220D02*
X29670Y-48220D01*
X28365Y-48968D02*
X28365Y-48731D01*
X30334Y-48731D02*
X30334Y-48968D01*
G54D16*
X27937Y-49571D02*
G75*
G03X27937Y-49571I-39J0D01*
G74*
G01*
G54D15*
X32970Y-50680D02*
X34830Y-50680D01*
X34830Y-50680D02*
X34830Y-51520D01*
X34830Y-51520D02*
X32970Y-51520D01*
X32970Y-51520D02*
X32970Y-50680D01*
X35770Y-54199D02*
X36850Y-54199D01*
X36850Y-54199D02*
X36850Y-54719D01*
X36850Y-54719D02*
X35770Y-54719D01*
X35770Y-54719D02*
X35770Y-54199D01*
X38630Y-55239D02*
X37560Y-55239D01*
X37560Y-55239D02*
X37560Y-54719D01*
X37560Y-54719D02*
X38640Y-54719D01*
X38640Y-54719D02*
X38640Y-55239D01*
X38690Y-54720D02*
X40550Y-54720D01*
X40550Y-54720D02*
X40550Y-55560D01*
X40550Y-55560D02*
X38690Y-55560D01*
X38690Y-55560D02*
X38690Y-54720D01*
X38070Y-47270D02*
X39930Y-47270D01*
X39930Y-47270D02*
X39930Y-48110D01*
X39930Y-48110D02*
X38070Y-48110D01*
X38070Y-48110D02*
X38070Y-47270D01*
X38070Y-39880D02*
X39930Y-39880D01*
X39930Y-39880D02*
X39930Y-40720D01*
X39930Y-40720D02*
X38070Y-40720D01*
X38070Y-40720D02*
X38070Y-39880D01*
X38070Y-32470D02*
X39930Y-32470D01*
X39930Y-32470D02*
X39930Y-33310D01*
X39930Y-33310D02*
X38070Y-33310D01*
X38070Y-33310D02*
X38070Y-32470D01*
X35710Y-21840D02*
X35710Y-23700D01*
X35710Y-23700D02*
X34870Y-23700D01*
X34870Y-23700D02*
X34870Y-21840D01*
X34870Y-21840D02*
X35710Y-21840D01*
X38065Y-25080D02*
X39925Y-25080D01*
X39925Y-25080D02*
X39925Y-25920D01*
X39925Y-25920D02*
X38065Y-25920D01*
X38065Y-25920D02*
X38065Y-25080D01*
X39144Y-17680D02*
X41004Y-17680D01*
X41004Y-17680D02*
X41004Y-18520D01*
X41004Y-18520D02*
X39144Y-18520D01*
X39144Y-18520D02*
X39144Y-17680D01*
X39120Y-16630D02*
X39880Y-16630D01*
X39880Y-16630D02*
X40980Y-16630D01*
X40980Y-16630D02*
X40980Y-17470D01*
X40980Y-17470D02*
X39120Y-17470D01*
X39120Y-17470D02*
X39120Y-16630D01*
X32040Y-28460D02*
X30960Y-28460D01*
X30960Y-28460D02*
X30960Y-27940D01*
X30960Y-27940D02*
X32040Y-27940D01*
X32040Y-27940D02*
X32040Y-28460D01*
X30155Y-35500D02*
X30155Y-34430D01*
X30155Y-34430D02*
X30675Y-34430D01*
X30675Y-34430D02*
X30675Y-35510D01*
X30675Y-35510D02*
X30155Y-35510D01*
X30150Y-35580D02*
X31230Y-35580D01*
X31230Y-35580D02*
X31230Y-36100D01*
X31230Y-36100D02*
X30150Y-36100D01*
X30150Y-36100D02*
X30150Y-35580D01*
X24245Y-36975D02*
X24245Y-35905D01*
X24245Y-35905D02*
X24765Y-35905D01*
X24765Y-35905D02*
X24765Y-36985D01*
X24765Y-36985D02*
X24245Y-36985D01*
X25455Y-35915D02*
X25455Y-36985D01*
X25455Y-36985D02*
X24945Y-36985D01*
X24945Y-36985D02*
X24945Y-35905D01*
X24945Y-35905D02*
X25455Y-35905D01*
X25420Y-35070D02*
X24340Y-35070D01*
X24340Y-35070D02*
X24340Y-34550D01*
X24340Y-34550D02*
X25420Y-34550D01*
X25420Y-34550D02*
X25420Y-35070D01*
X25190Y-33310D02*
X25190Y-34490D01*
X25190Y-34490D02*
X24850Y-34490D01*
X24850Y-34490D02*
X24850Y-33310D01*
X24850Y-33310D02*
X25190Y-33310D01*
X22520Y-40975D02*
X22520Y-41495D01*
X21450Y-40975D02*
X22520Y-40975D01*
X22510Y-41495D02*
X21440Y-41495D01*
X21440Y-41495D02*
X21440Y-40975D01*
X21440Y-41554D02*
X22520Y-41554D01*
X22520Y-41554D02*
X22520Y-42074D01*
X22520Y-42074D02*
X21440Y-42074D01*
X21440Y-42074D02*
X21440Y-41554D01*
X27810Y-53579D02*
X27810Y-55439D01*
X27810Y-55439D02*
X26970Y-55439D01*
X26970Y-55439D02*
X26970Y-53579D01*
X26970Y-53579D02*
X27810Y-53579D01*
X23385Y-55455D02*
X24225Y-55455D01*
X24225Y-53595D02*
X24225Y-55455D01*
X23385Y-55445D02*
X23385Y-53595D01*
X23385Y-53595D02*
X24225Y-53595D01*
X10000Y-19820D02*
X10940Y-19820D01*
X15710Y-19820D02*
X12450Y-19820D01*
X15480Y-22180D02*
X15710Y-22180D01*
X11700Y-22180D02*
X13740Y-22180D01*
X10000Y-22180D02*
X10200Y-22180D01*
G54D10*
X10000Y-22033D02*
X9015Y-22033D01*
X9015Y-22033D02*
X9015Y-19966D01*
X9015Y-19966D02*
X10000Y-19966D01*
X15708Y-19818D02*
X15708Y-22181D01*
X10000Y-22181D02*
X10000Y-19818D01*
G54D15*
X12450Y-25320D02*
X15710Y-25320D01*
X10000Y-25320D02*
X10950Y-25320D01*
X10200Y-27680D02*
X10000Y-27680D01*
X10000Y-27680D02*
X10010Y-27680D01*
X13730Y-27680D02*
X11690Y-27680D01*
X15710Y-27680D02*
X15480Y-27680D01*
G54D10*
X10000Y-27533D02*
X9015Y-27533D01*
X9015Y-27533D02*
X9015Y-25466D01*
X9015Y-25466D02*
X10000Y-25466D01*
X15708Y-25318D02*
X15708Y-27681D01*
X10000Y-27681D02*
X10000Y-25318D01*
G54D15*
X12440Y-30820D02*
X15710Y-30820D01*
X10000Y-30820D02*
X10950Y-30820D01*
X10000Y-33180D02*
X10200Y-33180D01*
X13740Y-33180D02*
X11690Y-33180D01*
X15480Y-33180D02*
X15710Y-33180D01*
G54D10*
X10000Y-33033D02*
X9015Y-33033D01*
X9015Y-33033D02*
X9015Y-30966D01*
X9015Y-30966D02*
X10000Y-30966D01*
X15708Y-30818D02*
X15708Y-33181D01*
X10000Y-33181D02*
X10000Y-30818D01*
G54D15*
X10000Y-36320D02*
X10950Y-36320D01*
X12450Y-36320D02*
X15710Y-36320D01*
X15480Y-38680D02*
X15710Y-38680D01*
X11700Y-38680D02*
X13750Y-38680D01*
X10000Y-38680D02*
X10200Y-38680D01*
G54D10*
X10000Y-38533D02*
X9015Y-38533D01*
X9015Y-38533D02*
X9015Y-36466D01*
X9015Y-36466D02*
X10000Y-36466D01*
X15708Y-36318D02*
X15708Y-38681D01*
X10000Y-38681D02*
X10000Y-36318D01*
G54D15*
X10000Y-41820D02*
X10950Y-41820D01*
X12450Y-41820D02*
X15710Y-41820D01*
X15480Y-44180D02*
X15710Y-44180D01*
X11690Y-44180D02*
X13740Y-44180D01*
X10000Y-44180D02*
X10200Y-44180D01*
G54D10*
X10000Y-44033D02*
X9015Y-44033D01*
X9015Y-44033D02*
X9015Y-41966D01*
X9015Y-41966D02*
X10000Y-41966D01*
X15708Y-41818D02*
X15708Y-44181D01*
X10000Y-44181D02*
X10000Y-41818D01*
G54D15*
X10940Y-47320D02*
X10000Y-47320D01*
X15710Y-47320D02*
X12430Y-47320D01*
X15480Y-49680D02*
X15710Y-49680D01*
X11700Y-49680D02*
X13740Y-49680D01*
X10000Y-49680D02*
X10200Y-49680D01*
G54D10*
X10000Y-49533D02*
X9015Y-49533D01*
X9015Y-49533D02*
X9015Y-47466D01*
X9015Y-47466D02*
X10000Y-47466D01*
X15708Y-47318D02*
X15708Y-49681D01*
X10000Y-49681D02*
X10000Y-47318D01*
G54D15*
X10000Y-52820D02*
X10950Y-52820D01*
X12450Y-52820D02*
X15710Y-52820D01*
X15710Y-55180D02*
X15470Y-55180D01*
X11690Y-55180D02*
X13740Y-55180D01*
X10000Y-55180D02*
X10210Y-55180D01*
G54D10*
X10000Y-55033D02*
X9015Y-55033D01*
X9015Y-55033D02*
X9015Y-52966D01*
X9015Y-52966D02*
X10000Y-52966D01*
X15708Y-52818D02*
X15708Y-55181D01*
X10000Y-55181D02*
X10000Y-52818D01*
G54D15*
X10000Y-58320D02*
X10940Y-58320D01*
X12460Y-58320D02*
X15710Y-58320D01*
X15480Y-60680D02*
X15710Y-60680D01*
X11700Y-60680D02*
X13740Y-60680D01*
X10000Y-60680D02*
X10190Y-60680D01*
G54D10*
X10000Y-60533D02*
X9015Y-60533D01*
X9015Y-60533D02*
X9015Y-58466D01*
X9015Y-58466D02*
X10000Y-58466D01*
X15708Y-58318D02*
X15708Y-60681D01*
X10000Y-60681D02*
X10000Y-58318D01*
G54D15*
X30490Y-54220D02*
X30190Y-54220D01*
X29570Y-54640D02*
X29570Y-54820D01*
X28830Y-54640D02*
X28830Y-54820D01*
X28790Y-54640D02*
X28830Y-54640D01*
X29610Y-54640D02*
X29570Y-54640D01*
X28786Y-54641D02*
G75*
G03X28790Y-56900I413J-1128D01*
G74*
G01*
X29613Y-56898D02*
G75*
G03X29609Y-54639I-413J1128D01*
G74*
G01*
X28500Y-54820D02*
X28830Y-54820D01*
X28550Y-54770D02*
X28830Y-54770D01*
X28640Y-54720D02*
X28830Y-54720D01*
X28740Y-54670D02*
X28830Y-54670D01*
X29570Y-54820D02*
X29910Y-54820D01*
X29570Y-54770D02*
X29850Y-54770D01*
X29570Y-54720D02*
X29760Y-54720D01*
X29670Y-54670D02*
X29570Y-54670D01*
X28200Y-57070D02*
X28780Y-57070D01*
X30500Y-54470D02*
X29620Y-54470D01*
X28780Y-54470D02*
X27900Y-54470D01*
X27900Y-54470D02*
X27900Y-56770D01*
X27900Y-56770D02*
X28200Y-57070D01*
X29620Y-57070D02*
X30200Y-57070D01*
X30200Y-57070D02*
X30500Y-56770D01*
X30500Y-56770D02*
X30500Y-54470D01*
X30350Y-57500D02*
X30350Y-57200D01*
X30500Y-57350D02*
X30200Y-57350D01*
X28780Y-53220D02*
X28830Y-53220D01*
X29570Y-53210D02*
X29610Y-53210D01*
X29616Y-53211D02*
G75*
G03X29620Y-50970I-416J1121D01*
G74*
G01*
X28775Y-50961D02*
G75*
G03X28779Y-53220I424J-1128D01*
G74*
G01*
X29660Y-53190D02*
X29570Y-53190D01*
X29760Y-53140D02*
X29570Y-53140D01*
X29840Y-53090D02*
X29570Y-53090D01*
X29910Y-53040D02*
X29570Y-53040D01*
X29570Y-53040D02*
X29570Y-53210D01*
X28830Y-53040D02*
X28830Y-53220D01*
X28720Y-53190D02*
X28830Y-53190D01*
X28620Y-53140D02*
X28830Y-53140D01*
X28540Y-53090D02*
X28830Y-53090D01*
X28470Y-53040D02*
X28830Y-53040D01*
X27900Y-53390D02*
X28760Y-53390D01*
X30500Y-53390D02*
X29640Y-53390D01*
X28200Y-50790D02*
X28760Y-50790D01*
X29650Y-50790D02*
X30200Y-50790D01*
X27900Y-53650D02*
X28200Y-53650D01*
X30500Y-53390D02*
X30500Y-51090D01*
X30500Y-51090D02*
X30200Y-50790D01*
X28200Y-50790D02*
X27900Y-51090D01*
X27900Y-51090D02*
X27900Y-53390D01*
X28040Y-50410D02*
X28040Y-50710D01*
X27900Y-50560D02*
X28200Y-50560D01*
G54D17*
X34816Y-54417D02*
G75*
G03X34816Y-54417I-49J0D01*
G74*
G01*
G54D15*
X35305Y-51790D02*
X35305Y-54210D01*
X35305Y-54210D02*
X32695Y-54210D01*
X32694Y-54210D02*
X32694Y-51790D01*
X32695Y-51790D02*
X35305Y-51790D01*
G54D17*
X20431Y-57267D02*
G75*
G03X20431Y-57267I-49J0D01*
G74*
G01*
G54D15*
X23020Y-57805D02*
X20580Y-57805D01*
X20580Y-57805D02*
X20580Y-55195D01*
X20580Y-55194D02*
X23020Y-55194D01*
X23020Y-55195D02*
X23020Y-57805D01*
X34215Y-42774D02*
X34544Y-42774D01*
X34215Y-43154D02*
X34544Y-43154D01*
X33598Y-42599D02*
X34465Y-42599D01*
X33598Y-43329D02*
X34465Y-43329D01*
X33598Y-43329D02*
X33598Y-42599D01*
G54D10*
X36591Y-42599D02*
X36591Y-43329D01*
G54D15*
X36591Y-43329D02*
X34544Y-43329D01*
G54D10*
X34544Y-43329D02*
X34544Y-42599D01*
X34544Y-42599D02*
X36591Y-42599D01*
G54D15*
X29420Y-61219D02*
X28900Y-61219D01*
X29420Y-62299D02*
X29420Y-61219D01*
X28900Y-61219D02*
X28900Y-62299D01*
X29420Y-62299D02*
X28900Y-62299D01*
X25290Y-62780D02*
X26830Y-62780D01*
X27950Y-62230D02*
X24050Y-62230D01*
X24425Y-62230D02*
X24425Y-62500D01*
X24425Y-62500D02*
X26393Y-62500D01*
X26393Y-62230D02*
X26393Y-62500D01*
G54D10*
X23283Y-61940D02*
X23283Y-60060D01*
X24050Y-59770D02*
X27950Y-59770D01*
X28716Y-60060D02*
X28716Y-61940D01*
G54D18*
G36*
X28464Y-21872D02*
X28464Y-21982D01*
X28462Y-22087D01*
X28460Y-22119D01*
X28460Y-22172D01*
X28457Y-22224D01*
X28457Y-22272D01*
X28455Y-22312D01*
X28454Y-22347D01*
X28452Y-22370D01*
X28452Y-22385D01*
X28452Y-22385D01*
X28450Y-22405D01*
X28449Y-22434D01*
X28445Y-22465D01*
X28445Y-22479D01*
X28427Y-22712D01*
X28402Y-22950D01*
X28369Y-23192D01*
X28327Y-23435D01*
X28280Y-23675D01*
X28225Y-23910D01*
X28187Y-24055D01*
X28187Y-21905D01*
X28187Y-21829D01*
X28187Y-21754D01*
X28185Y-21682D01*
X28185Y-21615D01*
X28184Y-21559D01*
X28182Y-21509D01*
X28180Y-21492D01*
X28177Y-21430D01*
X28175Y-21370D01*
X28170Y-21314D01*
X28167Y-21259D01*
X28164Y-21210D01*
X28160Y-21165D01*
X28157Y-21130D01*
X28154Y-21102D01*
X28150Y-21085D01*
X28149Y-21080D01*
X28142Y-21074D01*
X28125Y-21064D01*
X28102Y-21050D01*
X28075Y-21035D01*
X28074Y-21034D01*
X28040Y-21015D01*
X28004Y-20995D01*
X27970Y-20975D01*
X27949Y-20965D01*
X27894Y-20934D01*
X28002Y-20824D01*
X28112Y-20715D01*
X28094Y-20592D01*
X28085Y-20534D01*
X28075Y-20480D01*
X28067Y-20430D01*
X28059Y-20380D01*
X28049Y-20330D01*
X28037Y-20277D01*
X28025Y-20220D01*
X28012Y-20157D01*
X27995Y-20084D01*
X27982Y-20025D01*
X27960Y-19930D01*
X27940Y-19845D01*
X27920Y-19770D01*
X27904Y-19700D01*
X27887Y-19639D01*
X27872Y-19580D01*
X27855Y-19525D01*
X27839Y-19472D01*
X27822Y-19417D01*
X27802Y-19360D01*
X27782Y-19302D01*
X27780Y-19297D01*
X27765Y-19254D01*
X27752Y-19220D01*
X27742Y-19197D01*
X27735Y-19184D01*
X27729Y-19177D01*
X27727Y-19175D01*
X27722Y-19180D01*
X27717Y-19197D01*
X27709Y-19219D01*
X27699Y-19245D01*
X27672Y-19317D01*
X27642Y-19395D01*
X27607Y-19475D01*
X27570Y-19550D01*
X27567Y-19557D01*
X27527Y-19635D01*
X27547Y-19702D01*
X27607Y-19937D01*
X27662Y-20182D01*
X27709Y-20435D01*
X27749Y-20700D01*
X27782Y-20974D01*
X27807Y-21257D01*
X27812Y-21327D01*
X27815Y-21370D01*
X27817Y-21422D01*
X27819Y-21485D01*
X27820Y-21555D01*
X27822Y-21630D01*
X27822Y-21710D01*
X27824Y-21792D01*
X27824Y-21875D01*
X27824Y-21959D01*
X27824Y-22040D01*
X27824Y-22119D01*
X27822Y-22192D01*
X27820Y-22259D01*
X27820Y-22317D01*
X27817Y-22365D01*
X27815Y-22395D01*
X27812Y-22440D01*
X27810Y-22490D01*
X27805Y-22540D01*
X27802Y-22584D01*
X27802Y-22602D01*
X27790Y-22774D01*
X27777Y-22935D01*
X27762Y-23087D01*
X27747Y-23232D01*
X27727Y-23372D01*
X27707Y-23510D01*
X27695Y-23579D01*
X27689Y-23622D01*
X27680Y-23667D01*
X27672Y-23712D01*
X27665Y-23755D01*
X27657Y-23792D01*
X27650Y-23825D01*
X27647Y-23849D01*
X27642Y-23862D01*
X27642Y-23862D01*
X27645Y-23870D01*
X27655Y-23880D01*
X27672Y-23895D01*
X27700Y-23915D01*
X27707Y-23920D01*
X27740Y-23944D01*
X27779Y-23970D01*
X27815Y-23999D01*
X27840Y-24015D01*
X27864Y-24035D01*
X27885Y-24049D01*
X27900Y-24059D01*
X27907Y-24062D01*
X27909Y-24062D01*
X27910Y-24055D01*
X27915Y-24037D01*
X27924Y-24012D01*
X27932Y-23979D01*
X27942Y-23940D01*
X27950Y-23905D01*
X28004Y-23675D01*
X28050Y-23445D01*
X28090Y-23214D01*
X28122Y-22977D01*
X28149Y-22735D01*
X28169Y-22487D01*
X28180Y-22282D01*
X28182Y-22240D01*
X28185Y-22185D01*
X28185Y-22122D01*
X28187Y-22055D01*
X28187Y-21980D01*
X28187Y-21905D01*
X28187Y-24055D01*
X28165Y-24135D01*
X28162Y-24150D01*
X28154Y-24179D01*
X28142Y-24214D01*
X28130Y-24252D01*
X28117Y-24297D01*
X28102Y-24342D01*
X28087Y-24385D01*
X28074Y-24430D01*
X28060Y-24469D01*
X28049Y-24505D01*
X28039Y-24532D01*
X28032Y-24552D01*
X28027Y-24562D01*
X28027Y-24562D01*
X28022Y-24564D01*
X28010Y-24557D01*
X27992Y-24540D01*
X27984Y-24532D01*
X27867Y-24417D01*
X27754Y-24310D01*
X27639Y-24214D01*
X27520Y-24122D01*
X27399Y-24037D01*
X27289Y-23965D01*
X27257Y-23947D01*
X27219Y-23925D01*
X27175Y-23900D01*
X27130Y-23875D01*
X27085Y-23850D01*
X27044Y-23827D01*
X27007Y-23809D01*
X26980Y-23795D01*
X26979Y-23795D01*
X26962Y-23787D01*
X26952Y-23780D01*
X26950Y-23779D01*
X26957Y-23775D01*
X26970Y-23765D01*
X26990Y-23752D01*
X27007Y-23740D01*
X27037Y-23719D01*
X27070Y-23694D01*
X27100Y-23670D01*
X27109Y-23662D01*
X27130Y-23645D01*
X27147Y-23630D01*
X27160Y-23620D01*
X27165Y-23617D01*
X27172Y-23617D01*
X27189Y-23624D01*
X27212Y-23635D01*
X27242Y-23649D01*
X27277Y-23665D01*
X27312Y-23682D01*
X27350Y-23702D01*
X27385Y-23720D01*
X27397Y-23727D01*
X27417Y-23739D01*
X27432Y-23747D01*
X27439Y-23750D01*
X27439Y-23750D01*
X27440Y-23747D01*
X27444Y-23737D01*
X27449Y-23719D01*
X27455Y-23692D01*
X27462Y-23655D01*
X27472Y-23607D01*
X27479Y-23579D01*
X27520Y-23350D01*
X27557Y-23124D01*
X27587Y-22895D01*
X27610Y-22662D01*
X27627Y-22424D01*
X27639Y-22177D01*
X27640Y-22107D01*
X27642Y-22062D01*
X27642Y-22019D01*
X27644Y-21980D01*
X27644Y-21942D01*
X27644Y-21904D01*
X27644Y-21864D01*
X27642Y-21820D01*
X27642Y-21775D01*
X27640Y-21722D01*
X27639Y-21662D01*
X27637Y-21595D01*
X27634Y-21517D01*
X27630Y-21445D01*
X27625Y-21312D01*
X27615Y-21172D01*
X27600Y-21025D01*
X27585Y-20872D01*
X27565Y-20720D01*
X27550Y-20609D01*
X27540Y-20545D01*
X27529Y-20477D01*
X27517Y-20407D01*
X27505Y-20337D01*
X27492Y-20269D01*
X27479Y-20202D01*
X27465Y-20137D01*
X27452Y-20079D01*
X27440Y-20025D01*
X27429Y-19979D01*
X27419Y-19940D01*
X27410Y-19910D01*
X27402Y-19892D01*
X27402Y-19892D01*
X27387Y-19865D01*
X27330Y-19947D01*
X27215Y-20102D01*
X27087Y-20252D01*
X26949Y-20402D01*
X26800Y-20547D01*
X26644Y-20687D01*
X26479Y-20822D01*
X26305Y-20952D01*
X26125Y-21075D01*
X26012Y-21145D01*
X25832Y-21250D01*
X25650Y-21345D01*
X25467Y-21427D01*
X25282Y-21500D01*
X25092Y-21562D01*
X24895Y-21615D01*
X24692Y-21657D01*
X24572Y-21680D01*
X24535Y-21685D01*
X24507Y-21692D01*
X24489Y-21697D01*
X24477Y-21704D01*
X24469Y-21710D01*
X24465Y-21717D01*
X24464Y-21725D01*
X24462Y-21745D01*
X24462Y-21775D01*
X24462Y-21815D01*
X24460Y-21862D01*
X24460Y-21919D01*
X24460Y-21982D01*
X24460Y-22050D01*
X24459Y-22125D01*
X24459Y-22202D01*
X24459Y-22284D01*
X24459Y-22367D01*
X24459Y-22450D01*
X24459Y-22535D01*
X24459Y-22620D01*
X24459Y-22702D01*
X24459Y-22782D01*
X24460Y-22859D01*
X24460Y-22930D01*
X24460Y-22997D01*
X24460Y-23057D01*
X24462Y-23110D01*
X24462Y-23155D01*
X24462Y-23192D01*
X24464Y-23219D01*
X24465Y-23234D01*
X24465Y-23237D01*
X24477Y-23264D01*
X24497Y-23285D01*
X24522Y-23302D01*
X24535Y-23305D01*
X24555Y-23307D01*
X24587Y-23302D01*
X24630Y-23295D01*
X24637Y-23294D01*
X24747Y-23272D01*
X24857Y-23255D01*
X24962Y-23242D01*
X25062Y-23232D01*
X25094Y-23230D01*
X25160Y-23225D01*
X25205Y-23270D01*
X25230Y-23292D01*
X25260Y-23320D01*
X25290Y-23347D01*
X25310Y-23362D01*
X25369Y-23410D01*
X25260Y-23415D01*
X25087Y-23427D01*
X24922Y-23445D01*
X24762Y-23472D01*
X24612Y-23505D01*
X24565Y-23517D01*
X24527Y-23525D01*
X24497Y-23532D01*
X24472Y-23535D01*
X24450Y-23537D01*
X24429Y-23539D01*
X24422Y-23539D01*
X24359Y-23534D01*
X24300Y-23520D01*
X24242Y-23497D01*
X24242Y-23497D01*
X24225Y-23487D01*
X24210Y-23479D01*
X24195Y-23467D01*
X24177Y-23454D01*
X24157Y-23435D01*
X24134Y-23412D01*
X24105Y-23385D01*
X24070Y-23349D01*
X24029Y-23305D01*
X24014Y-23290D01*
X23985Y-23262D01*
X23952Y-23227D01*
X23912Y-23185D01*
X23870Y-23142D01*
X23827Y-23097D01*
X23785Y-23054D01*
X23762Y-23029D01*
X23710Y-22975D01*
X23665Y-22930D01*
X23630Y-22892D01*
X23599Y-22860D01*
X23575Y-22832D01*
X23555Y-22810D01*
X23540Y-22792D01*
X23527Y-22777D01*
X23519Y-22764D01*
X23512Y-22752D01*
X23507Y-22740D01*
X23502Y-22727D01*
X23497Y-22712D01*
X23497Y-22709D01*
X23495Y-22704D01*
X23492Y-22697D01*
X23492Y-22690D01*
X23490Y-22682D01*
X23490Y-22672D01*
X23489Y-22657D01*
X23487Y-22640D01*
X23487Y-22619D01*
X23485Y-22592D01*
X23485Y-22560D01*
X23485Y-22522D01*
X23485Y-22479D01*
X23484Y-22427D01*
X23484Y-22367D01*
X23484Y-22300D01*
X23482Y-22222D01*
X23482Y-22135D01*
X23482Y-22039D01*
X23482Y-21930D01*
X23482Y-21810D01*
X23482Y-21770D01*
X23480Y-20870D01*
X23495Y-20835D01*
X23522Y-20790D01*
X23555Y-20757D01*
X23595Y-20734D01*
X23640Y-20720D01*
X23659Y-20719D01*
X23680Y-20719D01*
X23707Y-20720D01*
X23737Y-20722D01*
X23767Y-20725D01*
X23794Y-20727D01*
X23815Y-20730D01*
X23827Y-20735D01*
X23829Y-20735D01*
X23830Y-20742D01*
X23832Y-20760D01*
X23832Y-20785D01*
X23832Y-20817D01*
X23832Y-20845D01*
X23830Y-20885D01*
X23830Y-20912D01*
X23829Y-20930D01*
X23827Y-20942D01*
X23825Y-20947D01*
X23822Y-20950D01*
X23817Y-20949D01*
X23797Y-20949D01*
X23780Y-20955D01*
X23769Y-20965D01*
X23767Y-20982D01*
X23772Y-21000D01*
X23787Y-21017D01*
X23795Y-21024D01*
X23805Y-21032D01*
X23824Y-21045D01*
X23844Y-21062D01*
X23847Y-21067D01*
X23862Y-21080D01*
X23885Y-21100D01*
X23915Y-21125D01*
X23949Y-21155D01*
X23985Y-21185D01*
X24022Y-21217D01*
X24059Y-21250D01*
X24092Y-21279D01*
X24122Y-21304D01*
X24147Y-21325D01*
X24160Y-21335D01*
X24180Y-21352D01*
X24205Y-21372D01*
X24227Y-21392D01*
X24230Y-21395D01*
X24254Y-21412D01*
X24279Y-21430D01*
X24302Y-21442D01*
X24302Y-21444D01*
X24320Y-21452D01*
X24337Y-21455D01*
X24355Y-21459D01*
X24380Y-21460D01*
X24402Y-21460D01*
X24460Y-21457D01*
X24527Y-21450D01*
X24600Y-21439D01*
X24682Y-21425D01*
X24769Y-21407D01*
X24857Y-21385D01*
X24947Y-21362D01*
X25037Y-21337D01*
X25125Y-21310D01*
X25209Y-21282D01*
X25235Y-21272D01*
X25297Y-21247D01*
X25367Y-21217D01*
X25445Y-21180D01*
X25527Y-21140D01*
X25612Y-21095D01*
X25700Y-21047D01*
X25787Y-20999D01*
X25850Y-20960D01*
X25965Y-20890D01*
X26067Y-20817D01*
X26160Y-20745D01*
X26242Y-20670D01*
X26267Y-20645D01*
X26312Y-20599D01*
X26347Y-20557D01*
X26370Y-20520D01*
X26384Y-20489D01*
X26387Y-20462D01*
X26385Y-20452D01*
X26375Y-20437D01*
X26360Y-20429D01*
X26339Y-20425D01*
X26310Y-20427D01*
X26274Y-20435D01*
X26230Y-20450D01*
X26179Y-20470D01*
X26117Y-20497D01*
X26047Y-20530D01*
X25982Y-20564D01*
X25860Y-20624D01*
X25745Y-20679D01*
X25635Y-20730D01*
X25535Y-20774D01*
X25449Y-20810D01*
X25417Y-20822D01*
X25390Y-20834D01*
X25367Y-20842D01*
X25355Y-20847D01*
X25352Y-20847D01*
X25350Y-20842D01*
X25349Y-20827D01*
X25347Y-20805D01*
X25345Y-20802D01*
X25339Y-20757D01*
X25322Y-20715D01*
X25295Y-20675D01*
X25292Y-20672D01*
X25272Y-20647D01*
X25380Y-20605D01*
X25579Y-20522D01*
X25775Y-20434D01*
X25970Y-20335D01*
X26157Y-20232D01*
X26342Y-20122D01*
X26520Y-20007D01*
X26692Y-19889D01*
X26854Y-19765D01*
X27007Y-19637D01*
X27150Y-19507D01*
X27284Y-19377D01*
X27322Y-19337D01*
X27410Y-19237D01*
X27489Y-19144D01*
X27560Y-19052D01*
X27622Y-18962D01*
X27680Y-18872D01*
X27732Y-18779D01*
X27747Y-18750D01*
X27794Y-18660D01*
X27830Y-18735D01*
X27915Y-18925D01*
X27995Y-19125D01*
X28070Y-19335D01*
X28139Y-19552D01*
X28202Y-19777D01*
X28259Y-20007D01*
X28309Y-20242D01*
X28352Y-20480D01*
X28377Y-20640D01*
X28382Y-20680D01*
X28387Y-20709D01*
X28389Y-20729D01*
X28390Y-20742D01*
X28389Y-20750D01*
X28385Y-20755D01*
X28382Y-20759D01*
X28382Y-20760D01*
X28352Y-20780D01*
X28320Y-20802D01*
X28292Y-20822D01*
X28265Y-20842D01*
X28242Y-20860D01*
X28227Y-20872D01*
X28219Y-20880D01*
X28217Y-20882D01*
X28224Y-20887D01*
X28239Y-20897D01*
X28262Y-20910D01*
X28290Y-20925D01*
X28315Y-20939D01*
X28347Y-20955D01*
X28375Y-20970D01*
X28397Y-20982D01*
X28412Y-20990D01*
X28417Y-20995D01*
X28419Y-21002D01*
X28422Y-21022D01*
X28425Y-21050D01*
X28429Y-21090D01*
X28432Y-21135D01*
X28437Y-21189D01*
X28442Y-21247D01*
X28445Y-21309D01*
X28449Y-21345D01*
X28454Y-21437D01*
X28457Y-21540D01*
X28460Y-21647D01*
X28462Y-21760D01*
X28464Y-21872D01*
X28464Y-21872D01*
X28464Y-21872D01*
G37*
G36*
X25235Y-24335D02*
X25210Y-24360D01*
X25175Y-24385D01*
X25129Y-24410D01*
X25070Y-24430D01*
X24997Y-24450D01*
X24915Y-24465D01*
X24854Y-24475D01*
X24822Y-24477D01*
X24782Y-24480D01*
X24732Y-24482D01*
X24680Y-24485D01*
X24625Y-24487D01*
X24569Y-24487D01*
X24515Y-24487D01*
X24469Y-24487D01*
X24429Y-24485D01*
X24405Y-24484D01*
X24315Y-24474D01*
X24232Y-24460D01*
X24159Y-24445D01*
X24094Y-24427D01*
X24039Y-24405D01*
X23995Y-24382D01*
X23962Y-24357D01*
X23960Y-24355D01*
X23940Y-24334D01*
X23937Y-23900D01*
X23937Y-23467D01*
X23990Y-23524D01*
X24025Y-23559D01*
X24055Y-23587D01*
X24082Y-23610D01*
X24110Y-23627D01*
X24140Y-23645D01*
X24142Y-23647D01*
X24219Y-23682D01*
X24297Y-23705D01*
X24377Y-23717D01*
X24425Y-23720D01*
X24445Y-23720D01*
X24467Y-23719D01*
X24487Y-23717D01*
X24512Y-23712D01*
X24540Y-23707D01*
X24577Y-23697D01*
X24625Y-23687D01*
X24630Y-23685D01*
X24742Y-23660D01*
X24847Y-23640D01*
X24947Y-23624D01*
X25047Y-23612D01*
X25149Y-23604D01*
X25162Y-23602D01*
X25235Y-23599D01*
X25235Y-23967D01*
X25235Y-24335D01*
X25235Y-24335D01*
X25235Y-24335D01*
G37*
G36*
X27419Y-22635D02*
X27419Y-22672D01*
X27417Y-22702D01*
X27415Y-22727D01*
X27412Y-22750D01*
X27410Y-22772D01*
X27404Y-22799D01*
X27402Y-22805D01*
X27372Y-22920D01*
X27332Y-23032D01*
X27282Y-23137D01*
X27224Y-23235D01*
X27190Y-23282D01*
X27190Y-22630D01*
X27187Y-22537D01*
X27175Y-22447D01*
X27150Y-22362D01*
X27125Y-22297D01*
X27082Y-22222D01*
X27032Y-22155D01*
X26974Y-22097D01*
X26907Y-22050D01*
X26835Y-22012D01*
X26755Y-21984D01*
X26714Y-21975D01*
X26665Y-21970D01*
X26610Y-21969D01*
X26557Y-21970D01*
X26507Y-21975D01*
X26465Y-21982D01*
X26374Y-22010D01*
X26289Y-22049D01*
X26207Y-22097D01*
X26132Y-22155D01*
X26074Y-22209D01*
X26017Y-22270D01*
X25970Y-22332D01*
X25927Y-22399D01*
X25890Y-22467D01*
X25850Y-22562D01*
X25820Y-22660D01*
X25802Y-22757D01*
X25795Y-22852D01*
X25800Y-22947D01*
X25817Y-23040D01*
X25830Y-23085D01*
X25860Y-23162D01*
X25897Y-23232D01*
X25945Y-23297D01*
X25989Y-23344D01*
X26052Y-23397D01*
X26120Y-23439D01*
X26195Y-23470D01*
X26272Y-23490D01*
X26355Y-23497D01*
X26440Y-23494D01*
X26509Y-23482D01*
X26602Y-23457D01*
X26690Y-23419D01*
X26775Y-23370D01*
X26855Y-23309D01*
X26925Y-23244D01*
X26990Y-23167D01*
X27049Y-23085D01*
X27095Y-22997D01*
X27135Y-22907D01*
X27162Y-22817D01*
X27182Y-22722D01*
X27190Y-22630D01*
X27190Y-23282D01*
X27157Y-23327D01*
X27082Y-23412D01*
X27000Y-23489D01*
X26912Y-23557D01*
X26820Y-23615D01*
X26720Y-23665D01*
X26619Y-23702D01*
X26527Y-23725D01*
X26485Y-23732D01*
X26437Y-23737D01*
X26385Y-23740D01*
X26335Y-23740D01*
X26289Y-23740D01*
X26255Y-23737D01*
X26162Y-23720D01*
X26074Y-23692D01*
X25990Y-23654D01*
X25912Y-23605D01*
X25885Y-23585D01*
X25874Y-23575D01*
X25864Y-23567D01*
X25852Y-23559D01*
X25840Y-23549D01*
X25827Y-23537D01*
X25810Y-23522D01*
X25787Y-23504D01*
X25760Y-23480D01*
X25727Y-23452D01*
X25687Y-23417D01*
X25639Y-23375D01*
X25622Y-23362D01*
X25580Y-23327D01*
X25540Y-23292D01*
X25502Y-23259D01*
X25467Y-23229D01*
X25437Y-23204D01*
X25415Y-23185D01*
X25410Y-23180D01*
X25325Y-23102D01*
X25254Y-23022D01*
X25192Y-22937D01*
X25144Y-22850D01*
X25107Y-22759D01*
X25080Y-22665D01*
X25077Y-22637D01*
X25072Y-22594D01*
X25069Y-22542D01*
X25070Y-22485D01*
X25072Y-22427D01*
X25077Y-22372D01*
X25085Y-22322D01*
X25087Y-22312D01*
X25117Y-22197D01*
X25157Y-22089D01*
X25209Y-21987D01*
X25272Y-21890D01*
X25345Y-21800D01*
X25407Y-21737D01*
X25492Y-21665D01*
X25582Y-21602D01*
X25679Y-21552D01*
X25780Y-21512D01*
X25872Y-21487D01*
X25899Y-21484D01*
X25932Y-21480D01*
X25974Y-21479D01*
X26017Y-21479D01*
X26062Y-21479D01*
X26105Y-21480D01*
X26145Y-21482D01*
X26175Y-21487D01*
X26192Y-21490D01*
X26209Y-21495D01*
X26234Y-21504D01*
X26262Y-21515D01*
X26295Y-21527D01*
X26329Y-21540D01*
X26362Y-21552D01*
X26392Y-21565D01*
X26419Y-21577D01*
X26437Y-21585D01*
X26449Y-21590D01*
X26450Y-21592D01*
X26444Y-21595D01*
X26427Y-21599D01*
X26409Y-21602D01*
X26307Y-21632D01*
X26207Y-21672D01*
X26110Y-21722D01*
X26015Y-21784D01*
X25985Y-21805D01*
X25945Y-21837D01*
X25902Y-21877D01*
X25857Y-21922D01*
X25812Y-21970D01*
X25772Y-22015D01*
X25740Y-22055D01*
X25674Y-22155D01*
X25617Y-22255D01*
X25572Y-22362D01*
X25537Y-22474D01*
X25517Y-22555D01*
X25512Y-22585D01*
X25507Y-22612D01*
X25504Y-22637D01*
X25502Y-22667D01*
X25500Y-22700D01*
X25500Y-22742D01*
X25500Y-22755D01*
X25500Y-22802D01*
X25502Y-22840D01*
X25502Y-22870D01*
X25505Y-22897D01*
X25510Y-22922D01*
X25512Y-22935D01*
X25525Y-22995D01*
X25529Y-22882D01*
X25534Y-22797D01*
X25544Y-22720D01*
X25559Y-22645D01*
X25580Y-22569D01*
X25590Y-22540D01*
X25634Y-22432D01*
X25687Y-22327D01*
X25750Y-22229D01*
X25822Y-22137D01*
X25900Y-22052D01*
X25987Y-21975D01*
X26077Y-21909D01*
X26175Y-21850D01*
X26275Y-21802D01*
X26382Y-21765D01*
X26452Y-21747D01*
X26499Y-21740D01*
X26554Y-21735D01*
X26612Y-21732D01*
X26670Y-21730D01*
X26722Y-21732D01*
X26769Y-21737D01*
X26770Y-21739D01*
X26864Y-21760D01*
X26952Y-21792D01*
X27035Y-21835D01*
X27112Y-21889D01*
X27182Y-21950D01*
X27244Y-22022D01*
X27297Y-22102D01*
X27344Y-22189D01*
X27375Y-22270D01*
X27390Y-22315D01*
X27400Y-22357D01*
X27409Y-22397D01*
X27414Y-22440D01*
X27417Y-22487D01*
X27419Y-22542D01*
X27419Y-22587D01*
X27419Y-22635D01*
X27419Y-22635D01*
X27419Y-22635D01*
G37*
G36*
X25235Y-21025D02*
X25235Y-21065D01*
X25234Y-21092D01*
X25232Y-21110D01*
X25229Y-21120D01*
X25227Y-21120D01*
X25217Y-21125D01*
X25197Y-21135D01*
X25170Y-21145D01*
X25139Y-21155D01*
X25107Y-21167D01*
X25075Y-21177D01*
X25049Y-21184D01*
X24984Y-21199D01*
X24919Y-21210D01*
X24852Y-21217D01*
X24780Y-21222D01*
X24729Y-21224D01*
X24687Y-21225D01*
X24644Y-21225D01*
X24605Y-21224D01*
X24570Y-21222D01*
X24549Y-21220D01*
X24442Y-21205D01*
X24339Y-21180D01*
X24240Y-21149D01*
X24150Y-21110D01*
X24067Y-21065D01*
X23995Y-21017D01*
X23935Y-20972D01*
X23937Y-20870D01*
X23940Y-20767D01*
X23962Y-20745D01*
X23992Y-20720D01*
X24035Y-20697D01*
X24087Y-20677D01*
X24149Y-20659D01*
X24219Y-20644D01*
X24295Y-20630D01*
X24379Y-20622D01*
X24467Y-20615D01*
X24559Y-20612D01*
X24652Y-20614D01*
X24760Y-20619D01*
X24860Y-20627D01*
X24950Y-20642D01*
X25029Y-20659D01*
X25097Y-20679D01*
X25155Y-20704D01*
X25185Y-20720D01*
X25202Y-20732D01*
X25209Y-20742D01*
X25210Y-20755D01*
X25205Y-20782D01*
X25187Y-20809D01*
X25157Y-20834D01*
X25117Y-20857D01*
X25065Y-20880D01*
X25005Y-20900D01*
X25005Y-20900D01*
X24925Y-20919D01*
X24837Y-20930D01*
X24742Y-20937D01*
X24637Y-20937D01*
X24525Y-20930D01*
X24400Y-20919D01*
X24267Y-20900D01*
X24240Y-20895D01*
X24217Y-20892D01*
X24197Y-20889D01*
X24187Y-20889D01*
X24185Y-20889D01*
X24190Y-20892D01*
X24204Y-20897D01*
X24227Y-20905D01*
X24255Y-20912D01*
X24290Y-20922D01*
X24327Y-20932D01*
X24365Y-20942D01*
X24404Y-20950D01*
X24440Y-20959D01*
X24472Y-20965D01*
X24487Y-20967D01*
X24532Y-20975D01*
X24574Y-20982D01*
X24610Y-20987D01*
X24649Y-20990D01*
X24689Y-20992D01*
X24735Y-20992D01*
X24787Y-20994D01*
X24837Y-20994D01*
X24902Y-20994D01*
X24955Y-20992D01*
X25002Y-20990D01*
X25040Y-20987D01*
X25075Y-20982D01*
X25107Y-20977D01*
X25140Y-20969D01*
X25172Y-20957D01*
X25184Y-20955D01*
X25235Y-20937D01*
X25235Y-21025D01*
X25235Y-21025D01*
X25235Y-21025D01*
G37*
G36*
X27042Y-22567D02*
X27040Y-22654D01*
X27029Y-22742D01*
X27007Y-22827D01*
X26975Y-22910D01*
X26934Y-22987D01*
X26884Y-23062D01*
X26827Y-23129D01*
X26764Y-23190D01*
X26695Y-23240D01*
X26620Y-23284D01*
X26542Y-23315D01*
X26522Y-23322D01*
X26495Y-23327D01*
X26462Y-23332D01*
X26425Y-23335D01*
X26387Y-23337D01*
X26352Y-23339D01*
X26325Y-23337D01*
X26317Y-23335D01*
X26300Y-23332D01*
X26292Y-23327D01*
X26297Y-23324D01*
X26314Y-23319D01*
X26332Y-23314D01*
X26407Y-23290D01*
X26482Y-23254D01*
X26554Y-23207D01*
X26620Y-23152D01*
X26682Y-23087D01*
X26740Y-23017D01*
X26787Y-22940D01*
X26829Y-22859D01*
X26857Y-22785D01*
X26877Y-22705D01*
X26890Y-22622D01*
X26894Y-22542D01*
X26889Y-22465D01*
X26875Y-22397D01*
X26859Y-22347D01*
X26837Y-22295D01*
X26810Y-22247D01*
X26782Y-22205D01*
X26754Y-22172D01*
X26735Y-22155D01*
X26722Y-22145D01*
X26715Y-22137D01*
X26715Y-22137D01*
X26722Y-22137D01*
X26740Y-22140D01*
X26760Y-22147D01*
X26785Y-22157D01*
X26807Y-22167D01*
X26812Y-22170D01*
X26869Y-22205D01*
X26919Y-22250D01*
X26960Y-22305D01*
X26995Y-22367D01*
X27020Y-22435D01*
X27035Y-22512D01*
X27042Y-22567D01*
X27042Y-22567D01*
X27042Y-22567D01*
G37*
G54D15*
X30280Y-57710D02*
G75*
G03X30280Y-57710I-70J0D01*
G74*
G01*
X28310Y-57760D02*
X27660Y-57760D01*
X27660Y-57760D02*
X27660Y-59360D01*
X27660Y-59360D02*
X28310Y-59360D01*
X29510Y-59360D02*
X30160Y-59360D01*
X30160Y-59360D02*
X30160Y-57760D01*
X30160Y-57760D02*
X29510Y-57760D01*
X20925Y-54253D02*
X20925Y-53975D01*
X20925Y-53975D02*
X20375Y-53975D01*
X20375Y-53975D02*
X20375Y-54253D01*
X20925Y-54925D02*
X20925Y-54647D01*
X20925Y-54925D02*
X20375Y-54925D01*
X20375Y-54925D02*
X20375Y-54647D01*
X21675Y-54253D02*
X21675Y-53975D01*
X21675Y-53975D02*
X21125Y-53975D01*
X21125Y-53975D02*
X21125Y-54253D01*
X21675Y-54925D02*
X21675Y-54647D01*
X21675Y-54925D02*
X21125Y-54925D01*
X21125Y-54925D02*
X21125Y-54647D01*
X22475Y-54253D02*
X22475Y-53975D01*
X22475Y-53975D02*
X21925Y-53975D01*
X21925Y-53975D02*
X21925Y-54253D01*
X22475Y-54925D02*
X22475Y-54647D01*
X22475Y-54925D02*
X21925Y-54925D01*
X21925Y-54925D02*
X21925Y-54647D01*
X23275Y-54253D02*
X23275Y-53975D01*
X23275Y-53975D02*
X22725Y-53975D01*
X22725Y-53975D02*
X22725Y-54253D01*
X23275Y-54925D02*
X23275Y-54647D01*
X23275Y-54925D02*
X22725Y-54925D01*
X22725Y-54925D02*
X22725Y-54647D01*
X22865Y-61903D02*
X22865Y-61625D01*
X22865Y-61625D02*
X22315Y-61625D01*
X22315Y-61625D02*
X22315Y-61903D01*
X22865Y-62575D02*
X22865Y-62297D01*
X22865Y-62575D02*
X22315Y-62575D01*
X22315Y-62575D02*
X22315Y-62297D01*
X32183Y-46295D02*
X31905Y-46295D01*
X31905Y-46295D02*
X31905Y-46845D01*
X31905Y-46845D02*
X32183Y-46845D01*
X32855Y-46295D02*
X32577Y-46295D01*
X32855Y-46295D02*
X32855Y-46845D01*
X32855Y-46845D02*
X32577Y-46845D01*
X32783Y-45410D02*
X32505Y-45410D01*
X32505Y-45410D02*
X32505Y-45960D01*
X32505Y-45960D02*
X32783Y-45960D01*
X33455Y-45410D02*
X33177Y-45410D01*
X33455Y-45410D02*
X33455Y-45960D01*
X33455Y-45960D02*
X33177Y-45960D01*
X36017Y-41825D02*
X36295Y-41825D01*
X36295Y-41825D02*
X36295Y-41275D01*
X36295Y-41275D02*
X36017Y-41275D01*
X35345Y-41825D02*
X35623Y-41825D01*
X35345Y-41825D02*
X35345Y-41275D01*
X35345Y-41275D02*
X35623Y-41275D01*
X32683Y-44795D02*
X32405Y-44795D01*
X32405Y-44795D02*
X32405Y-45345D01*
X32405Y-45345D02*
X32683Y-45345D01*
X33355Y-44795D02*
X33077Y-44795D01*
X33355Y-44795D02*
X33355Y-45345D01*
X33355Y-45345D02*
X33077Y-45345D01*
X37927Y-23965D02*
X38205Y-23965D01*
X38205Y-23965D02*
X38205Y-23415D01*
X38205Y-23415D02*
X37927Y-23415D01*
X37255Y-23965D02*
X37533Y-23965D01*
X37255Y-23965D02*
X37255Y-23415D01*
X37255Y-23415D02*
X37533Y-23415D01*
X38613Y-23415D02*
X38335Y-23415D01*
X38335Y-23415D02*
X38335Y-23965D01*
X38335Y-23965D02*
X38613Y-23965D01*
X39285Y-23415D02*
X39007Y-23415D01*
X39285Y-23415D02*
X39285Y-23965D01*
X39285Y-23965D02*
X39007Y-23965D01*
X12000Y-12736D02*
X40000Y-12736D01*
X40000Y-9271D02*
X12000Y-9271D01*
X12000Y-9271D02*
X12000Y-12736D01*
X40000Y-9271D02*
X40000Y-12736D01*
X28827Y-34605D02*
X29105Y-34605D01*
X29105Y-34605D02*
X29105Y-34055D01*
X29105Y-34055D02*
X28827Y-34055D01*
X28155Y-34605D02*
X28433Y-34605D01*
X28155Y-34605D02*
X28155Y-34055D01*
X28155Y-34055D02*
X28433Y-34055D01*
X28827Y-35230D02*
X29105Y-35230D01*
X29105Y-35230D02*
X29105Y-34680D01*
X29105Y-34680D02*
X28827Y-34680D01*
X28155Y-35230D02*
X28433Y-35230D01*
X28155Y-35230D02*
X28155Y-34680D01*
X28155Y-34680D02*
X28433Y-34680D01*
X42952Y-54500D02*
X37047Y-54500D01*
X37047Y-54500D02*
X37047Y-48299D01*
X37047Y-48299D02*
X42952Y-48299D01*
X42952Y-48299D02*
X42952Y-54500D01*
X42952Y-39700D02*
X37047Y-39700D01*
X37047Y-39700D02*
X37047Y-33499D01*
X37047Y-33499D02*
X42952Y-33499D01*
X42952Y-33499D02*
X42952Y-39700D01*
X42952Y-32300D02*
X37047Y-32300D01*
X37047Y-32300D02*
X37047Y-26099D01*
X37047Y-26099D02*
X42952Y-26099D01*
X42952Y-26099D02*
X42952Y-32300D01*
X42952Y-47100D02*
X37047Y-47100D01*
X37047Y-47100D02*
X37047Y-40899D01*
X37047Y-40899D02*
X42952Y-40899D01*
X42952Y-40899D02*
X42952Y-47100D01*
X42943Y-23204D02*
X35856Y-23204D01*
X35856Y-23204D02*
X35856Y-18795D01*
X35856Y-18795D02*
X42943Y-18795D01*
X42943Y-18795D02*
X42943Y-23204D01*
X24325Y-55183D02*
X24325Y-53805D01*
X24325Y-53805D02*
X26884Y-53805D01*
X26884Y-53805D02*
X26884Y-55183D01*
X26884Y-55183D02*
X24325Y-55183D01*
X35000Y-62500D02*
X34000Y-62500D01*
X34000Y-62500D02*
X34000Y-56500D01*
X34000Y-56500D02*
X35000Y-56500D01*
X35000Y-56500D02*
X35000Y-62500D01*
X35000Y-61500D02*
X34000Y-61500D01*
X21840Y-61644D02*
X21840Y-62155D01*
X21840Y-62155D02*
X20659Y-62155D01*
X20659Y-62155D02*
X20659Y-61644D01*
X20659Y-61644D02*
X21840Y-61644D01*
X22865Y-60793D02*
X22865Y-60515D01*
X22865Y-60515D02*
X22315Y-60515D01*
X22315Y-60515D02*
X22315Y-60793D01*
X22865Y-61465D02*
X22865Y-61187D01*
X22865Y-61465D02*
X22315Y-61465D01*
X22315Y-61465D02*
X22315Y-61187D01*
X29950Y-62930D02*
X29950Y-62850D01*
X33050Y-62930D02*
X33050Y-62850D01*
G54D10*
X29954Y-62000D02*
X29954Y-61011D01*
X29954Y-61011D02*
X33045Y-61011D01*
X33045Y-61011D02*
X33045Y-62000D01*
X33045Y-62930D02*
X29954Y-62930D01*
G54D15*
X21840Y-63293D02*
X21840Y-62884D01*
X20659Y-63293D02*
X20659Y-62884D01*
X20659Y-63293D02*
G75*
G03X21840Y-63293I590J0D01*
G74*
G01*
X22135Y-62884D02*
X22135Y-62608D01*
X20364Y-62608D02*
X20364Y-62884D01*
X20364Y-62884D02*
X22135Y-62884D01*
X20364Y-62608D02*
X20364Y-61191D01*
X20364Y-61191D02*
X22135Y-61191D01*
X22135Y-61191D02*
X22135Y-62608D01*
X22135Y-62608D02*
X20364Y-62608D01*
X23891Y-45958D02*
G75*
G03X23891Y-45958I-250J0D01*
G74*
G01*
X24200Y-45542D02*
X24110Y-45542D01*
X24110Y-45542D02*
X24110Y-45842D01*
X24200Y-45842D02*
X24200Y-45542D01*
X31192Y-45842D02*
X31442Y-45592D01*
X31442Y-45592D02*
X31442Y-38407D01*
X31442Y-38407D02*
X31192Y-38157D01*
X31192Y-38157D02*
X24007Y-38157D01*
X24007Y-38157D02*
X23757Y-38407D01*
X23757Y-38407D02*
X23757Y-45592D01*
X23757Y-45592D02*
X24007Y-45842D01*
X24007Y-45842D02*
X31192Y-45842D01*
G54D10*
X34267Y-20177D02*
X34267Y-19862D01*
X34342Y-19862D01*
X34387Y-19877D01*
X34417Y-19907D01*
X34432Y-19937D01*
X34447Y-19997D01*
X34447Y-20042D01*
X34432Y-20102D01*
X34417Y-20132D01*
X34387Y-20162D01*
X34342Y-20177D01*
X34267Y-20177D01*
X34552Y-19862D02*
X34747Y-19862D01*
X34642Y-19982D01*
X34687Y-19982D01*
X34717Y-19997D01*
X34732Y-20012D01*
X34747Y-20042D01*
X34747Y-20117D01*
X34732Y-20147D01*
X34717Y-20162D01*
X34687Y-20177D01*
X34597Y-20177D01*
X34567Y-20162D01*
X34552Y-20147D01*
G54D15*
X34386Y-21516D02*
X34573Y-21516D01*
X34348Y-21629D02*
X34480Y-21235D01*
X34611Y-21629D01*
G54D10*
X31207Y-34012D02*
X31102Y-34012D01*
X31102Y-34177D02*
X31102Y-33862D01*
X31252Y-33862D01*
X31477Y-34012D02*
X31522Y-34027D01*
X31537Y-34042D01*
X31552Y-34072D01*
X31552Y-34117D01*
X31537Y-34147D01*
X31522Y-34162D01*
X31492Y-34177D01*
X31372Y-34177D01*
X31372Y-33862D01*
X31477Y-33862D01*
X31507Y-33877D01*
X31522Y-33892D01*
X31537Y-33922D01*
X31537Y-33952D01*
X31522Y-33982D01*
X31507Y-33997D01*
X31477Y-34012D01*
X31372Y-34012D01*
X31852Y-34177D02*
X31672Y-34177D01*
X31762Y-34177D02*
X31762Y-33862D01*
X31732Y-33907D01*
X31702Y-33937D01*
X31672Y-33952D01*
X34877Y-47252D02*
X34772Y-47252D01*
X34772Y-47417D02*
X34772Y-47102D01*
X34922Y-47102D01*
X35147Y-47252D02*
X35192Y-47267D01*
X35207Y-47282D01*
X35222Y-47312D01*
X35222Y-47357D01*
X35207Y-47387D01*
X35192Y-47402D01*
X35162Y-47417D01*
X35042Y-47417D01*
X35042Y-47102D01*
X35147Y-47102D01*
X35177Y-47117D01*
X35192Y-47132D01*
X35207Y-47162D01*
X35207Y-47192D01*
X35192Y-47222D01*
X35177Y-47237D01*
X35147Y-47252D01*
X35042Y-47252D01*
X35342Y-47132D02*
X35357Y-47117D01*
X35387Y-47102D01*
X35462Y-47102D01*
X35492Y-47117D01*
X35507Y-47132D01*
X35522Y-47162D01*
X35522Y-47192D01*
X35507Y-47237D01*
X35327Y-47417D01*
X35522Y-47417D01*
X34217Y-44392D02*
X34112Y-44392D01*
X34112Y-44557D02*
X34112Y-44242D01*
X34262Y-44242D01*
X34487Y-44392D02*
X34532Y-44407D01*
X34547Y-44422D01*
X34562Y-44452D01*
X34562Y-44497D01*
X34547Y-44527D01*
X34532Y-44542D01*
X34502Y-44557D01*
X34382Y-44557D01*
X34382Y-44242D01*
X34487Y-44242D01*
X34517Y-44257D01*
X34532Y-44272D01*
X34547Y-44302D01*
X34547Y-44332D01*
X34532Y-44362D01*
X34517Y-44377D01*
X34487Y-44392D01*
X34382Y-44392D01*
X34667Y-44242D02*
X34862Y-44242D01*
X34757Y-44362D01*
X34802Y-44362D01*
X34832Y-44377D01*
X34847Y-44392D01*
X34862Y-44422D01*
X34862Y-44497D01*
X34847Y-44527D01*
X34832Y-44542D01*
X34802Y-44557D01*
X34712Y-44557D01*
X34682Y-44542D01*
X34667Y-44527D01*
X34470Y-55682D02*
X34470Y-55937D01*
X34485Y-55967D01*
X34500Y-55982D01*
X34530Y-55997D01*
X34590Y-55997D01*
X34620Y-55982D01*
X34635Y-55967D01*
X34650Y-55937D01*
X34650Y-55682D01*
X34964Y-55997D02*
X34785Y-55997D01*
X34874Y-55997D02*
X34874Y-55682D01*
X34845Y-55727D01*
X34815Y-55757D01*
X34785Y-55772D01*
X35069Y-55682D02*
X35279Y-55682D01*
X35144Y-55997D01*
X37105Y-59227D02*
X37000Y-59077D01*
X36925Y-59227D02*
X36925Y-58912D01*
X37045Y-58912D01*
X37075Y-58927D01*
X37090Y-58942D01*
X37105Y-58972D01*
X37105Y-59017D01*
X37090Y-59047D01*
X37075Y-59062D01*
X37045Y-59077D01*
X36925Y-59077D01*
X37345Y-59062D02*
X37240Y-59062D01*
X37240Y-59227D02*
X37240Y-58912D01*
X37390Y-58912D01*
X37510Y-59227D02*
X37510Y-58912D01*
X37585Y-58912D01*
X37630Y-58927D01*
X37660Y-58957D01*
X37675Y-58987D01*
X37690Y-59047D01*
X37690Y-59092D01*
X37675Y-59152D01*
X37660Y-59182D01*
X37630Y-59212D01*
X37585Y-59227D01*
X37510Y-59227D01*
X37810Y-58942D02*
X37825Y-58927D01*
X37855Y-58912D01*
X37930Y-58912D01*
X37960Y-58927D01*
X37975Y-58942D01*
X37990Y-58972D01*
X37990Y-59002D01*
X37975Y-59047D01*
X37795Y-59227D01*
X37990Y-59227D01*
X38109Y-58942D02*
X38124Y-58927D01*
X38154Y-58912D01*
X38229Y-58912D01*
X38259Y-58927D01*
X38274Y-58942D01*
X38289Y-58972D01*
X38289Y-59002D01*
X38274Y-59047D01*
X38094Y-59227D01*
X38289Y-59227D01*
X38394Y-58912D02*
X38589Y-58912D01*
X38484Y-59032D01*
X38529Y-59032D01*
X38559Y-59047D01*
X38574Y-59062D01*
X38589Y-59092D01*
X38589Y-59167D01*
X38574Y-59197D01*
X38559Y-59212D01*
X38529Y-59227D01*
X38439Y-59227D01*
X38409Y-59212D01*
X38394Y-59197D01*
X38784Y-58912D02*
X38814Y-58912D01*
X38844Y-58927D01*
X38859Y-58942D01*
X38874Y-58972D01*
X38889Y-59032D01*
X38889Y-59107D01*
X38874Y-59167D01*
X38859Y-59197D01*
X38844Y-59212D01*
X38814Y-59227D01*
X38784Y-59227D01*
X38754Y-59212D01*
X38739Y-59197D01*
X38724Y-59167D01*
X38709Y-59107D01*
X38709Y-59032D01*
X38724Y-58972D01*
X38739Y-58942D01*
X38754Y-58927D01*
X38784Y-58912D01*
X39189Y-59227D02*
X39009Y-59227D01*
X39099Y-59227D02*
X39099Y-58912D01*
X39069Y-58957D01*
X39039Y-58987D01*
X39009Y-59002D01*
X35087Y-46187D02*
X35072Y-46202D01*
X35027Y-46217D01*
X34997Y-46217D01*
X34952Y-46202D01*
X34922Y-46172D01*
X34907Y-46142D01*
X34892Y-46082D01*
X34892Y-46037D01*
X34907Y-45977D01*
X34922Y-45947D01*
X34952Y-45917D01*
X34997Y-45902D01*
X35027Y-45902D01*
X35072Y-45917D01*
X35087Y-45932D01*
X35357Y-46007D02*
X35357Y-46217D01*
X35282Y-45887D02*
X35207Y-46112D01*
X35402Y-46112D01*
X35507Y-45932D02*
X35522Y-45917D01*
X35552Y-45902D01*
X35627Y-45902D01*
X35657Y-45917D01*
X35672Y-45932D01*
X35687Y-45962D01*
X35687Y-45992D01*
X35672Y-46037D01*
X35492Y-46217D01*
X35687Y-46217D01*
X32377Y-60172D02*
X32482Y-60487D01*
X32587Y-60172D01*
X32872Y-60487D02*
X32767Y-60337D01*
X32692Y-60487D02*
X32692Y-60172D01*
X32812Y-60172D01*
X32842Y-60187D01*
X32857Y-60202D01*
X32872Y-60232D01*
X32872Y-60277D01*
X32857Y-60307D01*
X32842Y-60322D01*
X32812Y-60337D01*
X32692Y-60337D01*
X33172Y-60487D02*
X32992Y-60487D01*
X33082Y-60487D02*
X33082Y-60172D01*
X33052Y-60217D01*
X33022Y-60247D01*
X32992Y-60262D01*
X29537Y-60162D02*
X29642Y-60477D01*
X29747Y-60162D01*
X30032Y-60477D02*
X29927Y-60327D01*
X29852Y-60477D02*
X29852Y-60162D01*
X29972Y-60162D01*
X30002Y-60177D01*
X30017Y-60192D01*
X30032Y-60222D01*
X30032Y-60267D01*
X30017Y-60297D01*
X30002Y-60312D01*
X29972Y-60327D01*
X29852Y-60327D01*
X30152Y-60192D02*
X30167Y-60177D01*
X30197Y-60162D01*
X30272Y-60162D01*
X30302Y-60177D01*
X30317Y-60192D01*
X30332Y-60222D01*
X30332Y-60252D01*
X30317Y-60297D01*
X30137Y-60477D01*
X30332Y-60477D01*
X31897Y-58992D02*
X32002Y-59307D01*
X32107Y-58992D01*
X32392Y-59307D02*
X32287Y-59157D01*
X32212Y-59307D02*
X32212Y-58992D01*
X32332Y-58992D01*
X32362Y-59007D01*
X32377Y-59022D01*
X32392Y-59052D01*
X32392Y-59097D01*
X32377Y-59127D01*
X32362Y-59142D01*
X32332Y-59157D01*
X32212Y-59157D01*
X32497Y-58992D02*
X32692Y-58992D01*
X32587Y-59112D01*
X32632Y-59112D01*
X32662Y-59127D01*
X32677Y-59142D01*
X32692Y-59172D01*
X32692Y-59247D01*
X32677Y-59277D01*
X32662Y-59292D01*
X32632Y-59307D01*
X32542Y-59307D01*
X32512Y-59292D01*
X32497Y-59277D01*
X35617Y-47967D02*
X35602Y-47982D01*
X35557Y-47997D01*
X35527Y-47997D01*
X35482Y-47982D01*
X35452Y-47952D01*
X35437Y-47922D01*
X35422Y-47862D01*
X35422Y-47817D01*
X35437Y-47757D01*
X35452Y-47727D01*
X35482Y-47697D01*
X35527Y-47682D01*
X35557Y-47682D01*
X35602Y-47697D01*
X35617Y-47712D01*
X35737Y-47712D02*
X35752Y-47697D01*
X35782Y-47682D01*
X35857Y-47682D01*
X35887Y-47697D01*
X35902Y-47712D01*
X35917Y-47742D01*
X35917Y-47772D01*
X35902Y-47817D01*
X35722Y-47997D01*
X35917Y-47997D01*
X36097Y-47817D02*
X36067Y-47802D01*
X36052Y-47787D01*
X36037Y-47757D01*
X36037Y-47742D01*
X36052Y-47712D01*
X36067Y-47697D01*
X36097Y-47682D01*
X36157Y-47682D01*
X36187Y-47697D01*
X36202Y-47712D01*
X36217Y-47742D01*
X36217Y-47757D01*
X36202Y-47787D01*
X36187Y-47802D01*
X36157Y-47817D01*
X36097Y-47817D01*
X36067Y-47832D01*
X36052Y-47847D01*
X36037Y-47877D01*
X36037Y-47937D01*
X36052Y-47967D01*
X36067Y-47982D01*
X36097Y-47997D01*
X36157Y-47997D01*
X36187Y-47982D01*
X36202Y-47967D01*
X36217Y-47937D01*
X36217Y-47877D01*
X36202Y-47847D01*
X36187Y-47832D01*
X36157Y-47817D01*
X33149Y-46987D02*
X33137Y-46999D01*
X33101Y-47011D01*
X33077Y-47011D01*
X33042Y-46999D01*
X33018Y-46975D01*
X33006Y-46951D01*
X32994Y-46904D01*
X32994Y-46868D01*
X33006Y-46820D01*
X33018Y-46796D01*
X33042Y-46773D01*
X33077Y-46761D01*
X33101Y-46761D01*
X33137Y-46773D01*
X33149Y-46785D01*
X33244Y-46785D02*
X33256Y-46773D01*
X33280Y-46761D01*
X33339Y-46761D01*
X33363Y-46773D01*
X33375Y-46785D01*
X33387Y-46808D01*
X33387Y-46832D01*
X33375Y-46868D01*
X33232Y-47011D01*
X33387Y-47011D01*
X33542Y-46761D02*
X33565Y-46761D01*
X33589Y-46773D01*
X33601Y-46785D01*
X33613Y-46808D01*
X33625Y-46856D01*
X33625Y-46915D01*
X33613Y-46963D01*
X33601Y-46987D01*
X33589Y-46999D01*
X33565Y-47011D01*
X33542Y-47011D01*
X33518Y-46999D01*
X33506Y-46987D01*
X33494Y-46963D01*
X33482Y-46915D01*
X33482Y-46856D01*
X33494Y-46808D01*
X33506Y-46785D01*
X33518Y-46773D01*
X33542Y-46761D01*
X32937Y-43487D02*
X32922Y-43502D01*
X32877Y-43517D01*
X32847Y-43517D01*
X32802Y-43502D01*
X32772Y-43472D01*
X32757Y-43442D01*
X32742Y-43382D01*
X32742Y-43337D01*
X32757Y-43277D01*
X32772Y-43247D01*
X32802Y-43217D01*
X32847Y-43202D01*
X32877Y-43202D01*
X32922Y-43217D01*
X32937Y-43232D01*
X33207Y-43307D02*
X33207Y-43517D01*
X33132Y-43187D02*
X33057Y-43412D01*
X33252Y-43412D01*
X33537Y-43517D02*
X33357Y-43517D01*
X33447Y-43517D02*
X33447Y-43202D01*
X33417Y-43247D01*
X33387Y-43277D01*
X33357Y-43292D01*
X32607Y-41537D02*
X32592Y-41552D01*
X32547Y-41567D01*
X32517Y-41567D01*
X32472Y-41552D01*
X32442Y-41522D01*
X32427Y-41492D01*
X32412Y-41432D01*
X32412Y-41387D01*
X32427Y-41327D01*
X32442Y-41297D01*
X32472Y-41267D01*
X32517Y-41252D01*
X32547Y-41252D01*
X32592Y-41267D01*
X32607Y-41282D01*
X32907Y-41567D02*
X32727Y-41567D01*
X32817Y-41567D02*
X32817Y-41252D01*
X32787Y-41297D01*
X32757Y-41327D01*
X32727Y-41342D01*
X34177Y-43697D02*
X34162Y-43712D01*
X34117Y-43727D01*
X34087Y-43727D01*
X34042Y-43712D01*
X34012Y-43682D01*
X33997Y-43652D01*
X33982Y-43592D01*
X33982Y-43547D01*
X33997Y-43487D01*
X34012Y-43457D01*
X34042Y-43427D01*
X34087Y-43412D01*
X34117Y-43412D01*
X34162Y-43427D01*
X34177Y-43442D01*
X34297Y-43442D02*
X34312Y-43427D01*
X34342Y-43412D01*
X34417Y-43412D01*
X34447Y-43427D01*
X34462Y-43442D01*
X34477Y-43472D01*
X34477Y-43502D01*
X34462Y-43547D01*
X34282Y-43727D01*
X34477Y-43727D01*
X34762Y-43412D02*
X34612Y-43412D01*
X34597Y-43562D01*
X34612Y-43547D01*
X34642Y-43532D01*
X34717Y-43532D01*
X34747Y-43547D01*
X34762Y-43562D01*
X34777Y-43592D01*
X34777Y-43667D01*
X34762Y-43697D01*
X34747Y-43712D01*
X34717Y-43727D01*
X34642Y-43727D01*
X34612Y-43712D01*
X34597Y-43697D01*
X36439Y-42387D02*
X36427Y-42399D01*
X36391Y-42411D01*
X36367Y-42411D01*
X36332Y-42399D01*
X36308Y-42375D01*
X36296Y-42351D01*
X36284Y-42304D01*
X36284Y-42268D01*
X36296Y-42220D01*
X36308Y-42196D01*
X36332Y-42173D01*
X36367Y-42161D01*
X36391Y-42161D01*
X36427Y-42173D01*
X36439Y-42185D01*
X36534Y-42185D02*
X36546Y-42173D01*
X36570Y-42161D01*
X36629Y-42161D01*
X36653Y-42173D01*
X36665Y-42185D01*
X36677Y-42208D01*
X36677Y-42232D01*
X36665Y-42268D01*
X36522Y-42411D01*
X36677Y-42411D01*
X36891Y-42244D02*
X36891Y-42411D01*
X36832Y-42149D02*
X36772Y-42327D01*
X36927Y-42327D01*
X32907Y-42917D02*
X32892Y-42932D01*
X32847Y-42947D01*
X32817Y-42947D01*
X32772Y-42932D01*
X32742Y-42902D01*
X32727Y-42872D01*
X32712Y-42812D01*
X32712Y-42767D01*
X32727Y-42707D01*
X32742Y-42677D01*
X32772Y-42647D01*
X32817Y-42632D01*
X32847Y-42632D01*
X32892Y-42647D01*
X32907Y-42662D01*
X33027Y-42662D02*
X33042Y-42647D01*
X33072Y-42632D01*
X33147Y-42632D01*
X33177Y-42647D01*
X33192Y-42662D01*
X33207Y-42692D01*
X33207Y-42722D01*
X33192Y-42767D01*
X33012Y-42947D01*
X33207Y-42947D01*
X33507Y-42947D02*
X33327Y-42947D01*
X33417Y-42947D02*
X33417Y-42632D01*
X33387Y-42677D01*
X33357Y-42707D01*
X33327Y-42722D01*
X36277Y-40267D02*
X36262Y-40282D01*
X36217Y-40297D01*
X36187Y-40297D01*
X36142Y-40282D01*
X36112Y-40252D01*
X36097Y-40222D01*
X36082Y-40162D01*
X36082Y-40117D01*
X36097Y-40057D01*
X36112Y-40027D01*
X36142Y-39997D01*
X36187Y-39982D01*
X36217Y-39982D01*
X36262Y-39997D01*
X36277Y-40012D01*
X36397Y-40012D02*
X36412Y-39997D01*
X36442Y-39982D01*
X36517Y-39982D01*
X36547Y-39997D01*
X36562Y-40012D01*
X36577Y-40042D01*
X36577Y-40072D01*
X36562Y-40117D01*
X36382Y-40297D01*
X36577Y-40297D01*
X32439Y-40637D02*
X32427Y-40649D01*
X32391Y-40661D01*
X32367Y-40661D01*
X32332Y-40649D01*
X32308Y-40625D01*
X32296Y-40601D01*
X32284Y-40554D01*
X32284Y-40518D01*
X32296Y-40470D01*
X32308Y-40446D01*
X32332Y-40423D01*
X32367Y-40411D01*
X32391Y-40411D01*
X32427Y-40423D01*
X32439Y-40435D01*
X32653Y-40494D02*
X32653Y-40661D01*
X32594Y-40399D02*
X32534Y-40577D01*
X32689Y-40577D01*
X32832Y-40411D02*
X32855Y-40411D01*
X32879Y-40423D01*
X32891Y-40435D01*
X32903Y-40458D01*
X32915Y-40506D01*
X32915Y-40565D01*
X32903Y-40613D01*
X32891Y-40637D01*
X32879Y-40649D01*
X32855Y-40661D01*
X32832Y-40661D01*
X32808Y-40649D01*
X32796Y-40637D01*
X32784Y-40613D01*
X32772Y-40565D01*
X32772Y-40506D01*
X32784Y-40458D01*
X32796Y-40435D01*
X32808Y-40423D01*
X32832Y-40411D01*
X32439Y-40127D02*
X32427Y-40139D01*
X32391Y-40151D01*
X32367Y-40151D01*
X32332Y-40139D01*
X32308Y-40115D01*
X32296Y-40091D01*
X32284Y-40044D01*
X32284Y-40008D01*
X32296Y-39960D01*
X32308Y-39936D01*
X32332Y-39913D01*
X32367Y-39901D01*
X32391Y-39901D01*
X32427Y-39913D01*
X32439Y-39925D01*
X32677Y-40151D02*
X32534Y-40151D01*
X32605Y-40151D02*
X32605Y-39901D01*
X32582Y-39936D01*
X32558Y-39960D01*
X32534Y-39972D01*
X32796Y-40151D02*
X32844Y-40151D01*
X32867Y-40139D01*
X32879Y-40127D01*
X32903Y-40091D01*
X32915Y-40044D01*
X32915Y-39948D01*
X32903Y-39925D01*
X32891Y-39913D01*
X32867Y-39901D01*
X32820Y-39901D01*
X32796Y-39913D01*
X32784Y-39925D01*
X32772Y-39948D01*
X32772Y-40008D01*
X32784Y-40032D01*
X32796Y-40044D01*
X32820Y-40055D01*
X32867Y-40055D01*
X32891Y-40044D01*
X32903Y-40032D01*
X32915Y-40008D01*
X27377Y-35667D02*
X27362Y-35682D01*
X27317Y-35697D01*
X27287Y-35697D01*
X27242Y-35682D01*
X27212Y-35652D01*
X27197Y-35622D01*
X27182Y-35562D01*
X27182Y-35517D01*
X27197Y-35457D01*
X27212Y-35427D01*
X27242Y-35397D01*
X27287Y-35382D01*
X27317Y-35382D01*
X27362Y-35397D01*
X27377Y-35412D01*
X27677Y-35697D02*
X27497Y-35697D01*
X27587Y-35697D02*
X27587Y-35382D01*
X27557Y-35427D01*
X27527Y-35457D01*
X27497Y-35472D01*
X27797Y-35412D02*
X27812Y-35397D01*
X27842Y-35382D01*
X27917Y-35382D01*
X27947Y-35397D01*
X27962Y-35412D01*
X27977Y-35442D01*
X27977Y-35472D01*
X27962Y-35517D01*
X27782Y-35697D01*
X27977Y-35697D01*
X23402Y-47792D02*
X23387Y-47807D01*
X23342Y-47822D01*
X23312Y-47822D01*
X23267Y-47807D01*
X23237Y-47777D01*
X23222Y-47747D01*
X23207Y-47687D01*
X23207Y-47642D01*
X23222Y-47582D01*
X23237Y-47552D01*
X23267Y-47522D01*
X23312Y-47507D01*
X23342Y-47507D01*
X23387Y-47522D01*
X23402Y-47537D01*
X23522Y-47537D02*
X23537Y-47522D01*
X23567Y-47507D01*
X23642Y-47507D01*
X23672Y-47522D01*
X23687Y-47537D01*
X23702Y-47567D01*
X23702Y-47597D01*
X23687Y-47642D01*
X23507Y-47822D01*
X23702Y-47822D01*
X23822Y-47537D02*
X23837Y-47522D01*
X23867Y-47507D01*
X23942Y-47507D01*
X23972Y-47522D01*
X23987Y-47537D01*
X24002Y-47567D01*
X24002Y-47597D01*
X23987Y-47642D01*
X23807Y-47822D01*
X24002Y-47822D01*
X26387Y-47822D02*
X26372Y-47837D01*
X26327Y-47852D01*
X26297Y-47852D01*
X26252Y-47837D01*
X26222Y-47807D01*
X26207Y-47777D01*
X26192Y-47717D01*
X26192Y-47672D01*
X26207Y-47612D01*
X26222Y-47582D01*
X26252Y-47552D01*
X26297Y-47537D01*
X26327Y-47537D01*
X26372Y-47552D01*
X26387Y-47567D01*
X26687Y-47852D02*
X26507Y-47852D01*
X26597Y-47852D02*
X26597Y-47537D01*
X26567Y-47582D01*
X26537Y-47612D01*
X26507Y-47627D01*
X26987Y-47852D02*
X26807Y-47852D01*
X26897Y-47852D02*
X26897Y-47537D01*
X26867Y-47582D01*
X26837Y-47612D01*
X26807Y-47627D01*
X27357Y-50387D02*
X27342Y-50402D01*
X27297Y-50417D01*
X27267Y-50417D01*
X27222Y-50402D01*
X27192Y-50372D01*
X27177Y-50342D01*
X27162Y-50282D01*
X27162Y-50237D01*
X27177Y-50177D01*
X27192Y-50147D01*
X27222Y-50117D01*
X27267Y-50102D01*
X27297Y-50102D01*
X27342Y-50117D01*
X27357Y-50132D01*
X27657Y-50417D02*
X27477Y-50417D01*
X27567Y-50417D02*
X27567Y-50102D01*
X27537Y-50147D01*
X27507Y-50177D01*
X27477Y-50192D01*
X27927Y-50207D02*
X27927Y-50417D01*
X27852Y-50087D02*
X27777Y-50312D01*
X27972Y-50312D01*
X30607Y-50507D02*
X30592Y-50522D01*
X30547Y-50537D01*
X30517Y-50537D01*
X30472Y-50522D01*
X30442Y-50492D01*
X30427Y-50462D01*
X30412Y-50402D01*
X30412Y-50357D01*
X30427Y-50297D01*
X30442Y-50267D01*
X30472Y-50237D01*
X30517Y-50222D01*
X30547Y-50222D01*
X30592Y-50237D01*
X30607Y-50252D01*
X30907Y-50537D02*
X30727Y-50537D01*
X30817Y-50537D02*
X30817Y-50222D01*
X30787Y-50267D01*
X30757Y-50297D01*
X30727Y-50312D01*
X31012Y-50222D02*
X31222Y-50222D01*
X31087Y-50537D01*
G54D15*
X29121Y-47615D02*
X29383Y-48009D01*
X29383Y-47615D02*
X29121Y-48009D01*
X29496Y-47615D02*
X29758Y-47615D01*
X29590Y-48009D01*
G54D10*
X33797Y-50537D02*
X33782Y-50552D01*
X33737Y-50567D01*
X33707Y-50567D01*
X33662Y-50552D01*
X33632Y-50522D01*
X33617Y-50492D01*
X33602Y-50432D01*
X33602Y-50387D01*
X33617Y-50327D01*
X33632Y-50297D01*
X33662Y-50267D01*
X33707Y-50252D01*
X33737Y-50252D01*
X33782Y-50267D01*
X33797Y-50282D01*
X33902Y-50252D02*
X34097Y-50252D01*
X33992Y-50372D01*
X34037Y-50372D01*
X34067Y-50387D01*
X34082Y-50402D01*
X34097Y-50432D01*
X34097Y-50507D01*
X34082Y-50537D01*
X34067Y-50552D01*
X34037Y-50567D01*
X33947Y-50567D01*
X33917Y-50552D01*
X33902Y-50537D01*
X34367Y-50357D02*
X34367Y-50567D01*
X34292Y-50237D02*
X34217Y-50462D01*
X34412Y-50462D01*
X36097Y-54067D02*
X36082Y-54082D01*
X36037Y-54097D01*
X36007Y-54097D01*
X35962Y-54082D01*
X35932Y-54052D01*
X35917Y-54022D01*
X35902Y-53962D01*
X35902Y-53917D01*
X35917Y-53857D01*
X35932Y-53827D01*
X35962Y-53797D01*
X36007Y-53782D01*
X36037Y-53782D01*
X36082Y-53797D01*
X36097Y-53812D01*
X36217Y-53812D02*
X36232Y-53797D01*
X36262Y-53782D01*
X36337Y-53782D01*
X36367Y-53797D01*
X36382Y-53812D01*
X36397Y-53842D01*
X36397Y-53872D01*
X36382Y-53917D01*
X36202Y-54097D01*
X36397Y-54097D01*
X36502Y-53782D02*
X36712Y-53782D01*
X36577Y-54097D01*
X36847Y-55287D02*
X36832Y-55302D01*
X36787Y-55317D01*
X36757Y-55317D01*
X36712Y-55302D01*
X36682Y-55272D01*
X36667Y-55242D01*
X36652Y-55182D01*
X36652Y-55137D01*
X36667Y-55077D01*
X36682Y-55047D01*
X36712Y-55017D01*
X36757Y-55002D01*
X36787Y-55002D01*
X36832Y-55017D01*
X36847Y-55032D01*
X36967Y-55032D02*
X36982Y-55017D01*
X37012Y-55002D01*
X37087Y-55002D01*
X37117Y-55017D01*
X37132Y-55032D01*
X37147Y-55062D01*
X37147Y-55092D01*
X37132Y-55137D01*
X36952Y-55317D01*
X37147Y-55317D01*
X37252Y-55002D02*
X37447Y-55002D01*
X37342Y-55122D01*
X37387Y-55122D01*
X37417Y-55137D01*
X37432Y-55152D01*
X37447Y-55182D01*
X37447Y-55257D01*
X37432Y-55287D01*
X37417Y-55302D01*
X37387Y-55317D01*
X37297Y-55317D01*
X37267Y-55302D01*
X37252Y-55287D01*
X41277Y-55267D02*
X41262Y-55282D01*
X41217Y-55297D01*
X41187Y-55297D01*
X41142Y-55282D01*
X41112Y-55252D01*
X41097Y-55222D01*
X41082Y-55162D01*
X41082Y-55117D01*
X41097Y-55057D01*
X41112Y-55027D01*
X41142Y-54997D01*
X41187Y-54982D01*
X41217Y-54982D01*
X41262Y-54997D01*
X41277Y-55012D01*
X41397Y-55012D02*
X41412Y-54997D01*
X41442Y-54982D01*
X41517Y-54982D01*
X41547Y-54997D01*
X41562Y-55012D01*
X41577Y-55042D01*
X41577Y-55072D01*
X41562Y-55117D01*
X41382Y-55297D01*
X41577Y-55297D01*
X41847Y-54982D02*
X41787Y-54982D01*
X41757Y-54997D01*
X41742Y-55012D01*
X41712Y-55057D01*
X41697Y-55117D01*
X41697Y-55237D01*
X41712Y-55267D01*
X41727Y-55282D01*
X41757Y-55297D01*
X41817Y-55297D01*
X41847Y-55282D01*
X41862Y-55267D01*
X41877Y-55237D01*
X41877Y-55162D01*
X41862Y-55132D01*
X41847Y-55117D01*
X41817Y-55102D01*
X41757Y-55102D01*
X41727Y-55117D01*
X41712Y-55132D01*
X41697Y-55162D01*
X40677Y-47797D02*
X40662Y-47812D01*
X40617Y-47827D01*
X40587Y-47827D01*
X40542Y-47812D01*
X40512Y-47782D01*
X40497Y-47752D01*
X40482Y-47692D01*
X40482Y-47647D01*
X40497Y-47587D01*
X40512Y-47557D01*
X40542Y-47527D01*
X40587Y-47512D01*
X40617Y-47512D01*
X40662Y-47527D01*
X40677Y-47542D01*
X40782Y-47512D02*
X40977Y-47512D01*
X40872Y-47632D01*
X40917Y-47632D01*
X40947Y-47647D01*
X40962Y-47662D01*
X40977Y-47692D01*
X40977Y-47767D01*
X40962Y-47797D01*
X40947Y-47812D01*
X40917Y-47827D01*
X40827Y-47827D01*
X40797Y-47812D01*
X40782Y-47797D01*
X41082Y-47512D02*
X41292Y-47512D01*
X41157Y-47827D01*
X40667Y-40427D02*
X40652Y-40442D01*
X40607Y-40457D01*
X40577Y-40457D01*
X40532Y-40442D01*
X40502Y-40412D01*
X40487Y-40382D01*
X40472Y-40322D01*
X40472Y-40277D01*
X40487Y-40217D01*
X40502Y-40187D01*
X40532Y-40157D01*
X40577Y-40142D01*
X40607Y-40142D01*
X40652Y-40157D01*
X40667Y-40172D01*
X40772Y-40142D02*
X40967Y-40142D01*
X40862Y-40262D01*
X40907Y-40262D01*
X40937Y-40277D01*
X40952Y-40292D01*
X40967Y-40322D01*
X40967Y-40397D01*
X40952Y-40427D01*
X40937Y-40442D01*
X40907Y-40457D01*
X40817Y-40457D01*
X40787Y-40442D01*
X40772Y-40427D01*
X41087Y-40172D02*
X41102Y-40157D01*
X41132Y-40142D01*
X41207Y-40142D01*
X41237Y-40157D01*
X41252Y-40172D01*
X41267Y-40202D01*
X41267Y-40232D01*
X41252Y-40277D01*
X41072Y-40457D01*
X41267Y-40457D01*
X40647Y-33007D02*
X40632Y-33022D01*
X40587Y-33037D01*
X40557Y-33037D01*
X40512Y-33022D01*
X40482Y-32992D01*
X40467Y-32962D01*
X40452Y-32902D01*
X40452Y-32857D01*
X40467Y-32797D01*
X40482Y-32767D01*
X40512Y-32737D01*
X40557Y-32722D01*
X40587Y-32722D01*
X40632Y-32737D01*
X40647Y-32752D01*
X40752Y-32722D02*
X40947Y-32722D01*
X40842Y-32842D01*
X40887Y-32842D01*
X40917Y-32857D01*
X40932Y-32872D01*
X40947Y-32902D01*
X40947Y-32977D01*
X40932Y-33007D01*
X40917Y-33022D01*
X40887Y-33037D01*
X40797Y-33037D01*
X40767Y-33022D01*
X40752Y-33007D01*
X41247Y-33037D02*
X41067Y-33037D01*
X41157Y-33037D02*
X41157Y-32722D01*
X41127Y-32767D01*
X41097Y-32797D01*
X41067Y-32812D01*
X34147Y-22897D02*
X34132Y-22912D01*
X34087Y-22927D01*
X34057Y-22927D01*
X34012Y-22912D01*
X33982Y-22882D01*
X33967Y-22852D01*
X33952Y-22792D01*
X33952Y-22747D01*
X33967Y-22687D01*
X33982Y-22657D01*
X34012Y-22627D01*
X34057Y-22612D01*
X34087Y-22612D01*
X34132Y-22627D01*
X34147Y-22642D01*
X34447Y-22927D02*
X34267Y-22927D01*
X34357Y-22927D02*
X34357Y-22612D01*
X34327Y-22657D01*
X34297Y-22687D01*
X34267Y-22702D01*
X34717Y-22612D02*
X34657Y-22612D01*
X34627Y-22627D01*
X34612Y-22642D01*
X34582Y-22687D01*
X34567Y-22747D01*
X34567Y-22867D01*
X34582Y-22897D01*
X34597Y-22912D01*
X34627Y-22927D01*
X34687Y-22927D01*
X34717Y-22912D01*
X34732Y-22897D01*
X34747Y-22867D01*
X34747Y-22792D01*
X34732Y-22762D01*
X34717Y-22747D01*
X34687Y-22732D01*
X34627Y-22732D01*
X34597Y-22747D01*
X34582Y-22762D01*
X34567Y-22792D01*
X40557Y-25617D02*
X40542Y-25632D01*
X40497Y-25647D01*
X40467Y-25647D01*
X40422Y-25632D01*
X40392Y-25602D01*
X40377Y-25572D01*
X40362Y-25512D01*
X40362Y-25467D01*
X40377Y-25407D01*
X40392Y-25377D01*
X40422Y-25347D01*
X40467Y-25332D01*
X40497Y-25332D01*
X40542Y-25347D01*
X40557Y-25362D01*
X40662Y-25332D02*
X40857Y-25332D01*
X40752Y-25452D01*
X40797Y-25452D01*
X40827Y-25467D01*
X40842Y-25482D01*
X40857Y-25512D01*
X40857Y-25587D01*
X40842Y-25617D01*
X40827Y-25632D01*
X40797Y-25647D01*
X40707Y-25647D01*
X40677Y-25632D01*
X40662Y-25617D01*
X41052Y-25332D02*
X41082Y-25332D01*
X41112Y-25347D01*
X41127Y-25362D01*
X41142Y-25392D01*
X41157Y-25452D01*
X41157Y-25527D01*
X41142Y-25587D01*
X41127Y-25617D01*
X41112Y-25632D01*
X41082Y-25647D01*
X41052Y-25647D01*
X41022Y-25632D01*
X41007Y-25617D01*
X40992Y-25587D01*
X40977Y-25527D01*
X40977Y-25452D01*
X40992Y-25392D01*
X41007Y-25362D01*
X41022Y-25347D01*
X41052Y-25332D01*
X41297Y-18657D02*
X41282Y-18672D01*
X41237Y-18687D01*
X41207Y-18687D01*
X41162Y-18672D01*
X41132Y-18642D01*
X41117Y-18612D01*
X41102Y-18552D01*
X41102Y-18507D01*
X41117Y-18447D01*
X41132Y-18417D01*
X41162Y-18387D01*
X41207Y-18372D01*
X41237Y-18372D01*
X41282Y-18387D01*
X41297Y-18402D01*
X41402Y-18372D02*
X41597Y-18372D01*
X41492Y-18492D01*
X41537Y-18492D01*
X41567Y-18507D01*
X41582Y-18522D01*
X41597Y-18552D01*
X41597Y-18627D01*
X41582Y-18657D01*
X41567Y-18672D01*
X41537Y-18687D01*
X41447Y-18687D01*
X41417Y-18672D01*
X41402Y-18657D01*
X41882Y-18372D02*
X41732Y-18372D01*
X41717Y-18522D01*
X41732Y-18507D01*
X41762Y-18492D01*
X41837Y-18492D01*
X41867Y-18507D01*
X41882Y-18522D01*
X41897Y-18552D01*
X41897Y-18627D01*
X41882Y-18657D01*
X41867Y-18672D01*
X41837Y-18687D01*
X41762Y-18687D01*
X41732Y-18672D01*
X41717Y-18657D01*
X41287Y-16757D02*
X41272Y-16772D01*
X41227Y-16787D01*
X41197Y-16787D01*
X41152Y-16772D01*
X41122Y-16742D01*
X41107Y-16712D01*
X41092Y-16652D01*
X41092Y-16607D01*
X41107Y-16547D01*
X41122Y-16517D01*
X41152Y-16487D01*
X41197Y-16472D01*
X41227Y-16472D01*
X41272Y-16487D01*
X41287Y-16502D01*
X41392Y-16472D02*
X41587Y-16472D01*
X41482Y-16592D01*
X41527Y-16592D01*
X41557Y-16607D01*
X41572Y-16622D01*
X41587Y-16652D01*
X41587Y-16727D01*
X41572Y-16757D01*
X41557Y-16772D01*
X41527Y-16787D01*
X41437Y-16787D01*
X41407Y-16772D01*
X41392Y-16757D01*
X41692Y-16472D02*
X41887Y-16472D01*
X41782Y-16592D01*
X41827Y-16592D01*
X41857Y-16607D01*
X41872Y-16622D01*
X41887Y-16652D01*
X41887Y-16727D01*
X41872Y-16757D01*
X41857Y-16772D01*
X41827Y-16787D01*
X41737Y-16787D01*
X41707Y-16772D01*
X41692Y-16757D01*
X30247Y-28297D02*
X30232Y-28312D01*
X30187Y-28327D01*
X30157Y-28327D01*
X30112Y-28312D01*
X30082Y-28282D01*
X30067Y-28252D01*
X30052Y-28192D01*
X30052Y-28147D01*
X30067Y-28087D01*
X30082Y-28057D01*
X30112Y-28027D01*
X30157Y-28012D01*
X30187Y-28012D01*
X30232Y-28027D01*
X30247Y-28042D01*
X30367Y-28042D02*
X30382Y-28027D01*
X30412Y-28012D01*
X30487Y-28012D01*
X30517Y-28027D01*
X30532Y-28042D01*
X30547Y-28072D01*
X30547Y-28102D01*
X30532Y-28147D01*
X30352Y-28327D01*
X30547Y-28327D01*
X30697Y-28327D02*
X30757Y-28327D01*
X30787Y-28312D01*
X30802Y-28297D01*
X30832Y-28252D01*
X30847Y-28192D01*
X30847Y-28072D01*
X30832Y-28042D01*
X30817Y-28027D01*
X30787Y-28012D01*
X30727Y-28012D01*
X30697Y-28027D01*
X30682Y-28042D01*
X30667Y-28072D01*
X30667Y-28147D01*
X30682Y-28177D01*
X30697Y-28192D01*
X30727Y-28207D01*
X30787Y-28207D01*
X30817Y-28192D01*
X30832Y-28177D01*
X30847Y-28147D01*
X29947Y-34297D02*
X29932Y-34312D01*
X29887Y-34327D01*
X29857Y-34327D01*
X29812Y-34312D01*
X29782Y-34282D01*
X29767Y-34252D01*
X29752Y-34192D01*
X29752Y-34147D01*
X29767Y-34087D01*
X29782Y-34057D01*
X29812Y-34027D01*
X29857Y-34012D01*
X29887Y-34012D01*
X29932Y-34027D01*
X29947Y-34042D01*
X30247Y-34327D02*
X30067Y-34327D01*
X30157Y-34327D02*
X30157Y-34012D01*
X30127Y-34057D01*
X30097Y-34087D01*
X30067Y-34102D01*
X30352Y-34012D02*
X30547Y-34012D01*
X30442Y-34132D01*
X30487Y-34132D01*
X30517Y-34147D01*
X30532Y-34162D01*
X30547Y-34192D01*
X30547Y-34267D01*
X30532Y-34297D01*
X30517Y-34312D01*
X30487Y-34327D01*
X30397Y-34327D01*
X30367Y-34312D01*
X30352Y-34297D01*
X30477Y-36507D02*
X30462Y-36522D01*
X30417Y-36537D01*
X30387Y-36537D01*
X30342Y-36522D01*
X30312Y-36492D01*
X30297Y-36462D01*
X30282Y-36402D01*
X30282Y-36357D01*
X30297Y-36297D01*
X30312Y-36267D01*
X30342Y-36237D01*
X30387Y-36222D01*
X30417Y-36222D01*
X30462Y-36237D01*
X30477Y-36252D01*
X30777Y-36537D02*
X30597Y-36537D01*
X30687Y-36537D02*
X30687Y-36222D01*
X30657Y-36267D01*
X30627Y-36297D01*
X30597Y-36312D01*
X31062Y-36222D02*
X30912Y-36222D01*
X30897Y-36372D01*
X30912Y-36357D01*
X30942Y-36342D01*
X31017Y-36342D01*
X31047Y-36357D01*
X31062Y-36372D01*
X31077Y-36402D01*
X31077Y-36477D01*
X31062Y-36507D01*
X31047Y-36522D01*
X31017Y-36537D01*
X30942Y-36537D01*
X30912Y-36522D01*
X30897Y-36507D01*
X23847Y-36547D02*
X23832Y-36562D01*
X23787Y-36577D01*
X23757Y-36577D01*
X23712Y-36562D01*
X23682Y-36532D01*
X23667Y-36502D01*
X23652Y-36442D01*
X23652Y-36397D01*
X23667Y-36337D01*
X23682Y-36307D01*
X23712Y-36277D01*
X23757Y-36262D01*
X23787Y-36262D01*
X23832Y-36277D01*
X23847Y-36292D01*
X24027Y-36397D02*
X23997Y-36382D01*
X23982Y-36367D01*
X23967Y-36337D01*
X23967Y-36322D01*
X23982Y-36292D01*
X23997Y-36277D01*
X24027Y-36262D01*
X24087Y-36262D01*
X24117Y-36277D01*
X24132Y-36292D01*
X24147Y-36322D01*
X24147Y-36337D01*
X24132Y-36367D01*
X24117Y-36382D01*
X24087Y-36397D01*
X24027Y-36397D01*
X23997Y-36412D01*
X23982Y-36427D01*
X23967Y-36457D01*
X23967Y-36517D01*
X23982Y-36547D01*
X23997Y-36562D01*
X24027Y-36577D01*
X24087Y-36577D01*
X24117Y-36562D01*
X24132Y-36547D01*
X24147Y-36517D01*
X24147Y-36457D01*
X24132Y-36427D01*
X24117Y-36412D01*
X24087Y-36397D01*
X25747Y-36547D02*
X25732Y-36562D01*
X25687Y-36577D01*
X25657Y-36577D01*
X25612Y-36562D01*
X25582Y-36532D01*
X25567Y-36502D01*
X25552Y-36442D01*
X25552Y-36397D01*
X25567Y-36337D01*
X25582Y-36307D01*
X25612Y-36277D01*
X25657Y-36262D01*
X25687Y-36262D01*
X25732Y-36277D01*
X25747Y-36292D01*
X25852Y-36262D02*
X26047Y-36262D01*
X25942Y-36382D01*
X25987Y-36382D01*
X26017Y-36397D01*
X26032Y-36412D01*
X26047Y-36442D01*
X26047Y-36517D01*
X26032Y-36547D01*
X26017Y-36562D01*
X25987Y-36577D01*
X25897Y-36577D01*
X25867Y-36562D01*
X25852Y-36547D01*
X26197Y-36577D02*
X26257Y-36577D01*
X26287Y-36562D01*
X26302Y-36547D01*
X26332Y-36502D01*
X26347Y-36442D01*
X26347Y-36322D01*
X26332Y-36292D01*
X26317Y-36277D01*
X26287Y-36262D01*
X26227Y-36262D01*
X26197Y-36277D01*
X26182Y-36292D01*
X26167Y-36322D01*
X26167Y-36397D01*
X26182Y-36427D01*
X26197Y-36442D01*
X26227Y-36457D01*
X26287Y-36457D01*
X26317Y-36442D01*
X26332Y-36427D01*
X26347Y-36397D01*
X25737Y-34837D02*
X25722Y-34852D01*
X25677Y-34867D01*
X25647Y-34867D01*
X25602Y-34852D01*
X25572Y-34822D01*
X25557Y-34792D01*
X25542Y-34732D01*
X25542Y-34687D01*
X25557Y-34627D01*
X25572Y-34597D01*
X25602Y-34567D01*
X25647Y-34552D01*
X25677Y-34552D01*
X25722Y-34567D01*
X25737Y-34582D01*
X26037Y-34867D02*
X25857Y-34867D01*
X25947Y-34867D02*
X25947Y-34552D01*
X25917Y-34597D01*
X25887Y-34627D01*
X25857Y-34642D01*
X26232Y-34552D02*
X26262Y-34552D01*
X26292Y-34567D01*
X26307Y-34582D01*
X26322Y-34612D01*
X26337Y-34672D01*
X26337Y-34747D01*
X26322Y-34807D01*
X26307Y-34837D01*
X26292Y-34852D01*
X26262Y-34867D01*
X26232Y-34867D01*
X26202Y-34852D01*
X26187Y-34837D01*
X26172Y-34807D01*
X26157Y-34747D01*
X26157Y-34672D01*
X26172Y-34612D01*
X26187Y-34582D01*
X26202Y-34567D01*
X26232Y-34552D01*
X25370Y-33302D02*
X25370Y-33557D01*
X25385Y-33587D01*
X25400Y-33602D01*
X25430Y-33617D01*
X25490Y-33617D01*
X25520Y-33602D01*
X25535Y-33587D01*
X25550Y-33557D01*
X25550Y-33302D01*
X25864Y-33617D02*
X25685Y-33617D01*
X25774Y-33617D02*
X25774Y-33302D01*
X25745Y-33347D01*
X25715Y-33377D01*
X25685Y-33392D01*
X26134Y-33407D02*
X26134Y-33617D01*
X26059Y-33287D02*
X25984Y-33512D01*
X26179Y-33512D01*
X24350Y-32952D02*
X24455Y-32952D01*
X24500Y-33117D02*
X24350Y-33117D01*
X24350Y-32802D01*
X24500Y-32802D01*
X24635Y-32952D02*
X24740Y-32952D01*
X24785Y-33117D02*
X24635Y-33117D01*
X24635Y-32802D01*
X24785Y-32802D01*
X24920Y-33117D02*
X24920Y-32802D01*
X25040Y-32802D01*
X25070Y-32817D01*
X25085Y-32832D01*
X25100Y-32862D01*
X25100Y-32907D01*
X25085Y-32937D01*
X25070Y-32952D01*
X25040Y-32967D01*
X24920Y-32967D01*
X25414Y-33117D02*
X25309Y-32967D01*
X25234Y-33117D02*
X25234Y-32802D01*
X25354Y-32802D01*
X25384Y-32817D01*
X25399Y-32832D01*
X25414Y-32862D01*
X25414Y-32907D01*
X25399Y-32937D01*
X25384Y-32952D01*
X25354Y-32967D01*
X25234Y-32967D01*
X25609Y-32802D02*
X25669Y-32802D01*
X25699Y-32817D01*
X25729Y-32847D01*
X25744Y-32907D01*
X25744Y-33012D01*
X25729Y-33072D01*
X25699Y-33102D01*
X25669Y-33117D01*
X25609Y-33117D01*
X25579Y-33102D01*
X25549Y-33072D01*
X25534Y-33012D01*
X25534Y-32907D01*
X25549Y-32847D01*
X25579Y-32817D01*
X25609Y-32802D01*
X25879Y-33117D02*
X25879Y-32802D01*
X25984Y-33027D01*
X26089Y-32802D01*
X26089Y-33117D01*
X20747Y-41277D02*
X20732Y-41292D01*
X20687Y-41307D01*
X20657Y-41307D01*
X20612Y-41292D01*
X20582Y-41262D01*
X20567Y-41232D01*
X20552Y-41172D01*
X20552Y-41127D01*
X20567Y-41067D01*
X20582Y-41037D01*
X20612Y-41007D01*
X20657Y-40992D01*
X20687Y-40992D01*
X20732Y-41007D01*
X20747Y-41022D01*
X20852Y-40992D02*
X21047Y-40992D01*
X20942Y-41112D01*
X20987Y-41112D01*
X21017Y-41127D01*
X21032Y-41142D01*
X21047Y-41172D01*
X21047Y-41247D01*
X21032Y-41277D01*
X21017Y-41292D01*
X20987Y-41307D01*
X20897Y-41307D01*
X20867Y-41292D01*
X20852Y-41277D01*
X21227Y-41127D02*
X21197Y-41112D01*
X21182Y-41097D01*
X21167Y-41067D01*
X21167Y-41052D01*
X21182Y-41022D01*
X21197Y-41007D01*
X21227Y-40992D01*
X21287Y-40992D01*
X21317Y-41007D01*
X21332Y-41022D01*
X21347Y-41052D01*
X21347Y-41067D01*
X21332Y-41097D01*
X21317Y-41112D01*
X21287Y-41127D01*
X21227Y-41127D01*
X21197Y-41142D01*
X21182Y-41157D01*
X21167Y-41187D01*
X21167Y-41247D01*
X21182Y-41277D01*
X21197Y-41292D01*
X21227Y-41307D01*
X21287Y-41307D01*
X21317Y-41292D01*
X21332Y-41277D01*
X21347Y-41247D01*
X21347Y-41187D01*
X21332Y-41157D01*
X21317Y-41142D01*
X21287Y-41127D01*
X21017Y-42057D02*
X21002Y-42072D01*
X20957Y-42087D01*
X20927Y-42087D01*
X20882Y-42072D01*
X20852Y-42042D01*
X20837Y-42012D01*
X20822Y-41952D01*
X20822Y-41907D01*
X20837Y-41847D01*
X20852Y-41817D01*
X20882Y-41787D01*
X20927Y-41772D01*
X20957Y-41772D01*
X21002Y-41787D01*
X21017Y-41802D01*
X21122Y-41772D02*
X21317Y-41772D01*
X21212Y-41892D01*
X21257Y-41892D01*
X21287Y-41907D01*
X21302Y-41922D01*
X21317Y-41952D01*
X21317Y-42027D01*
X21302Y-42057D01*
X21287Y-42072D01*
X21257Y-42087D01*
X21167Y-42087D01*
X21137Y-42072D01*
X21122Y-42057D01*
X27347Y-55797D02*
X27332Y-55812D01*
X27287Y-55827D01*
X27257Y-55827D01*
X27212Y-55812D01*
X27182Y-55782D01*
X27167Y-55752D01*
X27152Y-55692D01*
X27152Y-55647D01*
X27167Y-55587D01*
X27182Y-55557D01*
X27212Y-55527D01*
X27257Y-55512D01*
X27287Y-55512D01*
X27332Y-55527D01*
X27347Y-55542D01*
X27497Y-55827D02*
X27557Y-55827D01*
X27587Y-55812D01*
X27602Y-55797D01*
X27632Y-55752D01*
X27647Y-55692D01*
X27647Y-55572D01*
X27632Y-55542D01*
X27617Y-55527D01*
X27587Y-55512D01*
X27527Y-55512D01*
X27497Y-55527D01*
X27482Y-55542D01*
X27467Y-55572D01*
X27467Y-55647D01*
X27482Y-55677D01*
X27497Y-55692D01*
X27527Y-55707D01*
X27587Y-55707D01*
X27617Y-55692D01*
X27632Y-55677D01*
X27647Y-55647D01*
X23797Y-55847D02*
X23782Y-55862D01*
X23737Y-55877D01*
X23707Y-55877D01*
X23662Y-55862D01*
X23632Y-55832D01*
X23617Y-55802D01*
X23602Y-55742D01*
X23602Y-55697D01*
X23617Y-55637D01*
X23632Y-55607D01*
X23662Y-55577D01*
X23707Y-55562D01*
X23737Y-55562D01*
X23782Y-55577D01*
X23797Y-55592D01*
X24082Y-55562D02*
X23932Y-55562D01*
X23917Y-55712D01*
X23932Y-55697D01*
X23962Y-55682D01*
X24037Y-55682D01*
X24067Y-55697D01*
X24082Y-55712D01*
X24097Y-55742D01*
X24097Y-55817D01*
X24082Y-55847D01*
X24067Y-55862D01*
X24037Y-55877D01*
X23962Y-55877D01*
X23932Y-55862D01*
X23917Y-55847D01*
X12732Y-19597D02*
X12717Y-19612D01*
X12672Y-19627D01*
X12642Y-19627D01*
X12597Y-19612D01*
X12567Y-19582D01*
X12552Y-19552D01*
X12537Y-19492D01*
X12537Y-19447D01*
X12552Y-19387D01*
X12567Y-19357D01*
X12597Y-19327D01*
X12642Y-19312D01*
X12672Y-19312D01*
X12717Y-19327D01*
X12732Y-19342D01*
X12852Y-19537D02*
X13002Y-19537D01*
X12822Y-19627D02*
X12927Y-19312D01*
X13032Y-19627D01*
X13137Y-19627D02*
X13137Y-19312D01*
X13242Y-19537D01*
X13347Y-19312D01*
X13347Y-19627D01*
X13557Y-19312D02*
X13587Y-19312D01*
X13617Y-19327D01*
X13632Y-19342D01*
X13647Y-19372D01*
X13662Y-19432D01*
X13662Y-19507D01*
X13647Y-19567D01*
X13632Y-19597D01*
X13617Y-19612D01*
X13587Y-19627D01*
X13557Y-19627D01*
X13527Y-19612D01*
X13512Y-19597D01*
X13497Y-19567D01*
X13482Y-19507D01*
X13482Y-19432D01*
X13497Y-19372D01*
X13512Y-19342D01*
X13527Y-19327D01*
X13557Y-19312D01*
X11805Y-21797D02*
X11790Y-21812D01*
X11745Y-21827D01*
X11715Y-21827D01*
X11670Y-21812D01*
X11640Y-21782D01*
X11625Y-21752D01*
X11610Y-21692D01*
X11610Y-21647D01*
X11625Y-21587D01*
X11640Y-21557D01*
X11670Y-21527D01*
X11715Y-21512D01*
X11745Y-21512D01*
X11790Y-21527D01*
X11805Y-21542D01*
X11925Y-21737D02*
X12075Y-21737D01*
X11895Y-21827D02*
X12000Y-21512D01*
X12105Y-21827D01*
X12210Y-21827D02*
X12210Y-21512D01*
X12315Y-21737D01*
X12420Y-21512D01*
X12420Y-21827D01*
X12795Y-21497D02*
X12525Y-21902D01*
X13004Y-21662D02*
X12900Y-21662D01*
X12900Y-21827D02*
X12900Y-21512D01*
X13049Y-21512D01*
X13319Y-21827D02*
X13169Y-21827D01*
X13169Y-21512D01*
X13409Y-21737D02*
X13559Y-21737D01*
X13379Y-21827D02*
X13484Y-21512D01*
X13589Y-21827D01*
X13679Y-21812D02*
X13724Y-21827D01*
X13799Y-21827D01*
X13829Y-21812D01*
X13844Y-21797D01*
X13859Y-21767D01*
X13859Y-21737D01*
X13844Y-21707D01*
X13829Y-21692D01*
X13799Y-21677D01*
X13739Y-21662D01*
X13709Y-21647D01*
X13694Y-21632D01*
X13679Y-21602D01*
X13679Y-21572D01*
X13694Y-21542D01*
X13709Y-21527D01*
X13739Y-21512D01*
X13814Y-21512D01*
X13859Y-21527D01*
X13994Y-21827D02*
X13994Y-21512D01*
X13994Y-21662D02*
X14174Y-21662D01*
X14174Y-21827D02*
X14174Y-21512D01*
X12732Y-25097D02*
X12717Y-25112D01*
X12672Y-25127D01*
X12642Y-25127D01*
X12597Y-25112D01*
X12567Y-25082D01*
X12552Y-25052D01*
X12537Y-24992D01*
X12537Y-24947D01*
X12552Y-24887D01*
X12567Y-24857D01*
X12597Y-24827D01*
X12642Y-24812D01*
X12672Y-24812D01*
X12717Y-24827D01*
X12732Y-24842D01*
X12852Y-25037D02*
X13002Y-25037D01*
X12822Y-25127D02*
X12927Y-24812D01*
X13032Y-25127D01*
X13137Y-25127D02*
X13137Y-24812D01*
X13242Y-25037D01*
X13347Y-24812D01*
X13347Y-25127D01*
X13662Y-25127D02*
X13482Y-25127D01*
X13572Y-25127D02*
X13572Y-24812D01*
X13542Y-24857D01*
X13512Y-24887D01*
X13482Y-24902D01*
X11805Y-27297D02*
X11790Y-27312D01*
X11745Y-27327D01*
X11715Y-27327D01*
X11670Y-27312D01*
X11640Y-27282D01*
X11625Y-27252D01*
X11610Y-27192D01*
X11610Y-27147D01*
X11625Y-27087D01*
X11640Y-27057D01*
X11670Y-27027D01*
X11715Y-27012D01*
X11745Y-27012D01*
X11790Y-27027D01*
X11805Y-27042D01*
X11925Y-27237D02*
X12075Y-27237D01*
X11895Y-27327D02*
X12000Y-27012D01*
X12105Y-27327D01*
X12210Y-27327D02*
X12210Y-27012D01*
X12315Y-27237D01*
X12420Y-27012D01*
X12420Y-27327D01*
X12795Y-26997D02*
X12525Y-27402D01*
X13004Y-27162D02*
X12900Y-27162D01*
X12900Y-27327D02*
X12900Y-27012D01*
X13049Y-27012D01*
X13319Y-27327D02*
X13169Y-27327D01*
X13169Y-27012D01*
X13409Y-27237D02*
X13559Y-27237D01*
X13379Y-27327D02*
X13484Y-27012D01*
X13589Y-27327D01*
X13679Y-27312D02*
X13724Y-27327D01*
X13799Y-27327D01*
X13829Y-27312D01*
X13844Y-27297D01*
X13859Y-27267D01*
X13859Y-27237D01*
X13844Y-27207D01*
X13829Y-27192D01*
X13799Y-27177D01*
X13739Y-27162D01*
X13709Y-27147D01*
X13694Y-27132D01*
X13679Y-27102D01*
X13679Y-27072D01*
X13694Y-27042D01*
X13709Y-27027D01*
X13739Y-27012D01*
X13814Y-27012D01*
X13859Y-27027D01*
X13994Y-27327D02*
X13994Y-27012D01*
X13994Y-27162D02*
X14174Y-27162D01*
X14174Y-27327D02*
X14174Y-27012D01*
X12732Y-30597D02*
X12717Y-30612D01*
X12672Y-30627D01*
X12642Y-30627D01*
X12597Y-30612D01*
X12567Y-30582D01*
X12552Y-30552D01*
X12537Y-30492D01*
X12537Y-30447D01*
X12552Y-30387D01*
X12567Y-30357D01*
X12597Y-30327D01*
X12642Y-30312D01*
X12672Y-30312D01*
X12717Y-30327D01*
X12732Y-30342D01*
X12852Y-30537D02*
X13002Y-30537D01*
X12822Y-30627D02*
X12927Y-30312D01*
X13032Y-30627D01*
X13137Y-30627D02*
X13137Y-30312D01*
X13242Y-30537D01*
X13347Y-30312D01*
X13347Y-30627D01*
X13482Y-30342D02*
X13497Y-30327D01*
X13527Y-30312D01*
X13602Y-30312D01*
X13632Y-30327D01*
X13647Y-30342D01*
X13662Y-30372D01*
X13662Y-30402D01*
X13647Y-30447D01*
X13467Y-30627D01*
X13662Y-30627D01*
X11805Y-32797D02*
X11790Y-32812D01*
X11745Y-32827D01*
X11715Y-32827D01*
X11670Y-32812D01*
X11640Y-32782D01*
X11625Y-32752D01*
X11610Y-32692D01*
X11610Y-32647D01*
X11625Y-32587D01*
X11640Y-32557D01*
X11670Y-32527D01*
X11715Y-32512D01*
X11745Y-32512D01*
X11790Y-32527D01*
X11805Y-32542D01*
X11925Y-32737D02*
X12075Y-32737D01*
X11895Y-32827D02*
X12000Y-32512D01*
X12105Y-32827D01*
X12210Y-32827D02*
X12210Y-32512D01*
X12315Y-32737D01*
X12420Y-32512D01*
X12420Y-32827D01*
X12795Y-32497D02*
X12525Y-32902D01*
X13004Y-32662D02*
X12900Y-32662D01*
X12900Y-32827D02*
X12900Y-32512D01*
X13049Y-32512D01*
X13319Y-32827D02*
X13169Y-32827D01*
X13169Y-32512D01*
X13409Y-32737D02*
X13559Y-32737D01*
X13379Y-32827D02*
X13484Y-32512D01*
X13589Y-32827D01*
X13679Y-32812D02*
X13724Y-32827D01*
X13799Y-32827D01*
X13829Y-32812D01*
X13844Y-32797D01*
X13859Y-32767D01*
X13859Y-32737D01*
X13844Y-32707D01*
X13829Y-32692D01*
X13799Y-32677D01*
X13739Y-32662D01*
X13709Y-32647D01*
X13694Y-32632D01*
X13679Y-32602D01*
X13679Y-32572D01*
X13694Y-32542D01*
X13709Y-32527D01*
X13739Y-32512D01*
X13814Y-32512D01*
X13859Y-32527D01*
X13994Y-32827D02*
X13994Y-32512D01*
X13994Y-32662D02*
X14174Y-32662D01*
X14174Y-32827D02*
X14174Y-32512D01*
X12732Y-36097D02*
X12717Y-36112D01*
X12672Y-36127D01*
X12642Y-36127D01*
X12597Y-36112D01*
X12567Y-36082D01*
X12552Y-36052D01*
X12537Y-35992D01*
X12537Y-35947D01*
X12552Y-35887D01*
X12567Y-35857D01*
X12597Y-35827D01*
X12642Y-35812D01*
X12672Y-35812D01*
X12717Y-35827D01*
X12732Y-35842D01*
X12852Y-36037D02*
X13002Y-36037D01*
X12822Y-36127D02*
X12927Y-35812D01*
X13032Y-36127D01*
X13137Y-36127D02*
X13137Y-35812D01*
X13242Y-36037D01*
X13347Y-35812D01*
X13347Y-36127D01*
X13467Y-35812D02*
X13662Y-35812D01*
X13557Y-35932D01*
X13602Y-35932D01*
X13632Y-35947D01*
X13647Y-35962D01*
X13662Y-35992D01*
X13662Y-36067D01*
X13647Y-36097D01*
X13632Y-36112D01*
X13602Y-36127D01*
X13512Y-36127D01*
X13482Y-36112D01*
X13467Y-36097D01*
X11805Y-38297D02*
X11790Y-38312D01*
X11745Y-38327D01*
X11715Y-38327D01*
X11670Y-38312D01*
X11640Y-38282D01*
X11625Y-38252D01*
X11610Y-38192D01*
X11610Y-38147D01*
X11625Y-38087D01*
X11640Y-38057D01*
X11670Y-38027D01*
X11715Y-38012D01*
X11745Y-38012D01*
X11790Y-38027D01*
X11805Y-38042D01*
X11925Y-38237D02*
X12075Y-38237D01*
X11895Y-38327D02*
X12000Y-38012D01*
X12105Y-38327D01*
X12210Y-38327D02*
X12210Y-38012D01*
X12315Y-38237D01*
X12420Y-38012D01*
X12420Y-38327D01*
X12795Y-37997D02*
X12525Y-38402D01*
X13004Y-38162D02*
X12900Y-38162D01*
X12900Y-38327D02*
X12900Y-38012D01*
X13049Y-38012D01*
X13319Y-38327D02*
X13169Y-38327D01*
X13169Y-38012D01*
X13409Y-38237D02*
X13559Y-38237D01*
X13379Y-38327D02*
X13484Y-38012D01*
X13589Y-38327D01*
X13679Y-38312D02*
X13724Y-38327D01*
X13799Y-38327D01*
X13829Y-38312D01*
X13844Y-38297D01*
X13859Y-38267D01*
X13859Y-38237D01*
X13844Y-38207D01*
X13829Y-38192D01*
X13799Y-38177D01*
X13739Y-38162D01*
X13709Y-38147D01*
X13694Y-38132D01*
X13679Y-38102D01*
X13679Y-38072D01*
X13694Y-38042D01*
X13709Y-38027D01*
X13739Y-38012D01*
X13814Y-38012D01*
X13859Y-38027D01*
X13994Y-38327D02*
X13994Y-38012D01*
X13994Y-38162D02*
X14174Y-38162D01*
X14174Y-38327D02*
X14174Y-38012D01*
X12732Y-41597D02*
X12717Y-41612D01*
X12672Y-41627D01*
X12642Y-41627D01*
X12597Y-41612D01*
X12567Y-41582D01*
X12552Y-41552D01*
X12537Y-41492D01*
X12537Y-41447D01*
X12552Y-41387D01*
X12567Y-41357D01*
X12597Y-41327D01*
X12642Y-41312D01*
X12672Y-41312D01*
X12717Y-41327D01*
X12732Y-41342D01*
X12852Y-41537D02*
X13002Y-41537D01*
X12822Y-41627D02*
X12927Y-41312D01*
X13032Y-41627D01*
X13137Y-41627D02*
X13137Y-41312D01*
X13242Y-41537D01*
X13347Y-41312D01*
X13347Y-41627D01*
X13632Y-41417D02*
X13632Y-41627D01*
X13557Y-41297D02*
X13482Y-41522D01*
X13677Y-41522D01*
X11805Y-43797D02*
X11790Y-43812D01*
X11745Y-43827D01*
X11715Y-43827D01*
X11670Y-43812D01*
X11640Y-43782D01*
X11625Y-43752D01*
X11610Y-43692D01*
X11610Y-43647D01*
X11625Y-43587D01*
X11640Y-43557D01*
X11670Y-43527D01*
X11715Y-43512D01*
X11745Y-43512D01*
X11790Y-43527D01*
X11805Y-43542D01*
X11925Y-43737D02*
X12075Y-43737D01*
X11895Y-43827D02*
X12000Y-43512D01*
X12105Y-43827D01*
X12210Y-43827D02*
X12210Y-43512D01*
X12315Y-43737D01*
X12420Y-43512D01*
X12420Y-43827D01*
X12795Y-43497D02*
X12525Y-43902D01*
X13004Y-43662D02*
X12900Y-43662D01*
X12900Y-43827D02*
X12900Y-43512D01*
X13049Y-43512D01*
X13319Y-43827D02*
X13169Y-43827D01*
X13169Y-43512D01*
X13409Y-43737D02*
X13559Y-43737D01*
X13379Y-43827D02*
X13484Y-43512D01*
X13589Y-43827D01*
X13679Y-43812D02*
X13724Y-43827D01*
X13799Y-43827D01*
X13829Y-43812D01*
X13844Y-43797D01*
X13859Y-43767D01*
X13859Y-43737D01*
X13844Y-43707D01*
X13829Y-43692D01*
X13799Y-43677D01*
X13739Y-43662D01*
X13709Y-43647D01*
X13694Y-43632D01*
X13679Y-43602D01*
X13679Y-43572D01*
X13694Y-43542D01*
X13709Y-43527D01*
X13739Y-43512D01*
X13814Y-43512D01*
X13859Y-43527D01*
X13994Y-43827D02*
X13994Y-43512D01*
X13994Y-43662D02*
X14174Y-43662D01*
X14174Y-43827D02*
X14174Y-43512D01*
X12732Y-47097D02*
X12717Y-47112D01*
X12672Y-47127D01*
X12642Y-47127D01*
X12597Y-47112D01*
X12567Y-47082D01*
X12552Y-47052D01*
X12537Y-46992D01*
X12537Y-46947D01*
X12552Y-46887D01*
X12567Y-46857D01*
X12597Y-46827D01*
X12642Y-46812D01*
X12672Y-46812D01*
X12717Y-46827D01*
X12732Y-46842D01*
X12852Y-47037D02*
X13002Y-47037D01*
X12822Y-47127D02*
X12927Y-46812D01*
X13032Y-47127D01*
X13137Y-47127D02*
X13137Y-46812D01*
X13242Y-47037D01*
X13347Y-46812D01*
X13347Y-47127D01*
X13647Y-46812D02*
X13497Y-46812D01*
X13482Y-46962D01*
X13497Y-46947D01*
X13527Y-46932D01*
X13602Y-46932D01*
X13632Y-46947D01*
X13647Y-46962D01*
X13662Y-46992D01*
X13662Y-47067D01*
X13647Y-47097D01*
X13632Y-47112D01*
X13602Y-47127D01*
X13527Y-47127D01*
X13497Y-47112D01*
X13482Y-47097D01*
X11805Y-49297D02*
X11790Y-49312D01*
X11745Y-49327D01*
X11715Y-49327D01*
X11670Y-49312D01*
X11640Y-49282D01*
X11625Y-49252D01*
X11610Y-49192D01*
X11610Y-49147D01*
X11625Y-49087D01*
X11640Y-49057D01*
X11670Y-49027D01*
X11715Y-49012D01*
X11745Y-49012D01*
X11790Y-49027D01*
X11805Y-49042D01*
X11925Y-49237D02*
X12075Y-49237D01*
X11895Y-49327D02*
X12000Y-49012D01*
X12105Y-49327D01*
X12210Y-49327D02*
X12210Y-49012D01*
X12315Y-49237D01*
X12420Y-49012D01*
X12420Y-49327D01*
X12795Y-48997D02*
X12525Y-49402D01*
X13004Y-49162D02*
X12900Y-49162D01*
X12900Y-49327D02*
X12900Y-49012D01*
X13049Y-49012D01*
X13319Y-49327D02*
X13169Y-49327D01*
X13169Y-49012D01*
X13409Y-49237D02*
X13559Y-49237D01*
X13379Y-49327D02*
X13484Y-49012D01*
X13589Y-49327D01*
X13679Y-49312D02*
X13724Y-49327D01*
X13799Y-49327D01*
X13829Y-49312D01*
X13844Y-49297D01*
X13859Y-49267D01*
X13859Y-49237D01*
X13844Y-49207D01*
X13829Y-49192D01*
X13799Y-49177D01*
X13739Y-49162D01*
X13709Y-49147D01*
X13694Y-49132D01*
X13679Y-49102D01*
X13679Y-49072D01*
X13694Y-49042D01*
X13709Y-49027D01*
X13739Y-49012D01*
X13814Y-49012D01*
X13859Y-49027D01*
X13994Y-49327D02*
X13994Y-49012D01*
X13994Y-49162D02*
X14174Y-49162D01*
X14174Y-49327D02*
X14174Y-49012D01*
X12732Y-52597D02*
X12717Y-52612D01*
X12672Y-52627D01*
X12642Y-52627D01*
X12597Y-52612D01*
X12567Y-52582D01*
X12552Y-52552D01*
X12537Y-52492D01*
X12537Y-52447D01*
X12552Y-52387D01*
X12567Y-52357D01*
X12597Y-52327D01*
X12642Y-52312D01*
X12672Y-52312D01*
X12717Y-52327D01*
X12732Y-52342D01*
X12852Y-52537D02*
X13002Y-52537D01*
X12822Y-52627D02*
X12927Y-52312D01*
X13032Y-52627D01*
X13137Y-52627D02*
X13137Y-52312D01*
X13242Y-52537D01*
X13347Y-52312D01*
X13347Y-52627D01*
X13632Y-52312D02*
X13572Y-52312D01*
X13542Y-52327D01*
X13527Y-52342D01*
X13497Y-52387D01*
X13482Y-52447D01*
X13482Y-52567D01*
X13497Y-52597D01*
X13512Y-52612D01*
X13542Y-52627D01*
X13602Y-52627D01*
X13632Y-52612D01*
X13647Y-52597D01*
X13662Y-52567D01*
X13662Y-52492D01*
X13647Y-52462D01*
X13632Y-52447D01*
X13602Y-52432D01*
X13542Y-52432D01*
X13512Y-52447D01*
X13497Y-52462D01*
X13482Y-52492D01*
X11805Y-54797D02*
X11790Y-54812D01*
X11745Y-54827D01*
X11715Y-54827D01*
X11670Y-54812D01*
X11640Y-54782D01*
X11625Y-54752D01*
X11610Y-54692D01*
X11610Y-54647D01*
X11625Y-54587D01*
X11640Y-54557D01*
X11670Y-54527D01*
X11715Y-54512D01*
X11745Y-54512D01*
X11790Y-54527D01*
X11805Y-54542D01*
X11925Y-54737D02*
X12075Y-54737D01*
X11895Y-54827D02*
X12000Y-54512D01*
X12105Y-54827D01*
X12210Y-54827D02*
X12210Y-54512D01*
X12315Y-54737D01*
X12420Y-54512D01*
X12420Y-54827D01*
X12795Y-54497D02*
X12525Y-54902D01*
X13004Y-54662D02*
X12900Y-54662D01*
X12900Y-54827D02*
X12900Y-54512D01*
X13049Y-54512D01*
X13319Y-54827D02*
X13169Y-54827D01*
X13169Y-54512D01*
X13409Y-54737D02*
X13559Y-54737D01*
X13379Y-54827D02*
X13484Y-54512D01*
X13589Y-54827D01*
X13679Y-54812D02*
X13724Y-54827D01*
X13799Y-54827D01*
X13829Y-54812D01*
X13844Y-54797D01*
X13859Y-54767D01*
X13859Y-54737D01*
X13844Y-54707D01*
X13829Y-54692D01*
X13799Y-54677D01*
X13739Y-54662D01*
X13709Y-54647D01*
X13694Y-54632D01*
X13679Y-54602D01*
X13679Y-54572D01*
X13694Y-54542D01*
X13709Y-54527D01*
X13739Y-54512D01*
X13814Y-54512D01*
X13859Y-54527D01*
X13994Y-54827D02*
X13994Y-54512D01*
X13994Y-54662D02*
X14174Y-54662D01*
X14174Y-54827D02*
X14174Y-54512D01*
X12732Y-58097D02*
X12717Y-58112D01*
X12672Y-58127D01*
X12642Y-58127D01*
X12597Y-58112D01*
X12567Y-58082D01*
X12552Y-58052D01*
X12537Y-57992D01*
X12537Y-57947D01*
X12552Y-57887D01*
X12567Y-57857D01*
X12597Y-57827D01*
X12642Y-57812D01*
X12672Y-57812D01*
X12717Y-57827D01*
X12732Y-57842D01*
X12852Y-58037D02*
X13002Y-58037D01*
X12822Y-58127D02*
X12927Y-57812D01*
X13032Y-58127D01*
X13137Y-58127D02*
X13137Y-57812D01*
X13242Y-58037D01*
X13347Y-57812D01*
X13347Y-58127D01*
X13467Y-57812D02*
X13677Y-57812D01*
X13542Y-58127D01*
X11805Y-60297D02*
X11790Y-60312D01*
X11745Y-60327D01*
X11715Y-60327D01*
X11670Y-60312D01*
X11640Y-60282D01*
X11625Y-60252D01*
X11610Y-60192D01*
X11610Y-60147D01*
X11625Y-60087D01*
X11640Y-60057D01*
X11670Y-60027D01*
X11715Y-60012D01*
X11745Y-60012D01*
X11790Y-60027D01*
X11805Y-60042D01*
X11925Y-60237D02*
X12075Y-60237D01*
X11895Y-60327D02*
X12000Y-60012D01*
X12105Y-60327D01*
X12210Y-60327D02*
X12210Y-60012D01*
X12315Y-60237D01*
X12420Y-60012D01*
X12420Y-60327D01*
X12795Y-59997D02*
X12525Y-60402D01*
X13004Y-60162D02*
X12900Y-60162D01*
X12900Y-60327D02*
X12900Y-60012D01*
X13049Y-60012D01*
X13319Y-60327D02*
X13169Y-60327D01*
X13169Y-60012D01*
X13409Y-60237D02*
X13559Y-60237D01*
X13379Y-60327D02*
X13484Y-60012D01*
X13589Y-60327D01*
X13679Y-60312D02*
X13724Y-60327D01*
X13799Y-60327D01*
X13829Y-60312D01*
X13844Y-60297D01*
X13859Y-60267D01*
X13859Y-60237D01*
X13844Y-60207D01*
X13829Y-60192D01*
X13799Y-60177D01*
X13739Y-60162D01*
X13709Y-60147D01*
X13694Y-60132D01*
X13679Y-60102D01*
X13679Y-60072D01*
X13694Y-60042D01*
X13709Y-60027D01*
X13739Y-60012D01*
X13814Y-60012D01*
X13859Y-60027D01*
X13994Y-60327D02*
X13994Y-60012D01*
X13994Y-60162D02*
X14174Y-60162D01*
X14174Y-60327D02*
X14174Y-60012D01*
X30797Y-55897D02*
X30782Y-55912D01*
X30737Y-55927D01*
X30707Y-55927D01*
X30662Y-55912D01*
X30632Y-55882D01*
X30617Y-55852D01*
X30602Y-55792D01*
X30602Y-55747D01*
X30617Y-55687D01*
X30632Y-55657D01*
X30662Y-55627D01*
X30707Y-55612D01*
X30737Y-55612D01*
X30782Y-55627D01*
X30797Y-55642D01*
X30902Y-55612D02*
X31112Y-55612D01*
X30977Y-55927D01*
X28757Y-55877D02*
X28577Y-55877D01*
X28667Y-55877D02*
X28667Y-55562D01*
X28637Y-55607D01*
X28607Y-55637D01*
X28577Y-55652D01*
X28952Y-55562D02*
X28982Y-55562D01*
X29012Y-55577D01*
X29027Y-55592D01*
X29042Y-55622D01*
X29057Y-55682D01*
X29057Y-55757D01*
X29042Y-55817D01*
X29027Y-55847D01*
X29012Y-55862D01*
X28982Y-55877D01*
X28952Y-55877D01*
X28922Y-55862D01*
X28907Y-55847D01*
X28892Y-55817D01*
X28877Y-55757D01*
X28877Y-55682D01*
X28892Y-55622D01*
X28907Y-55592D01*
X28922Y-55577D01*
X28952Y-55562D01*
X29252Y-55562D02*
X29282Y-55562D01*
X29312Y-55577D01*
X29327Y-55592D01*
X29342Y-55622D01*
X29357Y-55682D01*
X29357Y-55757D01*
X29342Y-55817D01*
X29327Y-55847D01*
X29312Y-55862D01*
X29282Y-55877D01*
X29252Y-55877D01*
X29222Y-55862D01*
X29207Y-55847D01*
X29192Y-55817D01*
X29177Y-55757D01*
X29177Y-55682D01*
X29192Y-55622D01*
X29207Y-55592D01*
X29222Y-55577D01*
X29252Y-55562D01*
X29627Y-55667D02*
X29627Y-55877D01*
X29492Y-55667D02*
X29492Y-55832D01*
X29507Y-55862D01*
X29537Y-55877D01*
X29582Y-55877D01*
X29612Y-55862D01*
X29627Y-55847D01*
X29732Y-55667D02*
X29852Y-55667D01*
X29777Y-55877D02*
X29777Y-55607D01*
X29792Y-55577D01*
X29822Y-55562D01*
X29852Y-55562D01*
X30797Y-52197D02*
X30782Y-52212D01*
X30737Y-52227D01*
X30707Y-52227D01*
X30662Y-52212D01*
X30632Y-52182D01*
X30617Y-52152D01*
X30602Y-52092D01*
X30602Y-52047D01*
X30617Y-51987D01*
X30632Y-51957D01*
X30662Y-51927D01*
X30707Y-51912D01*
X30737Y-51912D01*
X30782Y-51927D01*
X30797Y-51942D01*
X31067Y-51912D02*
X31007Y-51912D01*
X30977Y-51927D01*
X30962Y-51942D01*
X30932Y-51987D01*
X30917Y-52047D01*
X30917Y-52167D01*
X30932Y-52197D01*
X30947Y-52212D01*
X30977Y-52227D01*
X31037Y-52227D01*
X31067Y-52212D01*
X31082Y-52197D01*
X31097Y-52167D01*
X31097Y-52092D01*
X31082Y-52062D01*
X31067Y-52047D01*
X31037Y-52032D01*
X30977Y-52032D01*
X30947Y-52047D01*
X30932Y-52062D01*
X30917Y-52092D01*
X28807Y-52227D02*
X28627Y-52227D01*
X28717Y-52227D02*
X28717Y-51912D01*
X28687Y-51957D01*
X28657Y-51987D01*
X28627Y-52002D01*
X29002Y-51912D02*
X29032Y-51912D01*
X29062Y-51927D01*
X29077Y-51942D01*
X29092Y-51972D01*
X29107Y-52032D01*
X29107Y-52107D01*
X29092Y-52167D01*
X29077Y-52197D01*
X29062Y-52212D01*
X29032Y-52227D01*
X29002Y-52227D01*
X28972Y-52212D01*
X28957Y-52197D01*
X28942Y-52167D01*
X28927Y-52107D01*
X28927Y-52032D01*
X28942Y-51972D01*
X28957Y-51942D01*
X28972Y-51927D01*
X29002Y-51912D01*
X29302Y-51912D02*
X29332Y-51912D01*
X29362Y-51927D01*
X29377Y-51942D01*
X29392Y-51972D01*
X29407Y-52032D01*
X29407Y-52107D01*
X29392Y-52167D01*
X29377Y-52197D01*
X29362Y-52212D01*
X29332Y-52227D01*
X29302Y-52227D01*
X29272Y-52212D01*
X29257Y-52197D01*
X29242Y-52167D01*
X29227Y-52107D01*
X29227Y-52032D01*
X29242Y-51972D01*
X29257Y-51942D01*
X29272Y-51927D01*
X29302Y-51912D01*
X29677Y-52017D02*
X29677Y-52227D01*
X29542Y-52017D02*
X29542Y-52182D01*
X29557Y-52212D01*
X29587Y-52227D01*
X29632Y-52227D01*
X29662Y-52212D01*
X29677Y-52197D01*
X29782Y-52017D02*
X29902Y-52017D01*
X29827Y-52227D02*
X29827Y-51957D01*
X29842Y-51927D01*
X29872Y-51912D01*
X29902Y-51912D01*
X32367Y-54627D02*
X32367Y-54312D01*
X32487Y-54312D01*
X32517Y-54327D01*
X32532Y-54342D01*
X32547Y-54372D01*
X32547Y-54417D01*
X32532Y-54447D01*
X32517Y-54462D01*
X32487Y-54477D01*
X32367Y-54477D01*
X32667Y-54342D02*
X32682Y-54327D01*
X32712Y-54312D01*
X32787Y-54312D01*
X32817Y-54327D01*
X32832Y-54342D01*
X32847Y-54372D01*
X32847Y-54402D01*
X32832Y-54447D01*
X32652Y-54627D01*
X32847Y-54627D01*
X32080Y-55107D02*
X31975Y-54957D01*
X31900Y-55107D02*
X31900Y-54792D01*
X32020Y-54792D01*
X32050Y-54807D01*
X32065Y-54822D01*
X32080Y-54852D01*
X32080Y-54897D01*
X32065Y-54927D01*
X32050Y-54942D01*
X32020Y-54957D01*
X31900Y-54957D01*
X32320Y-54942D02*
X32215Y-54942D01*
X32215Y-55107D02*
X32215Y-54792D01*
X32365Y-54792D01*
X32485Y-55107D02*
X32485Y-54792D01*
X32560Y-54792D01*
X32605Y-54807D01*
X32635Y-54837D01*
X32650Y-54867D01*
X32665Y-54927D01*
X32665Y-54972D01*
X32650Y-55032D01*
X32635Y-55062D01*
X32605Y-55092D01*
X32560Y-55107D01*
X32485Y-55107D01*
X32785Y-54822D02*
X32800Y-54807D01*
X32830Y-54792D01*
X32905Y-54792D01*
X32935Y-54807D01*
X32950Y-54822D01*
X32965Y-54852D01*
X32965Y-54882D01*
X32950Y-54927D01*
X32770Y-55107D01*
X32965Y-55107D01*
X33085Y-54822D02*
X33100Y-54807D01*
X33130Y-54792D01*
X33205Y-54792D01*
X33235Y-54807D01*
X33250Y-54822D01*
X33265Y-54852D01*
X33265Y-54882D01*
X33250Y-54927D01*
X33070Y-55107D01*
X33265Y-55107D01*
X33370Y-54792D02*
X33565Y-54792D01*
X33460Y-54912D01*
X33505Y-54912D01*
X33535Y-54927D01*
X33550Y-54942D01*
X33565Y-54972D01*
X33565Y-55047D01*
X33550Y-55077D01*
X33535Y-55092D01*
X33505Y-55107D01*
X33415Y-55107D01*
X33385Y-55092D01*
X33370Y-55077D01*
X33760Y-54792D02*
X33790Y-54792D01*
X33820Y-54807D01*
X33835Y-54822D01*
X33850Y-54852D01*
X33865Y-54912D01*
X33865Y-54987D01*
X33850Y-55047D01*
X33835Y-55077D01*
X33820Y-55092D01*
X33790Y-55107D01*
X33760Y-55107D01*
X33730Y-55092D01*
X33715Y-55077D01*
X33700Y-55047D01*
X33685Y-54987D01*
X33685Y-54912D01*
X33700Y-54852D01*
X33715Y-54822D01*
X33730Y-54807D01*
X33760Y-54792D01*
X34165Y-55107D02*
X33985Y-55107D01*
X34075Y-55107D02*
X34075Y-54792D01*
X34045Y-54837D01*
X34015Y-54867D01*
X33985Y-54882D01*
X34644Y-54942D02*
X34689Y-54957D01*
X34704Y-54972D01*
X34719Y-55002D01*
X34719Y-55047D01*
X34704Y-55077D01*
X34689Y-55092D01*
X34659Y-55107D01*
X34539Y-55107D01*
X34539Y-54792D01*
X34644Y-54792D01*
X34674Y-54807D01*
X34689Y-54822D01*
X34704Y-54852D01*
X34704Y-54882D01*
X34689Y-54912D01*
X34674Y-54927D01*
X34644Y-54942D01*
X34539Y-54942D01*
X34854Y-55107D02*
X34854Y-54897D01*
X34854Y-54957D02*
X34869Y-54927D01*
X34884Y-54912D01*
X34914Y-54897D01*
X34944Y-54897D01*
X35169Y-55092D02*
X35139Y-55107D01*
X35079Y-55107D01*
X35049Y-55092D01*
X35034Y-55062D01*
X35034Y-54942D01*
X35049Y-54912D01*
X35079Y-54897D01*
X35139Y-54897D01*
X35169Y-54912D01*
X35184Y-54942D01*
X35184Y-54972D01*
X35034Y-55002D01*
X35454Y-55107D02*
X35454Y-54942D01*
X35439Y-54912D01*
X35409Y-54897D01*
X35349Y-54897D01*
X35319Y-54912D01*
X35454Y-55092D02*
X35424Y-55107D01*
X35349Y-55107D01*
X35319Y-55092D01*
X35304Y-55062D01*
X35304Y-55032D01*
X35319Y-55002D01*
X35349Y-54987D01*
X35424Y-54987D01*
X35454Y-54972D01*
X35604Y-55107D02*
X35604Y-54792D01*
X35634Y-54987D02*
X35724Y-55107D01*
X35724Y-54897D02*
X35604Y-55017D01*
X35904Y-55107D02*
X35874Y-55092D01*
X35859Y-55077D01*
X35844Y-55047D01*
X35844Y-54957D01*
X35859Y-54927D01*
X35874Y-54912D01*
X35904Y-54897D01*
X35949Y-54897D01*
X35979Y-54912D01*
X35994Y-54927D01*
X36009Y-54957D01*
X36009Y-55047D01*
X35994Y-55077D01*
X35979Y-55092D01*
X35949Y-55107D01*
X35904Y-55107D01*
X36279Y-54897D02*
X36279Y-55107D01*
X36144Y-54897D02*
X36144Y-55062D01*
X36159Y-55092D01*
X36189Y-55107D01*
X36234Y-55107D01*
X36264Y-55092D01*
X36279Y-55077D01*
X36384Y-54897D02*
X36504Y-54897D01*
X36429Y-54792D02*
X36429Y-55062D01*
X36444Y-55092D01*
X36474Y-55107D01*
X36504Y-55107D01*
X23117Y-56537D02*
X23117Y-56222D01*
X23237Y-56222D01*
X23267Y-56237D01*
X23282Y-56252D01*
X23297Y-56282D01*
X23297Y-56327D01*
X23282Y-56357D01*
X23267Y-56372D01*
X23237Y-56387D01*
X23117Y-56387D01*
X23597Y-56537D02*
X23417Y-56537D01*
X23507Y-56537D02*
X23507Y-56222D01*
X23477Y-56267D01*
X23447Y-56297D01*
X23417Y-56312D01*
X23242Y-56682D02*
X23242Y-56907D01*
X23227Y-56952D01*
X23197Y-56982D01*
X23152Y-56997D01*
X23122Y-56997D01*
X23347Y-56682D02*
X23527Y-56682D01*
X23437Y-56997D02*
X23437Y-56682D01*
X23617Y-56907D02*
X23767Y-56907D01*
X23587Y-56997D02*
X23692Y-56682D01*
X23797Y-56997D01*
X24067Y-56697D02*
X24037Y-56682D01*
X23992Y-56682D01*
X23947Y-56697D01*
X23917Y-56727D01*
X23902Y-56757D01*
X23887Y-56817D01*
X23887Y-56862D01*
X23902Y-56922D01*
X23917Y-56952D01*
X23947Y-56982D01*
X23992Y-56997D01*
X24022Y-56997D01*
X24067Y-56982D01*
X24082Y-56967D01*
X24082Y-56862D01*
X24022Y-56862D01*
X36315Y-43422D02*
X36525Y-43737D01*
X36525Y-43422D02*
X36315Y-43737D01*
X36689Y-43557D02*
X36659Y-43542D01*
X36644Y-43527D01*
X36629Y-43497D01*
X36629Y-43482D01*
X36644Y-43452D01*
X36659Y-43437D01*
X36689Y-43422D01*
X36749Y-43422D01*
X36779Y-43437D01*
X36794Y-43452D01*
X36809Y-43482D01*
X36809Y-43497D01*
X36794Y-43527D01*
X36779Y-43542D01*
X36749Y-43557D01*
X36689Y-43557D01*
X36659Y-43572D01*
X36644Y-43587D01*
X36629Y-43617D01*
X36629Y-43677D01*
X36644Y-43707D01*
X36659Y-43722D01*
X36689Y-43737D01*
X36749Y-43737D01*
X36779Y-43722D01*
X36794Y-43707D01*
X36809Y-43677D01*
X36809Y-43617D01*
X36794Y-43587D01*
X36779Y-43572D01*
X36749Y-43557D01*
X35992Y-43821D02*
X36146Y-43821D01*
X36063Y-43916D01*
X36099Y-43916D01*
X36123Y-43928D01*
X36134Y-43940D01*
X36146Y-43964D01*
X36146Y-44023D01*
X36134Y-44047D01*
X36123Y-44059D01*
X36099Y-44071D01*
X36027Y-44071D01*
X36004Y-44059D01*
X35992Y-44047D01*
X36242Y-43845D02*
X36254Y-43833D01*
X36277Y-43821D01*
X36337Y-43821D01*
X36361Y-43833D01*
X36373Y-43845D01*
X36385Y-43868D01*
X36385Y-43892D01*
X36373Y-43928D01*
X36230Y-44071D01*
X36385Y-44071D01*
X36492Y-44071D02*
X36492Y-43821D01*
X36515Y-43975D02*
X36587Y-44071D01*
X36587Y-43904D02*
X36492Y-43999D01*
X36694Y-44071D02*
X36694Y-43821D01*
X36801Y-44071D02*
X36801Y-43940D01*
X36789Y-43916D01*
X36765Y-43904D01*
X36730Y-43904D01*
X36706Y-43916D01*
X36694Y-43928D01*
X36896Y-43904D02*
X37027Y-43904D01*
X36896Y-44071D01*
X37027Y-44071D01*
X29097Y-61037D02*
X29082Y-61052D01*
X29037Y-61067D01*
X29007Y-61067D01*
X28962Y-61052D01*
X28932Y-61022D01*
X28917Y-60992D01*
X28902Y-60932D01*
X28902Y-60887D01*
X28917Y-60827D01*
X28932Y-60797D01*
X28962Y-60767D01*
X29007Y-60752D01*
X29037Y-60752D01*
X29082Y-60767D01*
X29097Y-60782D01*
X29367Y-60857D02*
X29367Y-61067D01*
X29292Y-60737D02*
X29217Y-60962D01*
X29412Y-60962D01*
X24080Y-59512D02*
X24125Y-59527D01*
X24200Y-59527D01*
X24230Y-59512D01*
X24245Y-59497D01*
X24260Y-59467D01*
X24260Y-59437D01*
X24245Y-59407D01*
X24230Y-59392D01*
X24200Y-59377D01*
X24140Y-59362D01*
X24110Y-59347D01*
X24095Y-59332D01*
X24080Y-59302D01*
X24080Y-59272D01*
X24095Y-59242D01*
X24110Y-59227D01*
X24140Y-59212D01*
X24215Y-59212D01*
X24260Y-59227D01*
X24365Y-59212D02*
X24440Y-59527D01*
X24500Y-59302D01*
X24559Y-59527D01*
X24634Y-59212D01*
X24739Y-59242D02*
X24754Y-59227D01*
X24784Y-59212D01*
X24859Y-59212D01*
X24889Y-59227D01*
X24904Y-59242D01*
X24919Y-59272D01*
X24919Y-59302D01*
X24904Y-59347D01*
X24724Y-59527D01*
X24919Y-59527D01*
X24470Y-62582D02*
X24470Y-62837D01*
X24485Y-62867D01*
X24500Y-62882D01*
X24530Y-62897D01*
X24590Y-62897D01*
X24620Y-62882D01*
X24635Y-62867D01*
X24650Y-62837D01*
X24650Y-62582D01*
X24785Y-62882D02*
X24830Y-62897D01*
X24905Y-62897D01*
X24935Y-62882D01*
X24950Y-62867D01*
X24965Y-62837D01*
X24965Y-62807D01*
X24950Y-62777D01*
X24935Y-62762D01*
X24905Y-62747D01*
X24845Y-62732D01*
X24815Y-62717D01*
X24800Y-62702D01*
X24785Y-62672D01*
X24785Y-62642D01*
X24800Y-62612D01*
X24815Y-62597D01*
X24845Y-62582D01*
X24920Y-62582D01*
X24965Y-62597D01*
X25205Y-62732D02*
X25250Y-62747D01*
X25265Y-62762D01*
X25280Y-62792D01*
X25280Y-62837D01*
X25265Y-62867D01*
X25250Y-62882D01*
X25220Y-62897D01*
X25100Y-62897D01*
X25100Y-62582D01*
X25205Y-62582D01*
X25235Y-62597D01*
X25250Y-62612D01*
X25265Y-62642D01*
X25265Y-62672D01*
X25250Y-62702D01*
X25235Y-62717D01*
X25205Y-62732D01*
X25100Y-62732D01*
X25640Y-62567D02*
X25370Y-62972D01*
X25850Y-62732D02*
X25895Y-62747D01*
X25910Y-62762D01*
X25925Y-62792D01*
X25925Y-62837D01*
X25910Y-62867D01*
X25895Y-62882D01*
X25865Y-62897D01*
X25745Y-62897D01*
X25745Y-62582D01*
X25850Y-62582D01*
X25880Y-62597D01*
X25895Y-62612D01*
X25910Y-62642D01*
X25910Y-62672D01*
X25895Y-62702D01*
X25880Y-62717D01*
X25850Y-62732D01*
X25745Y-62732D01*
X26044Y-62807D02*
X26194Y-62807D01*
X26014Y-62897D02*
X26119Y-62582D01*
X26224Y-62897D01*
X26284Y-62582D02*
X26464Y-62582D01*
X26374Y-62897D02*
X26374Y-62582D01*
X26524Y-62582D02*
X26704Y-62582D01*
X26614Y-62897D02*
X26614Y-62582D01*
X26809Y-62732D02*
X26914Y-62732D01*
X26959Y-62897D02*
X26809Y-62897D01*
X26809Y-62582D01*
X26959Y-62582D01*
X27274Y-62897D02*
X27169Y-62747D01*
X27094Y-62897D02*
X27094Y-62582D01*
X27214Y-62582D01*
X27244Y-62597D01*
X27259Y-62612D01*
X27274Y-62642D01*
X27274Y-62687D01*
X27259Y-62717D01*
X27244Y-62732D01*
X27214Y-62747D01*
X27094Y-62747D01*
X27469Y-62747D02*
X27469Y-62897D01*
X27364Y-62582D02*
X27469Y-62747D01*
X27574Y-62582D01*
X30465Y-58522D02*
X30360Y-58522D01*
X30360Y-58687D02*
X30360Y-58372D01*
X30510Y-58372D01*
X30794Y-58687D02*
X30614Y-58687D01*
X30704Y-58687D02*
X30704Y-58372D01*
X30674Y-58417D01*
X30644Y-58447D01*
X30614Y-58462D01*
X28487Y-58142D02*
X28382Y-58142D01*
X28382Y-58307D02*
X28382Y-57992D01*
X28532Y-57992D01*
X28652Y-57992D02*
X28652Y-58247D01*
X28667Y-58277D01*
X28682Y-58292D01*
X28712Y-58307D01*
X28772Y-58307D01*
X28802Y-58292D01*
X28817Y-58277D01*
X28832Y-58247D01*
X28832Y-57992D01*
X28967Y-58292D02*
X29012Y-58307D01*
X29087Y-58307D01*
X29117Y-58292D01*
X29132Y-58277D01*
X29147Y-58247D01*
X29147Y-58217D01*
X29132Y-58187D01*
X29117Y-58172D01*
X29087Y-58157D01*
X29027Y-58142D01*
X28997Y-58127D01*
X28982Y-58112D01*
X28967Y-58082D01*
X28967Y-58052D01*
X28982Y-58022D01*
X28997Y-58007D01*
X29027Y-57992D01*
X29102Y-57992D01*
X29147Y-58007D01*
X29282Y-58142D02*
X29387Y-58142D01*
X29432Y-58307D02*
X29282Y-58307D01*
X29282Y-57992D01*
X29432Y-57992D01*
X20741Y-53750D02*
X20622Y-53834D01*
X20741Y-53893D02*
X20491Y-53893D01*
X20491Y-53798D01*
X20503Y-53774D01*
X20515Y-53762D01*
X20538Y-53750D01*
X20574Y-53750D01*
X20598Y-53762D01*
X20610Y-53774D01*
X20622Y-53798D01*
X20622Y-53893D01*
X20741Y-53512D02*
X20741Y-53655D01*
X20741Y-53584D02*
X20491Y-53584D01*
X20526Y-53607D01*
X20550Y-53631D01*
X20562Y-53655D01*
X20491Y-53429D02*
X20491Y-53262D01*
X20741Y-53369D01*
X21511Y-53750D02*
X21392Y-53834D01*
X21511Y-53893D02*
X21261Y-53893D01*
X21261Y-53798D01*
X21273Y-53774D01*
X21285Y-53762D01*
X21308Y-53750D01*
X21344Y-53750D01*
X21368Y-53762D01*
X21380Y-53774D01*
X21392Y-53798D01*
X21392Y-53893D01*
X21511Y-53512D02*
X21511Y-53655D01*
X21511Y-53584D02*
X21261Y-53584D01*
X21296Y-53607D01*
X21320Y-53631D01*
X21332Y-53655D01*
X21368Y-53369D02*
X21356Y-53393D01*
X21344Y-53405D01*
X21320Y-53417D01*
X21308Y-53417D01*
X21285Y-53405D01*
X21273Y-53393D01*
X21261Y-53369D01*
X21261Y-53322D01*
X21273Y-53298D01*
X21285Y-53286D01*
X21308Y-53274D01*
X21320Y-53274D01*
X21344Y-53286D01*
X21356Y-53298D01*
X21368Y-53322D01*
X21368Y-53369D01*
X21380Y-53393D01*
X21392Y-53405D01*
X21415Y-53417D01*
X21463Y-53417D01*
X21487Y-53405D01*
X21499Y-53393D01*
X21511Y-53369D01*
X21511Y-53322D01*
X21499Y-53298D01*
X21487Y-53286D01*
X21463Y-53274D01*
X21415Y-53274D01*
X21392Y-53286D01*
X21380Y-53298D01*
X21368Y-53322D01*
X22321Y-53750D02*
X22202Y-53834D01*
X22321Y-53893D02*
X22071Y-53893D01*
X22071Y-53798D01*
X22083Y-53774D01*
X22095Y-53762D01*
X22118Y-53750D01*
X22154Y-53750D01*
X22178Y-53762D01*
X22190Y-53774D01*
X22202Y-53798D01*
X22202Y-53893D01*
X22321Y-53512D02*
X22321Y-53655D01*
X22321Y-53584D02*
X22071Y-53584D01*
X22106Y-53607D01*
X22130Y-53631D01*
X22142Y-53655D01*
X22321Y-53393D02*
X22321Y-53345D01*
X22309Y-53322D01*
X22297Y-53310D01*
X22261Y-53286D01*
X22214Y-53274D01*
X22118Y-53274D01*
X22095Y-53286D01*
X22083Y-53298D01*
X22071Y-53322D01*
X22071Y-53369D01*
X22083Y-53393D01*
X22095Y-53405D01*
X22118Y-53417D01*
X22178Y-53417D01*
X22202Y-53405D01*
X22214Y-53393D01*
X22225Y-53369D01*
X22225Y-53322D01*
X22214Y-53298D01*
X22202Y-53286D01*
X22178Y-53274D01*
X23121Y-53750D02*
X23002Y-53834D01*
X23121Y-53893D02*
X22871Y-53893D01*
X22871Y-53798D01*
X22883Y-53774D01*
X22895Y-53762D01*
X22918Y-53750D01*
X22954Y-53750D01*
X22978Y-53762D01*
X22990Y-53774D01*
X23002Y-53798D01*
X23002Y-53893D01*
X22895Y-53655D02*
X22883Y-53643D01*
X22871Y-53619D01*
X22871Y-53560D01*
X22883Y-53536D01*
X22895Y-53524D01*
X22918Y-53512D01*
X22942Y-53512D01*
X22978Y-53524D01*
X23121Y-53667D01*
X23121Y-53512D01*
X22871Y-53357D02*
X22871Y-53334D01*
X22883Y-53310D01*
X22895Y-53298D01*
X22918Y-53286D01*
X22966Y-53274D01*
X23025Y-53274D01*
X23073Y-53286D01*
X23097Y-53298D01*
X23109Y-53310D01*
X23121Y-53334D01*
X23121Y-53357D01*
X23109Y-53381D01*
X23097Y-53393D01*
X23073Y-53405D01*
X23025Y-53417D01*
X22966Y-53417D01*
X22918Y-53405D01*
X22895Y-53393D01*
X22883Y-53381D01*
X22871Y-53357D01*
X23157Y-62887D02*
X23052Y-62737D01*
X22977Y-62887D02*
X22977Y-62572D01*
X23097Y-62572D01*
X23127Y-62587D01*
X23142Y-62602D01*
X23157Y-62632D01*
X23157Y-62677D01*
X23142Y-62707D01*
X23127Y-62722D01*
X23097Y-62737D01*
X22977Y-62737D01*
X23277Y-62602D02*
X23292Y-62587D01*
X23322Y-62572D01*
X23397Y-62572D01*
X23427Y-62587D01*
X23442Y-62602D01*
X23457Y-62632D01*
X23457Y-62662D01*
X23442Y-62707D01*
X23262Y-62887D01*
X23457Y-62887D01*
X23577Y-62602D02*
X23592Y-62587D01*
X23622Y-62572D01*
X23697Y-62572D01*
X23727Y-62587D01*
X23742Y-62602D01*
X23757Y-62632D01*
X23757Y-62662D01*
X23742Y-62707D01*
X23562Y-62887D01*
X23757Y-62887D01*
X33099Y-46361D02*
X33015Y-46242D01*
X32956Y-46361D02*
X32956Y-46111D01*
X33051Y-46111D01*
X33075Y-46123D01*
X33087Y-46135D01*
X33099Y-46158D01*
X33099Y-46194D01*
X33087Y-46218D01*
X33075Y-46230D01*
X33051Y-46242D01*
X32956Y-46242D01*
X33194Y-46135D02*
X33206Y-46123D01*
X33230Y-46111D01*
X33289Y-46111D01*
X33313Y-46123D01*
X33325Y-46135D01*
X33337Y-46158D01*
X33337Y-46182D01*
X33325Y-46218D01*
X33182Y-46361D01*
X33337Y-46361D01*
X33480Y-46218D02*
X33456Y-46206D01*
X33444Y-46194D01*
X33432Y-46170D01*
X33432Y-46158D01*
X33444Y-46135D01*
X33456Y-46123D01*
X33480Y-46111D01*
X33527Y-46111D01*
X33551Y-46123D01*
X33563Y-46135D01*
X33575Y-46158D01*
X33575Y-46170D01*
X33563Y-46194D01*
X33551Y-46206D01*
X33527Y-46218D01*
X33480Y-46218D01*
X33456Y-46230D01*
X33444Y-46242D01*
X33432Y-46265D01*
X33432Y-46313D01*
X33444Y-46337D01*
X33456Y-46349D01*
X33480Y-46361D01*
X33527Y-46361D01*
X33551Y-46349D01*
X33563Y-46337D01*
X33575Y-46313D01*
X33575Y-46265D01*
X33563Y-46242D01*
X33551Y-46230D01*
X33527Y-46218D01*
X33689Y-45961D02*
X33605Y-45842D01*
X33546Y-45961D02*
X33546Y-45711D01*
X33641Y-45711D01*
X33665Y-45723D01*
X33677Y-45735D01*
X33689Y-45758D01*
X33689Y-45794D01*
X33677Y-45818D01*
X33665Y-45830D01*
X33641Y-45842D01*
X33546Y-45842D01*
X33784Y-45735D02*
X33796Y-45723D01*
X33820Y-45711D01*
X33879Y-45711D01*
X33903Y-45723D01*
X33915Y-45735D01*
X33927Y-45758D01*
X33927Y-45782D01*
X33915Y-45818D01*
X33772Y-45961D01*
X33927Y-45961D01*
X34010Y-45711D02*
X34177Y-45711D01*
X34070Y-45961D01*
X36509Y-42011D02*
X36425Y-41892D01*
X36366Y-42011D02*
X36366Y-41761D01*
X36461Y-41761D01*
X36485Y-41773D01*
X36497Y-41785D01*
X36509Y-41808D01*
X36509Y-41844D01*
X36497Y-41868D01*
X36485Y-41880D01*
X36461Y-41892D01*
X36366Y-41892D01*
X36604Y-41785D02*
X36616Y-41773D01*
X36640Y-41761D01*
X36699Y-41761D01*
X36723Y-41773D01*
X36735Y-41785D01*
X36747Y-41808D01*
X36747Y-41832D01*
X36735Y-41868D01*
X36592Y-42011D01*
X36747Y-42011D01*
X36973Y-41761D02*
X36854Y-41761D01*
X36842Y-41880D01*
X36854Y-41868D01*
X36878Y-41856D01*
X36937Y-41856D01*
X36961Y-41868D01*
X36973Y-41880D01*
X36985Y-41904D01*
X36985Y-41963D01*
X36973Y-41987D01*
X36961Y-41999D01*
X36937Y-42011D01*
X36878Y-42011D01*
X36854Y-41999D01*
X36842Y-41987D01*
X33599Y-45041D02*
X33515Y-44922D01*
X33456Y-45041D02*
X33456Y-44791D01*
X33551Y-44791D01*
X33575Y-44803D01*
X33587Y-44815D01*
X33599Y-44838D01*
X33599Y-44874D01*
X33587Y-44898D01*
X33575Y-44910D01*
X33551Y-44922D01*
X33456Y-44922D01*
X33694Y-44815D02*
X33706Y-44803D01*
X33730Y-44791D01*
X33789Y-44791D01*
X33813Y-44803D01*
X33825Y-44815D01*
X33837Y-44838D01*
X33837Y-44862D01*
X33825Y-44898D01*
X33682Y-45041D01*
X33837Y-45041D01*
X34051Y-44791D02*
X34004Y-44791D01*
X33980Y-44803D01*
X33968Y-44815D01*
X33944Y-44850D01*
X33932Y-44898D01*
X33932Y-44993D01*
X33944Y-45017D01*
X33956Y-45029D01*
X33980Y-45041D01*
X34027Y-45041D01*
X34051Y-45029D01*
X34063Y-45017D01*
X34075Y-44993D01*
X34075Y-44934D01*
X34063Y-44910D01*
X34051Y-44898D01*
X34027Y-44886D01*
X33980Y-44886D01*
X33956Y-44898D01*
X33944Y-44910D01*
X33932Y-44934D01*
X36517Y-23827D02*
X36412Y-23677D01*
X36337Y-23827D02*
X36337Y-23512D01*
X36457Y-23512D01*
X36487Y-23527D01*
X36502Y-23542D01*
X36517Y-23572D01*
X36517Y-23617D01*
X36502Y-23647D01*
X36487Y-23662D01*
X36457Y-23677D01*
X36337Y-23677D01*
X36637Y-23542D02*
X36652Y-23527D01*
X36682Y-23512D01*
X36757Y-23512D01*
X36787Y-23527D01*
X36802Y-23542D01*
X36817Y-23572D01*
X36817Y-23602D01*
X36802Y-23647D01*
X36622Y-23827D01*
X36817Y-23827D01*
X37087Y-23617D02*
X37087Y-23827D01*
X37012Y-23497D02*
X36937Y-23722D01*
X37132Y-23722D01*
X39617Y-23847D02*
X39512Y-23697D01*
X39437Y-23847D02*
X39437Y-23532D01*
X39557Y-23532D01*
X39587Y-23547D01*
X39602Y-23562D01*
X39617Y-23592D01*
X39617Y-23637D01*
X39602Y-23667D01*
X39587Y-23682D01*
X39557Y-23697D01*
X39437Y-23697D01*
X39737Y-23562D02*
X39752Y-23547D01*
X39782Y-23532D01*
X39857Y-23532D01*
X39887Y-23547D01*
X39902Y-23562D01*
X39917Y-23592D01*
X39917Y-23622D01*
X39902Y-23667D01*
X39722Y-23847D01*
X39917Y-23847D01*
X40022Y-23532D02*
X40217Y-23532D01*
X40112Y-23652D01*
X40157Y-23652D01*
X40187Y-23667D01*
X40202Y-23682D01*
X40217Y-23712D01*
X40217Y-23787D01*
X40202Y-23817D01*
X40187Y-23832D01*
X40157Y-23847D01*
X40067Y-23847D01*
X40037Y-23832D01*
X40022Y-23817D01*
X13145Y-13712D02*
X13145Y-13937D01*
X13130Y-13982D01*
X13100Y-14012D01*
X13055Y-14027D01*
X13025Y-14027D01*
X13429Y-13712D02*
X13369Y-13712D01*
X13339Y-13727D01*
X13324Y-13742D01*
X13294Y-13787D01*
X13279Y-13847D01*
X13279Y-13967D01*
X13294Y-13997D01*
X13309Y-14012D01*
X13339Y-14027D01*
X13399Y-14027D01*
X13429Y-14012D01*
X13444Y-13997D01*
X13459Y-13967D01*
X13459Y-13892D01*
X13444Y-13862D01*
X13429Y-13847D01*
X13399Y-13832D01*
X13339Y-13832D01*
X13309Y-13847D01*
X13294Y-13862D01*
X13279Y-13892D01*
X25660Y-12437D02*
X25810Y-12437D01*
X25630Y-12527D02*
X25735Y-12212D01*
X25840Y-12527D01*
X25945Y-12212D02*
X25945Y-12467D01*
X25960Y-12497D01*
X25975Y-12512D01*
X26005Y-12527D01*
X26064Y-12527D01*
X26094Y-12512D01*
X26109Y-12497D01*
X26124Y-12467D01*
X26124Y-12212D01*
X26244Y-12212D02*
X26454Y-12527D01*
X26454Y-12212D02*
X26244Y-12527D01*
X13095Y-16282D02*
X13095Y-16507D01*
X13080Y-16552D01*
X13050Y-16582D01*
X13005Y-16597D01*
X12975Y-16597D01*
X13214Y-16282D02*
X13424Y-16282D01*
X13289Y-16597D01*
X25335Y-18362D02*
X25485Y-18362D01*
X25305Y-18452D02*
X25410Y-18137D01*
X25515Y-18452D01*
X25620Y-18137D02*
X25620Y-18392D01*
X25635Y-18422D01*
X25650Y-18437D01*
X25680Y-18452D01*
X25739Y-18452D01*
X25769Y-18437D01*
X25784Y-18422D01*
X25799Y-18392D01*
X25799Y-18137D01*
X25919Y-18137D02*
X26129Y-18452D01*
X26129Y-18137D02*
X25919Y-18452D01*
X27397Y-34502D02*
X27292Y-34352D01*
X27217Y-34502D02*
X27217Y-34187D01*
X27337Y-34187D01*
X27367Y-34202D01*
X27382Y-34217D01*
X27397Y-34247D01*
X27397Y-34292D01*
X27382Y-34322D01*
X27367Y-34337D01*
X27337Y-34352D01*
X27217Y-34352D01*
X27517Y-34217D02*
X27532Y-34202D01*
X27562Y-34187D01*
X27637Y-34187D01*
X27667Y-34202D01*
X27682Y-34217D01*
X27697Y-34247D01*
X27697Y-34277D01*
X27682Y-34322D01*
X27502Y-34502D01*
X27697Y-34502D01*
X27847Y-34502D02*
X27907Y-34502D01*
X27937Y-34487D01*
X27952Y-34472D01*
X27982Y-34427D01*
X27997Y-34367D01*
X27997Y-34247D01*
X27982Y-34217D01*
X27967Y-34202D01*
X27937Y-34187D01*
X27877Y-34187D01*
X27847Y-34202D01*
X27832Y-34217D01*
X27817Y-34247D01*
X27817Y-34322D01*
X27832Y-34352D01*
X27847Y-34367D01*
X27877Y-34382D01*
X27937Y-34382D01*
X27967Y-34367D01*
X27982Y-34352D01*
X27997Y-34322D01*
X27397Y-35127D02*
X27292Y-34977D01*
X27217Y-35127D02*
X27217Y-34812D01*
X27337Y-34812D01*
X27367Y-34827D01*
X27382Y-34842D01*
X27397Y-34872D01*
X27397Y-34917D01*
X27382Y-34947D01*
X27367Y-34962D01*
X27337Y-34977D01*
X27217Y-34977D01*
X27517Y-34842D02*
X27532Y-34827D01*
X27562Y-34812D01*
X27637Y-34812D01*
X27667Y-34827D01*
X27682Y-34842D01*
X27697Y-34872D01*
X27697Y-34902D01*
X27682Y-34947D01*
X27502Y-35127D01*
X27697Y-35127D01*
X27997Y-35127D02*
X27817Y-35127D01*
X27907Y-35127D02*
X27907Y-34812D01*
X27877Y-34857D01*
X27847Y-34887D01*
X27817Y-34902D01*
X36595Y-48302D02*
X36595Y-48527D01*
X36580Y-48572D01*
X36550Y-48602D01*
X36505Y-48617D01*
X36475Y-48617D01*
X36789Y-48437D02*
X36759Y-48422D01*
X36744Y-48407D01*
X36729Y-48377D01*
X36729Y-48362D01*
X36744Y-48332D01*
X36759Y-48317D01*
X36789Y-48302D01*
X36849Y-48302D01*
X36879Y-48317D01*
X36894Y-48332D01*
X36909Y-48362D01*
X36909Y-48377D01*
X36894Y-48407D01*
X36879Y-48422D01*
X36849Y-48437D01*
X36789Y-48437D01*
X36759Y-48452D01*
X36744Y-48467D01*
X36729Y-48497D01*
X36729Y-48557D01*
X36744Y-48587D01*
X36759Y-48602D01*
X36789Y-48617D01*
X36849Y-48617D01*
X36879Y-48602D01*
X36894Y-48587D01*
X36909Y-48557D01*
X36909Y-48497D01*
X36894Y-48467D01*
X36879Y-48452D01*
X36849Y-48437D01*
X36927Y-52532D02*
X36612Y-52532D01*
X36837Y-52427D01*
X36612Y-52322D01*
X36927Y-52322D01*
X36612Y-52112D02*
X36612Y-52052D01*
X36627Y-52022D01*
X36657Y-51992D01*
X36717Y-51977D01*
X36822Y-51977D01*
X36882Y-51992D01*
X36912Y-52022D01*
X36927Y-52052D01*
X36927Y-52112D01*
X36912Y-52142D01*
X36882Y-52172D01*
X36822Y-52187D01*
X36717Y-52187D01*
X36657Y-52172D01*
X36627Y-52142D01*
X36612Y-52112D01*
X36927Y-51842D02*
X36612Y-51842D01*
X36612Y-51767D01*
X36627Y-51722D01*
X36657Y-51692D01*
X36687Y-51677D01*
X36747Y-51662D01*
X36792Y-51662D01*
X36852Y-51677D01*
X36882Y-51692D01*
X36912Y-51722D01*
X36927Y-51767D01*
X36927Y-51842D01*
X36612Y-51527D02*
X36867Y-51527D01*
X36897Y-51512D01*
X36912Y-51497D01*
X36927Y-51467D01*
X36927Y-51407D01*
X36912Y-51377D01*
X36897Y-51362D01*
X36867Y-51347D01*
X36612Y-51347D01*
X36927Y-51047D02*
X36927Y-51197D01*
X36612Y-51197D01*
X36762Y-50942D02*
X36762Y-50837D01*
X36927Y-50792D02*
X36927Y-50942D01*
X36612Y-50942D01*
X36612Y-50792D01*
X36957Y-50732D02*
X36957Y-50492D01*
X36612Y-50447D02*
X36612Y-50252D01*
X36732Y-50357D01*
X36732Y-50312D01*
X36747Y-50282D01*
X36762Y-50267D01*
X36792Y-50252D01*
X36867Y-50252D01*
X36897Y-50267D01*
X36912Y-50282D01*
X36927Y-50312D01*
X36927Y-50402D01*
X36912Y-50432D01*
X36897Y-50447D01*
X36595Y-33522D02*
X36595Y-33747D01*
X36580Y-33792D01*
X36550Y-33822D01*
X36505Y-33837D01*
X36475Y-33837D01*
X36894Y-33522D02*
X36744Y-33522D01*
X36729Y-33672D01*
X36744Y-33657D01*
X36774Y-33642D01*
X36849Y-33642D01*
X36879Y-33657D01*
X36894Y-33672D01*
X36909Y-33702D01*
X36909Y-33777D01*
X36894Y-33807D01*
X36879Y-33822D01*
X36849Y-33837D01*
X36774Y-33837D01*
X36744Y-33822D01*
X36729Y-33807D01*
X36947Y-39692D02*
X36632Y-39692D01*
X36857Y-39587D01*
X36632Y-39482D01*
X36947Y-39482D01*
X36632Y-39272D02*
X36632Y-39212D01*
X36647Y-39182D01*
X36677Y-39152D01*
X36737Y-39137D01*
X36842Y-39137D01*
X36902Y-39152D01*
X36932Y-39182D01*
X36947Y-39212D01*
X36947Y-39272D01*
X36932Y-39302D01*
X36902Y-39332D01*
X36842Y-39347D01*
X36737Y-39347D01*
X36677Y-39332D01*
X36647Y-39302D01*
X36632Y-39272D01*
X36947Y-39002D02*
X36632Y-39002D01*
X36632Y-38927D01*
X36647Y-38882D01*
X36677Y-38852D01*
X36707Y-38837D01*
X36767Y-38822D01*
X36812Y-38822D01*
X36872Y-38837D01*
X36902Y-38852D01*
X36932Y-38882D01*
X36947Y-38927D01*
X36947Y-39002D01*
X36632Y-38687D02*
X36887Y-38687D01*
X36917Y-38672D01*
X36932Y-38657D01*
X36947Y-38627D01*
X36947Y-38567D01*
X36932Y-38537D01*
X36917Y-38522D01*
X36887Y-38507D01*
X36632Y-38507D01*
X36947Y-38207D02*
X36947Y-38357D01*
X36632Y-38357D01*
X36782Y-38102D02*
X36782Y-37997D01*
X36947Y-37952D02*
X36947Y-38102D01*
X36632Y-38102D01*
X36632Y-37952D01*
X36977Y-37892D02*
X36977Y-37652D01*
X36947Y-37412D02*
X36947Y-37592D01*
X36947Y-37502D02*
X36632Y-37502D01*
X36677Y-37532D01*
X36707Y-37562D01*
X36722Y-37592D01*
X36595Y-26122D02*
X36595Y-26347D01*
X36580Y-26392D01*
X36550Y-26422D01*
X36505Y-26437D01*
X36475Y-26437D01*
X36714Y-26122D02*
X36909Y-26122D01*
X36804Y-26242D01*
X36849Y-26242D01*
X36879Y-26257D01*
X36894Y-26272D01*
X36909Y-26302D01*
X36909Y-26377D01*
X36894Y-26407D01*
X36879Y-26422D01*
X36849Y-26437D01*
X36759Y-26437D01*
X36729Y-26422D01*
X36714Y-26407D01*
X36947Y-32292D02*
X36632Y-32292D01*
X36857Y-32187D01*
X36632Y-32082D01*
X36947Y-32082D01*
X36632Y-31872D02*
X36632Y-31812D01*
X36647Y-31782D01*
X36677Y-31752D01*
X36737Y-31737D01*
X36842Y-31737D01*
X36902Y-31752D01*
X36932Y-31782D01*
X36947Y-31812D01*
X36947Y-31872D01*
X36932Y-31902D01*
X36902Y-31932D01*
X36842Y-31947D01*
X36737Y-31947D01*
X36677Y-31932D01*
X36647Y-31902D01*
X36632Y-31872D01*
X36947Y-31602D02*
X36632Y-31602D01*
X36632Y-31527D01*
X36647Y-31482D01*
X36677Y-31452D01*
X36707Y-31437D01*
X36767Y-31422D01*
X36812Y-31422D01*
X36872Y-31437D01*
X36902Y-31452D01*
X36932Y-31482D01*
X36947Y-31527D01*
X36947Y-31602D01*
X36632Y-31287D02*
X36887Y-31287D01*
X36917Y-31272D01*
X36932Y-31257D01*
X36947Y-31227D01*
X36947Y-31167D01*
X36932Y-31137D01*
X36917Y-31122D01*
X36887Y-31107D01*
X36632Y-31107D01*
X36947Y-30807D02*
X36947Y-30957D01*
X36632Y-30957D01*
X36782Y-30702D02*
X36782Y-30597D01*
X36947Y-30552D02*
X36947Y-30702D01*
X36632Y-30702D01*
X36632Y-30552D01*
X36977Y-30492D02*
X36977Y-30252D01*
X36632Y-30117D02*
X36632Y-30087D01*
X36647Y-30057D01*
X36662Y-30042D01*
X36692Y-30027D01*
X36752Y-30012D01*
X36827Y-30012D01*
X36887Y-30027D01*
X36917Y-30042D01*
X36932Y-30057D01*
X36947Y-30087D01*
X36947Y-30117D01*
X36932Y-30147D01*
X36917Y-30162D01*
X36887Y-30177D01*
X36827Y-30192D01*
X36752Y-30192D01*
X36692Y-30177D01*
X36662Y-30162D01*
X36647Y-30147D01*
X36632Y-30117D01*
X36635Y-40912D02*
X36635Y-41137D01*
X36620Y-41182D01*
X36590Y-41212D01*
X36545Y-41227D01*
X36515Y-41227D01*
X36919Y-41017D02*
X36919Y-41227D01*
X36844Y-40897D02*
X36769Y-41122D01*
X36964Y-41122D01*
X36957Y-47092D02*
X36642Y-47092D01*
X36867Y-46987D01*
X36642Y-46882D01*
X36957Y-46882D01*
X36642Y-46672D02*
X36642Y-46612D01*
X36657Y-46582D01*
X36687Y-46552D01*
X36747Y-46537D01*
X36852Y-46537D01*
X36912Y-46552D01*
X36942Y-46582D01*
X36957Y-46612D01*
X36957Y-46672D01*
X36942Y-46702D01*
X36912Y-46732D01*
X36852Y-46747D01*
X36747Y-46747D01*
X36687Y-46732D01*
X36657Y-46702D01*
X36642Y-46672D01*
X36957Y-46402D02*
X36642Y-46402D01*
X36642Y-46327D01*
X36657Y-46282D01*
X36687Y-46252D01*
X36717Y-46237D01*
X36777Y-46222D01*
X36822Y-46222D01*
X36882Y-46237D01*
X36912Y-46252D01*
X36942Y-46282D01*
X36957Y-46327D01*
X36957Y-46402D01*
X36642Y-46087D02*
X36897Y-46087D01*
X36927Y-46072D01*
X36942Y-46057D01*
X36957Y-46027D01*
X36957Y-45967D01*
X36942Y-45937D01*
X36927Y-45922D01*
X36897Y-45907D01*
X36642Y-45907D01*
X36957Y-45607D02*
X36957Y-45757D01*
X36642Y-45757D01*
X36792Y-45502D02*
X36792Y-45397D01*
X36957Y-45352D02*
X36957Y-45502D01*
X36642Y-45502D01*
X36642Y-45352D01*
X36987Y-45292D02*
X36987Y-45052D01*
X36672Y-44992D02*
X36657Y-44977D01*
X36642Y-44947D01*
X36642Y-44872D01*
X36657Y-44842D01*
X36672Y-44827D01*
X36702Y-44812D01*
X36732Y-44812D01*
X36777Y-44827D01*
X36957Y-45007D01*
X36957Y-44812D01*
X36140Y-18677D02*
X35990Y-18677D01*
X35990Y-18362D01*
X36245Y-18677D02*
X36245Y-18362D01*
X36364Y-18362D01*
X36394Y-18377D01*
X36409Y-18392D01*
X36424Y-18422D01*
X36424Y-18467D01*
X36409Y-18497D01*
X36394Y-18512D01*
X36364Y-18527D01*
X36245Y-18527D01*
X36724Y-18677D02*
X36544Y-18677D01*
X36634Y-18677D02*
X36634Y-18362D01*
X36604Y-18407D01*
X36574Y-18437D01*
X36544Y-18452D01*
X36152Y-19277D02*
X36002Y-19277D01*
X36002Y-18962D01*
X36257Y-19277D02*
X36257Y-18962D01*
X36407Y-19277D02*
X36407Y-18962D01*
X36587Y-19277D01*
X36587Y-18962D01*
X36737Y-19277D02*
X36737Y-18962D01*
X36917Y-19277D02*
X36782Y-19097D01*
X36917Y-18962D02*
X36737Y-19142D01*
X36977Y-19307D02*
X37217Y-19307D01*
X37472Y-19277D02*
X37367Y-19127D01*
X37292Y-19277D02*
X37292Y-18962D01*
X37412Y-18962D01*
X37442Y-18977D01*
X37457Y-18992D01*
X37472Y-19022D01*
X37472Y-19067D01*
X37457Y-19097D01*
X37442Y-19112D01*
X37412Y-19127D01*
X37292Y-19127D01*
X37697Y-18962D02*
X37697Y-19187D01*
X37682Y-19232D01*
X37652Y-19262D01*
X37607Y-19277D01*
X37577Y-19277D01*
X38012Y-19277D02*
X37832Y-19277D01*
X37922Y-19277D02*
X37922Y-18962D01*
X37892Y-19007D01*
X37862Y-19037D01*
X37832Y-19052D01*
X38207Y-18962D02*
X38237Y-18962D01*
X38267Y-18977D01*
X38282Y-18992D01*
X38297Y-19022D01*
X38312Y-19082D01*
X38312Y-19157D01*
X38297Y-19217D01*
X38282Y-19247D01*
X38267Y-19262D01*
X38237Y-19277D01*
X38207Y-19277D01*
X38177Y-19262D01*
X38162Y-19247D01*
X38147Y-19217D01*
X38132Y-19157D01*
X38132Y-19082D01*
X38147Y-19022D01*
X38162Y-18992D01*
X38177Y-18977D01*
X38207Y-18962D01*
X25310Y-56162D02*
X25310Y-56417D01*
X25325Y-56447D01*
X25340Y-56462D01*
X25370Y-56477D01*
X25430Y-56477D01*
X25460Y-56462D01*
X25475Y-56447D01*
X25490Y-56417D01*
X25490Y-56162D01*
X25804Y-56477D02*
X25625Y-56477D01*
X25714Y-56477D02*
X25714Y-56162D01*
X25685Y-56207D01*
X25655Y-56237D01*
X25625Y-56252D01*
X25924Y-56192D02*
X25939Y-56177D01*
X25969Y-56162D01*
X26044Y-56162D01*
X26074Y-56177D01*
X26089Y-56192D01*
X26104Y-56222D01*
X26104Y-56252D01*
X26089Y-56297D01*
X25909Y-56477D01*
X26104Y-56477D01*
X24517Y-54112D02*
X24622Y-54427D01*
X24727Y-54112D01*
X25012Y-54427D02*
X24907Y-54277D01*
X24832Y-54427D02*
X24832Y-54112D01*
X24952Y-54112D01*
X24982Y-54127D01*
X24997Y-54142D01*
X25012Y-54172D01*
X25012Y-54217D01*
X24997Y-54247D01*
X24982Y-54262D01*
X24952Y-54277D01*
X24832Y-54277D01*
X25147Y-54262D02*
X25252Y-54262D01*
X25297Y-54427D02*
X25147Y-54427D01*
X25147Y-54112D01*
X25297Y-54112D01*
X25597Y-54127D02*
X25567Y-54112D01*
X25522Y-54112D01*
X25477Y-54127D01*
X25447Y-54157D01*
X25432Y-54187D01*
X25417Y-54247D01*
X25417Y-54292D01*
X25432Y-54352D01*
X25447Y-54382D01*
X25477Y-54412D01*
X25522Y-54427D01*
X25552Y-54427D01*
X25597Y-54412D01*
X25612Y-54397D01*
X25612Y-54292D01*
X25552Y-54292D01*
X25672Y-54457D02*
X25912Y-54457D01*
X25957Y-54112D02*
X26152Y-54112D01*
X26047Y-54232D01*
X26092Y-54232D01*
X26122Y-54247D01*
X26137Y-54262D01*
X26152Y-54292D01*
X26152Y-54367D01*
X26137Y-54397D01*
X26122Y-54412D01*
X26092Y-54427D01*
X26002Y-54427D01*
X25972Y-54412D01*
X25957Y-54397D01*
X26257Y-54112D02*
X26452Y-54112D01*
X26347Y-54232D01*
X26392Y-54232D01*
X26422Y-54247D01*
X26437Y-54262D01*
X26452Y-54292D01*
X26452Y-54367D01*
X26437Y-54397D01*
X26422Y-54412D01*
X26392Y-54427D01*
X26302Y-54427D01*
X26272Y-54412D01*
X26257Y-54397D01*
X33732Y-62737D02*
X33732Y-62842D01*
X33897Y-62842D02*
X33582Y-62842D01*
X33582Y-62692D01*
X33582Y-62617D02*
X33582Y-62437D01*
X33897Y-62527D02*
X33582Y-62527D01*
X33897Y-62332D02*
X33582Y-62332D01*
X33582Y-62257D01*
X33597Y-62212D01*
X33627Y-62182D01*
X33657Y-62167D01*
X33717Y-62152D01*
X33762Y-62152D01*
X33822Y-62167D01*
X33852Y-62182D01*
X33882Y-62212D01*
X33897Y-62257D01*
X33897Y-62332D01*
X33897Y-62017D02*
X33582Y-62017D01*
X33927Y-61942D02*
X33927Y-61702D01*
X33612Y-61642D02*
X33597Y-61627D01*
X33582Y-61597D01*
X33582Y-61522D01*
X33597Y-61492D01*
X33612Y-61477D01*
X33642Y-61462D01*
X33672Y-61462D01*
X33717Y-61477D01*
X33897Y-61657D01*
X33897Y-61462D01*
X33712Y-58354D02*
X33712Y-58459D01*
X33877Y-58459D02*
X33562Y-58459D01*
X33562Y-58309D01*
X33562Y-58234D02*
X33562Y-58054D01*
X33877Y-58144D02*
X33562Y-58144D01*
X33877Y-57949D02*
X33562Y-57949D01*
X33562Y-57874D01*
X33577Y-57829D01*
X33607Y-57799D01*
X33637Y-57784D01*
X33697Y-57769D01*
X33742Y-57769D01*
X33802Y-57784D01*
X33832Y-57799D01*
X33862Y-57829D01*
X33877Y-57874D01*
X33877Y-57949D01*
X33877Y-57634D02*
X33562Y-57634D01*
X33907Y-57559D02*
X33907Y-57320D01*
X33712Y-57140D02*
X33727Y-57095D01*
X33742Y-57080D01*
X33772Y-57065D01*
X33817Y-57065D01*
X33847Y-57080D01*
X33862Y-57095D01*
X33877Y-57125D01*
X33877Y-57245D01*
X33562Y-57245D01*
X33562Y-57140D01*
X33577Y-57110D01*
X33592Y-57095D01*
X33622Y-57080D01*
X33652Y-57080D01*
X33682Y-57095D01*
X33697Y-57110D01*
X33712Y-57140D01*
X33712Y-57245D01*
X33877Y-56780D02*
X33877Y-56930D01*
X33562Y-56930D01*
X33712Y-56675D02*
X33712Y-56570D01*
X33877Y-56525D02*
X33877Y-56675D01*
X33562Y-56675D01*
X33562Y-56525D01*
X19817Y-61717D02*
X19817Y-61402D01*
X19892Y-61402D01*
X19937Y-61417D01*
X19967Y-61447D01*
X19982Y-61477D01*
X19997Y-61537D01*
X19997Y-61582D01*
X19982Y-61642D01*
X19967Y-61672D01*
X19937Y-61702D01*
X19892Y-61717D01*
X19817Y-61717D01*
X20297Y-61717D02*
X20117Y-61717D01*
X20207Y-61717D02*
X20207Y-61402D01*
X20177Y-61447D01*
X20147Y-61477D01*
X20117Y-61492D01*
G54D19*
X20877Y-61993D02*
X20768Y-61993D01*
X20768Y-61763D01*
X20954Y-61872D02*
X21030Y-61872D01*
X21063Y-61993D02*
X20954Y-61993D01*
X20954Y-61763D01*
X21063Y-61763D01*
X21162Y-61993D02*
X21162Y-61763D01*
X21217Y-61763D01*
X21250Y-61774D01*
X21271Y-61795D01*
X21282Y-61817D01*
X21293Y-61861D01*
X21293Y-61894D01*
X21282Y-61938D01*
X21271Y-61960D01*
X21250Y-61982D01*
X21217Y-61993D01*
X21162Y-61993D01*
X21381Y-61785D02*
X21392Y-61774D01*
X21414Y-61763D01*
X21469Y-61763D01*
X21490Y-61774D01*
X21501Y-61785D01*
X21512Y-61806D01*
X21512Y-61828D01*
X21501Y-61861D01*
X21370Y-61993D01*
X21512Y-61993D01*
X21742Y-61971D02*
X21731Y-61982D01*
X21699Y-61993D01*
X21677Y-61993D01*
X21644Y-61982D01*
X21622Y-61960D01*
X21611Y-61938D01*
X21600Y-61894D01*
X21600Y-61861D01*
X21611Y-61817D01*
X21622Y-61795D01*
X21644Y-61774D01*
X21677Y-61763D01*
X21699Y-61763D01*
X21731Y-61774D01*
X21742Y-61785D01*
G54D10*
X22397Y-60362D02*
X22292Y-60212D01*
X22217Y-60362D02*
X22217Y-60047D01*
X22337Y-60047D01*
X22367Y-60062D01*
X22382Y-60077D01*
X22397Y-60107D01*
X22397Y-60152D01*
X22382Y-60182D01*
X22367Y-60197D01*
X22337Y-60212D01*
X22217Y-60212D01*
X22502Y-60047D02*
X22697Y-60047D01*
X22592Y-60167D01*
X22637Y-60167D01*
X22667Y-60182D01*
X22682Y-60197D01*
X22697Y-60227D01*
X22697Y-60302D01*
X22682Y-60332D01*
X22667Y-60347D01*
X22637Y-60362D01*
X22547Y-60362D01*
X22517Y-60347D01*
X22502Y-60332D01*
X22892Y-60047D02*
X22922Y-60047D01*
X22952Y-60062D01*
X22967Y-60077D01*
X22982Y-60107D01*
X22997Y-60167D01*
X22997Y-60242D01*
X22982Y-60302D01*
X22967Y-60332D01*
X22952Y-60347D01*
X22922Y-60362D01*
X22892Y-60362D01*
X22862Y-60347D01*
X22847Y-60332D01*
X22832Y-60302D01*
X22817Y-60242D01*
X22817Y-60167D01*
X22832Y-60107D01*
X22847Y-60077D01*
X22862Y-60062D01*
X22892Y-60047D01*
X30045Y-60612D02*
X30045Y-60837D01*
X30030Y-60882D01*
X30000Y-60912D01*
X29955Y-60927D01*
X29925Y-60927D01*
X30359Y-60927D02*
X30179Y-60927D01*
X30269Y-60927D02*
X30269Y-60612D01*
X30239Y-60657D01*
X30209Y-60687D01*
X30179Y-60702D01*
X33507Y-62032D02*
X33192Y-62032D01*
X33417Y-61927D01*
X33192Y-61822D01*
X33507Y-61822D01*
X33507Y-61672D02*
X33192Y-61672D01*
X33477Y-61342D02*
X33492Y-61357D01*
X33507Y-61402D01*
X33507Y-61432D01*
X33492Y-61477D01*
X33462Y-61507D01*
X33432Y-61522D01*
X33372Y-61537D01*
X33327Y-61537D01*
X33267Y-61522D01*
X33237Y-61507D01*
X33207Y-61477D01*
X33192Y-61432D01*
X33192Y-61402D01*
X33207Y-61357D01*
X33222Y-61342D01*
X33507Y-61027D02*
X33357Y-61132D01*
X33507Y-61207D02*
X33192Y-61207D01*
X33192Y-61087D01*
X33207Y-61057D01*
X33222Y-61042D01*
X33252Y-61027D01*
X33297Y-61027D01*
X33327Y-61042D01*
X33342Y-61057D01*
X33357Y-61087D01*
X33357Y-61207D01*
X33192Y-60832D02*
X33192Y-60772D01*
X33207Y-60742D01*
X33237Y-60712D01*
X33297Y-60697D01*
X33402Y-60697D01*
X33462Y-60712D01*
X33492Y-60742D01*
X33507Y-60772D01*
X33507Y-60832D01*
X33492Y-60862D01*
X33462Y-60892D01*
X33402Y-60907D01*
X33297Y-60907D01*
X33237Y-60892D01*
X33207Y-60862D01*
X33192Y-60832D01*
X33537Y-60637D02*
X33537Y-60397D01*
X33192Y-60322D02*
X33447Y-60322D01*
X33477Y-60307D01*
X33492Y-60292D01*
X33507Y-60262D01*
X33507Y-60202D01*
X33492Y-60172D01*
X33477Y-60157D01*
X33447Y-60142D01*
X33192Y-60142D01*
X33492Y-60007D02*
X33507Y-59962D01*
X33507Y-59887D01*
X33492Y-59857D01*
X33477Y-59842D01*
X33447Y-59827D01*
X33417Y-59827D01*
X33387Y-59842D01*
X33372Y-59857D01*
X33357Y-59887D01*
X33342Y-59947D01*
X33327Y-59977D01*
X33312Y-59992D01*
X33282Y-60007D01*
X33252Y-60007D01*
X33222Y-59992D01*
X33207Y-59977D01*
X33192Y-59947D01*
X33192Y-59872D01*
X33207Y-59827D01*
X33342Y-59587D02*
X33357Y-59542D01*
X33372Y-59527D01*
X33402Y-59512D01*
X33447Y-59512D01*
X33477Y-59527D01*
X33492Y-59542D01*
X33507Y-59572D01*
X33507Y-59692D01*
X33192Y-59692D01*
X33192Y-59587D01*
X33207Y-59557D01*
X33222Y-59542D01*
X33252Y-59527D01*
X33282Y-59527D01*
X33312Y-59542D01*
X33327Y-59557D01*
X33342Y-59587D01*
X33342Y-59692D01*
X19460Y-62562D02*
X19460Y-62817D01*
X19475Y-62847D01*
X19490Y-62862D01*
X19520Y-62877D01*
X19580Y-62877D01*
X19610Y-62862D01*
X19625Y-62847D01*
X19640Y-62817D01*
X19640Y-62562D01*
X19954Y-62877D02*
X19775Y-62877D01*
X19864Y-62877D02*
X19864Y-62562D01*
X19835Y-62607D01*
X19805Y-62637D01*
X19775Y-62652D01*
X20239Y-62562D02*
X20089Y-62562D01*
X20074Y-62712D01*
X20089Y-62697D01*
X20119Y-62682D01*
X20194Y-62682D01*
X20224Y-62697D01*
X20239Y-62712D01*
X20254Y-62742D01*
X20254Y-62817D01*
X20239Y-62847D01*
X20224Y-62862D01*
X20194Y-62877D01*
X20119Y-62877D01*
X20089Y-62862D01*
X20074Y-62847D01*
G54D20*
X16971Y-61050D02*
X16942Y-61035D01*
X16914Y-61007D01*
X16871Y-60964D01*
X16842Y-60950D01*
X16814Y-60950D01*
X16828Y-61021D02*
X16800Y-61007D01*
X16771Y-60978D01*
X16757Y-60921D01*
X16757Y-60821D01*
X16771Y-60764D01*
X16800Y-60735D01*
X16828Y-60721D01*
X16885Y-60721D01*
X16914Y-60735D01*
X16942Y-60764D01*
X16957Y-60821D01*
X16957Y-60921D01*
X16942Y-60978D01*
X16914Y-61007D01*
X16885Y-61021D01*
X16828Y-61021D01*
X17128Y-60850D02*
X17100Y-60835D01*
X17085Y-60821D01*
X17071Y-60792D01*
X17071Y-60778D01*
X17085Y-60750D01*
X17100Y-60735D01*
X17128Y-60721D01*
X17185Y-60721D01*
X17214Y-60735D01*
X17228Y-60750D01*
X17242Y-60778D01*
X17242Y-60792D01*
X17228Y-60821D01*
X17214Y-60835D01*
X17185Y-60850D01*
X17128Y-60850D01*
X17100Y-60864D01*
X17085Y-60878D01*
X17071Y-60907D01*
X17071Y-60964D01*
X17085Y-60992D01*
X17100Y-61007D01*
X17128Y-61021D01*
X17185Y-61021D01*
X17214Y-61007D01*
X17228Y-60992D01*
X17242Y-60964D01*
X17242Y-60907D01*
X17228Y-60878D01*
X17214Y-60864D01*
X17185Y-60850D01*
X16828Y-58650D02*
X16800Y-58635D01*
X16771Y-58607D01*
X16728Y-58564D01*
X16700Y-58550D01*
X16671Y-58550D01*
X16685Y-58621D02*
X16657Y-58607D01*
X16628Y-58578D01*
X16614Y-58521D01*
X16614Y-58421D01*
X16628Y-58364D01*
X16657Y-58335D01*
X16685Y-58321D01*
X16742Y-58321D01*
X16771Y-58335D01*
X16800Y-58364D01*
X16814Y-58421D01*
X16814Y-58521D01*
X16800Y-58578D01*
X16771Y-58607D01*
X16742Y-58621D01*
X16685Y-58621D01*
X17100Y-58621D02*
X16928Y-58621D01*
X17014Y-58621D02*
X17014Y-58321D01*
X16985Y-58364D01*
X16957Y-58392D01*
X16928Y-58407D01*
X17357Y-58321D02*
X17300Y-58321D01*
X17271Y-58335D01*
X17257Y-58350D01*
X17228Y-58392D01*
X17214Y-58450D01*
X17214Y-58564D01*
X17228Y-58592D01*
X17242Y-58607D01*
X17271Y-58621D01*
X17328Y-58621D01*
X17357Y-58607D01*
X17371Y-58592D01*
X17385Y-58564D01*
X17385Y-58492D01*
X17371Y-58464D01*
X17357Y-58450D01*
X17328Y-58435D01*
X17271Y-58435D01*
X17242Y-58450D01*
X17228Y-58464D01*
X17214Y-58492D01*
X16971Y-55550D02*
X16942Y-55535D01*
X16914Y-55507D01*
X16871Y-55464D01*
X16842Y-55450D01*
X16814Y-55450D01*
X16828Y-55521D02*
X16800Y-55507D01*
X16771Y-55478D01*
X16757Y-55421D01*
X16757Y-55321D01*
X16771Y-55264D01*
X16800Y-55235D01*
X16828Y-55221D01*
X16885Y-55221D01*
X16914Y-55235D01*
X16942Y-55264D01*
X16957Y-55321D01*
X16957Y-55421D01*
X16942Y-55478D01*
X16914Y-55507D01*
X16885Y-55521D01*
X16828Y-55521D01*
X17057Y-55221D02*
X17257Y-55221D01*
X17128Y-55521D01*
X16828Y-53150D02*
X16800Y-53135D01*
X16771Y-53107D01*
X16728Y-53064D01*
X16700Y-53050D01*
X16671Y-53050D01*
X16685Y-53121D02*
X16657Y-53107D01*
X16628Y-53078D01*
X16614Y-53021D01*
X16614Y-52921D01*
X16628Y-52864D01*
X16657Y-52835D01*
X16685Y-52821D01*
X16742Y-52821D01*
X16771Y-52835D01*
X16800Y-52864D01*
X16814Y-52921D01*
X16814Y-53021D01*
X16800Y-53078D01*
X16771Y-53107D01*
X16742Y-53121D01*
X16685Y-53121D01*
X17100Y-53121D02*
X16928Y-53121D01*
X17014Y-53121D02*
X17014Y-52821D01*
X16985Y-52864D01*
X16957Y-52892D01*
X16928Y-52907D01*
X17371Y-52821D02*
X17228Y-52821D01*
X17214Y-52964D01*
X17228Y-52950D01*
X17257Y-52935D01*
X17328Y-52935D01*
X17357Y-52950D01*
X17371Y-52964D01*
X17385Y-52992D01*
X17385Y-53064D01*
X17371Y-53092D01*
X17357Y-53107D01*
X17328Y-53121D01*
X17257Y-53121D01*
X17228Y-53107D01*
X17214Y-53092D01*
X16971Y-50050D02*
X16942Y-50035D01*
X16914Y-50007D01*
X16871Y-49964D01*
X16842Y-49950D01*
X16814Y-49950D01*
X16828Y-50021D02*
X16800Y-50007D01*
X16771Y-49978D01*
X16757Y-49921D01*
X16757Y-49821D01*
X16771Y-49764D01*
X16800Y-49735D01*
X16828Y-49721D01*
X16885Y-49721D01*
X16914Y-49735D01*
X16942Y-49764D01*
X16957Y-49821D01*
X16957Y-49921D01*
X16942Y-49978D01*
X16914Y-50007D01*
X16885Y-50021D01*
X16828Y-50021D01*
X17214Y-49721D02*
X17157Y-49721D01*
X17128Y-49735D01*
X17114Y-49750D01*
X17085Y-49792D01*
X17071Y-49850D01*
X17071Y-49964D01*
X17085Y-49992D01*
X17100Y-50007D01*
X17128Y-50021D01*
X17185Y-50021D01*
X17214Y-50007D01*
X17228Y-49992D01*
X17242Y-49964D01*
X17242Y-49892D01*
X17228Y-49864D01*
X17214Y-49850D01*
X17185Y-49835D01*
X17128Y-49835D01*
X17100Y-49850D01*
X17085Y-49864D01*
X17071Y-49892D01*
X16828Y-47650D02*
X16800Y-47635D01*
X16771Y-47607D01*
X16728Y-47564D01*
X16700Y-47550D01*
X16671Y-47550D01*
X16685Y-47621D02*
X16657Y-47607D01*
X16628Y-47578D01*
X16614Y-47521D01*
X16614Y-47421D01*
X16628Y-47364D01*
X16657Y-47335D01*
X16685Y-47321D01*
X16742Y-47321D01*
X16771Y-47335D01*
X16800Y-47364D01*
X16814Y-47421D01*
X16814Y-47521D01*
X16800Y-47578D01*
X16771Y-47607D01*
X16742Y-47621D01*
X16685Y-47621D01*
X17100Y-47621D02*
X16928Y-47621D01*
X17014Y-47621D02*
X17014Y-47321D01*
X16985Y-47364D01*
X16957Y-47392D01*
X16928Y-47407D01*
X17357Y-47421D02*
X17357Y-47621D01*
X17285Y-47307D02*
X17214Y-47521D01*
X17400Y-47521D01*
X16971Y-44550D02*
X16942Y-44535D01*
X16914Y-44507D01*
X16871Y-44464D01*
X16842Y-44450D01*
X16814Y-44450D01*
X16828Y-44521D02*
X16800Y-44507D01*
X16771Y-44478D01*
X16757Y-44421D01*
X16757Y-44321D01*
X16771Y-44264D01*
X16800Y-44235D01*
X16828Y-44221D01*
X16885Y-44221D01*
X16914Y-44235D01*
X16942Y-44264D01*
X16957Y-44321D01*
X16957Y-44421D01*
X16942Y-44478D01*
X16914Y-44507D01*
X16885Y-44521D01*
X16828Y-44521D01*
X17228Y-44221D02*
X17085Y-44221D01*
X17071Y-44364D01*
X17085Y-44350D01*
X17114Y-44335D01*
X17185Y-44335D01*
X17214Y-44350D01*
X17228Y-44364D01*
X17242Y-44392D01*
X17242Y-44464D01*
X17228Y-44492D01*
X17214Y-44507D01*
X17185Y-44521D01*
X17114Y-44521D01*
X17085Y-44507D01*
X17071Y-44492D01*
X16828Y-42150D02*
X16800Y-42135D01*
X16771Y-42107D01*
X16728Y-42064D01*
X16700Y-42050D01*
X16671Y-42050D01*
X16685Y-42121D02*
X16657Y-42107D01*
X16628Y-42078D01*
X16614Y-42021D01*
X16614Y-41921D01*
X16628Y-41864D01*
X16657Y-41835D01*
X16685Y-41821D01*
X16742Y-41821D01*
X16771Y-41835D01*
X16800Y-41864D01*
X16814Y-41921D01*
X16814Y-42021D01*
X16800Y-42078D01*
X16771Y-42107D01*
X16742Y-42121D01*
X16685Y-42121D01*
X17100Y-42121D02*
X16928Y-42121D01*
X17014Y-42121D02*
X17014Y-41821D01*
X16985Y-41864D01*
X16957Y-41892D01*
X16928Y-41907D01*
X17200Y-41821D02*
X17385Y-41821D01*
X17285Y-41935D01*
X17328Y-41935D01*
X17357Y-41950D01*
X17371Y-41964D01*
X17385Y-41992D01*
X17385Y-42064D01*
X17371Y-42092D01*
X17357Y-42107D01*
X17328Y-42121D01*
X17242Y-42121D01*
X17214Y-42107D01*
X17200Y-42092D01*
X16971Y-39050D02*
X16942Y-39035D01*
X16914Y-39007D01*
X16871Y-38964D01*
X16842Y-38950D01*
X16814Y-38950D01*
X16828Y-39021D02*
X16800Y-39007D01*
X16771Y-38978D01*
X16757Y-38921D01*
X16757Y-38821D01*
X16771Y-38764D01*
X16800Y-38735D01*
X16828Y-38721D01*
X16885Y-38721D01*
X16914Y-38735D01*
X16942Y-38764D01*
X16957Y-38821D01*
X16957Y-38921D01*
X16942Y-38978D01*
X16914Y-39007D01*
X16885Y-39021D01*
X16828Y-39021D01*
X17214Y-38821D02*
X17214Y-39021D01*
X17142Y-38707D02*
X17071Y-38921D01*
X17257Y-38921D01*
X16828Y-36650D02*
X16800Y-36635D01*
X16771Y-36607D01*
X16728Y-36564D01*
X16700Y-36550D01*
X16671Y-36550D01*
X16685Y-36621D02*
X16657Y-36607D01*
X16628Y-36578D01*
X16614Y-36521D01*
X16614Y-36421D01*
X16628Y-36364D01*
X16657Y-36335D01*
X16685Y-36321D01*
X16742Y-36321D01*
X16771Y-36335D01*
X16800Y-36364D01*
X16814Y-36421D01*
X16814Y-36521D01*
X16800Y-36578D01*
X16771Y-36607D01*
X16742Y-36621D01*
X16685Y-36621D01*
X17100Y-36621D02*
X16928Y-36621D01*
X17014Y-36621D02*
X17014Y-36321D01*
X16985Y-36364D01*
X16957Y-36392D01*
X16928Y-36407D01*
X17214Y-36350D02*
X17228Y-36335D01*
X17257Y-36321D01*
X17328Y-36321D01*
X17357Y-36335D01*
X17371Y-36350D01*
X17385Y-36378D01*
X17385Y-36407D01*
X17371Y-36450D01*
X17200Y-36621D01*
X17385Y-36621D01*
X16971Y-33550D02*
X16942Y-33535D01*
X16914Y-33507D01*
X16871Y-33464D01*
X16842Y-33450D01*
X16814Y-33450D01*
X16828Y-33521D02*
X16800Y-33507D01*
X16771Y-33478D01*
X16757Y-33421D01*
X16757Y-33321D01*
X16771Y-33264D01*
X16800Y-33235D01*
X16828Y-33221D01*
X16885Y-33221D01*
X16914Y-33235D01*
X16942Y-33264D01*
X16957Y-33321D01*
X16957Y-33421D01*
X16942Y-33478D01*
X16914Y-33507D01*
X16885Y-33521D01*
X16828Y-33521D01*
X17057Y-33221D02*
X17242Y-33221D01*
X17142Y-33335D01*
X17185Y-33335D01*
X17214Y-33350D01*
X17228Y-33364D01*
X17242Y-33392D01*
X17242Y-33464D01*
X17228Y-33492D01*
X17214Y-33507D01*
X17185Y-33521D01*
X17100Y-33521D01*
X17071Y-33507D01*
X17057Y-33492D01*
X16828Y-31150D02*
X16800Y-31135D01*
X16771Y-31107D01*
X16728Y-31064D01*
X16700Y-31050D01*
X16671Y-31050D01*
X16685Y-31121D02*
X16657Y-31107D01*
X16628Y-31078D01*
X16614Y-31021D01*
X16614Y-30921D01*
X16628Y-30864D01*
X16657Y-30835D01*
X16685Y-30821D01*
X16742Y-30821D01*
X16771Y-30835D01*
X16800Y-30864D01*
X16814Y-30921D01*
X16814Y-31021D01*
X16800Y-31078D01*
X16771Y-31107D01*
X16742Y-31121D01*
X16685Y-31121D01*
X17100Y-31121D02*
X16928Y-31121D01*
X17014Y-31121D02*
X17014Y-30821D01*
X16985Y-30864D01*
X16957Y-30892D01*
X16928Y-30907D01*
X17385Y-31121D02*
X17214Y-31121D01*
X17300Y-31121D02*
X17300Y-30821D01*
X17271Y-30864D01*
X17242Y-30892D01*
X17214Y-30907D01*
X16971Y-28050D02*
X16942Y-28035D01*
X16914Y-28007D01*
X16871Y-27964D01*
X16842Y-27950D01*
X16814Y-27950D01*
X16828Y-28021D02*
X16800Y-28007D01*
X16771Y-27978D01*
X16757Y-27921D01*
X16757Y-27821D01*
X16771Y-27764D01*
X16800Y-27735D01*
X16828Y-27721D01*
X16885Y-27721D01*
X16914Y-27735D01*
X16942Y-27764D01*
X16957Y-27821D01*
X16957Y-27921D01*
X16942Y-27978D01*
X16914Y-28007D01*
X16885Y-28021D01*
X16828Y-28021D01*
X17071Y-27750D02*
X17085Y-27735D01*
X17114Y-27721D01*
X17185Y-27721D01*
X17214Y-27735D01*
X17228Y-27750D01*
X17242Y-27778D01*
X17242Y-27807D01*
X17228Y-27850D01*
X17057Y-28021D01*
X17242Y-28021D01*
X16828Y-25650D02*
X16800Y-25635D01*
X16771Y-25607D01*
X16728Y-25564D01*
X16700Y-25550D01*
X16671Y-25550D01*
X16685Y-25621D02*
X16657Y-25607D01*
X16628Y-25578D01*
X16614Y-25521D01*
X16614Y-25421D01*
X16628Y-25364D01*
X16657Y-25335D01*
X16685Y-25321D01*
X16742Y-25321D01*
X16771Y-25335D01*
X16800Y-25364D01*
X16814Y-25421D01*
X16814Y-25521D01*
X16800Y-25578D01*
X16771Y-25607D01*
X16742Y-25621D01*
X16685Y-25621D01*
X17100Y-25621D02*
X16928Y-25621D01*
X17014Y-25621D02*
X17014Y-25321D01*
X16985Y-25364D01*
X16957Y-25392D01*
X16928Y-25407D01*
X17285Y-25321D02*
X17314Y-25321D01*
X17342Y-25335D01*
X17357Y-25350D01*
X17371Y-25378D01*
X17385Y-25435D01*
X17385Y-25507D01*
X17371Y-25564D01*
X17357Y-25592D01*
X17342Y-25607D01*
X17314Y-25621D01*
X17285Y-25621D01*
X17257Y-25607D01*
X17242Y-25592D01*
X17228Y-25564D01*
X17214Y-25507D01*
X17214Y-25435D01*
X17228Y-25378D01*
X17242Y-25350D01*
X17257Y-25335D01*
X17285Y-25321D01*
X16971Y-22550D02*
X16942Y-22535D01*
X16914Y-22507D01*
X16871Y-22464D01*
X16842Y-22450D01*
X16814Y-22450D01*
X16828Y-22521D02*
X16800Y-22507D01*
X16771Y-22478D01*
X16757Y-22421D01*
X16757Y-22321D01*
X16771Y-22264D01*
X16800Y-22235D01*
X16828Y-22221D01*
X16885Y-22221D01*
X16914Y-22235D01*
X16942Y-22264D01*
X16957Y-22321D01*
X16957Y-22421D01*
X16942Y-22478D01*
X16914Y-22507D01*
X16885Y-22521D01*
X16828Y-22521D01*
X17242Y-22521D02*
X17071Y-22521D01*
X17157Y-22521D02*
X17157Y-22221D01*
X17128Y-22264D01*
X17100Y-22292D01*
X17071Y-22307D01*
X16971Y-20150D02*
X16942Y-20135D01*
X16914Y-20107D01*
X16871Y-20064D01*
X16842Y-20050D01*
X16814Y-20050D01*
X16828Y-20121D02*
X16800Y-20107D01*
X16771Y-20078D01*
X16757Y-20021D01*
X16757Y-19921D01*
X16771Y-19864D01*
X16800Y-19835D01*
X16828Y-19821D01*
X16885Y-19821D01*
X16914Y-19835D01*
X16942Y-19864D01*
X16957Y-19921D01*
X16957Y-20021D01*
X16942Y-20078D01*
X16914Y-20107D01*
X16885Y-20121D01*
X16828Y-20121D01*
X17100Y-20121D02*
X17157Y-20121D01*
X17185Y-20107D01*
X17200Y-20092D01*
X17228Y-20050D01*
X17242Y-19992D01*
X17242Y-19878D01*
X17228Y-19850D01*
X17214Y-19835D01*
X17185Y-19821D01*
X17128Y-19821D01*
X17100Y-19835D01*
X17085Y-19850D01*
X17071Y-19878D01*
X17071Y-19950D01*
X17085Y-19978D01*
X17100Y-19992D01*
X17128Y-20007D01*
X17185Y-20007D01*
X17214Y-19992D01*
X17228Y-19978D01*
X17242Y-19950D01*
G54D10*
X22860Y-37742D02*
X22860Y-37997D01*
X22875Y-38027D01*
X22890Y-38042D01*
X22920Y-38057D01*
X22980Y-38057D01*
X23010Y-38042D01*
X23025Y-38027D01*
X23040Y-37997D01*
X23040Y-37742D01*
X23354Y-38057D02*
X23175Y-38057D01*
X23264Y-38057D02*
X23264Y-37742D01*
X23235Y-37787D01*
X23205Y-37817D01*
X23175Y-37832D01*
X23624Y-37742D02*
X23564Y-37742D01*
X23534Y-37757D01*
X23519Y-37772D01*
X23489Y-37817D01*
X23474Y-37877D01*
X23474Y-37997D01*
X23489Y-38027D01*
X23504Y-38042D01*
X23534Y-38057D01*
X23594Y-38057D01*
X23624Y-38042D01*
X23639Y-38027D01*
X23654Y-37997D01*
X23654Y-37922D01*
X23639Y-37892D01*
X23624Y-37877D01*
X23594Y-37862D01*
X23534Y-37862D01*
X23504Y-37877D01*
X23489Y-37892D01*
X23474Y-37922D01*
X24367Y-38966D02*
X24517Y-38966D01*
X24337Y-39056D02*
X24442Y-38741D01*
X24547Y-39056D01*
X24607Y-38741D02*
X24787Y-38741D01*
X24697Y-39056D02*
X24697Y-38741D01*
X24877Y-39041D02*
X24922Y-39056D01*
X24997Y-39056D01*
X25027Y-39041D01*
X25042Y-39026D01*
X25057Y-38996D01*
X25057Y-38966D01*
X25042Y-38936D01*
X25027Y-38921D01*
X24997Y-38906D01*
X24937Y-38891D01*
X24907Y-38876D01*
X24892Y-38861D01*
X24877Y-38831D01*
X24877Y-38801D01*
X24892Y-38771D01*
X24907Y-38756D01*
X24937Y-38741D01*
X25012Y-38741D01*
X25057Y-38756D01*
X25177Y-38966D02*
X25327Y-38966D01*
X25147Y-39056D02*
X25252Y-38741D01*
X25357Y-39056D01*
X25462Y-39056D02*
X25462Y-38741D01*
X25567Y-38966D01*
X25672Y-38741D01*
X25672Y-39056D01*
X25792Y-38741D02*
X25987Y-38741D01*
X25882Y-38861D01*
X25927Y-38861D01*
X25957Y-38876D01*
X25972Y-38891D01*
X25987Y-38921D01*
X25987Y-38996D01*
X25972Y-39026D01*
X25957Y-39041D01*
X25927Y-39056D01*
X25837Y-39056D01*
X25807Y-39041D01*
X25792Y-39026D01*
X26092Y-38741D02*
X26302Y-39056D01*
X26302Y-38741D02*
X26092Y-39056D01*
X26467Y-38876D02*
X26437Y-38861D01*
X26422Y-38846D01*
X26407Y-38816D01*
X26407Y-38801D01*
X26422Y-38771D01*
X26437Y-38756D01*
X26467Y-38741D01*
X26527Y-38741D01*
X26557Y-38756D01*
X26572Y-38771D01*
X26587Y-38801D01*
X26587Y-38816D01*
X26572Y-38846D01*
X26557Y-38861D01*
X26527Y-38876D01*
X26467Y-38876D01*
X26437Y-38891D01*
X26422Y-38906D01*
X26407Y-38936D01*
X26407Y-38996D01*
X26422Y-39026D01*
X26437Y-39041D01*
X26467Y-39056D01*
X26527Y-39056D01*
X26557Y-39041D01*
X26572Y-39026D01*
X26587Y-38996D01*
X26587Y-38936D01*
X26572Y-38906D01*
X26557Y-38891D01*
X26527Y-38876D01*
X26722Y-38891D02*
X26827Y-38891D01*
X26872Y-39056D02*
X26722Y-39056D01*
X26722Y-38741D01*
X26872Y-38741D01*
X26992Y-38966D02*
X27142Y-38966D01*
X26962Y-39056D02*
X27067Y-38741D01*
X27172Y-39056D01*
X27277Y-38936D02*
X27517Y-38936D01*
X27652Y-38966D02*
X27802Y-38966D01*
X27622Y-39056D02*
X27727Y-38741D01*
X27832Y-39056D01*
X27937Y-38741D02*
X27937Y-38996D01*
X27952Y-39026D01*
X27967Y-39041D01*
X27997Y-39056D01*
X28057Y-39056D01*
X28087Y-39041D01*
X28102Y-39026D01*
X28117Y-38996D01*
X28117Y-38741D01*
X28192Y-39086D02*
X28432Y-39086D01*
X28657Y-39056D02*
X28507Y-39056D01*
X28507Y-38741D01*
X28972Y-39086D02*
X28942Y-39071D01*
X28912Y-39041D01*
X28867Y-38996D01*
X28837Y-38981D01*
X28807Y-38981D01*
X28822Y-39056D02*
X28792Y-39041D01*
X28762Y-39011D01*
X28747Y-38951D01*
X28747Y-38846D01*
X28762Y-38786D01*
X28792Y-38756D01*
X28822Y-38741D01*
X28882Y-38741D01*
X28912Y-38756D01*
X28942Y-38786D01*
X28957Y-38846D01*
X28957Y-38951D01*
X28942Y-39011D01*
X28912Y-39041D01*
X28882Y-39056D01*
X28822Y-39056D01*
X29197Y-38891D02*
X29092Y-38891D01*
X29092Y-39056D02*
X29092Y-38741D01*
X29242Y-38741D01*
X29362Y-39056D02*
X29362Y-38741D01*
X29482Y-38741D01*
X29512Y-38756D01*
X29527Y-38771D01*
X29542Y-38801D01*
X29542Y-38846D01*
X29527Y-38876D01*
X29512Y-38891D01*
X29482Y-38906D01*
X29362Y-38906D01*
X29677Y-38936D02*
X29917Y-38936D01*
X30232Y-39056D02*
X30052Y-39056D01*
X30142Y-39056D02*
X30142Y-38741D01*
X30112Y-38786D01*
X30082Y-38816D01*
X30052Y-38831D01*
X30502Y-38846D02*
X30502Y-39056D01*
X30427Y-38726D02*
X30352Y-38951D01*
X30547Y-38951D01*
X30802Y-38846D02*
X30802Y-39056D01*
X30727Y-38726D02*
X30652Y-38951D01*
X30847Y-38951D01*
M02*
