G04 (created by PCBNEW (2013-07-07 BZR 4022)-stable) date 2/21/2016 2:52:37 PM*
%MOIN*%
G04 Gerber Fmt 3.4, Leading zero omitted, Abs format*
%FSLAX34Y34*%
G01*
G70*
G90*
G04 APERTURE LIST*
%ADD10C,0.00590551*%
%ADD11C,0.005*%
%ADD12C,0.0118*%
%ADD13R,0.08X0.06*%
%ADD14R,0.055X0.035*%
%ADD15R,0.035X0.055*%
%ADD16O,0.032X0.132*%
%ADD17R,0.063X0.071*%
%ADD18R,0.025X0.045*%
%ADD19R,0.0354016X0.0394016*%
%ADD20R,0.0394016X0.0354016*%
%ADD21R,0.071X0.047*%
%ADD22R,0.071X0.063*%
%ADD23R,0.0394016X0.0235984*%
%ADD24R,0.125984X0.122047*%
%ADD25R,0.149606X0.122047*%
%ADD26R,0.063X0.141701*%
%ADD27R,0.0944882X0.0299213*%
%ADD28R,0.0299213X0.0944882*%
%ADD29R,0.0944882X0.0590551*%
%ADD30R,0.0433071X0.023622*%
%ADD31R,0.055X0.15*%
%ADD32R,0.045X0.025*%
%ADD33R,0.129921X0.0590551*%
%ADD34R,0.0393701X0.0590551*%
%ADD35R,0.0393701X0.0354331*%
%ADD36R,0.0590551X0.0610236*%
%ADD37R,0.015748X0.0531496*%
%ADD38R,0.0472441X0.0551181*%
%ADD39R,0.110236X0.0551181*%
%ADD40R,0.011811X0.0570866*%
%ADD41R,0.0570866X0.011811*%
G04 APERTURE END LIST*
G54D10*
G54D11*
X41809Y-9011D02*
X42190Y-9011D01*
X42000Y-9202D02*
X42000Y-8821D01*
X9809Y-64011D02*
X10190Y-64011D01*
X10000Y-64202D02*
X10000Y-63821D01*
X41809Y-64011D02*
X42190Y-64011D01*
X42000Y-64202D02*
X42000Y-63821D01*
G54D12*
X12837Y-68429D02*
X12640Y-68429D01*
X12640Y-68739D02*
X12640Y-68148D01*
X12922Y-68148D01*
X13147Y-68739D02*
X13147Y-68345D01*
X13147Y-68457D02*
X13175Y-68401D01*
X13203Y-68373D01*
X13259Y-68345D01*
X13316Y-68345D01*
X13597Y-68739D02*
X13541Y-68711D01*
X13513Y-68682D01*
X13484Y-68626D01*
X13484Y-68457D01*
X13513Y-68401D01*
X13541Y-68373D01*
X13597Y-68345D01*
X13681Y-68345D01*
X13738Y-68373D01*
X13766Y-68401D01*
X13794Y-68457D01*
X13794Y-68626D01*
X13766Y-68682D01*
X13738Y-68711D01*
X13681Y-68739D01*
X13597Y-68739D01*
X14047Y-68345D02*
X14047Y-68739D01*
X14047Y-68401D02*
X14075Y-68373D01*
X14132Y-68345D01*
X14216Y-68345D01*
X14272Y-68373D01*
X14301Y-68429D01*
X14301Y-68739D01*
X14498Y-68345D02*
X14723Y-68345D01*
X14582Y-68148D02*
X14582Y-68654D01*
X14610Y-68711D01*
X14666Y-68739D01*
X14723Y-68739D01*
X15342Y-68711D02*
X15426Y-68739D01*
X15567Y-68739D01*
X15623Y-68711D01*
X15651Y-68682D01*
X15680Y-68626D01*
X15680Y-68570D01*
X15651Y-68514D01*
X15623Y-68485D01*
X15567Y-68457D01*
X15454Y-68429D01*
X15398Y-68401D01*
X15370Y-68373D01*
X15342Y-68317D01*
X15342Y-68260D01*
X15370Y-68204D01*
X15398Y-68176D01*
X15454Y-68148D01*
X15595Y-68148D01*
X15680Y-68176D01*
X16017Y-68739D02*
X15961Y-68711D01*
X15933Y-68682D01*
X15905Y-68626D01*
X15905Y-68457D01*
X15933Y-68401D01*
X15961Y-68373D01*
X16017Y-68345D01*
X16102Y-68345D01*
X16158Y-68373D01*
X16186Y-68401D01*
X16214Y-68457D01*
X16214Y-68626D01*
X16186Y-68682D01*
X16158Y-68711D01*
X16102Y-68739D01*
X16017Y-68739D01*
X16552Y-68739D02*
X16496Y-68711D01*
X16468Y-68654D01*
X16468Y-68148D01*
X17030Y-68739D02*
X17030Y-68148D01*
X17030Y-68711D02*
X16974Y-68739D01*
X16862Y-68739D01*
X16805Y-68711D01*
X16777Y-68682D01*
X16749Y-68626D01*
X16749Y-68457D01*
X16777Y-68401D01*
X16805Y-68373D01*
X16862Y-68345D01*
X16974Y-68345D01*
X17030Y-68373D01*
X17537Y-68711D02*
X17481Y-68739D01*
X17368Y-68739D01*
X17312Y-68711D01*
X17284Y-68654D01*
X17284Y-68429D01*
X17312Y-68373D01*
X17368Y-68345D01*
X17481Y-68345D01*
X17537Y-68373D01*
X17565Y-68429D01*
X17565Y-68485D01*
X17284Y-68542D01*
X17818Y-68739D02*
X17818Y-68345D01*
X17818Y-68457D02*
X17847Y-68401D01*
X17875Y-68373D01*
X17931Y-68345D01*
X17987Y-68345D01*
X18635Y-68739D02*
X18635Y-68148D01*
X18860Y-68148D01*
X18916Y-68176D01*
X18944Y-68204D01*
X18972Y-68260D01*
X18972Y-68345D01*
X18944Y-68401D01*
X18916Y-68429D01*
X18860Y-68457D01*
X18635Y-68457D01*
X19479Y-68739D02*
X19479Y-68429D01*
X19451Y-68373D01*
X19394Y-68345D01*
X19282Y-68345D01*
X19226Y-68373D01*
X19479Y-68711D02*
X19423Y-68739D01*
X19282Y-68739D01*
X19226Y-68711D01*
X19197Y-68654D01*
X19197Y-68598D01*
X19226Y-68542D01*
X19282Y-68514D01*
X19423Y-68514D01*
X19479Y-68485D01*
X19732Y-68711D02*
X19788Y-68739D01*
X19901Y-68739D01*
X19957Y-68711D01*
X19985Y-68654D01*
X19985Y-68626D01*
X19957Y-68570D01*
X19901Y-68542D01*
X19817Y-68542D01*
X19760Y-68514D01*
X19732Y-68457D01*
X19732Y-68429D01*
X19760Y-68373D01*
X19817Y-68345D01*
X19901Y-68345D01*
X19957Y-68373D01*
X20154Y-68345D02*
X20379Y-68345D01*
X20239Y-68148D02*
X20239Y-68654D01*
X20267Y-68711D01*
X20323Y-68739D01*
X20379Y-68739D01*
X20802Y-68711D02*
X20745Y-68739D01*
X20633Y-68739D01*
X20576Y-68711D01*
X20548Y-68654D01*
X20548Y-68429D01*
X20576Y-68373D01*
X20633Y-68345D01*
X20745Y-68345D01*
X20802Y-68373D01*
X20830Y-68429D01*
X20830Y-68485D01*
X20548Y-68542D01*
X21533Y-68514D02*
X21984Y-68514D01*
X22997Y-68739D02*
X22715Y-68739D01*
X22715Y-68148D01*
X23447Y-68739D02*
X23447Y-68429D01*
X23419Y-68373D01*
X23363Y-68345D01*
X23250Y-68345D01*
X23194Y-68373D01*
X23447Y-68711D02*
X23391Y-68739D01*
X23250Y-68739D01*
X23194Y-68711D01*
X23166Y-68654D01*
X23166Y-68598D01*
X23194Y-68542D01*
X23250Y-68514D01*
X23391Y-68514D01*
X23447Y-68485D01*
X23672Y-68345D02*
X23813Y-68739D01*
X23954Y-68345D02*
X23813Y-68739D01*
X23757Y-68879D01*
X23728Y-68908D01*
X23672Y-68936D01*
X24404Y-68711D02*
X24348Y-68739D01*
X24235Y-68739D01*
X24179Y-68711D01*
X24151Y-68654D01*
X24151Y-68429D01*
X24179Y-68373D01*
X24235Y-68345D01*
X24348Y-68345D01*
X24404Y-68373D01*
X24432Y-68429D01*
X24432Y-68485D01*
X24151Y-68542D01*
X24685Y-68739D02*
X24685Y-68345D01*
X24685Y-68457D02*
X24713Y-68401D01*
X24742Y-68373D01*
X24798Y-68345D01*
X24854Y-68345D01*
X25783Y-68148D02*
X25501Y-68148D01*
X25473Y-68429D01*
X25501Y-68401D01*
X25558Y-68373D01*
X25698Y-68373D01*
X25755Y-68401D01*
X25783Y-68429D01*
X25811Y-68485D01*
X25811Y-68626D01*
X25783Y-68682D01*
X25755Y-68711D01*
X25698Y-68739D01*
X25558Y-68739D01*
X25501Y-68711D01*
X25473Y-68682D01*
G54D13*
X35320Y-21350D03*
X35320Y-20050D03*
G54D14*
X31075Y-35270D03*
X31075Y-34520D03*
G54D15*
X33690Y-47400D03*
X34440Y-47400D03*
X35185Y-44535D03*
X35935Y-44535D03*
G54D16*
X35900Y-61740D03*
X36400Y-61740D03*
X36900Y-61740D03*
X37400Y-61740D03*
X37900Y-61740D03*
X38400Y-61740D03*
X38900Y-61740D03*
X39400Y-61740D03*
X40900Y-56460D03*
X40400Y-56460D03*
X39900Y-56460D03*
X39400Y-56460D03*
X38900Y-56460D03*
X38400Y-56460D03*
X37900Y-56460D03*
X37400Y-56460D03*
X36900Y-56460D03*
X36400Y-56460D03*
X35900Y-56460D03*
G54D17*
X34695Y-45340D03*
X35795Y-45340D03*
G54D18*
X31550Y-60350D03*
X32150Y-60350D03*
X31200Y-60350D03*
X30600Y-60350D03*
X31990Y-59714D03*
X32590Y-59714D03*
G54D17*
X33830Y-48209D03*
X34930Y-48209D03*
G54D19*
X32084Y-47159D03*
X32675Y-47159D03*
X33595Y-43864D03*
X33004Y-43864D03*
G54D17*
X34495Y-41420D03*
X33395Y-41420D03*
G54D19*
X35685Y-43635D03*
X35094Y-43635D03*
X35685Y-42294D03*
X35094Y-42294D03*
X33004Y-42300D03*
X33595Y-42300D03*
G54D17*
X35595Y-40520D03*
X34495Y-40520D03*
G54D19*
X33825Y-40540D03*
X33234Y-40540D03*
X33825Y-39980D03*
X33234Y-39980D03*
X28289Y-35545D03*
X28880Y-35545D03*
G54D20*
X24350Y-47745D03*
X24350Y-47154D03*
X25850Y-47154D03*
X25850Y-47745D03*
G54D19*
X28865Y-49890D03*
X28274Y-49890D03*
X29634Y-49890D03*
X30225Y-49890D03*
G54D21*
X28550Y-49320D03*
X30150Y-49320D03*
X30150Y-48380D03*
X28550Y-48380D03*
G54D17*
X34450Y-51100D03*
X33350Y-51100D03*
G54D19*
X36605Y-54459D03*
X36014Y-54459D03*
X37804Y-54979D03*
X38395Y-54979D03*
G54D17*
X40170Y-55140D03*
X39070Y-55140D03*
X39550Y-47690D03*
X38450Y-47690D03*
X39550Y-40300D03*
X38450Y-40300D03*
X39550Y-32890D03*
X38450Y-32890D03*
G54D22*
X35290Y-23320D03*
X35290Y-22220D03*
G54D17*
X39545Y-25500D03*
X38445Y-25500D03*
X40624Y-18100D03*
X39524Y-18100D03*
X40600Y-17050D03*
X39500Y-17050D03*
G54D19*
X31204Y-28200D03*
X31795Y-28200D03*
G54D20*
X30415Y-34674D03*
X30415Y-35265D03*
G54D19*
X30985Y-35840D03*
X30394Y-35840D03*
G54D20*
X24505Y-36149D03*
X24505Y-36740D03*
X25205Y-36740D03*
X25205Y-36149D03*
G54D19*
X24584Y-34810D03*
X25175Y-34810D03*
G54D23*
X24604Y-33525D03*
X25435Y-33900D03*
X24604Y-34275D03*
G54D19*
X22275Y-41235D03*
X21684Y-41235D03*
X22275Y-41814D03*
X21684Y-41814D03*
G54D22*
X27390Y-55059D03*
X27390Y-53959D03*
X23805Y-55075D03*
X23805Y-53975D03*
G54D24*
X11692Y-19405D03*
G54D25*
X14606Y-22594D03*
G54D24*
X10944Y-22594D03*
X11692Y-24905D03*
G54D25*
X14606Y-28094D03*
G54D24*
X10944Y-28094D03*
X11692Y-30405D03*
G54D25*
X14606Y-33594D03*
G54D24*
X10944Y-33594D03*
X11692Y-35905D03*
G54D25*
X14606Y-39094D03*
G54D24*
X10944Y-39094D03*
X11692Y-41405D03*
G54D25*
X14606Y-44594D03*
G54D24*
X10944Y-44594D03*
X11692Y-46905D03*
G54D25*
X14606Y-50094D03*
G54D24*
X10944Y-50094D03*
X11692Y-52405D03*
G54D25*
X14606Y-55594D03*
G54D24*
X10944Y-55594D03*
X11692Y-57905D03*
G54D25*
X14606Y-61094D03*
G54D24*
X10944Y-61094D03*
G54D26*
X29200Y-56853D03*
X29200Y-54687D03*
X29200Y-51007D03*
X29200Y-53173D03*
G54D27*
X34767Y-54000D03*
X33232Y-54000D03*
X34767Y-53500D03*
X33232Y-53500D03*
X34767Y-53000D03*
X33232Y-53000D03*
X34767Y-52500D03*
X33232Y-52500D03*
X34767Y-52000D03*
X33232Y-52000D03*
G54D28*
X20800Y-57267D03*
X20800Y-55732D03*
X21300Y-57267D03*
X21300Y-55732D03*
X21800Y-57267D03*
X21800Y-55732D03*
X22300Y-57267D03*
X22300Y-55732D03*
X22800Y-57267D03*
X22800Y-55732D03*
G54D29*
X36069Y-42964D03*
G54D30*
X33884Y-43142D03*
X33884Y-42787D03*
G54D20*
X29160Y-61463D03*
X29160Y-62055D03*
G54D31*
X29810Y-58560D03*
X28010Y-58560D03*
G54D32*
X20650Y-54150D03*
X20650Y-54750D03*
X21400Y-54150D03*
X21400Y-54750D03*
X22200Y-54150D03*
X22200Y-54750D03*
X23000Y-54150D03*
X23000Y-54750D03*
X22590Y-61800D03*
X22590Y-62400D03*
G54D18*
X32080Y-46570D03*
X32680Y-46570D03*
X32680Y-45685D03*
X33280Y-45685D03*
X36120Y-41550D03*
X35520Y-41550D03*
X32580Y-45070D03*
X33180Y-45070D03*
X38030Y-23690D03*
X37430Y-23690D03*
X38510Y-23690D03*
X39110Y-23690D03*
X28930Y-34330D03*
X28330Y-34330D03*
X28930Y-34955D03*
X28330Y-34955D03*
G54D33*
X25605Y-53254D03*
G54D34*
X24719Y-55735D03*
X25309Y-55735D03*
X25900Y-55735D03*
X26490Y-55735D03*
G54D35*
X21663Y-61427D03*
X20836Y-61427D03*
X21250Y-62372D03*
G54D32*
X22590Y-60690D03*
X22590Y-61290D03*
G54D36*
X31893Y-62429D03*
X31106Y-62429D03*
G54D37*
X31244Y-61375D03*
X30988Y-61375D03*
X31500Y-61375D03*
X31755Y-61375D03*
X32011Y-61375D03*
G54D38*
X16566Y-61423D03*
X17433Y-61423D03*
G54D39*
X17000Y-60400D03*
G54D38*
X16566Y-59023D03*
X17433Y-59023D03*
G54D39*
X17000Y-58000D03*
G54D38*
X16566Y-55923D03*
X17433Y-55923D03*
G54D39*
X17000Y-54900D03*
G54D38*
X16566Y-53523D03*
X17433Y-53523D03*
G54D39*
X17000Y-52500D03*
G54D38*
X16566Y-50423D03*
X17433Y-50423D03*
G54D39*
X17000Y-49400D03*
G54D38*
X16566Y-48023D03*
X17433Y-48023D03*
G54D39*
X17000Y-47000D03*
G54D38*
X16566Y-44923D03*
X17433Y-44923D03*
G54D39*
X17000Y-43900D03*
G54D38*
X16566Y-42523D03*
X17433Y-42523D03*
G54D39*
X17000Y-41500D03*
G54D38*
X16566Y-39423D03*
X17433Y-39423D03*
G54D39*
X17000Y-38400D03*
G54D38*
X16566Y-37023D03*
X17433Y-37023D03*
G54D39*
X17000Y-36000D03*
G54D38*
X16566Y-33923D03*
X17433Y-33923D03*
G54D39*
X17000Y-32900D03*
G54D38*
X16566Y-31523D03*
X17433Y-31523D03*
G54D39*
X17000Y-30500D03*
G54D38*
X16566Y-28423D03*
X17433Y-28423D03*
G54D39*
X17000Y-27400D03*
G54D38*
X16566Y-26023D03*
X17433Y-26023D03*
G54D39*
X17000Y-25000D03*
G54D38*
X16566Y-22923D03*
X17433Y-22923D03*
G54D39*
X17000Y-21900D03*
G54D38*
X16566Y-20523D03*
X17433Y-20523D03*
G54D39*
X17000Y-19500D03*
G54D40*
X24155Y-46212D03*
X24355Y-46212D03*
X24550Y-46212D03*
X24745Y-46212D03*
X24945Y-46212D03*
X25140Y-46212D03*
X25335Y-46212D03*
X25535Y-46212D03*
X25730Y-46212D03*
X25925Y-46212D03*
X26125Y-46212D03*
X26320Y-46212D03*
X26515Y-46212D03*
X26715Y-46212D03*
X26910Y-46212D03*
X27105Y-46212D03*
X27305Y-46212D03*
X27500Y-46212D03*
X27700Y-46212D03*
X27895Y-46212D03*
X28095Y-46212D03*
X28290Y-46212D03*
X28485Y-46212D03*
X28685Y-46212D03*
X28880Y-46212D03*
X29075Y-46212D03*
X29275Y-46212D03*
X29470Y-46212D03*
X29665Y-46212D03*
X29865Y-46212D03*
X30060Y-46212D03*
X30255Y-46212D03*
X30455Y-46212D03*
X30650Y-46212D03*
X30845Y-46212D03*
X31045Y-46212D03*
G54D41*
X31812Y-39735D03*
X31812Y-39540D03*
X31812Y-39345D03*
X31812Y-39145D03*
X31812Y-38950D03*
X31812Y-38755D03*
X31812Y-38555D03*
X23387Y-39540D03*
X23387Y-39735D03*
X23387Y-39935D03*
X23387Y-40130D03*
X23387Y-40325D03*
X23387Y-40525D03*
X23387Y-40720D03*
X23387Y-40915D03*
X23387Y-41115D03*
X23387Y-41310D03*
X23387Y-41505D03*
X23387Y-41705D03*
X23387Y-41900D03*
X23387Y-42100D03*
X23387Y-42295D03*
X23387Y-42495D03*
X23387Y-42690D03*
X23387Y-42885D03*
X23387Y-43085D03*
X23387Y-43280D03*
X23387Y-43475D03*
X23387Y-43675D03*
X23387Y-43870D03*
X23387Y-44065D03*
X23387Y-44265D03*
X23387Y-44460D03*
X23387Y-44655D03*
X23387Y-44855D03*
X23387Y-45050D03*
X23387Y-45245D03*
X23387Y-45445D03*
X31812Y-45445D03*
X31812Y-45245D03*
X31812Y-45050D03*
X31812Y-44855D03*
X31812Y-44655D03*
X31812Y-44460D03*
X31812Y-44265D03*
X31812Y-44065D03*
X31812Y-43870D03*
X31812Y-43675D03*
X31812Y-43475D03*
X31812Y-43280D03*
X31812Y-43085D03*
X31812Y-42885D03*
X31812Y-42690D03*
X31812Y-42495D03*
X31812Y-42295D03*
X31812Y-42100D03*
X31812Y-41900D03*
X31812Y-41705D03*
X31812Y-41505D03*
X31812Y-41310D03*
X31812Y-41115D03*
X31812Y-40915D03*
X31812Y-40720D03*
X31812Y-40525D03*
X31812Y-40325D03*
X31812Y-40130D03*
X31812Y-39935D03*
G54D40*
X30060Y-37787D03*
X29865Y-37787D03*
X29665Y-37787D03*
X29470Y-37787D03*
X29275Y-37787D03*
X29075Y-37787D03*
X28880Y-37787D03*
X28685Y-37787D03*
X28485Y-37787D03*
X28290Y-37787D03*
X28095Y-37787D03*
X27895Y-37787D03*
X27700Y-37787D03*
X27500Y-37787D03*
X27305Y-37787D03*
X27105Y-37787D03*
X26910Y-37787D03*
X26715Y-37787D03*
X26515Y-37787D03*
X26320Y-37787D03*
X26125Y-37787D03*
X25925Y-37787D03*
X25730Y-37787D03*
X25535Y-37787D03*
X25335Y-37787D03*
X25140Y-37787D03*
X24945Y-37787D03*
X24745Y-37787D03*
X24550Y-37787D03*
X24355Y-37787D03*
X24155Y-37787D03*
X31045Y-37787D03*
X30845Y-37787D03*
X30650Y-37787D03*
X30455Y-37787D03*
X30255Y-37787D03*
G54D41*
X23387Y-38555D03*
X23387Y-38755D03*
X23387Y-38950D03*
X23387Y-39145D03*
X23387Y-39345D03*
M02*
