G04 (created by PCBNEW (2013-07-07 BZR 4022)-stable) date 2/21/2016 2:52:37 PM*
%MOIN*%
G04 Gerber Fmt 3.4, Leading zero omitted, Abs format*
%FSLAX34Y34*%
G01*
G70*
G90*
G04 APERTURE LIST*
%ADD10C,0.00590551*%
%ADD11C,0.0039*%
%ADD12C,0.005*%
%ADD13C,0.0118*%
G04 APERTURE END LIST*
G54D10*
G54D11*
X10000Y-64250D02*
G75*
G03X10000Y-64250I0J0D01*
G74*
G01*
X9999Y-64250D02*
X10000Y-64250D01*
X10000Y-64249D02*
X10000Y-64250D01*
X42000Y-64250D02*
G75*
G03X42000Y-64250I0J0D01*
G74*
G01*
X41999Y-64250D02*
X42000Y-64250D01*
X42000Y-64249D02*
X42000Y-64250D01*
X42000Y-9000D02*
G75*
G03X42000Y-9000I0J0D01*
G74*
G01*
X41999Y-9000D02*
X42000Y-9000D01*
X42000Y-8999D02*
X42000Y-9000D01*
X42000Y-8750D02*
G75*
G03X42000Y-8750I0J0D01*
G74*
G01*
X41999Y-8750D02*
X42000Y-8750D01*
X42000Y-8749D02*
X42000Y-8750D01*
G54D12*
X41809Y-9011D02*
X42190Y-9011D01*
X42000Y-9202D02*
X42000Y-8821D01*
G54D11*
X42000Y-8750D02*
G75*
G03X42000Y-8750I0J0D01*
G74*
G01*
X41999Y-8750D02*
X42000Y-8750D01*
X42000Y-8749D02*
X42000Y-8750D01*
X42000Y-9000D02*
G75*
G03X42000Y-9000I0J0D01*
G74*
G01*
X41999Y-9000D02*
X42000Y-9000D01*
X42000Y-8999D02*
X42000Y-9000D01*
X10000Y-64000D02*
G75*
G03X10000Y-64000I0J0D01*
G74*
G01*
X9999Y-64000D02*
X10000Y-64000D01*
X10000Y-63999D02*
X10000Y-64000D01*
X10000Y-63750D02*
G75*
G03X10000Y-63750I0J0D01*
G74*
G01*
X9999Y-63750D02*
X10000Y-63750D01*
X10000Y-63749D02*
X10000Y-63750D01*
G54D12*
X9809Y-64011D02*
X10190Y-64011D01*
X10000Y-64202D02*
X10000Y-63821D01*
X41809Y-64011D02*
X42190Y-64011D01*
X42000Y-64202D02*
X42000Y-63821D01*
G54D11*
X42000Y-63000D02*
G75*
G03X42000Y-63000I0J0D01*
G74*
G01*
X41999Y-63000D02*
X42000Y-63000D01*
X42000Y-62999D02*
X42000Y-63000D01*
X42000Y-9250D02*
G75*
G03X42000Y-9250I0J0D01*
G74*
G01*
X41999Y-9250D02*
X42000Y-9250D01*
X42000Y-9249D02*
X42000Y-9250D01*
X42000Y-11000D02*
G75*
G03X42000Y-11000I0J0D01*
G74*
G01*
X41999Y-11000D02*
X42000Y-11000D01*
X42000Y-10999D02*
X42000Y-11000D01*
X42000Y-10750D02*
G75*
G03X42000Y-10750I0J0D01*
G74*
G01*
X41999Y-10750D02*
X42000Y-10750D01*
X42000Y-10749D02*
X42000Y-10750D01*
X42000Y-10500D02*
G75*
G03X42000Y-10500I0J0D01*
G74*
G01*
X41999Y-10500D02*
X42000Y-10500D01*
X42000Y-10499D02*
X42000Y-10500D01*
X41000Y-10000D02*
G75*
G03X41000Y-10000I0J0D01*
G74*
G01*
X40999Y-10000D02*
X41000Y-10000D01*
X41000Y-9999D02*
X41000Y-10000D01*
X41250Y-10000D02*
G75*
G03X41250Y-10000I0J0D01*
G74*
G01*
X41249Y-10000D02*
X41250Y-10000D01*
X41250Y-9999D02*
X41250Y-10000D01*
X41500Y-10000D02*
G75*
G03X41500Y-10000I0J0D01*
G74*
G01*
X41499Y-10000D02*
X41500Y-10000D01*
X41500Y-9999D02*
X41500Y-10000D01*
X43000Y-10000D02*
G75*
G03X43000Y-10000I0J0D01*
G74*
G01*
X42999Y-10000D02*
X43000Y-10000D01*
X43000Y-9999D02*
X43000Y-10000D01*
X42750Y-10000D02*
G75*
G03X42750Y-10000I0J0D01*
G74*
G01*
X42749Y-10000D02*
X42750Y-10000D01*
X42750Y-9999D02*
X42750Y-10000D01*
X42500Y-10000D02*
G75*
G03X42500Y-10000I0J0D01*
G74*
G01*
X42499Y-10000D02*
X42500Y-10000D01*
X42500Y-9999D02*
X42500Y-10000D01*
X42000Y-10000D02*
G75*
G03X42000Y-10000I0J0D01*
G74*
G01*
X41999Y-10000D02*
X42000Y-10000D01*
X42000Y-9999D02*
X42000Y-10000D01*
X42000Y-9500D02*
G75*
G03X42000Y-9500I0J0D01*
G74*
G01*
X41999Y-9500D02*
X42000Y-9500D01*
X42000Y-9499D02*
X42000Y-9500D01*
X42000Y-63750D02*
G75*
G03X42000Y-63750I0J0D01*
G74*
G01*
X41999Y-63750D02*
X42000Y-63750D01*
X42000Y-63749D02*
X42000Y-63750D01*
X42000Y-63500D02*
G75*
G03X42000Y-63500I0J0D01*
G74*
G01*
X41999Y-63500D02*
X42000Y-63500D01*
X42000Y-63499D02*
X42000Y-63500D01*
X43000Y-63000D02*
G75*
G03X43000Y-63000I0J0D01*
G74*
G01*
X42999Y-63000D02*
X43000Y-63000D01*
X43000Y-62999D02*
X43000Y-63000D01*
X42750Y-63000D02*
G75*
G03X42750Y-63000I0J0D01*
G74*
G01*
X42749Y-63000D02*
X42750Y-63000D01*
X42750Y-62999D02*
X42750Y-63000D01*
X42500Y-63000D02*
G75*
G03X42500Y-63000I0J0D01*
G74*
G01*
X42499Y-63000D02*
X42500Y-63000D01*
X42500Y-62999D02*
X42500Y-63000D01*
X41000Y-63000D02*
G75*
G03X41000Y-63000I0J0D01*
G74*
G01*
X40999Y-63000D02*
X41000Y-63000D01*
X41000Y-62999D02*
X41000Y-63000D01*
X41250Y-63000D02*
G75*
G03X41250Y-63000I0J0D01*
G74*
G01*
X41249Y-63000D02*
X41250Y-63000D01*
X41250Y-62999D02*
X41250Y-63000D01*
X41500Y-63000D02*
G75*
G03X41500Y-63000I0J0D01*
G74*
G01*
X41499Y-63000D02*
X41500Y-63000D01*
X41500Y-62999D02*
X41500Y-63000D01*
X42000Y-62000D02*
G75*
G03X42000Y-62000I0J0D01*
G74*
G01*
X41999Y-62000D02*
X42000Y-62000D01*
X42000Y-61999D02*
X42000Y-62000D01*
X42000Y-62250D02*
G75*
G03X42000Y-62250I0J0D01*
G74*
G01*
X41999Y-62250D02*
X42000Y-62250D01*
X42000Y-62249D02*
X42000Y-62250D01*
X42000Y-62500D02*
G75*
G03X42000Y-62500I0J0D01*
G74*
G01*
X41999Y-62500D02*
X42000Y-62500D01*
X42000Y-62499D02*
X42000Y-62500D01*
X42000Y-63000D02*
G75*
G03X42000Y-63000I0J0D01*
G74*
G01*
X41999Y-63000D02*
X42000Y-63000D01*
X42000Y-62999D02*
X42000Y-63000D01*
X10000Y-63750D02*
G75*
G03X10000Y-63750I0J0D01*
G74*
G01*
X9999Y-63750D02*
X10000Y-63750D01*
X10000Y-63749D02*
X10000Y-63750D01*
X10000Y-63500D02*
G75*
G03X10000Y-63500I0J0D01*
G74*
G01*
X9999Y-63500D02*
X10000Y-63500D01*
X10000Y-63499D02*
X10000Y-63500D01*
X10000Y-62000D02*
G75*
G03X10000Y-62000I0J0D01*
G74*
G01*
X9999Y-62000D02*
X10000Y-62000D01*
X10000Y-61999D02*
X10000Y-62000D01*
X10000Y-62250D02*
G75*
G03X10000Y-62250I0J0D01*
G74*
G01*
X9999Y-62250D02*
X10000Y-62250D01*
X10000Y-62249D02*
X10000Y-62250D01*
X10000Y-62500D02*
G75*
G03X10000Y-62500I0J0D01*
G74*
G01*
X9999Y-62500D02*
X10000Y-62500D01*
X10000Y-62499D02*
X10000Y-62500D01*
X9000Y-63000D02*
G75*
G03X9000Y-63000I0J0D01*
G74*
G01*
X8999Y-63000D02*
X9000Y-63000D01*
X9000Y-62999D02*
X9000Y-63000D01*
X9250Y-63000D02*
G75*
G03X9250Y-63000I0J0D01*
G74*
G01*
X9249Y-63000D02*
X9250Y-63000D01*
X9250Y-62999D02*
X9250Y-63000D01*
X9500Y-63000D02*
G75*
G03X9500Y-63000I0J0D01*
G74*
G01*
X9499Y-63000D02*
X9500Y-63000D01*
X9500Y-62999D02*
X9500Y-63000D01*
X11000Y-63000D02*
G75*
G03X11000Y-63000I0J0D01*
G74*
G01*
X10999Y-63000D02*
X11000Y-63000D01*
X11000Y-62999D02*
X11000Y-63000D01*
X10750Y-63000D02*
G75*
G03X10750Y-63000I0J0D01*
G74*
G01*
X10749Y-63000D02*
X10750Y-63000D01*
X10750Y-62999D02*
X10750Y-63000D01*
X10500Y-63000D02*
G75*
G03X10500Y-63000I0J0D01*
G74*
G01*
X10499Y-63000D02*
X10500Y-63000D01*
X10500Y-62999D02*
X10500Y-63000D01*
X10000Y-63000D02*
G75*
G03X10000Y-63000I0J0D01*
G74*
G01*
X9999Y-63000D02*
X10000Y-63000D01*
X10000Y-62999D02*
X10000Y-63000D01*
G54D13*
X12837Y-74429D02*
X12922Y-74457D01*
X12950Y-74485D01*
X12978Y-74542D01*
X12978Y-74626D01*
X12950Y-74682D01*
X12922Y-74711D01*
X12865Y-74739D01*
X12640Y-74739D01*
X12640Y-74148D01*
X12837Y-74148D01*
X12894Y-74176D01*
X12922Y-74204D01*
X12950Y-74260D01*
X12950Y-74317D01*
X12922Y-74373D01*
X12894Y-74401D01*
X12837Y-74429D01*
X12640Y-74429D01*
X13316Y-74739D02*
X13259Y-74711D01*
X13231Y-74682D01*
X13203Y-74626D01*
X13203Y-74457D01*
X13231Y-74401D01*
X13259Y-74373D01*
X13316Y-74345D01*
X13400Y-74345D01*
X13456Y-74373D01*
X13485Y-74401D01*
X13513Y-74457D01*
X13513Y-74626D01*
X13485Y-74682D01*
X13456Y-74711D01*
X13400Y-74739D01*
X13316Y-74739D01*
X14019Y-74739D02*
X14019Y-74429D01*
X13991Y-74373D01*
X13935Y-74345D01*
X13822Y-74345D01*
X13766Y-74373D01*
X14019Y-74711D02*
X13963Y-74739D01*
X13822Y-74739D01*
X13766Y-74711D01*
X13738Y-74654D01*
X13738Y-74598D01*
X13766Y-74542D01*
X13822Y-74514D01*
X13963Y-74514D01*
X14019Y-74485D01*
X14301Y-74739D02*
X14301Y-74345D01*
X14301Y-74457D02*
X14329Y-74401D01*
X14357Y-74373D01*
X14413Y-74345D01*
X14469Y-74345D01*
X14920Y-74739D02*
X14920Y-74148D01*
X14920Y-74711D02*
X14863Y-74739D01*
X14751Y-74739D01*
X14695Y-74711D01*
X14666Y-74682D01*
X14638Y-74626D01*
X14638Y-74457D01*
X14666Y-74401D01*
X14695Y-74373D01*
X14751Y-74345D01*
X14863Y-74345D01*
X14920Y-74373D01*
X15651Y-74429D02*
X15848Y-74429D01*
X15933Y-74739D02*
X15651Y-74739D01*
X15651Y-74148D01*
X15933Y-74148D01*
X16439Y-74739D02*
X16439Y-74148D01*
X16439Y-74711D02*
X16383Y-74739D01*
X16271Y-74739D01*
X16214Y-74711D01*
X16186Y-74682D01*
X16158Y-74626D01*
X16158Y-74457D01*
X16186Y-74401D01*
X16214Y-74373D01*
X16271Y-74345D01*
X16383Y-74345D01*
X16439Y-74373D01*
X16974Y-74345D02*
X16974Y-74823D01*
X16946Y-74879D01*
X16918Y-74908D01*
X16862Y-74936D01*
X16777Y-74936D01*
X16721Y-74908D01*
X16974Y-74711D02*
X16918Y-74739D01*
X16805Y-74739D01*
X16749Y-74711D01*
X16721Y-74682D01*
X16693Y-74626D01*
X16693Y-74457D01*
X16721Y-74401D01*
X16749Y-74373D01*
X16805Y-74345D01*
X16918Y-74345D01*
X16974Y-74373D01*
X17481Y-74711D02*
X17424Y-74739D01*
X17312Y-74739D01*
X17256Y-74711D01*
X17227Y-74654D01*
X17227Y-74429D01*
X17256Y-74373D01*
X17312Y-74345D01*
X17424Y-74345D01*
X17481Y-74373D01*
X17509Y-74429D01*
X17509Y-74485D01*
X17227Y-74542D01*
X18550Y-74682D02*
X18522Y-74711D01*
X18438Y-74739D01*
X18381Y-74739D01*
X18297Y-74711D01*
X18241Y-74654D01*
X18212Y-74598D01*
X18184Y-74485D01*
X18184Y-74401D01*
X18212Y-74288D01*
X18241Y-74232D01*
X18297Y-74176D01*
X18381Y-74148D01*
X18438Y-74148D01*
X18522Y-74176D01*
X18550Y-74204D01*
X19057Y-74345D02*
X19057Y-74739D01*
X18803Y-74345D02*
X18803Y-74654D01*
X18832Y-74711D01*
X18888Y-74739D01*
X18972Y-74739D01*
X19029Y-74711D01*
X19057Y-74682D01*
X19254Y-74345D02*
X19479Y-74345D01*
X19338Y-74148D02*
X19338Y-74654D01*
X19366Y-74711D01*
X19423Y-74739D01*
X19479Y-74739D01*
X20126Y-74514D02*
X20576Y-74514D01*
X21590Y-74739D02*
X21308Y-74739D01*
X21308Y-74148D01*
X22040Y-74739D02*
X22040Y-74429D01*
X22012Y-74373D01*
X21955Y-74345D01*
X21843Y-74345D01*
X21787Y-74373D01*
X22040Y-74711D02*
X21984Y-74739D01*
X21843Y-74739D01*
X21787Y-74711D01*
X21758Y-74654D01*
X21758Y-74598D01*
X21787Y-74542D01*
X21843Y-74514D01*
X21984Y-74514D01*
X22040Y-74485D01*
X22265Y-74345D02*
X22406Y-74739D01*
X22546Y-74345D02*
X22406Y-74739D01*
X22349Y-74879D01*
X22321Y-74908D01*
X22265Y-74936D01*
X22997Y-74711D02*
X22940Y-74739D01*
X22828Y-74739D01*
X22772Y-74711D01*
X22743Y-74654D01*
X22743Y-74429D01*
X22772Y-74373D01*
X22828Y-74345D01*
X22940Y-74345D01*
X22997Y-74373D01*
X23025Y-74429D01*
X23025Y-74485D01*
X22743Y-74542D01*
X23278Y-74739D02*
X23278Y-74345D01*
X23278Y-74457D02*
X23306Y-74401D01*
X23334Y-74373D01*
X23391Y-74345D01*
X23447Y-74345D01*
X24404Y-74739D02*
X24066Y-74739D01*
X24235Y-74739D02*
X24235Y-74148D01*
X24179Y-74232D01*
X24122Y-74288D01*
X24066Y-74317D01*
X24967Y-74739D02*
X24629Y-74739D01*
X24798Y-74739D02*
X24798Y-74148D01*
X24742Y-74232D01*
X24685Y-74288D01*
X24629Y-74317D01*
G54D11*
X42000Y-9000D02*
G75*
G03X42000Y-9000I0J0D01*
G74*
G01*
X41999Y-9000D02*
X42000Y-9000D01*
X42000Y-8999D02*
X42000Y-9000D01*
X10000Y-64000D02*
G75*
G03X10000Y-64000I0J0D01*
G74*
G01*
X9999Y-64000D02*
X10000Y-64000D01*
X10000Y-63999D02*
X10000Y-64000D01*
X42000Y-64000D02*
G75*
G03X42000Y-64000I0J0D01*
G74*
G01*
X41999Y-64000D02*
X42000Y-64000D01*
X42000Y-63999D02*
X42000Y-64000D01*
X40000Y-10000D02*
X12000Y-10000D01*
X42000Y-61000D02*
X42000Y-12000D01*
X12000Y-63000D02*
X40000Y-63000D01*
X10000Y-12000D02*
X10000Y-61000D01*
X10000Y-61000D02*
G75*
G03X12000Y-63000I2000J0D01*
G74*
G01*
X12000Y-10000D02*
G75*
G03X10000Y-12000I0J-2000D01*
G74*
G01*
X42000Y-12000D02*
G75*
G03X40000Y-10000I-2000J0D01*
G74*
G01*
X40000Y-63000D02*
G75*
G03X42000Y-61000I0J2000D01*
G74*
G01*
M02*
