G04 (created by PCBNEW (2013-07-07 BZR 4022)-stable) date 2/21/2016 2:52:37 PM*
%MOIN*%
G04 Gerber Fmt 3.4, Leading zero omitted, Abs format*
%FSLAX34Y34*%
G01*
G70*
G90*
G04 APERTURE LIST*
%ADD10C,0.00590551*%
%ADD11C,0.005*%
%ADD12C,0.0118*%
G04 APERTURE END LIST*
G54D10*
G54D11*
X42190Y-9011D02*
X41809Y-9011D01*
X42000Y-9202D02*
X42000Y-8821D01*
X10190Y-64011D02*
X9809Y-64011D01*
X10000Y-64202D02*
X10000Y-63821D01*
X42190Y-64011D02*
X41809Y-64011D01*
X42000Y-64202D02*
X42000Y-63821D01*
G54D12*
X12837Y-69429D02*
X12922Y-69457D01*
X12950Y-69485D01*
X12978Y-69542D01*
X12978Y-69626D01*
X12950Y-69682D01*
X12922Y-69711D01*
X12865Y-69739D01*
X12640Y-69739D01*
X12640Y-69148D01*
X12837Y-69148D01*
X12894Y-69176D01*
X12922Y-69204D01*
X12950Y-69260D01*
X12950Y-69317D01*
X12922Y-69373D01*
X12894Y-69401D01*
X12837Y-69429D01*
X12640Y-69429D01*
X13485Y-69739D02*
X13485Y-69429D01*
X13456Y-69373D01*
X13400Y-69345D01*
X13288Y-69345D01*
X13231Y-69373D01*
X13485Y-69711D02*
X13428Y-69739D01*
X13288Y-69739D01*
X13231Y-69711D01*
X13203Y-69654D01*
X13203Y-69598D01*
X13231Y-69542D01*
X13288Y-69514D01*
X13428Y-69514D01*
X13485Y-69485D01*
X14019Y-69711D02*
X13963Y-69739D01*
X13850Y-69739D01*
X13794Y-69711D01*
X13766Y-69682D01*
X13738Y-69626D01*
X13738Y-69457D01*
X13766Y-69401D01*
X13794Y-69373D01*
X13850Y-69345D01*
X13963Y-69345D01*
X14019Y-69373D01*
X14272Y-69739D02*
X14272Y-69148D01*
X14329Y-69514D02*
X14498Y-69739D01*
X14498Y-69345D02*
X14272Y-69570D01*
X15173Y-69711D02*
X15258Y-69739D01*
X15398Y-69739D01*
X15455Y-69711D01*
X15483Y-69682D01*
X15511Y-69626D01*
X15511Y-69570D01*
X15483Y-69514D01*
X15455Y-69485D01*
X15398Y-69457D01*
X15286Y-69429D01*
X15229Y-69401D01*
X15201Y-69373D01*
X15173Y-69317D01*
X15173Y-69260D01*
X15201Y-69204D01*
X15229Y-69176D01*
X15286Y-69148D01*
X15426Y-69148D01*
X15511Y-69176D01*
X15849Y-69739D02*
X15792Y-69711D01*
X15764Y-69682D01*
X15736Y-69626D01*
X15736Y-69457D01*
X15764Y-69401D01*
X15792Y-69373D01*
X15849Y-69345D01*
X15933Y-69345D01*
X15989Y-69373D01*
X16017Y-69401D01*
X16046Y-69457D01*
X16046Y-69626D01*
X16017Y-69682D01*
X15989Y-69711D01*
X15933Y-69739D01*
X15849Y-69739D01*
X16383Y-69739D02*
X16327Y-69711D01*
X16299Y-69654D01*
X16299Y-69148D01*
X16862Y-69739D02*
X16862Y-69148D01*
X16862Y-69711D02*
X16805Y-69739D01*
X16693Y-69739D01*
X16636Y-69711D01*
X16608Y-69682D01*
X16580Y-69626D01*
X16580Y-69457D01*
X16608Y-69401D01*
X16636Y-69373D01*
X16693Y-69345D01*
X16805Y-69345D01*
X16862Y-69373D01*
X17368Y-69711D02*
X17312Y-69739D01*
X17199Y-69739D01*
X17143Y-69711D01*
X17115Y-69654D01*
X17115Y-69429D01*
X17143Y-69373D01*
X17199Y-69345D01*
X17312Y-69345D01*
X17368Y-69373D01*
X17396Y-69429D01*
X17396Y-69485D01*
X17115Y-69542D01*
X17650Y-69739D02*
X17650Y-69345D01*
X17650Y-69457D02*
X17678Y-69401D01*
X17706Y-69373D01*
X17762Y-69345D01*
X17818Y-69345D01*
X18466Y-69739D02*
X18466Y-69148D01*
X18691Y-69148D01*
X18747Y-69176D01*
X18775Y-69204D01*
X18803Y-69260D01*
X18803Y-69345D01*
X18775Y-69401D01*
X18747Y-69429D01*
X18691Y-69457D01*
X18466Y-69457D01*
X19310Y-69739D02*
X19310Y-69429D01*
X19282Y-69373D01*
X19226Y-69345D01*
X19113Y-69345D01*
X19057Y-69373D01*
X19310Y-69711D02*
X19254Y-69739D01*
X19113Y-69739D01*
X19057Y-69711D01*
X19029Y-69654D01*
X19029Y-69598D01*
X19057Y-69542D01*
X19113Y-69514D01*
X19254Y-69514D01*
X19310Y-69485D01*
X19563Y-69711D02*
X19620Y-69739D01*
X19732Y-69739D01*
X19788Y-69711D01*
X19817Y-69654D01*
X19817Y-69626D01*
X19788Y-69570D01*
X19732Y-69542D01*
X19648Y-69542D01*
X19591Y-69514D01*
X19563Y-69457D01*
X19563Y-69429D01*
X19591Y-69373D01*
X19648Y-69345D01*
X19732Y-69345D01*
X19788Y-69373D01*
X19985Y-69345D02*
X20211Y-69345D01*
X20070Y-69148D02*
X20070Y-69654D01*
X20098Y-69711D01*
X20154Y-69739D01*
X20211Y-69739D01*
X20633Y-69711D02*
X20576Y-69739D01*
X20464Y-69739D01*
X20408Y-69711D01*
X20379Y-69654D01*
X20379Y-69429D01*
X20408Y-69373D01*
X20464Y-69345D01*
X20576Y-69345D01*
X20633Y-69373D01*
X20661Y-69429D01*
X20661Y-69485D01*
X20379Y-69542D01*
X21364Y-69514D02*
X21815Y-69514D01*
X22828Y-69739D02*
X22546Y-69739D01*
X22546Y-69148D01*
X23278Y-69739D02*
X23278Y-69429D01*
X23250Y-69373D01*
X23194Y-69345D01*
X23081Y-69345D01*
X23025Y-69373D01*
X23278Y-69711D02*
X23222Y-69739D01*
X23081Y-69739D01*
X23025Y-69711D01*
X22997Y-69654D01*
X22997Y-69598D01*
X23025Y-69542D01*
X23081Y-69514D01*
X23222Y-69514D01*
X23278Y-69485D01*
X23503Y-69345D02*
X23644Y-69739D01*
X23785Y-69345D02*
X23644Y-69739D01*
X23588Y-69879D01*
X23560Y-69908D01*
X23503Y-69936D01*
X24235Y-69711D02*
X24179Y-69739D01*
X24066Y-69739D01*
X24010Y-69711D01*
X23982Y-69654D01*
X23982Y-69429D01*
X24010Y-69373D01*
X24066Y-69345D01*
X24179Y-69345D01*
X24235Y-69373D01*
X24263Y-69429D01*
X24263Y-69485D01*
X23982Y-69542D01*
X24516Y-69739D02*
X24516Y-69345D01*
X24516Y-69457D02*
X24545Y-69401D01*
X24573Y-69373D01*
X24629Y-69345D01*
X24685Y-69345D01*
X25586Y-69148D02*
X25473Y-69148D01*
X25417Y-69176D01*
X25389Y-69204D01*
X25333Y-69288D01*
X25304Y-69401D01*
X25304Y-69626D01*
X25333Y-69682D01*
X25361Y-69711D01*
X25417Y-69739D01*
X25530Y-69739D01*
X25586Y-69711D01*
X25614Y-69682D01*
X25642Y-69626D01*
X25642Y-69485D01*
X25614Y-69429D01*
X25586Y-69401D01*
X25530Y-69373D01*
X25417Y-69373D01*
X25361Y-69401D01*
X25333Y-69429D01*
X25304Y-69485D01*
M02*
