M48
INCH,TZ
T1C0.046
T2C0.067
T3C0.126
T4C0.126
T5C0.128
%
G90
G05
T1
X20758Y-60837
X21742Y-60837
T2
X11378Y-21000
X11378Y-26500
X11378Y-32000
X11378Y-37500
X11378Y-43000
X11378Y-48500
X11378Y-54000
X11378Y-59500
X14134Y-21000
X14134Y-26500
X14134Y-32000
X14134Y-37500
X14134Y-43000
X14134Y-48500
X14134Y-54000
X14134Y-59500
T3
X11700Y-15000
X26000Y-58000
X39853Y-19500
X39853Y-22500
X40300Y-15000
T4
X26000Y-28622
X26000Y-51378
T5
X40953Y-26700
X40953Y-31700
X40953Y-34100
X40953Y-39100
X40953Y-41500
X40953Y-46500
X40953Y-48900
X40953Y-53900
T0
M30
