G04 (created by PCBNEW (2013-07-07 BZR 4022)-stable) date 2/21/2016 2:52:37 PM*
%MOIN*%
G04 Gerber Fmt 3.4, Leading zero omitted, Abs format*
%FSLAX34Y34*%
G01*
G70*
G90*
G04 APERTURE LIST*
%ADD10C,0.00590551*%
%ADD11C,0.005*%
%ADD12C,0.0118*%
%ADD13C,0.008*%
%ADD14C,9.84252e-005*%
%ADD15C,0.0059*%
G04 APERTURE END LIST*
G54D10*
G54D11*
X42190Y-9011D02*
X41809Y-9011D01*
X42000Y-9202D02*
X42000Y-8821D01*
X10190Y-64011D02*
X9809Y-64011D01*
X10000Y-64202D02*
X10000Y-63821D01*
X42190Y-64011D02*
X41809Y-64011D01*
X42000Y-64202D02*
X42000Y-63821D01*
G54D12*
X12837Y-71429D02*
X12922Y-71457D01*
X12950Y-71485D01*
X12978Y-71542D01*
X12978Y-71626D01*
X12950Y-71682D01*
X12922Y-71711D01*
X12865Y-71739D01*
X12640Y-71739D01*
X12640Y-71148D01*
X12837Y-71148D01*
X12894Y-71176D01*
X12922Y-71204D01*
X12950Y-71260D01*
X12950Y-71317D01*
X12922Y-71373D01*
X12894Y-71401D01*
X12837Y-71429D01*
X12640Y-71429D01*
X13485Y-71739D02*
X13485Y-71429D01*
X13456Y-71373D01*
X13400Y-71345D01*
X13288Y-71345D01*
X13231Y-71373D01*
X13485Y-71711D02*
X13428Y-71739D01*
X13288Y-71739D01*
X13231Y-71711D01*
X13203Y-71654D01*
X13203Y-71598D01*
X13231Y-71542D01*
X13288Y-71514D01*
X13428Y-71514D01*
X13485Y-71485D01*
X14019Y-71711D02*
X13963Y-71739D01*
X13850Y-71739D01*
X13794Y-71711D01*
X13766Y-71682D01*
X13738Y-71626D01*
X13738Y-71457D01*
X13766Y-71401D01*
X13794Y-71373D01*
X13850Y-71345D01*
X13963Y-71345D01*
X14019Y-71373D01*
X14272Y-71739D02*
X14272Y-71148D01*
X14329Y-71514D02*
X14498Y-71739D01*
X14498Y-71345D02*
X14272Y-71570D01*
X15173Y-71711D02*
X15258Y-71739D01*
X15398Y-71739D01*
X15455Y-71711D01*
X15483Y-71682D01*
X15511Y-71626D01*
X15511Y-71570D01*
X15483Y-71514D01*
X15455Y-71485D01*
X15398Y-71457D01*
X15286Y-71429D01*
X15229Y-71401D01*
X15201Y-71373D01*
X15173Y-71317D01*
X15173Y-71260D01*
X15201Y-71204D01*
X15229Y-71176D01*
X15286Y-71148D01*
X15426Y-71148D01*
X15511Y-71176D01*
X15764Y-71739D02*
X15764Y-71345D01*
X15764Y-71148D02*
X15736Y-71176D01*
X15764Y-71204D01*
X15792Y-71176D01*
X15764Y-71148D01*
X15764Y-71204D01*
X16130Y-71739D02*
X16074Y-71711D01*
X16046Y-71654D01*
X16046Y-71148D01*
X16355Y-71739D02*
X16355Y-71148D01*
X16411Y-71514D02*
X16580Y-71739D01*
X16580Y-71345D02*
X16355Y-71570D01*
X17256Y-71711D02*
X17340Y-71739D01*
X17481Y-71739D01*
X17537Y-71711D01*
X17565Y-71682D01*
X17593Y-71626D01*
X17593Y-71570D01*
X17565Y-71514D01*
X17537Y-71485D01*
X17481Y-71457D01*
X17368Y-71429D01*
X17312Y-71401D01*
X17284Y-71373D01*
X17256Y-71317D01*
X17256Y-71260D01*
X17284Y-71204D01*
X17312Y-71176D01*
X17368Y-71148D01*
X17509Y-71148D01*
X17593Y-71176D01*
X18100Y-71711D02*
X18044Y-71739D01*
X17931Y-71739D01*
X17875Y-71711D01*
X17847Y-71682D01*
X17819Y-71626D01*
X17819Y-71457D01*
X17847Y-71401D01*
X17875Y-71373D01*
X17931Y-71345D01*
X18044Y-71345D01*
X18100Y-71373D01*
X18353Y-71739D02*
X18353Y-71345D01*
X18353Y-71457D02*
X18381Y-71401D01*
X18410Y-71373D01*
X18466Y-71345D01*
X18522Y-71345D01*
X18944Y-71711D02*
X18888Y-71739D01*
X18775Y-71739D01*
X18719Y-71711D01*
X18691Y-71654D01*
X18691Y-71429D01*
X18719Y-71373D01*
X18775Y-71345D01*
X18888Y-71345D01*
X18944Y-71373D01*
X18972Y-71429D01*
X18972Y-71485D01*
X18691Y-71542D01*
X19451Y-71711D02*
X19394Y-71739D01*
X19282Y-71739D01*
X19226Y-71711D01*
X19197Y-71654D01*
X19197Y-71429D01*
X19226Y-71373D01*
X19282Y-71345D01*
X19394Y-71345D01*
X19451Y-71373D01*
X19479Y-71429D01*
X19479Y-71485D01*
X19197Y-71542D01*
X19732Y-71345D02*
X19732Y-71739D01*
X19732Y-71401D02*
X19760Y-71373D01*
X19817Y-71345D01*
X19901Y-71345D01*
X19957Y-71373D01*
X19985Y-71429D01*
X19985Y-71739D01*
X20717Y-71514D02*
X21167Y-71514D01*
X22181Y-71739D02*
X21899Y-71739D01*
X21899Y-71148D01*
X22631Y-71739D02*
X22631Y-71429D01*
X22603Y-71373D01*
X22546Y-71345D01*
X22434Y-71345D01*
X22378Y-71373D01*
X22631Y-71711D02*
X22575Y-71739D01*
X22434Y-71739D01*
X22378Y-71711D01*
X22349Y-71654D01*
X22349Y-71598D01*
X22378Y-71542D01*
X22434Y-71514D01*
X22575Y-71514D01*
X22631Y-71485D01*
X22856Y-71345D02*
X22997Y-71739D01*
X23137Y-71345D02*
X22997Y-71739D01*
X22940Y-71879D01*
X22912Y-71908D01*
X22856Y-71936D01*
X23588Y-71711D02*
X23531Y-71739D01*
X23419Y-71739D01*
X23363Y-71711D01*
X23334Y-71654D01*
X23334Y-71429D01*
X23363Y-71373D01*
X23419Y-71345D01*
X23531Y-71345D01*
X23588Y-71373D01*
X23616Y-71429D01*
X23616Y-71485D01*
X23334Y-71542D01*
X23869Y-71739D02*
X23869Y-71345D01*
X23869Y-71457D02*
X23897Y-71401D01*
X23925Y-71373D01*
X23982Y-71345D01*
X24038Y-71345D01*
X24770Y-71401D02*
X24713Y-71373D01*
X24685Y-71345D01*
X24657Y-71288D01*
X24657Y-71260D01*
X24685Y-71204D01*
X24713Y-71176D01*
X24770Y-71148D01*
X24882Y-71148D01*
X24939Y-71176D01*
X24967Y-71204D01*
X24995Y-71260D01*
X24995Y-71288D01*
X24967Y-71345D01*
X24939Y-71373D01*
X24882Y-71401D01*
X24770Y-71401D01*
X24713Y-71429D01*
X24685Y-71457D01*
X24657Y-71514D01*
X24657Y-71626D01*
X24685Y-71682D01*
X24713Y-71711D01*
X24770Y-71739D01*
X24882Y-71739D01*
X24939Y-71711D01*
X24967Y-71682D01*
X24995Y-71626D01*
X24995Y-71514D01*
X24967Y-71457D01*
X24939Y-71429D01*
X24882Y-71401D01*
G54D13*
X19484Y-59852D02*
X19427Y-59871D01*
X19408Y-59890D01*
X19389Y-59928D01*
X19389Y-59985D01*
X19408Y-60023D01*
X19427Y-60042D01*
X19465Y-60061D01*
X19618Y-60061D01*
X19618Y-59661D01*
X19484Y-59661D01*
X19446Y-59680D01*
X19427Y-59700D01*
X19408Y-59738D01*
X19408Y-59776D01*
X19427Y-59814D01*
X19446Y-59833D01*
X19484Y-59852D01*
X19618Y-59852D01*
X19027Y-60061D02*
X19218Y-60061D01*
X19218Y-59661D01*
X18913Y-59947D02*
X18722Y-59947D01*
X18951Y-60061D02*
X18818Y-59661D01*
X18684Y-60061D01*
X18322Y-60023D02*
X18341Y-60042D01*
X18399Y-60061D01*
X18437Y-60061D01*
X18494Y-60042D01*
X18532Y-60004D01*
X18551Y-59966D01*
X18570Y-59890D01*
X18570Y-59833D01*
X18551Y-59757D01*
X18532Y-59719D01*
X18494Y-59680D01*
X18437Y-59661D01*
X18399Y-59661D01*
X18341Y-59680D01*
X18322Y-59700D01*
X18151Y-60061D02*
X18151Y-59661D01*
X17922Y-60061D02*
X18094Y-59833D01*
X17922Y-59661D02*
X18151Y-59890D01*
X19397Y-58641D02*
X19530Y-58451D01*
X19625Y-58641D02*
X19625Y-58241D01*
X19473Y-58241D01*
X19435Y-58260D01*
X19416Y-58280D01*
X19397Y-58318D01*
X19397Y-58375D01*
X19416Y-58413D01*
X19435Y-58432D01*
X19473Y-58451D01*
X19625Y-58451D01*
X19225Y-58432D02*
X19092Y-58432D01*
X19035Y-58641D02*
X19225Y-58641D01*
X19225Y-58241D01*
X19035Y-58241D01*
X18863Y-58641D02*
X18863Y-58241D01*
X18768Y-58241D01*
X18711Y-58260D01*
X18673Y-58299D01*
X18654Y-58337D01*
X18635Y-58413D01*
X18635Y-58470D01*
X18654Y-58546D01*
X18673Y-58584D01*
X18711Y-58622D01*
X18768Y-58641D01*
X18863Y-58641D01*
X19410Y-60431D02*
X19029Y-60431D01*
X19380Y-57911D02*
X18999Y-57911D01*
X19190Y-58102D02*
X19190Y-57721D01*
X28249Y-25154D02*
X28273Y-25178D01*
X28345Y-25202D01*
X28392Y-25202D01*
X28464Y-25178D01*
X28511Y-25130D01*
X28535Y-25083D01*
X28559Y-24988D01*
X28559Y-24916D01*
X28535Y-24821D01*
X28511Y-24773D01*
X28464Y-24726D01*
X28392Y-24702D01*
X28345Y-24702D01*
X28273Y-24726D01*
X28249Y-24750D01*
X27821Y-25202D02*
X27821Y-24940D01*
X27845Y-24892D01*
X27892Y-24869D01*
X27988Y-24869D01*
X28035Y-24892D01*
X27821Y-25178D02*
X27869Y-25202D01*
X27988Y-25202D01*
X28035Y-25178D01*
X28059Y-25130D01*
X28059Y-25083D01*
X28035Y-25035D01*
X27988Y-25011D01*
X27869Y-25011D01*
X27821Y-24988D01*
X27583Y-25202D02*
X27583Y-24869D01*
X27583Y-24916D02*
X27559Y-24892D01*
X27511Y-24869D01*
X27440Y-24869D01*
X27392Y-24892D01*
X27369Y-24940D01*
X27369Y-25202D01*
X27369Y-24940D02*
X27345Y-24892D01*
X27297Y-24869D01*
X27226Y-24869D01*
X27178Y-24892D01*
X27154Y-24940D01*
X27154Y-25202D01*
X26726Y-25178D02*
X26773Y-25202D01*
X26869Y-25202D01*
X26916Y-25178D01*
X26940Y-25130D01*
X26940Y-24940D01*
X26916Y-24892D01*
X26869Y-24869D01*
X26773Y-24869D01*
X26726Y-24892D01*
X26702Y-24940D01*
X26702Y-24988D01*
X26940Y-25035D01*
X26488Y-25202D02*
X26488Y-24869D01*
X26488Y-24964D02*
X26464Y-24916D01*
X26440Y-24892D01*
X26392Y-24869D01*
X26345Y-24869D01*
X25964Y-25202D02*
X25964Y-24940D01*
X25988Y-24892D01*
X26035Y-24869D01*
X26130Y-24869D01*
X26178Y-24892D01*
X25964Y-25178D02*
X26011Y-25202D01*
X26130Y-25202D01*
X26178Y-25178D01*
X26202Y-25130D01*
X26202Y-25083D01*
X26178Y-25035D01*
X26130Y-25011D01*
X26011Y-25011D01*
X25964Y-24988D01*
X25369Y-25059D02*
X25130Y-25059D01*
X25416Y-25202D02*
X25249Y-24702D01*
X25083Y-25202D01*
X24964Y-25202D02*
X24702Y-24869D01*
X24964Y-24869D02*
X24702Y-25202D01*
X24321Y-25178D02*
X24369Y-25202D01*
X24464Y-25202D01*
X24511Y-25178D01*
X24535Y-25130D01*
X24535Y-24940D01*
X24511Y-24892D01*
X24464Y-24869D01*
X24369Y-24869D01*
X24321Y-24892D01*
X24297Y-24940D01*
X24297Y-24988D01*
X24535Y-25035D01*
X23488Y-24702D02*
X23583Y-24702D01*
X23630Y-24726D01*
X23654Y-24750D01*
X23702Y-24821D01*
X23726Y-24916D01*
X23726Y-25107D01*
X23702Y-25154D01*
X23678Y-25178D01*
X23630Y-25202D01*
X23535Y-25202D01*
X23488Y-25178D01*
X23464Y-25154D01*
X23440Y-25107D01*
X23440Y-24988D01*
X23464Y-24940D01*
X23488Y-24916D01*
X23535Y-24892D01*
X23630Y-24892D01*
X23678Y-24916D01*
X23702Y-24940D01*
X23726Y-24988D01*
X27738Y-25482D02*
X27571Y-25982D01*
X27404Y-25482D01*
X27047Y-25958D02*
X27095Y-25982D01*
X27190Y-25982D01*
X27238Y-25958D01*
X27261Y-25910D01*
X27261Y-25720D01*
X27238Y-25672D01*
X27190Y-25649D01*
X27095Y-25649D01*
X27047Y-25672D01*
X27023Y-25720D01*
X27023Y-25768D01*
X27261Y-25815D01*
X26809Y-25982D02*
X26809Y-25649D01*
X26809Y-25744D02*
X26785Y-25696D01*
X26761Y-25672D01*
X26714Y-25649D01*
X26666Y-25649D01*
X26523Y-25958D02*
X26476Y-25982D01*
X26380Y-25982D01*
X26333Y-25958D01*
X26309Y-25910D01*
X26309Y-25887D01*
X26333Y-25839D01*
X26380Y-25815D01*
X26452Y-25815D01*
X26500Y-25791D01*
X26523Y-25744D01*
X26523Y-25720D01*
X26500Y-25672D01*
X26452Y-25649D01*
X26380Y-25649D01*
X26333Y-25672D01*
X26095Y-25982D02*
X26095Y-25649D01*
X26095Y-25482D02*
X26119Y-25506D01*
X26095Y-25530D01*
X26071Y-25506D01*
X26095Y-25482D01*
X26095Y-25530D01*
X25785Y-25982D02*
X25833Y-25958D01*
X25857Y-25934D01*
X25880Y-25887D01*
X25880Y-25744D01*
X25857Y-25696D01*
X25833Y-25672D01*
X25785Y-25649D01*
X25714Y-25649D01*
X25666Y-25672D01*
X25642Y-25696D01*
X25619Y-25744D01*
X25619Y-25887D01*
X25642Y-25934D01*
X25666Y-25958D01*
X25714Y-25982D01*
X25785Y-25982D01*
X25404Y-25649D02*
X25404Y-25982D01*
X25404Y-25696D02*
X25380Y-25672D01*
X25333Y-25649D01*
X25261Y-25649D01*
X25214Y-25672D01*
X25190Y-25720D01*
X25190Y-25982D01*
X24619Y-25482D02*
X24309Y-25482D01*
X24476Y-25672D01*
X24404Y-25672D01*
X24357Y-25696D01*
X24333Y-25720D01*
X24309Y-25768D01*
X24309Y-25887D01*
X24333Y-25934D01*
X24357Y-25958D01*
X24404Y-25982D01*
X24547Y-25982D01*
X24595Y-25958D01*
X24619Y-25934D01*
X28297Y-26500D02*
X28464Y-26500D01*
X28464Y-26762D02*
X28464Y-26262D01*
X28226Y-26262D01*
X27845Y-26738D02*
X27892Y-26762D01*
X27988Y-26762D01*
X28035Y-26738D01*
X28059Y-26690D01*
X28059Y-26500D01*
X28035Y-26452D01*
X27988Y-26429D01*
X27892Y-26429D01*
X27845Y-26452D01*
X27821Y-26500D01*
X27821Y-26548D01*
X28059Y-26595D01*
X27607Y-26762D02*
X27607Y-26262D01*
X27607Y-26452D02*
X27559Y-26429D01*
X27464Y-26429D01*
X27416Y-26452D01*
X27392Y-26476D01*
X27369Y-26524D01*
X27369Y-26667D01*
X27392Y-26714D01*
X27416Y-26738D01*
X27464Y-26762D01*
X27559Y-26762D01*
X27607Y-26738D01*
X26797Y-26310D02*
X26773Y-26286D01*
X26726Y-26262D01*
X26607Y-26262D01*
X26559Y-26286D01*
X26535Y-26310D01*
X26511Y-26357D01*
X26511Y-26405D01*
X26535Y-26476D01*
X26821Y-26762D01*
X26511Y-26762D01*
X26035Y-26762D02*
X26321Y-26762D01*
X26178Y-26762D02*
X26178Y-26262D01*
X26226Y-26333D01*
X26273Y-26381D01*
X26321Y-26405D01*
X25797Y-26738D02*
X25797Y-26762D01*
X25821Y-26810D01*
X25845Y-26833D01*
X25226Y-26310D02*
X25202Y-26286D01*
X25154Y-26262D01*
X25035Y-26262D01*
X24988Y-26286D01*
X24964Y-26310D01*
X24940Y-26357D01*
X24940Y-26405D01*
X24964Y-26476D01*
X25250Y-26762D01*
X24940Y-26762D01*
X24630Y-26262D02*
X24583Y-26262D01*
X24535Y-26286D01*
X24511Y-26310D01*
X24488Y-26357D01*
X24464Y-26452D01*
X24464Y-26571D01*
X24488Y-26667D01*
X24511Y-26714D01*
X24535Y-26738D01*
X24583Y-26762D01*
X24630Y-26762D01*
X24678Y-26738D01*
X24702Y-26714D01*
X24726Y-26667D01*
X24750Y-26571D01*
X24750Y-26452D01*
X24726Y-26357D01*
X24702Y-26310D01*
X24678Y-26286D01*
X24630Y-26262D01*
X23988Y-26762D02*
X24273Y-26762D01*
X24130Y-26762D02*
X24130Y-26262D01*
X24178Y-26333D01*
X24226Y-26381D01*
X24273Y-26405D01*
X23535Y-26262D02*
X23773Y-26262D01*
X23797Y-26500D01*
X23773Y-26476D01*
X23726Y-26452D01*
X23607Y-26452D01*
X23559Y-26476D01*
X23535Y-26500D01*
X23511Y-26548D01*
X23511Y-26667D01*
X23535Y-26714D01*
X23559Y-26738D01*
X23607Y-26762D01*
X23726Y-26762D01*
X23773Y-26738D01*
X23797Y-26714D01*
G54D14*
G36*
X23535Y-21872D02*
X23535Y-21982D01*
X23537Y-22087D01*
X23539Y-22119D01*
X23540Y-22172D01*
X23542Y-22224D01*
X23542Y-22272D01*
X23545Y-22312D01*
X23545Y-22347D01*
X23547Y-22370D01*
X23547Y-22385D01*
X23547Y-22385D01*
X23550Y-22405D01*
X23550Y-22434D01*
X23554Y-22465D01*
X23554Y-22479D01*
X23572Y-22712D01*
X23597Y-22950D01*
X23630Y-23192D01*
X23672Y-23435D01*
X23720Y-23675D01*
X23774Y-23910D01*
X23812Y-24055D01*
X23812Y-21905D01*
X23812Y-21829D01*
X23812Y-21754D01*
X23814Y-21682D01*
X23815Y-21615D01*
X23815Y-21559D01*
X23817Y-21509D01*
X23819Y-21492D01*
X23822Y-21430D01*
X23825Y-21370D01*
X23829Y-21314D01*
X23832Y-21259D01*
X23835Y-21210D01*
X23840Y-21165D01*
X23842Y-21130D01*
X23845Y-21102D01*
X23849Y-21085D01*
X23850Y-21080D01*
X23857Y-21074D01*
X23875Y-21064D01*
X23897Y-21050D01*
X23924Y-21035D01*
X23925Y-21034D01*
X23960Y-21015D01*
X23995Y-20995D01*
X24029Y-20975D01*
X24050Y-20965D01*
X24105Y-20934D01*
X23997Y-20824D01*
X23887Y-20715D01*
X23905Y-20592D01*
X23915Y-20534D01*
X23924Y-20480D01*
X23932Y-20430D01*
X23940Y-20380D01*
X23950Y-20330D01*
X23962Y-20277D01*
X23974Y-20220D01*
X23987Y-20157D01*
X24004Y-20084D01*
X24017Y-20025D01*
X24040Y-19930D01*
X24060Y-19845D01*
X24079Y-19770D01*
X24095Y-19700D01*
X24112Y-19639D01*
X24127Y-19580D01*
X24144Y-19525D01*
X24160Y-19472D01*
X24177Y-19417D01*
X24197Y-19360D01*
X24217Y-19302D01*
X24219Y-19297D01*
X24234Y-19254D01*
X24247Y-19220D01*
X24257Y-19197D01*
X24264Y-19184D01*
X24270Y-19177D01*
X24272Y-19175D01*
X24277Y-19180D01*
X24282Y-19197D01*
X24290Y-19219D01*
X24300Y-19245D01*
X24327Y-19317D01*
X24357Y-19395D01*
X24392Y-19475D01*
X24429Y-19550D01*
X24432Y-19557D01*
X24472Y-19635D01*
X24452Y-19702D01*
X24392Y-19937D01*
X24337Y-20182D01*
X24290Y-20435D01*
X24250Y-20700D01*
X24217Y-20974D01*
X24192Y-21257D01*
X24187Y-21327D01*
X24185Y-21370D01*
X24182Y-21422D01*
X24180Y-21485D01*
X24179Y-21555D01*
X24177Y-21630D01*
X24177Y-21710D01*
X24175Y-21792D01*
X24175Y-21875D01*
X24175Y-21959D01*
X24175Y-22040D01*
X24175Y-22119D01*
X24177Y-22192D01*
X24179Y-22259D01*
X24180Y-22317D01*
X24182Y-22365D01*
X24184Y-22395D01*
X24187Y-22440D01*
X24190Y-22490D01*
X24194Y-22540D01*
X24197Y-22584D01*
X24197Y-22602D01*
X24209Y-22774D01*
X24222Y-22935D01*
X24237Y-23087D01*
X24252Y-23232D01*
X24272Y-23372D01*
X24292Y-23510D01*
X24304Y-23579D01*
X24310Y-23622D01*
X24319Y-23667D01*
X24327Y-23712D01*
X24335Y-23755D01*
X24342Y-23792D01*
X24349Y-23825D01*
X24352Y-23849D01*
X24357Y-23862D01*
X24357Y-23862D01*
X24355Y-23870D01*
X24345Y-23880D01*
X24327Y-23895D01*
X24299Y-23915D01*
X24292Y-23920D01*
X24259Y-23944D01*
X24220Y-23970D01*
X24184Y-23999D01*
X24160Y-24015D01*
X24135Y-24035D01*
X24115Y-24049D01*
X24100Y-24059D01*
X24092Y-24062D01*
X24090Y-24062D01*
X24089Y-24055D01*
X24084Y-24037D01*
X24075Y-24012D01*
X24067Y-23979D01*
X24057Y-23940D01*
X24049Y-23905D01*
X23995Y-23675D01*
X23950Y-23445D01*
X23910Y-23214D01*
X23877Y-22977D01*
X23850Y-22735D01*
X23830Y-22487D01*
X23819Y-22282D01*
X23817Y-22240D01*
X23815Y-22185D01*
X23814Y-22122D01*
X23812Y-22055D01*
X23812Y-21980D01*
X23812Y-21905D01*
X23812Y-24055D01*
X23834Y-24135D01*
X23837Y-24150D01*
X23845Y-24179D01*
X23857Y-24214D01*
X23869Y-24252D01*
X23882Y-24297D01*
X23897Y-24342D01*
X23912Y-24385D01*
X23925Y-24430D01*
X23940Y-24469D01*
X23950Y-24505D01*
X23960Y-24532D01*
X23967Y-24552D01*
X23972Y-24562D01*
X23972Y-24562D01*
X23977Y-24564D01*
X23990Y-24557D01*
X24007Y-24540D01*
X24015Y-24532D01*
X24132Y-24417D01*
X24245Y-24310D01*
X24360Y-24214D01*
X24479Y-24122D01*
X24600Y-24037D01*
X24710Y-23965D01*
X24742Y-23947D01*
X24780Y-23925D01*
X24824Y-23900D01*
X24869Y-23875D01*
X24914Y-23850D01*
X24955Y-23827D01*
X24992Y-23809D01*
X25020Y-23795D01*
X25020Y-23795D01*
X25037Y-23787D01*
X25047Y-23780D01*
X25049Y-23779D01*
X25042Y-23775D01*
X25029Y-23765D01*
X25009Y-23752D01*
X24992Y-23740D01*
X24962Y-23719D01*
X24929Y-23694D01*
X24899Y-23670D01*
X24890Y-23662D01*
X24870Y-23645D01*
X24852Y-23630D01*
X24839Y-23620D01*
X24835Y-23617D01*
X24827Y-23617D01*
X24810Y-23624D01*
X24787Y-23635D01*
X24757Y-23649D01*
X24722Y-23665D01*
X24687Y-23682D01*
X24650Y-23702D01*
X24615Y-23720D01*
X24602Y-23727D01*
X24582Y-23739D01*
X24567Y-23747D01*
X24560Y-23750D01*
X24560Y-23750D01*
X24559Y-23747D01*
X24555Y-23737D01*
X24550Y-23719D01*
X24545Y-23692D01*
X24537Y-23655D01*
X24527Y-23607D01*
X24520Y-23579D01*
X24479Y-23350D01*
X24442Y-23124D01*
X24412Y-22895D01*
X24390Y-22662D01*
X24372Y-22424D01*
X24360Y-22177D01*
X24359Y-22107D01*
X24357Y-22062D01*
X24357Y-22019D01*
X24355Y-21980D01*
X24355Y-21942D01*
X24355Y-21904D01*
X24355Y-21864D01*
X24357Y-21820D01*
X24357Y-21775D01*
X24359Y-21722D01*
X24360Y-21662D01*
X24362Y-21595D01*
X24365Y-21517D01*
X24369Y-21445D01*
X24375Y-21312D01*
X24385Y-21172D01*
X24399Y-21025D01*
X24415Y-20872D01*
X24434Y-20720D01*
X24450Y-20609D01*
X24460Y-20545D01*
X24470Y-20477D01*
X24482Y-20407D01*
X24495Y-20337D01*
X24507Y-20269D01*
X24520Y-20202D01*
X24534Y-20137D01*
X24547Y-20079D01*
X24559Y-20025D01*
X24570Y-19979D01*
X24580Y-19940D01*
X24589Y-19910D01*
X24597Y-19892D01*
X24597Y-19892D01*
X24612Y-19865D01*
X24670Y-19947D01*
X24785Y-20102D01*
X24912Y-20252D01*
X25050Y-20402D01*
X25199Y-20547D01*
X25355Y-20687D01*
X25520Y-20822D01*
X25695Y-20952D01*
X25875Y-21075D01*
X25987Y-21145D01*
X26167Y-21250D01*
X26349Y-21345D01*
X26532Y-21427D01*
X26717Y-21500D01*
X26907Y-21562D01*
X27104Y-21615D01*
X27307Y-21657D01*
X27427Y-21680D01*
X27465Y-21685D01*
X27492Y-21692D01*
X27510Y-21697D01*
X27522Y-21704D01*
X27530Y-21710D01*
X27535Y-21717D01*
X27535Y-21725D01*
X27537Y-21745D01*
X27537Y-21775D01*
X27537Y-21815D01*
X27539Y-21862D01*
X27540Y-21919D01*
X27540Y-21982D01*
X27540Y-22050D01*
X27540Y-22125D01*
X27540Y-22202D01*
X27540Y-22284D01*
X27540Y-22367D01*
X27540Y-22450D01*
X27540Y-22535D01*
X27540Y-22620D01*
X27540Y-22702D01*
X27540Y-22782D01*
X27540Y-22859D01*
X27540Y-22930D01*
X27539Y-22997D01*
X27539Y-23057D01*
X27537Y-23110D01*
X27537Y-23155D01*
X27537Y-23192D01*
X27535Y-23219D01*
X27535Y-23234D01*
X27534Y-23237D01*
X27522Y-23264D01*
X27502Y-23285D01*
X27477Y-23302D01*
X27464Y-23305D01*
X27444Y-23307D01*
X27412Y-23302D01*
X27370Y-23295D01*
X27362Y-23294D01*
X27252Y-23272D01*
X27142Y-23255D01*
X27037Y-23242D01*
X26937Y-23232D01*
X26905Y-23230D01*
X26840Y-23225D01*
X26794Y-23270D01*
X26770Y-23292D01*
X26740Y-23320D01*
X26709Y-23347D01*
X26690Y-23362D01*
X26630Y-23410D01*
X26740Y-23415D01*
X26912Y-23427D01*
X27077Y-23445D01*
X27237Y-23472D01*
X27387Y-23505D01*
X27435Y-23517D01*
X27472Y-23525D01*
X27502Y-23532D01*
X27527Y-23535D01*
X27550Y-23537D01*
X27570Y-23539D01*
X27577Y-23539D01*
X27640Y-23534D01*
X27700Y-23520D01*
X27757Y-23497D01*
X27757Y-23497D01*
X27774Y-23487D01*
X27789Y-23479D01*
X27805Y-23467D01*
X27822Y-23454D01*
X27842Y-23435D01*
X27865Y-23412D01*
X27895Y-23385D01*
X27930Y-23349D01*
X27970Y-23305D01*
X27985Y-23290D01*
X28014Y-23262D01*
X28047Y-23227D01*
X28087Y-23185D01*
X28129Y-23142D01*
X28172Y-23097D01*
X28214Y-23054D01*
X28237Y-23029D01*
X28290Y-22975D01*
X28334Y-22930D01*
X28370Y-22892D01*
X28400Y-22860D01*
X28425Y-22832D01*
X28445Y-22810D01*
X28460Y-22792D01*
X28472Y-22777D01*
X28480Y-22764D01*
X28487Y-22752D01*
X28492Y-22740D01*
X28497Y-22727D01*
X28502Y-22712D01*
X28502Y-22709D01*
X28505Y-22704D01*
X28507Y-22697D01*
X28507Y-22690D01*
X28509Y-22682D01*
X28510Y-22672D01*
X28510Y-22657D01*
X28512Y-22640D01*
X28512Y-22619D01*
X28514Y-22592D01*
X28514Y-22560D01*
X28515Y-22522D01*
X28515Y-22479D01*
X28515Y-22427D01*
X28515Y-22367D01*
X28515Y-22300D01*
X28517Y-22222D01*
X28517Y-22135D01*
X28517Y-22039D01*
X28517Y-21930D01*
X28517Y-21810D01*
X28517Y-21770D01*
X28520Y-20870D01*
X28504Y-20835D01*
X28477Y-20790D01*
X28444Y-20757D01*
X28405Y-20734D01*
X28359Y-20720D01*
X28340Y-20719D01*
X28320Y-20719D01*
X28292Y-20720D01*
X28262Y-20722D01*
X28232Y-20725D01*
X28205Y-20727D01*
X28185Y-20730D01*
X28172Y-20735D01*
X28170Y-20735D01*
X28169Y-20742D01*
X28167Y-20760D01*
X28167Y-20785D01*
X28167Y-20817D01*
X28167Y-20845D01*
X28169Y-20885D01*
X28170Y-20912D01*
X28170Y-20930D01*
X28172Y-20942D01*
X28175Y-20947D01*
X28177Y-20950D01*
X28182Y-20949D01*
X28202Y-20949D01*
X28220Y-20955D01*
X28230Y-20965D01*
X28232Y-20982D01*
X28227Y-21000D01*
X28212Y-21017D01*
X28205Y-21024D01*
X28194Y-21032D01*
X28175Y-21045D01*
X28155Y-21062D01*
X28152Y-21067D01*
X28137Y-21080D01*
X28114Y-21100D01*
X28085Y-21125D01*
X28050Y-21155D01*
X28014Y-21185D01*
X27977Y-21217D01*
X27940Y-21250D01*
X27907Y-21279D01*
X27877Y-21304D01*
X27852Y-21325D01*
X27839Y-21335D01*
X27819Y-21352D01*
X27795Y-21372D01*
X27772Y-21392D01*
X27770Y-21395D01*
X27745Y-21412D01*
X27720Y-21430D01*
X27697Y-21442D01*
X27697Y-21444D01*
X27679Y-21452D01*
X27662Y-21455D01*
X27644Y-21459D01*
X27619Y-21460D01*
X27597Y-21460D01*
X27540Y-21457D01*
X27472Y-21450D01*
X27399Y-21439D01*
X27317Y-21425D01*
X27230Y-21407D01*
X27142Y-21385D01*
X27052Y-21362D01*
X26962Y-21337D01*
X26875Y-21310D01*
X26790Y-21282D01*
X26764Y-21272D01*
X26702Y-21247D01*
X26632Y-21217D01*
X26555Y-21180D01*
X26472Y-21140D01*
X26387Y-21095D01*
X26300Y-21047D01*
X26212Y-20999D01*
X26149Y-20960D01*
X26034Y-20890D01*
X25932Y-20817D01*
X25840Y-20745D01*
X25757Y-20670D01*
X25732Y-20645D01*
X25687Y-20599D01*
X25652Y-20557D01*
X25629Y-20520D01*
X25615Y-20489D01*
X25612Y-20462D01*
X25615Y-20452D01*
X25625Y-20437D01*
X25640Y-20429D01*
X25660Y-20425D01*
X25690Y-20427D01*
X25725Y-20435D01*
X25769Y-20450D01*
X25820Y-20470D01*
X25882Y-20497D01*
X25952Y-20530D01*
X26017Y-20564D01*
X26139Y-20624D01*
X26255Y-20679D01*
X26364Y-20730D01*
X26465Y-20774D01*
X26550Y-20810D01*
X26582Y-20822D01*
X26610Y-20834D01*
X26632Y-20842D01*
X26645Y-20847D01*
X26647Y-20847D01*
X26650Y-20842D01*
X26650Y-20827D01*
X26652Y-20805D01*
X26654Y-20802D01*
X26660Y-20757D01*
X26677Y-20715D01*
X26705Y-20675D01*
X26707Y-20672D01*
X26727Y-20647D01*
X26620Y-20605D01*
X26420Y-20522D01*
X26224Y-20434D01*
X26030Y-20335D01*
X25842Y-20232D01*
X25657Y-20122D01*
X25479Y-20007D01*
X25307Y-19889D01*
X25145Y-19765D01*
X24992Y-19637D01*
X24849Y-19507D01*
X24715Y-19377D01*
X24677Y-19337D01*
X24590Y-19237D01*
X24510Y-19144D01*
X24440Y-19052D01*
X24377Y-18962D01*
X24320Y-18872D01*
X24267Y-18779D01*
X24252Y-18750D01*
X24205Y-18660D01*
X24170Y-18735D01*
X24085Y-18925D01*
X24005Y-19125D01*
X23930Y-19335D01*
X23860Y-19552D01*
X23797Y-19777D01*
X23740Y-20007D01*
X23690Y-20242D01*
X23647Y-20480D01*
X23622Y-20640D01*
X23617Y-20680D01*
X23612Y-20709D01*
X23610Y-20729D01*
X23610Y-20742D01*
X23610Y-20750D01*
X23614Y-20755D01*
X23617Y-20759D01*
X23617Y-20760D01*
X23647Y-20780D01*
X23679Y-20802D01*
X23707Y-20822D01*
X23735Y-20842D01*
X23757Y-20860D01*
X23772Y-20872D01*
X23780Y-20880D01*
X23782Y-20882D01*
X23775Y-20887D01*
X23760Y-20897D01*
X23737Y-20910D01*
X23710Y-20925D01*
X23684Y-20939D01*
X23652Y-20955D01*
X23625Y-20970D01*
X23602Y-20982D01*
X23587Y-20990D01*
X23582Y-20995D01*
X23580Y-21002D01*
X23577Y-21022D01*
X23574Y-21050D01*
X23570Y-21090D01*
X23567Y-21135D01*
X23562Y-21189D01*
X23557Y-21247D01*
X23554Y-21309D01*
X23550Y-21345D01*
X23545Y-21437D01*
X23542Y-21540D01*
X23539Y-21647D01*
X23537Y-21760D01*
X23535Y-21872D01*
X23535Y-21872D01*
X23535Y-21872D01*
G37*
G36*
X26764Y-24335D02*
X26789Y-24360D01*
X26824Y-24385D01*
X26870Y-24410D01*
X26930Y-24430D01*
X27002Y-24450D01*
X27085Y-24465D01*
X27145Y-24475D01*
X27177Y-24477D01*
X27217Y-24480D01*
X27267Y-24482D01*
X27320Y-24485D01*
X27375Y-24487D01*
X27430Y-24487D01*
X27484Y-24487D01*
X27530Y-24487D01*
X27570Y-24485D01*
X27594Y-24484D01*
X27685Y-24474D01*
X27767Y-24460D01*
X27840Y-24445D01*
X27905Y-24427D01*
X27960Y-24405D01*
X28005Y-24382D01*
X28037Y-24357D01*
X28039Y-24355D01*
X28060Y-24334D01*
X28062Y-23900D01*
X28062Y-23467D01*
X28009Y-23524D01*
X27974Y-23559D01*
X27944Y-23587D01*
X27917Y-23610D01*
X27889Y-23627D01*
X27860Y-23645D01*
X27857Y-23647D01*
X27780Y-23682D01*
X27702Y-23705D01*
X27622Y-23717D01*
X27575Y-23720D01*
X27554Y-23720D01*
X27532Y-23719D01*
X27512Y-23717D01*
X27487Y-23712D01*
X27459Y-23707D01*
X27422Y-23697D01*
X27375Y-23687D01*
X27370Y-23685D01*
X27257Y-23660D01*
X27152Y-23640D01*
X27052Y-23624D01*
X26952Y-23612D01*
X26850Y-23604D01*
X26837Y-23602D01*
X26764Y-23599D01*
X26764Y-23967D01*
X26764Y-24335D01*
X26764Y-24335D01*
X26764Y-24335D01*
G37*
G36*
X24580Y-22635D02*
X24580Y-22672D01*
X24582Y-22702D01*
X24584Y-22727D01*
X24587Y-22750D01*
X24590Y-22772D01*
X24595Y-22799D01*
X24597Y-22805D01*
X24627Y-22920D01*
X24667Y-23032D01*
X24717Y-23137D01*
X24775Y-23235D01*
X24810Y-23282D01*
X24810Y-22630D01*
X24812Y-22537D01*
X24825Y-22447D01*
X24849Y-22362D01*
X24875Y-22297D01*
X24917Y-22222D01*
X24967Y-22155D01*
X25025Y-22097D01*
X25092Y-22050D01*
X25165Y-22012D01*
X25245Y-21984D01*
X25285Y-21975D01*
X25335Y-21970D01*
X25389Y-21969D01*
X25442Y-21970D01*
X25492Y-21975D01*
X25535Y-21982D01*
X25625Y-22010D01*
X25710Y-22049D01*
X25792Y-22097D01*
X25867Y-22155D01*
X25925Y-22209D01*
X25982Y-22270D01*
X26030Y-22332D01*
X26072Y-22399D01*
X26109Y-22467D01*
X26149Y-22562D01*
X26179Y-22660D01*
X26197Y-22757D01*
X26204Y-22852D01*
X26199Y-22947D01*
X26182Y-23040D01*
X26170Y-23085D01*
X26140Y-23162D01*
X26102Y-23232D01*
X26055Y-23297D01*
X26010Y-23344D01*
X25947Y-23397D01*
X25879Y-23439D01*
X25805Y-23470D01*
X25727Y-23490D01*
X25645Y-23497D01*
X25560Y-23494D01*
X25490Y-23482D01*
X25397Y-23457D01*
X25309Y-23419D01*
X25224Y-23370D01*
X25144Y-23309D01*
X25075Y-23244D01*
X25009Y-23167D01*
X24950Y-23085D01*
X24904Y-22997D01*
X24865Y-22907D01*
X24837Y-22817D01*
X24817Y-22722D01*
X24810Y-22630D01*
X24810Y-23282D01*
X24842Y-23327D01*
X24917Y-23412D01*
X24999Y-23489D01*
X25087Y-23557D01*
X25180Y-23615D01*
X25279Y-23665D01*
X25380Y-23702D01*
X25472Y-23725D01*
X25514Y-23732D01*
X25562Y-23737D01*
X25614Y-23740D01*
X25664Y-23740D01*
X25710Y-23740D01*
X25744Y-23737D01*
X25837Y-23720D01*
X25925Y-23692D01*
X26010Y-23654D01*
X26087Y-23605D01*
X26115Y-23585D01*
X26125Y-23575D01*
X26135Y-23567D01*
X26147Y-23559D01*
X26159Y-23549D01*
X26172Y-23537D01*
X26190Y-23522D01*
X26212Y-23504D01*
X26239Y-23480D01*
X26272Y-23452D01*
X26312Y-23417D01*
X26360Y-23375D01*
X26377Y-23362D01*
X26419Y-23327D01*
X26459Y-23292D01*
X26497Y-23259D01*
X26532Y-23229D01*
X26562Y-23204D01*
X26585Y-23185D01*
X26590Y-23180D01*
X26674Y-23102D01*
X26745Y-23022D01*
X26807Y-22937D01*
X26855Y-22850D01*
X26892Y-22759D01*
X26919Y-22665D01*
X26922Y-22637D01*
X26927Y-22594D01*
X26930Y-22542D01*
X26930Y-22485D01*
X26927Y-22427D01*
X26922Y-22372D01*
X26915Y-22322D01*
X26912Y-22312D01*
X26882Y-22197D01*
X26842Y-22089D01*
X26790Y-21987D01*
X26727Y-21890D01*
X26655Y-21800D01*
X26592Y-21737D01*
X26507Y-21665D01*
X26417Y-21602D01*
X26320Y-21552D01*
X26219Y-21512D01*
X26127Y-21487D01*
X26100Y-21484D01*
X26067Y-21480D01*
X26025Y-21479D01*
X25982Y-21479D01*
X25937Y-21479D01*
X25894Y-21480D01*
X25855Y-21482D01*
X25824Y-21487D01*
X25807Y-21490D01*
X25790Y-21495D01*
X25765Y-21504D01*
X25737Y-21515D01*
X25705Y-21527D01*
X25670Y-21540D01*
X25637Y-21552D01*
X25607Y-21565D01*
X25580Y-21577D01*
X25562Y-21585D01*
X25550Y-21590D01*
X25549Y-21592D01*
X25555Y-21595D01*
X25572Y-21599D01*
X25590Y-21602D01*
X25692Y-21632D01*
X25792Y-21672D01*
X25890Y-21722D01*
X25985Y-21784D01*
X26014Y-21805D01*
X26054Y-21837D01*
X26097Y-21877D01*
X26142Y-21922D01*
X26187Y-21970D01*
X26227Y-22015D01*
X26259Y-22055D01*
X26325Y-22155D01*
X26382Y-22255D01*
X26427Y-22362D01*
X26462Y-22474D01*
X26482Y-22555D01*
X26487Y-22585D01*
X26492Y-22612D01*
X26495Y-22637D01*
X26497Y-22667D01*
X26499Y-22700D01*
X26499Y-22742D01*
X26499Y-22755D01*
X26499Y-22802D01*
X26497Y-22840D01*
X26497Y-22870D01*
X26494Y-22897D01*
X26490Y-22922D01*
X26487Y-22935D01*
X26475Y-22995D01*
X26470Y-22882D01*
X26465Y-22797D01*
X26455Y-22720D01*
X26440Y-22645D01*
X26419Y-22569D01*
X26410Y-22540D01*
X26365Y-22432D01*
X26312Y-22327D01*
X26250Y-22229D01*
X26177Y-22137D01*
X26099Y-22052D01*
X26012Y-21975D01*
X25922Y-21909D01*
X25825Y-21850D01*
X25724Y-21802D01*
X25617Y-21765D01*
X25547Y-21747D01*
X25500Y-21740D01*
X25445Y-21735D01*
X25387Y-21732D01*
X25330Y-21730D01*
X25277Y-21732D01*
X25230Y-21737D01*
X25229Y-21739D01*
X25135Y-21760D01*
X25047Y-21792D01*
X24965Y-21835D01*
X24887Y-21889D01*
X24817Y-21950D01*
X24755Y-22022D01*
X24702Y-22102D01*
X24655Y-22189D01*
X24624Y-22270D01*
X24610Y-22315D01*
X24599Y-22357D01*
X24590Y-22397D01*
X24585Y-22440D01*
X24582Y-22487D01*
X24580Y-22542D01*
X24580Y-22587D01*
X24580Y-22635D01*
X24580Y-22635D01*
X24580Y-22635D01*
G37*
G36*
X26764Y-21025D02*
X26764Y-21065D01*
X26765Y-21092D01*
X26767Y-21110D01*
X26770Y-21120D01*
X26772Y-21120D01*
X26782Y-21125D01*
X26802Y-21135D01*
X26830Y-21145D01*
X26860Y-21155D01*
X26892Y-21167D01*
X26924Y-21177D01*
X26950Y-21184D01*
X27015Y-21199D01*
X27080Y-21210D01*
X27147Y-21217D01*
X27220Y-21222D01*
X27270Y-21224D01*
X27312Y-21225D01*
X27355Y-21225D01*
X27395Y-21224D01*
X27429Y-21222D01*
X27450Y-21220D01*
X27557Y-21205D01*
X27660Y-21180D01*
X27759Y-21149D01*
X27850Y-21110D01*
X27932Y-21065D01*
X28004Y-21017D01*
X28064Y-20972D01*
X28062Y-20870D01*
X28060Y-20767D01*
X28037Y-20745D01*
X28007Y-20720D01*
X27965Y-20697D01*
X27912Y-20677D01*
X27850Y-20659D01*
X27780Y-20644D01*
X27704Y-20630D01*
X27620Y-20622D01*
X27532Y-20615D01*
X27440Y-20612D01*
X27347Y-20614D01*
X27240Y-20619D01*
X27140Y-20627D01*
X27050Y-20642D01*
X26970Y-20659D01*
X26902Y-20679D01*
X26844Y-20704D01*
X26814Y-20720D01*
X26797Y-20732D01*
X26790Y-20742D01*
X26789Y-20755D01*
X26795Y-20782D01*
X26812Y-20809D01*
X26842Y-20834D01*
X26882Y-20857D01*
X26934Y-20880D01*
X26994Y-20900D01*
X26995Y-20900D01*
X27074Y-20919D01*
X27162Y-20930D01*
X27257Y-20937D01*
X27362Y-20937D01*
X27475Y-20930D01*
X27599Y-20919D01*
X27732Y-20900D01*
X27759Y-20895D01*
X27782Y-20892D01*
X27802Y-20889D01*
X27812Y-20889D01*
X27814Y-20889D01*
X27810Y-20892D01*
X27795Y-20897D01*
X27772Y-20905D01*
X27744Y-20912D01*
X27710Y-20922D01*
X27672Y-20932D01*
X27634Y-20942D01*
X27595Y-20950D01*
X27559Y-20959D01*
X27527Y-20965D01*
X27512Y-20967D01*
X27467Y-20975D01*
X27425Y-20982D01*
X27389Y-20987D01*
X27350Y-20990D01*
X27310Y-20992D01*
X27265Y-20992D01*
X27212Y-20994D01*
X27162Y-20994D01*
X27097Y-20994D01*
X27044Y-20992D01*
X26997Y-20990D01*
X26959Y-20987D01*
X26925Y-20982D01*
X26892Y-20977D01*
X26860Y-20969D01*
X26827Y-20957D01*
X26815Y-20955D01*
X26764Y-20937D01*
X26764Y-21025D01*
X26764Y-21025D01*
X26764Y-21025D01*
G37*
G36*
X24957Y-22567D02*
X24959Y-22654D01*
X24970Y-22742D01*
X24992Y-22827D01*
X25025Y-22910D01*
X25065Y-22987D01*
X25115Y-23062D01*
X25172Y-23129D01*
X25235Y-23190D01*
X25305Y-23240D01*
X25379Y-23284D01*
X25457Y-23315D01*
X25477Y-23322D01*
X25504Y-23327D01*
X25537Y-23332D01*
X25575Y-23335D01*
X25612Y-23337D01*
X25647Y-23339D01*
X25674Y-23337D01*
X25682Y-23335D01*
X25700Y-23332D01*
X25707Y-23327D01*
X25702Y-23324D01*
X25685Y-23319D01*
X25667Y-23314D01*
X25592Y-23290D01*
X25517Y-23254D01*
X25445Y-23207D01*
X25379Y-23152D01*
X25317Y-23087D01*
X25260Y-23017D01*
X25212Y-22940D01*
X25170Y-22859D01*
X25142Y-22785D01*
X25122Y-22705D01*
X25110Y-22622D01*
X25105Y-22542D01*
X25110Y-22465D01*
X25124Y-22397D01*
X25140Y-22347D01*
X25162Y-22295D01*
X25189Y-22247D01*
X25217Y-22205D01*
X25245Y-22172D01*
X25264Y-22155D01*
X25277Y-22145D01*
X25284Y-22137D01*
X25284Y-22137D01*
X25277Y-22137D01*
X25260Y-22140D01*
X25239Y-22147D01*
X25215Y-22157D01*
X25192Y-22167D01*
X25187Y-22170D01*
X25130Y-22205D01*
X25080Y-22250D01*
X25039Y-22305D01*
X25005Y-22367D01*
X24980Y-22435D01*
X24964Y-22512D01*
X24957Y-22567D01*
X24957Y-22567D01*
X24957Y-22567D01*
G37*
G54D10*
X37417Y-52598D02*
X37417Y-27401D01*
X37417Y-27401D02*
X14582Y-27401D01*
X14582Y-27401D02*
X14582Y-52598D01*
X14582Y-52598D02*
X37417Y-52598D01*
G54D15*
X19764Y-59051D02*
X20551Y-59051D01*
X20551Y-59051D02*
X20551Y-57870D01*
X20551Y-57870D02*
X19764Y-57870D01*
X19764Y-60429D02*
X20551Y-60429D01*
X20551Y-60429D02*
X20551Y-59248D01*
X20551Y-59248D02*
X19764Y-59248D01*
X22520Y-60527D02*
X22520Y-57772D01*
X22520Y-57772D02*
X19764Y-57772D01*
X19764Y-57772D02*
X19764Y-60527D01*
X19764Y-60527D02*
X22520Y-60527D01*
X31076Y-26666D02*
X31076Y-24933D01*
X33123Y-26666D02*
X33123Y-24933D01*
X32545Y-25800D02*
G75*
G03X32545Y-25800I-445J0D01*
G74*
G01*
X31627Y-24618D02*
X32572Y-24618D01*
X30918Y-26744D02*
X30918Y-24855D01*
X32572Y-26981D02*
X31627Y-26981D01*
X33281Y-24855D02*
X33281Y-26744D01*
X32944Y-26485D02*
G75*
G03X32944Y-26485I-44J0D01*
G74*
G01*
X32356Y-26485D02*
G75*
G03X32356Y-26485I-56J0D01*
G74*
G01*
X32900Y-26485D02*
X32400Y-26285D01*
X33100Y-26485D02*
X32900Y-26485D01*
X31100Y-26485D02*
X32300Y-26485D01*
X34176Y-26666D02*
X34176Y-24933D01*
X36223Y-26666D02*
X36223Y-24933D01*
X35645Y-25800D02*
G75*
G03X35645Y-25800I-445J0D01*
G74*
G01*
X34727Y-24618D02*
X35672Y-24618D01*
X34018Y-26744D02*
X34018Y-24855D01*
X35672Y-26981D02*
X34727Y-26981D01*
X36381Y-24855D02*
X36381Y-26744D01*
X36044Y-26485D02*
G75*
G03X36044Y-26485I-44J0D01*
G74*
G01*
X35456Y-26485D02*
G75*
G03X35456Y-26485I-56J0D01*
G74*
G01*
X36000Y-26485D02*
X35500Y-26285D01*
X36200Y-26485D02*
X36000Y-26485D01*
X34200Y-26485D02*
X35400Y-26485D01*
G54D10*
X24587Y-52962D02*
X24542Y-52977D01*
X24527Y-52992D01*
X24512Y-53022D01*
X24512Y-53067D01*
X24527Y-53097D01*
X24542Y-53112D01*
X24572Y-53127D01*
X24692Y-53127D01*
X24692Y-52812D01*
X24587Y-52812D01*
X24557Y-52827D01*
X24542Y-52842D01*
X24527Y-52872D01*
X24527Y-52902D01*
X24542Y-52932D01*
X24557Y-52947D01*
X24587Y-52962D01*
X24692Y-52962D01*
X24422Y-52812D02*
X24242Y-52812D01*
X24332Y-53127D02*
X24332Y-52812D01*
X23972Y-53127D02*
X24152Y-53127D01*
X24062Y-53127D02*
X24062Y-52812D01*
X24092Y-52857D01*
X24122Y-52887D01*
X24152Y-52902D01*
X28459Y-30417D02*
X28459Y-30627D01*
X28534Y-30297D02*
X28609Y-30522D01*
X28414Y-30522D01*
X28324Y-30627D02*
X28159Y-30417D01*
X28324Y-30417D02*
X28159Y-30627D01*
X28054Y-30537D02*
X27904Y-30537D01*
X28084Y-30627D02*
X27979Y-30312D01*
X27874Y-30627D01*
X27784Y-30537D02*
X27634Y-30537D01*
X27814Y-30627D02*
X27709Y-30312D01*
X27604Y-30627D01*
X27574Y-30657D02*
X27334Y-30657D01*
X27154Y-30462D02*
X27109Y-30477D01*
X27094Y-30492D01*
X27079Y-30522D01*
X27079Y-30567D01*
X27094Y-30597D01*
X27109Y-30612D01*
X27139Y-30627D01*
X27259Y-30627D01*
X27259Y-30312D01*
X27154Y-30312D01*
X27124Y-30327D01*
X27109Y-30342D01*
X27094Y-30372D01*
X27094Y-30402D01*
X27109Y-30432D01*
X27124Y-30447D01*
X27154Y-30462D01*
X27259Y-30462D01*
X26959Y-30537D02*
X26809Y-30537D01*
X26989Y-30627D02*
X26884Y-30312D01*
X26779Y-30627D01*
X26719Y-30312D02*
X26539Y-30312D01*
X26629Y-30627D02*
X26629Y-30312D01*
X26479Y-30312D02*
X26299Y-30312D01*
X26389Y-30627D02*
X26389Y-30312D01*
X26194Y-30462D02*
X26089Y-30462D01*
X26044Y-30627D02*
X26194Y-30627D01*
X26194Y-30312D01*
X26044Y-30312D01*
X25730Y-30627D02*
X25835Y-30477D01*
X25910Y-30627D02*
X25910Y-30312D01*
X25790Y-30312D01*
X25760Y-30327D01*
X25745Y-30342D01*
X25730Y-30372D01*
X25730Y-30417D01*
X25745Y-30447D01*
X25760Y-30462D01*
X25790Y-30477D01*
X25910Y-30477D01*
X25535Y-30477D02*
X25535Y-30627D01*
X25640Y-30312D02*
X25535Y-30477D01*
X25430Y-30312D01*
X25400Y-30657D02*
X25160Y-30657D01*
X25085Y-30627D02*
X25085Y-30312D01*
X25085Y-30462D02*
X24905Y-30462D01*
X24905Y-30627D02*
X24905Y-30312D01*
X24695Y-30312D02*
X24635Y-30312D01*
X24605Y-30327D01*
X24575Y-30357D01*
X24560Y-30417D01*
X24560Y-30522D01*
X24575Y-30582D01*
X24605Y-30612D01*
X24635Y-30627D01*
X24695Y-30627D01*
X24725Y-30612D01*
X24755Y-30582D01*
X24770Y-30522D01*
X24770Y-30417D01*
X24755Y-30357D01*
X24725Y-30327D01*
X24695Y-30312D01*
X24275Y-30627D02*
X24425Y-30627D01*
X24425Y-30312D01*
X24170Y-30627D02*
X24170Y-30312D01*
X24095Y-30312D01*
X24050Y-30327D01*
X24020Y-30357D01*
X24005Y-30387D01*
X23990Y-30447D01*
X23990Y-30492D01*
X24005Y-30552D01*
X24020Y-30582D01*
X24050Y-30612D01*
X24095Y-30627D01*
X24170Y-30627D01*
X23855Y-30462D02*
X23750Y-30462D01*
X23705Y-30627D02*
X23855Y-30627D01*
X23855Y-30312D01*
X23705Y-30312D01*
X23390Y-30627D02*
X23495Y-30477D01*
X23570Y-30627D02*
X23570Y-30312D01*
X23450Y-30312D01*
X23420Y-30327D01*
X23405Y-30342D01*
X23390Y-30372D01*
X23390Y-30417D01*
X23405Y-30447D01*
X23420Y-30462D01*
X23450Y-30477D01*
X23570Y-30477D01*
X22964Y-57972D02*
X22964Y-58197D01*
X22979Y-58242D01*
X23009Y-58272D01*
X23054Y-58287D01*
X23084Y-58287D01*
X22830Y-58002D02*
X22815Y-57987D01*
X22785Y-57972D01*
X22710Y-57972D01*
X22680Y-57987D01*
X22665Y-58002D01*
X22650Y-58032D01*
X22650Y-58062D01*
X22665Y-58107D01*
X22845Y-58287D01*
X22650Y-58287D01*
X22039Y-57462D02*
X21994Y-57477D01*
X21979Y-57492D01*
X21964Y-57522D01*
X21964Y-57567D01*
X21979Y-57597D01*
X21994Y-57612D01*
X22024Y-57627D01*
X22144Y-57627D01*
X22144Y-57312D01*
X22039Y-57312D01*
X22009Y-57327D01*
X21994Y-57342D01*
X21979Y-57372D01*
X21979Y-57402D01*
X21994Y-57432D01*
X22009Y-57447D01*
X22039Y-57462D01*
X22144Y-57462D01*
X21844Y-57537D02*
X21694Y-57537D01*
X21874Y-57627D02*
X21769Y-57312D01*
X21664Y-57627D01*
X21604Y-57312D02*
X21424Y-57312D01*
X21514Y-57627D02*
X21514Y-57312D01*
X21394Y-57657D02*
X21155Y-57657D01*
X20900Y-57597D02*
X20915Y-57612D01*
X20960Y-57627D01*
X20990Y-57627D01*
X21035Y-57612D01*
X21065Y-57582D01*
X21080Y-57552D01*
X21095Y-57492D01*
X21095Y-57447D01*
X21080Y-57387D01*
X21065Y-57357D01*
X21035Y-57327D01*
X20990Y-57312D01*
X20960Y-57312D01*
X20915Y-57327D01*
X20900Y-57342D01*
X20705Y-57312D02*
X20645Y-57312D01*
X20615Y-57327D01*
X20585Y-57357D01*
X20570Y-57417D01*
X20570Y-57522D01*
X20585Y-57582D01*
X20615Y-57612D01*
X20645Y-57627D01*
X20705Y-57627D01*
X20735Y-57612D01*
X20765Y-57582D01*
X20780Y-57522D01*
X20780Y-57417D01*
X20765Y-57357D01*
X20735Y-57327D01*
X20705Y-57312D01*
X20435Y-57627D02*
X20435Y-57312D01*
X20255Y-57627D01*
X20255Y-57312D01*
X30812Y-25180D02*
X30827Y-25225D01*
X30827Y-25300D01*
X30812Y-25330D01*
X30797Y-25345D01*
X30767Y-25360D01*
X30737Y-25360D01*
X30707Y-25345D01*
X30692Y-25330D01*
X30677Y-25300D01*
X30662Y-25240D01*
X30647Y-25210D01*
X30632Y-25195D01*
X30602Y-25180D01*
X30572Y-25180D01*
X30542Y-25195D01*
X30527Y-25210D01*
X30512Y-25240D01*
X30512Y-25315D01*
X30527Y-25360D01*
X30512Y-25465D02*
X30827Y-25540D01*
X30602Y-25600D01*
X30827Y-25659D01*
X30512Y-25734D01*
X30512Y-25824D02*
X30512Y-26019D01*
X30632Y-25914D01*
X30632Y-25959D01*
X30647Y-25989D01*
X30662Y-26004D01*
X30692Y-26019D01*
X30767Y-26019D01*
X30797Y-26004D01*
X30812Y-25989D01*
X30827Y-25959D01*
X30827Y-25869D01*
X30812Y-25839D01*
X30797Y-25824D01*
X32557Y-24127D02*
X32662Y-23977D01*
X32737Y-24127D02*
X32737Y-23812D01*
X32617Y-23812D01*
X32587Y-23827D01*
X32572Y-23842D01*
X32557Y-23872D01*
X32557Y-23917D01*
X32572Y-23947D01*
X32587Y-23962D01*
X32617Y-23977D01*
X32737Y-23977D01*
X32422Y-23962D02*
X32317Y-23962D01*
X32272Y-24127D02*
X32422Y-24127D01*
X32422Y-23812D01*
X32272Y-23812D01*
X32152Y-24112D02*
X32107Y-24127D01*
X32032Y-24127D01*
X32002Y-24112D01*
X31987Y-24097D01*
X31972Y-24067D01*
X31972Y-24037D01*
X31987Y-24007D01*
X32002Y-23992D01*
X32032Y-23977D01*
X32092Y-23962D01*
X32122Y-23947D01*
X32137Y-23932D01*
X32152Y-23902D01*
X32152Y-23872D01*
X32137Y-23842D01*
X32122Y-23827D01*
X32092Y-23812D01*
X32017Y-23812D01*
X31972Y-23827D01*
X31837Y-23962D02*
X31732Y-23962D01*
X31687Y-24127D02*
X31837Y-24127D01*
X31837Y-23812D01*
X31687Y-23812D01*
X31597Y-23812D02*
X31417Y-23812D01*
X31507Y-24127D02*
X31507Y-23812D01*
X33912Y-25180D02*
X33927Y-25225D01*
X33927Y-25300D01*
X33912Y-25330D01*
X33897Y-25345D01*
X33867Y-25360D01*
X33837Y-25360D01*
X33807Y-25345D01*
X33792Y-25330D01*
X33777Y-25300D01*
X33762Y-25240D01*
X33747Y-25210D01*
X33732Y-25195D01*
X33702Y-25180D01*
X33672Y-25180D01*
X33642Y-25195D01*
X33627Y-25210D01*
X33612Y-25240D01*
X33612Y-25315D01*
X33627Y-25360D01*
X33612Y-25465D02*
X33927Y-25540D01*
X33702Y-25600D01*
X33927Y-25659D01*
X33612Y-25734D01*
X33927Y-26019D02*
X33927Y-25839D01*
X33927Y-25929D02*
X33612Y-25929D01*
X33657Y-25899D01*
X33687Y-25869D01*
X33702Y-25839D01*
X35852Y-23962D02*
X35747Y-23962D01*
X35702Y-24127D02*
X35852Y-24127D01*
X35852Y-23812D01*
X35702Y-23812D01*
X35387Y-24127D02*
X35492Y-23977D01*
X35567Y-24127D02*
X35567Y-23812D01*
X35447Y-23812D01*
X35417Y-23827D01*
X35402Y-23842D01*
X35387Y-23872D01*
X35387Y-23917D01*
X35402Y-23947D01*
X35417Y-23962D01*
X35447Y-23977D01*
X35567Y-23977D01*
X35267Y-24037D02*
X35117Y-24037D01*
X35297Y-24127D02*
X35192Y-23812D01*
X35087Y-24127D01*
X34997Y-24112D02*
X34952Y-24127D01*
X34877Y-24127D01*
X34847Y-24112D01*
X34832Y-24097D01*
X34817Y-24067D01*
X34817Y-24037D01*
X34832Y-24007D01*
X34847Y-23992D01*
X34877Y-23977D01*
X34937Y-23962D01*
X34967Y-23947D01*
X34982Y-23932D01*
X34997Y-23902D01*
X34997Y-23872D01*
X34982Y-23842D01*
X34967Y-23827D01*
X34937Y-23812D01*
X34862Y-23812D01*
X34817Y-23827D01*
X34682Y-23962D02*
X34577Y-23962D01*
X34532Y-24127D02*
X34682Y-24127D01*
X34682Y-23812D01*
X34532Y-23812D01*
M02*
