G04 (created by PCBNEW (2013-07-07 BZR 4022)-stable) date 2/21/2016 2:52:37 PM*
%MOIN*%
G04 Gerber Fmt 3.4, Leading zero omitted, Abs format*
%FSLAX34Y34*%
G01*
G70*
G90*
G04 APERTURE LIST*
%ADD10C,0.00590551*%
%ADD11C,0.005*%
%ADD12C,0.0118*%
%ADD13C,0.0748031*%
%ADD14C,0.0672*%
%ADD15C,0.0551181*%
%ADD16C,0.275591*%
%ADD17R,0.06X0.06*%
%ADD18C,0.06*%
%ADD19C,0.127953*%
%ADD20C,0.0629921*%
%ADD21C,0.125984*%
%ADD22C,0.2756*%
%ADD23R,0.055X0.055*%
%ADD24C,0.055*%
%ADD25O,0.12X0.062*%
%ADD26O,0.12X0.063*%
%ADD27C,0.0610236*%
%ADD28C,0.0492126*%
%ADD29C,0.046*%
%ADD30C,0.0590551*%
G04 APERTURE END LIST*
G54D10*
G54D11*
X42190Y-9011D02*
X41809Y-9011D01*
X42000Y-9202D02*
X42000Y-8821D01*
X10190Y-64011D02*
X9809Y-64011D01*
X10000Y-64202D02*
X10000Y-63821D01*
X42190Y-64011D02*
X41809Y-64011D01*
X42000Y-64202D02*
X42000Y-63821D01*
G54D12*
X12837Y-73429D02*
X12922Y-73457D01*
X12950Y-73485D01*
X12978Y-73542D01*
X12978Y-73626D01*
X12950Y-73682D01*
X12922Y-73711D01*
X12865Y-73739D01*
X12640Y-73739D01*
X12640Y-73148D01*
X12837Y-73148D01*
X12894Y-73176D01*
X12922Y-73204D01*
X12950Y-73260D01*
X12950Y-73317D01*
X12922Y-73373D01*
X12894Y-73401D01*
X12837Y-73429D01*
X12640Y-73429D01*
X13485Y-73739D02*
X13485Y-73429D01*
X13456Y-73373D01*
X13400Y-73345D01*
X13288Y-73345D01*
X13231Y-73373D01*
X13485Y-73711D02*
X13428Y-73739D01*
X13288Y-73739D01*
X13231Y-73711D01*
X13203Y-73654D01*
X13203Y-73598D01*
X13231Y-73542D01*
X13288Y-73514D01*
X13428Y-73514D01*
X13485Y-73485D01*
X14019Y-73711D02*
X13963Y-73739D01*
X13850Y-73739D01*
X13794Y-73711D01*
X13766Y-73682D01*
X13738Y-73626D01*
X13738Y-73457D01*
X13766Y-73401D01*
X13794Y-73373D01*
X13850Y-73345D01*
X13963Y-73345D01*
X14019Y-73373D01*
X14272Y-73739D02*
X14272Y-73148D01*
X14329Y-73514D02*
X14498Y-73739D01*
X14498Y-73345D02*
X14272Y-73570D01*
X15173Y-73711D02*
X15258Y-73739D01*
X15398Y-73739D01*
X15455Y-73711D01*
X15483Y-73682D01*
X15511Y-73626D01*
X15511Y-73570D01*
X15483Y-73514D01*
X15455Y-73485D01*
X15398Y-73457D01*
X15286Y-73429D01*
X15229Y-73401D01*
X15201Y-73373D01*
X15173Y-73317D01*
X15173Y-73260D01*
X15201Y-73204D01*
X15229Y-73176D01*
X15286Y-73148D01*
X15426Y-73148D01*
X15511Y-73176D01*
X15849Y-73739D02*
X15792Y-73711D01*
X15764Y-73682D01*
X15736Y-73626D01*
X15736Y-73457D01*
X15764Y-73401D01*
X15792Y-73373D01*
X15849Y-73345D01*
X15933Y-73345D01*
X15989Y-73373D01*
X16017Y-73401D01*
X16046Y-73457D01*
X16046Y-73626D01*
X16017Y-73682D01*
X15989Y-73711D01*
X15933Y-73739D01*
X15849Y-73739D01*
X16383Y-73739D02*
X16327Y-73711D01*
X16299Y-73654D01*
X16299Y-73148D01*
X16862Y-73739D02*
X16862Y-73148D01*
X16862Y-73711D02*
X16805Y-73739D01*
X16693Y-73739D01*
X16636Y-73711D01*
X16608Y-73682D01*
X16580Y-73626D01*
X16580Y-73457D01*
X16608Y-73401D01*
X16636Y-73373D01*
X16693Y-73345D01*
X16805Y-73345D01*
X16862Y-73373D01*
X17368Y-73711D02*
X17312Y-73739D01*
X17199Y-73739D01*
X17143Y-73711D01*
X17115Y-73654D01*
X17115Y-73429D01*
X17143Y-73373D01*
X17199Y-73345D01*
X17312Y-73345D01*
X17368Y-73373D01*
X17396Y-73429D01*
X17396Y-73485D01*
X17115Y-73542D01*
X17650Y-73739D02*
X17650Y-73345D01*
X17650Y-73457D02*
X17678Y-73401D01*
X17706Y-73373D01*
X17762Y-73345D01*
X17818Y-73345D01*
X18466Y-73739D02*
X18466Y-73148D01*
X18663Y-73570D01*
X18860Y-73148D01*
X18860Y-73739D01*
X19394Y-73739D02*
X19394Y-73429D01*
X19366Y-73373D01*
X19310Y-73345D01*
X19197Y-73345D01*
X19141Y-73373D01*
X19394Y-73711D02*
X19338Y-73739D01*
X19197Y-73739D01*
X19141Y-73711D01*
X19113Y-73654D01*
X19113Y-73598D01*
X19141Y-73542D01*
X19197Y-73514D01*
X19338Y-73514D01*
X19394Y-73485D01*
X19648Y-73711D02*
X19704Y-73739D01*
X19817Y-73739D01*
X19873Y-73711D01*
X19901Y-73654D01*
X19901Y-73626D01*
X19873Y-73570D01*
X19817Y-73542D01*
X19732Y-73542D01*
X19676Y-73514D01*
X19648Y-73457D01*
X19648Y-73429D01*
X19676Y-73373D01*
X19732Y-73345D01*
X19817Y-73345D01*
X19873Y-73373D01*
X20154Y-73739D02*
X20154Y-73148D01*
X20211Y-73514D02*
X20379Y-73739D01*
X20379Y-73345D02*
X20154Y-73570D01*
X21083Y-73514D02*
X21533Y-73514D01*
X22547Y-73739D02*
X22265Y-73739D01*
X22265Y-73148D01*
X22997Y-73739D02*
X22997Y-73429D01*
X22969Y-73373D01*
X22912Y-73345D01*
X22800Y-73345D01*
X22744Y-73373D01*
X22997Y-73711D02*
X22941Y-73739D01*
X22800Y-73739D01*
X22744Y-73711D01*
X22715Y-73654D01*
X22715Y-73598D01*
X22744Y-73542D01*
X22800Y-73514D01*
X22941Y-73514D01*
X22997Y-73485D01*
X23222Y-73345D02*
X23363Y-73739D01*
X23503Y-73345D02*
X23363Y-73739D01*
X23306Y-73879D01*
X23278Y-73908D01*
X23222Y-73936D01*
X23954Y-73711D02*
X23897Y-73739D01*
X23785Y-73739D01*
X23729Y-73711D01*
X23700Y-73654D01*
X23700Y-73429D01*
X23729Y-73373D01*
X23785Y-73345D01*
X23897Y-73345D01*
X23954Y-73373D01*
X23982Y-73429D01*
X23982Y-73485D01*
X23700Y-73542D01*
X24235Y-73739D02*
X24235Y-73345D01*
X24235Y-73457D02*
X24263Y-73401D01*
X24291Y-73373D01*
X24348Y-73345D01*
X24404Y-73345D01*
X25361Y-73739D02*
X25023Y-73739D01*
X25192Y-73739D02*
X25192Y-73148D01*
X25136Y-73232D01*
X25079Y-73288D01*
X25023Y-73317D01*
X25727Y-73148D02*
X25783Y-73148D01*
X25839Y-73176D01*
X25867Y-73204D01*
X25896Y-73260D01*
X25924Y-73373D01*
X25924Y-73514D01*
X25896Y-73626D01*
X25867Y-73682D01*
X25839Y-73711D01*
X25783Y-73739D01*
X25727Y-73739D01*
X25670Y-73711D01*
X25642Y-73682D01*
X25614Y-73626D01*
X25586Y-73514D01*
X25586Y-73373D01*
X25614Y-73260D01*
X25642Y-73204D01*
X25670Y-73176D01*
X25727Y-73148D01*
G54D13*
X14133Y-21000D03*
X11377Y-21000D03*
X14133Y-26500D03*
X11377Y-26500D03*
X14133Y-32000D03*
X11377Y-32000D03*
X14133Y-37500D03*
X11377Y-37500D03*
X14133Y-43000D03*
X11377Y-43000D03*
X14133Y-48500D03*
X11377Y-48500D03*
X14133Y-54000D03*
X11377Y-54000D03*
X14133Y-59500D03*
X11377Y-59500D03*
G54D14*
X23637Y-62181D03*
X28362Y-62181D03*
G54D15*
X26000Y-60507D03*
X27574Y-60507D03*
X24425Y-60507D03*
G54D14*
X23637Y-59818D03*
X28362Y-59818D03*
G54D16*
X26000Y-58000D03*
X40300Y-15000D03*
X11700Y-15000D03*
G54D17*
X14000Y-14500D03*
G54D18*
X14000Y-13500D03*
X15000Y-14500D03*
X15000Y-13500D03*
X16000Y-14500D03*
X16000Y-13500D03*
X17000Y-14500D03*
X17000Y-13500D03*
X18000Y-14500D03*
X18000Y-13500D03*
X19000Y-14500D03*
X19000Y-13500D03*
X20000Y-14500D03*
X20000Y-13500D03*
X21000Y-14500D03*
X21000Y-13500D03*
X22000Y-14500D03*
X22000Y-13500D03*
X23000Y-14500D03*
X23000Y-13500D03*
X24000Y-14500D03*
X24000Y-13500D03*
X25000Y-14500D03*
X25000Y-13500D03*
X26000Y-14500D03*
X26000Y-13500D03*
X27000Y-14500D03*
X27000Y-13500D03*
X28000Y-14500D03*
X28000Y-13500D03*
X29000Y-14500D03*
X29000Y-13500D03*
X30000Y-14500D03*
X30000Y-13500D03*
X31000Y-14500D03*
X31000Y-13500D03*
X32000Y-14500D03*
X32000Y-13500D03*
X33000Y-14500D03*
X33000Y-13500D03*
X34000Y-14500D03*
X34000Y-13500D03*
X35000Y-14500D03*
X35000Y-13500D03*
X36000Y-14500D03*
X36000Y-13500D03*
X37000Y-14500D03*
X37000Y-13500D03*
X38000Y-14500D03*
X38000Y-13500D03*
G54D17*
X14000Y-17000D03*
G54D18*
X14000Y-16000D03*
X15000Y-17000D03*
X15000Y-16000D03*
X16000Y-17000D03*
X16000Y-16000D03*
X17000Y-17000D03*
X17000Y-16000D03*
X18000Y-17000D03*
X18000Y-16000D03*
X19000Y-17000D03*
X19000Y-16000D03*
X20000Y-17000D03*
X20000Y-16000D03*
X21000Y-17000D03*
X21000Y-16000D03*
X22000Y-17000D03*
X22000Y-16000D03*
X23000Y-17000D03*
X23000Y-16000D03*
X24000Y-17000D03*
X24000Y-16000D03*
X25000Y-17000D03*
X25000Y-16000D03*
X26000Y-17000D03*
X26000Y-16000D03*
X27000Y-17000D03*
X27000Y-16000D03*
X28000Y-17000D03*
X28000Y-16000D03*
X29000Y-17000D03*
X29000Y-16000D03*
X30000Y-17000D03*
X30000Y-16000D03*
X31000Y-17000D03*
X31000Y-16000D03*
X32000Y-17000D03*
X32000Y-16000D03*
X33000Y-17000D03*
X33000Y-16000D03*
X34000Y-17000D03*
X34000Y-16000D03*
X35000Y-17000D03*
X35000Y-16000D03*
X36000Y-17000D03*
X36000Y-16000D03*
X37000Y-17000D03*
X37000Y-16000D03*
X38000Y-17000D03*
X38000Y-16000D03*
G54D19*
X40952Y-53900D03*
X40952Y-48900D03*
G54D20*
X39952Y-51596D03*
X39952Y-50797D03*
X39251Y-52002D03*
X39251Y-51203D03*
X39251Y-52801D03*
X39952Y-52396D03*
X39251Y-50403D03*
X39952Y-49998D03*
G54D19*
X40952Y-39100D03*
X40952Y-34100D03*
G54D20*
X39952Y-36796D03*
X39952Y-35997D03*
X39251Y-37202D03*
X39251Y-36403D03*
X39251Y-38001D03*
X39952Y-37596D03*
X39251Y-35603D03*
X39952Y-35198D03*
G54D19*
X40952Y-31700D03*
X40952Y-26700D03*
G54D20*
X39952Y-29396D03*
X39952Y-28597D03*
X39251Y-29802D03*
X39251Y-29003D03*
X39251Y-30601D03*
X39952Y-30196D03*
X39251Y-28203D03*
X39952Y-27798D03*
G54D19*
X40952Y-46500D03*
X40952Y-41500D03*
G54D20*
X39952Y-44196D03*
X39952Y-43397D03*
X39251Y-44602D03*
X39251Y-43803D03*
X39251Y-45401D03*
X39952Y-44996D03*
X39251Y-43003D03*
X39952Y-42598D03*
G54D21*
X39852Y-22500D03*
X39852Y-19500D03*
G54D20*
X36368Y-21248D03*
X36368Y-20251D03*
X37368Y-21748D03*
X37368Y-20751D03*
G54D22*
X26000Y-28622D03*
X26000Y-51377D03*
G54D23*
X34500Y-62000D03*
G54D24*
X34500Y-61000D03*
X34500Y-60000D03*
X34500Y-59000D03*
X34500Y-58000D03*
X34500Y-57000D03*
G54D25*
X21550Y-59838D03*
G54D26*
X21550Y-58461D03*
G54D27*
X30122Y-62429D03*
G54D28*
X32484Y-61375D03*
X30515Y-61375D03*
G54D27*
X32877Y-62429D03*
G54D29*
X21742Y-60837D03*
X20757Y-60837D03*
G54D30*
X32985Y-24520D03*
X31214Y-24520D03*
X31214Y-27079D03*
X32985Y-27079D03*
X36085Y-24520D03*
X34314Y-24520D03*
X34314Y-27079D03*
X36085Y-27079D03*
M02*
