M48
INCH,TZ
T1C0.014
T2C0.031
T3C0.032
T4C0.035
T5C0.035
T6C0.039
T7C0.040
T8C0.042
T9C0.047
T10C0.047
%
G90
G05
T1
X12000Y-22600
X12000Y-28100
X12000Y-33600
X12000Y-39100
X12000Y-44600
X12000Y-50100
X12000Y-55600
X12000Y-61100
X18300Y-20500
X18300Y-22900
X18300Y-26000
X18300Y-28400
X18300Y-31500
X18300Y-33900
X18300Y-37000
X18300Y-39400
X18300Y-42500
X18300Y-44900
X18300Y-48000
X18300Y-50400
X18300Y-53500
X18300Y-55900
X18300Y-59000
X18300Y-61400
X20750Y-62350
X21275Y-41530
X21340Y-42880
X21600Y-51900
X21900Y-44260
X21913Y-40723
X22110Y-52485
X22474Y-42992
X22540Y-43680
X22610Y-53760
X23040Y-60510
X23180Y-55150
X23380Y-57270
X23700Y-56380
X23800Y-47150
X23904Y-40392
X23912Y-43872
X23916Y-43476
X23924Y-43102
X23990Y-41014
X24008Y-42004
X24150Y-55960
X24155Y-38335
X24195Y-39301
X24270Y-40320
X24388Y-39890
X24400Y-41450
X24426Y-42044
X24430Y-52330
X24491Y-42472
X24505Y-35735
X24545Y-38330
X24683Y-40580
X24730Y-56380
X24900Y-38540
X25023Y-45275
X25189Y-45646
X25205Y-35735
X25215Y-47265
X25250Y-47850
X25300Y-35347
X25332Y-38458
X25400Y-43500
X25406Y-45254
X25435Y-34300
X25690Y-42718
X25826Y-36809
X25922Y-38472
X25970Y-45480
X26300Y-46950
X26316Y-38490
X26320Y-45650
X26340Y-54840
X26450Y-53600
X26465Y-39340
X26480Y-39722
X26640Y-53320
X26704Y-45664
X26840Y-53040
X26860Y-43990
X27020Y-38370
X27277Y-39650
X27515Y-41460
X27620Y-51940
X27680Y-39640
X27680Y-52875
X27680Y-56340
X27800Y-42130
X27800Y-51000
X27835Y-49730
X27980Y-32831
X28060Y-44860
X28150Y-41500
X28200Y-55350
X28290Y-36000
X28330Y-33760
X28475Y-61460
X28570Y-50505
X28600Y-47900
X28640Y-54190
X28640Y-54580
X28640Y-55000
X28640Y-55360
X28645Y-53665
X28650Y-52500
X28650Y-52850
X28650Y-53280
X28755Y-37144
X28928Y-36772
X28960Y-18590
X29280Y-44090
X29405Y-46869
X29450Y-40090
X29545Y-38300
X29710Y-41324
X29780Y-50515
X29850Y-39680
X29850Y-40220
X29912Y-36844
X30000Y-18010
X30020Y-41600
X30064Y-35566
X30120Y-20410
X30120Y-46960
X30190Y-54000
X30225Y-50330
X30280Y-39082
X30410Y-53620
X30450Y-40120
X30508Y-45626
X30600Y-41200
X30660Y-33390
X30710Y-43850
X30790Y-44350
X30880Y-34010
X30900Y-42390
X30900Y-45600
X30900Y-59725
X31002Y-41824
X31170Y-43920
X31198Y-39690
X31210Y-28920
X31240Y-40520
X31275Y-42100
X31942Y-28806
X31942Y-32108
X31960Y-35150
X32240Y-34840
X32335Y-50917
X32373Y-29857
X32416Y-53743
X32500Y-47725
X32590Y-40975
X32970Y-57520
X33060Y-46570
X33284Y-47426
X33370Y-50400
X33430Y-37940
X33690Y-55850
X33810Y-20900
X33840Y-59290
X33880Y-41205
X34000Y-42300
X34025Y-45340
X34060Y-43880
X34210Y-39860
X34300Y-28200
X34350Y-55090
X34470Y-54380
X34840Y-57500
X35050Y-54670
X35070Y-41420
X35100Y-51100
X35540Y-53260
X35565Y-48210
X35770Y-52500
X35920Y-23440
X35970Y-55450
X36060Y-43630
X36090Y-42300
X36130Y-22230
X36185Y-40520
X36340Y-55450
X36400Y-44535
X36405Y-45340
X36460Y-41040
X36480Y-41550
X37140Y-62700
X37220Y-43390
X37370Y-54795
X37430Y-24280
X37510Y-15260
X37690Y-62670
X37730Y-32910
X37770Y-25500
X37780Y-40300
X37780Y-47640
X38230Y-62700
X38650Y-62700
X38840Y-54600
X38860Y-17080
X38860Y-18370
X38910Y-17710
X39110Y-24280
X39630Y-54610
X40170Y-25500
X40200Y-32890
X40200Y-47680
X40220Y-40300
X40900Y-54930
X40900Y-55370
X41180Y-17050
X41230Y-18110
T2
X24425Y-60508
X26000Y-60508
X27575Y-60508
T3
X30516Y-61376
X32484Y-61376
X34500Y-57000
X34500Y-58000
X34500Y-59000
X34500Y-60000
X34500Y-61000
X34500Y-62000
T4
X39252Y-28204
X39252Y-29003
X39252Y-29802
X39252Y-30602
X39252Y-35604
X39252Y-36403
X39252Y-37202
X39252Y-38002
X39252Y-43004
X39252Y-43803
X39252Y-44602
X39252Y-45402
X39252Y-50404
X39252Y-51203
X39252Y-52002
X39252Y-52802
X39953Y-27798
X39953Y-28598
X39953Y-29397
X39953Y-30196
X39953Y-35198
X39953Y-35998
X39953Y-36797
X39953Y-37596
X39953Y-42598
X39953Y-43398
X39953Y-44197
X39953Y-44996
X39953Y-49998
X39953Y-50798
X39953Y-51597
X39953Y-52396
T5
X36369Y-20252
X36369Y-21248
X37369Y-20752
X37369Y-21748
T6
X31214Y-24520
X31214Y-27080
X32986Y-24520
X32986Y-27080
X34314Y-24520
X34314Y-27080
X36086Y-24520
X36086Y-27080
T7
X14000Y-13500
X14000Y-14500
X14000Y-16000
X14000Y-17000
X15000Y-13500
X15000Y-14500
X15000Y-16000
X15000Y-17000
X16000Y-13500
X16000Y-14500
X16000Y-16000
X16000Y-17000
X17000Y-13500
X17000Y-14500
X17000Y-16000
X17000Y-17000
X18000Y-13500
X18000Y-14500
X18000Y-16000
X18000Y-17000
X19000Y-13500
X19000Y-14500
X19000Y-16000
X19000Y-17000
X20000Y-13500
X20000Y-14500
X20000Y-16000
X20000Y-17000
X21000Y-13500
X21000Y-14500
X21000Y-16000
X21000Y-17000
X22000Y-13500
X22000Y-14500
X22000Y-16000
X22000Y-17000
X23000Y-13500
X23000Y-14500
X23000Y-16000
X23000Y-17000
X24000Y-13500
X24000Y-14500
X24000Y-16000
X24000Y-17000
X25000Y-13500
X25000Y-14500
X25000Y-16000
X25000Y-17000
X26000Y-13500
X26000Y-14500
X26000Y-16000
X26000Y-17000
X27000Y-13500
X27000Y-14500
X27000Y-16000
X27000Y-17000
X28000Y-13500
X28000Y-14500
X28000Y-16000
X28000Y-17000
X29000Y-13500
X29000Y-14500
X29000Y-16000
X29000Y-17000
X30000Y-13500
X30000Y-14500
X30000Y-16000
X30000Y-17000
X31000Y-13500
X31000Y-14500
X31000Y-16000
X31000Y-17000
X32000Y-13500
X32000Y-14500
X32000Y-16000
X32000Y-17000
X33000Y-13500
X33000Y-14500
X33000Y-16000
X33000Y-17000
X34000Y-13500
X34000Y-14500
X34000Y-16000
X34000Y-17000
X35000Y-13500
X35000Y-14500
X35000Y-16000
X35000Y-17000
X36000Y-13500
X36000Y-14500
X36000Y-16000
X36000Y-17000
X37000Y-13500
X37000Y-14500
X37000Y-16000
X37000Y-17000
X38000Y-13500
X38000Y-14500
X38000Y-16000
X38000Y-17000
T8
X30122Y-62429
X32878Y-62429
T9
X23638Y-59819
X23638Y-62181
X28362Y-59819
X28362Y-62181
T10
X21300Y-58461
X21300Y-59839
T0
M30
