M48
;DRILL file {KiCad 4.0.7} date 03/31/18 19:25:46
;FORMAT={-:-/ absolute / inch / decimal}
FMAT,2
INCH,TZ
T1C0.014
T2C0.025
T3C0.035
T4C0.035
T5C0.071
T6C0.098
%
G90
G05
M72
T1
X1.465Y-1.135
X1.52Y-1.35
X1.55Y-1.49
X1.55Y-1.64
X1.59Y-2.57
X1.6Y-1.9
X1.62Y-1.68
X1.63Y-2.46
X1.7Y-1.72
X1.75Y-2.25
X1.75Y-2.36
X1.78Y-1.65
X1.83Y-2.23
X1.93Y-2.23
X2.06Y-2.34
X2.06Y-2.46
X2.28Y-1.49
X2.65Y-1.49
X4.32Y-2.24
X4.49Y-2.41
X4.65Y-2.49
X4.72Y-2.5
X4.83Y-2.36
X4.83Y-2.47
X4.95Y-2.27
X4.98Y-2.05
X4.99Y-2.17
T2
X2.31Y-1.55
X2.61Y-1.55
T3
X1.3347Y-1.2404
X1.3347Y-1.3203
X1.3347Y-1.4002
X1.3347Y-1.4802
X1.4048Y-1.1998
X1.4048Y-1.2798
X1.4048Y-1.3597
X1.4048Y-1.4396
T4
X1.29Y-2.04
X1.29Y-2.14
X1.29Y-2.3
X1.29Y-2.4
X1.29Y-2.56
X1.29Y-2.66
X5.29Y-2.04
X5.29Y-2.14
X5.29Y-2.3
X5.29Y-2.4
X5.29Y-2.56
X5.29Y-2.66
T5
X1.3749Y-1.0199
X1.3749Y-1.6601
T6
X2.15Y-1.1
X2.15Y-2.6
X4.43Y-1.1
X4.43Y-2.6
T0
M30
