G04 #@! TF.FileFunction,Legend,Top*
%FSLAX46Y46*%
G04 Gerber Fmt 4.6, Leading zero omitted, Abs format (unit mm)*
G04 Created by KiCad (PCBNEW 4.0.7) date 04/02/18 06:38:37*
%MOMM*%
%LPD*%
G01*
G04 APERTURE LIST*
%ADD10C,0.150000*%
%ADD11C,0.254000*%
%ADD12C,0.149860*%
%ADD13C,0.120000*%
G04 APERTURE END LIST*
D10*
D11*
X64818381Y-26165024D02*
X64818381Y-24895024D01*
X65302190Y-24895024D01*
X65423143Y-24955500D01*
X65483619Y-25015976D01*
X65544095Y-25136929D01*
X65544095Y-25318357D01*
X65483619Y-25439310D01*
X65423143Y-25499786D01*
X65302190Y-25560262D01*
X64818381Y-25560262D01*
X66088381Y-26165024D02*
X66088381Y-25318357D01*
X66088381Y-25560262D02*
X66148857Y-25439310D01*
X66209333Y-25378833D01*
X66330286Y-25318357D01*
X66451238Y-25318357D01*
X67056000Y-26165024D02*
X66935047Y-26104548D01*
X66874571Y-26044071D01*
X66814095Y-25923119D01*
X66814095Y-25560262D01*
X66874571Y-25439310D01*
X66935047Y-25378833D01*
X67056000Y-25318357D01*
X67237428Y-25318357D01*
X67358380Y-25378833D01*
X67418857Y-25439310D01*
X67479333Y-25560262D01*
X67479333Y-25923119D01*
X67418857Y-26044071D01*
X67358380Y-26104548D01*
X67237428Y-26165024D01*
X67056000Y-26165024D01*
X68023619Y-25318357D02*
X68023619Y-26406929D01*
X67963143Y-26527881D01*
X67842190Y-26588357D01*
X67781714Y-26588357D01*
X68023619Y-24895024D02*
X67963143Y-24955500D01*
X68023619Y-25015976D01*
X68084095Y-24955500D01*
X68023619Y-24895024D01*
X68023619Y-25015976D01*
X69112190Y-26104548D02*
X68991238Y-26165024D01*
X68749333Y-26165024D01*
X68628381Y-26104548D01*
X68567905Y-25983595D01*
X68567905Y-25499786D01*
X68628381Y-25378833D01*
X68749333Y-25318357D01*
X68991238Y-25318357D01*
X69112190Y-25378833D01*
X69172667Y-25499786D01*
X69172667Y-25620738D01*
X68567905Y-25741690D01*
X70261238Y-26104548D02*
X70140285Y-26165024D01*
X69898381Y-26165024D01*
X69777428Y-26104548D01*
X69716952Y-26044071D01*
X69656476Y-25923119D01*
X69656476Y-25560262D01*
X69716952Y-25439310D01*
X69777428Y-25378833D01*
X69898381Y-25318357D01*
X70140285Y-25318357D01*
X70261238Y-25378833D01*
X70624094Y-25318357D02*
X71107904Y-25318357D01*
X70805523Y-24895024D02*
X70805523Y-25983595D01*
X70865999Y-26104548D01*
X70986952Y-26165024D01*
X71107904Y-26165024D01*
X71531237Y-26165024D02*
X71531237Y-25318357D01*
X71531237Y-24895024D02*
X71470761Y-24955500D01*
X71531237Y-25015976D01*
X71591713Y-24955500D01*
X71531237Y-24895024D01*
X71531237Y-25015976D01*
X72317428Y-26165024D02*
X72196475Y-26104548D01*
X72135999Y-25983595D01*
X72135999Y-24895024D01*
X73285046Y-26104548D02*
X73164094Y-26165024D01*
X72922189Y-26165024D01*
X72801237Y-26104548D01*
X72740761Y-25983595D01*
X72740761Y-25499786D01*
X72801237Y-25378833D01*
X72922189Y-25318357D01*
X73164094Y-25318357D01*
X73285046Y-25378833D01*
X73345523Y-25499786D01*
X73345523Y-25620738D01*
X72740761Y-25741690D01*
X74857427Y-26165024D02*
X74857427Y-24895024D01*
X75280760Y-25802167D01*
X75704094Y-24895024D01*
X75704094Y-26165024D01*
X76490285Y-26165024D02*
X76369332Y-26104548D01*
X76308856Y-26044071D01*
X76248380Y-25923119D01*
X76248380Y-25560262D01*
X76308856Y-25439310D01*
X76369332Y-25378833D01*
X76490285Y-25318357D01*
X76671713Y-25318357D01*
X76792665Y-25378833D01*
X76853142Y-25439310D01*
X76913618Y-25560262D01*
X76913618Y-25923119D01*
X76853142Y-26044071D01*
X76792665Y-26104548D01*
X76671713Y-26165024D01*
X76490285Y-26165024D01*
X78002190Y-26165024D02*
X78002190Y-24895024D01*
X78002190Y-26104548D02*
X77881237Y-26165024D01*
X77639333Y-26165024D01*
X77518380Y-26104548D01*
X77457904Y-26044071D01*
X77397428Y-25923119D01*
X77397428Y-25560262D01*
X77457904Y-25439310D01*
X77518380Y-25378833D01*
X77639333Y-25318357D01*
X77881237Y-25318357D01*
X78002190Y-25378833D01*
X79151238Y-25318357D02*
X79151238Y-26165024D01*
X78606952Y-25318357D02*
X78606952Y-25983595D01*
X78667428Y-26104548D01*
X78788381Y-26165024D01*
X78969809Y-26165024D01*
X79090761Y-26104548D01*
X79151238Y-26044071D01*
X79937429Y-26165024D02*
X79816476Y-26104548D01*
X79756000Y-25983595D01*
X79756000Y-24895024D01*
X80905047Y-26104548D02*
X80784095Y-26165024D01*
X80542190Y-26165024D01*
X80421238Y-26104548D01*
X80360762Y-25983595D01*
X80360762Y-25499786D01*
X80421238Y-25378833D01*
X80542190Y-25318357D01*
X80784095Y-25318357D01*
X80905047Y-25378833D01*
X80965524Y-25499786D01*
X80965524Y-25620738D01*
X80360762Y-25741690D01*
X64757905Y-27174976D02*
X64818381Y-27114500D01*
X64939333Y-27054024D01*
X65241714Y-27054024D01*
X65362667Y-27114500D01*
X65423143Y-27174976D01*
X65483619Y-27295929D01*
X65483619Y-27416881D01*
X65423143Y-27598310D01*
X64697429Y-28324024D01*
X65483619Y-28324024D01*
X66269810Y-27054024D02*
X66390762Y-27054024D01*
X66511714Y-27114500D01*
X66572191Y-27174976D01*
X66632667Y-27295929D01*
X66693143Y-27537833D01*
X66693143Y-27840214D01*
X66632667Y-28082119D01*
X66572191Y-28203071D01*
X66511714Y-28263548D01*
X66390762Y-28324024D01*
X66269810Y-28324024D01*
X66148857Y-28263548D01*
X66088381Y-28203071D01*
X66027905Y-28082119D01*
X65967429Y-27840214D01*
X65967429Y-27537833D01*
X66027905Y-27295929D01*
X66088381Y-27174976D01*
X66148857Y-27114500D01*
X66269810Y-27054024D01*
X67902667Y-28324024D02*
X67176953Y-28324024D01*
X67539810Y-28324024D02*
X67539810Y-27054024D01*
X67418858Y-27235452D01*
X67297905Y-27356405D01*
X67176953Y-27416881D01*
X68628382Y-27598310D02*
X68507429Y-27537833D01*
X68446953Y-27477357D01*
X68386477Y-27356405D01*
X68386477Y-27295929D01*
X68446953Y-27174976D01*
X68507429Y-27114500D01*
X68628382Y-27054024D01*
X68870286Y-27054024D01*
X68991239Y-27114500D01*
X69051715Y-27174976D01*
X69112191Y-27295929D01*
X69112191Y-27356405D01*
X69051715Y-27477357D01*
X68991239Y-27537833D01*
X68870286Y-27598310D01*
X68628382Y-27598310D01*
X68507429Y-27658786D01*
X68446953Y-27719262D01*
X68386477Y-27840214D01*
X68386477Y-28082119D01*
X68446953Y-28203071D01*
X68507429Y-28263548D01*
X68628382Y-28324024D01*
X68870286Y-28324024D01*
X68991239Y-28263548D01*
X69051715Y-28203071D01*
X69112191Y-28082119D01*
X69112191Y-27840214D01*
X69051715Y-27719262D01*
X68991239Y-27658786D01*
X68870286Y-27598310D01*
X69656477Y-28203071D02*
X69716953Y-28263548D01*
X69656477Y-28324024D01*
X69596001Y-28263548D01*
X69656477Y-28203071D01*
X69656477Y-28324024D01*
X70140287Y-27054024D02*
X70926477Y-27054024D01*
X70503144Y-27537833D01*
X70684572Y-27537833D01*
X70805525Y-27598310D01*
X70866001Y-27658786D01*
X70926477Y-27779738D01*
X70926477Y-28082119D01*
X70866001Y-28203071D01*
X70805525Y-28263548D01*
X70684572Y-28324024D01*
X70321715Y-28324024D01*
X70200763Y-28263548D01*
X70140287Y-28203071D01*
X71470763Y-28203071D02*
X71531239Y-28263548D01*
X71470763Y-28324024D01*
X71410287Y-28263548D01*
X71470763Y-28203071D01*
X71470763Y-28324024D01*
X71954573Y-27054024D02*
X72740763Y-27054024D01*
X72317430Y-27537833D01*
X72498858Y-27537833D01*
X72619811Y-27598310D01*
X72680287Y-27658786D01*
X72740763Y-27779738D01*
X72740763Y-28082119D01*
X72680287Y-28203071D01*
X72619811Y-28263548D01*
X72498858Y-28324024D01*
X72136001Y-28324024D01*
X72015049Y-28263548D01*
X71954573Y-28203071D01*
X73950287Y-28324024D02*
X73224573Y-28324024D01*
X73587430Y-28324024D02*
X73587430Y-27054024D01*
X73466478Y-27235452D01*
X73345525Y-27356405D01*
X73224573Y-27416881D01*
D12*
X25962000Y-25906000D02*
X41712000Y-25906000D01*
X41712000Y-25906000D02*
X41712000Y-42166000D01*
X41712000Y-42166000D02*
X25962000Y-42166000D01*
X25962000Y-42166000D02*
X25962000Y-25906000D01*
D13*
X44612000Y-40482000D02*
X44612000Y-39782000D01*
X45812000Y-39782000D02*
X45812000Y-40482000D01*
X44200000Y-41894000D02*
X44200000Y-39894000D01*
X42160000Y-39894000D02*
X42160000Y-41894000D01*
X37848000Y-48458000D02*
X37848000Y-49388000D01*
X37848000Y-51618000D02*
X37848000Y-50688000D01*
X37848000Y-51618000D02*
X40008000Y-51618000D01*
X37848000Y-48458000D02*
X39308000Y-48458000D01*
X46066000Y-57562000D02*
X46066000Y-58262000D01*
X44866000Y-58262000D02*
X44866000Y-57562000D01*
X36234000Y-59444000D02*
X36234000Y-60444000D01*
X37934000Y-60444000D02*
X37934000Y-59444000D01*
X121066000Y-62326000D02*
X121066000Y-61626000D01*
X122266000Y-61626000D02*
X122266000Y-62326000D01*
X130898000Y-60444000D02*
X130898000Y-59444000D01*
X129198000Y-59444000D02*
X129198000Y-60444000D01*
X49522000Y-61640000D02*
X48522000Y-61640000D01*
X48522000Y-60280000D02*
X49522000Y-60280000D01*
X117610000Y-58248000D02*
X118610000Y-58248000D01*
X118610000Y-59608000D02*
X117610000Y-59608000D01*
X47924000Y-57412000D02*
X47924000Y-58412000D01*
X46564000Y-58412000D02*
X46564000Y-57412000D01*
X41156000Y-50374000D02*
X42156000Y-50374000D01*
X42156000Y-51734000D02*
X41156000Y-51734000D01*
X49702000Y-57412000D02*
X49702000Y-58412000D01*
X48342000Y-58412000D02*
X48342000Y-57412000D01*
X37838000Y-53766000D02*
X36838000Y-53766000D01*
X36838000Y-52406000D02*
X37838000Y-52406000D01*
X38436000Y-60190000D02*
X38436000Y-59190000D01*
X39796000Y-59190000D02*
X39796000Y-60190000D01*
X37838000Y-66974000D02*
X36838000Y-66974000D01*
X36838000Y-65614000D02*
X37838000Y-65614000D01*
X129294000Y-52406000D02*
X130294000Y-52406000D01*
X130294000Y-53766000D02*
X129294000Y-53766000D01*
X129294000Y-65614000D02*
X130294000Y-65614000D01*
X130294000Y-66974000D02*
X129294000Y-66974000D01*
X119208000Y-62476000D02*
X119208000Y-61476000D01*
X120568000Y-61476000D02*
X120568000Y-62476000D01*
X117430000Y-62476000D02*
X117430000Y-61476000D01*
X118790000Y-61476000D02*
X118790000Y-62476000D01*
X128696000Y-59698000D02*
X128696000Y-60698000D01*
X127336000Y-60698000D02*
X127336000Y-59698000D01*
X43318000Y-58334000D02*
X41518000Y-58334000D01*
X41518000Y-61554000D02*
X43968000Y-61554000D01*
X123814000Y-61554000D02*
X125614000Y-61554000D01*
X125614000Y-58334000D02*
X123164000Y-58334000D01*
X42590000Y-48268000D02*
X42590000Y-49268000D01*
X41230000Y-49268000D02*
X41230000Y-48268000D01*
X129284000Y-51618000D02*
X129284000Y-50688000D01*
X129284000Y-48458000D02*
X129284000Y-49388000D01*
X129284000Y-48458000D02*
X127124000Y-48458000D01*
X129284000Y-51618000D02*
X127824000Y-51618000D01*
X124542000Y-51808000D02*
X124542000Y-50808000D01*
X125902000Y-50808000D02*
X125902000Y-51808000D01*
X124976000Y-48342000D02*
X125976000Y-48342000D01*
X125976000Y-49702000D02*
X124976000Y-49702000D01*
X40802000Y-64866000D02*
X40802000Y-64166000D01*
X42002000Y-64166000D02*
X42002000Y-64866000D01*
X126330000Y-55530000D02*
X126330000Y-56230000D01*
X125130000Y-56230000D02*
X125130000Y-55530000D01*
D10*
X40455905Y-41414666D02*
X41027333Y-41414666D01*
X41141619Y-41452762D01*
X41217810Y-41528952D01*
X41255905Y-41643238D01*
X41255905Y-41719428D01*
X41255905Y-40614666D02*
X41255905Y-41071809D01*
X41255905Y-40843238D02*
X40455905Y-40843238D01*
X40570190Y-40919428D01*
X40646381Y-40995619D01*
X40684476Y-41071809D01*
X45299334Y-38203143D02*
X45251715Y-38250762D01*
X45108858Y-38298381D01*
X45013620Y-38298381D01*
X44870762Y-38250762D01*
X44775524Y-38155524D01*
X44727905Y-38060286D01*
X44680286Y-37869810D01*
X44680286Y-37726952D01*
X44727905Y-37536476D01*
X44775524Y-37441238D01*
X44870762Y-37346000D01*
X45013620Y-37298381D01*
X45108858Y-37298381D01*
X45251715Y-37346000D01*
X45299334Y-37393619D01*
X45680286Y-37393619D02*
X45727905Y-37346000D01*
X45823143Y-37298381D01*
X46061239Y-37298381D01*
X46156477Y-37346000D01*
X46204096Y-37393619D01*
X46251715Y-37488857D01*
X46251715Y-37584095D01*
X46204096Y-37726952D01*
X45632667Y-38298381D01*
X46251715Y-38298381D01*
X43013334Y-38203143D02*
X42965715Y-38250762D01*
X42822858Y-38298381D01*
X42727620Y-38298381D01*
X42584762Y-38250762D01*
X42489524Y-38155524D01*
X42441905Y-38060286D01*
X42394286Y-37869810D01*
X42394286Y-37726952D01*
X42441905Y-37536476D01*
X42489524Y-37441238D01*
X42584762Y-37346000D01*
X42727620Y-37298381D01*
X42822858Y-37298381D01*
X42965715Y-37346000D01*
X43013334Y-37393619D01*
X43965715Y-38298381D02*
X43394286Y-38298381D01*
X43680000Y-38298381D02*
X43680000Y-37298381D01*
X43584762Y-37441238D01*
X43489524Y-37536476D01*
X43394286Y-37584095D01*
X38512762Y-48299619D02*
X38417524Y-48252000D01*
X38322286Y-48156762D01*
X38179429Y-48013905D01*
X38084190Y-47966286D01*
X37988952Y-47966286D01*
X38036571Y-48204381D02*
X37941333Y-48156762D01*
X37846095Y-48061524D01*
X37798476Y-47871048D01*
X37798476Y-47537714D01*
X37846095Y-47347238D01*
X37941333Y-47252000D01*
X38036571Y-47204381D01*
X38227048Y-47204381D01*
X38322286Y-47252000D01*
X38417524Y-47347238D01*
X38465143Y-47537714D01*
X38465143Y-47871048D01*
X38417524Y-48061524D01*
X38322286Y-48156762D01*
X38227048Y-48204381D01*
X38036571Y-48204381D01*
X39417524Y-48204381D02*
X38846095Y-48204381D01*
X39131809Y-48204381D02*
X39131809Y-47204381D01*
X39036571Y-47347238D01*
X38941333Y-47442476D01*
X38846095Y-47490095D01*
X45823143Y-55792666D02*
X45870762Y-55840285D01*
X45918381Y-55983142D01*
X45918381Y-56078380D01*
X45870762Y-56221238D01*
X45775524Y-56316476D01*
X45680286Y-56364095D01*
X45489810Y-56411714D01*
X45346952Y-56411714D01*
X45156476Y-56364095D01*
X45061238Y-56316476D01*
X44966000Y-56221238D01*
X44918381Y-56078380D01*
X44918381Y-55983142D01*
X44966000Y-55840285D01*
X45013619Y-55792666D01*
X44918381Y-55459333D02*
X44918381Y-54840285D01*
X45299333Y-55173619D01*
X45299333Y-55030761D01*
X45346952Y-54935523D01*
X45394571Y-54887904D01*
X45489810Y-54840285D01*
X45727905Y-54840285D01*
X45823143Y-54887904D01*
X45870762Y-54935523D01*
X45918381Y-55030761D01*
X45918381Y-55316476D01*
X45870762Y-55411714D01*
X45823143Y-55459333D01*
X37441143Y-63158666D02*
X37488762Y-63206285D01*
X37536381Y-63349142D01*
X37536381Y-63444380D01*
X37488762Y-63587238D01*
X37393524Y-63682476D01*
X37298286Y-63730095D01*
X37107810Y-63777714D01*
X36964952Y-63777714D01*
X36774476Y-63730095D01*
X36679238Y-63682476D01*
X36584000Y-63587238D01*
X36536381Y-63444380D01*
X36536381Y-63349142D01*
X36584000Y-63206285D01*
X36631619Y-63158666D01*
X36869714Y-62301523D02*
X37536381Y-62301523D01*
X36488762Y-62539619D02*
X37203048Y-62777714D01*
X37203048Y-62158666D01*
X122023143Y-65444666D02*
X122070762Y-65492285D01*
X122118381Y-65635142D01*
X122118381Y-65730380D01*
X122070762Y-65873238D01*
X121975524Y-65968476D01*
X121880286Y-66016095D01*
X121689810Y-66063714D01*
X121546952Y-66063714D01*
X121356476Y-66016095D01*
X121261238Y-65968476D01*
X121166000Y-65873238D01*
X121118381Y-65730380D01*
X121118381Y-65635142D01*
X121166000Y-65492285D01*
X121213619Y-65444666D01*
X121118381Y-64539904D02*
X121118381Y-65016095D01*
X121594571Y-65063714D01*
X121546952Y-65016095D01*
X121499333Y-64920857D01*
X121499333Y-64682761D01*
X121546952Y-64587523D01*
X121594571Y-64539904D01*
X121689810Y-64492285D01*
X121927905Y-64492285D01*
X122023143Y-64539904D01*
X122070762Y-64587523D01*
X122118381Y-64682761D01*
X122118381Y-64920857D01*
X122070762Y-65016095D01*
X122023143Y-65063714D01*
X130405143Y-63920666D02*
X130452762Y-63968285D01*
X130500381Y-64111142D01*
X130500381Y-64206380D01*
X130452762Y-64349238D01*
X130357524Y-64444476D01*
X130262286Y-64492095D01*
X130071810Y-64539714D01*
X129928952Y-64539714D01*
X129738476Y-64492095D01*
X129643238Y-64444476D01*
X129548000Y-64349238D01*
X129500381Y-64206380D01*
X129500381Y-64111142D01*
X129548000Y-63968285D01*
X129595619Y-63920666D01*
X129500381Y-63063523D02*
X129500381Y-63254000D01*
X129548000Y-63349238D01*
X129595619Y-63396857D01*
X129738476Y-63492095D01*
X129928952Y-63539714D01*
X130309905Y-63539714D01*
X130405143Y-63492095D01*
X130452762Y-63444476D01*
X130500381Y-63349238D01*
X130500381Y-63158761D01*
X130452762Y-63063523D01*
X130405143Y-63015904D01*
X130309905Y-62968285D01*
X130071810Y-62968285D01*
X129976571Y-63015904D01*
X129928952Y-63063523D01*
X129881333Y-63158761D01*
X129881333Y-63349238D01*
X129928952Y-63444476D01*
X129976571Y-63492095D01*
X130071810Y-63539714D01*
X51141334Y-61412381D02*
X50808000Y-60936190D01*
X50569905Y-61412381D02*
X50569905Y-60412381D01*
X50950858Y-60412381D01*
X51046096Y-60460000D01*
X51093715Y-60507619D01*
X51141334Y-60602857D01*
X51141334Y-60745714D01*
X51093715Y-60840952D01*
X51046096Y-60888571D01*
X50950858Y-60936190D01*
X50569905Y-60936190D01*
X52093715Y-61412381D02*
X51522286Y-61412381D01*
X51808000Y-61412381D02*
X51808000Y-60412381D01*
X51712762Y-60555238D01*
X51617524Y-60650476D01*
X51522286Y-60698095D01*
X115657334Y-59380381D02*
X115324000Y-58904190D01*
X115085905Y-59380381D02*
X115085905Y-58380381D01*
X115466858Y-58380381D01*
X115562096Y-58428000D01*
X115609715Y-58475619D01*
X115657334Y-58570857D01*
X115657334Y-58713714D01*
X115609715Y-58808952D01*
X115562096Y-58856571D01*
X115466858Y-58904190D01*
X115085905Y-58904190D01*
X116038286Y-58475619D02*
X116085905Y-58428000D01*
X116181143Y-58380381D01*
X116419239Y-58380381D01*
X116514477Y-58428000D01*
X116562096Y-58475619D01*
X116609715Y-58570857D01*
X116609715Y-58666095D01*
X116562096Y-58808952D01*
X115990667Y-59380381D01*
X116609715Y-59380381D01*
X47696381Y-55792666D02*
X47220190Y-56126000D01*
X47696381Y-56364095D02*
X46696381Y-56364095D01*
X46696381Y-55983142D01*
X46744000Y-55887904D01*
X46791619Y-55840285D01*
X46886857Y-55792666D01*
X47029714Y-55792666D01*
X47124952Y-55840285D01*
X47172571Y-55887904D01*
X47220190Y-55983142D01*
X47220190Y-56364095D01*
X46696381Y-55459333D02*
X46696381Y-54840285D01*
X47077333Y-55173619D01*
X47077333Y-55030761D01*
X47124952Y-54935523D01*
X47172571Y-54887904D01*
X47267810Y-54840285D01*
X47505905Y-54840285D01*
X47601143Y-54887904D01*
X47648762Y-54935523D01*
X47696381Y-55030761D01*
X47696381Y-55316476D01*
X47648762Y-55411714D01*
X47601143Y-55459333D01*
X41489334Y-52903381D02*
X41156000Y-52427190D01*
X40917905Y-52903381D02*
X40917905Y-51903381D01*
X41298858Y-51903381D01*
X41394096Y-51951000D01*
X41441715Y-51998619D01*
X41489334Y-52093857D01*
X41489334Y-52236714D01*
X41441715Y-52331952D01*
X41394096Y-52379571D01*
X41298858Y-52427190D01*
X40917905Y-52427190D01*
X42346477Y-52236714D02*
X42346477Y-52903381D01*
X42108381Y-51855762D02*
X41870286Y-52570048D01*
X42489334Y-52570048D01*
X49474381Y-55792666D02*
X48998190Y-56126000D01*
X49474381Y-56364095D02*
X48474381Y-56364095D01*
X48474381Y-55983142D01*
X48522000Y-55887904D01*
X48569619Y-55840285D01*
X48664857Y-55792666D01*
X48807714Y-55792666D01*
X48902952Y-55840285D01*
X48950571Y-55887904D01*
X48998190Y-55983142D01*
X48998190Y-56364095D01*
X48474381Y-54887904D02*
X48474381Y-55364095D01*
X48950571Y-55411714D01*
X48902952Y-55364095D01*
X48855333Y-55268857D01*
X48855333Y-55030761D01*
X48902952Y-54935523D01*
X48950571Y-54887904D01*
X49045810Y-54840285D01*
X49283905Y-54840285D01*
X49379143Y-54887904D01*
X49426762Y-54935523D01*
X49474381Y-55030761D01*
X49474381Y-55268857D01*
X49426762Y-55364095D01*
X49379143Y-55411714D01*
X39457334Y-53538381D02*
X39124000Y-53062190D01*
X38885905Y-53538381D02*
X38885905Y-52538381D01*
X39266858Y-52538381D01*
X39362096Y-52586000D01*
X39409715Y-52633619D01*
X39457334Y-52728857D01*
X39457334Y-52871714D01*
X39409715Y-52966952D01*
X39362096Y-53014571D01*
X39266858Y-53062190D01*
X38885905Y-53062190D01*
X40314477Y-52538381D02*
X40124000Y-52538381D01*
X40028762Y-52586000D01*
X39981143Y-52633619D01*
X39885905Y-52776476D01*
X39838286Y-52966952D01*
X39838286Y-53347905D01*
X39885905Y-53443143D01*
X39933524Y-53490762D01*
X40028762Y-53538381D01*
X40219239Y-53538381D01*
X40314477Y-53490762D01*
X40362096Y-53443143D01*
X40409715Y-53347905D01*
X40409715Y-53109810D01*
X40362096Y-53014571D01*
X40314477Y-52966952D01*
X40219239Y-52919333D01*
X40028762Y-52919333D01*
X39933524Y-52966952D01*
X39885905Y-53014571D01*
X39838286Y-53109810D01*
X39568381Y-63158666D02*
X39092190Y-63492000D01*
X39568381Y-63730095D02*
X38568381Y-63730095D01*
X38568381Y-63349142D01*
X38616000Y-63253904D01*
X38663619Y-63206285D01*
X38758857Y-63158666D01*
X38901714Y-63158666D01*
X38996952Y-63206285D01*
X39044571Y-63253904D01*
X39092190Y-63349142D01*
X39092190Y-63730095D01*
X38568381Y-62825333D02*
X38568381Y-62158666D01*
X39568381Y-62587238D01*
X39457334Y-66746381D02*
X39124000Y-66270190D01*
X38885905Y-66746381D02*
X38885905Y-65746381D01*
X39266858Y-65746381D01*
X39362096Y-65794000D01*
X39409715Y-65841619D01*
X39457334Y-65936857D01*
X39457334Y-66079714D01*
X39409715Y-66174952D01*
X39362096Y-66222571D01*
X39266858Y-66270190D01*
X38885905Y-66270190D01*
X40028762Y-66174952D02*
X39933524Y-66127333D01*
X39885905Y-66079714D01*
X39838286Y-65984476D01*
X39838286Y-65936857D01*
X39885905Y-65841619D01*
X39933524Y-65794000D01*
X40028762Y-65746381D01*
X40219239Y-65746381D01*
X40314477Y-65794000D01*
X40362096Y-65841619D01*
X40409715Y-65936857D01*
X40409715Y-65984476D01*
X40362096Y-66079714D01*
X40314477Y-66127333D01*
X40219239Y-66174952D01*
X40028762Y-66174952D01*
X39933524Y-66222571D01*
X39885905Y-66270190D01*
X39838286Y-66365429D01*
X39838286Y-66555905D01*
X39885905Y-66651143D01*
X39933524Y-66698762D01*
X40028762Y-66746381D01*
X40219239Y-66746381D01*
X40314477Y-66698762D01*
X40362096Y-66651143D01*
X40409715Y-66555905D01*
X40409715Y-66365429D01*
X40362096Y-66270190D01*
X40314477Y-66222571D01*
X40219239Y-66174952D01*
X127341334Y-53538381D02*
X127008000Y-53062190D01*
X126769905Y-53538381D02*
X126769905Y-52538381D01*
X127150858Y-52538381D01*
X127246096Y-52586000D01*
X127293715Y-52633619D01*
X127341334Y-52728857D01*
X127341334Y-52871714D01*
X127293715Y-52966952D01*
X127246096Y-53014571D01*
X127150858Y-53062190D01*
X126769905Y-53062190D01*
X127817524Y-53538381D02*
X128008000Y-53538381D01*
X128103239Y-53490762D01*
X128150858Y-53443143D01*
X128246096Y-53300286D01*
X128293715Y-53109810D01*
X128293715Y-52728857D01*
X128246096Y-52633619D01*
X128198477Y-52586000D01*
X128103239Y-52538381D01*
X127912762Y-52538381D01*
X127817524Y-52586000D01*
X127769905Y-52633619D01*
X127722286Y-52728857D01*
X127722286Y-52966952D01*
X127769905Y-53062190D01*
X127817524Y-53109810D01*
X127912762Y-53157429D01*
X128103239Y-53157429D01*
X128198477Y-53109810D01*
X128246096Y-53062190D01*
X128293715Y-52966952D01*
X126357143Y-66746381D02*
X126023809Y-66270190D01*
X125785714Y-66746381D02*
X125785714Y-65746381D01*
X126166667Y-65746381D01*
X126261905Y-65794000D01*
X126309524Y-65841619D01*
X126357143Y-65936857D01*
X126357143Y-66079714D01*
X126309524Y-66174952D01*
X126261905Y-66222571D01*
X126166667Y-66270190D01*
X125785714Y-66270190D01*
X127309524Y-66746381D02*
X126738095Y-66746381D01*
X127023809Y-66746381D02*
X127023809Y-65746381D01*
X126928571Y-65889238D01*
X126833333Y-65984476D01*
X126738095Y-66032095D01*
X127928571Y-65746381D02*
X128023810Y-65746381D01*
X128119048Y-65794000D01*
X128166667Y-65841619D01*
X128214286Y-65936857D01*
X128261905Y-66127333D01*
X128261905Y-66365429D01*
X128214286Y-66555905D01*
X128166667Y-66651143D01*
X128119048Y-66698762D01*
X128023810Y-66746381D01*
X127928571Y-66746381D01*
X127833333Y-66698762D01*
X127785714Y-66651143D01*
X127738095Y-66555905D01*
X127690476Y-66365429D01*
X127690476Y-66127333D01*
X127738095Y-65936857D01*
X127785714Y-65841619D01*
X127833333Y-65794000D01*
X127928571Y-65746381D01*
X120340381Y-65412857D02*
X119864190Y-65746191D01*
X120340381Y-65984286D02*
X119340381Y-65984286D01*
X119340381Y-65603333D01*
X119388000Y-65508095D01*
X119435619Y-65460476D01*
X119530857Y-65412857D01*
X119673714Y-65412857D01*
X119768952Y-65460476D01*
X119816571Y-65508095D01*
X119864190Y-65603333D01*
X119864190Y-65984286D01*
X120340381Y-64460476D02*
X120340381Y-65031905D01*
X120340381Y-64746191D02*
X119340381Y-64746191D01*
X119483238Y-64841429D01*
X119578476Y-64936667D01*
X119626095Y-65031905D01*
X120340381Y-63508095D02*
X120340381Y-64079524D01*
X120340381Y-63793810D02*
X119340381Y-63793810D01*
X119483238Y-63889048D01*
X119578476Y-63984286D01*
X119626095Y-64079524D01*
X118562381Y-65412857D02*
X118086190Y-65746191D01*
X118562381Y-65984286D02*
X117562381Y-65984286D01*
X117562381Y-65603333D01*
X117610000Y-65508095D01*
X117657619Y-65460476D01*
X117752857Y-65412857D01*
X117895714Y-65412857D01*
X117990952Y-65460476D01*
X118038571Y-65508095D01*
X118086190Y-65603333D01*
X118086190Y-65984286D01*
X118562381Y-64460476D02*
X118562381Y-65031905D01*
X118562381Y-64746191D02*
X117562381Y-64746191D01*
X117705238Y-64841429D01*
X117800476Y-64936667D01*
X117848095Y-65031905D01*
X117657619Y-64079524D02*
X117610000Y-64031905D01*
X117562381Y-63936667D01*
X117562381Y-63698571D01*
X117610000Y-63603333D01*
X117657619Y-63555714D01*
X117752857Y-63508095D01*
X117848095Y-63508095D01*
X117990952Y-63555714D01*
X118562381Y-64127143D01*
X118562381Y-63508095D01*
X128468381Y-63888857D02*
X127992190Y-64222191D01*
X128468381Y-64460286D02*
X127468381Y-64460286D01*
X127468381Y-64079333D01*
X127516000Y-63984095D01*
X127563619Y-63936476D01*
X127658857Y-63888857D01*
X127801714Y-63888857D01*
X127896952Y-63936476D01*
X127944571Y-63984095D01*
X127992190Y-64079333D01*
X127992190Y-64460286D01*
X128468381Y-62936476D02*
X128468381Y-63507905D01*
X128468381Y-63222191D02*
X127468381Y-63222191D01*
X127611238Y-63317429D01*
X127706476Y-63412667D01*
X127754095Y-63507905D01*
X127468381Y-62603143D02*
X127468381Y-61984095D01*
X127849333Y-62317429D01*
X127849333Y-62174571D01*
X127896952Y-62079333D01*
X127944571Y-62031714D01*
X128039810Y-61984095D01*
X128277905Y-61984095D01*
X128373143Y-62031714D01*
X128420762Y-62079333D01*
X128468381Y-62174571D01*
X128468381Y-62460286D01*
X128420762Y-62555524D01*
X128373143Y-62603143D01*
X41910095Y-61936381D02*
X41910095Y-62745905D01*
X41957714Y-62841143D01*
X42005333Y-62888762D01*
X42100571Y-62936381D01*
X42291048Y-62936381D01*
X42386286Y-62888762D01*
X42433905Y-62841143D01*
X42481524Y-62745905D01*
X42481524Y-61936381D01*
X43481524Y-62936381D02*
X42910095Y-62936381D01*
X43195809Y-62936381D02*
X43195809Y-61936381D01*
X43100571Y-62079238D01*
X43005333Y-62174476D01*
X42910095Y-62222095D01*
X123190095Y-56602381D02*
X123190095Y-57411905D01*
X123237714Y-57507143D01*
X123285333Y-57554762D01*
X123380571Y-57602381D01*
X123571048Y-57602381D01*
X123666286Y-57554762D01*
X123713905Y-57507143D01*
X123761524Y-57411905D01*
X123761524Y-56602381D01*
X124190095Y-56697619D02*
X124237714Y-56650000D01*
X124332952Y-56602381D01*
X124571048Y-56602381D01*
X124666286Y-56650000D01*
X124713905Y-56697619D01*
X124761524Y-56792857D01*
X124761524Y-56888095D01*
X124713905Y-57030952D01*
X124142476Y-57602381D01*
X124761524Y-57602381D01*
X41521143Y-47442381D02*
X41187809Y-46966190D01*
X40949714Y-47442381D02*
X40949714Y-46442381D01*
X41330667Y-46442381D01*
X41425905Y-46490000D01*
X41473524Y-46537619D01*
X41521143Y-46632857D01*
X41521143Y-46775714D01*
X41473524Y-46870952D01*
X41425905Y-46918571D01*
X41330667Y-46966190D01*
X40949714Y-46966190D01*
X42473524Y-47442381D02*
X41902095Y-47442381D01*
X42187809Y-47442381D02*
X42187809Y-46442381D01*
X42092571Y-46585238D01*
X41997333Y-46680476D01*
X41902095Y-46728095D01*
X43330667Y-46775714D02*
X43330667Y-47442381D01*
X43092571Y-46394762D02*
X42854476Y-47109048D01*
X43473524Y-47109048D01*
X128428762Y-48085619D02*
X128333524Y-48038000D01*
X128238286Y-47942762D01*
X128095429Y-47799905D01*
X128000190Y-47752286D01*
X127904952Y-47752286D01*
X127952571Y-47990381D02*
X127857333Y-47942762D01*
X127762095Y-47847524D01*
X127714476Y-47657048D01*
X127714476Y-47323714D01*
X127762095Y-47133238D01*
X127857333Y-47038000D01*
X127952571Y-46990381D01*
X128143048Y-46990381D01*
X128238286Y-47038000D01*
X128333524Y-47133238D01*
X128381143Y-47323714D01*
X128381143Y-47657048D01*
X128333524Y-47847524D01*
X128238286Y-47942762D01*
X128143048Y-47990381D01*
X127952571Y-47990381D01*
X128762095Y-47085619D02*
X128809714Y-47038000D01*
X128904952Y-46990381D01*
X129143048Y-46990381D01*
X129238286Y-47038000D01*
X129285905Y-47085619D01*
X129333524Y-47180857D01*
X129333524Y-47276095D01*
X129285905Y-47418952D01*
X128714476Y-47990381D01*
X129333524Y-47990381D01*
X122293143Y-51760381D02*
X121959809Y-51284190D01*
X121721714Y-51760381D02*
X121721714Y-50760381D01*
X122102667Y-50760381D01*
X122197905Y-50808000D01*
X122245524Y-50855619D01*
X122293143Y-50950857D01*
X122293143Y-51093714D01*
X122245524Y-51188952D01*
X122197905Y-51236571D01*
X122102667Y-51284190D01*
X121721714Y-51284190D01*
X123245524Y-51760381D02*
X122674095Y-51760381D01*
X122959809Y-51760381D02*
X122959809Y-50760381D01*
X122864571Y-50903238D01*
X122769333Y-50998476D01*
X122674095Y-51046095D01*
X124150286Y-50760381D02*
X123674095Y-50760381D01*
X123626476Y-51236571D01*
X123674095Y-51188952D01*
X123769333Y-51141333D01*
X124007429Y-51141333D01*
X124102667Y-51188952D01*
X124150286Y-51236571D01*
X124197905Y-51331810D01*
X124197905Y-51569905D01*
X124150286Y-51665143D01*
X124102667Y-51712762D01*
X124007429Y-51760381D01*
X123769333Y-51760381D01*
X123674095Y-51712762D01*
X123626476Y-51665143D01*
X124579143Y-47950381D02*
X124245809Y-47474190D01*
X124007714Y-47950381D02*
X124007714Y-46950381D01*
X124388667Y-46950381D01*
X124483905Y-46998000D01*
X124531524Y-47045619D01*
X124579143Y-47140857D01*
X124579143Y-47283714D01*
X124531524Y-47378952D01*
X124483905Y-47426571D01*
X124388667Y-47474190D01*
X124007714Y-47474190D01*
X125531524Y-47950381D02*
X124960095Y-47950381D01*
X125245809Y-47950381D02*
X125245809Y-46950381D01*
X125150571Y-47093238D01*
X125055333Y-47188476D01*
X124960095Y-47236095D01*
X126388667Y-46950381D02*
X126198190Y-46950381D01*
X126102952Y-46998000D01*
X126055333Y-47045619D01*
X125960095Y-47188476D01*
X125912476Y-47378952D01*
X125912476Y-47759905D01*
X125960095Y-47855143D01*
X126007714Y-47902762D01*
X126102952Y-47950381D01*
X126293429Y-47950381D01*
X126388667Y-47902762D01*
X126436286Y-47855143D01*
X126483905Y-47759905D01*
X126483905Y-47521810D01*
X126436286Y-47426571D01*
X126388667Y-47378952D01*
X126293429Y-47331333D01*
X126102952Y-47331333D01*
X126007714Y-47378952D01*
X125960095Y-47426571D01*
X125912476Y-47521810D01*
X42759334Y-65889143D02*
X42711715Y-65936762D01*
X42568858Y-65984381D01*
X42473620Y-65984381D01*
X42330762Y-65936762D01*
X42235524Y-65841524D01*
X42187905Y-65746286D01*
X42140286Y-65555810D01*
X42140286Y-65412952D01*
X42187905Y-65222476D01*
X42235524Y-65127238D01*
X42330762Y-65032000D01*
X42473620Y-64984381D01*
X42568858Y-64984381D01*
X42711715Y-65032000D01*
X42759334Y-65079619D01*
X43092667Y-64984381D02*
X43759334Y-64984381D01*
X43330762Y-65984381D01*
X124039334Y-55475143D02*
X123991715Y-55522762D01*
X123848858Y-55570381D01*
X123753620Y-55570381D01*
X123610762Y-55522762D01*
X123515524Y-55427524D01*
X123467905Y-55332286D01*
X123420286Y-55141810D01*
X123420286Y-54998952D01*
X123467905Y-54808476D01*
X123515524Y-54713238D01*
X123610762Y-54618000D01*
X123753620Y-54570381D01*
X123848858Y-54570381D01*
X123991715Y-54618000D01*
X124039334Y-54665619D01*
X124610762Y-54998952D02*
X124515524Y-54951333D01*
X124467905Y-54903714D01*
X124420286Y-54808476D01*
X124420286Y-54760857D01*
X124467905Y-54665619D01*
X124515524Y-54618000D01*
X124610762Y-54570381D01*
X124801239Y-54570381D01*
X124896477Y-54618000D01*
X124944096Y-54665619D01*
X124991715Y-54760857D01*
X124991715Y-54808476D01*
X124944096Y-54903714D01*
X124896477Y-54951333D01*
X124801239Y-54998952D01*
X124610762Y-54998952D01*
X124515524Y-55046571D01*
X124467905Y-55094190D01*
X124420286Y-55189429D01*
X124420286Y-55379905D01*
X124467905Y-55475143D01*
X124515524Y-55522762D01*
X124610762Y-55570381D01*
X124801239Y-55570381D01*
X124896477Y-55522762D01*
X124944096Y-55475143D01*
X124991715Y-55379905D01*
X124991715Y-55189429D01*
X124944096Y-55094190D01*
X124896477Y-55046571D01*
X124801239Y-54998952D01*
M02*
