G04 #@! TF.FileFunction,Copper,L2,Bot,Signal*
%FSLAX46Y46*%
G04 Gerber Fmt 4.6, Leading zero omitted, Abs format (unit mm)*
G04 Created by KiCad (PCBNEW 4.0.7) date 01/10/18 16:33:28*
%MOMM*%
%LPD*%
G01*
G04 APERTURE LIST*
%ADD10C,0.150000*%
%ADD11C,2.200000*%
%ADD12C,1.600000*%
%ADD13R,1.800000X1.800000*%
%ADD14C,1.800000*%
%ADD15C,5.000000*%
%ADD16C,0.660400*%
%ADD17C,1.143000*%
%ADD18C,1.016000*%
%ADD19C,1.524000*%
%ADD20C,0.508000*%
%ADD21C,0.304800*%
G04 APERTURE END LIST*
D10*
D11*
X34922000Y-42166000D03*
X34922000Y-25906000D03*
D12*
X33902000Y-34536000D03*
X33902000Y-32506000D03*
X35682000Y-35566000D03*
X35682000Y-33536000D03*
X35682000Y-37596000D03*
X33902000Y-36566000D03*
X35682000Y-31506000D03*
X33902000Y-30476000D03*
D13*
X32766000Y-58420000D03*
D14*
X32766000Y-60960000D03*
D13*
X32766000Y-51816000D03*
D14*
X32766000Y-54356000D03*
D13*
X32766000Y-65024000D03*
D14*
X32766000Y-67564000D03*
D13*
X134366000Y-51816000D03*
D14*
X134366000Y-54356000D03*
D13*
X134366000Y-65024000D03*
D14*
X134366000Y-67564000D03*
D13*
X134366000Y-58420000D03*
D14*
X134366000Y-60960000D03*
D15*
X112395000Y-66040000D03*
X54610000Y-66040000D03*
X54610000Y-27940000D03*
X112395000Y-27940000D03*
D16*
X109728000Y-56896000D03*
X114046000Y-61214000D03*
X52324000Y-62484000D03*
X52324000Y-59436000D03*
D17*
X66294000Y-39370000D03*
X58674000Y-39370000D03*
D16*
X118110000Y-63246000D03*
X125730000Y-57658000D03*
X49022000Y-56642000D03*
X41402000Y-62484000D03*
X40386000Y-65278000D03*
X126746000Y-55118000D03*
X126492000Y-52070000D03*
X40640000Y-48260000D03*
X43180000Y-43688000D03*
X41148000Y-42672000D03*
X45212000Y-41910000D03*
X46482000Y-56642000D03*
X119888000Y-63500000D03*
X122682000Y-62738000D03*
X122682000Y-59944000D03*
X44450000Y-57150000D03*
X44450000Y-59944000D03*
X37211000Y-28829000D03*
X67310000Y-37846000D03*
X57912000Y-37846000D03*
X39370000Y-37846000D03*
X39370000Y-41656000D03*
D18*
X114046000Y-61214000D02*
X109728000Y-56896000D01*
X52324000Y-62484000D02*
X52324000Y-59436000D01*
D19*
X58674000Y-39370000D02*
X66294000Y-39370000D01*
D20*
X118110000Y-58420000D02*
X118110000Y-63246000D01*
X118872000Y-57658000D02*
X118110000Y-58420000D01*
X125730000Y-57658000D02*
X118872000Y-57658000D01*
X49022000Y-61722000D02*
X49022000Y-56642000D01*
X48260000Y-62484000D02*
X49022000Y-61722000D01*
X41402000Y-62484000D02*
X48260000Y-62484000D01*
X122682000Y-59944000D02*
X122682000Y-62738000D01*
X44450000Y-59944000D02*
X44450000Y-57150000D01*
X33902000Y-32506000D02*
X33649000Y-32506000D01*
X33649000Y-32506000D02*
X32258000Y-31115000D01*
X32258000Y-31115000D02*
X32258000Y-29972000D01*
X32258000Y-29972000D02*
X33401000Y-28829000D01*
X33401000Y-28829000D02*
X37211000Y-28829000D01*
X57912000Y-37846000D02*
X67310000Y-37846000D01*
X39370000Y-37846000D02*
X39370000Y-41656000D01*
D21*
G36*
X34141393Y-24705084D02*
X34111224Y-24725243D01*
X33990396Y-24920514D01*
X34922000Y-25852118D01*
X35853604Y-24920514D01*
X35732776Y-24725243D01*
X35467490Y-24611400D01*
X137440600Y-24611400D01*
X137440600Y-69368600D01*
X29691400Y-69368600D01*
X29691400Y-64124000D01*
X31451639Y-64124000D01*
X31451639Y-65924000D01*
X31479977Y-66074603D01*
X31568983Y-66212922D01*
X31704790Y-66305715D01*
X31866000Y-66338361D01*
X32311277Y-66338361D01*
X32026951Y-66455842D01*
X31659134Y-66823018D01*
X31459827Y-67303001D01*
X31459374Y-67822719D01*
X31657842Y-68303049D01*
X32025018Y-68670866D01*
X32505001Y-68870173D01*
X33024719Y-68870626D01*
X33505049Y-68672158D01*
X33872866Y-68304982D01*
X34072173Y-67824999D01*
X34072626Y-67305281D01*
X33874158Y-66824951D01*
X33665154Y-66615582D01*
X51703096Y-66615582D01*
X52144637Y-67684193D01*
X52961507Y-68502490D01*
X54029345Y-68945895D01*
X55185582Y-68946904D01*
X56254193Y-68505363D01*
X57072490Y-67688493D01*
X57515895Y-66620655D01*
X57515899Y-66615582D01*
X109488096Y-66615582D01*
X109929637Y-67684193D01*
X110746507Y-68502490D01*
X111814345Y-68945895D01*
X112970582Y-68946904D01*
X114039193Y-68505363D01*
X114857490Y-67688493D01*
X115300895Y-66620655D01*
X115301904Y-65464418D01*
X114860363Y-64395807D01*
X114589030Y-64124000D01*
X133051639Y-64124000D01*
X133051639Y-65924000D01*
X133079977Y-66074603D01*
X133168983Y-66212922D01*
X133304790Y-66305715D01*
X133466000Y-66338361D01*
X133911277Y-66338361D01*
X133626951Y-66455842D01*
X133259134Y-66823018D01*
X133059827Y-67303001D01*
X133059374Y-67822719D01*
X133257842Y-68303049D01*
X133625018Y-68670866D01*
X134105001Y-68870173D01*
X134624719Y-68870626D01*
X135105049Y-68672158D01*
X135472866Y-68304982D01*
X135672173Y-67824999D01*
X135672626Y-67305281D01*
X135474158Y-66824951D01*
X135106982Y-66457134D01*
X134820946Y-66338361D01*
X135266000Y-66338361D01*
X135416603Y-66310023D01*
X135554922Y-66221017D01*
X135647715Y-66085210D01*
X135680361Y-65924000D01*
X135680361Y-64124000D01*
X135652023Y-63973397D01*
X135563017Y-63835078D01*
X135427210Y-63742285D01*
X135266000Y-63709639D01*
X133466000Y-63709639D01*
X133315397Y-63737977D01*
X133177078Y-63826983D01*
X133084285Y-63962790D01*
X133051639Y-64124000D01*
X114589030Y-64124000D01*
X114043493Y-63577510D01*
X113596437Y-63391876D01*
X117373272Y-63391876D01*
X117485177Y-63662705D01*
X117692205Y-63870095D01*
X117962838Y-63982472D01*
X118255876Y-63982728D01*
X118526705Y-63870823D01*
X118734095Y-63663795D01*
X118846472Y-63393162D01*
X118846728Y-63100124D01*
X118770400Y-62915397D01*
X118770400Y-61801226D01*
X133578656Y-61801226D01*
X133675134Y-61975715D01*
X134116420Y-62162781D01*
X134595703Y-62166735D01*
X135040015Y-61986974D01*
X135056866Y-61975715D01*
X135153344Y-61801226D01*
X134366000Y-61013882D01*
X133578656Y-61801226D01*
X118770400Y-61801226D01*
X118770400Y-61189703D01*
X133159265Y-61189703D01*
X133339026Y-61634015D01*
X133350285Y-61650866D01*
X133524774Y-61747344D01*
X134312118Y-60960000D01*
X134419882Y-60960000D01*
X135207226Y-61747344D01*
X135381715Y-61650866D01*
X135568781Y-61209580D01*
X135572735Y-60730297D01*
X135392974Y-60285985D01*
X135381715Y-60269134D01*
X135207226Y-60172656D01*
X134419882Y-60960000D01*
X134312118Y-60960000D01*
X133524774Y-60172656D01*
X133350285Y-60269134D01*
X133163219Y-60710420D01*
X133159265Y-61189703D01*
X118770400Y-61189703D01*
X118770400Y-60118774D01*
X133578656Y-60118774D01*
X134366000Y-60906118D01*
X135153344Y-60118774D01*
X135056866Y-59944285D01*
X134615580Y-59757219D01*
X134136297Y-59753265D01*
X133691985Y-59933026D01*
X133675134Y-59944285D01*
X133578656Y-60118774D01*
X118770400Y-60118774D01*
X118770400Y-58693546D01*
X119145547Y-58318400D01*
X125399637Y-58318400D01*
X125582838Y-58394472D01*
X125875876Y-58394728D01*
X126146705Y-58282823D01*
X126354095Y-58075795D01*
X126466472Y-57805162D01*
X126466721Y-57520000D01*
X133051639Y-57520000D01*
X133051639Y-59320000D01*
X133079977Y-59470603D01*
X133168983Y-59608922D01*
X133304790Y-59701715D01*
X133466000Y-59734361D01*
X135266000Y-59734361D01*
X135416603Y-59706023D01*
X135554922Y-59617017D01*
X135647715Y-59481210D01*
X135680361Y-59320000D01*
X135680361Y-57520000D01*
X135652023Y-57369397D01*
X135563017Y-57231078D01*
X135427210Y-57138285D01*
X135266000Y-57105639D01*
X133466000Y-57105639D01*
X133315397Y-57133977D01*
X133177078Y-57222983D01*
X133084285Y-57358790D01*
X133051639Y-57520000D01*
X126466721Y-57520000D01*
X126466728Y-57512124D01*
X126354823Y-57241295D01*
X126147795Y-57033905D01*
X125877162Y-56921528D01*
X125584124Y-56921272D01*
X125399397Y-56997600D01*
X118872000Y-56997600D01*
X118619276Y-57047870D01*
X118405027Y-57191026D01*
X117643027Y-57953027D01*
X117499870Y-58167276D01*
X117449600Y-58420000D01*
X117449600Y-62915637D01*
X117373528Y-63098838D01*
X117373272Y-63391876D01*
X113596437Y-63391876D01*
X112975655Y-63134105D01*
X111819418Y-63133096D01*
X110750807Y-63574637D01*
X109932510Y-64391507D01*
X109489105Y-65459345D01*
X109488096Y-66615582D01*
X57515899Y-66615582D01*
X57516904Y-65464418D01*
X57075363Y-64395807D01*
X56258493Y-63577510D01*
X55190655Y-63134105D01*
X54034418Y-63133096D01*
X52965807Y-63574637D01*
X52147510Y-64391507D01*
X51704105Y-65459345D01*
X51703096Y-66615582D01*
X33665154Y-66615582D01*
X33506982Y-66457134D01*
X33220946Y-66338361D01*
X33666000Y-66338361D01*
X33816603Y-66310023D01*
X33954922Y-66221017D01*
X34047715Y-66085210D01*
X34080361Y-65924000D01*
X34080361Y-64124000D01*
X34052023Y-63973397D01*
X33963017Y-63835078D01*
X33827210Y-63742285D01*
X33666000Y-63709639D01*
X31866000Y-63709639D01*
X31715397Y-63737977D01*
X31577078Y-63826983D01*
X31484285Y-63962790D01*
X31451639Y-64124000D01*
X29691400Y-64124000D01*
X29691400Y-62629876D01*
X40665272Y-62629876D01*
X40777177Y-62900705D01*
X40984205Y-63108095D01*
X41254838Y-63220472D01*
X41547876Y-63220728D01*
X41732603Y-63144400D01*
X48260000Y-63144400D01*
X48512724Y-63094130D01*
X48726973Y-62950973D01*
X49488974Y-62188973D01*
X49632130Y-61974724D01*
X49682400Y-61722000D01*
X49682400Y-59436000D01*
X51409600Y-59436000D01*
X51409600Y-62484000D01*
X51479205Y-62833926D01*
X51677422Y-63130578D01*
X51974074Y-63328795D01*
X52324000Y-63398400D01*
X52673926Y-63328795D01*
X52970578Y-63130578D01*
X53168795Y-62833926D01*
X53238400Y-62484000D01*
X53238400Y-59436000D01*
X53168795Y-59086074D01*
X52970578Y-58789422D01*
X52673926Y-58591205D01*
X52324000Y-58521600D01*
X51974074Y-58591205D01*
X51677422Y-58789422D01*
X51479205Y-59086074D01*
X51409600Y-59436000D01*
X49682400Y-59436000D01*
X49682400Y-56972363D01*
X49714108Y-56896000D01*
X108813601Y-56896000D01*
X108883205Y-57245925D01*
X109081422Y-57542578D01*
X113399421Y-61860578D01*
X113696075Y-62058795D01*
X114046000Y-62128399D01*
X114395925Y-62058795D01*
X114692578Y-61860578D01*
X114890795Y-61563925D01*
X114960399Y-61214000D01*
X114890795Y-60864075D01*
X114692578Y-60567421D01*
X110374578Y-56249422D01*
X110077925Y-56051205D01*
X109728000Y-55981601D01*
X109378075Y-56051205D01*
X109081422Y-56249422D01*
X108883205Y-56546075D01*
X108813601Y-56896000D01*
X49714108Y-56896000D01*
X49758472Y-56789162D01*
X49758728Y-56496124D01*
X49646823Y-56225295D01*
X49439795Y-56017905D01*
X49169162Y-55905528D01*
X48876124Y-55905272D01*
X48605295Y-56017177D01*
X48397905Y-56224205D01*
X48285528Y-56494838D01*
X48285272Y-56787876D01*
X48361600Y-56972603D01*
X48361600Y-61448453D01*
X47986454Y-61823600D01*
X41732363Y-61823600D01*
X41549162Y-61747528D01*
X41256124Y-61747272D01*
X40985295Y-61859177D01*
X40777905Y-62066205D01*
X40665528Y-62336838D01*
X40665272Y-62629876D01*
X29691400Y-62629876D01*
X29691400Y-61801226D01*
X31978656Y-61801226D01*
X32075134Y-61975715D01*
X32516420Y-62162781D01*
X32995703Y-62166735D01*
X33440015Y-61986974D01*
X33456866Y-61975715D01*
X33553344Y-61801226D01*
X32766000Y-61013882D01*
X31978656Y-61801226D01*
X29691400Y-61801226D01*
X29691400Y-61189703D01*
X31559265Y-61189703D01*
X31739026Y-61634015D01*
X31750285Y-61650866D01*
X31924774Y-61747344D01*
X32712118Y-60960000D01*
X32819882Y-60960000D01*
X33607226Y-61747344D01*
X33781715Y-61650866D01*
X33968781Y-61209580D01*
X33972735Y-60730297D01*
X33792974Y-60285985D01*
X33781715Y-60269134D01*
X33607226Y-60172656D01*
X32819882Y-60960000D01*
X32712118Y-60960000D01*
X31924774Y-60172656D01*
X31750285Y-60269134D01*
X31563219Y-60710420D01*
X31559265Y-61189703D01*
X29691400Y-61189703D01*
X29691400Y-60118774D01*
X31978656Y-60118774D01*
X32766000Y-60906118D01*
X33553344Y-60118774D01*
X33456866Y-59944285D01*
X33015580Y-59757219D01*
X32536297Y-59753265D01*
X32091985Y-59933026D01*
X32075134Y-59944285D01*
X31978656Y-60118774D01*
X29691400Y-60118774D01*
X29691400Y-57520000D01*
X31451639Y-57520000D01*
X31451639Y-59320000D01*
X31479977Y-59470603D01*
X31568983Y-59608922D01*
X31704790Y-59701715D01*
X31866000Y-59734361D01*
X33666000Y-59734361D01*
X33816603Y-59706023D01*
X33954922Y-59617017D01*
X34047715Y-59481210D01*
X34080361Y-59320000D01*
X34080361Y-57520000D01*
X34052023Y-57369397D01*
X33963017Y-57231078D01*
X33827210Y-57138285D01*
X33666000Y-57105639D01*
X31866000Y-57105639D01*
X31715397Y-57133977D01*
X31577078Y-57222983D01*
X31484285Y-57358790D01*
X31451639Y-57520000D01*
X29691400Y-57520000D01*
X29691400Y-50916000D01*
X31451639Y-50916000D01*
X31451639Y-52716000D01*
X31479977Y-52866603D01*
X31568983Y-53004922D01*
X31704790Y-53097715D01*
X31866000Y-53130361D01*
X32311277Y-53130361D01*
X32026951Y-53247842D01*
X31659134Y-53615018D01*
X31459827Y-54095001D01*
X31459374Y-54614719D01*
X31657842Y-55095049D01*
X32025018Y-55462866D01*
X32505001Y-55662173D01*
X33024719Y-55662626D01*
X33505049Y-55464158D01*
X33872866Y-55096982D01*
X34072173Y-54616999D01*
X34072626Y-54097281D01*
X33874158Y-53616951D01*
X33506982Y-53249134D01*
X33220946Y-53130361D01*
X33666000Y-53130361D01*
X33816603Y-53102023D01*
X33954922Y-53013017D01*
X34047715Y-52877210D01*
X34080361Y-52716000D01*
X34080361Y-50916000D01*
X133051639Y-50916000D01*
X133051639Y-52716000D01*
X133079977Y-52866603D01*
X133168983Y-53004922D01*
X133304790Y-53097715D01*
X133466000Y-53130361D01*
X133911277Y-53130361D01*
X133626951Y-53247842D01*
X133259134Y-53615018D01*
X133059827Y-54095001D01*
X133059374Y-54614719D01*
X133257842Y-55095049D01*
X133625018Y-55462866D01*
X134105001Y-55662173D01*
X134624719Y-55662626D01*
X135105049Y-55464158D01*
X135472866Y-55096982D01*
X135672173Y-54616999D01*
X135672626Y-54097281D01*
X135474158Y-53616951D01*
X135106982Y-53249134D01*
X134820946Y-53130361D01*
X135266000Y-53130361D01*
X135416603Y-53102023D01*
X135554922Y-53013017D01*
X135647715Y-52877210D01*
X135680361Y-52716000D01*
X135680361Y-50916000D01*
X135652023Y-50765397D01*
X135563017Y-50627078D01*
X135427210Y-50534285D01*
X135266000Y-50501639D01*
X133466000Y-50501639D01*
X133315397Y-50529977D01*
X133177078Y-50618983D01*
X133084285Y-50754790D01*
X133051639Y-50916000D01*
X34080361Y-50916000D01*
X34052023Y-50765397D01*
X33963017Y-50627078D01*
X33827210Y-50534285D01*
X33666000Y-50501639D01*
X31866000Y-50501639D01*
X31715397Y-50529977D01*
X31577078Y-50618983D01*
X31484285Y-50754790D01*
X31451639Y-50916000D01*
X29691400Y-50916000D01*
X29691400Y-43151486D01*
X33990396Y-43151486D01*
X34111224Y-43346757D01*
X34624797Y-43567148D01*
X35183616Y-43574226D01*
X35702607Y-43366916D01*
X35732776Y-43346757D01*
X35853604Y-43151486D01*
X34922000Y-42219882D01*
X33990396Y-43151486D01*
X29691400Y-43151486D01*
X29691400Y-42427616D01*
X33513774Y-42427616D01*
X33721084Y-42946607D01*
X33741243Y-42976776D01*
X33936514Y-43097604D01*
X34868118Y-42166000D01*
X34975882Y-42166000D01*
X35907486Y-43097604D01*
X36102757Y-42976776D01*
X36323148Y-42463203D01*
X36330226Y-41904384D01*
X36122916Y-41385393D01*
X36102757Y-41355224D01*
X35907486Y-41234396D01*
X34975882Y-42166000D01*
X34868118Y-42166000D01*
X33936514Y-41234396D01*
X33741243Y-41355224D01*
X33520852Y-41868797D01*
X33513774Y-42427616D01*
X29691400Y-42427616D01*
X29691400Y-41587825D01*
X30209802Y-42107133D01*
X30956157Y-42417046D01*
X31764298Y-42417751D01*
X32511192Y-42109141D01*
X33083133Y-41538198D01*
X33231656Y-41180514D01*
X33990396Y-41180514D01*
X34922000Y-42112118D01*
X35853604Y-41180514D01*
X35732776Y-40985243D01*
X35219203Y-40764852D01*
X34660384Y-40757774D01*
X34141393Y-40965084D01*
X34111224Y-40985243D01*
X33990396Y-41180514D01*
X33231656Y-41180514D01*
X33393046Y-40791843D01*
X33393751Y-39983702D01*
X33085141Y-39236808D01*
X32514198Y-38664867D01*
X31792247Y-38365087D01*
X34966795Y-38365087D01*
X35051096Y-38529185D01*
X35456235Y-38699587D01*
X35895745Y-38701978D01*
X36302714Y-38535994D01*
X36312904Y-38529185D01*
X36397205Y-38365087D01*
X35682000Y-37649882D01*
X34966795Y-38365087D01*
X31792247Y-38365087D01*
X31767843Y-38354954D01*
X30959702Y-38354249D01*
X30212808Y-38662859D01*
X29691400Y-39183357D01*
X29691400Y-28887825D01*
X30209802Y-29407133D01*
X30956157Y-29717046D01*
X31648956Y-29717650D01*
X31647870Y-29719276D01*
X31597600Y-29972000D01*
X31597600Y-31115000D01*
X31647870Y-31367724D01*
X31791027Y-31581973D01*
X32695617Y-32486563D01*
X32695391Y-32744915D01*
X32878667Y-33188478D01*
X33210891Y-33521283D01*
X32879860Y-33851737D01*
X32695810Y-34294979D01*
X32695391Y-34774915D01*
X32878667Y-35218478D01*
X33210891Y-35551283D01*
X32879860Y-35881737D01*
X32695810Y-36324979D01*
X32695391Y-36804915D01*
X32878667Y-37248478D01*
X33217737Y-37588140D01*
X33660979Y-37772190D01*
X34140915Y-37772609D01*
X34577205Y-37592338D01*
X34576022Y-37809745D01*
X34742006Y-38216714D01*
X34748815Y-38226904D01*
X34912913Y-38311205D01*
X35628118Y-37596000D01*
X35735882Y-37596000D01*
X36451087Y-38311205D01*
X36615185Y-38226904D01*
X36714038Y-37991876D01*
X38633272Y-37991876D01*
X38709600Y-38176603D01*
X38709600Y-41325637D01*
X38633528Y-41508838D01*
X38633272Y-41801876D01*
X38745177Y-42072705D01*
X38952205Y-42280095D01*
X39222838Y-42392472D01*
X39515876Y-42392728D01*
X39786705Y-42280823D01*
X39994095Y-42073795D01*
X40106472Y-41803162D01*
X40106728Y-41510124D01*
X40030400Y-41325397D01*
X40030400Y-38176363D01*
X40106472Y-37993162D01*
X40106473Y-37991876D01*
X57175272Y-37991876D01*
X57287177Y-38262705D01*
X57494205Y-38470095D01*
X57764838Y-38582472D01*
X57821954Y-38582522D01*
X57594539Y-38922873D01*
X57505600Y-39370000D01*
X57594539Y-39817127D01*
X57847816Y-40196184D01*
X58226873Y-40449461D01*
X58674000Y-40538400D01*
X66294000Y-40538400D01*
X66741127Y-40449461D01*
X67120184Y-40196184D01*
X67373461Y-39817127D01*
X67462400Y-39370000D01*
X67373461Y-38922873D01*
X67139552Y-38572803D01*
X67162838Y-38582472D01*
X67455876Y-38582728D01*
X67726705Y-38470823D01*
X67934095Y-38263795D01*
X68046472Y-37993162D01*
X68046728Y-37700124D01*
X67934823Y-37429295D01*
X67727795Y-37221905D01*
X67457162Y-37109528D01*
X67164124Y-37109272D01*
X66979397Y-37185600D01*
X58242363Y-37185600D01*
X58059162Y-37109528D01*
X57766124Y-37109272D01*
X57495295Y-37221177D01*
X57287905Y-37428205D01*
X57175528Y-37698838D01*
X57175272Y-37991876D01*
X40106473Y-37991876D01*
X40106728Y-37700124D01*
X39994823Y-37429295D01*
X39787795Y-37221905D01*
X39517162Y-37109528D01*
X39224124Y-37109272D01*
X38953295Y-37221177D01*
X38745905Y-37428205D01*
X38633528Y-37698838D01*
X38633272Y-37991876D01*
X36714038Y-37991876D01*
X36785587Y-37821765D01*
X36787978Y-37382255D01*
X36621994Y-36975286D01*
X36615185Y-36965096D01*
X36451087Y-36880795D01*
X35735882Y-37596000D01*
X35628118Y-37596000D01*
X35613976Y-37581858D01*
X35667858Y-37527976D01*
X35682000Y-37542118D01*
X36397205Y-36826913D01*
X36312904Y-36662815D01*
X36250332Y-36636497D01*
X36364478Y-36589333D01*
X36704140Y-36250263D01*
X36888190Y-35807021D01*
X36888609Y-35327085D01*
X36705333Y-34883522D01*
X36373109Y-34550717D01*
X36704140Y-34220263D01*
X36888190Y-33777021D01*
X36888609Y-33297085D01*
X36705333Y-32853522D01*
X36373109Y-32520717D01*
X36704140Y-32190263D01*
X36888190Y-31747021D01*
X36888609Y-31267085D01*
X36705333Y-30823522D01*
X36366263Y-30483860D01*
X35923021Y-30299810D01*
X35443085Y-30299391D01*
X35108434Y-30437666D01*
X35108609Y-30237085D01*
X34925333Y-29793522D01*
X34621741Y-29489400D01*
X36880637Y-29489400D01*
X37063838Y-29565472D01*
X37356876Y-29565728D01*
X37627705Y-29453823D01*
X37835095Y-29246795D01*
X37947472Y-28976162D01*
X37947728Y-28683124D01*
X37878501Y-28515582D01*
X51703096Y-28515582D01*
X52144637Y-29584193D01*
X52961507Y-30402490D01*
X54029345Y-30845895D01*
X55185582Y-30846904D01*
X56254193Y-30405363D01*
X57072490Y-29588493D01*
X57515895Y-28520655D01*
X57515899Y-28515582D01*
X109488096Y-28515582D01*
X109929637Y-29584193D01*
X110746507Y-30402490D01*
X111814345Y-30845895D01*
X112970582Y-30846904D01*
X114039193Y-30405363D01*
X114857490Y-29588493D01*
X115300895Y-28520655D01*
X115301904Y-27364418D01*
X114860363Y-26295807D01*
X114043493Y-25477510D01*
X112975655Y-25034105D01*
X111819418Y-25033096D01*
X110750807Y-25474637D01*
X109932510Y-26291507D01*
X109489105Y-27359345D01*
X109488096Y-28515582D01*
X57515899Y-28515582D01*
X57516904Y-27364418D01*
X57075363Y-26295807D01*
X56258493Y-25477510D01*
X55190655Y-25034105D01*
X54034418Y-25033096D01*
X52965807Y-25474637D01*
X52147510Y-26291507D01*
X51704105Y-27359345D01*
X51703096Y-28515582D01*
X37878501Y-28515582D01*
X37835823Y-28412295D01*
X37628795Y-28204905D01*
X37358162Y-28092528D01*
X37065124Y-28092272D01*
X36880397Y-28168600D01*
X33401000Y-28168600D01*
X33357588Y-28177235D01*
X33393046Y-28091843D01*
X33393751Y-27283702D01*
X33231691Y-26891486D01*
X33990396Y-26891486D01*
X34111224Y-27086757D01*
X34624797Y-27307148D01*
X35183616Y-27314226D01*
X35702607Y-27106916D01*
X35732776Y-27086757D01*
X35853604Y-26891486D01*
X34922000Y-25959882D01*
X33990396Y-26891486D01*
X33231691Y-26891486D01*
X33085141Y-26536808D01*
X32716594Y-26167616D01*
X33513774Y-26167616D01*
X33721084Y-26686607D01*
X33741243Y-26716776D01*
X33936514Y-26837604D01*
X34868118Y-25906000D01*
X34975882Y-25906000D01*
X35907486Y-26837604D01*
X36102757Y-26716776D01*
X36323148Y-26203203D01*
X36330226Y-25644384D01*
X36122916Y-25125393D01*
X36102757Y-25095224D01*
X35907486Y-24974396D01*
X34975882Y-25906000D01*
X34868118Y-25906000D01*
X33936514Y-24974396D01*
X33741243Y-25095224D01*
X33520852Y-25608797D01*
X33513774Y-26167616D01*
X32716594Y-26167616D01*
X32514198Y-25964867D01*
X31767843Y-25654954D01*
X30959702Y-25654249D01*
X30212808Y-25962859D01*
X29691400Y-26483357D01*
X29691400Y-24611400D01*
X34375927Y-24611400D01*
X34141393Y-24705084D01*
X34141393Y-24705084D01*
G37*
X34141393Y-24705084D02*
X34111224Y-24725243D01*
X33990396Y-24920514D01*
X34922000Y-25852118D01*
X35853604Y-24920514D01*
X35732776Y-24725243D01*
X35467490Y-24611400D01*
X137440600Y-24611400D01*
X137440600Y-69368600D01*
X29691400Y-69368600D01*
X29691400Y-64124000D01*
X31451639Y-64124000D01*
X31451639Y-65924000D01*
X31479977Y-66074603D01*
X31568983Y-66212922D01*
X31704790Y-66305715D01*
X31866000Y-66338361D01*
X32311277Y-66338361D01*
X32026951Y-66455842D01*
X31659134Y-66823018D01*
X31459827Y-67303001D01*
X31459374Y-67822719D01*
X31657842Y-68303049D01*
X32025018Y-68670866D01*
X32505001Y-68870173D01*
X33024719Y-68870626D01*
X33505049Y-68672158D01*
X33872866Y-68304982D01*
X34072173Y-67824999D01*
X34072626Y-67305281D01*
X33874158Y-66824951D01*
X33665154Y-66615582D01*
X51703096Y-66615582D01*
X52144637Y-67684193D01*
X52961507Y-68502490D01*
X54029345Y-68945895D01*
X55185582Y-68946904D01*
X56254193Y-68505363D01*
X57072490Y-67688493D01*
X57515895Y-66620655D01*
X57515899Y-66615582D01*
X109488096Y-66615582D01*
X109929637Y-67684193D01*
X110746507Y-68502490D01*
X111814345Y-68945895D01*
X112970582Y-68946904D01*
X114039193Y-68505363D01*
X114857490Y-67688493D01*
X115300895Y-66620655D01*
X115301904Y-65464418D01*
X114860363Y-64395807D01*
X114589030Y-64124000D01*
X133051639Y-64124000D01*
X133051639Y-65924000D01*
X133079977Y-66074603D01*
X133168983Y-66212922D01*
X133304790Y-66305715D01*
X133466000Y-66338361D01*
X133911277Y-66338361D01*
X133626951Y-66455842D01*
X133259134Y-66823018D01*
X133059827Y-67303001D01*
X133059374Y-67822719D01*
X133257842Y-68303049D01*
X133625018Y-68670866D01*
X134105001Y-68870173D01*
X134624719Y-68870626D01*
X135105049Y-68672158D01*
X135472866Y-68304982D01*
X135672173Y-67824999D01*
X135672626Y-67305281D01*
X135474158Y-66824951D01*
X135106982Y-66457134D01*
X134820946Y-66338361D01*
X135266000Y-66338361D01*
X135416603Y-66310023D01*
X135554922Y-66221017D01*
X135647715Y-66085210D01*
X135680361Y-65924000D01*
X135680361Y-64124000D01*
X135652023Y-63973397D01*
X135563017Y-63835078D01*
X135427210Y-63742285D01*
X135266000Y-63709639D01*
X133466000Y-63709639D01*
X133315397Y-63737977D01*
X133177078Y-63826983D01*
X133084285Y-63962790D01*
X133051639Y-64124000D01*
X114589030Y-64124000D01*
X114043493Y-63577510D01*
X113596437Y-63391876D01*
X117373272Y-63391876D01*
X117485177Y-63662705D01*
X117692205Y-63870095D01*
X117962838Y-63982472D01*
X118255876Y-63982728D01*
X118526705Y-63870823D01*
X118734095Y-63663795D01*
X118846472Y-63393162D01*
X118846728Y-63100124D01*
X118770400Y-62915397D01*
X118770400Y-61801226D01*
X133578656Y-61801226D01*
X133675134Y-61975715D01*
X134116420Y-62162781D01*
X134595703Y-62166735D01*
X135040015Y-61986974D01*
X135056866Y-61975715D01*
X135153344Y-61801226D01*
X134366000Y-61013882D01*
X133578656Y-61801226D01*
X118770400Y-61801226D01*
X118770400Y-61189703D01*
X133159265Y-61189703D01*
X133339026Y-61634015D01*
X133350285Y-61650866D01*
X133524774Y-61747344D01*
X134312118Y-60960000D01*
X134419882Y-60960000D01*
X135207226Y-61747344D01*
X135381715Y-61650866D01*
X135568781Y-61209580D01*
X135572735Y-60730297D01*
X135392974Y-60285985D01*
X135381715Y-60269134D01*
X135207226Y-60172656D01*
X134419882Y-60960000D01*
X134312118Y-60960000D01*
X133524774Y-60172656D01*
X133350285Y-60269134D01*
X133163219Y-60710420D01*
X133159265Y-61189703D01*
X118770400Y-61189703D01*
X118770400Y-60118774D01*
X133578656Y-60118774D01*
X134366000Y-60906118D01*
X135153344Y-60118774D01*
X135056866Y-59944285D01*
X134615580Y-59757219D01*
X134136297Y-59753265D01*
X133691985Y-59933026D01*
X133675134Y-59944285D01*
X133578656Y-60118774D01*
X118770400Y-60118774D01*
X118770400Y-58693546D01*
X119145547Y-58318400D01*
X125399637Y-58318400D01*
X125582838Y-58394472D01*
X125875876Y-58394728D01*
X126146705Y-58282823D01*
X126354095Y-58075795D01*
X126466472Y-57805162D01*
X126466721Y-57520000D01*
X133051639Y-57520000D01*
X133051639Y-59320000D01*
X133079977Y-59470603D01*
X133168983Y-59608922D01*
X133304790Y-59701715D01*
X133466000Y-59734361D01*
X135266000Y-59734361D01*
X135416603Y-59706023D01*
X135554922Y-59617017D01*
X135647715Y-59481210D01*
X135680361Y-59320000D01*
X135680361Y-57520000D01*
X135652023Y-57369397D01*
X135563017Y-57231078D01*
X135427210Y-57138285D01*
X135266000Y-57105639D01*
X133466000Y-57105639D01*
X133315397Y-57133977D01*
X133177078Y-57222983D01*
X133084285Y-57358790D01*
X133051639Y-57520000D01*
X126466721Y-57520000D01*
X126466728Y-57512124D01*
X126354823Y-57241295D01*
X126147795Y-57033905D01*
X125877162Y-56921528D01*
X125584124Y-56921272D01*
X125399397Y-56997600D01*
X118872000Y-56997600D01*
X118619276Y-57047870D01*
X118405027Y-57191026D01*
X117643027Y-57953027D01*
X117499870Y-58167276D01*
X117449600Y-58420000D01*
X117449600Y-62915637D01*
X117373528Y-63098838D01*
X117373272Y-63391876D01*
X113596437Y-63391876D01*
X112975655Y-63134105D01*
X111819418Y-63133096D01*
X110750807Y-63574637D01*
X109932510Y-64391507D01*
X109489105Y-65459345D01*
X109488096Y-66615582D01*
X57515899Y-66615582D01*
X57516904Y-65464418D01*
X57075363Y-64395807D01*
X56258493Y-63577510D01*
X55190655Y-63134105D01*
X54034418Y-63133096D01*
X52965807Y-63574637D01*
X52147510Y-64391507D01*
X51704105Y-65459345D01*
X51703096Y-66615582D01*
X33665154Y-66615582D01*
X33506982Y-66457134D01*
X33220946Y-66338361D01*
X33666000Y-66338361D01*
X33816603Y-66310023D01*
X33954922Y-66221017D01*
X34047715Y-66085210D01*
X34080361Y-65924000D01*
X34080361Y-64124000D01*
X34052023Y-63973397D01*
X33963017Y-63835078D01*
X33827210Y-63742285D01*
X33666000Y-63709639D01*
X31866000Y-63709639D01*
X31715397Y-63737977D01*
X31577078Y-63826983D01*
X31484285Y-63962790D01*
X31451639Y-64124000D01*
X29691400Y-64124000D01*
X29691400Y-62629876D01*
X40665272Y-62629876D01*
X40777177Y-62900705D01*
X40984205Y-63108095D01*
X41254838Y-63220472D01*
X41547876Y-63220728D01*
X41732603Y-63144400D01*
X48260000Y-63144400D01*
X48512724Y-63094130D01*
X48726973Y-62950973D01*
X49488974Y-62188973D01*
X49632130Y-61974724D01*
X49682400Y-61722000D01*
X49682400Y-59436000D01*
X51409600Y-59436000D01*
X51409600Y-62484000D01*
X51479205Y-62833926D01*
X51677422Y-63130578D01*
X51974074Y-63328795D01*
X52324000Y-63398400D01*
X52673926Y-63328795D01*
X52970578Y-63130578D01*
X53168795Y-62833926D01*
X53238400Y-62484000D01*
X53238400Y-59436000D01*
X53168795Y-59086074D01*
X52970578Y-58789422D01*
X52673926Y-58591205D01*
X52324000Y-58521600D01*
X51974074Y-58591205D01*
X51677422Y-58789422D01*
X51479205Y-59086074D01*
X51409600Y-59436000D01*
X49682400Y-59436000D01*
X49682400Y-56972363D01*
X49714108Y-56896000D01*
X108813601Y-56896000D01*
X108883205Y-57245925D01*
X109081422Y-57542578D01*
X113399421Y-61860578D01*
X113696075Y-62058795D01*
X114046000Y-62128399D01*
X114395925Y-62058795D01*
X114692578Y-61860578D01*
X114890795Y-61563925D01*
X114960399Y-61214000D01*
X114890795Y-60864075D01*
X114692578Y-60567421D01*
X110374578Y-56249422D01*
X110077925Y-56051205D01*
X109728000Y-55981601D01*
X109378075Y-56051205D01*
X109081422Y-56249422D01*
X108883205Y-56546075D01*
X108813601Y-56896000D01*
X49714108Y-56896000D01*
X49758472Y-56789162D01*
X49758728Y-56496124D01*
X49646823Y-56225295D01*
X49439795Y-56017905D01*
X49169162Y-55905528D01*
X48876124Y-55905272D01*
X48605295Y-56017177D01*
X48397905Y-56224205D01*
X48285528Y-56494838D01*
X48285272Y-56787876D01*
X48361600Y-56972603D01*
X48361600Y-61448453D01*
X47986454Y-61823600D01*
X41732363Y-61823600D01*
X41549162Y-61747528D01*
X41256124Y-61747272D01*
X40985295Y-61859177D01*
X40777905Y-62066205D01*
X40665528Y-62336838D01*
X40665272Y-62629876D01*
X29691400Y-62629876D01*
X29691400Y-61801226D01*
X31978656Y-61801226D01*
X32075134Y-61975715D01*
X32516420Y-62162781D01*
X32995703Y-62166735D01*
X33440015Y-61986974D01*
X33456866Y-61975715D01*
X33553344Y-61801226D01*
X32766000Y-61013882D01*
X31978656Y-61801226D01*
X29691400Y-61801226D01*
X29691400Y-61189703D01*
X31559265Y-61189703D01*
X31739026Y-61634015D01*
X31750285Y-61650866D01*
X31924774Y-61747344D01*
X32712118Y-60960000D01*
X32819882Y-60960000D01*
X33607226Y-61747344D01*
X33781715Y-61650866D01*
X33968781Y-61209580D01*
X33972735Y-60730297D01*
X33792974Y-60285985D01*
X33781715Y-60269134D01*
X33607226Y-60172656D01*
X32819882Y-60960000D01*
X32712118Y-60960000D01*
X31924774Y-60172656D01*
X31750285Y-60269134D01*
X31563219Y-60710420D01*
X31559265Y-61189703D01*
X29691400Y-61189703D01*
X29691400Y-60118774D01*
X31978656Y-60118774D01*
X32766000Y-60906118D01*
X33553344Y-60118774D01*
X33456866Y-59944285D01*
X33015580Y-59757219D01*
X32536297Y-59753265D01*
X32091985Y-59933026D01*
X32075134Y-59944285D01*
X31978656Y-60118774D01*
X29691400Y-60118774D01*
X29691400Y-57520000D01*
X31451639Y-57520000D01*
X31451639Y-59320000D01*
X31479977Y-59470603D01*
X31568983Y-59608922D01*
X31704790Y-59701715D01*
X31866000Y-59734361D01*
X33666000Y-59734361D01*
X33816603Y-59706023D01*
X33954922Y-59617017D01*
X34047715Y-59481210D01*
X34080361Y-59320000D01*
X34080361Y-57520000D01*
X34052023Y-57369397D01*
X33963017Y-57231078D01*
X33827210Y-57138285D01*
X33666000Y-57105639D01*
X31866000Y-57105639D01*
X31715397Y-57133977D01*
X31577078Y-57222983D01*
X31484285Y-57358790D01*
X31451639Y-57520000D01*
X29691400Y-57520000D01*
X29691400Y-50916000D01*
X31451639Y-50916000D01*
X31451639Y-52716000D01*
X31479977Y-52866603D01*
X31568983Y-53004922D01*
X31704790Y-53097715D01*
X31866000Y-53130361D01*
X32311277Y-53130361D01*
X32026951Y-53247842D01*
X31659134Y-53615018D01*
X31459827Y-54095001D01*
X31459374Y-54614719D01*
X31657842Y-55095049D01*
X32025018Y-55462866D01*
X32505001Y-55662173D01*
X33024719Y-55662626D01*
X33505049Y-55464158D01*
X33872866Y-55096982D01*
X34072173Y-54616999D01*
X34072626Y-54097281D01*
X33874158Y-53616951D01*
X33506982Y-53249134D01*
X33220946Y-53130361D01*
X33666000Y-53130361D01*
X33816603Y-53102023D01*
X33954922Y-53013017D01*
X34047715Y-52877210D01*
X34080361Y-52716000D01*
X34080361Y-50916000D01*
X133051639Y-50916000D01*
X133051639Y-52716000D01*
X133079977Y-52866603D01*
X133168983Y-53004922D01*
X133304790Y-53097715D01*
X133466000Y-53130361D01*
X133911277Y-53130361D01*
X133626951Y-53247842D01*
X133259134Y-53615018D01*
X133059827Y-54095001D01*
X133059374Y-54614719D01*
X133257842Y-55095049D01*
X133625018Y-55462866D01*
X134105001Y-55662173D01*
X134624719Y-55662626D01*
X135105049Y-55464158D01*
X135472866Y-55096982D01*
X135672173Y-54616999D01*
X135672626Y-54097281D01*
X135474158Y-53616951D01*
X135106982Y-53249134D01*
X134820946Y-53130361D01*
X135266000Y-53130361D01*
X135416603Y-53102023D01*
X135554922Y-53013017D01*
X135647715Y-52877210D01*
X135680361Y-52716000D01*
X135680361Y-50916000D01*
X135652023Y-50765397D01*
X135563017Y-50627078D01*
X135427210Y-50534285D01*
X135266000Y-50501639D01*
X133466000Y-50501639D01*
X133315397Y-50529977D01*
X133177078Y-50618983D01*
X133084285Y-50754790D01*
X133051639Y-50916000D01*
X34080361Y-50916000D01*
X34052023Y-50765397D01*
X33963017Y-50627078D01*
X33827210Y-50534285D01*
X33666000Y-50501639D01*
X31866000Y-50501639D01*
X31715397Y-50529977D01*
X31577078Y-50618983D01*
X31484285Y-50754790D01*
X31451639Y-50916000D01*
X29691400Y-50916000D01*
X29691400Y-43151486D01*
X33990396Y-43151486D01*
X34111224Y-43346757D01*
X34624797Y-43567148D01*
X35183616Y-43574226D01*
X35702607Y-43366916D01*
X35732776Y-43346757D01*
X35853604Y-43151486D01*
X34922000Y-42219882D01*
X33990396Y-43151486D01*
X29691400Y-43151486D01*
X29691400Y-42427616D01*
X33513774Y-42427616D01*
X33721084Y-42946607D01*
X33741243Y-42976776D01*
X33936514Y-43097604D01*
X34868118Y-42166000D01*
X34975882Y-42166000D01*
X35907486Y-43097604D01*
X36102757Y-42976776D01*
X36323148Y-42463203D01*
X36330226Y-41904384D01*
X36122916Y-41385393D01*
X36102757Y-41355224D01*
X35907486Y-41234396D01*
X34975882Y-42166000D01*
X34868118Y-42166000D01*
X33936514Y-41234396D01*
X33741243Y-41355224D01*
X33520852Y-41868797D01*
X33513774Y-42427616D01*
X29691400Y-42427616D01*
X29691400Y-41587825D01*
X30209802Y-42107133D01*
X30956157Y-42417046D01*
X31764298Y-42417751D01*
X32511192Y-42109141D01*
X33083133Y-41538198D01*
X33231656Y-41180514D01*
X33990396Y-41180514D01*
X34922000Y-42112118D01*
X35853604Y-41180514D01*
X35732776Y-40985243D01*
X35219203Y-40764852D01*
X34660384Y-40757774D01*
X34141393Y-40965084D01*
X34111224Y-40985243D01*
X33990396Y-41180514D01*
X33231656Y-41180514D01*
X33393046Y-40791843D01*
X33393751Y-39983702D01*
X33085141Y-39236808D01*
X32514198Y-38664867D01*
X31792247Y-38365087D01*
X34966795Y-38365087D01*
X35051096Y-38529185D01*
X35456235Y-38699587D01*
X35895745Y-38701978D01*
X36302714Y-38535994D01*
X36312904Y-38529185D01*
X36397205Y-38365087D01*
X35682000Y-37649882D01*
X34966795Y-38365087D01*
X31792247Y-38365087D01*
X31767843Y-38354954D01*
X30959702Y-38354249D01*
X30212808Y-38662859D01*
X29691400Y-39183357D01*
X29691400Y-28887825D01*
X30209802Y-29407133D01*
X30956157Y-29717046D01*
X31648956Y-29717650D01*
X31647870Y-29719276D01*
X31597600Y-29972000D01*
X31597600Y-31115000D01*
X31647870Y-31367724D01*
X31791027Y-31581973D01*
X32695617Y-32486563D01*
X32695391Y-32744915D01*
X32878667Y-33188478D01*
X33210891Y-33521283D01*
X32879860Y-33851737D01*
X32695810Y-34294979D01*
X32695391Y-34774915D01*
X32878667Y-35218478D01*
X33210891Y-35551283D01*
X32879860Y-35881737D01*
X32695810Y-36324979D01*
X32695391Y-36804915D01*
X32878667Y-37248478D01*
X33217737Y-37588140D01*
X33660979Y-37772190D01*
X34140915Y-37772609D01*
X34577205Y-37592338D01*
X34576022Y-37809745D01*
X34742006Y-38216714D01*
X34748815Y-38226904D01*
X34912913Y-38311205D01*
X35628118Y-37596000D01*
X35735882Y-37596000D01*
X36451087Y-38311205D01*
X36615185Y-38226904D01*
X36714038Y-37991876D01*
X38633272Y-37991876D01*
X38709600Y-38176603D01*
X38709600Y-41325637D01*
X38633528Y-41508838D01*
X38633272Y-41801876D01*
X38745177Y-42072705D01*
X38952205Y-42280095D01*
X39222838Y-42392472D01*
X39515876Y-42392728D01*
X39786705Y-42280823D01*
X39994095Y-42073795D01*
X40106472Y-41803162D01*
X40106728Y-41510124D01*
X40030400Y-41325397D01*
X40030400Y-38176363D01*
X40106472Y-37993162D01*
X40106473Y-37991876D01*
X57175272Y-37991876D01*
X57287177Y-38262705D01*
X57494205Y-38470095D01*
X57764838Y-38582472D01*
X57821954Y-38582522D01*
X57594539Y-38922873D01*
X57505600Y-39370000D01*
X57594539Y-39817127D01*
X57847816Y-40196184D01*
X58226873Y-40449461D01*
X58674000Y-40538400D01*
X66294000Y-40538400D01*
X66741127Y-40449461D01*
X67120184Y-40196184D01*
X67373461Y-39817127D01*
X67462400Y-39370000D01*
X67373461Y-38922873D01*
X67139552Y-38572803D01*
X67162838Y-38582472D01*
X67455876Y-38582728D01*
X67726705Y-38470823D01*
X67934095Y-38263795D01*
X68046472Y-37993162D01*
X68046728Y-37700124D01*
X67934823Y-37429295D01*
X67727795Y-37221905D01*
X67457162Y-37109528D01*
X67164124Y-37109272D01*
X66979397Y-37185600D01*
X58242363Y-37185600D01*
X58059162Y-37109528D01*
X57766124Y-37109272D01*
X57495295Y-37221177D01*
X57287905Y-37428205D01*
X57175528Y-37698838D01*
X57175272Y-37991876D01*
X40106473Y-37991876D01*
X40106728Y-37700124D01*
X39994823Y-37429295D01*
X39787795Y-37221905D01*
X39517162Y-37109528D01*
X39224124Y-37109272D01*
X38953295Y-37221177D01*
X38745905Y-37428205D01*
X38633528Y-37698838D01*
X38633272Y-37991876D01*
X36714038Y-37991876D01*
X36785587Y-37821765D01*
X36787978Y-37382255D01*
X36621994Y-36975286D01*
X36615185Y-36965096D01*
X36451087Y-36880795D01*
X35735882Y-37596000D01*
X35628118Y-37596000D01*
X35613976Y-37581858D01*
X35667858Y-37527976D01*
X35682000Y-37542118D01*
X36397205Y-36826913D01*
X36312904Y-36662815D01*
X36250332Y-36636497D01*
X36364478Y-36589333D01*
X36704140Y-36250263D01*
X36888190Y-35807021D01*
X36888609Y-35327085D01*
X36705333Y-34883522D01*
X36373109Y-34550717D01*
X36704140Y-34220263D01*
X36888190Y-33777021D01*
X36888609Y-33297085D01*
X36705333Y-32853522D01*
X36373109Y-32520717D01*
X36704140Y-32190263D01*
X36888190Y-31747021D01*
X36888609Y-31267085D01*
X36705333Y-30823522D01*
X36366263Y-30483860D01*
X35923021Y-30299810D01*
X35443085Y-30299391D01*
X35108434Y-30437666D01*
X35108609Y-30237085D01*
X34925333Y-29793522D01*
X34621741Y-29489400D01*
X36880637Y-29489400D01*
X37063838Y-29565472D01*
X37356876Y-29565728D01*
X37627705Y-29453823D01*
X37835095Y-29246795D01*
X37947472Y-28976162D01*
X37947728Y-28683124D01*
X37878501Y-28515582D01*
X51703096Y-28515582D01*
X52144637Y-29584193D01*
X52961507Y-30402490D01*
X54029345Y-30845895D01*
X55185582Y-30846904D01*
X56254193Y-30405363D01*
X57072490Y-29588493D01*
X57515895Y-28520655D01*
X57515899Y-28515582D01*
X109488096Y-28515582D01*
X109929637Y-29584193D01*
X110746507Y-30402490D01*
X111814345Y-30845895D01*
X112970582Y-30846904D01*
X114039193Y-30405363D01*
X114857490Y-29588493D01*
X115300895Y-28520655D01*
X115301904Y-27364418D01*
X114860363Y-26295807D01*
X114043493Y-25477510D01*
X112975655Y-25034105D01*
X111819418Y-25033096D01*
X110750807Y-25474637D01*
X109932510Y-26291507D01*
X109489105Y-27359345D01*
X109488096Y-28515582D01*
X57515899Y-28515582D01*
X57516904Y-27364418D01*
X57075363Y-26295807D01*
X56258493Y-25477510D01*
X55190655Y-25034105D01*
X54034418Y-25033096D01*
X52965807Y-25474637D01*
X52147510Y-26291507D01*
X51704105Y-27359345D01*
X51703096Y-28515582D01*
X37878501Y-28515582D01*
X37835823Y-28412295D01*
X37628795Y-28204905D01*
X37358162Y-28092528D01*
X37065124Y-28092272D01*
X36880397Y-28168600D01*
X33401000Y-28168600D01*
X33357588Y-28177235D01*
X33393046Y-28091843D01*
X33393751Y-27283702D01*
X33231691Y-26891486D01*
X33990396Y-26891486D01*
X34111224Y-27086757D01*
X34624797Y-27307148D01*
X35183616Y-27314226D01*
X35702607Y-27106916D01*
X35732776Y-27086757D01*
X35853604Y-26891486D01*
X34922000Y-25959882D01*
X33990396Y-26891486D01*
X33231691Y-26891486D01*
X33085141Y-26536808D01*
X32716594Y-26167616D01*
X33513774Y-26167616D01*
X33721084Y-26686607D01*
X33741243Y-26716776D01*
X33936514Y-26837604D01*
X34868118Y-25906000D01*
X34975882Y-25906000D01*
X35907486Y-26837604D01*
X36102757Y-26716776D01*
X36323148Y-26203203D01*
X36330226Y-25644384D01*
X36122916Y-25125393D01*
X36102757Y-25095224D01*
X35907486Y-24974396D01*
X34975882Y-25906000D01*
X34868118Y-25906000D01*
X33936514Y-24974396D01*
X33741243Y-25095224D01*
X33520852Y-25608797D01*
X33513774Y-26167616D01*
X32716594Y-26167616D01*
X32514198Y-25964867D01*
X31767843Y-25654954D01*
X30959702Y-25654249D01*
X30212808Y-25962859D01*
X29691400Y-26483357D01*
X29691400Y-24611400D01*
X34375927Y-24611400D01*
X34141393Y-24705084D01*
M02*
