G04 #@! TF.FileFunction,Paste,Top*
%FSLAX46Y46*%
G04 Gerber Fmt 4.6, Leading zero omitted, Abs format (unit mm)*
G04 Created by KiCad (PCBNEW 4.0.7) date 01/10/18 16:33:28*
%MOMM*%
%LPD*%
G01*
G04 APERTURE LIST*
%ADD10C,0.150000*%
%ADD11R,0.750000X0.800000*%
%ADD12R,1.600000X1.000000*%
%ADD13R,0.900000X0.800000*%
%ADD14R,1.250000X1.000000*%
%ADD15R,0.500000X0.900000*%
%ADD16R,0.900000X0.500000*%
%ADD17R,1.060000X0.650000*%
G04 APERTURE END LIST*
D10*
D11*
X45212000Y-40882000D03*
X45212000Y-39382000D03*
D12*
X43180000Y-39394000D03*
X43180000Y-42394000D03*
D13*
X39608000Y-50988000D03*
X39608000Y-49088000D03*
X37608000Y-50038000D03*
D11*
X45466000Y-57162000D03*
X45466000Y-58662000D03*
D14*
X37084000Y-60944000D03*
X37084000Y-58944000D03*
D11*
X121666000Y-62726000D03*
X121666000Y-61226000D03*
D14*
X130048000Y-58944000D03*
X130048000Y-60944000D03*
D15*
X48272000Y-60960000D03*
X49772000Y-60960000D03*
X118860000Y-58928000D03*
X117360000Y-58928000D03*
D16*
X47244000Y-58662000D03*
X47244000Y-57162000D03*
D15*
X42406000Y-51054000D03*
X40906000Y-51054000D03*
D16*
X49022000Y-58662000D03*
X49022000Y-57162000D03*
D15*
X36588000Y-53086000D03*
X38088000Y-53086000D03*
D16*
X39116000Y-58940000D03*
X39116000Y-60440000D03*
D15*
X36588000Y-66294000D03*
X38088000Y-66294000D03*
X130544000Y-53086000D03*
X129044000Y-53086000D03*
X130544000Y-66294000D03*
X129044000Y-66294000D03*
D16*
X119888000Y-61226000D03*
X119888000Y-62726000D03*
X118110000Y-61226000D03*
X118110000Y-62726000D03*
X128016000Y-60948000D03*
X128016000Y-59448000D03*
D17*
X43518000Y-60894000D03*
X43518000Y-59944000D03*
X43518000Y-58994000D03*
X41318000Y-58994000D03*
X41318000Y-60894000D03*
X123614000Y-58994000D03*
X123614000Y-59944000D03*
X123614000Y-60894000D03*
X125814000Y-60894000D03*
X125814000Y-58994000D03*
D16*
X41910000Y-49518000D03*
X41910000Y-48018000D03*
D13*
X127524000Y-49088000D03*
X127524000Y-50988000D03*
X129524000Y-50038000D03*
D16*
X125222000Y-50558000D03*
X125222000Y-52058000D03*
D15*
X126226000Y-49022000D03*
X124726000Y-49022000D03*
D11*
X41402000Y-65266000D03*
X41402000Y-63766000D03*
X125730000Y-55130000D03*
X125730000Y-56630000D03*
M02*
