G04 #@! TF.FileFunction,Legend,Bot*
%FSLAX46Y46*%
G04 Gerber Fmt 4.6, Leading zero omitted, Abs format (unit mm)*
G04 Created by KiCad (PCBNEW 4.0.7) date 04/02/18 06:38:37*
%MOMM*%
%LPD*%
G01*
G04 APERTURE LIST*
%ADD10C,0.150000*%
%ADD11C,2.540000*%
%ADD12C,0.300000*%
%ADD13C,0.120000*%
G04 APERTURE END LIST*
D10*
D11*
X55880000Y-59690000D02*
X109220000Y-59690000D01*
D12*
X136667143Y-49192571D02*
X137381429Y-49192571D01*
X137381429Y-47692571D01*
X136167143Y-49192571D02*
X136167143Y-48192571D01*
X136167143Y-47692571D02*
X136238572Y-47764000D01*
X136167143Y-47835429D01*
X136095715Y-47764000D01*
X136167143Y-47692571D01*
X136167143Y-47835429D01*
X134810000Y-48192571D02*
X134810000Y-49406857D01*
X134881429Y-49549714D01*
X134952857Y-49621143D01*
X135095714Y-49692571D01*
X135310000Y-49692571D01*
X135452857Y-49621143D01*
X134810000Y-49121143D02*
X134952857Y-49192571D01*
X135238571Y-49192571D01*
X135381429Y-49121143D01*
X135452857Y-49049714D01*
X135524286Y-48906857D01*
X135524286Y-48478286D01*
X135452857Y-48335429D01*
X135381429Y-48264000D01*
X135238571Y-48192571D01*
X134952857Y-48192571D01*
X134810000Y-48264000D01*
X134095714Y-49192571D02*
X134095714Y-47692571D01*
X133452857Y-49192571D02*
X133452857Y-48406857D01*
X133524286Y-48264000D01*
X133667143Y-48192571D01*
X133881428Y-48192571D01*
X134024286Y-48264000D01*
X134095714Y-48335429D01*
X132952857Y-48192571D02*
X132381428Y-48192571D01*
X132738571Y-47692571D02*
X132738571Y-48978286D01*
X132667143Y-49121143D01*
X132524285Y-49192571D01*
X132381428Y-49192571D01*
X131952857Y-47835429D02*
X131881428Y-47764000D01*
X131738571Y-47692571D01*
X131381428Y-47692571D01*
X131238571Y-47764000D01*
X131167142Y-47835429D01*
X131095714Y-47978286D01*
X131095714Y-48121143D01*
X131167142Y-48335429D01*
X132024285Y-49192571D01*
X131095714Y-49192571D01*
X35504571Y-48938571D02*
X36218857Y-48938571D01*
X36218857Y-47438571D01*
X35004571Y-48938571D02*
X35004571Y-47938571D01*
X35004571Y-47438571D02*
X35076000Y-47510000D01*
X35004571Y-47581429D01*
X34933143Y-47510000D01*
X35004571Y-47438571D01*
X35004571Y-47581429D01*
X33647428Y-47938571D02*
X33647428Y-49152857D01*
X33718857Y-49295714D01*
X33790285Y-49367143D01*
X33933142Y-49438571D01*
X34147428Y-49438571D01*
X34290285Y-49367143D01*
X33647428Y-48867143D02*
X33790285Y-48938571D01*
X34075999Y-48938571D01*
X34218857Y-48867143D01*
X34290285Y-48795714D01*
X34361714Y-48652857D01*
X34361714Y-48224286D01*
X34290285Y-48081429D01*
X34218857Y-48010000D01*
X34075999Y-47938571D01*
X33790285Y-47938571D01*
X33647428Y-48010000D01*
X32933142Y-48938571D02*
X32933142Y-47438571D01*
X32290285Y-48938571D02*
X32290285Y-48152857D01*
X32361714Y-48010000D01*
X32504571Y-47938571D01*
X32718856Y-47938571D01*
X32861714Y-48010000D01*
X32933142Y-48081429D01*
X31790285Y-47938571D02*
X31218856Y-47938571D01*
X31575999Y-47438571D02*
X31575999Y-48724286D01*
X31504571Y-48867143D01*
X31361713Y-48938571D01*
X31218856Y-48938571D01*
X29933142Y-48938571D02*
X30790285Y-48938571D01*
X30361713Y-48938571D02*
X30361713Y-47438571D01*
X30504570Y-47652857D01*
X30647428Y-47795714D01*
X30790285Y-47867143D01*
D11*
X105410000Y-57150000D02*
X104140000Y-57150000D01*
X105410000Y-60960000D02*
X105410000Y-57150000D01*
X102870000Y-63500000D02*
X105410000Y-60960000D01*
X102870000Y-55880000D02*
X102870000Y-63500000D01*
X101600000Y-67310000D02*
X109220000Y-59690000D01*
X101600000Y-52070000D02*
X101600000Y-67310000D01*
X109220000Y-59690000D02*
X101600000Y-52070000D01*
D13*
X32765538Y-56700000D02*
G75*
G02X34310830Y-62250000I462J-2990000D01*
G01*
X32766462Y-56700000D02*
G75*
G03X31221170Y-62250000I-462J-2990000D01*
G01*
X35266000Y-59690000D02*
G75*
G03X35266000Y-59690000I-2500000J0D01*
G01*
X34311000Y-62250000D02*
X31221000Y-62250000D01*
X32765538Y-50096000D02*
G75*
G02X34310830Y-55646000I462J-2990000D01*
G01*
X32766462Y-50096000D02*
G75*
G03X31221170Y-55646000I-462J-2990000D01*
G01*
X35266000Y-53086000D02*
G75*
G03X35266000Y-53086000I-2500000J0D01*
G01*
X34311000Y-55646000D02*
X31221000Y-55646000D01*
X32765538Y-63304000D02*
G75*
G02X34310830Y-68854000I462J-2990000D01*
G01*
X32766462Y-63304000D02*
G75*
G03X31221170Y-68854000I-462J-2990000D01*
G01*
X35266000Y-66294000D02*
G75*
G03X35266000Y-66294000I-2500000J0D01*
G01*
X34311000Y-68854000D02*
X31221000Y-68854000D01*
X134365538Y-50096000D02*
G75*
G02X135910830Y-55646000I462J-2990000D01*
G01*
X134366462Y-50096000D02*
G75*
G03X132821170Y-55646000I-462J-2990000D01*
G01*
X136866000Y-53086000D02*
G75*
G03X136866000Y-53086000I-2500000J0D01*
G01*
X135911000Y-55646000D02*
X132821000Y-55646000D01*
X134365538Y-63304000D02*
G75*
G02X135910830Y-68854000I462J-2990000D01*
G01*
X134366462Y-63304000D02*
G75*
G03X132821170Y-68854000I-462J-2990000D01*
G01*
X136866000Y-66294000D02*
G75*
G03X136866000Y-66294000I-2500000J0D01*
G01*
X135911000Y-68854000D02*
X132821000Y-68854000D01*
X134365538Y-56700000D02*
G75*
G02X135910830Y-62250000I462J-2990000D01*
G01*
X134366462Y-56700000D02*
G75*
G03X132821170Y-62250000I-462J-2990000D01*
G01*
X136866000Y-59690000D02*
G75*
G03X136866000Y-59690000I-2500000J0D01*
G01*
X135911000Y-62250000D02*
X132821000Y-62250000D01*
D10*
X36298095Y-57348381D02*
X36298095Y-56348381D01*
X36060000Y-56348381D01*
X35917142Y-56396000D01*
X35821904Y-56491238D01*
X35774285Y-56586476D01*
X35726666Y-56776952D01*
X35726666Y-56919810D01*
X35774285Y-57110286D01*
X35821904Y-57205524D01*
X35917142Y-57300762D01*
X36060000Y-57348381D01*
X36298095Y-57348381D01*
X34774285Y-57348381D02*
X35345714Y-57348381D01*
X35060000Y-57348381D02*
X35060000Y-56348381D01*
X35155238Y-56491238D01*
X35250476Y-56586476D01*
X35345714Y-56634095D01*
X36298095Y-50490381D02*
X36298095Y-49490381D01*
X36060000Y-49490381D01*
X35917142Y-49538000D01*
X35821904Y-49633238D01*
X35774285Y-49728476D01*
X35726666Y-49918952D01*
X35726666Y-50061810D01*
X35774285Y-50252286D01*
X35821904Y-50347524D01*
X35917142Y-50442762D01*
X36060000Y-50490381D01*
X36298095Y-50490381D01*
X35345714Y-49585619D02*
X35298095Y-49538000D01*
X35202857Y-49490381D01*
X34964761Y-49490381D01*
X34869523Y-49538000D01*
X34821904Y-49585619D01*
X34774285Y-49680857D01*
X34774285Y-49776095D01*
X34821904Y-49918952D01*
X35393333Y-50490381D01*
X34774285Y-50490381D01*
X36298095Y-63952381D02*
X36298095Y-62952381D01*
X36060000Y-62952381D01*
X35917142Y-63000000D01*
X35821904Y-63095238D01*
X35774285Y-63190476D01*
X35726666Y-63380952D01*
X35726666Y-63523810D01*
X35774285Y-63714286D01*
X35821904Y-63809524D01*
X35917142Y-63904762D01*
X36060000Y-63952381D01*
X36298095Y-63952381D01*
X35393333Y-62952381D02*
X34774285Y-62952381D01*
X35107619Y-63333333D01*
X34964761Y-63333333D01*
X34869523Y-63380952D01*
X34821904Y-63428571D01*
X34774285Y-63523810D01*
X34774285Y-63761905D01*
X34821904Y-63857143D01*
X34869523Y-63904762D01*
X34964761Y-63952381D01*
X35250476Y-63952381D01*
X35345714Y-63904762D01*
X35393333Y-63857143D01*
X132310095Y-50744381D02*
X132310095Y-49744381D01*
X132072000Y-49744381D01*
X131929142Y-49792000D01*
X131833904Y-49887238D01*
X131786285Y-49982476D01*
X131738666Y-50172952D01*
X131738666Y-50315810D01*
X131786285Y-50506286D01*
X131833904Y-50601524D01*
X131929142Y-50696762D01*
X132072000Y-50744381D01*
X132310095Y-50744381D01*
X130881523Y-50077714D02*
X130881523Y-50744381D01*
X131119619Y-49696762D02*
X131357714Y-50411048D01*
X130738666Y-50411048D01*
X132056095Y-63952381D02*
X132056095Y-62952381D01*
X131818000Y-62952381D01*
X131675142Y-63000000D01*
X131579904Y-63095238D01*
X131532285Y-63190476D01*
X131484666Y-63380952D01*
X131484666Y-63523810D01*
X131532285Y-63714286D01*
X131579904Y-63809524D01*
X131675142Y-63904762D01*
X131818000Y-63952381D01*
X132056095Y-63952381D01*
X130579904Y-62952381D02*
X131056095Y-62952381D01*
X131103714Y-63428571D01*
X131056095Y-63380952D01*
X130960857Y-63333333D01*
X130722761Y-63333333D01*
X130627523Y-63380952D01*
X130579904Y-63428571D01*
X130532285Y-63523810D01*
X130532285Y-63761905D01*
X130579904Y-63857143D01*
X130627523Y-63904762D01*
X130722761Y-63952381D01*
X130960857Y-63952381D01*
X131056095Y-63904762D01*
X131103714Y-63857143D01*
X132564095Y-57094381D02*
X132564095Y-56094381D01*
X132326000Y-56094381D01*
X132183142Y-56142000D01*
X132087904Y-56237238D01*
X132040285Y-56332476D01*
X131992666Y-56522952D01*
X131992666Y-56665810D01*
X132040285Y-56856286D01*
X132087904Y-56951524D01*
X132183142Y-57046762D01*
X132326000Y-57094381D01*
X132564095Y-57094381D01*
X131135523Y-56094381D02*
X131326000Y-56094381D01*
X131421238Y-56142000D01*
X131468857Y-56189619D01*
X131564095Y-56332476D01*
X131611714Y-56522952D01*
X131611714Y-56903905D01*
X131564095Y-56999143D01*
X131516476Y-57046762D01*
X131421238Y-57094381D01*
X131230761Y-57094381D01*
X131135523Y-57046762D01*
X131087904Y-56999143D01*
X131040285Y-56903905D01*
X131040285Y-56665810D01*
X131087904Y-56570571D01*
X131135523Y-56522952D01*
X131230761Y-56475333D01*
X131421238Y-56475333D01*
X131516476Y-56522952D01*
X131564095Y-56570571D01*
X131611714Y-56665810D01*
M02*
