G04 #@! TF.FileFunction,Paste,Top*
%FSLAX46Y46*%
G04 Gerber Fmt 4.6, Leading zero omitted, Abs format (unit mm)*
G04 Created by KiCad (PCBNEW 4.0.7) date 03/31/18 19:25:11*
%MOMM*%
%LPD*%
G01*
G04 APERTURE LIST*
%ADD10C,0.150000*%
%ADD11R,1.700000X0.900000*%
%ADD12R,2.794000X2.209800*%
%ADD13R,2.794000X2.794000*%
%ADD14R,0.635000X1.143000*%
%ADD15R,0.900000X0.800000*%
%ADD16R,1.600200X1.803400*%
%ADD17R,1.143000X0.635000*%
%ADD18R,0.650000X0.400000*%
%ADD19R,3.599200X1.600200*%
G04 APERTURE END LIST*
D10*
D11*
X62484000Y-39190000D03*
X62484000Y-42090000D03*
D12*
X74015600Y-48691800D03*
D13*
X81432400Y-41300400D03*
D12*
X81432400Y-50698400D03*
D14*
X39878000Y-39370000D03*
X38354000Y-39370000D03*
D15*
X69358000Y-49596000D03*
X69358000Y-51496000D03*
X71358000Y-50546000D03*
D16*
X56769000Y-40386000D03*
X59563000Y-40386000D03*
D14*
X64262000Y-51054000D03*
X65786000Y-51054000D03*
D17*
X62230000Y-43688000D03*
X62230000Y-45212000D03*
X62230000Y-46736000D03*
X62230000Y-48260000D03*
D18*
X58232000Y-42784000D03*
X58232000Y-44084000D03*
X58232000Y-43434000D03*
X60132000Y-44084000D03*
X60132000Y-42784000D03*
X58232000Y-46086000D03*
X58232000Y-47386000D03*
X58232000Y-46736000D03*
X60132000Y-47386000D03*
X60132000Y-46086000D03*
D19*
X72346800Y-42164000D03*
X66845200Y-42164000D03*
D16*
X70739000Y-46990000D03*
X67945000Y-46990000D03*
D17*
X67818000Y-49530000D03*
X67818000Y-51054000D03*
X62230000Y-49784000D03*
X62230000Y-51308000D03*
D18*
X58232000Y-49388000D03*
X58232000Y-50688000D03*
X58232000Y-50038000D03*
X60132000Y-50688000D03*
X60132000Y-49388000D03*
M02*
