G04 #@! TF.FileFunction,Legend,Top*
%FSLAX46Y46*%
G04 Gerber Fmt 4.6, Leading zero omitted, Abs format (unit mm)*
G04 Created by KiCad (PCBNEW 4.0.7) date 03/31/18 19:25:11*
%MOMM*%
%LPD*%
G01*
G04 APERTURE LIST*
%ADD10C,0.150000*%
%ADD11C,0.200000*%
%ADD12C,0.152400*%
%ADD13C,0.120000*%
%ADD14C,0.149860*%
G04 APERTURE END LIST*
D10*
D11*
X88646000Y-31750000D02*
X25654000Y-31750000D01*
X75438000Y-36576000D02*
X88646000Y-36576000D01*
D12*
X73539048Y-22735419D02*
X73055239Y-22735419D01*
X73055239Y-21719419D01*
X73877715Y-22735419D02*
X73877715Y-22058086D01*
X73877715Y-21719419D02*
X73829334Y-21767800D01*
X73877715Y-21816181D01*
X73926096Y-21767800D01*
X73877715Y-21719419D01*
X73877715Y-21816181D01*
X74796953Y-22058086D02*
X74796953Y-22880562D01*
X74748572Y-22977324D01*
X74700191Y-23025705D01*
X74603430Y-23074086D01*
X74458287Y-23074086D01*
X74361525Y-23025705D01*
X74796953Y-22687038D02*
X74700191Y-22735419D01*
X74506668Y-22735419D01*
X74409906Y-22687038D01*
X74361525Y-22638657D01*
X74313144Y-22541895D01*
X74313144Y-22251610D01*
X74361525Y-22154848D01*
X74409906Y-22106467D01*
X74506668Y-22058086D01*
X74700191Y-22058086D01*
X74796953Y-22106467D01*
X75280763Y-22735419D02*
X75280763Y-21719419D01*
X75716191Y-22735419D02*
X75716191Y-22203229D01*
X75667810Y-22106467D01*
X75571048Y-22058086D01*
X75425906Y-22058086D01*
X75329144Y-22106467D01*
X75280763Y-22154848D01*
X76054858Y-22058086D02*
X76441906Y-22058086D01*
X76200001Y-21719419D02*
X76200001Y-22590276D01*
X76248382Y-22687038D01*
X76345144Y-22735419D01*
X76441906Y-22735419D01*
X77554667Y-22735419D02*
X77554667Y-21719419D01*
X77893333Y-22445133D01*
X78232000Y-21719419D01*
X78232000Y-22735419D01*
X78860953Y-22735419D02*
X78764191Y-22687038D01*
X78715810Y-22638657D01*
X78667429Y-22541895D01*
X78667429Y-22251610D01*
X78715810Y-22154848D01*
X78764191Y-22106467D01*
X78860953Y-22058086D01*
X79006095Y-22058086D01*
X79102857Y-22106467D01*
X79151238Y-22154848D01*
X79199619Y-22251610D01*
X79199619Y-22541895D01*
X79151238Y-22638657D01*
X79102857Y-22687038D01*
X79006095Y-22735419D01*
X78860953Y-22735419D01*
X80070476Y-22735419D02*
X80070476Y-21719419D01*
X80070476Y-22687038D02*
X79973714Y-22735419D01*
X79780191Y-22735419D01*
X79683429Y-22687038D01*
X79635048Y-22638657D01*
X79586667Y-22541895D01*
X79586667Y-22251610D01*
X79635048Y-22154848D01*
X79683429Y-22106467D01*
X79780191Y-22058086D01*
X79973714Y-22058086D01*
X80070476Y-22106467D01*
X80989714Y-22058086D02*
X80989714Y-22735419D01*
X80554286Y-22058086D02*
X80554286Y-22590276D01*
X80602667Y-22687038D01*
X80699429Y-22735419D01*
X80844571Y-22735419D01*
X80941333Y-22687038D01*
X80989714Y-22638657D01*
X81618667Y-22735419D02*
X81521905Y-22687038D01*
X81473524Y-22590276D01*
X81473524Y-21719419D01*
X82392761Y-22687038D02*
X82295999Y-22735419D01*
X82102476Y-22735419D01*
X82005714Y-22687038D01*
X81957333Y-22590276D01*
X81957333Y-22203229D01*
X82005714Y-22106467D01*
X82102476Y-22058086D01*
X82295999Y-22058086D01*
X82392761Y-22106467D01*
X82441142Y-22203229D01*
X82441142Y-22299990D01*
X81957333Y-22396752D01*
X74047048Y-23492581D02*
X74095429Y-23444200D01*
X74192191Y-23395819D01*
X74434095Y-23395819D01*
X74530857Y-23444200D01*
X74579238Y-23492581D01*
X74627619Y-23589343D01*
X74627619Y-23686105D01*
X74579238Y-23831248D01*
X73998667Y-24411819D01*
X74627619Y-24411819D01*
X75256572Y-23395819D02*
X75353333Y-23395819D01*
X75450095Y-23444200D01*
X75498476Y-23492581D01*
X75546857Y-23589343D01*
X75595238Y-23782867D01*
X75595238Y-24024771D01*
X75546857Y-24218295D01*
X75498476Y-24315057D01*
X75450095Y-24363438D01*
X75353333Y-24411819D01*
X75256572Y-24411819D01*
X75159810Y-24363438D01*
X75111429Y-24315057D01*
X75063048Y-24218295D01*
X75014667Y-24024771D01*
X75014667Y-23782867D01*
X75063048Y-23589343D01*
X75111429Y-23492581D01*
X75159810Y-23444200D01*
X75256572Y-23395819D01*
X76562857Y-24411819D02*
X75982286Y-24411819D01*
X76272572Y-24411819D02*
X76272572Y-23395819D01*
X76175810Y-23540962D01*
X76079048Y-23637724D01*
X75982286Y-23686105D01*
X77143429Y-23831248D02*
X77046667Y-23782867D01*
X76998286Y-23734486D01*
X76949905Y-23637724D01*
X76949905Y-23589343D01*
X76998286Y-23492581D01*
X77046667Y-23444200D01*
X77143429Y-23395819D01*
X77336952Y-23395819D01*
X77433714Y-23444200D01*
X77482095Y-23492581D01*
X77530476Y-23589343D01*
X77530476Y-23637724D01*
X77482095Y-23734486D01*
X77433714Y-23782867D01*
X77336952Y-23831248D01*
X77143429Y-23831248D01*
X77046667Y-23879629D01*
X76998286Y-23928010D01*
X76949905Y-24024771D01*
X76949905Y-24218295D01*
X76998286Y-24315057D01*
X77046667Y-24363438D01*
X77143429Y-24411819D01*
X77336952Y-24411819D01*
X77433714Y-24363438D01*
X77482095Y-24315057D01*
X77530476Y-24218295D01*
X77530476Y-24024771D01*
X77482095Y-23928010D01*
X77433714Y-23879629D01*
X77336952Y-23831248D01*
X77965905Y-24315057D02*
X78014286Y-24363438D01*
X77965905Y-24411819D01*
X77917524Y-24363438D01*
X77965905Y-24315057D01*
X77965905Y-24411819D01*
X78352953Y-23395819D02*
X78981905Y-23395819D01*
X78643239Y-23782867D01*
X78788381Y-23782867D01*
X78885143Y-23831248D01*
X78933524Y-23879629D01*
X78981905Y-23976390D01*
X78981905Y-24218295D01*
X78933524Y-24315057D01*
X78885143Y-24363438D01*
X78788381Y-24411819D01*
X78498096Y-24411819D01*
X78401334Y-24363438D01*
X78352953Y-24315057D01*
X79417334Y-24315057D02*
X79465715Y-24363438D01*
X79417334Y-24411819D01*
X79368953Y-24363438D01*
X79417334Y-24315057D01*
X79417334Y-24411819D01*
X79804382Y-23395819D02*
X80433334Y-23395819D01*
X80094668Y-23782867D01*
X80239810Y-23782867D01*
X80336572Y-23831248D01*
X80384953Y-23879629D01*
X80433334Y-23976390D01*
X80433334Y-24218295D01*
X80384953Y-24315057D01*
X80336572Y-24363438D01*
X80239810Y-24411819D01*
X79949525Y-24411819D01*
X79852763Y-24363438D01*
X79804382Y-24315057D01*
X81400953Y-24411819D02*
X80820382Y-24411819D01*
X81110668Y-24411819D02*
X81110668Y-23395819D01*
X81013906Y-23540962D01*
X80917144Y-23637724D01*
X80820382Y-23686105D01*
D11*
X75438000Y-36576000D02*
X25654000Y-36576000D01*
D12*
X31387143Y-47697571D02*
X31496000Y-47733857D01*
X31532285Y-47770143D01*
X31568571Y-47842714D01*
X31568571Y-47951571D01*
X31532285Y-48024143D01*
X31496000Y-48060429D01*
X31423428Y-48096714D01*
X31133143Y-48096714D01*
X31133143Y-47334714D01*
X31387143Y-47334714D01*
X31459714Y-47371000D01*
X31496000Y-47407286D01*
X31532285Y-47479857D01*
X31532285Y-47552429D01*
X31496000Y-47625000D01*
X31459714Y-47661286D01*
X31387143Y-47697571D01*
X31133143Y-47697571D01*
X32004000Y-48096714D02*
X31931428Y-48060429D01*
X31895143Y-47987857D01*
X31895143Y-47334714D01*
X32620857Y-48096714D02*
X32620857Y-47697571D01*
X32584571Y-47625000D01*
X32512000Y-47588714D01*
X32366857Y-47588714D01*
X32294286Y-47625000D01*
X32620857Y-48060429D02*
X32548286Y-48096714D01*
X32366857Y-48096714D01*
X32294286Y-48060429D01*
X32258000Y-47987857D01*
X32258000Y-47915286D01*
X32294286Y-47842714D01*
X32366857Y-47806429D01*
X32548286Y-47806429D01*
X32620857Y-47770143D01*
X33310286Y-48060429D02*
X33237715Y-48096714D01*
X33092572Y-48096714D01*
X33020000Y-48060429D01*
X32983715Y-48024143D01*
X32947429Y-47951571D01*
X32947429Y-47733857D01*
X32983715Y-47661286D01*
X33020000Y-47625000D01*
X33092572Y-47588714D01*
X33237715Y-47588714D01*
X33310286Y-47625000D01*
X33636858Y-48096714D02*
X33636858Y-47334714D01*
X33709429Y-47806429D02*
X33927143Y-48096714D01*
X33927143Y-47588714D02*
X33636858Y-47879000D01*
X35378571Y-48096714D02*
X35124571Y-47733857D01*
X34943143Y-48096714D02*
X34943143Y-47334714D01*
X35233428Y-47334714D01*
X35306000Y-47371000D01*
X35342285Y-47407286D01*
X35378571Y-47479857D01*
X35378571Y-47588714D01*
X35342285Y-47661286D01*
X35306000Y-47697571D01*
X35233428Y-47733857D01*
X34943143Y-47733857D01*
X35995428Y-48060429D02*
X35922857Y-48096714D01*
X35777714Y-48096714D01*
X35705143Y-48060429D01*
X35668857Y-47987857D01*
X35668857Y-47697571D01*
X35705143Y-47625000D01*
X35777714Y-47588714D01*
X35922857Y-47588714D01*
X35995428Y-47625000D01*
X36031714Y-47697571D01*
X36031714Y-47770143D01*
X35668857Y-47842714D01*
X36684857Y-48096714D02*
X36684857Y-47334714D01*
X36684857Y-48060429D02*
X36612286Y-48096714D01*
X36467143Y-48096714D01*
X36394571Y-48060429D01*
X36358286Y-48024143D01*
X36322000Y-47951571D01*
X36322000Y-47733857D01*
X36358286Y-47661286D01*
X36394571Y-47625000D01*
X36467143Y-47588714D01*
X36612286Y-47588714D01*
X36684857Y-47625000D01*
D13*
X61414000Y-41640000D02*
X61414000Y-39640000D01*
X63554000Y-39640000D02*
X63554000Y-41640000D01*
D14*
X37844000Y-56334000D02*
X37844000Y-40584000D01*
X37844000Y-40584000D02*
X54104000Y-40584000D01*
X54104000Y-40584000D02*
X54104000Y-56334000D01*
X54104000Y-56334000D02*
X37844000Y-56334000D01*
D12*
X74726800Y-53086000D02*
X74726800Y-50698400D01*
X74726800Y-46837600D02*
X74726800Y-38582600D01*
X80721200Y-39166800D02*
X80721200Y-38582600D01*
X80721200Y-48768000D02*
X80721200Y-43586400D01*
X80721200Y-53086000D02*
X80721200Y-52603400D01*
X80340200Y-53086000D02*
X80340200Y-55575200D01*
X80340200Y-55575200D02*
X75107800Y-55575200D01*
X75107800Y-55575200D02*
X75107800Y-53086000D01*
X74726800Y-38582600D02*
X80721200Y-38582600D01*
X80721200Y-53086000D02*
X74726800Y-53086000D01*
D14*
X39616380Y-40068500D02*
X40322500Y-40068500D01*
X40322500Y-40068500D02*
X40322500Y-38671500D01*
X40322500Y-38671500D02*
X39616380Y-38671500D01*
X37909500Y-40068500D02*
X38615620Y-40068500D01*
X37909500Y-40068500D02*
X37909500Y-38671500D01*
X37909500Y-38671500D02*
X38615620Y-38671500D01*
D13*
X34036000Y-51114000D02*
X36636000Y-51114000D01*
X36636000Y-51114000D02*
X36636000Y-48454000D01*
X36636000Y-48454000D02*
X34036000Y-48454000D01*
X34036000Y-48454000D02*
X34036000Y-51114000D01*
X32766000Y-51114000D02*
X31436000Y-51114000D01*
X31436000Y-51114000D02*
X31436000Y-49784000D01*
X71118000Y-52126000D02*
X71118000Y-51196000D01*
X71118000Y-48966000D02*
X71118000Y-49896000D01*
X71118000Y-48966000D02*
X68958000Y-48966000D01*
X71118000Y-52126000D02*
X69658000Y-52126000D01*
D14*
X55803800Y-39319200D02*
X55803800Y-41452800D01*
X60528200Y-41452800D02*
X55803800Y-41452800D01*
X55829200Y-39319200D02*
X60528200Y-39319200D01*
X60528200Y-39319200D02*
X60528200Y-41452800D01*
X64523620Y-50355500D02*
X63817500Y-50355500D01*
X63817500Y-50355500D02*
X63817500Y-51752500D01*
X63817500Y-51752500D02*
X64523620Y-51752500D01*
X66230500Y-50355500D02*
X65524380Y-50355500D01*
X66230500Y-50355500D02*
X66230500Y-51752500D01*
X66230500Y-51752500D02*
X65524380Y-51752500D01*
X62928500Y-43949620D02*
X62928500Y-43243500D01*
X62928500Y-43243500D02*
X61531500Y-43243500D01*
X61531500Y-43243500D02*
X61531500Y-43949620D01*
X62928500Y-45656500D02*
X62928500Y-44950380D01*
X62928500Y-45656500D02*
X61531500Y-45656500D01*
X61531500Y-45656500D02*
X61531500Y-44950380D01*
X62928500Y-46997620D02*
X62928500Y-46291500D01*
X62928500Y-46291500D02*
X61531500Y-46291500D01*
X61531500Y-46291500D02*
X61531500Y-46997620D01*
X62928500Y-48704500D02*
X62928500Y-47998380D01*
X62928500Y-48704500D02*
X61531500Y-48704500D01*
X61531500Y-48704500D02*
X61531500Y-47998380D01*
D13*
X59882000Y-42274000D02*
X57982000Y-42274000D01*
X58482000Y-44594000D02*
X59882000Y-44594000D01*
X59882000Y-45576000D02*
X57982000Y-45576000D01*
X58482000Y-47896000D02*
X59882000Y-47896000D01*
D14*
X66725800Y-41097200D02*
X66725800Y-41224200D01*
X66751200Y-43103800D02*
X66751200Y-43205400D01*
X66749118Y-43225233D02*
G75*
G03X72440800Y-43230800I2846882J1061233D01*
G01*
X72462051Y-41086104D02*
G75*
G03X66725800Y-41097200I-2866051J-1077896D01*
G01*
X66802000Y-43332400D02*
X66802000Y-43103800D01*
X66929000Y-43586400D02*
X66929000Y-43103800D01*
X67056000Y-43789600D02*
X67056000Y-43103800D01*
X67183000Y-43967400D02*
X67183000Y-43103800D01*
X67183000Y-43103800D02*
X66751200Y-43103800D01*
X67183000Y-41224200D02*
X66725800Y-41224200D01*
X66802000Y-40944800D02*
X66802000Y-41224200D01*
X66929000Y-40690800D02*
X66929000Y-41224200D01*
X67056000Y-40487600D02*
X67056000Y-41224200D01*
X67183000Y-40309800D02*
X67183000Y-41224200D01*
X66294000Y-38862000D02*
X66294000Y-41046400D01*
X66294000Y-45466000D02*
X66294000Y-43281600D01*
X72898000Y-39624000D02*
X72898000Y-41046400D01*
X72898000Y-43307000D02*
X72898000Y-44704000D01*
X65633600Y-38862000D02*
X65633600Y-39624000D01*
X66294000Y-45466000D02*
X72136000Y-45466000D01*
X72136000Y-45466000D02*
X72898000Y-44704000D01*
X72898000Y-39624000D02*
X72136000Y-38862000D01*
X72136000Y-38862000D02*
X66294000Y-38862000D01*
X73863200Y-39217600D02*
X73101200Y-39217600D01*
X73482200Y-38862000D02*
X73482200Y-39624000D01*
X71704200Y-48056800D02*
X71704200Y-45923200D01*
X66979800Y-45923200D02*
X71704200Y-45923200D01*
X71678800Y-48056800D02*
X66979800Y-48056800D01*
X66979800Y-48056800D02*
X66979800Y-45923200D01*
X68516500Y-49791620D02*
X68516500Y-49085500D01*
X68516500Y-49085500D02*
X67119500Y-49085500D01*
X67119500Y-49085500D02*
X67119500Y-49791620D01*
X68516500Y-51498500D02*
X68516500Y-50792380D01*
X68516500Y-51498500D02*
X67119500Y-51498500D01*
X67119500Y-51498500D02*
X67119500Y-50792380D01*
X62928500Y-50045620D02*
X62928500Y-49339500D01*
X62928500Y-49339500D02*
X61531500Y-49339500D01*
X61531500Y-49339500D02*
X61531500Y-50045620D01*
X62928500Y-51752500D02*
X62928500Y-51046380D01*
X62928500Y-51752500D02*
X61531500Y-51752500D01*
X61531500Y-51752500D02*
X61531500Y-51046380D01*
D13*
X59882000Y-48878000D02*
X57982000Y-48878000D01*
X58482000Y-51198000D02*
X59882000Y-51198000D01*
D10*
X62317334Y-41092381D02*
X61984000Y-40616190D01*
X61745905Y-41092381D02*
X61745905Y-40092381D01*
X62126858Y-40092381D01*
X62222096Y-40140000D01*
X62269715Y-40187619D01*
X62317334Y-40282857D01*
X62317334Y-40425714D01*
X62269715Y-40520952D01*
X62222096Y-40568571D01*
X62126858Y-40616190D01*
X61745905Y-40616190D01*
X62650667Y-40092381D02*
X63269715Y-40092381D01*
X62936381Y-40473333D01*
X63079239Y-40473333D01*
X63174477Y-40520952D01*
X63222096Y-40568571D01*
X63269715Y-40663810D01*
X63269715Y-40901905D01*
X63222096Y-40997143D01*
X63174477Y-41044762D01*
X63079239Y-41092381D01*
X62793524Y-41092381D01*
X62698286Y-41044762D01*
X62650667Y-40997143D01*
X52565334Y-40963905D02*
X52565334Y-41535333D01*
X52527238Y-41649619D01*
X52451048Y-41725810D01*
X52336762Y-41763905D01*
X52260572Y-41763905D01*
X53365334Y-41763905D02*
X52908191Y-41763905D01*
X53136762Y-41763905D02*
X53136762Y-40963905D01*
X53060572Y-41078190D01*
X52984381Y-41154381D01*
X52908191Y-41192476D01*
X39618000Y-40963905D02*
X39618000Y-41535333D01*
X39579904Y-41649619D01*
X39503714Y-41725810D01*
X39389428Y-41763905D01*
X39313238Y-41763905D01*
X39960857Y-41535333D02*
X40341809Y-41535333D01*
X39884666Y-41763905D02*
X40151333Y-40963905D01*
X40418000Y-41763905D01*
X41141809Y-41687714D02*
X41103714Y-41725810D01*
X40989428Y-41763905D01*
X40913238Y-41763905D01*
X40798952Y-41725810D01*
X40722761Y-41649619D01*
X40684666Y-41573429D01*
X40646571Y-41421048D01*
X40646571Y-41306762D01*
X40684666Y-41154381D01*
X40722761Y-41078190D01*
X40798952Y-41002000D01*
X40913238Y-40963905D01*
X40989428Y-40963905D01*
X41103714Y-41002000D01*
X41141809Y-41040095D01*
X41484666Y-41763905D02*
X41484666Y-40963905D01*
X41941809Y-41763905D02*
X41598952Y-41306762D01*
X41941809Y-40963905D02*
X41484666Y-41421048D01*
X42094190Y-41840095D02*
X42703714Y-41840095D01*
X43351333Y-41763905D02*
X43084666Y-41382952D01*
X42894190Y-41763905D02*
X42894190Y-40963905D01*
X43198952Y-40963905D01*
X43275143Y-41002000D01*
X43313238Y-41040095D01*
X43351333Y-41116286D01*
X43351333Y-41230571D01*
X43313238Y-41306762D01*
X43275143Y-41344857D01*
X43198952Y-41382952D01*
X42894190Y-41382952D01*
X43922762Y-40963905D02*
X43922762Y-41535333D01*
X43884666Y-41649619D01*
X43808476Y-41725810D01*
X43694190Y-41763905D01*
X43618000Y-41763905D01*
X44646571Y-41230571D02*
X44646571Y-41763905D01*
X44456095Y-40925810D02*
X44265619Y-41497238D01*
X44760857Y-41497238D01*
X45446572Y-40963905D02*
X45065619Y-40963905D01*
X45027524Y-41344857D01*
X45065619Y-41306762D01*
X45141810Y-41268667D01*
X45332286Y-41268667D01*
X45408476Y-41306762D01*
X45446572Y-41344857D01*
X45484667Y-41421048D01*
X45484667Y-41611524D01*
X45446572Y-41687714D01*
X45408476Y-41725810D01*
X45332286Y-41763905D01*
X45141810Y-41763905D01*
X45065619Y-41725810D01*
X45027524Y-41687714D01*
D12*
X75425334Y-44519905D02*
X75425334Y-45091333D01*
X75387238Y-45205619D01*
X75311048Y-45281810D01*
X75196762Y-45319905D01*
X75120572Y-45319905D01*
X75768191Y-44596095D02*
X75806286Y-44558000D01*
X75882477Y-44519905D01*
X76072953Y-44519905D01*
X76149143Y-44558000D01*
X76187239Y-44596095D01*
X76225334Y-44672286D01*
X76225334Y-44748476D01*
X76187239Y-44862762D01*
X75730096Y-45319905D01*
X76225334Y-45319905D01*
X79063905Y-49281905D02*
X79635333Y-49281905D01*
X79749619Y-49320001D01*
X79825810Y-49396191D01*
X79863905Y-49510477D01*
X79863905Y-49586667D01*
X79635333Y-48939048D02*
X79635333Y-48558096D01*
X79863905Y-49015239D02*
X79063905Y-48748572D01*
X79863905Y-48481905D01*
X79787714Y-47758096D02*
X79825810Y-47796191D01*
X79863905Y-47910477D01*
X79863905Y-47986667D01*
X79825810Y-48100953D01*
X79749619Y-48177144D01*
X79673429Y-48215239D01*
X79521048Y-48253334D01*
X79406762Y-48253334D01*
X79254381Y-48215239D01*
X79178190Y-48177144D01*
X79102000Y-48100953D01*
X79063905Y-47986667D01*
X79063905Y-47910477D01*
X79102000Y-47796191D01*
X79140095Y-47758096D01*
X79863905Y-47415239D02*
X79063905Y-47415239D01*
X79863905Y-46958096D02*
X79406762Y-47300953D01*
X79063905Y-46958096D02*
X79521048Y-47415239D01*
X79940095Y-46805715D02*
X79940095Y-46196191D01*
X79825810Y-46043810D02*
X79863905Y-45929524D01*
X79863905Y-45739048D01*
X79825810Y-45662858D01*
X79787714Y-45624762D01*
X79711524Y-45586667D01*
X79635333Y-45586667D01*
X79559143Y-45624762D01*
X79521048Y-45662858D01*
X79482952Y-45739048D01*
X79444857Y-45891429D01*
X79406762Y-45967620D01*
X79368667Y-46005715D01*
X79292476Y-46043810D01*
X79216286Y-46043810D01*
X79140095Y-46005715D01*
X79102000Y-45967620D01*
X79063905Y-45891429D01*
X79063905Y-45700953D01*
X79102000Y-45586667D01*
X79063905Y-45358096D02*
X79063905Y-44900953D01*
X79863905Y-45129524D02*
X79063905Y-45129524D01*
X79444857Y-44634286D02*
X79444857Y-44367619D01*
X79863905Y-44253333D02*
X79863905Y-44634286D01*
X79063905Y-44634286D01*
X79063905Y-44253333D01*
X79863905Y-43453333D02*
X79482952Y-43720000D01*
X79863905Y-43910476D02*
X79063905Y-43910476D01*
X79063905Y-43605714D01*
X79102000Y-43529523D01*
X79140095Y-43491428D01*
X79216286Y-43453333D01*
X79330571Y-43453333D01*
X79406762Y-43491428D01*
X79444857Y-43529523D01*
X79482952Y-43605714D01*
X79482952Y-43910476D01*
X79444857Y-43110476D02*
X79444857Y-42843809D01*
X79863905Y-42729523D02*
X79863905Y-43110476D01*
X79063905Y-43110476D01*
X79063905Y-42729523D01*
X79063905Y-42234285D02*
X79063905Y-42081904D01*
X79102000Y-42005713D01*
X79178190Y-41929523D01*
X79330571Y-41891428D01*
X79597238Y-41891428D01*
X79749619Y-41929523D01*
X79825810Y-42005713D01*
X79863905Y-42081904D01*
X79863905Y-42234285D01*
X79825810Y-42310475D01*
X79749619Y-42386666D01*
X79597238Y-42424761D01*
X79330571Y-42424761D01*
X79178190Y-42386666D01*
X79102000Y-42310475D01*
X79063905Y-42234285D01*
D10*
X36950667Y-39731905D02*
X36684000Y-39350952D01*
X36493524Y-39731905D02*
X36493524Y-38931905D01*
X36798286Y-38931905D01*
X36874477Y-38970000D01*
X36912572Y-39008095D01*
X36950667Y-39084286D01*
X36950667Y-39198571D01*
X36912572Y-39274762D01*
X36874477Y-39312857D01*
X36798286Y-39350952D01*
X36493524Y-39350952D01*
X37712572Y-39731905D02*
X37255429Y-39731905D01*
X37484000Y-39731905D02*
X37484000Y-38931905D01*
X37407810Y-39046190D01*
X37331619Y-39122381D01*
X37255429Y-39160476D01*
X37496762Y-51601619D02*
X37401524Y-51554000D01*
X37306286Y-51458762D01*
X37163429Y-51315905D01*
X37068190Y-51268286D01*
X36972952Y-51268286D01*
X37020571Y-51506381D02*
X36925333Y-51458762D01*
X36830095Y-51363524D01*
X36782476Y-51173048D01*
X36782476Y-50839714D01*
X36830095Y-50649238D01*
X36925333Y-50554000D01*
X37020571Y-50506381D01*
X37211048Y-50506381D01*
X37306286Y-50554000D01*
X37401524Y-50649238D01*
X37449143Y-50839714D01*
X37449143Y-51173048D01*
X37401524Y-51363524D01*
X37306286Y-51458762D01*
X37211048Y-51506381D01*
X37020571Y-51506381D01*
X38401524Y-51506381D02*
X37830095Y-51506381D01*
X38115809Y-51506381D02*
X38115809Y-50506381D01*
X38020571Y-50649238D01*
X37925333Y-50744476D01*
X37830095Y-50792095D01*
X37508543Y-49090943D02*
X37544829Y-49127229D01*
X37581114Y-49236086D01*
X37581114Y-49308657D01*
X37544829Y-49417514D01*
X37472257Y-49490086D01*
X37399686Y-49526371D01*
X37254543Y-49562657D01*
X37145686Y-49562657D01*
X37000543Y-49526371D01*
X36927971Y-49490086D01*
X36855400Y-49417514D01*
X36819114Y-49308657D01*
X36819114Y-49236086D01*
X36855400Y-49127229D01*
X36891686Y-49090943D01*
X31365371Y-49439285D02*
X31365371Y-49185285D01*
X31764514Y-49076428D02*
X31764514Y-49439285D01*
X31002514Y-49439285D01*
X31002514Y-49076428D01*
X72294762Y-52617619D02*
X72199524Y-52570000D01*
X72104286Y-52474762D01*
X71961429Y-52331905D01*
X71866190Y-52284286D01*
X71770952Y-52284286D01*
X71818571Y-52522381D02*
X71723333Y-52474762D01*
X71628095Y-52379524D01*
X71580476Y-52189048D01*
X71580476Y-51855714D01*
X71628095Y-51665238D01*
X71723333Y-51570000D01*
X71818571Y-51522381D01*
X72009048Y-51522381D01*
X72104286Y-51570000D01*
X72199524Y-51665238D01*
X72247143Y-51855714D01*
X72247143Y-52189048D01*
X72199524Y-52379524D01*
X72104286Y-52474762D01*
X72009048Y-52522381D01*
X71818571Y-52522381D01*
X72628095Y-51617619D02*
X72675714Y-51570000D01*
X72770952Y-51522381D01*
X73009048Y-51522381D01*
X73104286Y-51570000D01*
X73151905Y-51617619D01*
X73199524Y-51712857D01*
X73199524Y-51808095D01*
X73151905Y-51950952D01*
X72580476Y-52522381D01*
X73199524Y-52522381D01*
X56508667Y-42449714D02*
X56470572Y-42487810D01*
X56356286Y-42525905D01*
X56280096Y-42525905D01*
X56165810Y-42487810D01*
X56089619Y-42411619D01*
X56051524Y-42335429D01*
X56013429Y-42183048D01*
X56013429Y-42068762D01*
X56051524Y-41916381D01*
X56089619Y-41840190D01*
X56165810Y-41764000D01*
X56280096Y-41725905D01*
X56356286Y-41725905D01*
X56470572Y-41764000D01*
X56508667Y-41802095D01*
X57270572Y-42525905D02*
X56813429Y-42525905D01*
X57042000Y-42525905D02*
X57042000Y-41725905D01*
X56965810Y-41840190D01*
X56889619Y-41916381D01*
X56813429Y-41954476D01*
X64890667Y-52685905D02*
X64624000Y-52304952D01*
X64433524Y-52685905D02*
X64433524Y-51885905D01*
X64738286Y-51885905D01*
X64814477Y-51924000D01*
X64852572Y-51962095D01*
X64890667Y-52038286D01*
X64890667Y-52152571D01*
X64852572Y-52228762D01*
X64814477Y-52266857D01*
X64738286Y-52304952D01*
X64433524Y-52304952D01*
X65195429Y-51962095D02*
X65233524Y-51924000D01*
X65309715Y-51885905D01*
X65500191Y-51885905D01*
X65576381Y-51924000D01*
X65614477Y-51962095D01*
X65652572Y-52038286D01*
X65652572Y-52114476D01*
X65614477Y-52228762D01*
X65157334Y-52685905D01*
X65652572Y-52685905D01*
X63620667Y-44811905D02*
X63354000Y-44430952D01*
X63163524Y-44811905D02*
X63163524Y-44011905D01*
X63468286Y-44011905D01*
X63544477Y-44050000D01*
X63582572Y-44088095D01*
X63620667Y-44164286D01*
X63620667Y-44278571D01*
X63582572Y-44354762D01*
X63544477Y-44392857D01*
X63468286Y-44430952D01*
X63163524Y-44430952D01*
X64306381Y-44278571D02*
X64306381Y-44811905D01*
X64115905Y-43973810D02*
X63925429Y-44545238D01*
X64420667Y-44545238D01*
X63620667Y-47859905D02*
X63354000Y-47478952D01*
X63163524Y-47859905D02*
X63163524Y-47059905D01*
X63468286Y-47059905D01*
X63544477Y-47098000D01*
X63582572Y-47136095D01*
X63620667Y-47212286D01*
X63620667Y-47326571D01*
X63582572Y-47402762D01*
X63544477Y-47440857D01*
X63468286Y-47478952D01*
X63163524Y-47478952D01*
X64344477Y-47059905D02*
X63963524Y-47059905D01*
X63925429Y-47440857D01*
X63963524Y-47402762D01*
X64039715Y-47364667D01*
X64230191Y-47364667D01*
X64306381Y-47402762D01*
X64344477Y-47440857D01*
X64382572Y-47517048D01*
X64382572Y-47707524D01*
X64344477Y-47783714D01*
X64306381Y-47821810D01*
X64230191Y-47859905D01*
X64039715Y-47859905D01*
X63963524Y-47821810D01*
X63925429Y-47783714D01*
X55880095Y-42886381D02*
X55880095Y-43695905D01*
X55927714Y-43791143D01*
X55975333Y-43838762D01*
X56070571Y-43886381D01*
X56261048Y-43886381D01*
X56356286Y-43838762D01*
X56403905Y-43791143D01*
X56451524Y-43695905D01*
X56451524Y-42886381D01*
X57451524Y-43886381D02*
X56880095Y-43886381D01*
X57165809Y-43886381D02*
X57165809Y-42886381D01*
X57070571Y-43029238D01*
X56975333Y-43124476D01*
X56880095Y-43172095D01*
X55880095Y-46188381D02*
X55880095Y-46997905D01*
X55927714Y-47093143D01*
X55975333Y-47140762D01*
X56070571Y-47188381D01*
X56261048Y-47188381D01*
X56356286Y-47140762D01*
X56403905Y-47093143D01*
X56451524Y-46997905D01*
X56451524Y-46188381D01*
X56880095Y-46283619D02*
X56927714Y-46236000D01*
X57022952Y-46188381D01*
X57261048Y-46188381D01*
X57356286Y-46236000D01*
X57403905Y-46283619D01*
X57451524Y-46378857D01*
X57451524Y-46474095D01*
X57403905Y-46616952D01*
X56832476Y-47188381D01*
X57451524Y-47188381D01*
X73018667Y-46005714D02*
X72980572Y-46043810D01*
X72866286Y-46081905D01*
X72790096Y-46081905D01*
X72675810Y-46043810D01*
X72599619Y-45967619D01*
X72561524Y-45891429D01*
X72523429Y-45739048D01*
X72523429Y-45624762D01*
X72561524Y-45472381D01*
X72599619Y-45396190D01*
X72675810Y-45320000D01*
X72790096Y-45281905D01*
X72866286Y-45281905D01*
X72980572Y-45320000D01*
X73018667Y-45358095D01*
X73323429Y-45358095D02*
X73361524Y-45320000D01*
X73437715Y-45281905D01*
X73628191Y-45281905D01*
X73704381Y-45320000D01*
X73742477Y-45358095D01*
X73780572Y-45434286D01*
X73780572Y-45510476D01*
X73742477Y-45624762D01*
X73285334Y-46081905D01*
X73780572Y-46081905D01*
X69932505Y-43529095D02*
X69932505Y-43986238D01*
X69932505Y-43757667D02*
X69132505Y-43757667D01*
X69246790Y-43833857D01*
X69322981Y-43910048D01*
X69361076Y-43986238D01*
X69132505Y-43033857D02*
X69132505Y-42957666D01*
X69170600Y-42881476D01*
X69208695Y-42843381D01*
X69284886Y-42805285D01*
X69437267Y-42767190D01*
X69627743Y-42767190D01*
X69780124Y-42805285D01*
X69856314Y-42843381D01*
X69894410Y-42881476D01*
X69932505Y-42957666D01*
X69932505Y-43033857D01*
X69894410Y-43110047D01*
X69856314Y-43148143D01*
X69780124Y-43186238D01*
X69627743Y-43224333D01*
X69437267Y-43224333D01*
X69284886Y-43186238D01*
X69208695Y-43148143D01*
X69170600Y-43110047D01*
X69132505Y-43033857D01*
X69132505Y-42271952D02*
X69132505Y-42195761D01*
X69170600Y-42119571D01*
X69208695Y-42081476D01*
X69284886Y-42043380D01*
X69437267Y-42005285D01*
X69627743Y-42005285D01*
X69780124Y-42043380D01*
X69856314Y-42081476D01*
X69894410Y-42119571D01*
X69932505Y-42195761D01*
X69932505Y-42271952D01*
X69894410Y-42348142D01*
X69856314Y-42386238D01*
X69780124Y-42424333D01*
X69627743Y-42462428D01*
X69437267Y-42462428D01*
X69284886Y-42424333D01*
X69208695Y-42386238D01*
X69170600Y-42348142D01*
X69132505Y-42271952D01*
X69399171Y-41319571D02*
X69932505Y-41319571D01*
X69399171Y-41662428D02*
X69818219Y-41662428D01*
X69894410Y-41624333D01*
X69932505Y-41548142D01*
X69932505Y-41433856D01*
X69894410Y-41357666D01*
X69856314Y-41319571D01*
X69513457Y-40671951D02*
X69513457Y-40938618D01*
X69932505Y-40938618D02*
X69132505Y-40938618D01*
X69132505Y-40557665D01*
X72510667Y-47275714D02*
X72472572Y-47313810D01*
X72358286Y-47351905D01*
X72282096Y-47351905D01*
X72167810Y-47313810D01*
X72091619Y-47237619D01*
X72053524Y-47161429D01*
X72015429Y-47009048D01*
X72015429Y-46894762D01*
X72053524Y-46742381D01*
X72091619Y-46666190D01*
X72167810Y-46590000D01*
X72282096Y-46551905D01*
X72358286Y-46551905D01*
X72472572Y-46590000D01*
X72510667Y-46628095D01*
X72777334Y-46551905D02*
X73272572Y-46551905D01*
X73005905Y-46856667D01*
X73120191Y-46856667D01*
X73196381Y-46894762D01*
X73234477Y-46932857D01*
X73272572Y-47009048D01*
X73272572Y-47199524D01*
X73234477Y-47275714D01*
X73196381Y-47313810D01*
X73120191Y-47351905D01*
X72891619Y-47351905D01*
X72815429Y-47313810D01*
X72777334Y-47275714D01*
X66160667Y-49891905D02*
X65894000Y-49510952D01*
X65703524Y-49891905D02*
X65703524Y-49091905D01*
X66008286Y-49091905D01*
X66084477Y-49130000D01*
X66122572Y-49168095D01*
X66160667Y-49244286D01*
X66160667Y-49358571D01*
X66122572Y-49434762D01*
X66084477Y-49472857D01*
X66008286Y-49510952D01*
X65703524Y-49510952D01*
X66846381Y-49091905D02*
X66694000Y-49091905D01*
X66617810Y-49130000D01*
X66579715Y-49168095D01*
X66503524Y-49282381D01*
X66465429Y-49434762D01*
X66465429Y-49739524D01*
X66503524Y-49815714D01*
X66541619Y-49853810D01*
X66617810Y-49891905D01*
X66770191Y-49891905D01*
X66846381Y-49853810D01*
X66884477Y-49815714D01*
X66922572Y-49739524D01*
X66922572Y-49549048D01*
X66884477Y-49472857D01*
X66846381Y-49434762D01*
X66770191Y-49396667D01*
X66617810Y-49396667D01*
X66541619Y-49434762D01*
X66503524Y-49472857D01*
X66465429Y-49549048D01*
X63620667Y-50145905D02*
X63354000Y-49764952D01*
X63163524Y-50145905D02*
X63163524Y-49345905D01*
X63468286Y-49345905D01*
X63544477Y-49384000D01*
X63582572Y-49422095D01*
X63620667Y-49498286D01*
X63620667Y-49612571D01*
X63582572Y-49688762D01*
X63544477Y-49726857D01*
X63468286Y-49764952D01*
X63163524Y-49764952D01*
X63887334Y-49345905D02*
X64420667Y-49345905D01*
X64077810Y-50145905D01*
X55880095Y-49490381D02*
X55880095Y-50299905D01*
X55927714Y-50395143D01*
X55975333Y-50442762D01*
X56070571Y-50490381D01*
X56261048Y-50490381D01*
X56356286Y-50442762D01*
X56403905Y-50395143D01*
X56451524Y-50299905D01*
X56451524Y-49490381D01*
X56832476Y-49490381D02*
X57451524Y-49490381D01*
X57118190Y-49871333D01*
X57261048Y-49871333D01*
X57356286Y-49918952D01*
X57403905Y-49966571D01*
X57451524Y-50061810D01*
X57451524Y-50299905D01*
X57403905Y-50395143D01*
X57356286Y-50442762D01*
X57261048Y-50490381D01*
X56975333Y-50490381D01*
X56880095Y-50442762D01*
X56832476Y-50395143D01*
M02*
