M48
;DRILL file {KiCad 4.0.7} date 01/10/18 16:32:47
;FORMAT={-:-/ absolute / inch / decimal}
FMAT,2
INCH,TZ
T1C0.025
T2C0.035
T3C0.039
T4C0.071
T5C0.098
T6C0.177
%
G90
G05
M72
T1
X1.81Y-1.63
X1.87Y-1.69
X1.94Y-1.63
X1.95Y-1.97
X2.11Y-1.73
X2.17Y-1.72
X2.21Y-1.88
X2.22Y-1.44
X2.27Y-1.71
X2.27Y-1.84
X2.27Y-1.97
X2.3Y-1.54
X2.34Y-1.48
X2.39Y-1.47
X2.45Y-2.01
X2.61Y-1.8
X2.67Y-2.
X2.68Y-1.67
X2.69Y-1.54
T2
X1.6698Y-1.7852
X1.7104Y-1.8553
X1.7498Y-1.7852
X1.7903Y-1.8553
X1.8297Y-1.7852
X1.8702Y-1.8553
X1.9096Y-1.7852
X1.9502Y-1.8553
T3
X1.29Y-1.96
X1.39Y-1.96
T4
X1.4899Y-1.8151
X2.1301Y-1.8151
T5
X1.12Y-1.12
X1.12Y-1.92
X3.38Y-1.12
X3.38Y-1.92
T6
X1.21Y-1.65
T0
M30
