G04 #@! TF.FileFunction,Legend,Top*
%FSLAX46Y46*%
G04 Gerber Fmt 4.6, Leading zero omitted, Abs format (unit mm)*
G04 Created by KiCad (PCBNEW 4.0.7) date 01/10/18 16:32:43*
%MOMM*%
%LPD*%
G01*
G04 APERTURE LIST*
%ADD10C,0.150000*%
%ADD11C,0.200000*%
%ADD12C,0.152400*%
%ADD13C,0.120000*%
%ADD14C,0.149860*%
G04 APERTURE END LIST*
D10*
D11*
X88646000Y-31750000D02*
X25654000Y-31750000D01*
X75438000Y-36576000D02*
X88646000Y-36576000D01*
D12*
X68459048Y-27053419D02*
X67975239Y-27053419D01*
X67975239Y-26037419D01*
X68797715Y-27053419D02*
X68797715Y-26376086D01*
X68797715Y-26037419D02*
X68749334Y-26085800D01*
X68797715Y-26134181D01*
X68846096Y-26085800D01*
X68797715Y-26037419D01*
X68797715Y-26134181D01*
X69716953Y-26376086D02*
X69716953Y-27198562D01*
X69668572Y-27295324D01*
X69620191Y-27343705D01*
X69523430Y-27392086D01*
X69378287Y-27392086D01*
X69281525Y-27343705D01*
X69716953Y-27005038D02*
X69620191Y-27053419D01*
X69426668Y-27053419D01*
X69329906Y-27005038D01*
X69281525Y-26956657D01*
X69233144Y-26859895D01*
X69233144Y-26569610D01*
X69281525Y-26472848D01*
X69329906Y-26424467D01*
X69426668Y-26376086D01*
X69620191Y-26376086D01*
X69716953Y-26424467D01*
X70200763Y-27053419D02*
X70200763Y-26037419D01*
X70636191Y-27053419D02*
X70636191Y-26521229D01*
X70587810Y-26424467D01*
X70491048Y-26376086D01*
X70345906Y-26376086D01*
X70249144Y-26424467D01*
X70200763Y-26472848D01*
X70974858Y-26376086D02*
X71361906Y-26376086D01*
X71120001Y-26037419D02*
X71120001Y-26908276D01*
X71168382Y-27005038D01*
X71265144Y-27053419D01*
X71361906Y-27053419D01*
X72474667Y-27053419D02*
X72474667Y-26037419D01*
X72813333Y-26763133D01*
X73152000Y-26037419D01*
X73152000Y-27053419D01*
X73780953Y-27053419D02*
X73684191Y-27005038D01*
X73635810Y-26956657D01*
X73587429Y-26859895D01*
X73587429Y-26569610D01*
X73635810Y-26472848D01*
X73684191Y-26424467D01*
X73780953Y-26376086D01*
X73926095Y-26376086D01*
X74022857Y-26424467D01*
X74071238Y-26472848D01*
X74119619Y-26569610D01*
X74119619Y-26859895D01*
X74071238Y-26956657D01*
X74022857Y-27005038D01*
X73926095Y-27053419D01*
X73780953Y-27053419D01*
X74990476Y-27053419D02*
X74990476Y-26037419D01*
X74990476Y-27005038D02*
X74893714Y-27053419D01*
X74700191Y-27053419D01*
X74603429Y-27005038D01*
X74555048Y-26956657D01*
X74506667Y-26859895D01*
X74506667Y-26569610D01*
X74555048Y-26472848D01*
X74603429Y-26424467D01*
X74700191Y-26376086D01*
X74893714Y-26376086D01*
X74990476Y-26424467D01*
X75909714Y-26376086D02*
X75909714Y-27053419D01*
X75474286Y-26376086D02*
X75474286Y-26908276D01*
X75522667Y-27005038D01*
X75619429Y-27053419D01*
X75764571Y-27053419D01*
X75861333Y-27005038D01*
X75909714Y-26956657D01*
X76538667Y-27053419D02*
X76441905Y-27005038D01*
X76393524Y-26908276D01*
X76393524Y-26037419D01*
X77312761Y-27005038D02*
X77215999Y-27053419D01*
X77022476Y-27053419D01*
X76925714Y-27005038D01*
X76877333Y-26908276D01*
X76877333Y-26521229D01*
X76925714Y-26424467D01*
X77022476Y-26376086D01*
X77215999Y-26376086D01*
X77312761Y-26424467D01*
X77361142Y-26521229D01*
X77361142Y-26617990D01*
X76877333Y-26714752D01*
X68483238Y-27810581D02*
X68531619Y-27762200D01*
X68628381Y-27713819D01*
X68870285Y-27713819D01*
X68967047Y-27762200D01*
X69015428Y-27810581D01*
X69063809Y-27907343D01*
X69063809Y-28004105D01*
X69015428Y-28149248D01*
X68434857Y-28729819D01*
X69063809Y-28729819D01*
X69692762Y-27713819D02*
X69789523Y-27713819D01*
X69886285Y-27762200D01*
X69934666Y-27810581D01*
X69983047Y-27907343D01*
X70031428Y-28100867D01*
X70031428Y-28342771D01*
X69983047Y-28536295D01*
X69934666Y-28633057D01*
X69886285Y-28681438D01*
X69789523Y-28729819D01*
X69692762Y-28729819D01*
X69596000Y-28681438D01*
X69547619Y-28633057D01*
X69499238Y-28536295D01*
X69450857Y-28342771D01*
X69450857Y-28100867D01*
X69499238Y-27907343D01*
X69547619Y-27810581D01*
X69596000Y-27762200D01*
X69692762Y-27713819D01*
X70999047Y-28729819D02*
X70418476Y-28729819D01*
X70708762Y-28729819D02*
X70708762Y-27713819D01*
X70612000Y-27858962D01*
X70515238Y-27955724D01*
X70418476Y-28004105D01*
X71337714Y-27713819D02*
X72015047Y-27713819D01*
X71579619Y-28729819D01*
X72402095Y-28633057D02*
X72450476Y-28681438D01*
X72402095Y-28729819D01*
X72353714Y-28681438D01*
X72402095Y-28633057D01*
X72402095Y-28729819D01*
X73418095Y-28729819D02*
X72837524Y-28729819D01*
X73127810Y-28729819D02*
X73127810Y-27713819D01*
X73031048Y-27858962D01*
X72934286Y-27955724D01*
X72837524Y-28004105D01*
X73805143Y-27810581D02*
X73853524Y-27762200D01*
X73950286Y-27713819D01*
X74192190Y-27713819D01*
X74288952Y-27762200D01*
X74337333Y-27810581D01*
X74385714Y-27907343D01*
X74385714Y-28004105D01*
X74337333Y-28149248D01*
X73756762Y-28729819D01*
X74385714Y-28729819D01*
X74821143Y-28633057D02*
X74869524Y-28681438D01*
X74821143Y-28729819D01*
X74772762Y-28681438D01*
X74821143Y-28633057D01*
X74821143Y-28729819D01*
X75256572Y-27810581D02*
X75304953Y-27762200D01*
X75401715Y-27713819D01*
X75643619Y-27713819D01*
X75740381Y-27762200D01*
X75788762Y-27810581D01*
X75837143Y-27907343D01*
X75837143Y-28004105D01*
X75788762Y-28149248D01*
X75208191Y-28729819D01*
X75837143Y-28729819D01*
X76175810Y-27713819D02*
X76804762Y-27713819D01*
X76466096Y-28100867D01*
X76611238Y-28100867D01*
X76708000Y-28149248D01*
X76756381Y-28197629D01*
X76804762Y-28294390D01*
X76804762Y-28536295D01*
X76756381Y-28633057D01*
X76708000Y-28681438D01*
X76611238Y-28729819D01*
X76320953Y-28729819D01*
X76224191Y-28681438D01*
X76175810Y-28633057D01*
D11*
X75438000Y-36576000D02*
X25654000Y-36576000D01*
D12*
X31387143Y-47697571D02*
X31496000Y-47733857D01*
X31532285Y-47770143D01*
X31568571Y-47842714D01*
X31568571Y-47951571D01*
X31532285Y-48024143D01*
X31496000Y-48060429D01*
X31423428Y-48096714D01*
X31133143Y-48096714D01*
X31133143Y-47334714D01*
X31387143Y-47334714D01*
X31459714Y-47371000D01*
X31496000Y-47407286D01*
X31532285Y-47479857D01*
X31532285Y-47552429D01*
X31496000Y-47625000D01*
X31459714Y-47661286D01*
X31387143Y-47697571D01*
X31133143Y-47697571D01*
X32004000Y-48096714D02*
X31931428Y-48060429D01*
X31895143Y-47987857D01*
X31895143Y-47334714D01*
X32620857Y-48096714D02*
X32620857Y-47697571D01*
X32584571Y-47625000D01*
X32512000Y-47588714D01*
X32366857Y-47588714D01*
X32294286Y-47625000D01*
X32620857Y-48060429D02*
X32548286Y-48096714D01*
X32366857Y-48096714D01*
X32294286Y-48060429D01*
X32258000Y-47987857D01*
X32258000Y-47915286D01*
X32294286Y-47842714D01*
X32366857Y-47806429D01*
X32548286Y-47806429D01*
X32620857Y-47770143D01*
X33310286Y-48060429D02*
X33237715Y-48096714D01*
X33092572Y-48096714D01*
X33020000Y-48060429D01*
X32983715Y-48024143D01*
X32947429Y-47951571D01*
X32947429Y-47733857D01*
X32983715Y-47661286D01*
X33020000Y-47625000D01*
X33092572Y-47588714D01*
X33237715Y-47588714D01*
X33310286Y-47625000D01*
X33636858Y-48096714D02*
X33636858Y-47334714D01*
X33709429Y-47806429D02*
X33927143Y-48096714D01*
X33927143Y-47588714D02*
X33636858Y-47879000D01*
X35378571Y-48096714D02*
X35124571Y-47733857D01*
X34943143Y-48096714D02*
X34943143Y-47334714D01*
X35233428Y-47334714D01*
X35306000Y-47371000D01*
X35342285Y-47407286D01*
X35378571Y-47479857D01*
X35378571Y-47588714D01*
X35342285Y-47661286D01*
X35306000Y-47697571D01*
X35233428Y-47733857D01*
X34943143Y-47733857D01*
X35995428Y-48060429D02*
X35922857Y-48096714D01*
X35777714Y-48096714D01*
X35705143Y-48060429D01*
X35668857Y-47987857D01*
X35668857Y-47697571D01*
X35705143Y-47625000D01*
X35777714Y-47588714D01*
X35922857Y-47588714D01*
X35995428Y-47625000D01*
X36031714Y-47697571D01*
X36031714Y-47770143D01*
X35668857Y-47842714D01*
X36684857Y-48096714D02*
X36684857Y-47334714D01*
X36684857Y-48060429D02*
X36612286Y-48096714D01*
X36467143Y-48096714D01*
X36394571Y-48060429D01*
X36358286Y-48024143D01*
X36322000Y-47951571D01*
X36322000Y-47733857D01*
X36358286Y-47661286D01*
X36394571Y-47625000D01*
X36467143Y-47588714D01*
X36612286Y-47588714D01*
X36684857Y-47625000D01*
D13*
X61414000Y-40370000D02*
X61414000Y-38370000D01*
X63554000Y-38370000D02*
X63554000Y-40370000D01*
D14*
X37844000Y-55064000D02*
X37844000Y-39314000D01*
X37844000Y-39314000D02*
X54104000Y-39314000D01*
X54104000Y-39314000D02*
X54104000Y-55064000D01*
X54104000Y-55064000D02*
X37844000Y-55064000D01*
D12*
X74726800Y-51816000D02*
X74726800Y-49428400D01*
X74726800Y-45567600D02*
X74726800Y-37312600D01*
X80721200Y-37896800D02*
X80721200Y-37312600D01*
X80721200Y-47498000D02*
X80721200Y-42316400D01*
X80721200Y-51816000D02*
X80721200Y-51333400D01*
X80340200Y-51816000D02*
X80340200Y-54305200D01*
X80340200Y-54305200D02*
X75107800Y-54305200D01*
X75107800Y-54305200D02*
X75107800Y-51816000D01*
X74726800Y-37312600D02*
X80721200Y-37312600D01*
X80721200Y-51816000D02*
X74726800Y-51816000D01*
D14*
X39616380Y-38798500D02*
X40322500Y-38798500D01*
X40322500Y-38798500D02*
X40322500Y-37401500D01*
X40322500Y-37401500D02*
X39616380Y-37401500D01*
X37909500Y-38798500D02*
X38615620Y-38798500D01*
X37909500Y-38798500D02*
X37909500Y-37401500D01*
X37909500Y-37401500D02*
X38615620Y-37401500D01*
D13*
X34036000Y-51114000D02*
X36636000Y-51114000D01*
X36636000Y-51114000D02*
X36636000Y-48454000D01*
X36636000Y-48454000D02*
X34036000Y-48454000D01*
X34036000Y-48454000D02*
X34036000Y-51114000D01*
X32766000Y-51114000D02*
X31436000Y-51114000D01*
X31436000Y-51114000D02*
X31436000Y-49784000D01*
X71118000Y-50856000D02*
X71118000Y-49926000D01*
X71118000Y-47696000D02*
X71118000Y-48626000D01*
X71118000Y-47696000D02*
X68958000Y-47696000D01*
X71118000Y-50856000D02*
X69658000Y-50856000D01*
D14*
X55803800Y-38049200D02*
X55803800Y-40182800D01*
X60528200Y-40182800D02*
X55803800Y-40182800D01*
X55829200Y-38049200D02*
X60528200Y-38049200D01*
X60528200Y-38049200D02*
X60528200Y-40182800D01*
X64523620Y-49085500D02*
X63817500Y-49085500D01*
X63817500Y-49085500D02*
X63817500Y-50482500D01*
X63817500Y-50482500D02*
X64523620Y-50482500D01*
X66230500Y-49085500D02*
X65524380Y-49085500D01*
X66230500Y-49085500D02*
X66230500Y-50482500D01*
X66230500Y-50482500D02*
X65524380Y-50482500D01*
X62928500Y-42679620D02*
X62928500Y-41973500D01*
X62928500Y-41973500D02*
X61531500Y-41973500D01*
X61531500Y-41973500D02*
X61531500Y-42679620D01*
X62928500Y-44386500D02*
X62928500Y-43680380D01*
X62928500Y-44386500D02*
X61531500Y-44386500D01*
X61531500Y-44386500D02*
X61531500Y-43680380D01*
X62928500Y-45727620D02*
X62928500Y-45021500D01*
X62928500Y-45021500D02*
X61531500Y-45021500D01*
X61531500Y-45021500D02*
X61531500Y-45727620D01*
X62928500Y-47434500D02*
X62928500Y-46728380D01*
X62928500Y-47434500D02*
X61531500Y-47434500D01*
X61531500Y-47434500D02*
X61531500Y-46728380D01*
D13*
X59882000Y-41004000D02*
X57982000Y-41004000D01*
X58482000Y-43324000D02*
X59882000Y-43324000D01*
X59882000Y-44306000D02*
X57982000Y-44306000D01*
X58482000Y-46626000D02*
X59882000Y-46626000D01*
D14*
X66725800Y-39827200D02*
X66725800Y-39954200D01*
X66751200Y-41833800D02*
X66751200Y-41935400D01*
X66749118Y-41955233D02*
G75*
G03X72440800Y-41960800I2846882J1061233D01*
G01*
X72462051Y-39816104D02*
G75*
G03X66725800Y-39827200I-2866051J-1077896D01*
G01*
X66802000Y-42062400D02*
X66802000Y-41833800D01*
X66929000Y-42316400D02*
X66929000Y-41833800D01*
X67056000Y-42519600D02*
X67056000Y-41833800D01*
X67183000Y-42697400D02*
X67183000Y-41833800D01*
X67183000Y-41833800D02*
X66751200Y-41833800D01*
X67183000Y-39954200D02*
X66725800Y-39954200D01*
X66802000Y-39674800D02*
X66802000Y-39954200D01*
X66929000Y-39420800D02*
X66929000Y-39954200D01*
X67056000Y-39217600D02*
X67056000Y-39954200D01*
X67183000Y-39039800D02*
X67183000Y-39954200D01*
X66294000Y-37592000D02*
X66294000Y-39776400D01*
X66294000Y-44196000D02*
X66294000Y-42011600D01*
X72898000Y-38354000D02*
X72898000Y-39776400D01*
X72898000Y-42037000D02*
X72898000Y-43434000D01*
X65633600Y-37592000D02*
X65633600Y-38354000D01*
X66294000Y-44196000D02*
X72136000Y-44196000D01*
X72136000Y-44196000D02*
X72898000Y-43434000D01*
X72898000Y-38354000D02*
X72136000Y-37592000D01*
X72136000Y-37592000D02*
X66294000Y-37592000D01*
X73863200Y-37947600D02*
X73101200Y-37947600D01*
X73482200Y-37592000D02*
X73482200Y-38354000D01*
X71704200Y-46786800D02*
X71704200Y-44653200D01*
X66979800Y-44653200D02*
X71704200Y-44653200D01*
X71678800Y-46786800D02*
X66979800Y-46786800D01*
X66979800Y-46786800D02*
X66979800Y-44653200D01*
X68516500Y-48521620D02*
X68516500Y-47815500D01*
X68516500Y-47815500D02*
X67119500Y-47815500D01*
X67119500Y-47815500D02*
X67119500Y-48521620D01*
X68516500Y-50228500D02*
X68516500Y-49522380D01*
X68516500Y-50228500D02*
X67119500Y-50228500D01*
X67119500Y-50228500D02*
X67119500Y-49522380D01*
X62928500Y-48775620D02*
X62928500Y-48069500D01*
X62928500Y-48069500D02*
X61531500Y-48069500D01*
X61531500Y-48069500D02*
X61531500Y-48775620D01*
X62928500Y-50482500D02*
X62928500Y-49776380D01*
X62928500Y-50482500D02*
X61531500Y-50482500D01*
X61531500Y-50482500D02*
X61531500Y-49776380D01*
D13*
X59882000Y-47608000D02*
X57982000Y-47608000D01*
X58482000Y-49928000D02*
X59882000Y-49928000D01*
D10*
X62317334Y-39822381D02*
X61984000Y-39346190D01*
X61745905Y-39822381D02*
X61745905Y-38822381D01*
X62126858Y-38822381D01*
X62222096Y-38870000D01*
X62269715Y-38917619D01*
X62317334Y-39012857D01*
X62317334Y-39155714D01*
X62269715Y-39250952D01*
X62222096Y-39298571D01*
X62126858Y-39346190D01*
X61745905Y-39346190D01*
X62650667Y-38822381D02*
X63269715Y-38822381D01*
X62936381Y-39203333D01*
X63079239Y-39203333D01*
X63174477Y-39250952D01*
X63222096Y-39298571D01*
X63269715Y-39393810D01*
X63269715Y-39631905D01*
X63222096Y-39727143D01*
X63174477Y-39774762D01*
X63079239Y-39822381D01*
X62793524Y-39822381D01*
X62698286Y-39774762D01*
X62650667Y-39727143D01*
X52565334Y-39693905D02*
X52565334Y-40265333D01*
X52527238Y-40379619D01*
X52451048Y-40455810D01*
X52336762Y-40493905D01*
X52260572Y-40493905D01*
X53365334Y-40493905D02*
X52908191Y-40493905D01*
X53136762Y-40493905D02*
X53136762Y-39693905D01*
X53060572Y-39808190D01*
X52984381Y-39884381D01*
X52908191Y-39922476D01*
X39618000Y-39693905D02*
X39618000Y-40265333D01*
X39579904Y-40379619D01*
X39503714Y-40455810D01*
X39389428Y-40493905D01*
X39313238Y-40493905D01*
X39960857Y-40265333D02*
X40341809Y-40265333D01*
X39884666Y-40493905D02*
X40151333Y-39693905D01*
X40418000Y-40493905D01*
X41141809Y-40417714D02*
X41103714Y-40455810D01*
X40989428Y-40493905D01*
X40913238Y-40493905D01*
X40798952Y-40455810D01*
X40722761Y-40379619D01*
X40684666Y-40303429D01*
X40646571Y-40151048D01*
X40646571Y-40036762D01*
X40684666Y-39884381D01*
X40722761Y-39808190D01*
X40798952Y-39732000D01*
X40913238Y-39693905D01*
X40989428Y-39693905D01*
X41103714Y-39732000D01*
X41141809Y-39770095D01*
X41484666Y-40493905D02*
X41484666Y-39693905D01*
X41941809Y-40493905D02*
X41598952Y-40036762D01*
X41941809Y-39693905D02*
X41484666Y-40151048D01*
X42094190Y-40570095D02*
X42703714Y-40570095D01*
X43351333Y-40493905D02*
X43084666Y-40112952D01*
X42894190Y-40493905D02*
X42894190Y-39693905D01*
X43198952Y-39693905D01*
X43275143Y-39732000D01*
X43313238Y-39770095D01*
X43351333Y-39846286D01*
X43351333Y-39960571D01*
X43313238Y-40036762D01*
X43275143Y-40074857D01*
X43198952Y-40112952D01*
X42894190Y-40112952D01*
X43922762Y-39693905D02*
X43922762Y-40265333D01*
X43884666Y-40379619D01*
X43808476Y-40455810D01*
X43694190Y-40493905D01*
X43618000Y-40493905D01*
X44646571Y-39960571D02*
X44646571Y-40493905D01*
X44456095Y-39655810D02*
X44265619Y-40227238D01*
X44760857Y-40227238D01*
X45446572Y-39693905D02*
X45065619Y-39693905D01*
X45027524Y-40074857D01*
X45065619Y-40036762D01*
X45141810Y-39998667D01*
X45332286Y-39998667D01*
X45408476Y-40036762D01*
X45446572Y-40074857D01*
X45484667Y-40151048D01*
X45484667Y-40341524D01*
X45446572Y-40417714D01*
X45408476Y-40455810D01*
X45332286Y-40493905D01*
X45141810Y-40493905D01*
X45065619Y-40455810D01*
X45027524Y-40417714D01*
D12*
X75425334Y-43249905D02*
X75425334Y-43821333D01*
X75387238Y-43935619D01*
X75311048Y-44011810D01*
X75196762Y-44049905D01*
X75120572Y-44049905D01*
X75768191Y-43326095D02*
X75806286Y-43288000D01*
X75882477Y-43249905D01*
X76072953Y-43249905D01*
X76149143Y-43288000D01*
X76187239Y-43326095D01*
X76225334Y-43402286D01*
X76225334Y-43478476D01*
X76187239Y-43592762D01*
X75730096Y-44049905D01*
X76225334Y-44049905D01*
X79063905Y-48011905D02*
X79635333Y-48011905D01*
X79749619Y-48050001D01*
X79825810Y-48126191D01*
X79863905Y-48240477D01*
X79863905Y-48316667D01*
X79635333Y-47669048D02*
X79635333Y-47288096D01*
X79863905Y-47745239D02*
X79063905Y-47478572D01*
X79863905Y-47211905D01*
X79787714Y-46488096D02*
X79825810Y-46526191D01*
X79863905Y-46640477D01*
X79863905Y-46716667D01*
X79825810Y-46830953D01*
X79749619Y-46907144D01*
X79673429Y-46945239D01*
X79521048Y-46983334D01*
X79406762Y-46983334D01*
X79254381Y-46945239D01*
X79178190Y-46907144D01*
X79102000Y-46830953D01*
X79063905Y-46716667D01*
X79063905Y-46640477D01*
X79102000Y-46526191D01*
X79140095Y-46488096D01*
X79863905Y-46145239D02*
X79063905Y-46145239D01*
X79863905Y-45688096D02*
X79406762Y-46030953D01*
X79063905Y-45688096D02*
X79521048Y-46145239D01*
X79940095Y-45535715D02*
X79940095Y-44926191D01*
X79825810Y-44773810D02*
X79863905Y-44659524D01*
X79863905Y-44469048D01*
X79825810Y-44392858D01*
X79787714Y-44354762D01*
X79711524Y-44316667D01*
X79635333Y-44316667D01*
X79559143Y-44354762D01*
X79521048Y-44392858D01*
X79482952Y-44469048D01*
X79444857Y-44621429D01*
X79406762Y-44697620D01*
X79368667Y-44735715D01*
X79292476Y-44773810D01*
X79216286Y-44773810D01*
X79140095Y-44735715D01*
X79102000Y-44697620D01*
X79063905Y-44621429D01*
X79063905Y-44430953D01*
X79102000Y-44316667D01*
X79063905Y-44088096D02*
X79063905Y-43630953D01*
X79863905Y-43859524D02*
X79063905Y-43859524D01*
X79444857Y-43364286D02*
X79444857Y-43097619D01*
X79863905Y-42983333D02*
X79863905Y-43364286D01*
X79063905Y-43364286D01*
X79063905Y-42983333D01*
X79863905Y-42183333D02*
X79482952Y-42450000D01*
X79863905Y-42640476D02*
X79063905Y-42640476D01*
X79063905Y-42335714D01*
X79102000Y-42259523D01*
X79140095Y-42221428D01*
X79216286Y-42183333D01*
X79330571Y-42183333D01*
X79406762Y-42221428D01*
X79444857Y-42259523D01*
X79482952Y-42335714D01*
X79482952Y-42640476D01*
X79444857Y-41840476D02*
X79444857Y-41573809D01*
X79863905Y-41459523D02*
X79863905Y-41840476D01*
X79063905Y-41840476D01*
X79063905Y-41459523D01*
X79063905Y-40964285D02*
X79063905Y-40811904D01*
X79102000Y-40735713D01*
X79178190Y-40659523D01*
X79330571Y-40621428D01*
X79597238Y-40621428D01*
X79749619Y-40659523D01*
X79825810Y-40735713D01*
X79863905Y-40811904D01*
X79863905Y-40964285D01*
X79825810Y-41040475D01*
X79749619Y-41116666D01*
X79597238Y-41154761D01*
X79330571Y-41154761D01*
X79178190Y-41116666D01*
X79102000Y-41040475D01*
X79063905Y-40964285D01*
D10*
X36950667Y-38461905D02*
X36684000Y-38080952D01*
X36493524Y-38461905D02*
X36493524Y-37661905D01*
X36798286Y-37661905D01*
X36874477Y-37700000D01*
X36912572Y-37738095D01*
X36950667Y-37814286D01*
X36950667Y-37928571D01*
X36912572Y-38004762D01*
X36874477Y-38042857D01*
X36798286Y-38080952D01*
X36493524Y-38080952D01*
X37712572Y-38461905D02*
X37255429Y-38461905D01*
X37484000Y-38461905D02*
X37484000Y-37661905D01*
X37407810Y-37776190D01*
X37331619Y-37852381D01*
X37255429Y-37890476D01*
X37496762Y-51601619D02*
X37401524Y-51554000D01*
X37306286Y-51458762D01*
X37163429Y-51315905D01*
X37068190Y-51268286D01*
X36972952Y-51268286D01*
X37020571Y-51506381D02*
X36925333Y-51458762D01*
X36830095Y-51363524D01*
X36782476Y-51173048D01*
X36782476Y-50839714D01*
X36830095Y-50649238D01*
X36925333Y-50554000D01*
X37020571Y-50506381D01*
X37211048Y-50506381D01*
X37306286Y-50554000D01*
X37401524Y-50649238D01*
X37449143Y-50839714D01*
X37449143Y-51173048D01*
X37401524Y-51363524D01*
X37306286Y-51458762D01*
X37211048Y-51506381D01*
X37020571Y-51506381D01*
X38401524Y-51506381D02*
X37830095Y-51506381D01*
X38115809Y-51506381D02*
X38115809Y-50506381D01*
X38020571Y-50649238D01*
X37925333Y-50744476D01*
X37830095Y-50792095D01*
X37508543Y-49090943D02*
X37544829Y-49127229D01*
X37581114Y-49236086D01*
X37581114Y-49308657D01*
X37544829Y-49417514D01*
X37472257Y-49490086D01*
X37399686Y-49526371D01*
X37254543Y-49562657D01*
X37145686Y-49562657D01*
X37000543Y-49526371D01*
X36927971Y-49490086D01*
X36855400Y-49417514D01*
X36819114Y-49308657D01*
X36819114Y-49236086D01*
X36855400Y-49127229D01*
X36891686Y-49090943D01*
X31365371Y-49439285D02*
X31365371Y-49185285D01*
X31764514Y-49076428D02*
X31764514Y-49439285D01*
X31002514Y-49439285D01*
X31002514Y-49076428D01*
X72294762Y-51347619D02*
X72199524Y-51300000D01*
X72104286Y-51204762D01*
X71961429Y-51061905D01*
X71866190Y-51014286D01*
X71770952Y-51014286D01*
X71818571Y-51252381D02*
X71723333Y-51204762D01*
X71628095Y-51109524D01*
X71580476Y-50919048D01*
X71580476Y-50585714D01*
X71628095Y-50395238D01*
X71723333Y-50300000D01*
X71818571Y-50252381D01*
X72009048Y-50252381D01*
X72104286Y-50300000D01*
X72199524Y-50395238D01*
X72247143Y-50585714D01*
X72247143Y-50919048D01*
X72199524Y-51109524D01*
X72104286Y-51204762D01*
X72009048Y-51252381D01*
X71818571Y-51252381D01*
X72628095Y-50347619D02*
X72675714Y-50300000D01*
X72770952Y-50252381D01*
X73009048Y-50252381D01*
X73104286Y-50300000D01*
X73151905Y-50347619D01*
X73199524Y-50442857D01*
X73199524Y-50538095D01*
X73151905Y-50680952D01*
X72580476Y-51252381D01*
X73199524Y-51252381D01*
X56508667Y-41179714D02*
X56470572Y-41217810D01*
X56356286Y-41255905D01*
X56280096Y-41255905D01*
X56165810Y-41217810D01*
X56089619Y-41141619D01*
X56051524Y-41065429D01*
X56013429Y-40913048D01*
X56013429Y-40798762D01*
X56051524Y-40646381D01*
X56089619Y-40570190D01*
X56165810Y-40494000D01*
X56280096Y-40455905D01*
X56356286Y-40455905D01*
X56470572Y-40494000D01*
X56508667Y-40532095D01*
X57270572Y-41255905D02*
X56813429Y-41255905D01*
X57042000Y-41255905D02*
X57042000Y-40455905D01*
X56965810Y-40570190D01*
X56889619Y-40646381D01*
X56813429Y-40684476D01*
X64890667Y-51415905D02*
X64624000Y-51034952D01*
X64433524Y-51415905D02*
X64433524Y-50615905D01*
X64738286Y-50615905D01*
X64814477Y-50654000D01*
X64852572Y-50692095D01*
X64890667Y-50768286D01*
X64890667Y-50882571D01*
X64852572Y-50958762D01*
X64814477Y-50996857D01*
X64738286Y-51034952D01*
X64433524Y-51034952D01*
X65195429Y-50692095D02*
X65233524Y-50654000D01*
X65309715Y-50615905D01*
X65500191Y-50615905D01*
X65576381Y-50654000D01*
X65614477Y-50692095D01*
X65652572Y-50768286D01*
X65652572Y-50844476D01*
X65614477Y-50958762D01*
X65157334Y-51415905D01*
X65652572Y-51415905D01*
X63620667Y-43541905D02*
X63354000Y-43160952D01*
X63163524Y-43541905D02*
X63163524Y-42741905D01*
X63468286Y-42741905D01*
X63544477Y-42780000D01*
X63582572Y-42818095D01*
X63620667Y-42894286D01*
X63620667Y-43008571D01*
X63582572Y-43084762D01*
X63544477Y-43122857D01*
X63468286Y-43160952D01*
X63163524Y-43160952D01*
X64306381Y-43008571D02*
X64306381Y-43541905D01*
X64115905Y-42703810D02*
X63925429Y-43275238D01*
X64420667Y-43275238D01*
X63620667Y-46589905D02*
X63354000Y-46208952D01*
X63163524Y-46589905D02*
X63163524Y-45789905D01*
X63468286Y-45789905D01*
X63544477Y-45828000D01*
X63582572Y-45866095D01*
X63620667Y-45942286D01*
X63620667Y-46056571D01*
X63582572Y-46132762D01*
X63544477Y-46170857D01*
X63468286Y-46208952D01*
X63163524Y-46208952D01*
X64344477Y-45789905D02*
X63963524Y-45789905D01*
X63925429Y-46170857D01*
X63963524Y-46132762D01*
X64039715Y-46094667D01*
X64230191Y-46094667D01*
X64306381Y-46132762D01*
X64344477Y-46170857D01*
X64382572Y-46247048D01*
X64382572Y-46437524D01*
X64344477Y-46513714D01*
X64306381Y-46551810D01*
X64230191Y-46589905D01*
X64039715Y-46589905D01*
X63963524Y-46551810D01*
X63925429Y-46513714D01*
X55880095Y-41616381D02*
X55880095Y-42425905D01*
X55927714Y-42521143D01*
X55975333Y-42568762D01*
X56070571Y-42616381D01*
X56261048Y-42616381D01*
X56356286Y-42568762D01*
X56403905Y-42521143D01*
X56451524Y-42425905D01*
X56451524Y-41616381D01*
X57451524Y-42616381D02*
X56880095Y-42616381D01*
X57165809Y-42616381D02*
X57165809Y-41616381D01*
X57070571Y-41759238D01*
X56975333Y-41854476D01*
X56880095Y-41902095D01*
X55880095Y-44918381D02*
X55880095Y-45727905D01*
X55927714Y-45823143D01*
X55975333Y-45870762D01*
X56070571Y-45918381D01*
X56261048Y-45918381D01*
X56356286Y-45870762D01*
X56403905Y-45823143D01*
X56451524Y-45727905D01*
X56451524Y-44918381D01*
X56880095Y-45013619D02*
X56927714Y-44966000D01*
X57022952Y-44918381D01*
X57261048Y-44918381D01*
X57356286Y-44966000D01*
X57403905Y-45013619D01*
X57451524Y-45108857D01*
X57451524Y-45204095D01*
X57403905Y-45346952D01*
X56832476Y-45918381D01*
X57451524Y-45918381D01*
X73018667Y-44735714D02*
X72980572Y-44773810D01*
X72866286Y-44811905D01*
X72790096Y-44811905D01*
X72675810Y-44773810D01*
X72599619Y-44697619D01*
X72561524Y-44621429D01*
X72523429Y-44469048D01*
X72523429Y-44354762D01*
X72561524Y-44202381D01*
X72599619Y-44126190D01*
X72675810Y-44050000D01*
X72790096Y-44011905D01*
X72866286Y-44011905D01*
X72980572Y-44050000D01*
X73018667Y-44088095D01*
X73323429Y-44088095D02*
X73361524Y-44050000D01*
X73437715Y-44011905D01*
X73628191Y-44011905D01*
X73704381Y-44050000D01*
X73742477Y-44088095D01*
X73780572Y-44164286D01*
X73780572Y-44240476D01*
X73742477Y-44354762D01*
X73285334Y-44811905D01*
X73780572Y-44811905D01*
X69932505Y-42259095D02*
X69932505Y-42716238D01*
X69932505Y-42487667D02*
X69132505Y-42487667D01*
X69246790Y-42563857D01*
X69322981Y-42640048D01*
X69361076Y-42716238D01*
X69132505Y-41763857D02*
X69132505Y-41687666D01*
X69170600Y-41611476D01*
X69208695Y-41573381D01*
X69284886Y-41535285D01*
X69437267Y-41497190D01*
X69627743Y-41497190D01*
X69780124Y-41535285D01*
X69856314Y-41573381D01*
X69894410Y-41611476D01*
X69932505Y-41687666D01*
X69932505Y-41763857D01*
X69894410Y-41840047D01*
X69856314Y-41878143D01*
X69780124Y-41916238D01*
X69627743Y-41954333D01*
X69437267Y-41954333D01*
X69284886Y-41916238D01*
X69208695Y-41878143D01*
X69170600Y-41840047D01*
X69132505Y-41763857D01*
X69132505Y-41001952D02*
X69132505Y-40925761D01*
X69170600Y-40849571D01*
X69208695Y-40811476D01*
X69284886Y-40773380D01*
X69437267Y-40735285D01*
X69627743Y-40735285D01*
X69780124Y-40773380D01*
X69856314Y-40811476D01*
X69894410Y-40849571D01*
X69932505Y-40925761D01*
X69932505Y-41001952D01*
X69894410Y-41078142D01*
X69856314Y-41116238D01*
X69780124Y-41154333D01*
X69627743Y-41192428D01*
X69437267Y-41192428D01*
X69284886Y-41154333D01*
X69208695Y-41116238D01*
X69170600Y-41078142D01*
X69132505Y-41001952D01*
X69399171Y-40049571D02*
X69932505Y-40049571D01*
X69399171Y-40392428D02*
X69818219Y-40392428D01*
X69894410Y-40354333D01*
X69932505Y-40278142D01*
X69932505Y-40163856D01*
X69894410Y-40087666D01*
X69856314Y-40049571D01*
X69513457Y-39401951D02*
X69513457Y-39668618D01*
X69932505Y-39668618D02*
X69132505Y-39668618D01*
X69132505Y-39287665D01*
X72510667Y-46005714D02*
X72472572Y-46043810D01*
X72358286Y-46081905D01*
X72282096Y-46081905D01*
X72167810Y-46043810D01*
X72091619Y-45967619D01*
X72053524Y-45891429D01*
X72015429Y-45739048D01*
X72015429Y-45624762D01*
X72053524Y-45472381D01*
X72091619Y-45396190D01*
X72167810Y-45320000D01*
X72282096Y-45281905D01*
X72358286Y-45281905D01*
X72472572Y-45320000D01*
X72510667Y-45358095D01*
X72777334Y-45281905D02*
X73272572Y-45281905D01*
X73005905Y-45586667D01*
X73120191Y-45586667D01*
X73196381Y-45624762D01*
X73234477Y-45662857D01*
X73272572Y-45739048D01*
X73272572Y-45929524D01*
X73234477Y-46005714D01*
X73196381Y-46043810D01*
X73120191Y-46081905D01*
X72891619Y-46081905D01*
X72815429Y-46043810D01*
X72777334Y-46005714D01*
X66160667Y-48621905D02*
X65894000Y-48240952D01*
X65703524Y-48621905D02*
X65703524Y-47821905D01*
X66008286Y-47821905D01*
X66084477Y-47860000D01*
X66122572Y-47898095D01*
X66160667Y-47974286D01*
X66160667Y-48088571D01*
X66122572Y-48164762D01*
X66084477Y-48202857D01*
X66008286Y-48240952D01*
X65703524Y-48240952D01*
X66846381Y-47821905D02*
X66694000Y-47821905D01*
X66617810Y-47860000D01*
X66579715Y-47898095D01*
X66503524Y-48012381D01*
X66465429Y-48164762D01*
X66465429Y-48469524D01*
X66503524Y-48545714D01*
X66541619Y-48583810D01*
X66617810Y-48621905D01*
X66770191Y-48621905D01*
X66846381Y-48583810D01*
X66884477Y-48545714D01*
X66922572Y-48469524D01*
X66922572Y-48279048D01*
X66884477Y-48202857D01*
X66846381Y-48164762D01*
X66770191Y-48126667D01*
X66617810Y-48126667D01*
X66541619Y-48164762D01*
X66503524Y-48202857D01*
X66465429Y-48279048D01*
X63620667Y-48875905D02*
X63354000Y-48494952D01*
X63163524Y-48875905D02*
X63163524Y-48075905D01*
X63468286Y-48075905D01*
X63544477Y-48114000D01*
X63582572Y-48152095D01*
X63620667Y-48228286D01*
X63620667Y-48342571D01*
X63582572Y-48418762D01*
X63544477Y-48456857D01*
X63468286Y-48494952D01*
X63163524Y-48494952D01*
X63887334Y-48075905D02*
X64420667Y-48075905D01*
X64077810Y-48875905D01*
X55880095Y-48220381D02*
X55880095Y-49029905D01*
X55927714Y-49125143D01*
X55975333Y-49172762D01*
X56070571Y-49220381D01*
X56261048Y-49220381D01*
X56356286Y-49172762D01*
X56403905Y-49125143D01*
X56451524Y-49029905D01*
X56451524Y-48220381D01*
X56832476Y-48220381D02*
X57451524Y-48220381D01*
X57118190Y-48601333D01*
X57261048Y-48601333D01*
X57356286Y-48648952D01*
X57403905Y-48696571D01*
X57451524Y-48791810D01*
X57451524Y-49029905D01*
X57403905Y-49125143D01*
X57356286Y-49172762D01*
X57261048Y-49220381D01*
X56975333Y-49220381D01*
X56880095Y-49172762D01*
X56832476Y-49125143D01*
M02*
