G04 #@! TF.FileFunction,Copper,L1,Top,Signal*
%FSLAX46Y46*%
G04 Gerber Fmt 4.6, Leading zero omitted, Abs format (unit mm)*
G04 Created by KiCad (PCBNEW 4.0.7) date 03/31/18 19:25:11*
%MOMM*%
%LPD*%
G01*
G04 APERTURE LIST*
%ADD10C,0.150000*%
%ADD11R,1.700000X0.900000*%
%ADD12C,2.200000*%
%ADD13C,1.600000*%
%ADD14R,2.794000X2.209800*%
%ADD15R,2.794000X2.794000*%
%ADD16C,1.701800*%
%ADD17R,0.635000X1.143000*%
%ADD18R,1.700000X1.700000*%
%ADD19O,1.700000X1.700000*%
%ADD20R,0.900000X0.800000*%
%ADD21R,1.600200X1.803400*%
%ADD22C,5.000000*%
%ADD23R,1.143000X0.635000*%
%ADD24R,0.650000X0.400000*%
%ADD25R,3.599200X1.600200*%
%ADD26C,9.000000*%
%ADD27C,0.889000*%
%ADD28C,0.508000*%
%ADD29C,0.254000*%
%ADD30C,0.762000*%
G04 APERTURE END LIST*
D10*
D11*
X62484000Y-39190000D03*
X62484000Y-42090000D03*
D12*
X37844000Y-47374000D03*
X54104000Y-47374000D03*
D13*
X45474000Y-48394000D03*
X47504000Y-48394000D03*
X44444000Y-46614000D03*
X46474000Y-46614000D03*
X42414000Y-46614000D03*
X43444000Y-48394000D03*
X48504000Y-46614000D03*
X49534000Y-48394000D03*
D14*
X74015600Y-48691800D03*
D15*
X81432400Y-41300400D03*
D14*
X81432400Y-50698400D03*
D16*
X77724000Y-42570400D03*
X77724000Y-49580800D03*
D17*
X39878000Y-39370000D03*
X38354000Y-39370000D03*
D18*
X32766000Y-49784000D03*
D19*
X35306000Y-49784000D03*
D20*
X69358000Y-49596000D03*
X69358000Y-51496000D03*
X71358000Y-50546000D03*
D21*
X56769000Y-40386000D03*
X59563000Y-40386000D03*
D22*
X28448000Y-50292000D03*
X85852000Y-50292000D03*
D17*
X64262000Y-51054000D03*
X65786000Y-51054000D03*
D23*
X62230000Y-43688000D03*
X62230000Y-45212000D03*
X62230000Y-46736000D03*
X62230000Y-48260000D03*
D24*
X58232000Y-42784000D03*
X58232000Y-44084000D03*
X58232000Y-43434000D03*
X60132000Y-44084000D03*
X60132000Y-42784000D03*
X58232000Y-46086000D03*
X58232000Y-47386000D03*
X58232000Y-46736000D03*
X60132000Y-47386000D03*
X60132000Y-46086000D03*
D25*
X72346800Y-42164000D03*
X66845200Y-42164000D03*
D21*
X70739000Y-46990000D03*
X67945000Y-46990000D03*
D26*
X30734000Y-41910000D03*
D22*
X28702000Y-23368000D03*
X85852000Y-23368000D03*
D23*
X67818000Y-49530000D03*
X67818000Y-51054000D03*
X62230000Y-49784000D03*
X62230000Y-51308000D03*
D24*
X58232000Y-49388000D03*
X58232000Y-50688000D03*
X58232000Y-50038000D03*
X60132000Y-50688000D03*
X60132000Y-49388000D03*
D27*
X48006000Y-40386000D03*
X45720000Y-42672000D03*
X62230000Y-52324000D03*
X67818000Y-52070000D03*
X66294000Y-46990000D03*
X68072000Y-43688000D03*
X68326000Y-40386000D03*
X57658000Y-51308000D03*
X57658000Y-48006000D03*
X57658000Y-44704000D03*
X58420000Y-40386000D03*
X59436000Y-38862000D03*
X56388000Y-37846000D03*
X60706000Y-38608000D03*
X56134000Y-49022000D03*
X49530000Y-51308000D03*
X53594000Y-45212000D03*
X47498000Y-44196000D03*
X55118000Y-44958000D03*
D28*
X39878000Y-39370000D02*
X44196000Y-39370000D01*
X48504000Y-43678000D02*
X48504000Y-46614000D01*
X44196000Y-39370000D02*
X48504000Y-43678000D01*
D29*
X64262000Y-51054000D02*
X63754000Y-51054000D01*
X47504000Y-49790000D02*
X47504000Y-48394000D01*
X48006000Y-50292000D02*
X47504000Y-49790000D01*
X49784000Y-50292000D02*
X48006000Y-50292000D01*
X51308000Y-48768000D02*
X49784000Y-50292000D01*
X53594000Y-48768000D02*
X51308000Y-48768000D01*
X57150000Y-52324000D02*
X53594000Y-48768000D01*
X59690000Y-52324000D02*
X57150000Y-52324000D01*
X61468000Y-50546000D02*
X59690000Y-52324000D01*
X63246000Y-50546000D02*
X61468000Y-50546000D01*
X63754000Y-51054000D02*
X63246000Y-50546000D01*
D28*
X48006000Y-40386000D02*
X56769000Y-40386000D01*
X40132000Y-42672000D02*
X45720000Y-42672000D01*
X35306000Y-47498000D02*
X40132000Y-42672000D01*
X35306000Y-49784000D02*
X35306000Y-47498000D01*
X54483000Y-42672000D02*
X56769000Y-40386000D01*
D30*
X56769000Y-40386000D02*
X56769000Y-39243000D01*
X67520800Y-37338000D02*
X72346800Y-42164000D01*
X58674000Y-37338000D02*
X67520800Y-37338000D01*
X56769000Y-39243000D02*
X58674000Y-37338000D01*
X81432400Y-41300400D02*
X81432400Y-41757600D01*
X81432400Y-41757600D02*
X76708000Y-46482000D01*
X76708000Y-46482000D02*
X71247000Y-46482000D01*
X71247000Y-46482000D02*
X70739000Y-46990000D01*
X70739000Y-46990000D02*
X70739000Y-43771800D01*
X70739000Y-43771800D02*
X72346800Y-42164000D01*
D28*
X60132000Y-46086000D02*
X60132000Y-45908000D01*
X60132000Y-45908000D02*
X59182000Y-44958000D01*
X59182000Y-43734000D02*
X60132000Y-42784000D01*
X59182000Y-44958000D02*
X59182000Y-43734000D01*
X60132000Y-49388000D02*
X60056000Y-49388000D01*
X60056000Y-49388000D02*
X59182000Y-48514000D01*
X59182000Y-48514000D02*
X59182000Y-47036000D01*
X59182000Y-47036000D02*
X60132000Y-46086000D01*
X56769000Y-40386000D02*
X56896000Y-40386000D01*
X56896000Y-40386000D02*
X58420000Y-41910000D01*
X59258000Y-41910000D02*
X60132000Y-42784000D01*
X58420000Y-41910000D02*
X59258000Y-41910000D01*
D30*
X49534000Y-48394000D02*
X49534000Y-47621000D01*
X49534000Y-47621000D02*
X56769000Y-40386000D01*
D28*
X56769000Y-40259000D02*
X56769000Y-39878000D01*
D30*
X49534000Y-48394000D02*
X49534000Y-48256000D01*
X62230000Y-51308000D02*
X62230000Y-52324000D01*
X69358000Y-51496000D02*
X68392000Y-51496000D01*
X67818000Y-52070000D02*
X67818000Y-51054000D01*
X68392000Y-51496000D02*
X67818000Y-52070000D01*
X67945000Y-46990000D02*
X66294000Y-46990000D01*
X66845200Y-42164000D02*
X66845200Y-42461200D01*
X66845200Y-42461200D02*
X68072000Y-43688000D01*
X66845200Y-42164000D02*
X66845200Y-41866800D01*
X66845200Y-41866800D02*
X68326000Y-40386000D01*
D29*
X58232000Y-50688000D02*
X58232000Y-50734000D01*
X58232000Y-50734000D02*
X57658000Y-51308000D01*
X58232000Y-47386000D02*
X58232000Y-47432000D01*
X58232000Y-47432000D02*
X57658000Y-48006000D01*
X58232000Y-44084000D02*
X58232000Y-44130000D01*
X58232000Y-44130000D02*
X57658000Y-44704000D01*
D30*
X59563000Y-40386000D02*
X58420000Y-40386000D01*
X59563000Y-40386000D02*
X59563000Y-38989000D01*
X59563000Y-38989000D02*
X59436000Y-38862000D01*
D28*
X59563000Y-39878000D02*
X59563000Y-39751000D01*
D30*
X65575200Y-42164000D02*
X65575200Y-41953200D01*
X65575200Y-42164000D02*
X65575200Y-42120800D01*
X38354000Y-42926000D02*
X38354000Y-39370000D01*
X32766000Y-48514000D02*
X38354000Y-42926000D01*
X32766000Y-49784000D02*
X32766000Y-48514000D01*
D28*
X62484000Y-39190000D02*
X61288000Y-39190000D01*
X38354000Y-38608000D02*
X38354000Y-39370000D01*
X39116000Y-37846000D02*
X38354000Y-38608000D01*
X56388000Y-37846000D02*
X39116000Y-37846000D01*
X61288000Y-39190000D02*
X60706000Y-38608000D01*
X38354000Y-39370000D02*
X38354000Y-38862000D01*
X38354000Y-39370000D02*
X38354000Y-39116000D01*
D30*
X65786000Y-51054000D02*
X65786000Y-50292000D01*
X66548000Y-49530000D02*
X67818000Y-49530000D01*
X65786000Y-50292000D02*
X66548000Y-49530000D01*
X69358000Y-49596000D02*
X67884000Y-49596000D01*
X67884000Y-49596000D02*
X67818000Y-49530000D01*
D29*
X45474000Y-48394000D02*
X45474000Y-50046000D01*
X57404000Y-46736000D02*
X58232000Y-46736000D01*
X56642000Y-47498000D02*
X57404000Y-46736000D01*
X56642000Y-48514000D02*
X56642000Y-47498000D01*
X56134000Y-49022000D02*
X56642000Y-48514000D01*
X46736000Y-51308000D02*
X49530000Y-51308000D01*
X45474000Y-50046000D02*
X46736000Y-51308000D01*
X53594000Y-45212000D02*
X55372000Y-43434000D01*
X55372000Y-43434000D02*
X58232000Y-43434000D01*
D28*
X62230000Y-43688000D02*
X60528000Y-43688000D01*
X60528000Y-43688000D02*
X60132000Y-44084000D01*
X62484000Y-42090000D02*
X62484000Y-43434000D01*
X62484000Y-43434000D02*
X62230000Y-43688000D01*
X62230000Y-46736000D02*
X60782000Y-46736000D01*
X60782000Y-46736000D02*
X60132000Y-47386000D01*
X62230000Y-45212000D02*
X62230000Y-46736000D01*
D30*
X71358000Y-50546000D02*
X71628000Y-50546000D01*
X71628000Y-50546000D02*
X72898000Y-51816000D01*
X72898000Y-51816000D02*
X80314800Y-51816000D01*
X80314800Y-51816000D02*
X81432400Y-50698400D01*
D29*
X58232000Y-50038000D02*
X55880000Y-50038000D01*
X44444000Y-45472000D02*
X44444000Y-46614000D01*
X45720000Y-44196000D02*
X44444000Y-45472000D01*
X47498000Y-44196000D02*
X45720000Y-44196000D01*
X55880000Y-45720000D02*
X55118000Y-44958000D01*
X55880000Y-48006000D02*
X55880000Y-45720000D01*
X55118000Y-48768000D02*
X55880000Y-48006000D01*
X55118000Y-49276000D02*
X55118000Y-48768000D01*
X55880000Y-50038000D02*
X55118000Y-49276000D01*
D28*
X62230000Y-49784000D02*
X60960000Y-49784000D01*
X60960000Y-49784000D02*
X60132000Y-50612000D01*
X60132000Y-50612000D02*
X60132000Y-50688000D01*
X62230000Y-48260000D02*
X62230000Y-49784000D01*
M02*
