M48
;DRILL file {KiCad 4.0.7} date 06/27/18 15:39:18
;FORMAT={-:-/ absolute / inch / decimal}
FMAT,2
INCH,TZ
T1C0.025
T2C0.035
T3C0.039
T4C0.071
T5C0.098
T6C0.177
%
G90
G05
M72
T1
X1.8Y-1.68
X1.87Y-1.74
X1.89Y-1.59
X1.95Y-2.02
X2.11Y-1.78
X2.17Y-1.77
X2.21Y-1.93
X2.22Y-1.49
X2.27Y-1.76
X2.27Y-1.89
X2.27Y-2.02
X2.3Y-1.59
X2.34Y-1.53
X2.39Y-1.52
X2.45Y-2.06
X2.61Y-1.85
X2.67Y-2.05
X2.68Y-1.72
X2.69Y-1.59
T2
X1.6698Y-1.8352
X1.7104Y-1.9053
X1.7498Y-1.8352
X1.7903Y-1.9053
X1.8297Y-1.8352
X1.8702Y-1.9053
X1.9096Y-1.8352
X1.9502Y-1.9053
T3
X1.29Y-1.96
X1.39Y-1.96
T4
X1.4899Y-1.8651
X2.1301Y-1.8651
T5
X1.12Y-0.92
X1.12Y-1.98
X3.38Y-0.92
X3.38Y-1.98
T6
X1.21Y-1.65
T0
M30
