G04 #@! TF.FileFunction,Legend,Top*
%FSLAX46Y46*%
G04 Gerber Fmt 4.6, Leading zero omitted, Abs format (unit mm)*
G04 Created by KiCad (PCBNEW 4.0.5) date 04/03/17 14:34:28*
%MOMM*%
%LPD*%
G01*
G04 APERTURE LIST*
%ADD10C,0.100000*%
%ADD11C,0.152400*%
%ADD12C,0.300000*%
%ADD13C,0.149860*%
%ADD14C,0.120000*%
%ADD15C,0.150000*%
%ADD16C,0.119380*%
G04 APERTURE END LIST*
D10*
D11*
X60581419Y-58813095D02*
X59565419Y-58813095D01*
X59565419Y-58571190D01*
X59613800Y-58426048D01*
X59710562Y-58329286D01*
X59807324Y-58280905D01*
X60000848Y-58232524D01*
X60145990Y-58232524D01*
X60339514Y-58280905D01*
X60436276Y-58329286D01*
X60533038Y-58426048D01*
X60581419Y-58571190D01*
X60581419Y-58813095D01*
X60533038Y-57410048D02*
X60581419Y-57506810D01*
X60581419Y-57700333D01*
X60533038Y-57797095D01*
X60436276Y-57845476D01*
X60049229Y-57845476D01*
X59952467Y-57797095D01*
X59904086Y-57700333D01*
X59904086Y-57506810D01*
X59952467Y-57410048D01*
X60049229Y-57361667D01*
X60145990Y-57361667D01*
X60242752Y-57845476D01*
X59904086Y-57023000D02*
X60581419Y-56781095D01*
X59904086Y-56539191D01*
X60581419Y-55378048D02*
X59565419Y-55378048D01*
X60291133Y-55039382D01*
X59565419Y-54700715D01*
X60581419Y-54700715D01*
X60581419Y-54071762D02*
X60533038Y-54168524D01*
X60484657Y-54216905D01*
X60387895Y-54265286D01*
X60097610Y-54265286D01*
X60000848Y-54216905D01*
X59952467Y-54168524D01*
X59904086Y-54071762D01*
X59904086Y-53926620D01*
X59952467Y-53829858D01*
X60000848Y-53781477D01*
X60097610Y-53733096D01*
X60387895Y-53733096D01*
X60484657Y-53781477D01*
X60533038Y-53829858D01*
X60581419Y-53926620D01*
X60581419Y-54071762D01*
X60581419Y-52862239D02*
X59565419Y-52862239D01*
X60533038Y-52862239D02*
X60581419Y-52959001D01*
X60581419Y-53152524D01*
X60533038Y-53249286D01*
X60484657Y-53297667D01*
X60387895Y-53346048D01*
X60097610Y-53346048D01*
X60000848Y-53297667D01*
X59952467Y-53249286D01*
X59904086Y-53152524D01*
X59904086Y-52959001D01*
X59952467Y-52862239D01*
X59904086Y-51943001D02*
X60581419Y-51943001D01*
X59904086Y-52378429D02*
X60436276Y-52378429D01*
X60533038Y-52330048D01*
X60581419Y-52233286D01*
X60581419Y-52088144D01*
X60533038Y-51991382D01*
X60484657Y-51943001D01*
X60581419Y-51314048D02*
X60533038Y-51410810D01*
X60436276Y-51459191D01*
X59565419Y-51459191D01*
X60533038Y-50539954D02*
X60581419Y-50636716D01*
X60581419Y-50830239D01*
X60533038Y-50927001D01*
X60436276Y-50975382D01*
X60049229Y-50975382D01*
X59952467Y-50927001D01*
X59904086Y-50830239D01*
X59904086Y-50636716D01*
X59952467Y-50539954D01*
X60049229Y-50491573D01*
X60145990Y-50491573D01*
X60242752Y-50975382D01*
X61338581Y-58861476D02*
X61290200Y-58813095D01*
X61241819Y-58716333D01*
X61241819Y-58474429D01*
X61290200Y-58377667D01*
X61338581Y-58329286D01*
X61435343Y-58280905D01*
X61532105Y-58280905D01*
X61677248Y-58329286D01*
X62257819Y-58909857D01*
X62257819Y-58280905D01*
X61241819Y-57651952D02*
X61241819Y-57555191D01*
X61290200Y-57458429D01*
X61338581Y-57410048D01*
X61435343Y-57361667D01*
X61628867Y-57313286D01*
X61870771Y-57313286D01*
X62064295Y-57361667D01*
X62161057Y-57410048D01*
X62209438Y-57458429D01*
X62257819Y-57555191D01*
X62257819Y-57651952D01*
X62209438Y-57748714D01*
X62161057Y-57797095D01*
X62064295Y-57845476D01*
X61870771Y-57893857D01*
X61628867Y-57893857D01*
X61435343Y-57845476D01*
X61338581Y-57797095D01*
X61290200Y-57748714D01*
X61241819Y-57651952D01*
X62257819Y-56345667D02*
X62257819Y-56926238D01*
X62257819Y-56635952D02*
X61241819Y-56635952D01*
X61386962Y-56732714D01*
X61483724Y-56829476D01*
X61532105Y-56926238D01*
X61241819Y-56007000D02*
X61241819Y-55329667D01*
X62257819Y-55765095D01*
X61870771Y-54942619D02*
X61870771Y-54168524D01*
X61241819Y-53491190D02*
X61241819Y-53394429D01*
X61290200Y-53297667D01*
X61338581Y-53249286D01*
X61435343Y-53200905D01*
X61628867Y-53152524D01*
X61870771Y-53152524D01*
X62064295Y-53200905D01*
X62161057Y-53249286D01*
X62209438Y-53297667D01*
X62257819Y-53394429D01*
X62257819Y-53491190D01*
X62209438Y-53587952D01*
X62161057Y-53636333D01*
X62064295Y-53684714D01*
X61870771Y-53733095D01*
X61628867Y-53733095D01*
X61435343Y-53684714D01*
X61338581Y-53636333D01*
X61290200Y-53587952D01*
X61241819Y-53491190D01*
X61580486Y-52281667D02*
X62257819Y-52281667D01*
X61193438Y-52523571D02*
X61919152Y-52765476D01*
X61919152Y-52136524D01*
X61870771Y-51749476D02*
X61870771Y-50975381D01*
X61241819Y-50298047D02*
X61241819Y-50201286D01*
X61290200Y-50104524D01*
X61338581Y-50056143D01*
X61435343Y-50007762D01*
X61628867Y-49959381D01*
X61870771Y-49959381D01*
X62064295Y-50007762D01*
X62161057Y-50056143D01*
X62209438Y-50104524D01*
X62257819Y-50201286D01*
X62257819Y-50298047D01*
X62209438Y-50394809D01*
X62161057Y-50443190D01*
X62064295Y-50491571D01*
X61870771Y-50539952D01*
X61628867Y-50539952D01*
X61435343Y-50491571D01*
X61338581Y-50443190D01*
X61290200Y-50394809D01*
X61241819Y-50298047D01*
X61241819Y-49620714D02*
X61241819Y-48991762D01*
X61628867Y-49330428D01*
X61628867Y-49185286D01*
X61677248Y-49088524D01*
X61725629Y-49040143D01*
X61822390Y-48991762D01*
X62064295Y-48991762D01*
X62161057Y-49040143D01*
X62209438Y-49088524D01*
X62257819Y-49185286D01*
X62257819Y-49475571D01*
X62209438Y-49572333D01*
X62161057Y-49620714D01*
D12*
X28377144Y-33468571D02*
X29305715Y-33468571D01*
X28805715Y-34040000D01*
X29020001Y-34040000D01*
X29162858Y-34111429D01*
X29234287Y-34182857D01*
X29305715Y-34325714D01*
X29305715Y-34682857D01*
X29234287Y-34825714D01*
X29162858Y-34897143D01*
X29020001Y-34968571D01*
X28591429Y-34968571D01*
X28448572Y-34897143D01*
X28377144Y-34825714D01*
X29948572Y-34825714D02*
X30020000Y-34897143D01*
X29948572Y-34968571D01*
X29877143Y-34897143D01*
X29948572Y-34825714D01*
X29948572Y-34968571D01*
X30520001Y-33468571D02*
X31448572Y-33468571D01*
X30948572Y-34040000D01*
X31162858Y-34040000D01*
X31305715Y-34111429D01*
X31377144Y-34182857D01*
X31448572Y-34325714D01*
X31448572Y-34682857D01*
X31377144Y-34825714D01*
X31305715Y-34897143D01*
X31162858Y-34968571D01*
X30734286Y-34968571D01*
X30591429Y-34897143D01*
X30520001Y-34825714D01*
X31877143Y-33468571D02*
X32377143Y-34968571D01*
X32877143Y-33468571D01*
X29948571Y-31000000D02*
X29805714Y-30928571D01*
X29591428Y-30928571D01*
X29377143Y-31000000D01*
X29234285Y-31142857D01*
X29162857Y-31285714D01*
X29091428Y-31571429D01*
X29091428Y-31785714D01*
X29162857Y-32071429D01*
X29234285Y-32214286D01*
X29377143Y-32357143D01*
X29591428Y-32428571D01*
X29734285Y-32428571D01*
X29948571Y-32357143D01*
X30020000Y-32285714D01*
X30020000Y-31785714D01*
X29734285Y-31785714D01*
X30662857Y-31428571D02*
X30662857Y-32428571D01*
X30662857Y-31571429D02*
X30734285Y-31500000D01*
X30877143Y-31428571D01*
X31091428Y-31428571D01*
X31234285Y-31500000D01*
X31305714Y-31642857D01*
X31305714Y-32428571D01*
X32662857Y-32428571D02*
X32662857Y-30928571D01*
X32662857Y-32357143D02*
X32520000Y-32428571D01*
X32234286Y-32428571D01*
X32091428Y-32357143D01*
X32020000Y-32285714D01*
X31948571Y-32142857D01*
X31948571Y-31714286D01*
X32020000Y-31571429D01*
X32091428Y-31500000D01*
X32234286Y-31428571D01*
X32520000Y-31428571D01*
X32662857Y-31500000D01*
X60368571Y-38131428D02*
X58868571Y-38131428D01*
X58868571Y-37774285D01*
X58940000Y-37560000D01*
X59082857Y-37417142D01*
X59225714Y-37345714D01*
X59511429Y-37274285D01*
X59725714Y-37274285D01*
X60011429Y-37345714D01*
X60154286Y-37417142D01*
X60297143Y-37560000D01*
X60368571Y-37774285D01*
X60368571Y-38131428D01*
X59368571Y-35988571D02*
X60368571Y-35988571D01*
X58797143Y-36345714D02*
X59868571Y-36702857D01*
X59868571Y-35774285D01*
X57828571Y-38131428D02*
X56328571Y-38131428D01*
X56328571Y-37774285D01*
X56400000Y-37560000D01*
X56542857Y-37417142D01*
X56685714Y-37345714D01*
X56971429Y-37274285D01*
X57185714Y-37274285D01*
X57471429Y-37345714D01*
X57614286Y-37417142D01*
X57757143Y-37560000D01*
X57828571Y-37774285D01*
X57828571Y-38131428D01*
X56328571Y-36774285D02*
X56328571Y-35845714D01*
X56900000Y-36345714D01*
X56900000Y-36131428D01*
X56971429Y-35988571D01*
X57042857Y-35917142D01*
X57185714Y-35845714D01*
X57542857Y-35845714D01*
X57685714Y-35917142D01*
X57757143Y-35988571D01*
X57828571Y-36131428D01*
X57828571Y-36560000D01*
X57757143Y-36702857D01*
X57685714Y-36774285D01*
X55288571Y-37417143D02*
X53788571Y-37417143D01*
X55288571Y-36702857D02*
X53788571Y-36702857D01*
X53788571Y-36345714D01*
X53860000Y-36131429D01*
X54002857Y-35988571D01*
X54145714Y-35917143D01*
X54431429Y-35845714D01*
X54645714Y-35845714D01*
X54931429Y-35917143D01*
X55074286Y-35988571D01*
X55217143Y-36131429D01*
X55288571Y-36345714D01*
X55288571Y-36702857D01*
X51248571Y-40202856D02*
X51248571Y-39274285D01*
X51820000Y-39774285D01*
X51820000Y-39559999D01*
X51891429Y-39417142D01*
X51962857Y-39345713D01*
X52105714Y-39274285D01*
X52462857Y-39274285D01*
X52605714Y-39345713D01*
X52677143Y-39417142D01*
X52748571Y-39559999D01*
X52748571Y-39988571D01*
X52677143Y-40131428D01*
X52605714Y-40202856D01*
X52605714Y-38631428D02*
X52677143Y-38560000D01*
X52748571Y-38631428D01*
X52677143Y-38702857D01*
X52605714Y-38631428D01*
X52748571Y-38631428D01*
X51248571Y-38059999D02*
X51248571Y-37131428D01*
X51820000Y-37631428D01*
X51820000Y-37417142D01*
X51891429Y-37274285D01*
X51962857Y-37202856D01*
X52105714Y-37131428D01*
X52462857Y-37131428D01*
X52605714Y-37202856D01*
X52677143Y-37274285D01*
X52748571Y-37417142D01*
X52748571Y-37845714D01*
X52677143Y-37988571D01*
X52605714Y-38059999D01*
X51248571Y-36702857D02*
X52748571Y-36202857D01*
X51248571Y-35702857D01*
X60368571Y-30122857D02*
X58868571Y-30122857D01*
X58868571Y-29765714D01*
X58940000Y-29551429D01*
X59082857Y-29408571D01*
X59225714Y-29337143D01*
X59511429Y-29265714D01*
X59725714Y-29265714D01*
X60011429Y-29337143D01*
X60154286Y-29408571D01*
X60297143Y-29551429D01*
X60368571Y-29765714D01*
X60368571Y-30122857D01*
X59011429Y-28694286D02*
X58940000Y-28622857D01*
X58868571Y-28480000D01*
X58868571Y-28122857D01*
X58940000Y-27980000D01*
X59011429Y-27908571D01*
X59154286Y-27837143D01*
X59297143Y-27837143D01*
X59511429Y-27908571D01*
X60368571Y-28765714D01*
X60368571Y-27837143D01*
X57828571Y-30122857D02*
X56328571Y-30122857D01*
X56328571Y-29765714D01*
X56400000Y-29551429D01*
X56542857Y-29408571D01*
X56685714Y-29337143D01*
X56971429Y-29265714D01*
X57185714Y-29265714D01*
X57471429Y-29337143D01*
X57614286Y-29408571D01*
X57757143Y-29551429D01*
X57828571Y-29765714D01*
X57828571Y-30122857D01*
X57828571Y-27837143D02*
X57828571Y-28694286D01*
X57828571Y-28265714D02*
X56328571Y-28265714D01*
X56542857Y-28408571D01*
X56685714Y-28551429D01*
X56757143Y-28694286D01*
X54860000Y-30194286D02*
X54860000Y-29480000D01*
X55288571Y-30337143D02*
X53788571Y-29837143D01*
X55288571Y-29337143D01*
X53788571Y-28551429D02*
X53788571Y-28408572D01*
X53860000Y-28265715D01*
X53931429Y-28194286D01*
X54074286Y-28122857D01*
X54360000Y-28051429D01*
X54717143Y-28051429D01*
X55002857Y-28122857D01*
X55145714Y-28194286D01*
X55217143Y-28265715D01*
X55288571Y-28408572D01*
X55288571Y-28551429D01*
X55217143Y-28694286D01*
X55145714Y-28765715D01*
X55002857Y-28837143D01*
X54717143Y-28908572D01*
X54360000Y-28908572D01*
X54074286Y-28837143D01*
X53931429Y-28765715D01*
X53860000Y-28694286D01*
X53788571Y-28551429D01*
X51320000Y-29337143D02*
X51248571Y-29480000D01*
X51248571Y-29694286D01*
X51320000Y-29908571D01*
X51462857Y-30051429D01*
X51605714Y-30122857D01*
X51891429Y-30194286D01*
X52105714Y-30194286D01*
X52391429Y-30122857D01*
X52534286Y-30051429D01*
X52677143Y-29908571D01*
X52748571Y-29694286D01*
X52748571Y-29551429D01*
X52677143Y-29337143D01*
X52605714Y-29265714D01*
X52105714Y-29265714D01*
X52105714Y-29551429D01*
X51748571Y-28622857D02*
X52748571Y-28622857D01*
X51891429Y-28622857D02*
X51820000Y-28551429D01*
X51748571Y-28408571D01*
X51748571Y-28194286D01*
X51820000Y-28051429D01*
X51962857Y-27980000D01*
X52748571Y-27980000D01*
X52748571Y-26622857D02*
X51248571Y-26622857D01*
X52677143Y-26622857D02*
X52748571Y-26765714D01*
X52748571Y-27051428D01*
X52677143Y-27194286D01*
X52605714Y-27265714D01*
X52462857Y-27337143D01*
X52034286Y-27337143D01*
X51891429Y-27265714D01*
X51820000Y-27194286D01*
X51748571Y-27051428D01*
X51748571Y-26765714D01*
X51820000Y-26622857D01*
D13*
X53162200Y-50596800D02*
X53162200Y-48463200D01*
X48437800Y-48463200D02*
X53162200Y-48463200D01*
X53136800Y-50596800D02*
X48437800Y-50596800D01*
X48437800Y-50596800D02*
X48437800Y-48463200D01*
D11*
X32562800Y-63500000D02*
X32562800Y-61112400D01*
X32562800Y-57251600D02*
X32562800Y-48996600D01*
X38557200Y-49580800D02*
X38557200Y-48996600D01*
X38557200Y-59182000D02*
X38557200Y-54000400D01*
X38557200Y-63500000D02*
X38557200Y-63017400D01*
X38176200Y-63500000D02*
X38176200Y-65989200D01*
X38176200Y-65989200D02*
X32943800Y-65989200D01*
X32943800Y-65989200D02*
X32943800Y-63500000D01*
X32562800Y-48996600D02*
X38557200Y-48996600D01*
X38557200Y-63500000D02*
X32562800Y-63500000D01*
D13*
X42925000Y-65920000D02*
X42925000Y-50920000D01*
X42925000Y-50920000D02*
X58675000Y-50920000D01*
X58675000Y-50920000D02*
X58675000Y-65920000D01*
X58675000Y-65920000D02*
X42925000Y-65920000D01*
D14*
X53340000Y-30420000D02*
X61020000Y-30420000D01*
X61020000Y-30420000D02*
X61020000Y-35620000D01*
X61020000Y-35620000D02*
X50740000Y-35620000D01*
X50740000Y-35620000D02*
X50740000Y-33020000D01*
X50740000Y-33020000D02*
X53340000Y-33020000D01*
X53340000Y-33020000D02*
X53340000Y-30420000D01*
X52070000Y-30420000D02*
X50740000Y-30420000D01*
X50740000Y-30420000D02*
X50740000Y-31690000D01*
X35560000Y-30420000D02*
X43240000Y-30420000D01*
X43240000Y-30420000D02*
X43240000Y-35620000D01*
X43240000Y-35620000D02*
X32960000Y-35620000D01*
X32960000Y-35620000D02*
X32960000Y-33020000D01*
X32960000Y-33020000D02*
X35560000Y-33020000D01*
X35560000Y-33020000D02*
X35560000Y-30420000D01*
X34290000Y-30420000D02*
X32960000Y-30420000D01*
X32960000Y-30420000D02*
X32960000Y-31690000D01*
D13*
X48488600Y-42341800D02*
X45491400Y-42341800D01*
X45491400Y-42341800D02*
X45491400Y-41478200D01*
X45491400Y-41478200D02*
X48488600Y-41478200D01*
X48488600Y-41478200D02*
X48488600Y-42341800D01*
D15*
X53968667Y-49815714D02*
X53930572Y-49853810D01*
X53816286Y-49891905D01*
X53740096Y-49891905D01*
X53625810Y-49853810D01*
X53549619Y-49777619D01*
X53511524Y-49701429D01*
X53473429Y-49549048D01*
X53473429Y-49434762D01*
X53511524Y-49282381D01*
X53549619Y-49206190D01*
X53625810Y-49130000D01*
X53740096Y-49091905D01*
X53816286Y-49091905D01*
X53930572Y-49130000D01*
X53968667Y-49168095D01*
X54730572Y-49891905D02*
X54273429Y-49891905D01*
X54502000Y-49891905D02*
X54502000Y-49091905D01*
X54425810Y-49206190D01*
X54349619Y-49282381D01*
X54273429Y-49320476D01*
D11*
X31311905Y-61861666D02*
X31883333Y-61861666D01*
X31997619Y-61899762D01*
X32073810Y-61975952D01*
X32111905Y-62090238D01*
X32111905Y-62166428D01*
X32111905Y-61061666D02*
X32111905Y-61518809D01*
X32111905Y-61290238D02*
X31311905Y-61290238D01*
X31426190Y-61366428D01*
X31502381Y-61442619D01*
X31540476Y-61518809D01*
X36899905Y-59695905D02*
X37471333Y-59695905D01*
X37585619Y-59734001D01*
X37661810Y-59810191D01*
X37699905Y-59924477D01*
X37699905Y-60000667D01*
X37471333Y-59353048D02*
X37471333Y-58972096D01*
X37699905Y-59429239D02*
X36899905Y-59162572D01*
X37699905Y-58895905D01*
X37623714Y-58172096D02*
X37661810Y-58210191D01*
X37699905Y-58324477D01*
X37699905Y-58400667D01*
X37661810Y-58514953D01*
X37585619Y-58591144D01*
X37509429Y-58629239D01*
X37357048Y-58667334D01*
X37242762Y-58667334D01*
X37090381Y-58629239D01*
X37014190Y-58591144D01*
X36938000Y-58514953D01*
X36899905Y-58400667D01*
X36899905Y-58324477D01*
X36938000Y-58210191D01*
X36976095Y-58172096D01*
X37699905Y-57829239D02*
X36899905Y-57829239D01*
X37699905Y-57372096D02*
X37242762Y-57714953D01*
X36899905Y-57372096D02*
X37357048Y-57829239D01*
X37776095Y-57219715D02*
X37776095Y-56610191D01*
X37661810Y-56457810D02*
X37699905Y-56343524D01*
X37699905Y-56153048D01*
X37661810Y-56076858D01*
X37623714Y-56038762D01*
X37547524Y-56000667D01*
X37471333Y-56000667D01*
X37395143Y-56038762D01*
X37357048Y-56076858D01*
X37318952Y-56153048D01*
X37280857Y-56305429D01*
X37242762Y-56381620D01*
X37204667Y-56419715D01*
X37128476Y-56457810D01*
X37052286Y-56457810D01*
X36976095Y-56419715D01*
X36938000Y-56381620D01*
X36899905Y-56305429D01*
X36899905Y-56114953D01*
X36938000Y-56000667D01*
X36899905Y-55772096D02*
X36899905Y-55314953D01*
X37699905Y-55543524D02*
X36899905Y-55543524D01*
X37280857Y-55048286D02*
X37280857Y-54781619D01*
X37699905Y-54667333D02*
X37699905Y-55048286D01*
X36899905Y-55048286D01*
X36899905Y-54667333D01*
X37699905Y-53867333D02*
X37318952Y-54134000D01*
X37699905Y-54324476D02*
X36899905Y-54324476D01*
X36899905Y-54019714D01*
X36938000Y-53943523D01*
X36976095Y-53905428D01*
X37052286Y-53867333D01*
X37166571Y-53867333D01*
X37242762Y-53905428D01*
X37280857Y-53943523D01*
X37318952Y-54019714D01*
X37318952Y-54324476D01*
X37280857Y-53524476D02*
X37280857Y-53257809D01*
X37699905Y-53143523D02*
X37699905Y-53524476D01*
X36899905Y-53524476D01*
X36899905Y-53143523D01*
X36899905Y-52648285D02*
X36899905Y-52495904D01*
X36938000Y-52419713D01*
X37014190Y-52343523D01*
X37166571Y-52305428D01*
X37433238Y-52305428D01*
X37585619Y-52343523D01*
X37661810Y-52419713D01*
X37699905Y-52495904D01*
X37699905Y-52648285D01*
X37661810Y-52724475D01*
X37585619Y-52800666D01*
X37433238Y-52838761D01*
X37166571Y-52838761D01*
X37014190Y-52800666D01*
X36938000Y-52724475D01*
X36899905Y-52648285D01*
D15*
X58153334Y-49853905D02*
X58153334Y-50425333D01*
X58115238Y-50539619D01*
X58039048Y-50615810D01*
X57924762Y-50653905D01*
X57848572Y-50653905D01*
X58496191Y-49930095D02*
X58534286Y-49892000D01*
X58610477Y-49853905D01*
X58800953Y-49853905D01*
X58877143Y-49892000D01*
X58915239Y-49930095D01*
X58953334Y-50006286D01*
X58953334Y-50082476D01*
X58915239Y-50196762D01*
X58458096Y-50653905D01*
X58953334Y-50653905D01*
X43682000Y-51377905D02*
X43682000Y-51949333D01*
X43643904Y-52063619D01*
X43567714Y-52139810D01*
X43453428Y-52177905D01*
X43377238Y-52177905D01*
X44024857Y-51949333D02*
X44405809Y-51949333D01*
X43948666Y-52177905D02*
X44215333Y-51377905D01*
X44482000Y-52177905D01*
X45205809Y-52101714D02*
X45167714Y-52139810D01*
X45053428Y-52177905D01*
X44977238Y-52177905D01*
X44862952Y-52139810D01*
X44786761Y-52063619D01*
X44748666Y-51987429D01*
X44710571Y-51835048D01*
X44710571Y-51720762D01*
X44748666Y-51568381D01*
X44786761Y-51492190D01*
X44862952Y-51416000D01*
X44977238Y-51377905D01*
X45053428Y-51377905D01*
X45167714Y-51416000D01*
X45205809Y-51454095D01*
X45548666Y-52177905D02*
X45548666Y-51377905D01*
X46005809Y-52177905D02*
X45662952Y-51720762D01*
X46005809Y-51377905D02*
X45548666Y-51835048D01*
X46158190Y-52254095D02*
X46767714Y-52254095D01*
X47415333Y-52177905D02*
X47148666Y-51796952D01*
X46958190Y-52177905D02*
X46958190Y-51377905D01*
X47262952Y-51377905D01*
X47339143Y-51416000D01*
X47377238Y-51454095D01*
X47415333Y-51530286D01*
X47415333Y-51644571D01*
X47377238Y-51720762D01*
X47339143Y-51758857D01*
X47262952Y-51796952D01*
X46958190Y-51796952D01*
X47986762Y-51377905D02*
X47986762Y-51949333D01*
X47948666Y-52063619D01*
X47872476Y-52139810D01*
X47758190Y-52177905D01*
X47682000Y-52177905D01*
X48710571Y-51644571D02*
X48710571Y-52177905D01*
X48520095Y-51339810D02*
X48329619Y-51911238D01*
X48824857Y-51911238D01*
X49510572Y-51377905D02*
X49129619Y-51377905D01*
X49091524Y-51758857D01*
X49129619Y-51720762D01*
X49205810Y-51682667D01*
X49396286Y-51682667D01*
X49472476Y-51720762D01*
X49510572Y-51758857D01*
X49548667Y-51835048D01*
X49548667Y-52025524D01*
X49510572Y-52101714D01*
X49472476Y-52139810D01*
X49396286Y-52177905D01*
X49205810Y-52177905D01*
X49129619Y-52139810D01*
X49091524Y-52101714D01*
X50192381Y-33758095D02*
X49192381Y-33758095D01*
X49192381Y-33377142D01*
X49240000Y-33281904D01*
X49287619Y-33234285D01*
X49382857Y-33186666D01*
X49525714Y-33186666D01*
X49620952Y-33234285D01*
X49668571Y-33281904D01*
X49716190Y-33377142D01*
X49716190Y-33758095D01*
X50192381Y-32234285D02*
X50192381Y-32805714D01*
X50192381Y-32520000D02*
X49192381Y-32520000D01*
X49335238Y-32615238D01*
X49430476Y-32710476D01*
X49478095Y-32805714D01*
X44902381Y-33758095D02*
X43902381Y-33758095D01*
X43902381Y-33377142D01*
X43950000Y-33281904D01*
X43997619Y-33234285D01*
X44092857Y-33186666D01*
X44235714Y-33186666D01*
X44330952Y-33234285D01*
X44378571Y-33281904D01*
X44426190Y-33377142D01*
X44426190Y-33758095D01*
X43997619Y-32805714D02*
X43950000Y-32758095D01*
X43902381Y-32662857D01*
X43902381Y-32424761D01*
X43950000Y-32329523D01*
X43997619Y-32281904D01*
X44092857Y-32234285D01*
X44188095Y-32234285D01*
X44330952Y-32281904D01*
X44902381Y-32853333D01*
X44902381Y-32234285D01*
D16*
X38517286Y-48078571D02*
X38481000Y-48151143D01*
X38408429Y-48223714D01*
X38299571Y-48332571D01*
X38263286Y-48405143D01*
X38263286Y-48477714D01*
X38444714Y-48441429D02*
X38408429Y-48514000D01*
X38335857Y-48586571D01*
X38190714Y-48622857D01*
X37936714Y-48622857D01*
X37791571Y-48586571D01*
X37719000Y-48514000D01*
X37682714Y-48441429D01*
X37682714Y-48296286D01*
X37719000Y-48223714D01*
X37791571Y-48151143D01*
X37936714Y-48114857D01*
X38190714Y-48114857D01*
X38335857Y-48151143D01*
X38408429Y-48223714D01*
X38444714Y-48296286D01*
X38444714Y-48441429D01*
X38444714Y-47389143D02*
X38444714Y-47824571D01*
X38444714Y-47606857D02*
X37682714Y-47606857D01*
X37791571Y-47679428D01*
X37864143Y-47752000D01*
X37900429Y-47824571D01*
D15*
X47650476Y-42487905D02*
X47650476Y-43135524D01*
X47688571Y-43211714D01*
X47726667Y-43249810D01*
X47802857Y-43287905D01*
X47955238Y-43287905D01*
X48031429Y-43249810D01*
X48069524Y-43211714D01*
X48107619Y-43135524D01*
X48107619Y-42487905D01*
X48907619Y-43287905D02*
X48450476Y-43287905D01*
X48679047Y-43287905D02*
X48679047Y-42487905D01*
X48602857Y-42602190D01*
X48526666Y-42678381D01*
X48450476Y-42716476D01*
X49663305Y-44398952D02*
X49663305Y-44856095D01*
X49663305Y-44627524D02*
X48863305Y-44627524D01*
X48977590Y-44703714D01*
X49053781Y-44779905D01*
X49091876Y-44856095D01*
X49663305Y-43637047D02*
X49663305Y-44094190D01*
X49663305Y-43865619D02*
X48863305Y-43865619D01*
X48977590Y-43941809D01*
X49053781Y-44018000D01*
X49091876Y-44094190D01*
X49434733Y-43332285D02*
X49434733Y-42951333D01*
X49663305Y-43408476D02*
X48863305Y-43141809D01*
X49663305Y-42875142D01*
X49434733Y-42646571D02*
X49434733Y-42265619D01*
X49663305Y-42722762D02*
X48863305Y-42456095D01*
X49663305Y-42189428D01*
X49663305Y-41503714D02*
X49663305Y-41960857D01*
X49663305Y-41732286D02*
X48863305Y-41732286D01*
X48977590Y-41808476D01*
X49053781Y-41884667D01*
X49091876Y-41960857D01*
X48863305Y-40818000D02*
X48863305Y-40970381D01*
X48901400Y-41046571D01*
X48939495Y-41084666D01*
X49053781Y-41160857D01*
X49206162Y-41198952D01*
X49510924Y-41198952D01*
X49587114Y-41160857D01*
X49625210Y-41122762D01*
X49663305Y-41046571D01*
X49663305Y-40894190D01*
X49625210Y-40818000D01*
X49587114Y-40779904D01*
X49510924Y-40741809D01*
X49320448Y-40741809D01*
X49244257Y-40779904D01*
X49206162Y-40818000D01*
X49168067Y-40894190D01*
X49168067Y-41046571D01*
X49206162Y-41122762D01*
X49244257Y-41160857D01*
X49320448Y-41198952D01*
X48863305Y-40246571D02*
X48863305Y-40170380D01*
X48901400Y-40094190D01*
X48939495Y-40056095D01*
X49015686Y-40017999D01*
X49168067Y-39979904D01*
X49358543Y-39979904D01*
X49510924Y-40017999D01*
X49587114Y-40056095D01*
X49625210Y-40094190D01*
X49663305Y-40170380D01*
X49663305Y-40246571D01*
X49625210Y-40322761D01*
X49587114Y-40360857D01*
X49510924Y-40398952D01*
X49358543Y-40437047D01*
X49168067Y-40437047D01*
X49015686Y-40398952D01*
X48939495Y-40360857D01*
X48901400Y-40322761D01*
X48863305Y-40246571D01*
M02*
