G04 #@! TF.FileFunction,Copper,L1,Top,Signal*
%FSLAX46Y46*%
G04 Gerber Fmt 4.6, Leading zero omitted, Abs format (unit mm)*
G04 Created by KiCad (PCBNEW 4.0.5) date 04/03/17 14:34:28*
%MOMM*%
%LPD*%
G01*
G04 APERTURE LIST*
%ADD10C,0.100000*%
%ADD11R,1.600200X1.803400*%
%ADD12R,2.794000X2.209800*%
%ADD13R,2.794000X2.794000*%
%ADD14C,1.701800*%
%ADD15C,1.600000*%
%ADD16R,1.700000X1.700000*%
%ADD17O,1.700000X1.700000*%
%ADD18R,1.400000X1.200000*%
%ADD19R,1.400000X2.800000*%
%ADD20R,0.599400X1.000800*%
%ADD21C,7.000000*%
%ADD22C,0.762000*%
%ADD23C,0.254000*%
G04 APERTURE END LIST*
D10*
D11*
X52197000Y-49530000D03*
X49403000Y-49530000D03*
D12*
X31851600Y-59105800D03*
D13*
X39268400Y-51714400D03*
D12*
X39268400Y-61112400D03*
D14*
X35560000Y-52984400D03*
X35560000Y-59994800D03*
D15*
X50300000Y-58300000D03*
X52330000Y-58300000D03*
X49270000Y-56520000D03*
X51300000Y-56520000D03*
X47240000Y-56520000D03*
X48270000Y-58300000D03*
X53330000Y-56520000D03*
X54360000Y-58300000D03*
D16*
X52070000Y-31750000D03*
D17*
X52070000Y-34290000D03*
X54610000Y-31750000D03*
X54610000Y-34290000D03*
X57150000Y-31750000D03*
X57150000Y-34290000D03*
X59690000Y-31750000D03*
X59690000Y-34290000D03*
D16*
X34290000Y-31750000D03*
D17*
X34290000Y-34290000D03*
X36830000Y-31750000D03*
X36830000Y-34290000D03*
X39370000Y-31750000D03*
X39370000Y-34290000D03*
X41910000Y-31750000D03*
X41910000Y-34290000D03*
D18*
X39430000Y-46820000D03*
X39430000Y-44620000D03*
D19*
X36830000Y-45720000D03*
D20*
X47942500Y-40853400D03*
X46990000Y-42966600D03*
X46037500Y-40853400D03*
D21*
X58420000Y-44450000D03*
X30480000Y-44450000D03*
D22*
X45593000Y-34290000D03*
X47625000Y-49530000D03*
X39497000Y-43053000D03*
X47935400Y-43231000D03*
X47625000Y-54610000D03*
X53467000Y-51562000D03*
X51435000Y-42164000D03*
X48641000Y-44831000D03*
X49276000Y-54229000D03*
X50800000Y-46863000D03*
X52197000Y-43307000D03*
D23*
X36703000Y-36703000D02*
X34290000Y-34290000D01*
X43180000Y-36703000D02*
X36703000Y-36703000D01*
X45593000Y-34290000D02*
X43180000Y-36703000D01*
X54102000Y-49530000D02*
X53149500Y-49530000D01*
X56007000Y-51435000D02*
X54102000Y-49530000D01*
X56007000Y-56388000D02*
X56007000Y-51435000D01*
X54360000Y-58035000D02*
X56007000Y-56388000D01*
X54360000Y-58300000D02*
X54360000Y-58035000D01*
X53149500Y-49530000D02*
X52197000Y-49530000D01*
X46718500Y-40999900D02*
X46718500Y-40853400D01*
X47641000Y-41922400D02*
X46718500Y-40999900D01*
X47717400Y-41922400D02*
X47641000Y-41922400D01*
X53149500Y-47354500D02*
X47717400Y-41922400D01*
X53149500Y-49530000D02*
X53149500Y-47354500D01*
X46037500Y-40853400D02*
X46378000Y-40853400D01*
X46378000Y-40853400D02*
X46718500Y-40853400D01*
X51710100Y-35521300D02*
X52070000Y-35521300D01*
X46378000Y-40853400D02*
X51710100Y-35521300D01*
X52070000Y-34290000D02*
X52070000Y-35521300D01*
X39268400Y-61112400D02*
X39268400Y-61061600D01*
X39268400Y-61061600D02*
X43810000Y-56520000D01*
X43810000Y-56520000D02*
X47240000Y-56520000D01*
X49403000Y-49530000D02*
X47625000Y-49530000D01*
X39430000Y-43120000D02*
X39497000Y-43053000D01*
X39430000Y-44620000D02*
X39430000Y-43120000D01*
X46990000Y-42966600D02*
X47671000Y-42966600D01*
X47935400Y-43231000D02*
X47671000Y-42966600D01*
X31851600Y-59105800D02*
X34239200Y-59105800D01*
X38735000Y-54610000D02*
X47625000Y-54610000D01*
X34239200Y-59105800D02*
X38735000Y-54610000D01*
X53330000Y-56520000D02*
X53330000Y-51699000D01*
X53330000Y-51699000D02*
X53467000Y-51562000D01*
X36830000Y-45720000D02*
X36830000Y-49276000D01*
X36830000Y-49276000D02*
X39268400Y-51714400D01*
X47942500Y-40853400D02*
X48283000Y-40853400D01*
X54610000Y-34290000D02*
X54610000Y-35521300D01*
X54610000Y-35521300D02*
X48780500Y-41350800D01*
X48283000Y-40853400D02*
X48780500Y-41350800D01*
X51519600Y-59519600D02*
X50300000Y-58300000D01*
X54856700Y-59519600D02*
X51519600Y-59519600D01*
X56536000Y-57840300D02*
X54856700Y-59519600D01*
X56536000Y-49106400D02*
X56536000Y-57840300D01*
X48780500Y-41350800D02*
X56536000Y-49106400D01*
X55918700Y-32260200D02*
X55918700Y-31750000D01*
X55158900Y-33020000D02*
X55918700Y-32260200D01*
X51593100Y-33020000D02*
X55158900Y-33020000D01*
X45181500Y-39431600D02*
X51593100Y-33020000D01*
X45181500Y-40731200D02*
X45181500Y-39431600D01*
X40074000Y-45838700D02*
X45181500Y-40731200D01*
X39430000Y-45838700D02*
X40074000Y-45838700D01*
X39430000Y-46820000D02*
X39430000Y-45838700D01*
X57150000Y-31750000D02*
X55918700Y-31750000D01*
X57150000Y-36449000D02*
X57150000Y-34290000D01*
X51435000Y-42164000D02*
X57150000Y-36449000D01*
X46736000Y-46736000D02*
X48641000Y-44831000D01*
X46736000Y-51689000D02*
X46736000Y-46736000D01*
X49276000Y-54229000D02*
X46736000Y-51689000D01*
X50800000Y-56020000D02*
X50800000Y-46863000D01*
X58420000Y-37084000D02*
X52197000Y-43307000D01*
X58420000Y-33147000D02*
X58420000Y-37084000D01*
X58420000Y-33147000D02*
X59690000Y-31877000D01*
X50800000Y-56020000D02*
X51300000Y-56520000D01*
X59690000Y-31750000D02*
X59690000Y-31877000D01*
X59690000Y-34290000D02*
X59690000Y-35521300D01*
X62313700Y-38145000D02*
X59690000Y-35521300D01*
X62313700Y-52781400D02*
X62313700Y-38145000D01*
X55067200Y-60027900D02*
X62313700Y-52781400D01*
X49997900Y-60027900D02*
X55067200Y-60027900D01*
X48270000Y-58300000D02*
X49997900Y-60027900D01*
M02*
