M48
;DRILL file {KiCad 4.0.5} date 04/03/17 14:34:23
;FORMAT={-:-/ absolute / inch / decimal}
FMAT,2
INCH,TZ
T1C0.014
T2C0.035
T3C0.039
%
G90
G05
M72
T1
X1.555Y-1.695
X1.795Y-1.35
X1.875Y-1.95
X1.875Y-2.15
X1.8872Y-1.702
X1.915Y-1.765
X1.94Y-2.135
X2.Y-1.845
X2.025Y-1.66
X2.055Y-1.705
X2.105Y-2.03
T2
X1.8598Y-2.2252
X1.9004Y-2.2953
X1.9398Y-2.2252
X1.9803Y-2.2953
X2.0197Y-2.2252
X2.0602Y-2.2953
X2.0996Y-2.2252
X2.1402Y-2.2953
T3
X1.35Y-1.25
X1.35Y-1.35
X1.45Y-1.25
X1.45Y-1.35
X1.55Y-1.25
X1.55Y-1.35
X1.65Y-1.25
X1.65Y-1.35
X2.05Y-1.25
X2.05Y-1.35
X2.15Y-1.25
X2.15Y-1.35
X2.25Y-1.25
X2.25Y-1.35
X2.35Y-1.25
X2.35Y-1.35
T0
M30
