G04 #@! TF.FileFunction,Copper,L2,Bot,Signal*
%FSLAX46Y46*%
G04 Gerber Fmt 4.6, Leading zero omitted, Abs format (unit mm)*
G04 Created by KiCad (PCBNEW 4.0.7) date 04/02/18 06:38:01*
%MOMM*%
%LPD*%
G01*
G04 APERTURE LIST*
%ADD10C,0.150000*%
%ADD11C,2.200000*%
%ADD12C,1.600000*%
%ADD13C,5.000000*%
%ADD14C,1.701800*%
%ADD15R,1.700000X1.700000*%
%ADD16O,1.700000X1.700000*%
%ADD17C,0.660400*%
%ADD18C,1.016000*%
%ADD19C,0.254000*%
G04 APERTURE END LIST*
D10*
D11*
X31112000Y-27430000D03*
X31112000Y-43690000D03*
D12*
X30092000Y-35060000D03*
X30092000Y-37090000D03*
X31872000Y-34030000D03*
X31872000Y-36060000D03*
X31872000Y-32000000D03*
X30092000Y-33030000D03*
X31872000Y-38090000D03*
X30092000Y-39120000D03*
D13*
X41275000Y-28575000D03*
D14*
X65430400Y-35560000D03*
X72440800Y-35560000D03*
D15*
X49530000Y-34925000D03*
D16*
X52070000Y-34925000D03*
X49530000Y-32385000D03*
X52070000Y-32385000D03*
X49530000Y-29845000D03*
X52070000Y-29845000D03*
X49530000Y-27305000D03*
X52070000Y-27305000D03*
D13*
X41275000Y-42545000D03*
X60325000Y-28575000D03*
X60325000Y-42545000D03*
D17*
X62484000Y-34036000D03*
X60706000Y-35814000D03*
X71755000Y-31877000D03*
X46736000Y-42418000D03*
X54737000Y-42418000D03*
X41910000Y-37465000D03*
X45361474Y-33677474D03*
X38348317Y-33180170D03*
X33020000Y-30861000D03*
X28991174Y-32267774D03*
X38989000Y-31115000D03*
X44323000Y-31242000D03*
X41148000Y-32131000D03*
X51435000Y-38989000D03*
X48641000Y-38989000D03*
X43307000Y-33274000D03*
X39751000Y-32385000D03*
D18*
X60706000Y-35814000D02*
X62484000Y-34036000D01*
D19*
X38348317Y-33180170D02*
X39661356Y-34493209D01*
X39661356Y-34493209D02*
X44545739Y-34493209D01*
X44545739Y-34493209D02*
X45361474Y-33677474D01*
X28991174Y-32267774D02*
X30389149Y-30869799D01*
X33011201Y-30869799D02*
X33020000Y-30861000D01*
X30389149Y-30869799D02*
X33011201Y-30869799D01*
X38989000Y-33020000D02*
X38989000Y-31115000D01*
X40005000Y-34036000D02*
X38989000Y-33020000D01*
X44069000Y-34036000D02*
X40005000Y-34036000D01*
X48260000Y-29845000D02*
X44069000Y-34036000D01*
X49530000Y-29845000D02*
X48260000Y-29845000D01*
X43815000Y-31750000D02*
X44323000Y-31242000D01*
X41529000Y-31750000D02*
X43815000Y-31750000D01*
X41148000Y-32131000D02*
X41529000Y-31750000D01*
X48641000Y-38989000D02*
X51435000Y-38989000D01*
X43180000Y-33401000D02*
X43307000Y-33274000D01*
X50800000Y-28575000D02*
X52070000Y-27305000D01*
X48006000Y-28575000D02*
X50800000Y-28575000D01*
X43180000Y-33401000D02*
X48006000Y-28575000D01*
X40767000Y-33401000D02*
X43180000Y-33401000D01*
X39751000Y-32385000D02*
X40767000Y-33401000D01*
G36*
X30066737Y-26205132D02*
X31112000Y-27250395D01*
X32157263Y-26205132D01*
X32119206Y-26110000D01*
X39306873Y-26110000D01*
X38618826Y-26796847D01*
X38140546Y-27948674D01*
X38139457Y-29195854D01*
X38572094Y-30242914D01*
X38442973Y-30296266D01*
X38171221Y-30567544D01*
X38023968Y-30922168D01*
X38023633Y-31306148D01*
X38170266Y-31661027D01*
X38227000Y-31717860D01*
X38227000Y-32214864D01*
X38157169Y-32214803D01*
X37802290Y-32361436D01*
X37530538Y-32632714D01*
X37383285Y-32987338D01*
X37382950Y-33371318D01*
X37529583Y-33726197D01*
X37800861Y-33997949D01*
X38155485Y-34145202D01*
X38235789Y-34145272D01*
X39122541Y-35032025D01*
X39369752Y-35197206D01*
X39661356Y-35255209D01*
X44545739Y-35255209D01*
X44769248Y-35210750D01*
X48045000Y-35210750D01*
X48045000Y-35901310D01*
X48141673Y-36134699D01*
X48320302Y-36313327D01*
X48553691Y-36410000D01*
X49244250Y-36410000D01*
X49403000Y-36251250D01*
X49403000Y-35052000D01*
X48203750Y-35052000D01*
X48045000Y-35210750D01*
X44769248Y-35210750D01*
X44837344Y-35197205D01*
X45084554Y-35032024D01*
X45473806Y-34642772D01*
X45552622Y-34642841D01*
X45907501Y-34496208D01*
X46179253Y-34224930D01*
X46326506Y-33870306D01*
X46326841Y-33486326D01*
X46180208Y-33131447D01*
X46115752Y-33066878D01*
X48385453Y-30797177D01*
X48450853Y-30895054D01*
X48780026Y-31115000D01*
X48450853Y-31334946D01*
X48128946Y-31816715D01*
X48015907Y-32385000D01*
X48128946Y-32953285D01*
X48450853Y-33435054D01*
X48494777Y-33464403D01*
X48320302Y-33536673D01*
X48141673Y-33715301D01*
X48045000Y-33948690D01*
X48045000Y-34639250D01*
X48203750Y-34798000D01*
X49403000Y-34798000D01*
X49403000Y-34778000D01*
X49657000Y-34778000D01*
X49657000Y-34798000D01*
X49677000Y-34798000D01*
X49677000Y-35052000D01*
X49657000Y-35052000D01*
X49657000Y-36251250D01*
X49815750Y-36410000D01*
X50506309Y-36410000D01*
X50739698Y-36313327D01*
X50918327Y-36134699D01*
X50986903Y-35969142D01*
X50990853Y-35975054D01*
X51472622Y-36296961D01*
X52040907Y-36410000D01*
X52099093Y-36410000D01*
X52667378Y-36296961D01*
X53149147Y-35975054D01*
X53256759Y-35814000D01*
X59563000Y-35814000D01*
X59650006Y-36251407D01*
X59897777Y-36622223D01*
X60268593Y-36869994D01*
X60706000Y-36957000D01*
X61143407Y-36869994D01*
X61514223Y-36622223D01*
X62282179Y-35854267D01*
X63944242Y-35854267D01*
X64169980Y-36400595D01*
X64587606Y-36818951D01*
X65133539Y-37045642D01*
X65724667Y-37046158D01*
X66270995Y-36820420D01*
X66689351Y-36402794D01*
X66916042Y-35856861D01*
X66916044Y-35854267D01*
X70954642Y-35854267D01*
X71180380Y-36400595D01*
X71598006Y-36818951D01*
X72143939Y-37045642D01*
X72735067Y-37046158D01*
X73281395Y-36820420D01*
X73699751Y-36402794D01*
X73926442Y-35856861D01*
X73926958Y-35265733D01*
X73701220Y-34719405D01*
X73283594Y-34301049D01*
X72737661Y-34074358D01*
X72146533Y-34073842D01*
X71600205Y-34299580D01*
X71181849Y-34717206D01*
X70955158Y-35263139D01*
X70954642Y-35854267D01*
X66916044Y-35854267D01*
X66916558Y-35265733D01*
X66690820Y-34719405D01*
X66273194Y-34301049D01*
X65727261Y-34074358D01*
X65136133Y-34073842D01*
X64589805Y-34299580D01*
X64171449Y-34717206D01*
X63944758Y-35263139D01*
X63944242Y-35854267D01*
X62282179Y-35854267D01*
X63292223Y-34844223D01*
X63539994Y-34473407D01*
X63627000Y-34036000D01*
X63539994Y-33598593D01*
X63292223Y-33227777D01*
X62921407Y-32980006D01*
X62484000Y-32893000D01*
X62046593Y-32980006D01*
X61675777Y-33227777D01*
X59897777Y-35005777D01*
X59650006Y-35376593D01*
X59563000Y-35814000D01*
X53256759Y-35814000D01*
X53471054Y-35493285D01*
X53584093Y-34925000D01*
X53471054Y-34356715D01*
X53149147Y-33874946D01*
X52819974Y-33655000D01*
X53149147Y-33435054D01*
X53471054Y-32953285D01*
X53584093Y-32385000D01*
X53471054Y-31816715D01*
X53149147Y-31334946D01*
X52819974Y-31115000D01*
X53149147Y-30895054D01*
X53471054Y-30413285D01*
X53584093Y-29845000D01*
X53471054Y-29276715D01*
X53149147Y-28794946D01*
X52819974Y-28575000D01*
X53149147Y-28355054D01*
X53471054Y-27873285D01*
X53584093Y-27305000D01*
X53471054Y-26736715D01*
X53149147Y-26254946D01*
X52932219Y-26110000D01*
X58356873Y-26110000D01*
X57668826Y-26796847D01*
X57190546Y-27948674D01*
X57189457Y-29195854D01*
X57665727Y-30348515D01*
X58546847Y-31231174D01*
X59698674Y-31709454D01*
X60945854Y-31710543D01*
X62098515Y-31234273D01*
X62981174Y-30353153D01*
X63459454Y-29201326D01*
X63460543Y-27954146D01*
X62984273Y-26801485D01*
X62293994Y-26110000D01*
X75490000Y-26110000D01*
X75490000Y-45010000D01*
X62293127Y-45010000D01*
X62981174Y-44323153D01*
X63459454Y-43171326D01*
X63460543Y-41924146D01*
X62984273Y-40771485D01*
X62103153Y-39888826D01*
X60951326Y-39410546D01*
X59704146Y-39409457D01*
X58551485Y-39885727D01*
X57668826Y-40766847D01*
X57190546Y-41918674D01*
X57189457Y-43165854D01*
X57665727Y-44318515D01*
X58356006Y-45010000D01*
X43243127Y-45010000D01*
X43931174Y-44323153D01*
X44409454Y-43171326D01*
X44410543Y-41924146D01*
X43934273Y-40771485D01*
X43053153Y-39888826D01*
X41901326Y-39410546D01*
X40654146Y-39409457D01*
X39501485Y-39885727D01*
X38618826Y-40766847D01*
X38140546Y-41918674D01*
X38139457Y-43165854D01*
X38615727Y-44318515D01*
X39306006Y-45010000D01*
X32119206Y-45010000D01*
X32157263Y-44914868D01*
X31112000Y-43869605D01*
X30066737Y-44914868D01*
X30104794Y-45010000D01*
X26110000Y-45010000D01*
X26110000Y-43664397D01*
X26270141Y-43824818D01*
X27100486Y-44169607D01*
X27999570Y-44170391D01*
X28830515Y-43827052D01*
X29432900Y-43225717D01*
X29366677Y-43401593D01*
X29389164Y-44091453D01*
X29609901Y-44624359D01*
X29887132Y-44735263D01*
X30932395Y-43690000D01*
X31291605Y-43690000D01*
X32336868Y-44735263D01*
X32614099Y-44624359D01*
X32857323Y-43978407D01*
X32834836Y-43288547D01*
X32614099Y-42755641D01*
X32336868Y-42644737D01*
X31291605Y-43690000D01*
X30932395Y-43690000D01*
X29887132Y-42644737D01*
X29655531Y-42737387D01*
X29768581Y-42465132D01*
X30066737Y-42465132D01*
X31112000Y-43510395D01*
X32157263Y-42465132D01*
X32046359Y-42187901D01*
X31400407Y-41944677D01*
X30710547Y-41967164D01*
X30177641Y-42187901D01*
X30066737Y-42465132D01*
X29768581Y-42465132D01*
X29811607Y-42361514D01*
X29812391Y-41462430D01*
X29469052Y-40631485D01*
X28833859Y-39995182D01*
X28003514Y-39650393D01*
X27104430Y-39649609D01*
X26273485Y-39992948D01*
X26110000Y-40156148D01*
X26110000Y-32458922D01*
X28025807Y-32458922D01*
X28172440Y-32813801D01*
X28443718Y-33085553D01*
X28656874Y-33174063D01*
X28656752Y-33314187D01*
X28874757Y-33841800D01*
X29077603Y-34045001D01*
X28876176Y-34246077D01*
X28657250Y-34773309D01*
X28656752Y-35344187D01*
X28874757Y-35871800D01*
X29077603Y-36075001D01*
X28876176Y-36276077D01*
X28657250Y-36803309D01*
X28656752Y-37374187D01*
X28874757Y-37901800D01*
X29077603Y-38105001D01*
X28876176Y-38306077D01*
X28657250Y-38833309D01*
X28656752Y-39404187D01*
X28874757Y-39931800D01*
X29278077Y-40335824D01*
X29805309Y-40554750D01*
X30376187Y-40555248D01*
X30903800Y-40337243D01*
X31307824Y-39933923D01*
X31493549Y-39486648D01*
X31585309Y-39524750D01*
X32156187Y-39525248D01*
X32683800Y-39307243D01*
X32811116Y-39180148D01*
X47675633Y-39180148D01*
X47822266Y-39535027D01*
X48093544Y-39806779D01*
X48448168Y-39954032D01*
X48832148Y-39954367D01*
X49187027Y-39807734D01*
X49243860Y-39751000D01*
X50831862Y-39751000D01*
X50887544Y-39806779D01*
X51242168Y-39954032D01*
X51626148Y-39954367D01*
X51981027Y-39807734D01*
X52252779Y-39536456D01*
X52400032Y-39181832D01*
X52400367Y-38797852D01*
X52253734Y-38442973D01*
X51982456Y-38171221D01*
X51627832Y-38023968D01*
X51243852Y-38023633D01*
X50888973Y-38170266D01*
X50832140Y-38227000D01*
X49244138Y-38227000D01*
X49188456Y-38171221D01*
X48833832Y-38023968D01*
X48449852Y-38023633D01*
X48094973Y-38170266D01*
X47823221Y-38441544D01*
X47675968Y-38796168D01*
X47675633Y-39180148D01*
X32811116Y-39180148D01*
X33087824Y-38903923D01*
X33306750Y-38376691D01*
X33307248Y-37805813D01*
X33089243Y-37278200D01*
X32886397Y-37074999D01*
X33087824Y-36873923D01*
X33306750Y-36346691D01*
X33307248Y-35775813D01*
X33089243Y-35248200D01*
X32886397Y-35044999D01*
X33087824Y-34843923D01*
X33306750Y-34316691D01*
X33307248Y-33745813D01*
X33089243Y-33218200D01*
X32685923Y-32814176D01*
X32379213Y-32686819D01*
X31872000Y-32179605D01*
X31857858Y-32193748D01*
X31678253Y-32014143D01*
X31692395Y-32000000D01*
X31678253Y-31985858D01*
X31857858Y-31806253D01*
X31872000Y-31820395D01*
X31886143Y-31806253D01*
X32065748Y-31985858D01*
X32051605Y-32000000D01*
X32879745Y-32828139D01*
X33125864Y-32754005D01*
X33318965Y-32216777D01*
X33298628Y-31790221D01*
X33566027Y-31679734D01*
X33837779Y-31408456D01*
X33985032Y-31053832D01*
X33985367Y-30669852D01*
X33838734Y-30314973D01*
X33567456Y-30043221D01*
X33212832Y-29895968D01*
X32828852Y-29895633D01*
X32473973Y-30042266D01*
X32408325Y-30107799D01*
X30389149Y-30107799D01*
X30097544Y-30165803D01*
X29850333Y-30330984D01*
X28878842Y-31302476D01*
X28800026Y-31302407D01*
X28445147Y-31449040D01*
X28173395Y-31720318D01*
X28026142Y-32074942D01*
X28025807Y-32458922D01*
X26110000Y-32458922D01*
X26110000Y-30964397D01*
X26270141Y-31124818D01*
X27100486Y-31469607D01*
X27999570Y-31470391D01*
X28830515Y-31127052D01*
X29466818Y-30491859D01*
X29811607Y-29661514D01*
X29812391Y-28762430D01*
X29767948Y-28654868D01*
X30066737Y-28654868D01*
X30177641Y-28932099D01*
X30823593Y-29175323D01*
X31513453Y-29152836D01*
X32046359Y-28932099D01*
X32157263Y-28654868D01*
X31112000Y-27609605D01*
X30066737Y-28654868D01*
X29767948Y-28654868D01*
X29655439Y-28382576D01*
X29887132Y-28475263D01*
X30932395Y-27430000D01*
X31291605Y-27430000D01*
X32336868Y-28475263D01*
X32614099Y-28364359D01*
X32857323Y-27718407D01*
X32834836Y-27028547D01*
X32614099Y-26495641D01*
X32336868Y-26384737D01*
X31291605Y-27430000D01*
X30932395Y-27430000D01*
X29887132Y-26384737D01*
X29609901Y-26495641D01*
X29366677Y-27141593D01*
X29389164Y-27831453D01*
X29403327Y-27865645D01*
X28833859Y-27295182D01*
X28003514Y-26950393D01*
X27104430Y-26949609D01*
X26273485Y-27292948D01*
X26110000Y-27456148D01*
X26110000Y-26110000D01*
X30104794Y-26110000D01*
X30066737Y-26205132D01*
X30066737Y-26205132D01*
G37*
X30066737Y-26205132D02*
X31112000Y-27250395D01*
X32157263Y-26205132D01*
X32119206Y-26110000D01*
X39306873Y-26110000D01*
X38618826Y-26796847D01*
X38140546Y-27948674D01*
X38139457Y-29195854D01*
X38572094Y-30242914D01*
X38442973Y-30296266D01*
X38171221Y-30567544D01*
X38023968Y-30922168D01*
X38023633Y-31306148D01*
X38170266Y-31661027D01*
X38227000Y-31717860D01*
X38227000Y-32214864D01*
X38157169Y-32214803D01*
X37802290Y-32361436D01*
X37530538Y-32632714D01*
X37383285Y-32987338D01*
X37382950Y-33371318D01*
X37529583Y-33726197D01*
X37800861Y-33997949D01*
X38155485Y-34145202D01*
X38235789Y-34145272D01*
X39122541Y-35032025D01*
X39369752Y-35197206D01*
X39661356Y-35255209D01*
X44545739Y-35255209D01*
X44769248Y-35210750D01*
X48045000Y-35210750D01*
X48045000Y-35901310D01*
X48141673Y-36134699D01*
X48320302Y-36313327D01*
X48553691Y-36410000D01*
X49244250Y-36410000D01*
X49403000Y-36251250D01*
X49403000Y-35052000D01*
X48203750Y-35052000D01*
X48045000Y-35210750D01*
X44769248Y-35210750D01*
X44837344Y-35197205D01*
X45084554Y-35032024D01*
X45473806Y-34642772D01*
X45552622Y-34642841D01*
X45907501Y-34496208D01*
X46179253Y-34224930D01*
X46326506Y-33870306D01*
X46326841Y-33486326D01*
X46180208Y-33131447D01*
X46115752Y-33066878D01*
X48385453Y-30797177D01*
X48450853Y-30895054D01*
X48780026Y-31115000D01*
X48450853Y-31334946D01*
X48128946Y-31816715D01*
X48015907Y-32385000D01*
X48128946Y-32953285D01*
X48450853Y-33435054D01*
X48494777Y-33464403D01*
X48320302Y-33536673D01*
X48141673Y-33715301D01*
X48045000Y-33948690D01*
X48045000Y-34639250D01*
X48203750Y-34798000D01*
X49403000Y-34798000D01*
X49403000Y-34778000D01*
X49657000Y-34778000D01*
X49657000Y-34798000D01*
X49677000Y-34798000D01*
X49677000Y-35052000D01*
X49657000Y-35052000D01*
X49657000Y-36251250D01*
X49815750Y-36410000D01*
X50506309Y-36410000D01*
X50739698Y-36313327D01*
X50918327Y-36134699D01*
X50986903Y-35969142D01*
X50990853Y-35975054D01*
X51472622Y-36296961D01*
X52040907Y-36410000D01*
X52099093Y-36410000D01*
X52667378Y-36296961D01*
X53149147Y-35975054D01*
X53256759Y-35814000D01*
X59563000Y-35814000D01*
X59650006Y-36251407D01*
X59897777Y-36622223D01*
X60268593Y-36869994D01*
X60706000Y-36957000D01*
X61143407Y-36869994D01*
X61514223Y-36622223D01*
X62282179Y-35854267D01*
X63944242Y-35854267D01*
X64169980Y-36400595D01*
X64587606Y-36818951D01*
X65133539Y-37045642D01*
X65724667Y-37046158D01*
X66270995Y-36820420D01*
X66689351Y-36402794D01*
X66916042Y-35856861D01*
X66916044Y-35854267D01*
X70954642Y-35854267D01*
X71180380Y-36400595D01*
X71598006Y-36818951D01*
X72143939Y-37045642D01*
X72735067Y-37046158D01*
X73281395Y-36820420D01*
X73699751Y-36402794D01*
X73926442Y-35856861D01*
X73926958Y-35265733D01*
X73701220Y-34719405D01*
X73283594Y-34301049D01*
X72737661Y-34074358D01*
X72146533Y-34073842D01*
X71600205Y-34299580D01*
X71181849Y-34717206D01*
X70955158Y-35263139D01*
X70954642Y-35854267D01*
X66916044Y-35854267D01*
X66916558Y-35265733D01*
X66690820Y-34719405D01*
X66273194Y-34301049D01*
X65727261Y-34074358D01*
X65136133Y-34073842D01*
X64589805Y-34299580D01*
X64171449Y-34717206D01*
X63944758Y-35263139D01*
X63944242Y-35854267D01*
X62282179Y-35854267D01*
X63292223Y-34844223D01*
X63539994Y-34473407D01*
X63627000Y-34036000D01*
X63539994Y-33598593D01*
X63292223Y-33227777D01*
X62921407Y-32980006D01*
X62484000Y-32893000D01*
X62046593Y-32980006D01*
X61675777Y-33227777D01*
X59897777Y-35005777D01*
X59650006Y-35376593D01*
X59563000Y-35814000D01*
X53256759Y-35814000D01*
X53471054Y-35493285D01*
X53584093Y-34925000D01*
X53471054Y-34356715D01*
X53149147Y-33874946D01*
X52819974Y-33655000D01*
X53149147Y-33435054D01*
X53471054Y-32953285D01*
X53584093Y-32385000D01*
X53471054Y-31816715D01*
X53149147Y-31334946D01*
X52819974Y-31115000D01*
X53149147Y-30895054D01*
X53471054Y-30413285D01*
X53584093Y-29845000D01*
X53471054Y-29276715D01*
X53149147Y-28794946D01*
X52819974Y-28575000D01*
X53149147Y-28355054D01*
X53471054Y-27873285D01*
X53584093Y-27305000D01*
X53471054Y-26736715D01*
X53149147Y-26254946D01*
X52932219Y-26110000D01*
X58356873Y-26110000D01*
X57668826Y-26796847D01*
X57190546Y-27948674D01*
X57189457Y-29195854D01*
X57665727Y-30348515D01*
X58546847Y-31231174D01*
X59698674Y-31709454D01*
X60945854Y-31710543D01*
X62098515Y-31234273D01*
X62981174Y-30353153D01*
X63459454Y-29201326D01*
X63460543Y-27954146D01*
X62984273Y-26801485D01*
X62293994Y-26110000D01*
X75490000Y-26110000D01*
X75490000Y-45010000D01*
X62293127Y-45010000D01*
X62981174Y-44323153D01*
X63459454Y-43171326D01*
X63460543Y-41924146D01*
X62984273Y-40771485D01*
X62103153Y-39888826D01*
X60951326Y-39410546D01*
X59704146Y-39409457D01*
X58551485Y-39885727D01*
X57668826Y-40766847D01*
X57190546Y-41918674D01*
X57189457Y-43165854D01*
X57665727Y-44318515D01*
X58356006Y-45010000D01*
X43243127Y-45010000D01*
X43931174Y-44323153D01*
X44409454Y-43171326D01*
X44410543Y-41924146D01*
X43934273Y-40771485D01*
X43053153Y-39888826D01*
X41901326Y-39410546D01*
X40654146Y-39409457D01*
X39501485Y-39885727D01*
X38618826Y-40766847D01*
X38140546Y-41918674D01*
X38139457Y-43165854D01*
X38615727Y-44318515D01*
X39306006Y-45010000D01*
X32119206Y-45010000D01*
X32157263Y-44914868D01*
X31112000Y-43869605D01*
X30066737Y-44914868D01*
X30104794Y-45010000D01*
X26110000Y-45010000D01*
X26110000Y-43664397D01*
X26270141Y-43824818D01*
X27100486Y-44169607D01*
X27999570Y-44170391D01*
X28830515Y-43827052D01*
X29432900Y-43225717D01*
X29366677Y-43401593D01*
X29389164Y-44091453D01*
X29609901Y-44624359D01*
X29887132Y-44735263D01*
X30932395Y-43690000D01*
X31291605Y-43690000D01*
X32336868Y-44735263D01*
X32614099Y-44624359D01*
X32857323Y-43978407D01*
X32834836Y-43288547D01*
X32614099Y-42755641D01*
X32336868Y-42644737D01*
X31291605Y-43690000D01*
X30932395Y-43690000D01*
X29887132Y-42644737D01*
X29655531Y-42737387D01*
X29768581Y-42465132D01*
X30066737Y-42465132D01*
X31112000Y-43510395D01*
X32157263Y-42465132D01*
X32046359Y-42187901D01*
X31400407Y-41944677D01*
X30710547Y-41967164D01*
X30177641Y-42187901D01*
X30066737Y-42465132D01*
X29768581Y-42465132D01*
X29811607Y-42361514D01*
X29812391Y-41462430D01*
X29469052Y-40631485D01*
X28833859Y-39995182D01*
X28003514Y-39650393D01*
X27104430Y-39649609D01*
X26273485Y-39992948D01*
X26110000Y-40156148D01*
X26110000Y-32458922D01*
X28025807Y-32458922D01*
X28172440Y-32813801D01*
X28443718Y-33085553D01*
X28656874Y-33174063D01*
X28656752Y-33314187D01*
X28874757Y-33841800D01*
X29077603Y-34045001D01*
X28876176Y-34246077D01*
X28657250Y-34773309D01*
X28656752Y-35344187D01*
X28874757Y-35871800D01*
X29077603Y-36075001D01*
X28876176Y-36276077D01*
X28657250Y-36803309D01*
X28656752Y-37374187D01*
X28874757Y-37901800D01*
X29077603Y-38105001D01*
X28876176Y-38306077D01*
X28657250Y-38833309D01*
X28656752Y-39404187D01*
X28874757Y-39931800D01*
X29278077Y-40335824D01*
X29805309Y-40554750D01*
X30376187Y-40555248D01*
X30903800Y-40337243D01*
X31307824Y-39933923D01*
X31493549Y-39486648D01*
X31585309Y-39524750D01*
X32156187Y-39525248D01*
X32683800Y-39307243D01*
X32811116Y-39180148D01*
X47675633Y-39180148D01*
X47822266Y-39535027D01*
X48093544Y-39806779D01*
X48448168Y-39954032D01*
X48832148Y-39954367D01*
X49187027Y-39807734D01*
X49243860Y-39751000D01*
X50831862Y-39751000D01*
X50887544Y-39806779D01*
X51242168Y-39954032D01*
X51626148Y-39954367D01*
X51981027Y-39807734D01*
X52252779Y-39536456D01*
X52400032Y-39181832D01*
X52400367Y-38797852D01*
X52253734Y-38442973D01*
X51982456Y-38171221D01*
X51627832Y-38023968D01*
X51243852Y-38023633D01*
X50888973Y-38170266D01*
X50832140Y-38227000D01*
X49244138Y-38227000D01*
X49188456Y-38171221D01*
X48833832Y-38023968D01*
X48449852Y-38023633D01*
X48094973Y-38170266D01*
X47823221Y-38441544D01*
X47675968Y-38796168D01*
X47675633Y-39180148D01*
X32811116Y-39180148D01*
X33087824Y-38903923D01*
X33306750Y-38376691D01*
X33307248Y-37805813D01*
X33089243Y-37278200D01*
X32886397Y-37074999D01*
X33087824Y-36873923D01*
X33306750Y-36346691D01*
X33307248Y-35775813D01*
X33089243Y-35248200D01*
X32886397Y-35044999D01*
X33087824Y-34843923D01*
X33306750Y-34316691D01*
X33307248Y-33745813D01*
X33089243Y-33218200D01*
X32685923Y-32814176D01*
X32379213Y-32686819D01*
X31872000Y-32179605D01*
X31857858Y-32193748D01*
X31678253Y-32014143D01*
X31692395Y-32000000D01*
X31678253Y-31985858D01*
X31857858Y-31806253D01*
X31872000Y-31820395D01*
X31886143Y-31806253D01*
X32065748Y-31985858D01*
X32051605Y-32000000D01*
X32879745Y-32828139D01*
X33125864Y-32754005D01*
X33318965Y-32216777D01*
X33298628Y-31790221D01*
X33566027Y-31679734D01*
X33837779Y-31408456D01*
X33985032Y-31053832D01*
X33985367Y-30669852D01*
X33838734Y-30314973D01*
X33567456Y-30043221D01*
X33212832Y-29895968D01*
X32828852Y-29895633D01*
X32473973Y-30042266D01*
X32408325Y-30107799D01*
X30389149Y-30107799D01*
X30097544Y-30165803D01*
X29850333Y-30330984D01*
X28878842Y-31302476D01*
X28800026Y-31302407D01*
X28445147Y-31449040D01*
X28173395Y-31720318D01*
X28026142Y-32074942D01*
X28025807Y-32458922D01*
X26110000Y-32458922D01*
X26110000Y-30964397D01*
X26270141Y-31124818D01*
X27100486Y-31469607D01*
X27999570Y-31470391D01*
X28830515Y-31127052D01*
X29466818Y-30491859D01*
X29811607Y-29661514D01*
X29812391Y-28762430D01*
X29767948Y-28654868D01*
X30066737Y-28654868D01*
X30177641Y-28932099D01*
X30823593Y-29175323D01*
X31513453Y-29152836D01*
X32046359Y-28932099D01*
X32157263Y-28654868D01*
X31112000Y-27609605D01*
X30066737Y-28654868D01*
X29767948Y-28654868D01*
X29655439Y-28382576D01*
X29887132Y-28475263D01*
X30932395Y-27430000D01*
X31291605Y-27430000D01*
X32336868Y-28475263D01*
X32614099Y-28364359D01*
X32857323Y-27718407D01*
X32834836Y-27028547D01*
X32614099Y-26495641D01*
X32336868Y-26384737D01*
X31291605Y-27430000D01*
X30932395Y-27430000D01*
X29887132Y-26384737D01*
X29609901Y-26495641D01*
X29366677Y-27141593D01*
X29389164Y-27831453D01*
X29403327Y-27865645D01*
X28833859Y-27295182D01*
X28003514Y-26950393D01*
X27104430Y-26949609D01*
X26273485Y-27292948D01*
X26110000Y-27456148D01*
X26110000Y-26110000D01*
X30104794Y-26110000D01*
X30066737Y-26205132D01*
M02*
