G04 #@! TF.FileFunction,Legend,Top*
%FSLAX46Y46*%
G04 Gerber Fmt 4.6, Leading zero omitted, Abs format (unit mm)*
G04 Created by KiCad (PCBNEW 4.0.7) date 01/10/18 16:31:50*
%MOMM*%
%LPD*%
G01*
G04 APERTURE LIST*
%ADD10C,0.150000*%
%ADD11C,0.254000*%
%ADD12C,0.149860*%
%ADD13C,0.152400*%
%ADD14C,0.120000*%
G04 APERTURE END LIST*
D10*
D11*
X63548381Y-27435024D02*
X63548381Y-26165024D01*
X63850762Y-26165024D01*
X64032190Y-26225500D01*
X64153143Y-26346452D01*
X64213619Y-26467405D01*
X64274095Y-26709310D01*
X64274095Y-26890738D01*
X64213619Y-27132643D01*
X64153143Y-27253595D01*
X64032190Y-27374548D01*
X63850762Y-27435024D01*
X63548381Y-27435024D01*
X65302190Y-27374548D02*
X65181238Y-27435024D01*
X64939333Y-27435024D01*
X64818381Y-27374548D01*
X64757905Y-27253595D01*
X64757905Y-26769786D01*
X64818381Y-26648833D01*
X64939333Y-26588357D01*
X65181238Y-26588357D01*
X65302190Y-26648833D01*
X65362667Y-26769786D01*
X65362667Y-26890738D01*
X64757905Y-27011690D01*
X65786000Y-26588357D02*
X66088381Y-27435024D01*
X66390761Y-26588357D01*
X67842190Y-27435024D02*
X67842190Y-26165024D01*
X68265523Y-27072167D01*
X68688857Y-26165024D01*
X68688857Y-27435024D01*
X69475048Y-27435024D02*
X69354095Y-27374548D01*
X69293619Y-27314071D01*
X69233143Y-27193119D01*
X69233143Y-26830262D01*
X69293619Y-26709310D01*
X69354095Y-26648833D01*
X69475048Y-26588357D01*
X69656476Y-26588357D01*
X69777428Y-26648833D01*
X69837905Y-26709310D01*
X69898381Y-26830262D01*
X69898381Y-27193119D01*
X69837905Y-27314071D01*
X69777428Y-27374548D01*
X69656476Y-27435024D01*
X69475048Y-27435024D01*
X70986953Y-27435024D02*
X70986953Y-26165024D01*
X70986953Y-27374548D02*
X70866000Y-27435024D01*
X70624096Y-27435024D01*
X70503143Y-27374548D01*
X70442667Y-27314071D01*
X70382191Y-27193119D01*
X70382191Y-26830262D01*
X70442667Y-26709310D01*
X70503143Y-26648833D01*
X70624096Y-26588357D01*
X70866000Y-26588357D01*
X70986953Y-26648833D01*
X72136001Y-26588357D02*
X72136001Y-27435024D01*
X71591715Y-26588357D02*
X71591715Y-27253595D01*
X71652191Y-27374548D01*
X71773144Y-27435024D01*
X71954572Y-27435024D01*
X72075524Y-27374548D01*
X72136001Y-27314071D01*
X72922192Y-27435024D02*
X72801239Y-27374548D01*
X72740763Y-27253595D01*
X72740763Y-26165024D01*
X73889810Y-27374548D02*
X73768858Y-27435024D01*
X73526953Y-27435024D01*
X73406001Y-27374548D01*
X73345525Y-27253595D01*
X73345525Y-26769786D01*
X73406001Y-26648833D01*
X73526953Y-26588357D01*
X73768858Y-26588357D01*
X73889810Y-26648833D01*
X73950287Y-26769786D01*
X73950287Y-26890738D01*
X73345525Y-27011690D01*
X63487905Y-28444976D02*
X63548381Y-28384500D01*
X63669333Y-28324024D01*
X63971714Y-28324024D01*
X64092667Y-28384500D01*
X64153143Y-28444976D01*
X64213619Y-28565929D01*
X64213619Y-28686881D01*
X64153143Y-28868310D01*
X63427429Y-29594024D01*
X64213619Y-29594024D01*
X64999810Y-28324024D02*
X65120762Y-28324024D01*
X65241714Y-28384500D01*
X65302191Y-28444976D01*
X65362667Y-28565929D01*
X65423143Y-28807833D01*
X65423143Y-29110214D01*
X65362667Y-29352119D01*
X65302191Y-29473071D01*
X65241714Y-29533548D01*
X65120762Y-29594024D01*
X64999810Y-29594024D01*
X64878857Y-29533548D01*
X64818381Y-29473071D01*
X64757905Y-29352119D01*
X64697429Y-29110214D01*
X64697429Y-28807833D01*
X64757905Y-28565929D01*
X64818381Y-28444976D01*
X64878857Y-28384500D01*
X64999810Y-28324024D01*
X66632667Y-29594024D02*
X65906953Y-29594024D01*
X66269810Y-29594024D02*
X66269810Y-28324024D01*
X66148858Y-28505452D01*
X66027905Y-28626405D01*
X65906953Y-28686881D01*
X67056001Y-28324024D02*
X67902667Y-28324024D01*
X67358382Y-29594024D01*
X68386477Y-29473071D02*
X68446953Y-29533548D01*
X68386477Y-29594024D01*
X68326001Y-29533548D01*
X68386477Y-29473071D01*
X68386477Y-29594024D01*
X69656477Y-29594024D02*
X68930763Y-29594024D01*
X69293620Y-29594024D02*
X69293620Y-28324024D01*
X69172668Y-28505452D01*
X69051715Y-28626405D01*
X68930763Y-28686881D01*
X70140287Y-28444976D02*
X70200763Y-28384500D01*
X70321715Y-28324024D01*
X70624096Y-28324024D01*
X70745049Y-28384500D01*
X70805525Y-28444976D01*
X70866001Y-28565929D01*
X70866001Y-28686881D01*
X70805525Y-28868310D01*
X70079811Y-29594024D01*
X70866001Y-29594024D01*
X71410287Y-29473071D02*
X71470763Y-29533548D01*
X71410287Y-29594024D01*
X71349811Y-29533548D01*
X71410287Y-29473071D01*
X71410287Y-29594024D01*
X71954573Y-28444976D02*
X72015049Y-28384500D01*
X72136001Y-28324024D01*
X72438382Y-28324024D01*
X72559335Y-28384500D01*
X72619811Y-28444976D01*
X72680287Y-28565929D01*
X72680287Y-28686881D01*
X72619811Y-28868310D01*
X71894097Y-29594024D01*
X72680287Y-29594024D01*
X73103621Y-28324024D02*
X73889811Y-28324024D01*
X73466478Y-28807833D01*
X73647906Y-28807833D01*
X73768859Y-28868310D01*
X73829335Y-28928786D01*
X73889811Y-29049738D01*
X73889811Y-29352119D01*
X73829335Y-29473071D01*
X73768859Y-29533548D01*
X73647906Y-29594024D01*
X73285049Y-29594024D01*
X73164097Y-29533548D01*
X73103621Y-29473071D01*
X53823809Y-27879524D02*
X53823809Y-26609524D01*
X54247142Y-27516667D01*
X54670476Y-26609524D01*
X54670476Y-27879524D01*
X54972857Y-28000476D02*
X55940476Y-28000476D01*
X56847619Y-26609524D02*
X56242857Y-26609524D01*
X56182381Y-27214286D01*
X56242857Y-27153810D01*
X56363809Y-27093333D01*
X56666190Y-27093333D01*
X56787143Y-27153810D01*
X56847619Y-27214286D01*
X56908095Y-27335238D01*
X56908095Y-27637619D01*
X56847619Y-27758571D01*
X56787143Y-27819048D01*
X56666190Y-27879524D01*
X56363809Y-27879524D01*
X56242857Y-27819048D01*
X56182381Y-27758571D01*
X53823809Y-30419524D02*
X53823809Y-29149524D01*
X54247142Y-30056667D01*
X54670476Y-29149524D01*
X54670476Y-30419524D01*
X54972857Y-30540476D02*
X55940476Y-30540476D01*
X56787143Y-29572857D02*
X56787143Y-30419524D01*
X56484762Y-29089048D02*
X56182381Y-29996190D01*
X56968571Y-29996190D01*
X53823809Y-32959524D02*
X53823809Y-31689524D01*
X54247142Y-32596667D01*
X54670476Y-31689524D01*
X54670476Y-32959524D01*
X54972857Y-33080476D02*
X55940476Y-33080476D01*
X56121905Y-31689524D02*
X56908095Y-31689524D01*
X56484762Y-32173333D01*
X56666190Y-32173333D01*
X56787143Y-32233810D01*
X56847619Y-32294286D01*
X56908095Y-32415238D01*
X56908095Y-32717619D01*
X56847619Y-32838571D01*
X56787143Y-32899048D01*
X56666190Y-32959524D01*
X56303333Y-32959524D01*
X56182381Y-32899048D01*
X56121905Y-32838571D01*
X53854048Y-34229524D02*
X54640238Y-34229524D01*
X54216905Y-34713333D01*
X54398333Y-34713333D01*
X54519286Y-34773810D01*
X54579762Y-34834286D01*
X54640238Y-34955238D01*
X54640238Y-35257619D01*
X54579762Y-35378571D01*
X54519286Y-35439048D01*
X54398333Y-35499524D01*
X54035476Y-35499524D01*
X53914524Y-35439048D01*
X53854048Y-35378571D01*
X55184524Y-35378571D02*
X55245000Y-35439048D01*
X55184524Y-35499524D01*
X55124048Y-35439048D01*
X55184524Y-35378571D01*
X55184524Y-35499524D01*
X55668334Y-34229524D02*
X56454524Y-34229524D01*
X56031191Y-34713333D01*
X56212619Y-34713333D01*
X56333572Y-34773810D01*
X56394048Y-34834286D01*
X56454524Y-34955238D01*
X56454524Y-35257619D01*
X56394048Y-35378571D01*
X56333572Y-35439048D01*
X56212619Y-35499524D01*
X55849762Y-35499524D01*
X55728810Y-35439048D01*
X55668334Y-35378571D01*
X56817381Y-34229524D02*
X57240715Y-35499524D01*
X57664048Y-34229524D01*
X44752381Y-27879524D02*
X44752381Y-26609524D01*
X45175714Y-27516667D01*
X45599048Y-26609524D01*
X45599048Y-27879524D01*
X45901429Y-28000476D02*
X46869048Y-28000476D01*
X47110953Y-26730476D02*
X47171429Y-26670000D01*
X47292381Y-26609524D01*
X47594762Y-26609524D01*
X47715715Y-26670000D01*
X47776191Y-26730476D01*
X47836667Y-26851429D01*
X47836667Y-26972381D01*
X47776191Y-27153810D01*
X47050477Y-27879524D01*
X47836667Y-27879524D01*
X44752381Y-30419524D02*
X44752381Y-29149524D01*
X45175714Y-30056667D01*
X45599048Y-29149524D01*
X45599048Y-30419524D01*
X45901429Y-30540476D02*
X46869048Y-30540476D01*
X47836667Y-30419524D02*
X47110953Y-30419524D01*
X47473810Y-30419524D02*
X47473810Y-29149524D01*
X47352858Y-29330952D01*
X47231905Y-29451905D01*
X47110953Y-29512381D01*
X44752381Y-32959524D02*
X44752381Y-31689524D01*
X45175714Y-32596667D01*
X45599048Y-31689524D01*
X45599048Y-32959524D01*
X45901429Y-33080476D02*
X46869048Y-33080476D01*
X47413334Y-31689524D02*
X47534286Y-31689524D01*
X47655238Y-31750000D01*
X47715715Y-31810476D01*
X47776191Y-31931429D01*
X47836667Y-32173333D01*
X47836667Y-32475714D01*
X47776191Y-32717619D01*
X47715715Y-32838571D01*
X47655238Y-32899048D01*
X47534286Y-32959524D01*
X47413334Y-32959524D01*
X47292381Y-32899048D01*
X47231905Y-32838571D01*
X47171429Y-32717619D01*
X47110953Y-32475714D01*
X47110953Y-32173333D01*
X47171429Y-31931429D01*
X47231905Y-31810476D01*
X47292381Y-31750000D01*
X47413334Y-31689524D01*
X45417619Y-34290000D02*
X45296667Y-34229524D01*
X45115238Y-34229524D01*
X44933810Y-34290000D01*
X44812857Y-34410952D01*
X44752381Y-34531905D01*
X44691905Y-34773810D01*
X44691905Y-34955238D01*
X44752381Y-35197143D01*
X44812857Y-35318095D01*
X44933810Y-35439048D01*
X45115238Y-35499524D01*
X45236190Y-35499524D01*
X45417619Y-35439048D01*
X45478095Y-35378571D01*
X45478095Y-34955238D01*
X45236190Y-34955238D01*
X46022381Y-34652857D02*
X46022381Y-35499524D01*
X46022381Y-34773810D02*
X46082857Y-34713333D01*
X46203810Y-34652857D01*
X46385238Y-34652857D01*
X46506190Y-34713333D01*
X46566667Y-34834286D01*
X46566667Y-35499524D01*
X47715715Y-35499524D02*
X47715715Y-34229524D01*
X47715715Y-35439048D02*
X47594762Y-35499524D01*
X47352858Y-35499524D01*
X47231905Y-35439048D01*
X47171429Y-35378571D01*
X47110953Y-35257619D01*
X47110953Y-34894762D01*
X47171429Y-34773810D01*
X47231905Y-34713333D01*
X47352858Y-34652857D01*
X47594762Y-34652857D01*
X47715715Y-34713333D01*
D12*
X22152000Y-27430000D02*
X37902000Y-27430000D01*
X37902000Y-27430000D02*
X37902000Y-43690000D01*
X37902000Y-43690000D02*
X22152000Y-43690000D01*
X22152000Y-43690000D02*
X22152000Y-27430000D01*
D13*
X75946000Y-38557200D02*
X73558400Y-38557200D01*
X69697600Y-38557200D02*
X61442600Y-38557200D01*
X62026800Y-32562800D02*
X61442600Y-32562800D01*
X71628000Y-32562800D02*
X66446400Y-32562800D01*
X75946000Y-32562800D02*
X75463400Y-32562800D01*
X75946000Y-32943800D02*
X78435200Y-32943800D01*
X78435200Y-32943800D02*
X78435200Y-38176200D01*
X78435200Y-38176200D02*
X75946000Y-38176200D01*
X61442600Y-38557200D02*
X61442600Y-32562800D01*
X75946000Y-32562800D02*
X75946000Y-38557200D01*
D12*
X39547800Y-36398200D02*
X39547800Y-38531800D01*
X44272200Y-38531800D02*
X39547800Y-38531800D01*
X39573200Y-36398200D02*
X44272200Y-36398200D01*
X44272200Y-36398200D02*
X44272200Y-38531800D01*
D14*
X48200000Y-33655000D02*
X48200000Y-25975000D01*
X48200000Y-25975000D02*
X53400000Y-25975000D01*
X53400000Y-25975000D02*
X53400000Y-36255000D01*
X53400000Y-36255000D02*
X50800000Y-36255000D01*
X50800000Y-36255000D02*
X50800000Y-33655000D01*
X50800000Y-33655000D02*
X48200000Y-33655000D01*
X48200000Y-34925000D02*
X48200000Y-36255000D01*
X48200000Y-36255000D02*
X49470000Y-36255000D01*
D12*
X52770406Y-41275000D02*
G75*
G03X52770406Y-41275000I-1970406J0D01*
G01*
X53800000Y-38275000D02*
X53800000Y-44275000D01*
X53800000Y-44275000D02*
X47800000Y-44275000D01*
X47800000Y-44275000D02*
X47800000Y-38275000D01*
X47800000Y-38275000D02*
X53800000Y-38275000D01*
D10*
X34023334Y-42487905D02*
X34023334Y-43059333D01*
X33985238Y-43173619D01*
X33909048Y-43249810D01*
X33794762Y-43287905D01*
X33718572Y-43287905D01*
X34366191Y-42564095D02*
X34404286Y-42526000D01*
X34480477Y-42487905D01*
X34670953Y-42487905D01*
X34747143Y-42526000D01*
X34785239Y-42564095D01*
X34823334Y-42640286D01*
X34823334Y-42716476D01*
X34785239Y-42830762D01*
X34328096Y-43287905D01*
X34823334Y-43287905D01*
X36137905Y-33788000D02*
X36709333Y-33788000D01*
X36823619Y-33826096D01*
X36899810Y-33902286D01*
X36937905Y-34016572D01*
X36937905Y-34092762D01*
X36709333Y-33445143D02*
X36709333Y-33064191D01*
X36937905Y-33521334D02*
X36137905Y-33254667D01*
X36937905Y-32988000D01*
X36861714Y-32264191D02*
X36899810Y-32302286D01*
X36937905Y-32416572D01*
X36937905Y-32492762D01*
X36899810Y-32607048D01*
X36823619Y-32683239D01*
X36747429Y-32721334D01*
X36595048Y-32759429D01*
X36480762Y-32759429D01*
X36328381Y-32721334D01*
X36252190Y-32683239D01*
X36176000Y-32607048D01*
X36137905Y-32492762D01*
X36137905Y-32416572D01*
X36176000Y-32302286D01*
X36214095Y-32264191D01*
X36937905Y-31921334D02*
X36137905Y-31921334D01*
X36937905Y-31464191D02*
X36480762Y-31807048D01*
X36137905Y-31464191D02*
X36595048Y-31921334D01*
X37014095Y-31311810D02*
X37014095Y-30702286D01*
X36937905Y-30054667D02*
X36556952Y-30321334D01*
X36937905Y-30511810D02*
X36137905Y-30511810D01*
X36137905Y-30207048D01*
X36176000Y-30130857D01*
X36214095Y-30092762D01*
X36290286Y-30054667D01*
X36404571Y-30054667D01*
X36480762Y-30092762D01*
X36518857Y-30130857D01*
X36556952Y-30207048D01*
X36556952Y-30511810D01*
X36137905Y-29483238D02*
X36709333Y-29483238D01*
X36823619Y-29521334D01*
X36899810Y-29597524D01*
X36937905Y-29711810D01*
X36937905Y-29788000D01*
X36404571Y-28759429D02*
X36937905Y-28759429D01*
X36099810Y-28949905D02*
X36671238Y-29140381D01*
X36671238Y-28645143D01*
X36137905Y-27959428D02*
X36137905Y-28340381D01*
X36518857Y-28378476D01*
X36480762Y-28340381D01*
X36442667Y-28264190D01*
X36442667Y-28073714D01*
X36480762Y-27997524D01*
X36518857Y-27959428D01*
X36595048Y-27921333D01*
X36785524Y-27921333D01*
X36861714Y-27959428D01*
X36899810Y-27997524D01*
X36937905Y-28073714D01*
X36937905Y-28264190D01*
X36899810Y-28340381D01*
X36861714Y-28378476D01*
D13*
X73774334Y-38931905D02*
X73774334Y-39503333D01*
X73736238Y-39617619D01*
X73660048Y-39693810D01*
X73545762Y-39731905D01*
X73469572Y-39731905D01*
X74574334Y-39731905D02*
X74117191Y-39731905D01*
X74345762Y-39731905D02*
X74345762Y-38931905D01*
X74269572Y-39046190D01*
X74193381Y-39122381D01*
X74117191Y-39160476D01*
X65018095Y-33597905D02*
X65018095Y-34169333D01*
X64979999Y-34283619D01*
X64903809Y-34359810D01*
X64789523Y-34397905D01*
X64713333Y-34397905D01*
X65360952Y-34169333D02*
X65741904Y-34169333D01*
X65284761Y-34397905D02*
X65551428Y-33597905D01*
X65818095Y-34397905D01*
X66541904Y-34321714D02*
X66503809Y-34359810D01*
X66389523Y-34397905D01*
X66313333Y-34397905D01*
X66199047Y-34359810D01*
X66122856Y-34283619D01*
X66084761Y-34207429D01*
X66046666Y-34055048D01*
X66046666Y-33940762D01*
X66084761Y-33788381D01*
X66122856Y-33712190D01*
X66199047Y-33636000D01*
X66313333Y-33597905D01*
X66389523Y-33597905D01*
X66503809Y-33636000D01*
X66541904Y-33674095D01*
X66884761Y-34397905D02*
X66884761Y-33597905D01*
X67341904Y-34397905D02*
X66999047Y-33940762D01*
X67341904Y-33597905D02*
X66884761Y-34055048D01*
X67494285Y-34474095D02*
X68103809Y-34474095D01*
X68256190Y-34359810D02*
X68370476Y-34397905D01*
X68560952Y-34397905D01*
X68637142Y-34359810D01*
X68675238Y-34321714D01*
X68713333Y-34245524D01*
X68713333Y-34169333D01*
X68675238Y-34093143D01*
X68637142Y-34055048D01*
X68560952Y-34016952D01*
X68408571Y-33978857D01*
X68332380Y-33940762D01*
X68294285Y-33902667D01*
X68256190Y-33826476D01*
X68256190Y-33750286D01*
X68294285Y-33674095D01*
X68332380Y-33636000D01*
X68408571Y-33597905D01*
X68599047Y-33597905D01*
X68713333Y-33636000D01*
X68941904Y-33597905D02*
X69399047Y-33597905D01*
X69170476Y-34397905D02*
X69170476Y-33597905D01*
X69665714Y-33978857D02*
X69932381Y-33978857D01*
X70046667Y-34397905D02*
X69665714Y-34397905D01*
X69665714Y-33597905D01*
X70046667Y-33597905D01*
X70846667Y-34397905D02*
X70580000Y-34016952D01*
X70389524Y-34397905D02*
X70389524Y-33597905D01*
X70694286Y-33597905D01*
X70770477Y-33636000D01*
X70808572Y-33674095D01*
X70846667Y-33750286D01*
X70846667Y-33864571D01*
X70808572Y-33940762D01*
X70770477Y-33978857D01*
X70694286Y-34016952D01*
X70389524Y-34016952D01*
X71189524Y-33978857D02*
X71456191Y-33978857D01*
X71570477Y-34397905D02*
X71189524Y-34397905D01*
X71189524Y-33597905D01*
X71570477Y-33597905D01*
X72065715Y-33597905D02*
X72218096Y-33597905D01*
X72294287Y-33636000D01*
X72370477Y-33712190D01*
X72408572Y-33864571D01*
X72408572Y-34131238D01*
X72370477Y-34283619D01*
X72294287Y-34359810D01*
X72218096Y-34397905D01*
X72065715Y-34397905D01*
X71989525Y-34359810D01*
X71913334Y-34283619D01*
X71875239Y-34131238D01*
X71875239Y-33864571D01*
X71913334Y-33712190D01*
X71989525Y-33636000D01*
X72065715Y-33597905D01*
D10*
X41776667Y-35972714D02*
X41738572Y-36010810D01*
X41624286Y-36048905D01*
X41548096Y-36048905D01*
X41433810Y-36010810D01*
X41357619Y-35934619D01*
X41319524Y-35858429D01*
X41281429Y-35706048D01*
X41281429Y-35591762D01*
X41319524Y-35439381D01*
X41357619Y-35363190D01*
X41433810Y-35287000D01*
X41548096Y-35248905D01*
X41624286Y-35248905D01*
X41738572Y-35287000D01*
X41776667Y-35325095D01*
X42538572Y-36048905D02*
X42081429Y-36048905D01*
X42310000Y-36048905D02*
X42310000Y-35248905D01*
X42233810Y-35363190D01*
X42157619Y-35439381D01*
X42081429Y-35477476D01*
X49733333Y-41598810D02*
X49847619Y-41636905D01*
X50038095Y-41636905D01*
X50114285Y-41598810D01*
X50152381Y-41560714D01*
X50190476Y-41484524D01*
X50190476Y-41408333D01*
X50152381Y-41332143D01*
X50114285Y-41294048D01*
X50038095Y-41255952D01*
X49885714Y-41217857D01*
X49809523Y-41179762D01*
X49771428Y-41141667D01*
X49733333Y-41065476D01*
X49733333Y-40989286D01*
X49771428Y-40913095D01*
X49809523Y-40875000D01*
X49885714Y-40836905D01*
X50076190Y-40836905D01*
X50190476Y-40875000D01*
X50457143Y-40836905D02*
X50647619Y-41636905D01*
X50800000Y-41065476D01*
X50952381Y-41636905D01*
X51142857Y-40836905D01*
X51600000Y-40836905D02*
X51676191Y-40836905D01*
X51752381Y-40875000D01*
X51790476Y-40913095D01*
X51828572Y-40989286D01*
X51866667Y-41141667D01*
X51866667Y-41332143D01*
X51828572Y-41484524D01*
X51790476Y-41560714D01*
X51752381Y-41598810D01*
X51676191Y-41636905D01*
X51600000Y-41636905D01*
X51523810Y-41598810D01*
X51485714Y-41560714D01*
X51447619Y-41484524D01*
X51409524Y-41332143D01*
X51409524Y-41141667D01*
X51447619Y-40989286D01*
X51485714Y-40913095D01*
X51523810Y-40875000D01*
X51600000Y-40836905D01*
M02*
