G04 #@! TF.FileFunction,Copper,L1,Top,Signal*
%FSLAX46Y46*%
G04 Gerber Fmt 4.6, Leading zero omitted, Abs format (unit mm)*
G04 Created by KiCad (PCBNEW 4.0.7) date 04/02/18 06:38:00*
%MOMM*%
%LPD*%
G01*
G04 APERTURE LIST*
%ADD10C,0.150000*%
%ADD11C,2.200000*%
%ADD12C,1.600000*%
%ADD13C,5.000000*%
%ADD14R,2.209800X2.794000*%
%ADD15R,2.794000X2.794000*%
%ADD16C,1.701800*%
%ADD17R,1.600200X1.803400*%
%ADD18R,1.700000X1.700000*%
%ADD19O,1.700000X1.700000*%
%ADD20R,1.550000X1.300000*%
%ADD21C,0.660400*%
%ADD22C,1.016000*%
%ADD23C,0.508000*%
%ADD24C,0.254000*%
G04 APERTURE END LIST*
D10*
D11*
X31112000Y-27430000D03*
X31112000Y-43690000D03*
D12*
X30092000Y-35060000D03*
X30092000Y-37090000D03*
X31872000Y-34030000D03*
X31872000Y-36060000D03*
X31872000Y-32000000D03*
X30092000Y-33030000D03*
X31872000Y-38090000D03*
X30092000Y-39120000D03*
D13*
X41275000Y-28575000D03*
D14*
X71551800Y-39268400D03*
D15*
X64160400Y-31851600D03*
D14*
X73558400Y-31851600D03*
D16*
X65430400Y-35560000D03*
X72440800Y-35560000D03*
D17*
X40513000Y-37465000D03*
X43307000Y-37465000D03*
D18*
X49530000Y-34925000D03*
D19*
X52070000Y-34925000D03*
X49530000Y-32385000D03*
X52070000Y-32385000D03*
X49530000Y-29845000D03*
X52070000Y-29845000D03*
X49530000Y-27305000D03*
X52070000Y-27305000D03*
D20*
X54775000Y-39025000D03*
X54775000Y-43525000D03*
X46825000Y-43525000D03*
X46825000Y-39025000D03*
D13*
X41275000Y-42545000D03*
X60325000Y-28575000D03*
X60325000Y-42545000D03*
D21*
X62484000Y-34036000D03*
X60706000Y-35814000D03*
X71755000Y-31877000D03*
X46736000Y-42418000D03*
X54737000Y-42418000D03*
X41910000Y-37465000D03*
X45361474Y-33677474D03*
X38348317Y-33180170D03*
X33020000Y-30861000D03*
X28991174Y-32267774D03*
X38989000Y-31115000D03*
X44323000Y-31242000D03*
X41148000Y-32131000D03*
X51435000Y-38989000D03*
X48641000Y-38989000D03*
X43307000Y-33274000D03*
X39751000Y-32385000D03*
D22*
X48514000Y-40640000D02*
X55880000Y-40640000D01*
X62484000Y-34036000D02*
X64160400Y-32359600D01*
X55880000Y-40640000D02*
X60706000Y-35814000D01*
X64160400Y-32359600D02*
X64160400Y-31851600D01*
X40513000Y-37465000D02*
X40513000Y-38735000D01*
X52070000Y-36322000D02*
X52070000Y-34925000D01*
X50038000Y-38354000D02*
X52070000Y-36322000D01*
X50038000Y-39116000D02*
X50038000Y-38354000D01*
X48260000Y-40894000D02*
X48514000Y-40640000D01*
X48514000Y-40640000D02*
X50038000Y-39116000D01*
X45212000Y-40894000D02*
X48260000Y-40894000D01*
X43434000Y-39116000D02*
X45212000Y-40894000D01*
X40894000Y-39116000D02*
X43434000Y-39116000D01*
X40513000Y-38735000D02*
X40894000Y-39116000D01*
X30092000Y-39120000D02*
X30092000Y-39490000D01*
X30092000Y-39490000D02*
X30734000Y-40132000D01*
X37846000Y-40132000D02*
X40513000Y-37465000D01*
X30734000Y-40132000D02*
X37846000Y-40132000D01*
D23*
X30092000Y-39120000D02*
X30357000Y-39120000D01*
X64490600Y-31851600D02*
X64160400Y-31851600D01*
D22*
X73558400Y-31851600D02*
X71780400Y-31851600D01*
X71780400Y-31851600D02*
X71755000Y-31877000D01*
D23*
X46825000Y-43525000D02*
X46825000Y-42507000D01*
X46825000Y-42507000D02*
X46736000Y-42418000D01*
X54775000Y-43525000D02*
X54775000Y-42456000D01*
X54775000Y-42456000D02*
X54737000Y-42418000D01*
X43307000Y-37465000D02*
X41910000Y-37465000D01*
X71551800Y-39268400D02*
X66065400Y-39268400D01*
D24*
X50800000Y-31115000D02*
X49530000Y-32385000D01*
D23*
X57912000Y-31115000D02*
X53213000Y-31115000D01*
X66065400Y-39268400D02*
X57912000Y-31115000D01*
D24*
X53213000Y-31115000D02*
X50800000Y-31115000D01*
X71120000Y-38836600D02*
X71551800Y-39268400D01*
X31872000Y-38090000D02*
X36967000Y-38090000D01*
X42672000Y-32385000D02*
X49530000Y-32385000D01*
X36967000Y-38090000D02*
X42672000Y-32385000D01*
X45361474Y-33677474D02*
X50777526Y-33677474D01*
X50777526Y-33677474D02*
X52070000Y-32385000D01*
X33020000Y-30861000D02*
X35339170Y-33180170D01*
X35339170Y-33180170D02*
X38348317Y-33180170D01*
X30092000Y-35060000D02*
X28961799Y-33929799D01*
X28961799Y-32297149D02*
X28991174Y-32267774D01*
X28961799Y-33929799D02*
X28961799Y-32297149D01*
X28321000Y-35319000D02*
X30092000Y-37090000D01*
X28321000Y-32004000D02*
X28321000Y-35319000D01*
X30988000Y-29337000D02*
X28321000Y-32004000D01*
X37211000Y-29337000D02*
X30988000Y-29337000D01*
X38989000Y-31115000D02*
X37211000Y-29337000D01*
X50800000Y-28575000D02*
X52070000Y-29845000D01*
X46990000Y-28575000D02*
X50800000Y-28575000D01*
X44323000Y-31242000D02*
X46990000Y-28575000D01*
X39249000Y-34030000D02*
X41148000Y-32131000D01*
X31872000Y-34030000D02*
X39249000Y-34030000D01*
X46990000Y-27305000D02*
X49530000Y-27305000D01*
X38235000Y-36060000D02*
X46990000Y-27305000D01*
X31872000Y-36060000D02*
X38235000Y-36060000D01*
X46825000Y-39025000D02*
X48605000Y-39025000D01*
X51471000Y-39025000D02*
X54775000Y-39025000D01*
X51435000Y-38989000D02*
X51471000Y-39025000D01*
X48605000Y-39025000D02*
X48641000Y-38989000D01*
X46825000Y-36792000D02*
X46825000Y-39025000D01*
X43307000Y-33274000D02*
X46825000Y-36792000D01*
X39243000Y-32385000D02*
X39751000Y-32385000D01*
X36957000Y-30099000D02*
X39243000Y-32385000D01*
X31115000Y-30099000D02*
X36957000Y-30099000D01*
X30092000Y-31122000D02*
X31115000Y-30099000D01*
X30092000Y-33030000D02*
X30092000Y-31122000D01*
M02*
