M48
;DRILL file {KiCad 4.0.7} date 06/27/18 14:49:21
;FORMAT={-:-/ absolute / inch / decimal}
FMAT,2
INCH,TZ
T1C0.014
T2C0.035
T3C0.039
T4C0.071
T5C0.098
%
G90
G05
M72
T1
X1.1414Y-1.2704
X1.3Y-1.215
X1.5098Y-1.3063
X1.535Y-1.225
X1.565Y-1.275
X1.62Y-1.265
X1.65Y-1.475
X1.705Y-1.31
X1.745Y-1.23
X1.7859Y-1.3259
X1.84Y-1.67
X1.915Y-1.535
X2.025Y-1.535
X2.155Y-1.67
X2.39Y-1.41
X2.46Y-1.34
X2.825Y-1.255
T2
X1.1847Y-1.3004
X1.1847Y-1.3803
X1.1847Y-1.4602
X1.1847Y-1.5402
X1.2548Y-1.2598
X1.2548Y-1.3398
X1.2548Y-1.4197
X1.2548Y-1.4996
T3
X1.95Y-1.075
X1.95Y-1.175
X1.95Y-1.275
X1.95Y-1.375
X2.05Y-1.075
X2.05Y-1.175
X2.05Y-1.275
X2.05Y-1.375
T4
X1.2249Y-1.0799
X1.2249Y-1.7201
T5
X1.625Y-1.125
X1.625Y-1.675
X2.375Y-1.125
X2.375Y-1.675
T0
M30
