G04 #@! TF.FileFunction,Copper,L1,Top,Mixed*
%FSLAX46Y46*%
G04 Gerber Fmt 4.6, Leading zero omitted, Abs format (unit mm)*
G04 Created by KiCad (PCBNEW 4.0.5) date 04/13/17 09:41:54*
%MOMM*%
%LPD*%
G01*
G04 APERTURE LIST*
%ADD10C,0.150000*%
%ADD11C,2.200000*%
%ADD12C,1.600000*%
%ADD13C,7.000000*%
%ADD14R,1.700000X1.700000*%
%ADD15O,1.700000X1.700000*%
%ADD16R,1.524000X1.524000*%
%ADD17C,1.524000*%
%ADD18C,7.000240*%
%ADD19R,0.635000X1.143000*%
%ADD20R,1.200000X1.200000*%
%ADD21R,2.400000X1.500000*%
%ADD22R,1.100000X0.600000*%
%ADD23R,1.803400X1.193800*%
%ADD24R,0.300000X1.450000*%
%ADD25R,1.450000X0.300000*%
%ADD26R,1.000800X0.599400*%
%ADD27R,3.300000X1.500000*%
%ADD28R,1.000000X1.500000*%
%ADD29C,1.500000*%
%ADD30R,1.143000X0.635000*%
%ADD31R,1.400000X1.200000*%
%ADD32R,1.400000X2.800000*%
%ADD33R,0.760000X2.400000*%
%ADD34O,1.574800X3.048000*%
%ADD35O,1.600200X3.048000*%
%ADD36R,1.500000X1.550000*%
%ADD37C,1.550000*%
%ADD38R,0.400000X1.350000*%
%ADD39C,1.250000*%
%ADD40R,0.889000X1.397000*%
%ADD41R,1.397000X0.889000*%
%ADD42R,3.810000X1.397000*%
%ADD43R,1.000000X0.900000*%
%ADD44R,2.209800X2.794000*%
%ADD45R,2.794000X2.794000*%
%ADD46C,1.701800*%
%ADD47R,1.600200X1.803400*%
%ADD48R,0.899200X1.000800*%
%ADD49R,1.000800X0.899200*%
%ADD50R,1.803400X1.600200*%
%ADD51R,3.599200X1.600200*%
%ADD52C,1.750000*%
%ADD53C,1.850000*%
%ADD54C,0.609600*%
%ADD55C,0.152400*%
%ADD56C,0.304800*%
G04 APERTURE END LIST*
D10*
D11*
X120780000Y-128780000D03*
X120780000Y-112520000D03*
D12*
X121800000Y-121150000D03*
X121800000Y-119120000D03*
X120020000Y-122180000D03*
X120020000Y-120150000D03*
X120020000Y-124210000D03*
X121800000Y-123180000D03*
X120020000Y-118120000D03*
X121800000Y-117090000D03*
D11*
X120780000Y-104650000D03*
X120780000Y-88390000D03*
D12*
X121800000Y-97020000D03*
X121800000Y-94990000D03*
X120020000Y-98050000D03*
X120020000Y-96020000D03*
X120020000Y-100080000D03*
X121800000Y-99050000D03*
X120020000Y-93990000D03*
X121800000Y-92960000D03*
D11*
X120780000Y-80520000D03*
X120780000Y-64260000D03*
D12*
X121800000Y-72890000D03*
X121800000Y-70860000D03*
X120020000Y-73920000D03*
X120020000Y-71890000D03*
X120020000Y-75950000D03*
X121800000Y-74920000D03*
X120020000Y-69860000D03*
X121800000Y-68830000D03*
D11*
X120780000Y-56390000D03*
X120780000Y-40130000D03*
D12*
X121800000Y-48760000D03*
X121800000Y-46730000D03*
X120020000Y-49790000D03*
X120020000Y-47760000D03*
X120020000Y-51820000D03*
X121800000Y-50790000D03*
X120020000Y-45730000D03*
X121800000Y-44700000D03*
D13*
X86360000Y-156210000D03*
D14*
X122174000Y-156210000D03*
D15*
X119634000Y-156210000D03*
X122174000Y-158750000D03*
X119634000Y-158750000D03*
X122174000Y-161290000D03*
X119634000Y-161290000D03*
X122174000Y-163830000D03*
X119634000Y-163830000D03*
X122174000Y-166370000D03*
X119634000Y-166370000D03*
X122174000Y-168910000D03*
X119634000Y-168910000D03*
D16*
X45720000Y-36830000D03*
D17*
X45720000Y-34290000D03*
X48260000Y-36830000D03*
X48260000Y-34290000D03*
X50800000Y-36830000D03*
X50800000Y-34290000D03*
X53340000Y-36830000D03*
X53340000Y-34290000D03*
X55880000Y-36830000D03*
X55880000Y-34290000D03*
X58420000Y-36830000D03*
X58420000Y-34290000D03*
X60960000Y-36830000D03*
X60960000Y-34290000D03*
X63500000Y-36830000D03*
X63500000Y-34290000D03*
X66040000Y-36830000D03*
X66040000Y-34290000D03*
X68580000Y-36830000D03*
X68580000Y-34290000D03*
X71120000Y-36830000D03*
X71120000Y-34290000D03*
X73660000Y-36830000D03*
X73660000Y-34290000D03*
X76200000Y-36830000D03*
X76200000Y-34290000D03*
X78740000Y-36830000D03*
X78740000Y-34290000D03*
X81280000Y-36830000D03*
X81280000Y-34290000D03*
X83820000Y-36830000D03*
X83820000Y-34290000D03*
X86360000Y-36830000D03*
X86360000Y-34290000D03*
X88900000Y-36830000D03*
X88900000Y-34290000D03*
X91440000Y-36830000D03*
X91440000Y-34290000D03*
X93980000Y-36830000D03*
X93980000Y-34290000D03*
X96520000Y-36830000D03*
X96520000Y-34290000D03*
X99060000Y-36830000D03*
X99060000Y-34290000D03*
X101600000Y-36830000D03*
X101600000Y-34290000D03*
X104140000Y-36830000D03*
X104140000Y-34290000D03*
X106680000Y-36830000D03*
X106680000Y-34290000D03*
D18*
X76200000Y-44760000D03*
X76200000Y-102560000D03*
D13*
X120650000Y-181610000D03*
D19*
X33782000Y-162560000D03*
X32258000Y-162560000D03*
X35052000Y-144780000D03*
X33528000Y-144780000D03*
X35052000Y-127000000D03*
X33528000Y-127000000D03*
X35052000Y-109220000D03*
X33528000Y-109220000D03*
X35052000Y-91440000D03*
X33528000Y-91440000D03*
X35052000Y-73660000D03*
X33528000Y-73660000D03*
X35052000Y-55880000D03*
X33528000Y-55880000D03*
X35052000Y-38100000D03*
X33528000Y-38100000D03*
D20*
X27940000Y-161460000D03*
X27940000Y-163660000D03*
X27940000Y-143680000D03*
X27940000Y-145880000D03*
X27940000Y-125900000D03*
X27940000Y-128100000D03*
X27940000Y-108120000D03*
X27940000Y-110320000D03*
X27940000Y-90340000D03*
X27940000Y-92540000D03*
X27940000Y-72560000D03*
X27940000Y-74760000D03*
X27940000Y-54780000D03*
X27940000Y-56980000D03*
X27940000Y-37000000D03*
X27940000Y-39200000D03*
D21*
X91616700Y-137071000D03*
D22*
X86066700Y-137521000D03*
X86066700Y-136621000D03*
D23*
X72136000Y-152323800D03*
X76200000Y-152323800D03*
X76200000Y-149936200D03*
X72136000Y-149936200D03*
D13*
X31750000Y-181610000D03*
X120650000Y-31750000D03*
X31750000Y-31750000D03*
D19*
X81254600Y-179616000D03*
X82778600Y-179616000D03*
X79248000Y-181229000D03*
X77724000Y-181229000D03*
X80137000Y-181229000D03*
X81661000Y-181229000D03*
D24*
X61353700Y-145320000D03*
X61861700Y-145320000D03*
X62357000Y-145320000D03*
X62852300Y-145320000D03*
X63360300Y-145320000D03*
X63855600Y-145320000D03*
X64350900Y-145320000D03*
X64858900Y-145320000D03*
X65354200Y-145320000D03*
X65849500Y-145320000D03*
X66357500Y-145320000D03*
X66852800Y-145320000D03*
X67348100Y-145320000D03*
X67856100Y-145320000D03*
X68351400Y-145320000D03*
X68846700Y-145320000D03*
X69354700Y-145320000D03*
X69850000Y-145320000D03*
X70358000Y-145320000D03*
X70853300Y-145320000D03*
X71361300Y-145320000D03*
X71856600Y-145320000D03*
X72351900Y-145320000D03*
X72859900Y-145320000D03*
X73355200Y-145320000D03*
X73850500Y-145320000D03*
X74358500Y-145320000D03*
X74853800Y-145320000D03*
X75349100Y-145320000D03*
X75857100Y-145320000D03*
X76352400Y-145320000D03*
X76847700Y-145320000D03*
X77355700Y-145320000D03*
X77851000Y-145320000D03*
X78346300Y-145320000D03*
X78854300Y-145320000D03*
D25*
X80804000Y-128866900D03*
X80804000Y-128371600D03*
X80804000Y-127876300D03*
X80804000Y-127368300D03*
X80804000Y-126873000D03*
X80804000Y-126377700D03*
X80804000Y-125869700D03*
X59404000Y-128371600D03*
X59404000Y-128866900D03*
X59404000Y-129374900D03*
X59404000Y-129870200D03*
X59404000Y-130365500D03*
X59404000Y-130873500D03*
X59404000Y-131368800D03*
X59404000Y-131864100D03*
X59404000Y-132372100D03*
X59404000Y-132867400D03*
X59404000Y-133362700D03*
X59404000Y-133870700D03*
X59404000Y-134366000D03*
X59404000Y-134874000D03*
X59404000Y-135369300D03*
X59404000Y-135877300D03*
X59404000Y-136372600D03*
X59404000Y-136867900D03*
X59404000Y-137375900D03*
X59404000Y-137871200D03*
X59404000Y-138366500D03*
X59404000Y-138874500D03*
X59404000Y-139369800D03*
X59404000Y-139865100D03*
X59404000Y-140373100D03*
X59404000Y-140868400D03*
X59404000Y-141363700D03*
X59404000Y-141871700D03*
X59404000Y-142367000D03*
X59404000Y-142862300D03*
X59404000Y-143370300D03*
X80804000Y-143370300D03*
X80804000Y-142862300D03*
X80804000Y-142367000D03*
X80804000Y-141871700D03*
X80804000Y-141363700D03*
X80804000Y-140868400D03*
X80804000Y-140373100D03*
X80804000Y-139865100D03*
X80804000Y-139369800D03*
X80804000Y-138874500D03*
X80804000Y-138366500D03*
X80804000Y-137871200D03*
X80804000Y-137375900D03*
X80804000Y-136867900D03*
X80804000Y-136372600D03*
X80804000Y-135877300D03*
X80804000Y-135369300D03*
X80804000Y-134874000D03*
X80804000Y-134366000D03*
X80804000Y-133870700D03*
X80804000Y-133362700D03*
X80804000Y-132867400D03*
X80804000Y-132372100D03*
X80804000Y-131864100D03*
X80804000Y-131368800D03*
X80804000Y-130873500D03*
X80804000Y-130365500D03*
X80804000Y-129870200D03*
X80804000Y-129374900D03*
D24*
X76352400Y-123920000D03*
X75857100Y-123920000D03*
X75349100Y-123920000D03*
X74853800Y-123920000D03*
X74358500Y-123920000D03*
X73850500Y-123920000D03*
X73355200Y-123920000D03*
X72859900Y-123920000D03*
X72351900Y-123920000D03*
X71856600Y-123920000D03*
X71361300Y-123920000D03*
X70853300Y-123920000D03*
X70358000Y-123920000D03*
X69850000Y-123920000D03*
X69354700Y-123920000D03*
X68846700Y-123920000D03*
X68351400Y-123920000D03*
X67856100Y-123920000D03*
X67348100Y-123920000D03*
X66852800Y-123920000D03*
X66357500Y-123920000D03*
X65849500Y-123920000D03*
X65354200Y-123920000D03*
X64858900Y-123920000D03*
X64350900Y-123920000D03*
X63855600Y-123920000D03*
X63360300Y-123920000D03*
X62852300Y-123920000D03*
X62357000Y-123920000D03*
X61861700Y-123920000D03*
X61353700Y-123920000D03*
X78854300Y-123920000D03*
X78346300Y-123920000D03*
X77851000Y-123920000D03*
X77355700Y-123920000D03*
X76847700Y-123920000D03*
D25*
X59404000Y-125869700D03*
X59404000Y-126377700D03*
X59404000Y-126873000D03*
X59404000Y-127368300D03*
X59404000Y-127876300D03*
D26*
X62443400Y-112839500D03*
X64556600Y-113792000D03*
X62443400Y-114744500D03*
D27*
X63500000Y-168758000D03*
D28*
X65750000Y-162458000D03*
X64250000Y-162458000D03*
X62750000Y-162458000D03*
X61250000Y-162458000D03*
D29*
X104215000Y-106970000D03*
X104215000Y-111470000D03*
X97715000Y-111470000D03*
X97715000Y-106970000D03*
X54685000Y-106970000D03*
X54685000Y-111470000D03*
X48185000Y-111470000D03*
X48185000Y-106970000D03*
D30*
X121793000Y-141986000D03*
X121793000Y-140462000D03*
D19*
X73406000Y-114046000D03*
X71882000Y-114046000D03*
X81483200Y-146228000D03*
X83007200Y-146228000D03*
X83007200Y-143980000D03*
X84531200Y-143980000D03*
X83058000Y-142240000D03*
X84582000Y-142240000D03*
X91744800Y-133477000D03*
X90220800Y-133477000D03*
D30*
X124333000Y-141986000D03*
X124333000Y-140462000D03*
D19*
X73406000Y-116586000D03*
X71882000Y-116586000D03*
D30*
X58420000Y-152908000D03*
X58420000Y-154432000D03*
X55880000Y-152908000D03*
X55880000Y-154432000D03*
X53340000Y-152908000D03*
X53340000Y-154432000D03*
X50800000Y-152908000D03*
X50800000Y-154432000D03*
D31*
X43240000Y-166200000D03*
X43240000Y-164000000D03*
D32*
X40640000Y-165100000D03*
D31*
X43240000Y-148420000D03*
X43240000Y-146220000D03*
D32*
X40640000Y-147320000D03*
D31*
X43240000Y-130640000D03*
X43240000Y-128440000D03*
D32*
X40640000Y-129540000D03*
D31*
X43240000Y-112860000D03*
X43240000Y-110660000D03*
D32*
X40640000Y-111760000D03*
D31*
X43240000Y-95080000D03*
X43240000Y-92880000D03*
D32*
X40640000Y-93980000D03*
D31*
X43240000Y-77554000D03*
X43240000Y-75354000D03*
D32*
X40640000Y-76454000D03*
D31*
X43240000Y-59520000D03*
X43240000Y-57320000D03*
D32*
X40640000Y-58420000D03*
D31*
X43240000Y-41740000D03*
X43240000Y-39540000D03*
D32*
X40640000Y-40640000D03*
D31*
X43240000Y-176360000D03*
X43240000Y-174160000D03*
D32*
X40640000Y-175260000D03*
D31*
X43240000Y-158580000D03*
X43240000Y-156380000D03*
D32*
X40640000Y-157480000D03*
D31*
X43240000Y-140800000D03*
X43240000Y-138600000D03*
D32*
X40640000Y-139700000D03*
D31*
X43240000Y-123020000D03*
X43240000Y-120820000D03*
D32*
X40640000Y-121920000D03*
D31*
X43240000Y-105240000D03*
X43240000Y-103040000D03*
D32*
X40640000Y-104140000D03*
D31*
X43240000Y-87460000D03*
X43240000Y-85260000D03*
D32*
X40640000Y-86360000D03*
D31*
X43240000Y-69680000D03*
X43240000Y-67480000D03*
D32*
X40640000Y-68580000D03*
D31*
X43240000Y-51900000D03*
X43240000Y-49700000D03*
D32*
X40640000Y-50800000D03*
D33*
X52070000Y-160700000D03*
X52070000Y-156800000D03*
X53340000Y-160700000D03*
X53340000Y-156800000D03*
X54610000Y-160700000D03*
X54610000Y-156800000D03*
X55880000Y-160700000D03*
X55880000Y-156800000D03*
X57150000Y-160700000D03*
X57150000Y-156800000D03*
D34*
X55090000Y-175895000D03*
D35*
X51590000Y-175895000D03*
D36*
X81010000Y-186510000D03*
X79010000Y-186510000D03*
D37*
X76510000Y-186510000D03*
D38*
X79360000Y-183835000D03*
X78710000Y-183835000D03*
X80010000Y-183835000D03*
X80660000Y-183835000D03*
X81310000Y-183835000D03*
D39*
X82510000Y-183835000D03*
X77510000Y-183835000D03*
D37*
X83510000Y-186510000D03*
D40*
X89369900Y-141059000D03*
X91274900Y-141059000D03*
X85572600Y-148336000D03*
X87477600Y-148336000D03*
D41*
X79248000Y-117538500D03*
X79248000Y-115633500D03*
D42*
X75565000Y-172847000D03*
X75565000Y-177419000D03*
D43*
X123410000Y-138360000D03*
X125510000Y-138360000D03*
X124460000Y-135960000D03*
D44*
X29794200Y-166471600D03*
D45*
X37185600Y-173888400D03*
D44*
X27787600Y-173888400D03*
D46*
X35915600Y-170180000D03*
X28905200Y-170180000D03*
D44*
X29794200Y-148691600D03*
D45*
X37185600Y-156108400D03*
D44*
X27787600Y-156108400D03*
D46*
X35915600Y-152400000D03*
X28905200Y-152400000D03*
D44*
X29794200Y-130911600D03*
D45*
X37185600Y-138328400D03*
D44*
X27787600Y-138328400D03*
D46*
X35915600Y-134620000D03*
X28905200Y-134620000D03*
D44*
X29794200Y-113131600D03*
D45*
X37185600Y-120548400D03*
D44*
X27787600Y-120548400D03*
D46*
X35915600Y-116840000D03*
X28905200Y-116840000D03*
D44*
X29794200Y-95351600D03*
D45*
X37185600Y-102768400D03*
D44*
X27787600Y-102768400D03*
D46*
X35915600Y-99060000D03*
X28905200Y-99060000D03*
D44*
X29794200Y-77571600D03*
D45*
X37185600Y-84988400D03*
D44*
X27787600Y-84988400D03*
D46*
X35915600Y-81280000D03*
X28905200Y-81280000D03*
D44*
X29794200Y-59791600D03*
D45*
X37185600Y-67208400D03*
D44*
X27787600Y-67208400D03*
D46*
X35915600Y-63500000D03*
X28905200Y-63500000D03*
D44*
X29794200Y-42011600D03*
D45*
X37185600Y-49428400D03*
D44*
X27787600Y-49428400D03*
D46*
X35915600Y-45720000D03*
X28905200Y-45720000D03*
D47*
X88265000Y-143764000D03*
X91059000Y-143764000D03*
D48*
X85333800Y-139357000D03*
X83830200Y-139357000D03*
X85968800Y-131191000D03*
X84465200Y-131191000D03*
D49*
X64020700Y-121261800D03*
X64020700Y-119758200D03*
D48*
X56631800Y-131953000D03*
X55128200Y-131953000D03*
D50*
X112776000Y-93853000D03*
X112776000Y-91059000D03*
X116332000Y-148463000D03*
X116332000Y-145669000D03*
D47*
X118237000Y-38100000D03*
X115443000Y-38100000D03*
D50*
X112776000Y-69723000D03*
X112776000Y-66929000D03*
X112776000Y-117983000D03*
X112776000Y-115189000D03*
X112776000Y-45593000D03*
X112776000Y-42799000D03*
D49*
X106680000Y-113548200D03*
X106680000Y-115051800D03*
D47*
X85928200Y-150393000D03*
X88722200Y-150393000D03*
D48*
X90642400Y-138773000D03*
X89138800Y-138773000D03*
X90642400Y-135369000D03*
X89138800Y-135369000D03*
D49*
X119126000Y-148833800D03*
X119126000Y-147330200D03*
X61849000Y-149214800D03*
X61849000Y-147711200D03*
D48*
X84465200Y-135128000D03*
X85968800Y-135128000D03*
X81493400Y-147726000D03*
X82997000Y-147726000D03*
X85968800Y-129667000D03*
X84465200Y-129667000D03*
X75270400Y-154661000D03*
X76774000Y-154661000D03*
X78983800Y-119380000D03*
X77480200Y-119380000D03*
X72887800Y-154686000D03*
X71384200Y-154686000D03*
D49*
X77254100Y-116012200D03*
X77254100Y-117515800D03*
D48*
X71892200Y-118618000D03*
X73395800Y-118618000D03*
D49*
X66040000Y-147838200D03*
X66040000Y-149341800D03*
D48*
X62443400Y-116357000D03*
X63947000Y-116357000D03*
D50*
X65405000Y-158623000D03*
X65405000Y-155829000D03*
D49*
X62242700Y-119758200D03*
X62242700Y-121261800D03*
D51*
X70147200Y-168021000D03*
X75648800Y-168021000D03*
X70274200Y-160274000D03*
X75775800Y-160274000D03*
D50*
X62103000Y-158623000D03*
X62103000Y-155829000D03*
D49*
X74930000Y-183398200D03*
X74930000Y-184901800D03*
D48*
X56631800Y-133858000D03*
X55128200Y-133858000D03*
D47*
X91821000Y-130556000D03*
X89027000Y-130556000D03*
X87617300Y-133147000D03*
X84823300Y-133147000D03*
D52*
X72644000Y-185674000D03*
X59436000Y-185674000D03*
D53*
X66040000Y-176524000D03*
X70739000Y-176524000D03*
X61341000Y-176524000D03*
D54*
X50040600Y-106408800D03*
X50645400Y-129285000D03*
X53675100Y-103176500D03*
X51143600Y-112105000D03*
X51354600Y-103071500D03*
X52399600Y-133258300D03*
X57116800Y-103075800D03*
X62948600Y-132538900D03*
X54611000Y-103382700D03*
X52249300Y-113891600D03*
X57313300Y-112136300D03*
X55893300Y-137413400D03*
X51742600Y-110505500D03*
X52787700Y-115723700D03*
X60125300Y-114133500D03*
X60586800Y-135321000D03*
X58728500Y-105828900D03*
X54155000Y-115524400D03*
X60753900Y-106841500D03*
X54348500Y-113288700D03*
X60242100Y-108156400D03*
X55126000Y-113272500D03*
X60489700Y-112947600D03*
X55732100Y-122253400D03*
X62265400Y-110717400D03*
X61231800Y-129331100D03*
X62362800Y-107868400D03*
X55976100Y-119953300D03*
X62362800Y-108700100D03*
X56477800Y-114585100D03*
X62115300Y-111771900D03*
X57316700Y-119625800D03*
X62397900Y-109528100D03*
X57547700Y-115207400D03*
X63533700Y-113940400D03*
X60931300Y-128112400D03*
X63048500Y-112052000D03*
X60716000Y-115369500D03*
X65006900Y-119816200D03*
X61926100Y-127404500D03*
X65228800Y-111526000D03*
X66153600Y-127108500D03*
X66687300Y-113627100D03*
X72623600Y-139486100D03*
X66989400Y-144104600D03*
X50292800Y-142306700D03*
X68010000Y-146970600D03*
X56961800Y-147430600D03*
X67820300Y-143994300D03*
X57732300Y-145363600D03*
X68655300Y-143914200D03*
X59245900Y-145262200D03*
X44408000Y-116843900D03*
X43293900Y-104152600D03*
X70069600Y-143789200D03*
X57705700Y-144248700D03*
X70942200Y-143382800D03*
X61144700Y-142854600D03*
X69308900Y-146565900D03*
X60881800Y-146436800D03*
X71599500Y-144134900D03*
X52774300Y-144210800D03*
X50604400Y-144640000D03*
X70749100Y-146828300D03*
X71847000Y-147129300D03*
X60468100Y-148521400D03*
X71681900Y-158990400D03*
X50126900Y-160315300D03*
X61052000Y-122735200D03*
X62148900Y-113780500D03*
X74795600Y-146555200D03*
X54518800Y-158974400D03*
X74792400Y-147888500D03*
X63614700Y-157634600D03*
X75540600Y-147457400D03*
X56739100Y-158848200D03*
X75794000Y-144134900D03*
X53103100Y-158747500D03*
X99568000Y-46736000D03*
X109736700Y-50546600D03*
X98462200Y-43864300D03*
X109712900Y-49660500D03*
X111759600Y-73904300D03*
X96737700Y-102863100D03*
X83303800Y-107793300D03*
X111605600Y-89357400D03*
X77798200Y-137484600D03*
X83273600Y-127136200D03*
X112098400Y-74696500D03*
X109808600Y-65456600D03*
X78497700Y-133739200D03*
X102746000Y-130293400D03*
X84531800Y-126914800D03*
X110547200Y-89661000D03*
X77491700Y-136513400D03*
X96350600Y-123811600D03*
X75805900Y-122334600D03*
X73885200Y-119634700D03*
X99699700Y-103013600D03*
X109969300Y-92286400D03*
X95268800Y-124482200D03*
X73333900Y-122336600D03*
X72934000Y-120069500D03*
X103520800Y-108396200D03*
X109801000Y-98443700D03*
X71325900Y-122313000D03*
X102881300Y-109785200D03*
X110033000Y-103316200D03*
X111096500Y-103492400D03*
X76564100Y-121948400D03*
X102996500Y-121645200D03*
X70837300Y-127269400D03*
X103644600Y-125357500D03*
X110547200Y-113803500D03*
X72561300Y-127224000D03*
X101632400Y-125484100D03*
X71154100Y-126508000D03*
X98924400Y-125188600D03*
X70399200Y-126184800D03*
X102839100Y-124453800D03*
X102010100Y-111798300D03*
X74962000Y-143721700D03*
X59144000Y-156863800D03*
X74724000Y-138428400D03*
X76945900Y-180085100D03*
X81788000Y-182499000D03*
X73651400Y-152584100D03*
X60933100Y-136921800D03*
X61214000Y-176784000D03*
X82169000Y-141986000D03*
X83693000Y-145034000D03*
X76835000Y-185039000D03*
X84328000Y-185039000D03*
X74362800Y-134824700D03*
X79561000Y-139088600D03*
X90682500Y-142216900D03*
X71430100Y-132019100D03*
X79163900Y-141995600D03*
X84477300Y-145018200D03*
X63246000Y-147828000D03*
X58928000Y-147828000D03*
X56515000Y-145415000D03*
X83058000Y-135890000D03*
X59817000Y-121158000D03*
X56515000Y-135128000D03*
X83312000Y-133414000D03*
X87693500Y-131254000D03*
X67818000Y-160655000D03*
X63754000Y-160655000D03*
X95173200Y-123071600D03*
X77811300Y-122017000D03*
X72263000Y-172212000D03*
X71120000Y-171069000D03*
X73007900Y-147379600D03*
X70653700Y-119160000D03*
X44577000Y-75311000D03*
X122174000Y-152781000D03*
X44450000Y-67310000D03*
X64770000Y-110490000D03*
X116332000Y-144018000D03*
X119126000Y-146050000D03*
X124460000Y-134239000D03*
X115189000Y-117983000D03*
X115189000Y-93853000D03*
X115062000Y-69723000D03*
X115062000Y-45593000D03*
X118237000Y-39751000D03*
X66040000Y-150368000D03*
X67183000Y-147828000D03*
X55118000Y-135128000D03*
X60960000Y-119761000D03*
X62103000Y-122301000D03*
X85979000Y-128524000D03*
X60833000Y-166751000D03*
X61722000Y-166751000D03*
X62611000Y-166751000D03*
X63500000Y-166751000D03*
X64389000Y-166751000D03*
X65278000Y-166751000D03*
X66167000Y-166751000D03*
X65405000Y-154305000D03*
X62103000Y-154305000D03*
X77089000Y-158750000D03*
X76962000Y-166370000D03*
X44704000Y-39497000D03*
X44704000Y-49784000D03*
X44704000Y-57404000D03*
X44577000Y-164084000D03*
X29591000Y-173863000D03*
X29210000Y-163703000D03*
X29591000Y-156083000D03*
X29210000Y-145923000D03*
X29464000Y-138303000D03*
X29210000Y-128143000D03*
X29591000Y-120523000D03*
X29210000Y-110363000D03*
X29591000Y-102743000D03*
X29210000Y-92583000D03*
X29210000Y-74803000D03*
X29210000Y-57023000D03*
X29210000Y-39243000D03*
X77343000Y-118491000D03*
X70993000Y-116586000D03*
X77343000Y-144018000D03*
X57150000Y-162814000D03*
X53340000Y-162814000D03*
X61976000Y-150241000D03*
X92710000Y-143764000D03*
X93472000Y-137160000D03*
X91694000Y-129032000D03*
X70358000Y-154686000D03*
X70612000Y-149860000D03*
X83058000Y-149098000D03*
X90424000Y-150368000D03*
X44577000Y-174244000D03*
X44577000Y-156464000D03*
X44577000Y-146304000D03*
X44704000Y-138684000D03*
X44704000Y-128524000D03*
X44577000Y-120904000D03*
X44704000Y-110744000D03*
X44704000Y-103124000D03*
X44704000Y-92964000D03*
X44704000Y-85344000D03*
X29337000Y-85090000D03*
X29337000Y-67310000D03*
X29464000Y-49530000D03*
X76708000Y-181102000D03*
X83058000Y-181102000D03*
X74676000Y-151257000D03*
X74676000Y-153416000D03*
X82290400Y-145364600D03*
X79494800Y-141011400D03*
X87535800Y-136612800D03*
X84077000Y-137306500D03*
X87252200Y-137951200D03*
X82040400Y-137860700D03*
X79557800Y-135242700D03*
X88853500Y-134337400D03*
X86072200Y-141702100D03*
X85340200Y-144328800D03*
X53098700Y-112099300D03*
X95565400Y-126907200D03*
X74896700Y-132491500D03*
X110634700Y-152631300D03*
X102423600Y-145417900D03*
X67748400Y-139131000D03*
X68582700Y-139141300D03*
X103517600Y-145194300D03*
X104882000Y-151605500D03*
X91601100Y-145410100D03*
X67569200Y-140349900D03*
X117836400Y-153981700D03*
X102540400Y-142333200D03*
X79603400Y-133388500D03*
X94733800Y-127263300D03*
X83543700Y-129207300D03*
X102427900Y-131513400D03*
X82473200Y-132239900D03*
X107652100Y-153620800D03*
X101626700Y-141849500D03*
X79565200Y-134456000D03*
D55*
X59404000Y-142367000D02*
X58450100Y-142367000D01*
X58225200Y-142142100D02*
X58450100Y-142367000D01*
X57494500Y-142142100D02*
X58225200Y-142142100D01*
X56333700Y-140981300D02*
X57494500Y-142142100D01*
X55036800Y-140981300D02*
X56333700Y-140981300D01*
X49196300Y-135140800D02*
X55036800Y-140981300D01*
X49196300Y-118208000D02*
X49196300Y-135140800D01*
X45984000Y-114995700D02*
X49196300Y-118208000D01*
X45984000Y-105928300D02*
X45984000Y-114995700D01*
X46295400Y-105616900D02*
X45984000Y-105928300D01*
X46295400Y-38794600D02*
X46295400Y-105616900D01*
X48260000Y-36830000D02*
X46295400Y-38794600D01*
X59404000Y-141871700D02*
X58450100Y-141871700D01*
X58415400Y-141837000D02*
X58450100Y-141871700D01*
X57621000Y-141837000D02*
X58415400Y-141837000D01*
X56460200Y-140676200D02*
X57621000Y-141837000D01*
X55163300Y-140676200D02*
X56460200Y-140676200D01*
X49501400Y-135014300D02*
X55163300Y-140676200D01*
X49501400Y-118081500D02*
X49501400Y-135014300D01*
X46289100Y-114869200D02*
X49501400Y-118081500D01*
X46289100Y-106054800D02*
X46289100Y-114869200D01*
X46600500Y-105743400D02*
X46289100Y-106054800D01*
X46600500Y-46576900D02*
X46600500Y-105743400D01*
X49292000Y-43885400D02*
X46600500Y-46576900D01*
X49292000Y-35322000D02*
X49292000Y-43885400D01*
X48260000Y-34290000D02*
X49292000Y-35322000D01*
X57579300Y-141363700D02*
X59404000Y-141363700D01*
X56586700Y-140371100D02*
X57579300Y-141363700D01*
X55289800Y-140371100D02*
X56586700Y-140371100D01*
X49806500Y-134887800D02*
X55289800Y-140371100D01*
X49806500Y-117955000D02*
X49806500Y-134887800D01*
X46594200Y-114742700D02*
X49806500Y-117955000D01*
X46594200Y-106181300D02*
X46594200Y-114742700D01*
X46905600Y-105869900D02*
X46594200Y-106181300D01*
X46905600Y-46703300D02*
X46905600Y-105869900D01*
X50800000Y-42808900D02*
X46905600Y-46703300D01*
X50800000Y-36830000D02*
X50800000Y-42808900D01*
X57515600Y-140868400D02*
X59404000Y-140868400D01*
X56713200Y-140066000D02*
X57515600Y-140868400D01*
X55416300Y-140066000D02*
X56713200Y-140066000D01*
X50111600Y-134761300D02*
X55416300Y-140066000D01*
X50111600Y-117828500D02*
X50111600Y-134761300D01*
X46899300Y-114616200D02*
X50111600Y-117828500D01*
X46899300Y-106307900D02*
X46899300Y-114616200D01*
X47274100Y-105933100D02*
X46899300Y-106307900D01*
X47274100Y-101387200D02*
X47274100Y-105933100D01*
X51841500Y-96819800D02*
X47274100Y-101387200D01*
X51841500Y-35331500D02*
X51841500Y-96819800D01*
X50800000Y-34290000D02*
X51841500Y-35331500D01*
X59404000Y-140373100D02*
X58450100Y-140373100D01*
X50040600Y-103022600D02*
X50040600Y-106408800D01*
X53340000Y-99723200D02*
X50040600Y-103022600D01*
X53340000Y-36830000D02*
X53340000Y-99723200D01*
X57837900Y-139760900D02*
X58450100Y-140373100D01*
X55620100Y-139760900D02*
X57837900Y-139760900D01*
X50645400Y-134786200D02*
X55620100Y-139760900D01*
X50645400Y-129285000D02*
X50645400Y-134786200D01*
X57888200Y-139303200D02*
X58450100Y-139865100D01*
X55626900Y-139303200D02*
X57888200Y-139303200D01*
X51179200Y-134855500D02*
X55626900Y-139303200D01*
X51179200Y-116423700D02*
X51179200Y-134855500D01*
X47204500Y-112449000D02*
X51179200Y-116423700D01*
X47204500Y-106434400D02*
X47204500Y-112449000D01*
X48391100Y-105247800D02*
X47204500Y-106434400D01*
X48391100Y-101707700D02*
X48391100Y-105247800D01*
X52349000Y-97749800D02*
X48391100Y-101707700D01*
X52349000Y-35281000D02*
X52349000Y-97749800D01*
X53340000Y-34290000D02*
X52349000Y-35281000D01*
X59404000Y-139865100D02*
X58450100Y-139865100D01*
X59404000Y-139369800D02*
X58450100Y-139369800D01*
X55880000Y-100971600D02*
X53675100Y-103176500D01*
X55880000Y-36830000D02*
X55880000Y-100971600D01*
X51560700Y-112522100D02*
X51143600Y-112105000D01*
X51560800Y-112522100D02*
X51560700Y-112522100D01*
X51560800Y-134772600D02*
X51560800Y-112522100D01*
X55786300Y-138998100D02*
X51560800Y-134772600D01*
X58078400Y-138998100D02*
X55786300Y-138998100D01*
X58450100Y-139369800D02*
X58078400Y-138998100D01*
X54610100Y-99816000D02*
X51354600Y-103071500D01*
X54610100Y-35559900D02*
X54610100Y-99816000D01*
X55880000Y-34290000D02*
X54610100Y-35559900D01*
X59404000Y-138874500D02*
X58450100Y-138874500D01*
X52399600Y-135151500D02*
X52399600Y-133258300D01*
X55941100Y-138693000D02*
X52399600Y-135151500D01*
X58268600Y-138693000D02*
X55941100Y-138693000D01*
X58450100Y-138874500D02*
X58268600Y-138693000D01*
X62948600Y-135775800D02*
X60357900Y-138366500D01*
X62948600Y-132538900D02*
X62948600Y-135775800D01*
X59404000Y-138366500D02*
X60357900Y-138366500D01*
X57116800Y-38349200D02*
X57116800Y-103075800D01*
X58420000Y-37046000D02*
X57116800Y-38349200D01*
X58420000Y-36830000D02*
X58420000Y-37046000D01*
X59404000Y-137871200D02*
X58450100Y-137871200D01*
X56435300Y-101558400D02*
X54611000Y-103382700D01*
X56435300Y-38599000D02*
X56435300Y-101558400D01*
X57419900Y-37614400D02*
X56435300Y-38599000D01*
X57419900Y-35290100D02*
X57419900Y-37614400D01*
X58420000Y-34290000D02*
X57419900Y-35290100D01*
X52249300Y-132353200D02*
X52249300Y-113891600D01*
X52933300Y-133037200D02*
X52249300Y-132353200D01*
X52933300Y-135209300D02*
X52933300Y-133037200D01*
X55711500Y-137987500D02*
X52933300Y-135209300D01*
X58333800Y-137987500D02*
X55711500Y-137987500D01*
X58450100Y-137871200D02*
X58333800Y-137987500D01*
X59404000Y-137375900D02*
X55930800Y-137375900D01*
X55930800Y-137375900D02*
X55893300Y-137413400D01*
X60960000Y-39755300D02*
X60960000Y-36830000D01*
X58017900Y-42697400D02*
X60960000Y-39755300D01*
X58017900Y-111431700D02*
X58017900Y-42697400D01*
X57313300Y-112136300D02*
X58017900Y-111431700D01*
X59404000Y-136867900D02*
X55239500Y-136867900D01*
X59727000Y-35523000D02*
X60960000Y-34290000D01*
X59727000Y-40556600D02*
X59727000Y-35523000D01*
X57670900Y-42612700D02*
X59727000Y-40556600D01*
X57670900Y-105481400D02*
X57670900Y-42612700D01*
X52646800Y-110505500D02*
X57670900Y-105481400D01*
X51742600Y-110505500D02*
X52646800Y-110505500D01*
X53238400Y-116174400D02*
X52787700Y-115723700D01*
X53238400Y-134866800D02*
X53238400Y-116174400D01*
X55239500Y-136867900D02*
X53238400Y-134866800D01*
X59404000Y-135369300D02*
X60538500Y-135369300D01*
X60538500Y-135369300D02*
X60586800Y-135321000D01*
X59678100Y-113686300D02*
X60125300Y-114133500D01*
X59678100Y-42201800D02*
X59678100Y-113686300D01*
X63500000Y-38379900D02*
X59678100Y-42201800D01*
X63500000Y-36830000D02*
X63500000Y-38379900D01*
X58728500Y-42418600D02*
X58728500Y-105828900D01*
X62230100Y-38917000D02*
X58728500Y-42418600D01*
X62230100Y-35559900D02*
X62230100Y-38917000D01*
X63500000Y-34290000D02*
X62230100Y-35559900D01*
X54155000Y-134920200D02*
X54155000Y-115524400D01*
X55320200Y-136085400D02*
X54155000Y-134920200D01*
X57024000Y-136085400D02*
X55320200Y-136085400D01*
X58235400Y-134874000D02*
X57024000Y-136085400D01*
X59404000Y-134874000D02*
X58235400Y-134874000D01*
X54688700Y-113628900D02*
X54348500Y-113288700D01*
X54688700Y-128650900D02*
X54688700Y-113628900D01*
X57675300Y-131637500D02*
X54688700Y-128650900D01*
X57675300Y-132092600D02*
X57675300Y-131637500D01*
X58450100Y-132867400D02*
X57675300Y-132092600D01*
X59404000Y-132867400D02*
X58450100Y-132867400D01*
X60754000Y-106841500D02*
X60753900Y-106841500D01*
X60754000Y-44747900D02*
X60754000Y-106841500D01*
X66040000Y-39461900D02*
X60754000Y-44747900D01*
X66040000Y-36830000D02*
X66040000Y-39461900D01*
X59404000Y-132372100D02*
X58450100Y-132372100D01*
X55126000Y-128616200D02*
X55126000Y-113272500D01*
X58145000Y-131635200D02*
X55126000Y-128616200D01*
X58145000Y-132067000D02*
X58145000Y-131635200D01*
X58450100Y-132372100D02*
X58145000Y-132067000D01*
X60220200Y-108134500D02*
X60242100Y-108156400D01*
X60220200Y-44766500D02*
X60220200Y-108134500D01*
X64490900Y-40495800D02*
X60220200Y-44766500D01*
X64490900Y-35839100D02*
X64490900Y-40495800D01*
X66040000Y-34290000D02*
X64490900Y-35839100D01*
X59404000Y-131864100D02*
X58450100Y-131864100D01*
X55732100Y-128790800D02*
X55732100Y-122253400D01*
X58450100Y-131508800D02*
X55732100Y-128790800D01*
X58450100Y-131864100D02*
X58450100Y-131508800D01*
X61218900Y-112218400D02*
X60489700Y-112947600D01*
X61218900Y-107131400D02*
X61218900Y-112218400D01*
X61319000Y-107031300D02*
X61218900Y-107131400D01*
X61319000Y-44962500D02*
X61319000Y-107031300D01*
X68580000Y-37701500D02*
X61319000Y-44962500D01*
X68580000Y-36830000D02*
X68580000Y-37701500D01*
X61231800Y-130494900D02*
X60357900Y-131368800D01*
X61231800Y-129331100D02*
X61231800Y-130494900D01*
X59404000Y-131368800D02*
X60357900Y-131368800D01*
X61524000Y-109976000D02*
X62265400Y-110717400D01*
X61524000Y-107257900D02*
X61524000Y-109976000D01*
X61829000Y-106952900D02*
X61524000Y-107257900D01*
X61829000Y-46229000D02*
X61829000Y-106952900D01*
X69575600Y-38482400D02*
X61829000Y-46229000D01*
X69575600Y-35285600D02*
X69575600Y-38482400D01*
X68580000Y-34290000D02*
X69575600Y-35285600D01*
X56265800Y-128689200D02*
X58450100Y-130873500D01*
X56265800Y-120243000D02*
X56265800Y-128689200D01*
X55976100Y-119953300D02*
X56265800Y-120243000D01*
X59404000Y-130873500D02*
X58450100Y-130873500D01*
X62591500Y-107639700D02*
X62362800Y-107868400D01*
X62591500Y-47349100D02*
X62591500Y-107639700D01*
X71120000Y-38820600D02*
X62591500Y-47349100D01*
X71120000Y-36830000D02*
X71120000Y-38820600D01*
X59404000Y-130365500D02*
X58450100Y-130365500D01*
X56782900Y-114890200D02*
X56477800Y-114585100D01*
X56782900Y-128698300D02*
X56782900Y-114890200D01*
X58450100Y-130365500D02*
X56782900Y-128698300D01*
X61829100Y-108166400D02*
X62362800Y-108700100D01*
X61829100Y-107384400D02*
X61829100Y-108166400D01*
X62134100Y-107079400D02*
X61829100Y-107384400D01*
X62134100Y-47374700D02*
X62134100Y-107079400D01*
X70129000Y-39379800D02*
X62134100Y-47374700D01*
X70129000Y-35281000D02*
X70129000Y-39379800D01*
X71120000Y-34290000D02*
X70129000Y-35281000D01*
X59404000Y-129870200D02*
X58450100Y-129870200D01*
X57316700Y-128736800D02*
X58450100Y-129870200D01*
X57316700Y-119625800D02*
X57316700Y-128736800D01*
X63506800Y-110380400D02*
X62115300Y-111771900D01*
X63506800Y-49938000D02*
X63506800Y-110380400D01*
X73660000Y-39784800D02*
X63506800Y-49938000D01*
X73660000Y-36830000D02*
X73660000Y-39784800D01*
X59404000Y-129374900D02*
X58450100Y-129374900D01*
X57867000Y-128791800D02*
X58450100Y-129374900D01*
X57867000Y-115526700D02*
X57867000Y-128791800D01*
X57547700Y-115207400D02*
X57867000Y-115526700D01*
X62896600Y-109029400D02*
X62397900Y-109528100D01*
X62896600Y-49104800D02*
X62896600Y-109029400D01*
X72390100Y-39611300D02*
X62896600Y-49104800D01*
X72390100Y-35559900D02*
X72390100Y-39611300D01*
X73660000Y-34290000D02*
X72390100Y-35559900D01*
X59404000Y-128866900D02*
X60357900Y-128866900D01*
X76200000Y-38361300D02*
X76200000Y-36830000D01*
X64175200Y-50386100D02*
X76200000Y-38361300D01*
X64175200Y-113022800D02*
X64175200Y-50386100D01*
X63533700Y-113664300D02*
X64175200Y-113022800D01*
X63533700Y-113940400D02*
X63533700Y-113664300D01*
X60357900Y-128685800D02*
X60931300Y-128112400D01*
X60357900Y-128866900D02*
X60357900Y-128685800D01*
X63870000Y-111230500D02*
X63048500Y-112052000D01*
X63870000Y-50006600D02*
X63870000Y-111230500D01*
X74930100Y-38946500D02*
X63870000Y-50006600D01*
X74930100Y-35559900D02*
X74930100Y-38946500D01*
X76200000Y-34290000D02*
X74930100Y-35559900D01*
X59404000Y-128371600D02*
X58450100Y-128371600D01*
X58450100Y-117635400D02*
X60716000Y-115369500D01*
X58450100Y-128371600D02*
X58450100Y-117635400D01*
X65543300Y-119279800D02*
X65006900Y-119816200D01*
X65543300Y-112059800D02*
X65543300Y-119279800D01*
X66001100Y-111602000D02*
X65543300Y-112059800D01*
X66001100Y-49568900D02*
X66001100Y-111602000D01*
X78740000Y-36830000D02*
X66001100Y-49568900D01*
X60374700Y-127876300D02*
X59404000Y-127876300D01*
X60684100Y-127566900D02*
X60374700Y-127876300D01*
X61763700Y-127566900D02*
X60684100Y-127566900D01*
X61926100Y-127404500D02*
X61763700Y-127566900D01*
X77578100Y-35451900D02*
X78740000Y-34290000D01*
X77578100Y-37415000D02*
X77578100Y-35451900D01*
X65329600Y-49663500D02*
X77578100Y-37415000D01*
X65329600Y-111425200D02*
X65329600Y-49663500D01*
X65228800Y-111526000D02*
X65329600Y-111425200D01*
X60434200Y-127368300D02*
X59404000Y-127368300D01*
X60613700Y-127188800D02*
X60434200Y-127368300D01*
X61387100Y-127188800D02*
X60613700Y-127188800D01*
X61705100Y-126870800D02*
X61387100Y-127188800D01*
X65915900Y-126870800D02*
X61705100Y-126870800D01*
X66153600Y-127108500D02*
X65915900Y-126870800D01*
X82299000Y-35811000D02*
X81280000Y-36830000D01*
X82299000Y-33873700D02*
X82299000Y-35811000D01*
X81700500Y-33275200D02*
X82299000Y-33873700D01*
X80851800Y-33275200D02*
X81700500Y-33275200D01*
X79939700Y-34187300D02*
X80851800Y-33275200D01*
X79939700Y-47436300D02*
X79939700Y-34187300D01*
X66306200Y-61069800D02*
X79939700Y-47436300D01*
X66306200Y-111881200D02*
X66306200Y-61069800D01*
X65848500Y-112338900D02*
X66306200Y-111881200D01*
X65848500Y-120648600D02*
X65848500Y-112338900D01*
X65133800Y-121363300D02*
X65848500Y-120648600D01*
X65133800Y-121654700D02*
X65133800Y-121363300D01*
X63855600Y-122932900D02*
X65133800Y-121654700D01*
X63855600Y-123920000D02*
X63855600Y-122932900D01*
X64350900Y-123920000D02*
X64350900Y-122966100D01*
X80244900Y-35325100D02*
X81280000Y-34290000D01*
X80244900Y-50621800D02*
X80244900Y-35325100D01*
X66611300Y-64255400D02*
X80244900Y-50621800D01*
X66611300Y-112948300D02*
X66611300Y-64255400D01*
X66153600Y-113406000D02*
X66611300Y-112948300D01*
X66153600Y-120775100D02*
X66153600Y-113406000D01*
X65438900Y-121489800D02*
X66153600Y-120775100D01*
X65438900Y-121878100D02*
X65438900Y-121489800D01*
X64350900Y-122966100D02*
X65438900Y-121878100D01*
X80954900Y-39695100D02*
X83820000Y-36830000D01*
X80954900Y-86791300D02*
X80954900Y-39695100D01*
X67221500Y-100524700D02*
X80954900Y-86791300D01*
X67221500Y-113873800D02*
X67221500Y-100524700D01*
X66458700Y-114636600D02*
X67221500Y-113873800D01*
X66458700Y-120901600D02*
X66458700Y-114636600D01*
X65744000Y-121616300D02*
X66458700Y-120901600D01*
X65744000Y-122047900D02*
X65744000Y-121616300D01*
X64858900Y-122933000D02*
X65744000Y-122047900D01*
X64858900Y-123920000D02*
X64858900Y-122933000D01*
X84821000Y-35291000D02*
X83820000Y-34290000D01*
X84821000Y-37230600D02*
X84821000Y-35291000D01*
X81260000Y-40791600D02*
X84821000Y-37230600D01*
X81260000Y-87349400D02*
X81260000Y-40791600D01*
X67526600Y-101082800D02*
X81260000Y-87349400D01*
X67526600Y-114000300D02*
X67526600Y-101082800D01*
X66763800Y-114763100D02*
X67526600Y-114000300D01*
X66763800Y-121028100D02*
X66763800Y-114763100D01*
X66049100Y-121742800D02*
X66763800Y-121028100D01*
X66049100Y-122174400D02*
X66049100Y-121742800D01*
X65354200Y-122869300D02*
X66049100Y-122174400D01*
X65354200Y-123920000D02*
X65354200Y-122869300D01*
X81591200Y-41598800D02*
X86360000Y-36830000D01*
X81591200Y-87449800D02*
X81591200Y-41598800D01*
X67831700Y-101209300D02*
X81591200Y-87449800D01*
X67831700Y-114126800D02*
X67831700Y-101209300D01*
X67068900Y-114889600D02*
X67831700Y-114126800D01*
X67068900Y-121154600D02*
X67068900Y-114889600D01*
X66354200Y-121869300D02*
X67068900Y-121154600D01*
X66354200Y-122300900D02*
X66354200Y-121869300D01*
X65849500Y-122805600D02*
X66354200Y-122300900D01*
X65849500Y-123920000D02*
X65849500Y-122805600D01*
X66357500Y-123920000D02*
X66357500Y-122966100D01*
X87361000Y-35291000D02*
X86360000Y-34290000D01*
X87361000Y-38306000D02*
X87361000Y-35291000D01*
X82201400Y-43465600D02*
X87361000Y-38306000D01*
X82201400Y-87271100D02*
X82201400Y-43465600D01*
X68136800Y-101335700D02*
X82201400Y-87271100D01*
X68136800Y-114253300D02*
X68136800Y-101335700D01*
X67374000Y-115016100D02*
X68136800Y-114253300D01*
X67374000Y-121281100D02*
X67374000Y-115016100D01*
X66659300Y-121995800D02*
X67374000Y-121281100D01*
X66659300Y-122664300D02*
X66659300Y-121995800D01*
X66357500Y-122966100D02*
X66659300Y-122664300D01*
X66852800Y-123920000D02*
X66852800Y-122966100D01*
X88900000Y-37198700D02*
X88900000Y-36830000D01*
X84479800Y-41618900D02*
X88900000Y-37198700D01*
X84479800Y-85424500D02*
X84479800Y-41618900D01*
X68441900Y-101462400D02*
X84479800Y-85424500D01*
X68441900Y-114379800D02*
X68441900Y-101462400D01*
X67679100Y-115142600D02*
X68441900Y-114379800D01*
X67679100Y-121407600D02*
X67679100Y-115142600D01*
X66964400Y-122122300D02*
X67679100Y-121407600D01*
X66964400Y-122854500D02*
X66964400Y-122122300D01*
X66852800Y-122966100D02*
X66964400Y-122854500D01*
X67348100Y-123920000D02*
X67348100Y-122170200D01*
X67984200Y-121534100D02*
X67348100Y-122170200D01*
X67984200Y-115269100D02*
X67984200Y-121534100D01*
X69051700Y-114201600D02*
X67984200Y-115269100D01*
X69051700Y-101759900D02*
X69051700Y-114201600D01*
X85090000Y-85721600D02*
X69051700Y-101759900D01*
X85090000Y-42041600D02*
X85090000Y-85721600D01*
X89901000Y-37230600D02*
X85090000Y-42041600D01*
X89901000Y-35291000D02*
X89901000Y-37230600D01*
X88900000Y-34290000D02*
X89901000Y-35291000D01*
X67856100Y-122093800D02*
X67856100Y-123920000D01*
X68289300Y-121660600D02*
X67856100Y-122093800D01*
X68289300Y-115395600D02*
X68289300Y-121660600D01*
X69448200Y-114236700D02*
X68289300Y-115395600D01*
X69448200Y-102042700D02*
X69448200Y-114236700D01*
X87493300Y-83997600D02*
X69448200Y-102042700D01*
X87493300Y-40776700D02*
X87493300Y-83997600D01*
X91440000Y-36830000D02*
X87493300Y-40776700D01*
X68351400Y-123920000D02*
X68351400Y-122966100D01*
X68594400Y-122723100D02*
X68351400Y-122966100D01*
X68594400Y-115522100D02*
X68594400Y-122723100D01*
X69753300Y-114363200D02*
X68594400Y-115522100D01*
X69753300Y-102416800D02*
X69753300Y-114363200D01*
X87798500Y-84371600D02*
X69753300Y-102416800D01*
X87798500Y-79976400D02*
X87798500Y-84371600D01*
X92458900Y-75316000D02*
X87798500Y-79976400D01*
X92458900Y-35308900D02*
X92458900Y-75316000D01*
X91440000Y-34290000D02*
X92458900Y-35308900D01*
X68846700Y-123920000D02*
X68846700Y-122966100D01*
X68899500Y-122913300D02*
X68846700Y-122966100D01*
X68899500Y-115648600D02*
X68899500Y-122913300D01*
X70058400Y-114489700D02*
X68899500Y-115648600D01*
X70058400Y-102543300D02*
X70058400Y-114489700D01*
X88256100Y-84345600D02*
X70058400Y-102543300D01*
X88256100Y-81208400D02*
X88256100Y-84345600D01*
X93980000Y-75484500D02*
X88256100Y-81208400D01*
X93980000Y-36830000D02*
X93980000Y-75484500D01*
X69354700Y-123920000D02*
X69354700Y-122966100D01*
X69204600Y-122816000D02*
X69354700Y-122966100D01*
X69204600Y-115775100D02*
X69204600Y-122816000D01*
X70363500Y-114616200D02*
X69204600Y-115775100D01*
X70363500Y-102669800D02*
X70363500Y-114616200D01*
X88561200Y-84472100D02*
X70363500Y-102669800D01*
X88561200Y-81334900D02*
X88561200Y-84472100D01*
X95012000Y-74884100D02*
X88561200Y-81334900D01*
X95012000Y-35322000D02*
X95012000Y-74884100D01*
X93980000Y-34290000D02*
X95012000Y-35322000D01*
X69850000Y-123920000D02*
X69850000Y-122966100D01*
X69509700Y-122625800D02*
X69850000Y-122966100D01*
X69509700Y-115901600D02*
X69509700Y-122625800D01*
X70668600Y-114742700D02*
X69509700Y-115901600D01*
X70668600Y-102796300D02*
X70668600Y-114742700D01*
X88866300Y-84598600D02*
X70668600Y-102796300D01*
X88866300Y-81461400D02*
X88866300Y-84598600D01*
X96520000Y-73807700D02*
X88866300Y-81461400D01*
X96520000Y-36830000D02*
X96520000Y-73807700D01*
X70358000Y-123920000D02*
X70358000Y-122966100D01*
X69814800Y-122422900D02*
X70358000Y-122966100D01*
X69814800Y-116028100D02*
X69814800Y-122422900D01*
X70973700Y-114869200D02*
X69814800Y-116028100D01*
X70973700Y-113288800D02*
X70973700Y-114869200D01*
X89171500Y-95091000D02*
X70973700Y-113288800D01*
X89171500Y-81587800D02*
X89171500Y-95091000D01*
X97154200Y-73605100D02*
X89171500Y-81587800D01*
X97154200Y-43569000D02*
X97154200Y-73605100D01*
X97543700Y-43179500D02*
X97154200Y-43569000D01*
X97543700Y-35313700D02*
X97543700Y-43179500D01*
X96520000Y-34290000D02*
X97543700Y-35313700D01*
X70119900Y-122232700D02*
X70853300Y-122966100D01*
X70119900Y-116154600D02*
X70119900Y-122232700D01*
X71278800Y-114995700D02*
X70119900Y-116154600D01*
X71278800Y-113423100D02*
X71278800Y-114995700D01*
X89629000Y-95072900D02*
X71278800Y-113423100D01*
X89629000Y-81561900D02*
X89629000Y-95072900D01*
X97459300Y-73731600D02*
X89629000Y-81561900D01*
X97459300Y-43847900D02*
X97459300Y-73731600D01*
X99060000Y-42247200D02*
X97459300Y-43847900D01*
X99060000Y-36830000D02*
X99060000Y-42247200D01*
X70853300Y-123920000D02*
X70853300Y-122966100D01*
X100103300Y-35333300D02*
X99060000Y-34290000D01*
X100103300Y-73708800D02*
X100103300Y-35333300D01*
X91398100Y-82414000D02*
X100103300Y-73708800D01*
X91398100Y-100559100D02*
X91398100Y-82414000D01*
X75880900Y-116076300D02*
X91398100Y-100559100D01*
X75880900Y-120171800D02*
X75880900Y-116076300D01*
X77127100Y-121418000D02*
X75880900Y-120171800D01*
X77127100Y-122331800D02*
X77127100Y-121418000D01*
X76847700Y-122611200D02*
X77127100Y-122331800D01*
X76847700Y-123920000D02*
X76847700Y-122611200D01*
X74358500Y-141221000D02*
X74358500Y-145320000D01*
X72623600Y-139486100D02*
X74358500Y-141221000D01*
X47039900Y-32970100D02*
X45720000Y-34290000D01*
X81827000Y-32970100D02*
X47039900Y-32970100D01*
X82604100Y-33747200D02*
X81827000Y-32970100D01*
X82604100Y-37413600D02*
X82604100Y-33747200D01*
X80649800Y-39367900D02*
X82604100Y-37413600D01*
X80649800Y-86664800D02*
X80649800Y-39367900D01*
X66916400Y-100398200D02*
X80649800Y-86664800D01*
X66916400Y-113398000D02*
X66916400Y-100398200D01*
X66687300Y-113627100D02*
X66916400Y-113398000D01*
X61861700Y-145320000D02*
X61861700Y-146273900D01*
X59443800Y-148691800D02*
X61861700Y-146273900D01*
X55923000Y-148691800D02*
X59443800Y-148691800D01*
X41874100Y-134642900D02*
X55923000Y-148691800D01*
X41874100Y-128342200D02*
X41874100Y-134642900D01*
X41417800Y-127885900D02*
X41874100Y-128342200D01*
X39521100Y-127885900D02*
X41417800Y-127885900D01*
X30165200Y-118530000D02*
X39521100Y-127885900D01*
X28572500Y-118530000D02*
X30165200Y-118530000D01*
X25811300Y-115768800D02*
X28572500Y-118530000D01*
X25811300Y-43110100D02*
X25811300Y-115768800D01*
X28539000Y-40382400D02*
X25811300Y-43110100D01*
X32541500Y-40382400D02*
X28539000Y-40382400D01*
X34149600Y-38774300D02*
X32541500Y-40382400D01*
X34149600Y-37314300D02*
X34149600Y-38774300D01*
X34633900Y-36830000D02*
X34149600Y-37314300D01*
X45720000Y-36830000D02*
X34633900Y-36830000D01*
X43240000Y-41740000D02*
X43240000Y-42568900D01*
X59404000Y-142862300D02*
X58450100Y-142862300D01*
X58035000Y-142447200D02*
X58450100Y-142862300D01*
X57368000Y-142447200D02*
X58035000Y-142447200D01*
X56207200Y-141286400D02*
X57368000Y-142447200D01*
X54910300Y-141286400D02*
X56207200Y-141286400D01*
X48738600Y-135114700D02*
X54910300Y-141286400D01*
X48738600Y-118261600D02*
X48738600Y-135114700D01*
X45678900Y-115201900D02*
X48738600Y-118261600D01*
X45678900Y-105801800D02*
X45678900Y-115201900D01*
X45866800Y-105613900D02*
X45678900Y-105801800D01*
X45866800Y-45195700D02*
X45866800Y-105613900D01*
X43240000Y-42568900D02*
X45866800Y-45195700D01*
X35052000Y-38100000D02*
X35598400Y-38100000D01*
X43240000Y-51900000D02*
X43240000Y-51071100D01*
X42980900Y-51071100D02*
X43240000Y-51071100D01*
X42303700Y-50393900D02*
X42980900Y-51071100D01*
X42303700Y-44805300D02*
X42303700Y-50393900D01*
X35598400Y-38100000D02*
X42303700Y-44805300D01*
X43240000Y-51900000D02*
X43240000Y-52728900D01*
X58445400Y-143370300D02*
X59404000Y-143370300D01*
X57940800Y-142865700D02*
X58445400Y-143370300D01*
X57354900Y-142865700D02*
X57940800Y-142865700D01*
X56385800Y-141896600D02*
X57354900Y-142865700D01*
X55088900Y-141896600D02*
X56385800Y-141896600D01*
X48422100Y-135229800D02*
X55088900Y-141896600D01*
X48422100Y-118376600D02*
X48422100Y-135229800D01*
X45368200Y-115322700D02*
X48422100Y-118376600D01*
X45368200Y-105465000D02*
X45368200Y-115322700D01*
X45560300Y-105272900D02*
X45368200Y-105465000D01*
X45560300Y-55049200D02*
X45560300Y-105272900D01*
X43240000Y-52728900D02*
X45560300Y-55049200D01*
X43240000Y-59520000D02*
X43240000Y-60348900D01*
X61353700Y-145320000D02*
X61353700Y-144366100D01*
X58578000Y-144366100D02*
X61353700Y-144366100D01*
X57926900Y-143715000D02*
X58578000Y-144366100D01*
X56909400Y-143715000D02*
X57926900Y-143715000D01*
X55701200Y-142506800D02*
X56909400Y-143715000D01*
X54802200Y-142506800D02*
X55701200Y-142506800D01*
X47518400Y-135223000D02*
X54802200Y-142506800D01*
X47518400Y-118767800D02*
X47518400Y-135223000D01*
X42287500Y-113536900D02*
X47518400Y-118767800D01*
X42287500Y-107898400D02*
X42287500Y-113536900D01*
X45241700Y-104944200D02*
X42287500Y-107898400D01*
X45241700Y-62350600D02*
X45241700Y-104944200D01*
X43240000Y-60348900D02*
X45241700Y-62350600D01*
X67250900Y-144366100D02*
X66989400Y-144104600D01*
X67348100Y-144366100D02*
X67250900Y-144366100D01*
X67348100Y-145320000D02*
X67348100Y-144366100D01*
X43240000Y-69680000D02*
X43240000Y-68851100D01*
X42929200Y-68851100D02*
X43240000Y-68851100D01*
X41869000Y-67790900D02*
X42929200Y-68851100D01*
X41869000Y-67346300D02*
X41869000Y-67790900D01*
X36899500Y-62376800D02*
X41869000Y-67346300D01*
X35052000Y-62376800D02*
X36899500Y-62376800D01*
X35052000Y-62376800D02*
X35052000Y-55880000D01*
X42200600Y-134214500D02*
X50292800Y-142306700D01*
X42200600Y-128236000D02*
X42200600Y-134214500D01*
X37097500Y-123132900D02*
X42200600Y-128236000D01*
X35819800Y-123132900D02*
X37097500Y-123132900D01*
X30911800Y-118224900D02*
X35819800Y-123132900D01*
X28762600Y-118224900D02*
X30911800Y-118224900D01*
X26116400Y-115578700D02*
X28762600Y-118224900D01*
X26116400Y-71772000D02*
X26116400Y-115578700D01*
X35052000Y-62836400D02*
X26116400Y-71772000D01*
X35052000Y-62376800D02*
X35052000Y-62836400D01*
X43240000Y-77554000D02*
X42969000Y-77554000D01*
X42969000Y-77554000D02*
X42037000Y-78486000D01*
X42037000Y-78486000D02*
X39624000Y-78486000D01*
X39624000Y-78486000D02*
X38354000Y-77216000D01*
X38354000Y-77216000D02*
X38354000Y-74632900D01*
X38354000Y-74632900D02*
X36580600Y-72859500D01*
X67856100Y-145320000D02*
X67856100Y-146816700D01*
X67856100Y-146816700D02*
X68010000Y-146970600D01*
X34464900Y-72978300D02*
X34464900Y-81375000D01*
X34464900Y-81375000D02*
X26453700Y-89386200D01*
X26453700Y-89386200D02*
X26453700Y-112847100D01*
X26453700Y-112847100D02*
X30132400Y-116525800D01*
X30132400Y-116525800D02*
X30132400Y-116635100D01*
X30132400Y-116635100D02*
X35867900Y-122370600D01*
X35867900Y-122370600D02*
X37286300Y-122370600D01*
X37286300Y-122370600D02*
X38879900Y-123964200D01*
X38879900Y-123964200D02*
X40944600Y-123964200D01*
X40944600Y-123964200D02*
X45603600Y-128623200D01*
X45603600Y-128623200D02*
X45603600Y-136072400D01*
X45603600Y-136072400D02*
X56961800Y-147430600D01*
X36580600Y-72859500D02*
X34583700Y-72859500D01*
X34583700Y-72859500D02*
X34464900Y-72978300D01*
X43240000Y-87460000D02*
X42311100Y-87460000D01*
X35052000Y-73660000D02*
X35052000Y-74460400D01*
X68192100Y-144366100D02*
X67820300Y-143994300D01*
X68351400Y-144366100D02*
X68192100Y-144366100D01*
X34804300Y-74708100D02*
X34804300Y-88018700D01*
X35052000Y-74460400D02*
X34804300Y-74708100D01*
X41752400Y-88018700D02*
X42311100Y-87460000D01*
X34804300Y-88018700D02*
X41752400Y-88018700D01*
X68351400Y-145320000D02*
X68351400Y-144366100D01*
X57236300Y-145363600D02*
X57732300Y-145363600D01*
X55294800Y-143422100D02*
X57236300Y-145363600D01*
X54416000Y-143422100D02*
X55294800Y-143422100D01*
X46297800Y-135303900D02*
X54416000Y-143422100D01*
X46297800Y-119893100D02*
X46297800Y-135303900D01*
X41568900Y-115164200D02*
X46297800Y-119893100D01*
X41568900Y-110257000D02*
X41568900Y-115164200D01*
X35818500Y-104506600D02*
X41568900Y-110257000D01*
X35736300Y-104506600D02*
X35818500Y-104506600D01*
X30132400Y-98902700D02*
X35736300Y-104506600D01*
X30132400Y-98672200D02*
X30132400Y-98902700D01*
X27111000Y-95650800D02*
X30132400Y-98672200D01*
X27111000Y-89597500D02*
X27111000Y-95650800D01*
X28689800Y-88018700D02*
X27111000Y-89597500D01*
X34804300Y-88018700D02*
X28689800Y-88018700D01*
X42311100Y-96837800D02*
X43240000Y-95908900D01*
X42311100Y-103808200D02*
X42311100Y-96837800D01*
X42655500Y-104152600D02*
X42311100Y-103808200D01*
X43293900Y-104152600D02*
X42655500Y-104152600D01*
X43240000Y-95080000D02*
X43240000Y-95908900D01*
X68846700Y-144105600D02*
X68655300Y-143914200D01*
X68846700Y-145320000D02*
X68846700Y-144105600D01*
X58813600Y-144829900D02*
X59245900Y-145262200D01*
X57134200Y-144829900D02*
X58813600Y-144829900D01*
X55421300Y-143117000D02*
X57134200Y-144829900D01*
X54542500Y-143117000D02*
X55421300Y-143117000D01*
X46602900Y-135177400D02*
X54542500Y-143117000D01*
X46602900Y-119038800D02*
X46602900Y-135177400D01*
X44408000Y-116843900D02*
X46602900Y-119038800D01*
X35052000Y-91440000D02*
X35598400Y-91440000D01*
X43240000Y-105240000D02*
X42311100Y-105240000D01*
X42006000Y-104934900D02*
X42311100Y-105240000D01*
X42006000Y-97847600D02*
X42006000Y-104934900D01*
X35598400Y-91440000D02*
X42006000Y-97847600D01*
X70358000Y-144077600D02*
X70069600Y-143789200D01*
X70358000Y-145320000D02*
X70358000Y-144077600D01*
X57011500Y-144248700D02*
X57705700Y-144248700D01*
X55574700Y-142811900D02*
X57011500Y-144248700D01*
X54675600Y-142811900D02*
X55574700Y-142811900D01*
X47213000Y-135349300D02*
X54675600Y-142811900D01*
X47213000Y-118894100D02*
X47213000Y-135349300D01*
X41982300Y-113663400D02*
X47213000Y-118894100D01*
X41982300Y-105568800D02*
X41982300Y-113663400D01*
X42311100Y-105240000D02*
X41982300Y-105568800D01*
X70942200Y-144277200D02*
X70942200Y-143382800D01*
X70853300Y-144366100D02*
X70942200Y-144277200D01*
X70853300Y-145320000D02*
X70853300Y-144366100D01*
X60211300Y-143788000D02*
X61144700Y-142854600D01*
X58431500Y-143788000D02*
X60211300Y-143788000D01*
X58053400Y-143409900D02*
X58431500Y-143788000D01*
X57136700Y-143409900D02*
X58053400Y-143409900D01*
X55928500Y-142201700D02*
X57136700Y-143409900D01*
X54962400Y-142201700D02*
X55928500Y-142201700D01*
X47975900Y-135215200D02*
X54962400Y-142201700D01*
X47975900Y-118761900D02*
X47975900Y-135215200D01*
X43240000Y-114026000D02*
X47975900Y-118761900D01*
X43240000Y-112860000D02*
X43240000Y-114026000D01*
X43240000Y-123020000D02*
X43240000Y-122191100D01*
X35598400Y-109766400D02*
X35598400Y-109220000D01*
X42174100Y-116342100D02*
X35598400Y-109766400D01*
X42174100Y-121436000D02*
X42174100Y-116342100D01*
X42929200Y-122191100D02*
X42174100Y-121436000D01*
X43240000Y-122191100D02*
X42929200Y-122191100D01*
X35052000Y-109220000D02*
X35598400Y-109220000D01*
X69600900Y-146273900D02*
X69308900Y-146565900D01*
X71361300Y-146273900D02*
X69600900Y-146273900D01*
X43240000Y-123020000D02*
X43240000Y-123848900D01*
X71361300Y-145320000D02*
X71361300Y-146273900D01*
X60881800Y-146629400D02*
X60881800Y-146436800D01*
X59124600Y-148386600D02*
X60881800Y-146629400D01*
X58709100Y-148386600D02*
X59124600Y-148386600D01*
X45908800Y-135586300D02*
X58709100Y-148386600D01*
X45908800Y-126517700D02*
X45908800Y-135586300D01*
X43240000Y-123848900D02*
X45908800Y-126517700D01*
X43240000Y-130640000D02*
X43240000Y-134499100D01*
X71856600Y-145320000D02*
X71856600Y-144366100D01*
X71830700Y-144366100D02*
X71599500Y-144134900D01*
X71856600Y-144366100D02*
X71830700Y-144366100D01*
X52774300Y-144033400D02*
X43240000Y-134499100D01*
X52774300Y-144210800D02*
X52774300Y-144033400D01*
X72351900Y-145320000D02*
X72351900Y-146273900D01*
X41568900Y-132970500D02*
X35598400Y-127000000D01*
X41568900Y-138610800D02*
X41568900Y-132970500D01*
X42929200Y-139971100D02*
X41568900Y-138610800D01*
X43240000Y-139971100D02*
X42929200Y-139971100D01*
X35052000Y-127000000D02*
X35598400Y-127000000D01*
X46764400Y-140800000D02*
X50604400Y-144640000D01*
X43240000Y-140800000D02*
X46764400Y-140800000D01*
X43240000Y-140800000D02*
X43240000Y-139971100D01*
X71393200Y-146828300D02*
X70749100Y-146828300D01*
X71947600Y-146273900D02*
X71393200Y-146828300D01*
X72351900Y-146273900D02*
X71947600Y-146273900D01*
X72004500Y-147129300D02*
X71847000Y-147129300D01*
X72859900Y-146273900D02*
X72004500Y-147129300D01*
X44752900Y-149004000D02*
X44168900Y-148420000D01*
X59985500Y-149004000D02*
X44752900Y-149004000D01*
X60468100Y-148521400D02*
X59985500Y-149004000D01*
X43240000Y-148420000D02*
X44168900Y-148420000D01*
X72859900Y-145320000D02*
X72859900Y-146273900D01*
X43240000Y-158580000D02*
X43240000Y-157751100D01*
X35052000Y-144780000D02*
X35598400Y-144780000D01*
X42012000Y-151193600D02*
X35598400Y-144780000D01*
X42012000Y-156780400D02*
X42012000Y-151193600D01*
X42982700Y-157751100D02*
X42012000Y-156780400D01*
X43240000Y-157751100D02*
X42982700Y-157751100D01*
X48391600Y-158580000D02*
X43240000Y-158580000D01*
X50126900Y-160315300D02*
X48391600Y-158580000D01*
X73355200Y-145320000D02*
X73355200Y-146273900D01*
X68809700Y-156118200D02*
X71681900Y-158990400D01*
X68809700Y-149075600D02*
X68809700Y-156118200D01*
X70222300Y-147663000D02*
X68809700Y-149075600D01*
X72068200Y-147663000D02*
X70222300Y-147663000D01*
X72380700Y-147350500D02*
X72068200Y-147663000D01*
X72380700Y-147248400D02*
X72380700Y-147350500D01*
X73355200Y-146273900D02*
X72380700Y-147248400D01*
X72899600Y-158454500D02*
X72899600Y-170178400D01*
X73850500Y-145320000D02*
X73850500Y-147295500D01*
X72899600Y-158454500D02*
X69448400Y-155003300D01*
X69448400Y-155003300D02*
X69448400Y-149327200D01*
X69448400Y-149327200D02*
X70406600Y-148369000D01*
X70406600Y-148369000D02*
X72777000Y-148369000D01*
X72777000Y-148369000D02*
X73850500Y-147295500D01*
X43240000Y-167028900D02*
X48676200Y-172465100D01*
X43240000Y-167028900D02*
X43240000Y-166200000D01*
X70612900Y-172465100D02*
X48676200Y-172465100D01*
X72899600Y-170178400D02*
X70612900Y-172465100D01*
X73246700Y-170434000D02*
X73152000Y-170434000D01*
X46736000Y-172847000D02*
X45457200Y-174125800D01*
X70739000Y-172847000D02*
X46736000Y-172847000D01*
X73152000Y-170434000D02*
X70739000Y-172847000D01*
X73246700Y-170434000D02*
X73246700Y-158350200D01*
X73246700Y-158350200D02*
X69753600Y-154857100D01*
X69753600Y-154857100D02*
X69753600Y-149466900D01*
X69753600Y-149466900D02*
X70535500Y-148685000D01*
X70535500Y-148685000D02*
X75067900Y-148685000D01*
X75067900Y-148685000D02*
X76847700Y-146905200D01*
X76847700Y-146905200D02*
X76847700Y-145320000D01*
X43240000Y-176360000D02*
X43240000Y-175531100D01*
X45465700Y-174134300D02*
X45457200Y-174125800D01*
X44068900Y-175531100D02*
X45465700Y-174134300D01*
X43240000Y-175531100D02*
X44068900Y-175531100D01*
X40558800Y-162560000D02*
X33782000Y-162560000D01*
X42311000Y-164312200D02*
X40558800Y-162560000D01*
X42311000Y-170979600D02*
X42311000Y-164312200D01*
X45457200Y-174125800D02*
X42311000Y-170979600D01*
X80010000Y-183835000D02*
X80010000Y-182137100D01*
X80010000Y-182137100D02*
X80010000Y-181356000D01*
X80117700Y-182029400D02*
X80137000Y-182029400D01*
X80010000Y-182137100D02*
X80117700Y-182029400D01*
X80137000Y-181229000D02*
X80137000Y-182029400D01*
X80137000Y-143637000D02*
X80137000Y-181229000D01*
X80403700Y-143370000D02*
X80137000Y-143637000D01*
X80804300Y-143370000D02*
X80403700Y-143370000D01*
X81902300Y-143370000D02*
X80804300Y-143370000D01*
X82512000Y-143980000D02*
X81902300Y-143370000D01*
X83007200Y-143980000D02*
X82512000Y-143980000D01*
X80804300Y-143370000D02*
X80804000Y-143370300D01*
X79360000Y-181341000D02*
X79248000Y-181229000D01*
X79360000Y-183835000D02*
X79360000Y-181341000D01*
X79248000Y-143383000D02*
X79248000Y-181229000D01*
X79768700Y-142862000D02*
X79248000Y-143383000D01*
X80804300Y-142862000D02*
X79768700Y-142862000D01*
X82054700Y-142862000D02*
X80804300Y-142862000D01*
X82677000Y-142240000D02*
X82054700Y-142862000D01*
X83058000Y-142240000D02*
X82677000Y-142240000D01*
X80804300Y-142862000D02*
X80804000Y-142862300D01*
X62443400Y-113486000D02*
X62443400Y-112839500D01*
X62148900Y-113780500D02*
X62443400Y-113486000D01*
X61282900Y-122966100D02*
X61052000Y-122735200D01*
X61861700Y-122966100D02*
X61282900Y-122966100D01*
X61861700Y-123920000D02*
X61861700Y-122966100D01*
X53340000Y-154432000D02*
X53340000Y-156800000D01*
X53773300Y-158228900D02*
X53340000Y-158228900D01*
X54518800Y-158974400D02*
X53773300Y-158228900D01*
X53340000Y-156800000D02*
X53340000Y-158228900D01*
X74853800Y-146497000D02*
X74795600Y-146555200D01*
X74853800Y-145320000D02*
X74853800Y-146497000D01*
X55880000Y-154432000D02*
X55880000Y-156800000D01*
X55880000Y-156800000D02*
X55880000Y-158228900D01*
X75349100Y-145320000D02*
X75349100Y-146761700D01*
X63574000Y-157593900D02*
X63614700Y-157634600D01*
X60704600Y-157593900D02*
X63574000Y-157593900D01*
X60069600Y-158228900D02*
X60704600Y-157593900D01*
X55880000Y-158228900D02*
X60069600Y-158228900D01*
X74792400Y-147318400D02*
X74792400Y-147888500D01*
X75349100Y-146761700D02*
X74792400Y-147318400D01*
X75857100Y-147140900D02*
X75540600Y-147457400D01*
X75857100Y-145320000D02*
X75857100Y-147140900D01*
X55229300Y-158848200D02*
X54610000Y-158228900D01*
X56739100Y-158848200D02*
X55229300Y-158848200D01*
X54610000Y-156800000D02*
X54610000Y-158228900D01*
X52070000Y-156800000D02*
X52070000Y-158228900D01*
X52687300Y-158747500D02*
X52679000Y-158755800D01*
X53103100Y-158747500D02*
X52687300Y-158747500D01*
X52679000Y-162084500D02*
X52679000Y-158755800D01*
X52634500Y-162129000D02*
X52679000Y-162084500D01*
X51585100Y-162129000D02*
X52634500Y-162129000D01*
X50800000Y-161343900D02*
X51585100Y-162129000D01*
X50800000Y-154432000D02*
X50800000Y-161343900D01*
X52596900Y-158755800D02*
X52070000Y-158228900D01*
X52679000Y-158755800D02*
X52596900Y-158755800D01*
X76025200Y-144366100D02*
X75794000Y-144134900D01*
X76352400Y-144366100D02*
X76025200Y-144366100D01*
X76352400Y-145320000D02*
X76352400Y-144366100D01*
X73406000Y-114046000D02*
X73406000Y-116586000D01*
X73406000Y-116586000D02*
X73406000Y-117386400D01*
X73395800Y-117396600D02*
X73395800Y-118618000D01*
X73406000Y-117386400D02*
X73395800Y-117396600D01*
X73395800Y-118618000D02*
X74074300Y-118618000D01*
X74431200Y-118974900D02*
X74074300Y-118618000D01*
X74431200Y-122893400D02*
X74431200Y-118974900D01*
X74358500Y-122966100D02*
X74431200Y-122893400D01*
X74358500Y-123920000D02*
X74358500Y-122966100D01*
X74853800Y-123920000D02*
X74853800Y-113253000D01*
X74853800Y-113253000D02*
X90544400Y-97562400D01*
X90544400Y-97562400D02*
X90544400Y-82835900D01*
X90544400Y-82835900D02*
X99569600Y-73810700D01*
X99569600Y-46737600D02*
X99569600Y-73810700D01*
X99568000Y-46736000D02*
X99569600Y-46737600D01*
X80804000Y-128371600D02*
X81757900Y-128371600D01*
X82739900Y-127389600D02*
X81757900Y-128371600D01*
X82739900Y-126915100D02*
X82739900Y-127389600D01*
X95547200Y-114107800D02*
X82739900Y-126915100D01*
X95547200Y-84534600D02*
X95547200Y-114107800D01*
X109136700Y-70945100D02*
X95547200Y-84534600D01*
X109136700Y-67446400D02*
X109136700Y-70945100D01*
X111490800Y-65092300D02*
X109136700Y-67446400D01*
X111490800Y-48403100D02*
X111490800Y-65092300D01*
X108486700Y-45399000D02*
X111490800Y-48403100D01*
X108486700Y-37229200D02*
X108486700Y-45399000D01*
X106817500Y-35560000D02*
X108486700Y-37229200D01*
X106523200Y-35560000D02*
X106817500Y-35560000D01*
X105681400Y-34718200D02*
X106523200Y-35560000D01*
X105681400Y-33816800D02*
X105681400Y-34718200D01*
X106199200Y-33299000D02*
X105681400Y-33816800D01*
X112733200Y-33299000D02*
X106199200Y-33299000D01*
X116999000Y-37564800D02*
X112733200Y-33299000D01*
X116999000Y-39280400D02*
X116999000Y-37564800D01*
X119569300Y-41850700D02*
X116999000Y-39280400D01*
X120407500Y-41850700D02*
X119569300Y-41850700D01*
X122858100Y-44301300D02*
X120407500Y-41850700D01*
X122858100Y-47701900D02*
X122858100Y-44301300D01*
X121800000Y-48760000D02*
X122858100Y-47701900D01*
X62357000Y-142683100D02*
X62357000Y-145320000D01*
X92313700Y-112726400D02*
X62357000Y-142683100D01*
X92313700Y-83744100D02*
X92313700Y-112726400D01*
X101018800Y-75039000D02*
X92313700Y-83744100D01*
X101018800Y-59264500D02*
X101018800Y-75039000D01*
X109736700Y-50546600D02*
X101018800Y-59264500D01*
X98462200Y-74486400D02*
X98462200Y-43864300D01*
X89934200Y-83014400D02*
X98462200Y-74486400D01*
X89934200Y-96260300D02*
X89934200Y-83014400D01*
X72589900Y-113604600D02*
X89934200Y-96260300D01*
X72589900Y-119467300D02*
X72589900Y-113604600D01*
X71860400Y-120196800D02*
X72589900Y-119467300D01*
X71860400Y-122962300D02*
X71860400Y-120196800D01*
X71856600Y-122966100D02*
X71860400Y-122962300D01*
X71856600Y-122966100D02*
X71856600Y-123920000D01*
X72351900Y-123920000D02*
X72351900Y-124873900D01*
X100713600Y-58659800D02*
X109712900Y-49660500D01*
X100713600Y-74393500D02*
X100713600Y-58659800D01*
X92008500Y-83098600D02*
X100713600Y-74393500D01*
X92008500Y-112440900D02*
X92008500Y-83098600D01*
X79202800Y-125246600D02*
X92008500Y-112440900D01*
X72724600Y-125246600D02*
X79202800Y-125246600D01*
X72351900Y-124873900D02*
X72724600Y-125246600D01*
X123192300Y-49397700D02*
X123192300Y-43817300D01*
X115797800Y-32993800D02*
X101430300Y-32993800D01*
X101430300Y-32993800D02*
X100563000Y-33861100D01*
X100563000Y-33861100D02*
X100563000Y-34664200D01*
X100563000Y-34664200D02*
X101306100Y-35407300D01*
X101306100Y-35407300D02*
X101578900Y-35407300D01*
X101578900Y-35407300D02*
X102795600Y-36624000D01*
X102795600Y-36624000D02*
X102795600Y-41890000D01*
X102795600Y-41890000D02*
X110270400Y-49364800D01*
X110270400Y-49364800D02*
X110270400Y-51137800D01*
X110270400Y-51137800D02*
X101731600Y-59676600D01*
X101731600Y-59676600D02*
X101731600Y-75176300D01*
X101731600Y-75176300D02*
X93259400Y-83648500D01*
X93259400Y-83648500D02*
X93259400Y-112212400D01*
X93259400Y-112212400D02*
X62852300Y-142619500D01*
X62852300Y-142619500D02*
X62852300Y-145320000D01*
X122301000Y-39497000D02*
X115797800Y-32993800D01*
X122301000Y-42926000D02*
X122301000Y-39497000D01*
X123192300Y-43817300D02*
X122301000Y-42926000D01*
X121800000Y-50790000D02*
X123192300Y-49397700D01*
X75349100Y-123920000D02*
X75349100Y-122966100D01*
X75257500Y-115839600D02*
X83303800Y-107793300D01*
X75257500Y-122874500D02*
X75257500Y-115839600D01*
X75349100Y-122966100D02*
X75257500Y-122874500D01*
X96737700Y-88926200D02*
X96737700Y-102863100D01*
X111759600Y-73904300D02*
X96737700Y-88926200D01*
X81757900Y-128866900D02*
X80804000Y-128866900D01*
X82954900Y-127669900D02*
X81757900Y-128866900D01*
X84558800Y-127669900D02*
X82954900Y-127669900D01*
X99591700Y-112637000D02*
X84558800Y-127669900D01*
X99591700Y-104753300D02*
X99591700Y-112637000D01*
X110425700Y-93919300D02*
X99591700Y-104753300D01*
X110425700Y-92869900D02*
X110425700Y-93919300D01*
X111605500Y-91690100D02*
X110425700Y-92869900D01*
X111605500Y-89357400D02*
X111605500Y-91690100D01*
X111605600Y-89357400D02*
X111605500Y-89357400D01*
X69850000Y-144324300D02*
X69850000Y-145320000D01*
X69535900Y-144010200D02*
X69850000Y-144324300D01*
X69535900Y-141775600D02*
X69535900Y-144010200D01*
X73826900Y-137484600D02*
X69535900Y-141775600D01*
X77798200Y-137484600D02*
X73826900Y-137484600D01*
X95912500Y-114497300D02*
X83273600Y-127136200D01*
X95912500Y-104639900D02*
X95912500Y-114497300D01*
X97591000Y-102961400D02*
X95912500Y-104639900D01*
X97591000Y-89203900D02*
X97591000Y-102961400D01*
X112098400Y-74696500D02*
X97591000Y-89203900D01*
X80804000Y-126873000D02*
X81757900Y-126873000D01*
X94937000Y-113693900D02*
X81757900Y-126873000D01*
X94937000Y-84281600D02*
X94937000Y-113693900D01*
X103771100Y-75447500D02*
X94937000Y-84281600D01*
X103771100Y-71494100D02*
X103771100Y-75447500D01*
X109808600Y-65456600D02*
X103771100Y-71494100D01*
X123811900Y-116773000D02*
X123811900Y-124092100D01*
X123811900Y-116773000D02*
X122465800Y-115426900D01*
X122465800Y-115426900D02*
X122465800Y-101379200D01*
X122465800Y-101379200D02*
X122838900Y-101006100D01*
X122838900Y-101006100D02*
X122838900Y-92483200D01*
X122838900Y-92483200D02*
X118989600Y-88633900D01*
X118989600Y-88633900D02*
X118989600Y-72920400D01*
X120020000Y-71890000D02*
X118989600Y-72920400D01*
X119634000Y-127254000D02*
X116594600Y-130293400D01*
X120650000Y-127254000D02*
X119634000Y-127254000D01*
X123811900Y-124092100D02*
X120650000Y-127254000D01*
X102746000Y-130293400D02*
X116594600Y-130293400D01*
X74682400Y-133739200D02*
X78497700Y-133739200D01*
X73015200Y-135406400D02*
X74682400Y-133739200D01*
X73015200Y-135658800D02*
X73015200Y-135406400D01*
X65354200Y-143319800D02*
X73015200Y-135658800D01*
X65354200Y-145320000D02*
X65354200Y-143319800D01*
X110547200Y-89661000D02*
X99166000Y-101042200D01*
X99166000Y-101042200D02*
X99166000Y-112280600D01*
X99166000Y-112280600D02*
X84531800Y-126914800D01*
X77491700Y-136513400D02*
X77491700Y-136513500D01*
X77491700Y-136513500D02*
X74366400Y-136513500D01*
X74366400Y-136513500D02*
X69230800Y-141649100D01*
X69230800Y-141649100D02*
X69230800Y-144242200D01*
X69230800Y-144242200D02*
X69354700Y-144366100D01*
X69354700Y-145320000D02*
X69354700Y-144366100D01*
X123142400Y-123728300D02*
X123142400Y-116965612D01*
X75857100Y-123920000D02*
X75857100Y-122966100D01*
X75857100Y-122966100D02*
X75805900Y-122914900D01*
X75805900Y-122914900D02*
X75805900Y-122334600D01*
X96350600Y-123811600D02*
X98927400Y-126388400D01*
X98927400Y-126388400D02*
X120482300Y-126388400D01*
X120482300Y-126388400D02*
X123142400Y-123728300D01*
X118681900Y-112966900D02*
X118681900Y-95328100D01*
X118681900Y-95328100D02*
X120020000Y-93990000D01*
X120015000Y-114300000D02*
X118681900Y-112966900D01*
X120476788Y-114300000D02*
X120015000Y-114300000D01*
X123142400Y-116965612D02*
X120476788Y-114300000D01*
X109969300Y-92744000D02*
X109969300Y-92286400D01*
X99699700Y-103013600D02*
X109969300Y-92744000D01*
X73885200Y-122931400D02*
X73885200Y-119634700D01*
X73850500Y-122966100D02*
X73885200Y-122931400D01*
X73850500Y-123920000D02*
X73850500Y-122966100D01*
X123477700Y-123861200D02*
X123477700Y-116869856D01*
X73355200Y-123920000D02*
X73355200Y-122357900D01*
X73355200Y-122357900D02*
X73333900Y-122336600D01*
X123477700Y-123861200D02*
X120633200Y-126705700D01*
X120633200Y-126705700D02*
X97492300Y-126705700D01*
X97492300Y-126705700D02*
X95268800Y-124482200D01*
X118986702Y-112381300D02*
X118988500Y-112381300D01*
X118986702Y-112763702D02*
X118986702Y-112381300D01*
X120142000Y-113919000D02*
X118986702Y-112763702D01*
X120526844Y-113919000D02*
X120142000Y-113919000D01*
X123477700Y-116869856D02*
X120526844Y-113919000D01*
X118988500Y-97051500D02*
X118988500Y-112381300D01*
X120020000Y-96020000D02*
X118988500Y-97051500D01*
X72859900Y-123920000D02*
X72859900Y-122966100D01*
X104180900Y-108396200D02*
X103520800Y-108396200D01*
X109801000Y-102776100D02*
X104180900Y-108396200D01*
X109801000Y-98443700D02*
X109801000Y-102776100D01*
X72800000Y-120203500D02*
X72934000Y-120069500D01*
X72800000Y-122906200D02*
X72800000Y-120203500D01*
X72859900Y-122966100D02*
X72800000Y-122906200D01*
X71325900Y-122930700D02*
X71325900Y-122313000D01*
X71361300Y-122966100D02*
X71325900Y-122930700D01*
X103564000Y-109785200D02*
X110033000Y-103316200D01*
X102881300Y-109785200D02*
X103564000Y-109785200D01*
X71361300Y-123920000D02*
X71361300Y-122966100D01*
X81798600Y-129374900D02*
X80804000Y-129374900D01*
X83198500Y-127975000D02*
X81798600Y-129374900D01*
X84685200Y-127975000D02*
X83198500Y-127975000D01*
X102341300Y-110318900D02*
X84685200Y-127975000D01*
X104270000Y-110318900D02*
X102341300Y-110318900D01*
X111096500Y-103492400D02*
X104270000Y-110318900D01*
X76352400Y-122160100D02*
X76564100Y-121948400D01*
X76352400Y-123920000D02*
X76352400Y-122160100D01*
X116494800Y-121645200D02*
X102996500Y-121645200D01*
X120020000Y-118120000D02*
X116494800Y-121645200D01*
X121800000Y-123944900D02*
X121800000Y-123180000D01*
X120387400Y-125357500D02*
X121800000Y-123944900D01*
X103644600Y-125357500D02*
X120387400Y-125357500D01*
X61271200Y-126873000D02*
X59404000Y-126873000D01*
X61578500Y-126565700D02*
X61271200Y-126873000D01*
X70025300Y-126565700D02*
X61578500Y-126565700D01*
X70729000Y-127269400D02*
X70025300Y-126565700D01*
X70837300Y-127269400D02*
X70729000Y-127269400D01*
X109977500Y-114373200D02*
X110547200Y-113803500D01*
X98718700Y-114373200D02*
X109977500Y-114373200D01*
X84811800Y-128280100D02*
X98718700Y-114373200D01*
X83540600Y-128280100D02*
X84811800Y-128280100D01*
X81950500Y-129870200D02*
X83540600Y-128280100D01*
X80804000Y-129870200D02*
X81950500Y-129870200D01*
X61353700Y-123920000D02*
X61353700Y-124873900D01*
X101632400Y-124905700D02*
X101632400Y-125484100D01*
X103112500Y-123425600D02*
X101632400Y-124905700D01*
X116744400Y-123425600D02*
X103112500Y-123425600D01*
X120020000Y-120150000D02*
X116744400Y-123425600D01*
X72561200Y-127224000D02*
X72561300Y-127224000D01*
X72561200Y-127144800D02*
X72561200Y-127224000D01*
X70618600Y-125202200D02*
X72561200Y-127144800D01*
X61682000Y-125202200D02*
X70618600Y-125202200D01*
X61353700Y-124873900D02*
X61682000Y-125202200D01*
X122833100Y-120153100D02*
X121800000Y-119120000D01*
X122833100Y-123604300D02*
X122833100Y-120153100D01*
X120410100Y-126027300D02*
X122833100Y-123604300D01*
X99763100Y-126027300D02*
X120410100Y-126027300D01*
X98924400Y-125188600D02*
X99763100Y-126027300D01*
X59404000Y-125869700D02*
X60357900Y-125869700D01*
X71154100Y-126184700D02*
X71154100Y-126508000D01*
X70596800Y-125627400D02*
X71154100Y-126184700D01*
X60600200Y-125627400D02*
X70596800Y-125627400D01*
X60357900Y-125869700D02*
X60600200Y-125627400D01*
X117746200Y-124453800D02*
X120020000Y-122180000D01*
X102839100Y-124453800D02*
X117746200Y-124453800D01*
X59404000Y-126377700D02*
X60357900Y-126377700D01*
X60550800Y-126184800D02*
X70399200Y-126184800D01*
X60357900Y-126377700D02*
X60550800Y-126184800D01*
X80804000Y-138366500D02*
X78827700Y-138366500D01*
X58420000Y-154432000D02*
X58420000Y-154705200D01*
X57150000Y-156800000D02*
X57150000Y-155371100D01*
X106680000Y-113548200D02*
X106680000Y-112869700D01*
X104215000Y-111634100D02*
X104215000Y-111470000D01*
X104050800Y-111798300D02*
X104215000Y-111634100D01*
X102010100Y-111798300D02*
X104050800Y-111798300D01*
X105444400Y-111634100D02*
X106680000Y-112869700D01*
X104215000Y-111634100D02*
X105444400Y-111634100D01*
X57150000Y-155371100D02*
X58420000Y-155371100D01*
X58420000Y-156139800D02*
X58420000Y-155371100D01*
X59144000Y-156863800D02*
X58420000Y-156139800D01*
X58420000Y-155371100D02*
X58420000Y-154705200D01*
X76744900Y-140449300D02*
X74724000Y-138428400D01*
X78827700Y-138366500D02*
X76744900Y-140449300D01*
X74962000Y-142232200D02*
X74962000Y-143721700D01*
X76744900Y-140449300D02*
X74962000Y-142232200D01*
X78232000Y-178816000D02*
X78215000Y-178816000D01*
X80899000Y-182118000D02*
X81407000Y-182118000D01*
X81788000Y-182499000D02*
X81407000Y-182118000D01*
X77470000Y-170942000D02*
X78232000Y-171704000D01*
X78232000Y-171704000D02*
X78232000Y-178816000D01*
X60933100Y-136452500D02*
X60357900Y-135877300D01*
X60933100Y-136921800D02*
X60933100Y-136452500D01*
X60357900Y-135877300D02*
X59404000Y-135877300D01*
X73620200Y-152615300D02*
X73651400Y-152584100D01*
X73620200Y-169886200D02*
X73620200Y-152615300D01*
X74676000Y-170942000D02*
X73620200Y-169886200D01*
X77470000Y-170942000D02*
X74676000Y-170942000D01*
X78215000Y-178816000D02*
X76945900Y-180085100D01*
X80899000Y-182245000D02*
X80899000Y-182118000D01*
X80899000Y-182118000D02*
X80899000Y-179972000D01*
X80660000Y-182484000D02*
X80899000Y-182245000D01*
X80660000Y-183835000D02*
X80660000Y-182484000D01*
X80899000Y-179972000D02*
X81254600Y-179616000D01*
D56*
X74930000Y-183398200D02*
X65288200Y-183398200D01*
X61341000Y-179451000D02*
X61341000Y-176834000D01*
X65288200Y-183398200D02*
X61341000Y-179451000D01*
X61214000Y-176784000D02*
X61341000Y-176657000D01*
X74930000Y-183398200D02*
X74559200Y-183398200D01*
D55*
X81788000Y-142367000D02*
X80804000Y-142367000D01*
X82169000Y-141986000D02*
X81788000Y-142367000D01*
X75194200Y-183398000D02*
X76835000Y-185039000D01*
X74930000Y-183398000D02*
X75194200Y-183398000D01*
X83693000Y-149352000D02*
X83693000Y-145034000D01*
X82169000Y-150876000D02*
X83693000Y-149352000D01*
X82169000Y-177292000D02*
X82169000Y-150876000D01*
X83718900Y-178842000D02*
X82169000Y-177292000D01*
X83718900Y-184430000D02*
X83718900Y-178842000D01*
X84328000Y-185039000D02*
X83718900Y-184430000D01*
D56*
X75702200Y-182626000D02*
X75316100Y-183012000D01*
X78105000Y-182626000D02*
X75702200Y-182626000D01*
X78710000Y-183231000D02*
X78105000Y-182626000D01*
X78710000Y-183835000D02*
X78710000Y-183231000D01*
X75316100Y-183012000D02*
X74930000Y-183398000D01*
D55*
X74930000Y-183398100D02*
X74930000Y-183398200D01*
X75316100Y-183012000D02*
X74930000Y-183398100D01*
X59404000Y-133362700D02*
X58450100Y-133362700D01*
X84465200Y-131191000D02*
X83786700Y-131191000D01*
X57310300Y-132222900D02*
X57310300Y-131953000D01*
X58450100Y-133362700D02*
X57310300Y-132222900D01*
X83608900Y-131368800D02*
X80804000Y-131368800D01*
X83786700Y-131191000D02*
X83608900Y-131368800D01*
X80804000Y-131368800D02*
X79850100Y-131368800D01*
X59404000Y-133362700D02*
X60357900Y-133362700D01*
X64015600Y-146273900D02*
X65849500Y-146273900D01*
X62578300Y-147711200D02*
X64015600Y-146273900D01*
X61849000Y-147711200D02*
X62578300Y-147711200D01*
X65849500Y-145320000D02*
X65849500Y-146273900D01*
X56631800Y-131953000D02*
X57310300Y-131953000D01*
X79842200Y-139369800D02*
X79561000Y-139088600D01*
X80804000Y-139369800D02*
X79842200Y-139369800D01*
X87477600Y-148336000D02*
X88151000Y-148336000D01*
X90534900Y-142216900D02*
X90682500Y-142216900D01*
X89883600Y-142868200D02*
X90534900Y-142216900D01*
X89883600Y-146603400D02*
X89883600Y-142868200D01*
X88151000Y-148336000D02*
X89883600Y-146603400D01*
X80804000Y-139370000D02*
X80804200Y-139370000D01*
X83817400Y-139370000D02*
X83830200Y-139357000D01*
X80804200Y-139370000D02*
X83817400Y-139370000D01*
X80804200Y-139370000D02*
X80804000Y-139369800D01*
X74280800Y-134824700D02*
X74362800Y-134824700D01*
X65783000Y-143322500D02*
X74280800Y-134824700D01*
X65783000Y-145253500D02*
X65783000Y-143322500D01*
X65849500Y-145320000D02*
X65783000Y-145253500D01*
X84011300Y-133959000D02*
X84823300Y-133147000D01*
X81846200Y-133959000D02*
X84011300Y-133959000D01*
X81757900Y-133870700D02*
X81846200Y-133959000D01*
X80804000Y-133870700D02*
X81757900Y-133870700D01*
X63360300Y-122600700D02*
X64020700Y-121940300D01*
X63360300Y-123920000D02*
X63360300Y-122600700D01*
X64020700Y-121261800D02*
X64020700Y-121940300D01*
X78210000Y-134824700D02*
X79112500Y-133922200D01*
X74362800Y-134824700D02*
X78210000Y-134824700D01*
X79061000Y-133870700D02*
X79112500Y-133922200D01*
X79061000Y-132157900D02*
X79061000Y-133870700D01*
X79850100Y-131368800D02*
X79061000Y-132157900D01*
X80752500Y-133922200D02*
X80804000Y-133870700D01*
X79112500Y-133922200D02*
X80752500Y-133922200D01*
X62334500Y-131386100D02*
X70797100Y-131386100D01*
X60357900Y-133362700D02*
X62334500Y-131386100D01*
X70797100Y-131386100D02*
X71430100Y-132019100D01*
X70999200Y-124873900D02*
X63360300Y-124873900D01*
X73111900Y-126986600D02*
X70999200Y-124873900D01*
X73111900Y-129071300D02*
X73111900Y-126986600D01*
X70797100Y-131386100D02*
X73111900Y-129071300D01*
X63360300Y-123920000D02*
X63360300Y-124873900D01*
X77879100Y-143280400D02*
X79163900Y-141995600D01*
X77879100Y-144338000D02*
X77879100Y-143280400D01*
X77851000Y-144366100D02*
X77879100Y-144338000D01*
X77851000Y-145320000D02*
X77851000Y-144366100D01*
X85572600Y-146113500D02*
X85572600Y-148336000D01*
X84477300Y-145018200D02*
X85572600Y-146113500D01*
X85572600Y-148906800D02*
X85928200Y-149262400D01*
X85572600Y-148336000D02*
X85572600Y-148906800D01*
X85928200Y-150393000D02*
X85928200Y-149262400D01*
D56*
X119899000Y-115189000D02*
X121800000Y-117090000D01*
X112776000Y-115189000D02*
X119899000Y-115189000D01*
X119899000Y-91059000D02*
X121800000Y-92960000D01*
X112776000Y-91059000D02*
X119899000Y-91059000D01*
X119899000Y-66929000D02*
X121800000Y-68830000D01*
X112776000Y-66929000D02*
X119899000Y-66929000D01*
X119899000Y-42799000D02*
X121800000Y-44700000D01*
X112776000Y-42799000D02*
X119899000Y-42799000D01*
X112141000Y-34290000D02*
X106680000Y-34290000D01*
X115443000Y-37592000D02*
X112141000Y-34290000D01*
X115443000Y-38100000D02*
X115443000Y-37592000D01*
X114300000Y-38100000D02*
X115443000Y-38100000D01*
X112776000Y-39624000D02*
X114300000Y-38100000D01*
X112776000Y-42799000D02*
X112776000Y-39624000D01*
X111633000Y-42799000D02*
X112776000Y-42799000D01*
X110744000Y-43688000D02*
X111633000Y-42799000D01*
X110744000Y-47117000D02*
X110744000Y-43688000D01*
X112776000Y-49149000D02*
X110744000Y-47117000D01*
X112776000Y-66929000D02*
X112776000Y-49149000D01*
X111506000Y-66929000D02*
X112776000Y-66929000D01*
X110617000Y-67818000D02*
X111506000Y-66929000D01*
X110617000Y-70866000D02*
X110617000Y-67818000D01*
X112776000Y-73025000D02*
X110617000Y-70866000D01*
X112776000Y-91059000D02*
X112776000Y-73025000D01*
X110871000Y-92964000D02*
X112776000Y-91059000D01*
X110871000Y-95631000D02*
X110871000Y-92964000D01*
X112776000Y-97536000D02*
X110871000Y-95631000D01*
X112776000Y-115189000D02*
X112776000Y-97536000D01*
X63256200Y-147838000D02*
X66040000Y-147838000D01*
X63246000Y-147828000D02*
X63256200Y-147838000D01*
X56515000Y-145415000D02*
X58928000Y-147828000D01*
X83070700Y-135877000D02*
X83058000Y-135890000D01*
X83705700Y-135877000D02*
X83070700Y-135877000D01*
X84455000Y-135128000D02*
X83705700Y-135877000D01*
X84465200Y-135128000D02*
X84455000Y-135128000D01*
X90538300Y-132270000D02*
X91744800Y-133477000D01*
X89789000Y-132270000D02*
X90538300Y-132270000D01*
X89027000Y-131508000D02*
X89789000Y-132270000D01*
X89027000Y-130556000D02*
X89027000Y-131508000D01*
X83261200Y-133363000D02*
X80804000Y-133363000D01*
X83312000Y-133414000D02*
X83261200Y-133363000D01*
X88392000Y-130556000D02*
X87693500Y-131254000D01*
X89027000Y-130556000D02*
X88392000Y-130556000D01*
D55*
X51816000Y-153924000D02*
X50800000Y-152908000D01*
X51816000Y-154940000D02*
X51816000Y-153924000D01*
X51308000Y-155448000D02*
X51816000Y-154940000D01*
X51308000Y-159893000D02*
X51308000Y-155448000D01*
X52070000Y-160655000D02*
X51308000Y-159893000D01*
X52070000Y-160700000D02*
X52070000Y-160655000D01*
X53340000Y-152908000D02*
X50800000Y-152908000D01*
X55880000Y-152908000D02*
X53340000Y-152908000D01*
X58420000Y-152908000D02*
X55880000Y-152908000D01*
X59182000Y-152908000D02*
X58420000Y-152908000D01*
X59944000Y-153670000D02*
X59182000Y-152908000D01*
X59944000Y-156337000D02*
X59944000Y-153670000D01*
X60706000Y-157099000D02*
X59944000Y-156337000D01*
X66929000Y-157099000D02*
X60706000Y-157099000D01*
X70104000Y-160274000D02*
X66929000Y-157099000D01*
X70274200Y-160274000D02*
X70104000Y-160274000D01*
D56*
X63754000Y-160274000D02*
X62103000Y-158623000D01*
X63754000Y-160655000D02*
X63754000Y-160274000D01*
X68199000Y-160274000D02*
X70274200Y-160274000D01*
X67818000Y-160655000D02*
X68199000Y-160274000D01*
X62750000Y-161659000D02*
X63754000Y-160655000D01*
X62750000Y-162458000D02*
X62750000Y-161659000D01*
X91274900Y-141059000D02*
X92748000Y-141059000D01*
X94297500Y-136030000D02*
X91744800Y-133477000D01*
X94297500Y-139510000D02*
X94297500Y-136030000D01*
X92748000Y-141059000D02*
X94297500Y-139510000D01*
X56631800Y-135011000D02*
X56631800Y-133858000D01*
X56515000Y-135128000D02*
X56631800Y-135011000D01*
X114935000Y-148463000D02*
X116332000Y-148463000D01*
X107531000Y-141059000D02*
X114935000Y-148463000D01*
X92748000Y-141059000D02*
X107531000Y-141059000D01*
X54685000Y-111470000D02*
X48185000Y-111470000D01*
X62443400Y-116357000D02*
X62443400Y-114744500D01*
X57959500Y-114744000D02*
X54685000Y-111470000D01*
X62443400Y-114744000D02*
X57959500Y-114744000D01*
X62443400Y-114744500D02*
X62443400Y-114744000D01*
D55*
X106680000Y-115755500D02*
X106680000Y-115051800D01*
D56*
X112639000Y-115052000D02*
X112776000Y-115189000D01*
X106680000Y-115052000D02*
X112639000Y-115052000D01*
X106680000Y-115755500D02*
X106680000Y-115052000D01*
X80804500Y-130874000D02*
X80804000Y-130874000D01*
X82994500Y-130874000D02*
X80804500Y-130874000D01*
X84201000Y-129667000D02*
X82994500Y-130874000D01*
X84465200Y-129667000D02*
X84201000Y-129667000D01*
D55*
X80804500Y-130874000D02*
X80804000Y-130873500D01*
X80804000Y-133362700D02*
X80804000Y-133363000D01*
X59404000Y-133870700D02*
X59403900Y-133870800D01*
D56*
X59391300Y-133858000D02*
X59403900Y-133870800D01*
X56631800Y-133858000D02*
X59391300Y-133858000D01*
X59403900Y-133870800D02*
X59404000Y-133871000D01*
D55*
X78320600Y-115675000D02*
X77983400Y-116012200D01*
X78320600Y-115633500D02*
X78320600Y-115675000D01*
X77254100Y-116012200D02*
X77983400Y-116012200D01*
X79248000Y-115633500D02*
X78320600Y-115633500D01*
D56*
X66357500Y-147002000D02*
X66357500Y-145320000D01*
X66040000Y-147320000D02*
X66357500Y-147002000D01*
X66040000Y-147838000D02*
X66040000Y-147320000D01*
X59817000Y-118984000D02*
X62443400Y-116357000D01*
X59817000Y-121158000D02*
X59817000Y-118984000D01*
X77254100Y-116012000D02*
X77253900Y-116012000D01*
D55*
X77253900Y-116012000D02*
X77254100Y-116012200D01*
D56*
X66357500Y-144462000D02*
X66357500Y-145320000D01*
X66167000Y-144272000D02*
X66357500Y-144462000D01*
X66167000Y-143510000D02*
X66167000Y-144272000D01*
X73787000Y-135890000D02*
X66167000Y-143510000D01*
X80816700Y-135890000D02*
X73787000Y-135890000D01*
X83058000Y-135890000D02*
X80816700Y-135890000D01*
D55*
X80816700Y-135890000D02*
X80804000Y-135877300D01*
D56*
X59921100Y-121262000D02*
X62242500Y-121262000D01*
X59817000Y-121158000D02*
X59921100Y-121262000D01*
X62852300Y-121872000D02*
X62852300Y-123920000D01*
X62242700Y-121262000D02*
X62852300Y-121872000D01*
X62242500Y-121262000D02*
X62242700Y-121262000D01*
D55*
X62242500Y-121262000D02*
X62242700Y-121261800D01*
D56*
X118755000Y-148463000D02*
X118940500Y-148648500D01*
X116332000Y-148463000D02*
X118755000Y-148463000D01*
X119126000Y-155702000D02*
X119634000Y-156210000D01*
X119126000Y-148834000D02*
X119126000Y-155702000D01*
X118940500Y-148648500D02*
X119126000Y-148834000D01*
D55*
X118940700Y-148648500D02*
X119126000Y-148833800D01*
X118940500Y-148648500D02*
X118940700Y-148648500D01*
D56*
X106680000Y-116459000D02*
X106680000Y-115755500D01*
X100012000Y-123126000D02*
X106680000Y-116459000D01*
X95377000Y-123126000D02*
X100012000Y-123126000D01*
X95297700Y-123205300D02*
X95377000Y-123126000D01*
D55*
X95297700Y-123196100D02*
X95173200Y-123071600D01*
X95297700Y-123205300D02*
X95297700Y-123196100D01*
D56*
X77851000Y-121977300D02*
X77851000Y-123920000D01*
X77851000Y-121602000D02*
X77851000Y-121977300D01*
X76263500Y-120015000D02*
X77851000Y-121602000D01*
X76263500Y-116967000D02*
X76263500Y-120015000D01*
X77218500Y-116012000D02*
X76263500Y-116967000D01*
X77253900Y-116012000D02*
X77218500Y-116012000D01*
D55*
X77811300Y-122017000D02*
X77851000Y-121977300D01*
D56*
X89027000Y-130556000D02*
X89027000Y-129476000D01*
X89027000Y-129476000D02*
X95297700Y-123205300D01*
D55*
X84465200Y-129667000D02*
X84465200Y-128937700D01*
X87525800Y-127974800D02*
X89027000Y-129476000D01*
X85548700Y-127974800D02*
X87525800Y-127974800D01*
X84585800Y-128937700D02*
X85548700Y-127974800D01*
X84465200Y-128937700D02*
X84585800Y-128937700D01*
X66040000Y-147838200D02*
X66040100Y-147838100D01*
D56*
X67183000Y-148981000D02*
X66040100Y-147838100D01*
X67183000Y-156591000D02*
X67183000Y-148981000D01*
X70274200Y-159682000D02*
X67183000Y-156591000D01*
X70274200Y-160274000D02*
X70274200Y-159682000D01*
X66040100Y-147838100D02*
X66040000Y-147838000D01*
X70147200Y-168021000D02*
X70147200Y-170096200D01*
X72898000Y-172847000D02*
X75565000Y-172847000D01*
X72263000Y-172212000D02*
X72898000Y-172847000D01*
X70147200Y-170096200D02*
X71120000Y-171069000D01*
X61250000Y-163612000D02*
X61250000Y-162458000D01*
X61595000Y-163957000D02*
X61250000Y-163612000D01*
X65405000Y-163957000D02*
X61595000Y-163957000D01*
X65750000Y-163612000D02*
X65405000Y-163957000D01*
X65750000Y-162458000D02*
X65750000Y-163612000D01*
X65405000Y-162113000D02*
X65750000Y-162458000D01*
X65405000Y-158623000D02*
X65405000Y-162113000D01*
X69570600Y-167792000D02*
X69001700Y-167792000D01*
D55*
X69918200Y-167792000D02*
X70147200Y-168021000D01*
X69570600Y-167792000D02*
X69918200Y-167792000D01*
D56*
X70147200Y-164127000D02*
X68658800Y-162638700D01*
X70147200Y-168021000D02*
X70147200Y-164127000D01*
D55*
X72323700Y-148063800D02*
X73007900Y-147379600D01*
X70254800Y-148063800D02*
X72323700Y-148063800D01*
X69114900Y-149203700D02*
X70254800Y-148063800D01*
X69114900Y-155623100D02*
X69114900Y-149203700D01*
X72389100Y-158897300D02*
X69114900Y-155623100D01*
X72389100Y-161101500D02*
X72389100Y-158897300D01*
X70851900Y-162638700D02*
X72389100Y-161101500D01*
X68658800Y-162638700D02*
X70851900Y-162638700D01*
D56*
X65405000Y-159385000D02*
X65405000Y-158623000D01*
X68658800Y-162638700D02*
X65405000Y-159385000D01*
D55*
X71882000Y-114046000D02*
X71882000Y-114846400D01*
X70425000Y-116303400D02*
X71882000Y-114846400D01*
X70425000Y-118931300D02*
X70425000Y-116303400D01*
X70653700Y-119160000D02*
X70425000Y-118931300D01*
D56*
X43240000Y-75354000D02*
X44534000Y-75354000D01*
X44534000Y-75354000D02*
X44577000Y-75311000D01*
X122174000Y-156210000D02*
X122174000Y-152781000D01*
X82510000Y-183835000D02*
X81310000Y-183835000D01*
D55*
X44280000Y-67480000D02*
X44450000Y-67310000D01*
X43240000Y-67480000D02*
X44280000Y-67480000D01*
X85090000Y-136007000D02*
X85968800Y-135128000D01*
X85090000Y-137922000D02*
X85090000Y-136007000D01*
X85333800Y-138166000D02*
X85090000Y-137922000D01*
X85333800Y-139357000D02*
X85333800Y-138166000D01*
D56*
X64556600Y-110703000D02*
X64770000Y-110490000D01*
X64556600Y-113792000D02*
X64556600Y-110703000D01*
X63947000Y-114402000D02*
X64556600Y-113792000D01*
X63947000Y-116357000D02*
X63947000Y-114402000D01*
X116332000Y-145669000D02*
X116332000Y-144018000D01*
X124460000Y-135960000D02*
X124460000Y-134239000D01*
X112776000Y-117983000D02*
X115189000Y-117983000D01*
X112776000Y-93853000D02*
X115189000Y-93853000D01*
X112776000Y-69723000D02*
X115062000Y-69723000D01*
X112776000Y-45593000D02*
X115062000Y-45593000D01*
X118237000Y-38100000D02*
X118237000Y-39751000D01*
D55*
X85968800Y-134610000D02*
X85968800Y-135128000D01*
X85725000Y-134366000D02*
X85968800Y-134610000D01*
X83820000Y-134366000D02*
X85725000Y-134366000D01*
X83312000Y-134874000D02*
X83820000Y-134366000D01*
X80804000Y-134874000D02*
X83312000Y-134874000D01*
X66852800Y-147498000D02*
X67183000Y-147828000D01*
X66852800Y-145320000D02*
X66852800Y-147498000D01*
D56*
X55128200Y-135118000D02*
X55128200Y-133858000D01*
X55118000Y-135128000D02*
X55128200Y-135118000D01*
D55*
X55753000Y-135763000D02*
X55118000Y-135128000D01*
X56896000Y-135763000D02*
X55753000Y-135763000D01*
X57277000Y-135382000D02*
X56896000Y-135763000D01*
X57277000Y-135001000D02*
X57277000Y-135382000D01*
X57912000Y-134366000D02*
X57277000Y-135001000D01*
X59404000Y-134366000D02*
X57912000Y-134366000D01*
X62357000Y-122555000D02*
X62103000Y-122301000D01*
X62357000Y-123920000D02*
X62357000Y-122555000D01*
X77480200Y-120025000D02*
X77480200Y-119380000D01*
X78346300Y-120891000D02*
X77480200Y-120025000D01*
X78346300Y-123920000D02*
X78346300Y-120891000D01*
D56*
X79010000Y-186510000D02*
X81010000Y-186510000D01*
X83510000Y-186510000D02*
X81010000Y-186510000D01*
X82510000Y-185507000D02*
X82510000Y-183835000D01*
X83510000Y-186507000D02*
X82510000Y-185507000D01*
X83510000Y-186510000D02*
X83510000Y-186507000D01*
X85968800Y-134796000D02*
X87617300Y-133147000D01*
X85968800Y-135128000D02*
X85968800Y-134796000D01*
X85968800Y-128534000D02*
X85979000Y-128524000D01*
X85968800Y-129667000D02*
X85968800Y-128534000D01*
X85968800Y-131191000D02*
X85968800Y-129667000D01*
X62840000Y-168758000D02*
X60833000Y-166751000D01*
X63500000Y-168758000D02*
X62840000Y-168758000D01*
X61722000Y-166751000D02*
X62611000Y-166751000D01*
X63500000Y-166751000D02*
X64389000Y-166751000D01*
X65278000Y-166751000D02*
X66167000Y-166751000D01*
X65405000Y-155829000D02*
X65405000Y-154305000D01*
X62103000Y-155829000D02*
X62103000Y-154305000D01*
X75775800Y-160063000D02*
X77089000Y-158750000D01*
X75775800Y-160274000D02*
X75775800Y-160063000D01*
X75648800Y-167683000D02*
X76962000Y-166370000D01*
X75648800Y-168021000D02*
X75648800Y-167683000D01*
X44661000Y-39540000D02*
X44704000Y-39497000D01*
X43240000Y-39540000D02*
X44661000Y-39540000D01*
X44620000Y-49700000D02*
X44704000Y-49784000D01*
X43240000Y-49700000D02*
X44620000Y-49700000D01*
X44620000Y-57320000D02*
X44704000Y-57404000D01*
X43240000Y-57320000D02*
X44620000Y-57320000D01*
X44493000Y-164000000D02*
X44577000Y-164084000D01*
X43240000Y-164000000D02*
X44493000Y-164000000D01*
X29565600Y-173888000D02*
X29591000Y-173863000D01*
X27787600Y-173888000D02*
X29565600Y-173888000D01*
X27787600Y-173888400D02*
X27787600Y-173888000D01*
X29167000Y-163660000D02*
X29210000Y-163703000D01*
X27940000Y-163660000D02*
X29167000Y-163660000D01*
X29167000Y-145880000D02*
X29210000Y-145923000D01*
X27940000Y-145880000D02*
X29167000Y-145880000D01*
X29167000Y-128100000D02*
X29210000Y-128143000D01*
X27940000Y-128100000D02*
X29167000Y-128100000D01*
X29167000Y-110320000D02*
X29210000Y-110363000D01*
X27940000Y-110320000D02*
X29167000Y-110320000D01*
X29167000Y-92540000D02*
X29210000Y-92583000D01*
X27940000Y-92540000D02*
X29167000Y-92540000D01*
X29167000Y-74760000D02*
X29210000Y-74803000D01*
X27940000Y-74760000D02*
X29167000Y-74760000D01*
X29167000Y-56980000D02*
X29210000Y-57023000D01*
X27940000Y-56980000D02*
X29167000Y-56980000D01*
X29167000Y-39200000D02*
X29210000Y-39243000D01*
X27940000Y-39200000D02*
X29167000Y-39200000D01*
X77480200Y-118628000D02*
X77480200Y-119380000D01*
X77343000Y-118491000D02*
X77480200Y-118628000D01*
X71882000Y-116586000D02*
X70993000Y-116586000D01*
X71882000Y-118608000D02*
X71892200Y-118618000D01*
X71882000Y-116586000D02*
X71882000Y-118608000D01*
X55179000Y-133807000D02*
X55128200Y-133858000D01*
X55128200Y-131953000D02*
X55179000Y-133807000D01*
D55*
X77355700Y-144031000D02*
X77343000Y-144018000D01*
X77355700Y-145320000D02*
X77355700Y-144031000D01*
D56*
X57150000Y-160700000D02*
X57150000Y-162814000D01*
X53340000Y-160700000D02*
X54610000Y-160700000D01*
X53340000Y-160700000D02*
X53340000Y-162814000D01*
X91059000Y-143764000D02*
X92710000Y-143764000D01*
X93383000Y-137071000D02*
X93472000Y-137160000D01*
X91616700Y-137071000D02*
X93383000Y-137071000D01*
X90642400Y-136097000D02*
X91616700Y-137071000D01*
X90642400Y-135369000D02*
X90642400Y-136097000D01*
X90642400Y-138045000D02*
X91616700Y-137071000D01*
X90642400Y-138773000D02*
X90642400Y-138045000D01*
X91821000Y-129159000D02*
X91694000Y-129032000D01*
X91821000Y-130556000D02*
X91821000Y-129159000D01*
X71384200Y-154686000D02*
X70358000Y-154686000D01*
X82997000Y-149037000D02*
X83058000Y-149098000D01*
X82997000Y-147726000D02*
X82997000Y-149037000D01*
X83007200Y-147716000D02*
X82997000Y-147726000D01*
X83007200Y-146228000D02*
X83007200Y-147716000D01*
X90399000Y-150393000D02*
X90424000Y-150368000D01*
X88722200Y-150393000D02*
X90399000Y-150393000D01*
X44493000Y-174160000D02*
X44577000Y-174244000D01*
X43240000Y-174160000D02*
X44493000Y-174160000D01*
X44493000Y-156380000D02*
X44577000Y-156464000D01*
X43240000Y-156380000D02*
X44493000Y-156380000D01*
X44493000Y-146220000D02*
X44577000Y-146304000D01*
X43240000Y-146220000D02*
X44493000Y-146220000D01*
X44620000Y-138600000D02*
X44704000Y-138684000D01*
X43240000Y-138600000D02*
X44620000Y-138600000D01*
X44620000Y-128440000D02*
X44704000Y-128524000D01*
X43240000Y-128440000D02*
X44620000Y-128440000D01*
X44493000Y-120820000D02*
X44577000Y-120904000D01*
X43240000Y-120820000D02*
X44493000Y-120820000D01*
X44620000Y-110660000D02*
X44704000Y-110744000D01*
X43240000Y-110660000D02*
X44620000Y-110660000D01*
X44620000Y-103040000D02*
X44704000Y-103124000D01*
X43240000Y-103040000D02*
X44620000Y-103040000D01*
X44620000Y-92880000D02*
X44704000Y-92964000D01*
X43240000Y-92880000D02*
X44620000Y-92880000D01*
X44620000Y-85260000D02*
X44704000Y-85344000D01*
X43240000Y-85260000D02*
X44620000Y-85260000D01*
X29235400Y-84988400D02*
X29337000Y-85090000D01*
X27787600Y-84988400D02*
X29235400Y-84988400D01*
X29235400Y-67208400D02*
X29337000Y-67310000D01*
X27787600Y-67208400D02*
X29235400Y-67208400D01*
X29362400Y-49428400D02*
X29464000Y-49530000D01*
X27787600Y-49428400D02*
X29362400Y-49428400D01*
X76835000Y-181229000D02*
X76708000Y-181102000D01*
X77724000Y-181229000D02*
X76835000Y-181229000D01*
X82931000Y-181229000D02*
X83058000Y-181102000D01*
X81661000Y-181229000D02*
X82931000Y-181229000D01*
X82778600Y-180823000D02*
X83058000Y-181102000D01*
X82778600Y-179616000D02*
X82778600Y-180823000D01*
X79010000Y-186510000D02*
X76510000Y-186510000D01*
X77510000Y-185510000D02*
X77510000Y-183835000D01*
X76510000Y-186510000D02*
X77510000Y-185510000D01*
X27787600Y-173888400D02*
X27787600Y-174092000D01*
X87617300Y-132840000D02*
X86730800Y-131953000D01*
X87617300Y-133147000D02*
X87617300Y-132840000D01*
X86730800Y-131953000D02*
X85968800Y-131191000D01*
X70688200Y-149936000D02*
X70612000Y-149860000D01*
X72135800Y-149936000D02*
X70688200Y-149936000D01*
D55*
X72135800Y-149936000D02*
X72136000Y-149936200D01*
D56*
X72136000Y-149936000D02*
X72135800Y-149936000D01*
X74523600Y-152324000D02*
X72136000Y-149936000D01*
X76200000Y-152324000D02*
X74523600Y-152324000D01*
X76774000Y-152898000D02*
X76200000Y-152324000D01*
X76774000Y-154661000D02*
X76774000Y-152898000D01*
D55*
X76200000Y-152324000D02*
X76200000Y-152323800D01*
X80804000Y-138874000D02*
X80804500Y-138874000D01*
X84470300Y-138494000D02*
X85333800Y-139357000D01*
X83121500Y-138494000D02*
X84470300Y-138494000D01*
X82740500Y-138874000D02*
X83121500Y-138494000D01*
X80804500Y-138874000D02*
X82740500Y-138874000D01*
X80804500Y-138874000D02*
X80804000Y-138874500D01*
D56*
X27787600Y-120548000D02*
X27788000Y-120548000D01*
X29565600Y-120548000D02*
X29591000Y-120523000D01*
X27788000Y-120548000D02*
X29565600Y-120548000D01*
D55*
X27788000Y-120548000D02*
X27787600Y-120548400D01*
D56*
X27787600Y-102768000D02*
X27788000Y-102768000D01*
X29565600Y-102768000D02*
X29591000Y-102743000D01*
X27788000Y-102768000D02*
X29565600Y-102768000D01*
D55*
X27788000Y-102768000D02*
X27787600Y-102768400D01*
D56*
X119126000Y-147330000D02*
X119126000Y-146050000D01*
D55*
X119126000Y-147330000D02*
X119126000Y-147330200D01*
D56*
X61849000Y-150114000D02*
X61976000Y-150241000D01*
X61849000Y-149215000D02*
X61849000Y-150114000D01*
D55*
X61849000Y-149215000D02*
X61849000Y-149214800D01*
D56*
X77254100Y-118402000D02*
X77343000Y-118491000D01*
X77254100Y-117516000D02*
X77254100Y-118402000D01*
D55*
X77254100Y-117516000D02*
X77254100Y-117515800D01*
D56*
X66040000Y-150368000D02*
X66040000Y-149342000D01*
D55*
X66040000Y-149342000D02*
X66040000Y-149341800D01*
D56*
X60962500Y-119758000D02*
X62242900Y-119758000D01*
X60960000Y-119761000D02*
X60962500Y-119758000D01*
D55*
X62242900Y-119758000D02*
X62242700Y-119758200D01*
D56*
X74930000Y-184930000D02*
X76510000Y-186510000D01*
X74930000Y-184902000D02*
X74930000Y-184930000D01*
D55*
X74930000Y-184902000D02*
X74930000Y-184901800D01*
D56*
X62242900Y-119758000D02*
X64020500Y-119758000D01*
X64020700Y-116431000D02*
X63947000Y-116357000D01*
X64020700Y-119758000D02*
X64020700Y-116431000D01*
X64020500Y-119758000D02*
X64020700Y-119758000D01*
D55*
X64020500Y-119758000D02*
X64020700Y-119758200D01*
X80804000Y-139865000D02*
X80804100Y-139865000D01*
X84419300Y-140272000D02*
X85333800Y-139357000D01*
X83121500Y-140272000D02*
X84419300Y-140272000D01*
X82715100Y-139865000D02*
X83121500Y-140272000D01*
X80804100Y-139865000D02*
X82715100Y-139865000D01*
X80804100Y-139865000D02*
X80804000Y-139865100D01*
D56*
X27787600Y-156108000D02*
X27788000Y-156108000D01*
X29565600Y-156108000D02*
X29591000Y-156083000D01*
X27788000Y-156108000D02*
X29565600Y-156108000D01*
D55*
X27788000Y-156108000D02*
X27787600Y-156108400D01*
D56*
X27787600Y-138328000D02*
X27788000Y-138328000D01*
X29438600Y-138328000D02*
X29464000Y-138303000D01*
X27788000Y-138328000D02*
X29438600Y-138328000D01*
D55*
X27788000Y-138328000D02*
X27787600Y-138328400D01*
X80804000Y-132867000D02*
X80804400Y-132867000D01*
X83566000Y-131953000D02*
X86730800Y-131953000D01*
X82651600Y-132867000D02*
X83566000Y-131953000D01*
X80804400Y-132867000D02*
X82651600Y-132867000D01*
X80804400Y-132867000D02*
X80804000Y-132867400D01*
X71678800Y-152324000D02*
X71907300Y-152324000D01*
X78346300Y-145320000D02*
X78346300Y-146273900D01*
X71907300Y-152324000D02*
X72135800Y-152324000D01*
X72136000Y-153934000D02*
X72887800Y-154686000D01*
X72136000Y-152324000D02*
X72136000Y-153934000D01*
X72135800Y-152324000D02*
X72136000Y-152324000D01*
X72135800Y-152324000D02*
X72136000Y-152323800D01*
X75521800Y-149098400D02*
X78346300Y-146273900D01*
X70617700Y-149098400D02*
X75521800Y-149098400D01*
X70065100Y-149651000D02*
X70617700Y-149098400D01*
X70065100Y-150481800D02*
X70065100Y-149651000D01*
X71907300Y-152324000D02*
X70065100Y-150481800D01*
X79692500Y-119380000D02*
X78983800Y-119380000D01*
X80137000Y-119824000D02*
X79692500Y-119380000D01*
X80137000Y-120206000D02*
X80137000Y-119824000D01*
X78854300Y-121488000D02*
X80137000Y-120206000D01*
X78854300Y-123920000D02*
X78854300Y-121488000D01*
X78983800Y-117803000D02*
X79115900Y-117670500D01*
X78983800Y-119380000D02*
X78983800Y-117803000D01*
X79115900Y-117670500D02*
X79248000Y-117538000D01*
X79116000Y-117670500D02*
X79248000Y-117538500D01*
X79115900Y-117670500D02*
X79116000Y-117670500D01*
X75270400Y-154010000D02*
X75270400Y-154661000D01*
X74676000Y-153416000D02*
X75270400Y-154010000D01*
X75996800Y-149936000D02*
X74676000Y-151257000D01*
X76199800Y-149936000D02*
X75996800Y-149936000D01*
X76199800Y-149936000D02*
X76200000Y-149936200D01*
X76250800Y-149936000D02*
X76225300Y-149936000D01*
X76225300Y-149936000D02*
X76199800Y-149936000D01*
X78854200Y-146273900D02*
X78854300Y-146273900D01*
X78854200Y-147307100D02*
X78854200Y-146273900D01*
X76225300Y-149936000D02*
X78854200Y-147307100D01*
X78854300Y-145320000D02*
X78854300Y-146273900D01*
X81483200Y-146228000D02*
X81483200Y-146458300D01*
X81483200Y-147716000D02*
X81493400Y-147726000D01*
X81483200Y-146458300D02*
X81483200Y-147716000D01*
X79494800Y-141516400D02*
X79850100Y-141871700D01*
X79494800Y-141011400D02*
X79494800Y-141516400D01*
X80804000Y-141871700D02*
X79850100Y-141871700D01*
X82290300Y-145364600D02*
X82290400Y-145364600D01*
X82290300Y-145651200D02*
X82290300Y-145364600D01*
X81483200Y-146458300D02*
X82290300Y-145651200D01*
X89138800Y-135369000D02*
X88460300Y-135369000D01*
X81827300Y-137306500D02*
X81757900Y-137375900D01*
X84077000Y-137306500D02*
X81827300Y-137306500D01*
X80804000Y-137375900D02*
X81757900Y-137375900D01*
X87535800Y-136293500D02*
X87535800Y-136612800D01*
X88460300Y-135369000D02*
X87535800Y-136293500D01*
X86853800Y-136612800D02*
X86845600Y-136621000D01*
X87535800Y-136612800D02*
X86853800Y-136612800D01*
X86066700Y-136621000D02*
X86845600Y-136621000D01*
X89138800Y-138773000D02*
X88074000Y-138773000D01*
X86066700Y-137521000D02*
X86845600Y-137521000D01*
X81768400Y-137860700D02*
X81757900Y-137871200D01*
X82040400Y-137860700D02*
X81768400Y-137860700D01*
X80804000Y-137871200D02*
X81757900Y-137871200D01*
X88074000Y-138773000D02*
X87252200Y-137951200D01*
X87252200Y-137927600D02*
X87252200Y-137951200D01*
X86845600Y-137521000D02*
X87252200Y-137927600D01*
X80804300Y-141364000D02*
X80804000Y-141364000D01*
X80804300Y-141364000D02*
X80804000Y-141363700D01*
X88265000Y-143764000D02*
X88042800Y-143764000D01*
X84975700Y-141364000D02*
X80804300Y-141364000D01*
X87376000Y-143764000D02*
X84975700Y-141364000D01*
X88042800Y-143764000D02*
X87376000Y-143764000D01*
X89369900Y-142436900D02*
X88042800Y-143764000D01*
X89369900Y-141059000D02*
X89369900Y-142436900D01*
X40640000Y-40640000D02*
X39711100Y-40640000D01*
X29794200Y-42011600D02*
X31343900Y-42011600D01*
X36370500Y-37299400D02*
X39711100Y-40640000D01*
X34596100Y-37299400D02*
X36370500Y-37299400D01*
X34499500Y-37396000D02*
X34596100Y-37299400D01*
X34499500Y-38856000D02*
X34499500Y-37396000D01*
X31343900Y-42011600D02*
X34499500Y-38856000D01*
X39711100Y-50328000D02*
X38811500Y-49428400D01*
X39711100Y-50800000D02*
X39711100Y-50328000D01*
X37185600Y-49428400D02*
X38811500Y-49428400D01*
X40640000Y-50800000D02*
X39711100Y-50800000D01*
X34398000Y-56521600D02*
X31128000Y-59791600D01*
X34398000Y-55312800D02*
X34398000Y-56521600D01*
X34678300Y-55032500D02*
X34398000Y-55312800D01*
X36323600Y-55032500D02*
X34678300Y-55032500D01*
X39711100Y-58420000D02*
X36323600Y-55032500D01*
X40640000Y-58420000D02*
X39711100Y-58420000D01*
X29794200Y-59791600D02*
X31128000Y-59791600D01*
X39711100Y-68108000D02*
X38811500Y-67208400D01*
X39711100Y-68580000D02*
X39711100Y-68108000D01*
X37185600Y-67208400D02*
X38811500Y-67208400D01*
X40640000Y-68580000D02*
X39711100Y-68580000D01*
X40640000Y-76454000D02*
X40640000Y-74018900D01*
X31128000Y-77571600D02*
X29794200Y-77571600D01*
X34159700Y-74539900D02*
X31128000Y-77571600D01*
X34159700Y-72851800D02*
X34159700Y-74539900D01*
X34472500Y-72539000D02*
X34159700Y-72851800D01*
X39160100Y-72539000D02*
X34472500Y-72539000D01*
X40640000Y-74018900D02*
X39160100Y-72539000D01*
X39711100Y-85888000D02*
X38811500Y-84988400D01*
X39711100Y-86360000D02*
X39711100Y-85888000D01*
X37185600Y-84988400D02*
X38811500Y-84988400D01*
X40640000Y-86360000D02*
X39711100Y-86360000D01*
X34505500Y-91974100D02*
X31128000Y-95351600D01*
X34505500Y-90730000D02*
X34505500Y-91974100D01*
X34596000Y-90639500D02*
X34505500Y-90730000D01*
X36370600Y-90639500D02*
X34596000Y-90639500D01*
X39711100Y-93980000D02*
X36370600Y-90639500D01*
X40640000Y-93980000D02*
X39711100Y-93980000D01*
X29794200Y-95351600D02*
X31128000Y-95351600D01*
X39711100Y-103668000D02*
X38811500Y-102768400D01*
X39711100Y-104140000D02*
X39711100Y-103668000D01*
X37185600Y-102768400D02*
X38811500Y-102768400D01*
X40640000Y-104140000D02*
X39711100Y-104140000D01*
X40640000Y-111760000D02*
X39711100Y-111760000D01*
X29794200Y-113131600D02*
X31128000Y-113131600D01*
X36370600Y-108419500D02*
X39711100Y-111760000D01*
X34596000Y-108419500D02*
X36370600Y-108419500D01*
X34505500Y-108510000D02*
X34596000Y-108419500D01*
X34505500Y-109754100D02*
X34505500Y-108510000D01*
X31128000Y-113131600D02*
X34505500Y-109754100D01*
X39711100Y-121448000D02*
X38811500Y-120548400D01*
X39711100Y-121920000D02*
X39711100Y-121448000D01*
X37185600Y-120548400D02*
X38811500Y-120548400D01*
X40640000Y-121920000D02*
X39711100Y-121920000D01*
X34505500Y-127534100D02*
X31128000Y-130911600D01*
X34505500Y-126290000D02*
X34505500Y-127534100D01*
X34596000Y-126199500D02*
X34505500Y-126290000D01*
X36370600Y-126199500D02*
X34596000Y-126199500D01*
X39711100Y-129540000D02*
X36370600Y-126199500D01*
X40640000Y-129540000D02*
X39711100Y-129540000D01*
X29794200Y-130911600D02*
X31128000Y-130911600D01*
X39711100Y-139228000D02*
X38811500Y-138328400D01*
X39711100Y-139700000D02*
X39711100Y-139228000D01*
X37185600Y-138328400D02*
X38811500Y-138328400D01*
X40640000Y-139700000D02*
X39711100Y-139700000D01*
X34505500Y-145314100D02*
X31128000Y-148691600D01*
X34505500Y-144070000D02*
X34505500Y-145314100D01*
X34596000Y-143979500D02*
X34505500Y-144070000D01*
X36370600Y-143979500D02*
X34596000Y-143979500D01*
X39711100Y-147320000D02*
X36370600Y-143979500D01*
X40640000Y-147320000D02*
X39711100Y-147320000D01*
X29794200Y-148691600D02*
X31128000Y-148691600D01*
X39711100Y-157008000D02*
X38811500Y-156108400D01*
X39711100Y-157480000D02*
X39711100Y-157008000D01*
X37185600Y-156108400D02*
X38811500Y-156108400D01*
X40640000Y-157480000D02*
X39711100Y-157480000D01*
X32499600Y-165100000D02*
X31128000Y-166471600D01*
X40640000Y-165100000D02*
X32499600Y-165100000D01*
X29794200Y-166471600D02*
X31128000Y-166471600D01*
X39711100Y-174788000D02*
X38811500Y-173888400D01*
X39711100Y-175260000D02*
X39711100Y-174788000D01*
X37185600Y-173888400D02*
X38811500Y-173888400D01*
X40640000Y-175260000D02*
X39711100Y-175260000D01*
X122533300Y-139915600D02*
X123410000Y-139038900D01*
X121793000Y-139915600D02*
X122533300Y-139915600D01*
X121793000Y-140462000D02*
X121793000Y-139915600D01*
X123410000Y-138360000D02*
X123410000Y-139038900D01*
X125209700Y-139038900D02*
X125510000Y-139038900D01*
X124333000Y-139915600D02*
X125209700Y-139038900D01*
X124333000Y-140462000D02*
X124333000Y-139915600D01*
X125510000Y-138360000D02*
X125510000Y-139038900D01*
D56*
X75565000Y-177419000D02*
X75565000Y-178054000D01*
X75565000Y-178054000D02*
X74549000Y-179070000D01*
X66040000Y-177800000D02*
X66040000Y-176834000D01*
X67310000Y-179070000D02*
X66040000Y-177800000D01*
X74549000Y-179070000D02*
X67310000Y-179070000D01*
X75438000Y-177419000D02*
X75565000Y-177419000D01*
X70739000Y-176524000D02*
X70739000Y-175260000D01*
X51590000Y-177701000D02*
X51590000Y-175260000D01*
X52197000Y-178308000D02*
X51590000Y-177701000D01*
X57658000Y-178308000D02*
X52197000Y-178308000D01*
X61214000Y-174752000D02*
X57658000Y-178308000D01*
X70231000Y-174752000D02*
X61214000Y-174752000D01*
X70739000Y-175260000D02*
X70231000Y-174752000D01*
X51590000Y-175260000D02*
X51590000Y-175796000D01*
D55*
X79684400Y-135369300D02*
X79557800Y-135242700D01*
X80804000Y-135369300D02*
X79684400Y-135369300D01*
X89674400Y-133516500D02*
X89674400Y-133477000D01*
X88853500Y-134337400D02*
X89674400Y-133516500D01*
X90220800Y-133477000D02*
X89674400Y-133477000D01*
X85128400Y-142786400D02*
X85128400Y-142240000D01*
X87236700Y-144894700D02*
X85128400Y-142786400D01*
X89255700Y-144894700D02*
X87236700Y-144894700D01*
X89522400Y-144628000D02*
X89255700Y-144894700D01*
X89522400Y-142716100D02*
X89522400Y-144628000D01*
X90058800Y-142179700D02*
X89522400Y-142716100D01*
X90058800Y-140196800D02*
X90058800Y-142179700D01*
X89993500Y-140131500D02*
X90058800Y-140196800D01*
X84991500Y-140131500D02*
X89993500Y-140131500D01*
X84502300Y-140620700D02*
X84991500Y-140131500D01*
X82005500Y-140620700D02*
X84502300Y-140620700D01*
X81757900Y-140373100D02*
X82005500Y-140620700D01*
X80804000Y-140373100D02*
X81757900Y-140373100D01*
X84582000Y-142240000D02*
X85128400Y-142240000D01*
X84531200Y-143980000D02*
X85077600Y-143980000D01*
X85296000Y-140925900D02*
X86072200Y-141702100D01*
X81815400Y-140925900D02*
X85296000Y-140925900D01*
X81757900Y-140868400D02*
X81815400Y-140925900D01*
X80804000Y-140868400D02*
X81757900Y-140868400D01*
X85077600Y-144066200D02*
X85340200Y-144328800D01*
X85077600Y-143980000D02*
X85077600Y-144066200D01*
X59404000Y-136372600D02*
X58450100Y-136372600D01*
X48185000Y-106970000D02*
X54685000Y-106970000D01*
X53098700Y-115222900D02*
X53098700Y-112099300D01*
X53849900Y-115974100D02*
X53098700Y-115222900D01*
X53849900Y-135046800D02*
X53849900Y-115974100D01*
X55213600Y-136410500D02*
X53849900Y-135046800D01*
X58412200Y-136410500D02*
X55213600Y-136410500D01*
X58450100Y-136372600D02*
X58412200Y-136410500D01*
X29868900Y-38100000D02*
X33528000Y-38100000D01*
X28768900Y-37000000D02*
X29868900Y-38100000D01*
X27940000Y-37000000D02*
X28768900Y-37000000D01*
X29868900Y-55880000D02*
X33528000Y-55880000D01*
X28768900Y-54780000D02*
X29868900Y-55880000D01*
X27940000Y-54780000D02*
X28768900Y-54780000D01*
X29868900Y-73660000D02*
X33528000Y-73660000D01*
X28768900Y-72560000D02*
X29868900Y-73660000D01*
X27940000Y-72560000D02*
X28768900Y-72560000D01*
X29868900Y-91440000D02*
X33528000Y-91440000D01*
X28768900Y-90340000D02*
X29868900Y-91440000D01*
X27940000Y-90340000D02*
X28768900Y-90340000D01*
X29868900Y-109220000D02*
X33528000Y-109220000D01*
X28768900Y-108120000D02*
X29868900Y-109220000D01*
X27940000Y-108120000D02*
X28768900Y-108120000D01*
X29868900Y-127000000D02*
X33528000Y-127000000D01*
X28768900Y-125900000D02*
X29868900Y-127000000D01*
X27940000Y-125900000D02*
X28768900Y-125900000D01*
X29868900Y-144780000D02*
X33528000Y-144780000D01*
X28768900Y-143680000D02*
X29868900Y-144780000D01*
X27940000Y-143680000D02*
X28768900Y-143680000D01*
X29868900Y-162560000D02*
X32258000Y-162560000D01*
X28768900Y-161460000D02*
X29868900Y-162560000D01*
X27940000Y-161460000D02*
X28768900Y-161460000D01*
X110097800Y-141439600D02*
X95565400Y-126907200D01*
X124999400Y-141439600D02*
X110097800Y-141439600D01*
X125133500Y-141573700D02*
X124999400Y-141439600D01*
X125133500Y-160332900D02*
X125133500Y-141573700D01*
X122715400Y-162751000D02*
X125133500Y-160332900D01*
X121701600Y-162751000D02*
X122715400Y-162751000D01*
X120712900Y-163739700D02*
X121701600Y-162751000D01*
X120712900Y-164347200D02*
X120712900Y-163739700D01*
X119769000Y-165291100D02*
X120712900Y-164347200D01*
X119634000Y-165291100D02*
X119769000Y-165291100D01*
X119634000Y-166370000D02*
X119634000Y-165291100D01*
X73626900Y-132491500D02*
X74896700Y-132491500D01*
X63360300Y-142758100D02*
X73626900Y-132491500D01*
X63360300Y-145320000D02*
X63360300Y-142758100D01*
X109637000Y-152631300D02*
X102423600Y-145417900D01*
X110634700Y-152631300D02*
X109637000Y-152631300D01*
X67581600Y-139131000D02*
X67748400Y-139131000D01*
X63855600Y-142857000D02*
X67581600Y-139131000D01*
X63855600Y-145320000D02*
X63855600Y-142857000D01*
X119634000Y-163830000D02*
X119634000Y-162751100D01*
X64350900Y-145320000D02*
X64350900Y-142800500D01*
X119522200Y-162751100D02*
X119634000Y-162751100D01*
X118339000Y-161567900D02*
X119522200Y-162751100D01*
X118339000Y-154781300D02*
X118339000Y-161567900D01*
X118073100Y-154515400D02*
X118339000Y-154781300D01*
X117615300Y-154515400D02*
X118073100Y-154515400D01*
X108294200Y-145194300D02*
X117615300Y-154515400D01*
X103517600Y-145194300D02*
X108294200Y-145194300D01*
X67335200Y-139816200D02*
X64350900Y-142800500D01*
X67907800Y-139816200D02*
X67335200Y-139816200D01*
X68582700Y-139141300D02*
X67907800Y-139816200D01*
X98686600Y-145410100D02*
X91601100Y-145410100D01*
X104882000Y-151605500D02*
X98686600Y-145410100D01*
X64858900Y-143060200D02*
X64858900Y-145320000D01*
X67569200Y-140349900D02*
X64858900Y-143060200D01*
X77355700Y-123920000D02*
X77355700Y-124873900D01*
X100408500Y-38021500D02*
X101600000Y-36830000D01*
X100408500Y-74266800D02*
X100408500Y-38021500D01*
X91703300Y-82972000D02*
X100408500Y-74266800D01*
X91703300Y-112314400D02*
X91703300Y-82972000D01*
X79143800Y-124873900D02*
X91703300Y-112314400D01*
X77355700Y-124873900D02*
X79143800Y-124873900D01*
X93564500Y-114063100D02*
X81757900Y-125869700D01*
X93564500Y-83775000D02*
X93564500Y-114063100D01*
X102055700Y-75283800D02*
X93564500Y-83775000D01*
X102055700Y-59936500D02*
X102055700Y-75283800D01*
X110575500Y-51416700D02*
X102055700Y-59936500D01*
X110575500Y-49238300D02*
X110575500Y-51416700D01*
X103100800Y-41763600D02*
X110575500Y-49238300D01*
X103100800Y-35790800D02*
X103100800Y-41763600D01*
X101600000Y-34290000D02*
X103100800Y-35790800D01*
X80804000Y-125869700D02*
X81757900Y-125869700D01*
X80804000Y-126377700D02*
X81757900Y-126377700D01*
X93869600Y-114266000D02*
X81757900Y-126377700D01*
X93869600Y-83901500D02*
X93869600Y-114266000D01*
X102755200Y-75015900D02*
X93869600Y-83901500D01*
X102755200Y-59668600D02*
X102755200Y-75015900D01*
X110880600Y-51543200D02*
X102755200Y-59668600D01*
X110880600Y-49111700D02*
X110880600Y-51543200D01*
X104140000Y-42371100D02*
X110880600Y-49111700D01*
X104140000Y-36830000D02*
X104140000Y-42371100D01*
X80804000Y-127876300D02*
X81757900Y-127876300D01*
X81757900Y-127465500D02*
X81757900Y-127876300D01*
X95242100Y-113981300D02*
X81757900Y-127465500D01*
X95242100Y-84408100D02*
X95242100Y-113981300D01*
X104621000Y-75029200D02*
X95242100Y-84408100D01*
X104621000Y-71530500D02*
X104621000Y-75029200D01*
X111185700Y-64965800D02*
X104621000Y-71530500D01*
X111185700Y-48529500D02*
X111185700Y-64965800D01*
X105410100Y-42753900D02*
X111185700Y-48529500D01*
X105410100Y-35560100D02*
X105410100Y-42753900D01*
X104140000Y-34290000D02*
X105410100Y-35560100D01*
X106187900Y-142333200D02*
X102540400Y-142333200D01*
X117836400Y-153981700D02*
X106187900Y-142333200D01*
X80804000Y-131864100D02*
X79850100Y-131864100D01*
X79603400Y-132110800D02*
X79603400Y-133388500D01*
X79850100Y-131864100D02*
X79603400Y-132110800D01*
X114812300Y-147341800D02*
X94733800Y-127263300D01*
X117780600Y-147341800D02*
X114812300Y-147341800D01*
X118520400Y-148081600D02*
X117780600Y-147341800D01*
X119654100Y-148081600D02*
X118520400Y-148081600D01*
X120789900Y-149217400D02*
X119654100Y-148081600D01*
X120789900Y-158961900D02*
X120789900Y-149217400D01*
X122039100Y-160211100D02*
X120789900Y-158961900D01*
X122174000Y-160211100D02*
X122039100Y-160211100D01*
X122174000Y-161290000D02*
X122174000Y-160211100D01*
X80804000Y-130365500D02*
X82385500Y-130365500D01*
X82385500Y-130365500D02*
X83543700Y-129207300D01*
X121095100Y-143230300D02*
X121793000Y-142532400D01*
X121095100Y-157182300D02*
X121095100Y-143230300D01*
X121583900Y-157671100D02*
X121095100Y-157182300D01*
X122174000Y-157671100D02*
X121583900Y-157671100D01*
X122174000Y-158750000D02*
X122174000Y-157671100D01*
X121793000Y-141986000D02*
X121793000Y-142532400D01*
X119634000Y-158750000D02*
X119634000Y-159828900D01*
X124333000Y-141986000D02*
X124333000Y-160701700D01*
X119769000Y-159828900D02*
X119634000Y-159828900D01*
X120712900Y-160772800D02*
X119769000Y-159828900D01*
X120712900Y-161403600D02*
X120712900Y-160772800D01*
X121687800Y-162378500D02*
X120712900Y-161403600D01*
X122656200Y-162378500D02*
X121687800Y-162378500D01*
X124333000Y-160701700D02*
X122656200Y-162378500D01*
X112048900Y-141134400D02*
X102427900Y-131513400D01*
X125164200Y-141134400D02*
X112048900Y-141134400D01*
X125447000Y-141417200D02*
X125164200Y-141134400D01*
X125447000Y-164693000D02*
X125447000Y-141417200D01*
X122308900Y-167831100D02*
X125447000Y-164693000D01*
X122174000Y-167831100D02*
X122308900Y-167831100D01*
X82341000Y-132372100D02*
X80804000Y-132372100D01*
X82473200Y-132239900D02*
X82341000Y-132372100D01*
X122174000Y-168910000D02*
X122174000Y-167831100D01*
X80804000Y-134366000D02*
X79850100Y-134366000D01*
X101626700Y-147595400D02*
X101626700Y-141849500D01*
X107652100Y-153620800D02*
X101626700Y-147595400D01*
X79760100Y-134456000D02*
X79565200Y-134456000D01*
X79850100Y-134366000D02*
X79760100Y-134456000D01*
D56*
G36*
X66649600Y-169011600D02*
X60350400Y-169011600D01*
X60350400Y-165633400D01*
X66649600Y-165633400D01*
X66649600Y-169011600D01*
X66649600Y-169011600D01*
G37*
X66649600Y-169011600D02*
X60350400Y-169011600D01*
X60350400Y-165633400D01*
X66649600Y-165633400D01*
X66649600Y-169011600D01*
M02*
