G04 #@! TF.FileFunction,Copper,L1,Top,Mixed*
%FSLAX46Y46*%
G04 Gerber Fmt 4.6, Leading zero omitted, Abs format (unit mm)*
G04 Created by KiCad (PCBNEW 4.0.7) date 01/11/18 09:06:53*
%MOMM*%
%LPD*%
G01*
G04 APERTURE LIST*
%ADD10C,0.150000*%
%ADD11C,0.762000*%
%ADD12R,1.550000X1.300000*%
%ADD13R,0.635000X1.143000*%
%ADD14R,2.500000X1.100000*%
%ADD15O,2.500000X1.100000*%
%ADD16O,1.100000X2.500000*%
%ADD17R,1.060000X0.650000*%
%ADD18R,0.300000X1.450000*%
%ADD19R,1.450000X0.300000*%
%ADD20C,7.000240*%
%ADD21C,2.200000*%
%ADD22C,1.600000*%
%ADD23R,1.700000X1.700000*%
%ADD24O,1.700000X1.700000*%
%ADD25R,1.524000X1.524000*%
%ADD26C,1.524000*%
%ADD27C,7.000000*%
%ADD28R,2.400000X1.500000*%
%ADD29R,1.100000X0.600000*%
%ADD30R,1.193800X1.803400*%
%ADD31R,3.300000X1.500000*%
%ADD32R,1.000000X1.500000*%
%ADD33R,1.143000X0.635000*%
%ADD34R,1.400000X1.200000*%
%ADD35R,1.400000X2.800000*%
%ADD36R,0.760000X2.400000*%
%ADD37O,1.574800X3.048000*%
%ADD38O,1.600200X3.048000*%
%ADD39R,1.500000X1.550000*%
%ADD40C,1.550000*%
%ADD41R,0.400000X1.350000*%
%ADD42C,1.250000*%
%ADD43R,0.889000X1.397000*%
%ADD44R,1.397000X0.889000*%
%ADD45R,1.397000X3.810000*%
%ADD46R,1.000000X0.900000*%
%ADD47R,2.209800X2.794000*%
%ADD48R,2.794000X2.794000*%
%ADD49C,1.701800*%
%ADD50R,1.600200X1.803400*%
%ADD51R,0.899200X1.000800*%
%ADD52R,1.000800X0.899200*%
%ADD53R,1.803400X1.600200*%
%ADD54R,3.599200X1.600200*%
%ADD55C,1.750000*%
%ADD56C,1.850000*%
%ADD57R,0.450000X1.450000*%
%ADD58R,0.900000X1.000000*%
%ADD59C,1.500000*%
%ADD60C,0.609600*%
%ADD61C,1.270000*%
%ADD62C,0.812800*%
%ADD63C,0.304800*%
%ADD64C,0.152400*%
%ADD65C,0.300000*%
%ADD66C,0.254000*%
%ADD67C,0.508000*%
%ADD68C,1.016000*%
G04 APERTURE END LIST*
D10*
D11*
X86470000Y-155900000D02*
X87470000Y-155900000D01*
X96560000Y-157100000D02*
X96560000Y-156100000D01*
X98650000Y-156100000D02*
X98650000Y-157100000D01*
X100720000Y-157100000D02*
X100720000Y-156100000D01*
X105156000Y-157100000D02*
X105156000Y-156100000D01*
X102870000Y-156100000D02*
X102870000Y-157100000D01*
X107442000Y-157100000D02*
X107442000Y-156100000D01*
X109728000Y-157100000D02*
X109728000Y-156100000D01*
X112014000Y-156100000D02*
X112014000Y-157100000D01*
D12*
X94064000Y-111470000D03*
X94064000Y-106970000D03*
X102024000Y-106970000D03*
X102024000Y-111470000D03*
D13*
X83400900Y-142417800D03*
X84924900Y-142417800D03*
X83413600Y-143979900D03*
X84937600Y-143979900D03*
D14*
X110809000Y-179070000D03*
D15*
X110809000Y-177070000D03*
X110809000Y-175070000D03*
X110809000Y-173070000D03*
X110809000Y-171070000D03*
X110809000Y-169070000D03*
X110809000Y-167070000D03*
X110809000Y-165070000D03*
X95409000Y-165070000D03*
X95509000Y-167070000D03*
X95409000Y-169070000D03*
X95409000Y-171070000D03*
X95409000Y-173070000D03*
X95409000Y-175070000D03*
X95409000Y-177070000D03*
X95409000Y-179070000D03*
D16*
X108119000Y-163370000D03*
X106119000Y-163370000D03*
X104119000Y-163370000D03*
X102119000Y-163370000D03*
X100119000Y-163370000D03*
X98119000Y-163370000D03*
D17*
X104060000Y-152070000D03*
X104060000Y-151120000D03*
X104060000Y-150170000D03*
X101860000Y-150170000D03*
X101860000Y-152070000D03*
D18*
X61353700Y-145320000D03*
X61861700Y-145320000D03*
X62357000Y-145320000D03*
X62852300Y-145320000D03*
X63360300Y-145320000D03*
X63855600Y-145320000D03*
X64350900Y-145320000D03*
X64858900Y-145320000D03*
X65354200Y-145320000D03*
X65849500Y-145320000D03*
X66357500Y-145320000D03*
X66852800Y-145320000D03*
X67348100Y-145320000D03*
X67856100Y-145320000D03*
X68351400Y-145320000D03*
X68846700Y-145320000D03*
X69354700Y-145320000D03*
X69850000Y-145320000D03*
X70358000Y-145320000D03*
X70853300Y-145320000D03*
X71361300Y-145320000D03*
X71856600Y-145320000D03*
X72351900Y-145320000D03*
X72859900Y-145320000D03*
X73355200Y-145320000D03*
X73850500Y-145320000D03*
X74358500Y-145320000D03*
X74853800Y-145320000D03*
X75349100Y-145320000D03*
X75857100Y-145320000D03*
X76352400Y-145320000D03*
X76847700Y-145320000D03*
X77355700Y-145320000D03*
X77851000Y-145320000D03*
X78346300Y-145320000D03*
X78854300Y-145320000D03*
D19*
X80804000Y-128866900D03*
X80804000Y-128371600D03*
X80804000Y-127876300D03*
X80804000Y-127368300D03*
X80804000Y-126873000D03*
X80804000Y-126377700D03*
X80804000Y-125869700D03*
X59404000Y-128371600D03*
X59404000Y-128866900D03*
X59404000Y-129374900D03*
X59404000Y-129870200D03*
X59404000Y-130365500D03*
X59404000Y-130873500D03*
X59404000Y-131368800D03*
X59404000Y-131864100D03*
X59404000Y-132372100D03*
X59404000Y-132867400D03*
X59404000Y-133362700D03*
X59404000Y-133870700D03*
X59404000Y-134366000D03*
X59404000Y-134874000D03*
X59404000Y-135369300D03*
X59404000Y-135877300D03*
X59404000Y-136372600D03*
X59404000Y-136867900D03*
X59404000Y-137375900D03*
X59404000Y-137871200D03*
X59404000Y-138366500D03*
X59404000Y-138874500D03*
X59404000Y-139369800D03*
X59404000Y-139865100D03*
X59404000Y-140373100D03*
X59404000Y-140868400D03*
X59404000Y-141363700D03*
X59404000Y-141871700D03*
X59404000Y-142367000D03*
X59404000Y-142862300D03*
X59404000Y-143370300D03*
X80804000Y-143370300D03*
X80804000Y-142862300D03*
X80804000Y-142367000D03*
X80804000Y-141871700D03*
X80804000Y-141363700D03*
X80804000Y-140868400D03*
X80804000Y-140373100D03*
X80804000Y-139865100D03*
X80804000Y-139369800D03*
X80804000Y-138874500D03*
X80804000Y-138366500D03*
X80804000Y-137871200D03*
X80804000Y-137375900D03*
X80804000Y-136867900D03*
X80804000Y-136372600D03*
X80804000Y-135877300D03*
X80804000Y-135369300D03*
X80804000Y-134874000D03*
X80804000Y-134366000D03*
X80804000Y-133870700D03*
X80804000Y-133362700D03*
X80804000Y-132867400D03*
X80804000Y-132372100D03*
X80804000Y-131864100D03*
X80804000Y-131368800D03*
X80804000Y-130873500D03*
X80804000Y-130365500D03*
X80804000Y-129870200D03*
X80804000Y-129374900D03*
D18*
X76352400Y-123920000D03*
X75857100Y-123920000D03*
X75349100Y-123920000D03*
X74853800Y-123920000D03*
X74358500Y-123920000D03*
X73850500Y-123920000D03*
X73355200Y-123920000D03*
X72859900Y-123920000D03*
X72351900Y-123920000D03*
X71856600Y-123920000D03*
X71361300Y-123920000D03*
X70853300Y-123920000D03*
X70358000Y-123920000D03*
X69850000Y-123920000D03*
X69354700Y-123920000D03*
X68846700Y-123920000D03*
X68351400Y-123920000D03*
X67856100Y-123920000D03*
X67348100Y-123920000D03*
X66852800Y-123920000D03*
X66357500Y-123920000D03*
X65849500Y-123920000D03*
X65354200Y-123920000D03*
X64858900Y-123920000D03*
X64350900Y-123920000D03*
X63855600Y-123920000D03*
X63360300Y-123920000D03*
X62852300Y-123920000D03*
X62357000Y-123920000D03*
X61861700Y-123920000D03*
X61353700Y-123920000D03*
X78854300Y-123920000D03*
X78346300Y-123920000D03*
X77851000Y-123920000D03*
X77355700Y-123920000D03*
X76847700Y-123920000D03*
D19*
X59404000Y-125869700D03*
X59404000Y-126377700D03*
X59404000Y-126873000D03*
X59404000Y-127368300D03*
X59404000Y-127876300D03*
D20*
X76200000Y-102560000D03*
X76200000Y-44760000D03*
D13*
X79121000Y-181229000D03*
X77597000Y-181229000D03*
X80264000Y-181229000D03*
X81788000Y-181229000D03*
D21*
X120780000Y-126240000D03*
X120780000Y-109980000D03*
D22*
X121800000Y-118610000D03*
X121800000Y-116580000D03*
X120020000Y-119640000D03*
X120020000Y-117610000D03*
X120020000Y-121670000D03*
X121800000Y-120640000D03*
X120020000Y-115580000D03*
X121800000Y-114550000D03*
D21*
X120780000Y-102110000D03*
X120780000Y-85850000D03*
D22*
X121800000Y-94480000D03*
X121800000Y-92450000D03*
X120020000Y-95510000D03*
X120020000Y-93480000D03*
X120020000Y-97540000D03*
X121800000Y-96510000D03*
X120020000Y-91450000D03*
X121800000Y-90420000D03*
D21*
X120780000Y-77980000D03*
X120780000Y-61720000D03*
D22*
X121800000Y-70350000D03*
X121800000Y-68320000D03*
X120020000Y-71380000D03*
X120020000Y-69350000D03*
X120020000Y-73410000D03*
X121800000Y-72380000D03*
X120020000Y-67320000D03*
X121800000Y-66290000D03*
D21*
X120780000Y-53850000D03*
X120780000Y-37590000D03*
D22*
X121800000Y-46220000D03*
X121800000Y-44190000D03*
X120020000Y-47250000D03*
X120020000Y-45220000D03*
X120020000Y-49280000D03*
X121800000Y-48250000D03*
X120020000Y-43190000D03*
X121800000Y-42160000D03*
D23*
X88138000Y-158242000D03*
D24*
X85598000Y-158242000D03*
X88138000Y-160782000D03*
X85598000Y-160782000D03*
X88138000Y-163322000D03*
X85598000Y-163322000D03*
X88138000Y-165862000D03*
X85598000Y-165862000D03*
X88138000Y-168402000D03*
X85598000Y-168402000D03*
X88138000Y-170942000D03*
X85598000Y-170942000D03*
D25*
X45720000Y-36830000D03*
D26*
X45720000Y-34290000D03*
X48260000Y-36830000D03*
X48260000Y-34290000D03*
X50800000Y-36830000D03*
X50800000Y-34290000D03*
X53340000Y-36830000D03*
X53340000Y-34290000D03*
X55880000Y-36830000D03*
X55880000Y-34290000D03*
X58420000Y-36830000D03*
X58420000Y-34290000D03*
X60960000Y-36830000D03*
X60960000Y-34290000D03*
X63500000Y-36830000D03*
X63500000Y-34290000D03*
X66040000Y-36830000D03*
X66040000Y-34290000D03*
X68580000Y-36830000D03*
X68580000Y-34290000D03*
X71120000Y-36830000D03*
X71120000Y-34290000D03*
X73660000Y-36830000D03*
X73660000Y-34290000D03*
X76200000Y-36830000D03*
X76200000Y-34290000D03*
X78740000Y-36830000D03*
X78740000Y-34290000D03*
X81280000Y-36830000D03*
X81280000Y-34290000D03*
X83820000Y-36830000D03*
X83820000Y-34290000D03*
X86360000Y-36830000D03*
X86360000Y-34290000D03*
X88900000Y-36830000D03*
X88900000Y-34290000D03*
X91440000Y-36830000D03*
X91440000Y-34290000D03*
X93980000Y-36830000D03*
X93980000Y-34290000D03*
X96520000Y-36830000D03*
X96520000Y-34290000D03*
X99060000Y-36830000D03*
X99060000Y-34290000D03*
X101600000Y-36830000D03*
X101600000Y-34290000D03*
X104140000Y-36830000D03*
X104140000Y-34290000D03*
X106680000Y-36830000D03*
X106680000Y-34290000D03*
D27*
X120650000Y-181610000D03*
D13*
X54864000Y-151638000D03*
X56388000Y-151638000D03*
X53208000Y-136920000D03*
X54732000Y-136920000D03*
X57338000Y-117580000D03*
X58862000Y-117580000D03*
X58166000Y-102362000D03*
X59690000Y-102362000D03*
X54864000Y-149352000D03*
X56388000Y-149352000D03*
X53208000Y-138480000D03*
X54732000Y-138480000D03*
X57328000Y-115570000D03*
X58852000Y-115570000D03*
X58166000Y-104648000D03*
X59690000Y-104648000D03*
D28*
X88610000Y-137450000D03*
D29*
X83060000Y-137900000D03*
X83060000Y-137000000D03*
D30*
X76911200Y-148844000D03*
X76911200Y-152908000D03*
X79298800Y-152908000D03*
X79298800Y-148844000D03*
D27*
X31750000Y-181610000D03*
X120650000Y-31750000D03*
X31750000Y-31750000D03*
D13*
X85407500Y-184746900D03*
X86931500Y-184746900D03*
D31*
X63500000Y-168758000D03*
D32*
X65750000Y-162458000D03*
X64250000Y-162458000D03*
X62750000Y-162458000D03*
X61250000Y-162458000D03*
D33*
X115760500Y-141224000D03*
X115760500Y-139700000D03*
D13*
X74732000Y-113830000D03*
X73208000Y-113830000D03*
X89027000Y-145669000D03*
X90551000Y-145669000D03*
X91744800Y-133477000D03*
X90220800Y-133477000D03*
D33*
X117919500Y-141224000D03*
X117919500Y-139700000D03*
D13*
X74752000Y-115400000D03*
X73228000Y-115400000D03*
D33*
X57150000Y-157480000D03*
X57150000Y-159004000D03*
X54864000Y-157480000D03*
X54864000Y-159004000D03*
X52324000Y-157480000D03*
X52324000Y-159004000D03*
X50038000Y-157480000D03*
X50038000Y-159004000D03*
D34*
X43240000Y-166200000D03*
X43240000Y-164000000D03*
D35*
X40640000Y-165100000D03*
D34*
X43240000Y-148420000D03*
X43240000Y-146220000D03*
D35*
X40640000Y-147320000D03*
D34*
X43240000Y-130640000D03*
X43240000Y-128440000D03*
D35*
X40640000Y-129540000D03*
D34*
X43240000Y-112860000D03*
X43240000Y-110660000D03*
D35*
X40640000Y-111760000D03*
D34*
X43240000Y-95080000D03*
X43240000Y-92880000D03*
D35*
X40640000Y-93980000D03*
D34*
X43240000Y-77554000D03*
X43240000Y-75354000D03*
D35*
X40640000Y-76454000D03*
D34*
X43240000Y-59520000D03*
X43240000Y-57320000D03*
D35*
X40640000Y-58420000D03*
D34*
X43240000Y-41740000D03*
X43240000Y-39540000D03*
D35*
X40640000Y-40640000D03*
D34*
X43240000Y-176360000D03*
X43240000Y-174160000D03*
D35*
X40640000Y-175260000D03*
D34*
X43240000Y-158580000D03*
X43240000Y-156380000D03*
D35*
X40640000Y-157480000D03*
D34*
X43240000Y-140800000D03*
X43240000Y-138600000D03*
D35*
X40640000Y-139700000D03*
D34*
X43240000Y-123020000D03*
X43240000Y-120820000D03*
D35*
X40640000Y-121920000D03*
D34*
X43240000Y-105240000D03*
X43240000Y-103040000D03*
D35*
X40640000Y-104140000D03*
D34*
X43240000Y-87460000D03*
X43240000Y-85260000D03*
D35*
X40640000Y-86360000D03*
D34*
X43240000Y-69680000D03*
X43240000Y-67480000D03*
D35*
X40640000Y-68580000D03*
D34*
X43240000Y-51900000D03*
X43240000Y-49700000D03*
D35*
X40640000Y-50800000D03*
D36*
X51054000Y-165272000D03*
X51054000Y-161372000D03*
X52324000Y-165272000D03*
X52324000Y-161372000D03*
X53594000Y-165272000D03*
X53594000Y-161372000D03*
X54864000Y-165272000D03*
X54864000Y-161372000D03*
X56134000Y-165272000D03*
X56134000Y-161372000D03*
D37*
X52098000Y-175895000D03*
D38*
X55598000Y-175895000D03*
D39*
X81010000Y-186510000D03*
X79010000Y-186510000D03*
D40*
X76510000Y-186510000D03*
D41*
X79360000Y-183835000D03*
X78710000Y-183835000D03*
X80010000Y-183835000D03*
X80660000Y-183835000D03*
X81310000Y-183835000D03*
D42*
X82510000Y-183835000D03*
X77510000Y-183835000D03*
D40*
X83510000Y-186510000D03*
D43*
X88265000Y-141668500D03*
X90170000Y-141668500D03*
X87655400Y-146608800D03*
X85750400Y-146608800D03*
D44*
X78650000Y-116032500D03*
X78650000Y-114127500D03*
D45*
X65916000Y-172020000D03*
X61344000Y-172020000D03*
D46*
X115790000Y-138360000D03*
X117890000Y-138360000D03*
X116840000Y-135960000D03*
D47*
X29794200Y-166471600D03*
D48*
X37185600Y-173888400D03*
D47*
X27787600Y-173888400D03*
D49*
X35915600Y-170180000D03*
X28905200Y-170180000D03*
D47*
X29794200Y-148691600D03*
D48*
X37185600Y-156108400D03*
D47*
X27787600Y-156108400D03*
D49*
X35915600Y-152400000D03*
X28905200Y-152400000D03*
D47*
X29794200Y-130911600D03*
D48*
X37185600Y-138328400D03*
D47*
X27787600Y-138328400D03*
D49*
X35915600Y-134620000D03*
X28905200Y-134620000D03*
D47*
X29794200Y-113131600D03*
D48*
X37185600Y-120548400D03*
D47*
X27787600Y-120548400D03*
D49*
X35915600Y-116840000D03*
X28905200Y-116840000D03*
D47*
X29794200Y-95351600D03*
D48*
X37185600Y-102768400D03*
D47*
X27787600Y-102768400D03*
D49*
X35915600Y-99060000D03*
X28905200Y-99060000D03*
D47*
X29794200Y-77571600D03*
D48*
X37185600Y-84988400D03*
D47*
X27787600Y-84988400D03*
D49*
X35915600Y-81280000D03*
X28905200Y-81280000D03*
D47*
X29794200Y-59791600D03*
D48*
X37185600Y-67208400D03*
D47*
X27787600Y-67208400D03*
D49*
X35915600Y-63500000D03*
X28905200Y-63500000D03*
D47*
X29794200Y-42011600D03*
D48*
X37185600Y-49428400D03*
D47*
X27787600Y-49428400D03*
D49*
X35915600Y-45720000D03*
X28905200Y-45720000D03*
D50*
X88265000Y-143764000D03*
X91059000Y-143764000D03*
D51*
X85391800Y-139480000D03*
X83888200Y-139480000D03*
X86401800Y-131190000D03*
X84898200Y-131190000D03*
D52*
X62670000Y-121091800D03*
X62670000Y-119588200D03*
D51*
X52501800Y-131723000D03*
X50998200Y-131723000D03*
D53*
X112776000Y-91313000D03*
X112776000Y-88519000D03*
D50*
X113157000Y-35560000D03*
X110363000Y-35560000D03*
D53*
X112776000Y-67183000D03*
X112776000Y-64389000D03*
X112776000Y-115443000D03*
X112776000Y-112649000D03*
X112776000Y-43053000D03*
X112776000Y-40259000D03*
D52*
X104648000Y-108204000D03*
X104648000Y-109707600D03*
D50*
X87655400Y-149225000D03*
X90449400Y-149225000D03*
D51*
X89905800Y-139446000D03*
X88402200Y-139446000D03*
X89905800Y-135890000D03*
X88402200Y-135890000D03*
D52*
X66030000Y-149051800D03*
X66030000Y-147548200D03*
D51*
X84465200Y-135128000D03*
X85968800Y-135128000D03*
X89037200Y-147193000D03*
X90540800Y-147193000D03*
X90611800Y-128650000D03*
X89108200Y-128650000D03*
X79364800Y-154686000D03*
X77861200Y-154686000D03*
X78551800Y-117570000D03*
X77048200Y-117570000D03*
D52*
X75438000Y-151521200D03*
X75438000Y-153024800D03*
X76760000Y-113808200D03*
X76760000Y-115311800D03*
D51*
X73208200Y-116920000D03*
X74711800Y-116920000D03*
D52*
X67490000Y-147548200D03*
X67490000Y-149051800D03*
D53*
X61214000Y-159893000D03*
X61214000Y-157099000D03*
D52*
X61200000Y-119578200D03*
X61200000Y-121081800D03*
D54*
X70059200Y-171870000D03*
X75560800Y-171870000D03*
X70147200Y-164846000D03*
X75648800Y-164846000D03*
D53*
X65532000Y-159893000D03*
X65532000Y-157099000D03*
D52*
X74930000Y-183398200D03*
X74930000Y-184901800D03*
D51*
X52501800Y-133628000D03*
X50998200Y-133628000D03*
D50*
X91821000Y-130556000D03*
X89027000Y-130556000D03*
X87617300Y-133147000D03*
X84823300Y-133147000D03*
D55*
X72644000Y-185674000D03*
X59436000Y-185674000D03*
D56*
X66040000Y-176524000D03*
X70739000Y-176524000D03*
X61341000Y-176524000D03*
D53*
X59944000Y-111379000D03*
X59944000Y-108585000D03*
X56240000Y-145457000D03*
X56240000Y-142663000D03*
D13*
X52132000Y-102310000D03*
X50608000Y-102310000D03*
X51562000Y-117602000D03*
X50038000Y-117602000D03*
X49142000Y-136370000D03*
X47618000Y-136370000D03*
D33*
X51940000Y-151348000D03*
X51940000Y-152872000D03*
D13*
X52122000Y-104650000D03*
X50598000Y-104650000D03*
X51562000Y-115316000D03*
X50038000Y-115316000D03*
X49182000Y-138640000D03*
X47658000Y-138640000D03*
D33*
X49980000Y-151368000D03*
X49980000Y-152892000D03*
D13*
X44450000Y-46736000D03*
X45974000Y-46736000D03*
X44718000Y-44700000D03*
X46242000Y-44700000D03*
X44728000Y-51900000D03*
X46252000Y-51900000D03*
X44704000Y-41656000D03*
X46228000Y-41656000D03*
X44448000Y-64530000D03*
X45972000Y-64530000D03*
X44438000Y-62440000D03*
X45962000Y-62440000D03*
X44704000Y-69596000D03*
X46228000Y-69596000D03*
X44704000Y-59436000D03*
X46228000Y-59436000D03*
X44450000Y-82296000D03*
X45974000Y-82296000D03*
X44450000Y-80264000D03*
X45974000Y-80264000D03*
X44704000Y-87376000D03*
X46228000Y-87376000D03*
X44704000Y-77470000D03*
X46228000Y-77470000D03*
X44450000Y-100076000D03*
X45974000Y-100076000D03*
X44450000Y-98044000D03*
X45974000Y-98044000D03*
X44704000Y-105156000D03*
X46228000Y-105156000D03*
X44704000Y-94996000D03*
X46228000Y-94996000D03*
X44450000Y-117856000D03*
X45974000Y-117856000D03*
X44450000Y-115824000D03*
X45974000Y-115824000D03*
X44704000Y-122936000D03*
X46228000Y-122936000D03*
X44704000Y-112776000D03*
X46228000Y-112776000D03*
X44450000Y-135636000D03*
X45974000Y-135636000D03*
X44450000Y-133604000D03*
X45974000Y-133604000D03*
X44704000Y-140716000D03*
X46228000Y-140716000D03*
X44704000Y-130556000D03*
X46228000Y-130556000D03*
X44704000Y-153416000D03*
X46228000Y-153416000D03*
X44704000Y-151384000D03*
X46228000Y-151384000D03*
X44704000Y-158496000D03*
X46228000Y-158496000D03*
X44704000Y-148336000D03*
X46228000Y-148336000D03*
X44450000Y-171196000D03*
X45974000Y-171196000D03*
X44450000Y-169164000D03*
X45974000Y-169164000D03*
X44704000Y-176276000D03*
X46228000Y-176276000D03*
X44704000Y-166116000D03*
X46228000Y-166116000D03*
D57*
X57789000Y-107032000D03*
X57139000Y-107032000D03*
X56489000Y-107032000D03*
X55839000Y-107032000D03*
X55189000Y-107032000D03*
X54539000Y-107032000D03*
X53889000Y-107032000D03*
X53239000Y-107032000D03*
X52589000Y-107032000D03*
X51939000Y-107032000D03*
X51939000Y-112932000D03*
X52589000Y-112932000D03*
X53239000Y-112932000D03*
X53889000Y-112932000D03*
X54539000Y-112932000D03*
X55189000Y-112932000D03*
X55839000Y-112932000D03*
X56489000Y-112932000D03*
X57139000Y-112932000D03*
X57789000Y-112932000D03*
X54487000Y-141068000D03*
X53837000Y-141068000D03*
X53187000Y-141068000D03*
X52537000Y-141068000D03*
X51887000Y-141068000D03*
X51237000Y-141068000D03*
X50587000Y-141068000D03*
X49937000Y-141068000D03*
X49287000Y-141068000D03*
X48637000Y-141068000D03*
X48637000Y-146968000D03*
X49287000Y-146968000D03*
X49937000Y-146968000D03*
X50587000Y-146968000D03*
X51237000Y-146968000D03*
X51887000Y-146968000D03*
X52537000Y-146968000D03*
X53187000Y-146968000D03*
X53837000Y-146968000D03*
X54487000Y-146968000D03*
D58*
X43110000Y-46770000D03*
X43110000Y-44670000D03*
X40710000Y-45720000D03*
X43110000Y-64550000D03*
X43110000Y-62450000D03*
X40710000Y-63500000D03*
X43110000Y-82330000D03*
X43110000Y-80230000D03*
X40710000Y-81280000D03*
X43110000Y-100110000D03*
X43110000Y-98010000D03*
X40710000Y-99060000D03*
X43110000Y-117890000D03*
X43110000Y-115790000D03*
X40710000Y-116840000D03*
X43110000Y-135670000D03*
X43110000Y-133570000D03*
X40710000Y-134620000D03*
X43110000Y-153450000D03*
X43110000Y-151350000D03*
X40710000Y-152400000D03*
X43110000Y-171230000D03*
X43110000Y-169130000D03*
X40710000Y-170180000D03*
D54*
X118153200Y-173736000D03*
X123654800Y-173736000D03*
D50*
X114427000Y-161544000D03*
X117221000Y-161544000D03*
D23*
X99060000Y-147828000D03*
D24*
X101600000Y-147828000D03*
X104140000Y-147828000D03*
X106680000Y-147828000D03*
X109220000Y-147828000D03*
X111760000Y-147828000D03*
D13*
X114098000Y-159480000D03*
X115622000Y-159480000D03*
X90998000Y-171060000D03*
X92522000Y-171060000D03*
D33*
X92780000Y-165718000D03*
X92780000Y-167242000D03*
X113690000Y-175018000D03*
X113690000Y-176542000D03*
X113690000Y-179132000D03*
X113690000Y-177608000D03*
D59*
X72340000Y-107100000D03*
X72340000Y-111600000D03*
X78840000Y-111600000D03*
X78840000Y-107100000D03*
D54*
X118153200Y-166624000D03*
X123654800Y-166624000D03*
D52*
X59055000Y-160263800D03*
X59055000Y-158760200D03*
X63373000Y-160263800D03*
X63373000Y-158760200D03*
D51*
X115559800Y-164084000D03*
X114056200Y-164084000D03*
D33*
X106640000Y-149788000D03*
X106640000Y-151312000D03*
D12*
X83142000Y-111470000D03*
X83142000Y-106970000D03*
X91102000Y-106970000D03*
X91102000Y-111470000D03*
D13*
X86208000Y-155900000D03*
X87732000Y-155900000D03*
D33*
X96560000Y-157362000D03*
X96560000Y-155838000D03*
X98650000Y-155838000D03*
X98650000Y-157362000D03*
X100720000Y-157362000D03*
X100720000Y-155838000D03*
X105156000Y-157362000D03*
X105156000Y-155838000D03*
X102870000Y-155838000D03*
X102870000Y-157362000D03*
X107442000Y-157362000D03*
X107442000Y-155838000D03*
X109728000Y-157362000D03*
X109728000Y-155838000D03*
X112014000Y-155838000D03*
X112014000Y-157362000D03*
D60*
X75750000Y-142720000D03*
X49560000Y-91590000D03*
X50190000Y-92130000D03*
X74510000Y-142680000D03*
X50800000Y-91530000D03*
X73880000Y-142160000D03*
X51480000Y-92060000D03*
X73270000Y-142670000D03*
X52140000Y-91520000D03*
X72650000Y-142200000D03*
X52780000Y-92050000D03*
X72040000Y-142790000D03*
X53420000Y-91460000D03*
X71420000Y-142330000D03*
X54060000Y-91970000D03*
X70810000Y-142910000D03*
X70190000Y-142410000D03*
X54700000Y-91280000D03*
X55330000Y-91860000D03*
X68150000Y-142970000D03*
X56010000Y-91300000D03*
X67520000Y-142480000D03*
X66890000Y-142960000D03*
X56650000Y-91790000D03*
X57270000Y-91260000D03*
X66260000Y-142490000D03*
X55810000Y-140860000D03*
X52350000Y-98130000D03*
X53020000Y-97680000D03*
X56330000Y-140230000D03*
X53650000Y-98140000D03*
X55810000Y-139570000D03*
X54350000Y-97760000D03*
X56460000Y-138930000D03*
X55070000Y-98120000D03*
X55850000Y-138310000D03*
X55720000Y-97690000D03*
X56500000Y-137700000D03*
X56350000Y-98140000D03*
X55890000Y-137060000D03*
X57020000Y-97660000D03*
X56520000Y-136430000D03*
X57650000Y-98140000D03*
X56010000Y-135780000D03*
X58290000Y-97640000D03*
X56880000Y-130070000D03*
X57510000Y-129560000D03*
X58930000Y-98130000D03*
X59630000Y-97650000D03*
X57640000Y-127540000D03*
X60240000Y-98120000D03*
X58140000Y-126430000D03*
X72470000Y-125230000D03*
X72660000Y-118140000D03*
X61400000Y-100840000D03*
X60940000Y-130260000D03*
X60400000Y-100890000D03*
X60910000Y-131030000D03*
X57390000Y-132630000D03*
X57350000Y-130800000D03*
X56650000Y-131230000D03*
X58160000Y-132680000D03*
X60900000Y-141310000D03*
X49630000Y-142490000D03*
X60890000Y-142140000D03*
X50980000Y-142920000D03*
X51940000Y-150240000D03*
X58000000Y-142140000D03*
X49990000Y-150420000D03*
X58020000Y-142980000D03*
X76480000Y-147290000D03*
X74230000Y-147290000D03*
X75900000Y-117100000D03*
X74680000Y-121680000D03*
X94080000Y-114370000D03*
X79210000Y-138010000D03*
X94720000Y-127520000D03*
X57350000Y-161380000D03*
X80730000Y-170870000D03*
X84480400Y-184746900D03*
X60590000Y-149450000D03*
X78060000Y-182500000D03*
X72200000Y-176530000D03*
X78828900Y-157784800D03*
X82384900Y-142265400D03*
D61*
X74930000Y-181810000D03*
D60*
X82000000Y-133630000D03*
X82300000Y-139750000D03*
D61*
X82360000Y-145470000D03*
D60*
X65670000Y-146560000D03*
X62920000Y-122160000D03*
X60890000Y-133320000D03*
X65620000Y-143540000D03*
X82910000Y-131530000D03*
X86180000Y-149220000D03*
X77600000Y-147250000D03*
X82042000Y-106934000D03*
X92202000Y-106934000D03*
X104648000Y-110744000D03*
X57810000Y-145470000D03*
X68640000Y-147870000D03*
X60830000Y-134430000D03*
X79470000Y-130870000D03*
X85407500Y-156654500D03*
X85407500Y-155130500D03*
X67868800Y-159359600D03*
X67614800Y-160528000D03*
X70104000Y-163449000D03*
X67056000Y-159893000D03*
X85400000Y-155900000D03*
X50190000Y-165270000D03*
X57140000Y-156680000D03*
X54860000Y-156670000D03*
X52320000Y-156690000D03*
X50030000Y-156670000D03*
X89030000Y-131810000D03*
X112780000Y-111360000D03*
X76760000Y-112880000D03*
X78650000Y-113200000D03*
X112780000Y-87220000D03*
X112770000Y-63100000D03*
X112780000Y-38970000D03*
X109080000Y-35550000D03*
X75220000Y-126550000D03*
X92570000Y-133490000D03*
X91220000Y-141660000D03*
X79450000Y-135880000D03*
X79340000Y-133490000D03*
X61730000Y-122160000D03*
D62*
X59940000Y-112910000D03*
D60*
X61210000Y-164100000D03*
X72240000Y-113820000D03*
X100838000Y-111506000D03*
X95250000Y-111506000D03*
X77700000Y-143690000D03*
X69190000Y-147270000D03*
X79000000Y-138770000D03*
X79300000Y-132720000D03*
X79430000Y-134870000D03*
X64681100Y-167576500D03*
X78016100Y-162077400D03*
X62191900Y-167614600D03*
X63500000Y-167640000D03*
X59060000Y-157700000D03*
X93380000Y-164590000D03*
X27800000Y-87070000D03*
X125970000Y-173730000D03*
X125984000Y-166624000D03*
X116620000Y-164100000D03*
X118650000Y-161540000D03*
X47880000Y-140200000D03*
X46590000Y-138570000D03*
X46590000Y-136690000D03*
X57200000Y-149360000D03*
X91740000Y-149210000D03*
X91470000Y-147190000D03*
X91350000Y-145660000D03*
X87680000Y-134950000D03*
X66030000Y-149950000D03*
X67490000Y-149990000D03*
X86340000Y-139480000D03*
X62360000Y-125130000D03*
X79460000Y-125020000D03*
X105060000Y-149730000D03*
X87380000Y-131190000D03*
X76770000Y-154900000D03*
X76270000Y-154290000D03*
X75440000Y-154180000D03*
X78980000Y-147450000D03*
X51130000Y-107030000D03*
X49090000Y-117610000D03*
X49090000Y-115350000D03*
X59120000Y-114030000D03*
X61920000Y-118260000D03*
X43210000Y-109270000D03*
X43250000Y-101730000D03*
X49670000Y-102310000D03*
X49640000Y-104600000D03*
X59300000Y-106980000D03*
X60660000Y-104620000D03*
X60720000Y-102340000D03*
X114690000Y-35560000D03*
X111130000Y-43050000D03*
X111170000Y-67190000D03*
X111150000Y-91290000D03*
X112780000Y-116960000D03*
X90560000Y-137450000D03*
X91059000Y-135890000D03*
X116850000Y-134870000D03*
X72280000Y-115380000D03*
X76770000Y-116400000D03*
X49400000Y-132880000D03*
X93360000Y-130560000D03*
X91710000Y-128640000D03*
X89120000Y-133140000D03*
X91059000Y-139446000D03*
X92570000Y-143740000D03*
X74940000Y-186100000D03*
X77597000Y-180035200D03*
X81788000Y-180035200D03*
X77940000Y-171880000D03*
X65550000Y-155630000D03*
X63380000Y-157670000D03*
X61230000Y-155660000D03*
X56130000Y-167190000D03*
X52960000Y-167340000D03*
X27810000Y-175980000D03*
X39350000Y-170180000D03*
X43240000Y-162740000D03*
X27790000Y-158150000D03*
X27780000Y-140450000D03*
X39360000Y-116880000D03*
X43240000Y-91580000D03*
X39400000Y-81240000D03*
X43260000Y-84020000D03*
X43250000Y-74070000D03*
X27770000Y-69490000D03*
X43240000Y-66260000D03*
X39390000Y-63520000D03*
X43240000Y-56080000D03*
X43260000Y-48460000D03*
X43260000Y-38300000D03*
X39330000Y-45700000D03*
X27790000Y-51630000D03*
X43240000Y-119570000D03*
X27860000Y-122680000D03*
X43240000Y-127210000D03*
X39360000Y-134620000D03*
X43240000Y-137380000D03*
X43250000Y-144970000D03*
X39390000Y-152410000D03*
X43240000Y-155150000D03*
X50980000Y-153960000D03*
X57330000Y-151560000D03*
X59620000Y-115560000D03*
X50950000Y-135990000D03*
X53840000Y-145570000D03*
X54490000Y-142660000D03*
X43220000Y-172920000D03*
X27770000Y-104970000D03*
X39330000Y-99010000D03*
X87871300Y-184746900D03*
X79470000Y-123970000D03*
X79480000Y-116890000D03*
X79470000Y-141730000D03*
X87930000Y-145280000D03*
X86670000Y-143770000D03*
X82130000Y-141490000D03*
X61350000Y-174570000D03*
X64520000Y-176530000D03*
X59820000Y-176520000D03*
X57020000Y-175260000D03*
X64920000Y-152660000D03*
X65820000Y-152660000D03*
X66700000Y-152650000D03*
X67630000Y-152700000D03*
X71860000Y-125710000D03*
X72040000Y-116620000D03*
X81870000Y-123560000D03*
X80180000Y-113960000D03*
X82520000Y-124120000D03*
X81030000Y-113930000D03*
X82100000Y-114000000D03*
X83210000Y-123560000D03*
X83270000Y-132350000D03*
X83780000Y-130920000D03*
X82140000Y-132400000D03*
X83830000Y-163700000D03*
X82920000Y-134480000D03*
X47170000Y-51980000D03*
X47270000Y-111010000D03*
X48200000Y-111300000D03*
X47590000Y-44680000D03*
X49070000Y-107820000D03*
X48970000Y-111750000D03*
X49700000Y-112320000D03*
X49700000Y-107383400D03*
X47690000Y-106930000D03*
X50330000Y-105980000D03*
X46900000Y-109720000D03*
X46900000Y-108290000D03*
X53000000Y-145610000D03*
X47410000Y-131910000D03*
X48080000Y-131480000D03*
X51890000Y-144500000D03*
X50590000Y-145780000D03*
X47820000Y-141390000D03*
X48760000Y-145480000D03*
X46860000Y-133710000D03*
X45830000Y-144830000D03*
X45780000Y-142300000D03*
X48030000Y-145000000D03*
X46480000Y-145940000D03*
X112110000Y-161570000D03*
X114970000Y-176500000D03*
X88646000Y-156654500D03*
X88582500Y-155130500D03*
D61*
X116713000Y-171831000D03*
X119126000Y-171704000D03*
X118999000Y-168402000D03*
X116210000Y-168430000D03*
D60*
X107830000Y-151310000D03*
X100740000Y-152070000D03*
X88640000Y-155900000D03*
X91230000Y-172280000D03*
X83820000Y-124740000D03*
X85590000Y-111940000D03*
X85780754Y-111165618D03*
X86380000Y-118550000D03*
X80080000Y-114730000D03*
X74840000Y-127230000D03*
X85110000Y-119290000D03*
X83670000Y-105770000D03*
X80120000Y-115780000D03*
X75480000Y-127870000D03*
X82800000Y-105820000D03*
X84490000Y-121530000D03*
X92980000Y-117680000D03*
X85230000Y-125300000D03*
X92060000Y-118490000D03*
X92660000Y-116310000D03*
X91290000Y-119240000D03*
X93230000Y-115700000D03*
X92480000Y-115070000D03*
X89030000Y-121590000D03*
X84430000Y-125200000D03*
X87700000Y-116350000D03*
X83820000Y-117010000D03*
X82570000Y-126300000D03*
X78530000Y-127730000D03*
X80710000Y-117020000D03*
X80070000Y-117460000D03*
X76600000Y-127880000D03*
X77570000Y-127770000D03*
X80740000Y-117830000D03*
X86203044Y-110531033D03*
X85500000Y-122420000D03*
X61400000Y-99580000D03*
X63400000Y-141910000D03*
X48930000Y-92090000D03*
X75130000Y-142190000D03*
X73964821Y-130314543D03*
X87350000Y-128530000D03*
X73507610Y-131170000D03*
X85160000Y-127790000D03*
X73507610Y-128350000D03*
X85660000Y-127150000D03*
X74254169Y-129609610D03*
X84500000Y-128400000D03*
X92660000Y-169960000D03*
X98640000Y-154770000D03*
X113520000Y-167110000D03*
X100680000Y-154820000D03*
X104000000Y-158220000D03*
X93570000Y-179060000D03*
X105240000Y-152720000D03*
X112010000Y-154730000D03*
X114840000Y-169070000D03*
X96560000Y-154850000D03*
X115090000Y-179160000D03*
X92250000Y-168210000D03*
X102870000Y-154840000D03*
X114190000Y-171080000D03*
X109720000Y-154770000D03*
X91010000Y-175080000D03*
X90820000Y-160050000D03*
X91640000Y-169080000D03*
X116640000Y-159570000D03*
X61800000Y-96750000D03*
X93820000Y-150650000D03*
X95690000Y-150650000D03*
X60960000Y-136906000D03*
X61214000Y-135128000D03*
X73152000Y-132842000D03*
X82042000Y-112522000D03*
X83312000Y-109728000D03*
X90678000Y-110236000D03*
D63*
X76847700Y-144427700D02*
X75750000Y-143330000D01*
X75750000Y-143330000D02*
X75750000Y-142720000D01*
X76847700Y-145320000D02*
X76847700Y-144427700D01*
X48260000Y-37037202D02*
X49560000Y-38337202D01*
X49560000Y-38337202D02*
X49560000Y-91590000D01*
X48260000Y-36830000D02*
X48260000Y-37037202D01*
X50190000Y-92130000D02*
X50190000Y-38200000D01*
X49580000Y-36372000D02*
X49580000Y-37590000D01*
X49580000Y-37590000D02*
X50190000Y-38200000D01*
X48260000Y-35052000D02*
X49580000Y-36372000D01*
X73850500Y-144279500D02*
X73850500Y-145320000D01*
X74510000Y-143620000D02*
X74510000Y-142680000D01*
X73850500Y-144279500D02*
X74510000Y-143620000D01*
X48260000Y-34290000D02*
X48260000Y-35052000D01*
X50800000Y-36830000D02*
X50800000Y-91530000D01*
X73355200Y-145320000D02*
X73355200Y-144128218D01*
X73355200Y-144128218D02*
X73880000Y-143603418D01*
X73880000Y-143603418D02*
X73880000Y-142160000D01*
X51480000Y-92060000D02*
X51480000Y-38620000D01*
X50800000Y-35052000D02*
X52070000Y-36322000D01*
X52070000Y-38030000D02*
X51480000Y-38620000D01*
X52070000Y-36322000D02*
X52070000Y-38030000D01*
X72859900Y-145320000D02*
X72859900Y-143960100D01*
X73270000Y-143550000D02*
X73270000Y-142670000D01*
X72859900Y-143960100D02*
X73270000Y-143550000D01*
X50800000Y-34290000D02*
X50800000Y-35052000D01*
X52140000Y-91520000D02*
X52140000Y-38810000D01*
X53340000Y-36830000D02*
X53340000Y-37610000D01*
X53340000Y-37610000D02*
X52140000Y-38810000D01*
X72351900Y-145320000D02*
X72351900Y-143810898D01*
X72650000Y-143512798D02*
X72650000Y-142200000D01*
X72351900Y-143810898D02*
X72650000Y-143512798D01*
X54610000Y-36322000D02*
X54610000Y-37360000D01*
X53340000Y-35052000D02*
X54610000Y-36322000D01*
X52780000Y-39190000D02*
X52780000Y-92050000D01*
X54610000Y-37360000D02*
X52780000Y-39190000D01*
X71856600Y-145320000D02*
X71856600Y-143653400D01*
X72040000Y-143470000D02*
X72040000Y-142790000D01*
X71856600Y-143653400D02*
X72040000Y-143470000D01*
X53340000Y-34290000D02*
X53340000Y-35052000D01*
X53420000Y-91460000D02*
X53420000Y-39430000D01*
X55880000Y-36970000D02*
X53420000Y-39430000D01*
X71361300Y-145320000D02*
X71361300Y-143502118D01*
X71420000Y-143443418D02*
X71420000Y-142330000D01*
X71361300Y-143502118D02*
X71420000Y-143443418D01*
X55880000Y-36830000D02*
X55880000Y-36970000D01*
X54060000Y-91970000D02*
X54060000Y-40400000D01*
X57150000Y-37310000D02*
X54060000Y-40400000D01*
X55880000Y-35052000D02*
X57150000Y-36322000D01*
X57150000Y-36322000D02*
X57150000Y-37310000D01*
X70853300Y-145320000D02*
X70853300Y-142953300D01*
X70853300Y-142953300D02*
X70810000Y-142910000D01*
X55880000Y-34290000D02*
X55880000Y-35052000D01*
X70190000Y-142410000D02*
X70190000Y-143180000D01*
X58420000Y-37240000D02*
X54700000Y-40960000D01*
X54700000Y-40960000D02*
X54700000Y-91280000D01*
X70358000Y-143348000D02*
X70358000Y-145320000D01*
X70190000Y-143180000D02*
X70358000Y-143348000D01*
X58420000Y-36830000D02*
X58420000Y-37240000D01*
X58420000Y-36830000D02*
X58420000Y-36857202D01*
X55330000Y-91860000D02*
X55330000Y-41627202D01*
X59690000Y-37267202D02*
X55330000Y-41627202D01*
X58420000Y-34798000D02*
X59690000Y-36068000D01*
X59690000Y-36068000D02*
X59690000Y-37267202D01*
X68846700Y-143946700D02*
X68846700Y-145320000D01*
X68150000Y-143250000D02*
X68150000Y-142970000D01*
X68846700Y-143946700D02*
X68150000Y-143250000D01*
X58420000Y-34290000D02*
X58420000Y-34798000D01*
X60290000Y-37630000D02*
X56010000Y-41910000D01*
X56010000Y-41910000D02*
X56010000Y-91300000D01*
X67520000Y-143280000D02*
X67520000Y-142480000D01*
X68351400Y-144111400D02*
X67520000Y-143280000D01*
X68351400Y-145320000D02*
X68351400Y-144111400D01*
X60960000Y-36830000D02*
X60960000Y-36950000D01*
X60960000Y-36950000D02*
X60290000Y-37620000D01*
X60290000Y-37620000D02*
X60290000Y-37630000D01*
X60960000Y-36960000D02*
X60290000Y-37630000D01*
X67856100Y-145320000D02*
X67856100Y-144279518D01*
X67856100Y-144279518D02*
X66890000Y-143313418D01*
X66890000Y-143313418D02*
X66890000Y-142960000D01*
X56650000Y-42960000D02*
X56650000Y-91790000D01*
X62230000Y-36322000D02*
X60960000Y-35052000D01*
X62230000Y-36322000D02*
X62230000Y-37380000D01*
X62230000Y-37380000D02*
X56650000Y-42960000D01*
X60960000Y-34290000D02*
X60960000Y-35052000D01*
X57270000Y-91260000D02*
X57270000Y-43040000D01*
X63480000Y-36830000D02*
X57270000Y-43040000D01*
X66260000Y-143330000D02*
X66260000Y-142490000D01*
X67348100Y-144418100D02*
X66260000Y-143330000D01*
X67348100Y-144418100D02*
X67348100Y-145320000D01*
X63500000Y-36830000D02*
X63480000Y-36830000D01*
X55818400Y-140868400D02*
X55810000Y-140860000D01*
X55818400Y-140868400D02*
X59404000Y-140868400D01*
X52350000Y-98130000D02*
X52350000Y-97090000D01*
X52350000Y-97090000D02*
X57900000Y-91540000D01*
X57900000Y-91540000D02*
X57900000Y-44190000D01*
X64770000Y-36170000D02*
X64770000Y-37320000D01*
X64770000Y-37320000D02*
X57900000Y-44190000D01*
X63500000Y-34900000D02*
X64770000Y-36170000D01*
X63500000Y-34290000D02*
X63500000Y-34900000D01*
X63500000Y-34290000D02*
X63500000Y-34798000D01*
X53020000Y-97680000D02*
X53020000Y-97082798D01*
X58550000Y-44307202D02*
X58550000Y-91552798D01*
X66027202Y-36830000D02*
X58550000Y-44307202D01*
X53020000Y-97082798D02*
X58550000Y-91552798D01*
X56473100Y-140373100D02*
X56330000Y-140230000D01*
X59404000Y-140373100D02*
X56473100Y-140373100D01*
X66040000Y-36830000D02*
X66027202Y-36830000D01*
X53650000Y-98140000D02*
X53650000Y-97150000D01*
X66040000Y-35030000D02*
X67320000Y-36310000D01*
X67320000Y-37400000D02*
X59180000Y-45540000D01*
X67320000Y-36310000D02*
X67320000Y-37400000D01*
X59180000Y-91620000D02*
X59180000Y-45540000D01*
X53650000Y-97150000D02*
X59180000Y-91620000D01*
X66040000Y-34290000D02*
X66040000Y-35030000D01*
X55810000Y-139570000D02*
X56554102Y-139570000D01*
X57410000Y-139870000D02*
X57410000Y-139865100D01*
X56854102Y-139870000D02*
X57410000Y-139870000D01*
X56554102Y-139570000D02*
X56854102Y-139870000D01*
X59404000Y-139865100D02*
X57410000Y-139865100D01*
X66040000Y-34290000D02*
X66040000Y-34798000D01*
X54350000Y-97760000D02*
X54350000Y-97110000D01*
X54350000Y-97110000D02*
X59820000Y-91640000D01*
X68580000Y-36880000D02*
X59820000Y-45640000D01*
X59820000Y-45640000D02*
X59820000Y-91640000D01*
X56580000Y-138930000D02*
X57019800Y-139369800D01*
X59404000Y-139369800D02*
X57019800Y-139369800D01*
X56460000Y-138930000D02*
X56580000Y-138930000D01*
X68580000Y-36830000D02*
X68580000Y-36880000D01*
X55070000Y-98120000D02*
X55070000Y-97060000D01*
X55070000Y-97060000D02*
X60460000Y-91670000D01*
X68580000Y-34830000D02*
X69850000Y-36100000D01*
X69850000Y-36100000D02*
X69850000Y-37360000D01*
X69850000Y-37360000D02*
X60460000Y-46750000D01*
X60460000Y-46750000D02*
X60460000Y-91670000D01*
X57294500Y-138874500D02*
X59404000Y-138874500D01*
X56730000Y-138310000D02*
X55850000Y-138310000D01*
X57294500Y-138874500D02*
X56730000Y-138310000D01*
X68580000Y-34290000D02*
X68580000Y-34830000D01*
X68580000Y-34290000D02*
X68580000Y-34798000D01*
X55720000Y-97690000D02*
X55720000Y-97090000D01*
X55720000Y-97090000D02*
X61080000Y-91730000D01*
X71120000Y-36860000D02*
X61080000Y-46900000D01*
X61080000Y-46900000D02*
X61080000Y-91730000D01*
X57436500Y-138366500D02*
X56770000Y-137700000D01*
X56770000Y-137700000D02*
X56500000Y-137700000D01*
X57436500Y-138366500D02*
X59404000Y-138366500D01*
X71120000Y-36830000D02*
X71120000Y-36860000D01*
X61720000Y-48030000D02*
X72390000Y-37360000D01*
X56350000Y-98140000D02*
X56350000Y-97130000D01*
X56350000Y-97130000D02*
X61720000Y-91760000D01*
X71120000Y-34940000D02*
X72390000Y-36210000D01*
X61720000Y-91760000D02*
X61720000Y-48030000D01*
X72390000Y-36210000D02*
X72390000Y-37360000D01*
X57631200Y-137871200D02*
X56820000Y-137060000D01*
X56820000Y-137060000D02*
X55890000Y-137060000D01*
X57631200Y-137871200D02*
X59404000Y-137871200D01*
X71120000Y-34290000D02*
X71120000Y-34940000D01*
X71120000Y-34290000D02*
X71120000Y-34798000D01*
X62360000Y-49010000D02*
X73660000Y-37710000D01*
X57020000Y-97660000D02*
X57020000Y-97130000D01*
X57020000Y-97130000D02*
X62360000Y-91790000D01*
X59404000Y-137375900D02*
X57815900Y-137375900D01*
X56870000Y-136430000D02*
X56520000Y-136430000D01*
X57815900Y-137375900D02*
X56870000Y-136430000D01*
X73660000Y-36830000D02*
X73660000Y-37710000D01*
X62360000Y-91790000D02*
X62360000Y-49010000D01*
X74921310Y-37328690D02*
X63020000Y-49230000D01*
X74921310Y-36271310D02*
X74921310Y-37328690D01*
X73660000Y-35010000D02*
X74921310Y-36271310D01*
X57650000Y-98140000D02*
X57650000Y-97200000D01*
X63010000Y-91840000D02*
X63010000Y-89180000D01*
X57650000Y-97200000D02*
X63010000Y-91840000D01*
X63010000Y-89180000D02*
X63020000Y-89170000D01*
X63020000Y-89170000D02*
X63020000Y-49230000D01*
X73660000Y-34290000D02*
X73660000Y-35010000D01*
X56910000Y-135780000D02*
X56010000Y-135780000D01*
X57997900Y-136867900D02*
X56910000Y-135780000D01*
X59404000Y-136867900D02*
X57997900Y-136867900D01*
X63640000Y-91930000D02*
X63640000Y-49390000D01*
X58290000Y-97280000D02*
X63640000Y-91930000D01*
X58290000Y-97640000D02*
X58290000Y-97280000D01*
X76200000Y-36830000D02*
X63640000Y-49390000D01*
X58070000Y-130180000D02*
X58379800Y-129870200D01*
X58379800Y-129870200D02*
X59404000Y-129870200D01*
X56990000Y-130180000D02*
X58070000Y-130180000D01*
X56990000Y-130180000D02*
X56880000Y-130070000D01*
X57510000Y-129560000D02*
X57960000Y-129560000D01*
X57960000Y-129560000D02*
X58145100Y-129374900D01*
X58145100Y-129374900D02*
X59404000Y-129374900D01*
X58930000Y-98130000D02*
X58930000Y-97320000D01*
X58930000Y-97320000D02*
X64280000Y-91970000D01*
X77470000Y-36290000D02*
X77470000Y-37410000D01*
X77470000Y-37410000D02*
X76715000Y-38165000D01*
X76200000Y-35020000D02*
X77470000Y-36290000D01*
X75565000Y-38165000D02*
X64280000Y-49450000D01*
X76715000Y-38165000D02*
X75565000Y-38165000D01*
X64280000Y-91970000D02*
X64280000Y-49450000D01*
X76200000Y-34290000D02*
X76200000Y-35020000D01*
X76200000Y-34290000D02*
X76200000Y-34544000D01*
X59630000Y-97650000D02*
X59630000Y-97292798D01*
X76810000Y-38840000D02*
X75660000Y-38840000D01*
X76810000Y-38840000D02*
X78740000Y-36910000D01*
X75660000Y-38840000D02*
X64910000Y-49590000D01*
X64910000Y-49590000D02*
X64910000Y-92012798D01*
X59630000Y-97292798D02*
X64910000Y-92012798D01*
X58030000Y-127540000D02*
X58404398Y-127914398D01*
X57640000Y-127540000D02*
X58030000Y-127540000D01*
X59404000Y-127914398D02*
X58404398Y-127914398D01*
X59404000Y-127914398D02*
X59404000Y-127876300D01*
X78740000Y-36830000D02*
X78740000Y-36910000D01*
X77890000Y-39480000D02*
X75810000Y-39480000D01*
X75810000Y-39480000D02*
X65550000Y-49740000D01*
X60240000Y-98120000D02*
X60240000Y-97370000D01*
X79990000Y-36150000D02*
X78740000Y-34900000D01*
X79990000Y-37380000D02*
X77890000Y-39480000D01*
X79990000Y-36150000D02*
X79990000Y-37380000D01*
X65550000Y-49740000D02*
X65550000Y-92060000D01*
X60240000Y-97370000D02*
X65550000Y-92060000D01*
X58548300Y-127368300D02*
X58140000Y-126960000D01*
X59404000Y-127368300D02*
X58548300Y-127368300D01*
X58140000Y-126960000D02*
X58140000Y-126430000D01*
X78740000Y-34290000D02*
X78740000Y-34900000D01*
X78740000Y-34290000D02*
X78740000Y-34798000D01*
X66210000Y-96390000D02*
X66210000Y-60470000D01*
X63610000Y-98990000D02*
X66210000Y-96390000D01*
X63610000Y-119020000D02*
X63610000Y-98990000D01*
X63855600Y-119265600D02*
X63610000Y-119020000D01*
X81280000Y-36830000D02*
X81280000Y-45400000D01*
X81280000Y-45400000D02*
X66210000Y-60470000D01*
X63855600Y-123920000D02*
X63855600Y-119265600D01*
X82550000Y-41402000D02*
X81788000Y-42164000D01*
X66710000Y-96583418D02*
X66710000Y-60640000D01*
X66710000Y-60640000D02*
X81788000Y-45562000D01*
X81788000Y-45562000D02*
X81788000Y-42164000D01*
X81280000Y-34798000D02*
X82550000Y-36068000D01*
X82550000Y-36068000D02*
X82550000Y-41402000D01*
X66156709Y-97136709D02*
X66156709Y-97123291D01*
X66710000Y-96583418D02*
X66156709Y-97136709D01*
X64090000Y-118830000D02*
X64090000Y-99190000D01*
X64350900Y-119090900D02*
X64090000Y-118830000D01*
X64090000Y-99190000D02*
X66156709Y-97123291D01*
X64350900Y-123920000D02*
X64350900Y-119090900D01*
X81280000Y-34290000D02*
X81280000Y-34798000D01*
X64858900Y-123920000D02*
X64858900Y-118938900D01*
X64560000Y-99380000D02*
X67180000Y-96760000D01*
X64560000Y-118640000D02*
X64560000Y-99380000D01*
X64858900Y-118938900D02*
X64560000Y-118640000D01*
X82300000Y-42363202D02*
X82300000Y-45710000D01*
X67180000Y-60830000D02*
X82300000Y-45710000D01*
X67180000Y-96760000D02*
X67180000Y-60830000D01*
X83820000Y-36830000D02*
X83820000Y-40843202D01*
X83820000Y-40843202D02*
X82300000Y-42363202D01*
X65040000Y-99550000D02*
X67660000Y-96930000D01*
X65040000Y-118460000D02*
X65040000Y-99550000D01*
X65354200Y-118774200D02*
X65040000Y-118460000D01*
X82804000Y-45876000D02*
X67660000Y-61020000D01*
X67660000Y-61020000D02*
X67660000Y-96930000D01*
X83820000Y-34798000D02*
X85090000Y-36068000D01*
X85090000Y-36068000D02*
X85090000Y-40386000D01*
X85090000Y-40386000D02*
X82804000Y-42672000D01*
X82804000Y-42672000D02*
X82804000Y-45876000D01*
X65354200Y-118774200D02*
X65354200Y-123920000D01*
X83820000Y-34290000D02*
X83820000Y-34798000D01*
X68240000Y-61280000D02*
X68240000Y-97010000D01*
X68240000Y-97010000D02*
X65530000Y-99720000D01*
X65849500Y-123920000D02*
X65849500Y-118609500D01*
X65849500Y-118609500D02*
X65530000Y-118290000D01*
X65530000Y-118290000D02*
X65530000Y-99720000D01*
X83261202Y-46258798D02*
X83261202Y-42861380D01*
X68240000Y-61280000D02*
X83261202Y-46258798D01*
X86360000Y-36830000D02*
X86360000Y-39762582D01*
X86360000Y-39762582D02*
X83261202Y-42861380D01*
X68730000Y-61567202D02*
X68730000Y-97180000D01*
X68730000Y-97180000D02*
X66000000Y-99910000D01*
X66000000Y-118090000D02*
X66000000Y-99910000D01*
X66357500Y-118447500D02*
X66000000Y-118090000D01*
X83820000Y-43129202D02*
X83820000Y-46477202D01*
X83820000Y-46477202D02*
X68730000Y-61567202D01*
X86360000Y-35052000D02*
X87630000Y-36322000D01*
X87630000Y-36322000D02*
X87630000Y-39319202D01*
X87630000Y-39319202D02*
X83820000Y-43129202D01*
X66357500Y-118447500D02*
X66357500Y-123920000D01*
X86360000Y-34290000D02*
X86360000Y-35052000D01*
X66852800Y-123920000D02*
X66852800Y-118282800D01*
X69250000Y-97330000D02*
X69250000Y-61780000D01*
X66470000Y-100110000D02*
X69250000Y-97330000D01*
X66470000Y-117900000D02*
X66470000Y-100110000D01*
X66852800Y-118282800D02*
X66470000Y-117900000D01*
X84277202Y-43383202D02*
X84328000Y-43383202D01*
X69250000Y-61780000D02*
X84277202Y-46752798D01*
X84277202Y-46752798D02*
X84277202Y-43383202D01*
X88900000Y-38811202D02*
X88900000Y-36830000D01*
X84328000Y-43383202D02*
X88900000Y-38811202D01*
X69790000Y-97450000D02*
X69790000Y-61957202D01*
X66930000Y-100310000D02*
X69790000Y-97450000D01*
X66930000Y-117700000D02*
X66930000Y-100310000D01*
X67348100Y-118118100D02*
X66930000Y-117700000D01*
X67348100Y-123920000D02*
X67348100Y-118118100D01*
X84836601Y-43636601D02*
X84836601Y-46910601D01*
X84836601Y-46910601D02*
X69790000Y-61957202D01*
X88900000Y-34290000D02*
X88900000Y-35052000D01*
X88900000Y-35052000D02*
X90170000Y-36322000D01*
X90170000Y-36322000D02*
X90170000Y-38303202D01*
X90170000Y-38303202D02*
X84836601Y-43636601D01*
X67856100Y-123920000D02*
X67856100Y-117966100D01*
X70280000Y-97620000D02*
X70280000Y-62270000D01*
X67400000Y-100500000D02*
X70280000Y-97620000D01*
X67400000Y-117510000D02*
X67400000Y-100500000D01*
X67856100Y-117966100D02*
X67400000Y-117510000D01*
X85293803Y-47256197D02*
X85293803Y-43992197D01*
X70280000Y-62270000D02*
X85293803Y-47256197D01*
X91440000Y-36830000D02*
X91440000Y-37846000D01*
X91440000Y-37846000D02*
X85293803Y-43992197D01*
X68351400Y-123920000D02*
X68351400Y-117801400D01*
X70820000Y-97740000D02*
X70820000Y-62510000D01*
X67870000Y-100690000D02*
X70820000Y-97740000D01*
X67870000Y-117320000D02*
X67870000Y-100690000D01*
X68351400Y-117801400D02*
X67870000Y-117320000D01*
X85852000Y-44145202D02*
X85852000Y-47478000D01*
X92710000Y-37287202D02*
X85852000Y-44145202D01*
X92710000Y-36068000D02*
X92710000Y-37287202D01*
X91440000Y-34798000D02*
X92710000Y-36068000D01*
X85852000Y-47478000D02*
X70820000Y-62510000D01*
X91440000Y-34290000D02*
X91440000Y-34798000D01*
X68846700Y-123920000D02*
X68846700Y-117636700D01*
X71400000Y-97822798D02*
X71400000Y-62850000D01*
X68340000Y-100882798D02*
X71400000Y-97822798D01*
X68340000Y-117130000D02*
X68340000Y-100882798D01*
X68846700Y-117636700D02*
X68340000Y-117130000D01*
X86380000Y-47870000D02*
X86380000Y-44430000D01*
X71400000Y-62850000D02*
X86380000Y-47870000D01*
X93980000Y-36830000D02*
X86380000Y-44430000D01*
X69354700Y-123920000D02*
X69354700Y-117484700D01*
X71990000Y-97890000D02*
X71990000Y-63067202D01*
X68810000Y-101070000D02*
X71990000Y-97890000D01*
X68810000Y-116940000D02*
X68810000Y-101070000D01*
X69354700Y-117484700D02*
X68810000Y-116940000D01*
X86874000Y-45714000D02*
X86874000Y-48183202D01*
X86874000Y-48183202D02*
X71990000Y-63067202D01*
X93980000Y-34290000D02*
X93980000Y-34544000D01*
X93980000Y-34544000D02*
X95250000Y-35814000D01*
X95250000Y-35814000D02*
X95250000Y-37338000D01*
X95250000Y-37338000D02*
X86874000Y-45714000D01*
X69850000Y-123920000D02*
X69850000Y-117320000D01*
X72500000Y-98040000D02*
X72500000Y-63360000D01*
X69280000Y-101260000D02*
X72500000Y-98040000D01*
X69280000Y-116750000D02*
X69280000Y-101260000D01*
X69850000Y-117320000D02*
X69280000Y-116750000D01*
X87331202Y-48528798D02*
X87331202Y-45968000D01*
X72500000Y-63360000D02*
X87331202Y-48528798D01*
X96520000Y-36830000D02*
X96469202Y-36830000D01*
X96469202Y-36830000D02*
X87331202Y-45968000D01*
X70358000Y-123920000D02*
X70358000Y-117168000D01*
X73060000Y-98140000D02*
X73060000Y-63617202D01*
X69750000Y-101450000D02*
X73060000Y-98140000D01*
X69750000Y-116560000D02*
X69750000Y-101450000D01*
X70358000Y-117168000D02*
X69750000Y-116560000D01*
X87884000Y-47193202D02*
X87884000Y-48793202D01*
X97790000Y-37287202D02*
X87884000Y-47193202D01*
X97790000Y-35814000D02*
X97790000Y-37287202D01*
X96520000Y-34544000D02*
X97790000Y-35814000D01*
X87884000Y-48793202D02*
X73060000Y-63617202D01*
X96520000Y-34290000D02*
X96520000Y-34544000D01*
X70853300Y-123920000D02*
X70853300Y-117003300D01*
X73610000Y-98252798D02*
X73610000Y-64070000D01*
X70220000Y-101642798D02*
X73610000Y-98252798D01*
X70220000Y-116370000D02*
X70220000Y-101642798D01*
X70853300Y-117003300D02*
X70220000Y-116370000D01*
X88400000Y-49280000D02*
X88400000Y-47490000D01*
X73610000Y-64070000D02*
X88400000Y-49280000D01*
X99060000Y-36830000D02*
X88400000Y-47490000D01*
X76350000Y-125260000D02*
X72500000Y-125260000D01*
X76847700Y-123920000D02*
X76847700Y-124762300D01*
X76847700Y-124762300D02*
X76350000Y-125260000D01*
X71570000Y-117050000D02*
X72660000Y-118140000D01*
X71560000Y-117050000D02*
X70690000Y-116180000D01*
X71560000Y-117050000D02*
X71570000Y-117050000D01*
X72500000Y-125260000D02*
X72470000Y-125230000D01*
X74170000Y-98352798D02*
X74170000Y-64250000D01*
X70690000Y-101832798D02*
X74170000Y-98352798D01*
X70690000Y-116180000D02*
X70690000Y-101832798D01*
X100330000Y-36068000D02*
X99060000Y-34798000D01*
X100330000Y-36068000D02*
X100330000Y-38090000D01*
X74170000Y-64250000D02*
X100330000Y-38090000D01*
X99060000Y-34290000D02*
X99060000Y-34798000D01*
X58166000Y-102362000D02*
X58166000Y-102816000D01*
X58166000Y-102816000D02*
X58810000Y-103460000D01*
X57020000Y-121470000D02*
X57020000Y-127810000D01*
X62630000Y-115860000D02*
X57020000Y-121470000D01*
X62630000Y-104610000D02*
X62630000Y-115860000D01*
X61480000Y-103460000D02*
X62630000Y-104610000D01*
X58810000Y-103460000D02*
X61480000Y-103460000D01*
X59404000Y-128371600D02*
X57581600Y-128371600D01*
X57581600Y-128371600D02*
X57020000Y-127810000D01*
X58166000Y-102362000D02*
X57618000Y-102362000D01*
X55839000Y-104141000D02*
X55839000Y-107032000D01*
X57618000Y-102362000D02*
X55839000Y-104141000D01*
X56550000Y-121240000D02*
X61200000Y-116590000D01*
X56550000Y-128020000D02*
X56550000Y-121240000D01*
X57396900Y-128866900D02*
X56550000Y-128020000D01*
X59404000Y-128866900D02*
X57396900Y-128866900D01*
X61200000Y-107627202D02*
X58220798Y-104648000D01*
X61200000Y-116590000D02*
X61200000Y-107627202D01*
X58166000Y-104648000D02*
X58220798Y-104648000D01*
X58166000Y-104648000D02*
X57642000Y-104648000D01*
X57139000Y-105151000D02*
X57139000Y-107032000D01*
X57642000Y-104648000D02*
X57139000Y-105151000D01*
X52122000Y-104650000D02*
X52122000Y-104402000D01*
X52122000Y-104402000D02*
X51370000Y-103650000D01*
X59404000Y-130365500D02*
X60834500Y-130365500D01*
X60834500Y-130365500D02*
X60940000Y-130260000D01*
X51370000Y-100040000D02*
X51370000Y-103650000D01*
X51660000Y-99750000D02*
X51370000Y-100040000D01*
X60200000Y-99750000D02*
X51660000Y-99750000D01*
X61290000Y-100840000D02*
X60200000Y-99750000D01*
X61400000Y-100840000D02*
X61290000Y-100840000D01*
D64*
X52122000Y-104650000D02*
X51920000Y-104650000D01*
D63*
X53239000Y-107032000D02*
X53239000Y-105059000D01*
X52830000Y-104650000D02*
X52122000Y-104650000D01*
X53239000Y-105059000D02*
X52830000Y-104650000D01*
X54750000Y-100860000D02*
X53300000Y-102310000D01*
X60400000Y-100890000D02*
X54750000Y-100860000D01*
X60753500Y-130873500D02*
X60910000Y-131030000D01*
X59404000Y-130873500D02*
X60753500Y-130873500D01*
X54539000Y-107032000D02*
X54539000Y-103459000D01*
X53390000Y-102310000D02*
X53300000Y-102310000D01*
X53300000Y-102310000D02*
X52132000Y-102310000D01*
X54539000Y-103459000D02*
X53390000Y-102310000D01*
D64*
X59404000Y-131368800D02*
X57331200Y-131368800D01*
X57331200Y-131368800D02*
X56925528Y-131774472D01*
X56009328Y-131388272D02*
X56009328Y-131368800D01*
X56395528Y-131774472D02*
X56009328Y-131388272D01*
X56925528Y-131774472D02*
X56395528Y-131774472D01*
X51562000Y-117602000D02*
X51562000Y-118358000D01*
X51562000Y-118358000D02*
X48690000Y-121230000D01*
X48690000Y-121230000D02*
X48690000Y-128580000D01*
X48690000Y-128580000D02*
X50520000Y-130410000D01*
X50520000Y-130410000D02*
X55070000Y-130410000D01*
X55070000Y-130410000D02*
X56028800Y-131368800D01*
X56028800Y-131368800D02*
X56009328Y-131368800D01*
D63*
X53239000Y-112932000D02*
X53239000Y-116051000D01*
X53239000Y-116051000D02*
X51688000Y-117602000D01*
X51688000Y-117602000D02*
X51562000Y-117602000D01*
D64*
X56280000Y-132090000D02*
X57198200Y-132090000D01*
X51562000Y-115708000D02*
X50800000Y-116470000D01*
X54930000Y-130740000D02*
X56280000Y-132090000D01*
X50370000Y-130740000D02*
X54930000Y-130740000D01*
X48360000Y-128730000D02*
X50370000Y-130740000D01*
X48360000Y-121050000D02*
X48360000Y-128730000D01*
X50800000Y-118610000D02*
X48360000Y-121050000D01*
X50800000Y-116470000D02*
X50800000Y-118610000D01*
X57598200Y-131690000D02*
X57198200Y-132090000D01*
X58584100Y-131864100D02*
X58410000Y-131690000D01*
X58410000Y-131690000D02*
X57598200Y-131690000D01*
X58584100Y-131864100D02*
X59404000Y-131864100D01*
X51562000Y-115316000D02*
X51562000Y-115708000D01*
D63*
X51939000Y-112932000D02*
X51939000Y-114939000D01*
X51939000Y-114939000D02*
X51562000Y-115316000D01*
D64*
X56460000Y-130680000D02*
X57230000Y-130680000D01*
X57230000Y-130680000D02*
X57350000Y-130800000D01*
X55500000Y-129720000D02*
X56460000Y-130680000D01*
X57610000Y-115570000D02*
X58060000Y-116020000D01*
X49340000Y-128310000D02*
X50750000Y-129720000D01*
X49340000Y-121530000D02*
X49340000Y-128310000D01*
X51920000Y-118950000D02*
X49340000Y-121530000D01*
X57470000Y-118950000D02*
X51920000Y-118950000D01*
X58060000Y-118360000D02*
X57470000Y-118950000D01*
X58060000Y-116020000D02*
X58060000Y-118360000D01*
X50750000Y-129720000D02*
X55500000Y-129720000D01*
X57390000Y-132630000D02*
X57390000Y-132380000D01*
X58612100Y-132372100D02*
X58250000Y-132010000D01*
X58250000Y-132010000D02*
X57760000Y-132010000D01*
X57760000Y-132010000D02*
X57390000Y-132380000D01*
X58612100Y-132372100D02*
X59404000Y-132372100D01*
X57328000Y-115570000D02*
X57610000Y-115570000D01*
D63*
X55839000Y-112932000D02*
X55839000Y-115139000D01*
X56270000Y-115570000D02*
X57328000Y-115570000D01*
X55839000Y-115139000D02*
X56270000Y-115570000D01*
D64*
X56970000Y-118630000D02*
X51790000Y-118630000D01*
X51790000Y-118630000D02*
X49010000Y-121410000D01*
X49010000Y-121410000D02*
X49010000Y-128440000D01*
X49010000Y-128440000D02*
X50630000Y-130060000D01*
X50630000Y-130060000D02*
X55200000Y-130060000D01*
X57338000Y-117580000D02*
X57338000Y-118262000D01*
X57338000Y-118262000D02*
X56970000Y-118630000D01*
X56370000Y-131230000D02*
X55200000Y-130060000D01*
X56650000Y-131230000D02*
X56370000Y-131230000D01*
X58347400Y-132867400D02*
X58160000Y-132680000D01*
X58347400Y-132867400D02*
X59404000Y-132867400D01*
D63*
X54539000Y-112932000D02*
X54539000Y-116529000D01*
X54539000Y-116529000D02*
X55590000Y-117580000D01*
X55590000Y-117580000D02*
X57338000Y-117580000D01*
D64*
X53208000Y-136920000D02*
X53208000Y-136452000D01*
X53208000Y-136452000D02*
X54786000Y-134874000D01*
X54786000Y-134874000D02*
X59404000Y-134874000D01*
D63*
X52537000Y-141068000D02*
X52537000Y-137313000D01*
X52537000Y-137313000D02*
X52930000Y-136920000D01*
X52930000Y-136920000D02*
X53208000Y-136920000D01*
D64*
X53208000Y-138480000D02*
X53710000Y-138480000D01*
X58229300Y-135369300D02*
X59404000Y-135369300D01*
X58080000Y-135220000D02*
X58229300Y-135369300D01*
X55130000Y-135220000D02*
X58080000Y-135220000D01*
X54050000Y-136300000D02*
X55130000Y-135220000D01*
X54050000Y-138140000D02*
X54050000Y-136300000D01*
X53710000Y-138480000D02*
X54050000Y-138140000D01*
D63*
X53837000Y-141068000D02*
X53837000Y-140117000D01*
X53208000Y-139488000D02*
X53208000Y-138480000D01*
X53837000Y-140117000D02*
X53208000Y-139488000D01*
D64*
X59404000Y-141363700D02*
X60846300Y-141363700D01*
X60900000Y-141310000D02*
X60846300Y-141363700D01*
D63*
X49937000Y-142183000D02*
X49630000Y-142490000D01*
X49937000Y-142183000D02*
X49937000Y-141068000D01*
X49182000Y-138640000D02*
X49600000Y-138640000D01*
X49937000Y-138977000D02*
X49937000Y-141068000D01*
X49600000Y-138640000D02*
X49937000Y-138977000D01*
D64*
X60890000Y-142140000D02*
X60621700Y-141871700D01*
X59404000Y-141871700D02*
X60621700Y-141871700D01*
D63*
X51237000Y-142663000D02*
X50980000Y-142920000D01*
X51237000Y-142663000D02*
X51237000Y-141068000D01*
X51237000Y-141068000D02*
X51237000Y-137957000D01*
X49142000Y-136370000D02*
X49650000Y-136370000D01*
X49650000Y-136370000D02*
X51237000Y-137957000D01*
X51940000Y-150240000D02*
X51940000Y-151348000D01*
X49937000Y-146968000D02*
X49937000Y-148237000D01*
X49937000Y-148237000D02*
X51940000Y-150240000D01*
D64*
X58227000Y-142367000D02*
X59404000Y-142367000D01*
X58000000Y-142140000D02*
X58227000Y-142367000D01*
D63*
X58020000Y-142980000D02*
X58137700Y-142862300D01*
X58137700Y-142862300D02*
X59404000Y-142862300D01*
X49990000Y-150420000D02*
X49990000Y-149900000D01*
X48637000Y-148547000D02*
X48637000Y-146968000D01*
X49990000Y-149900000D02*
X48637000Y-148547000D01*
X49980000Y-151368000D02*
X49980000Y-150430000D01*
X49980000Y-150430000D02*
X49990000Y-150420000D01*
X54864000Y-149352000D02*
X54864000Y-148176000D01*
X57950000Y-146860000D02*
X59404000Y-145406000D01*
X56180000Y-146860000D02*
X57950000Y-146860000D01*
X54864000Y-148176000D02*
X56180000Y-146860000D01*
X59404000Y-143370300D02*
X59404000Y-145406000D01*
X54864000Y-149352000D02*
X53362000Y-149352000D01*
X52537000Y-148527000D02*
X52537000Y-146968000D01*
X53362000Y-149352000D02*
X52537000Y-148527000D01*
X61353700Y-145320000D02*
X61353700Y-149736300D01*
X60550000Y-150540000D02*
X55960000Y-150540000D01*
X61353700Y-149736300D02*
X60550000Y-150540000D01*
X54864000Y-151638000D02*
X54864000Y-151636000D01*
X54864000Y-151636000D02*
X55960000Y-150540000D01*
X61353700Y-145320000D02*
X61353700Y-145856300D01*
X51237000Y-146968000D02*
X51237000Y-148437000D01*
X54438000Y-151638000D02*
X54864000Y-151638000D01*
X51237000Y-148437000D02*
X54438000Y-151638000D01*
X80804000Y-143370300D02*
X79839700Y-143370300D01*
X79737202Y-143867830D02*
X80054377Y-144185005D01*
D65*
X81219801Y-157063290D02*
X81219801Y-145350429D01*
X79965000Y-158318091D02*
X81219801Y-157063290D01*
X79965000Y-180072750D02*
X79965000Y-158318091D01*
X81219801Y-145350429D02*
X80054377Y-144185005D01*
X80264000Y-180371750D02*
X79965000Y-180072750D01*
X80264000Y-180371750D02*
X80264000Y-181229000D01*
D63*
X79737202Y-143472798D02*
X79737202Y-143867830D01*
X79839700Y-143370300D02*
X79737202Y-143472798D01*
X80804000Y-143370300D02*
X81540300Y-143370300D01*
D65*
X82898699Y-143464999D02*
X82584623Y-143464999D01*
X82898699Y-143464999D02*
X83413600Y-143979900D01*
D63*
X81634999Y-143464999D02*
X82584623Y-143464999D01*
X81540300Y-143370300D02*
X81634999Y-143464999D01*
D66*
X79946500Y-182403750D02*
X79946500Y-183070500D01*
X80264000Y-182086250D02*
X79946500Y-182403750D01*
X80264000Y-181229000D02*
X80264000Y-182086250D01*
X80010000Y-183134000D02*
X80010000Y-183835000D01*
X79946500Y-183070500D02*
X80010000Y-183134000D01*
X80804000Y-143370300D02*
X80804001Y-143370299D01*
X80804000Y-143370300D02*
X80803999Y-143370299D01*
X80804000Y-143370300D02*
X80229000Y-143370300D01*
X80264000Y-181483000D02*
X80264000Y-181229000D01*
D63*
X79280000Y-144181372D02*
X79280000Y-143180000D01*
X79597700Y-142862300D02*
X80804000Y-142862300D01*
X79280000Y-143180000D02*
X79597700Y-142862300D01*
D65*
X80674810Y-156837548D02*
X80674810Y-145576182D01*
X79420000Y-180072750D02*
X79420000Y-158092358D01*
X79121000Y-180371750D02*
X79420000Y-180072750D01*
X79121000Y-180371750D02*
X79121000Y-181229000D01*
X79420000Y-158092358D02*
X80674810Y-156837548D01*
X80674810Y-145576182D02*
X79669005Y-144570377D01*
D63*
X79280000Y-144181372D02*
X79669005Y-144570377D01*
X82358877Y-142920001D02*
X81650001Y-142920001D01*
X81650001Y-142920001D02*
X81592300Y-142862300D01*
X81592300Y-142862300D02*
X80804000Y-142862300D01*
D65*
X83400900Y-142417800D02*
X82898699Y-142920001D01*
X82898699Y-142920001D02*
X82358877Y-142920001D01*
D66*
X79438500Y-182403750D02*
X79438500Y-183095900D01*
X79438500Y-183095900D02*
X79360000Y-183174400D01*
X79121000Y-181229000D02*
X79121000Y-182086250D01*
X79121000Y-182086250D02*
X79438500Y-182403750D01*
X79360000Y-183174400D02*
X79360000Y-183835000D01*
X80804000Y-142862300D02*
X80804001Y-142862301D01*
X80804000Y-142862300D02*
X80803999Y-142862301D01*
X80804000Y-142862300D02*
X80229000Y-142862300D01*
X79121000Y-181483000D02*
X79121000Y-181229000D01*
D63*
X53600000Y-158540000D02*
X53600000Y-154640000D01*
X54360000Y-153880000D02*
X69920000Y-153880000D01*
X53600000Y-154640000D02*
X54360000Y-153880000D01*
X74853800Y-145320000D02*
X74853800Y-148946200D01*
X74853800Y-148946200D02*
X69920000Y-153880000D01*
X53600000Y-158540000D02*
X53136000Y-159004000D01*
X53136000Y-159004000D02*
X52324000Y-159004000D01*
X52324000Y-159004000D02*
X52324000Y-161372000D01*
X55990000Y-158520000D02*
X55990000Y-154820000D01*
X56420000Y-154390000D02*
X70190000Y-154390000D01*
X55990000Y-154820000D02*
X56420000Y-154390000D01*
X75349100Y-145320000D02*
X75349100Y-149230900D01*
X75349100Y-149230900D02*
X70190000Y-154390000D01*
X54864000Y-159004000D02*
X55506000Y-159004000D01*
X55506000Y-159004000D02*
X55990000Y-158520000D01*
X54864000Y-161372000D02*
X54864000Y-159004000D01*
X75857100Y-145320000D02*
X75857100Y-149422900D01*
X70320000Y-154960000D02*
X59590000Y-154960000D01*
X75857100Y-149422900D02*
X70320000Y-154960000D01*
X53594000Y-163094000D02*
X53594000Y-161372000D01*
X53860000Y-163360000D02*
X53594000Y-163094000D01*
X56870000Y-163360000D02*
X53860000Y-163360000D01*
X59590000Y-154960000D02*
X58140000Y-156410000D01*
X58140000Y-162090000D02*
X56870000Y-163360000D01*
X58140000Y-156410000D02*
X58140000Y-162090000D01*
X74218299Y-148888299D02*
X74218299Y-147301701D01*
X76352400Y-147162400D02*
X76480000Y-147290000D01*
X76352400Y-147162400D02*
X76352400Y-145320000D01*
X74218299Y-147301701D02*
X74230000Y-147290000D01*
X69776598Y-153330000D02*
X74218299Y-148888299D01*
X50038000Y-159004000D02*
X50904000Y-159004000D01*
X50904000Y-159004000D02*
X51100000Y-158808000D01*
X53050000Y-153330000D02*
X69776598Y-153330000D01*
X51100000Y-155280000D02*
X53050000Y-153330000D01*
X51100000Y-158808000D02*
X51100000Y-155280000D01*
X50038000Y-159004000D02*
X50038000Y-159468000D01*
X50038000Y-159468000D02*
X51054000Y-160484000D01*
X51054000Y-160484000D02*
X51054000Y-161372000D01*
X74752000Y-115400000D02*
X74752000Y-113850000D01*
X74752000Y-113850000D02*
X74732000Y-113830000D01*
X74711800Y-116920000D02*
X74711800Y-115440200D01*
X74711800Y-115440200D02*
X74752000Y-115400000D01*
X74358500Y-123920000D02*
X74358500Y-122001500D01*
X75720000Y-116920000D02*
X74711800Y-116920000D01*
X75900000Y-117100000D02*
X75720000Y-116920000D01*
X74358500Y-122001500D02*
X74680000Y-121680000D01*
X103327200Y-106934000D02*
X103291200Y-106970000D01*
X103291200Y-106970000D02*
X102024000Y-106970000D01*
X104648000Y-108204000D02*
X104597200Y-108204000D01*
X104597200Y-108204000D02*
X103327200Y-106934000D01*
X94064000Y-106970000D02*
X102024000Y-106970000D01*
X94080000Y-114370000D02*
X92740000Y-113030000D01*
X92740000Y-113030000D02*
X92740000Y-108169000D01*
X92740000Y-108169000D02*
X93939000Y-106970000D01*
X93939000Y-106970000D02*
X94064000Y-106970000D01*
X94064000Y-114354000D02*
X94080000Y-114370000D01*
X79566500Y-138366500D02*
X79210000Y-138010000D01*
X79566500Y-138366500D02*
X80804000Y-138366500D01*
X90500000Y-152340000D02*
X94720000Y-148120000D01*
X85390000Y-152340000D02*
X90500000Y-152340000D01*
X94720000Y-148120000D02*
X94720000Y-127520000D01*
X81880000Y-157510000D02*
X81880000Y-155850000D01*
X81880000Y-155850000D02*
X85390000Y-152340000D01*
X80730000Y-170870000D02*
X80730000Y-158660000D01*
X80730000Y-158660000D02*
X81880000Y-157510000D01*
X57342000Y-161372000D02*
X57350000Y-161380000D01*
X56134000Y-161372000D02*
X57342000Y-161372000D01*
X80797500Y-138360000D02*
X80804000Y-138366500D01*
X57150000Y-159004000D02*
X57150000Y-159560000D01*
X57150000Y-159560000D02*
X56134000Y-160576000D01*
X56134000Y-160576000D02*
X56134000Y-161372000D01*
X61630000Y-136580000D02*
X61630000Y-142960000D01*
X61630000Y-136580000D02*
X60927300Y-135877300D01*
X60927300Y-135877300D02*
X59404000Y-135877300D01*
X60590000Y-144000000D02*
X60590000Y-149450000D01*
X61630000Y-142960000D02*
X60590000Y-144000000D01*
X85407500Y-184746900D02*
X84480400Y-184746900D01*
X84127300Y-185100000D02*
X84480400Y-184746900D01*
X80660000Y-184634900D02*
X80660000Y-183835000D01*
X80660000Y-184634900D02*
X81125100Y-185100000D01*
X81125100Y-185100000D02*
X84127300Y-185100000D01*
X78710000Y-183835000D02*
X78710000Y-182977000D01*
X78233000Y-182500000D02*
X78060000Y-182500000D01*
X78710000Y-182977000D02*
X78233000Y-182500000D01*
D67*
X70739000Y-176524000D02*
X72194000Y-176524000D01*
X72194000Y-176524000D02*
X72200000Y-176530000D01*
D68*
X74930000Y-183398200D02*
X74930000Y-181810000D01*
X74930000Y-181810000D02*
X74930000Y-180310000D01*
D67*
X78828900Y-176411100D02*
X77110000Y-178130000D01*
X78828900Y-157784800D02*
X78828900Y-176411100D01*
D63*
X82283300Y-142367000D02*
X82384900Y-142265400D01*
X82283300Y-142367000D02*
X80804000Y-142367000D01*
D68*
X74930000Y-180310000D02*
X77110000Y-178130000D01*
D67*
X74920000Y-183388200D02*
X74930000Y-183398200D01*
D11*
X83498800Y-146608800D02*
X82360000Y-145470000D01*
X83498800Y-146608800D02*
X85750400Y-146608800D01*
D63*
X60847300Y-133362700D02*
X60890000Y-133320000D01*
X59404000Y-133362700D02*
X60847300Y-133362700D01*
X65849500Y-145320000D02*
X65849500Y-143769500D01*
X65849500Y-143769500D02*
X65620000Y-143540000D01*
D67*
X84898200Y-131190000D02*
X84898200Y-133072100D01*
X84898200Y-133072100D02*
X84823300Y-133147000D01*
D63*
X82780000Y-131510000D02*
X82640000Y-131370000D01*
X80805200Y-131370000D02*
X82640000Y-131370000D01*
X82910000Y-131530000D02*
X82780000Y-131510000D01*
X84150000Y-131530000D02*
X82910000Y-131530000D01*
X84490000Y-131190000D02*
X84150000Y-131530000D01*
X84898200Y-131190000D02*
X84490000Y-131190000D01*
D67*
X62670000Y-121091800D02*
X62670000Y-121910000D01*
D63*
X63360300Y-122600300D02*
X63360300Y-123920000D01*
X63360300Y-122600300D02*
X62920000Y-122160000D01*
D67*
X62670000Y-121910000D02*
X62920000Y-122160000D01*
X52501800Y-131723000D02*
X55093000Y-131723000D01*
X55093000Y-131723000D02*
X56530000Y-133160000D01*
D63*
X56732700Y-133362700D02*
X56530000Y-133160000D01*
X56732700Y-133362700D02*
X59404000Y-133362700D01*
X59391300Y-133350000D02*
X59404000Y-133362700D01*
D67*
X83618200Y-139750000D02*
X82300000Y-139750000D01*
D63*
X81669800Y-139369800D02*
X82050000Y-139750000D01*
X81669800Y-139369800D02*
X80804000Y-139369800D01*
X82050000Y-139750000D02*
X82300000Y-139750000D01*
D67*
X83618200Y-139750000D02*
X83888200Y-139480000D01*
X84340300Y-133630000D02*
X82000000Y-133630000D01*
D63*
X81759300Y-133870700D02*
X80804000Y-133870700D01*
X81759300Y-133870700D02*
X82000000Y-133630000D01*
D67*
X84340300Y-133630000D02*
X84823300Y-133147000D01*
D63*
X80805200Y-131370000D02*
X80804000Y-131368800D01*
X66030000Y-147548200D02*
X66030000Y-146920000D01*
X65849500Y-146380500D02*
X65670000Y-146560000D01*
X65849500Y-146380500D02*
X65849500Y-145320000D01*
X66030000Y-146920000D02*
X65670000Y-146560000D01*
X65840000Y-147358200D02*
X66030000Y-147548200D01*
D67*
X84898200Y-133072100D02*
X84823300Y-133147000D01*
D63*
X84340300Y-133630000D02*
X84823300Y-133147000D01*
X83728200Y-139320000D02*
X83888200Y-139480000D01*
X83778000Y-139369800D02*
X83888200Y-139480000D01*
X84898200Y-133072100D02*
X84823300Y-133147000D01*
X87655400Y-149225000D02*
X86185000Y-149225000D01*
X77851000Y-146999000D02*
X77851000Y-145320000D01*
X77851000Y-146999000D02*
X77600000Y-147250000D01*
X86185000Y-149225000D02*
X86180000Y-149220000D01*
X87655400Y-146608800D02*
X87655400Y-149225000D01*
X83142000Y-106970000D02*
X82078000Y-106970000D01*
X82078000Y-106970000D02*
X82042000Y-106934000D01*
X91102000Y-106970000D02*
X92166000Y-106970000D01*
X92166000Y-106970000D02*
X92202000Y-106934000D01*
X104648000Y-109707600D02*
X104648000Y-110744000D01*
D67*
X56240000Y-145457000D02*
X57797000Y-145457000D01*
X57797000Y-145457000D02*
X57810000Y-145470000D01*
X67490000Y-147548200D02*
X68318200Y-147548200D01*
X68318200Y-147548200D02*
X68640000Y-147870000D01*
D63*
X59404000Y-133870700D02*
X60260700Y-133870700D01*
X60820000Y-134430000D02*
X60830000Y-134430000D01*
X60260700Y-133870700D02*
X60820000Y-134430000D01*
X80804000Y-130873500D02*
X79473500Y-130873500D01*
X79473500Y-130873500D02*
X79470000Y-130870000D01*
X86208000Y-155900000D02*
X86208000Y-156298500D01*
X86208000Y-156298500D02*
X85852000Y-156654500D01*
X85852000Y-156654500D02*
X85407500Y-156654500D01*
X86208000Y-155900000D02*
X86208000Y-155423000D01*
X86208000Y-155423000D02*
X85915500Y-155130500D01*
X85915500Y-155130500D02*
X85407500Y-155130500D01*
X66395600Y-159359600D02*
X67868800Y-159359600D01*
X65532000Y-159893000D02*
X65862200Y-159893000D01*
X65862200Y-159893000D02*
X66395600Y-159359600D01*
X65862200Y-159893000D02*
X66497200Y-160528000D01*
X66497200Y-160528000D02*
X67614800Y-160528000D01*
D67*
X70147200Y-164846000D02*
X70147200Y-163492200D01*
X70147200Y-163492200D02*
X70104000Y-163449000D01*
X65532000Y-159893000D02*
X67056000Y-159893000D01*
D68*
X89108200Y-128650000D02*
X89108200Y-130474800D01*
X89108200Y-130474800D02*
X89027000Y-130556000D01*
D67*
X86208000Y-155900000D02*
X85400000Y-155900000D01*
D63*
X51054000Y-165272000D02*
X50192000Y-165272000D01*
X50192000Y-165272000D02*
X50190000Y-165270000D01*
X57150000Y-157480000D02*
X57150000Y-156690000D01*
X57150000Y-156690000D02*
X57140000Y-156680000D01*
X54864000Y-157480000D02*
X54864000Y-156674000D01*
X54864000Y-156674000D02*
X54860000Y-156670000D01*
X52324000Y-157480000D02*
X52324000Y-156694000D01*
X52324000Y-156694000D02*
X52320000Y-156690000D01*
X50038000Y-157480000D02*
X50038000Y-156678000D01*
X50038000Y-156678000D02*
X50030000Y-156670000D01*
X89027000Y-130556000D02*
X89027000Y-131807000D01*
X89027000Y-131807000D02*
X89030000Y-131810000D01*
D67*
X89108200Y-130474800D02*
X89027000Y-130556000D01*
D63*
X112776000Y-112649000D02*
X112776000Y-111364000D01*
X112776000Y-111364000D02*
X112780000Y-111360000D01*
X76760000Y-113808200D02*
X76760000Y-112880000D01*
X78650000Y-114127500D02*
X78650000Y-113200000D01*
X112776000Y-88519000D02*
X112776000Y-87224000D01*
X112776000Y-87224000D02*
X112780000Y-87220000D01*
X112776000Y-64389000D02*
X112776000Y-63106000D01*
X112776000Y-63106000D02*
X112770000Y-63100000D01*
X112776000Y-40259000D02*
X112776000Y-38974000D01*
X112776000Y-38974000D02*
X112780000Y-38970000D01*
X110363000Y-35560000D02*
X109090000Y-35560000D01*
X109090000Y-35560000D02*
X109080000Y-35550000D01*
X77851000Y-123920000D02*
X77851000Y-125079000D01*
X75420000Y-126350000D02*
X75220000Y-126550000D01*
X76580000Y-126350000D02*
X75420000Y-126350000D01*
X77851000Y-125079000D02*
X76580000Y-126350000D01*
X91744800Y-133477000D02*
X92557000Y-133477000D01*
X92557000Y-133477000D02*
X92570000Y-133490000D01*
X90170000Y-141668500D02*
X91211500Y-141668500D01*
X91211500Y-141668500D02*
X91220000Y-141660000D01*
X80804000Y-135877300D02*
X79452700Y-135877300D01*
X79452700Y-135877300D02*
X79450000Y-135880000D01*
X80804000Y-133362700D02*
X79467300Y-133362700D01*
X79467300Y-133362700D02*
X79340000Y-133490000D01*
D67*
X52533800Y-133660000D02*
X55840000Y-133660000D01*
D63*
X56050700Y-133870700D02*
X55840000Y-133660000D01*
X56050700Y-133870700D02*
X59404000Y-133870700D01*
D67*
X52533800Y-133660000D02*
X52501800Y-133628000D01*
X57789000Y-112932000D02*
X59918000Y-112932000D01*
X59918000Y-112932000D02*
X59940000Y-112910000D01*
X59944000Y-111379000D02*
X59944000Y-112906000D01*
X59944000Y-112906000D02*
X59940000Y-112910000D01*
D63*
X62852300Y-123920000D02*
X62852300Y-123032300D01*
D67*
X61200000Y-121630000D02*
X61730000Y-122160000D01*
X61200000Y-121630000D02*
X61200000Y-121081800D01*
D63*
X61980000Y-122160000D02*
X61730000Y-122160000D01*
X62852300Y-123032300D02*
X61980000Y-122160000D01*
X66357500Y-145320000D02*
X66357500Y-146447500D01*
X66357500Y-146447500D02*
X67458200Y-147548200D01*
X67458200Y-147548200D02*
X67490000Y-147548200D01*
X67490000Y-147330000D02*
X67490000Y-147548200D01*
X91102000Y-106970000D02*
X91102000Y-106582000D01*
X56240000Y-145457000D02*
X56240000Y-146110000D01*
X56240000Y-146110000D02*
X55382000Y-146968000D01*
X55382000Y-146968000D02*
X54487000Y-146968000D01*
X80804000Y-135877300D02*
X83002700Y-135877300D01*
X83752000Y-135128000D02*
X84465200Y-135128000D01*
X83002700Y-135877300D02*
X83752000Y-135128000D01*
X59944000Y-112906000D02*
X59940000Y-112910000D01*
X59918000Y-112932000D02*
X59940000Y-112910000D01*
D11*
X61250000Y-164080000D02*
X61250000Y-162458000D01*
X61210000Y-164120000D02*
X61250000Y-164080000D01*
X61210000Y-164100000D02*
X61210000Y-164120000D01*
D67*
X73198000Y-113820000D02*
X72240000Y-113820000D01*
X69899200Y-172030000D02*
X70059200Y-171870000D01*
X73198000Y-113820000D02*
X73208000Y-113830000D01*
X69909200Y-172020000D02*
X70059200Y-171870000D01*
D63*
X69909200Y-172020000D02*
X70059200Y-171870000D01*
X61214000Y-159893000D02*
X60557000Y-159893000D01*
X61250000Y-159929000D02*
X61214000Y-159893000D01*
X102024000Y-111470000D02*
X100874000Y-111470000D01*
X100874000Y-111470000D02*
X100838000Y-111506000D01*
X94064000Y-111470000D02*
X95214000Y-111470000D01*
X95214000Y-111470000D02*
X95250000Y-111506000D01*
X77355700Y-145320000D02*
X77355700Y-144034300D01*
X77355700Y-144034300D02*
X77700000Y-143690000D01*
X80804000Y-139865100D02*
X79365100Y-139865100D01*
X79000000Y-139500000D02*
X79000000Y-138770000D01*
X79365100Y-139865100D02*
X79000000Y-139500000D01*
X66852800Y-145320000D02*
X66852800Y-146182800D01*
X68630000Y-146710000D02*
X69190000Y-147270000D01*
X67380000Y-146710000D02*
X68630000Y-146710000D01*
X66852800Y-146182800D02*
X67380000Y-146710000D01*
X80804000Y-138874500D02*
X79104500Y-138874500D01*
X79104500Y-138874500D02*
X79000000Y-138770000D01*
X80804000Y-132867400D02*
X79447400Y-132867400D01*
X79447400Y-132867400D02*
X79300000Y-132720000D01*
X80804000Y-134874000D02*
X79434000Y-134874000D01*
X79434000Y-134874000D02*
X79430000Y-134870000D01*
X63500000Y-168758000D02*
X63855200Y-168758000D01*
X63855200Y-168758000D02*
X64681100Y-167932100D01*
X64681100Y-167932100D02*
X64681100Y-167576500D01*
D67*
X75648800Y-164846000D02*
X76949300Y-164846000D01*
X76949300Y-164846000D02*
X78016100Y-163779200D01*
X78016100Y-163779200D02*
X78016100Y-162077400D01*
D63*
X63500000Y-168758000D02*
X62992400Y-168758000D01*
X62992400Y-168758000D02*
X62191900Y-167957500D01*
X62191900Y-167957500D02*
X62191900Y-167614600D01*
X63500000Y-168758000D02*
X63490000Y-167650000D01*
X63490000Y-167650000D02*
X63500000Y-167640000D01*
D67*
X59055000Y-158760200D02*
X59055000Y-157705000D01*
X59055000Y-157705000D02*
X59060000Y-157700000D01*
D63*
X96109000Y-165070000D02*
X93860000Y-165070000D01*
X92780000Y-165190000D02*
X93380000Y-164590000D01*
X92780000Y-165190000D02*
X92780000Y-165718000D01*
X93860000Y-165070000D02*
X93380000Y-164590000D01*
D67*
X27787600Y-84988400D02*
X27787600Y-87057600D01*
X27787600Y-87057600D02*
X27800000Y-87070000D01*
X123654800Y-173736000D02*
X125964000Y-173736000D01*
X125964000Y-173736000D02*
X125970000Y-173730000D01*
X123654800Y-166624000D02*
X125978000Y-166618000D01*
X125978000Y-166618000D02*
X125984000Y-166624000D01*
X115559800Y-164084000D02*
X116604000Y-164084000D01*
X116604000Y-164084000D02*
X116620000Y-164100000D01*
X117221000Y-161544000D02*
X118646000Y-161544000D01*
X118646000Y-161544000D02*
X118650000Y-161540000D01*
D63*
X48637000Y-141068000D02*
X48637000Y-140957000D01*
X48637000Y-140957000D02*
X47880000Y-140200000D01*
X47658000Y-138640000D02*
X46660000Y-138640000D01*
X46660000Y-138640000D02*
X46590000Y-138570000D01*
X47618000Y-136370000D02*
X46910000Y-136370000D01*
X46910000Y-136370000D02*
X46590000Y-136690000D01*
X56388000Y-149352000D02*
X57192000Y-149352000D01*
X57192000Y-149352000D02*
X57200000Y-149360000D01*
X90449400Y-149225000D02*
X91725000Y-149225000D01*
X91725000Y-149225000D02*
X91740000Y-149210000D01*
X90540800Y-147193000D02*
X91467000Y-147193000D01*
X91467000Y-147193000D02*
X91470000Y-147190000D01*
X90551000Y-145669000D02*
X91341000Y-145669000D01*
X91341000Y-145669000D02*
X91350000Y-145660000D01*
X85968800Y-135128000D02*
X87502000Y-135128000D01*
X87502000Y-135128000D02*
X87680000Y-134950000D01*
X66030000Y-149051800D02*
X66030000Y-149950000D01*
X67490000Y-149051800D02*
X67490000Y-149990000D01*
X85391800Y-139480000D02*
X86340000Y-139480000D01*
X62357000Y-123920000D02*
X62357000Y-125127000D01*
X62357000Y-125127000D02*
X62360000Y-125130000D01*
X78346300Y-123920000D02*
X78346300Y-124816300D01*
X78550000Y-125020000D02*
X79460000Y-125020000D01*
X78346300Y-124816300D02*
X78550000Y-125020000D01*
X96109000Y-165070000D02*
X95120000Y-165070000D01*
X104060000Y-150170000D02*
X104620000Y-150170000D01*
X104620000Y-150170000D02*
X105060000Y-149730000D01*
X125978000Y-166618000D02*
X125984000Y-166624000D01*
X125964000Y-173736000D02*
X125970000Y-173730000D01*
X118646000Y-161544000D02*
X118650000Y-161540000D01*
X116604000Y-164084000D02*
X116620000Y-164100000D01*
X86401800Y-131190000D02*
X87380000Y-131190000D01*
X77861200Y-154686000D02*
X76984000Y-154686000D01*
X76984000Y-154686000D02*
X76770000Y-154900000D01*
X76911200Y-152908000D02*
X76911200Y-153648800D01*
X76911200Y-153648800D02*
X76270000Y-154290000D01*
X75438000Y-153024800D02*
X75438000Y-154178000D01*
X75438000Y-154178000D02*
X75440000Y-154180000D01*
X79298800Y-148844000D02*
X79298800Y-147768800D01*
X79298800Y-147768800D02*
X78980000Y-147450000D01*
D67*
X51939000Y-107032000D02*
X51132000Y-107032000D01*
X51132000Y-107032000D02*
X51130000Y-107030000D01*
X86931500Y-184746900D02*
X87871300Y-184746900D01*
X50030000Y-117610000D02*
X49090000Y-117610000D01*
X50030000Y-117610000D02*
X50038000Y-117602000D01*
X50004000Y-115350000D02*
X49090000Y-115350000D01*
D63*
X57139000Y-112932000D02*
X57139000Y-113839000D01*
X57330000Y-114030000D02*
X59120000Y-114030000D01*
X57139000Y-113839000D02*
X57330000Y-114030000D01*
D67*
X62670000Y-119588200D02*
X62670000Y-119010000D01*
X61200000Y-118980000D02*
X61920000Y-118260000D01*
X61200000Y-118980000D02*
X61200000Y-119578200D01*
X62670000Y-119010000D02*
X61920000Y-118260000D01*
X43210000Y-109270000D02*
X43210000Y-110630000D01*
X43210000Y-110630000D02*
X43240000Y-110660000D01*
X27770000Y-104970000D02*
X27770000Y-102786000D01*
X27770000Y-102786000D02*
X27787600Y-102768400D01*
X39330000Y-99010000D02*
X40660000Y-99010000D01*
X40660000Y-99010000D02*
X40710000Y-99060000D01*
X43240000Y-103040000D02*
X43240000Y-101740000D01*
X43240000Y-101740000D02*
X43250000Y-101730000D01*
X49670000Y-102310000D02*
X50608000Y-102310000D01*
X50548000Y-104600000D02*
X49640000Y-104600000D01*
X50548000Y-104600000D02*
X50598000Y-104650000D01*
X57789000Y-107032000D02*
X59248000Y-107032000D01*
X59248000Y-107032000D02*
X59300000Y-106980000D01*
X59944000Y-108585000D02*
X59944000Y-107624000D01*
D63*
X59248000Y-107032000D02*
X59300000Y-106980000D01*
D67*
X59944000Y-107624000D02*
X59300000Y-106980000D01*
X59690000Y-104648000D02*
X60632000Y-104648000D01*
X60632000Y-104648000D02*
X60660000Y-104620000D01*
X59690000Y-102362000D02*
X60698000Y-102362000D01*
X60698000Y-102362000D02*
X60720000Y-102340000D01*
X113157000Y-35560000D02*
X114690000Y-35560000D01*
X112773000Y-43050000D02*
X111130000Y-43050000D01*
X112773000Y-43050000D02*
X112776000Y-43053000D01*
X112769000Y-67190000D02*
X111170000Y-67190000D01*
X112769000Y-67190000D02*
X112776000Y-67183000D01*
X112776000Y-91313000D02*
X111173000Y-91313000D01*
X111173000Y-91313000D02*
X111150000Y-91290000D01*
X112776000Y-115443000D02*
X112776000Y-116956000D01*
X112776000Y-116956000D02*
X112780000Y-116960000D01*
X88610000Y-137450000D02*
X90560000Y-137450000D01*
X89905800Y-135890000D02*
X91059000Y-135890000D01*
X116840000Y-135960000D02*
X116840000Y-134880000D01*
X116840000Y-134880000D02*
X116850000Y-134870000D01*
X73228000Y-115400000D02*
X73228000Y-116900200D01*
X73228000Y-116900200D02*
X73208200Y-116920000D01*
X73228000Y-115400000D02*
X72300000Y-115400000D01*
X72300000Y-115400000D02*
X72280000Y-115380000D01*
X77048200Y-117570000D02*
X77048200Y-116678200D01*
X77048200Y-116678200D02*
X76770000Y-116400000D01*
X76760000Y-115311800D02*
X76760000Y-116390000D01*
X76760000Y-116390000D02*
X76770000Y-116400000D01*
X50998200Y-131723000D02*
X50557000Y-131723000D01*
X50557000Y-131723000D02*
X49400000Y-132880000D01*
X50998200Y-133628000D02*
X50148000Y-133628000D01*
X50148000Y-133628000D02*
X49400000Y-132880000D01*
X91821000Y-130556000D02*
X93356000Y-130556000D01*
X93356000Y-130556000D02*
X93360000Y-130560000D01*
X90611800Y-128650000D02*
X91700000Y-128650000D01*
X91700000Y-128650000D02*
X91710000Y-128640000D01*
X87617300Y-133147000D02*
X89113000Y-133147000D01*
X89113000Y-133147000D02*
X89120000Y-133140000D01*
X89905800Y-139446000D02*
X91059000Y-139446000D01*
X91059000Y-143764000D02*
X92546000Y-143764000D01*
X92546000Y-143764000D02*
X92570000Y-143740000D01*
D63*
X82510000Y-183835000D02*
X81310000Y-183835000D01*
D67*
X81010000Y-186510000D02*
X83510000Y-186510000D01*
X76510000Y-186510000D02*
X79010000Y-186510000D01*
X74940000Y-184911800D02*
X74940000Y-186100000D01*
X74940000Y-184911800D02*
X74930000Y-184901800D01*
X77597000Y-181229000D02*
X77597000Y-180035200D01*
X81788000Y-181229000D02*
X81788000Y-180035200D01*
X77940000Y-171880000D02*
X75570800Y-171880000D01*
X75570800Y-171880000D02*
X75560800Y-171870000D01*
X65532000Y-157099000D02*
X65532000Y-155648000D01*
X65532000Y-155648000D02*
X65550000Y-155630000D01*
X63373000Y-158760200D02*
X63373000Y-157677000D01*
X63373000Y-157677000D02*
X63380000Y-157670000D01*
X61230000Y-157083000D02*
X61230000Y-155660000D01*
X61230000Y-157083000D02*
X61214000Y-157099000D01*
X56134000Y-165272000D02*
X56134000Y-167186000D01*
X56134000Y-167186000D02*
X56130000Y-167190000D01*
X53594000Y-165272000D02*
X53594000Y-166706000D01*
X52324000Y-166704000D02*
X52960000Y-167340000D01*
X52324000Y-166704000D02*
X52324000Y-165272000D01*
X53594000Y-166706000D02*
X52960000Y-167340000D01*
X27787600Y-173888400D02*
X27787600Y-175957600D01*
X27787600Y-175957600D02*
X27810000Y-175980000D01*
X43240000Y-174160000D02*
X43240000Y-172940000D01*
X43240000Y-172940000D02*
X43220000Y-172920000D01*
X40710000Y-170180000D02*
X39350000Y-170180000D01*
X43240000Y-164000000D02*
X43240000Y-162740000D01*
X27790000Y-156110800D02*
X27790000Y-158150000D01*
X27790000Y-156110800D02*
X27787600Y-156108400D01*
X27780000Y-138336000D02*
X27780000Y-140450000D01*
X27780000Y-138336000D02*
X27787600Y-138328400D01*
X39360000Y-116880000D02*
X40670000Y-116880000D01*
X40670000Y-116880000D02*
X40710000Y-116840000D01*
X43240000Y-91580000D02*
X43240000Y-92880000D01*
X27800000Y-85000800D02*
X27787600Y-84988400D01*
X40670000Y-81240000D02*
X39400000Y-81240000D01*
X40670000Y-81240000D02*
X40710000Y-81280000D01*
X43240000Y-85260000D02*
X43240000Y-84040000D01*
X43240000Y-84040000D02*
X43260000Y-84020000D01*
X43250000Y-75344000D02*
X43250000Y-74070000D01*
X43250000Y-75344000D02*
X43240000Y-75354000D01*
X27770000Y-67226000D02*
X27770000Y-69490000D01*
X27770000Y-67226000D02*
X27787600Y-67208400D01*
X43240000Y-66260000D02*
X43240000Y-67480000D01*
X40690000Y-63520000D02*
X39390000Y-63520000D01*
X40690000Y-63520000D02*
X40710000Y-63500000D01*
X43240000Y-56080000D02*
X43240000Y-57320000D01*
X43260000Y-49680000D02*
X43260000Y-48460000D01*
X43260000Y-49680000D02*
X43240000Y-49700000D01*
X43260000Y-39520000D02*
X43260000Y-38300000D01*
X43260000Y-39520000D02*
X43240000Y-39540000D01*
X40690000Y-45700000D02*
X39330000Y-45700000D01*
X40690000Y-45700000D02*
X40710000Y-45720000D01*
X27790000Y-49430800D02*
X27790000Y-51630000D01*
X27790000Y-49430800D02*
X27787600Y-49428400D01*
X43240000Y-119570000D02*
X43240000Y-120820000D01*
X27860000Y-120620800D02*
X27860000Y-122680000D01*
X27860000Y-120620800D02*
X27787600Y-120548400D01*
X43240000Y-128440000D02*
X43240000Y-127210000D01*
X40710000Y-134620000D02*
X39360000Y-134620000D01*
X43240000Y-138600000D02*
X43240000Y-137380000D01*
X43240000Y-146220000D02*
X43240000Y-144980000D01*
X43240000Y-144980000D02*
X43250000Y-144970000D01*
X40710000Y-152400000D02*
X39400000Y-152400000D01*
X39400000Y-152400000D02*
X39390000Y-152410000D01*
X43240000Y-156380000D02*
X43240000Y-155150000D01*
X50980000Y-153960000D02*
X50980000Y-153832000D01*
X49980000Y-152960000D02*
X50980000Y-153960000D01*
X50980000Y-153832000D02*
X51940000Y-152872000D01*
X49980000Y-152892000D02*
X49980000Y-152960000D01*
X56388000Y-151638000D02*
X57252000Y-151638000D01*
X57252000Y-151638000D02*
X57330000Y-151560000D01*
D63*
X86146800Y-134950000D02*
X85968800Y-135128000D01*
X59620000Y-115560000D02*
X59620000Y-116822000D01*
X59610000Y-115570000D02*
X59620000Y-115560000D01*
X58852000Y-115570000D02*
X59610000Y-115570000D01*
X59620000Y-116822000D02*
X58862000Y-117580000D01*
X50548000Y-104600000D02*
X50598000Y-104650000D01*
X51927000Y-107020000D02*
X51939000Y-107032000D01*
X76760000Y-116390000D02*
X76770000Y-116400000D01*
X59404000Y-134366000D02*
X54124000Y-134366000D01*
X52500000Y-135990000D02*
X50950000Y-135990000D01*
X54124000Y-134366000D02*
X52500000Y-135990000D01*
X73208200Y-115419800D02*
X73228000Y-115400000D01*
X91700000Y-128650000D02*
X91710000Y-128640000D01*
X63373000Y-157677000D02*
X63380000Y-157670000D01*
X65532000Y-155648000D02*
X65550000Y-155630000D01*
X89113000Y-133147000D02*
X89120000Y-133140000D01*
X93356000Y-130556000D02*
X93360000Y-130560000D01*
X112776000Y-116956000D02*
X112780000Y-116960000D01*
X111173000Y-91313000D02*
X111150000Y-91290000D01*
X51940000Y-152872000D02*
X51940000Y-153000000D01*
X53837000Y-146968000D02*
X53837000Y-145573000D01*
X53837000Y-145573000D02*
X53840000Y-145570000D01*
X56240000Y-142663000D02*
X54493000Y-142663000D01*
X54487000Y-142657000D02*
X54490000Y-142660000D01*
X54487000Y-142657000D02*
X54487000Y-141068000D01*
X54493000Y-142663000D02*
X54490000Y-142660000D01*
X54732000Y-136920000D02*
X54732000Y-138480000D01*
X54732000Y-138480000D02*
X54732000Y-140823000D01*
X54732000Y-140823000D02*
X54487000Y-141068000D01*
X60632000Y-104648000D02*
X60660000Y-104620000D01*
X56134000Y-167186000D02*
X56130000Y-167190000D01*
X43240000Y-172940000D02*
X43220000Y-172920000D01*
X27787600Y-175957600D02*
X27810000Y-175980000D01*
X39400000Y-152400000D02*
X39390000Y-152410000D01*
X43240000Y-144980000D02*
X43250000Y-144970000D01*
X43240000Y-101740000D02*
X43250000Y-101730000D01*
X43240000Y-84040000D02*
X43260000Y-84020000D01*
X75438000Y-151521200D02*
X75438000Y-151152000D01*
X75438000Y-151152000D02*
X76911200Y-149678800D01*
X76911200Y-149678800D02*
X76911200Y-148844000D01*
X78346300Y-145320000D02*
X78346300Y-147408900D01*
X78346300Y-147408900D02*
X76911200Y-148844000D01*
X78854300Y-123920000D02*
X79420000Y-123920000D01*
X79470000Y-123970000D02*
X79420000Y-123920000D01*
X78650000Y-116032500D02*
X78650000Y-117471800D01*
X78650000Y-117471800D02*
X78551800Y-117570000D01*
X78551800Y-117570000D02*
X78800000Y-117570000D01*
X78800000Y-117570000D02*
X79480000Y-116890000D01*
X79298800Y-152908000D02*
X79298800Y-154620000D01*
X79298800Y-154620000D02*
X79364800Y-154686000D01*
X79298800Y-152908000D02*
X79782000Y-152908000D01*
X79782000Y-152908000D02*
X80220000Y-152470000D01*
X80220000Y-152470000D02*
X80220000Y-147790000D01*
X80220000Y-147790000D02*
X78854300Y-146424300D01*
X78854300Y-146424300D02*
X78854300Y-145320000D01*
X79611700Y-141871700D02*
X79470000Y-141730000D01*
X80804000Y-141871700D02*
X79611700Y-141871700D01*
X88319000Y-145669000D02*
X87930000Y-145280000D01*
X88319000Y-145669000D02*
X89027000Y-145669000D01*
X89027000Y-145669000D02*
X89027000Y-147182800D01*
X89027000Y-147182800D02*
X89037200Y-147193000D01*
X83060000Y-137000000D02*
X82300000Y-137000000D01*
X81924100Y-137375900D02*
X80804000Y-137375900D01*
X82300000Y-137000000D02*
X81924100Y-137375900D01*
X88402200Y-135890000D02*
X87310000Y-135890000D01*
X86200000Y-137000000D02*
X83060000Y-137000000D01*
X87310000Y-135890000D02*
X86200000Y-137000000D01*
X88402200Y-139446000D02*
X87796000Y-139446000D01*
X86250000Y-137900000D02*
X83060000Y-137900000D01*
X87796000Y-139446000D02*
X86250000Y-137900000D01*
X80804000Y-137871200D02*
X81841200Y-137871200D01*
X81841200Y-137871200D02*
X81870000Y-137900000D01*
X81870000Y-137900000D02*
X83060000Y-137900000D01*
X88402200Y-139446000D02*
X88138000Y-139446000D01*
X86676000Y-143764000D02*
X88265000Y-143764000D01*
X88265000Y-141668500D02*
X88265000Y-143764000D01*
X80804000Y-141363700D02*
X82003700Y-141363700D01*
X86670000Y-143770000D02*
X86676000Y-143764000D01*
X82003700Y-141363700D02*
X82130000Y-141490000D01*
X29794200Y-42011600D02*
X32928400Y-42011600D01*
X32928400Y-42011600D02*
X34300000Y-40640000D01*
X40640000Y-40640000D02*
X34300000Y-40640000D01*
X40640000Y-50800000D02*
X38557200Y-50800000D01*
X38557200Y-50800000D02*
X37185600Y-49428400D01*
X29794200Y-59791600D02*
X35268400Y-59791600D01*
X36640000Y-58420000D02*
X40640000Y-58420000D01*
X35268400Y-59791600D02*
X36640000Y-58420000D01*
X40640000Y-68580000D02*
X39650000Y-68580000D01*
X39650000Y-68580000D02*
X38278400Y-67208400D01*
X38278400Y-67208400D02*
X37185600Y-67208400D01*
X29794200Y-77571600D02*
X33178400Y-77571600D01*
X34296000Y-76454000D02*
X40640000Y-76454000D01*
X33178400Y-77571600D02*
X34296000Y-76454000D01*
X37185600Y-84988400D02*
X38348400Y-84988400D01*
X38348400Y-84988400D02*
X39720000Y-86360000D01*
X39720000Y-86360000D02*
X40640000Y-86360000D01*
X29794200Y-95351600D02*
X35978400Y-95351600D01*
X37350000Y-93980000D02*
X40640000Y-93980000D01*
X35978400Y-95351600D02*
X37350000Y-93980000D01*
X40640000Y-104140000D02*
X40210000Y-104140000D01*
X40210000Y-104140000D02*
X38838400Y-102768400D01*
X38838400Y-102768400D02*
X37185600Y-102768400D01*
X29794200Y-113131600D02*
X34888400Y-113131600D01*
X36260000Y-111760000D02*
X40640000Y-111760000D01*
X34888400Y-113131600D02*
X36260000Y-111760000D01*
X40640000Y-121920000D02*
X40420000Y-121920000D01*
X40420000Y-121920000D02*
X39048400Y-120548400D01*
X39048400Y-120548400D02*
X37185600Y-120548400D01*
X29794200Y-130911600D02*
X34668400Y-130911600D01*
X36040000Y-129540000D02*
X40640000Y-129540000D01*
X34668400Y-130911600D02*
X36040000Y-129540000D01*
X40640000Y-139700000D02*
X40300000Y-139700000D01*
X40300000Y-139700000D02*
X38928400Y-138328400D01*
X38928400Y-138328400D02*
X37185600Y-138328400D01*
X29794200Y-148691600D02*
X35528400Y-148691600D01*
X36900000Y-147320000D02*
X40640000Y-147320000D01*
X35528400Y-148691600D02*
X36900000Y-147320000D01*
X40640000Y-157480000D02*
X39670000Y-157480000D01*
X39670000Y-157480000D02*
X38298400Y-156108400D01*
X38298400Y-156108400D02*
X37185600Y-156108400D01*
X29794200Y-166471600D02*
X35308400Y-166471600D01*
X36680000Y-165100000D02*
X40640000Y-165100000D01*
X35308400Y-166471600D02*
X36680000Y-165100000D01*
X40640000Y-175260000D02*
X40530000Y-175260000D01*
X40530000Y-175260000D02*
X39158400Y-173888400D01*
X39158400Y-173888400D02*
X37185600Y-173888400D01*
X115790000Y-138360000D02*
X115790000Y-139670500D01*
X115790000Y-139670500D02*
X115760500Y-139700000D01*
X115570000Y-138580000D02*
X115790000Y-138360000D01*
X117890000Y-138360000D02*
X117890000Y-139670500D01*
X117890000Y-139670500D02*
X117919500Y-139700000D01*
X118110000Y-138580000D02*
X117890000Y-138360000D01*
D67*
X61344000Y-172020000D02*
X61344000Y-174564000D01*
X61344000Y-174564000D02*
X61350000Y-174570000D01*
X66040000Y-176524000D02*
X64526000Y-176524000D01*
X64526000Y-176524000D02*
X64520000Y-176530000D01*
X61341000Y-176524000D02*
X59824000Y-176524000D01*
X59824000Y-176524000D02*
X59820000Y-176520000D01*
X55598000Y-175260000D02*
X57020000Y-175260000D01*
D64*
X80804000Y-135369300D02*
X82920700Y-135369300D01*
X82920700Y-135369300D02*
X83900000Y-134390000D01*
X83900000Y-134390000D02*
X89307800Y-134390000D01*
X89307800Y-134390000D02*
X90220800Y-133477000D01*
D63*
X84924900Y-142417800D02*
X84924900Y-141954900D01*
X84924900Y-141954900D02*
X83343100Y-140373100D01*
X80804000Y-140373100D02*
X83343100Y-140373100D01*
X80804000Y-140868400D02*
X83172300Y-140868400D01*
X84162900Y-143205200D02*
X84937600Y-143979900D01*
X84162900Y-141859000D02*
X84162900Y-143205200D01*
X83172300Y-140868400D02*
X84162900Y-141859000D01*
X44450000Y-44704000D02*
X43144000Y-44704000D01*
X43144000Y-44704000D02*
X43110000Y-44670000D01*
X44450000Y-80264000D02*
X43144000Y-80264000D01*
X43144000Y-80264000D02*
X43110000Y-80230000D01*
X44450000Y-98044000D02*
X43144000Y-98044000D01*
X43144000Y-98044000D02*
X43110000Y-98010000D01*
X44450000Y-115824000D02*
X43144000Y-115824000D01*
X43144000Y-115824000D02*
X43110000Y-115790000D01*
X43110000Y-133570000D02*
X44416000Y-133570000D01*
X44416000Y-133570000D02*
X44450000Y-133604000D01*
X44704000Y-151384000D02*
X43144000Y-151384000D01*
X43144000Y-151384000D02*
X43110000Y-151350000D01*
X44450000Y-169164000D02*
X43144000Y-169164000D01*
X43144000Y-169164000D02*
X43110000Y-169130000D01*
X90570000Y-164440000D02*
X90570000Y-164450000D01*
X90570000Y-164450000D02*
X89490000Y-165530000D01*
X86800000Y-167210000D02*
X88700000Y-167210000D01*
X89490000Y-166420000D02*
X89490000Y-165530000D01*
X88700000Y-167210000D02*
X89490000Y-166420000D01*
X105156000Y-157362000D02*
X105156000Y-158864000D01*
X102702000Y-159680000D02*
X102696000Y-159686000D01*
X102696000Y-159686000D02*
X95320582Y-159686000D01*
X94685000Y-160321582D02*
X94685000Y-160330000D01*
X95320582Y-159686000D02*
X94685000Y-160321582D01*
X94685000Y-160330000D02*
X94693418Y-160330000D01*
X92096709Y-162926709D02*
X92096709Y-162913291D01*
X94693418Y-160330000D02*
X92096709Y-162926709D01*
X90570000Y-164440000D02*
X92096709Y-162913291D01*
X105156000Y-158864000D02*
X104340000Y-159680000D01*
X104340000Y-159680000D02*
X102702000Y-159680000D01*
X63360300Y-145320000D02*
X63360300Y-151100300D01*
X63360300Y-151100300D02*
X64920000Y-152660000D01*
X85598000Y-168402000D02*
X85608000Y-168402000D01*
X85608000Y-168402000D02*
X86800000Y-167210000D01*
X105156000Y-157362000D02*
X105020000Y-157362000D01*
X85598000Y-168402000D02*
X85598000Y-168262000D01*
D64*
X107442000Y-155838000D02*
X107442000Y-157362000D01*
D63*
X107442000Y-157362000D02*
X107442000Y-158278000D01*
X90010000Y-166600000D02*
X88208000Y-168402000D01*
X105526000Y-160194000D02*
X95476000Y-160194000D01*
X90810000Y-164860000D02*
X95476000Y-160194000D01*
X90806582Y-164860000D02*
X90010000Y-165656582D01*
X90010000Y-165656582D02*
X90010000Y-166600000D01*
X90810000Y-164860000D02*
X90806582Y-164860000D01*
X107442000Y-158278000D02*
X105526000Y-160194000D01*
X88138000Y-168402000D02*
X88208000Y-168402000D01*
X104060000Y-152070000D02*
X106450000Y-152070000D01*
X107442000Y-154822000D02*
X107440000Y-154820000D01*
X107442000Y-154822000D02*
X107442000Y-155838000D01*
X107440000Y-153060000D02*
X107440000Y-154820000D01*
X106450000Y-152070000D02*
X107440000Y-153060000D01*
X63855600Y-145320000D02*
X63855600Y-150695600D01*
X63855600Y-150695600D02*
X65820000Y-152660000D01*
X107442000Y-157362000D02*
X107306000Y-157362000D01*
X64350900Y-145320000D02*
X64350900Y-150300900D01*
X64350900Y-150300900D02*
X66700000Y-152650000D01*
X100720000Y-157362000D02*
X100228000Y-157362000D01*
X100228000Y-157362000D02*
X99000000Y-158590000D01*
X95040000Y-158590000D02*
X99000000Y-158590000D01*
X95040000Y-158590000D02*
X91520000Y-162110000D01*
X91480000Y-162110000D02*
X91520000Y-162110000D01*
X89030000Y-164560000D02*
X91480000Y-162110000D01*
X87160000Y-164560000D02*
X89030000Y-164560000D01*
X87160000Y-164560000D02*
X85858000Y-165862000D01*
X85598000Y-165862000D02*
X85858000Y-165862000D01*
X102870000Y-157362000D02*
X102870000Y-158670000D01*
X102390000Y-159150000D02*
X100946000Y-159150000D01*
X102870000Y-158670000D02*
X102390000Y-159150000D01*
X64858900Y-145320000D02*
X64858900Y-149928900D01*
X64858900Y-149928900D02*
X67630000Y-152700000D01*
X102870000Y-157362000D02*
X102734000Y-157362000D01*
X100946000Y-159150000D02*
X100943000Y-159153000D01*
X88448000Y-165862000D02*
X92000000Y-162310000D01*
X92000000Y-162310000D02*
X92050000Y-162310000D01*
X95207000Y-159153000D02*
X92050000Y-162310000D01*
X100943000Y-159153000D02*
X95207000Y-159153000D01*
X88138000Y-165862000D02*
X88448000Y-165862000D01*
X76390000Y-125880000D02*
X72030000Y-125880000D01*
X77355700Y-123920000D02*
X77355700Y-124914300D01*
X77355700Y-124914300D02*
X76390000Y-125880000D01*
X72030000Y-125880000D02*
X71860000Y-125710000D01*
X71220000Y-115840000D02*
X71260000Y-115840000D01*
X74680000Y-64480000D02*
X74680000Y-98500000D01*
X101600000Y-37560000D02*
X74680000Y-64480000D01*
X74680000Y-98500000D02*
X71220000Y-101960000D01*
X71220000Y-101960000D02*
X71220000Y-115840000D01*
X71260000Y-115840000D02*
X72040000Y-116620000D01*
X101600000Y-36830000D02*
X101600000Y-37560000D01*
X101600000Y-36830000D02*
X101549202Y-36830000D01*
X81870000Y-123560000D02*
X81870000Y-125460000D01*
X81870000Y-125460000D02*
X81460300Y-125869700D01*
X81460300Y-125869700D02*
X80804000Y-125869700D01*
X80271399Y-96911399D02*
X80271399Y-67708601D01*
X80271399Y-67708601D02*
X102840000Y-45140000D01*
X102840000Y-36230000D02*
X102840000Y-45140000D01*
X101600000Y-34990000D02*
X102840000Y-36230000D01*
X80270000Y-113870000D02*
X80180000Y-113960000D01*
X80270000Y-96912798D02*
X80271399Y-96911399D01*
X80270000Y-96912798D02*
X80270000Y-113870000D01*
X101600000Y-34290000D02*
X101600000Y-34990000D01*
X101600000Y-34290000D02*
X101600000Y-34798000D01*
X80804000Y-126377700D02*
X81622300Y-126377700D01*
X81622300Y-126377700D02*
X82500000Y-125500000D01*
X80790000Y-68060000D02*
X104140000Y-44710000D01*
X104140000Y-36830000D02*
X104140000Y-44710000D01*
X80790000Y-113690000D02*
X81030000Y-113930000D01*
X82500000Y-124140000D02*
X82520000Y-124120000D01*
X82500000Y-125500000D02*
X82500000Y-124140000D01*
X80790000Y-68060000D02*
X80790000Y-113690000D01*
X104140000Y-36830000D02*
X104140000Y-36880000D01*
X104140000Y-36830000D02*
X104140000Y-36982404D01*
X81260000Y-113160000D02*
X81260000Y-68600000D01*
X81260000Y-68600000D02*
X105380000Y-44480000D01*
X83210000Y-123560000D02*
X83210000Y-126790000D01*
X81260000Y-113160000D02*
X82100000Y-114000000D01*
X82123700Y-127876300D02*
X83210000Y-126790000D01*
X80804000Y-127876300D02*
X82123700Y-127876300D01*
X105380000Y-36250000D02*
X105380000Y-44480000D01*
X104140000Y-35010000D02*
X105380000Y-36250000D01*
X104140000Y-34290000D02*
X104140000Y-35010000D01*
X104140000Y-34290000D02*
X104140000Y-34798000D01*
D64*
X80804000Y-131864100D02*
X82464100Y-131864100D01*
X82950000Y-132350000D02*
X83270000Y-132350000D01*
X82464100Y-131864100D02*
X82950000Y-132350000D01*
D63*
X96560000Y-157362000D02*
X94858000Y-157362000D01*
X85988000Y-163322000D02*
X87230000Y-162080000D01*
X87230000Y-162080000D02*
X90140000Y-162080000D01*
X90140000Y-162080000D02*
X94858000Y-157362000D01*
X85598000Y-163322000D02*
X85988000Y-163322000D01*
X80804000Y-130365500D02*
X83225500Y-130365500D01*
X83225500Y-130365500D02*
X83780000Y-130920000D01*
X98650000Y-157362000D02*
X98650000Y-157670000D01*
X98650000Y-157670000D02*
X98250000Y-158070000D01*
X91638291Y-161271709D02*
X89588000Y-163322000D01*
X89588000Y-163322000D02*
X88138000Y-163322000D01*
X94796582Y-158070000D02*
X91638291Y-161228291D01*
X91638291Y-161228291D02*
X91638291Y-161271709D01*
X98250000Y-158070000D02*
X94796582Y-158070000D01*
X112014000Y-157362000D02*
X112014000Y-157956000D01*
X112014000Y-157956000D02*
X108738418Y-161231582D01*
X91818291Y-165178291D02*
X91828911Y-165178291D01*
X90850000Y-169090000D02*
X90850000Y-169080000D01*
X91000000Y-168940000D02*
X90850000Y-169090000D01*
X91000000Y-166007202D02*
X91000000Y-168940000D01*
X91828911Y-165178291D02*
X91000000Y-166007202D01*
X80804000Y-132372100D02*
X82112100Y-132372100D01*
X82112100Y-132372100D02*
X82140000Y-132400000D01*
X108738418Y-161231582D02*
X95765000Y-161231582D01*
X112014000Y-157362000D02*
X111588000Y-157362000D01*
X112014000Y-157226000D02*
X111724000Y-157226000D01*
X95765000Y-161231582D02*
X91818291Y-165178291D01*
X88138000Y-170942000D02*
X88988000Y-170942000D01*
X88988000Y-170942000D02*
X90850000Y-169080000D01*
X109728000Y-157362000D02*
X109728000Y-157900760D01*
X109728000Y-157900760D02*
X106898760Y-160730000D01*
X90520000Y-167710000D02*
X90520000Y-165830000D01*
X90520000Y-165830000D02*
X92620000Y-163730000D01*
X87360000Y-169710000D02*
X88520000Y-169710000D01*
X87360000Y-169710000D02*
X86128000Y-170942000D01*
X88520000Y-169710000D02*
X90520000Y-167710000D01*
X95586582Y-160730000D02*
X106898760Y-160730000D01*
X92603291Y-163730000D02*
X92620000Y-163730000D01*
X95586582Y-160730000D02*
X92603291Y-163713291D01*
X92603291Y-163713291D02*
X92603291Y-163730000D01*
X83830000Y-163700000D02*
X83830000Y-169174000D01*
X83830000Y-169174000D02*
X85598000Y-170942000D01*
X82806000Y-134366000D02*
X82920000Y-134480000D01*
X82806000Y-134366000D02*
X80804000Y-134366000D01*
X109728000Y-157362000D02*
X109568000Y-157362000D01*
X109728000Y-157226000D02*
X109704000Y-157226000D01*
X85598000Y-170942000D02*
X86128000Y-170942000D01*
X44450000Y-46736000D02*
X43144000Y-46736000D01*
X43144000Y-46736000D02*
X43110000Y-46770000D01*
X44450000Y-82296000D02*
X43144000Y-82296000D01*
X43144000Y-82296000D02*
X43110000Y-82330000D01*
X43110000Y-100110000D02*
X44416000Y-100110000D01*
X44416000Y-100110000D02*
X44450000Y-100076000D01*
X43110000Y-117890000D02*
X44416000Y-117890000D01*
X44416000Y-117890000D02*
X44450000Y-117856000D01*
X44450000Y-135636000D02*
X43144000Y-135636000D01*
X43144000Y-135636000D02*
X43110000Y-135670000D01*
X44704000Y-153416000D02*
X43144000Y-153416000D01*
X43144000Y-153416000D02*
X43110000Y-153450000D01*
X44450000Y-171196000D02*
X43144000Y-171196000D01*
X43144000Y-171196000D02*
X43110000Y-171230000D01*
X43240000Y-51900000D02*
X44728000Y-51900000D01*
X44704000Y-69596000D02*
X43324000Y-69596000D01*
X43324000Y-69596000D02*
X43240000Y-69680000D01*
X44704000Y-87376000D02*
X43324000Y-87376000D01*
X43324000Y-87376000D02*
X43240000Y-87460000D01*
X43240000Y-105240000D02*
X44620000Y-105240000D01*
X44620000Y-105240000D02*
X44704000Y-105156000D01*
X43324000Y-105156000D02*
X43240000Y-105240000D01*
X44704000Y-122936000D02*
X43324000Y-122936000D01*
X43324000Y-122936000D02*
X43240000Y-123020000D01*
X43240000Y-140800000D02*
X44620000Y-140800000D01*
X44620000Y-140800000D02*
X44704000Y-140716000D01*
X43240000Y-158580000D02*
X44620000Y-158580000D01*
X44620000Y-158580000D02*
X44704000Y-158496000D01*
X43240000Y-176360000D02*
X44620000Y-176360000D01*
X44620000Y-176360000D02*
X44704000Y-176276000D01*
X44704000Y-41656000D02*
X43324000Y-41656000D01*
X43324000Y-41656000D02*
X43240000Y-41740000D01*
X43240000Y-59520000D02*
X44620000Y-59520000D01*
X44620000Y-59520000D02*
X44704000Y-59436000D01*
X43240000Y-77554000D02*
X44620000Y-77554000D01*
X44620000Y-77554000D02*
X44704000Y-77470000D01*
X44704000Y-94996000D02*
X43324000Y-94996000D01*
X43324000Y-94996000D02*
X43240000Y-95080000D01*
X43240000Y-112860000D02*
X44620000Y-112860000D01*
X44620000Y-112860000D02*
X44704000Y-112776000D01*
X43240000Y-130640000D02*
X44620000Y-130640000D01*
X44620000Y-130640000D02*
X44704000Y-130556000D01*
X44704000Y-148336000D02*
X43324000Y-148336000D01*
X43324000Y-148336000D02*
X43240000Y-148420000D01*
X43240000Y-166200000D02*
X44620000Y-166200000D01*
X44620000Y-166200000D02*
X44704000Y-166116000D01*
D64*
X56489000Y-111860000D02*
X56380000Y-111860000D01*
X55270000Y-110750000D02*
X47530000Y-110750000D01*
X56380000Y-111860000D02*
X55270000Y-110750000D01*
D63*
X47090000Y-51900000D02*
X47170000Y-51980000D01*
X47090000Y-51900000D02*
X46252000Y-51900000D01*
D64*
X47530000Y-110750000D02*
X47270000Y-111010000D01*
X56489000Y-111860000D02*
X56489000Y-112932000D01*
D63*
X46252000Y-51900000D02*
X46252000Y-52272000D01*
X45974000Y-46736000D02*
X45974000Y-49254000D01*
X46252000Y-49532000D02*
X46252000Y-51900000D01*
X45974000Y-49254000D02*
X46252000Y-49532000D01*
D64*
X54210000Y-111190000D02*
X48310000Y-111190000D01*
X48310000Y-111190000D02*
X48200000Y-111300000D01*
X55189000Y-112932000D02*
X55189000Y-112169000D01*
X55189000Y-112169000D02*
X54210000Y-111190000D01*
D63*
X47570000Y-44700000D02*
X47590000Y-44680000D01*
X46242000Y-44700000D02*
X47570000Y-44700000D01*
X46228000Y-41656000D02*
X46228000Y-44686000D01*
X46228000Y-44686000D02*
X46242000Y-44700000D01*
D64*
X49090000Y-111630000D02*
X48970000Y-111750000D01*
X49090000Y-111630000D02*
X53410000Y-111630000D01*
X53889000Y-112932000D02*
X53889000Y-112109000D01*
X53410000Y-111630000D02*
X53889000Y-112109000D01*
D63*
X49070000Y-107820000D02*
X49070000Y-105810000D01*
X48510000Y-99210000D02*
X48510000Y-105250000D01*
X47920000Y-98620000D02*
X48510000Y-99210000D01*
X49070000Y-105810000D02*
X48510000Y-105250000D01*
X47920000Y-93480000D02*
X47920000Y-98620000D01*
X46228000Y-69596000D02*
X46768798Y-69596000D01*
X47320000Y-70147202D02*
X47320000Y-92880000D01*
X46768798Y-69596000D02*
X47320000Y-70147202D01*
X47320000Y-92880000D02*
X47920000Y-93480000D01*
X45972000Y-64530000D02*
X45972000Y-66842000D01*
X46228000Y-67098000D02*
X46228000Y-69596000D01*
X45972000Y-66842000D02*
X46228000Y-67098000D01*
D64*
X52589000Y-112932000D02*
X52589000Y-112159000D01*
X50060000Y-111960000D02*
X49700000Y-112320000D01*
X52390000Y-111960000D02*
X50060000Y-111960000D01*
X52589000Y-112159000D02*
X52390000Y-111960000D01*
D63*
X49700000Y-107383400D02*
X49700000Y-105770000D01*
X49700000Y-105770000D02*
X49000000Y-105070000D01*
X49000000Y-98946582D02*
X49000000Y-105070000D01*
X47152798Y-62440000D02*
X47800000Y-63087202D01*
X47800000Y-63087202D02*
X47800000Y-92620000D01*
X45962000Y-62440000D02*
X47152798Y-62440000D01*
X47800000Y-92620000D02*
X48400000Y-93220000D01*
X48400000Y-93220000D02*
X48400000Y-98346582D01*
X48400000Y-98346582D02*
X49000000Y-98946582D01*
X45962000Y-62440000D02*
X45962000Y-61288000D01*
X46228000Y-61022000D02*
X46228000Y-59436000D01*
X45962000Y-61288000D02*
X46228000Y-61022000D01*
X47556399Y-106796399D02*
X47690000Y-106930000D01*
X47556399Y-99613601D02*
X47556399Y-106796399D01*
X52589000Y-106169000D02*
X52400000Y-105980000D01*
X52400000Y-105980000D02*
X50330000Y-105980000D01*
X52589000Y-106169000D02*
X52589000Y-107032000D01*
X46990000Y-99050000D02*
X46992798Y-99050000D01*
X46228000Y-87376000D02*
X46228000Y-93168000D01*
X46990000Y-93930000D02*
X46990000Y-99050000D01*
X46228000Y-93168000D02*
X46990000Y-93930000D01*
X46992798Y-99050000D02*
X47556399Y-99613601D01*
X46228000Y-87376000D02*
X46228000Y-84858000D01*
X46228000Y-84858000D02*
X45974000Y-84604000D01*
X45974000Y-84604000D02*
X45974000Y-82296000D01*
X48430000Y-105897202D02*
X48430000Y-108050000D01*
X48430000Y-108050000D02*
X48820000Y-108440000D01*
X48020000Y-99420000D02*
X48020000Y-105487202D01*
X48020000Y-105487202D02*
X48430000Y-105897202D01*
X53889000Y-107032000D02*
X53889000Y-107881000D01*
X53889000Y-107881000D02*
X53330000Y-108440000D01*
X53330000Y-108440000D02*
X48820000Y-108440000D01*
X46862798Y-81070000D02*
X46862798Y-93122798D01*
X47447202Y-93707202D02*
X47447202Y-98847202D01*
X46862798Y-93122798D02*
X47447202Y-93707202D01*
X46862798Y-81070000D02*
X46056798Y-80264000D01*
X47447202Y-98847202D02*
X48020000Y-99420000D01*
X45974000Y-80264000D02*
X46056798Y-80264000D01*
X45974000Y-80264000D02*
X45974000Y-79076000D01*
X46228000Y-78822000D02*
X46228000Y-77470000D01*
X45974000Y-79076000D02*
X46228000Y-78822000D01*
X55189000Y-107032000D02*
X55189000Y-108291000D01*
X46228000Y-108608000D02*
X46640000Y-109020000D01*
X46640000Y-109020000D02*
X54460000Y-109020000D01*
X46228000Y-108608000D02*
X46228000Y-105156000D01*
X55189000Y-108291000D02*
X54460000Y-109020000D01*
X45974000Y-100076000D02*
X45974000Y-102576000D01*
X45974000Y-102576000D02*
X46228000Y-102830000D01*
X46228000Y-102830000D02*
X46228000Y-105156000D01*
D64*
X46900000Y-109720000D02*
X46970000Y-109720000D01*
X54470000Y-110430000D02*
X56489000Y-108411000D01*
X47680000Y-110430000D02*
X54470000Y-110430000D01*
X46970000Y-109720000D02*
X47680000Y-110430000D01*
D63*
X45974000Y-98044000D02*
X45974000Y-98684000D01*
X46900000Y-102830000D02*
X46900000Y-108290000D01*
X46610000Y-102540000D02*
X46900000Y-102830000D01*
X46610000Y-99320000D02*
X46610000Y-102540000D01*
X45974000Y-98684000D02*
X46610000Y-99320000D01*
D64*
X56489000Y-107032000D02*
X56489000Y-108411000D01*
X45974000Y-98044000D02*
X45974000Y-98354000D01*
D63*
X46228000Y-94996000D02*
X46228000Y-96302000D01*
X45974000Y-96556000D02*
X45974000Y-98044000D01*
X46228000Y-96302000D02*
X45974000Y-96556000D01*
X47250000Y-123330000D02*
X47250000Y-131750000D01*
X53187000Y-145797000D02*
X53000000Y-145610000D01*
X53187000Y-146968000D02*
X53187000Y-145797000D01*
X46856000Y-122936000D02*
X46228000Y-122936000D01*
X46856000Y-122936000D02*
X47250000Y-123330000D01*
X47250000Y-131750000D02*
X47410000Y-131910000D01*
X46228000Y-122936000D02*
X46228000Y-120438000D01*
X46228000Y-120438000D02*
X45974000Y-120184000D01*
X45974000Y-120184000D02*
X45974000Y-117856000D01*
X45974000Y-115824000D02*
X46444000Y-115824000D01*
X47750000Y-117130000D02*
X47750000Y-131150000D01*
X46444000Y-115824000D02*
X47750000Y-117130000D01*
X48080000Y-131480000D02*
X47750000Y-131150000D01*
X51887000Y-144503000D02*
X51890000Y-144500000D01*
X51887000Y-146968000D02*
X51887000Y-144503000D01*
X51870000Y-146951000D02*
X51887000Y-146968000D01*
X45974000Y-115824000D02*
X45974000Y-116134000D01*
X46228000Y-112776000D02*
X46228000Y-114172000D01*
X45974000Y-114426000D02*
X45974000Y-115824000D01*
X46228000Y-114172000D02*
X45974000Y-114426000D01*
X50587000Y-145783000D02*
X50590000Y-145780000D01*
X50587000Y-146968000D02*
X50587000Y-145783000D01*
X47146000Y-140716000D02*
X46228000Y-140716000D01*
X47146000Y-140716000D02*
X47820000Y-141390000D01*
X46228000Y-140716000D02*
X46228000Y-139898000D01*
X46228000Y-139898000D02*
X45974000Y-139644000D01*
X45974000Y-139644000D02*
X45974000Y-135636000D01*
X50590000Y-146965000D02*
X50587000Y-146968000D01*
D64*
X50590000Y-146965000D02*
X50587000Y-146968000D01*
D63*
X49287000Y-146007000D02*
X49287000Y-146968000D01*
X49287000Y-146007000D02*
X48760000Y-145480000D01*
X45974000Y-133604000D02*
X46754000Y-133604000D01*
X46754000Y-133604000D02*
X46860000Y-133710000D01*
D64*
X46754000Y-133604000D02*
X46860000Y-133710000D01*
D63*
X46228000Y-130556000D02*
X46228000Y-130442000D01*
X46228000Y-130556000D02*
X46228000Y-131912000D01*
X45974000Y-132166000D02*
X45974000Y-133604000D01*
X46228000Y-131912000D02*
X45974000Y-132166000D01*
X45830000Y-144830000D02*
X45830000Y-146270000D01*
X45830000Y-146270000D02*
X46942798Y-147382798D01*
X46942798Y-147382798D02*
X46942798Y-153047202D01*
X49287000Y-141953000D02*
X48940000Y-142300000D01*
X48940000Y-142300000D02*
X45780000Y-142300000D01*
X49287000Y-141068000D02*
X49287000Y-141953000D01*
X46574000Y-153416000D02*
X46228000Y-153416000D01*
X46574000Y-153416000D02*
X46942798Y-153047202D01*
X46228000Y-153416000D02*
X46228000Y-158496000D01*
X49890000Y-143130000D02*
X45830000Y-143130000D01*
X45210000Y-146410000D02*
X46228000Y-147428000D01*
X45210000Y-143750000D02*
X45210000Y-146410000D01*
X45830000Y-143130000D02*
X45210000Y-143750000D01*
X46228000Y-148336000D02*
X46228000Y-147428000D01*
X50587000Y-142433000D02*
X50587000Y-141068000D01*
X49890000Y-143130000D02*
X50587000Y-142433000D01*
X46228000Y-151384000D02*
X46228000Y-148336000D01*
X45974000Y-171196000D02*
X46674000Y-171196000D01*
X46674000Y-171196000D02*
X47910000Y-169960000D01*
X47910000Y-169960000D02*
X47910000Y-145120000D01*
X47910000Y-145120000D02*
X48030000Y-145000000D01*
X46840000Y-143740000D02*
X46480000Y-144100000D01*
X46480000Y-144100000D02*
X46480000Y-145940000D01*
X46840000Y-143740000D02*
X51040000Y-143740000D01*
X51887000Y-142893000D02*
X51887000Y-141068000D01*
X51040000Y-143740000D02*
X51887000Y-142893000D01*
X45974000Y-171196000D02*
X45974000Y-170976000D01*
X45974000Y-171196000D02*
X45974000Y-173444000D01*
X46228000Y-173698000D02*
X46228000Y-176276000D01*
X45974000Y-173444000D02*
X46228000Y-173698000D01*
X53187000Y-141068000D02*
X53187000Y-142293000D01*
X53187000Y-142293000D02*
X51120000Y-144360000D01*
X47400000Y-159040000D02*
X47400000Y-144680000D01*
X51120000Y-144360000D02*
X47720000Y-144360000D01*
X47400000Y-144680000D02*
X47720000Y-144360000D01*
X46228000Y-160212000D02*
X47400000Y-159040000D01*
X46228000Y-160212000D02*
X46228000Y-166116000D01*
X45974000Y-169164000D02*
X45974000Y-167796000D01*
X46228000Y-167542000D02*
X46228000Y-166116000D01*
X45974000Y-167796000D02*
X46228000Y-167542000D01*
X43110000Y-64550000D02*
X44428000Y-64550000D01*
X44428000Y-64550000D02*
X44448000Y-64530000D01*
X43110000Y-62450000D02*
X44428000Y-62450000D01*
X44428000Y-62450000D02*
X44438000Y-62440000D01*
D11*
X114427000Y-161544000D02*
X112136000Y-161544000D01*
X112136000Y-161544000D02*
X112110000Y-161570000D01*
D67*
X113690000Y-176542000D02*
X114928000Y-176542000D01*
X114928000Y-176542000D02*
X114970000Y-176500000D01*
D11*
X113690000Y-177608000D02*
X113690000Y-176542000D01*
D63*
X87732000Y-155900000D02*
X87732000Y-156439000D01*
X87732000Y-156439000D02*
X87947500Y-156654500D01*
X87947500Y-156654500D02*
X88646000Y-156654500D01*
X87732000Y-155900000D02*
X87732000Y-155346000D01*
X87732000Y-155346000D02*
X87947500Y-155130500D01*
X87947500Y-155130500D02*
X88582500Y-155130500D01*
D68*
X118153200Y-173736000D02*
X118153200Y-173271200D01*
X118153200Y-173271200D02*
X116713000Y-171831000D01*
X119126000Y-171704000D02*
X119126000Y-172763200D01*
X119126000Y-172763200D02*
X118153200Y-173736000D01*
X118153200Y-166624000D02*
X118153200Y-167048200D01*
X118153200Y-167048200D02*
X118999000Y-168402000D01*
X118153200Y-166624000D02*
X118153200Y-166994800D01*
X118153200Y-166994800D02*
X116210000Y-168430000D01*
X110109000Y-165070000D02*
X111140000Y-165070000D01*
X111140000Y-165070000D02*
X112126000Y-164084000D01*
X112126000Y-164084000D02*
X114056200Y-164084000D01*
X114056200Y-164084000D02*
X114056200Y-163103800D01*
X114427000Y-162733000D02*
X114427000Y-161544000D01*
X114056200Y-163103800D02*
X114427000Y-162733000D01*
X114098000Y-159480000D02*
X114098000Y-161215000D01*
X114098000Y-161215000D02*
X114427000Y-161544000D01*
D67*
X106640000Y-151312000D02*
X107828000Y-151312000D01*
X107828000Y-151312000D02*
X107830000Y-151310000D01*
X101860000Y-152070000D02*
X100740000Y-152070000D01*
X87732000Y-155900000D02*
X88640000Y-155900000D01*
D63*
X90998000Y-171060000D02*
X90998000Y-172048000D01*
X90998000Y-172048000D02*
X91230000Y-172280000D01*
X101780000Y-151990000D02*
X101860000Y-152070000D01*
D67*
X114098000Y-161215000D02*
X114427000Y-161544000D01*
X114056200Y-161914800D02*
X114427000Y-161544000D01*
X110109000Y-165070000D02*
X111750000Y-165070000D01*
D63*
X109702000Y-165070000D02*
X109712000Y-165060000D01*
X122599999Y-47019999D02*
X121800000Y-46220000D01*
X122950000Y-47370000D02*
X122599999Y-47019999D01*
X85240000Y-86390000D02*
X122950000Y-48680000D01*
X85240000Y-109918061D02*
X85240000Y-86390000D01*
X85136223Y-110021838D02*
X85240000Y-109918061D01*
X85590000Y-111940000D02*
X85136223Y-111486223D01*
X122950000Y-48680000D02*
X122950000Y-47370000D01*
X85136223Y-111486223D02*
X85136223Y-110021838D01*
X83820000Y-124740000D02*
X83820000Y-126850000D01*
X83820000Y-126850000D02*
X82298400Y-128371600D01*
X80804000Y-128371600D02*
X82298400Y-128371600D01*
X123440000Y-48860000D02*
X85710000Y-86590000D01*
X85593434Y-110978298D02*
X85780754Y-111165618D01*
X85710000Y-110094654D02*
X85593434Y-110211220D01*
X121800000Y-44190000D02*
X123440000Y-45830000D01*
X85593434Y-110211220D02*
X85593434Y-110978298D01*
X85710000Y-86590000D02*
X85710000Y-110094654D01*
X123440000Y-45830000D02*
X123440000Y-48860000D01*
X86380000Y-118550000D02*
X82822798Y-118550000D01*
X71856600Y-120673400D02*
X73580000Y-118950000D01*
X71856600Y-120673400D02*
X71856600Y-123920000D01*
X73580000Y-118950000D02*
X82422798Y-118950000D01*
X82822798Y-118550000D02*
X82422798Y-118950000D01*
X86380000Y-118550000D02*
X86380000Y-118560000D01*
X86380000Y-118560000D02*
X86380000Y-118550000D01*
X86380000Y-118550000D02*
X86380000Y-118560000D01*
X74840000Y-127661052D02*
X74863770Y-127684822D01*
X62357000Y-144290200D02*
X62357000Y-145320000D01*
X74863770Y-127684822D02*
X74863770Y-129640144D01*
X72778399Y-133451601D02*
X62357000Y-143873000D01*
X73444609Y-133451601D02*
X72778399Y-133451601D01*
X74863770Y-129640144D02*
X75031634Y-129808008D01*
X74840000Y-127230000D02*
X74840000Y-127661052D01*
X62357000Y-143873000D02*
X62357000Y-144290200D01*
X75031634Y-131864576D02*
X73444609Y-133451601D01*
X75031634Y-129808008D02*
X75031634Y-131864576D01*
X120020000Y-47250000D02*
X84280000Y-82990000D01*
X84221801Y-112860997D02*
X82352798Y-114730000D01*
X84221801Y-109643074D02*
X84221801Y-112860997D01*
X80511052Y-114730000D02*
X80080000Y-114730000D01*
X82352798Y-114730000D02*
X80511052Y-114730000D01*
X84280000Y-109584875D02*
X84221801Y-109643074D01*
X84280000Y-82990000D02*
X84280000Y-109584875D01*
X119930000Y-47340000D02*
X120020000Y-47250000D01*
X83670000Y-105770000D02*
X83670000Y-105692798D01*
X84320000Y-80940000D02*
X84320000Y-80930000D01*
X83790000Y-81470000D02*
X84320000Y-80940000D01*
X83790000Y-105572798D02*
X83790000Y-81470000D01*
X83670000Y-105692798D02*
X83790000Y-105572798D01*
X85500000Y-79750000D02*
X85500000Y-79740000D01*
X84320000Y-80930000D02*
X85500000Y-79750000D01*
X85500000Y-79740000D02*
X120020000Y-45220000D01*
X84970000Y-119430000D02*
X85110000Y-119290000D01*
X72351900Y-123920000D02*
X72351900Y-120858100D01*
X73780000Y-119430000D02*
X84970000Y-119430000D01*
X72351900Y-120858100D02*
X73780000Y-119430000D01*
X62852300Y-145320000D02*
X62852300Y-144047702D01*
X75784799Y-128174799D02*
X75480000Y-127870000D01*
X75784799Y-131758004D02*
X75784799Y-128174799D01*
X73633991Y-133908812D02*
X75784799Y-131758004D01*
X62852300Y-144047702D02*
X72991190Y-133908812D01*
X72991190Y-133908812D02*
X73633991Y-133908812D01*
X84750000Y-86220000D02*
X84750000Y-109761468D01*
X81980000Y-115780000D02*
X80551052Y-115780000D01*
X84679012Y-113080988D02*
X81980000Y-115780000D01*
X121800000Y-48250000D02*
X121800000Y-49170000D01*
X84679012Y-109832456D02*
X84679012Y-113080988D01*
X84750000Y-109761468D02*
X84679012Y-109832456D01*
X80551052Y-115780000D02*
X80120000Y-115780000D01*
X121800000Y-49170000D02*
X84750000Y-86220000D01*
X82800000Y-105820000D02*
X82800000Y-105692798D01*
X83320000Y-105172798D02*
X83320000Y-79890000D01*
X82800000Y-105692798D02*
X83320000Y-105172798D01*
X83320000Y-79890000D02*
X120020000Y-43190000D01*
X84380000Y-121420000D02*
X84490000Y-121530000D01*
X74853800Y-122516200D02*
X75950000Y-121420000D01*
X75950000Y-121420000D02*
X84380000Y-121420000D01*
X74853800Y-122516200D02*
X74853800Y-123920000D01*
X84930000Y-127050000D02*
X84930000Y-125600000D01*
X84930000Y-125600000D02*
X85230000Y-125300000D01*
X108490000Y-113710000D02*
X108490000Y-111520000D01*
X108490000Y-111520000D02*
X122950000Y-97060000D01*
X104570000Y-117630000D02*
X92980000Y-117680000D01*
X108490000Y-113710000D02*
X104570000Y-117630000D01*
X122950000Y-95940000D02*
X122950000Y-97060000D01*
X121800000Y-94790000D02*
X122950000Y-95940000D01*
X82605100Y-129374900D02*
X80804000Y-129374900D01*
X82605100Y-129374900D02*
X84930000Y-127050000D01*
X121800000Y-94480000D02*
X121800000Y-94790000D01*
X109120000Y-111660000D02*
X109120000Y-113780000D01*
X73850500Y-121449500D02*
X74390000Y-120910000D01*
X73850500Y-123920000D02*
X73850500Y-121449500D01*
X123440000Y-94270000D02*
X123440000Y-97340000D01*
X109120000Y-113780000D02*
X104610000Y-118290000D01*
X104610000Y-118290000D02*
X93180000Y-118290000D01*
X123440000Y-94270000D02*
X121800000Y-92630000D01*
X90560000Y-120910000D02*
X93180000Y-118290000D01*
X74390000Y-120910000D02*
X90560000Y-120910000D01*
X123440000Y-97340000D02*
X109120000Y-111660000D01*
X121800000Y-92450000D02*
X121800000Y-92630000D01*
X107490000Y-113290000D02*
X107490000Y-108040000D01*
X107490000Y-108040000D02*
X120020000Y-95510000D01*
X89470000Y-119920000D02*
X90905167Y-118484833D01*
X104460000Y-116320000D02*
X92660000Y-116310000D01*
X107490000Y-113290000D02*
X104460000Y-116320000D01*
X92060000Y-118490000D02*
X90905167Y-118484833D01*
X72859900Y-121030100D02*
X73970000Y-119920000D01*
X73970000Y-119920000D02*
X89470000Y-119920000D01*
X72859900Y-121030100D02*
X72859900Y-123920000D01*
X106980000Y-113050000D02*
X106980000Y-106520000D01*
X106980000Y-106520000D02*
X120020000Y-93480000D01*
X91290000Y-119240000D02*
X91290000Y-119450000D01*
X86910000Y-120410000D02*
X86890000Y-120430000D01*
X91290000Y-119450000D02*
X90330000Y-120410000D01*
X90330000Y-120410000D02*
X86910000Y-120410000D01*
X74180000Y-120430000D02*
X86890000Y-120430000D01*
X106980000Y-113050000D02*
X104350000Y-115680000D01*
X104350000Y-115680000D02*
X93230000Y-115700000D01*
X73355200Y-123920000D02*
X73355200Y-121254800D01*
X73355200Y-121254800D02*
X74180000Y-120430000D01*
X120020000Y-93480000D02*
X120020000Y-93720000D01*
X108000000Y-113470000D02*
X108000000Y-111260000D01*
X108000000Y-111260000D02*
X121800000Y-97460000D01*
X91850000Y-117900000D02*
X82680000Y-117900000D01*
X82680000Y-117900000D02*
X82120000Y-118460000D01*
X91850000Y-117900000D02*
X92770000Y-116980000D01*
X104490000Y-116980000D02*
X92770000Y-116980000D01*
X121800000Y-96510000D02*
X121800000Y-97460000D01*
X108000000Y-113470000D02*
X104490000Y-116980000D01*
X71361300Y-120488700D02*
X73390000Y-118460000D01*
X73390000Y-118460000D02*
X82120000Y-118460000D01*
X71361300Y-120488700D02*
X71361300Y-123920000D01*
X106490000Y-112810000D02*
X106490000Y-104980000D01*
X106490000Y-104980000D02*
X120020000Y-91450000D01*
X106490000Y-112810000D02*
X104240000Y-115060000D01*
X104240000Y-115060000D02*
X92480000Y-115070000D01*
X87590000Y-123030000D02*
X89030000Y-121590000D01*
X83770000Y-122380000D02*
X84420000Y-123030000D01*
X84420000Y-123030000D02*
X87590000Y-123030000D01*
X75857100Y-122842900D02*
X75857100Y-123920000D01*
X76320000Y-122380000D02*
X83770000Y-122380000D01*
X75857100Y-122842900D02*
X76320000Y-122380000D01*
X120020000Y-91450000D02*
X120020000Y-91650000D01*
X120820000Y-75300000D02*
X118730000Y-75300000D01*
X118730000Y-75300000D02*
X88970000Y-105060000D01*
X84430000Y-125200000D02*
X84430000Y-126900000D01*
X80804000Y-128866900D02*
X82463100Y-128866900D01*
X84430000Y-126900000D02*
X82463100Y-128866900D01*
X88970000Y-115080000D02*
X87700000Y-116350000D01*
X88970000Y-105060000D02*
X88970000Y-115080000D01*
X123080000Y-71890000D02*
X121800000Y-70610000D01*
X123080000Y-71890000D02*
X123080000Y-73040000D01*
X123080000Y-73040000D02*
X120820000Y-75300000D01*
X121800000Y-70350000D02*
X121800000Y-70610000D01*
X82570000Y-126300000D02*
X82370000Y-126300000D01*
X82370000Y-126300000D02*
X81797000Y-126873000D01*
X121010000Y-75830000D02*
X118920000Y-75830000D01*
X118920000Y-75830000D02*
X89630000Y-105120000D01*
X83820000Y-117010000D02*
X88130000Y-117010000D01*
X80804000Y-126873000D02*
X81797000Y-126873000D01*
X89630000Y-115510000D02*
X89630000Y-105120000D01*
X88130000Y-117010000D02*
X89630000Y-115510000D01*
X123610000Y-70380000D02*
X121800000Y-68570000D01*
X123610000Y-70380000D02*
X123610000Y-73230000D01*
X123610000Y-73230000D02*
X121010000Y-75830000D01*
X121800000Y-68320000D02*
X121800000Y-68570000D01*
X69850000Y-144290200D02*
X69850000Y-145320000D01*
X69560000Y-143220000D02*
X69850000Y-143510000D01*
X78530000Y-127730000D02*
X78530000Y-130952582D01*
X73899555Y-135280445D02*
X69560000Y-139620000D01*
X69850000Y-143510000D02*
X69850000Y-144290200D01*
X74202137Y-135280445D02*
X73899555Y-135280445D01*
X78530000Y-130952582D02*
X74202137Y-135280445D01*
X69560000Y-139620000D02*
X69560000Y-143220000D01*
X87680000Y-103720000D02*
X120020000Y-71380000D01*
X87680000Y-111540000D02*
X87680000Y-103720000D01*
X82200000Y-117020000D02*
X87680000Y-111540000D01*
X80710000Y-117020000D02*
X82200000Y-117020000D01*
X64940000Y-142660000D02*
X73233977Y-134366023D01*
X73823373Y-134366023D02*
X76600000Y-131589396D01*
X76600000Y-128311052D02*
X76600000Y-127880000D01*
X76600000Y-131589396D02*
X76600000Y-128311052D01*
X65354200Y-145320000D02*
X65354200Y-144290200D01*
X73233977Y-134366023D02*
X73823373Y-134366023D01*
X65354200Y-144290200D02*
X64940000Y-143876000D01*
X64940000Y-143876000D02*
X64940000Y-142660000D01*
X120020000Y-69350000D02*
X119780000Y-69350000D01*
X119780000Y-69350000D02*
X87160000Y-101970000D01*
X80100000Y-117430000D02*
X80070000Y-117460000D01*
X80100000Y-116680000D02*
X80100000Y-117430000D01*
X80430000Y-116350000D02*
X80100000Y-116680000D01*
X82160000Y-116350000D02*
X80430000Y-116350000D01*
X87160000Y-111350000D02*
X82160000Y-116350000D01*
X87160000Y-101970000D02*
X87160000Y-111350000D01*
X120020000Y-69350000D02*
X119700000Y-69350000D01*
X73676766Y-134823234D02*
X68920000Y-139580000D01*
X77570000Y-127770000D02*
X77570000Y-131265989D01*
X69354700Y-144290200D02*
X69354700Y-145320000D01*
X68920000Y-139580000D02*
X68920000Y-143320000D01*
X74012755Y-134823234D02*
X73676766Y-134823234D01*
X77570000Y-131265989D02*
X74012755Y-134823234D01*
X68920000Y-143320000D02*
X69354700Y-143754700D01*
X69354700Y-143754700D02*
X69354700Y-144290200D01*
X120510000Y-74740000D02*
X118530000Y-74740000D01*
X118530000Y-74740000D02*
X88330000Y-104940000D01*
X80740000Y-117830000D02*
X82080000Y-117830000D01*
X82080000Y-117830000D02*
X88330000Y-111580000D01*
X88330000Y-111580000D02*
X88330000Y-104940000D01*
X121800000Y-73450000D02*
X120510000Y-74740000D01*
X121800000Y-72380000D02*
X121800000Y-73450000D01*
X120020000Y-67320000D02*
X86203044Y-101136956D01*
X86203044Y-110099981D02*
X86203044Y-110531033D01*
X86203044Y-101136956D02*
X86203044Y-110099981D01*
X85500000Y-122420000D02*
X84510000Y-122420000D01*
X76140000Y-121900000D02*
X83990000Y-121900000D01*
X75349100Y-122690900D02*
X76140000Y-121900000D01*
X75349100Y-122690900D02*
X75349100Y-123920000D01*
X84510000Y-122420000D02*
X83990000Y-121900000D01*
X49460000Y-98760000D02*
X60580000Y-98760000D01*
X48280000Y-89610000D02*
X48300000Y-89610000D01*
X48280000Y-39640000D02*
X48280000Y-89610000D01*
X45720000Y-37080000D02*
X48280000Y-39640000D01*
X49460000Y-98760000D02*
X48890000Y-98190000D01*
X48890000Y-98190000D02*
X48890000Y-93040000D01*
X48890000Y-93040000D02*
X48300000Y-92450000D01*
X48300000Y-92450000D02*
X48300000Y-89610000D01*
X60580000Y-98760000D02*
X61400000Y-99580000D01*
X61861700Y-143448300D02*
X63400000Y-141910000D01*
X61861700Y-143448300D02*
X61861700Y-145320000D01*
X45720000Y-36830000D02*
X45720000Y-37080000D01*
X48930000Y-92090000D02*
X48930000Y-39300000D01*
X46990000Y-37360000D02*
X48930000Y-39300000D01*
X46990000Y-35560000D02*
X46990000Y-37360000D01*
X45720000Y-34290000D02*
X46990000Y-35560000D01*
X75130000Y-142190000D02*
X75130000Y-143660000D01*
X74358500Y-144431500D02*
X74358500Y-145320000D01*
X75130000Y-143660000D02*
X74358500Y-144431500D01*
X118150000Y-125980000D02*
X89010000Y-125980000D01*
X122950000Y-121180000D02*
X118150000Y-125980000D01*
X121800000Y-118950000D02*
X122950000Y-120100000D01*
X122950000Y-120100000D02*
X122950000Y-121180000D01*
X85119800Y-129870200D02*
X80804000Y-129870200D01*
X89010000Y-125980000D02*
X85119800Y-129870200D01*
X121800000Y-118610000D02*
X121800000Y-118950000D01*
X60719700Y-125869700D02*
X65164543Y-130314543D01*
X59404000Y-125869700D02*
X60719700Y-125869700D01*
X73533769Y-130314543D02*
X73964821Y-130314543D01*
X65164543Y-130314543D02*
X73533769Y-130314543D01*
X118160000Y-126630000D02*
X89250000Y-126630000D01*
X123770000Y-118550000D02*
X121800000Y-116580000D01*
X123770000Y-121020000D02*
X118160000Y-126630000D01*
X123770000Y-118550000D02*
X123770000Y-121020000D01*
X89250000Y-126630000D02*
X87350000Y-128530000D01*
X65320000Y-131170000D02*
X73076558Y-131170000D01*
X73076558Y-131170000D02*
X73507610Y-131170000D01*
X59404000Y-126377700D02*
X60527700Y-126377700D01*
X60527700Y-126377700D02*
X65320000Y-131170000D01*
X112370000Y-120250000D02*
X93420000Y-120250000D01*
X112980000Y-119640000D02*
X112370000Y-120250000D01*
X120020000Y-119640000D02*
X112980000Y-119640000D01*
X88076709Y-125593291D02*
X93420000Y-120250000D01*
X85940000Y-127743418D02*
X88076709Y-125606709D01*
X88076709Y-125606709D02*
X88076709Y-125593291D01*
X85880000Y-127790000D02*
X85940000Y-127730000D01*
X85940000Y-127730000D02*
X85940000Y-127743418D01*
X85160000Y-127790000D02*
X85880000Y-127790000D01*
X120020000Y-119640000D02*
X119890000Y-119640000D01*
X63940000Y-128350000D02*
X73076558Y-128350000D01*
X61353700Y-125763700D02*
X63940000Y-128350000D01*
X73076558Y-128350000D02*
X73507610Y-128350000D01*
X61353700Y-123920000D02*
X61353700Y-125763700D01*
X112300000Y-119620000D02*
X93300000Y-119620000D01*
X120020000Y-117610000D02*
X114310000Y-117610000D01*
X114310000Y-117610000D02*
X112300000Y-119620000D01*
X85770000Y-127150000D02*
X85660000Y-127150000D01*
X93300000Y-119620000D02*
X85770000Y-127150000D01*
X120020000Y-117610000D02*
X120020000Y-117750000D01*
X74574423Y-129997390D02*
X74254169Y-129677136D01*
X65690500Y-132270500D02*
X72821290Y-132270500D01*
X74254169Y-129677136D02*
X74254169Y-129609610D01*
X72859391Y-132232399D02*
X73327601Y-132232399D01*
X72821290Y-132270500D02*
X72859391Y-132232399D01*
X60293000Y-126873000D02*
X65690500Y-132270500D01*
X59404000Y-126873000D02*
X60293000Y-126873000D01*
X74574423Y-130985577D02*
X74574423Y-129997390D01*
X73327601Y-132232399D02*
X74574423Y-130985577D01*
X120550000Y-122820000D02*
X91510000Y-122820000D01*
X121800000Y-121570000D02*
X120550000Y-122820000D01*
X121800000Y-121570000D02*
X121800000Y-120640000D01*
X91510000Y-122830000D02*
X85941709Y-128398291D01*
X91510000Y-122820000D02*
X91510000Y-122830000D01*
X85940000Y-128400000D02*
X85941709Y-128401709D01*
X85941709Y-128401709D02*
X85941709Y-128398291D01*
X84500000Y-128400000D02*
X85940000Y-128400000D01*
X84310000Y-123630000D02*
X88580000Y-123630000D01*
X88580000Y-123630000D02*
X93260000Y-118950000D01*
X76510000Y-122860000D02*
X83540000Y-122860000D01*
X76352400Y-123017600D02*
X76510000Y-122860000D01*
X76352400Y-123017600D02*
X76352400Y-123920000D01*
X83540000Y-122860000D02*
X84310000Y-123630000D01*
X115640000Y-115580000D02*
X112270000Y-118950000D01*
X112270000Y-118950000D02*
X93260000Y-118950000D01*
X120020000Y-115580000D02*
X115640000Y-115580000D01*
D67*
X96109000Y-171070000D02*
X92532000Y-171070000D01*
X92532000Y-171070000D02*
X92522000Y-171060000D01*
D63*
X92522000Y-171060000D02*
X92522000Y-170098000D01*
X92522000Y-170098000D02*
X92660000Y-169960000D01*
X96099000Y-171060000D02*
X96109000Y-171070000D01*
X98650000Y-155838000D02*
X98650000Y-154780000D01*
X98650000Y-154780000D02*
X98640000Y-154770000D01*
X96108000Y-171069000D02*
X96109000Y-171070000D01*
X110109000Y-167070000D02*
X113520000Y-167110000D01*
X100680000Y-155798000D02*
X100680000Y-154820000D01*
X100680000Y-155798000D02*
X100720000Y-155838000D01*
X104222000Y-155838000D02*
X104000000Y-156060000D01*
X104000000Y-156060000D02*
X104000000Y-158220000D01*
X105156000Y-155838000D02*
X104222000Y-155838000D01*
D67*
X93580000Y-179070000D02*
X93570000Y-179060000D01*
X93580000Y-179070000D02*
X96109000Y-179070000D01*
D63*
X105240000Y-155754000D02*
X105240000Y-152720000D01*
X105240000Y-155754000D02*
X105156000Y-155838000D01*
X109220000Y-147828000D02*
X109102000Y-147828000D01*
X110109000Y-169070000D02*
X114840000Y-169070000D01*
X112014000Y-154734000D02*
X112010000Y-154730000D01*
X112014000Y-154734000D02*
X112014000Y-155838000D01*
D67*
X110109000Y-179070000D02*
X113628000Y-179070000D01*
X113628000Y-179070000D02*
X113690000Y-179132000D01*
D63*
X113690000Y-179132000D02*
X115062000Y-179132000D01*
X96560000Y-154850000D02*
X96560000Y-155838000D01*
X115062000Y-179132000D02*
X115090000Y-179160000D01*
D67*
X113628000Y-179070000D02*
X113690000Y-179132000D01*
X96109000Y-167070000D02*
X92952000Y-167070000D01*
X92952000Y-167070000D02*
X92780000Y-167242000D01*
D63*
X92780000Y-167242000D02*
X92780000Y-167680000D01*
X92780000Y-167680000D02*
X92250000Y-168210000D01*
X102870000Y-154840000D02*
X102870000Y-155838000D01*
X110109000Y-171070000D02*
X114180000Y-171070000D01*
X114180000Y-171070000D02*
X114190000Y-171080000D01*
X109728000Y-154778000D02*
X109720000Y-154770000D01*
X109728000Y-155838000D02*
X109728000Y-154778000D01*
X115760500Y-141224000D02*
X103336000Y-141224000D01*
X103336000Y-141224000D02*
X94996000Y-149564000D01*
X96109000Y-175070000D02*
X91020000Y-175070000D01*
X91020000Y-175070000D02*
X91010000Y-175080000D01*
X90820000Y-160050000D02*
X91370000Y-160050000D01*
X94996000Y-156424000D02*
X94996000Y-149564000D01*
X91370000Y-160050000D02*
X94996000Y-156424000D01*
X90218000Y-160782000D02*
X90820000Y-160050000D01*
X88138000Y-160782000D02*
X90218000Y-160782000D01*
X94485000Y-149395000D02*
X94485000Y-154965000D01*
X116880000Y-140460000D02*
X103420000Y-140460000D01*
X103420000Y-140460000D02*
X94485000Y-149395000D01*
X96109000Y-173070000D02*
X85690000Y-173070000D01*
X85690000Y-173070000D02*
X83150000Y-170530000D01*
X83150000Y-170530000D02*
X83150000Y-163230000D01*
X83150000Y-163230000D02*
X85598000Y-160782000D01*
X89840000Y-159610000D02*
X94485000Y-154965000D01*
X86820000Y-159610000D02*
X89840000Y-159610000D01*
X85648000Y-160782000D02*
X86820000Y-159610000D01*
X116880000Y-140460000D02*
X117644000Y-141224000D01*
X85598000Y-160782000D02*
X85648000Y-160782000D01*
X117919500Y-141224000D02*
X117644000Y-141224000D01*
X96109000Y-169070000D02*
X91640000Y-169080000D01*
D67*
X115622000Y-159480000D02*
X116550000Y-159480000D01*
X116550000Y-159480000D02*
X116640000Y-159570000D01*
D63*
X116550000Y-159480000D02*
X116640000Y-159570000D01*
D67*
X110109000Y-175070000D02*
X113638000Y-175070000D01*
X113638000Y-175070000D02*
X113690000Y-175018000D01*
D63*
X61800000Y-96750000D02*
X62000000Y-96750000D01*
X63120000Y-97870000D02*
X63120000Y-116120000D01*
X62000000Y-96750000D02*
X63120000Y-97870000D01*
X60140000Y-119100000D02*
X63120000Y-116120000D01*
X61861700Y-123031700D02*
X61620000Y-122790000D01*
X61861700Y-123920000D02*
X61861700Y-123031700D01*
X60140000Y-122250000D02*
X60680000Y-122790000D01*
X60680000Y-122790000D02*
X61620000Y-122790000D01*
X60140000Y-119100000D02*
X60140000Y-122250000D01*
X72340000Y-107100000D02*
X78840000Y-107100000D01*
X93820000Y-150650000D02*
X93820000Y-152160000D01*
X93820000Y-152160000D02*
X93150000Y-152830000D01*
X96109000Y-177070000D02*
X89010000Y-177070000D01*
X89010000Y-177070000D02*
X82670000Y-170730000D01*
X85580000Y-152830000D02*
X93150000Y-152830000D01*
X82670000Y-170730000D02*
X82670000Y-155740000D01*
X82670000Y-155740000D02*
X85580000Y-152830000D01*
X96170000Y-150170000D02*
X101860000Y-150170000D01*
X96170000Y-150170000D02*
X95690000Y-150650000D01*
X106680000Y-147828000D02*
X106680000Y-149748000D01*
X106680000Y-149748000D02*
X106640000Y-149788000D01*
X104060000Y-151120000D02*
X104850000Y-151120000D01*
X104850000Y-151120000D02*
X106182000Y-149788000D01*
X106182000Y-149788000D02*
X106640000Y-149788000D01*
X106680000Y-149748000D02*
X106640000Y-149788000D01*
X60960000Y-136906000D02*
X60426600Y-136372600D01*
X60426600Y-136372600D02*
X59404000Y-136372600D01*
X73152000Y-132842000D02*
X63500000Y-132842000D01*
X63500000Y-132842000D02*
X61214000Y-135128000D01*
X83142000Y-111470000D02*
X83094000Y-111470000D01*
X83094000Y-111470000D02*
X82042000Y-112522000D01*
X83312000Y-109728000D02*
X83312000Y-111300000D01*
X83312000Y-111300000D02*
X83142000Y-111470000D01*
X91102000Y-111470000D02*
X91102000Y-110660000D01*
X91102000Y-110660000D02*
X90678000Y-110236000D01*
D64*
G36*
X58343800Y-175387000D02*
X58349803Y-175416646D01*
X58366868Y-175441621D01*
X58392305Y-175457989D01*
X58420000Y-175463200D01*
X62407800Y-175463200D01*
X62407800Y-178485800D01*
X54686200Y-178485800D01*
X54686200Y-176072800D01*
X54721700Y-176072800D01*
X54721700Y-176796700D01*
X54856445Y-177118511D01*
X55104085Y-177364261D01*
X55288157Y-177438595D01*
X55420200Y-177457509D01*
X55420200Y-176072800D01*
X55775800Y-176072800D01*
X55775800Y-177457509D01*
X55907843Y-177438595D01*
X56091915Y-177364261D01*
X56109478Y-177346832D01*
X60769615Y-177346832D01*
X60893995Y-177441742D01*
X61279225Y-177542944D01*
X61673861Y-177489023D01*
X61788005Y-177441742D01*
X61912385Y-177346832D01*
X61341000Y-176775447D01*
X60769615Y-177346832D01*
X56109478Y-177346832D01*
X56339555Y-177118511D01*
X56474300Y-176796700D01*
X56474300Y-176462225D01*
X60322056Y-176462225D01*
X60375977Y-176856861D01*
X60423258Y-176971005D01*
X60518168Y-177095385D01*
X61089553Y-176524000D01*
X61592447Y-176524000D01*
X62163832Y-177095385D01*
X62258742Y-176971005D01*
X62359944Y-176585775D01*
X62306023Y-176191139D01*
X62258742Y-176076995D01*
X62163832Y-175952615D01*
X61592447Y-176524000D01*
X61089553Y-176524000D01*
X60518168Y-175952615D01*
X60423258Y-176076995D01*
X60322056Y-176462225D01*
X56474300Y-176462225D01*
X56474300Y-176072800D01*
X55775800Y-176072800D01*
X55420200Y-176072800D01*
X54721700Y-176072800D01*
X54686200Y-176072800D01*
X54686200Y-174993300D01*
X54721700Y-174993300D01*
X54721700Y-175717200D01*
X55420200Y-175717200D01*
X55775800Y-175717200D01*
X56474300Y-175717200D01*
X56474300Y-175701168D01*
X60769615Y-175701168D01*
X61341000Y-176272553D01*
X61912385Y-175701168D01*
X61788005Y-175606258D01*
X61402775Y-175505056D01*
X61008139Y-175558977D01*
X60893995Y-175606258D01*
X60769615Y-175701168D01*
X56474300Y-175701168D01*
X56474300Y-174993300D01*
X56339555Y-174671489D01*
X56091915Y-174425739D01*
X55907843Y-174351405D01*
X55775800Y-174332491D01*
X55775800Y-175717200D01*
X55420200Y-175717200D01*
X55420200Y-174332491D01*
X55288157Y-174351405D01*
X55104085Y-174425739D01*
X54856445Y-174671489D01*
X54721700Y-174993300D01*
X54686200Y-174993300D01*
X54686200Y-174066200D01*
X58343800Y-174066200D01*
X58343800Y-175387000D01*
X58343800Y-175387000D01*
G37*
X58343800Y-175387000D02*
X58349803Y-175416646D01*
X58366868Y-175441621D01*
X58392305Y-175457989D01*
X58420000Y-175463200D01*
X62407800Y-175463200D01*
X62407800Y-178485800D01*
X54686200Y-178485800D01*
X54686200Y-176072800D01*
X54721700Y-176072800D01*
X54721700Y-176796700D01*
X54856445Y-177118511D01*
X55104085Y-177364261D01*
X55288157Y-177438595D01*
X55420200Y-177457509D01*
X55420200Y-176072800D01*
X55775800Y-176072800D01*
X55775800Y-177457509D01*
X55907843Y-177438595D01*
X56091915Y-177364261D01*
X56109478Y-177346832D01*
X60769615Y-177346832D01*
X60893995Y-177441742D01*
X61279225Y-177542944D01*
X61673861Y-177489023D01*
X61788005Y-177441742D01*
X61912385Y-177346832D01*
X61341000Y-176775447D01*
X60769615Y-177346832D01*
X56109478Y-177346832D01*
X56339555Y-177118511D01*
X56474300Y-176796700D01*
X56474300Y-176462225D01*
X60322056Y-176462225D01*
X60375977Y-176856861D01*
X60423258Y-176971005D01*
X60518168Y-177095385D01*
X61089553Y-176524000D01*
X61592447Y-176524000D01*
X62163832Y-177095385D01*
X62258742Y-176971005D01*
X62359944Y-176585775D01*
X62306023Y-176191139D01*
X62258742Y-176076995D01*
X62163832Y-175952615D01*
X61592447Y-176524000D01*
X61089553Y-176524000D01*
X60518168Y-175952615D01*
X60423258Y-176076995D01*
X60322056Y-176462225D01*
X56474300Y-176462225D01*
X56474300Y-176072800D01*
X55775800Y-176072800D01*
X55420200Y-176072800D01*
X54721700Y-176072800D01*
X54686200Y-176072800D01*
X54686200Y-174993300D01*
X54721700Y-174993300D01*
X54721700Y-175717200D01*
X55420200Y-175717200D01*
X55775800Y-175717200D01*
X56474300Y-175717200D01*
X56474300Y-175701168D01*
X60769615Y-175701168D01*
X61341000Y-176272553D01*
X61912385Y-175701168D01*
X61788005Y-175606258D01*
X61402775Y-175505056D01*
X61008139Y-175558977D01*
X60893995Y-175606258D01*
X60769615Y-175701168D01*
X56474300Y-175701168D01*
X56474300Y-174993300D01*
X56339555Y-174671489D01*
X56091915Y-174425739D01*
X55907843Y-174351405D01*
X55775800Y-174332491D01*
X55775800Y-175717200D01*
X55420200Y-175717200D01*
X55420200Y-174332491D01*
X55288157Y-174351405D01*
X55104085Y-174425739D01*
X54856445Y-174671489D01*
X54721700Y-174993300D01*
X54686200Y-174993300D01*
X54686200Y-174066200D01*
X58343800Y-174066200D01*
X58343800Y-175387000D01*
G36*
X60580901Y-170071836D02*
X60569300Y-170099843D01*
X60569300Y-171823150D01*
X60588350Y-171842200D01*
X61166200Y-171842200D01*
X61166200Y-171822200D01*
X61521800Y-171822200D01*
X61521800Y-171842200D01*
X62099650Y-171842200D01*
X62118700Y-171823150D01*
X62118700Y-170099843D01*
X62107099Y-170071836D01*
X62100963Y-170065700D01*
X62661800Y-170065700D01*
X62661800Y-173990000D01*
X62667803Y-174019646D01*
X62684868Y-174044621D01*
X62710305Y-174060989D01*
X62738000Y-174066200D01*
X64566800Y-174066200D01*
X64566800Y-175260000D01*
X64572803Y-175289646D01*
X64589868Y-175314621D01*
X64615305Y-175330989D01*
X64643000Y-175336200D01*
X67233800Y-175336200D01*
X67233800Y-177596800D01*
X62941200Y-177596800D01*
X62941200Y-177346832D01*
X65468615Y-177346832D01*
X65592995Y-177441742D01*
X65978225Y-177542944D01*
X66372861Y-177489023D01*
X66487005Y-177441742D01*
X66611385Y-177346832D01*
X66040000Y-176775447D01*
X65468615Y-177346832D01*
X62941200Y-177346832D01*
X62941200Y-176462225D01*
X65021056Y-176462225D01*
X65074977Y-176856861D01*
X65122258Y-176971005D01*
X65217168Y-177095385D01*
X65788553Y-176524000D01*
X66291447Y-176524000D01*
X66862832Y-177095385D01*
X66957742Y-176971005D01*
X67058944Y-176585775D01*
X67005023Y-176191139D01*
X66957742Y-176076995D01*
X66862832Y-175952615D01*
X66291447Y-176524000D01*
X65788553Y-176524000D01*
X65217168Y-175952615D01*
X65122258Y-176076995D01*
X65021056Y-176462225D01*
X62941200Y-176462225D01*
X62941200Y-175701168D01*
X65468615Y-175701168D01*
X66040000Y-176272553D01*
X66611385Y-175701168D01*
X66487005Y-175606258D01*
X66101775Y-175505056D01*
X65707139Y-175558977D01*
X65592995Y-175606258D01*
X65468615Y-175701168D01*
X62941200Y-175701168D01*
X62941200Y-175006000D01*
X62935197Y-174976354D01*
X62918132Y-174951379D01*
X62892695Y-174935011D01*
X62865000Y-174929800D01*
X60274200Y-174929800D01*
X60274200Y-172216850D01*
X60569300Y-172216850D01*
X60569300Y-173940157D01*
X60580901Y-173968164D01*
X60602336Y-173989599D01*
X60630343Y-174001200D01*
X61147150Y-174001200D01*
X61166200Y-173982150D01*
X61166200Y-172197800D01*
X61521800Y-172197800D01*
X61521800Y-173982150D01*
X61540850Y-174001200D01*
X62057657Y-174001200D01*
X62085664Y-173989599D01*
X62107099Y-173968164D01*
X62118700Y-173940157D01*
X62118700Y-172216850D01*
X62099650Y-172197800D01*
X61521800Y-172197800D01*
X61166200Y-172197800D01*
X60588350Y-172197800D01*
X60569300Y-172216850D01*
X60274200Y-172216850D01*
X60274200Y-170065700D01*
X60587037Y-170065700D01*
X60580901Y-170071836D01*
X60580901Y-170071836D01*
G37*
X60580901Y-170071836D02*
X60569300Y-170099843D01*
X60569300Y-171823150D01*
X60588350Y-171842200D01*
X61166200Y-171842200D01*
X61166200Y-171822200D01*
X61521800Y-171822200D01*
X61521800Y-171842200D01*
X62099650Y-171842200D01*
X62118700Y-171823150D01*
X62118700Y-170099843D01*
X62107099Y-170071836D01*
X62100963Y-170065700D01*
X62661800Y-170065700D01*
X62661800Y-173990000D01*
X62667803Y-174019646D01*
X62684868Y-174044621D01*
X62710305Y-174060989D01*
X62738000Y-174066200D01*
X64566800Y-174066200D01*
X64566800Y-175260000D01*
X64572803Y-175289646D01*
X64589868Y-175314621D01*
X64615305Y-175330989D01*
X64643000Y-175336200D01*
X67233800Y-175336200D01*
X67233800Y-177596800D01*
X62941200Y-177596800D01*
X62941200Y-177346832D01*
X65468615Y-177346832D01*
X65592995Y-177441742D01*
X65978225Y-177542944D01*
X66372861Y-177489023D01*
X66487005Y-177441742D01*
X66611385Y-177346832D01*
X66040000Y-176775447D01*
X65468615Y-177346832D01*
X62941200Y-177346832D01*
X62941200Y-176462225D01*
X65021056Y-176462225D01*
X65074977Y-176856861D01*
X65122258Y-176971005D01*
X65217168Y-177095385D01*
X65788553Y-176524000D01*
X66291447Y-176524000D01*
X66862832Y-177095385D01*
X66957742Y-176971005D01*
X67058944Y-176585775D01*
X67005023Y-176191139D01*
X66957742Y-176076995D01*
X66862832Y-175952615D01*
X66291447Y-176524000D01*
X65788553Y-176524000D01*
X65217168Y-175952615D01*
X65122258Y-176076995D01*
X65021056Y-176462225D01*
X62941200Y-176462225D01*
X62941200Y-175701168D01*
X65468615Y-175701168D01*
X66040000Y-176272553D01*
X66611385Y-175701168D01*
X66487005Y-175606258D01*
X66101775Y-175505056D01*
X65707139Y-175558977D01*
X65592995Y-175606258D01*
X65468615Y-175701168D01*
X62941200Y-175701168D01*
X62941200Y-175006000D01*
X62935197Y-174976354D01*
X62918132Y-174951379D01*
X62892695Y-174935011D01*
X62865000Y-174929800D01*
X60274200Y-174929800D01*
X60274200Y-172216850D01*
X60569300Y-172216850D01*
X60569300Y-173940157D01*
X60580901Y-173968164D01*
X60602336Y-173989599D01*
X60630343Y-174001200D01*
X61147150Y-174001200D01*
X61166200Y-173982150D01*
X61166200Y-172197800D01*
X61521800Y-172197800D01*
X61521800Y-173982150D01*
X61540850Y-174001200D01*
X62057657Y-174001200D01*
X62085664Y-173989599D01*
X62107099Y-173968164D01*
X62118700Y-173940157D01*
X62118700Y-172216850D01*
X62099650Y-172197800D01*
X61521800Y-172197800D01*
X61166200Y-172197800D01*
X60588350Y-172197800D01*
X60569300Y-172216850D01*
X60274200Y-172216850D01*
X60274200Y-170065700D01*
X60587037Y-170065700D01*
X60580901Y-170071836D01*
G36*
X120065800Y-174929800D02*
X115646200Y-174929800D01*
X115646200Y-173932850D01*
X116277400Y-173932850D01*
X116277400Y-174551257D01*
X116289001Y-174579264D01*
X116310436Y-174600699D01*
X116338443Y-174612300D01*
X117956350Y-174612300D01*
X117975400Y-174593250D01*
X117975400Y-173913800D01*
X118331000Y-173913800D01*
X118331000Y-174593250D01*
X118350050Y-174612300D01*
X119967957Y-174612300D01*
X119995964Y-174600699D01*
X120017399Y-174579264D01*
X120029000Y-174551257D01*
X120029000Y-173932850D01*
X120009950Y-173913800D01*
X118331000Y-173913800D01*
X117975400Y-173913800D01*
X116296450Y-173913800D01*
X116277400Y-173932850D01*
X115646200Y-173932850D01*
X115646200Y-172920743D01*
X116277400Y-172920743D01*
X116277400Y-173539150D01*
X116296450Y-173558200D01*
X117975400Y-173558200D01*
X117975400Y-172878750D01*
X118331000Y-172878750D01*
X118331000Y-173558200D01*
X120009950Y-173558200D01*
X120029000Y-173539150D01*
X120029000Y-172920743D01*
X120017399Y-172892736D01*
X119995964Y-172871301D01*
X119967957Y-172859700D01*
X118350050Y-172859700D01*
X118331000Y-172878750D01*
X117975400Y-172878750D01*
X117956350Y-172859700D01*
X116338443Y-172859700D01*
X116310436Y-172871301D01*
X116289001Y-172892736D01*
X116277400Y-172920743D01*
X115646200Y-172920743D01*
X115646200Y-166820850D01*
X116277400Y-166820850D01*
X116277400Y-167439257D01*
X116289001Y-167467264D01*
X116310436Y-167488699D01*
X116338443Y-167500300D01*
X117956350Y-167500300D01*
X117975400Y-167481250D01*
X117975400Y-166801800D01*
X118331000Y-166801800D01*
X118331000Y-167481250D01*
X118350050Y-167500300D01*
X119967957Y-167500300D01*
X119995964Y-167488699D01*
X120017399Y-167467264D01*
X120029000Y-167439257D01*
X120029000Y-166820850D01*
X120009950Y-166801800D01*
X118331000Y-166801800D01*
X117975400Y-166801800D01*
X116296450Y-166801800D01*
X116277400Y-166820850D01*
X115646200Y-166820850D01*
X115646200Y-165808743D01*
X116277400Y-165808743D01*
X116277400Y-166427150D01*
X116296450Y-166446200D01*
X117975400Y-166446200D01*
X117975400Y-165766750D01*
X118331000Y-165766750D01*
X118331000Y-166446200D01*
X120009950Y-166446200D01*
X120029000Y-166427150D01*
X120029000Y-165808743D01*
X120017399Y-165780736D01*
X119995964Y-165759301D01*
X119967957Y-165747700D01*
X118350050Y-165747700D01*
X118331000Y-165766750D01*
X117975400Y-165766750D01*
X117956350Y-165747700D01*
X116338443Y-165747700D01*
X116310436Y-165759301D01*
X116289001Y-165780736D01*
X116277400Y-165808743D01*
X115646200Y-165808743D01*
X115646200Y-165684200D01*
X120065800Y-165684200D01*
X120065800Y-174929800D01*
X120065800Y-174929800D01*
G37*
X120065800Y-174929800D02*
X115646200Y-174929800D01*
X115646200Y-173932850D01*
X116277400Y-173932850D01*
X116277400Y-174551257D01*
X116289001Y-174579264D01*
X116310436Y-174600699D01*
X116338443Y-174612300D01*
X117956350Y-174612300D01*
X117975400Y-174593250D01*
X117975400Y-173913800D01*
X118331000Y-173913800D01*
X118331000Y-174593250D01*
X118350050Y-174612300D01*
X119967957Y-174612300D01*
X119995964Y-174600699D01*
X120017399Y-174579264D01*
X120029000Y-174551257D01*
X120029000Y-173932850D01*
X120009950Y-173913800D01*
X118331000Y-173913800D01*
X117975400Y-173913800D01*
X116296450Y-173913800D01*
X116277400Y-173932850D01*
X115646200Y-173932850D01*
X115646200Y-172920743D01*
X116277400Y-172920743D01*
X116277400Y-173539150D01*
X116296450Y-173558200D01*
X117975400Y-173558200D01*
X117975400Y-172878750D01*
X118331000Y-172878750D01*
X118331000Y-173558200D01*
X120009950Y-173558200D01*
X120029000Y-173539150D01*
X120029000Y-172920743D01*
X120017399Y-172892736D01*
X119995964Y-172871301D01*
X119967957Y-172859700D01*
X118350050Y-172859700D01*
X118331000Y-172878750D01*
X117975400Y-172878750D01*
X117956350Y-172859700D01*
X116338443Y-172859700D01*
X116310436Y-172871301D01*
X116289001Y-172892736D01*
X116277400Y-172920743D01*
X115646200Y-172920743D01*
X115646200Y-166820850D01*
X116277400Y-166820850D01*
X116277400Y-167439257D01*
X116289001Y-167467264D01*
X116310436Y-167488699D01*
X116338443Y-167500300D01*
X117956350Y-167500300D01*
X117975400Y-167481250D01*
X117975400Y-166801800D01*
X118331000Y-166801800D01*
X118331000Y-167481250D01*
X118350050Y-167500300D01*
X119967957Y-167500300D01*
X119995964Y-167488699D01*
X120017399Y-167467264D01*
X120029000Y-167439257D01*
X120029000Y-166820850D01*
X120009950Y-166801800D01*
X118331000Y-166801800D01*
X117975400Y-166801800D01*
X116296450Y-166801800D01*
X116277400Y-166820850D01*
X115646200Y-166820850D01*
X115646200Y-165808743D01*
X116277400Y-165808743D01*
X116277400Y-166427150D01*
X116296450Y-166446200D01*
X117975400Y-166446200D01*
X117975400Y-165766750D01*
X118331000Y-165766750D01*
X118331000Y-166446200D01*
X120009950Y-166446200D01*
X120029000Y-166427150D01*
X120029000Y-165808743D01*
X120017399Y-165780736D01*
X119995964Y-165759301D01*
X119967957Y-165747700D01*
X118350050Y-165747700D01*
X118331000Y-165766750D01*
X117975400Y-165766750D01*
X117956350Y-165747700D01*
X116338443Y-165747700D01*
X116310436Y-165759301D01*
X116289001Y-165780736D01*
X116277400Y-165808743D01*
X115646200Y-165808743D01*
X115646200Y-165684200D01*
X120065800Y-165684200D01*
X120065800Y-174929800D01*
G36*
X76517500Y-182054500D02*
X76523503Y-182084146D01*
X76540568Y-182109121D01*
X76566005Y-182125489D01*
X76593700Y-182130700D01*
X78663800Y-182130700D01*
X78663800Y-182499000D01*
X78671514Y-182532408D01*
X78917800Y-183037294D01*
X78917800Y-183083800D01*
X78829050Y-183083800D01*
X78810000Y-183102850D01*
X78810000Y-183657200D01*
X78907800Y-183657200D01*
X78907800Y-184012800D01*
X78810000Y-184012800D01*
X78810000Y-184567150D01*
X78829050Y-184586200D01*
X78917800Y-184586200D01*
X78917800Y-184643800D01*
X78397100Y-184643800D01*
X78397100Y-184031850D01*
X78433800Y-184031850D01*
X78433800Y-184525157D01*
X78445401Y-184553164D01*
X78466836Y-184574599D01*
X78494843Y-184586200D01*
X78590950Y-184586200D01*
X78610000Y-184567150D01*
X78610000Y-184012800D01*
X78452850Y-184012800D01*
X78433800Y-184031850D01*
X78397100Y-184031850D01*
X78397100Y-184022549D01*
X78401045Y-184013048D01*
X78401355Y-183658507D01*
X78397100Y-183648209D01*
X78397100Y-183144843D01*
X78433800Y-183144843D01*
X78433800Y-183638150D01*
X78452850Y-183657200D01*
X78610000Y-183657200D01*
X78610000Y-183102850D01*
X78590950Y-183083800D01*
X78494843Y-183083800D01*
X78466836Y-183095401D01*
X78445401Y-183116836D01*
X78433800Y-183144843D01*
X78397100Y-183144843D01*
X78397100Y-182905400D01*
X78391097Y-182875754D01*
X78374032Y-182850779D01*
X78348595Y-182834411D01*
X78320900Y-182829200D01*
X75692000Y-182829200D01*
X75662354Y-182835203D01*
X75637379Y-182852268D01*
X75621011Y-182877705D01*
X75615800Y-182905400D01*
X75615800Y-183946800D01*
X73482200Y-183946800D01*
X73482200Y-183595050D01*
X74353400Y-183595050D01*
X74353400Y-183862957D01*
X74365001Y-183890964D01*
X74386436Y-183912399D01*
X74414443Y-183924000D01*
X74733150Y-183924000D01*
X74752200Y-183904950D01*
X74752200Y-183576000D01*
X75107800Y-183576000D01*
X75107800Y-183904950D01*
X75126850Y-183924000D01*
X75445557Y-183924000D01*
X75473564Y-183912399D01*
X75494999Y-183890964D01*
X75506600Y-183862957D01*
X75506600Y-183595050D01*
X75487550Y-183576000D01*
X75107800Y-183576000D01*
X74752200Y-183576000D01*
X74372450Y-183576000D01*
X74353400Y-183595050D01*
X73482200Y-183595050D01*
X73482200Y-182933443D01*
X74353400Y-182933443D01*
X74353400Y-183201350D01*
X74372450Y-183220400D01*
X74752200Y-183220400D01*
X74752200Y-182891450D01*
X75107800Y-182891450D01*
X75107800Y-183220400D01*
X75487550Y-183220400D01*
X75506600Y-183201350D01*
X75506600Y-182933443D01*
X75494999Y-182905436D01*
X75473564Y-182884001D01*
X75445557Y-182872400D01*
X75126850Y-182872400D01*
X75107800Y-182891450D01*
X74752200Y-182891450D01*
X74733150Y-182872400D01*
X74414443Y-182872400D01*
X74386436Y-182884001D01*
X74365001Y-182905436D01*
X74353400Y-182933443D01*
X73482200Y-182933443D01*
X73482200Y-179451000D01*
X73476197Y-179421354D01*
X73459132Y-179396379D01*
X73433695Y-179380011D01*
X73406000Y-179374800D01*
X69545200Y-179374800D01*
X69545200Y-177346832D01*
X70167615Y-177346832D01*
X70291995Y-177441742D01*
X70677225Y-177542944D01*
X71071861Y-177489023D01*
X71186005Y-177441742D01*
X71310385Y-177346832D01*
X70739000Y-176775447D01*
X70167615Y-177346832D01*
X69545200Y-177346832D01*
X69545200Y-176462225D01*
X69720056Y-176462225D01*
X69773977Y-176856861D01*
X69821258Y-176971005D01*
X69916168Y-177095385D01*
X70487553Y-176524000D01*
X70990447Y-176524000D01*
X71561832Y-177095385D01*
X71656742Y-176971005D01*
X71757944Y-176585775D01*
X71704023Y-176191139D01*
X71656742Y-176076995D01*
X71561832Y-175952615D01*
X70990447Y-176524000D01*
X70487553Y-176524000D01*
X69916168Y-175952615D01*
X69821258Y-176076995D01*
X69720056Y-176462225D01*
X69545200Y-176462225D01*
X69545200Y-175701168D01*
X70167615Y-175701168D01*
X70739000Y-176272553D01*
X71310385Y-175701168D01*
X71186005Y-175606258D01*
X70800775Y-175505056D01*
X70406139Y-175558977D01*
X70291995Y-175606258D01*
X70167615Y-175701168D01*
X69545200Y-175701168D01*
X69545200Y-175463200D01*
X76517500Y-175463200D01*
X76517500Y-182054500D01*
X76517500Y-182054500D01*
G37*
X76517500Y-182054500D02*
X76523503Y-182084146D01*
X76540568Y-182109121D01*
X76566005Y-182125489D01*
X76593700Y-182130700D01*
X78663800Y-182130700D01*
X78663800Y-182499000D01*
X78671514Y-182532408D01*
X78917800Y-183037294D01*
X78917800Y-183083800D01*
X78829050Y-183083800D01*
X78810000Y-183102850D01*
X78810000Y-183657200D01*
X78907800Y-183657200D01*
X78907800Y-184012800D01*
X78810000Y-184012800D01*
X78810000Y-184567150D01*
X78829050Y-184586200D01*
X78917800Y-184586200D01*
X78917800Y-184643800D01*
X78397100Y-184643800D01*
X78397100Y-184031850D01*
X78433800Y-184031850D01*
X78433800Y-184525157D01*
X78445401Y-184553164D01*
X78466836Y-184574599D01*
X78494843Y-184586200D01*
X78590950Y-184586200D01*
X78610000Y-184567150D01*
X78610000Y-184012800D01*
X78452850Y-184012800D01*
X78433800Y-184031850D01*
X78397100Y-184031850D01*
X78397100Y-184022549D01*
X78401045Y-184013048D01*
X78401355Y-183658507D01*
X78397100Y-183648209D01*
X78397100Y-183144843D01*
X78433800Y-183144843D01*
X78433800Y-183638150D01*
X78452850Y-183657200D01*
X78610000Y-183657200D01*
X78610000Y-183102850D01*
X78590950Y-183083800D01*
X78494843Y-183083800D01*
X78466836Y-183095401D01*
X78445401Y-183116836D01*
X78433800Y-183144843D01*
X78397100Y-183144843D01*
X78397100Y-182905400D01*
X78391097Y-182875754D01*
X78374032Y-182850779D01*
X78348595Y-182834411D01*
X78320900Y-182829200D01*
X75692000Y-182829200D01*
X75662354Y-182835203D01*
X75637379Y-182852268D01*
X75621011Y-182877705D01*
X75615800Y-182905400D01*
X75615800Y-183946800D01*
X73482200Y-183946800D01*
X73482200Y-183595050D01*
X74353400Y-183595050D01*
X74353400Y-183862957D01*
X74365001Y-183890964D01*
X74386436Y-183912399D01*
X74414443Y-183924000D01*
X74733150Y-183924000D01*
X74752200Y-183904950D01*
X74752200Y-183576000D01*
X75107800Y-183576000D01*
X75107800Y-183904950D01*
X75126850Y-183924000D01*
X75445557Y-183924000D01*
X75473564Y-183912399D01*
X75494999Y-183890964D01*
X75506600Y-183862957D01*
X75506600Y-183595050D01*
X75487550Y-183576000D01*
X75107800Y-183576000D01*
X74752200Y-183576000D01*
X74372450Y-183576000D01*
X74353400Y-183595050D01*
X73482200Y-183595050D01*
X73482200Y-182933443D01*
X74353400Y-182933443D01*
X74353400Y-183201350D01*
X74372450Y-183220400D01*
X74752200Y-183220400D01*
X74752200Y-182891450D01*
X75107800Y-182891450D01*
X75107800Y-183220400D01*
X75487550Y-183220400D01*
X75506600Y-183201350D01*
X75506600Y-182933443D01*
X75494999Y-182905436D01*
X75473564Y-182884001D01*
X75445557Y-182872400D01*
X75126850Y-182872400D01*
X75107800Y-182891450D01*
X74752200Y-182891450D01*
X74733150Y-182872400D01*
X74414443Y-182872400D01*
X74386436Y-182884001D01*
X74365001Y-182905436D01*
X74353400Y-182933443D01*
X73482200Y-182933443D01*
X73482200Y-179451000D01*
X73476197Y-179421354D01*
X73459132Y-179396379D01*
X73433695Y-179380011D01*
X73406000Y-179374800D01*
X69545200Y-179374800D01*
X69545200Y-177346832D01*
X70167615Y-177346832D01*
X70291995Y-177441742D01*
X70677225Y-177542944D01*
X71071861Y-177489023D01*
X71186005Y-177441742D01*
X71310385Y-177346832D01*
X70739000Y-176775447D01*
X70167615Y-177346832D01*
X69545200Y-177346832D01*
X69545200Y-176462225D01*
X69720056Y-176462225D01*
X69773977Y-176856861D01*
X69821258Y-176971005D01*
X69916168Y-177095385D01*
X70487553Y-176524000D01*
X70990447Y-176524000D01*
X71561832Y-177095385D01*
X71656742Y-176971005D01*
X71757944Y-176585775D01*
X71704023Y-176191139D01*
X71656742Y-176076995D01*
X71561832Y-175952615D01*
X70990447Y-176524000D01*
X70487553Y-176524000D01*
X69916168Y-175952615D01*
X69821258Y-176076995D01*
X69720056Y-176462225D01*
X69545200Y-176462225D01*
X69545200Y-175701168D01*
X70167615Y-175701168D01*
X70739000Y-176272553D01*
X71310385Y-175701168D01*
X71186005Y-175606258D01*
X70800775Y-175505056D01*
X70406139Y-175558977D01*
X70291995Y-175606258D01*
X70167615Y-175701168D01*
X69545200Y-175701168D01*
X69545200Y-175463200D01*
X76517500Y-175463200D01*
X76517500Y-182054500D01*
G36*
X72110600Y-161778764D02*
X72110600Y-165785800D01*
X68199000Y-165785800D01*
X68199000Y-165042850D01*
X68271400Y-165042850D01*
X68271400Y-165661257D01*
X68283001Y-165689264D01*
X68304436Y-165710699D01*
X68332443Y-165722300D01*
X69950350Y-165722300D01*
X69969400Y-165703250D01*
X69969400Y-165023800D01*
X70325000Y-165023800D01*
X70325000Y-165703250D01*
X70344050Y-165722300D01*
X71961957Y-165722300D01*
X71989964Y-165710699D01*
X72011399Y-165689264D01*
X72023000Y-165661257D01*
X72023000Y-165042850D01*
X72003950Y-165023800D01*
X70325000Y-165023800D01*
X69969400Y-165023800D01*
X68290450Y-165023800D01*
X68271400Y-165042850D01*
X68199000Y-165042850D01*
X68199000Y-164030743D01*
X68271400Y-164030743D01*
X68271400Y-164649150D01*
X68290450Y-164668200D01*
X69969400Y-164668200D01*
X69969400Y-163988750D01*
X70325000Y-163988750D01*
X70325000Y-164668200D01*
X72003950Y-164668200D01*
X72023000Y-164649150D01*
X72023000Y-164030743D01*
X72011399Y-164002736D01*
X71989964Y-163981301D01*
X71961957Y-163969700D01*
X70344050Y-163969700D01*
X70325000Y-163988750D01*
X69969400Y-163988750D01*
X69950350Y-163969700D01*
X68332443Y-163969700D01*
X68304436Y-163981301D01*
X68283001Y-164002736D01*
X68271400Y-164030743D01*
X68199000Y-164030743D01*
X68199000Y-160985200D01*
X68192997Y-160955554D01*
X68175932Y-160930579D01*
X68150495Y-160914211D01*
X68122800Y-160909000D01*
X63398400Y-160909000D01*
X63368754Y-160915003D01*
X63343779Y-160932068D01*
X63327411Y-160957505D01*
X63322200Y-160985200D01*
X63322200Y-161683186D01*
X63314599Y-161664836D01*
X63293164Y-161643401D01*
X63265157Y-161631800D01*
X62946850Y-161631800D01*
X62927800Y-161650850D01*
X62927800Y-162280200D01*
X62947800Y-162280200D01*
X62947800Y-162635800D01*
X62927800Y-162635800D01*
X62927800Y-163265150D01*
X62946850Y-163284200D01*
X63265157Y-163284200D01*
X63293164Y-163272599D01*
X63314599Y-163251164D01*
X63322200Y-163232814D01*
X63322200Y-163296600D01*
X62153800Y-163296600D01*
X62153800Y-162654850D01*
X62173800Y-162654850D01*
X62173800Y-163223157D01*
X62185401Y-163251164D01*
X62206836Y-163272599D01*
X62234843Y-163284200D01*
X62553150Y-163284200D01*
X62572200Y-163265150D01*
X62572200Y-162635800D01*
X62192850Y-162635800D01*
X62173800Y-162654850D01*
X62153800Y-162654850D01*
X62153800Y-161692843D01*
X62173800Y-161692843D01*
X62173800Y-162261150D01*
X62192850Y-162280200D01*
X62572200Y-162280200D01*
X62572200Y-161650850D01*
X62553150Y-161631800D01*
X62234843Y-161631800D01*
X62206836Y-161643401D01*
X62185401Y-161664836D01*
X62173800Y-161692843D01*
X62153800Y-161692843D01*
X62153800Y-161620200D01*
X62585600Y-161620200D01*
X62615246Y-161614197D01*
X62640221Y-161597132D01*
X62656589Y-161571695D01*
X62661800Y-161544000D01*
X62661800Y-160460650D01*
X62796400Y-160460650D01*
X62796400Y-160728557D01*
X62808001Y-160756564D01*
X62829436Y-160777999D01*
X62857443Y-160789600D01*
X63176150Y-160789600D01*
X63195200Y-160770550D01*
X63195200Y-160441600D01*
X63550800Y-160441600D01*
X63550800Y-160770550D01*
X63569850Y-160789600D01*
X63888557Y-160789600D01*
X63916564Y-160777999D01*
X63937999Y-160756564D01*
X63949600Y-160728557D01*
X63949600Y-160460650D01*
X63930550Y-160441600D01*
X63550800Y-160441600D01*
X63195200Y-160441600D01*
X62815450Y-160441600D01*
X62796400Y-160460650D01*
X62661800Y-160460650D01*
X62661800Y-160089850D01*
X64554100Y-160089850D01*
X64554100Y-160708257D01*
X64565701Y-160736264D01*
X64587136Y-160757699D01*
X64615143Y-160769300D01*
X65335150Y-160769300D01*
X65354200Y-160750250D01*
X65354200Y-160070800D01*
X65709800Y-160070800D01*
X65709800Y-160750250D01*
X65728850Y-160769300D01*
X66448857Y-160769300D01*
X66476864Y-160757699D01*
X66498299Y-160736264D01*
X66509900Y-160708257D01*
X66509900Y-160089850D01*
X66490850Y-160070800D01*
X65709800Y-160070800D01*
X65354200Y-160070800D01*
X64573150Y-160070800D01*
X64554100Y-160089850D01*
X62661800Y-160089850D01*
X62661800Y-159799043D01*
X62796400Y-159799043D01*
X62796400Y-160066950D01*
X62815450Y-160086000D01*
X63195200Y-160086000D01*
X63195200Y-159757050D01*
X63550800Y-159757050D01*
X63550800Y-160086000D01*
X63930550Y-160086000D01*
X63949600Y-160066950D01*
X63949600Y-159799043D01*
X63937999Y-159771036D01*
X63916564Y-159749601D01*
X63888557Y-159738000D01*
X63569850Y-159738000D01*
X63550800Y-159757050D01*
X63195200Y-159757050D01*
X63176150Y-159738000D01*
X62857443Y-159738000D01*
X62829436Y-159749601D01*
X62808001Y-159771036D01*
X62796400Y-159799043D01*
X62661800Y-159799043D01*
X62661800Y-159639000D01*
X64363600Y-159639000D01*
X64393246Y-159632997D01*
X64418221Y-159615932D01*
X64434589Y-159590495D01*
X64439800Y-159562800D01*
X64439800Y-159077743D01*
X64554100Y-159077743D01*
X64554100Y-159696150D01*
X64573150Y-159715200D01*
X65354200Y-159715200D01*
X65354200Y-159035750D01*
X65709800Y-159035750D01*
X65709800Y-159715200D01*
X66490850Y-159715200D01*
X66509900Y-159696150D01*
X66509900Y-159077743D01*
X66498299Y-159049736D01*
X66476864Y-159028301D01*
X66448857Y-159016700D01*
X65728850Y-159016700D01*
X65709800Y-159035750D01*
X65354200Y-159035750D01*
X65335150Y-159016700D01*
X64615143Y-159016700D01*
X64587136Y-159028301D01*
X64565701Y-159049736D01*
X64554100Y-159077743D01*
X64439800Y-159077743D01*
X64439800Y-158978600D01*
X69310436Y-158978600D01*
X72110600Y-161778764D01*
X72110600Y-161778764D01*
G37*
X72110600Y-161778764D02*
X72110600Y-165785800D01*
X68199000Y-165785800D01*
X68199000Y-165042850D01*
X68271400Y-165042850D01*
X68271400Y-165661257D01*
X68283001Y-165689264D01*
X68304436Y-165710699D01*
X68332443Y-165722300D01*
X69950350Y-165722300D01*
X69969400Y-165703250D01*
X69969400Y-165023800D01*
X70325000Y-165023800D01*
X70325000Y-165703250D01*
X70344050Y-165722300D01*
X71961957Y-165722300D01*
X71989964Y-165710699D01*
X72011399Y-165689264D01*
X72023000Y-165661257D01*
X72023000Y-165042850D01*
X72003950Y-165023800D01*
X70325000Y-165023800D01*
X69969400Y-165023800D01*
X68290450Y-165023800D01*
X68271400Y-165042850D01*
X68199000Y-165042850D01*
X68199000Y-164030743D01*
X68271400Y-164030743D01*
X68271400Y-164649150D01*
X68290450Y-164668200D01*
X69969400Y-164668200D01*
X69969400Y-163988750D01*
X70325000Y-163988750D01*
X70325000Y-164668200D01*
X72003950Y-164668200D01*
X72023000Y-164649150D01*
X72023000Y-164030743D01*
X72011399Y-164002736D01*
X71989964Y-163981301D01*
X71961957Y-163969700D01*
X70344050Y-163969700D01*
X70325000Y-163988750D01*
X69969400Y-163988750D01*
X69950350Y-163969700D01*
X68332443Y-163969700D01*
X68304436Y-163981301D01*
X68283001Y-164002736D01*
X68271400Y-164030743D01*
X68199000Y-164030743D01*
X68199000Y-160985200D01*
X68192997Y-160955554D01*
X68175932Y-160930579D01*
X68150495Y-160914211D01*
X68122800Y-160909000D01*
X63398400Y-160909000D01*
X63368754Y-160915003D01*
X63343779Y-160932068D01*
X63327411Y-160957505D01*
X63322200Y-160985200D01*
X63322200Y-161683186D01*
X63314599Y-161664836D01*
X63293164Y-161643401D01*
X63265157Y-161631800D01*
X62946850Y-161631800D01*
X62927800Y-161650850D01*
X62927800Y-162280200D01*
X62947800Y-162280200D01*
X62947800Y-162635800D01*
X62927800Y-162635800D01*
X62927800Y-163265150D01*
X62946850Y-163284200D01*
X63265157Y-163284200D01*
X63293164Y-163272599D01*
X63314599Y-163251164D01*
X63322200Y-163232814D01*
X63322200Y-163296600D01*
X62153800Y-163296600D01*
X62153800Y-162654850D01*
X62173800Y-162654850D01*
X62173800Y-163223157D01*
X62185401Y-163251164D01*
X62206836Y-163272599D01*
X62234843Y-163284200D01*
X62553150Y-163284200D01*
X62572200Y-163265150D01*
X62572200Y-162635800D01*
X62192850Y-162635800D01*
X62173800Y-162654850D01*
X62153800Y-162654850D01*
X62153800Y-161692843D01*
X62173800Y-161692843D01*
X62173800Y-162261150D01*
X62192850Y-162280200D01*
X62572200Y-162280200D01*
X62572200Y-161650850D01*
X62553150Y-161631800D01*
X62234843Y-161631800D01*
X62206836Y-161643401D01*
X62185401Y-161664836D01*
X62173800Y-161692843D01*
X62153800Y-161692843D01*
X62153800Y-161620200D01*
X62585600Y-161620200D01*
X62615246Y-161614197D01*
X62640221Y-161597132D01*
X62656589Y-161571695D01*
X62661800Y-161544000D01*
X62661800Y-160460650D01*
X62796400Y-160460650D01*
X62796400Y-160728557D01*
X62808001Y-160756564D01*
X62829436Y-160777999D01*
X62857443Y-160789600D01*
X63176150Y-160789600D01*
X63195200Y-160770550D01*
X63195200Y-160441600D01*
X63550800Y-160441600D01*
X63550800Y-160770550D01*
X63569850Y-160789600D01*
X63888557Y-160789600D01*
X63916564Y-160777999D01*
X63937999Y-160756564D01*
X63949600Y-160728557D01*
X63949600Y-160460650D01*
X63930550Y-160441600D01*
X63550800Y-160441600D01*
X63195200Y-160441600D01*
X62815450Y-160441600D01*
X62796400Y-160460650D01*
X62661800Y-160460650D01*
X62661800Y-160089850D01*
X64554100Y-160089850D01*
X64554100Y-160708257D01*
X64565701Y-160736264D01*
X64587136Y-160757699D01*
X64615143Y-160769300D01*
X65335150Y-160769300D01*
X65354200Y-160750250D01*
X65354200Y-160070800D01*
X65709800Y-160070800D01*
X65709800Y-160750250D01*
X65728850Y-160769300D01*
X66448857Y-160769300D01*
X66476864Y-160757699D01*
X66498299Y-160736264D01*
X66509900Y-160708257D01*
X66509900Y-160089850D01*
X66490850Y-160070800D01*
X65709800Y-160070800D01*
X65354200Y-160070800D01*
X64573150Y-160070800D01*
X64554100Y-160089850D01*
X62661800Y-160089850D01*
X62661800Y-159799043D01*
X62796400Y-159799043D01*
X62796400Y-160066950D01*
X62815450Y-160086000D01*
X63195200Y-160086000D01*
X63195200Y-159757050D01*
X63550800Y-159757050D01*
X63550800Y-160086000D01*
X63930550Y-160086000D01*
X63949600Y-160066950D01*
X63949600Y-159799043D01*
X63937999Y-159771036D01*
X63916564Y-159749601D01*
X63888557Y-159738000D01*
X63569850Y-159738000D01*
X63550800Y-159757050D01*
X63195200Y-159757050D01*
X63176150Y-159738000D01*
X62857443Y-159738000D01*
X62829436Y-159749601D01*
X62808001Y-159771036D01*
X62796400Y-159799043D01*
X62661800Y-159799043D01*
X62661800Y-159639000D01*
X64363600Y-159639000D01*
X64393246Y-159632997D01*
X64418221Y-159615932D01*
X64434589Y-159590495D01*
X64439800Y-159562800D01*
X64439800Y-159077743D01*
X64554100Y-159077743D01*
X64554100Y-159696150D01*
X64573150Y-159715200D01*
X65354200Y-159715200D01*
X65354200Y-159035750D01*
X65709800Y-159035750D01*
X65709800Y-159715200D01*
X66490850Y-159715200D01*
X66509900Y-159696150D01*
X66509900Y-159077743D01*
X66498299Y-159049736D01*
X66476864Y-159028301D01*
X66448857Y-159016700D01*
X65728850Y-159016700D01*
X65709800Y-159035750D01*
X65354200Y-159035750D01*
X65335150Y-159016700D01*
X64615143Y-159016700D01*
X64587136Y-159028301D01*
X64565701Y-159049736D01*
X64554100Y-159077743D01*
X64439800Y-159077743D01*
X64439800Y-158978600D01*
X69310436Y-158978600D01*
X72110600Y-161778764D01*
G36*
X60236100Y-159696150D02*
X60255150Y-159715200D01*
X61036200Y-159715200D01*
X61036200Y-159695200D01*
X61391800Y-159695200D01*
X61391800Y-159715200D01*
X61411800Y-159715200D01*
X61411800Y-160070800D01*
X61391800Y-160070800D01*
X61391800Y-160750250D01*
X61410850Y-160769300D01*
X62130857Y-160769300D01*
X62153800Y-160759797D01*
X62153800Y-161213800D01*
X61849000Y-161213800D01*
X61819354Y-161219803D01*
X61794379Y-161236868D01*
X61778011Y-161262305D01*
X61772800Y-161290000D01*
X61772800Y-161634966D01*
X61765157Y-161631800D01*
X61446850Y-161631800D01*
X61427800Y-161650850D01*
X61427800Y-162280200D01*
X61447800Y-162280200D01*
X61447800Y-162635800D01*
X61427800Y-162635800D01*
X61427800Y-163265150D01*
X61446850Y-163284200D01*
X61765157Y-163284200D01*
X61772800Y-163281034D01*
X61772800Y-164084000D01*
X61778803Y-164113646D01*
X61795868Y-164138621D01*
X61821305Y-164154989D01*
X61849000Y-164160200D01*
X65151000Y-164160200D01*
X65180646Y-164154197D01*
X65205621Y-164137132D01*
X65221989Y-164111695D01*
X65227200Y-164084000D01*
X65227200Y-163281034D01*
X65234843Y-163284200D01*
X65553150Y-163284200D01*
X65572200Y-163265150D01*
X65572200Y-162635800D01*
X65927800Y-162635800D01*
X65927800Y-163265150D01*
X65946850Y-163284200D01*
X66265157Y-163284200D01*
X66293164Y-163272599D01*
X66314599Y-163251164D01*
X66326200Y-163223157D01*
X66326200Y-162654850D01*
X66307150Y-162635800D01*
X65927800Y-162635800D01*
X65572200Y-162635800D01*
X65552200Y-162635800D01*
X65552200Y-162280200D01*
X65572200Y-162280200D01*
X65572200Y-161650850D01*
X65927800Y-161650850D01*
X65927800Y-162280200D01*
X66307150Y-162280200D01*
X66326200Y-162261150D01*
X66326200Y-161692843D01*
X66314599Y-161664836D01*
X66293164Y-161643401D01*
X66265157Y-161631800D01*
X65946850Y-161631800D01*
X65927800Y-161650850D01*
X65572200Y-161650850D01*
X65553150Y-161631800D01*
X65234843Y-161631800D01*
X65227200Y-161634966D01*
X65227200Y-161493200D01*
X67233800Y-161493200D01*
X67233800Y-169926000D01*
X67239803Y-169955646D01*
X67256868Y-169980621D01*
X67282305Y-169996989D01*
X67310000Y-170002200D01*
X72059800Y-170002200D01*
X72059800Y-173913800D01*
X66690700Y-173913800D01*
X66690700Y-172216850D01*
X66671650Y-172197800D01*
X66093800Y-172197800D01*
X66093800Y-172217800D01*
X65738200Y-172217800D01*
X65738200Y-172197800D01*
X65160350Y-172197800D01*
X65141300Y-172216850D01*
X65141300Y-173913800D01*
X65100200Y-173913800D01*
X65100200Y-172066850D01*
X68183400Y-172066850D01*
X68183400Y-172685257D01*
X68195001Y-172713264D01*
X68216436Y-172734699D01*
X68244443Y-172746300D01*
X69862350Y-172746300D01*
X69881400Y-172727250D01*
X69881400Y-172047800D01*
X70237000Y-172047800D01*
X70237000Y-172727250D01*
X70256050Y-172746300D01*
X71873957Y-172746300D01*
X71901964Y-172734699D01*
X71923399Y-172713264D01*
X71935000Y-172685257D01*
X71935000Y-172066850D01*
X71915950Y-172047800D01*
X70237000Y-172047800D01*
X69881400Y-172047800D01*
X68202450Y-172047800D01*
X68183400Y-172066850D01*
X65100200Y-172066850D01*
X65100200Y-170129200D01*
X65141300Y-170129200D01*
X65141300Y-171823150D01*
X65160350Y-171842200D01*
X65738200Y-171842200D01*
X65738200Y-170057850D01*
X66093800Y-170057850D01*
X66093800Y-171842200D01*
X66671650Y-171842200D01*
X66690700Y-171823150D01*
X66690700Y-171054743D01*
X68183400Y-171054743D01*
X68183400Y-171673150D01*
X68202450Y-171692200D01*
X69881400Y-171692200D01*
X69881400Y-171012750D01*
X70237000Y-171012750D01*
X70237000Y-171692200D01*
X71915950Y-171692200D01*
X71935000Y-171673150D01*
X71935000Y-171054743D01*
X71923399Y-171026736D01*
X71901964Y-171005301D01*
X71873957Y-170993700D01*
X70256050Y-170993700D01*
X70237000Y-171012750D01*
X69881400Y-171012750D01*
X69862350Y-170993700D01*
X68244443Y-170993700D01*
X68216436Y-171005301D01*
X68195001Y-171026736D01*
X68183400Y-171054743D01*
X66690700Y-171054743D01*
X66690700Y-170099843D01*
X66679099Y-170071836D01*
X66657664Y-170050401D01*
X66629657Y-170038800D01*
X66112850Y-170038800D01*
X66093800Y-170057850D01*
X65738200Y-170057850D01*
X65719150Y-170038800D01*
X65608200Y-170038800D01*
X65608200Y-165989000D01*
X65602197Y-165959354D01*
X65585132Y-165934379D01*
X65559695Y-165918011D01*
X65532000Y-165912800D01*
X60274200Y-165912800D01*
X60274200Y-163322000D01*
X60268197Y-163292354D01*
X60251132Y-163267379D01*
X60225695Y-163251011D01*
X60198000Y-163245800D01*
X58623200Y-163245800D01*
X58623200Y-162654850D01*
X60673800Y-162654850D01*
X60673800Y-163223157D01*
X60685401Y-163251164D01*
X60706836Y-163272599D01*
X60734843Y-163284200D01*
X61053150Y-163284200D01*
X61072200Y-163265150D01*
X61072200Y-162635800D01*
X60692850Y-162635800D01*
X60673800Y-162654850D01*
X58623200Y-162654850D01*
X58623200Y-161692843D01*
X60673800Y-161692843D01*
X60673800Y-162261150D01*
X60692850Y-162280200D01*
X61072200Y-162280200D01*
X61072200Y-161650850D01*
X61053150Y-161631800D01*
X60734843Y-161631800D01*
X60706836Y-161643401D01*
X60685401Y-161664836D01*
X60673800Y-161692843D01*
X58623200Y-161692843D01*
X58623200Y-160789600D01*
X58858150Y-160789600D01*
X58877200Y-160770550D01*
X58877200Y-160441600D01*
X59232800Y-160441600D01*
X59232800Y-160770550D01*
X59251850Y-160789600D01*
X59570557Y-160789600D01*
X59598564Y-160777999D01*
X59619999Y-160756564D01*
X59631600Y-160728557D01*
X59631600Y-160460650D01*
X59612550Y-160441600D01*
X59232800Y-160441600D01*
X58877200Y-160441600D01*
X58857200Y-160441600D01*
X58857200Y-160089850D01*
X60236100Y-160089850D01*
X60236100Y-160708257D01*
X60247701Y-160736264D01*
X60269136Y-160757699D01*
X60297143Y-160769300D01*
X61017150Y-160769300D01*
X61036200Y-160750250D01*
X61036200Y-160070800D01*
X60255150Y-160070800D01*
X60236100Y-160089850D01*
X58857200Y-160089850D01*
X58857200Y-160086000D01*
X58877200Y-160086000D01*
X58877200Y-159757050D01*
X59232800Y-159757050D01*
X59232800Y-160086000D01*
X59612550Y-160086000D01*
X59631600Y-160066950D01*
X59631600Y-159799043D01*
X59619999Y-159771036D01*
X59598564Y-159749601D01*
X59570557Y-159738000D01*
X59251850Y-159738000D01*
X59232800Y-159757050D01*
X58877200Y-159757050D01*
X58858150Y-159738000D01*
X58623200Y-159738000D01*
X58623200Y-159715200D01*
X59817000Y-159715200D01*
X59846646Y-159709197D01*
X59871621Y-159692132D01*
X59887989Y-159666695D01*
X59893200Y-159639000D01*
X59893200Y-159080200D01*
X60236100Y-159080200D01*
X60236100Y-159696150D01*
X60236100Y-159696150D01*
G37*
X60236100Y-159696150D02*
X60255150Y-159715200D01*
X61036200Y-159715200D01*
X61036200Y-159695200D01*
X61391800Y-159695200D01*
X61391800Y-159715200D01*
X61411800Y-159715200D01*
X61411800Y-160070800D01*
X61391800Y-160070800D01*
X61391800Y-160750250D01*
X61410850Y-160769300D01*
X62130857Y-160769300D01*
X62153800Y-160759797D01*
X62153800Y-161213800D01*
X61849000Y-161213800D01*
X61819354Y-161219803D01*
X61794379Y-161236868D01*
X61778011Y-161262305D01*
X61772800Y-161290000D01*
X61772800Y-161634966D01*
X61765157Y-161631800D01*
X61446850Y-161631800D01*
X61427800Y-161650850D01*
X61427800Y-162280200D01*
X61447800Y-162280200D01*
X61447800Y-162635800D01*
X61427800Y-162635800D01*
X61427800Y-163265150D01*
X61446850Y-163284200D01*
X61765157Y-163284200D01*
X61772800Y-163281034D01*
X61772800Y-164084000D01*
X61778803Y-164113646D01*
X61795868Y-164138621D01*
X61821305Y-164154989D01*
X61849000Y-164160200D01*
X65151000Y-164160200D01*
X65180646Y-164154197D01*
X65205621Y-164137132D01*
X65221989Y-164111695D01*
X65227200Y-164084000D01*
X65227200Y-163281034D01*
X65234843Y-163284200D01*
X65553150Y-163284200D01*
X65572200Y-163265150D01*
X65572200Y-162635800D01*
X65927800Y-162635800D01*
X65927800Y-163265150D01*
X65946850Y-163284200D01*
X66265157Y-163284200D01*
X66293164Y-163272599D01*
X66314599Y-163251164D01*
X66326200Y-163223157D01*
X66326200Y-162654850D01*
X66307150Y-162635800D01*
X65927800Y-162635800D01*
X65572200Y-162635800D01*
X65552200Y-162635800D01*
X65552200Y-162280200D01*
X65572200Y-162280200D01*
X65572200Y-161650850D01*
X65927800Y-161650850D01*
X65927800Y-162280200D01*
X66307150Y-162280200D01*
X66326200Y-162261150D01*
X66326200Y-161692843D01*
X66314599Y-161664836D01*
X66293164Y-161643401D01*
X66265157Y-161631800D01*
X65946850Y-161631800D01*
X65927800Y-161650850D01*
X65572200Y-161650850D01*
X65553150Y-161631800D01*
X65234843Y-161631800D01*
X65227200Y-161634966D01*
X65227200Y-161493200D01*
X67233800Y-161493200D01*
X67233800Y-169926000D01*
X67239803Y-169955646D01*
X67256868Y-169980621D01*
X67282305Y-169996989D01*
X67310000Y-170002200D01*
X72059800Y-170002200D01*
X72059800Y-173913800D01*
X66690700Y-173913800D01*
X66690700Y-172216850D01*
X66671650Y-172197800D01*
X66093800Y-172197800D01*
X66093800Y-172217800D01*
X65738200Y-172217800D01*
X65738200Y-172197800D01*
X65160350Y-172197800D01*
X65141300Y-172216850D01*
X65141300Y-173913800D01*
X65100200Y-173913800D01*
X65100200Y-172066850D01*
X68183400Y-172066850D01*
X68183400Y-172685257D01*
X68195001Y-172713264D01*
X68216436Y-172734699D01*
X68244443Y-172746300D01*
X69862350Y-172746300D01*
X69881400Y-172727250D01*
X69881400Y-172047800D01*
X70237000Y-172047800D01*
X70237000Y-172727250D01*
X70256050Y-172746300D01*
X71873957Y-172746300D01*
X71901964Y-172734699D01*
X71923399Y-172713264D01*
X71935000Y-172685257D01*
X71935000Y-172066850D01*
X71915950Y-172047800D01*
X70237000Y-172047800D01*
X69881400Y-172047800D01*
X68202450Y-172047800D01*
X68183400Y-172066850D01*
X65100200Y-172066850D01*
X65100200Y-170129200D01*
X65141300Y-170129200D01*
X65141300Y-171823150D01*
X65160350Y-171842200D01*
X65738200Y-171842200D01*
X65738200Y-170057850D01*
X66093800Y-170057850D01*
X66093800Y-171842200D01*
X66671650Y-171842200D01*
X66690700Y-171823150D01*
X66690700Y-171054743D01*
X68183400Y-171054743D01*
X68183400Y-171673150D01*
X68202450Y-171692200D01*
X69881400Y-171692200D01*
X69881400Y-171012750D01*
X70237000Y-171012750D01*
X70237000Y-171692200D01*
X71915950Y-171692200D01*
X71935000Y-171673150D01*
X71935000Y-171054743D01*
X71923399Y-171026736D01*
X71901964Y-171005301D01*
X71873957Y-170993700D01*
X70256050Y-170993700D01*
X70237000Y-171012750D01*
X69881400Y-171012750D01*
X69862350Y-170993700D01*
X68244443Y-170993700D01*
X68216436Y-171005301D01*
X68195001Y-171026736D01*
X68183400Y-171054743D01*
X66690700Y-171054743D01*
X66690700Y-170099843D01*
X66679099Y-170071836D01*
X66657664Y-170050401D01*
X66629657Y-170038800D01*
X66112850Y-170038800D01*
X66093800Y-170057850D01*
X65738200Y-170057850D01*
X65719150Y-170038800D01*
X65608200Y-170038800D01*
X65608200Y-165989000D01*
X65602197Y-165959354D01*
X65585132Y-165934379D01*
X65559695Y-165918011D01*
X65532000Y-165912800D01*
X60274200Y-165912800D01*
X60274200Y-163322000D01*
X60268197Y-163292354D01*
X60251132Y-163267379D01*
X60225695Y-163251011D01*
X60198000Y-163245800D01*
X58623200Y-163245800D01*
X58623200Y-162654850D01*
X60673800Y-162654850D01*
X60673800Y-163223157D01*
X60685401Y-163251164D01*
X60706836Y-163272599D01*
X60734843Y-163284200D01*
X61053150Y-163284200D01*
X61072200Y-163265150D01*
X61072200Y-162635800D01*
X60692850Y-162635800D01*
X60673800Y-162654850D01*
X58623200Y-162654850D01*
X58623200Y-161692843D01*
X60673800Y-161692843D01*
X60673800Y-162261150D01*
X60692850Y-162280200D01*
X61072200Y-162280200D01*
X61072200Y-161650850D01*
X61053150Y-161631800D01*
X60734843Y-161631800D01*
X60706836Y-161643401D01*
X60685401Y-161664836D01*
X60673800Y-161692843D01*
X58623200Y-161692843D01*
X58623200Y-160789600D01*
X58858150Y-160789600D01*
X58877200Y-160770550D01*
X58877200Y-160441600D01*
X59232800Y-160441600D01*
X59232800Y-160770550D01*
X59251850Y-160789600D01*
X59570557Y-160789600D01*
X59598564Y-160777999D01*
X59619999Y-160756564D01*
X59631600Y-160728557D01*
X59631600Y-160460650D01*
X59612550Y-160441600D01*
X59232800Y-160441600D01*
X58877200Y-160441600D01*
X58857200Y-160441600D01*
X58857200Y-160089850D01*
X60236100Y-160089850D01*
X60236100Y-160708257D01*
X60247701Y-160736264D01*
X60269136Y-160757699D01*
X60297143Y-160769300D01*
X61017150Y-160769300D01*
X61036200Y-160750250D01*
X61036200Y-160070800D01*
X60255150Y-160070800D01*
X60236100Y-160089850D01*
X58857200Y-160089850D01*
X58857200Y-160086000D01*
X58877200Y-160086000D01*
X58877200Y-159757050D01*
X59232800Y-159757050D01*
X59232800Y-160086000D01*
X59612550Y-160086000D01*
X59631600Y-160066950D01*
X59631600Y-159799043D01*
X59619999Y-159771036D01*
X59598564Y-159749601D01*
X59570557Y-159738000D01*
X59251850Y-159738000D01*
X59232800Y-159757050D01*
X58877200Y-159757050D01*
X58858150Y-159738000D01*
X58623200Y-159738000D01*
X58623200Y-159715200D01*
X59817000Y-159715200D01*
X59846646Y-159709197D01*
X59871621Y-159692132D01*
X59887989Y-159666695D01*
X59893200Y-159639000D01*
X59893200Y-159080200D01*
X60236100Y-159080200D01*
X60236100Y-159696150D01*
G36*
X88950800Y-156959300D02*
X87261700Y-156959300D01*
X87261700Y-156509600D01*
X87347803Y-156509600D01*
X87349901Y-156514664D01*
X87371336Y-156536099D01*
X87399343Y-156547700D01*
X87554200Y-156547700D01*
X87573250Y-156528650D01*
X87573250Y-156489062D01*
X87703284Y-156463197D01*
X87890750Y-156337936D01*
X87890750Y-156528650D01*
X87909800Y-156547700D01*
X88064657Y-156547700D01*
X88092664Y-156536099D01*
X88114099Y-156514664D01*
X88125700Y-156486657D01*
X88125700Y-156096850D01*
X88106650Y-156077800D01*
X88044233Y-156077800D01*
X88079600Y-155900000D01*
X88044233Y-155722200D01*
X88106650Y-155722200D01*
X88125700Y-155703150D01*
X88125700Y-155313343D01*
X88114099Y-155285336D01*
X88092664Y-155263901D01*
X88064657Y-155252300D01*
X87909800Y-155252300D01*
X87890750Y-155271350D01*
X87890750Y-155462064D01*
X87703284Y-155336803D01*
X87573250Y-155310938D01*
X87573250Y-155271350D01*
X87554200Y-155252300D01*
X87399343Y-155252300D01*
X87371336Y-155263901D01*
X87349901Y-155285336D01*
X87347803Y-155290400D01*
X87261700Y-155290400D01*
X87261700Y-154889200D01*
X88950800Y-154889200D01*
X88950800Y-156959300D01*
X88950800Y-156959300D01*
G37*
X88950800Y-156959300D02*
X87261700Y-156959300D01*
X87261700Y-156509600D01*
X87347803Y-156509600D01*
X87349901Y-156514664D01*
X87371336Y-156536099D01*
X87399343Y-156547700D01*
X87554200Y-156547700D01*
X87573250Y-156528650D01*
X87573250Y-156489062D01*
X87703284Y-156463197D01*
X87890750Y-156337936D01*
X87890750Y-156528650D01*
X87909800Y-156547700D01*
X88064657Y-156547700D01*
X88092664Y-156536099D01*
X88114099Y-156514664D01*
X88125700Y-156486657D01*
X88125700Y-156096850D01*
X88106650Y-156077800D01*
X88044233Y-156077800D01*
X88079600Y-155900000D01*
X88044233Y-155722200D01*
X88106650Y-155722200D01*
X88125700Y-155703150D01*
X88125700Y-155313343D01*
X88114099Y-155285336D01*
X88092664Y-155263901D01*
X88064657Y-155252300D01*
X87909800Y-155252300D01*
X87890750Y-155271350D01*
X87890750Y-155462064D01*
X87703284Y-155336803D01*
X87573250Y-155310938D01*
X87573250Y-155271350D01*
X87554200Y-155252300D01*
X87399343Y-155252300D01*
X87371336Y-155263901D01*
X87349901Y-155285336D01*
X87347803Y-155290400D01*
X87261700Y-155290400D01*
X87261700Y-154889200D01*
X88950800Y-154889200D01*
X88950800Y-156959300D01*
G36*
X86791800Y-155290400D02*
X86592197Y-155290400D01*
X86590099Y-155285336D01*
X86568664Y-155263901D01*
X86540657Y-155252300D01*
X86385800Y-155252300D01*
X86366750Y-155271350D01*
X86366750Y-155310938D01*
X86236716Y-155336803D01*
X86049250Y-155462064D01*
X86049250Y-155271350D01*
X86030200Y-155252300D01*
X85875343Y-155252300D01*
X85847336Y-155263901D01*
X85825901Y-155285336D01*
X85814300Y-155313343D01*
X85814300Y-155703150D01*
X85833350Y-155722200D01*
X85895767Y-155722200D01*
X85860400Y-155900000D01*
X85895767Y-156077800D01*
X85833350Y-156077800D01*
X85814300Y-156096850D01*
X85814300Y-156486657D01*
X85825901Y-156514664D01*
X85847336Y-156536099D01*
X85875343Y-156547700D01*
X86030200Y-156547700D01*
X86049250Y-156528650D01*
X86049250Y-156337936D01*
X86236716Y-156463197D01*
X86366750Y-156489062D01*
X86366750Y-156528650D01*
X86385800Y-156547700D01*
X86540657Y-156547700D01*
X86568664Y-156536099D01*
X86590099Y-156514664D01*
X86592197Y-156509600D01*
X86791800Y-156509600D01*
X86791800Y-156959300D01*
X85039200Y-156959300D01*
X85039200Y-154889200D01*
X86791800Y-154889200D01*
X86791800Y-155290400D01*
X86791800Y-155290400D01*
G37*
X86791800Y-155290400D02*
X86592197Y-155290400D01*
X86590099Y-155285336D01*
X86568664Y-155263901D01*
X86540657Y-155252300D01*
X86385800Y-155252300D01*
X86366750Y-155271350D01*
X86366750Y-155310938D01*
X86236716Y-155336803D01*
X86049250Y-155462064D01*
X86049250Y-155271350D01*
X86030200Y-155252300D01*
X85875343Y-155252300D01*
X85847336Y-155263901D01*
X85825901Y-155285336D01*
X85814300Y-155313343D01*
X85814300Y-155703150D01*
X85833350Y-155722200D01*
X85895767Y-155722200D01*
X85860400Y-155900000D01*
X85895767Y-156077800D01*
X85833350Y-156077800D01*
X85814300Y-156096850D01*
X85814300Y-156486657D01*
X85825901Y-156514664D01*
X85847336Y-156536099D01*
X85875343Y-156547700D01*
X86030200Y-156547700D01*
X86049250Y-156528650D01*
X86049250Y-156337936D01*
X86236716Y-156463197D01*
X86366750Y-156489062D01*
X86366750Y-156528650D01*
X86385800Y-156547700D01*
X86540657Y-156547700D01*
X86568664Y-156536099D01*
X86590099Y-156514664D01*
X86592197Y-156509600D01*
X86791800Y-156509600D01*
X86791800Y-156959300D01*
X85039200Y-156959300D01*
X85039200Y-154889200D01*
X86791800Y-154889200D01*
X86791800Y-155290400D01*
G36*
X65201800Y-167952037D02*
X65193164Y-167943401D01*
X65165157Y-167931800D01*
X63696850Y-167931800D01*
X63677800Y-167950850D01*
X63677800Y-168580200D01*
X63697800Y-168580200D01*
X63697800Y-168935800D01*
X63677800Y-168935800D01*
X63677800Y-169565150D01*
X63696850Y-169584200D01*
X65165157Y-169584200D01*
X65193164Y-169572599D01*
X65201800Y-169563963D01*
X65201800Y-169595800D01*
X61734700Y-169595800D01*
X61734700Y-168954850D01*
X61773800Y-168954850D01*
X61773800Y-169523157D01*
X61785401Y-169551164D01*
X61806836Y-169572599D01*
X61834843Y-169584200D01*
X63303150Y-169584200D01*
X63322200Y-169565150D01*
X63322200Y-168935800D01*
X61792850Y-168935800D01*
X61773800Y-168954850D01*
X61734700Y-168954850D01*
X61734700Y-167992843D01*
X61773800Y-167992843D01*
X61773800Y-168561150D01*
X61792850Y-168580200D01*
X63322200Y-168580200D01*
X63322200Y-167950850D01*
X63303150Y-167931800D01*
X61834843Y-167931800D01*
X61806836Y-167943401D01*
X61785401Y-167964836D01*
X61773800Y-167992843D01*
X61734700Y-167992843D01*
X61734700Y-167347900D01*
X65201800Y-167347900D01*
X65201800Y-167952037D01*
X65201800Y-167952037D01*
G37*
X65201800Y-167952037D02*
X65193164Y-167943401D01*
X65165157Y-167931800D01*
X63696850Y-167931800D01*
X63677800Y-167950850D01*
X63677800Y-168580200D01*
X63697800Y-168580200D01*
X63697800Y-168935800D01*
X63677800Y-168935800D01*
X63677800Y-169565150D01*
X63696850Y-169584200D01*
X65165157Y-169584200D01*
X65193164Y-169572599D01*
X65201800Y-169563963D01*
X65201800Y-169595800D01*
X61734700Y-169595800D01*
X61734700Y-168954850D01*
X61773800Y-168954850D01*
X61773800Y-169523157D01*
X61785401Y-169551164D01*
X61806836Y-169572599D01*
X61834843Y-169584200D01*
X63303150Y-169584200D01*
X63322200Y-169565150D01*
X63322200Y-168935800D01*
X61792850Y-168935800D01*
X61773800Y-168954850D01*
X61734700Y-168954850D01*
X61734700Y-167992843D01*
X61773800Y-167992843D01*
X61773800Y-168561150D01*
X61792850Y-168580200D01*
X63322200Y-168580200D01*
X63322200Y-167950850D01*
X63303150Y-167931800D01*
X61834843Y-167931800D01*
X61806836Y-167943401D01*
X61785401Y-167964836D01*
X61773800Y-167992843D01*
X61734700Y-167992843D01*
X61734700Y-167347900D01*
X65201800Y-167347900D01*
X65201800Y-167952037D01*
M02*
