G04 #@! TF.FileFunction,Soldermask,Top*
%FSLAX46Y46*%
G04 Gerber Fmt 4.6, Leading zero omitted, Abs format (unit mm)*
G04 Created by KiCad (PCBNEW 4.0.7) date 01/11/18 09:06:53*
%MOMM*%
%LPD*%
G01*
G04 APERTURE LIST*
%ADD10C,0.150000*%
%ADD11R,1.550000X1.300000*%
%ADD12R,0.635000X1.143000*%
%ADD13R,2.500000X1.100000*%
%ADD14O,2.500000X1.100000*%
%ADD15O,1.100000X2.500000*%
%ADD16R,1.060000X0.650000*%
%ADD17R,0.300000X1.450000*%
%ADD18R,1.450000X0.300000*%
%ADD19C,7.000240*%
%ADD20C,2.200000*%
%ADD21C,3.250000*%
%ADD22C,1.600000*%
%ADD23R,1.700000X1.700000*%
%ADD24O,1.700000X1.700000*%
%ADD25R,1.524000X1.524000*%
%ADD26C,1.524000*%
%ADD27C,7.000000*%
%ADD28R,2.400000X1.500000*%
%ADD29R,1.100000X0.600000*%
%ADD30R,1.193800X1.803400*%
%ADD31R,3.300000X1.500000*%
%ADD32R,1.000000X1.500000*%
%ADD33R,1.143000X0.635000*%
%ADD34R,1.400000X1.200000*%
%ADD35R,1.400000X2.800000*%
%ADD36R,0.760000X2.400000*%
%ADD37O,1.574800X3.048000*%
%ADD38O,1.600200X3.048000*%
%ADD39R,1.500000X1.550000*%
%ADD40C,1.550000*%
%ADD41R,0.400000X1.350000*%
%ADD42C,1.250000*%
%ADD43R,0.889000X1.397000*%
%ADD44R,1.397000X0.889000*%
%ADD45R,1.397000X3.810000*%
%ADD46R,1.000000X0.900000*%
%ADD47R,2.209800X2.794000*%
%ADD48R,2.794000X2.794000*%
%ADD49C,1.701800*%
%ADD50R,1.600200X1.803400*%
%ADD51R,0.899200X1.000800*%
%ADD52R,1.000800X0.899200*%
%ADD53R,1.803400X1.600200*%
%ADD54R,3.599200X1.600200*%
%ADD55C,1.750000*%
%ADD56C,1.850000*%
%ADD57R,0.450000X1.450000*%
%ADD58R,0.900000X1.000000*%
%ADD59C,1.500000*%
G04 APERTURE END LIST*
D10*
D11*
X94064000Y-111470000D03*
X94064000Y-106970000D03*
X102024000Y-106970000D03*
X102024000Y-111470000D03*
D12*
X83400900Y-142417800D03*
X84924900Y-142417800D03*
X83413600Y-143979900D03*
X84937600Y-143979900D03*
D13*
X110809000Y-179070000D03*
D14*
X110809000Y-177070000D03*
X110809000Y-175070000D03*
X110809000Y-173070000D03*
X110809000Y-171070000D03*
X110809000Y-169070000D03*
X110809000Y-167070000D03*
X110809000Y-165070000D03*
X95409000Y-165070000D03*
X95509000Y-167070000D03*
X95409000Y-169070000D03*
X95409000Y-171070000D03*
X95409000Y-173070000D03*
X95409000Y-175070000D03*
X95409000Y-177070000D03*
X95409000Y-179070000D03*
D15*
X108119000Y-163370000D03*
X106119000Y-163370000D03*
X104119000Y-163370000D03*
X102119000Y-163370000D03*
X100119000Y-163370000D03*
X98119000Y-163370000D03*
D16*
X104060000Y-152070000D03*
X104060000Y-151120000D03*
X104060000Y-150170000D03*
X101860000Y-150170000D03*
X101860000Y-152070000D03*
D17*
X61353700Y-145320000D03*
X61861700Y-145320000D03*
X62357000Y-145320000D03*
X62852300Y-145320000D03*
X63360300Y-145320000D03*
X63855600Y-145320000D03*
X64350900Y-145320000D03*
X64858900Y-145320000D03*
X65354200Y-145320000D03*
X65849500Y-145320000D03*
X66357500Y-145320000D03*
X66852800Y-145320000D03*
X67348100Y-145320000D03*
X67856100Y-145320000D03*
X68351400Y-145320000D03*
X68846700Y-145320000D03*
X69354700Y-145320000D03*
X69850000Y-145320000D03*
X70358000Y-145320000D03*
X70853300Y-145320000D03*
X71361300Y-145320000D03*
X71856600Y-145320000D03*
X72351900Y-145320000D03*
X72859900Y-145320000D03*
X73355200Y-145320000D03*
X73850500Y-145320000D03*
X74358500Y-145320000D03*
X74853800Y-145320000D03*
X75349100Y-145320000D03*
X75857100Y-145320000D03*
X76352400Y-145320000D03*
X76847700Y-145320000D03*
X77355700Y-145320000D03*
X77851000Y-145320000D03*
X78346300Y-145320000D03*
X78854300Y-145320000D03*
D18*
X80804000Y-128866900D03*
X80804000Y-128371600D03*
X80804000Y-127876300D03*
X80804000Y-127368300D03*
X80804000Y-126873000D03*
X80804000Y-126377700D03*
X80804000Y-125869700D03*
X59404000Y-128371600D03*
X59404000Y-128866900D03*
X59404000Y-129374900D03*
X59404000Y-129870200D03*
X59404000Y-130365500D03*
X59404000Y-130873500D03*
X59404000Y-131368800D03*
X59404000Y-131864100D03*
X59404000Y-132372100D03*
X59404000Y-132867400D03*
X59404000Y-133362700D03*
X59404000Y-133870700D03*
X59404000Y-134366000D03*
X59404000Y-134874000D03*
X59404000Y-135369300D03*
X59404000Y-135877300D03*
X59404000Y-136372600D03*
X59404000Y-136867900D03*
X59404000Y-137375900D03*
X59404000Y-137871200D03*
X59404000Y-138366500D03*
X59404000Y-138874500D03*
X59404000Y-139369800D03*
X59404000Y-139865100D03*
X59404000Y-140373100D03*
X59404000Y-140868400D03*
X59404000Y-141363700D03*
X59404000Y-141871700D03*
X59404000Y-142367000D03*
X59404000Y-142862300D03*
X59404000Y-143370300D03*
X80804000Y-143370300D03*
X80804000Y-142862300D03*
X80804000Y-142367000D03*
X80804000Y-141871700D03*
X80804000Y-141363700D03*
X80804000Y-140868400D03*
X80804000Y-140373100D03*
X80804000Y-139865100D03*
X80804000Y-139369800D03*
X80804000Y-138874500D03*
X80804000Y-138366500D03*
X80804000Y-137871200D03*
X80804000Y-137375900D03*
X80804000Y-136867900D03*
X80804000Y-136372600D03*
X80804000Y-135877300D03*
X80804000Y-135369300D03*
X80804000Y-134874000D03*
X80804000Y-134366000D03*
X80804000Y-133870700D03*
X80804000Y-133362700D03*
X80804000Y-132867400D03*
X80804000Y-132372100D03*
X80804000Y-131864100D03*
X80804000Y-131368800D03*
X80804000Y-130873500D03*
X80804000Y-130365500D03*
X80804000Y-129870200D03*
X80804000Y-129374900D03*
D17*
X76352400Y-123920000D03*
X75857100Y-123920000D03*
X75349100Y-123920000D03*
X74853800Y-123920000D03*
X74358500Y-123920000D03*
X73850500Y-123920000D03*
X73355200Y-123920000D03*
X72859900Y-123920000D03*
X72351900Y-123920000D03*
X71856600Y-123920000D03*
X71361300Y-123920000D03*
X70853300Y-123920000D03*
X70358000Y-123920000D03*
X69850000Y-123920000D03*
X69354700Y-123920000D03*
X68846700Y-123920000D03*
X68351400Y-123920000D03*
X67856100Y-123920000D03*
X67348100Y-123920000D03*
X66852800Y-123920000D03*
X66357500Y-123920000D03*
X65849500Y-123920000D03*
X65354200Y-123920000D03*
X64858900Y-123920000D03*
X64350900Y-123920000D03*
X63855600Y-123920000D03*
X63360300Y-123920000D03*
X62852300Y-123920000D03*
X62357000Y-123920000D03*
X61861700Y-123920000D03*
X61353700Y-123920000D03*
X78854300Y-123920000D03*
X78346300Y-123920000D03*
X77851000Y-123920000D03*
X77355700Y-123920000D03*
X76847700Y-123920000D03*
D18*
X59404000Y-125869700D03*
X59404000Y-126377700D03*
X59404000Y-126873000D03*
X59404000Y-127368300D03*
X59404000Y-127876300D03*
D19*
X76200000Y-102560000D03*
X76200000Y-44760000D03*
D12*
X79121000Y-181229000D03*
X77597000Y-181229000D03*
X80264000Y-181229000D03*
X81788000Y-181229000D03*
D20*
X120780000Y-126240000D03*
X120780000Y-109980000D03*
D21*
X124340000Y-124460000D03*
X124340000Y-111760000D03*
D22*
X121800000Y-118610000D03*
X121800000Y-116580000D03*
X120020000Y-119640000D03*
X120020000Y-117610000D03*
X120020000Y-121670000D03*
X121800000Y-120640000D03*
X120020000Y-115580000D03*
X121800000Y-114550000D03*
D20*
X120780000Y-102110000D03*
X120780000Y-85850000D03*
D21*
X124340000Y-100330000D03*
X124340000Y-87630000D03*
D22*
X121800000Y-94480000D03*
X121800000Y-92450000D03*
X120020000Y-95510000D03*
X120020000Y-93480000D03*
X120020000Y-97540000D03*
X121800000Y-96510000D03*
X120020000Y-91450000D03*
X121800000Y-90420000D03*
D20*
X120780000Y-77980000D03*
X120780000Y-61720000D03*
D21*
X124340000Y-76200000D03*
X124340000Y-63500000D03*
D22*
X121800000Y-70350000D03*
X121800000Y-68320000D03*
X120020000Y-71380000D03*
X120020000Y-69350000D03*
X120020000Y-73410000D03*
X121800000Y-72380000D03*
X120020000Y-67320000D03*
X121800000Y-66290000D03*
D20*
X120780000Y-53850000D03*
X120780000Y-37590000D03*
D21*
X124340000Y-52070000D03*
X124340000Y-39370000D03*
D22*
X121800000Y-46220000D03*
X121800000Y-44190000D03*
X120020000Y-47250000D03*
X120020000Y-45220000D03*
X120020000Y-49280000D03*
X121800000Y-48250000D03*
X120020000Y-43190000D03*
X121800000Y-42160000D03*
D23*
X88138000Y-158242000D03*
D24*
X85598000Y-158242000D03*
X88138000Y-160782000D03*
X85598000Y-160782000D03*
X88138000Y-163322000D03*
X85598000Y-163322000D03*
X88138000Y-165862000D03*
X85598000Y-165862000D03*
X88138000Y-168402000D03*
X85598000Y-168402000D03*
X88138000Y-170942000D03*
X85598000Y-170942000D03*
D25*
X45720000Y-36830000D03*
D26*
X45720000Y-34290000D03*
X48260000Y-36830000D03*
X48260000Y-34290000D03*
X50800000Y-36830000D03*
X50800000Y-34290000D03*
X53340000Y-36830000D03*
X53340000Y-34290000D03*
X55880000Y-36830000D03*
X55880000Y-34290000D03*
X58420000Y-36830000D03*
X58420000Y-34290000D03*
X60960000Y-36830000D03*
X60960000Y-34290000D03*
X63500000Y-36830000D03*
X63500000Y-34290000D03*
X66040000Y-36830000D03*
X66040000Y-34290000D03*
X68580000Y-36830000D03*
X68580000Y-34290000D03*
X71120000Y-36830000D03*
X71120000Y-34290000D03*
X73660000Y-36830000D03*
X73660000Y-34290000D03*
X76200000Y-36830000D03*
X76200000Y-34290000D03*
X78740000Y-36830000D03*
X78740000Y-34290000D03*
X81280000Y-36830000D03*
X81280000Y-34290000D03*
X83820000Y-36830000D03*
X83820000Y-34290000D03*
X86360000Y-36830000D03*
X86360000Y-34290000D03*
X88900000Y-36830000D03*
X88900000Y-34290000D03*
X91440000Y-36830000D03*
X91440000Y-34290000D03*
X93980000Y-36830000D03*
X93980000Y-34290000D03*
X96520000Y-36830000D03*
X96520000Y-34290000D03*
X99060000Y-36830000D03*
X99060000Y-34290000D03*
X101600000Y-36830000D03*
X101600000Y-34290000D03*
X104140000Y-36830000D03*
X104140000Y-34290000D03*
X106680000Y-36830000D03*
X106680000Y-34290000D03*
D27*
X120650000Y-181610000D03*
D12*
X54864000Y-151638000D03*
X56388000Y-151638000D03*
X53208000Y-136920000D03*
X54732000Y-136920000D03*
X57338000Y-117580000D03*
X58862000Y-117580000D03*
X58166000Y-102362000D03*
X59690000Y-102362000D03*
X54864000Y-149352000D03*
X56388000Y-149352000D03*
X53208000Y-138480000D03*
X54732000Y-138480000D03*
X57328000Y-115570000D03*
X58852000Y-115570000D03*
X58166000Y-104648000D03*
X59690000Y-104648000D03*
D28*
X88610000Y-137450000D03*
D29*
X83060000Y-137900000D03*
X83060000Y-137000000D03*
D30*
X76911200Y-148844000D03*
X76911200Y-152908000D03*
X79298800Y-152908000D03*
X79298800Y-148844000D03*
D27*
X31750000Y-181610000D03*
X120650000Y-31750000D03*
X31750000Y-31750000D03*
D12*
X85407500Y-184746900D03*
X86931500Y-184746900D03*
D31*
X63500000Y-168758000D03*
D32*
X65750000Y-162458000D03*
X64250000Y-162458000D03*
X62750000Y-162458000D03*
X61250000Y-162458000D03*
D33*
X115760500Y-141224000D03*
X115760500Y-139700000D03*
D12*
X74732000Y-113830000D03*
X73208000Y-113830000D03*
X89027000Y-145669000D03*
X90551000Y-145669000D03*
X91744800Y-133477000D03*
X90220800Y-133477000D03*
D33*
X117919500Y-141224000D03*
X117919500Y-139700000D03*
D12*
X74752000Y-115400000D03*
X73228000Y-115400000D03*
D33*
X57150000Y-157480000D03*
X57150000Y-159004000D03*
X54864000Y-157480000D03*
X54864000Y-159004000D03*
X52324000Y-157480000D03*
X52324000Y-159004000D03*
X50038000Y-157480000D03*
X50038000Y-159004000D03*
D34*
X43240000Y-166200000D03*
X43240000Y-164000000D03*
D35*
X40640000Y-165100000D03*
D34*
X43240000Y-148420000D03*
X43240000Y-146220000D03*
D35*
X40640000Y-147320000D03*
D34*
X43240000Y-130640000D03*
X43240000Y-128440000D03*
D35*
X40640000Y-129540000D03*
D34*
X43240000Y-112860000D03*
X43240000Y-110660000D03*
D35*
X40640000Y-111760000D03*
D34*
X43240000Y-95080000D03*
X43240000Y-92880000D03*
D35*
X40640000Y-93980000D03*
D34*
X43240000Y-77554000D03*
X43240000Y-75354000D03*
D35*
X40640000Y-76454000D03*
D34*
X43240000Y-59520000D03*
X43240000Y-57320000D03*
D35*
X40640000Y-58420000D03*
D34*
X43240000Y-41740000D03*
X43240000Y-39540000D03*
D35*
X40640000Y-40640000D03*
D34*
X43240000Y-176360000D03*
X43240000Y-174160000D03*
D35*
X40640000Y-175260000D03*
D34*
X43240000Y-158580000D03*
X43240000Y-156380000D03*
D35*
X40640000Y-157480000D03*
D34*
X43240000Y-140800000D03*
X43240000Y-138600000D03*
D35*
X40640000Y-139700000D03*
D34*
X43240000Y-123020000D03*
X43240000Y-120820000D03*
D35*
X40640000Y-121920000D03*
D34*
X43240000Y-105240000D03*
X43240000Y-103040000D03*
D35*
X40640000Y-104140000D03*
D34*
X43240000Y-87460000D03*
X43240000Y-85260000D03*
D35*
X40640000Y-86360000D03*
D34*
X43240000Y-69680000D03*
X43240000Y-67480000D03*
D35*
X40640000Y-68580000D03*
D34*
X43240000Y-51900000D03*
X43240000Y-49700000D03*
D35*
X40640000Y-50800000D03*
D36*
X51054000Y-165272000D03*
X51054000Y-161372000D03*
X52324000Y-165272000D03*
X52324000Y-161372000D03*
X53594000Y-165272000D03*
X53594000Y-161372000D03*
X54864000Y-165272000D03*
X54864000Y-161372000D03*
X56134000Y-165272000D03*
X56134000Y-161372000D03*
D37*
X52098000Y-175895000D03*
D38*
X55598000Y-175895000D03*
D39*
X81010000Y-186510000D03*
X79010000Y-186510000D03*
D40*
X76510000Y-186510000D03*
D41*
X79360000Y-183835000D03*
X78710000Y-183835000D03*
X80010000Y-183835000D03*
X80660000Y-183835000D03*
X81310000Y-183835000D03*
D42*
X82510000Y-183835000D03*
X77510000Y-183835000D03*
D40*
X83510000Y-186510000D03*
D43*
X88265000Y-141668500D03*
X90170000Y-141668500D03*
X87655400Y-146608800D03*
X85750400Y-146608800D03*
D44*
X78650000Y-116032500D03*
X78650000Y-114127500D03*
D45*
X65916000Y-172020000D03*
X61344000Y-172020000D03*
D46*
X115790000Y-138360000D03*
X117890000Y-138360000D03*
X116840000Y-135960000D03*
D47*
X29794200Y-166471600D03*
D48*
X37185600Y-173888400D03*
D47*
X27787600Y-173888400D03*
D49*
X35915600Y-170180000D03*
X28905200Y-170180000D03*
D47*
X29794200Y-148691600D03*
D48*
X37185600Y-156108400D03*
D47*
X27787600Y-156108400D03*
D49*
X35915600Y-152400000D03*
X28905200Y-152400000D03*
D47*
X29794200Y-130911600D03*
D48*
X37185600Y-138328400D03*
D47*
X27787600Y-138328400D03*
D49*
X35915600Y-134620000D03*
X28905200Y-134620000D03*
D47*
X29794200Y-113131600D03*
D48*
X37185600Y-120548400D03*
D47*
X27787600Y-120548400D03*
D49*
X35915600Y-116840000D03*
X28905200Y-116840000D03*
D47*
X29794200Y-95351600D03*
D48*
X37185600Y-102768400D03*
D47*
X27787600Y-102768400D03*
D49*
X35915600Y-99060000D03*
X28905200Y-99060000D03*
D47*
X29794200Y-77571600D03*
D48*
X37185600Y-84988400D03*
D47*
X27787600Y-84988400D03*
D49*
X35915600Y-81280000D03*
X28905200Y-81280000D03*
D47*
X29794200Y-59791600D03*
D48*
X37185600Y-67208400D03*
D47*
X27787600Y-67208400D03*
D49*
X35915600Y-63500000D03*
X28905200Y-63500000D03*
D47*
X29794200Y-42011600D03*
D48*
X37185600Y-49428400D03*
D47*
X27787600Y-49428400D03*
D49*
X35915600Y-45720000D03*
X28905200Y-45720000D03*
D50*
X88265000Y-143764000D03*
X91059000Y-143764000D03*
D51*
X85391800Y-139480000D03*
X83888200Y-139480000D03*
X86401800Y-131190000D03*
X84898200Y-131190000D03*
D52*
X62670000Y-121091800D03*
X62670000Y-119588200D03*
D51*
X52501800Y-131723000D03*
X50998200Y-131723000D03*
D53*
X112776000Y-91313000D03*
X112776000Y-88519000D03*
D50*
X113157000Y-35560000D03*
X110363000Y-35560000D03*
D53*
X112776000Y-67183000D03*
X112776000Y-64389000D03*
X112776000Y-115443000D03*
X112776000Y-112649000D03*
X112776000Y-43053000D03*
X112776000Y-40259000D03*
D52*
X104648000Y-108204000D03*
X104648000Y-109707600D03*
D50*
X87655400Y-149225000D03*
X90449400Y-149225000D03*
D51*
X89905800Y-139446000D03*
X88402200Y-139446000D03*
X89905800Y-135890000D03*
X88402200Y-135890000D03*
D52*
X66030000Y-149051800D03*
X66030000Y-147548200D03*
D51*
X84465200Y-135128000D03*
X85968800Y-135128000D03*
X89037200Y-147193000D03*
X90540800Y-147193000D03*
X90611800Y-128650000D03*
X89108200Y-128650000D03*
X79364800Y-154686000D03*
X77861200Y-154686000D03*
X78551800Y-117570000D03*
X77048200Y-117570000D03*
D52*
X75438000Y-151521200D03*
X75438000Y-153024800D03*
X76760000Y-113808200D03*
X76760000Y-115311800D03*
D51*
X73208200Y-116920000D03*
X74711800Y-116920000D03*
D52*
X67490000Y-147548200D03*
X67490000Y-149051800D03*
D53*
X61214000Y-159893000D03*
X61214000Y-157099000D03*
D52*
X61200000Y-119578200D03*
X61200000Y-121081800D03*
D54*
X70059200Y-171870000D03*
X75560800Y-171870000D03*
X70147200Y-164846000D03*
X75648800Y-164846000D03*
D53*
X65532000Y-159893000D03*
X65532000Y-157099000D03*
D52*
X74930000Y-183398200D03*
X74930000Y-184901800D03*
D51*
X52501800Y-133628000D03*
X50998200Y-133628000D03*
D50*
X91821000Y-130556000D03*
X89027000Y-130556000D03*
X87617300Y-133147000D03*
X84823300Y-133147000D03*
D55*
X72644000Y-185674000D03*
X59436000Y-185674000D03*
D56*
X66040000Y-176524000D03*
X70739000Y-176524000D03*
X61341000Y-176524000D03*
D53*
X59944000Y-111379000D03*
X59944000Y-108585000D03*
X56240000Y-145457000D03*
X56240000Y-142663000D03*
D12*
X52132000Y-102310000D03*
X50608000Y-102310000D03*
X51562000Y-117602000D03*
X50038000Y-117602000D03*
X49142000Y-136370000D03*
X47618000Y-136370000D03*
D33*
X51940000Y-151348000D03*
X51940000Y-152872000D03*
D12*
X52122000Y-104650000D03*
X50598000Y-104650000D03*
X51562000Y-115316000D03*
X50038000Y-115316000D03*
X49182000Y-138640000D03*
X47658000Y-138640000D03*
D33*
X49980000Y-151368000D03*
X49980000Y-152892000D03*
D12*
X44450000Y-46736000D03*
X45974000Y-46736000D03*
X44718000Y-44700000D03*
X46242000Y-44700000D03*
X44728000Y-51900000D03*
X46252000Y-51900000D03*
X44704000Y-41656000D03*
X46228000Y-41656000D03*
X44448000Y-64530000D03*
X45972000Y-64530000D03*
X44438000Y-62440000D03*
X45962000Y-62440000D03*
X44704000Y-69596000D03*
X46228000Y-69596000D03*
X44704000Y-59436000D03*
X46228000Y-59436000D03*
X44450000Y-82296000D03*
X45974000Y-82296000D03*
X44450000Y-80264000D03*
X45974000Y-80264000D03*
X44704000Y-87376000D03*
X46228000Y-87376000D03*
X44704000Y-77470000D03*
X46228000Y-77470000D03*
X44450000Y-100076000D03*
X45974000Y-100076000D03*
X44450000Y-98044000D03*
X45974000Y-98044000D03*
X44704000Y-105156000D03*
X46228000Y-105156000D03*
X44704000Y-94996000D03*
X46228000Y-94996000D03*
X44450000Y-117856000D03*
X45974000Y-117856000D03*
X44450000Y-115824000D03*
X45974000Y-115824000D03*
X44704000Y-122936000D03*
X46228000Y-122936000D03*
X44704000Y-112776000D03*
X46228000Y-112776000D03*
X44450000Y-135636000D03*
X45974000Y-135636000D03*
X44450000Y-133604000D03*
X45974000Y-133604000D03*
X44704000Y-140716000D03*
X46228000Y-140716000D03*
X44704000Y-130556000D03*
X46228000Y-130556000D03*
X44704000Y-153416000D03*
X46228000Y-153416000D03*
X44704000Y-151384000D03*
X46228000Y-151384000D03*
X44704000Y-158496000D03*
X46228000Y-158496000D03*
X44704000Y-148336000D03*
X46228000Y-148336000D03*
X44450000Y-171196000D03*
X45974000Y-171196000D03*
X44450000Y-169164000D03*
X45974000Y-169164000D03*
X44704000Y-176276000D03*
X46228000Y-176276000D03*
X44704000Y-166116000D03*
X46228000Y-166116000D03*
D57*
X57789000Y-107032000D03*
X57139000Y-107032000D03*
X56489000Y-107032000D03*
X55839000Y-107032000D03*
X55189000Y-107032000D03*
X54539000Y-107032000D03*
X53889000Y-107032000D03*
X53239000Y-107032000D03*
X52589000Y-107032000D03*
X51939000Y-107032000D03*
X51939000Y-112932000D03*
X52589000Y-112932000D03*
X53239000Y-112932000D03*
X53889000Y-112932000D03*
X54539000Y-112932000D03*
X55189000Y-112932000D03*
X55839000Y-112932000D03*
X56489000Y-112932000D03*
X57139000Y-112932000D03*
X57789000Y-112932000D03*
X54487000Y-141068000D03*
X53837000Y-141068000D03*
X53187000Y-141068000D03*
X52537000Y-141068000D03*
X51887000Y-141068000D03*
X51237000Y-141068000D03*
X50587000Y-141068000D03*
X49937000Y-141068000D03*
X49287000Y-141068000D03*
X48637000Y-141068000D03*
X48637000Y-146968000D03*
X49287000Y-146968000D03*
X49937000Y-146968000D03*
X50587000Y-146968000D03*
X51237000Y-146968000D03*
X51887000Y-146968000D03*
X52537000Y-146968000D03*
X53187000Y-146968000D03*
X53837000Y-146968000D03*
X54487000Y-146968000D03*
D58*
X43110000Y-46770000D03*
X43110000Y-44670000D03*
X40710000Y-45720000D03*
X43110000Y-64550000D03*
X43110000Y-62450000D03*
X40710000Y-63500000D03*
X43110000Y-82330000D03*
X43110000Y-80230000D03*
X40710000Y-81280000D03*
X43110000Y-100110000D03*
X43110000Y-98010000D03*
X40710000Y-99060000D03*
X43110000Y-117890000D03*
X43110000Y-115790000D03*
X40710000Y-116840000D03*
X43110000Y-135670000D03*
X43110000Y-133570000D03*
X40710000Y-134620000D03*
X43110000Y-153450000D03*
X43110000Y-151350000D03*
X40710000Y-152400000D03*
X43110000Y-171230000D03*
X43110000Y-169130000D03*
X40710000Y-170180000D03*
D54*
X118153200Y-173736000D03*
X123654800Y-173736000D03*
D50*
X114427000Y-161544000D03*
X117221000Y-161544000D03*
D23*
X99060000Y-147828000D03*
D24*
X101600000Y-147828000D03*
X104140000Y-147828000D03*
X106680000Y-147828000D03*
X109220000Y-147828000D03*
X111760000Y-147828000D03*
D12*
X114098000Y-159480000D03*
X115622000Y-159480000D03*
X90998000Y-171060000D03*
X92522000Y-171060000D03*
D33*
X92780000Y-165718000D03*
X92780000Y-167242000D03*
X113690000Y-175018000D03*
X113690000Y-176542000D03*
X113690000Y-179132000D03*
X113690000Y-177608000D03*
D59*
X72340000Y-107100000D03*
X72340000Y-111600000D03*
X78840000Y-111600000D03*
X78840000Y-107100000D03*
D54*
X118153200Y-166624000D03*
X123654800Y-166624000D03*
D52*
X59055000Y-160263800D03*
X59055000Y-158760200D03*
X63373000Y-160263800D03*
X63373000Y-158760200D03*
D51*
X115559800Y-164084000D03*
X114056200Y-164084000D03*
D33*
X106640000Y-149788000D03*
X106640000Y-151312000D03*
D11*
X83142000Y-111470000D03*
X83142000Y-106970000D03*
X91102000Y-106970000D03*
X91102000Y-111470000D03*
D12*
X86208000Y-155900000D03*
X87732000Y-155900000D03*
D33*
X96560000Y-157362000D03*
X96560000Y-155838000D03*
X98650000Y-155838000D03*
X98650000Y-157362000D03*
X100720000Y-157362000D03*
X100720000Y-155838000D03*
X105156000Y-157362000D03*
X105156000Y-155838000D03*
X102870000Y-155838000D03*
X102870000Y-157362000D03*
X107442000Y-157362000D03*
X107442000Y-155838000D03*
X109728000Y-157362000D03*
X109728000Y-155838000D03*
X112014000Y-155838000D03*
X112014000Y-157362000D03*
M02*
