G04 #@! TF.GenerationSoftware,KiCad,Pcbnew,(5.0.1)-4*
G04 #@! TF.CreationDate,2019-01-15T19:26:54-05:00*
G04 #@! TF.ProjectId,CA6,4341362E6B696361645F706362000000,rev?*
G04 #@! TF.SameCoordinates,Original*
G04 #@! TF.FileFunction,Legend,Bot*
G04 #@! TF.FilePolarity,Positive*
%FSLAX46Y46*%
G04 Gerber Fmt 4.6, Leading zero omitted, Abs format (unit mm)*
G04 Created by KiCad (PCBNEW (5.0.1)-4) date 1/15/2019 7:26:54 PM*
%MOMM*%
%LPD*%
G01*
G04 APERTURE LIST*
%ADD10C,0.299720*%
%ADD11C,0.150000*%
%ADD12C,0.149860*%
G04 APERTURE END LIST*
D10*
X80130454Y-114169087D02*
X80130454Y-112667947D01*
X79558591Y-112667947D01*
X79415625Y-112739430D01*
X79344142Y-112810912D01*
X79272660Y-112953878D01*
X79272660Y-113168327D01*
X79344142Y-113311292D01*
X79415625Y-113382775D01*
X79558591Y-113454258D01*
X80130454Y-113454258D01*
X78629314Y-114169087D02*
X78629314Y-113168327D01*
X78629314Y-113454258D02*
X78557831Y-113311292D01*
X78486348Y-113239810D01*
X78343382Y-113168327D01*
X78200417Y-113168327D01*
X77485588Y-114169087D02*
X77628554Y-114097604D01*
X77700037Y-114026121D01*
X77771520Y-113883155D01*
X77771520Y-113454258D01*
X77700037Y-113311292D01*
X77628554Y-113239810D01*
X77485588Y-113168327D01*
X77271140Y-113168327D01*
X77128174Y-113239810D01*
X77056691Y-113311292D01*
X76985208Y-113454258D01*
X76985208Y-113883155D01*
X77056691Y-114026121D01*
X77128174Y-114097604D01*
X77271140Y-114169087D01*
X77485588Y-114169087D01*
X75698517Y-113168327D02*
X75698517Y-114383535D01*
X75770000Y-114526501D01*
X75841482Y-114597984D01*
X75984448Y-114669467D01*
X76198897Y-114669467D01*
X76341862Y-114597984D01*
X75698517Y-114097604D02*
X75841482Y-114169087D01*
X76127414Y-114169087D01*
X76270380Y-114097604D01*
X76341862Y-114026121D01*
X76413345Y-113883155D01*
X76413345Y-113454258D01*
X76341862Y-113311292D01*
X76270380Y-113239810D01*
X76127414Y-113168327D01*
X75841482Y-113168327D01*
X75698517Y-113239810D01*
X74983688Y-114169087D02*
X74983688Y-113168327D01*
X74983688Y-113454258D02*
X74912205Y-113311292D01*
X74840722Y-113239810D01*
X74697757Y-113168327D01*
X74554791Y-113168327D01*
X73411065Y-114169087D02*
X73411065Y-113382775D01*
X73482548Y-113239810D01*
X73625514Y-113168327D01*
X73911445Y-113168327D01*
X74054411Y-113239810D01*
X73411065Y-114097604D02*
X73554031Y-114169087D01*
X73911445Y-114169087D01*
X74054411Y-114097604D01*
X74125894Y-113954638D01*
X74125894Y-113811672D01*
X74054411Y-113668707D01*
X73911445Y-113597224D01*
X73554031Y-113597224D01*
X73411065Y-113525741D01*
X72696237Y-114169087D02*
X72696237Y-113168327D01*
X72696237Y-113311292D02*
X72624754Y-113239810D01*
X72481788Y-113168327D01*
X72267340Y-113168327D01*
X72124374Y-113239810D01*
X72052891Y-113382775D01*
X72052891Y-114169087D01*
X72052891Y-113382775D02*
X71981408Y-113239810D01*
X71838442Y-113168327D01*
X71623994Y-113168327D01*
X71481028Y-113239810D01*
X71409545Y-113382775D01*
X71409545Y-114169087D01*
X56279142Y-170033224D02*
X55118000Y-170033224D01*
X55698571Y-170605087D02*
X55698571Y-169461361D01*
X52070000Y-170033224D02*
X50908857Y-170033224D01*
D11*
G04 #@! TO.C,BT1*
X47200000Y-41660000D02*
X47200000Y-105660000D01*
X47200000Y-105660000D02*
X105200000Y-105660000D01*
X105200000Y-105660000D02*
X105200000Y-41660000D01*
X105200000Y-41660000D02*
X47200000Y-41660000D01*
D12*
G04 #@! TO.C,J2*
X54098000Y-171360000D02*
X54098000Y-173360000D01*
X54098000Y-173360000D02*
X57098000Y-173360000D01*
X57098000Y-173360000D02*
X57098000Y-171360000D01*
X50598000Y-171360000D02*
X50598000Y-173360000D01*
X50598000Y-173360000D02*
X53598000Y-173360000D01*
X53598000Y-173360000D02*
X53598000Y-171360000D01*
X50348000Y-178360000D02*
X57348000Y-178360000D01*
X57348000Y-178360000D02*
X57348000Y-171360000D01*
X57348000Y-171360000D02*
X50348000Y-171360000D01*
X50348000Y-171360000D02*
X50348000Y-178360000D01*
G04 #@! TO.C,SW4*
X77790000Y-111950000D02*
X73390000Y-111950000D01*
X77790000Y-106750000D02*
X73390000Y-106750000D01*
X76721371Y-109350000D02*
G75*
G03X76721371Y-109350000I-1131371J0D01*
G01*
X72590000Y-110550000D02*
X72590000Y-108150000D01*
X77990000Y-112350000D02*
X73190000Y-112350000D01*
X78590000Y-108150000D02*
X78590000Y-110550000D01*
X73190000Y-106350000D02*
X77990000Y-106350000D01*
X77443592Y-107318000D02*
G75*
G03X77443592Y-107318000I-113592J0D01*
G01*
X77473684Y-108842000D02*
G75*
G03X77473684Y-108842000I-143684J0D01*
G01*
X77330000Y-107318000D02*
X76822000Y-108588000D01*
X77330000Y-106810000D02*
X77330000Y-107318000D01*
X77330000Y-111890000D02*
X77330000Y-108842000D01*
G04 #@! TO.C,BT1*
D11*
X68908571Y-106772857D02*
X68794285Y-106810952D01*
X68756190Y-106849047D01*
X68718095Y-106925238D01*
X68718095Y-107039523D01*
X68756190Y-107115714D01*
X68794285Y-107153809D01*
X68870476Y-107191904D01*
X69175238Y-107191904D01*
X69175238Y-106391904D01*
X68908571Y-106391904D01*
X68832380Y-106430000D01*
X68794285Y-106468095D01*
X68756190Y-106544285D01*
X68756190Y-106620476D01*
X68794285Y-106696666D01*
X68832380Y-106734761D01*
X68908571Y-106772857D01*
X69175238Y-106772857D01*
X68489523Y-106391904D02*
X68032380Y-106391904D01*
X68260952Y-107191904D02*
X68260952Y-106391904D01*
X67346666Y-107191904D02*
X67803809Y-107191904D01*
X67575238Y-107191904D02*
X67575238Y-106391904D01*
X67651428Y-106506190D01*
X67727619Y-106582380D01*
X67803809Y-106620476D01*
X78200000Y-97732857D02*
X78085714Y-97770952D01*
X78047619Y-97809047D01*
X78009523Y-97885238D01*
X78009523Y-97999523D01*
X78047619Y-98075714D01*
X78085714Y-98113809D01*
X78161904Y-98151904D01*
X78466666Y-98151904D01*
X78466666Y-97351904D01*
X78200000Y-97351904D01*
X78123809Y-97390000D01*
X78085714Y-97428095D01*
X78047619Y-97504285D01*
X78047619Y-97580476D01*
X78085714Y-97656666D01*
X78123809Y-97694761D01*
X78200000Y-97732857D01*
X78466666Y-97732857D01*
X77704761Y-97923333D02*
X77323809Y-97923333D01*
X77780952Y-98151904D02*
X77514285Y-97351904D01*
X77247619Y-98151904D01*
X77095238Y-97351904D02*
X76638095Y-97351904D01*
X76866666Y-98151904D02*
X76866666Y-97351904D01*
X76485714Y-97351904D02*
X76028571Y-97351904D01*
X76257142Y-98151904D02*
X76257142Y-97351904D01*
X75761904Y-97732857D02*
X75495238Y-97732857D01*
X75380952Y-98151904D02*
X75761904Y-98151904D01*
X75761904Y-97351904D01*
X75380952Y-97351904D01*
X74580952Y-98151904D02*
X74847619Y-97770952D01*
X75038095Y-98151904D02*
X75038095Y-97351904D01*
X74733333Y-97351904D01*
X74657142Y-97390000D01*
X74619047Y-97428095D01*
X74580952Y-97504285D01*
X74580952Y-97618571D01*
X74619047Y-97694761D01*
X74657142Y-97732857D01*
X74733333Y-97770952D01*
X75038095Y-97770952D01*
X74085714Y-97770952D02*
X74085714Y-98151904D01*
X74352380Y-97351904D02*
X74085714Y-97770952D01*
X73819047Y-97351904D01*
G04 #@! TO.C,J2*
X53479666Y-179266904D02*
X53479666Y-179838333D01*
X53517761Y-179952619D01*
X53593952Y-180028809D01*
X53708238Y-180066904D01*
X53784428Y-180066904D01*
X53136809Y-179343095D02*
X53098714Y-179305000D01*
X53022523Y-179266904D01*
X52832047Y-179266904D01*
X52755857Y-179305000D01*
X52717761Y-179343095D01*
X52679666Y-179419285D01*
X52679666Y-179495476D01*
X52717761Y-179609761D01*
X53174904Y-180066904D01*
X52679666Y-180066904D01*
X57981857Y-172872666D02*
X58019952Y-172986952D01*
X58058047Y-173025047D01*
X58134238Y-173063142D01*
X58248523Y-173063142D01*
X58324714Y-173025047D01*
X58362809Y-172986952D01*
X58400904Y-172910761D01*
X58400904Y-172606000D01*
X57600904Y-172606000D01*
X57600904Y-172872666D01*
X57639000Y-172948857D01*
X57677095Y-172986952D01*
X57753285Y-173025047D01*
X57829476Y-173025047D01*
X57905666Y-172986952D01*
X57943761Y-172948857D01*
X57981857Y-172872666D01*
X57981857Y-172606000D01*
X58172333Y-173367904D02*
X58172333Y-173748857D01*
X58400904Y-173291714D02*
X57600904Y-173558380D01*
X58400904Y-173825047D01*
X57600904Y-173977428D02*
X57600904Y-174434571D01*
X58400904Y-174206000D02*
X57600904Y-174206000D01*
X58477095Y-174510761D02*
X58477095Y-175120285D01*
X58324714Y-175767904D02*
X58362809Y-175729809D01*
X58400904Y-175615523D01*
X58400904Y-175539333D01*
X58362809Y-175425047D01*
X58286619Y-175348857D01*
X58210428Y-175310761D01*
X58058047Y-175272666D01*
X57943761Y-175272666D01*
X57791380Y-175310761D01*
X57715190Y-175348857D01*
X57639000Y-175425047D01*
X57600904Y-175539333D01*
X57600904Y-175615523D01*
X57639000Y-175729809D01*
X57677095Y-175767904D01*
X57600904Y-176263142D02*
X57600904Y-176415523D01*
X57639000Y-176491714D01*
X57715190Y-176567904D01*
X57867571Y-176606000D01*
X58134238Y-176606000D01*
X58286619Y-176567904D01*
X58362809Y-176491714D01*
X58400904Y-176415523D01*
X58400904Y-176263142D01*
X58362809Y-176186952D01*
X58286619Y-176110761D01*
X58134238Y-176072666D01*
X57867571Y-176072666D01*
X57715190Y-176110761D01*
X57639000Y-176186952D01*
X57600904Y-176263142D01*
X58400904Y-176948857D02*
X57600904Y-176948857D01*
X58400904Y-177406000D01*
X57600904Y-177406000D01*
G04 #@! TD*
M02*
