G04 #@! TF.GenerationSoftware,KiCad,Pcbnew,(5.0.1)-4*
G04 #@! TF.CreationDate,2019-01-15T19:26:53-05:00*
G04 #@! TF.ProjectId,CA6,4341362E6B696361645F706362000000,rev?*
G04 #@! TF.SameCoordinates,Original*
G04 #@! TF.FileFunction,Copper,L4,Bot,Signal*
G04 #@! TF.FilePolarity,Positive*
%FSLAX46Y46*%
G04 Gerber Fmt 4.6, Leading zero omitted, Abs format (unit mm)*
G04 Created by KiCad (PCBNEW (5.0.1)-4) date 1/15/2019 7:26:53 PM*
%MOMM*%
%LPD*%
G01*
G04 APERTURE LIST*
G04 #@! TA.AperFunction,WasherPad*
%ADD10C,7.000240*%
G04 #@! TD*
G04 #@! TA.AperFunction,ComponentPad*
%ADD11C,2.200000*%
G04 #@! TD*
G04 #@! TA.AperFunction,ComponentPad*
%ADD12C,1.600000*%
G04 #@! TD*
G04 #@! TA.AperFunction,ComponentPad*
%ADD13R,1.700000X1.700000*%
G04 #@! TD*
G04 #@! TA.AperFunction,ComponentPad*
%ADD14O,1.700000X1.700000*%
G04 #@! TD*
G04 #@! TA.AperFunction,ComponentPad*
%ADD15R,1.524000X1.524000*%
G04 #@! TD*
G04 #@! TA.AperFunction,ComponentPad*
%ADD16C,1.524000*%
G04 #@! TD*
G04 #@! TA.AperFunction,WasherPad*
%ADD17C,7.000000*%
G04 #@! TD*
G04 #@! TA.AperFunction,ComponentPad*
%ADD18O,1.574800X3.048000*%
G04 #@! TD*
G04 #@! TA.AperFunction,ComponentPad*
%ADD19O,1.600200X3.048000*%
G04 #@! TD*
G04 #@! TA.AperFunction,ComponentPad*
%ADD20C,1.550000*%
G04 #@! TD*
G04 #@! TA.AperFunction,ComponentPad*
%ADD21C,1.250000*%
G04 #@! TD*
G04 #@! TA.AperFunction,WasherPad*
%ADD22C,1.701800*%
G04 #@! TD*
G04 #@! TA.AperFunction,ComponentPad*
%ADD23C,1.500000*%
G04 #@! TD*
G04 #@! TA.AperFunction,ComponentPad*
%ADD24C,2.000000*%
G04 #@! TD*
G04 #@! TA.AperFunction,ComponentPad*
%ADD25C,1.700000*%
G04 #@! TD*
G04 #@! TA.AperFunction,ViaPad*
%ADD26C,0.609600*%
G04 #@! TD*
G04 #@! TA.AperFunction,ViaPad*
%ADD27C,1.270000*%
G04 #@! TD*
G04 #@! TA.AperFunction,ViaPad*
%ADD28C,0.812800*%
G04 #@! TD*
G04 #@! TA.AperFunction,Conductor*
%ADD29C,0.304800*%
G04 #@! TD*
G04 #@! TA.AperFunction,Conductor*
%ADD30C,0.152400*%
G04 #@! TD*
G04 #@! TA.AperFunction,Conductor*
%ADD31C,0.508000*%
G04 #@! TD*
G04 #@! TA.AperFunction,Conductor*
%ADD32C,1.524000*%
G04 #@! TD*
G04 #@! TA.AperFunction,Conductor*
%ADD33C,0.762000*%
G04 #@! TD*
G04 APERTURE END LIST*
D10*
G04 #@! TO.P,BT1,*
G04 #@! TO.N,*
X76200000Y-102560000D03*
X76200000Y-44760000D03*
G04 #@! TD*
D11*
G04 #@! TO.P,J8,8*
G04 #@! TO.N,GND*
X120780000Y-126240000D03*
X120780000Y-109980000D03*
D12*
G04 #@! TO.P,J8,5*
G04 #@! TO.N,/MOD3p3*
X121800000Y-118610000D03*
G04 #@! TO.P,J8,3*
G04 #@! TO.N,/MOD3p1_MOSI*
X121800000Y-116580000D03*
G04 #@! TO.P,J8,6*
G04 #@! TO.N,/MOD3p4_SCLK*
X120020000Y-119640000D03*
G04 #@! TO.P,J8,4*
G04 #@! TO.N,/MOD3p2_MISO*
X120020000Y-117610000D03*
G04 #@! TO.P,J8,8*
G04 #@! TO.N,GND*
X120020000Y-121670000D03*
G04 #@! TO.P,J8,7*
G04 #@! TO.N,/MOD3p5_CS*
X121800000Y-120640000D03*
G04 #@! TO.P,J8,2*
G04 #@! TO.N,/MOD3p0_AN0*
X120020000Y-115580000D03*
G04 #@! TO.P,J8,1*
G04 #@! TO.N,3V3*
X121800000Y-114550000D03*
G04 #@! TD*
D11*
G04 #@! TO.P,J4,8*
G04 #@! TO.N,GND*
X120780000Y-102110000D03*
X120780000Y-85850000D03*
D12*
G04 #@! TO.P,J4,5*
G04 #@! TO.N,/MOD2p3*
X121800000Y-94480000D03*
G04 #@! TO.P,J4,3*
G04 #@! TO.N,/MOD2p1_AN1*
X121800000Y-92450000D03*
G04 #@! TO.P,J4,6*
G04 #@! TO.N,/MOD2p4_AN3*
X120020000Y-95510000D03*
G04 #@! TO.P,J4,4*
G04 #@! TO.N,/MOD2p2_AN2*
X120020000Y-93480000D03*
G04 #@! TO.P,J4,8*
G04 #@! TO.N,GND*
X120020000Y-97540000D03*
G04 #@! TO.P,J4,7*
G04 #@! TO.N,/MOD2p5_AN4*
X121800000Y-96510000D03*
G04 #@! TO.P,J4,2*
G04 #@! TO.N,/MOD2p0_AN0*
X120020000Y-91450000D03*
G04 #@! TO.P,J4,1*
G04 #@! TO.N,3V3*
X121800000Y-90420000D03*
G04 #@! TD*
D11*
G04 #@! TO.P,J5,8*
G04 #@! TO.N,GND*
X120780000Y-77980000D03*
X120780000Y-61720000D03*
D12*
G04 #@! TO.P,J5,5*
G04 #@! TO.N,/MOD1p3*
X121800000Y-70350000D03*
G04 #@! TO.P,J5,3*
G04 #@! TO.N,/MOD1p1_SCL*
X121800000Y-68320000D03*
G04 #@! TO.P,J5,6*
G04 #@! TO.N,/MOD1p4_RX*
X120020000Y-71380000D03*
G04 #@! TO.P,J5,4*
G04 #@! TO.N,/MOD1p2_SDA*
X120020000Y-69350000D03*
G04 #@! TO.P,J5,8*
G04 #@! TO.N,GND*
X120020000Y-73410000D03*
G04 #@! TO.P,J5,7*
G04 #@! TO.N,/MOD1p5_TX*
X121800000Y-72380000D03*
G04 #@! TO.P,J5,2*
G04 #@! TO.N,/MOD1p0_AN0*
X120020000Y-67320000D03*
G04 #@! TO.P,J5,1*
G04 #@! TO.N,3V3*
X121800000Y-66290000D03*
G04 #@! TD*
D11*
G04 #@! TO.P,J3,8*
G04 #@! TO.N,GND*
X120780000Y-53850000D03*
X120780000Y-37590000D03*
D12*
G04 #@! TO.P,J3,5*
G04 #@! TO.N,/MOD0p3*
X121800000Y-46220000D03*
G04 #@! TO.P,J3,3*
G04 #@! TO.N,/MOD0p1_SCL*
X121800000Y-44190000D03*
G04 #@! TO.P,J3,6*
G04 #@! TO.N,/MOD0p4_RX*
X120020000Y-47250000D03*
G04 #@! TO.P,J3,4*
G04 #@! TO.N,/MOD0p2_SDA*
X120020000Y-45220000D03*
G04 #@! TO.P,J3,8*
G04 #@! TO.N,GND*
X120020000Y-49280000D03*
G04 #@! TO.P,J3,7*
G04 #@! TO.N,/MOD0p5_TX*
X121800000Y-48250000D03*
G04 #@! TO.P,J3,2*
G04 #@! TO.N,/MOD0p0_AN0*
X120020000Y-43190000D03*
G04 #@! TO.P,J3,1*
G04 #@! TO.N,3V3*
X121800000Y-42160000D03*
G04 #@! TD*
D13*
G04 #@! TO.P,P2,1*
G04 #@! TO.N,GND*
X88138000Y-158242000D03*
D14*
G04 #@! TO.P,P2,2*
G04 #@! TO.N,3V3*
X85598000Y-158242000D03*
G04 #@! TO.P,P2,3*
G04 #@! TO.N,/ESP_R_LED*
X88138000Y-160782000D03*
G04 #@! TO.P,P2,4*
G04 #@! TO.N,/ESP_G_LED*
X85598000Y-160782000D03*
G04 #@! TO.P,P2,5*
G04 #@! TO.N,/CC_PROG*
X88138000Y-163322000D03*
G04 #@! TO.P,P2,6*
G04 #@! TO.N,/CC_RESET*
X85598000Y-163322000D03*
G04 #@! TO.P,P2,7*
G04 #@! TO.N,/CC_CTS*
X88138000Y-165862000D03*
G04 #@! TO.P,P2,8*
G04 #@! TO.N,/CC_RTS*
X85598000Y-165862000D03*
G04 #@! TO.P,P2,9*
G04 #@! TO.N,/CC_TX*
X88138000Y-168402000D03*
G04 #@! TO.P,P2,10*
G04 #@! TO.N,/CC_RX*
X85598000Y-168402000D03*
G04 #@! TO.P,P2,11*
G04 #@! TO.N,/CC_EXT0*
X88138000Y-170942000D03*
G04 #@! TO.P,P2,12*
G04 #@! TO.N,/CC_EXT1*
X85598000Y-170942000D03*
G04 #@! TD*
D15*
G04 #@! TO.P,J6,1*
G04 #@! TO.N,/AUX00_TX*
X45720000Y-36830000D03*
D16*
G04 #@! TO.P,J6,2*
G04 #@! TO.N,/AUX01_RX*
X45720000Y-34290000D03*
G04 #@! TO.P,J6,3*
G04 #@! TO.N,/AUX02*
X48260000Y-36830000D03*
G04 #@! TO.P,J6,4*
G04 #@! TO.N,/AUX03*
X48260000Y-34290000D03*
G04 #@! TO.P,J6,5*
G04 #@! TO.N,/AUX04*
X50800000Y-36830000D03*
G04 #@! TO.P,J6,6*
G04 #@! TO.N,/AUX05*
X50800000Y-34290000D03*
G04 #@! TO.P,J6,7*
G04 #@! TO.N,/AUX06*
X53340000Y-36830000D03*
G04 #@! TO.P,J6,8*
G04 #@! TO.N,/AUX07*
X53340000Y-34290000D03*
G04 #@! TO.P,J6,9*
G04 #@! TO.N,/AUX08*
X55880000Y-36830000D03*
G04 #@! TO.P,J6,10*
G04 #@! TO.N,/AUX09*
X55880000Y-34290000D03*
G04 #@! TO.P,J6,11*
G04 #@! TO.N,/AUX10*
X58420000Y-36830000D03*
G04 #@! TO.P,J6,12*
G04 #@! TO.N,/AUX11*
X58420000Y-34290000D03*
G04 #@! TO.P,J6,13*
G04 #@! TO.N,/AUX12*
X60960000Y-36830000D03*
G04 #@! TO.P,J6,14*
G04 #@! TO.N,/AUX13*
X60960000Y-34290000D03*
G04 #@! TO.P,J6,15*
G04 #@! TO.N,/AUX14*
X63500000Y-36830000D03*
G04 #@! TO.P,J6,16*
G04 #@! TO.N,/AUX15*
X63500000Y-34290000D03*
G04 #@! TO.P,J6,17*
G04 #@! TO.N,/AUX16*
X66040000Y-36830000D03*
G04 #@! TO.P,J6,18*
G04 #@! TO.N,/AUX17*
X66040000Y-34290000D03*
G04 #@! TO.P,J6,19*
G04 #@! TO.N,/AUX18*
X68580000Y-36830000D03*
G04 #@! TO.P,J6,20*
G04 #@! TO.N,/AUX19*
X68580000Y-34290000D03*
G04 #@! TO.P,J6,21*
G04 #@! TO.N,/AUX20*
X71120000Y-36830000D03*
G04 #@! TO.P,J6,22*
G04 #@! TO.N,/AUX21*
X71120000Y-34290000D03*
G04 #@! TO.P,J6,23*
G04 #@! TO.N,/AUX22*
X73660000Y-36830000D03*
G04 #@! TO.P,J6,24*
G04 #@! TO.N,/AUX23*
X73660000Y-34290000D03*
G04 #@! TO.P,J6,25*
G04 #@! TO.N,/AUX24*
X76200000Y-36830000D03*
G04 #@! TO.P,J6,26*
G04 #@! TO.N,/AUX25*
X76200000Y-34290000D03*
G04 #@! TO.P,J6,27*
G04 #@! TO.N,/AUX26*
X78740000Y-36830000D03*
G04 #@! TO.P,J6,28*
G04 #@! TO.N,/AUX27*
X78740000Y-34290000D03*
G04 #@! TO.P,J6,29*
G04 #@! TO.N,/AUX28*
X81280000Y-36830000D03*
G04 #@! TO.P,J6,30*
G04 #@! TO.N,/AUX29*
X81280000Y-34290000D03*
G04 #@! TO.P,J6,31*
G04 #@! TO.N,/AUX30*
X83820000Y-36830000D03*
G04 #@! TO.P,J6,32*
G04 #@! TO.N,/AUX31*
X83820000Y-34290000D03*
G04 #@! TO.P,J6,33*
G04 #@! TO.N,/AUX32*
X86360000Y-36830000D03*
G04 #@! TO.P,J6,34*
G04 #@! TO.N,/AUX33*
X86360000Y-34290000D03*
G04 #@! TO.P,J6,35*
G04 #@! TO.N,/AUX34*
X88900000Y-36830000D03*
G04 #@! TO.P,J6,36*
G04 #@! TO.N,/AUX35*
X88900000Y-34290000D03*
G04 #@! TO.P,J6,37*
G04 #@! TO.N,/AUX36*
X91440000Y-36830000D03*
G04 #@! TO.P,J6,38*
G04 #@! TO.N,/AUX37*
X91440000Y-34290000D03*
G04 #@! TO.P,J6,39*
G04 #@! TO.N,/AUX38*
X93980000Y-36830000D03*
G04 #@! TO.P,J6,40*
G04 #@! TO.N,/AUX39*
X93980000Y-34290000D03*
G04 #@! TO.P,J6,41*
G04 #@! TO.N,/AUX40*
X96520000Y-36830000D03*
G04 #@! TO.P,J6,42*
G04 #@! TO.N,/AUX41*
X96520000Y-34290000D03*
G04 #@! TO.P,J6,43*
G04 #@! TO.N,/AUX42*
X99060000Y-36830000D03*
G04 #@! TO.P,J6,44*
G04 #@! TO.N,/AUX43*
X99060000Y-34290000D03*
G04 #@! TO.P,J6,45*
G04 #@! TO.N,/AUX44*
X101600000Y-36830000D03*
G04 #@! TO.P,J6,46*
G04 #@! TO.N,/AUX45*
X101600000Y-34290000D03*
G04 #@! TO.P,J6,47*
G04 #@! TO.N,/AUX46*
X104140000Y-36830000D03*
G04 #@! TO.P,J6,48*
G04 #@! TO.N,/AUX47*
X104140000Y-34290000D03*
G04 #@! TO.P,J6,49*
G04 #@! TO.N,GND*
X106680000Y-36830000D03*
G04 #@! TO.P,J6,50*
G04 #@! TO.N,3V3*
X106680000Y-34290000D03*
G04 #@! TD*
D17*
G04 #@! TO.P,X4,*
G04 #@! TO.N,*
X120650000Y-181610000D03*
G04 #@! TD*
G04 #@! TO.P,X3,*
G04 #@! TO.N,*
X31750000Y-181610000D03*
G04 #@! TD*
G04 #@! TO.P,X2,*
G04 #@! TO.N,*
X120650000Y-31750000D03*
G04 #@! TD*
G04 #@! TO.P,X1,*
G04 #@! TO.N,*
X31750000Y-31750000D03*
G04 #@! TD*
D18*
G04 #@! TO.P,J2,1*
G04 #@! TO.N,GND*
X52098000Y-175895000D03*
D19*
G04 #@! TO.P,J2,2*
G04 #@! TO.N,Net-(J2-Pad2)*
X55598000Y-175895000D03*
G04 #@! TD*
D20*
G04 #@! TO.P,J1,5*
G04 #@! TO.N,GND*
X76510000Y-186510000D03*
D21*
X82510000Y-183835000D03*
X77510000Y-183835000D03*
D20*
X83510000Y-186510000D03*
G04 #@! TD*
D22*
G04 #@! TO.P,CAM7,*
G04 #@! TO.N,*
X35915600Y-170180000D03*
X28905200Y-170180000D03*
G04 #@! TD*
G04 #@! TO.P,CAM6,*
G04 #@! TO.N,*
X35915600Y-152400000D03*
X28905200Y-152400000D03*
G04 #@! TD*
G04 #@! TO.P,CAM5,*
G04 #@! TO.N,*
X35915600Y-134620000D03*
X28905200Y-134620000D03*
G04 #@! TD*
G04 #@! TO.P,CAM4,*
G04 #@! TO.N,*
X35915600Y-116840000D03*
X28905200Y-116840000D03*
G04 #@! TD*
G04 #@! TO.P,CAM3,*
G04 #@! TO.N,*
X35915600Y-99060000D03*
X28905200Y-99060000D03*
G04 #@! TD*
G04 #@! TO.P,CAM2,*
G04 #@! TO.N,*
X35915600Y-81280000D03*
X28905200Y-81280000D03*
G04 #@! TD*
G04 #@! TO.P,CAM1,*
G04 #@! TO.N,*
X35915600Y-63500000D03*
X28905200Y-63500000D03*
G04 #@! TD*
G04 #@! TO.P,CAM0,*
G04 #@! TO.N,*
X35915600Y-45720000D03*
X28905200Y-45720000D03*
G04 #@! TD*
D13*
G04 #@! TO.P,P3,1*
G04 #@! TO.N,GND*
X99060000Y-147828000D03*
D14*
G04 #@! TO.P,P3,2*
G04 #@! TO.N,N/C*
X101600000Y-147828000D03*
G04 #@! TO.P,P3,3*
X104140000Y-147828000D03*
G04 #@! TO.P,P3,4*
G04 #@! TO.N,/FTDI_TX*
X106680000Y-147828000D03*
G04 #@! TO.P,P3,5*
G04 #@! TO.N,/ESP_TX*
X109220000Y-147828000D03*
G04 #@! TO.P,P3,6*
G04 #@! TO.N,N/C*
X111760000Y-147828000D03*
G04 #@! TD*
D23*
G04 #@! TO.P,SW4,3*
G04 #@! TO.N,/BUTTON_0*
X72340000Y-107100000D03*
G04 #@! TO.P,SW4,1*
G04 #@! TO.N,GND*
X72340000Y-111600000D03*
G04 #@! TO.P,SW4,2*
X78840000Y-111600000D03*
G04 #@! TO.P,SW4,4*
G04 #@! TO.N,/BUTTON_0*
X78840000Y-107100000D03*
G04 #@! TD*
D24*
G04 #@! TO.P,SW2,*
G04 #@! TO.N,*
X60040000Y-180622000D03*
X72040000Y-180622000D03*
X72040000Y-186622000D03*
X60040000Y-186622000D03*
D25*
G04 #@! TO.P,SW2,1*
G04 #@! TO.N,Net-(J2-Pad2)*
X62040000Y-182372000D03*
G04 #@! TO.P,SW2,2*
G04 #@! TO.N,Net-(F1-Pad2)*
X66040000Y-182372000D03*
G04 #@! TO.P,SW2,3*
G04 #@! TO.N,/VBUS*
X70040000Y-182372000D03*
G04 #@! TD*
D26*
G04 #@! TO.N,/AUX02*
X75750000Y-142720000D03*
X49560000Y-91590000D03*
G04 #@! TO.N,/AUX03*
X50190000Y-92130000D03*
X74510000Y-142680000D03*
G04 #@! TO.N,/AUX04*
X50800000Y-91530000D03*
X73880000Y-142160000D03*
G04 #@! TO.N,/AUX05*
X51480000Y-92060000D03*
X73270000Y-142670000D03*
G04 #@! TO.N,/AUX06*
X52140000Y-91520000D03*
X72650000Y-142200000D03*
G04 #@! TO.N,/AUX07*
X52780000Y-92050000D03*
X72040000Y-142790000D03*
G04 #@! TO.N,/AUX08*
X53420000Y-91460000D03*
X71420000Y-142330000D03*
G04 #@! TO.N,/AUX09*
X54060000Y-91970000D03*
X70810000Y-142910000D03*
G04 #@! TO.N,/AUX10*
X70190000Y-142410000D03*
X54700000Y-91280000D03*
G04 #@! TO.N,/AUX11*
X55330000Y-91860000D03*
X68150000Y-142970000D03*
G04 #@! TO.N,/AUX12*
X56010000Y-91300000D03*
X67520000Y-142480000D03*
G04 #@! TO.N,/AUX13*
X66890000Y-142960000D03*
X56650000Y-91790000D03*
G04 #@! TO.N,/AUX14*
X57270000Y-91260000D03*
X66260000Y-142490000D03*
G04 #@! TO.N,/AUX15*
X55810000Y-140860000D03*
X52350000Y-98130000D03*
G04 #@! TO.N,/AUX16*
X53020000Y-97680000D03*
X56330000Y-140230000D03*
G04 #@! TO.N,/AUX17*
X53650000Y-98140000D03*
X55810000Y-139570000D03*
G04 #@! TO.N,/AUX18*
X54350000Y-97760000D03*
X56460000Y-138930000D03*
G04 #@! TO.N,/AUX19*
X55070000Y-98120000D03*
X55850000Y-138310000D03*
G04 #@! TO.N,/AUX20*
X55720000Y-97690000D03*
X56500000Y-137700000D03*
G04 #@! TO.N,/AUX21*
X56350000Y-98140000D03*
X55890000Y-137060000D03*
G04 #@! TO.N,/AUX22*
X57020000Y-97660000D03*
X56520000Y-136430000D03*
G04 #@! TO.N,/AUX23*
X57650000Y-98140000D03*
X56010000Y-135780000D03*
G04 #@! TO.N,/AUX24*
X58290000Y-97640000D03*
X56880000Y-130070000D03*
G04 #@! TO.N,/AUX25*
X57510000Y-129560000D03*
X58930000Y-98130000D03*
G04 #@! TO.N,/AUX26*
X59630000Y-97650000D03*
X57640000Y-127540000D03*
G04 #@! TO.N,/AUX27*
X60240000Y-98120000D03*
X58140000Y-126430000D03*
G04 #@! TO.N,/AUX43*
X72470000Y-125230000D03*
X72660000Y-118140000D03*
G04 #@! TO.N,/CAM1F*
X61400000Y-100840000D03*
X60940000Y-130260000D03*
G04 #@! TO.N,/CAM1S*
X60400000Y-100890000D03*
X60910000Y-131030000D03*
G04 #@! TO.N,/CAM3F*
X57390000Y-132630000D03*
X57350000Y-130800000D03*
G04 #@! TO.N,/CAM3S*
X56650000Y-131230000D03*
X58160000Y-132680000D03*
G04 #@! TO.N,/CAM5F*
X60900000Y-141310000D03*
X49630000Y-142490000D03*
G04 #@! TO.N,/CAM5S*
X60890000Y-142140000D03*
X50980000Y-142920000D03*
G04 #@! TO.N,/CAM6F*
X51940000Y-150240000D03*
X58000000Y-142140000D03*
G04 #@! TO.N,/CAM6S*
X49990000Y-150420000D03*
X58020000Y-142980000D03*
G04 #@! TO.N,/JTAG_TMS*
X76480000Y-147290000D03*
X74230000Y-147290000D03*
G04 #@! TO.N,/LV_DETECT*
X75900000Y-117100000D03*
X74680000Y-121680000D03*
G04 #@! TO.N,/M_RESET*
X94080000Y-114370000D03*
X79210000Y-138010000D03*
X94720000Y-127520000D03*
X57350000Y-161380000D03*
X80730000Y-170870000D03*
G04 #@! TO.N,/UOTGID*
X84480400Y-184746900D03*
X60590000Y-149450000D03*
G04 #@! TO.N,/VBUS*
X78060000Y-182500000D03*
X78828900Y-157784800D03*
X82384900Y-142265400D03*
D27*
X74930000Y-181810000D03*
D26*
X71628000Y-177292000D03*
G04 #@! TO.N,/VDDOUT*
X82000000Y-133630000D03*
X82300000Y-139750000D03*
D27*
X82360000Y-145470000D03*
D26*
X65670000Y-146560000D03*
X62920000Y-122160000D03*
X60890000Y-133320000D03*
X65620000Y-143540000D03*
X82910000Y-131530000D03*
G04 #@! TO.N,/VDDPLL*
X86180000Y-149220000D03*
X77600000Y-147250000D03*
G04 #@! TO.N,3V3*
X82042000Y-106934000D03*
X92202000Y-106934000D03*
X104648000Y-110744000D03*
X57810000Y-145470000D03*
X68640000Y-147870000D03*
X60830000Y-134430000D03*
X79470000Y-130870000D03*
X85407500Y-156654500D03*
X85407500Y-155130500D03*
X67868800Y-159359600D03*
X67614800Y-160528000D03*
X70104000Y-163449000D03*
X67056000Y-159893000D03*
X85400000Y-155900000D03*
X50190000Y-165270000D03*
X57140000Y-156680000D03*
X54860000Y-156670000D03*
X52320000Y-156690000D03*
X50030000Y-156670000D03*
X89030000Y-131810000D03*
X112780000Y-111360000D03*
X76760000Y-112880000D03*
X78650000Y-113200000D03*
X112780000Y-87220000D03*
X112770000Y-63100000D03*
X112780000Y-38970000D03*
X109080000Y-35550000D03*
X75220000Y-126550000D03*
X92570000Y-133490000D03*
X91220000Y-141660000D03*
X79450000Y-135880000D03*
X79340000Y-133490000D03*
X61730000Y-122160000D03*
D28*
X59940000Y-112910000D03*
D26*
G04 #@! TO.N,5V*
X61210000Y-164100000D03*
X72240000Y-113820000D03*
G04 #@! TO.N,GND*
X100838000Y-111506000D03*
X95250000Y-111506000D03*
X77700000Y-143690000D03*
X69190000Y-147270000D03*
X79000000Y-138770000D03*
X79300000Y-132720000D03*
X79430000Y-134870000D03*
X64681100Y-167576500D03*
X78016100Y-162077400D03*
X62191900Y-167614600D03*
X63500000Y-167640000D03*
X59060000Y-157700000D03*
X93380000Y-164590000D03*
X27800000Y-87070000D03*
X125970000Y-173730000D03*
X125984000Y-166624000D03*
X116620000Y-164100000D03*
X118650000Y-161540000D03*
X47880000Y-140200000D03*
X46590000Y-138570000D03*
X46590000Y-136690000D03*
X57200000Y-149360000D03*
X91740000Y-149210000D03*
X91470000Y-147190000D03*
X91350000Y-145660000D03*
X87680000Y-134950000D03*
X66030000Y-149950000D03*
X67490000Y-149990000D03*
X86340000Y-139480000D03*
X62360000Y-125130000D03*
X79460000Y-125020000D03*
X105060000Y-149730000D03*
X87380000Y-131190000D03*
X76770000Y-154900000D03*
X76270000Y-154290000D03*
X75440000Y-154180000D03*
X78980000Y-147450000D03*
X51130000Y-107030000D03*
X49090000Y-117610000D03*
X49090000Y-115350000D03*
X59120000Y-114030000D03*
X61920000Y-118260000D03*
X43210000Y-109270000D03*
X43250000Y-101730000D03*
X49670000Y-102310000D03*
X49640000Y-104600000D03*
X59300000Y-106980000D03*
X60660000Y-104620000D03*
X60720000Y-102340000D03*
X114690000Y-35560000D03*
X111130000Y-43050000D03*
X111170000Y-67190000D03*
X111150000Y-91290000D03*
X112780000Y-116960000D03*
X90560000Y-137450000D03*
X91059000Y-135890000D03*
X116850000Y-134870000D03*
X72280000Y-115380000D03*
X76770000Y-116400000D03*
X49400000Y-132880000D03*
X93360000Y-130560000D03*
X91710000Y-128640000D03*
X89120000Y-133140000D03*
X91059000Y-139446000D03*
X92570000Y-143740000D03*
X74940000Y-186100000D03*
X77597000Y-180035200D03*
X81788000Y-180035200D03*
X77940000Y-171880000D03*
X65550000Y-155630000D03*
X63380000Y-157670000D03*
X61230000Y-155660000D03*
X56130000Y-167190000D03*
X52960000Y-167340000D03*
X27810000Y-175980000D03*
X39350000Y-170180000D03*
X43240000Y-162740000D03*
X27790000Y-158150000D03*
X27780000Y-140450000D03*
X39360000Y-116880000D03*
X43240000Y-91580000D03*
X39400000Y-81240000D03*
X43260000Y-84020000D03*
X43250000Y-74070000D03*
X27770000Y-69490000D03*
X43240000Y-66260000D03*
X39390000Y-63520000D03*
X43240000Y-56080000D03*
X43260000Y-48460000D03*
X43260000Y-38300000D03*
X39330000Y-45700000D03*
X27790000Y-51630000D03*
X43240000Y-119570000D03*
X27860000Y-122680000D03*
X43240000Y-127210000D03*
X39360000Y-134620000D03*
X43240000Y-137380000D03*
X43250000Y-144970000D03*
X39390000Y-152410000D03*
X43240000Y-155150000D03*
X50980000Y-153960000D03*
X57330000Y-151560000D03*
X59620000Y-115560000D03*
X50950000Y-135990000D03*
X53840000Y-145570000D03*
X54490000Y-142660000D03*
X43220000Y-172920000D03*
X27770000Y-104970000D03*
X39330000Y-99010000D03*
X87871300Y-184746900D03*
G04 #@! TO.N,Net-(C15-Pad1)*
X79470000Y-123970000D03*
X79480000Y-116890000D03*
G04 #@! TO.N,Net-(C20-Pad1)*
X79470000Y-141730000D03*
X87930000Y-145280000D03*
G04 #@! TO.N,Net-(C42-Pad1)*
X86670000Y-143770000D03*
X82130000Y-141490000D03*
G04 #@! TO.N,Net-(F1-Pad2)*
X61350000Y-174570000D03*
X66040000Y-176911000D03*
G04 #@! TO.N,Net-(J2-Pad2)*
X57020000Y-175260000D03*
X60833000Y-177038000D03*
G04 #@! TO.N,/CC_RX*
X64920000Y-152660000D03*
G04 #@! TO.N,/CC_TX*
X65820000Y-152660000D03*
G04 #@! TO.N,/CC_RTS*
X66700000Y-152650000D03*
G04 #@! TO.N,/CC_CTS*
X67630000Y-152700000D03*
G04 #@! TO.N,/AUX44*
X71860000Y-125710000D03*
X72040000Y-116620000D03*
G04 #@! TO.N,/AUX45*
X81870000Y-123560000D03*
X80180000Y-113960000D03*
G04 #@! TO.N,/AUX46*
X82520000Y-124120000D03*
X81030000Y-113930000D03*
G04 #@! TO.N,/AUX47*
X82100000Y-114000000D03*
X83210000Y-123560000D03*
G04 #@! TO.N,/CC_RESET*
X83270000Y-132350000D03*
G04 #@! TO.N,/CC_PROG*
X83780000Y-130920000D03*
G04 #@! TO.N,/CC_EXT0*
X82140000Y-132400000D03*
G04 #@! TO.N,/CC_EXT1*
X83830000Y-163700000D03*
X82920000Y-134480000D03*
G04 #@! TO.N,Net-(R23-Pad2)*
X47170000Y-51980000D03*
X47270000Y-111010000D03*
G04 #@! TO.N,Net-(R24-Pad2)*
X48200000Y-111300000D03*
X47590000Y-44680000D03*
G04 #@! TO.N,Net-(R33-Pad2)*
X49070000Y-107820000D03*
X48970000Y-111750000D03*
G04 #@! TO.N,Net-(R34-Pad2)*
X49700000Y-112320000D03*
X49700000Y-107383400D03*
G04 #@! TO.N,Net-(R37-Pad2)*
X47690000Y-106930000D03*
X50330000Y-105980000D03*
G04 #@! TO.N,Net-(R42-Pad2)*
X46900000Y-109720000D03*
X46900000Y-108290000D03*
G04 #@! TO.N,Net-(R45-Pad2)*
X53000000Y-145610000D03*
X47410000Y-131910000D03*
G04 #@! TO.N,Net-(R46-Pad2)*
X48080000Y-131480000D03*
X51890000Y-144500000D03*
G04 #@! TO.N,Net-(R49-Pad2)*
X50590000Y-145780000D03*
X47820000Y-141390000D03*
G04 #@! TO.N,Net-(R50-Pad2)*
X48760000Y-145480000D03*
X46860000Y-133710000D03*
G04 #@! TO.N,Net-(R53-Pad2)*
X45830000Y-144830000D03*
X45780000Y-142300000D03*
G04 #@! TO.N,Net-(R57-Pad2)*
X48030000Y-145000000D03*
X46480000Y-145940000D03*
G04 #@! TO.N,/ESP_3V3*
X112110000Y-161570000D03*
X114970000Y-176500000D03*
X88646000Y-156654500D03*
X88582500Y-155130500D03*
D27*
X116713000Y-171831000D03*
X119126000Y-171704000D03*
X118999000Y-168402000D03*
X116210000Y-168430000D03*
D26*
X107830000Y-151310000D03*
X100740000Y-152070000D03*
X88640000Y-155900000D03*
X91230000Y-172280000D03*
G04 #@! TO.N,/MOD0p3*
X83820000Y-124740000D03*
X85590000Y-111940000D03*
G04 #@! TO.N,/MOD0p1_SCL*
X85780754Y-111165618D03*
X86380000Y-118550000D03*
G04 #@! TO.N,/MOD0p4_RX*
X80080000Y-114730000D03*
X74840000Y-127230000D03*
G04 #@! TO.N,/MOD0p2_SDA*
X85110000Y-119290000D03*
X83670000Y-105770000D03*
G04 #@! TO.N,/MOD0p5_TX*
X80120000Y-115780000D03*
X75480000Y-127870000D03*
G04 #@! TO.N,/MOD0p0_AN0*
X82800000Y-105820000D03*
X84490000Y-121530000D03*
G04 #@! TO.N,/MOD2p3*
X92980000Y-117680000D03*
X85230000Y-125300000D03*
G04 #@! TO.N,/MOD2p4_AN3*
X92060000Y-118490000D03*
X92660000Y-116310000D03*
G04 #@! TO.N,/MOD2p2_AN2*
X91290000Y-119240000D03*
X93230000Y-115700000D03*
G04 #@! TO.N,/MOD2p0_AN0*
X92480000Y-115070000D03*
X89030000Y-121590000D03*
G04 #@! TO.N,/MOD1p3*
X84430000Y-125200000D03*
X87700000Y-116350000D03*
G04 #@! TO.N,/MOD1p1_SCL*
X83820000Y-117010000D03*
X82570000Y-126300000D03*
G04 #@! TO.N,/MOD1p4_RX*
X78530000Y-127730000D03*
X80710000Y-117020000D03*
G04 #@! TO.N,/MOD1p2_SDA*
X80070000Y-117460000D03*
X76600000Y-127880000D03*
G04 #@! TO.N,/MOD1p5_TX*
X77570000Y-127770000D03*
X80740000Y-117830000D03*
G04 #@! TO.N,/MOD1p0_AN0*
X86203044Y-110531033D03*
X85500000Y-122420000D03*
G04 #@! TO.N,/AUX00_TX*
X61400000Y-99580000D03*
X63400000Y-141910000D03*
G04 #@! TO.N,/AUX01_RX*
X48930000Y-92090000D03*
X75130000Y-142190000D03*
G04 #@! TO.N,/MOD3p1_MOSI*
X73964821Y-130314543D03*
X87350000Y-128530000D03*
G04 #@! TO.N,/MOD3p4_SCLK*
X73507610Y-131170000D03*
X85160000Y-127790000D03*
G04 #@! TO.N,/MOD3p2_MISO*
X73507610Y-128350000D03*
X85660000Y-127150000D03*
G04 #@! TO.N,/MOD3p5_CS*
X74254169Y-129609610D03*
X84500000Y-128400000D03*
G04 #@! TO.N,/ESP_PROG*
X92660000Y-169960000D03*
X98640000Y-154770000D03*
G04 #@! TO.N,/ESP_CTS*
X113520000Y-167110000D03*
X100680000Y-154820000D03*
G04 #@! TO.N,/ESP_TX*
X104000000Y-158220000D03*
X93570000Y-179060000D03*
X105240000Y-152720000D03*
G04 #@! TO.N,/ESP_EXT0*
X112010000Y-154730000D03*
X114840000Y-169070000D03*
G04 #@! TO.N,/ESP_RESET*
X96560000Y-154850000D03*
X115090000Y-179160000D03*
G04 #@! TO.N,/ESP_RTS*
X92250000Y-168210000D03*
X102870000Y-154840000D03*
G04 #@! TO.N,/ESP_EXT1*
X114190000Y-171080000D03*
X109720000Y-154770000D03*
G04 #@! TO.N,/ESP_R_LED*
X91010000Y-175080000D03*
X90820000Y-160050000D03*
G04 #@! TO.N,Net-(R61-Pad2)*
X91640000Y-169080000D03*
X116640000Y-159570000D03*
G04 #@! TO.N,/BUTTON_0*
X61800000Y-96750000D03*
G04 #@! TO.N,Net-(U3-Pad4)*
X93820000Y-150650000D03*
X95690000Y-150650000D03*
G04 #@! TO.N,Net-(SW1-Pad2)*
X60960000Y-136906000D03*
X61214000Y-135128000D03*
X73152000Y-132842000D03*
X82042000Y-112522000D03*
X83312000Y-109728000D03*
X90678000Y-110236000D03*
G04 #@! TD*
D29*
G04 #@! TO.N,/AUX02*
X75750000Y-142720000D02*
X75750000Y-139820000D01*
X75750000Y-139820000D02*
X71250000Y-135320000D01*
X71250000Y-135320000D02*
X71250000Y-96190000D01*
X71250000Y-96190000D02*
X59980000Y-84920000D01*
X49560000Y-91590000D02*
X49560000Y-92370000D01*
X49560000Y-92370000D02*
X49210000Y-92720000D01*
X49210000Y-92720000D02*
X48677202Y-92720000D01*
X48677202Y-92720000D02*
X48300000Y-92342798D01*
X48300000Y-92342798D02*
X48300000Y-91280000D01*
X48300000Y-91280000D02*
X54660000Y-84920000D01*
X54660000Y-84920000D02*
X59980000Y-84920000D01*
G04 #@! TO.N,/AUX03*
X70286582Y-96596582D02*
X70286582Y-135696582D01*
X70286582Y-96596582D02*
X59560000Y-85870000D01*
X74510000Y-142680000D02*
X74510000Y-139920000D01*
X74510000Y-139920000D02*
X70286582Y-135696582D01*
X50190000Y-92130000D02*
X50190000Y-90770000D01*
X50190000Y-90770000D02*
X55090000Y-85870000D01*
X55090000Y-85870000D02*
X59560000Y-85870000D01*
G04 #@! TO.N,/AUX04*
X69790000Y-96760000D02*
X69790000Y-135846582D01*
X70131709Y-136188291D02*
X70131709Y-136191709D01*
X69790000Y-135846582D02*
X70131709Y-136188291D01*
X50800000Y-90840000D02*
X55290000Y-86350000D01*
X55290000Y-86350000D02*
X59380000Y-86350000D01*
X59380000Y-86350000D02*
X69790000Y-96760000D01*
X50800000Y-91530000D02*
X50800000Y-90840000D01*
X73880000Y-139940000D02*
X73880000Y-142160000D01*
X73880000Y-139940000D02*
X70131709Y-136191709D01*
G04 #@! TO.N,/AUX05*
X69320000Y-136050000D02*
X69320000Y-96972695D01*
X73270000Y-140000000D02*
X69320000Y-136050000D01*
X73270000Y-142670000D02*
X73270000Y-140000000D01*
X69320000Y-96972695D02*
X59187305Y-86840000D01*
X51480000Y-92060000D02*
X51480000Y-90820000D01*
X51480000Y-90820000D02*
X55460000Y-86840000D01*
X55460000Y-86840000D02*
X59187305Y-86840000D01*
G04 #@! TO.N,/AUX06*
X72650000Y-142200000D02*
X72650000Y-140050000D01*
X68850000Y-97200000D02*
X58970000Y-87320000D01*
X68850000Y-136250000D02*
X68850000Y-97200000D01*
X72650000Y-140050000D02*
X68850000Y-136250000D01*
X52140000Y-91520000D02*
X52140000Y-90820000D01*
X52140000Y-90820000D02*
X55640000Y-87320000D01*
X55640000Y-87320000D02*
X58970000Y-87320000D01*
G04 #@! TO.N,/AUX07*
X72040000Y-142790000D02*
X72040000Y-140110000D01*
X68370000Y-97410000D02*
X58750000Y-87790000D01*
X68370000Y-136440000D02*
X68370000Y-97410000D01*
X72040000Y-140110000D02*
X68370000Y-136440000D01*
X52780000Y-92050000D02*
X52780000Y-90840000D01*
X52780000Y-90840000D02*
X55830000Y-87790000D01*
X55830000Y-87790000D02*
X58750000Y-87790000D01*
G04 #@! TO.N,/AUX08*
X67901709Y-136641709D02*
X67901709Y-97611709D01*
X67901709Y-97611709D02*
X58560000Y-88270000D01*
X71420000Y-142330000D02*
X71420000Y-140160000D01*
X71420000Y-140160000D02*
X67901709Y-136641709D01*
X53420000Y-91460000D02*
X53420000Y-90870000D01*
X53420000Y-90870000D02*
X56020000Y-88270000D01*
X56020000Y-88270000D02*
X58560000Y-88270000D01*
G04 #@! TO.N,/AUX09*
X70810000Y-142910000D02*
X70810000Y-140220000D01*
X67440000Y-97820000D02*
X58360000Y-88740000D01*
X67440000Y-136850000D02*
X67440000Y-97820000D01*
X70810000Y-140220000D02*
X67440000Y-136850000D01*
X54060000Y-91970000D02*
X54060000Y-90890000D01*
X54060000Y-90890000D02*
X56210000Y-88740000D01*
X56210000Y-88740000D02*
X58360000Y-88740000D01*
G04 #@! TO.N,/AUX10*
X54700000Y-90910000D02*
X56400000Y-89210000D01*
X56400000Y-89210000D02*
X58130000Y-89210000D01*
X58130000Y-89210000D02*
X66970000Y-98050000D01*
X66970000Y-98050000D02*
X66970000Y-137070000D01*
X66970000Y-137070000D02*
X70190000Y-140290000D01*
X70190000Y-140290000D02*
X70190000Y-142410000D01*
X54700000Y-91280000D02*
X54700000Y-90910000D01*
G04 #@! TO.N,/AUX11*
X68150000Y-142970000D02*
X68150000Y-138920000D01*
X66500000Y-98270000D02*
X57910000Y-89680000D01*
X66500000Y-137270000D02*
X66500000Y-98270000D01*
X68150000Y-138920000D02*
X66500000Y-137270000D01*
X55330000Y-91860000D02*
X55330000Y-90940000D01*
X55330000Y-90940000D02*
X56590000Y-89680000D01*
X56590000Y-89680000D02*
X57910000Y-89680000D01*
G04 #@! TO.N,/AUX12*
X67520000Y-142480000D02*
X67520000Y-138950000D01*
X66026709Y-98466709D02*
X57720000Y-90160000D01*
X66026709Y-137456709D02*
X66026709Y-98466709D01*
X67520000Y-138950000D02*
X66026709Y-137456709D01*
X56790000Y-90160000D02*
X57720000Y-90160000D01*
X56010000Y-91300000D02*
X56010000Y-90940000D01*
X56010000Y-90940000D02*
X56790000Y-90160000D01*
G04 #@! TO.N,/AUX13*
X66905000Y-142945000D02*
X66905000Y-139015000D01*
X65550000Y-98650000D02*
X57530000Y-90630000D01*
X65550000Y-137660000D02*
X65550000Y-98650000D01*
X66905000Y-139015000D02*
X65550000Y-137660000D01*
X56650000Y-91790000D02*
X56650000Y-90960000D01*
X56650000Y-90960000D02*
X56980000Y-90630000D01*
X56980000Y-90630000D02*
X57530000Y-90630000D01*
X66890000Y-142960000D02*
X66905000Y-142945000D01*
G04 #@! TO.N,/AUX14*
X65070000Y-137840000D02*
X65070000Y-99060000D01*
X65070000Y-99060000D02*
X57270000Y-91260000D01*
X66270000Y-142480000D02*
X66270000Y-139040000D01*
X66260000Y-142490000D02*
X66270000Y-142480000D01*
X66270000Y-139040000D02*
X65070000Y-137840000D01*
G04 #@! TO.N,/AUX15*
X52350000Y-98130000D02*
X52350000Y-98430000D01*
X52350000Y-98430000D02*
X51800000Y-98980000D01*
X55810000Y-140860000D02*
X52320000Y-140860000D01*
X52320000Y-140860000D02*
X51800000Y-140340000D01*
X51800000Y-140340000D02*
X51800000Y-98980000D01*
G04 #@! TO.N,/AUX16*
X52290000Y-139712798D02*
X52290000Y-99170000D01*
X52290000Y-99170000D02*
X53020000Y-98440000D01*
X53020000Y-98440000D02*
X53020000Y-97680000D01*
X56310000Y-140210000D02*
X52787202Y-140210000D01*
X56330000Y-140230000D02*
X56310000Y-140210000D01*
X52787202Y-140210000D02*
X52290000Y-139712798D01*
G04 #@! TO.N,/AUX17*
X52780000Y-99420000D02*
X53650000Y-98550000D01*
X53650000Y-98550000D02*
X53650000Y-98140000D01*
X53197202Y-139570000D02*
X52780000Y-139152798D01*
X55810000Y-139570000D02*
X53197202Y-139570000D01*
X52780000Y-139152798D02*
X52780000Y-99420000D01*
G04 #@! TO.N,/AUX18*
X53340000Y-99560000D02*
X54350000Y-98550000D01*
X54350000Y-98550000D02*
X54350000Y-97760000D01*
X56460000Y-138930000D02*
X53770000Y-138930000D01*
X53340000Y-138500000D02*
X53340000Y-99560000D01*
X53770000Y-138930000D02*
X53340000Y-138500000D01*
G04 #@! TO.N,/AUX19*
X53860000Y-99740000D02*
X55070000Y-98530000D01*
X55070000Y-98530000D02*
X55070000Y-98120000D01*
X54257202Y-138310000D02*
X53860000Y-137912798D01*
X53860000Y-137912798D02*
X53860000Y-99740000D01*
X55850000Y-138310000D02*
X54257202Y-138310000D01*
G04 #@! TO.N,/AUX20*
X54360000Y-99940000D02*
X55720000Y-98580000D01*
X55720000Y-98580000D02*
X55720000Y-97690000D01*
X56500000Y-137700000D02*
X54840000Y-137700000D01*
X54360000Y-137220000D02*
X54360000Y-99940000D01*
X54840000Y-137700000D02*
X54360000Y-137220000D01*
G04 #@! TO.N,/AUX21*
X54860000Y-100140000D02*
X56350000Y-98650000D01*
X56350000Y-98650000D02*
X56350000Y-98140000D01*
X55377202Y-137060000D02*
X54860000Y-136542798D01*
X55890000Y-137060000D02*
X55377202Y-137060000D01*
X54860000Y-136542798D02*
X54860000Y-100140000D01*
G04 #@! TO.N,/AUX22*
X55380000Y-100320000D02*
X57020000Y-98680000D01*
X57020000Y-98680000D02*
X57020000Y-97660000D01*
X55767202Y-136430000D02*
X55380000Y-136042798D01*
X55380000Y-136042798D02*
X55380000Y-100320000D01*
X56520000Y-136430000D02*
X55767202Y-136430000D01*
G04 #@! TO.N,/AUX23*
X56010000Y-100370000D02*
X57650000Y-98730000D01*
X57650000Y-98730000D02*
X57650000Y-98140000D01*
X56010000Y-135780000D02*
X56010000Y-100370000D01*
G04 #@! TO.N,/AUX24*
X56490000Y-100560000D02*
X56490000Y-129680000D01*
X58290000Y-98760000D02*
X58290000Y-97640000D01*
X56490000Y-100560000D02*
X58290000Y-98760000D01*
X56490000Y-129680000D02*
X56880000Y-130070000D01*
G04 #@! TO.N,/AUX25*
X57030000Y-127850000D02*
X57510000Y-128330000D01*
X57510000Y-129560000D02*
X57510000Y-128330000D01*
X57030000Y-100690000D02*
X57030000Y-127850000D01*
X57030000Y-100690000D02*
X58930000Y-98790000D01*
X58930000Y-98790000D02*
X58930000Y-98130000D01*
G04 #@! TO.N,/AUX26*
X57529878Y-101500128D02*
X57529878Y-100870122D01*
X57529878Y-100870122D02*
X59630000Y-98770000D01*
X59630000Y-97650000D02*
X59630000Y-98770000D01*
X57520225Y-127420225D02*
X57640000Y-127540000D01*
X57520225Y-126829600D02*
X57529878Y-101500128D01*
X57520225Y-126829600D02*
X57520225Y-127420225D01*
G04 #@! TO.N,/AUX27*
X58049868Y-101669868D02*
X58049868Y-101020132D01*
X58049868Y-101020132D02*
X60240000Y-98830000D01*
X60240000Y-98120000D02*
X60240000Y-98830000D01*
X58040000Y-126330000D02*
X58049868Y-101669868D01*
X58140000Y-126430000D02*
X58040000Y-126330000D01*
G04 #@! TO.N,/AUX43*
X72340000Y-118460000D02*
X72340000Y-125100000D01*
X72340000Y-125100000D02*
X72470000Y-125230000D01*
X72660000Y-118140000D02*
X72340000Y-118460000D01*
G04 #@! TO.N,/CAM1F*
X62080000Y-130260000D02*
X60940000Y-130260000D01*
X63370000Y-100840000D02*
X63640000Y-101110000D01*
X63640000Y-101110000D02*
X63640000Y-128700000D01*
X63640000Y-128700000D02*
X62080000Y-130260000D01*
X61400000Y-100840000D02*
X63370000Y-100840000D01*
G04 #@! TO.N,/CAM1S*
X60910000Y-131030000D02*
X62010000Y-131030000D01*
X63700000Y-100210000D02*
X60970000Y-100210000D01*
X64110000Y-100620000D02*
X63700000Y-100210000D01*
X64110000Y-128930000D02*
X64110000Y-100620000D01*
X62010000Y-131030000D02*
X64110000Y-128930000D01*
X60400000Y-100890000D02*
X60400000Y-100780000D01*
X60400000Y-100780000D02*
X60970000Y-100210000D01*
G04 #@! TO.N,/CAM3F*
X57390000Y-132630000D02*
X57390000Y-131230000D01*
X57390000Y-131230000D02*
X57350000Y-130800000D01*
D30*
G04 #@! TO.N,/CAM3S*
X58160000Y-132680000D02*
X58160000Y-132880000D01*
X56650000Y-131230000D02*
X56650000Y-132720000D01*
X57140000Y-133210000D02*
X57830000Y-133210000D01*
X56650000Y-132720000D02*
X57140000Y-133210000D01*
X58160000Y-132880000D02*
X57830000Y-133210000D01*
D29*
G04 #@! TO.N,/CAM5F*
X60900000Y-141310000D02*
X58730000Y-141310000D01*
X50630000Y-141490000D02*
X49630000Y-142490000D01*
X57062798Y-141490000D02*
X50630000Y-141490000D01*
X57522798Y-141030000D02*
X57062798Y-141490000D01*
X58450000Y-141030000D02*
X57522798Y-141030000D01*
X58730000Y-141310000D02*
X58450000Y-141030000D01*
G04 #@! TO.N,/CAM5S*
X60890000Y-142140000D02*
X58890000Y-142140000D01*
X51870000Y-142030000D02*
X50980000Y-142920000D01*
X57200000Y-142030000D02*
X51870000Y-142030000D01*
X57720000Y-141510000D02*
X57200000Y-142030000D01*
X58260000Y-141510000D02*
X57720000Y-141510000D01*
X58890000Y-142140000D02*
X58260000Y-141510000D01*
G04 #@! TO.N,/CAM6F*
X58000000Y-142140000D02*
X58190000Y-142140000D01*
X58660000Y-143520000D02*
X51940000Y-150240000D01*
X58660000Y-142610000D02*
X58660000Y-143520000D01*
X58190000Y-142140000D02*
X58660000Y-142610000D01*
G04 #@! TO.N,/CAM6S*
X58020000Y-142980000D02*
X58020000Y-143470000D01*
X52220000Y-149270000D02*
X51030000Y-149270000D01*
X58020000Y-143470000D02*
X52220000Y-149270000D01*
X49990000Y-150420000D02*
X49990000Y-150310000D01*
X49990000Y-150310000D02*
X51030000Y-149270000D01*
G04 #@! TO.N,/JTAG_TMS*
X74230000Y-147290000D02*
X76480000Y-147290000D01*
G04 #@! TO.N,/LV_DETECT*
X75900000Y-117100000D02*
X75900000Y-120460000D01*
X75900000Y-120460000D02*
X74680000Y-121680000D01*
G04 #@! TO.N,/M_RESET*
X94080000Y-114370000D02*
X94080000Y-126880000D01*
X94080000Y-126880000D02*
X94720000Y-127520000D01*
X81090000Y-131050000D02*
X80500000Y-131050000D01*
X77560000Y-136360000D02*
X79210000Y-138010000D01*
X77560000Y-133080000D02*
X77560000Y-136360000D01*
X78700000Y-131940000D02*
X77560000Y-133080000D01*
X79610000Y-131940000D02*
X78700000Y-131940000D01*
X80500000Y-131050000D02*
X79610000Y-131940000D01*
X89360000Y-127520000D02*
X87240000Y-129640000D01*
X82500000Y-129640000D02*
X87240000Y-129640000D01*
X81090000Y-131050000D02*
X82500000Y-129640000D01*
X94720000Y-127520000D02*
X89360000Y-127520000D01*
X67281000Y-156591000D02*
X61595000Y-156591000D01*
X57350000Y-160836000D02*
X57350000Y-161380000D01*
X61595000Y-156591000D02*
X57350000Y-160836000D01*
X67281000Y-156591000D02*
X80730000Y-170040000D01*
X80730000Y-170870000D02*
X80730000Y-170040000D01*
G04 #@! TO.N,/UOTGID*
X84480400Y-184746900D02*
X84480400Y-173100400D01*
X60830000Y-149450000D02*
X60590000Y-149450000D01*
X84480400Y-173100400D02*
X60830000Y-149450000D01*
D31*
G04 #@! TO.N,/VBUS*
X79985200Y-157784800D02*
X88020000Y-149750000D01*
X88020000Y-149750000D02*
X88020000Y-146680000D01*
X88020000Y-146680000D02*
X83605400Y-142265400D01*
X82384900Y-142265400D02*
X83605400Y-142265400D01*
X78828900Y-157784800D02*
X79985200Y-157784800D01*
D32*
X70040000Y-182372000D02*
X70040000Y-178880000D01*
X70040000Y-178880000D02*
X71628000Y-177292000D01*
D33*
G04 #@! TO.N,/VDDOUT*
X65188948Y-143540000D02*
X65620000Y-143540000D01*
X63520000Y-143540000D02*
X65188948Y-143540000D01*
X62052201Y-142072201D02*
X63520000Y-143540000D01*
X62052201Y-134051149D02*
X62052201Y-142072201D01*
X60890000Y-133320000D02*
X61321052Y-133320000D01*
X61321052Y-133320000D02*
X62052201Y-134051149D01*
X66050000Y-146180000D02*
X81080000Y-146180000D01*
X81080000Y-146180000D02*
X81790000Y-145470000D01*
X82360000Y-145470000D02*
X81790000Y-145470000D01*
X81790000Y-145470000D02*
X78540000Y-142220000D01*
X79970000Y-139750000D02*
X78540000Y-141180000D01*
X82300000Y-139750000D02*
X79970000Y-139750000D01*
X78540000Y-142220000D02*
X78540000Y-141180000D01*
X82000000Y-133630000D02*
X82000000Y-139450000D01*
X82000000Y-139450000D02*
X82300000Y-139750000D01*
X66050000Y-146180000D02*
X65670000Y-146560000D01*
X62920000Y-122160000D02*
X62920000Y-122670000D01*
X59400000Y-131830000D02*
X60890000Y-133320000D01*
X59400000Y-126190000D02*
X59400000Y-131830000D01*
X62920000Y-122670000D02*
X59400000Y-126190000D01*
D29*
G04 #@! TO.N,/VDDPLL*
X77600000Y-147250000D02*
X77600000Y-147530000D01*
X79290000Y-149220000D02*
X86180000Y-149220000D01*
X77600000Y-147530000D02*
X79290000Y-149220000D01*
D33*
G04 #@! TO.N,5V*
X60778948Y-164100000D02*
X61210000Y-164100000D01*
X56050000Y-148960000D02*
X56050000Y-162360000D01*
X59990000Y-145020000D02*
X56050000Y-148960000D01*
X74820000Y-145020000D02*
X59990000Y-145020000D01*
X57790000Y-164100000D02*
X60778948Y-164100000D01*
X76870000Y-142970000D02*
X74820000Y-145020000D01*
X72080000Y-127610118D02*
X72080000Y-135010000D01*
X72080000Y-135010000D02*
X76870000Y-139800000D01*
X73660000Y-126030118D02*
X72080000Y-127610118D01*
X56050000Y-162360000D02*
X57790000Y-164100000D01*
X73660000Y-115240000D02*
X73660000Y-126030118D01*
X76870000Y-139800000D02*
X76870000Y-142970000D01*
X72240000Y-113820000D02*
X73660000Y-115240000D01*
D29*
G04 #@! TO.N,Net-(C15-Pad1)*
X79470000Y-123970000D02*
X79450000Y-116920000D01*
X79450000Y-116920000D02*
X79480000Y-116890000D01*
G04 #@! TO.N,Net-(C20-Pad1)*
X87930000Y-145280000D02*
X87930000Y-143980000D01*
X80340000Y-140860000D02*
X79470000Y-141730000D01*
X84810000Y-140860000D02*
X80340000Y-140860000D01*
X87930000Y-143980000D02*
X84810000Y-140860000D01*
G04 #@! TO.N,Net-(C42-Pad1)*
X82130000Y-141490000D02*
X83705000Y-141490000D01*
X83705000Y-141490000D02*
X85985000Y-143770000D01*
X85985000Y-143770000D02*
X86670000Y-143770000D01*
D32*
G04 #@! TO.N,Net-(F1-Pad2)*
X66040000Y-182372000D02*
X66040000Y-176911000D01*
G04 #@! TO.N,Net-(J2-Pad2)*
X62040000Y-182372000D02*
X62040000Y-178245000D01*
X62040000Y-178245000D02*
X60833000Y-177038000D01*
D29*
G04 #@! TO.N,/CC_RX*
X85598000Y-168402000D02*
X80662000Y-168402000D01*
X80662000Y-168402000D02*
X64920000Y-152660000D01*
G04 #@! TO.N,/CC_TX*
X86920000Y-167190000D02*
X80350000Y-167190000D01*
X80350000Y-167190000D02*
X65820000Y-152660000D01*
X88138000Y-168402000D02*
X88132000Y-168402000D01*
X88132000Y-168402000D02*
X86920000Y-167190000D01*
G04 #@! TO.N,/CC_RTS*
X85598000Y-165862000D02*
X79912000Y-165862000D01*
X79912000Y-165862000D02*
X66700000Y-152650000D01*
G04 #@! TO.N,/CC_CTS*
X86840000Y-164630000D02*
X79560000Y-164630000D01*
X79560000Y-164630000D02*
X67630000Y-152700000D01*
X86840000Y-164630000D02*
X88072000Y-165862000D01*
X88138000Y-165862000D02*
X88072000Y-165862000D01*
G04 #@! TO.N,/AUX44*
X71967202Y-116620000D02*
X71860000Y-116727202D01*
X71860000Y-116727202D02*
X71860000Y-125710000D01*
X71967202Y-116620000D02*
X72040000Y-116620000D01*
G04 #@! TO.N,/AUX45*
X81870000Y-123560000D02*
X81870000Y-117230000D01*
X80760000Y-114540000D02*
X80180000Y-113960000D01*
X81870000Y-117230000D02*
X80760000Y-116120000D01*
X80760000Y-116120000D02*
X80760000Y-114540000D01*
G04 #@! TO.N,/AUX46*
X82520000Y-124120000D02*
X82520000Y-117210000D01*
X81270000Y-114170000D02*
X81030000Y-113930000D01*
X82520000Y-117210000D02*
X81270000Y-115960000D01*
X81270000Y-115960000D02*
X81270000Y-114170000D01*
G04 #@! TO.N,/AUX47*
X82100000Y-116060000D02*
X83210000Y-117170000D01*
X83210000Y-123560000D02*
X83210000Y-117170000D01*
X82100000Y-114000000D02*
X82100000Y-116060000D01*
G04 #@! TO.N,/CC_RESET*
X84290000Y-154940000D02*
X84290000Y-162014000D01*
X83270000Y-132350000D02*
X83270000Y-133090000D01*
X83270000Y-133090000D02*
X89172798Y-138992798D01*
X84290000Y-154940000D02*
X89172798Y-150057202D01*
X89172798Y-138992798D02*
X89172798Y-150057202D01*
X84290000Y-162014000D02*
X85598000Y-163322000D01*
X85598000Y-163322000D02*
X85222000Y-163322000D01*
G04 #@! TO.N,/CC_PROG*
X83780000Y-130920000D02*
X83900000Y-130920000D01*
X83893291Y-130926709D02*
X83893291Y-132843291D01*
X83900000Y-130920000D02*
X83893291Y-130926709D01*
X89360000Y-150560000D02*
X89360000Y-162100000D01*
X89360000Y-162100000D02*
X88138000Y-163322000D01*
X89360000Y-150560000D02*
X89630000Y-150290000D01*
X83893291Y-132843291D02*
X89630000Y-138580000D01*
X89630000Y-150290000D02*
X89630000Y-138580000D01*
X88138000Y-163322000D02*
X88578000Y-163322000D01*
G04 #@! TO.N,/CC_EXT0*
X88138000Y-170942000D02*
X88158000Y-170942000D01*
X88158000Y-170942000D02*
X89850000Y-169250000D01*
X89850000Y-150870000D02*
X90140000Y-150580000D01*
X89850000Y-169250000D02*
X89850000Y-150870000D01*
X82180000Y-131100000D02*
X82180000Y-132360000D01*
X90090000Y-138230000D02*
X85240000Y-133380000D01*
X90090000Y-148600000D02*
X90087202Y-148597202D01*
X90090000Y-138230000D02*
X90090000Y-148600000D01*
X82180000Y-131100000D02*
X82990000Y-130290000D01*
X82990000Y-130290000D02*
X84440000Y-130290000D01*
X84440000Y-130290000D02*
X85240000Y-131090000D01*
X85240000Y-131090000D02*
X85240000Y-133380000D01*
X90140000Y-148652798D02*
X90087202Y-148600000D01*
X90087202Y-148600000D02*
X90087202Y-148597202D01*
X90140000Y-150580000D02*
X90140000Y-148652798D01*
X82180000Y-132360000D02*
X82140000Y-132400000D01*
G04 #@! TO.N,/CC_EXT1*
X83830000Y-163700000D02*
X83830000Y-154740000D01*
X84400000Y-154170000D02*
X84400000Y-154183418D01*
X83830000Y-154740000D02*
X84400000Y-154170000D01*
X84400000Y-154183418D02*
X88680000Y-149903418D01*
X88680000Y-149903418D02*
X88680000Y-139250000D01*
X88680000Y-139250000D02*
X83910000Y-134480000D01*
X82920000Y-134480000D02*
X83910000Y-134480000D01*
G04 #@! TO.N,Net-(R23-Pad2)*
X47270000Y-111010000D02*
X47000000Y-111010000D01*
X47170000Y-51980000D02*
X47250000Y-52060000D01*
X47250000Y-52060000D02*
X47250000Y-53010000D01*
X46050000Y-54210000D02*
X46050000Y-110060000D01*
X46050000Y-54210000D02*
X47250000Y-53010000D01*
X47000000Y-111010000D02*
X46050000Y-110060000D01*
G04 #@! TO.N,Net-(R24-Pad2)*
X46570000Y-107000000D02*
X48200000Y-108630000D01*
X48200000Y-111300000D02*
X48200000Y-108630000D01*
X47600000Y-44680000D02*
X47790000Y-44870000D01*
X47790000Y-44870000D02*
X47790000Y-53260000D01*
X47590000Y-44680000D02*
X47600000Y-44680000D01*
X46570000Y-107000000D02*
X46570000Y-54480000D01*
X46570000Y-54480000D02*
X47790000Y-53260000D01*
G04 #@! TO.N,Net-(R33-Pad2)*
X49070000Y-107820000D02*
X49070000Y-111650000D01*
X49070000Y-111650000D02*
X48970000Y-111750000D01*
G04 #@! TO.N,Net-(R34-Pad2)*
X49700000Y-112320000D02*
X49700000Y-107383400D01*
G04 #@! TO.N,Net-(R37-Pad2)*
X50330000Y-105980000D02*
X48640000Y-105980000D01*
X48640000Y-105980000D02*
X47690000Y-106930000D01*
G04 #@! TO.N,Net-(R42-Pad2)*
X46900000Y-108290000D02*
X46900000Y-109720000D01*
G04 #@! TO.N,Net-(R45-Pad2)*
X47410000Y-131910000D02*
X47410000Y-132610000D01*
X47410000Y-132610000D02*
X48540000Y-133740000D01*
X48540000Y-133740000D02*
X48540000Y-143060000D01*
X50620000Y-145140000D02*
X52530000Y-145140000D01*
X48540000Y-143060000D02*
X50620000Y-145140000D01*
X52530000Y-145140000D02*
X53000000Y-145610000D01*
G04 #@! TO.N,Net-(R46-Pad2)*
X48080000Y-131480000D02*
X48080000Y-132450000D01*
X48080000Y-132450000D02*
X49010000Y-133380000D01*
X49010000Y-142840000D02*
X50670000Y-144500000D01*
X49010000Y-133380000D02*
X49010000Y-142840000D01*
X51890000Y-144500000D02*
X50670000Y-144500000D01*
G04 #@! TO.N,Net-(R49-Pad2)*
X50590000Y-145780000D02*
X50510000Y-145780000D01*
X47820000Y-143090000D02*
X50510000Y-145780000D01*
X47820000Y-141390000D02*
X47820000Y-143090000D01*
G04 #@! TO.N,Net-(R50-Pad2)*
X46860000Y-133710000D02*
X47140000Y-133710000D01*
X47140000Y-133710000D02*
X47200000Y-133770000D01*
X48760000Y-145480000D02*
X48760000Y-144790000D01*
X48760000Y-144790000D02*
X47200000Y-143230000D01*
X47200000Y-143230000D02*
X47200000Y-133770000D01*
G04 #@! TO.N,Net-(R53-Pad2)*
X45780000Y-142300000D02*
X45780000Y-144780000D01*
X45780000Y-144780000D02*
X45830000Y-144830000D01*
G04 #@! TO.N,Net-(R57-Pad2)*
X46480000Y-145940000D02*
X47090000Y-145940000D01*
X47090000Y-145940000D02*
X48030000Y-145000000D01*
G04 #@! TO.N,/MOD0p3*
X85590000Y-111940000D02*
X85590000Y-118720000D01*
X85760000Y-118890000D02*
X85760000Y-121170000D01*
X85590000Y-118720000D02*
X85760000Y-118890000D01*
X84350000Y-122580000D02*
X84350000Y-124210000D01*
X84350000Y-122580000D02*
X85760000Y-121170000D01*
X84350000Y-124210000D02*
X83820000Y-124740000D01*
G04 #@! TO.N,/MOD0p1_SCL*
X86085553Y-111470417D02*
X85780754Y-111165618D01*
X86380000Y-111764864D02*
X86085553Y-111470417D01*
X86380000Y-118550000D02*
X86380000Y-111764864D01*
G04 #@! TO.N,/MOD0p4_RX*
X80080000Y-114730000D02*
X79030000Y-115760000D01*
X79030000Y-115760000D02*
X78370000Y-116420000D01*
X75530000Y-127230000D02*
X74840000Y-127230000D01*
X78370000Y-124390000D02*
X75530000Y-127230000D01*
X78370000Y-116420000D02*
X78370000Y-124390000D01*
G04 #@! TO.N,/MOD0p2_SDA*
X85110000Y-119290000D02*
X85110000Y-112428212D01*
X83670000Y-108467788D02*
X83670000Y-106201052D01*
X85110000Y-112428212D02*
X82702398Y-110020610D01*
X83670000Y-106201052D02*
X83670000Y-105770000D01*
X82702398Y-109435390D02*
X83670000Y-108467788D01*
X82702398Y-110020610D02*
X82702398Y-109435390D01*
G04 #@! TO.N,/MOD0p5_TX*
X75480000Y-127870000D02*
X75650000Y-127870000D01*
X79690000Y-115780000D02*
X80120000Y-115780000D01*
X78840000Y-116630000D02*
X79690000Y-115780000D01*
X78840000Y-124680000D02*
X78840000Y-116630000D01*
X75650000Y-127870000D02*
X78840000Y-124680000D01*
G04 #@! TO.N,/MOD0p0_AN0*
X82800000Y-106251052D02*
X82800000Y-105820000D01*
X82245187Y-109246008D02*
X82800000Y-108691195D01*
X84490000Y-121530000D02*
X84490000Y-112454805D01*
X82245187Y-110209992D02*
X82245187Y-109246008D01*
X84490000Y-112454805D02*
X82245187Y-110209992D01*
X82800000Y-108691195D02*
X82800000Y-106251052D01*
G04 #@! TO.N,/MOD2p3*
X92980000Y-117680000D02*
X92980000Y-118520000D01*
X86200000Y-125300000D02*
X85230000Y-125300000D01*
X92980000Y-118520000D02*
X86200000Y-125300000D01*
G04 #@! TO.N,/MOD2p4_AN3*
X92060000Y-118490000D02*
X92060000Y-116910000D01*
X92060000Y-116910000D02*
X92660000Y-116310000D01*
G04 #@! TO.N,/MOD2p2_AN2*
X93230000Y-115700000D02*
X92390000Y-115700000D01*
X91430000Y-119100000D02*
X91290000Y-119240000D01*
X91430000Y-116660000D02*
X91430000Y-119100000D01*
X92390000Y-115700000D02*
X91430000Y-116660000D01*
G04 #@! TO.N,/MOD2p0_AN0*
X92480000Y-115070000D02*
X92150000Y-115070000D01*
X90660000Y-119960000D02*
X89030000Y-121590000D01*
X90660000Y-116560000D02*
X90660000Y-119960000D01*
X92150000Y-115070000D02*
X90660000Y-116560000D01*
G04 #@! TO.N,/MOD1p3*
X87700000Y-116350000D02*
X87700000Y-121930000D01*
X87700000Y-121930000D02*
X84430000Y-125200000D01*
G04 #@! TO.N,/MOD1p1_SCL*
X83800000Y-117030000D02*
X83820000Y-117010000D01*
X82570000Y-126300000D02*
X82570000Y-125100000D01*
X82570000Y-125100000D02*
X83830000Y-123840000D01*
X83830000Y-123840000D02*
X83800000Y-117030000D01*
G04 #@! TO.N,/MOD1p4_RX*
X78530000Y-127730000D02*
X79190000Y-127730000D01*
X79190000Y-127730000D02*
X81170000Y-125750000D01*
X81170000Y-123180000D02*
X81170000Y-125750000D01*
X80710000Y-117020000D02*
X80890000Y-117020000D01*
X80890000Y-117020000D02*
X81350000Y-117480000D01*
X81350000Y-123000000D02*
X81170000Y-123180000D01*
X81350000Y-117480000D02*
X81350000Y-123000000D01*
G04 #@! TO.N,/MOD1p2_SDA*
X76600000Y-127770000D02*
X77820000Y-126550000D01*
X77820000Y-126550000D02*
X78850000Y-126550000D01*
X78850000Y-126550000D02*
X80100000Y-125300000D01*
X80100000Y-125300000D02*
X80100000Y-117490000D01*
X80100000Y-117490000D02*
X80070000Y-117460000D01*
X76600000Y-127880000D02*
X76600000Y-127770000D01*
G04 #@! TO.N,/MOD1p5_TX*
X78292627Y-127042799D02*
X79047201Y-127042799D01*
X79047201Y-127042799D02*
X80630000Y-125460000D01*
X78292627Y-127042799D02*
X77570000Y-127770000D01*
X80630000Y-125460000D02*
X80630000Y-117940000D01*
X80630000Y-117940000D02*
X80740000Y-117830000D01*
G04 #@! TO.N,/MOD1p0_AN0*
X86507843Y-110835832D02*
X86203044Y-110531033D01*
X87020000Y-111347989D02*
X86507843Y-110835832D01*
X87020000Y-120900000D02*
X87020000Y-111347989D01*
X85500000Y-122420000D02*
X87020000Y-120900000D01*
G04 #@! TO.N,/AUX00_TX*
X64590000Y-100430000D02*
X64590000Y-140720000D01*
X63740000Y-99580000D02*
X64590000Y-100430000D01*
X61400000Y-99580000D02*
X63740000Y-99580000D01*
X64590000Y-140720000D02*
X63400000Y-141910000D01*
G04 #@! TO.N,/AUX01_RX*
X75130000Y-142190000D02*
X75130000Y-139870000D01*
X70780000Y-96420000D02*
X59760000Y-85400000D01*
X70780000Y-135520000D02*
X70780000Y-96420000D01*
X75130000Y-139870000D02*
X70780000Y-135520000D01*
X48930000Y-92090000D02*
X48930000Y-91310000D01*
X48930000Y-91310000D02*
X54840000Y-85400000D01*
X54840000Y-85400000D02*
X59760000Y-85400000D01*
G04 #@! TO.N,/MOD3p1_MOSI*
X80970000Y-129990000D02*
X75860000Y-129990000D01*
X74395873Y-130314543D02*
X73964821Y-130314543D01*
X75535457Y-130314543D02*
X74395873Y-130314543D01*
X75860000Y-129990000D02*
X75535457Y-130314543D01*
X81910000Y-129050000D02*
X80970000Y-129990000D01*
X86830000Y-129050000D02*
X81910000Y-129050000D01*
X87350000Y-128530000D02*
X86830000Y-129050000D01*
G04 #@! TO.N,/MOD3p4_SCLK*
X73355211Y-130586549D02*
X73507610Y-130738948D01*
X81570000Y-127790000D02*
X80360000Y-129000000D01*
X73355211Y-129614789D02*
X73355211Y-130586549D01*
X73970000Y-129000000D02*
X73355211Y-129614789D01*
X80360000Y-129000000D02*
X73970000Y-129000000D01*
X85160000Y-127790000D02*
X81570000Y-127790000D01*
X73507610Y-130738948D02*
X73507610Y-131170000D01*
G04 #@! TO.N,/MOD3p2_MISO*
X74088662Y-128500000D02*
X73938662Y-128350000D01*
X81300000Y-127150000D02*
X79950000Y-128500000D01*
X85660000Y-127150000D02*
X81300000Y-127150000D01*
X73938662Y-128350000D02*
X73507610Y-128350000D01*
X79950000Y-128500000D02*
X74088662Y-128500000D01*
G04 #@! TO.N,/MOD3p5_CS*
X74260390Y-129609610D02*
X74254169Y-129609610D01*
X74375000Y-129495000D02*
X74260390Y-129609610D01*
X74375000Y-129495000D02*
X74535000Y-129495000D01*
X74540000Y-129490000D02*
X74540000Y-129495000D01*
X74535000Y-129495000D02*
X74540000Y-129490000D01*
X80725000Y-129495000D02*
X74540000Y-129495000D01*
X74540000Y-129495000D02*
X74375000Y-129495000D01*
X81290000Y-128930000D02*
X80725000Y-129495000D01*
X81300000Y-128930000D02*
X81290000Y-128930000D01*
X81830000Y-128400000D02*
X81300000Y-128930000D01*
X84500000Y-128400000D02*
X81830000Y-128400000D01*
G04 #@! TO.N,/ESP_PROG*
X92930000Y-156380000D02*
X92930000Y-161277202D01*
X92260000Y-167230000D02*
X92930000Y-167900000D01*
X92260000Y-161947202D02*
X92260000Y-167230000D01*
X92930000Y-161277202D02*
X92260000Y-161947202D01*
X92660000Y-169960000D02*
X92660000Y-168720000D01*
X92660000Y-168720000D02*
X92930000Y-168450000D01*
X92930000Y-168450000D02*
X92930000Y-167900000D01*
X97857202Y-153987202D02*
X95322798Y-153987202D01*
X95322798Y-153987202D02*
X92930000Y-156380000D01*
X97857202Y-153987202D02*
X98640000Y-154770000D01*
G04 #@! TO.N,/ESP_CTS*
X113520000Y-167110000D02*
X113520000Y-159660000D01*
X113520000Y-159660000D02*
X109740000Y-155880000D01*
X100680000Y-154820000D02*
X100680000Y-155470000D01*
X101090000Y-155880000D02*
X109740000Y-155880000D01*
X100680000Y-155470000D02*
X101090000Y-155880000D01*
G04 #@! TO.N,/ESP_TX*
X93430000Y-167620000D02*
X93430000Y-178920000D01*
X104000000Y-158220000D02*
X96697202Y-158220000D01*
X92770000Y-166960000D02*
X93430000Y-167620000D01*
X92770000Y-162147202D02*
X92770000Y-166960000D01*
X96697202Y-158220000D02*
X92770000Y-162147202D01*
X93430000Y-178920000D02*
X93570000Y-179060000D01*
X105240000Y-152720000D02*
X108350000Y-152720000D01*
X109220000Y-151850000D02*
X109220000Y-147828000D01*
X108350000Y-152720000D02*
X109220000Y-151850000D01*
G04 #@! TO.N,/ESP_EXT0*
X114840000Y-169070000D02*
X114840000Y-157560000D01*
X114840000Y-157560000D02*
X112010000Y-154730000D01*
G04 #@! TO.N,/ESP_RESET*
X112875000Y-176945000D02*
X112875000Y-159685000D01*
X112875000Y-159685000D02*
X109540000Y-156350000D01*
X96560000Y-155620000D02*
X97290000Y-156350000D01*
X96560000Y-154850000D02*
X96560000Y-155620000D01*
X97290000Y-156350000D02*
X109540000Y-156350000D01*
X112875000Y-176945000D02*
X115090000Y-179160000D01*
G04 #@! TO.N,/ESP_RTS*
X91790000Y-167800000D02*
X91790000Y-161700000D01*
X91790000Y-161700000D02*
X92460000Y-161030000D01*
X92250000Y-168210000D02*
X92200000Y-168210000D01*
X92200000Y-168210000D02*
X91790000Y-167800000D01*
X92460000Y-161030000D02*
X92460000Y-156190000D01*
X95117202Y-153530000D02*
X92700000Y-155947202D01*
X102870000Y-154840000D02*
X102870000Y-154100000D01*
X102870000Y-154100000D02*
X102300000Y-153530000D01*
X102300000Y-153530000D02*
X95117202Y-153530000D01*
X92700000Y-155950000D02*
X92700000Y-155947202D01*
X92460000Y-156190000D02*
X92700000Y-155950000D01*
G04 #@! TO.N,/ESP_EXT1*
X114190000Y-171080000D02*
X114190000Y-158770000D01*
X114190000Y-158770000D02*
X110190000Y-154770000D01*
X109720000Y-154770000D02*
X110190000Y-154770000D01*
G04 #@! TO.N,/ESP_R_LED*
X91010000Y-175080000D02*
X90890000Y-175080000D01*
X90890000Y-175080000D02*
X90340000Y-174530000D01*
X90340000Y-160530000D02*
X90820000Y-160050000D01*
X90340000Y-174530000D02*
X90340000Y-160530000D01*
G04 #@! TO.N,Net-(R61-Pad2)*
X91330000Y-168780000D02*
X91330000Y-161460000D01*
X91330000Y-161460000D02*
X91980000Y-160810000D01*
X91980000Y-160810000D02*
X91980000Y-156010000D01*
X95130000Y-152860000D02*
X91980000Y-156010000D01*
X95130000Y-152860000D02*
X102510000Y-152860000D01*
X91630000Y-169080000D02*
X91330000Y-168780000D01*
X91640000Y-169080000D02*
X91630000Y-169080000D01*
X116640000Y-159570000D02*
X116640000Y-158360000D01*
X116640000Y-158360000D02*
X111960000Y-153680000D01*
X103330000Y-153680000D02*
X102510000Y-152860000D01*
X111960000Y-153680000D02*
X103330000Y-153680000D01*
G04 #@! TO.N,/BUTTON_0*
X72340000Y-107100000D02*
X72340000Y-96610000D01*
X72340000Y-96610000D02*
X60160000Y-84430000D01*
X47790000Y-92510000D02*
X48470000Y-93190000D01*
X48470000Y-93190000D02*
X58450000Y-93190000D01*
X58450000Y-93190000D02*
X61800000Y-96540000D01*
X61800000Y-96540000D02*
X61800000Y-96750000D01*
X54480000Y-84430000D02*
X60160000Y-84430000D01*
X47790000Y-91120000D02*
X54480000Y-84430000D01*
X47790000Y-91120000D02*
X47790000Y-92510000D01*
G04 #@! TO.N,Net-(U3-Pad4)*
X93830000Y-150660000D02*
X93820000Y-150650000D01*
X95690000Y-150650000D02*
X93830000Y-150660000D01*
G04 #@! TO.N,Net-(SW1-Pad2)*
X61214000Y-135128000D02*
X61214000Y-136652000D01*
X61214000Y-136652000D02*
X60960000Y-136906000D01*
X72898000Y-127762000D02*
X72898000Y-132588000D01*
X72898000Y-132588000D02*
X73152000Y-132842000D01*
X77470000Y-123190000D02*
X72898000Y-127762000D01*
X77470000Y-116586000D02*
X77470000Y-123190000D01*
X79248000Y-114808000D02*
X77470000Y-116586000D01*
X79248000Y-113538000D02*
X79248000Y-114808000D01*
X80264000Y-112522000D02*
X79248000Y-113538000D01*
X82042000Y-112522000D02*
X80264000Y-112522000D01*
X90678000Y-110236000D02*
X90170000Y-109728000D01*
X90170000Y-109728000D02*
X86302223Y-109728000D01*
X86302223Y-109728000D02*
X83312000Y-109728000D01*
G04 #@! TD*
D30*
G04 #@! TO.N,Net-(J2-Pad2)*
G36*
X58343800Y-175387000D02*
X58349600Y-175416160D01*
X58366118Y-175440882D01*
X58390840Y-175457400D01*
X58420000Y-175463200D01*
X62407800Y-175463200D01*
X62407800Y-178485800D01*
X54686200Y-178485800D01*
X54686200Y-176072800D01*
X54721700Y-176072800D01*
X54721700Y-176796700D01*
X54856445Y-177118511D01*
X55104085Y-177364261D01*
X55288157Y-177438595D01*
X55420200Y-177457509D01*
X55420200Y-176072800D01*
X55775800Y-176072800D01*
X55775800Y-177457509D01*
X55907843Y-177438595D01*
X56091915Y-177364261D01*
X56339555Y-177118511D01*
X56474300Y-176796700D01*
X56474300Y-176072800D01*
X55775800Y-176072800D01*
X55420200Y-176072800D01*
X54721700Y-176072800D01*
X54686200Y-176072800D01*
X54686200Y-174993300D01*
X54721700Y-174993300D01*
X54721700Y-175717200D01*
X55420200Y-175717200D01*
X55775800Y-175717200D01*
X56474300Y-175717200D01*
X56474300Y-174993300D01*
X56339555Y-174671489D01*
X56091915Y-174425739D01*
X55907843Y-174351405D01*
X55775800Y-174332491D01*
X55775800Y-175717200D01*
X55420200Y-175717200D01*
X55420200Y-174332491D01*
X55288157Y-174351405D01*
X55104085Y-174425739D01*
X54856445Y-174671489D01*
X54721700Y-174993300D01*
X54686200Y-174993300D01*
X54686200Y-174066200D01*
X58343800Y-174066200D01*
X58343800Y-175387000D01*
X58343800Y-175387000D01*
G37*
X58343800Y-175387000D02*
X58349600Y-175416160D01*
X58366118Y-175440882D01*
X58390840Y-175457400D01*
X58420000Y-175463200D01*
X62407800Y-175463200D01*
X62407800Y-178485800D01*
X54686200Y-178485800D01*
X54686200Y-176072800D01*
X54721700Y-176072800D01*
X54721700Y-176796700D01*
X54856445Y-177118511D01*
X55104085Y-177364261D01*
X55288157Y-177438595D01*
X55420200Y-177457509D01*
X55420200Y-176072800D01*
X55775800Y-176072800D01*
X55775800Y-177457509D01*
X55907843Y-177438595D01*
X56091915Y-177364261D01*
X56339555Y-177118511D01*
X56474300Y-176796700D01*
X56474300Y-176072800D01*
X55775800Y-176072800D01*
X55420200Y-176072800D01*
X54721700Y-176072800D01*
X54686200Y-176072800D01*
X54686200Y-174993300D01*
X54721700Y-174993300D01*
X54721700Y-175717200D01*
X55420200Y-175717200D01*
X55775800Y-175717200D01*
X56474300Y-175717200D01*
X56474300Y-174993300D01*
X56339555Y-174671489D01*
X56091915Y-174425739D01*
X55907843Y-174351405D01*
X55775800Y-174332491D01*
X55775800Y-175717200D01*
X55420200Y-175717200D01*
X55420200Y-174332491D01*
X55288157Y-174351405D01*
X55104085Y-174425739D01*
X54856445Y-174671489D01*
X54721700Y-174993300D01*
X54686200Y-174993300D01*
X54686200Y-174066200D01*
X58343800Y-174066200D01*
X58343800Y-175387000D01*
G04 #@! TO.N,Net-(F1-Pad2)*
G36*
X62661800Y-173990000D02*
X62667600Y-174019160D01*
X62684118Y-174043882D01*
X62708840Y-174060400D01*
X62738000Y-174066200D01*
X64566800Y-174066200D01*
X64566800Y-175260000D01*
X64572600Y-175289160D01*
X64589118Y-175313882D01*
X64613840Y-175330400D01*
X64643000Y-175336200D01*
X67233800Y-175336200D01*
X67233800Y-177596800D01*
X62941200Y-177596800D01*
X62941200Y-175006000D01*
X62935400Y-174976840D01*
X62918882Y-174952118D01*
X62894160Y-174935600D01*
X62865000Y-174929800D01*
X60274200Y-174929800D01*
X60274200Y-170065700D01*
X62661800Y-170065700D01*
X62661800Y-173990000D01*
X62661800Y-173990000D01*
G37*
X62661800Y-173990000D02*
X62667600Y-174019160D01*
X62684118Y-174043882D01*
X62708840Y-174060400D01*
X62738000Y-174066200D01*
X64566800Y-174066200D01*
X64566800Y-175260000D01*
X64572600Y-175289160D01*
X64589118Y-175313882D01*
X64613840Y-175330400D01*
X64643000Y-175336200D01*
X67233800Y-175336200D01*
X67233800Y-177596800D01*
X62941200Y-177596800D01*
X62941200Y-175006000D01*
X62935400Y-174976840D01*
X62918882Y-174952118D01*
X62894160Y-174935600D01*
X62865000Y-174929800D01*
X60274200Y-174929800D01*
X60274200Y-170065700D01*
X62661800Y-170065700D01*
X62661800Y-173990000D01*
G04 #@! TO.N,/VBUS*
G36*
X76504800Y-182054500D02*
X76510600Y-182083660D01*
X76527118Y-182108382D01*
X76551840Y-182124900D01*
X76581000Y-182130700D01*
X78663800Y-182130700D01*
X78663800Y-182499000D01*
X78671845Y-182533078D01*
X78917800Y-183024988D01*
X78917800Y-184643800D01*
X78397100Y-184643800D01*
X78397100Y-184022169D01*
X78401200Y-184012271D01*
X78401200Y-183657729D01*
X78397100Y-183647831D01*
X78397100Y-182905400D01*
X78391300Y-182876240D01*
X78374782Y-182851518D01*
X78350060Y-182835000D01*
X78320900Y-182829200D01*
X75692000Y-182829200D01*
X75662840Y-182835000D01*
X75638118Y-182851518D01*
X75621600Y-182876240D01*
X75615800Y-182905400D01*
X75615800Y-183946800D01*
X73482200Y-183946800D01*
X73482200Y-179451000D01*
X73476400Y-179421840D01*
X73459882Y-179397118D01*
X73435160Y-179380600D01*
X73406000Y-179374800D01*
X69545200Y-179374800D01*
X69545200Y-175463200D01*
X76504800Y-175463200D01*
X76504800Y-182054500D01*
X76504800Y-182054500D01*
G37*
X76504800Y-182054500D02*
X76510600Y-182083660D01*
X76527118Y-182108382D01*
X76551840Y-182124900D01*
X76581000Y-182130700D01*
X78663800Y-182130700D01*
X78663800Y-182499000D01*
X78671845Y-182533078D01*
X78917800Y-183024988D01*
X78917800Y-184643800D01*
X78397100Y-184643800D01*
X78397100Y-184022169D01*
X78401200Y-184012271D01*
X78401200Y-183657729D01*
X78397100Y-183647831D01*
X78397100Y-182905400D01*
X78391300Y-182876240D01*
X78374782Y-182851518D01*
X78350060Y-182835000D01*
X78320900Y-182829200D01*
X75692000Y-182829200D01*
X75662840Y-182835000D01*
X75638118Y-182851518D01*
X75621600Y-182876240D01*
X75615800Y-182905400D01*
X75615800Y-183946800D01*
X73482200Y-183946800D01*
X73482200Y-179451000D01*
X73476400Y-179421840D01*
X73459882Y-179397118D01*
X73435160Y-179380600D01*
X73406000Y-179374800D01*
X69545200Y-179374800D01*
X69545200Y-175463200D01*
X76504800Y-175463200D01*
X76504800Y-182054500D01*
G04 #@! TO.N,3V3*
G36*
X72110600Y-161959415D02*
X72110600Y-165785800D01*
X68199000Y-165785800D01*
X68199000Y-160985200D01*
X68193200Y-160956040D01*
X68176682Y-160931318D01*
X68151960Y-160914800D01*
X68122800Y-160909000D01*
X63398400Y-160909000D01*
X63369240Y-160914800D01*
X63344518Y-160931318D01*
X63328000Y-160956040D01*
X63322200Y-160985200D01*
X63322200Y-163296600D01*
X62153800Y-163296600D01*
X62153800Y-161620200D01*
X62585600Y-161620200D01*
X62614760Y-161614400D01*
X62639482Y-161597882D01*
X62656000Y-161573160D01*
X62661800Y-161544000D01*
X62661800Y-159639000D01*
X64363600Y-159639000D01*
X64392760Y-159633200D01*
X64417482Y-159616682D01*
X64434000Y-159591960D01*
X64439800Y-159562800D01*
X64439800Y-158978600D01*
X69129785Y-158978600D01*
X72110600Y-161959415D01*
X72110600Y-161959415D01*
G37*
X72110600Y-161959415D02*
X72110600Y-165785800D01*
X68199000Y-165785800D01*
X68199000Y-160985200D01*
X68193200Y-160956040D01*
X68176682Y-160931318D01*
X68151960Y-160914800D01*
X68122800Y-160909000D01*
X63398400Y-160909000D01*
X63369240Y-160914800D01*
X63344518Y-160931318D01*
X63328000Y-160956040D01*
X63322200Y-160985200D01*
X63322200Y-163296600D01*
X62153800Y-163296600D01*
X62153800Y-161620200D01*
X62585600Y-161620200D01*
X62614760Y-161614400D01*
X62639482Y-161597882D01*
X62656000Y-161573160D01*
X62661800Y-161544000D01*
X62661800Y-159639000D01*
X64363600Y-159639000D01*
X64392760Y-159633200D01*
X64417482Y-159616682D01*
X64434000Y-159591960D01*
X64439800Y-159562800D01*
X64439800Y-158978600D01*
X69129785Y-158978600D01*
X72110600Y-161959415D01*
G04 #@! TO.N,/ESP_3V3*
G36*
X88950800Y-156959300D02*
X87261700Y-156959300D01*
X87261700Y-154889200D01*
X88950800Y-154889200D01*
X88950800Y-156959300D01*
X88950800Y-156959300D01*
G37*
X88950800Y-156959300D02*
X87261700Y-156959300D01*
X87261700Y-154889200D01*
X88950800Y-154889200D01*
X88950800Y-156959300D01*
G04 #@! TO.N,3V3*
G36*
X86791800Y-156959300D02*
X85039200Y-156959300D01*
X85039200Y-154889200D01*
X86791800Y-154889200D01*
X86791800Y-156959300D01*
X86791800Y-156959300D01*
G37*
X86791800Y-156959300D02*
X85039200Y-156959300D01*
X85039200Y-154889200D01*
X86791800Y-154889200D01*
X86791800Y-156959300D01*
G04 #@! TO.N,GND*
G36*
X65201800Y-169595800D02*
X61734700Y-169595800D01*
X61734700Y-167347900D01*
X65201800Y-167347900D01*
X65201800Y-169595800D01*
X65201800Y-169595800D01*
G37*
X65201800Y-169595800D02*
X61734700Y-169595800D01*
X61734700Y-167347900D01*
X65201800Y-167347900D01*
X65201800Y-169595800D01*
G04 #@! TD*
M02*
