G04 #@! TF.FileFunction,Legend,Bot*
%FSLAX46Y46*%
G04 Gerber Fmt 4.6, Leading zero omitted, Abs format (unit mm)*
G04 Created by KiCad (PCBNEW 4.0.7) date 01/11/18 09:06:53*
%MOMM*%
%LPD*%
G01*
G04 APERTURE LIST*
%ADD10C,0.150000*%
%ADD11C,0.299720*%
%ADD12C,0.149860*%
G04 APERTURE END LIST*
D10*
D11*
X80130454Y-114169087D02*
X80130454Y-112667947D01*
X79558591Y-112667947D01*
X79415625Y-112739430D01*
X79344142Y-112810913D01*
X79272659Y-112953879D01*
X79272659Y-113168327D01*
X79344142Y-113311293D01*
X79415625Y-113382776D01*
X79558591Y-113454259D01*
X80130454Y-113454259D01*
X78629314Y-114169087D02*
X78629314Y-113168327D01*
X78629314Y-113454259D02*
X78557831Y-113311293D01*
X78486348Y-113239810D01*
X78343382Y-113168327D01*
X78200417Y-113168327D01*
X77485588Y-114169087D02*
X77628554Y-114097604D01*
X77700037Y-114026121D01*
X77771520Y-113883156D01*
X77771520Y-113454259D01*
X77700037Y-113311293D01*
X77628554Y-113239810D01*
X77485588Y-113168327D01*
X77271140Y-113168327D01*
X77128174Y-113239810D01*
X77056691Y-113311293D01*
X76985208Y-113454259D01*
X76985208Y-113883156D01*
X77056691Y-114026121D01*
X77128174Y-114097604D01*
X77271140Y-114169087D01*
X77485588Y-114169087D01*
X75698517Y-113168327D02*
X75698517Y-114383536D01*
X75770000Y-114526501D01*
X75841483Y-114597984D01*
X75984448Y-114669467D01*
X76198897Y-114669467D01*
X76341863Y-114597984D01*
X75698517Y-114097604D02*
X75841483Y-114169087D01*
X76127414Y-114169087D01*
X76270380Y-114097604D01*
X76341863Y-114026121D01*
X76413346Y-113883156D01*
X76413346Y-113454259D01*
X76341863Y-113311293D01*
X76270380Y-113239810D01*
X76127414Y-113168327D01*
X75841483Y-113168327D01*
X75698517Y-113239810D01*
X74983689Y-114169087D02*
X74983689Y-113168327D01*
X74983689Y-113454259D02*
X74912206Y-113311293D01*
X74840723Y-113239810D01*
X74697757Y-113168327D01*
X74554792Y-113168327D01*
X73411066Y-114169087D02*
X73411066Y-113382776D01*
X73482549Y-113239810D01*
X73625515Y-113168327D01*
X73911446Y-113168327D01*
X74054412Y-113239810D01*
X73411066Y-114097604D02*
X73554032Y-114169087D01*
X73911446Y-114169087D01*
X74054412Y-114097604D01*
X74125895Y-113954639D01*
X74125895Y-113811673D01*
X74054412Y-113668707D01*
X73911446Y-113597224D01*
X73554032Y-113597224D01*
X73411066Y-113525741D01*
X72696238Y-114169087D02*
X72696238Y-113168327D01*
X72696238Y-113311293D02*
X72624755Y-113239810D01*
X72481789Y-113168327D01*
X72267341Y-113168327D01*
X72124375Y-113239810D01*
X72052892Y-113382776D01*
X72052892Y-114169087D01*
X72052892Y-113382776D02*
X71981409Y-113239810D01*
X71838443Y-113168327D01*
X71623995Y-113168327D01*
X71481029Y-113239810D01*
X71409546Y-113382776D01*
X71409546Y-114169087D01*
X56279143Y-170033224D02*
X55118000Y-170033224D01*
X55698571Y-170605087D02*
X55698571Y-169461361D01*
X52070000Y-170033224D02*
X50908857Y-170033224D01*
D10*
X47200000Y-41660000D02*
X47200000Y-105660000D01*
X47200000Y-105660000D02*
X105200000Y-105660000D01*
X105200000Y-105660000D02*
X105200000Y-41660000D01*
X105200000Y-41660000D02*
X47200000Y-41660000D01*
D12*
X54098000Y-171360000D02*
X54098000Y-173360000D01*
X54098000Y-173360000D02*
X57098000Y-173360000D01*
X57098000Y-173360000D02*
X57098000Y-171360000D01*
X50598000Y-171360000D02*
X50598000Y-173360000D01*
X50598000Y-173360000D02*
X53598000Y-173360000D01*
X53598000Y-173360000D02*
X53598000Y-171360000D01*
X50348000Y-178360000D02*
X57348000Y-178360000D01*
X57348000Y-178360000D02*
X57348000Y-171360000D01*
X57348000Y-171360000D02*
X50348000Y-171360000D01*
X50348000Y-171360000D02*
X50348000Y-178360000D01*
X77790000Y-111950000D02*
X73390000Y-111950000D01*
X77790000Y-106750000D02*
X73390000Y-106750000D01*
X76721371Y-109350000D02*
G75*
G03X76721371Y-109350000I-1131371J0D01*
G01*
X72590000Y-110550000D02*
X72590000Y-108150000D01*
X77990000Y-112350000D02*
X73190000Y-112350000D01*
X78590000Y-108150000D02*
X78590000Y-110550000D01*
X73190000Y-106350000D02*
X77990000Y-106350000D01*
X77443592Y-107318000D02*
G75*
G03X77443592Y-107318000I-113592J0D01*
G01*
X77473684Y-108842000D02*
G75*
G03X77473684Y-108842000I-143684J0D01*
G01*
X77330000Y-107318000D02*
X76822000Y-108588000D01*
X77330000Y-106810000D02*
X77330000Y-107318000D01*
X77330000Y-111890000D02*
X77330000Y-108842000D01*
D10*
X68908571Y-106772857D02*
X68794285Y-106810952D01*
X68756190Y-106849048D01*
X68718095Y-106925238D01*
X68718095Y-107039524D01*
X68756190Y-107115714D01*
X68794285Y-107153810D01*
X68870476Y-107191905D01*
X69175238Y-107191905D01*
X69175238Y-106391905D01*
X68908571Y-106391905D01*
X68832381Y-106430000D01*
X68794285Y-106468095D01*
X68756190Y-106544286D01*
X68756190Y-106620476D01*
X68794285Y-106696667D01*
X68832381Y-106734762D01*
X68908571Y-106772857D01*
X69175238Y-106772857D01*
X68489524Y-106391905D02*
X68032381Y-106391905D01*
X68260952Y-107191905D02*
X68260952Y-106391905D01*
X67346666Y-107191905D02*
X67803809Y-107191905D01*
X67575238Y-107191905D02*
X67575238Y-106391905D01*
X67651428Y-106506190D01*
X67727619Y-106582381D01*
X67803809Y-106620476D01*
X78200000Y-97732857D02*
X78085714Y-97770952D01*
X78047619Y-97809048D01*
X78009524Y-97885238D01*
X78009524Y-97999524D01*
X78047619Y-98075714D01*
X78085714Y-98113810D01*
X78161905Y-98151905D01*
X78466667Y-98151905D01*
X78466667Y-97351905D01*
X78200000Y-97351905D01*
X78123810Y-97390000D01*
X78085714Y-97428095D01*
X78047619Y-97504286D01*
X78047619Y-97580476D01*
X78085714Y-97656667D01*
X78123810Y-97694762D01*
X78200000Y-97732857D01*
X78466667Y-97732857D01*
X77704762Y-97923333D02*
X77323810Y-97923333D01*
X77780953Y-98151905D02*
X77514286Y-97351905D01*
X77247619Y-98151905D01*
X77095239Y-97351905D02*
X76638096Y-97351905D01*
X76866667Y-98151905D02*
X76866667Y-97351905D01*
X76485715Y-97351905D02*
X76028572Y-97351905D01*
X76257143Y-98151905D02*
X76257143Y-97351905D01*
X75761905Y-97732857D02*
X75495238Y-97732857D01*
X75380952Y-98151905D02*
X75761905Y-98151905D01*
X75761905Y-97351905D01*
X75380952Y-97351905D01*
X74580952Y-98151905D02*
X74847619Y-97770952D01*
X75038095Y-98151905D02*
X75038095Y-97351905D01*
X74733333Y-97351905D01*
X74657142Y-97390000D01*
X74619047Y-97428095D01*
X74580952Y-97504286D01*
X74580952Y-97618571D01*
X74619047Y-97694762D01*
X74657142Y-97732857D01*
X74733333Y-97770952D01*
X75038095Y-97770952D01*
X74085714Y-97770952D02*
X74085714Y-98151905D01*
X74352381Y-97351905D02*
X74085714Y-97770952D01*
X73819047Y-97351905D01*
X53479666Y-179266905D02*
X53479666Y-179838333D01*
X53517762Y-179952619D01*
X53593952Y-180028810D01*
X53708238Y-180066905D01*
X53784428Y-180066905D01*
X53136809Y-179343095D02*
X53098714Y-179305000D01*
X53022523Y-179266905D01*
X52832047Y-179266905D01*
X52755857Y-179305000D01*
X52717761Y-179343095D01*
X52679666Y-179419286D01*
X52679666Y-179495476D01*
X52717761Y-179609762D01*
X53174904Y-180066905D01*
X52679666Y-180066905D01*
X57981857Y-172872667D02*
X58019952Y-172986953D01*
X58058048Y-173025048D01*
X58134238Y-173063143D01*
X58248524Y-173063143D01*
X58324714Y-173025048D01*
X58362810Y-172986953D01*
X58400905Y-172910762D01*
X58400905Y-172606000D01*
X57600905Y-172606000D01*
X57600905Y-172872667D01*
X57639000Y-172948857D01*
X57677095Y-172986953D01*
X57753286Y-173025048D01*
X57829476Y-173025048D01*
X57905667Y-172986953D01*
X57943762Y-172948857D01*
X57981857Y-172872667D01*
X57981857Y-172606000D01*
X58172333Y-173367905D02*
X58172333Y-173748857D01*
X58400905Y-173291714D02*
X57600905Y-173558381D01*
X58400905Y-173825048D01*
X57600905Y-173977428D02*
X57600905Y-174434571D01*
X58400905Y-174206000D02*
X57600905Y-174206000D01*
X58477095Y-174510762D02*
X58477095Y-175120286D01*
X58324714Y-175767905D02*
X58362810Y-175729810D01*
X58400905Y-175615524D01*
X58400905Y-175539334D01*
X58362810Y-175425048D01*
X58286619Y-175348857D01*
X58210429Y-175310762D01*
X58058048Y-175272667D01*
X57943762Y-175272667D01*
X57791381Y-175310762D01*
X57715190Y-175348857D01*
X57639000Y-175425048D01*
X57600905Y-175539334D01*
X57600905Y-175615524D01*
X57639000Y-175729810D01*
X57677095Y-175767905D01*
X57600905Y-176263143D02*
X57600905Y-176415524D01*
X57639000Y-176491715D01*
X57715190Y-176567905D01*
X57867571Y-176606000D01*
X58134238Y-176606000D01*
X58286619Y-176567905D01*
X58362810Y-176491715D01*
X58400905Y-176415524D01*
X58400905Y-176263143D01*
X58362810Y-176186953D01*
X58286619Y-176110762D01*
X58134238Y-176072667D01*
X57867571Y-176072667D01*
X57715190Y-176110762D01*
X57639000Y-176186953D01*
X57600905Y-176263143D01*
X58400905Y-176948857D02*
X57600905Y-176948857D01*
X58400905Y-177406000D01*
X57600905Y-177406000D01*
M02*
