G04 #@! TF.FileFunction,Copper,L1,Top,Mixed*
%FSLAX46Y46*%
G04 Gerber Fmt 4.6, Leading zero omitted, Abs format (unit mm)*
G04 Created by KiCad (PCBNEW 4.0.5) date 03/10/17 13:25:31*
%MOMM*%
%LPD*%
G01*
G04 APERTURE LIST*
%ADD10C,0.150000*%
%ADD11R,1.700000X1.700000*%
%ADD12O,1.700000X1.700000*%
%ADD13R,1.600200X1.803400*%
%ADD14R,0.899200X1.000800*%
%ADD15R,1.000800X0.899200*%
%ADD16R,1.803400X1.600200*%
%ADD17R,3.599200X1.600200*%
%ADD18R,2.209800X2.794000*%
%ADD19R,2.794000X2.794000*%
%ADD20C,1.701800*%
%ADD21R,1.000000X0.900000*%
%ADD22R,1.397000X3.810000*%
%ADD23R,1.397000X0.889000*%
%ADD24R,0.889000X1.397000*%
%ADD25R,1.500000X1.550000*%
%ADD26C,1.550000*%
%ADD27R,0.400000X1.350000*%
%ADD28C,1.250000*%
%ADD29O,1.574800X3.048000*%
%ADD30O,1.600200X3.048000*%
%ADD31C,1.600000*%
%ADD32R,0.760000X2.400000*%
%ADD33R,1.400000X1.200000*%
%ADD34R,1.400000X2.800000*%
%ADD35R,1.200000X1.400000*%
%ADD36R,2.800000X1.400000*%
%ADD37R,1.143000X0.635000*%
%ADD38R,0.635000X1.143000*%
%ADD39C,1.500000*%
%ADD40C,1.706880*%
%ADD41C,1.400000*%
%ADD42R,3.300000X1.500000*%
%ADD43R,1.000000X1.500000*%
%ADD44R,1.000800X0.599400*%
%ADD45R,0.300000X1.450000*%
%ADD46R,1.450000X0.300000*%
%ADD47C,7.000000*%
%ADD48R,1.803400X1.193800*%
%ADD49R,2.400000X1.500000*%
%ADD50R,1.100000X0.600000*%
%ADD51R,1.200000X1.200000*%
%ADD52C,7.000240*%
%ADD53R,1.524000X1.524000*%
%ADD54C,1.524000*%
%ADD55C,0.609600*%
%ADD56C,0.152400*%
%ADD57C,0.304800*%
G04 APERTURE END LIST*
D10*
D11*
X121920000Y-152400000D03*
D12*
X121920000Y-154940000D03*
X121920000Y-157480000D03*
X121920000Y-160020000D03*
X121920000Y-162560000D03*
X121920000Y-165100000D03*
X121920000Y-167640000D03*
X121920000Y-170180000D03*
X121920000Y-172720000D03*
X121920000Y-175260000D03*
D13*
X87617300Y-133147000D03*
X84823300Y-133147000D03*
X91821000Y-130556000D03*
X89027000Y-130556000D03*
D14*
X56631800Y-133858000D03*
X55128200Y-133858000D03*
D15*
X74930000Y-183398200D03*
X74930000Y-184901800D03*
D16*
X62103000Y-158623000D03*
X62103000Y-155829000D03*
D17*
X70274200Y-160274000D03*
X75775800Y-160274000D03*
X70147200Y-168021000D03*
X75648800Y-168021000D03*
D15*
X62242700Y-119758200D03*
X62242700Y-121261800D03*
D16*
X65405000Y-158623000D03*
X65405000Y-155829000D03*
D14*
X62443400Y-116357000D03*
X63947000Y-116357000D03*
D15*
X66040000Y-147838200D03*
X66040000Y-149341800D03*
D14*
X71892200Y-118618000D03*
X73395800Y-118618000D03*
D15*
X77254100Y-116012200D03*
X77254100Y-117515800D03*
D14*
X72887800Y-154686000D03*
X71384200Y-154686000D03*
X78983800Y-119380000D03*
X77480200Y-119380000D03*
X75270400Y-154661000D03*
X76774000Y-154661000D03*
X85968800Y-129667000D03*
X84465200Y-129667000D03*
X81493400Y-147726000D03*
X82997000Y-147726000D03*
X84465200Y-135128000D03*
X85968800Y-135128000D03*
D15*
X61849000Y-149214800D03*
X61849000Y-147711200D03*
X119126000Y-148833800D03*
X119126000Y-147330200D03*
D14*
X90642400Y-135369000D03*
X89138800Y-135369000D03*
X90642400Y-138773000D03*
X89138800Y-138773000D03*
D13*
X85928200Y-150393000D03*
X88722200Y-150393000D03*
D15*
X106680000Y-113548200D03*
X106680000Y-115051800D03*
D16*
X112776000Y-45593000D03*
X112776000Y-42799000D03*
X112776000Y-117983000D03*
X112776000Y-115189000D03*
X112776000Y-69723000D03*
X112776000Y-66929000D03*
D13*
X118237000Y-38100000D03*
X115443000Y-38100000D03*
D16*
X116332000Y-148463000D03*
X116332000Y-145669000D03*
X112776000Y-93853000D03*
X112776000Y-91059000D03*
D14*
X56631800Y-131953000D03*
X55128200Y-131953000D03*
D15*
X64020700Y-121261800D03*
X64020700Y-119758200D03*
D14*
X85968800Y-131191000D03*
X84465200Y-131191000D03*
X85333800Y-139357000D03*
X83830200Y-139357000D03*
D13*
X88265000Y-143764000D03*
X91059000Y-143764000D03*
D18*
X29794200Y-42011600D03*
D19*
X37185600Y-49428400D03*
D18*
X27787600Y-49428400D03*
D20*
X35915600Y-45720000D03*
X28905200Y-45720000D03*
D18*
X29794200Y-59791600D03*
D19*
X37185600Y-67208400D03*
D18*
X27787600Y-67208400D03*
D20*
X35915600Y-63500000D03*
X28905200Y-63500000D03*
D18*
X29794200Y-77571600D03*
D19*
X37185600Y-84988400D03*
D18*
X27787600Y-84988400D03*
D20*
X35915600Y-81280000D03*
X28905200Y-81280000D03*
D18*
X29794200Y-95351600D03*
D19*
X37185600Y-102768400D03*
D18*
X27787600Y-102768400D03*
D20*
X35915600Y-99060000D03*
X28905200Y-99060000D03*
D18*
X29794200Y-113131600D03*
D19*
X37185600Y-120548400D03*
D18*
X27787600Y-120548400D03*
D20*
X35915600Y-116840000D03*
X28905200Y-116840000D03*
D18*
X29794200Y-130911600D03*
D19*
X37185600Y-138328400D03*
D18*
X27787600Y-138328400D03*
D20*
X35915600Y-134620000D03*
X28905200Y-134620000D03*
D18*
X29794200Y-148691600D03*
D19*
X37185600Y-156108400D03*
D18*
X27787600Y-156108400D03*
D20*
X35915600Y-152400000D03*
X28905200Y-152400000D03*
D18*
X29794200Y-166471600D03*
D19*
X37185600Y-173888400D03*
D18*
X27787600Y-173888400D03*
D20*
X35915600Y-170180000D03*
X28905200Y-170180000D03*
D21*
X123410000Y-138360000D03*
X125510000Y-138360000D03*
X124460000Y-135960000D03*
D22*
X75717400Y-176682000D03*
X71145400Y-176682000D03*
D23*
X79248000Y-117538500D03*
X79248000Y-115633500D03*
D24*
X85572600Y-148336000D03*
X87477600Y-148336000D03*
X89369900Y-141059000D03*
X91274900Y-141059000D03*
D25*
X81010000Y-186510000D03*
X79010000Y-186510000D03*
D26*
X76510000Y-186510000D03*
D27*
X79360000Y-183835000D03*
X78710000Y-183835000D03*
X80010000Y-183835000D03*
X80660000Y-183835000D03*
X81310000Y-183835000D03*
D28*
X82510000Y-183835000D03*
X77510000Y-183835000D03*
D26*
X83510000Y-186510000D03*
D29*
X55090000Y-175895000D03*
D30*
X51590000Y-175895000D03*
D31*
X121800000Y-48760000D03*
X121800000Y-46730000D03*
X120020000Y-49790000D03*
X120020000Y-47760000D03*
X120020000Y-51820000D03*
X121800000Y-50790000D03*
X120020000Y-45730000D03*
X121800000Y-44700000D03*
X121800000Y-97020000D03*
X121800000Y-94990000D03*
X120020000Y-98050000D03*
X120020000Y-96020000D03*
X120020000Y-100080000D03*
X121800000Y-99050000D03*
X120020000Y-93990000D03*
X121800000Y-92960000D03*
X121800000Y-121150000D03*
X121800000Y-119120000D03*
X120020000Y-122180000D03*
X120020000Y-120150000D03*
X120020000Y-124210000D03*
X121800000Y-123180000D03*
X120020000Y-118120000D03*
X121800000Y-117090000D03*
D32*
X52070000Y-160700000D03*
X52070000Y-156800000D03*
X53340000Y-160700000D03*
X53340000Y-156800000D03*
X54610000Y-160700000D03*
X54610000Y-156800000D03*
X55880000Y-160700000D03*
X55880000Y-156800000D03*
X57150000Y-160700000D03*
X57150000Y-156800000D03*
D33*
X43240000Y-51900000D03*
X43240000Y-49700000D03*
D34*
X40640000Y-50800000D03*
D35*
X40810000Y-71180000D03*
X43010000Y-71180000D03*
D36*
X41910000Y-68580000D03*
D33*
X43240000Y-87460000D03*
X43240000Y-85260000D03*
D34*
X40640000Y-86360000D03*
D33*
X43240000Y-105240000D03*
X43240000Y-103040000D03*
D34*
X40640000Y-104140000D03*
D33*
X43240000Y-123020000D03*
X43240000Y-120820000D03*
D34*
X40640000Y-121920000D03*
D33*
X43240000Y-140800000D03*
X43240000Y-138600000D03*
D34*
X40640000Y-139700000D03*
D33*
X43240000Y-158580000D03*
X43240000Y-156380000D03*
D34*
X40640000Y-157480000D03*
D33*
X43240000Y-176360000D03*
X43240000Y-174160000D03*
D34*
X40640000Y-175260000D03*
D33*
X43240000Y-41740000D03*
X43240000Y-39540000D03*
D34*
X40640000Y-40640000D03*
D33*
X43240000Y-59520000D03*
X43240000Y-57320000D03*
D34*
X40640000Y-58420000D03*
D35*
X40810000Y-76260000D03*
X43010000Y-76260000D03*
D36*
X41910000Y-73660000D03*
D33*
X43240000Y-95080000D03*
X43240000Y-92880000D03*
D34*
X40640000Y-93980000D03*
D33*
X43240000Y-112860000D03*
X43240000Y-110660000D03*
D34*
X40640000Y-111760000D03*
D33*
X43240000Y-130640000D03*
X43240000Y-128440000D03*
D34*
X40640000Y-129540000D03*
D33*
X43240000Y-148420000D03*
X43240000Y-146220000D03*
D34*
X40640000Y-147320000D03*
D33*
X43240000Y-166200000D03*
X43240000Y-164000000D03*
D34*
X40640000Y-165100000D03*
D37*
X50800000Y-152908000D03*
X50800000Y-154432000D03*
X53340000Y-152908000D03*
X53340000Y-154432000D03*
X55880000Y-152908000D03*
X55880000Y-154432000D03*
X58420000Y-152908000D03*
X58420000Y-154432000D03*
D38*
X73406000Y-116586000D03*
X71882000Y-116586000D03*
D37*
X124333000Y-141986000D03*
X124333000Y-140462000D03*
D38*
X91744800Y-133477000D03*
X90220800Y-133477000D03*
X83058000Y-142240000D03*
X84582000Y-142240000D03*
X83007200Y-143980000D03*
X84531200Y-143980000D03*
X81483200Y-146228000D03*
X83007200Y-146228000D03*
X73406000Y-114046000D03*
X71882000Y-114046000D03*
D37*
X121793000Y-141986000D03*
X121793000Y-140462000D03*
D39*
X54685000Y-106970000D03*
X54685000Y-111470000D03*
X48185000Y-111470000D03*
X48185000Y-106970000D03*
D40*
X60040000Y-185880000D03*
X72040000Y-185880000D03*
D41*
X66040000Y-181630000D03*
X70040000Y-181630000D03*
X62040000Y-181630000D03*
D40*
X60040000Y-179880000D03*
X72040000Y-179880000D03*
D39*
X104215000Y-106970000D03*
X104215000Y-111470000D03*
X97715000Y-111470000D03*
X97715000Y-106970000D03*
D42*
X63500000Y-168758000D03*
D43*
X65750000Y-162458000D03*
X64250000Y-162458000D03*
X62750000Y-162458000D03*
X61250000Y-162458000D03*
D44*
X62443400Y-112839500D03*
X64556600Y-113792000D03*
X62443400Y-114744500D03*
D45*
X61353700Y-145320000D03*
X61861700Y-145320000D03*
X62357000Y-145320000D03*
X62852300Y-145320000D03*
X63360300Y-145320000D03*
X63855600Y-145320000D03*
X64350900Y-145320000D03*
X64858900Y-145320000D03*
X65354200Y-145320000D03*
X65849500Y-145320000D03*
X66357500Y-145320000D03*
X66852800Y-145320000D03*
X67348100Y-145320000D03*
X67856100Y-145320000D03*
X68351400Y-145320000D03*
X68846700Y-145320000D03*
X69354700Y-145320000D03*
X69850000Y-145320000D03*
X70358000Y-145320000D03*
X70853300Y-145320000D03*
X71361300Y-145320000D03*
X71856600Y-145320000D03*
X72351900Y-145320000D03*
X72859900Y-145320000D03*
X73355200Y-145320000D03*
X73850500Y-145320000D03*
X74358500Y-145320000D03*
X74853800Y-145320000D03*
X75349100Y-145320000D03*
X75857100Y-145320000D03*
X76352400Y-145320000D03*
X76847700Y-145320000D03*
X77355700Y-145320000D03*
X77851000Y-145320000D03*
X78346300Y-145320000D03*
X78854300Y-145320000D03*
D46*
X80804000Y-128866900D03*
X80804000Y-128371600D03*
X80804000Y-127876300D03*
X80804000Y-127368300D03*
X80804000Y-126873000D03*
X80804000Y-126377700D03*
X80804000Y-125869700D03*
X59404000Y-128371600D03*
X59404000Y-128866900D03*
X59404000Y-129374900D03*
X59404000Y-129870200D03*
X59404000Y-130365500D03*
X59404000Y-130873500D03*
X59404000Y-131368800D03*
X59404000Y-131864100D03*
X59404000Y-132372100D03*
X59404000Y-132867400D03*
X59404000Y-133362700D03*
X59404000Y-133870700D03*
X59404000Y-134366000D03*
X59404000Y-134874000D03*
X59404000Y-135369300D03*
X59404000Y-135877300D03*
X59404000Y-136372600D03*
X59404000Y-136867900D03*
X59404000Y-137375900D03*
X59404000Y-137871200D03*
X59404000Y-138366500D03*
X59404000Y-138874500D03*
X59404000Y-139369800D03*
X59404000Y-139865100D03*
X59404000Y-140373100D03*
X59404000Y-140868400D03*
X59404000Y-141363700D03*
X59404000Y-141871700D03*
X59404000Y-142367000D03*
X59404000Y-142862300D03*
X59404000Y-143370300D03*
X80804000Y-143370300D03*
X80804000Y-142862300D03*
X80804000Y-142367000D03*
X80804000Y-141871700D03*
X80804000Y-141363700D03*
X80804000Y-140868400D03*
X80804000Y-140373100D03*
X80804000Y-139865100D03*
X80804000Y-139369800D03*
X80804000Y-138874500D03*
X80804000Y-138366500D03*
X80804000Y-137871200D03*
X80804000Y-137375900D03*
X80804000Y-136867900D03*
X80804000Y-136372600D03*
X80804000Y-135877300D03*
X80804000Y-135369300D03*
X80804000Y-134874000D03*
X80804000Y-134366000D03*
X80804000Y-133870700D03*
X80804000Y-133362700D03*
X80804000Y-132867400D03*
X80804000Y-132372100D03*
X80804000Y-131864100D03*
X80804000Y-131368800D03*
X80804000Y-130873500D03*
X80804000Y-130365500D03*
X80804000Y-129870200D03*
X80804000Y-129374900D03*
D45*
X76352400Y-123920000D03*
X75857100Y-123920000D03*
X75349100Y-123920000D03*
X74853800Y-123920000D03*
X74358500Y-123920000D03*
X73850500Y-123920000D03*
X73355200Y-123920000D03*
X72859900Y-123920000D03*
X72351900Y-123920000D03*
X71856600Y-123920000D03*
X71361300Y-123920000D03*
X70853300Y-123920000D03*
X70358000Y-123920000D03*
X69850000Y-123920000D03*
X69354700Y-123920000D03*
X68846700Y-123920000D03*
X68351400Y-123920000D03*
X67856100Y-123920000D03*
X67348100Y-123920000D03*
X66852800Y-123920000D03*
X66357500Y-123920000D03*
X65849500Y-123920000D03*
X65354200Y-123920000D03*
X64858900Y-123920000D03*
X64350900Y-123920000D03*
X63855600Y-123920000D03*
X63360300Y-123920000D03*
X62852300Y-123920000D03*
X62357000Y-123920000D03*
X61861700Y-123920000D03*
X61353700Y-123920000D03*
X78854300Y-123920000D03*
X78346300Y-123920000D03*
X77851000Y-123920000D03*
X77355700Y-123920000D03*
X76847700Y-123920000D03*
D46*
X59404000Y-125869700D03*
X59404000Y-126377700D03*
X59404000Y-126873000D03*
X59404000Y-127368300D03*
X59404000Y-127876300D03*
D38*
X80137000Y-181229000D03*
X81661000Y-181229000D03*
X79248000Y-181229000D03*
X77724000Y-181229000D03*
X81254600Y-179616000D03*
X82778600Y-179616000D03*
D47*
X31750000Y-31750000D03*
X120650000Y-31750000D03*
X31750000Y-181610000D03*
D48*
X72136000Y-152323800D03*
X76200000Y-152323800D03*
X76200000Y-149936200D03*
X72136000Y-149936200D03*
D49*
X91616700Y-137071000D03*
D50*
X86066700Y-137521000D03*
X86066700Y-136621000D03*
D51*
X27940000Y-37000000D03*
X27940000Y-39200000D03*
X27940000Y-54780000D03*
X27940000Y-56980000D03*
X27940000Y-72560000D03*
X27940000Y-74760000D03*
X27940000Y-90340000D03*
X27940000Y-92540000D03*
X27940000Y-108120000D03*
X27940000Y-110320000D03*
X27940000Y-125900000D03*
X27940000Y-128100000D03*
X27940000Y-143680000D03*
X27940000Y-145880000D03*
X27940000Y-161460000D03*
X27940000Y-163660000D03*
D38*
X35052000Y-38100000D03*
X33528000Y-38100000D03*
X35052000Y-55880000D03*
X33528000Y-55880000D03*
X35052000Y-73660000D03*
X33528000Y-73660000D03*
X35052000Y-91440000D03*
X33528000Y-91440000D03*
X35052000Y-109220000D03*
X33528000Y-109220000D03*
X35052000Y-127000000D03*
X33528000Y-127000000D03*
X35052000Y-144780000D03*
X33528000Y-144780000D03*
X33782000Y-162560000D03*
X32258000Y-162560000D03*
D47*
X120650000Y-181610000D03*
D52*
X76200000Y-44760000D03*
X76200000Y-102560000D03*
D31*
X121800000Y-72890000D03*
X121800000Y-70860000D03*
X120020000Y-73920000D03*
X120020000Y-71890000D03*
X120020000Y-75950000D03*
X121800000Y-74920000D03*
X120020000Y-69860000D03*
X121800000Y-68830000D03*
D53*
X45720000Y-36830000D03*
D54*
X45720000Y-34290000D03*
X48260000Y-36830000D03*
X48260000Y-34290000D03*
X50800000Y-36830000D03*
X50800000Y-34290000D03*
X53340000Y-36830000D03*
X53340000Y-34290000D03*
X55880000Y-36830000D03*
X55880000Y-34290000D03*
X58420000Y-36830000D03*
X58420000Y-34290000D03*
X60960000Y-36830000D03*
X60960000Y-34290000D03*
X63500000Y-36830000D03*
X63500000Y-34290000D03*
X66040000Y-36830000D03*
X66040000Y-34290000D03*
X68580000Y-36830000D03*
X68580000Y-34290000D03*
X71120000Y-36830000D03*
X71120000Y-34290000D03*
X73660000Y-36830000D03*
X73660000Y-34290000D03*
X76200000Y-36830000D03*
X76200000Y-34290000D03*
X78740000Y-36830000D03*
X78740000Y-34290000D03*
X81280000Y-36830000D03*
X81280000Y-34290000D03*
X83820000Y-36830000D03*
X83820000Y-34290000D03*
X86360000Y-36830000D03*
X86360000Y-34290000D03*
X88900000Y-36830000D03*
X88900000Y-34290000D03*
X91440000Y-36830000D03*
X91440000Y-34290000D03*
X93980000Y-36830000D03*
X93980000Y-34290000D03*
X96520000Y-36830000D03*
X96520000Y-34290000D03*
X99060000Y-36830000D03*
X99060000Y-34290000D03*
X101600000Y-36830000D03*
X101600000Y-34290000D03*
X104140000Y-36830000D03*
X104140000Y-34290000D03*
X106680000Y-36830000D03*
X106680000Y-34290000D03*
D55*
X45012300Y-113889200D03*
X60536600Y-103064800D03*
X54026200Y-113577800D03*
X55784300Y-114517600D03*
X56603300Y-112264900D03*
X62102600Y-103122600D03*
X62758400Y-125259300D03*
X57115400Y-111383900D03*
X54953300Y-126270900D03*
X61575000Y-109152000D03*
X55748700Y-118769600D03*
X62231500Y-107481400D03*
X56331600Y-113980300D03*
X64587200Y-103013600D03*
X62736000Y-126059600D03*
X62670500Y-109351700D03*
X56886900Y-115265400D03*
X62731800Y-111007100D03*
X57115100Y-120242700D03*
X64214500Y-107322900D03*
X57670700Y-115366600D03*
X64389000Y-109601000D03*
X59315600Y-115451700D03*
X63235300Y-112165000D03*
X58601900Y-117733100D03*
X65059800Y-120741000D03*
X60716200Y-127722400D03*
X63423400Y-113542600D03*
X58665700Y-121259200D03*
X63622000Y-114995400D03*
X74612900Y-138099300D03*
X42778800Y-47748600D03*
X42591100Y-113919500D03*
X44757900Y-117004300D03*
X43176400Y-56259700D03*
X44199800Y-115199100D03*
X43832300Y-96230100D03*
X66782200Y-143757300D03*
X59579200Y-145033600D03*
X44638900Y-125845000D03*
X41927500Y-87085900D03*
X68158000Y-143193700D03*
X60618200Y-145239700D03*
X68351400Y-144061100D03*
X59648000Y-145992400D03*
X68916400Y-141698800D03*
X57451800Y-140367100D03*
X44780400Y-111658000D03*
X43992900Y-104152600D03*
X57790900Y-142282800D03*
X70982800Y-142959300D03*
X70843700Y-144026800D03*
X57990200Y-145252100D03*
X71537800Y-143497200D03*
X53204800Y-144905600D03*
X68213700Y-146978500D03*
X50737900Y-144506500D03*
X71529400Y-146823100D03*
X50888900Y-148000900D03*
X72081000Y-144032300D03*
X54590200Y-146348600D03*
X59171400Y-119516600D03*
X62485800Y-113609400D03*
X74301700Y-147507100D03*
X54090800Y-158575700D03*
X75992600Y-146772500D03*
X60069200Y-160103600D03*
X76292700Y-143721700D03*
X57883100Y-159075900D03*
X74342700Y-148955400D03*
X52949700Y-158608300D03*
X97305900Y-43925600D03*
X112014000Y-58166000D03*
X82928500Y-127980000D03*
X63676600Y-131624700D03*
X92575200Y-43874500D03*
X109824900Y-59154300D03*
X95056700Y-103559400D03*
X73088500Y-119951500D03*
X120015000Y-65722500D03*
X109410500Y-76390500D03*
X96135300Y-103267600D03*
X64593000Y-127243100D03*
X75474300Y-122234600D03*
X94582800Y-109445500D03*
X111069700Y-79782900D03*
X109793900Y-91432600D03*
X95034000Y-139478200D03*
X73770200Y-139305000D03*
X65082800Y-126309500D03*
X98464000Y-102819700D03*
X109825400Y-86453400D03*
X77698500Y-137550600D03*
X96399100Y-139192300D03*
X76387700Y-122312400D03*
X95650500Y-110539300D03*
X111442500Y-100266500D03*
X75744100Y-125328300D03*
X95146200Y-125432800D03*
X73519600Y-122268600D03*
X100717100Y-109121500D03*
X109986100Y-102927100D03*
X73544700Y-125396300D03*
X96584500Y-126202600D03*
X71355000Y-122691900D03*
X100390400Y-109928700D03*
X110706800Y-105203200D03*
X110675900Y-111200400D03*
X77545000Y-125714800D03*
X103412700Y-122350600D03*
X61010100Y-126867500D03*
X100722500Y-126857000D03*
X79604300Y-132404600D03*
X101304700Y-128807800D03*
X62386600Y-127059400D03*
X101809000Y-125620500D03*
X60589800Y-125585700D03*
X102765900Y-128554000D03*
X61752000Y-127984000D03*
X103644600Y-126238700D03*
X75450600Y-137718700D03*
X75123400Y-133625000D03*
X75109700Y-125797300D03*
X74831000Y-144083600D03*
X59144000Y-156869100D03*
X81802500Y-144876700D03*
X60778400Y-138354500D03*
X84328000Y-185039000D03*
X76835000Y-185039000D03*
X83693000Y-145034000D03*
X82169000Y-141986000D03*
X79604200Y-138919200D03*
X87261000Y-138956500D03*
X68973000Y-138905400D03*
X78480100Y-141815800D03*
X85555700Y-143803800D03*
X63246000Y-147828000D03*
X58928000Y-147828000D03*
X56515000Y-145415000D03*
X83058000Y-135890000D03*
X59817000Y-121158000D03*
X56515000Y-135128000D03*
X83312000Y-133414000D03*
X87693500Y-131254000D03*
X67818000Y-160655000D03*
X63754000Y-160655000D03*
X70181900Y-147284100D03*
X67114300Y-140735700D03*
X65946700Y-125142200D03*
X71540400Y-115554600D03*
X82270600Y-182346600D03*
X114998500Y-45593000D03*
X71374000Y-121729500D03*
X89281000Y-134239000D03*
X91821000Y-132080000D03*
X116332000Y-144018000D03*
X119126000Y-146050000D03*
X124460000Y-134239000D03*
X115189000Y-117983000D03*
X115189000Y-93853000D03*
X115062000Y-69723000D03*
X118237000Y-39751000D03*
X66040000Y-150368000D03*
X67183000Y-147828000D03*
X55118000Y-135128000D03*
X60960000Y-119761000D03*
X62103000Y-122301000D03*
X85979000Y-128524000D03*
X60833000Y-166751000D03*
X61722000Y-166751000D03*
X62611000Y-166751000D03*
X63500000Y-166751000D03*
X64389000Y-166751000D03*
X65278000Y-166751000D03*
X66167000Y-166751000D03*
X65405000Y-154305000D03*
X62103000Y-154305000D03*
X77089000Y-158750000D03*
X76962000Y-166370000D03*
X44704000Y-39497000D03*
X44704000Y-49784000D03*
X44704000Y-57404000D03*
X44577000Y-164084000D03*
X29591000Y-173863000D03*
X29210000Y-163703000D03*
X29591000Y-156083000D03*
X29210000Y-145923000D03*
X29464000Y-138303000D03*
X29210000Y-128143000D03*
X29591000Y-120523000D03*
X29210000Y-110363000D03*
X29591000Y-102743000D03*
X29210000Y-92583000D03*
X29210000Y-74803000D03*
X29210000Y-57023000D03*
X29210000Y-39243000D03*
X77343000Y-118491000D03*
X64008000Y-118110000D03*
X77343000Y-144018000D03*
X57150000Y-162814000D03*
X53340000Y-162814000D03*
X61976000Y-150241000D03*
X92710000Y-143764000D03*
X85344000Y-140462000D03*
X70358000Y-154686000D03*
X70612000Y-149860000D03*
X83058000Y-149098000D03*
X90424000Y-150368000D03*
X44577000Y-174244000D03*
X44577000Y-156464000D03*
X44577000Y-146304000D03*
X44704000Y-138684000D03*
X44704000Y-128524000D03*
X44577000Y-120904000D03*
X44704000Y-110744000D03*
X44704000Y-103124000D03*
X44704000Y-92964000D03*
X44704000Y-85344000D03*
X29337000Y-85090000D03*
X29337000Y-67310000D03*
X44196000Y-76200000D03*
X44323000Y-71120000D03*
X29464000Y-49530000D03*
X76708000Y-181102000D03*
X74676000Y-151257000D03*
X74676000Y-153416000D03*
X82874700Y-145141300D03*
X79561000Y-142125600D03*
X89050100Y-132671100D03*
X78944300Y-134139900D03*
X82498400Y-140517300D03*
X85469800Y-142725200D03*
X53129500Y-112088000D03*
X103644600Y-142220300D03*
X64973600Y-132170900D03*
X63910800Y-139900000D03*
X103644600Y-145130800D03*
X62727500Y-171584700D03*
X91445900Y-142303000D03*
X64871100Y-140430500D03*
X79561000Y-134692300D03*
X99105100Y-141694500D03*
X82497400Y-132256500D03*
X98822600Y-139552100D03*
D56*
X59404000Y-141871700D02*
X58450100Y-141871700D01*
X58321100Y-141742700D02*
X58450100Y-141871700D01*
X56661900Y-141742700D02*
X58321100Y-141742700D01*
X55985600Y-141066400D02*
X56661900Y-141742700D01*
X55113500Y-141066400D02*
X55985600Y-141066400D01*
X49842300Y-135795200D02*
X55113500Y-141066400D01*
X49842300Y-119655200D02*
X49842300Y-135795200D01*
X44377500Y-114190400D02*
X49842300Y-119655200D01*
X44377500Y-112354800D02*
X44377500Y-114190400D01*
X43633600Y-111610900D02*
X44377500Y-112354800D01*
X42567200Y-111610900D02*
X43633600Y-111610900D01*
X42311100Y-111354800D02*
X42567200Y-111610900D01*
X42311100Y-109293100D02*
X42311100Y-111354800D01*
X45091600Y-106512600D02*
X42311100Y-109293100D01*
X45091600Y-105656200D02*
X45091600Y-106512600D01*
X48260000Y-102487800D02*
X45091600Y-105656200D01*
X48260000Y-36830000D02*
X48260000Y-102487800D01*
X56714500Y-141363700D02*
X59404000Y-141363700D01*
X56003000Y-140652200D02*
X56714500Y-141363700D01*
X55130900Y-140652200D02*
X56003000Y-140652200D01*
X50147400Y-135668700D02*
X55130900Y-140652200D01*
X50147400Y-119024300D02*
X50147400Y-135668700D01*
X45012300Y-113889200D02*
X50147400Y-119024300D01*
X59404000Y-140373100D02*
X60357900Y-140373100D01*
X60663000Y-140678200D02*
X60357900Y-140373100D01*
X60663000Y-143810300D02*
X60663000Y-140678200D01*
X60412400Y-144060900D02*
X60663000Y-143810300D01*
X56822100Y-144060900D02*
X60412400Y-144060900D01*
X55353100Y-142591900D02*
X56822100Y-144060900D01*
X54481000Y-142591900D02*
X55353100Y-142591900D01*
X48316800Y-136427700D02*
X54481000Y-142591900D01*
X48316800Y-123400000D02*
X48316800Y-136427700D01*
X42005700Y-117088900D02*
X48316800Y-123400000D01*
X42005700Y-109166900D02*
X42005700Y-117088900D01*
X44786500Y-106386100D02*
X42005700Y-109166900D01*
X44786500Y-105529800D02*
X44786500Y-106386100D01*
X46816700Y-103499600D02*
X44786500Y-105529800D01*
X46816700Y-36805400D02*
X46816700Y-103499600D01*
X47789500Y-35832600D02*
X46816700Y-36805400D01*
X49802600Y-35832600D02*
X47789500Y-35832600D01*
X50800000Y-36830000D02*
X49802600Y-35832600D01*
X51831900Y-35321900D02*
X50800000Y-34290000D01*
X51831900Y-99347500D02*
X51831900Y-35321900D01*
X45579500Y-105599900D02*
X51831900Y-99347500D01*
X45579500Y-110018900D02*
X45579500Y-105599900D01*
X45351200Y-110247200D02*
X45579500Y-110018900D01*
X45351200Y-113041700D02*
X45351200Y-110247200D01*
X50986500Y-118677000D02*
X45351200Y-113041700D01*
X50986500Y-135644600D02*
X50986500Y-118677000D01*
X55175300Y-139833400D02*
X50986500Y-135644600D01*
X58418400Y-139833400D02*
X55175300Y-139833400D01*
X58450100Y-139865100D02*
X58418400Y-139833400D01*
X59404000Y-139865100D02*
X58450100Y-139865100D01*
X53340000Y-98271000D02*
X53340000Y-36830000D01*
X45921000Y-105690000D02*
X53340000Y-98271000D01*
X45921000Y-110109000D02*
X45921000Y-105690000D01*
X45656300Y-110373700D02*
X45921000Y-110109000D01*
X45656300Y-112915100D02*
X45656300Y-110373700D01*
X51367800Y-118626600D02*
X45656300Y-112915100D01*
X51367800Y-135594300D02*
X51367800Y-118626600D01*
X55143300Y-139369800D02*
X51367800Y-135594300D01*
X59404000Y-139369800D02*
X55143300Y-139369800D01*
X54343000Y-35293000D02*
X53340000Y-34290000D01*
X54343000Y-97699600D02*
X54343000Y-35293000D01*
X46226100Y-105816500D02*
X54343000Y-97699600D01*
X46226100Y-110235500D02*
X46226100Y-105816500D01*
X45961400Y-110500200D02*
X46226100Y-110235500D01*
X45961400Y-112788600D02*
X45961400Y-110500200D01*
X51672900Y-118500100D02*
X45961400Y-112788600D01*
X51672900Y-135467800D02*
X51672900Y-118500100D01*
X55079600Y-138874500D02*
X51672900Y-135467800D01*
X59404000Y-138874500D02*
X55079600Y-138874500D01*
X55880000Y-96810100D02*
X55880000Y-36830000D01*
X46548000Y-106142100D02*
X55880000Y-96810100D01*
X46548000Y-110345200D02*
X46548000Y-106142100D01*
X46266500Y-110626700D02*
X46548000Y-110345200D01*
X46266500Y-112662100D02*
X46266500Y-110626700D01*
X51978000Y-118373600D02*
X46266500Y-112662100D01*
X51978000Y-135341300D02*
X51978000Y-118373600D01*
X55003200Y-138366500D02*
X51978000Y-135341300D01*
X59404000Y-138366500D02*
X55003200Y-138366500D01*
X56883700Y-35293700D02*
X55880000Y-34290000D01*
X56883700Y-96443300D02*
X56883700Y-35293700D01*
X46853200Y-106473800D02*
X56883700Y-96443300D01*
X46853200Y-110471600D02*
X46853200Y-106473800D01*
X46571600Y-110753200D02*
X46853200Y-110471600D01*
X46571600Y-112535600D02*
X46571600Y-110753200D01*
X52283100Y-118247100D02*
X46571600Y-112535600D01*
X52283100Y-135214800D02*
X52283100Y-118247100D01*
X54939500Y-137871200D02*
X52283100Y-135214800D01*
X59404000Y-137871200D02*
X54939500Y-137871200D01*
X59404000Y-137375900D02*
X54875800Y-137375900D01*
X58420000Y-95338500D02*
X58420000Y-36830000D01*
X47184700Y-106573800D02*
X58420000Y-95338500D01*
X47184700Y-110571700D02*
X47184700Y-106573800D01*
X46876700Y-110879700D02*
X47184700Y-110571700D01*
X46876700Y-112409100D02*
X46876700Y-110879700D01*
X52588200Y-118120600D02*
X46876700Y-112409100D01*
X52588200Y-135088300D02*
X52588200Y-118120600D01*
X54875800Y-137375900D02*
X52588200Y-135088300D01*
X59404000Y-136867900D02*
X58450100Y-136867900D01*
X59431900Y-35301900D02*
X58420000Y-34290000D01*
X59431900Y-103608300D02*
X59431900Y-35301900D01*
X54102900Y-108937300D02*
X59431900Y-103608300D01*
X49332500Y-108937300D02*
X54102900Y-108937300D01*
X47181900Y-111087900D02*
X49332500Y-108937300D01*
X47181900Y-112282700D02*
X47181900Y-111087900D01*
X52893300Y-117994100D02*
X47181900Y-112282700D01*
X52893300Y-134961800D02*
X52893300Y-117994100D01*
X54970400Y-137038900D02*
X52893300Y-134961800D01*
X58279100Y-137038900D02*
X54970400Y-137038900D01*
X58450100Y-136867900D02*
X58279100Y-137038900D01*
X59404000Y-135369300D02*
X58450100Y-135369300D01*
X57390700Y-136428700D02*
X58450100Y-135369300D01*
X55223400Y-136428700D02*
X57390700Y-136428700D01*
X54026200Y-135231500D02*
X55223400Y-136428700D01*
X54026200Y-113577800D02*
X54026200Y-135231500D01*
X60536600Y-37253400D02*
X60536600Y-103064800D01*
X60960000Y-36830000D02*
X60536600Y-37253400D01*
X56566700Y-112228300D02*
X56603300Y-112264900D01*
X56566700Y-106905200D02*
X56566700Y-112228300D01*
X59745100Y-103726800D02*
X56566700Y-106905200D01*
X59745100Y-35504900D02*
X59745100Y-103726800D01*
X60960000Y-34290000D02*
X59745100Y-35504900D01*
X54419500Y-115882400D02*
X55784300Y-114517600D01*
X54419500Y-135193200D02*
X54419500Y-115882400D01*
X55349900Y-136123600D02*
X54419500Y-135193200D01*
X57171300Y-136123600D02*
X55349900Y-136123600D01*
X58420900Y-134874000D02*
X57171300Y-136123600D01*
X59404000Y-134874000D02*
X58420900Y-134874000D01*
X63300500Y-129924800D02*
X60357900Y-132867400D01*
X63300500Y-125801400D02*
X63300500Y-129924800D01*
X62758400Y-125259300D02*
X63300500Y-125801400D01*
X59404000Y-132867400D02*
X60357900Y-132867400D01*
X62527900Y-102697300D02*
X62102600Y-103122600D01*
X62527900Y-37802100D02*
X62527900Y-102697300D01*
X63500000Y-36830000D02*
X62527900Y-37802100D01*
X54953300Y-128875300D02*
X58450100Y-132372100D01*
X54953300Y-126270900D02*
X54953300Y-128875300D01*
X59404000Y-132372100D02*
X58450100Y-132372100D01*
X57115400Y-107241400D02*
X57115400Y-111383900D01*
X62222800Y-102134000D02*
X57115400Y-107241400D01*
X62222800Y-35567200D02*
X62222800Y-102134000D01*
X63500000Y-34290000D02*
X62222800Y-35567200D01*
X58443800Y-131864100D02*
X59404000Y-131864100D01*
X55748700Y-129169000D02*
X58443800Y-131864100D01*
X55748700Y-118769600D02*
X55748700Y-129169000D01*
X62765500Y-107961500D02*
X61575000Y-109152000D01*
X62765500Y-106938200D02*
X62765500Y-107961500D01*
X63138100Y-106565600D02*
X62765500Y-106938200D01*
X63138100Y-41203400D02*
X63138100Y-106565600D01*
X66040000Y-38301500D02*
X63138100Y-41203400D01*
X66040000Y-36830000D02*
X66040000Y-38301500D01*
X59404000Y-131368800D02*
X58450100Y-131368800D01*
X62231500Y-107040600D02*
X62231500Y-107481400D01*
X62833000Y-106439100D02*
X62231500Y-107040600D01*
X62833000Y-41076700D02*
X62833000Y-106439100D01*
X64770100Y-39139600D02*
X62833000Y-41076700D01*
X64770100Y-35559900D02*
X64770100Y-39139600D01*
X66040000Y-34290000D02*
X64770100Y-35559900D01*
X56276300Y-129195000D02*
X58450100Y-131368800D01*
X56276300Y-119895100D02*
X56276300Y-129195000D01*
X56331600Y-119839800D02*
X56276300Y-119895100D01*
X56331600Y-113980300D02*
X56331600Y-119839800D01*
X59404000Y-130873500D02*
X60357900Y-130873500D01*
X64587200Y-42918100D02*
X64587200Y-103013600D01*
X68580000Y-38925300D02*
X64587200Y-42918100D01*
X68580000Y-36830000D02*
X68580000Y-38925300D01*
X62946300Y-126269900D02*
X62736000Y-126059600D01*
X62946300Y-128285100D02*
X62946300Y-126269900D01*
X60357900Y-130873500D02*
X62946300Y-128285100D01*
X63375700Y-108646500D02*
X62670500Y-109351700D01*
X63375700Y-107343600D02*
X63375700Y-108646500D01*
X63748300Y-106971000D02*
X63375700Y-107343600D01*
X63748300Y-42899700D02*
X63748300Y-106971000D01*
X67354600Y-39293400D02*
X63748300Y-42899700D01*
X67354600Y-35515400D02*
X67354600Y-39293400D01*
X68580000Y-34290000D02*
X67354600Y-35515400D01*
X59404000Y-130365500D02*
X58450100Y-130365500D01*
X56581400Y-128496800D02*
X58450100Y-130365500D01*
X56581400Y-120021600D02*
X56581400Y-128496800D01*
X56886900Y-119716100D02*
X56581400Y-120021600D01*
X56886900Y-115265400D02*
X56886900Y-119716100D01*
X63483000Y-110255900D02*
X62731800Y-111007100D01*
X63483000Y-109034600D02*
X63483000Y-110255900D01*
X65470700Y-107046900D02*
X63483000Y-109034600D01*
X65470700Y-42898100D02*
X65470700Y-107046900D01*
X71120000Y-37248800D02*
X65470700Y-42898100D01*
X71120000Y-36830000D02*
X71120000Y-37248800D01*
X58450100Y-129870200D02*
X59404000Y-129870200D01*
X57115100Y-128535200D02*
X58450100Y-129870200D01*
X57115100Y-120242700D02*
X57115100Y-128535200D01*
X59404000Y-129374900D02*
X58450100Y-129374900D01*
X65120900Y-106416500D02*
X64214500Y-107322900D01*
X65120900Y-42816100D02*
X65120900Y-106416500D01*
X69850100Y-38086900D02*
X65120900Y-42816100D01*
X69850100Y-35559900D02*
X69850100Y-38086900D01*
X71120000Y-34290000D02*
X69850100Y-35559900D01*
X57648800Y-115388500D02*
X57670700Y-115366600D01*
X57648800Y-120463900D02*
X57648800Y-115388500D01*
X57420300Y-120692400D02*
X57648800Y-120463900D01*
X57420300Y-128345100D02*
X57420300Y-120692400D01*
X58450100Y-129374900D02*
X57420300Y-128345100D01*
X66188700Y-44301300D02*
X73660000Y-36830000D01*
X66188700Y-44301300D02*
X66188700Y-107801300D01*
X64389000Y-109601000D02*
X66188700Y-107801300D01*
X59404000Y-128866900D02*
X58450100Y-128866900D01*
X57953900Y-116813400D02*
X59315600Y-115451700D01*
X57953900Y-120590400D02*
X57953900Y-116813400D01*
X57781100Y-120763200D02*
X57953900Y-120590400D01*
X57781100Y-128197900D02*
X57781100Y-120763200D01*
X58450100Y-128866900D02*
X57781100Y-128197900D01*
X59404000Y-128371600D02*
X58450100Y-128371600D01*
X72498100Y-35451900D02*
X73660000Y-34290000D01*
X72498100Y-36853500D02*
X72498100Y-35451900D01*
X65883600Y-43468000D02*
X72498100Y-36853500D01*
X65883600Y-107281300D02*
X65883600Y-43468000D01*
X63788200Y-109376700D02*
X65883600Y-107281300D01*
X63788200Y-111612100D02*
X63788200Y-109376700D01*
X63235300Y-112165000D02*
X63788200Y-111612100D01*
X58601900Y-120374000D02*
X58601900Y-117733100D01*
X58107600Y-120868300D02*
X58601900Y-120374000D01*
X58107600Y-128029100D02*
X58107600Y-120868300D01*
X58450100Y-128371600D02*
X58107600Y-128029100D01*
X59404000Y-127876300D02*
X60357900Y-127876300D01*
X60511800Y-127722400D02*
X60716200Y-127722400D01*
X60357900Y-127876300D02*
X60511800Y-127722400D01*
X76200000Y-38677500D02*
X76200000Y-36830000D01*
X66951500Y-47926000D02*
X76200000Y-38677500D01*
X66951500Y-108704500D02*
X66951500Y-47926000D01*
X65311600Y-110344400D02*
X66951500Y-108704500D01*
X65311600Y-120489200D02*
X65311600Y-110344400D01*
X65059800Y-120741000D02*
X65311600Y-120489200D01*
X64495800Y-112470200D02*
X63423400Y-113542600D01*
X64495800Y-110363000D02*
X64495800Y-112470200D01*
X66646300Y-108212500D02*
X64495800Y-110363000D01*
X66646300Y-46104800D02*
X66646300Y-108212500D01*
X74930100Y-37821000D02*
X66646300Y-46104800D01*
X74930100Y-35559900D02*
X74930100Y-37821000D01*
X76200000Y-34290000D02*
X74930100Y-35559900D01*
X58450100Y-121474800D02*
X58450100Y-127368300D01*
X58665700Y-121259200D02*
X58450100Y-121474800D01*
X59404000Y-127368300D02*
X58450100Y-127368300D01*
X67256600Y-48313400D02*
X78740000Y-36830000D01*
X67256600Y-109635600D02*
X67256600Y-48313400D01*
X65616700Y-111275500D02*
X67256600Y-109635600D01*
X65616700Y-120939000D02*
X65616700Y-111275500D01*
X65477800Y-121077900D02*
X65616700Y-120939000D01*
X65477800Y-121128900D02*
X65477800Y-121077900D01*
X63855600Y-122751100D02*
X65477800Y-121128900D01*
X63855600Y-123920000D02*
X63855600Y-122751100D01*
X79930600Y-35480600D02*
X78740000Y-34290000D01*
X79930600Y-75068500D02*
X79930600Y-35480600D01*
X67561700Y-87437400D02*
X79930600Y-75068500D01*
X67561700Y-109926200D02*
X67561700Y-87437400D01*
X65921800Y-111566100D02*
X67561700Y-109926200D01*
X65921800Y-121065500D02*
X65921800Y-111566100D01*
X65782900Y-121204400D02*
X65921800Y-121065500D01*
X65782900Y-121255500D02*
X65782900Y-121204400D01*
X64350900Y-122687500D02*
X65782900Y-121255500D01*
X64350900Y-123920000D02*
X64350900Y-122687500D01*
X64858900Y-123920000D02*
X64858900Y-122738300D01*
X81280000Y-87283200D02*
X81280000Y-36830000D01*
X67866800Y-100696400D02*
X81280000Y-87283200D01*
X67866800Y-110216800D02*
X67866800Y-100696400D01*
X66226900Y-111856700D02*
X67866800Y-110216800D01*
X66226900Y-121192000D02*
X66226900Y-111856700D01*
X66088000Y-121330900D02*
X66226900Y-121192000D01*
X66088000Y-121509200D02*
X66088000Y-121330900D01*
X64858900Y-122738300D02*
X66088000Y-121509200D01*
X65354200Y-123920000D02*
X65354200Y-122674600D01*
X82283100Y-35293100D02*
X81280000Y-34290000D01*
X82283100Y-86711700D02*
X82283100Y-35293100D01*
X68171900Y-100822900D02*
X82283100Y-86711700D01*
X68171900Y-110343300D02*
X68171900Y-100822900D01*
X66532000Y-111983200D02*
X68171900Y-110343300D01*
X66532000Y-121318500D02*
X66532000Y-111983200D01*
X66393100Y-121457400D02*
X66532000Y-121318500D01*
X66393100Y-121635700D02*
X66393100Y-121457400D01*
X65354200Y-122674600D02*
X66393100Y-121635700D01*
X83045900Y-37604100D02*
X83820000Y-36830000D01*
X83045900Y-86812100D02*
X83045900Y-37604100D01*
X68477000Y-101381000D02*
X83045900Y-86812100D01*
X68477000Y-110613300D02*
X68477000Y-101381000D01*
X66837200Y-112253100D02*
X68477000Y-110613300D01*
X66837200Y-121444900D02*
X66837200Y-112253100D01*
X66698200Y-121583900D02*
X66837200Y-121444900D01*
X66698200Y-121762200D02*
X66698200Y-121583900D01*
X65849500Y-122610900D02*
X66698200Y-121762200D01*
X65849500Y-123920000D02*
X65849500Y-122610900D01*
X66357500Y-123920000D02*
X66357500Y-122534700D01*
X84843000Y-35313000D02*
X83820000Y-34290000D01*
X84843000Y-37490300D02*
X84843000Y-35313000D01*
X83446900Y-38886400D02*
X84843000Y-37490300D01*
X83446900Y-86842600D02*
X83446900Y-38886400D01*
X68782100Y-101507400D02*
X83446900Y-86842600D01*
X68782100Y-110739800D02*
X68782100Y-101507400D01*
X67294700Y-112227200D02*
X68782100Y-110739800D01*
X67294700Y-121419000D02*
X67294700Y-112227200D01*
X67003300Y-121710400D02*
X67294700Y-121419000D01*
X67003300Y-121888900D02*
X67003300Y-121710400D01*
X66357500Y-122534700D02*
X67003300Y-121888900D01*
X83752000Y-39438000D02*
X86360000Y-36830000D01*
X83752000Y-86969200D02*
X83752000Y-39438000D01*
X69087200Y-101634000D02*
X83752000Y-86969200D01*
X69087200Y-110866300D02*
X69087200Y-101634000D01*
X67599800Y-112353700D02*
X69087200Y-110866300D01*
X67599800Y-121545500D02*
X67599800Y-112353700D01*
X67308400Y-121836900D02*
X67599800Y-121545500D01*
X67308400Y-122015400D02*
X67308400Y-121836900D01*
X66852800Y-122471000D02*
X67308400Y-122015400D01*
X66852800Y-123920000D02*
X66852800Y-122471000D01*
X67348100Y-123920000D02*
X67348100Y-122966100D01*
X67613500Y-122700700D02*
X67348100Y-122966100D01*
X67613500Y-121963400D02*
X67613500Y-122700700D01*
X67904900Y-121672000D02*
X67613500Y-121963400D01*
X67904900Y-112480300D02*
X67904900Y-121672000D01*
X69423800Y-110961400D02*
X67904900Y-112480300D01*
X69423800Y-101729000D02*
X69423800Y-110961400D01*
X85561000Y-85591800D02*
X69423800Y-101729000D01*
X85561000Y-39890000D02*
X85561000Y-85591800D01*
X87391900Y-38059100D02*
X85561000Y-39890000D01*
X87391900Y-35321900D02*
X87391900Y-38059100D01*
X86360000Y-34290000D02*
X87391900Y-35321900D01*
X67918600Y-122903600D02*
X67856100Y-122966100D01*
X67918600Y-122089900D02*
X67918600Y-122903600D01*
X68210000Y-121798500D02*
X67918600Y-122089900D01*
X68210000Y-112661000D02*
X68210000Y-121798500D01*
X69728900Y-111142100D02*
X68210000Y-112661000D01*
X69728900Y-101855500D02*
X69728900Y-111142100D01*
X86171200Y-85413200D02*
X69728900Y-101855500D01*
X86171200Y-42260100D02*
X86171200Y-85413200D01*
X88900000Y-39531300D02*
X86171200Y-42260100D01*
X88900000Y-36830000D02*
X88900000Y-39531300D01*
X67856100Y-123920000D02*
X67856100Y-122966100D01*
X89894200Y-35284200D02*
X88900000Y-34290000D01*
X89894200Y-38968800D02*
X89894200Y-35284200D01*
X87978600Y-40884400D02*
X89894200Y-38968800D01*
X87978600Y-84037600D02*
X87978600Y-40884400D01*
X70339000Y-101677200D02*
X87978600Y-84037600D01*
X70339000Y-111015300D02*
X70339000Y-101677200D01*
X68820300Y-112534000D02*
X70339000Y-111015300D01*
X68820300Y-121619800D02*
X68820300Y-112534000D01*
X68351400Y-122088700D02*
X68820300Y-121619800D01*
X68351400Y-123920000D02*
X68351400Y-122088700D01*
X68846700Y-123920000D02*
X68846700Y-122966100D01*
X91440000Y-38766800D02*
X91440000Y-36830000D01*
X88283800Y-41923000D02*
X91440000Y-38766800D01*
X88283800Y-84227000D02*
X88283800Y-41923000D01*
X70644200Y-101866600D02*
X88283800Y-84227000D01*
X70644200Y-111808800D02*
X70644200Y-101866600D01*
X69125400Y-113327600D02*
X70644200Y-111808800D01*
X69125400Y-122687400D02*
X69125400Y-113327600D01*
X68846700Y-122966100D02*
X69125400Y-122687400D01*
X69354700Y-123920000D02*
X69354700Y-122966100D01*
X92443700Y-35293700D02*
X91440000Y-34290000D01*
X92443700Y-38194900D02*
X92443700Y-35293700D01*
X88588900Y-42049700D02*
X92443700Y-38194900D01*
X88588900Y-84353600D02*
X88588900Y-42049700D01*
X70949300Y-101993200D02*
X88588900Y-84353600D01*
X70949300Y-111935300D02*
X70949300Y-101993200D01*
X69430500Y-113454100D02*
X70949300Y-111935300D01*
X69430500Y-122890300D02*
X69430500Y-113454100D01*
X69354700Y-122966100D02*
X69430500Y-122890300D01*
X69850000Y-123920000D02*
X69850000Y-122966100D01*
X93980000Y-37521600D02*
X93980000Y-36830000D01*
X88894000Y-42607600D02*
X93980000Y-37521600D01*
X88894000Y-84480000D02*
X88894000Y-42607600D01*
X71254400Y-102119600D02*
X88894000Y-84480000D01*
X71254400Y-112582800D02*
X71254400Y-102119600D01*
X69795600Y-114041600D02*
X71254400Y-112582800D01*
X69795600Y-122911700D02*
X69795600Y-114041600D01*
X69850000Y-122966100D02*
X69795600Y-122911700D01*
X94991900Y-35301900D02*
X93980000Y-34290000D01*
X94991900Y-37270800D02*
X94991900Y-35301900D01*
X89215100Y-43047600D02*
X94991900Y-37270800D01*
X89215100Y-95053700D02*
X89215100Y-43047600D01*
X70144800Y-114124000D02*
X89215100Y-95053700D01*
X70144800Y-118351600D02*
X70144800Y-114124000D01*
X70358000Y-118564800D02*
X70144800Y-118351600D01*
X70358000Y-123920000D02*
X70358000Y-118564800D01*
X70853300Y-123920000D02*
X70853300Y-122966100D01*
X89520200Y-43829800D02*
X96520000Y-36830000D01*
X89520200Y-95180200D02*
X89520200Y-43829800D01*
X70450000Y-114250400D02*
X89520200Y-95180200D01*
X70450000Y-116906600D02*
X70450000Y-114250400D01*
X70821300Y-117277900D02*
X70450000Y-116906600D01*
X70821300Y-122934100D02*
X70821300Y-117277900D01*
X70853300Y-122966100D02*
X70821300Y-122934100D01*
X76847700Y-123920000D02*
X76847700Y-122966100D01*
X76967000Y-122846800D02*
X76847700Y-122966100D01*
X76967000Y-121836800D02*
X76967000Y-122846800D01*
X75541700Y-120411500D02*
X76967000Y-121836800D01*
X75541700Y-112496600D02*
X75541700Y-120411500D01*
X90740600Y-97297700D02*
X75541700Y-112496600D01*
X90740600Y-51999700D02*
X90740600Y-97297700D01*
X97839600Y-44900700D02*
X90740600Y-51999700D01*
X97839600Y-35609600D02*
X97839600Y-44900700D01*
X96520000Y-34290000D02*
X97839600Y-35609600D01*
X77355700Y-123920000D02*
X77355700Y-121646600D01*
X75863300Y-120154200D02*
X77355700Y-121646600D01*
X75863300Y-116016800D02*
X75863300Y-120154200D01*
X91045700Y-100834400D02*
X75863300Y-116016800D01*
X91045700Y-80105700D02*
X91045700Y-100834400D01*
X99060000Y-72091400D02*
X91045700Y-80105700D01*
X99060000Y-36830000D02*
X99060000Y-72091400D01*
X80804000Y-125869700D02*
X81757900Y-125869700D01*
X91732800Y-115894800D02*
X81757900Y-125869700D01*
X91732800Y-80929300D02*
X91732800Y-115894800D01*
X100393000Y-72269100D02*
X91732800Y-80929300D01*
X100393000Y-36615300D02*
X100393000Y-72269100D01*
X101269300Y-35739000D02*
X100393000Y-36615300D01*
X101570200Y-35739000D02*
X101269300Y-35739000D01*
X102591000Y-34718200D02*
X101570200Y-35739000D01*
X102591000Y-33830100D02*
X102591000Y-34718200D01*
X102024400Y-33263500D02*
X102591000Y-33830100D01*
X100086500Y-33263500D02*
X102024400Y-33263500D01*
X99060000Y-34290000D02*
X100086500Y-33263500D01*
X74294000Y-144301600D02*
X74358500Y-144366100D01*
X74294000Y-139842000D02*
X74294000Y-144301600D01*
X74522900Y-139613100D02*
X74294000Y-139842000D01*
X74522900Y-138189300D02*
X74522900Y-139613100D01*
X74612900Y-138099300D02*
X74522900Y-138189300D01*
X74358500Y-145320000D02*
X74358500Y-144366100D01*
X63622000Y-114747600D02*
X63622000Y-114995400D01*
X63017500Y-114143100D02*
X63622000Y-114747600D01*
X62264700Y-114143100D02*
X63017500Y-114143100D01*
X61693200Y-113571600D02*
X62264700Y-114143100D01*
X61693200Y-109788700D02*
X61693200Y-113571600D01*
X62108700Y-109373200D02*
X61693200Y-109788700D01*
X62108700Y-109158700D02*
X62108700Y-109373200D01*
X63070600Y-108196800D02*
X62108700Y-109158700D01*
X63070600Y-107064700D02*
X63070600Y-108196800D01*
X63443200Y-106692100D02*
X63070600Y-107064700D01*
X63443200Y-41329800D02*
X63443200Y-106692100D01*
X67030900Y-37742100D02*
X63443200Y-41329800D01*
X67030900Y-33801300D02*
X67030900Y-37742100D01*
X66510300Y-33280700D02*
X67030900Y-33801300D01*
X46729300Y-33280700D02*
X66510300Y-33280700D01*
X45720000Y-34290000D02*
X46729300Y-33280700D01*
X45720000Y-36830000D02*
X45720000Y-103733000D01*
X61861700Y-145320000D02*
X61861700Y-144366100D01*
X56695700Y-144366100D02*
X61861700Y-144366100D01*
X55226600Y-142897000D02*
X56695700Y-144366100D01*
X54354500Y-142897000D02*
X55226600Y-142897000D01*
X48011700Y-136554200D02*
X54354500Y-142897000D01*
X48011700Y-123583600D02*
X48011700Y-136554200D01*
X41700600Y-117272500D02*
X48011700Y-123583600D01*
X41700600Y-109040400D02*
X41700600Y-117272500D01*
X44481400Y-106259600D02*
X41700600Y-109040400D01*
X44481400Y-104971600D02*
X44481400Y-106259600D01*
X45720000Y-103733000D02*
X44481400Y-104971600D01*
X42778800Y-43030100D02*
X42778800Y-47748600D01*
X43240000Y-42568900D02*
X42778800Y-43030100D01*
X59404000Y-142367000D02*
X60357900Y-142367000D01*
X43240000Y-41740000D02*
X43240000Y-42568900D01*
X42591100Y-116953900D02*
X42591100Y-113919500D01*
X48621900Y-122984700D02*
X42591100Y-116953900D01*
X48621900Y-136301200D02*
X48621900Y-122984700D01*
X54607500Y-142286800D02*
X48621900Y-136301200D01*
X55479600Y-142286800D02*
X54607500Y-142286800D01*
X56948400Y-143755600D02*
X55479600Y-142286800D01*
X60263000Y-143755600D02*
X56948400Y-143755600D01*
X60357900Y-143660700D02*
X60263000Y-143755600D01*
X60357900Y-142367000D02*
X60357900Y-143660700D01*
X59404000Y-142862300D02*
X56918300Y-142862300D01*
X35052000Y-38100000D02*
X35598400Y-38100000D01*
X43240000Y-56196100D02*
X43240000Y-51900000D01*
X43176400Y-56259700D02*
X43240000Y-56196100D01*
X42245000Y-44746600D02*
X35598400Y-38100000D01*
X42245000Y-50386900D02*
X42245000Y-44746600D01*
X42929200Y-51071100D02*
X42245000Y-50386900D01*
X43240000Y-51071100D02*
X42929200Y-51071100D01*
X43240000Y-51900000D02*
X43240000Y-51071100D01*
X55732600Y-141676600D02*
X56918300Y-142862300D01*
X54860500Y-141676600D02*
X55732600Y-141676600D01*
X49232100Y-136048200D02*
X54860500Y-141676600D01*
X49232100Y-121478500D02*
X49232100Y-136048200D01*
X44757900Y-117004300D02*
X49232100Y-121478500D01*
X45237800Y-62346700D02*
X43240000Y-60348900D01*
X45237800Y-94824600D02*
X45237800Y-62346700D01*
X43832300Y-96230100D02*
X45237800Y-94824600D01*
X43240000Y-59520000D02*
X43240000Y-60348900D01*
X56994700Y-143370300D02*
X59404000Y-143370300D01*
X55606100Y-141981700D02*
X56994700Y-143370300D01*
X54734000Y-141981700D02*
X55606100Y-141981700D01*
X48927000Y-136174700D02*
X54734000Y-141981700D01*
X48927000Y-122137900D02*
X48927000Y-136174700D01*
X44199800Y-117410700D02*
X48927000Y-122137900D01*
X44199800Y-115199100D02*
X44199800Y-117410700D01*
X61353700Y-145320000D02*
X61353700Y-146273900D01*
X34804300Y-56928100D02*
X34804300Y-68003200D01*
X35052000Y-56680400D02*
X34804300Y-56928100D01*
X37981100Y-71180000D02*
X40810000Y-71180000D01*
X34804300Y-68003200D02*
X37981100Y-71180000D01*
X35052000Y-55880000D02*
X35052000Y-56680400D01*
X30953700Y-68003200D02*
X34804300Y-68003200D01*
X26124800Y-72832100D02*
X30953700Y-68003200D01*
X26124800Y-113208900D02*
X26124800Y-72832100D01*
X28548600Y-115632700D02*
X26124800Y-113208900D01*
X29234600Y-115632700D02*
X28548600Y-115632700D01*
X35385800Y-121783900D02*
X29234600Y-115632700D01*
X35385800Y-121880500D02*
X35385800Y-121783900D01*
X41416400Y-127911100D02*
X35385800Y-121880500D01*
X41434800Y-127911100D02*
X41416400Y-127911100D01*
X41569000Y-128045300D02*
X41434800Y-127911100D01*
X41569000Y-128427800D02*
X41569000Y-128045300D01*
X42630300Y-129489100D02*
X41569000Y-128427800D01*
X43720000Y-129489100D02*
X42630300Y-129489100D01*
X44215200Y-129984300D02*
X43720000Y-129489100D01*
X44215200Y-135161200D02*
X44215200Y-129984300D01*
X53738500Y-144684500D02*
X44215200Y-135161200D01*
X53738500Y-144693400D02*
X53738500Y-144684500D01*
X58329400Y-149284300D02*
X53738500Y-144693400D01*
X59560700Y-149284300D02*
X58329400Y-149284300D01*
X60487000Y-148358000D02*
X59560700Y-149284300D01*
X60487000Y-147140600D02*
X60487000Y-148358000D01*
X61353700Y-146273900D02*
X60487000Y-147140600D01*
X67348100Y-144323200D02*
X66782200Y-143757300D01*
X67348100Y-145320000D02*
X67348100Y-144323200D01*
X40810000Y-76260000D02*
X41638900Y-76260000D01*
X41927500Y-76548600D02*
X41927500Y-87085900D01*
X41638900Y-76260000D02*
X41927500Y-76548600D01*
X47335900Y-128542000D02*
X44638900Y-125845000D01*
X47335900Y-136987100D02*
X47335900Y-128542000D01*
X54653800Y-144305000D02*
X47335900Y-136987100D01*
X54653800Y-144313900D02*
X54653800Y-144305000D01*
X58708900Y-148369000D02*
X54653800Y-144313900D01*
X59181200Y-148369000D02*
X58708900Y-148369000D01*
X59474100Y-148076100D02*
X59181200Y-148369000D01*
X59474100Y-147063500D02*
X59474100Y-148076100D01*
X59075100Y-146664500D02*
X59474100Y-147063500D01*
X59075100Y-145537700D02*
X59075100Y-146664500D01*
X59579200Y-145033600D02*
X59075100Y-145537700D01*
X43240000Y-87460000D02*
X42311100Y-87460000D01*
X41752400Y-88018700D02*
X42311100Y-87460000D01*
X34800800Y-88018700D02*
X41752400Y-88018700D01*
X34800800Y-74711600D02*
X34800800Y-88018700D01*
X35052000Y-74460400D02*
X34800800Y-74711600D01*
X67817700Y-144327700D02*
X67856100Y-144366100D01*
X67817700Y-143534000D02*
X67817700Y-144327700D01*
X68158000Y-143193700D02*
X67817700Y-143534000D01*
X67856100Y-145320000D02*
X67856100Y-144366100D01*
X35052000Y-73660000D02*
X35052000Y-74460400D01*
X28673200Y-88018700D02*
X34800800Y-88018700D01*
X26453700Y-90238200D02*
X28673200Y-88018700D01*
X26453700Y-113106200D02*
X26453700Y-90238200D01*
X28530300Y-115182800D02*
X26453700Y-113106200D01*
X36331200Y-115182800D02*
X28530300Y-115182800D01*
X41689100Y-120540700D02*
X36331200Y-115182800D01*
X41689100Y-124436800D02*
X41689100Y-120540700D01*
X46617700Y-129365400D02*
X41689100Y-124436800D01*
X46617700Y-137132100D02*
X46617700Y-129365400D01*
X54043600Y-144558000D02*
X46617700Y-137132100D01*
X54043600Y-144566900D02*
X54043600Y-144558000D01*
X58455900Y-148979200D02*
X54043600Y-144566900D01*
X59434200Y-148979200D02*
X58455900Y-148979200D01*
X60181800Y-148231600D02*
X59434200Y-148979200D01*
X60181800Y-145676100D02*
X60181800Y-148231600D01*
X60618200Y-145239700D02*
X60181800Y-145676100D01*
X68351400Y-145320000D02*
X68351400Y-144061100D01*
X43240000Y-100518600D02*
X43240000Y-95080000D01*
X45258200Y-102536800D02*
X43240000Y-100518600D01*
X45258200Y-103642200D02*
X45258200Y-102536800D01*
X44176200Y-104724200D02*
X45258200Y-103642200D01*
X44176200Y-105970800D02*
X44176200Y-104724200D01*
X43687700Y-106459300D02*
X44176200Y-105970800D01*
X28058500Y-106459300D02*
X43687700Y-106459300D01*
X27111000Y-107406800D02*
X28058500Y-106459300D01*
X27111000Y-113331900D02*
X27111000Y-107406800D01*
X28548800Y-114769700D02*
X27111000Y-113331900D01*
X36364300Y-114769700D02*
X28548800Y-114769700D01*
X41994300Y-120399700D02*
X36364300Y-114769700D01*
X41994300Y-123955200D02*
X41994300Y-120399700D01*
X46922800Y-128883700D02*
X41994300Y-123955200D01*
X46922800Y-137005600D02*
X46922800Y-128883700D01*
X54348700Y-144431500D02*
X46922800Y-137005600D01*
X54348700Y-144440400D02*
X54348700Y-144431500D01*
X58582400Y-148674100D02*
X54348700Y-144440400D01*
X59307700Y-148674100D02*
X58582400Y-148674100D01*
X59800500Y-148181300D02*
X59307700Y-148674100D01*
X59800500Y-146144900D02*
X59800500Y-148181300D01*
X59648000Y-145992400D02*
X59800500Y-146144900D01*
X44780400Y-112902500D02*
X44780400Y-111658000D01*
X50452600Y-118574700D02*
X44780400Y-112902500D01*
X50452600Y-135542300D02*
X50452600Y-118574700D01*
X55238900Y-140328600D02*
X50452600Y-135542300D01*
X57413300Y-140328600D02*
X55238900Y-140328600D01*
X57451800Y-140367100D02*
X57413300Y-140328600D01*
X43734400Y-104411100D02*
X43240000Y-104411100D01*
X43992900Y-104152600D02*
X43734400Y-104411100D01*
X68846700Y-145320000D02*
X68846700Y-144366100D01*
X68916400Y-144296400D02*
X68916400Y-141698800D01*
X68846700Y-144366100D02*
X68916400Y-144296400D01*
X43240000Y-105240000D02*
X43240000Y-104825500D01*
X43240000Y-104825500D02*
X43240000Y-104411100D01*
X40558800Y-91440000D02*
X35052000Y-91440000D01*
X42311000Y-93192200D02*
X40558800Y-91440000D01*
X42311000Y-103896500D02*
X42311000Y-93192200D01*
X43240000Y-104825500D02*
X42311000Y-103896500D01*
X70358000Y-145320000D02*
X70358000Y-144366100D01*
X43240000Y-112860000D02*
X43240000Y-113688900D01*
X56770400Y-142282800D02*
X57790900Y-142282800D01*
X55859100Y-141371500D02*
X56770400Y-142282800D01*
X54987000Y-141371500D02*
X55859100Y-141371500D01*
X49537200Y-135921700D02*
X54987000Y-141371500D01*
X49537200Y-119781600D02*
X49537200Y-135921700D01*
X43444500Y-113688900D02*
X49537200Y-119781600D01*
X43240000Y-113688900D02*
X43444500Y-113688900D01*
X70281200Y-143660900D02*
X70982800Y-142959300D01*
X70281200Y-144289300D02*
X70281200Y-143660900D01*
X70358000Y-144366100D02*
X70281200Y-144289300D01*
X42929200Y-122191100D02*
X43240000Y-122191100D01*
X42299400Y-121561300D02*
X42929200Y-122191100D01*
X42299400Y-119076100D02*
X42299400Y-121561300D01*
X35052000Y-111828700D02*
X42299400Y-119076100D01*
X35052000Y-109220000D02*
X35052000Y-111828700D01*
X43240000Y-123020000D02*
X43240000Y-122191100D01*
X43240000Y-123020000D02*
X43240000Y-123848900D01*
X70853300Y-145320000D02*
X70853300Y-144366100D01*
X70843700Y-144356500D02*
X70843700Y-144026800D01*
X70853300Y-144366100D02*
X70843700Y-144356500D01*
X43397700Y-123848900D02*
X43240000Y-123848900D01*
X47706600Y-128157800D02*
X43397700Y-123848900D01*
X47706600Y-136680700D02*
X47706600Y-128157800D01*
X54228000Y-143202100D02*
X47706600Y-136680700D01*
X55100100Y-143202100D02*
X54228000Y-143202100D01*
X57150100Y-145252100D02*
X55100100Y-143202100D01*
X57990200Y-145252100D02*
X57150100Y-145252100D01*
X71537800Y-144189600D02*
X71537800Y-143497200D01*
X71361300Y-144366100D02*
X71537800Y-144189600D01*
X43240000Y-134940800D02*
X43240000Y-130640000D01*
X53204800Y-144905600D02*
X43240000Y-134940800D01*
X71361300Y-145320000D02*
X71361300Y-144366100D01*
X35052000Y-127000000D02*
X35598400Y-127000000D01*
X42929200Y-139971100D02*
X43240000Y-139971100D01*
X41869000Y-138910900D02*
X42929200Y-139971100D01*
X41869000Y-133270600D02*
X41869000Y-138910900D01*
X35598400Y-127000000D02*
X41869000Y-133270600D01*
X43240000Y-140800000D02*
X43240000Y-139971100D01*
X68918300Y-146273900D02*
X68213700Y-146978500D01*
X71856600Y-146273900D02*
X68918300Y-146273900D01*
X46117600Y-144506500D02*
X43240000Y-141628900D01*
X50737900Y-144506500D02*
X46117600Y-144506500D01*
X43240000Y-140800000D02*
X43240000Y-141628900D01*
X71856600Y-145320000D02*
X71856600Y-146273900D01*
X71802700Y-146823100D02*
X71529400Y-146823100D01*
X72351900Y-146273900D02*
X71802700Y-146823100D01*
X44588000Y-148000900D02*
X44168900Y-148420000D01*
X50888900Y-148000900D02*
X44588000Y-148000900D01*
X43240000Y-148420000D02*
X44168900Y-148420000D01*
X72351900Y-145320000D02*
X72351900Y-146273900D01*
X43240000Y-158580000D02*
X43240000Y-157751100D01*
X42263300Y-157056700D02*
X42263300Y-147049000D01*
X42957700Y-157751100D02*
X42263300Y-157056700D01*
X43240000Y-157751100D02*
X42957700Y-157751100D01*
X40527500Y-144780000D02*
X35052000Y-144780000D01*
X42263300Y-146515800D02*
X40527500Y-144780000D01*
X42263300Y-147049000D02*
X42263300Y-146515800D01*
X53889800Y-147049000D02*
X42263300Y-147049000D01*
X54590200Y-146348600D02*
X53889800Y-147049000D01*
X72859900Y-145320000D02*
X72859900Y-144366100D01*
X72414800Y-144366100D02*
X72081000Y-144032300D01*
X72859900Y-144366100D02*
X72414800Y-144366100D01*
X73355200Y-145320000D02*
X73355200Y-146273900D01*
X43240000Y-166200000D02*
X43240000Y-167028900D01*
X46719300Y-170508200D02*
X43240000Y-167028900D01*
X68365100Y-170508200D02*
X46719300Y-170508200D01*
X74656900Y-176800000D02*
X68365100Y-170508200D01*
X74656900Y-178612300D02*
X74656900Y-176800000D01*
X74887200Y-178842600D02*
X74656900Y-178612300D01*
X76527700Y-178842600D02*
X74887200Y-178842600D01*
X76644900Y-178725400D02*
X76527700Y-178842600D01*
X76644900Y-173605200D02*
X76644900Y-178725400D01*
X72637500Y-169597800D02*
X76644900Y-173605200D01*
X72637500Y-158894900D02*
X72637500Y-169597800D01*
X69372800Y-155630200D02*
X72637500Y-158894900D01*
X69372800Y-149369100D02*
X69372800Y-155630200D01*
X70815000Y-147926900D02*
X69372800Y-149369100D01*
X71702200Y-147926900D02*
X70815000Y-147926900D01*
X73355200Y-146273900D02*
X71702200Y-147926900D01*
X43240000Y-176360000D02*
X43240000Y-175531100D01*
X73850500Y-145320000D02*
X73850500Y-146273900D01*
X45154800Y-173721200D02*
X45154800Y-174139100D01*
X41679400Y-170245800D02*
X45154800Y-173721200D01*
X41679400Y-163712300D02*
X41679400Y-170245800D01*
X40527100Y-162560000D02*
X41679400Y-163712300D01*
X33782000Y-162560000D02*
X40527100Y-162560000D01*
X44068900Y-175531100D02*
X43240000Y-175531100D01*
X45154800Y-174445200D02*
X44068900Y-175531100D01*
X45154800Y-174139100D02*
X45154800Y-174445200D01*
X71551500Y-174139100D02*
X45154800Y-174139100D01*
X74243800Y-176831400D02*
X71551500Y-174139100D01*
X74243800Y-178630800D02*
X74243800Y-176831400D01*
X74760700Y-179147700D02*
X74243800Y-178630800D01*
X76654200Y-179147700D02*
X74760700Y-179147700D01*
X76950000Y-178851900D02*
X76654200Y-179147700D01*
X76950000Y-173047100D02*
X76950000Y-178851900D01*
X73620300Y-169717400D02*
X76950000Y-173047100D01*
X73620300Y-159230300D02*
X73620300Y-169717400D01*
X69701500Y-155311500D02*
X73620300Y-159230300D01*
X69701500Y-149491900D02*
X69701500Y-155311500D01*
X70961400Y-148232000D02*
X69701500Y-149491900D01*
X71892400Y-148232000D02*
X70961400Y-148232000D01*
X73850500Y-146273900D02*
X71892400Y-148232000D01*
X80010000Y-183835000D02*
X80010000Y-181356000D01*
X80137000Y-143637000D02*
X80137000Y-181229000D01*
X80403700Y-143370000D02*
X80137000Y-143637000D01*
X80804300Y-143370000D02*
X80403700Y-143370000D01*
X81902300Y-143370000D02*
X80804300Y-143370000D01*
X82512000Y-143980000D02*
X81902300Y-143370000D01*
X83007200Y-143980000D02*
X82512000Y-143980000D01*
X80804300Y-143370000D02*
X80804000Y-143370300D01*
X79360000Y-181341000D02*
X79248000Y-181229000D01*
X79360000Y-183835000D02*
X79360000Y-181341000D01*
X79248000Y-143383000D02*
X79248000Y-181229000D01*
X79768700Y-142862000D02*
X79248000Y-143383000D01*
X80804300Y-142862000D02*
X79768700Y-142862000D01*
X82054700Y-142862000D02*
X80804300Y-142862000D01*
X82677000Y-142240000D02*
X82054700Y-142862000D01*
X83058000Y-142240000D02*
X82677000Y-142240000D01*
X80804300Y-142862000D02*
X80804000Y-142862300D01*
X62485800Y-113410500D02*
X62443400Y-113368100D01*
X62485800Y-113609400D02*
X62485800Y-113410500D01*
X62443400Y-112839500D02*
X62443400Y-113368100D01*
X61861700Y-123920000D02*
X61861700Y-122966100D01*
X59199400Y-119544600D02*
X59171400Y-119516600D01*
X59199400Y-121341100D02*
X59199400Y-119544600D01*
X60824400Y-122966100D02*
X59199400Y-121341100D01*
X61861700Y-122966100D02*
X60824400Y-122966100D01*
X53340000Y-156800000D02*
X53340000Y-154432000D01*
X74853800Y-146955000D02*
X74301700Y-147507100D01*
X74853800Y-145320000D02*
X74853800Y-146955000D01*
X53744000Y-158228900D02*
X53340000Y-158228900D01*
X54090800Y-158575700D02*
X53744000Y-158228900D01*
X53340000Y-156800000D02*
X53340000Y-158228900D01*
X55880000Y-154432000D02*
X55880000Y-156800000D01*
X75494000Y-146273900D02*
X75992600Y-146772500D01*
X75349100Y-146273900D02*
X75494000Y-146273900D01*
X55880000Y-156800000D02*
X55880000Y-158228900D01*
X75349100Y-145320000D02*
X75349100Y-146273900D01*
X58194500Y-158228900D02*
X60069200Y-160103600D01*
X55880000Y-158228900D02*
X58194500Y-158228900D01*
X75857100Y-144157300D02*
X76292700Y-143721700D01*
X75857100Y-145320000D02*
X75857100Y-144157300D01*
X55457000Y-159075900D02*
X54610000Y-158228900D01*
X57883100Y-159075900D02*
X55457000Y-159075900D01*
X54610000Y-156800000D02*
X54610000Y-158228900D01*
X52070000Y-156800000D02*
X52070000Y-158228900D01*
X52679000Y-162058200D02*
X52679000Y-158837900D01*
X52608200Y-162129000D02*
X52679000Y-162058200D01*
X51546400Y-162129000D02*
X52608200Y-162129000D01*
X50800000Y-161382600D02*
X51546400Y-162129000D01*
X50800000Y-154432000D02*
X50800000Y-161382600D01*
X52679000Y-158837900D02*
X52070000Y-158228900D01*
X52908600Y-158608300D02*
X52679000Y-158837900D01*
X52949700Y-158608300D02*
X52908600Y-158608300D01*
X76352400Y-146377400D02*
X76352400Y-145320000D01*
X76526300Y-146551300D02*
X76352400Y-146377400D01*
X76526300Y-146993700D02*
X76526300Y-146551300D01*
X74564600Y-148955400D02*
X76526300Y-146993700D01*
X74342700Y-148955400D02*
X74564600Y-148955400D01*
X73406000Y-114046000D02*
X73406000Y-116586000D01*
X73406000Y-116586000D02*
X73406000Y-117386400D01*
X73395800Y-117396600D02*
X73395800Y-118618000D01*
X73406000Y-117386400D02*
X73395800Y-117396600D01*
X74358500Y-123920000D02*
X74358500Y-120310000D01*
X73395800Y-118618000D02*
X73395800Y-119347300D01*
X73395800Y-119347300D02*
X74358500Y-120310000D01*
X74853800Y-111022100D02*
X74853800Y-123920000D01*
X90435500Y-95440400D02*
X74853800Y-111022100D01*
X90435500Y-50796000D02*
X90435500Y-95440400D01*
X97305900Y-43925600D02*
X90435500Y-50796000D01*
X80804000Y-129374900D02*
X81757900Y-129374900D01*
X122883300Y-47676700D02*
X121800000Y-48760000D01*
X122883300Y-44262200D02*
X122883300Y-47676700D01*
X120471800Y-41850700D02*
X122883300Y-44262200D01*
X119560900Y-41850700D02*
X120471800Y-41850700D01*
X116999000Y-39288800D02*
X119560900Y-41850700D01*
X116999000Y-37630500D02*
X116999000Y-39288800D01*
X112667500Y-33299000D02*
X116999000Y-37630500D01*
X106233000Y-33299000D02*
X112667500Y-33299000D01*
X105524200Y-34007800D02*
X106233000Y-33299000D01*
X105524200Y-69943300D02*
X105524200Y-34007800D01*
X93716000Y-81751500D02*
X105524200Y-69943300D01*
X93716000Y-116437700D02*
X93716000Y-81751500D01*
X82394800Y-127758900D02*
X93716000Y-116437700D01*
X82394800Y-128738000D02*
X82394800Y-127758900D01*
X81757900Y-129374900D02*
X82394800Y-128738000D01*
X97488900Y-89170400D02*
X110172500Y-76486800D01*
X110172500Y-76486800D02*
X110172500Y-60007500D01*
X110172500Y-60007500D02*
X112014000Y-58166000D01*
X97488900Y-104263800D02*
X97488900Y-89170400D01*
X62357000Y-132944300D02*
X62357000Y-145320000D01*
X63676600Y-131624700D02*
X62357000Y-132944300D01*
X94049000Y-116859500D02*
X82928500Y-127980000D01*
X94049000Y-107703700D02*
X94049000Y-116859500D01*
X97488900Y-104263800D02*
X94049000Y-107703700D01*
X71856600Y-123920000D02*
X71856600Y-122966100D01*
X71951700Y-122871000D02*
X71856600Y-122966100D01*
X71951700Y-119832200D02*
X71951700Y-122871000D01*
X72630700Y-119153200D02*
X71951700Y-119832200D01*
X72630700Y-112813400D02*
X72630700Y-119153200D01*
X90130400Y-95313700D02*
X72630700Y-112813400D01*
X90130400Y-46319300D02*
X90130400Y-95313700D01*
X92575200Y-43874500D02*
X90130400Y-46319300D01*
X72351900Y-123920000D02*
X72351900Y-120688100D01*
X95056700Y-103559400D02*
X95056700Y-81148000D01*
X95056700Y-81148000D02*
X109824900Y-66379800D01*
X109824900Y-66379800D02*
X109824900Y-59154300D01*
X72351900Y-120688100D02*
X73088500Y-119951500D01*
X121800000Y-63937500D02*
X120015000Y-65722500D01*
X121800000Y-50790000D02*
X121800000Y-63937500D01*
X96139000Y-89662000D02*
X96135400Y-89662000D01*
X109410500Y-76390500D02*
X96139000Y-89662000D01*
X96135400Y-89662000D02*
X96135400Y-103267600D01*
X96135400Y-103267600D02*
X96135300Y-103267600D01*
X64593000Y-127243100D02*
X64439900Y-127396200D01*
X64439900Y-127396200D02*
X64439900Y-137848200D01*
X64439900Y-137848200D02*
X62852300Y-139435800D01*
X62852300Y-139435800D02*
X62852300Y-145320000D01*
X75474300Y-122840900D02*
X75474300Y-122234600D01*
X75349100Y-122966100D02*
X75474300Y-122840900D01*
X75349100Y-123920000D02*
X75349100Y-122966100D01*
X97893600Y-92959000D02*
X111069700Y-79782900D01*
X97893600Y-104970200D02*
X97893600Y-92959000D01*
X94582800Y-108281000D02*
X97893600Y-104970200D01*
X94582800Y-109445500D02*
X94582800Y-108281000D01*
X81919700Y-129870200D02*
X80804000Y-129870200D01*
X95075100Y-116714800D02*
X81919700Y-129870200D01*
X95075100Y-109877100D02*
X95075100Y-116714800D01*
X95380100Y-109572100D02*
X95075100Y-109877100D01*
X95380100Y-107915400D02*
X95380100Y-109572100D01*
X109793900Y-93501600D02*
X95380100Y-107915400D01*
X109793900Y-91432600D02*
X109793900Y-93501600D01*
X69850000Y-143225200D02*
X69850000Y-145320000D01*
X73770200Y-139305000D02*
X69850000Y-143225200D01*
X96104000Y-138408200D02*
X95034000Y-139478200D01*
X109804700Y-138408200D02*
X96104000Y-138408200D01*
X124075100Y-124137800D02*
X109804700Y-138408200D01*
X124075100Y-116657000D02*
X124075100Y-124137800D01*
X122460000Y-115041900D02*
X124075100Y-116657000D01*
X122460000Y-101942700D02*
X122460000Y-115041900D01*
X123144000Y-101258700D02*
X122460000Y-101942700D01*
X123144000Y-92069600D02*
X123144000Y-101258700D01*
X118954600Y-87880200D02*
X123144000Y-92069600D01*
X118954600Y-74985400D02*
X118954600Y-87880200D01*
X120020000Y-73920000D02*
X118954600Y-74985400D01*
X80804000Y-126873000D02*
X81757900Y-126873000D01*
X122879300Y-69780700D02*
X121800000Y-70860000D01*
X122879300Y-68110600D02*
X122879300Y-69780700D01*
X122465800Y-67697100D02*
X122879300Y-68110600D01*
X122465800Y-53757900D02*
X122465800Y-67697100D01*
X123188500Y-53035200D02*
X122465800Y-53757900D01*
X123188500Y-43767900D02*
X123188500Y-53035200D01*
X122083900Y-42663300D02*
X123188500Y-43767900D01*
X122083900Y-39875700D02*
X122083900Y-42663300D01*
X115159300Y-32951100D02*
X122083900Y-39875700D01*
X104027000Y-32951100D02*
X115159300Y-32951100D01*
X103059000Y-33919100D02*
X104027000Y-32951100D01*
X103059000Y-70860700D02*
X103059000Y-33919100D01*
X92800700Y-81119000D02*
X103059000Y-70860700D01*
X92800700Y-115830200D02*
X92800700Y-81119000D01*
X81757900Y-126873000D02*
X92800700Y-115830200D01*
X65354200Y-145320000D02*
X65354200Y-144366100D01*
X98464100Y-97814700D02*
X109825400Y-86453400D01*
X98464100Y-102819700D02*
X98464100Y-97814700D01*
X98464000Y-102819700D02*
X98464100Y-102819700D01*
X65405000Y-144315300D02*
X65354200Y-144366100D01*
X65405000Y-140596200D02*
X65405000Y-144315300D01*
X65564300Y-140436900D02*
X65405000Y-140596200D01*
X65564300Y-126791000D02*
X65564300Y-140436900D01*
X65082800Y-126309500D02*
X65564300Y-126791000D01*
X77304800Y-137156900D02*
X77698500Y-137550600D01*
X74800400Y-137156900D02*
X77304800Y-137156900D01*
X69354700Y-142602600D02*
X74800400Y-137156900D01*
X69354700Y-145320000D02*
X69354700Y-142602600D01*
X121800000Y-79070500D02*
X121800000Y-74920000D01*
X126206600Y-83477100D02*
X121800000Y-79070500D01*
X126206600Y-122438100D02*
X126206600Y-83477100D01*
X109778900Y-138865800D02*
X126206600Y-122438100D01*
X96725600Y-138865800D02*
X109778900Y-138865800D01*
X96399100Y-139192300D02*
X96725600Y-138865800D01*
X75857100Y-123920000D02*
X75857100Y-122843000D01*
X75857100Y-122843000D02*
X76387700Y-122312400D01*
X109452400Y-102227500D02*
X111442500Y-100266500D01*
X109452400Y-102227600D02*
X109452400Y-102227500D01*
X103962200Y-102227600D02*
X109452400Y-102227600D01*
X95650500Y-110539300D02*
X103962200Y-102227600D01*
X75289700Y-124873900D02*
X75744100Y-125328300D01*
X73850500Y-124873900D02*
X75289700Y-124873900D01*
X73850500Y-123920000D02*
X73850500Y-124873900D01*
X122838800Y-96028800D02*
X121800000Y-94990000D01*
X122838800Y-100452000D02*
X122838800Y-96028800D01*
X122088300Y-101202500D02*
X122838800Y-100452000D01*
X122088300Y-115444100D02*
X122088300Y-101202500D01*
X123769900Y-117125700D02*
X122088300Y-115444100D01*
X123769900Y-124011500D02*
X123769900Y-117125700D01*
X118134800Y-129646600D02*
X123769900Y-124011500D01*
X99262400Y-129646600D02*
X118134800Y-129646600D01*
X95146200Y-125530400D02*
X99262400Y-129646600D01*
X95146200Y-125432800D02*
X95146200Y-125530400D01*
X103791700Y-109121500D02*
X109986100Y-102927100D01*
X100717100Y-109121500D02*
X103791700Y-109121500D01*
X73355200Y-122433000D02*
X73355200Y-123920000D01*
X73519600Y-122268600D02*
X73355200Y-122433000D01*
X73022300Y-124873900D02*
X73544700Y-125396300D01*
X72859900Y-124873900D02*
X73022300Y-124873900D01*
X72859900Y-123920000D02*
X72859900Y-124873900D01*
X99723400Y-129341500D02*
X96584500Y-126202600D01*
X118008200Y-129341500D02*
X99723400Y-129341500D01*
X123464700Y-123885000D02*
X118008200Y-129341500D01*
X123464700Y-117252400D02*
X123464700Y-123885000D01*
X118989600Y-112777300D02*
X123464700Y-117252400D01*
X118989600Y-99080400D02*
X118989600Y-112777300D01*
X120020000Y-98050000D02*
X118989600Y-99080400D01*
X71355000Y-122959800D02*
X71355000Y-122691900D01*
X71361300Y-122966100D02*
X71355000Y-122959800D01*
X105981300Y-109928700D02*
X110706800Y-105203200D01*
X100390400Y-109928700D02*
X105981300Y-109928700D01*
X71361300Y-123920000D02*
X71361300Y-122966100D01*
X107503100Y-114373200D02*
X110675900Y-111200400D01*
X98153500Y-114373200D02*
X107503100Y-114373200D01*
X82161200Y-130365500D02*
X98153500Y-114373200D01*
X80804000Y-130365500D02*
X82161200Y-130365500D01*
X76704100Y-124873900D02*
X77545000Y-125714800D01*
X76352400Y-124873900D02*
X76704100Y-124873900D01*
X76352400Y-123920000D02*
X76352400Y-124873900D01*
X115789400Y-122350600D02*
X103412700Y-122350600D01*
X120020000Y-118120000D02*
X115789400Y-122350600D01*
X61004600Y-126873000D02*
X61010100Y-126867500D01*
X59404000Y-126873000D02*
X61004600Y-126873000D01*
X121800000Y-123945400D02*
X121800000Y-123180000D01*
X118888400Y-126857000D02*
X121800000Y-123945400D01*
X100722500Y-126857000D02*
X118888400Y-126857000D01*
X122846000Y-122196000D02*
X121800000Y-121150000D01*
X122846000Y-123596100D02*
X122846000Y-122196000D01*
X118859000Y-127583100D02*
X122846000Y-123596100D01*
X102529400Y-127583100D02*
X118859000Y-127583100D01*
X101304700Y-128807800D02*
X102529400Y-127583100D01*
X79850100Y-132158800D02*
X79604300Y-132404600D01*
X79850100Y-131864100D02*
X79850100Y-132158800D01*
X80804000Y-131864100D02*
X79850100Y-131864100D01*
X61353700Y-123920000D02*
X61353700Y-125904800D01*
X114549500Y-125620500D02*
X101809000Y-125620500D01*
X120020000Y-120150000D02*
X114549500Y-125620500D01*
X62386600Y-126937700D02*
X62386600Y-127059400D01*
X61353700Y-125904800D02*
X62386600Y-126937700D01*
X60357900Y-125817600D02*
X60589800Y-125585700D01*
X60357900Y-125869700D02*
X60357900Y-125817600D01*
X59404000Y-125869700D02*
X60357900Y-125869700D01*
X118319800Y-128554000D02*
X102765900Y-128554000D01*
X123151200Y-123722600D02*
X118319800Y-128554000D01*
X123151200Y-120471200D02*
X123151200Y-123722600D01*
X121800000Y-119120000D02*
X123151200Y-120471200D01*
X61752000Y-126847200D02*
X61752000Y-127984000D01*
X61238500Y-126333700D02*
X61752000Y-126847200D01*
X60401900Y-126333700D02*
X61238500Y-126333700D01*
X60357900Y-126377700D02*
X60401900Y-126333700D01*
X115961300Y-126238700D02*
X120020000Y-122180000D01*
X103644600Y-126238700D02*
X115961300Y-126238700D01*
X59404000Y-126377700D02*
X60357900Y-126377700D01*
X105280300Y-111470000D02*
X106680000Y-112869700D01*
X104215000Y-111470000D02*
X105280300Y-111470000D01*
X106680000Y-113548200D02*
X106680000Y-112869700D01*
X57150000Y-156800000D02*
X57150000Y-155371100D01*
X58420000Y-154432000D02*
X58420000Y-154978400D01*
X80804000Y-138366500D02*
X75930900Y-138366500D01*
X97715000Y-111470000D02*
X104215000Y-111470000D01*
X57542700Y-154978400D02*
X57150000Y-155371100D01*
X58420000Y-154978400D02*
X57542700Y-154978400D01*
X75123400Y-125811000D02*
X75109700Y-125797300D01*
X75123400Y-133625000D02*
X75123400Y-125811000D01*
X74831000Y-139466400D02*
X74831000Y-144083600D01*
X75930900Y-138366500D02*
X74831000Y-139466400D01*
X75450600Y-137886200D02*
X75450600Y-137718700D01*
X75930900Y-138366500D02*
X75450600Y-137886200D01*
X58420000Y-156145100D02*
X59144000Y-156869100D01*
X58420000Y-154978400D02*
X58420000Y-156145100D01*
X80899000Y-179972000D02*
X80933300Y-179937700D01*
X80899000Y-182245000D02*
X80899000Y-179972000D01*
X80660000Y-182484000D02*
X80899000Y-182245000D01*
X80660000Y-183835000D02*
X80660000Y-182484000D01*
X80933300Y-179937700D02*
X81254600Y-179616000D01*
X81621800Y-144876700D02*
X81802500Y-144876700D01*
X80936800Y-145561700D02*
X81621800Y-144876700D01*
X80936800Y-145580100D02*
X80936800Y-145561700D01*
X80814800Y-145702100D02*
X80936800Y-145580100D01*
X80814800Y-179819300D02*
X80814800Y-145702100D01*
X80933200Y-179937700D02*
X80814800Y-179819300D01*
X80933300Y-179937700D02*
X80933200Y-179937700D01*
X59404000Y-135877300D02*
X60357900Y-135877300D01*
X60357900Y-137934000D02*
X60778400Y-138354500D01*
X60357900Y-135877300D02*
X60357900Y-137934000D01*
X84328000Y-185039000D02*
X83718900Y-184430000D01*
X83718900Y-184430000D02*
X83718900Y-178842000D01*
X83718900Y-178842000D02*
X82169000Y-177292000D01*
X82169000Y-177292000D02*
X82169000Y-150876000D01*
X82169000Y-150876000D02*
X83693000Y-149352000D01*
X83693000Y-149352000D02*
X83693000Y-145034000D01*
X75194200Y-183398000D02*
X76835000Y-185039000D01*
X82169000Y-141986000D02*
X81788000Y-142367000D01*
X81788000Y-142367000D02*
X80804000Y-142367000D01*
X74930000Y-183398000D02*
X75194200Y-183398000D01*
D57*
X63808200Y-183398000D02*
X62040000Y-181630000D01*
X74930000Y-183398000D02*
X63808200Y-183398000D01*
X75702200Y-182626000D02*
X75316100Y-183012000D01*
X78105000Y-182626000D02*
X75702200Y-182626000D01*
X78710000Y-183231000D02*
X78105000Y-182626000D01*
X78710000Y-183835000D02*
X78710000Y-183231000D01*
X75316100Y-183012000D02*
X74930000Y-183398000D01*
D56*
X74930000Y-183398100D02*
X74930000Y-183398200D01*
X75316100Y-183012000D02*
X74930000Y-183398100D01*
X56631800Y-131953000D02*
X57310300Y-131953000D01*
X64020700Y-121261800D02*
X64020700Y-121940300D01*
X59311700Y-133362700D02*
X58450100Y-133362700D01*
X59311700Y-133362700D02*
X59404000Y-133362700D01*
X63360300Y-122600700D02*
X63360300Y-123920000D01*
X64020700Y-121940300D02*
X63360300Y-122600700D01*
X61849000Y-147711200D02*
X62578300Y-147711200D01*
X65849500Y-145320000D02*
X65849500Y-146273900D01*
X80804000Y-139370000D02*
X80804200Y-139370000D01*
X83817400Y-139370000D02*
X83830200Y-139357000D01*
X80804200Y-139370000D02*
X83817400Y-139370000D01*
X80804200Y-139370000D02*
X80804000Y-139369800D01*
X80804000Y-139369800D02*
X79850100Y-139369800D01*
X79850100Y-139165100D02*
X79604200Y-138919200D01*
X79850100Y-139369800D02*
X79850100Y-139165100D01*
X84011300Y-133959000D02*
X84823300Y-133147000D01*
X81846200Y-133959000D02*
X84011300Y-133959000D01*
X81757900Y-133870700D02*
X81846200Y-133959000D01*
X80804000Y-133870700D02*
X81757900Y-133870700D01*
X59404000Y-133362700D02*
X60357900Y-133362700D01*
X63360300Y-123920000D02*
X63360300Y-124873900D01*
X87477600Y-148336000D02*
X88151000Y-148336000D01*
X80804000Y-133870700D02*
X79850100Y-133870700D01*
X65417900Y-146705500D02*
X65849500Y-146273900D01*
X63584000Y-146705500D02*
X65417900Y-146705500D01*
X62578300Y-147711200D02*
X63584000Y-146705500D01*
X83608900Y-131368800D02*
X83786700Y-131191000D01*
X80804000Y-131368800D02*
X83608900Y-131368800D01*
X84465200Y-131191000D02*
X83786700Y-131191000D01*
X80804000Y-131368800D02*
X79850100Y-131368800D01*
X79044500Y-132174400D02*
X79044500Y-133504400D01*
X79850100Y-131368800D02*
X79044500Y-132174400D01*
X79483800Y-133504400D02*
X79044500Y-133504400D01*
X79850100Y-133870700D02*
X79483800Y-133504400D01*
X73696800Y-134181600D02*
X68973000Y-138905400D01*
X77885000Y-134181600D02*
X73696800Y-134181600D01*
X78562200Y-133504400D02*
X77885000Y-134181600D01*
X79044500Y-133504400D02*
X78562200Y-133504400D01*
X57310300Y-132222900D02*
X58450100Y-133362700D01*
X57310300Y-131953000D02*
X57310300Y-132222900D01*
X63835700Y-129884900D02*
X63835700Y-125771200D01*
X60357900Y-133362700D02*
X63835700Y-129884900D01*
X63835700Y-125349300D02*
X63360300Y-124873900D01*
X63835700Y-125771200D02*
X63835700Y-125349300D01*
X67337000Y-141279400D02*
X66227900Y-141279400D01*
X68973000Y-139643400D02*
X67337000Y-141279400D01*
X68973000Y-138905400D02*
X68973000Y-139643400D01*
X65722500Y-141784800D02*
X66227900Y-141279400D01*
X65722500Y-144401300D02*
X65722500Y-141784800D01*
X65849500Y-144528300D02*
X65722500Y-144401300D01*
X65849500Y-145320000D02*
X65849500Y-144528300D01*
X65299600Y-125771200D02*
X63835700Y-125771200D01*
X66227900Y-126699500D02*
X65299600Y-125771200D01*
X66227900Y-141279400D02*
X66227900Y-126699500D01*
X87976900Y-139672400D02*
X87261000Y-138956500D01*
X89892600Y-139672400D02*
X87976900Y-139672400D01*
X90381500Y-140161300D02*
X89892600Y-139672400D01*
X90381500Y-141960500D02*
X90381500Y-140161300D01*
X89820700Y-142521300D02*
X90381500Y-141960500D01*
X89820700Y-146666300D02*
X89820700Y-142521300D01*
X88151000Y-148336000D02*
X89820700Y-146666300D01*
X85572600Y-148906800D02*
X85928200Y-149262400D01*
X85572600Y-148336000D02*
X85572600Y-148906800D01*
X85928200Y-150393000D02*
X85928200Y-149262400D01*
X78480100Y-143737000D02*
X78480100Y-141815800D01*
X77851000Y-144366100D02*
X78480100Y-143737000D01*
X85555700Y-147391700D02*
X85572600Y-147408600D01*
X85555700Y-143803800D02*
X85555700Y-147391700D01*
X85572600Y-148336000D02*
X85572600Y-147408600D01*
X77851000Y-145320000D02*
X77851000Y-144366100D01*
D57*
X119899000Y-115189000D02*
X121800000Y-117090000D01*
X112776000Y-115189000D02*
X119899000Y-115189000D01*
X119899000Y-91059000D02*
X121800000Y-92960000D01*
X112776000Y-91059000D02*
X119899000Y-91059000D01*
X119899000Y-66929000D02*
X121800000Y-68830000D01*
X112776000Y-66929000D02*
X119899000Y-66929000D01*
X119899000Y-42799000D02*
X121800000Y-44700000D01*
X112776000Y-42799000D02*
X119899000Y-42799000D01*
X112141000Y-34290000D02*
X106680000Y-34290000D01*
X115443000Y-37592000D02*
X112141000Y-34290000D01*
X115443000Y-38100000D02*
X115443000Y-37592000D01*
X114300000Y-38100000D02*
X115443000Y-38100000D01*
X112776000Y-39624000D02*
X114300000Y-38100000D01*
X112776000Y-42799000D02*
X112776000Y-39624000D01*
X111633000Y-42799000D02*
X112776000Y-42799000D01*
X110744000Y-43688000D02*
X111633000Y-42799000D01*
X110744000Y-47117000D02*
X110744000Y-43688000D01*
X112776000Y-49149000D02*
X110744000Y-47117000D01*
X112776000Y-66929000D02*
X112776000Y-49149000D01*
X111506000Y-66929000D02*
X112776000Y-66929000D01*
X110617000Y-67818000D02*
X111506000Y-66929000D01*
X110617000Y-70866000D02*
X110617000Y-67818000D01*
X112776000Y-73025000D02*
X110617000Y-70866000D01*
X112776000Y-91059000D02*
X112776000Y-73025000D01*
X110871000Y-92964000D02*
X112776000Y-91059000D01*
X110871000Y-95631000D02*
X110871000Y-92964000D01*
X112776000Y-97536000D02*
X110871000Y-95631000D01*
X112776000Y-115189000D02*
X112776000Y-97536000D01*
X63256200Y-147838000D02*
X66040000Y-147838000D01*
X63246000Y-147828000D02*
X63256200Y-147838000D01*
X56515000Y-145415000D02*
X58928000Y-147828000D01*
X83070700Y-135877000D02*
X83058000Y-135890000D01*
X83705700Y-135877000D02*
X83070700Y-135877000D01*
X84455000Y-135128000D02*
X83705700Y-135877000D01*
X84465200Y-135128000D02*
X84455000Y-135128000D01*
X90538300Y-132270000D02*
X91744800Y-133477000D01*
X89789000Y-132270000D02*
X90538300Y-132270000D01*
X89027000Y-131508000D02*
X89789000Y-132270000D01*
X89027000Y-130556000D02*
X89027000Y-131508000D01*
X83261200Y-133363000D02*
X80804000Y-133363000D01*
X83312000Y-133414000D02*
X83261200Y-133363000D01*
D56*
X51816000Y-153924000D02*
X50800000Y-152908000D01*
X51816000Y-154940000D02*
X51816000Y-153924000D01*
X51308000Y-155448000D02*
X51816000Y-154940000D01*
X51308000Y-159893000D02*
X51308000Y-155448000D01*
X52070000Y-160655000D02*
X51308000Y-159893000D01*
X52070000Y-160700000D02*
X52070000Y-160655000D01*
X53340000Y-152908000D02*
X50800000Y-152908000D01*
X55880000Y-152908000D02*
X53340000Y-152908000D01*
X58420000Y-152908000D02*
X55880000Y-152908000D01*
X59182000Y-152908000D02*
X58420000Y-152908000D01*
X59944000Y-153670000D02*
X59182000Y-152908000D01*
X59944000Y-156337000D02*
X59944000Y-153670000D01*
X60706000Y-157099000D02*
X59944000Y-156337000D01*
X66929000Y-157099000D02*
X60706000Y-157099000D01*
X70104000Y-160274000D02*
X66929000Y-157099000D01*
X70274200Y-160274000D02*
X70104000Y-160274000D01*
D57*
X63754000Y-160274000D02*
X62103000Y-158623000D01*
X63754000Y-160655000D02*
X63754000Y-160274000D01*
X68199000Y-160274000D02*
X70274200Y-160274000D01*
X67818000Y-160655000D02*
X68199000Y-160274000D01*
X62750000Y-161659000D02*
X63754000Y-160655000D01*
X62750000Y-162458000D02*
X62750000Y-161659000D01*
X91274900Y-141059000D02*
X92748000Y-141059000D01*
X94297500Y-136030000D02*
X91744800Y-133477000D01*
X94297500Y-139510000D02*
X94297500Y-136030000D01*
X92748000Y-141059000D02*
X94297500Y-139510000D01*
X56631800Y-135011000D02*
X56631800Y-133858000D01*
X56515000Y-135128000D02*
X56631800Y-135011000D01*
X59817000Y-118984000D02*
X62443400Y-116357000D01*
X59817000Y-121158000D02*
X59817000Y-118984000D01*
X114935000Y-148463000D02*
X116332000Y-148463000D01*
X107531000Y-141059000D02*
X114935000Y-148463000D01*
X92748000Y-141059000D02*
X107531000Y-141059000D01*
X54685000Y-111470000D02*
X48185000Y-111470000D01*
X62443400Y-116357000D02*
X62443400Y-114744500D01*
X57959500Y-114744000D02*
X54685000Y-111470000D01*
X62443400Y-114744000D02*
X57959500Y-114744000D01*
X62443400Y-114744500D02*
X62443400Y-114744000D01*
D56*
X106680000Y-115755500D02*
X106680000Y-115051800D01*
D57*
X106680000Y-116459000D02*
X106680000Y-115755500D01*
X100012000Y-123126000D02*
X106680000Y-116459000D01*
X95377000Y-123126000D02*
X100012000Y-123126000D01*
X89027000Y-129476000D02*
X95377000Y-123126000D01*
X89027000Y-130556000D02*
X89027000Y-129476000D01*
X112639000Y-115052000D02*
X112776000Y-115189000D01*
X106680000Y-115052000D02*
X112639000Y-115052000D01*
X106680000Y-115755500D02*
X106680000Y-115052000D01*
X77254100Y-116012000D02*
X77253900Y-116012000D01*
D56*
X77253900Y-116012000D02*
X77254100Y-116012200D01*
D57*
X80804500Y-130874000D02*
X80804000Y-130874000D01*
D56*
X59404000Y-133870700D02*
X59403900Y-133870800D01*
D57*
X59391300Y-133858000D02*
X59403900Y-133870800D01*
X56631800Y-133858000D02*
X59391300Y-133858000D01*
X59403900Y-133870800D02*
X59404000Y-133871000D01*
D56*
X78320600Y-115675000D02*
X77983400Y-116012200D01*
X78320600Y-115633500D02*
X78320600Y-115675000D01*
X77254100Y-116012200D02*
X77983400Y-116012200D01*
X79248000Y-115633500D02*
X78320600Y-115633500D01*
D57*
X66357500Y-147002000D02*
X66357500Y-145320000D01*
X66040000Y-147320000D02*
X66357500Y-147002000D01*
X66040000Y-147838000D02*
X66040000Y-147320000D01*
D56*
X80804500Y-130874000D02*
X80804000Y-130873500D01*
D57*
X77851000Y-121602000D02*
X77851000Y-123920000D01*
X76263500Y-120015000D02*
X77851000Y-121602000D01*
X76263500Y-116967000D02*
X76263500Y-120015000D01*
X77218500Y-116012000D02*
X76263500Y-116967000D01*
X77253900Y-116012000D02*
X77218500Y-116012000D01*
D56*
X80804000Y-130873500D02*
X79850100Y-130873500D01*
D57*
X118755000Y-148463000D02*
X118940500Y-148648500D01*
X116332000Y-148463000D02*
X118755000Y-148463000D01*
X120650000Y-154940000D02*
X121920000Y-154940000D01*
X119126000Y-153416000D02*
X120650000Y-154940000D01*
X119126000Y-148834000D02*
X119126000Y-153416000D01*
X118940500Y-148648500D02*
X119126000Y-148834000D01*
D56*
X118940700Y-148648500D02*
X119126000Y-148833800D01*
X118940500Y-148648500D02*
X118940700Y-148648500D01*
X77851000Y-125265900D02*
X77851000Y-123920000D01*
X78078700Y-125493600D02*
X77851000Y-125265900D01*
X78078700Y-129102100D02*
X78078700Y-125493600D01*
X79850100Y-130873500D02*
X78078700Y-129102100D01*
D57*
X59921100Y-121262000D02*
X62242500Y-121262000D01*
X59817000Y-121158000D02*
X59921100Y-121262000D01*
X62852300Y-121872000D02*
X62852300Y-123920000D01*
X62242700Y-121262000D02*
X62852300Y-121872000D01*
X62242500Y-121262000D02*
X62242700Y-121262000D01*
D56*
X62242500Y-121262000D02*
X62242700Y-121261800D01*
X80804000Y-133362700D02*
X80804000Y-133363000D01*
D57*
X84465200Y-129667000D02*
X84249100Y-129667000D01*
X82994500Y-130874000D02*
X80804500Y-130874000D01*
X84201000Y-129667000D02*
X82994500Y-130874000D01*
X84249100Y-129667000D02*
X84201000Y-129667000D01*
D56*
X88392000Y-130115600D02*
X88392000Y-130556000D01*
X86224400Y-127948000D02*
X88392000Y-130115600D01*
X85717500Y-127948000D02*
X86224400Y-127948000D01*
X84249100Y-129416400D02*
X85717500Y-127948000D01*
X84249100Y-129667000D02*
X84249100Y-129416400D01*
D57*
X89027000Y-130556000D02*
X88392000Y-130556000D01*
X88392000Y-130556000D02*
X87693500Y-131254000D01*
D56*
X66040000Y-147838200D02*
X66040100Y-147838100D01*
D57*
X67183000Y-148981000D02*
X66040100Y-147838100D01*
X67183000Y-156591000D02*
X67183000Y-148981000D01*
X70274200Y-159682000D02*
X67183000Y-156591000D01*
X70274200Y-160274000D02*
X70274200Y-159682000D01*
X66040100Y-147838100D02*
X66040000Y-147838000D01*
X83058000Y-135890000D02*
X80791300Y-135890000D01*
X66357500Y-144462000D02*
X66357500Y-145320000D01*
X66167000Y-144272000D02*
X66357500Y-144462000D01*
X66167000Y-143510000D02*
X66167000Y-144272000D01*
X73787000Y-135890000D02*
X66167000Y-143510000D01*
X80791300Y-135890000D02*
X73787000Y-135890000D01*
D56*
X80791300Y-135890000D02*
X80804000Y-135877300D01*
D57*
X65405000Y-162113000D02*
X65750000Y-162458000D01*
X65405000Y-158623000D02*
X65405000Y-162113000D01*
X69570600Y-167792000D02*
X69001700Y-167792000D01*
D56*
X69918200Y-167792000D02*
X70147200Y-168021000D01*
X69570600Y-167792000D02*
X69918200Y-167792000D01*
D57*
X75717400Y-173591000D02*
X70147200Y-168021000D01*
X75717400Y-176682000D02*
X75717400Y-173591000D01*
X61250000Y-163612000D02*
X61250000Y-162458000D01*
X61595000Y-163957000D02*
X61250000Y-163612000D01*
X65405000Y-163957000D02*
X61595000Y-163957000D01*
X65750000Y-163612000D02*
X65405000Y-163957000D01*
X65750000Y-162458000D02*
X65750000Y-163612000D01*
X70147200Y-164127000D02*
X68658800Y-162638700D01*
X70147200Y-168021000D02*
X70147200Y-164127000D01*
X65405000Y-159385000D02*
X65405000Y-158623000D01*
X68658800Y-162638700D02*
X65405000Y-159385000D01*
D56*
X71882000Y-114046000D02*
X71882000Y-114846400D01*
X71540400Y-115188000D02*
X71540400Y-115554600D01*
X71882000Y-114846400D02*
X71540400Y-115188000D01*
X67114300Y-126309800D02*
X67114300Y-140735700D01*
X65946700Y-125142200D02*
X67114300Y-126309800D01*
X70884900Y-162638700D02*
X68658800Y-162638700D01*
X72302800Y-161220800D02*
X70884900Y-162638700D01*
X72302800Y-159262100D02*
X72302800Y-161220800D01*
X70880100Y-157839400D02*
X72302800Y-159262100D01*
X70880100Y-157732500D02*
X70880100Y-157839400D01*
X70318200Y-157170600D02*
X70880100Y-157732500D01*
X70318200Y-157061600D02*
X70318200Y-157170600D01*
X69715900Y-156459300D02*
X70318200Y-157061600D01*
X69715900Y-156405000D02*
X69715900Y-156459300D01*
X69029400Y-155718500D02*
X69715900Y-156405000D01*
X69029400Y-148877600D02*
X69029400Y-155718500D01*
X70147900Y-147759100D02*
X69029400Y-148877600D01*
X70147900Y-147395000D02*
X70147900Y-147759100D01*
X70181900Y-147361000D02*
X70147900Y-147395000D01*
X70181900Y-147284100D02*
X70181900Y-147361000D01*
D57*
X81661000Y-181229000D02*
X81661000Y-181737000D01*
X81661000Y-181737000D02*
X82270600Y-182346600D01*
X81661000Y-181229000D02*
X81661000Y-182986000D01*
X81661000Y-182986000D02*
X82510000Y-183835000D01*
X82778600Y-179616000D02*
X82778600Y-180111400D01*
X82778600Y-180111400D02*
X81661000Y-181229000D01*
X112776000Y-45593000D02*
X114998500Y-45593000D01*
X71892200Y-118618000D02*
X71892200Y-119179300D01*
X71374000Y-119697500D02*
X71374000Y-121729500D01*
X71892200Y-119179300D02*
X71374000Y-119697500D01*
X90642400Y-135369000D02*
X90642400Y-135219400D01*
X90642400Y-135219400D02*
X89662000Y-134239000D01*
X88189000Y-133147000D02*
X89281000Y-134239000D01*
X89662000Y-134239000D02*
X89281000Y-134239000D01*
X87617300Y-133147000D02*
X88189000Y-133147000D01*
X91821000Y-130556000D02*
X91821000Y-132080000D01*
X116332000Y-145669000D02*
X116332000Y-144018000D01*
X124460000Y-135960000D02*
X124460000Y-134239000D01*
X112776000Y-117983000D02*
X115189000Y-117983000D01*
X112776000Y-93853000D02*
X115189000Y-93853000D01*
X112776000Y-69723000D02*
X115062000Y-69723000D01*
X118237000Y-38100000D02*
X118237000Y-39751000D01*
D56*
X85968800Y-134610000D02*
X85968800Y-135128000D01*
X85725000Y-134366000D02*
X85968800Y-134610000D01*
X83820000Y-134366000D02*
X85725000Y-134366000D01*
X83312000Y-134874000D02*
X83820000Y-134366000D01*
X80804000Y-134874000D02*
X83312000Y-134874000D01*
X66852800Y-147498000D02*
X67183000Y-147828000D01*
X66852800Y-145320000D02*
X66852800Y-147498000D01*
D57*
X55128200Y-135118000D02*
X55128200Y-133858000D01*
X55118000Y-135128000D02*
X55128200Y-135118000D01*
D56*
X55753000Y-135763000D02*
X55118000Y-135128000D01*
X56896000Y-135763000D02*
X55753000Y-135763000D01*
X57277000Y-135382000D02*
X56896000Y-135763000D01*
X57277000Y-135001000D02*
X57277000Y-135382000D01*
X57912000Y-134366000D02*
X57277000Y-135001000D01*
X59404000Y-134366000D02*
X57912000Y-134366000D01*
X62357000Y-122555000D02*
X62103000Y-122301000D01*
X62357000Y-123920000D02*
X62357000Y-122555000D01*
X77480200Y-120025000D02*
X77480200Y-119380000D01*
X78346300Y-120891000D02*
X77480200Y-120025000D01*
X78346300Y-123920000D02*
X78346300Y-120891000D01*
D57*
X64556600Y-115748000D02*
X63947000Y-116357000D01*
X64556600Y-113792000D02*
X64556600Y-115748000D01*
X79010000Y-186510000D02*
X81010000Y-186510000D01*
X83510000Y-186510000D02*
X81010000Y-186510000D01*
X82510000Y-185507000D02*
X82510000Y-183835000D01*
X83510000Y-186507000D02*
X82510000Y-185507000D01*
X83510000Y-186510000D02*
X83510000Y-186507000D01*
X85968800Y-134796000D02*
X87617300Y-133147000D01*
X85968800Y-135128000D02*
X85968800Y-134796000D01*
X85968800Y-128534000D02*
X85979000Y-128524000D01*
X85968800Y-129667000D02*
X85968800Y-128534000D01*
X85968800Y-131191000D02*
X85968800Y-129667000D01*
X62840000Y-168758000D02*
X60833000Y-166751000D01*
X63500000Y-168758000D02*
X62840000Y-168758000D01*
X61722000Y-166751000D02*
X62611000Y-166751000D01*
X63500000Y-166751000D02*
X64389000Y-166751000D01*
X65278000Y-166751000D02*
X66167000Y-166751000D01*
X65405000Y-155829000D02*
X65405000Y-154305000D01*
X62103000Y-155829000D02*
X62103000Y-154305000D01*
X75775800Y-160063000D02*
X77089000Y-158750000D01*
X75775800Y-160274000D02*
X75775800Y-160063000D01*
X75648800Y-167683000D02*
X76962000Y-166370000D01*
X75648800Y-168021000D02*
X75648800Y-167683000D01*
X44661000Y-39540000D02*
X44704000Y-39497000D01*
X43240000Y-39540000D02*
X44661000Y-39540000D01*
X44620000Y-49700000D02*
X44704000Y-49784000D01*
X43240000Y-49700000D02*
X44620000Y-49700000D01*
X44620000Y-57320000D02*
X44704000Y-57404000D01*
X43240000Y-57320000D02*
X44620000Y-57320000D01*
X44493000Y-164000000D02*
X44577000Y-164084000D01*
X43240000Y-164000000D02*
X44493000Y-164000000D01*
X29565600Y-173888000D02*
X29591000Y-173863000D01*
X27787600Y-173888000D02*
X29565600Y-173888000D01*
X27787600Y-173888400D02*
X27787600Y-173888000D01*
X29167000Y-163660000D02*
X29210000Y-163703000D01*
X27940000Y-163660000D02*
X29167000Y-163660000D01*
X29167000Y-145880000D02*
X29210000Y-145923000D01*
X27940000Y-145880000D02*
X29167000Y-145880000D01*
X29167000Y-128100000D02*
X29210000Y-128143000D01*
X27940000Y-128100000D02*
X29167000Y-128100000D01*
X29167000Y-110320000D02*
X29210000Y-110363000D01*
X27940000Y-110320000D02*
X29167000Y-110320000D01*
X29167000Y-92540000D02*
X29210000Y-92583000D01*
X27940000Y-92540000D02*
X29167000Y-92540000D01*
X29167000Y-74760000D02*
X29210000Y-74803000D01*
X27940000Y-74760000D02*
X29167000Y-74760000D01*
X29167000Y-56980000D02*
X29210000Y-57023000D01*
X27940000Y-56980000D02*
X29167000Y-56980000D01*
X29167000Y-39200000D02*
X29210000Y-39243000D01*
X27940000Y-39200000D02*
X29167000Y-39200000D01*
X77480200Y-118628000D02*
X77480200Y-119380000D01*
X77343000Y-118491000D02*
X77480200Y-118628000D01*
X71882000Y-118608000D02*
X71892200Y-118618000D01*
X71882000Y-116586000D02*
X71882000Y-118608000D01*
X63947000Y-118049000D02*
X64008000Y-118110000D01*
X63947000Y-116357000D02*
X63947000Y-118049000D01*
X55179000Y-133807000D02*
X55128200Y-133858000D01*
X55128200Y-131953000D02*
X55179000Y-133807000D01*
D56*
X77355700Y-144031000D02*
X77343000Y-144018000D01*
X77355700Y-145320000D02*
X77355700Y-144031000D01*
D57*
X57150000Y-160700000D02*
X57150000Y-162814000D01*
X53340000Y-160700000D02*
X54610000Y-160700000D01*
X53340000Y-160700000D02*
X53340000Y-162814000D01*
X91059000Y-143764000D02*
X92710000Y-143764000D01*
X85333800Y-140452000D02*
X85344000Y-140462000D01*
X85333800Y-139357000D02*
X85333800Y-140452000D01*
X90642400Y-136097000D02*
X91616700Y-137071000D01*
X90642400Y-135369000D02*
X90642400Y-136097000D01*
X90642400Y-138045000D02*
X91616700Y-137071000D01*
X90642400Y-138773000D02*
X90642400Y-138045000D01*
X71384200Y-154686000D02*
X70358000Y-154686000D01*
X82997000Y-149037000D02*
X83058000Y-149098000D01*
X82997000Y-147726000D02*
X82997000Y-149037000D01*
X83007200Y-147716000D02*
X82997000Y-147726000D01*
X83007200Y-146228000D02*
X83007200Y-147716000D01*
X90399000Y-150393000D02*
X90424000Y-150368000D01*
X88722200Y-150393000D02*
X90399000Y-150393000D01*
X44493000Y-174160000D02*
X44577000Y-174244000D01*
X43240000Y-174160000D02*
X44493000Y-174160000D01*
X44493000Y-156380000D02*
X44577000Y-156464000D01*
X43240000Y-156380000D02*
X44493000Y-156380000D01*
X44493000Y-146220000D02*
X44577000Y-146304000D01*
X43240000Y-146220000D02*
X44493000Y-146220000D01*
X44620000Y-138600000D02*
X44704000Y-138684000D01*
X43240000Y-138600000D02*
X44620000Y-138600000D01*
X44620000Y-128440000D02*
X44704000Y-128524000D01*
X43240000Y-128440000D02*
X44620000Y-128440000D01*
X44493000Y-120820000D02*
X44577000Y-120904000D01*
X43240000Y-120820000D02*
X44493000Y-120820000D01*
X44620000Y-110660000D02*
X44704000Y-110744000D01*
X43240000Y-110660000D02*
X44620000Y-110660000D01*
X44620000Y-103040000D02*
X44704000Y-103124000D01*
X43240000Y-103040000D02*
X44620000Y-103040000D01*
X44620000Y-92880000D02*
X44704000Y-92964000D01*
X43240000Y-92880000D02*
X44620000Y-92880000D01*
X44620000Y-85260000D02*
X44704000Y-85344000D01*
X43240000Y-85260000D02*
X44620000Y-85260000D01*
X29235400Y-84988400D02*
X29337000Y-85090000D01*
X27787600Y-84988400D02*
X29235400Y-84988400D01*
X29235400Y-67208400D02*
X29337000Y-67310000D01*
X27787600Y-67208400D02*
X29235400Y-67208400D01*
X44136000Y-76260000D02*
X44196000Y-76200000D01*
X43010000Y-76260000D02*
X44136000Y-76260000D01*
X44263000Y-71180000D02*
X44323000Y-71120000D01*
X43010000Y-71180000D02*
X44263000Y-71180000D01*
X29362400Y-49428400D02*
X29464000Y-49530000D01*
X27787600Y-49428400D02*
X29362400Y-49428400D01*
X76835000Y-181229000D02*
X76708000Y-181102000D01*
X77724000Y-181229000D02*
X76835000Y-181229000D01*
X82510000Y-183835000D02*
X81310000Y-183835000D01*
X79010000Y-186510000D02*
X76510000Y-186510000D01*
X77510000Y-185510000D02*
X77510000Y-183835000D01*
X76510000Y-186510000D02*
X77510000Y-185510000D01*
X27787600Y-173888400D02*
X27787600Y-174092000D01*
X87617300Y-132840000D02*
X86730800Y-131953000D01*
X87617300Y-133147000D02*
X87617300Y-132840000D01*
X86730800Y-131953000D02*
X85968800Y-131191000D01*
X70688200Y-149936000D02*
X70612000Y-149860000D01*
X72135800Y-149936000D02*
X70688200Y-149936000D01*
D56*
X72135800Y-149936000D02*
X72136000Y-149936200D01*
D57*
X72136000Y-149936000D02*
X72135800Y-149936000D01*
X74523600Y-152324000D02*
X72136000Y-149936000D01*
X76200000Y-152324000D02*
X74523600Y-152324000D01*
X76774000Y-152898000D02*
X76200000Y-152324000D01*
X76774000Y-154661000D02*
X76774000Y-152898000D01*
D56*
X76200000Y-152324000D02*
X76200000Y-152323800D01*
X80804000Y-138874000D02*
X80804500Y-138874000D01*
X84470300Y-138494000D02*
X85333800Y-139357000D01*
X83121500Y-138494000D02*
X84470300Y-138494000D01*
X82740500Y-138874000D02*
X83121500Y-138494000D01*
X80804500Y-138874000D02*
X82740500Y-138874000D01*
X80804500Y-138874000D02*
X80804000Y-138874500D01*
D57*
X27787600Y-102768000D02*
X27788000Y-102768000D01*
X29565600Y-102768000D02*
X29591000Y-102743000D01*
X27788000Y-102768000D02*
X29565600Y-102768000D01*
D56*
X27788000Y-102768000D02*
X27787600Y-102768400D01*
D57*
X119126000Y-147330000D02*
X119126000Y-146050000D01*
D56*
X119126000Y-147330000D02*
X119126000Y-147330200D01*
D57*
X61849000Y-150114000D02*
X61976000Y-150241000D01*
X61849000Y-149215000D02*
X61849000Y-150114000D01*
D56*
X61849000Y-149215000D02*
X61849000Y-149214800D01*
D57*
X77254100Y-118402000D02*
X77343000Y-118491000D01*
X77254100Y-117516000D02*
X77254100Y-118402000D01*
D56*
X77254100Y-117516000D02*
X77254100Y-117515800D01*
D57*
X66040000Y-150368000D02*
X66040000Y-149342000D01*
D56*
X66040000Y-149342000D02*
X66040000Y-149341800D01*
D57*
X60962500Y-119758000D02*
X60960000Y-119761000D01*
X62242900Y-119758000D02*
X60962500Y-119758000D01*
D56*
X62242900Y-119758000D02*
X62242700Y-119758200D01*
D57*
X74930000Y-184930000D02*
X76510000Y-186510000D01*
X74930000Y-184902000D02*
X74930000Y-184930000D01*
D56*
X74930000Y-184902000D02*
X74930000Y-184901800D01*
X64020700Y-119291100D02*
X64020700Y-119758200D01*
D57*
X64020700Y-118123000D02*
X64020700Y-119291100D01*
X64008000Y-118110000D02*
X64020700Y-118123000D01*
X64020700Y-119758000D02*
X62242900Y-119758000D01*
X64020700Y-119291100D02*
X64020700Y-119758000D01*
X27787600Y-138328000D02*
X27788000Y-138328000D01*
X29438600Y-138328000D02*
X29464000Y-138303000D01*
X27788000Y-138328000D02*
X29438600Y-138328000D01*
D56*
X27788000Y-138328000D02*
X27787600Y-138328400D01*
D57*
X27787600Y-120548000D02*
X27788000Y-120548000D01*
X29565600Y-120548000D02*
X29591000Y-120523000D01*
X27788000Y-120548000D02*
X29565600Y-120548000D01*
D56*
X27788000Y-120548000D02*
X27787600Y-120548400D01*
X80804000Y-132867000D02*
X80804400Y-132867000D01*
X83566000Y-131953000D02*
X86730800Y-131953000D01*
X82651600Y-132867000D02*
X83566000Y-131953000D01*
X80804400Y-132867000D02*
X82651600Y-132867000D01*
X80804400Y-132867000D02*
X80804000Y-132867400D01*
X80804000Y-139865000D02*
X80804100Y-139865000D01*
X84419300Y-140272000D02*
X85333800Y-139357000D01*
X83121500Y-140272000D02*
X84419300Y-140272000D01*
X82715100Y-139865000D02*
X83121500Y-140272000D01*
X80804100Y-139865000D02*
X82715100Y-139865000D01*
X80804100Y-139865000D02*
X80804000Y-139865100D01*
D57*
X27787600Y-156108000D02*
X27788000Y-156108000D01*
X29565600Y-156108000D02*
X29591000Y-156083000D01*
X27788000Y-156108000D02*
X29565600Y-156108000D01*
D56*
X27788000Y-156108000D02*
X27787600Y-156108400D01*
X72135800Y-152324000D02*
X72136000Y-152323800D01*
X72136000Y-153934000D02*
X72887800Y-154686000D01*
X72136000Y-152324000D02*
X72136000Y-153934000D01*
X72135800Y-152324000D02*
X72136000Y-152324000D01*
X71678800Y-152324000D02*
X71736000Y-152324000D01*
X71736000Y-152324000D02*
X72135800Y-152324000D01*
X78346300Y-145320000D02*
X78346300Y-146273900D01*
X77779000Y-146273900D02*
X78346300Y-146273900D01*
X74563800Y-149489100D02*
X77779000Y-146273900D01*
X74121600Y-149489100D02*
X74563800Y-149489100D01*
X73742900Y-149110400D02*
X74121600Y-149489100D01*
X70524700Y-149110400D02*
X73742900Y-149110400D01*
X70053800Y-149581300D02*
X70524700Y-149110400D01*
X70053800Y-150641800D02*
X70053800Y-149581300D01*
X71736000Y-152324000D02*
X70053800Y-150641800D01*
X79692500Y-119380000D02*
X78983800Y-119380000D01*
X80137000Y-119824000D02*
X79692500Y-119380000D01*
X80137000Y-120206000D02*
X80137000Y-119824000D01*
X78854300Y-121488000D02*
X80137000Y-120206000D01*
X78854300Y-123920000D02*
X78854300Y-121488000D01*
X78983800Y-117803000D02*
X79115900Y-117670500D01*
X78983800Y-119380000D02*
X78983800Y-117803000D01*
X79115900Y-117670500D02*
X79248000Y-117538000D01*
X79116000Y-117670500D02*
X79248000Y-117538500D01*
X79115900Y-117670500D02*
X79116000Y-117670500D01*
X75270400Y-154010000D02*
X75270400Y-154661000D01*
X74676000Y-153416000D02*
X75270400Y-154010000D01*
X75996800Y-149936000D02*
X74676000Y-151257000D01*
X76199800Y-149936000D02*
X75996800Y-149936000D01*
X76199800Y-149936000D02*
X76200000Y-149936200D01*
X76250800Y-149936000D02*
X76199800Y-149936000D01*
X78854300Y-145320000D02*
X78854300Y-146273900D01*
X78854200Y-146273900D02*
X78854300Y-146273900D01*
X78854200Y-147332600D02*
X78854200Y-146273900D01*
X76250800Y-149936000D02*
X78854200Y-147332600D01*
X81483200Y-146228000D02*
X81483200Y-146474700D01*
X81483200Y-147716000D02*
X81493400Y-147726000D01*
X81483200Y-146474700D02*
X81483200Y-147716000D01*
X82816600Y-145141300D02*
X82874700Y-145141300D01*
X81483200Y-146474700D02*
X82816600Y-145141300D01*
X79814900Y-141871700D02*
X80804000Y-141871700D01*
X79561000Y-142125600D02*
X79814900Y-141871700D01*
X83069900Y-136621000D02*
X86066700Y-136621000D01*
X82315000Y-137375900D02*
X83069900Y-136621000D01*
X80804000Y-137375900D02*
X82315000Y-137375900D01*
X87737200Y-136092100D02*
X88460300Y-135369000D01*
X86066700Y-136092100D02*
X87737200Y-136092100D01*
X86066700Y-136621000D02*
X86066700Y-136092100D01*
X89138800Y-135369000D02*
X88460300Y-135369000D01*
X89138800Y-138773000D02*
X88460300Y-138773000D01*
X87208300Y-137521000D02*
X86066700Y-137521000D01*
X88460300Y-138773000D02*
X87208300Y-137521000D01*
X84937600Y-137871200D02*
X80804000Y-137871200D01*
X85287800Y-137521000D02*
X84937600Y-137871200D01*
X86066700Y-137521000D02*
X85287800Y-137521000D01*
X80804300Y-141364000D02*
X80804000Y-141364000D01*
X80804300Y-141364000D02*
X80804000Y-141363700D01*
X88265000Y-143764000D02*
X88042800Y-143764000D01*
X84975700Y-141364000D02*
X80804300Y-141364000D01*
X87376000Y-143764000D02*
X84975700Y-141364000D01*
X88042800Y-143764000D02*
X87376000Y-143764000D01*
X88042800Y-141712700D02*
X88696500Y-141059000D01*
X88042800Y-143764000D02*
X88042800Y-141712700D01*
X89369900Y-141059000D02*
X88696500Y-141059000D01*
X34505500Y-38634100D02*
X31128000Y-42011600D01*
X34505500Y-37390000D02*
X34505500Y-38634100D01*
X34596000Y-37299500D02*
X34505500Y-37390000D01*
X36370600Y-37299500D02*
X34596000Y-37299500D01*
X39711100Y-40640000D02*
X36370600Y-37299500D01*
X40640000Y-40640000D02*
X39711100Y-40640000D01*
X29794200Y-42011600D02*
X31128000Y-42011600D01*
X39711100Y-50328000D02*
X38811500Y-49428400D01*
X39711100Y-50800000D02*
X39711100Y-50328000D01*
X37185600Y-49428400D02*
X38811500Y-49428400D01*
X40640000Y-50800000D02*
X39711100Y-50800000D01*
X34499100Y-56420500D02*
X31128000Y-59791600D01*
X34499100Y-55218300D02*
X34499100Y-56420500D01*
X34685300Y-55032100D02*
X34499100Y-55218300D01*
X36323200Y-55032100D02*
X34685300Y-55032100D01*
X39711100Y-58420000D02*
X36323200Y-55032100D01*
X40640000Y-58420000D02*
X39711100Y-58420000D01*
X29794200Y-59791600D02*
X31128000Y-59791600D01*
X40183100Y-68580000D02*
X38811500Y-67208400D01*
X41910000Y-68580000D02*
X40183100Y-68580000D01*
X37185600Y-67208400D02*
X38811500Y-67208400D01*
X34495600Y-74204000D02*
X31128000Y-77571600D01*
X34495600Y-72959900D02*
X34495600Y-74204000D01*
X34596000Y-72859500D02*
X34495600Y-72959900D01*
X39480600Y-72859500D02*
X34596000Y-72859500D01*
X40281100Y-73660000D02*
X39480600Y-72859500D01*
X41910000Y-73660000D02*
X40281100Y-73660000D01*
X29794200Y-77571600D02*
X31128000Y-77571600D01*
X39711100Y-85888000D02*
X38811500Y-84988400D01*
X39711100Y-86360000D02*
X39711100Y-85888000D01*
X37185600Y-84988400D02*
X38811500Y-84988400D01*
X40640000Y-86360000D02*
X39711100Y-86360000D01*
X32499600Y-93980000D02*
X31128000Y-95351600D01*
X40640000Y-93980000D02*
X32499600Y-93980000D01*
X29794200Y-95351600D02*
X31128000Y-95351600D01*
X39711100Y-103668000D02*
X38811500Y-102768400D01*
X39711100Y-104140000D02*
X39711100Y-103668000D01*
X37185600Y-102768400D02*
X38811500Y-102768400D01*
X40640000Y-104140000D02*
X39711100Y-104140000D01*
X34505500Y-109754100D02*
X31128000Y-113131600D01*
X34505500Y-108510000D02*
X34505500Y-109754100D01*
X34596000Y-108419500D02*
X34505500Y-108510000D01*
X36370600Y-108419500D02*
X34596000Y-108419500D01*
X39711100Y-111760000D02*
X36370600Y-108419500D01*
X40640000Y-111760000D02*
X39711100Y-111760000D01*
X29794200Y-113131600D02*
X31128000Y-113131600D01*
X39711100Y-121448000D02*
X38811500Y-120548400D01*
X39711100Y-121920000D02*
X39711100Y-121448000D01*
X37185600Y-120548400D02*
X38811500Y-120548400D01*
X40640000Y-121920000D02*
X39711100Y-121920000D01*
X34505500Y-127534100D02*
X31128000Y-130911600D01*
X34505500Y-126290000D02*
X34505500Y-127534100D01*
X34596000Y-126199500D02*
X34505500Y-126290000D01*
X36370600Y-126199500D02*
X34596000Y-126199500D01*
X39711100Y-129540000D02*
X36370600Y-126199500D01*
X40640000Y-129540000D02*
X39711100Y-129540000D01*
X29794200Y-130911600D02*
X31128000Y-130911600D01*
X39711100Y-139228000D02*
X38811500Y-138328400D01*
X39711100Y-139700000D02*
X39711100Y-139228000D01*
X37185600Y-138328400D02*
X38811500Y-138328400D01*
X40640000Y-139700000D02*
X39711100Y-139700000D01*
X32499600Y-147320000D02*
X31128000Y-148691600D01*
X40640000Y-147320000D02*
X32499600Y-147320000D01*
X29794200Y-148691600D02*
X31128000Y-148691600D01*
X39711100Y-157008000D02*
X38811500Y-156108400D01*
X39711100Y-157480000D02*
X39711100Y-157008000D01*
X37185600Y-156108400D02*
X38811500Y-156108400D01*
X40640000Y-157480000D02*
X39711100Y-157480000D01*
X32499600Y-165100000D02*
X31128000Y-166471600D01*
X40640000Y-165100000D02*
X32499600Y-165100000D01*
X29794200Y-166471600D02*
X31128000Y-166471600D01*
X39711100Y-174788000D02*
X38811500Y-173888400D01*
X39711100Y-175260000D02*
X39711100Y-174788000D01*
X37185600Y-173888400D02*
X38811500Y-173888400D01*
X40640000Y-175260000D02*
X39711100Y-175260000D01*
X122533300Y-139915600D02*
X123410000Y-139038900D01*
X121793000Y-139915600D02*
X122533300Y-139915600D01*
X121793000Y-140462000D02*
X121793000Y-139915600D01*
X123410000Y-138360000D02*
X123410000Y-139038900D01*
X125209700Y-139038900D02*
X125510000Y-139038900D01*
X124333000Y-139915600D02*
X125209700Y-139038900D01*
X124333000Y-140462000D02*
X124333000Y-139915600D01*
X125510000Y-138360000D02*
X125510000Y-139038900D01*
D57*
X66197800Y-181630000D02*
X71145400Y-176682000D01*
X66040000Y-181630000D02*
X66197800Y-181630000D01*
X54765000Y-178435000D02*
X51590000Y-175260000D01*
X60960000Y-178435000D02*
X54765000Y-178435000D01*
X65405000Y-182880000D02*
X60960000Y-178435000D01*
X66929000Y-182880000D02*
X65405000Y-182880000D01*
X68179000Y-181630000D02*
X66929000Y-182880000D01*
X70040000Y-181630000D02*
X68179000Y-181630000D01*
D56*
X89674400Y-133295400D02*
X89050100Y-132671100D01*
X89674400Y-133477000D02*
X89674400Y-133295400D01*
X90220800Y-133477000D02*
X89674400Y-133477000D01*
X78944300Y-134837800D02*
X78944300Y-134139900D01*
X79475800Y-135369300D02*
X78944300Y-134837800D01*
X80804000Y-135369300D02*
X79475800Y-135369300D01*
X82354200Y-140373100D02*
X82498400Y-140517300D01*
X80804000Y-140373100D02*
X82354200Y-140373100D01*
X85128400Y-142383800D02*
X85128400Y-142240000D01*
X85469800Y-142725200D02*
X85128400Y-142383800D01*
X84582000Y-142240000D02*
X85128400Y-142240000D01*
X85246700Y-143264500D02*
X84531200Y-143980000D01*
X85794100Y-143264500D02*
X85246700Y-143264500D01*
X86092800Y-143563200D02*
X85794100Y-143264500D01*
X86092800Y-143662900D02*
X86092800Y-143563200D01*
X87324600Y-144894700D02*
X86092800Y-143662900D01*
X89249700Y-144894700D02*
X87324600Y-144894700D01*
X89515500Y-144628900D02*
X89249700Y-144894700D01*
X89515500Y-142394700D02*
X89515500Y-144628900D01*
X90043400Y-141866800D02*
X89515500Y-142394700D01*
X90043400Y-140254900D02*
X90043400Y-141866800D01*
X89892600Y-140104100D02*
X90043400Y-140254900D01*
X88849100Y-140104100D02*
X89892600Y-140104100D01*
X87902100Y-141051100D02*
X88849100Y-140104100D01*
X81943000Y-141051100D02*
X87902100Y-141051100D01*
X81760300Y-140868400D02*
X81943000Y-141051100D01*
X80804000Y-140868400D02*
X81760300Y-140868400D01*
X48185000Y-106970000D02*
X54685000Y-106970000D01*
X59404000Y-136372600D02*
X58450100Y-136372600D01*
X53198400Y-112156900D02*
X53129500Y-112088000D01*
X53198400Y-134835300D02*
X53198400Y-112156900D01*
X55096900Y-136733800D02*
X53198400Y-134835300D01*
X58088900Y-136733800D02*
X55096900Y-136733800D01*
X58450100Y-136372600D02*
X58088900Y-136733800D01*
X29868900Y-38100000D02*
X33528000Y-38100000D01*
X28768900Y-37000000D02*
X29868900Y-38100000D01*
X27940000Y-37000000D02*
X28768900Y-37000000D01*
X29868900Y-55880000D02*
X33528000Y-55880000D01*
X28768900Y-54780000D02*
X29868900Y-55880000D01*
X27940000Y-54780000D02*
X28768900Y-54780000D01*
X29868900Y-73660000D02*
X33528000Y-73660000D01*
X28768900Y-72560000D02*
X29868900Y-73660000D01*
X27940000Y-72560000D02*
X28768900Y-72560000D01*
X29868900Y-91440000D02*
X33528000Y-91440000D01*
X28768900Y-90340000D02*
X29868900Y-91440000D01*
X27940000Y-90340000D02*
X28768900Y-90340000D01*
X29868900Y-109220000D02*
X33528000Y-109220000D01*
X28768900Y-108120000D02*
X29868900Y-109220000D01*
X27940000Y-108120000D02*
X28768900Y-108120000D01*
X29868900Y-127000000D02*
X33528000Y-127000000D01*
X28768900Y-125900000D02*
X29868900Y-127000000D01*
X27940000Y-125900000D02*
X28768900Y-125900000D01*
X29868900Y-144780000D02*
X33528000Y-144780000D01*
X28768900Y-143680000D02*
X29868900Y-144780000D01*
X27940000Y-143680000D02*
X28768900Y-143680000D01*
X29868900Y-162560000D02*
X32258000Y-162560000D01*
X28768900Y-161460000D02*
X29868900Y-162560000D01*
X27940000Y-161460000D02*
X28768900Y-161460000D01*
X121920000Y-175260000D02*
X121920000Y-174181100D01*
X63360300Y-145320000D02*
X63360300Y-139695700D01*
X64973600Y-138082400D02*
X63360300Y-139695700D01*
X64973600Y-132170900D02*
X64973600Y-138082400D01*
X122054900Y-174181100D02*
X121920000Y-174181100D01*
X123039100Y-173196900D02*
X122054900Y-174181100D01*
X123039100Y-167227900D02*
X123039100Y-173196900D01*
X122052300Y-166241100D02*
X123039100Y-167227900D01*
X121488400Y-166241100D02*
X122052300Y-166241100D01*
X119079700Y-163832400D02*
X121488400Y-166241100D01*
X119079700Y-154635000D02*
X119079700Y-163832400D01*
X106665000Y-142220300D02*
X119079700Y-154635000D01*
X103644600Y-142220300D02*
X106665000Y-142220300D01*
X63910800Y-144310900D02*
X63910800Y-139900000D01*
X63855600Y-144366100D02*
X63910800Y-144310900D01*
X121808200Y-171641100D02*
X121920000Y-171641100D01*
X118339000Y-168171900D02*
X121808200Y-171641100D01*
X118339000Y-154836900D02*
X118339000Y-168171900D01*
X108632900Y-145130800D02*
X118339000Y-154836900D01*
X103644600Y-145130800D02*
X108632900Y-145130800D01*
X121920000Y-172720000D02*
X121920000Y-171641100D01*
X63855600Y-145320000D02*
X63855600Y-144366100D01*
X64350900Y-145320000D02*
X64350900Y-146273900D01*
X61997900Y-146273900D02*
X64350900Y-146273900D01*
X61117500Y-147154300D02*
X61997900Y-146273900D01*
X61117500Y-148159100D02*
X61117500Y-147154300D01*
X59687200Y-149589400D02*
X61117500Y-148159100D01*
X52880600Y-149589400D02*
X59687200Y-149589400D01*
X44805400Y-157664600D02*
X52880600Y-149589400D01*
X44805400Y-159422600D02*
X44805400Y-157664600D01*
X42311000Y-161917000D02*
X44805400Y-159422600D01*
X42311000Y-166934200D02*
X42311000Y-161917000D01*
X46961500Y-171584700D02*
X42311000Y-166934200D01*
X62727500Y-171584700D02*
X46961500Y-171584700D01*
X121920000Y-167640000D02*
X121920000Y-166561100D01*
X64858900Y-145320000D02*
X64858900Y-140442700D01*
X92078900Y-142303000D02*
X91445900Y-142303000D01*
X93097400Y-143321500D02*
X92078900Y-142303000D01*
X107262400Y-143321500D02*
X93097400Y-143321500D01*
X118774500Y-154833600D02*
X107262400Y-143321500D01*
X118774500Y-164005500D02*
X118774500Y-154833600D01*
X121330100Y-166561100D02*
X118774500Y-164005500D01*
X121920000Y-166561100D02*
X121330100Y-166561100D01*
X64858900Y-140442700D02*
X64871100Y-140430500D01*
X92495600Y-115640000D02*
X81757900Y-126377700D01*
X92495600Y-80598300D02*
X92495600Y-115640000D01*
X101600000Y-71493900D02*
X92495600Y-80598300D01*
X101600000Y-36830000D02*
X101600000Y-71493900D01*
X80804000Y-126377700D02*
X81757900Y-126377700D01*
X80804000Y-127876300D02*
X79850100Y-127876300D01*
X79850100Y-124873900D02*
X79850100Y-127876300D01*
X91427700Y-113296300D02*
X79850100Y-124873900D01*
X91427700Y-80155500D02*
X91427700Y-113296300D01*
X100087800Y-71495400D02*
X91427700Y-80155500D01*
X100087800Y-35802200D02*
X100087800Y-71495400D01*
X101600000Y-34290000D02*
X100087800Y-35802200D01*
X80804000Y-128371600D02*
X81757900Y-128371600D01*
X104140000Y-70464300D02*
X104140000Y-36830000D01*
X93105800Y-81498500D02*
X104140000Y-70464300D01*
X93105800Y-116184700D02*
X93105800Y-81498500D01*
X81757900Y-127532600D02*
X93105800Y-116184700D01*
X81757900Y-128371600D02*
X81757900Y-127532600D01*
X80804000Y-128866900D02*
X81757900Y-128866900D01*
X105134900Y-35284900D02*
X104140000Y-34290000D01*
X105134900Y-69901000D02*
X105134900Y-35284900D01*
X93410900Y-81625000D02*
X105134900Y-69901000D01*
X93410900Y-116311200D02*
X93410900Y-81625000D01*
X82089700Y-127632400D02*
X93410900Y-116311200D01*
X82089700Y-128535100D02*
X82089700Y-127632400D01*
X81757900Y-128866900D02*
X82089700Y-128535100D01*
X79850100Y-134403200D02*
X79561000Y-134692300D01*
X79850100Y-134366000D02*
X79850100Y-134403200D01*
X121920000Y-165100000D02*
X121920000Y-164021100D01*
X99159300Y-141640300D02*
X99105100Y-141694500D01*
X106516700Y-141640300D02*
X99159300Y-141640300D01*
X120536800Y-155660400D02*
X106516700Y-141640300D01*
X120536800Y-162749700D02*
X120536800Y-155660400D01*
X121808200Y-164021100D02*
X120536800Y-162749700D01*
X121920000Y-164021100D02*
X121808200Y-164021100D01*
X80804000Y-134366000D02*
X79850100Y-134366000D01*
X122031800Y-161481100D02*
X121920000Y-161481100D01*
X125133500Y-158379400D02*
X122031800Y-161481100D01*
X125133500Y-141522700D02*
X125133500Y-158379400D01*
X124619300Y-141008500D02*
X125133500Y-141522700D01*
X119527100Y-141008500D02*
X124619300Y-141008500D01*
X118070700Y-139552100D02*
X119527100Y-141008500D01*
X98822600Y-139552100D02*
X118070700Y-139552100D01*
X121920000Y-162560000D02*
X121920000Y-161481100D01*
X82381800Y-132372100D02*
X82497400Y-132256500D01*
X80804000Y-132372100D02*
X82381800Y-132372100D01*
X122031800Y-156401100D02*
X121920000Y-156401100D01*
X123004500Y-155428400D02*
X122031800Y-156401100D01*
X123004500Y-143743900D02*
X123004500Y-155428400D01*
X121793000Y-142532400D02*
X123004500Y-143743900D01*
X121793000Y-141986000D02*
X121793000Y-142532400D01*
X121920000Y-157480000D02*
X121920000Y-156401100D01*
X121920000Y-160020000D02*
X121920000Y-158941100D01*
X122031800Y-158941100D02*
X121920000Y-158941100D01*
X124333000Y-156639900D02*
X122031800Y-158941100D01*
X124333000Y-141986000D02*
X124333000Y-156639900D01*
D57*
G36*
X66649600Y-169011600D02*
X60350400Y-169011600D01*
X60350400Y-165633400D01*
X66649600Y-165633400D01*
X66649600Y-169011600D01*
X66649600Y-169011600D01*
G37*
X66649600Y-169011600D02*
X60350400Y-169011600D01*
X60350400Y-165633400D01*
X66649600Y-165633400D01*
X66649600Y-169011600D01*
M02*
