M48
;DRILL file {KiCad 4.0.7} date 01/10/18 10:29:47
;FORMAT={-:-/ absolute / inch / decimal}
FMAT,2
INCH,TZ
T1C0.067
T2C0.126
T3C0.126
T4C0.128
%
G90
G05
M72
T1
X1.138Y-1.8
X1.138Y-2.5
X1.138Y-3.2
X1.138Y-3.9
X1.138Y-4.6
X1.138Y-5.3
X1.138Y-6.
X1.138Y-6.7
X1.414Y-1.8
X1.414Y-2.5
X1.414Y-3.2
X1.414Y-3.9
X1.414Y-4.6
X1.414Y-5.3
X1.414Y-6.
X1.414Y-6.7
T2
X1.25Y-1.25
X1.25Y-7.15
X4.75Y-1.25
X4.75Y-7.15
T3
X3.Y-1.7622
X3.Y-4.0378
T4
X4.8953Y-1.55
X4.8953Y-2.05
X4.8953Y-2.5
X4.8953Y-3.
X4.8953Y-3.45
X4.8953Y-3.95
X4.8953Y-4.4
X4.8953Y-4.9
T0
M30
