G04 #@! TF.FileFunction,Soldermask,Bot*
%FSLAX46Y46*%
G04 Gerber Fmt 4.6, Leading zero omitted, Abs format (unit mm)*
G04 Created by KiCad (PCBNEW 4.0.5) date 03/10/17 13:25:31*
%MOMM*%
%LPD*%
G01*
G04 APERTURE LIST*
%ADD10C,0.150000*%
%ADD11R,1.700000X1.700000*%
%ADD12O,1.700000X1.700000*%
%ADD13C,1.701800*%
%ADD14C,1.550000*%
%ADD15C,1.250000*%
%ADD16O,1.574800X3.048000*%
%ADD17O,1.600200X3.048000*%
%ADD18C,3.250000*%
%ADD19C,1.600000*%
%ADD20C,1.500000*%
%ADD21C,1.706880*%
%ADD22C,1.400000*%
%ADD23C,7.000000*%
%ADD24C,1.168400*%
%ADD25C,7.000240*%
%ADD26R,1.524000X1.524000*%
%ADD27C,1.524000*%
G04 APERTURE END LIST*
D10*
D11*
X121920000Y-152400000D03*
D12*
X121920000Y-154940000D03*
X121920000Y-157480000D03*
X121920000Y-160020000D03*
X121920000Y-162560000D03*
X121920000Y-165100000D03*
X121920000Y-167640000D03*
X121920000Y-170180000D03*
X121920000Y-172720000D03*
X121920000Y-175260000D03*
D13*
X35915600Y-45720000D03*
X28905200Y-45720000D03*
X35915600Y-63500000D03*
X28905200Y-63500000D03*
X35915600Y-81280000D03*
X28905200Y-81280000D03*
X35915600Y-99060000D03*
X28905200Y-99060000D03*
X35915600Y-116840000D03*
X28905200Y-116840000D03*
X35915600Y-134620000D03*
X28905200Y-134620000D03*
X35915600Y-152400000D03*
X28905200Y-152400000D03*
X35915600Y-170180000D03*
X28905200Y-170180000D03*
D14*
X76510000Y-186510000D03*
D15*
X82510000Y-183835000D03*
X77510000Y-183835000D03*
D14*
X83510000Y-186510000D03*
D16*
X55090000Y-175895000D03*
D17*
X51590000Y-175895000D03*
D18*
X124340000Y-54610000D03*
X124340000Y-41910000D03*
D19*
X121800000Y-48760000D03*
X121800000Y-46730000D03*
X120020000Y-49790000D03*
X120020000Y-47760000D03*
X120020000Y-51820000D03*
X121800000Y-50790000D03*
X120020000Y-45730000D03*
X121800000Y-44700000D03*
D18*
X124340000Y-102870000D03*
X124340000Y-90170000D03*
D19*
X121800000Y-97020000D03*
X121800000Y-94990000D03*
X120020000Y-98050000D03*
X120020000Y-96020000D03*
X120020000Y-100080000D03*
X121800000Y-99050000D03*
X120020000Y-93990000D03*
X121800000Y-92960000D03*
D18*
X124340000Y-127000000D03*
X124340000Y-114300000D03*
D19*
X121800000Y-121150000D03*
X121800000Y-119120000D03*
X120020000Y-122180000D03*
X120020000Y-120150000D03*
X120020000Y-124210000D03*
X121800000Y-123180000D03*
X120020000Y-118120000D03*
X121800000Y-117090000D03*
D20*
X54685000Y-106970000D03*
X54685000Y-111470000D03*
X48185000Y-111470000D03*
X48185000Y-106970000D03*
D21*
X60040000Y-185880000D03*
X72040000Y-185880000D03*
D22*
X66040000Y-181630000D03*
X70040000Y-181630000D03*
X62040000Y-181630000D03*
D21*
X60040000Y-179880000D03*
X72040000Y-179880000D03*
D20*
X104215000Y-106970000D03*
X104215000Y-111470000D03*
X97715000Y-111470000D03*
X97715000Y-106970000D03*
D23*
X31750000Y-31750000D03*
X120650000Y-31750000D03*
X31750000Y-181610000D03*
D24*
X30640000Y-39350000D03*
X30640000Y-36850000D03*
X30640000Y-57130000D03*
X30640000Y-54630000D03*
X30640000Y-74910000D03*
X30640000Y-72410000D03*
X30640000Y-92690000D03*
X30640000Y-90190000D03*
X30640000Y-110470000D03*
X30640000Y-107970000D03*
X30640000Y-128250000D03*
X30640000Y-125750000D03*
X30640000Y-146030000D03*
X30640000Y-143530000D03*
X30640000Y-163810000D03*
X30640000Y-161310000D03*
D23*
X120650000Y-181610000D03*
D25*
X76200000Y-44760000D03*
X76200000Y-102560000D03*
D18*
X124340000Y-78740000D03*
X124340000Y-66040000D03*
D19*
X121800000Y-72890000D03*
X121800000Y-70860000D03*
X120020000Y-73920000D03*
X120020000Y-71890000D03*
X120020000Y-75950000D03*
X121800000Y-74920000D03*
X120020000Y-69860000D03*
X121800000Y-68830000D03*
D24*
X121760000Y-135910000D03*
X121760000Y-138410000D03*
D26*
X45720000Y-36830000D03*
D27*
X45720000Y-34290000D03*
X48260000Y-36830000D03*
X48260000Y-34290000D03*
X50800000Y-36830000D03*
X50800000Y-34290000D03*
X53340000Y-36830000D03*
X53340000Y-34290000D03*
X55880000Y-36830000D03*
X55880000Y-34290000D03*
X58420000Y-36830000D03*
X58420000Y-34290000D03*
X60960000Y-36830000D03*
X60960000Y-34290000D03*
X63500000Y-36830000D03*
X63500000Y-34290000D03*
X66040000Y-36830000D03*
X66040000Y-34290000D03*
X68580000Y-36830000D03*
X68580000Y-34290000D03*
X71120000Y-36830000D03*
X71120000Y-34290000D03*
X73660000Y-36830000D03*
X73660000Y-34290000D03*
X76200000Y-36830000D03*
X76200000Y-34290000D03*
X78740000Y-36830000D03*
X78740000Y-34290000D03*
X81280000Y-36830000D03*
X81280000Y-34290000D03*
X83820000Y-36830000D03*
X83820000Y-34290000D03*
X86360000Y-36830000D03*
X86360000Y-34290000D03*
X88900000Y-36830000D03*
X88900000Y-34290000D03*
X91440000Y-36830000D03*
X91440000Y-34290000D03*
X93980000Y-36830000D03*
X93980000Y-34290000D03*
X96520000Y-36830000D03*
X96520000Y-34290000D03*
X99060000Y-36830000D03*
X99060000Y-34290000D03*
X101600000Y-36830000D03*
X101600000Y-34290000D03*
X104140000Y-36830000D03*
X104140000Y-34290000D03*
X106680000Y-36830000D03*
X106680000Y-34290000D03*
M02*
