M48
;DRILL file {KiCad 4.0.5} date 03/27/17 14:10:33
;FORMAT={-:-/ absolute / inch / decimal}
FMAT,2
INCH,TZ
T1C0.046
T2C0.067
T3C0.126
T4C0.126
T5C0.128
%
G90
G05
M72
T1
X1.2063Y-1.4508
X1.2063Y-1.5492
X1.2063Y-2.1508
X1.2063Y-2.2492
X1.2063Y-2.8508
X1.2063Y-2.9492
X1.2063Y-3.5508
X1.2063Y-3.6492
X1.2063Y-4.2508
X1.2063Y-4.3492
X1.2063Y-4.9508
X1.2063Y-5.0492
X1.2063Y-5.6508
X1.2063Y-5.7492
X1.2063Y-6.3508
X1.2063Y-6.4492
X4.7937Y-5.3508
X4.7937Y-5.4492
T2
X1.138Y-1.8
X1.138Y-2.5
X1.138Y-3.2
X1.138Y-3.9
X1.138Y-4.6
X1.138Y-5.3
X1.138Y-6.
X1.138Y-6.7
X1.414Y-1.8
X1.414Y-2.5
X1.414Y-3.2
X1.414Y-3.9
X1.414Y-4.6
X1.414Y-5.3
X1.414Y-6.
X1.414Y-6.7
T3
X1.25Y-1.25
X1.25Y-7.15
X3.4Y-6.15
X4.75Y-1.25
X4.75Y-7.15
T4
X3.Y-1.7622
X3.Y-4.0378
T5
X4.8953Y-1.65
X4.8953Y-2.15
X4.8953Y-2.6
X4.8953Y-3.1
X4.8953Y-3.55
X4.8953Y-4.05
X4.8953Y-4.5
X4.8953Y-5.
T0
M30
