G04 #@! TF.FileFunction,Soldermask,Top*
%FSLAX46Y46*%
G04 Gerber Fmt 4.6, Leading zero omitted, Abs format (unit mm)*
G04 Created by KiCad (PCBNEW 4.0.5) date 04/12/17 06:42:37*
%MOMM*%
%LPD*%
G01*
G04 APERTURE LIST*
%ADD10C,0.150000*%
%ADD11C,2.200000*%
%ADD12C,3.250000*%
%ADD13C,1.600000*%
%ADD14C,7.000000*%
%ADD15R,1.700000X1.700000*%
%ADD16O,1.700000X1.700000*%
%ADD17R,1.524000X1.524000*%
%ADD18C,1.524000*%
%ADD19C,1.168400*%
%ADD20C,7.000240*%
%ADD21R,0.635000X1.143000*%
%ADD22R,1.200000X1.200000*%
%ADD23R,2.400000X1.500000*%
%ADD24R,1.100000X0.600000*%
%ADD25R,1.803400X1.193800*%
%ADD26R,0.300000X1.450000*%
%ADD27R,1.450000X0.300000*%
%ADD28R,1.000800X0.599400*%
%ADD29R,3.300000X1.500000*%
%ADD30R,1.000000X1.500000*%
%ADD31C,1.500000*%
%ADD32R,1.143000X0.635000*%
%ADD33R,1.400000X1.200000*%
%ADD34R,1.400000X2.800000*%
%ADD35R,0.760000X2.400000*%
%ADD36O,1.574800X3.048000*%
%ADD37O,1.600200X3.048000*%
%ADD38R,1.500000X1.550000*%
%ADD39C,1.550000*%
%ADD40R,0.400000X1.350000*%
%ADD41C,1.250000*%
%ADD42R,0.889000X1.397000*%
%ADD43R,1.397000X0.889000*%
%ADD44R,3.810000X1.397000*%
%ADD45R,1.000000X0.900000*%
%ADD46R,2.209800X2.794000*%
%ADD47R,2.794000X2.794000*%
%ADD48C,1.701800*%
%ADD49R,1.600200X1.803400*%
%ADD50R,0.899200X1.000800*%
%ADD51R,1.000800X0.899200*%
%ADD52R,1.803400X1.600200*%
%ADD53R,3.599200X1.600200*%
%ADD54C,1.730000*%
%ADD55C,1.800000*%
G04 APERTURE END LIST*
D10*
D11*
X120780000Y-128780000D03*
X120780000Y-112520000D03*
D12*
X124340000Y-127000000D03*
X124340000Y-114300000D03*
D13*
X121800000Y-121150000D03*
X121800000Y-119120000D03*
X120020000Y-122180000D03*
X120020000Y-120150000D03*
X120020000Y-124210000D03*
X121800000Y-123180000D03*
X120020000Y-118120000D03*
X121800000Y-117090000D03*
D11*
X120780000Y-104650000D03*
X120780000Y-88390000D03*
D12*
X124340000Y-102870000D03*
X124340000Y-90170000D03*
D13*
X121800000Y-97020000D03*
X121800000Y-94990000D03*
X120020000Y-98050000D03*
X120020000Y-96020000D03*
X120020000Y-100080000D03*
X121800000Y-99050000D03*
X120020000Y-93990000D03*
X121800000Y-92960000D03*
D11*
X120780000Y-80520000D03*
X120780000Y-64260000D03*
D12*
X124340000Y-78740000D03*
X124340000Y-66040000D03*
D13*
X121800000Y-72890000D03*
X121800000Y-70860000D03*
X120020000Y-73920000D03*
X120020000Y-71890000D03*
X120020000Y-75950000D03*
X121800000Y-74920000D03*
X120020000Y-69860000D03*
X121800000Y-68830000D03*
D11*
X120780000Y-56390000D03*
X120780000Y-40130000D03*
D12*
X124340000Y-54610000D03*
X124340000Y-41910000D03*
D13*
X121800000Y-48760000D03*
X121800000Y-46730000D03*
X120020000Y-49790000D03*
X120020000Y-47760000D03*
X120020000Y-51820000D03*
X121800000Y-50790000D03*
X120020000Y-45730000D03*
X121800000Y-44700000D03*
D14*
X86360000Y-156210000D03*
D15*
X122174000Y-156210000D03*
D16*
X119634000Y-156210000D03*
X122174000Y-158750000D03*
X119634000Y-158750000D03*
X122174000Y-161290000D03*
X119634000Y-161290000D03*
X122174000Y-163830000D03*
X119634000Y-163830000D03*
X122174000Y-166370000D03*
X119634000Y-166370000D03*
X122174000Y-168910000D03*
X119634000Y-168910000D03*
D17*
X45720000Y-36830000D03*
D18*
X45720000Y-34290000D03*
X48260000Y-36830000D03*
X48260000Y-34290000D03*
X50800000Y-36830000D03*
X50800000Y-34290000D03*
X53340000Y-36830000D03*
X53340000Y-34290000D03*
X55880000Y-36830000D03*
X55880000Y-34290000D03*
X58420000Y-36830000D03*
X58420000Y-34290000D03*
X60960000Y-36830000D03*
X60960000Y-34290000D03*
X63500000Y-36830000D03*
X63500000Y-34290000D03*
X66040000Y-36830000D03*
X66040000Y-34290000D03*
X68580000Y-36830000D03*
X68580000Y-34290000D03*
X71120000Y-36830000D03*
X71120000Y-34290000D03*
X73660000Y-36830000D03*
X73660000Y-34290000D03*
X76200000Y-36830000D03*
X76200000Y-34290000D03*
X78740000Y-36830000D03*
X78740000Y-34290000D03*
X81280000Y-36830000D03*
X81280000Y-34290000D03*
X83820000Y-36830000D03*
X83820000Y-34290000D03*
X86360000Y-36830000D03*
X86360000Y-34290000D03*
X88900000Y-36830000D03*
X88900000Y-34290000D03*
X91440000Y-36830000D03*
X91440000Y-34290000D03*
X93980000Y-36830000D03*
X93980000Y-34290000D03*
X96520000Y-36830000D03*
X96520000Y-34290000D03*
X99060000Y-36830000D03*
X99060000Y-34290000D03*
X101600000Y-36830000D03*
X101600000Y-34290000D03*
X104140000Y-36830000D03*
X104140000Y-34290000D03*
X106680000Y-36830000D03*
X106680000Y-34290000D03*
D19*
X121760000Y-135910000D03*
X121760000Y-138410000D03*
D20*
X76200000Y-44760000D03*
X76200000Y-102560000D03*
D14*
X120650000Y-181610000D03*
D19*
X30640000Y-163810000D03*
X30640000Y-161310000D03*
X30640000Y-146030000D03*
X30640000Y-143530000D03*
X30640000Y-128250000D03*
X30640000Y-125750000D03*
X30640000Y-110470000D03*
X30640000Y-107970000D03*
X30640000Y-92690000D03*
X30640000Y-90190000D03*
X30640000Y-74910000D03*
X30640000Y-72410000D03*
X30640000Y-57130000D03*
X30640000Y-54630000D03*
X30640000Y-39350000D03*
X30640000Y-36850000D03*
D21*
X33782000Y-162560000D03*
X32258000Y-162560000D03*
X35052000Y-144780000D03*
X33528000Y-144780000D03*
X35052000Y-127000000D03*
X33528000Y-127000000D03*
X35052000Y-109220000D03*
X33528000Y-109220000D03*
X35052000Y-91440000D03*
X33528000Y-91440000D03*
X35052000Y-73660000D03*
X33528000Y-73660000D03*
X35052000Y-55880000D03*
X33528000Y-55880000D03*
X35052000Y-38100000D03*
X33528000Y-38100000D03*
D22*
X27940000Y-161460000D03*
X27940000Y-163660000D03*
X27940000Y-143680000D03*
X27940000Y-145880000D03*
X27940000Y-125900000D03*
X27940000Y-128100000D03*
X27940000Y-108120000D03*
X27940000Y-110320000D03*
X27940000Y-90340000D03*
X27940000Y-92540000D03*
X27940000Y-72560000D03*
X27940000Y-74760000D03*
X27940000Y-54780000D03*
X27940000Y-56980000D03*
X27940000Y-37000000D03*
X27940000Y-39200000D03*
D23*
X91616700Y-137071000D03*
D24*
X86066700Y-137521000D03*
X86066700Y-136621000D03*
D25*
X72136000Y-152323800D03*
X76200000Y-152323800D03*
X76200000Y-149936200D03*
X72136000Y-149936200D03*
D14*
X31750000Y-181610000D03*
X120650000Y-31750000D03*
X31750000Y-31750000D03*
D21*
X81254600Y-179616000D03*
X82778600Y-179616000D03*
X79248000Y-181229000D03*
X77724000Y-181229000D03*
X80137000Y-181229000D03*
X81661000Y-181229000D03*
D26*
X61353700Y-145320000D03*
X61861700Y-145320000D03*
X62357000Y-145320000D03*
X62852300Y-145320000D03*
X63360300Y-145320000D03*
X63855600Y-145320000D03*
X64350900Y-145320000D03*
X64858900Y-145320000D03*
X65354200Y-145320000D03*
X65849500Y-145320000D03*
X66357500Y-145320000D03*
X66852800Y-145320000D03*
X67348100Y-145320000D03*
X67856100Y-145320000D03*
X68351400Y-145320000D03*
X68846700Y-145320000D03*
X69354700Y-145320000D03*
X69850000Y-145320000D03*
X70358000Y-145320000D03*
X70853300Y-145320000D03*
X71361300Y-145320000D03*
X71856600Y-145320000D03*
X72351900Y-145320000D03*
X72859900Y-145320000D03*
X73355200Y-145320000D03*
X73850500Y-145320000D03*
X74358500Y-145320000D03*
X74853800Y-145320000D03*
X75349100Y-145320000D03*
X75857100Y-145320000D03*
X76352400Y-145320000D03*
X76847700Y-145320000D03*
X77355700Y-145320000D03*
X77851000Y-145320000D03*
X78346300Y-145320000D03*
X78854300Y-145320000D03*
D27*
X80804000Y-128866900D03*
X80804000Y-128371600D03*
X80804000Y-127876300D03*
X80804000Y-127368300D03*
X80804000Y-126873000D03*
X80804000Y-126377700D03*
X80804000Y-125869700D03*
X59404000Y-128371600D03*
X59404000Y-128866900D03*
X59404000Y-129374900D03*
X59404000Y-129870200D03*
X59404000Y-130365500D03*
X59404000Y-130873500D03*
X59404000Y-131368800D03*
X59404000Y-131864100D03*
X59404000Y-132372100D03*
X59404000Y-132867400D03*
X59404000Y-133362700D03*
X59404000Y-133870700D03*
X59404000Y-134366000D03*
X59404000Y-134874000D03*
X59404000Y-135369300D03*
X59404000Y-135877300D03*
X59404000Y-136372600D03*
X59404000Y-136867900D03*
X59404000Y-137375900D03*
X59404000Y-137871200D03*
X59404000Y-138366500D03*
X59404000Y-138874500D03*
X59404000Y-139369800D03*
X59404000Y-139865100D03*
X59404000Y-140373100D03*
X59404000Y-140868400D03*
X59404000Y-141363700D03*
X59404000Y-141871700D03*
X59404000Y-142367000D03*
X59404000Y-142862300D03*
X59404000Y-143370300D03*
X80804000Y-143370300D03*
X80804000Y-142862300D03*
X80804000Y-142367000D03*
X80804000Y-141871700D03*
X80804000Y-141363700D03*
X80804000Y-140868400D03*
X80804000Y-140373100D03*
X80804000Y-139865100D03*
X80804000Y-139369800D03*
X80804000Y-138874500D03*
X80804000Y-138366500D03*
X80804000Y-137871200D03*
X80804000Y-137375900D03*
X80804000Y-136867900D03*
X80804000Y-136372600D03*
X80804000Y-135877300D03*
X80804000Y-135369300D03*
X80804000Y-134874000D03*
X80804000Y-134366000D03*
X80804000Y-133870700D03*
X80804000Y-133362700D03*
X80804000Y-132867400D03*
X80804000Y-132372100D03*
X80804000Y-131864100D03*
X80804000Y-131368800D03*
X80804000Y-130873500D03*
X80804000Y-130365500D03*
X80804000Y-129870200D03*
X80804000Y-129374900D03*
D26*
X76352400Y-123920000D03*
X75857100Y-123920000D03*
X75349100Y-123920000D03*
X74853800Y-123920000D03*
X74358500Y-123920000D03*
X73850500Y-123920000D03*
X73355200Y-123920000D03*
X72859900Y-123920000D03*
X72351900Y-123920000D03*
X71856600Y-123920000D03*
X71361300Y-123920000D03*
X70853300Y-123920000D03*
X70358000Y-123920000D03*
X69850000Y-123920000D03*
X69354700Y-123920000D03*
X68846700Y-123920000D03*
X68351400Y-123920000D03*
X67856100Y-123920000D03*
X67348100Y-123920000D03*
X66852800Y-123920000D03*
X66357500Y-123920000D03*
X65849500Y-123920000D03*
X65354200Y-123920000D03*
X64858900Y-123920000D03*
X64350900Y-123920000D03*
X63855600Y-123920000D03*
X63360300Y-123920000D03*
X62852300Y-123920000D03*
X62357000Y-123920000D03*
X61861700Y-123920000D03*
X61353700Y-123920000D03*
X78854300Y-123920000D03*
X78346300Y-123920000D03*
X77851000Y-123920000D03*
X77355700Y-123920000D03*
X76847700Y-123920000D03*
D27*
X59404000Y-125869700D03*
X59404000Y-126377700D03*
X59404000Y-126873000D03*
X59404000Y-127368300D03*
X59404000Y-127876300D03*
D28*
X62443400Y-112839500D03*
X64556600Y-113792000D03*
X62443400Y-114744500D03*
D29*
X63500000Y-168758000D03*
D30*
X65750000Y-162458000D03*
X64250000Y-162458000D03*
X62750000Y-162458000D03*
X61250000Y-162458000D03*
D31*
X104215000Y-106970000D03*
X104215000Y-111470000D03*
X97715000Y-111470000D03*
X97715000Y-106970000D03*
X54685000Y-106970000D03*
X54685000Y-111470000D03*
X48185000Y-111470000D03*
X48185000Y-106970000D03*
D32*
X121793000Y-141986000D03*
X121793000Y-140462000D03*
D21*
X73406000Y-114046000D03*
X71882000Y-114046000D03*
X81483200Y-146228000D03*
X83007200Y-146228000D03*
X83007200Y-143980000D03*
X84531200Y-143980000D03*
X83058000Y-142240000D03*
X84582000Y-142240000D03*
X91744800Y-133477000D03*
X90220800Y-133477000D03*
D32*
X124333000Y-141986000D03*
X124333000Y-140462000D03*
D21*
X73406000Y-116586000D03*
X71882000Y-116586000D03*
D32*
X58420000Y-152908000D03*
X58420000Y-154432000D03*
X55880000Y-152908000D03*
X55880000Y-154432000D03*
X53340000Y-152908000D03*
X53340000Y-154432000D03*
X50800000Y-152908000D03*
X50800000Y-154432000D03*
D33*
X43240000Y-166200000D03*
X43240000Y-164000000D03*
D34*
X40640000Y-165100000D03*
D33*
X43240000Y-148420000D03*
X43240000Y-146220000D03*
D34*
X40640000Y-147320000D03*
D33*
X43240000Y-130640000D03*
X43240000Y-128440000D03*
D34*
X40640000Y-129540000D03*
D33*
X43240000Y-112860000D03*
X43240000Y-110660000D03*
D34*
X40640000Y-111760000D03*
D33*
X43240000Y-95080000D03*
X43240000Y-92880000D03*
D34*
X40640000Y-93980000D03*
D33*
X43240000Y-77554000D03*
X43240000Y-75354000D03*
D34*
X40640000Y-76454000D03*
D33*
X43240000Y-59520000D03*
X43240000Y-57320000D03*
D34*
X40640000Y-58420000D03*
D33*
X43240000Y-41740000D03*
X43240000Y-39540000D03*
D34*
X40640000Y-40640000D03*
D33*
X43240000Y-176360000D03*
X43240000Y-174160000D03*
D34*
X40640000Y-175260000D03*
D33*
X43240000Y-158580000D03*
X43240000Y-156380000D03*
D34*
X40640000Y-157480000D03*
D33*
X43240000Y-140800000D03*
X43240000Y-138600000D03*
D34*
X40640000Y-139700000D03*
D33*
X43240000Y-123020000D03*
X43240000Y-120820000D03*
D34*
X40640000Y-121920000D03*
D33*
X43240000Y-105240000D03*
X43240000Y-103040000D03*
D34*
X40640000Y-104140000D03*
D33*
X43240000Y-87460000D03*
X43240000Y-85260000D03*
D34*
X40640000Y-86360000D03*
D33*
X43240000Y-69680000D03*
X43240000Y-67480000D03*
D34*
X40640000Y-68580000D03*
D33*
X43240000Y-51900000D03*
X43240000Y-49700000D03*
D34*
X40640000Y-50800000D03*
D35*
X52070000Y-160700000D03*
X52070000Y-156800000D03*
X53340000Y-160700000D03*
X53340000Y-156800000D03*
X54610000Y-160700000D03*
X54610000Y-156800000D03*
X55880000Y-160700000D03*
X55880000Y-156800000D03*
X57150000Y-160700000D03*
X57150000Y-156800000D03*
D36*
X55090000Y-175895000D03*
D37*
X51590000Y-175895000D03*
D38*
X81010000Y-186510000D03*
X79010000Y-186510000D03*
D39*
X76510000Y-186510000D03*
D40*
X79360000Y-183835000D03*
X78710000Y-183835000D03*
X80010000Y-183835000D03*
X80660000Y-183835000D03*
X81310000Y-183835000D03*
D41*
X82510000Y-183835000D03*
X77510000Y-183835000D03*
D39*
X83510000Y-186510000D03*
D42*
X89369900Y-141059000D03*
X91274900Y-141059000D03*
X85572600Y-148336000D03*
X87477600Y-148336000D03*
D43*
X79248000Y-117538500D03*
X79248000Y-115633500D03*
D44*
X75565000Y-172847000D03*
X75565000Y-177419000D03*
D45*
X123410000Y-138360000D03*
X125510000Y-138360000D03*
X124460000Y-135960000D03*
D46*
X29794200Y-166471600D03*
D47*
X37185600Y-173888400D03*
D46*
X27787600Y-173888400D03*
D48*
X35915600Y-170180000D03*
X28905200Y-170180000D03*
D46*
X29794200Y-148691600D03*
D47*
X37185600Y-156108400D03*
D46*
X27787600Y-156108400D03*
D48*
X35915600Y-152400000D03*
X28905200Y-152400000D03*
D46*
X29794200Y-130911600D03*
D47*
X37185600Y-138328400D03*
D46*
X27787600Y-138328400D03*
D48*
X35915600Y-134620000D03*
X28905200Y-134620000D03*
D46*
X29794200Y-113131600D03*
D47*
X37185600Y-120548400D03*
D46*
X27787600Y-120548400D03*
D48*
X35915600Y-116840000D03*
X28905200Y-116840000D03*
D46*
X29794200Y-95351600D03*
D47*
X37185600Y-102768400D03*
D46*
X27787600Y-102768400D03*
D48*
X35915600Y-99060000D03*
X28905200Y-99060000D03*
D46*
X29794200Y-77571600D03*
D47*
X37185600Y-84988400D03*
D46*
X27787600Y-84988400D03*
D48*
X35915600Y-81280000D03*
X28905200Y-81280000D03*
D46*
X29794200Y-59791600D03*
D47*
X37185600Y-67208400D03*
D46*
X27787600Y-67208400D03*
D48*
X35915600Y-63500000D03*
X28905200Y-63500000D03*
D46*
X29794200Y-42011600D03*
D47*
X37185600Y-49428400D03*
D46*
X27787600Y-49428400D03*
D48*
X35915600Y-45720000D03*
X28905200Y-45720000D03*
D49*
X88265000Y-143764000D03*
X91059000Y-143764000D03*
D50*
X85333800Y-139357000D03*
X83830200Y-139357000D03*
X85968800Y-131191000D03*
X84465200Y-131191000D03*
D51*
X64020700Y-121261800D03*
X64020700Y-119758200D03*
D50*
X56631800Y-131953000D03*
X55128200Y-131953000D03*
D52*
X112776000Y-93853000D03*
X112776000Y-91059000D03*
X116332000Y-148463000D03*
X116332000Y-145669000D03*
D49*
X118237000Y-38100000D03*
X115443000Y-38100000D03*
D52*
X112776000Y-69723000D03*
X112776000Y-66929000D03*
X112776000Y-117983000D03*
X112776000Y-115189000D03*
X112776000Y-45593000D03*
X112776000Y-42799000D03*
D51*
X106680000Y-113548200D03*
X106680000Y-115051800D03*
D49*
X85928200Y-150393000D03*
X88722200Y-150393000D03*
D50*
X90642400Y-138773000D03*
X89138800Y-138773000D03*
X90642400Y-135369000D03*
X89138800Y-135369000D03*
D51*
X119126000Y-148833800D03*
X119126000Y-147330200D03*
X61849000Y-149214800D03*
X61849000Y-147711200D03*
D50*
X84465200Y-135128000D03*
X85968800Y-135128000D03*
X81493400Y-147726000D03*
X82997000Y-147726000D03*
X85968800Y-129667000D03*
X84465200Y-129667000D03*
X75270400Y-154661000D03*
X76774000Y-154661000D03*
X78983800Y-119380000D03*
X77480200Y-119380000D03*
X72887800Y-154686000D03*
X71384200Y-154686000D03*
D51*
X77254100Y-116012200D03*
X77254100Y-117515800D03*
D50*
X71892200Y-118618000D03*
X73395800Y-118618000D03*
D51*
X66040000Y-147838200D03*
X66040000Y-149341800D03*
D50*
X62443400Y-116357000D03*
X63947000Y-116357000D03*
D52*
X65405000Y-158623000D03*
X65405000Y-155829000D03*
D51*
X62242700Y-119758200D03*
X62242700Y-121261800D03*
D53*
X70147200Y-168021000D03*
X75648800Y-168021000D03*
X70274200Y-160274000D03*
X75775800Y-160274000D03*
D52*
X62103000Y-158623000D03*
X62103000Y-155829000D03*
D51*
X74930000Y-183398200D03*
X74930000Y-184901800D03*
D50*
X56631800Y-133858000D03*
X55128200Y-133858000D03*
D49*
X91821000Y-130556000D03*
X89027000Y-130556000D03*
X87617300Y-133147000D03*
X84823300Y-133147000D03*
D54*
X72644000Y-185674000D03*
X59436000Y-185674000D03*
D55*
X66040000Y-176834000D03*
X70739000Y-176834000D03*
X61341000Y-176834000D03*
M02*
