M48
;DRILL file {KiCad 4.0.5} date 01/22/17 20:45:49
;FORMAT={-:-/ absolute / inch / decimal}
FMAT,2
INCH,TZ
T1C0.014
T2C0.031
T3C0.032
T4C0.035
T5C0.035
T6C0.039
T7C0.040
T8C0.042
T9C0.047
T10C0.047
%
G90
G05
M72
T1
X1.2Y-2.26
X1.2Y-2.81
X1.2Y-3.36
X1.2Y-3.91
X1.2Y-4.46
X1.2Y-5.01
X1.2Y-5.56
X1.2Y-6.11
X1.83Y-2.05
X1.83Y-2.29
X1.83Y-2.6
X1.83Y-2.84
X1.83Y-3.15
X1.83Y-3.39
X1.83Y-3.7
X1.83Y-3.94
X1.83Y-4.25
X1.83Y-4.49
X1.83Y-4.8
X1.83Y-5.04
X1.83Y-5.35
X1.83Y-5.59
X1.83Y-5.9
X1.83Y-6.14
X2.075Y-6.235
X2.1275Y-4.153
X2.134Y-4.288
X2.16Y-5.19
X2.19Y-4.426
X2.1913Y-4.0723
X2.211Y-5.2485
X2.2474Y-4.2992
X2.254Y-4.368
X2.261Y-5.376
X2.304Y-6.051
X2.318Y-5.515
X2.338Y-5.727
X2.37Y-5.638
X2.38Y-4.715
X2.3904Y-4.0392
X2.3912Y-4.3872
X2.3916Y-4.3476
X2.3924Y-4.3102
X2.399Y-4.1014
X2.4008Y-4.2004
X2.415Y-5.596
X2.4155Y-3.8335
X2.4195Y-3.9301
X2.427Y-4.032
X2.4388Y-3.989
X2.44Y-4.145
X2.4426Y-4.2044
X2.443Y-5.233
X2.4491Y-4.2472
X2.4505Y-3.5735
X2.4545Y-3.833
X2.4683Y-4.058
X2.473Y-5.638
X2.49Y-3.854
X2.5023Y-4.5275
X2.5189Y-4.5646
X2.5205Y-3.5735
X2.5215Y-4.7265
X2.525Y-4.785
X2.53Y-3.5347
X2.5332Y-3.8458
X2.54Y-4.35
X2.5406Y-4.5254
X2.5435Y-3.43
X2.569Y-4.2718
X2.5826Y-3.6809
X2.5922Y-3.8472
X2.597Y-4.548
X2.63Y-4.695
X2.6316Y-3.849
X2.632Y-4.565
X2.634Y-5.484
X2.645Y-5.36
X2.6465Y-3.934
X2.648Y-3.9722
X2.664Y-5.332
X2.6704Y-4.5664
X2.684Y-5.304
X2.686Y-4.399
X2.702Y-3.837
X2.7277Y-3.965
X2.7515Y-4.146
X2.762Y-5.194
X2.768Y-3.964
X2.768Y-5.2875
X2.768Y-5.634
X2.78Y-4.213
X2.78Y-5.1
X2.7835Y-4.973
X2.798Y-3.2831
X2.806Y-4.486
X2.815Y-4.15
X2.82Y-5.535
X2.829Y-3.6
X2.833Y-3.376
X2.8475Y-6.146
X2.857Y-5.0505
X2.86Y-4.79
X2.864Y-5.419
X2.864Y-5.458
X2.864Y-5.5
X2.864Y-5.536
X2.8645Y-5.3665
X2.865Y-5.25
X2.865Y-5.285
X2.865Y-5.328
X2.8755Y-3.7144
X2.8928Y-3.6772
X2.896Y-1.859
X2.928Y-4.409
X2.9405Y-4.6869
X2.945Y-4.009
X2.9545Y-3.83
X2.971Y-4.1324
X2.978Y-5.0515
X2.985Y-3.968
X2.985Y-4.022
X2.9912Y-3.6844
X3.Y-1.801
X3.002Y-4.16
X3.0064Y-3.5566
X3.012Y-2.041
X3.012Y-4.696
X3.019Y-5.4
X3.0225Y-5.033
X3.028Y-3.9082
X3.041Y-5.362
X3.045Y-4.012
X3.0508Y-4.5626
X3.06Y-4.12
X3.066Y-3.339
X3.071Y-4.385
X3.079Y-4.435
X3.088Y-3.401
X3.09Y-4.239
X3.09Y-4.56
X3.09Y-5.9725
X3.1002Y-4.1824
X3.117Y-4.392
X3.1198Y-3.969
X3.121Y-2.892
X3.124Y-4.052
X3.1275Y-4.21
X3.1942Y-2.8806
X3.1942Y-3.2108
X3.196Y-3.515
X3.224Y-3.484
X3.2335Y-5.0917
X3.2373Y-2.9857
X3.2416Y-5.3743
X3.25Y-4.7725
X3.259Y-4.0975
X3.297Y-5.752
X3.306Y-4.657
X3.3284Y-4.7426
X3.337Y-5.04
X3.343Y-3.794
X3.369Y-5.585
X3.381Y-2.09
X3.384Y-5.929
X3.388Y-4.1205
X3.4Y-4.23
X3.4025Y-4.534
X3.406Y-4.388
X3.421Y-3.986
X3.43Y-2.82
X3.435Y-5.509
X3.447Y-5.438
X3.484Y-5.75
X3.505Y-5.467
X3.507Y-4.142
X3.51Y-5.11
X3.554Y-5.326
X3.5565Y-4.821
X3.577Y-5.25
X3.592Y-2.344
X3.597Y-5.545
X3.606Y-4.363
X3.609Y-4.23
X3.613Y-2.223
X3.6185Y-4.052
X3.634Y-5.545
X3.64Y-4.4535
X3.6405Y-4.534
X3.646Y-4.104
X3.648Y-4.155
X3.714Y-6.27
X3.722Y-4.339
X3.737Y-5.4795
X3.743Y-2.428
X3.751Y-1.526
X3.769Y-6.267
X3.773Y-3.291
X3.777Y-2.55
X3.778Y-4.03
X3.778Y-4.764
X3.823Y-6.27
X3.865Y-6.27
X3.884Y-5.46
X3.886Y-1.708
X3.886Y-1.837
X3.891Y-1.771
X3.911Y-2.428
X3.963Y-5.461
X4.017Y-2.55
X4.02Y-3.289
X4.02Y-4.768
X4.022Y-4.03
X4.09Y-5.493
X4.09Y-5.537
X4.118Y-1.705
X4.123Y-1.811
T2
X2.4425Y-6.0508
X2.6Y-6.0508
X2.7575Y-6.0508
T3
X3.0516Y-6.1376
X3.2484Y-6.1376
X3.45Y-5.7
X3.45Y-5.8
X3.45Y-5.9
X3.45Y-6.
X3.45Y-6.1
X3.45Y-6.2
T4
X3.9252Y-2.8204
X3.9252Y-2.9003
X3.9252Y-2.9802
X3.9252Y-3.0602
X3.9252Y-3.5604
X3.9252Y-3.6403
X3.9252Y-3.7202
X3.9252Y-3.8002
X3.9252Y-4.3004
X3.9252Y-4.3803
X3.9252Y-4.4602
X3.9252Y-4.5402
X3.9252Y-5.0404
X3.9252Y-5.1203
X3.9252Y-5.2002
X3.9252Y-5.2802
X3.9953Y-2.7798
X3.9953Y-2.8598
X3.9953Y-2.9397
X3.9953Y-3.0196
X3.9953Y-3.5198
X3.9953Y-3.5998
X3.9953Y-3.6797
X3.9953Y-3.7596
X3.9953Y-4.2598
X3.9953Y-4.3398
X3.9953Y-4.4197
X3.9953Y-4.4996
X3.9953Y-4.9998
X3.9953Y-5.0798
X3.9953Y-5.1597
X3.9953Y-5.2396
T5
X3.6369Y-2.0252
X3.6369Y-2.1248
X3.7369Y-2.0752
X3.7369Y-2.1748
T6
X3.1214Y-2.452
X3.1214Y-2.708
X3.2986Y-2.452
X3.2986Y-2.708
X3.4314Y-2.452
X3.4314Y-2.708
X3.6086Y-2.452
X3.6086Y-2.708
T7
X1.4Y-1.35
X1.4Y-1.45
X1.4Y-1.6
X1.4Y-1.7
X1.5Y-1.35
X1.5Y-1.45
X1.5Y-1.6
X1.5Y-1.7
X1.6Y-1.35
X1.6Y-1.45
X1.6Y-1.6
X1.6Y-1.7
X1.7Y-1.35
X1.7Y-1.45
X1.7Y-1.6
X1.7Y-1.7
X1.8Y-1.35
X1.8Y-1.45
X1.8Y-1.6
X1.8Y-1.7
X1.9Y-1.35
X1.9Y-1.45
X1.9Y-1.6
X1.9Y-1.7
X2.Y-1.35
X2.Y-1.45
X2.Y-1.6
X2.Y-1.7
X2.1Y-1.35
X2.1Y-1.45
X2.1Y-1.6
X2.1Y-1.7
X2.2Y-1.35
X2.2Y-1.45
X2.2Y-1.6
X2.2Y-1.7
X2.3Y-1.35
X2.3Y-1.45
X2.3Y-1.6
X2.3Y-1.7
X2.4Y-1.35
X2.4Y-1.45
X2.4Y-1.6
X2.4Y-1.7
X2.5Y-1.35
X2.5Y-1.45
X2.5Y-1.6
X2.5Y-1.7
X2.6Y-1.35
X2.6Y-1.45
X2.6Y-1.6
X2.6Y-1.7
X2.7Y-1.35
X2.7Y-1.45
X2.7Y-1.6
X2.7Y-1.7
X2.8Y-1.35
X2.8Y-1.45
X2.8Y-1.6
X2.8Y-1.7
X2.9Y-1.35
X2.9Y-1.45
X2.9Y-1.6
X2.9Y-1.7
X3.Y-1.35
X3.Y-1.45
X3.Y-1.6
X3.Y-1.7
X3.1Y-1.35
X3.1Y-1.45
X3.1Y-1.6
X3.1Y-1.7
X3.2Y-1.35
X3.2Y-1.45
X3.2Y-1.6
X3.2Y-1.7
X3.3Y-1.35
X3.3Y-1.45
X3.3Y-1.6
X3.3Y-1.7
X3.4Y-1.35
X3.4Y-1.45
X3.4Y-1.6
X3.4Y-1.7
X3.5Y-1.35
X3.5Y-1.45
X3.5Y-1.6
X3.5Y-1.7
X3.6Y-1.35
X3.6Y-1.45
X3.6Y-1.6
X3.6Y-1.7
X3.7Y-1.35
X3.7Y-1.45
X3.7Y-1.6
X3.7Y-1.7
X3.8Y-1.35
X3.8Y-1.45
X3.8Y-1.6
X3.8Y-1.7
T8
X3.0122Y-6.2429
X3.2878Y-6.2429
T9
X2.3638Y-5.9819
X2.3638Y-6.2181
X2.8362Y-5.9819
X2.8362Y-6.2181
T10
X2.13Y-5.8461
X2.13Y-5.9839
T0
M30
