M48
;DRILL file {KiCad 4.0.5} date 04/03/17 14:31:19
;FORMAT={-:-/ absolute / inch / decimal}
FMAT,2
INCH,TZ
T1C0.014
T2C0.031
T3C0.032
T4C0.035
T5C0.039
T6C0.040
T7C0.042
T8C0.047
T9C0.047
%
G90
G05
M72
T1
X1.15Y-1.545
X1.15Y-2.245
X1.15Y-2.945
X1.15Y-3.645
X1.15Y-4.345
X1.15Y-5.045
X1.15Y-5.745
X1.15Y-6.445
X1.155Y-2.65
X1.155Y-3.35
X1.16Y-1.95
X1.16Y-5.445
X1.165Y-4.045
X1.165Y-4.745
X1.165Y-6.145
X1.165Y-6.845
X1.7045Y-4.1005
X1.74Y-3.
X1.7483Y-4.6002
X1.75Y-2.65
X1.755Y-4.76
X1.755Y-5.76
X1.755Y-6.16
X1.755Y-6.46
X1.755Y-6.86
X1.76Y-1.555
X1.76Y-1.96
X1.76Y-2.26
X1.76Y-3.36
X1.76Y-3.66
X1.76Y-4.06
X1.76Y-4.36
X1.76Y-5.06
X1.76Y-5.46
X1.9701Y-4.1893
X1.9735Y-6.3116
X1.98Y-5.6026
X1.9923Y-5.6945
X1.9939Y-5.09
X2.0135Y-4.4136
X2.0218Y-4.0579
X2.0371Y-4.3506
X2.0571Y-4.4839
X2.063Y-5.2464
X2.0777Y-5.6776
X2.0783Y-4.5561
X2.0905Y-4.4134
X2.0907Y-6.2499
X2.1Y-6.41
X2.1132Y-4.0621
X2.1321Y-4.5482
X2.1397Y-4.4602
X2.1464Y-6.2588
X2.15Y-4.0702
X2.17Y-5.32
X2.1703Y-4.4595
X2.1942Y-4.8131
X2.2005Y-5.41
X2.2038Y-4.7226
X2.2235Y-4.5112
X2.225Y-5.32
X2.225Y-5.725
X2.2338Y-6.2539
X2.2426Y-5.8044
X2.2487Y-4.0581
X2.25Y-6.41
X2.2564Y-4.4148
X2.2566Y-4.7097
X2.2657Y-4.5357
X2.2719Y-5.6791
X2.2729Y-5.723
X2.3121Y-4.1665
X2.32Y-5.82
X2.3285Y-6.1757
X2.3325Y-5.719
X2.355Y-4.77
X2.3671Y-4.4934
X2.3717Y-4.2581
X2.3806Y-5.8473
X2.3815Y-4.4468
X2.3853Y-5.3276
X2.3904Y-4.5421
X2.3919Y-4.2064
X2.395Y-6.565
X2.3969Y-5.7652
X2.3989Y-5.0438
X2.3989Y-5.3906
X2.4Y-4.715
X2.4036Y-4.8321
X2.4073Y-5.6242
X2.4107Y-5.0918
X2.43Y-6.565
X2.438Y-5.0159
X2.44Y-5.915
X2.445Y-4.815
X2.445Y-6.075
X2.4455Y-4.4005
X2.4468Y-4.4795
X2.4514Y-4.359
X2.4552Y-4.2468
X2.4552Y-4.2795
X2.4566Y-4.3121
X2.465Y-6.565
X2.4783Y-5.2181
X2.4822Y-4.4115
X2.49Y-5.82
X2.5Y-6.565
X2.5013Y-4.4858
X2.5045Y-6.2061
X2.51Y-6.325
X2.535Y-6.565
X2.55Y-4.35
X2.5593Y-4.7172
X2.5681Y-4.3908
X2.57Y-6.565
X2.575Y-6.075
X2.6Y-5.92
X2.6045Y-5.0043
X2.605Y-6.565
X2.6255Y-4.4735
X2.6374Y-5.6734
X2.645Y-5.82
X2.6602Y-5.5256
X2.6673Y-5.4776
X2.67Y-6.325
X2.6701Y-5.6691
X2.6776Y-5.7862
X2.7001Y-5.478
X2.703Y-5.6659
X2.7287Y-5.7703
X2.7586Y-5.661
X2.77Y-6.09
X2.7716Y-4.9679
X2.78Y-5.9
X2.7816Y-4.6913
X2.7854Y-5.7806
X2.7889Y-5.0106
X2.793Y-5.645
X2.795Y-4.59
X2.8013Y-4.9806
X2.8081Y-4.8155
X2.8122Y-5.1976
X2.8189Y-5.6746
X2.8221Y-6.2595
X2.8286Y-5.7925
X2.8567Y-5.0088
X2.8592Y-5.4916
X2.8714Y-4.7271
X2.8743Y-5.8023
X2.8872Y-4.8164
X2.8997Y-6.0072
X2.9089Y-4.71
X2.9277Y-5.3081
X2.94Y-5.955
X2.94Y-6.04
X2.9419Y-5.4499
X2.9446Y-5.8224
X2.9447Y-5.7699
X2.9487Y-5.2162
X2.9513Y-5.6583
X2.974Y-5.8054
X2.984Y-5.6746
X2.9845Y-4.8163
X3.0143Y-4.8011
X3.02Y-7.13
X3.025Y-7.285
X3.0294Y-7.09
X3.03Y-6.55
X3.035Y-6.25
X3.045Y-4.665
X3.045Y-5.67
X3.0509Y-5.3745
X3.0629Y-5.4128
X3.0634Y-4.8038
X3.0905Y-5.2653
X3.1167Y-5.5904
X3.1297Y-5.5516
X3.1322Y-5.3245
X3.1323Y-5.4759
X3.1325Y-5.2935
X3.134Y-5.2515
X3.22Y-7.185
X3.2299Y-5.4276
X3.235Y-5.59
X3.2398Y-5.723
X3.247Y-5.2063
X3.27Y-5.35
X3.27Y-5.87
X3.27Y-7.13
X3.2785Y-5.0054
X3.2797Y-4.2438
X3.28Y-5.2525
X3.2891Y-5.0869
X3.295Y-5.71
X3.3101Y-5.4058
X3.32Y-7.285
X3.3259Y-5.7094
X3.328Y-4.9966
X3.3599Y-5.6822
X3.385Y-5.06
X3.3887Y-5.5788
X3.4351Y-5.4311
X3.4463Y-5.3785
X3.4525Y-5.1675
X3.4982Y-5.2889
X3.56Y-5.92
X3.5702Y-5.5991
X3.6063Y-5.7248
X3.61Y-5.08
X3.65Y-5.66
X3.68Y-5.4
X3.7297Y-5.0104
X3.747Y-4.8453
X3.7507Y-4.9009
X3.7624Y-4.9963
X3.7933Y-4.8745
X3.8086Y-4.0497
X3.8765Y-1.7269
X3.8947Y-4.9287
X3.92Y-1.84
X3.9252Y-4.0557
X4.0011Y-5.5846
X4.0013Y-4.9403
X4.0161Y-4.4015
X4.0324Y-5.7251
X4.0326Y-5.1777
X4.037Y-5.6037
X4.0451Y-5.1297
X4.0488Y-4.8998
X4.0504Y-4.3223
X4.055Y-4.7892
X4.0755Y-5.7163
X4.0756Y-4.2676
X4.0805Y-4.9353
X4.1292Y-5.9687
X4.2383Y-6.0481
X4.3194Y-1.9551
X4.3203Y-1.99
X4.3229Y-3.8757
X4.3232Y-2.577
X4.3295Y-3.6333
X4.332Y-4.0676
X4.3523Y-3.53
X4.3523Y-4.4805
X4.3557Y-6.0091
X4.3739Y-4.0745
X4.3939Y-3.518
X4.4Y-2.9096
X4.4133Y-2.9408
X4.53Y-1.795
X4.53Y-2.745
X4.535Y-3.695
X4.535Y-4.645
X4.58Y-5.67
X4.6392Y-6.0623
X4.655Y-1.565
X4.69Y-5.75
X4.81Y-6.015
X4.9Y-5.285
T2
X2.4425Y-7.1508
X2.6Y-7.1508
X2.7575Y-7.1508
T3
X3.0516Y-7.2376
X3.2484Y-7.2376
T4
X4.7252Y-1.8004
X4.7252Y-1.8803
X4.7252Y-1.9602
X4.7252Y-2.0402
X4.7252Y-2.7504
X4.7252Y-2.8303
X4.7252Y-2.9102
X4.7252Y-2.9902
X4.7252Y-3.7004
X4.7252Y-3.7803
X4.7252Y-3.8602
X4.7252Y-3.9402
X4.7252Y-4.6504
X4.7252Y-4.7303
X4.7252Y-4.8102
X4.7252Y-4.8902
X4.7953Y-1.7598
X4.7953Y-1.8398
X4.7953Y-1.9197
X4.7953Y-1.9996
X4.7953Y-2.7098
X4.7953Y-2.7898
X4.7953Y-2.8697
X4.7953Y-2.9496
X4.7953Y-3.6598
X4.7953Y-3.7398
X4.7953Y-3.8197
X4.7953Y-3.8996
X4.7953Y-4.6098
X4.7953Y-4.6898
X4.7953Y-4.7697
X4.7953Y-4.8496
T5
X1.897Y-4.2114
X1.897Y-4.3886
X2.153Y-4.2114
X2.153Y-4.3886
X3.847Y-4.2114
X3.847Y-4.3886
X4.103Y-4.2114
X4.103Y-4.3886
X4.71Y-6.15
X4.71Y-6.25
X4.71Y-6.35
X4.71Y-6.45
X4.71Y-6.55
X4.71Y-6.65
X4.81Y-6.15
X4.81Y-6.25
X4.81Y-6.35
X4.81Y-6.45
X4.81Y-6.55
X4.81Y-6.65
T6
X1.8Y-1.35
X1.8Y-1.45
X1.9Y-1.35
X1.9Y-1.45
X2.Y-1.35
X2.Y-1.45
X2.1Y-1.35
X2.1Y-1.45
X2.2Y-1.35
X2.2Y-1.45
X2.3Y-1.35
X2.3Y-1.45
X2.4Y-1.35
X2.4Y-1.45
X2.5Y-1.35
X2.5Y-1.45
X2.6Y-1.35
X2.6Y-1.45
X2.7Y-1.35
X2.7Y-1.45
X2.8Y-1.35
X2.8Y-1.45
X2.9Y-1.35
X2.9Y-1.45
X3.Y-1.35
X3.Y-1.45
X3.1Y-1.35
X3.1Y-1.45
X3.2Y-1.35
X3.2Y-1.45
X3.3Y-1.35
X3.3Y-1.45
X3.4Y-1.35
X3.4Y-1.45
X3.5Y-1.35
X3.5Y-1.45
X3.6Y-1.35
X3.6Y-1.45
X3.7Y-1.35
X3.7Y-1.45
X3.8Y-1.35
X3.8Y-1.45
X3.9Y-1.35
X3.9Y-1.45
X4.Y-1.35
X4.Y-1.45
X4.1Y-1.35
X4.1Y-1.45
X4.2Y-1.35
X4.2Y-1.45
T7
X3.0122Y-7.3429
X3.2878Y-7.3429
T8
X2.3638Y-7.0819
X2.3638Y-7.3181
X2.8362Y-7.0819
X2.8362Y-7.3181
T9
X2.0311Y-6.9
X2.1689Y-6.9
T0
M30
