M48
;DRILL file {KiCad 4.0.5} date 03/10/17 13:24:57
;FORMAT={-:-/ absolute / inch / decimal}
FMAT,2
INCH,TZ
T1C0.014
T2C0.031
T3C0.032
T4C0.035
T5C0.039
T6C0.040
T7C0.042
T8C0.047
T9C0.047
%
G90
G05
M72
T1
X1.15Y-1.545
X1.15Y-2.245
X1.15Y-2.945
X1.15Y-3.645
X1.15Y-4.345
X1.15Y-5.045
X1.15Y-5.745
X1.15Y-6.445
X1.155Y-2.65
X1.155Y-3.35
X1.16Y-1.95
X1.16Y-5.445
X1.165Y-4.045
X1.165Y-4.745
X1.165Y-6.145
X1.165Y-6.845
X1.6507Y-3.4286
X1.6768Y-4.485
X1.6842Y-1.8799
X1.6999Y-2.2149
X1.7257Y-3.7886
X1.732Y-4.1005
X1.74Y-3.
X1.7401Y-4.5354
X1.745Y-2.8
X1.755Y-4.76
X1.755Y-5.76
X1.755Y-6.16
X1.755Y-6.46
X1.755Y-6.86
X1.7574Y-4.9545
X1.76Y-1.555
X1.76Y-1.96
X1.76Y-2.26
X1.76Y-3.36
X1.76Y-3.66
X1.76Y-4.06
X1.76Y-4.36
X1.76Y-5.06
X1.76Y-5.46
X1.7621Y-4.6065
X1.763Y-4.396
X1.7721Y-4.4838
X1.9976Y-5.6892
X2.0035Y-5.8268
X2.0846Y-6.2444
X2.0917Y-4.4129
X2.0947Y-5.7049
X2.1Y-6.41
X2.127Y-4.4716
X2.1296Y-6.2431
X2.1492Y-5.7618
X2.1635Y-4.9713
X2.17Y-5.32
X2.1948Y-4.676
X2.1962Y-4.5086
X2.2178Y-4.4874
X2.225Y-5.32
X2.225Y-5.725
X2.2285Y-4.4199
X2.2396Y-4.538
X2.2486Y-4.734
X2.2486Y-4.3852
X2.25Y-6.41
X2.2619Y-5.5263
X2.2705Y-4.542
X2.2752Y-5.6017
X2.2789Y-6.2628
X2.2831Y-5.7186
X2.3072Y-4.6352
X2.3097Y-4.774
X2.32Y-5.82
X2.3285Y-6.1759
X2.3296Y-4.7054
X2.3353Y-4.5453
X2.3456Y-5.71
X2.3483Y-5.7477
X2.355Y-4.77
X2.3649Y-6.3033
X2.3833Y-4.0577
X2.3854Y-4.9443
X2.3865Y-5.7181
X2.3904Y-5.0284
X2.3929Y-5.447
X2.395Y-6.565
X2.4Y-4.715
X2.402Y-4.9948
X2.4242Y-4.2973
X2.43Y-6.565
X2.4312Y-5.0387
X2.44Y-5.915
X2.445Y-4.0599
X2.445Y-4.815
X2.445Y-6.075
X2.4501Y-4.2316
X2.4562Y-5.0023
X2.4601Y-4.4728
X2.465Y-6.565
X2.4673Y-4.3052
X2.4696Y-6.7553
X2.4698Y-4.3704
X2.4699Y-4.963
X2.4708Y-4.9315
X2.4896Y-4.4159
X2.49Y-5.82
X2.497Y-4.4702
X2.5Y-6.565
X2.5048Y-4.5274
X2.507Y-5.1821
X2.51Y-6.325
X2.5162Y-5.5079
X2.52Y-4.65
X2.5281Y-4.2253
X2.535Y-4.315
X2.535Y-6.565
X2.5428Y-4.0557
X2.543Y-5.0096
X2.554Y-5.5288
X2.558Y-5.2036
X2.5614Y-4.7536
X2.5623Y-4.9728
X2.57Y-6.565
X2.575Y-6.075
X2.5963Y-4.9269
X2.6Y-5.92
X2.605Y-6.565
X2.6292Y-5.6597
X2.6423Y-5.5408
X2.645Y-5.82
X2.67Y-6.325
X2.6834Y-5.6375
X2.6856Y-5.7866
X2.691Y-5.6717
X2.7132Y-5.5787
X2.7155Y-5.4687
X2.7631Y-5.7986
X2.77Y-6.09
X2.78Y-5.9
X2.7891Y-5.6703
X2.7946Y-5.6283
X2.8093Y-4.8304
X2.81Y-4.7925
X2.8161Y-5.7804
X2.8164Y-5.6495
X2.8166Y-4.5494
X2.8378Y-5.6706
X2.8775Y-4.7225
X2.8945Y-4.8137
X2.8955Y-4.9369
X2.9043Y-5.4844
X2.9253Y-5.8074
X2.9269Y-5.8644
X2.9375Y-5.437
X2.94Y-5.955
X2.94Y-6.04
X2.9461Y-5.6726
X2.9571Y-4.9526
X2.9576Y-5.2608
X2.9705Y-5.422
X2.9714Y-4.8124
X2.9821Y-4.9342
X2.9918Y-5.7784
X3.0036Y-5.6583
X3.0074Y-4.8154
X3.02Y-7.13
X3.025Y-7.285
X3.03Y-6.55
X3.035Y-6.25
X3.045Y-4.665
X3.045Y-5.67
X3.053Y-4.9494
X3.059Y-5.4154
X3.0898Y-5.5833
X3.108Y-5.2811
X3.1323Y-5.3028
X3.1323Y-5.5955
X3.134Y-5.4693
X3.134Y-5.2128
X3.2206Y-5.7038
X3.235Y-5.59
X3.239Y-7.179
X3.2479Y-5.2069
X3.248Y-5.5322
X3.2628Y-5.7142
X3.2649Y-5.0386
X3.27Y-5.35
X3.27Y-5.87
X3.28Y-5.2525
X3.295Y-5.71
X3.32Y-7.285
X3.36Y-5.53
X3.365Y-5.6191
X3.3683Y-5.6616
X3.385Y-5.06
X3.4355Y-5.4707
X3.4525Y-5.1675
X3.5059Y-5.2233
X3.515Y-5.285
X3.56Y-5.92
X3.6002Y-5.6025
X3.615Y-5.2
X3.6447Y-1.7273
X3.65Y-5.66
X3.7237Y-4.3089
X3.7415Y-5.4913
X3.7424Y-4.0771
X3.7459Y-4.9383
X3.7658Y-4.3519
X3.7849Y-4.0657
X3.7952Y-5.48
X3.8025Y-4.9686
X3.8309Y-1.7294
X3.8765Y-4.048
X3.8907Y-5.4942
X3.9018Y-5.5785
X3.9524Y-4.3279
X3.9652Y-4.2961
X3.9655Y-4.9944
X3.9884Y-5.0712
X4.0082Y-4.9457
X4.0459Y-5.0612
X4.0714Y-4.817
X4.0805Y-4.97
X4.0805Y-5.5992
X4.0805Y-5.7138
X4.3075Y-3.0075
X4.3226Y-3.5997
X4.3238Y-2.3289
X4.3238Y-3.4037
X4.3302Y-4.0522
X4.3573Y-4.378
X4.3585Y-4.1419
X4.3728Y-3.1411
X4.3875Y-3.9475
X4.41Y-2.29
X4.5275Y-1.795
X4.53Y-2.745
X4.535Y-3.695
X4.535Y-4.645
X4.58Y-5.67
X4.655Y-1.565
X4.69Y-5.75
X4.725Y-2.5875
X4.9Y-5.285
T2
X2.4425Y-7.1508
X2.6Y-7.1508
X2.7575Y-7.1508
T3
X3.0516Y-7.2376
X3.2484Y-7.2376
T4
X4.7252Y-1.8004
X4.7252Y-1.8803
X4.7252Y-1.9602
X4.7252Y-2.0402
X4.7252Y-2.7504
X4.7252Y-2.8303
X4.7252Y-2.9102
X4.7252Y-2.9902
X4.7252Y-3.7004
X4.7252Y-3.7803
X4.7252Y-3.8602
X4.7252Y-3.9402
X4.7252Y-4.6504
X4.7252Y-4.7303
X4.7252Y-4.8102
X4.7252Y-4.8902
X4.7953Y-1.7598
X4.7953Y-1.8398
X4.7953Y-1.9197
X4.7953Y-1.9996
X4.7953Y-2.7098
X4.7953Y-2.7898
X4.7953Y-2.8697
X4.7953Y-2.9496
X4.7953Y-3.6598
X4.7953Y-3.7398
X4.7953Y-3.8197
X4.7953Y-3.8996
X4.7953Y-4.6098
X4.7953Y-4.6898
X4.7953Y-4.7697
X4.7953Y-4.8496
T5
X1.897Y-4.2114
X1.897Y-4.3886
X2.153Y-4.2114
X2.153Y-4.3886
X3.847Y-4.2114
X3.847Y-4.3886
X4.103Y-4.2114
X4.103Y-4.3886
X4.8Y-6.
X4.8Y-6.1
X4.8Y-6.2
X4.8Y-6.3
X4.8Y-6.4
X4.8Y-6.5
X4.8Y-6.6
X4.8Y-6.7
X4.8Y-6.8
X4.8Y-6.9
T6
X1.8Y-1.35
X1.8Y-1.45
X1.9Y-1.35
X1.9Y-1.45
X2.Y-1.35
X2.Y-1.45
X2.1Y-1.35
X2.1Y-1.45
X2.2Y-1.35
X2.2Y-1.45
X2.3Y-1.35
X2.3Y-1.45
X2.4Y-1.35
X2.4Y-1.45
X2.5Y-1.35
X2.5Y-1.45
X2.6Y-1.35
X2.6Y-1.45
X2.7Y-1.35
X2.7Y-1.45
X2.8Y-1.35
X2.8Y-1.45
X2.9Y-1.35
X2.9Y-1.45
X3.Y-1.35
X3.Y-1.45
X3.1Y-1.35
X3.1Y-1.45
X3.2Y-1.35
X3.2Y-1.45
X3.3Y-1.35
X3.3Y-1.45
X3.4Y-1.35
X3.4Y-1.45
X3.5Y-1.35
X3.5Y-1.45
X3.6Y-1.35
X3.6Y-1.45
X3.7Y-1.35
X3.7Y-1.45
X3.8Y-1.35
X3.8Y-1.45
X3.9Y-1.35
X3.9Y-1.45
X4.Y-1.35
X4.Y-1.45
X4.1Y-1.35
X4.1Y-1.45
X4.2Y-1.35
X4.2Y-1.45
T7
X3.0122Y-7.3429
X3.2878Y-7.3429
T8
X2.3638Y-7.0819
X2.3638Y-7.3181
X2.8362Y-7.0819
X2.8362Y-7.3181
T9
X2.0311Y-6.9
X2.1689Y-6.9
T0
M30
