G04 #@! TF.FileFunction,Soldermask,Top*
%FSLAX46Y46*%
G04 Gerber Fmt 4.6, Leading zero omitted, Abs format (unit mm)*
G04 Created by KiCad (PCBNEW 4.0.7) date 03/31/18 19:25:59*
%MOMM*%
%LPD*%
G01*
G04 APERTURE LIST*
%ADD10C,0.150000*%
%ADD11R,1.150000X1.200000*%
%ADD12R,1.200000X1.150000*%
%ADD13R,0.900000X1.300000*%
%ADD14R,1.400000X2.000000*%
%ADD15C,2.600000*%
%ADD16C,3.650000*%
%ADD17C,2.000000*%
%ADD18R,1.050000X0.800000*%
%ADD19C,1.900000*%
%ADD20C,5.400000*%
%ADD21R,2.000000X1.400000*%
G04 APERTURE END LIST*
D10*
D11*
X49276000Y-39509000D03*
X49276000Y-41009000D03*
D12*
X54622000Y-31877000D03*
X56122000Y-31877000D03*
X47002000Y-32639000D03*
X48502000Y-32639000D03*
D13*
X51574000Y-34925000D03*
X53074000Y-34925000D03*
X54368000Y-34925000D03*
X55868000Y-34925000D03*
X46494000Y-39751000D03*
X47994000Y-39751000D03*
X50558000Y-39751000D03*
X52058000Y-39751000D03*
X51320000Y-31877000D03*
X52820000Y-31877000D03*
X47002000Y-34163000D03*
X48502000Y-34163000D03*
D14*
X53824000Y-36957000D03*
X50824000Y-36957000D03*
D15*
X31620000Y-27430000D03*
X31620000Y-43690000D03*
D16*
X28060000Y-29210000D03*
X28060000Y-41910000D03*
D17*
X30600000Y-35060000D03*
X30600000Y-37090000D03*
X32380000Y-34030000D03*
X32380000Y-36060000D03*
X32380000Y-32000000D03*
X30600000Y-33030000D03*
X32380000Y-38090000D03*
X30600000Y-39120000D03*
D18*
X48702000Y-37607000D03*
X48702000Y-36307000D03*
X48702000Y-36957000D03*
X46802000Y-36307000D03*
X46802000Y-37607000D03*
D19*
X67310000Y-34290000D03*
X67310000Y-36830000D03*
D20*
X41910000Y-28575000D03*
X41910000Y-42545000D03*
X59690000Y-28575000D03*
X59690000Y-42545000D03*
D21*
X41910000Y-34060000D03*
X41910000Y-37060000D03*
M02*
