G04 #@! TF.FileFunction,Legend,Top*
%FSLAX46Y46*%
G04 Gerber Fmt 4.6, Leading zero omitted, Abs format (unit mm)*
G04 Created by KiCad (PCBNEW 4.0.7) date 01/10/18 16:34:07*
%MOMM*%
%LPD*%
G01*
G04 APERTURE LIST*
%ADD10C,0.150000*%
%ADD11C,0.228600*%
%ADD12C,0.120000*%
%ADD13C,0.149860*%
%ADD14C,0.152400*%
G04 APERTURE END LIST*
D10*
D11*
X63717714Y-27431093D02*
X63881000Y-27485521D01*
X64153143Y-27485521D01*
X64262000Y-27431093D01*
X64316429Y-27376664D01*
X64370857Y-27267807D01*
X64370857Y-27158950D01*
X64316429Y-27050093D01*
X64262000Y-26995664D01*
X64153143Y-26941236D01*
X63935429Y-26886807D01*
X63826571Y-26832379D01*
X63772143Y-26777950D01*
X63717714Y-26669093D01*
X63717714Y-26560236D01*
X63772143Y-26451379D01*
X63826571Y-26396950D01*
X63935429Y-26342521D01*
X64207571Y-26342521D01*
X64370857Y-26396950D01*
X65024000Y-27485521D02*
X64915142Y-27431093D01*
X64860714Y-27376664D01*
X64806285Y-27267807D01*
X64806285Y-26941236D01*
X64860714Y-26832379D01*
X64915142Y-26777950D01*
X65024000Y-26723521D01*
X65187285Y-26723521D01*
X65296142Y-26777950D01*
X65350571Y-26832379D01*
X65405000Y-26941236D01*
X65405000Y-27267807D01*
X65350571Y-27376664D01*
X65296142Y-27431093D01*
X65187285Y-27485521D01*
X65024000Y-27485521D01*
X66384714Y-26723521D02*
X66384714Y-27485521D01*
X65894857Y-26723521D02*
X65894857Y-27322236D01*
X65949285Y-27431093D01*
X66058143Y-27485521D01*
X66221428Y-27485521D01*
X66330285Y-27431093D01*
X66384714Y-27376664D01*
X66929000Y-26723521D02*
X66929000Y-27485521D01*
X66929000Y-26832379D02*
X66983428Y-26777950D01*
X67092286Y-26723521D01*
X67255571Y-26723521D01*
X67364428Y-26777950D01*
X67418857Y-26886807D01*
X67418857Y-27485521D01*
X68453000Y-27485521D02*
X68453000Y-26342521D01*
X68453000Y-27431093D02*
X68344143Y-27485521D01*
X68126429Y-27485521D01*
X68017571Y-27431093D01*
X67963143Y-27376664D01*
X67908714Y-27267807D01*
X67908714Y-26941236D01*
X67963143Y-26832379D01*
X68017571Y-26777950D01*
X68126429Y-26723521D01*
X68344143Y-26723521D01*
X68453000Y-26777950D01*
X69868143Y-27485521D02*
X69868143Y-26342521D01*
X70249143Y-27158950D01*
X70630143Y-26342521D01*
X70630143Y-27485521D01*
X71337715Y-27485521D02*
X71228857Y-27431093D01*
X71174429Y-27376664D01*
X71120000Y-27267807D01*
X71120000Y-26941236D01*
X71174429Y-26832379D01*
X71228857Y-26777950D01*
X71337715Y-26723521D01*
X71501000Y-26723521D01*
X71609857Y-26777950D01*
X71664286Y-26832379D01*
X71718715Y-26941236D01*
X71718715Y-27267807D01*
X71664286Y-27376664D01*
X71609857Y-27431093D01*
X71501000Y-27485521D01*
X71337715Y-27485521D01*
X72698429Y-27485521D02*
X72698429Y-26342521D01*
X72698429Y-27431093D02*
X72589572Y-27485521D01*
X72371858Y-27485521D01*
X72263000Y-27431093D01*
X72208572Y-27376664D01*
X72154143Y-27267807D01*
X72154143Y-26941236D01*
X72208572Y-26832379D01*
X72263000Y-26777950D01*
X72371858Y-26723521D01*
X72589572Y-26723521D01*
X72698429Y-26777950D01*
X73732572Y-26723521D02*
X73732572Y-27485521D01*
X73242715Y-26723521D02*
X73242715Y-27322236D01*
X73297143Y-27431093D01*
X73406001Y-27485521D01*
X73569286Y-27485521D01*
X73678143Y-27431093D01*
X73732572Y-27376664D01*
X74440144Y-27485521D02*
X74331286Y-27431093D01*
X74276858Y-27322236D01*
X74276858Y-26342521D01*
X75311000Y-27431093D02*
X75202143Y-27485521D01*
X74984429Y-27485521D01*
X74875572Y-27431093D01*
X74821143Y-27322236D01*
X74821143Y-26886807D01*
X74875572Y-26777950D01*
X74984429Y-26723521D01*
X75202143Y-26723521D01*
X75311000Y-26777950D01*
X75365429Y-26886807D01*
X75365429Y-26995664D01*
X74821143Y-27104521D01*
X63717714Y-28394479D02*
X63772143Y-28340050D01*
X63881000Y-28285621D01*
X64153143Y-28285621D01*
X64262000Y-28340050D01*
X64316429Y-28394479D01*
X64370857Y-28503336D01*
X64370857Y-28612193D01*
X64316429Y-28775479D01*
X63663286Y-29428621D01*
X64370857Y-29428621D01*
X65078428Y-28285621D02*
X65187285Y-28285621D01*
X65296142Y-28340050D01*
X65350571Y-28394479D01*
X65405000Y-28503336D01*
X65459428Y-28721050D01*
X65459428Y-28993193D01*
X65405000Y-29210907D01*
X65350571Y-29319764D01*
X65296142Y-29374193D01*
X65187285Y-29428621D01*
X65078428Y-29428621D01*
X64969571Y-29374193D01*
X64915142Y-29319764D01*
X64860714Y-29210907D01*
X64806285Y-28993193D01*
X64806285Y-28721050D01*
X64860714Y-28503336D01*
X64915142Y-28394479D01*
X64969571Y-28340050D01*
X65078428Y-28285621D01*
X66547999Y-29428621D02*
X65894856Y-29428621D01*
X66221428Y-29428621D02*
X66221428Y-28285621D01*
X66112571Y-28448907D01*
X66003713Y-28557764D01*
X65894856Y-28612193D01*
X66928999Y-28285621D02*
X67690999Y-28285621D01*
X67201142Y-29428621D01*
X68126427Y-29319764D02*
X68180855Y-29374193D01*
X68126427Y-29428621D01*
X68071998Y-29374193D01*
X68126427Y-29319764D01*
X68126427Y-29428621D01*
X69269427Y-29428621D02*
X68616284Y-29428621D01*
X68942856Y-29428621D02*
X68942856Y-28285621D01*
X68833999Y-28448907D01*
X68725141Y-28557764D01*
X68616284Y-28612193D01*
X69704855Y-28394479D02*
X69759284Y-28340050D01*
X69868141Y-28285621D01*
X70140284Y-28285621D01*
X70249141Y-28340050D01*
X70303570Y-28394479D01*
X70357998Y-28503336D01*
X70357998Y-28612193D01*
X70303570Y-28775479D01*
X69650427Y-29428621D01*
X70357998Y-29428621D01*
X70847855Y-29319764D02*
X70902283Y-29374193D01*
X70847855Y-29428621D01*
X70793426Y-29374193D01*
X70847855Y-29319764D01*
X70847855Y-29428621D01*
X71337712Y-28394479D02*
X71392141Y-28340050D01*
X71500998Y-28285621D01*
X71773141Y-28285621D01*
X71881998Y-28340050D01*
X71936427Y-28394479D01*
X71990855Y-28503336D01*
X71990855Y-28612193D01*
X71936427Y-28775479D01*
X71283284Y-29428621D01*
X71990855Y-29428621D01*
X72371855Y-28285621D02*
X73079426Y-28285621D01*
X72698426Y-28721050D01*
X72861712Y-28721050D01*
X72970569Y-28775479D01*
X73024998Y-28829907D01*
X73079426Y-28938764D01*
X73079426Y-29210907D01*
X73024998Y-29319764D01*
X72970569Y-29374193D01*
X72861712Y-29428621D01*
X72535140Y-29428621D01*
X72426283Y-29374193D01*
X72371855Y-29319764D01*
D12*
X65116000Y-39274000D02*
X65116000Y-39974000D01*
X63916000Y-39974000D02*
X63916000Y-39274000D01*
X70262000Y-30642000D02*
X70962000Y-30642000D01*
X70962000Y-31842000D02*
X70262000Y-31842000D01*
X62642000Y-31404000D02*
X63342000Y-31404000D01*
X63342000Y-32604000D02*
X62642000Y-32604000D01*
X68064000Y-34970000D02*
X67064000Y-34970000D01*
X67064000Y-33610000D02*
X68064000Y-33610000D01*
X70858000Y-34970000D02*
X69858000Y-34970000D01*
X69858000Y-33610000D02*
X70858000Y-33610000D01*
X62984000Y-39796000D02*
X61984000Y-39796000D01*
X61984000Y-38436000D02*
X62984000Y-38436000D01*
X67048000Y-39796000D02*
X66048000Y-39796000D01*
X66048000Y-38436000D02*
X67048000Y-38436000D01*
X67810000Y-31922000D02*
X66810000Y-31922000D01*
X66810000Y-30562000D02*
X67810000Y-30562000D01*
X63492000Y-34208000D02*
X62492000Y-34208000D01*
X62492000Y-32848000D02*
X63492000Y-32848000D01*
X66564000Y-37342000D02*
X68564000Y-37342000D01*
X68564000Y-35302000D02*
X66564000Y-35302000D01*
D13*
X22660000Y-27430000D02*
X38410000Y-27430000D01*
X38410000Y-27430000D02*
X38410000Y-43690000D01*
X38410000Y-43690000D02*
X22660000Y-43690000D01*
X22660000Y-43690000D02*
X22660000Y-27430000D01*
D12*
X62292000Y-37482000D02*
X64192000Y-37482000D01*
X63692000Y-35162000D02*
X62292000Y-35162000D01*
D14*
X82066000Y-35560000D02*
G75*
G03X82066000Y-35560000I-4850000J0D01*
G01*
D12*
X49526000Y-39640000D02*
X49526000Y-41640000D01*
X51566000Y-41640000D02*
X51566000Y-39640000D01*
D10*
X64349334Y-42013143D02*
X64301715Y-42060762D01*
X64158858Y-42108381D01*
X64063620Y-42108381D01*
X63920762Y-42060762D01*
X63825524Y-41965524D01*
X63777905Y-41870286D01*
X63730286Y-41679810D01*
X63730286Y-41536952D01*
X63777905Y-41346476D01*
X63825524Y-41251238D01*
X63920762Y-41156000D01*
X64063620Y-41108381D01*
X64158858Y-41108381D01*
X64301715Y-41156000D01*
X64349334Y-41203619D01*
X64730286Y-41203619D02*
X64777905Y-41156000D01*
X64873143Y-41108381D01*
X65111239Y-41108381D01*
X65206477Y-41156000D01*
X65254096Y-41203619D01*
X65301715Y-41298857D01*
X65301715Y-41394095D01*
X65254096Y-41536952D01*
X64682667Y-42108381D01*
X65301715Y-42108381D01*
X72731334Y-31599143D02*
X72683715Y-31646762D01*
X72540858Y-31694381D01*
X72445620Y-31694381D01*
X72302762Y-31646762D01*
X72207524Y-31551524D01*
X72159905Y-31456286D01*
X72112286Y-31265810D01*
X72112286Y-31122952D01*
X72159905Y-30932476D01*
X72207524Y-30837238D01*
X72302762Y-30742000D01*
X72445620Y-30694381D01*
X72540858Y-30694381D01*
X72683715Y-30742000D01*
X72731334Y-30789619D01*
X73064667Y-30694381D02*
X73683715Y-30694381D01*
X73350381Y-31075333D01*
X73493239Y-31075333D01*
X73588477Y-31122952D01*
X73636096Y-31170571D01*
X73683715Y-31265810D01*
X73683715Y-31503905D01*
X73636096Y-31599143D01*
X73588477Y-31646762D01*
X73493239Y-31694381D01*
X73207524Y-31694381D01*
X73112286Y-31646762D01*
X73064667Y-31599143D01*
X60539334Y-32361143D02*
X60491715Y-32408762D01*
X60348858Y-32456381D01*
X60253620Y-32456381D01*
X60110762Y-32408762D01*
X60015524Y-32313524D01*
X59967905Y-32218286D01*
X59920286Y-32027810D01*
X59920286Y-31884952D01*
X59967905Y-31694476D01*
X60015524Y-31599238D01*
X60110762Y-31504000D01*
X60253620Y-31456381D01*
X60348858Y-31456381D01*
X60491715Y-31504000D01*
X60539334Y-31551619D01*
X61396477Y-31789714D02*
X61396477Y-32456381D01*
X61158381Y-31408762D02*
X60920286Y-32123048D01*
X61539334Y-32123048D01*
X67397334Y-33292381D02*
X67064000Y-32816190D01*
X66825905Y-33292381D02*
X66825905Y-32292381D01*
X67206858Y-32292381D01*
X67302096Y-32340000D01*
X67349715Y-32387619D01*
X67397334Y-32482857D01*
X67397334Y-32625714D01*
X67349715Y-32720952D01*
X67302096Y-32768571D01*
X67206858Y-32816190D01*
X66825905Y-32816190D01*
X68349715Y-33292381D02*
X67778286Y-33292381D01*
X68064000Y-33292381D02*
X68064000Y-32292381D01*
X67968762Y-32435238D01*
X67873524Y-32530476D01*
X67778286Y-32578095D01*
X70191334Y-33292381D02*
X69858000Y-32816190D01*
X69619905Y-33292381D02*
X69619905Y-32292381D01*
X70000858Y-32292381D01*
X70096096Y-32340000D01*
X70143715Y-32387619D01*
X70191334Y-32482857D01*
X70191334Y-32625714D01*
X70143715Y-32720952D01*
X70096096Y-32768571D01*
X70000858Y-32816190D01*
X69619905Y-32816190D01*
X70572286Y-32387619D02*
X70619905Y-32340000D01*
X70715143Y-32292381D01*
X70953239Y-32292381D01*
X71048477Y-32340000D01*
X71096096Y-32387619D01*
X71143715Y-32482857D01*
X71143715Y-32578095D01*
X71096096Y-32720952D01*
X70524667Y-33292381D01*
X71143715Y-33292381D01*
X60031334Y-39568381D02*
X59698000Y-39092190D01*
X59459905Y-39568381D02*
X59459905Y-38568381D01*
X59840858Y-38568381D01*
X59936096Y-38616000D01*
X59983715Y-38663619D01*
X60031334Y-38758857D01*
X60031334Y-38901714D01*
X59983715Y-38996952D01*
X59936096Y-39044571D01*
X59840858Y-39092190D01*
X59459905Y-39092190D01*
X60364667Y-38568381D02*
X60983715Y-38568381D01*
X60650381Y-38949333D01*
X60793239Y-38949333D01*
X60888477Y-38996952D01*
X60936096Y-39044571D01*
X60983715Y-39139810D01*
X60983715Y-39377905D01*
X60936096Y-39473143D01*
X60888477Y-39520762D01*
X60793239Y-39568381D01*
X60507524Y-39568381D01*
X60412286Y-39520762D01*
X60364667Y-39473143D01*
X68667334Y-39568381D02*
X68334000Y-39092190D01*
X68095905Y-39568381D02*
X68095905Y-38568381D01*
X68476858Y-38568381D01*
X68572096Y-38616000D01*
X68619715Y-38663619D01*
X68667334Y-38758857D01*
X68667334Y-38901714D01*
X68619715Y-38996952D01*
X68572096Y-39044571D01*
X68476858Y-39092190D01*
X68095905Y-39092190D01*
X69524477Y-38901714D02*
X69524477Y-39568381D01*
X69286381Y-38520762D02*
X69048286Y-39235048D01*
X69667334Y-39235048D01*
X65111334Y-31694381D02*
X64778000Y-31218190D01*
X64539905Y-31694381D02*
X64539905Y-30694381D01*
X64920858Y-30694381D01*
X65016096Y-30742000D01*
X65063715Y-30789619D01*
X65111334Y-30884857D01*
X65111334Y-31027714D01*
X65063715Y-31122952D01*
X65016096Y-31170571D01*
X64920858Y-31218190D01*
X64539905Y-31218190D01*
X66016096Y-30694381D02*
X65539905Y-30694381D01*
X65492286Y-31170571D01*
X65539905Y-31122952D01*
X65635143Y-31075333D01*
X65873239Y-31075333D01*
X65968477Y-31122952D01*
X66016096Y-31170571D01*
X66063715Y-31265810D01*
X66063715Y-31503905D01*
X66016096Y-31599143D01*
X65968477Y-31646762D01*
X65873239Y-31694381D01*
X65635143Y-31694381D01*
X65539905Y-31646762D01*
X65492286Y-31599143D01*
X60539334Y-33980381D02*
X60206000Y-33504190D01*
X59967905Y-33980381D02*
X59967905Y-32980381D01*
X60348858Y-32980381D01*
X60444096Y-33028000D01*
X60491715Y-33075619D01*
X60539334Y-33170857D01*
X60539334Y-33313714D01*
X60491715Y-33408952D01*
X60444096Y-33456571D01*
X60348858Y-33504190D01*
X59967905Y-33504190D01*
X61396477Y-32980381D02*
X61206000Y-32980381D01*
X61110762Y-33028000D01*
X61063143Y-33075619D01*
X60967905Y-33218476D01*
X60920286Y-33408952D01*
X60920286Y-33789905D01*
X60967905Y-33885143D01*
X61015524Y-33932762D01*
X61110762Y-33980381D01*
X61301239Y-33980381D01*
X61396477Y-33932762D01*
X61444096Y-33885143D01*
X61491715Y-33789905D01*
X61491715Y-33551810D01*
X61444096Y-33456571D01*
X61396477Y-33408952D01*
X61301239Y-33361333D01*
X61110762Y-33361333D01*
X61015524Y-33408952D01*
X60967905Y-33456571D01*
X60920286Y-33551810D01*
X70699334Y-36679143D02*
X70651715Y-36726762D01*
X70508858Y-36774381D01*
X70413620Y-36774381D01*
X70270762Y-36726762D01*
X70175524Y-36631524D01*
X70127905Y-36536286D01*
X70080286Y-36345810D01*
X70080286Y-36202952D01*
X70127905Y-36012476D01*
X70175524Y-35917238D01*
X70270762Y-35822000D01*
X70413620Y-35774381D01*
X70508858Y-35774381D01*
X70651715Y-35822000D01*
X70699334Y-35869619D01*
X71651715Y-36774381D02*
X71080286Y-36774381D01*
X71366000Y-36774381D02*
X71366000Y-35774381D01*
X71270762Y-35917238D01*
X71175524Y-36012476D01*
X71080286Y-36060095D01*
X37325334Y-42487905D02*
X37325334Y-43059333D01*
X37287238Y-43173619D01*
X37211048Y-43249810D01*
X37096762Y-43287905D01*
X37020572Y-43287905D01*
X38125334Y-43287905D02*
X37668191Y-43287905D01*
X37896762Y-43287905D02*
X37896762Y-42487905D01*
X37820572Y-42602190D01*
X37744381Y-42678381D01*
X37668191Y-42716476D01*
X36391905Y-34550000D02*
X36963333Y-34550000D01*
X37077619Y-34588096D01*
X37153810Y-34664286D01*
X37191905Y-34778572D01*
X37191905Y-34854762D01*
X36963333Y-34207143D02*
X36963333Y-33826191D01*
X37191905Y-34283334D02*
X36391905Y-34016667D01*
X37191905Y-33750000D01*
X37115714Y-33026191D02*
X37153810Y-33064286D01*
X37191905Y-33178572D01*
X37191905Y-33254762D01*
X37153810Y-33369048D01*
X37077619Y-33445239D01*
X37001429Y-33483334D01*
X36849048Y-33521429D01*
X36734762Y-33521429D01*
X36582381Y-33483334D01*
X36506190Y-33445239D01*
X36430000Y-33369048D01*
X36391905Y-33254762D01*
X36391905Y-33178572D01*
X36430000Y-33064286D01*
X36468095Y-33026191D01*
X37191905Y-32683334D02*
X36391905Y-32683334D01*
X37191905Y-32226191D02*
X36734762Y-32569048D01*
X36391905Y-32226191D02*
X36849048Y-32683334D01*
X37268095Y-32073810D02*
X37268095Y-31464286D01*
X37191905Y-30816667D02*
X36810952Y-31083334D01*
X37191905Y-31273810D02*
X36391905Y-31273810D01*
X36391905Y-30969048D01*
X36430000Y-30892857D01*
X36468095Y-30854762D01*
X36544286Y-30816667D01*
X36658571Y-30816667D01*
X36734762Y-30854762D01*
X36772857Y-30892857D01*
X36810952Y-30969048D01*
X36810952Y-31273810D01*
X36391905Y-30245238D02*
X36963333Y-30245238D01*
X37077619Y-30283334D01*
X37153810Y-30359524D01*
X37191905Y-30473810D01*
X37191905Y-30550000D01*
X36658571Y-29521429D02*
X37191905Y-29521429D01*
X36353810Y-29711905D02*
X36925238Y-29902381D01*
X36925238Y-29407143D01*
X36391905Y-28721428D02*
X36391905Y-29102381D01*
X36772857Y-29140476D01*
X36734762Y-29102381D01*
X36696667Y-29026190D01*
X36696667Y-28835714D01*
X36734762Y-28759524D01*
X36772857Y-28721428D01*
X36849048Y-28683333D01*
X37039524Y-28683333D01*
X37115714Y-28721428D01*
X37153810Y-28759524D01*
X37191905Y-28835714D01*
X37191905Y-29026190D01*
X37153810Y-29102381D01*
X37115714Y-29140476D01*
X59563095Y-35647381D02*
X59563095Y-36456905D01*
X59610714Y-36552143D01*
X59658333Y-36599762D01*
X59753571Y-36647381D01*
X59944048Y-36647381D01*
X60039286Y-36599762D01*
X60086905Y-36552143D01*
X60134524Y-36456905D01*
X60134524Y-35647381D01*
X61134524Y-36647381D02*
X60563095Y-36647381D01*
X60848809Y-36647381D02*
X60848809Y-35647381D01*
X60753571Y-35790238D01*
X60658333Y-35885476D01*
X60563095Y-35933095D01*
X77168381Y-36921905D02*
X77168381Y-36121905D01*
X77435048Y-36693333D01*
X77701715Y-36121905D01*
X77701715Y-36921905D01*
X78082667Y-36921905D02*
X78082667Y-36121905D01*
X78539810Y-36921905D02*
X78196953Y-36464762D01*
X78539810Y-36121905D02*
X78082667Y-36579048D01*
X79301715Y-36921905D02*
X78844572Y-36921905D01*
X79073143Y-36921905D02*
X79073143Y-36121905D01*
X78996953Y-36236190D01*
X78920762Y-36312381D01*
X78844572Y-36350476D01*
X77416000Y-34921905D02*
X77416000Y-34121905D01*
X77682667Y-34693333D01*
X77949334Y-34121905D01*
X77949334Y-34921905D01*
X78330286Y-34921905D02*
X78330286Y-34388571D01*
X78330286Y-34121905D02*
X78292191Y-34160000D01*
X78330286Y-34198095D01*
X78368381Y-34160000D01*
X78330286Y-34121905D01*
X78330286Y-34198095D01*
X79054095Y-34883810D02*
X78977905Y-34921905D01*
X78825524Y-34921905D01*
X78749333Y-34883810D01*
X78711238Y-34845714D01*
X78673143Y-34769524D01*
X78673143Y-34540952D01*
X78711238Y-34464762D01*
X78749333Y-34426667D01*
X78825524Y-34388571D01*
X78977905Y-34388571D01*
X79054095Y-34426667D01*
X50379334Y-38457143D02*
X50331715Y-38504762D01*
X50188858Y-38552381D01*
X50093620Y-38552381D01*
X49950762Y-38504762D01*
X49855524Y-38409524D01*
X49807905Y-38314286D01*
X49760286Y-38123810D01*
X49760286Y-37980952D01*
X49807905Y-37790476D01*
X49855524Y-37695238D01*
X49950762Y-37600000D01*
X50093620Y-37552381D01*
X50188858Y-37552381D01*
X50331715Y-37600000D01*
X50379334Y-37647619D01*
X51284096Y-37552381D02*
X50807905Y-37552381D01*
X50760286Y-38028571D01*
X50807905Y-37980952D01*
X50903143Y-37933333D01*
X51141239Y-37933333D01*
X51236477Y-37980952D01*
X51284096Y-38028571D01*
X51331715Y-38123810D01*
X51331715Y-38361905D01*
X51284096Y-38457143D01*
X51236477Y-38504762D01*
X51141239Y-38552381D01*
X50903143Y-38552381D01*
X50807905Y-38504762D01*
X50760286Y-38457143D01*
M02*
