M48
;DRILL file {KiCad 4.0.7} date 06/27/18 15:59:42
;FORMAT={-:-/ absolute / inch / decimal}
FMAT,2
INCH,TZ
T1C0.014
T2C0.025
T3C0.035
T4C0.071
T5C0.098
%
G90
G05
M72
T1
X1.59Y-1.34
X1.72Y-1.435
X1.96Y-1.375
X1.96Y-1.455
X1.98Y-1.615
X2.Y-1.515
X2.05Y-1.605
T2
X2.7163Y-1.35
X2.7163Y-1.45
T3
X1.1847Y-1.3004
X1.1847Y-1.3803
X1.1847Y-1.4602
X1.1847Y-1.5402
X1.2548Y-1.2598
X1.2548Y-1.3398
X1.2548Y-1.4197
X1.2548Y-1.4996
T4
X1.2249Y-1.0799
X1.2249Y-1.7201
T5
X1.625Y-1.125
X1.625Y-1.675
X2.375Y-1.125
X2.375Y-1.675
T0
M30
