M48
;DRILL file {KiCad 4.0.7} date 01/10/18 16:34:10
;FORMAT={-:-/ absolute / inch / decimal}
FMAT,2
INCH,TZ
T1C0.014
T2C0.025
T3C0.035
T4C0.071
T5C0.098
%
G90
G05
M72
T1
X1.99Y-1.71
X2.35Y-1.45
X2.55Y-1.35
X2.56Y-1.43
X2.58Y-1.59
X2.6Y-1.49
X2.65Y-1.58
T2
X2.9613Y-1.35
X2.9613Y-1.45
T3
X1.2047Y-1.3004
X1.2047Y-1.3803
X1.2047Y-1.4602
X1.2047Y-1.5402
X1.2748Y-1.2598
X1.2748Y-1.3398
X1.2748Y-1.4197
X1.2748Y-1.4996
T4
X1.2449Y-1.0799
X1.2449Y-1.7201
T5
X1.65Y-1.125
X1.65Y-1.675
X2.35Y-1.125
X2.35Y-1.675
T0
M30
