G04 #@! TF.FileFunction,Legend,Top*
%FSLAX46Y46*%
G04 Gerber Fmt 4.6, Leading zero omitted, Abs format (unit mm)*
G04 Created by KiCad (PCBNEW 4.0.7) date 06/27/18 15:59:39*
%MOMM*%
%LPD*%
G01*
G04 APERTURE LIST*
%ADD10C,0.150000*%
%ADD11C,0.228600*%
%ADD12C,0.120000*%
%ADD13C,0.149860*%
%ADD14C,0.152400*%
G04 APERTURE END LIST*
D10*
D11*
X63717714Y-27431093D02*
X63881000Y-27485521D01*
X64153143Y-27485521D01*
X64262000Y-27431093D01*
X64316429Y-27376664D01*
X64370857Y-27267807D01*
X64370857Y-27158950D01*
X64316429Y-27050093D01*
X64262000Y-26995664D01*
X64153143Y-26941236D01*
X63935429Y-26886807D01*
X63826571Y-26832379D01*
X63772143Y-26777950D01*
X63717714Y-26669093D01*
X63717714Y-26560236D01*
X63772143Y-26451379D01*
X63826571Y-26396950D01*
X63935429Y-26342521D01*
X64207571Y-26342521D01*
X64370857Y-26396950D01*
X65024000Y-27485521D02*
X64915142Y-27431093D01*
X64860714Y-27376664D01*
X64806285Y-27267807D01*
X64806285Y-26941236D01*
X64860714Y-26832379D01*
X64915142Y-26777950D01*
X65024000Y-26723521D01*
X65187285Y-26723521D01*
X65296142Y-26777950D01*
X65350571Y-26832379D01*
X65405000Y-26941236D01*
X65405000Y-27267807D01*
X65350571Y-27376664D01*
X65296142Y-27431093D01*
X65187285Y-27485521D01*
X65024000Y-27485521D01*
X66384714Y-26723521D02*
X66384714Y-27485521D01*
X65894857Y-26723521D02*
X65894857Y-27322236D01*
X65949285Y-27431093D01*
X66058143Y-27485521D01*
X66221428Y-27485521D01*
X66330285Y-27431093D01*
X66384714Y-27376664D01*
X66929000Y-26723521D02*
X66929000Y-27485521D01*
X66929000Y-26832379D02*
X66983428Y-26777950D01*
X67092286Y-26723521D01*
X67255571Y-26723521D01*
X67364428Y-26777950D01*
X67418857Y-26886807D01*
X67418857Y-27485521D01*
X68453000Y-27485521D02*
X68453000Y-26342521D01*
X68453000Y-27431093D02*
X68344143Y-27485521D01*
X68126429Y-27485521D01*
X68017571Y-27431093D01*
X67963143Y-27376664D01*
X67908714Y-27267807D01*
X67908714Y-26941236D01*
X67963143Y-26832379D01*
X68017571Y-26777950D01*
X68126429Y-26723521D01*
X68344143Y-26723521D01*
X68453000Y-26777950D01*
X69868143Y-27485521D02*
X69868143Y-26342521D01*
X70249143Y-27158950D01*
X70630143Y-26342521D01*
X70630143Y-27485521D01*
X71337715Y-27485521D02*
X71228857Y-27431093D01*
X71174429Y-27376664D01*
X71120000Y-27267807D01*
X71120000Y-26941236D01*
X71174429Y-26832379D01*
X71228857Y-26777950D01*
X71337715Y-26723521D01*
X71501000Y-26723521D01*
X71609857Y-26777950D01*
X71664286Y-26832379D01*
X71718715Y-26941236D01*
X71718715Y-27267807D01*
X71664286Y-27376664D01*
X71609857Y-27431093D01*
X71501000Y-27485521D01*
X71337715Y-27485521D01*
X72698429Y-27485521D02*
X72698429Y-26342521D01*
X72698429Y-27431093D02*
X72589572Y-27485521D01*
X72371858Y-27485521D01*
X72263000Y-27431093D01*
X72208572Y-27376664D01*
X72154143Y-27267807D01*
X72154143Y-26941236D01*
X72208572Y-26832379D01*
X72263000Y-26777950D01*
X72371858Y-26723521D01*
X72589572Y-26723521D01*
X72698429Y-26777950D01*
X73732572Y-26723521D02*
X73732572Y-27485521D01*
X73242715Y-26723521D02*
X73242715Y-27322236D01*
X73297143Y-27431093D01*
X73406001Y-27485521D01*
X73569286Y-27485521D01*
X73678143Y-27431093D01*
X73732572Y-27376664D01*
X74440144Y-27485521D02*
X74331286Y-27431093D01*
X74276858Y-27322236D01*
X74276858Y-26342521D01*
X75311000Y-27431093D02*
X75202143Y-27485521D01*
X74984429Y-27485521D01*
X74875572Y-27431093D01*
X74821143Y-27322236D01*
X74821143Y-26886807D01*
X74875572Y-26777950D01*
X74984429Y-26723521D01*
X75202143Y-26723521D01*
X75311000Y-26777950D01*
X75365429Y-26886807D01*
X75365429Y-26995664D01*
X74821143Y-27104521D01*
X63717714Y-28394479D02*
X63772143Y-28340050D01*
X63881000Y-28285621D01*
X64153143Y-28285621D01*
X64262000Y-28340050D01*
X64316429Y-28394479D01*
X64370857Y-28503336D01*
X64370857Y-28612193D01*
X64316429Y-28775479D01*
X63663286Y-29428621D01*
X64370857Y-29428621D01*
X65078428Y-28285621D02*
X65187285Y-28285621D01*
X65296142Y-28340050D01*
X65350571Y-28394479D01*
X65405000Y-28503336D01*
X65459428Y-28721050D01*
X65459428Y-28993193D01*
X65405000Y-29210907D01*
X65350571Y-29319764D01*
X65296142Y-29374193D01*
X65187285Y-29428621D01*
X65078428Y-29428621D01*
X64969571Y-29374193D01*
X64915142Y-29319764D01*
X64860714Y-29210907D01*
X64806285Y-28993193D01*
X64806285Y-28721050D01*
X64860714Y-28503336D01*
X64915142Y-28394479D01*
X64969571Y-28340050D01*
X65078428Y-28285621D01*
X66547999Y-29428621D02*
X65894856Y-29428621D01*
X66221428Y-29428621D02*
X66221428Y-28285621D01*
X66112571Y-28448907D01*
X66003713Y-28557764D01*
X65894856Y-28612193D01*
X67201142Y-28775479D02*
X67092284Y-28721050D01*
X67037856Y-28666621D01*
X66983427Y-28557764D01*
X66983427Y-28503336D01*
X67037856Y-28394479D01*
X67092284Y-28340050D01*
X67201142Y-28285621D01*
X67418856Y-28285621D01*
X67527713Y-28340050D01*
X67582142Y-28394479D01*
X67636570Y-28503336D01*
X67636570Y-28557764D01*
X67582142Y-28666621D01*
X67527713Y-28721050D01*
X67418856Y-28775479D01*
X67201142Y-28775479D01*
X67092284Y-28829907D01*
X67037856Y-28884336D01*
X66983427Y-28993193D01*
X66983427Y-29210907D01*
X67037856Y-29319764D01*
X67092284Y-29374193D01*
X67201142Y-29428621D01*
X67418856Y-29428621D01*
X67527713Y-29374193D01*
X67582142Y-29319764D01*
X67636570Y-29210907D01*
X67636570Y-28993193D01*
X67582142Y-28884336D01*
X67527713Y-28829907D01*
X67418856Y-28775479D01*
X68126427Y-29319764D02*
X68180855Y-29374193D01*
X68126427Y-29428621D01*
X68071998Y-29374193D01*
X68126427Y-29319764D01*
X68126427Y-29428621D01*
X68561856Y-28285621D02*
X69323856Y-28285621D01*
X68833999Y-29428621D01*
X69759284Y-29319764D02*
X69813712Y-29374193D01*
X69759284Y-29428621D01*
X69704855Y-29374193D01*
X69759284Y-29319764D01*
X69759284Y-29428621D01*
X70902284Y-29428621D02*
X70249141Y-29428621D01*
X70575713Y-29428621D02*
X70575713Y-28285621D01*
X70466856Y-28448907D01*
X70357998Y-28557764D01*
X70249141Y-28612193D01*
D12*
X49876000Y-39909000D02*
X49876000Y-40609000D01*
X48676000Y-40609000D02*
X48676000Y-39909000D01*
X55022000Y-31277000D02*
X55722000Y-31277000D01*
X55722000Y-32477000D02*
X55022000Y-32477000D01*
X47402000Y-32039000D02*
X48102000Y-32039000D01*
X48102000Y-33239000D02*
X47402000Y-33239000D01*
X52824000Y-35605000D02*
X51824000Y-35605000D01*
X51824000Y-34245000D02*
X52824000Y-34245000D01*
X55618000Y-35605000D02*
X54618000Y-35605000D01*
X54618000Y-34245000D02*
X55618000Y-34245000D01*
X47744000Y-40431000D02*
X46744000Y-40431000D01*
X46744000Y-39071000D02*
X47744000Y-39071000D01*
X51808000Y-40431000D02*
X50808000Y-40431000D01*
X50808000Y-39071000D02*
X51808000Y-39071000D01*
X52570000Y-32557000D02*
X51570000Y-32557000D01*
X51570000Y-31197000D02*
X52570000Y-31197000D01*
X48252000Y-34843000D02*
X47252000Y-34843000D01*
X47252000Y-33483000D02*
X48252000Y-33483000D01*
X51324000Y-37977000D02*
X53324000Y-37977000D01*
X53324000Y-35937000D02*
X51324000Y-35937000D01*
D13*
X22152000Y-27430000D02*
X37902000Y-27430000D01*
X37902000Y-27430000D02*
X37902000Y-43690000D01*
X37902000Y-43690000D02*
X22152000Y-43690000D01*
X22152000Y-43690000D02*
X22152000Y-27430000D01*
D12*
X47052000Y-38117000D02*
X48952000Y-38117000D01*
X48452000Y-35797000D02*
X47052000Y-35797000D01*
D14*
X75843000Y-35560000D02*
G75*
G03X75843000Y-35560000I-4850000J0D01*
G01*
D12*
X42930000Y-36560000D02*
X42930000Y-34560000D01*
X40890000Y-34560000D02*
X40890000Y-36560000D01*
D10*
X49109334Y-42648143D02*
X49061715Y-42695762D01*
X48918858Y-42743381D01*
X48823620Y-42743381D01*
X48680762Y-42695762D01*
X48585524Y-42600524D01*
X48537905Y-42505286D01*
X48490286Y-42314810D01*
X48490286Y-42171952D01*
X48537905Y-41981476D01*
X48585524Y-41886238D01*
X48680762Y-41791000D01*
X48823620Y-41743381D01*
X48918858Y-41743381D01*
X49061715Y-41791000D01*
X49109334Y-41838619D01*
X49490286Y-41838619D02*
X49537905Y-41791000D01*
X49633143Y-41743381D01*
X49871239Y-41743381D01*
X49966477Y-41791000D01*
X50014096Y-41838619D01*
X50061715Y-41933857D01*
X50061715Y-42029095D01*
X50014096Y-42171952D01*
X49442667Y-42743381D01*
X50061715Y-42743381D01*
X57491334Y-32234143D02*
X57443715Y-32281762D01*
X57300858Y-32329381D01*
X57205620Y-32329381D01*
X57062762Y-32281762D01*
X56967524Y-32186524D01*
X56919905Y-32091286D01*
X56872286Y-31900810D01*
X56872286Y-31757952D01*
X56919905Y-31567476D01*
X56967524Y-31472238D01*
X57062762Y-31377000D01*
X57205620Y-31329381D01*
X57300858Y-31329381D01*
X57443715Y-31377000D01*
X57491334Y-31424619D01*
X57824667Y-31329381D02*
X58443715Y-31329381D01*
X58110381Y-31710333D01*
X58253239Y-31710333D01*
X58348477Y-31757952D01*
X58396096Y-31805571D01*
X58443715Y-31900810D01*
X58443715Y-32138905D01*
X58396096Y-32234143D01*
X58348477Y-32281762D01*
X58253239Y-32329381D01*
X57967524Y-32329381D01*
X57872286Y-32281762D01*
X57824667Y-32234143D01*
X45299334Y-32996143D02*
X45251715Y-33043762D01*
X45108858Y-33091381D01*
X45013620Y-33091381D01*
X44870762Y-33043762D01*
X44775524Y-32948524D01*
X44727905Y-32853286D01*
X44680286Y-32662810D01*
X44680286Y-32519952D01*
X44727905Y-32329476D01*
X44775524Y-32234238D01*
X44870762Y-32139000D01*
X45013620Y-32091381D01*
X45108858Y-32091381D01*
X45251715Y-32139000D01*
X45299334Y-32186619D01*
X46156477Y-32424714D02*
X46156477Y-33091381D01*
X45918381Y-32043762D02*
X45680286Y-32758048D01*
X46299334Y-32758048D01*
X52157334Y-33927381D02*
X51824000Y-33451190D01*
X51585905Y-33927381D02*
X51585905Y-32927381D01*
X51966858Y-32927381D01*
X52062096Y-32975000D01*
X52109715Y-33022619D01*
X52157334Y-33117857D01*
X52157334Y-33260714D01*
X52109715Y-33355952D01*
X52062096Y-33403571D01*
X51966858Y-33451190D01*
X51585905Y-33451190D01*
X53109715Y-33927381D02*
X52538286Y-33927381D01*
X52824000Y-33927381D02*
X52824000Y-32927381D01*
X52728762Y-33070238D01*
X52633524Y-33165476D01*
X52538286Y-33213095D01*
X54951334Y-33927381D02*
X54618000Y-33451190D01*
X54379905Y-33927381D02*
X54379905Y-32927381D01*
X54760858Y-32927381D01*
X54856096Y-32975000D01*
X54903715Y-33022619D01*
X54951334Y-33117857D01*
X54951334Y-33260714D01*
X54903715Y-33355952D01*
X54856096Y-33403571D01*
X54760858Y-33451190D01*
X54379905Y-33451190D01*
X55332286Y-33022619D02*
X55379905Y-32975000D01*
X55475143Y-32927381D01*
X55713239Y-32927381D01*
X55808477Y-32975000D01*
X55856096Y-33022619D01*
X55903715Y-33117857D01*
X55903715Y-33213095D01*
X55856096Y-33355952D01*
X55284667Y-33927381D01*
X55903715Y-33927381D01*
X44791334Y-40203381D02*
X44458000Y-39727190D01*
X44219905Y-40203381D02*
X44219905Y-39203381D01*
X44600858Y-39203381D01*
X44696096Y-39251000D01*
X44743715Y-39298619D01*
X44791334Y-39393857D01*
X44791334Y-39536714D01*
X44743715Y-39631952D01*
X44696096Y-39679571D01*
X44600858Y-39727190D01*
X44219905Y-39727190D01*
X45124667Y-39203381D02*
X45743715Y-39203381D01*
X45410381Y-39584333D01*
X45553239Y-39584333D01*
X45648477Y-39631952D01*
X45696096Y-39679571D01*
X45743715Y-39774810D01*
X45743715Y-40012905D01*
X45696096Y-40108143D01*
X45648477Y-40155762D01*
X45553239Y-40203381D01*
X45267524Y-40203381D01*
X45172286Y-40155762D01*
X45124667Y-40108143D01*
X53427334Y-40203381D02*
X53094000Y-39727190D01*
X52855905Y-40203381D02*
X52855905Y-39203381D01*
X53236858Y-39203381D01*
X53332096Y-39251000D01*
X53379715Y-39298619D01*
X53427334Y-39393857D01*
X53427334Y-39536714D01*
X53379715Y-39631952D01*
X53332096Y-39679571D01*
X53236858Y-39727190D01*
X52855905Y-39727190D01*
X54284477Y-39536714D02*
X54284477Y-40203381D01*
X54046381Y-39155762D02*
X53808286Y-39870048D01*
X54427334Y-39870048D01*
X49871334Y-32329381D02*
X49538000Y-31853190D01*
X49299905Y-32329381D02*
X49299905Y-31329381D01*
X49680858Y-31329381D01*
X49776096Y-31377000D01*
X49823715Y-31424619D01*
X49871334Y-31519857D01*
X49871334Y-31662714D01*
X49823715Y-31757952D01*
X49776096Y-31805571D01*
X49680858Y-31853190D01*
X49299905Y-31853190D01*
X50776096Y-31329381D02*
X50299905Y-31329381D01*
X50252286Y-31805571D01*
X50299905Y-31757952D01*
X50395143Y-31710333D01*
X50633239Y-31710333D01*
X50728477Y-31757952D01*
X50776096Y-31805571D01*
X50823715Y-31900810D01*
X50823715Y-32138905D01*
X50776096Y-32234143D01*
X50728477Y-32281762D01*
X50633239Y-32329381D01*
X50395143Y-32329381D01*
X50299905Y-32281762D01*
X50252286Y-32234143D01*
X45299334Y-34615381D02*
X44966000Y-34139190D01*
X44727905Y-34615381D02*
X44727905Y-33615381D01*
X45108858Y-33615381D01*
X45204096Y-33663000D01*
X45251715Y-33710619D01*
X45299334Y-33805857D01*
X45299334Y-33948714D01*
X45251715Y-34043952D01*
X45204096Y-34091571D01*
X45108858Y-34139190D01*
X44727905Y-34139190D01*
X46156477Y-33615381D02*
X45966000Y-33615381D01*
X45870762Y-33663000D01*
X45823143Y-33710619D01*
X45727905Y-33853476D01*
X45680286Y-34043952D01*
X45680286Y-34424905D01*
X45727905Y-34520143D01*
X45775524Y-34567762D01*
X45870762Y-34615381D01*
X46061239Y-34615381D01*
X46156477Y-34567762D01*
X46204096Y-34520143D01*
X46251715Y-34424905D01*
X46251715Y-34186810D01*
X46204096Y-34091571D01*
X46156477Y-34043952D01*
X46061239Y-33996333D01*
X45870762Y-33996333D01*
X45775524Y-34043952D01*
X45727905Y-34091571D01*
X45680286Y-34186810D01*
X55459334Y-37314143D02*
X55411715Y-37361762D01*
X55268858Y-37409381D01*
X55173620Y-37409381D01*
X55030762Y-37361762D01*
X54935524Y-37266524D01*
X54887905Y-37171286D01*
X54840286Y-36980810D01*
X54840286Y-36837952D01*
X54887905Y-36647476D01*
X54935524Y-36552238D01*
X55030762Y-36457000D01*
X55173620Y-36409381D01*
X55268858Y-36409381D01*
X55411715Y-36457000D01*
X55459334Y-36504619D01*
X56411715Y-37409381D02*
X55840286Y-37409381D01*
X56126000Y-37409381D02*
X56126000Y-36409381D01*
X56030762Y-36552238D01*
X55935524Y-36647476D01*
X55840286Y-36695095D01*
X36817334Y-42487905D02*
X36817334Y-43059333D01*
X36779238Y-43173619D01*
X36703048Y-43249810D01*
X36588762Y-43287905D01*
X36512572Y-43287905D01*
X37617334Y-43287905D02*
X37160191Y-43287905D01*
X37388762Y-43287905D02*
X37388762Y-42487905D01*
X37312572Y-42602190D01*
X37236381Y-42678381D01*
X37160191Y-42716476D01*
X35883905Y-34550000D02*
X36455333Y-34550000D01*
X36569619Y-34588096D01*
X36645810Y-34664286D01*
X36683905Y-34778572D01*
X36683905Y-34854762D01*
X36455333Y-34207143D02*
X36455333Y-33826191D01*
X36683905Y-34283334D02*
X35883905Y-34016667D01*
X36683905Y-33750000D01*
X36607714Y-33026191D02*
X36645810Y-33064286D01*
X36683905Y-33178572D01*
X36683905Y-33254762D01*
X36645810Y-33369048D01*
X36569619Y-33445239D01*
X36493429Y-33483334D01*
X36341048Y-33521429D01*
X36226762Y-33521429D01*
X36074381Y-33483334D01*
X35998190Y-33445239D01*
X35922000Y-33369048D01*
X35883905Y-33254762D01*
X35883905Y-33178572D01*
X35922000Y-33064286D01*
X35960095Y-33026191D01*
X36683905Y-32683334D02*
X35883905Y-32683334D01*
X36683905Y-32226191D02*
X36226762Y-32569048D01*
X35883905Y-32226191D02*
X36341048Y-32683334D01*
X36760095Y-32073810D02*
X36760095Y-31464286D01*
X36683905Y-30816667D02*
X36302952Y-31083334D01*
X36683905Y-31273810D02*
X35883905Y-31273810D01*
X35883905Y-30969048D01*
X35922000Y-30892857D01*
X35960095Y-30854762D01*
X36036286Y-30816667D01*
X36150571Y-30816667D01*
X36226762Y-30854762D01*
X36264857Y-30892857D01*
X36302952Y-30969048D01*
X36302952Y-31273810D01*
X35883905Y-30245238D02*
X36455333Y-30245238D01*
X36569619Y-30283334D01*
X36645810Y-30359524D01*
X36683905Y-30473810D01*
X36683905Y-30550000D01*
X36150571Y-29521429D02*
X36683905Y-29521429D01*
X35845810Y-29711905D02*
X36417238Y-29902381D01*
X36417238Y-29407143D01*
X35883905Y-28721428D02*
X35883905Y-29102381D01*
X36264857Y-29140476D01*
X36226762Y-29102381D01*
X36188667Y-29026190D01*
X36188667Y-28835714D01*
X36226762Y-28759524D01*
X36264857Y-28721428D01*
X36341048Y-28683333D01*
X36531524Y-28683333D01*
X36607714Y-28721428D01*
X36645810Y-28759524D01*
X36683905Y-28835714D01*
X36683905Y-29026190D01*
X36645810Y-29102381D01*
X36607714Y-29140476D01*
X44323095Y-36282381D02*
X44323095Y-37091905D01*
X44370714Y-37187143D01*
X44418333Y-37234762D01*
X44513571Y-37282381D01*
X44704048Y-37282381D01*
X44799286Y-37234762D01*
X44846905Y-37187143D01*
X44894524Y-37091905D01*
X44894524Y-36282381D01*
X45894524Y-37282381D02*
X45323095Y-37282381D01*
X45608809Y-37282381D02*
X45608809Y-36282381D01*
X45513571Y-36425238D01*
X45418333Y-36520476D01*
X45323095Y-36568095D01*
X70945381Y-36921905D02*
X70945381Y-36121905D01*
X71212048Y-36693333D01*
X71478715Y-36121905D01*
X71478715Y-36921905D01*
X71859667Y-36921905D02*
X71859667Y-36121905D01*
X72316810Y-36921905D02*
X71973953Y-36464762D01*
X72316810Y-36121905D02*
X71859667Y-36579048D01*
X73078715Y-36921905D02*
X72621572Y-36921905D01*
X72850143Y-36921905D02*
X72850143Y-36121905D01*
X72773953Y-36236190D01*
X72697762Y-36312381D01*
X72621572Y-36350476D01*
X71193000Y-34921905D02*
X71193000Y-34121905D01*
X71459667Y-34693333D01*
X71726334Y-34121905D01*
X71726334Y-34921905D01*
X72107286Y-34921905D02*
X72107286Y-34388571D01*
X72107286Y-34121905D02*
X72069191Y-34160000D01*
X72107286Y-34198095D01*
X72145381Y-34160000D01*
X72107286Y-34121905D01*
X72107286Y-34198095D01*
X72831095Y-34883810D02*
X72754905Y-34921905D01*
X72602524Y-34921905D01*
X72526333Y-34883810D01*
X72488238Y-34845714D01*
X72450143Y-34769524D01*
X72450143Y-34540952D01*
X72488238Y-34464762D01*
X72526333Y-34426667D01*
X72602524Y-34388571D01*
X72754905Y-34388571D01*
X72831095Y-34426667D01*
X41743334Y-39092143D02*
X41695715Y-39139762D01*
X41552858Y-39187381D01*
X41457620Y-39187381D01*
X41314762Y-39139762D01*
X41219524Y-39044524D01*
X41171905Y-38949286D01*
X41124286Y-38758810D01*
X41124286Y-38615952D01*
X41171905Y-38425476D01*
X41219524Y-38330238D01*
X41314762Y-38235000D01*
X41457620Y-38187381D01*
X41552858Y-38187381D01*
X41695715Y-38235000D01*
X41743334Y-38282619D01*
X42648096Y-38187381D02*
X42171905Y-38187381D01*
X42124286Y-38663571D01*
X42171905Y-38615952D01*
X42267143Y-38568333D01*
X42505239Y-38568333D01*
X42600477Y-38615952D01*
X42648096Y-38663571D01*
X42695715Y-38758810D01*
X42695715Y-38996905D01*
X42648096Y-39092143D01*
X42600477Y-39139762D01*
X42505239Y-39187381D01*
X42267143Y-39187381D01*
X42171905Y-39139762D01*
X42124286Y-39092143D01*
M02*
