M48
;DRILL file {KiCad 4.0.5} date 04/03/17 14:36:37
;FORMAT={-:-/ absolute / inch / decimal}
FMAT,2
INCH,TZ
T1C0.014
T2C0.016
T3C0.039
%
G90
G05
M72
T1
X6.46Y-4.54
X6.46Y-4.62
X6.46Y-4.7
X6.55Y-4.54
X6.55Y-4.62
X6.55Y-4.7
X6.68Y-4.37
X6.75Y-4.37
X7.4378Y-4.2505
T2
X6.03Y-4.59
X6.29Y-4.56
X6.58Y-4.41
X7.2845Y-4.4058
X7.29Y-4.49
X7.36Y-4.94
X7.37Y-3.98
X7.56Y-3.94
X7.77Y-4.73
T3
X6.1Y-4.39
X6.1Y-4.49
X6.48Y-4.
X6.58Y-4.
X6.68Y-4.
X6.78Y-4.
X6.88Y-4.
X6.98Y-4.
X7.56Y-4.15
X7.56Y-4.25
X7.56Y-4.35
X7.56Y-4.45
X7.56Y-4.55
X7.56Y-4.65
X7.66Y-4.15
X7.66Y-4.25
X7.66Y-4.35
X7.66Y-4.45
X7.66Y-4.55
X7.66Y-4.65
T0
M30
