G04 #@! TF.FileFunction,Legend,Top*
%FSLAX46Y46*%
G04 Gerber Fmt 4.6, Leading zero omitted, Abs format (unit mm)*
G04 Created by KiCad (PCBNEW 4.0.5) date 04/03/17 14:36:26*
%MOMM*%
%LPD*%
G01*
G04 APERTURE LIST*
%ADD10C,0.100000*%
%ADD11C,0.152400*%
%ADD12C,0.200000*%
%ADD13C,0.149860*%
%ADD14C,0.120000*%
%ADD15C,0.150000*%
G04 APERTURE END LIST*
D10*
D11*
X187993261Y-118318643D02*
X188204928Y-118318643D01*
X188295642Y-118651262D02*
X187993261Y-118651262D01*
X187993261Y-118016262D01*
X188295642Y-118016262D01*
X188507309Y-118016262D02*
X188930643Y-118651262D01*
X188930643Y-118016262D02*
X188507309Y-118651262D01*
X189081833Y-118016262D02*
X189444690Y-118016262D01*
X189263262Y-118651262D02*
X189263262Y-118016262D01*
X189988977Y-118651262D02*
X189626119Y-118651262D01*
X189807548Y-118651262D02*
X189807548Y-118016262D01*
X189747072Y-118106976D01*
X189686596Y-118167452D01*
X189626119Y-118197690D01*
X189124167Y-116111262D02*
X188912500Y-115808881D01*
X188761309Y-116111262D02*
X188761309Y-115476262D01*
X189003214Y-115476262D01*
X189063690Y-115506500D01*
X189093929Y-115536738D01*
X189124167Y-115597214D01*
X189124167Y-115687929D01*
X189093929Y-115748405D01*
X189063690Y-115778643D01*
X189003214Y-115808881D01*
X188761309Y-115808881D01*
X189335833Y-115476262D02*
X189759167Y-116111262D01*
X189759167Y-115476262D02*
X189335833Y-116111262D01*
X189136262Y-113571262D02*
X188924595Y-113268881D01*
X188773404Y-113571262D02*
X188773404Y-112936262D01*
X189015309Y-112936262D01*
X189075785Y-112966500D01*
X189106024Y-112996738D01*
X189136262Y-113057214D01*
X189136262Y-113147929D01*
X189106024Y-113208405D01*
X189075785Y-113238643D01*
X189015309Y-113268881D01*
X188773404Y-113268881D01*
X189317690Y-112936262D02*
X189680547Y-112936262D01*
X189499119Y-113571262D02*
X189499119Y-112936262D01*
X189861976Y-113541024D02*
X189952691Y-113571262D01*
X190103881Y-113571262D01*
X190164357Y-113541024D01*
X190194595Y-113510786D01*
X190224834Y-113450310D01*
X190224834Y-113389833D01*
X190194595Y-113329357D01*
X190164357Y-113299119D01*
X190103881Y-113268881D01*
X189982929Y-113238643D01*
X189922453Y-113208405D01*
X189892214Y-113178167D01*
X189861976Y-113117690D01*
X189861976Y-113057214D01*
X189892214Y-112996738D01*
X189922453Y-112966500D01*
X189982929Y-112936262D01*
X190134119Y-112936262D01*
X190224834Y-112966500D01*
X188307738Y-110777262D02*
X188096071Y-110474881D01*
X187944880Y-110777262D02*
X187944880Y-110142262D01*
X188186785Y-110142262D01*
X188247261Y-110172500D01*
X188277500Y-110202738D01*
X188307738Y-110263214D01*
X188307738Y-110353929D01*
X188277500Y-110414405D01*
X188247261Y-110444643D01*
X188186785Y-110474881D01*
X187944880Y-110474881D01*
X188579880Y-110444643D02*
X188791547Y-110444643D01*
X188882261Y-110777262D02*
X188579880Y-110777262D01*
X188579880Y-110142262D01*
X188882261Y-110142262D01*
X189124166Y-110747024D02*
X189214881Y-110777262D01*
X189366071Y-110777262D01*
X189426547Y-110747024D01*
X189456785Y-110716786D01*
X189487024Y-110656310D01*
X189487024Y-110595833D01*
X189456785Y-110535357D01*
X189426547Y-110505119D01*
X189366071Y-110474881D01*
X189245119Y-110444643D01*
X189184643Y-110414405D01*
X189154404Y-110384167D01*
X189124166Y-110323690D01*
X189124166Y-110263214D01*
X189154404Y-110202738D01*
X189184643Y-110172500D01*
X189245119Y-110142262D01*
X189396309Y-110142262D01*
X189487024Y-110172500D01*
X189759166Y-110444643D02*
X189970833Y-110444643D01*
X190061547Y-110777262D02*
X189759166Y-110777262D01*
X189759166Y-110142262D01*
X190061547Y-110142262D01*
X190242976Y-110142262D02*
X190605833Y-110142262D01*
X190424405Y-110777262D02*
X190424405Y-110142262D01*
X188788524Y-107632500D02*
X188728047Y-107602262D01*
X188637333Y-107602262D01*
X188546619Y-107632500D01*
X188486143Y-107692976D01*
X188455904Y-107753452D01*
X188425666Y-107874405D01*
X188425666Y-107965119D01*
X188455904Y-108086071D01*
X188486143Y-108146548D01*
X188546619Y-108207024D01*
X188637333Y-108237262D01*
X188697809Y-108237262D01*
X188788524Y-108207024D01*
X188818762Y-108176786D01*
X188818762Y-107965119D01*
X188697809Y-107965119D01*
X189393285Y-108237262D02*
X189090904Y-108237262D01*
X189090904Y-107602262D01*
X189604952Y-107904643D02*
X189816619Y-107904643D01*
X189907333Y-108237262D02*
X189604952Y-108237262D01*
X189604952Y-107602262D01*
X189907333Y-107602262D01*
X190179476Y-108237262D02*
X190179476Y-107602262D01*
X190330667Y-107602262D01*
X190421381Y-107632500D01*
X190481857Y-107692976D01*
X190512096Y-107753452D01*
X190542334Y-107874405D01*
X190542334Y-107965119D01*
X190512096Y-108086071D01*
X190481857Y-108146548D01*
X190421381Y-108207024D01*
X190330667Y-108237262D01*
X190179476Y-108237262D01*
X188697809Y-105316262D02*
X189090905Y-105316262D01*
X188879238Y-105558167D01*
X188969952Y-105558167D01*
X189030428Y-105588405D01*
X189060666Y-105618643D01*
X189090905Y-105679119D01*
X189090905Y-105830310D01*
X189060666Y-105890786D01*
X189030428Y-105921024D01*
X188969952Y-105951262D01*
X188788524Y-105951262D01*
X188728047Y-105921024D01*
X188697809Y-105890786D01*
X189272333Y-105316262D02*
X189484000Y-105951262D01*
X189695667Y-105316262D01*
X189846857Y-105316262D02*
X190239953Y-105316262D01*
X190028286Y-105558167D01*
X190119000Y-105558167D01*
X190179476Y-105588405D01*
X190209714Y-105618643D01*
X190239953Y-105679119D01*
X190239953Y-105830310D01*
X190209714Y-105890786D01*
X190179476Y-105921024D01*
X190119000Y-105951262D01*
X189937572Y-105951262D01*
X189877095Y-105921024D01*
X189846857Y-105890786D01*
X195867261Y-118064643D02*
X196078928Y-118064643D01*
X196169642Y-118397262D02*
X195867261Y-118397262D01*
X195867261Y-117762262D01*
X196169642Y-117762262D01*
X196381309Y-117762262D02*
X196804643Y-118397262D01*
X196804643Y-117762262D02*
X196381309Y-118397262D01*
X196955833Y-117762262D02*
X197318690Y-117762262D01*
X197137262Y-118397262D02*
X197137262Y-117762262D01*
X197651310Y-117762262D02*
X197711786Y-117762262D01*
X197772262Y-117792500D01*
X197802500Y-117822738D01*
X197832738Y-117883214D01*
X197862977Y-118004167D01*
X197862977Y-118155357D01*
X197832738Y-118276310D01*
X197802500Y-118336786D01*
X197772262Y-118367024D01*
X197711786Y-118397262D01*
X197651310Y-118397262D01*
X197590834Y-118367024D01*
X197560596Y-118336786D01*
X197530357Y-118276310D01*
X197500119Y-118155357D01*
X197500119Y-118004167D01*
X197530357Y-117883214D01*
X197560596Y-117822738D01*
X197590834Y-117792500D01*
X197651310Y-117762262D01*
X196366190Y-115222262D02*
X196729047Y-115222262D01*
X196547619Y-115857262D02*
X196547619Y-115222262D01*
X196880238Y-115222262D02*
X197303572Y-115857262D01*
X197303572Y-115222262D02*
X196880238Y-115857262D01*
X196756262Y-113256786D02*
X196726024Y-113287024D01*
X196635309Y-113317262D01*
X196574833Y-113317262D01*
X196484119Y-113287024D01*
X196423643Y-113226548D01*
X196393404Y-113166071D01*
X196363166Y-113045119D01*
X196363166Y-112954405D01*
X196393404Y-112833452D01*
X196423643Y-112772976D01*
X196484119Y-112712500D01*
X196574833Y-112682262D01*
X196635309Y-112682262D01*
X196726024Y-112712500D01*
X196756262Y-112742738D01*
X196937690Y-112682262D02*
X197300547Y-112682262D01*
X197119119Y-113317262D02*
X197119119Y-112682262D01*
X197481976Y-113287024D02*
X197572691Y-113317262D01*
X197723881Y-113317262D01*
X197784357Y-113287024D01*
X197814595Y-113256786D01*
X197844834Y-113196310D01*
X197844834Y-113135833D01*
X197814595Y-113075357D01*
X197784357Y-113045119D01*
X197723881Y-113014881D01*
X197602929Y-112984643D01*
X197542453Y-112954405D01*
X197512214Y-112924167D01*
X197481976Y-112863690D01*
X197481976Y-112803214D01*
X197512214Y-112742738D01*
X197542453Y-112712500D01*
X197602929Y-112682262D01*
X197754119Y-112682262D01*
X197844834Y-112712500D01*
X195716071Y-110777262D02*
X195716071Y-110142262D01*
X195957976Y-110142262D01*
X196018452Y-110172500D01*
X196048691Y-110202738D01*
X196078929Y-110263214D01*
X196078929Y-110353929D01*
X196048691Y-110414405D01*
X196018452Y-110444643D01*
X195957976Y-110474881D01*
X195716071Y-110474881D01*
X196713929Y-110777262D02*
X196502262Y-110474881D01*
X196351071Y-110777262D02*
X196351071Y-110142262D01*
X196592976Y-110142262D01*
X196653452Y-110172500D01*
X196683691Y-110202738D01*
X196713929Y-110263214D01*
X196713929Y-110353929D01*
X196683691Y-110414405D01*
X196653452Y-110444643D01*
X196592976Y-110474881D01*
X196351071Y-110474881D01*
X197107024Y-110142262D02*
X197227976Y-110142262D01*
X197288452Y-110172500D01*
X197348929Y-110232976D01*
X197379167Y-110353929D01*
X197379167Y-110565595D01*
X197348929Y-110686548D01*
X197288452Y-110747024D01*
X197227976Y-110777262D01*
X197107024Y-110777262D01*
X197046548Y-110747024D01*
X196986071Y-110686548D01*
X196955833Y-110565595D01*
X196955833Y-110353929D01*
X196986071Y-110232976D01*
X197046548Y-110172500D01*
X197107024Y-110142262D01*
X197983929Y-110172500D02*
X197923452Y-110142262D01*
X197832738Y-110142262D01*
X197742024Y-110172500D01*
X197681548Y-110232976D01*
X197651309Y-110293452D01*
X197621071Y-110414405D01*
X197621071Y-110505119D01*
X197651309Y-110626071D01*
X197681548Y-110686548D01*
X197742024Y-110747024D01*
X197832738Y-110777262D01*
X197893214Y-110777262D01*
X197983929Y-110747024D01*
X198014167Y-110716786D01*
X198014167Y-110505119D01*
X197893214Y-110505119D01*
X196184762Y-108237262D02*
X195973095Y-107934881D01*
X195821904Y-108237262D02*
X195821904Y-107602262D01*
X196063809Y-107602262D01*
X196124285Y-107632500D01*
X196154524Y-107662738D01*
X196184762Y-107723214D01*
X196184762Y-107813929D01*
X196154524Y-107874405D01*
X196124285Y-107904643D01*
X196063809Y-107934881D01*
X195821904Y-107934881D01*
X196759285Y-108237262D02*
X196456904Y-108237262D01*
X196456904Y-107602262D01*
X196970952Y-107904643D02*
X197182619Y-107904643D01*
X197273333Y-108237262D02*
X196970952Y-108237262D01*
X196970952Y-107602262D01*
X197273333Y-107602262D01*
X197545476Y-108237262D02*
X197545476Y-107602262D01*
X197696667Y-107602262D01*
X197787381Y-107632500D01*
X197847857Y-107692976D01*
X197878096Y-107753452D01*
X197908334Y-107874405D01*
X197908334Y-107965119D01*
X197878096Y-108086071D01*
X197847857Y-108146548D01*
X197787381Y-108207024D01*
X197696667Y-108237262D01*
X197545476Y-108237262D01*
X196620191Y-105092500D02*
X196559714Y-105062262D01*
X196469000Y-105062262D01*
X196378286Y-105092500D01*
X196317810Y-105152976D01*
X196287571Y-105213452D01*
X196257333Y-105334405D01*
X196257333Y-105425119D01*
X196287571Y-105546071D01*
X196317810Y-105606548D01*
X196378286Y-105667024D01*
X196469000Y-105697262D01*
X196529476Y-105697262D01*
X196620191Y-105667024D01*
X196650429Y-105636786D01*
X196650429Y-105425119D01*
X196529476Y-105425119D01*
X196922571Y-105697262D02*
X196922571Y-105062262D01*
X197285429Y-105697262D01*
X197285429Y-105062262D01*
X197587809Y-105697262D02*
X197587809Y-105062262D01*
X197739000Y-105062262D01*
X197829714Y-105092500D01*
X197890190Y-105152976D01*
X197920429Y-105213452D01*
X197950667Y-105334405D01*
X197950667Y-105425119D01*
X197920429Y-105546071D01*
X197890190Y-105606548D01*
X197829714Y-105667024D01*
X197739000Y-105697262D01*
X197587809Y-105697262D01*
X179466119Y-102780193D02*
X179254452Y-102780193D01*
X179254452Y-103112812D02*
X179254452Y-102477812D01*
X179556833Y-102477812D01*
X179708024Y-102477812D02*
X180070881Y-102477812D01*
X179889453Y-103112812D02*
X179889453Y-102477812D01*
X180282548Y-103112812D02*
X180282548Y-102477812D01*
X180433739Y-102477812D01*
X180524453Y-102508050D01*
X180584929Y-102568526D01*
X180615168Y-102629002D01*
X180645406Y-102749955D01*
X180645406Y-102840669D01*
X180615168Y-102961621D01*
X180584929Y-103022098D01*
X180524453Y-103082574D01*
X180433739Y-103112812D01*
X180282548Y-103112812D01*
X180917548Y-103112812D02*
X180917548Y-102477812D01*
X177092428Y-104217712D02*
X177092428Y-103582712D01*
X177334333Y-103582712D01*
X177394809Y-103612950D01*
X177425048Y-103643188D01*
X177455286Y-103703664D01*
X177455286Y-103794379D01*
X177425048Y-103854855D01*
X177394809Y-103885093D01*
X177334333Y-103915331D01*
X177092428Y-103915331D01*
X177727428Y-104217712D02*
X177727428Y-103794379D01*
X177727428Y-103915331D02*
X177757667Y-103854855D01*
X177787905Y-103824617D01*
X177848381Y-103794379D01*
X177908857Y-103794379D01*
X178211238Y-104217712D02*
X178150762Y-104187474D01*
X178120523Y-104157236D01*
X178090285Y-104096760D01*
X178090285Y-103915331D01*
X178120523Y-103854855D01*
X178150762Y-103824617D01*
X178211238Y-103794379D01*
X178301952Y-103794379D01*
X178362428Y-103824617D01*
X178392666Y-103854855D01*
X178422904Y-103915331D01*
X178422904Y-104096760D01*
X178392666Y-104157236D01*
X178362428Y-104187474D01*
X178301952Y-104217712D01*
X178211238Y-104217712D01*
X178967190Y-103794379D02*
X178967190Y-104308426D01*
X178936952Y-104368902D01*
X178906714Y-104399140D01*
X178846238Y-104429379D01*
X178755524Y-104429379D01*
X178695047Y-104399140D01*
X178967190Y-104187474D02*
X178906714Y-104217712D01*
X178785762Y-104217712D01*
X178725286Y-104187474D01*
X178695047Y-104157236D01*
X178664809Y-104096760D01*
X178664809Y-103915331D01*
X178695047Y-103854855D01*
X178725286Y-103824617D01*
X178785762Y-103794379D01*
X178906714Y-103794379D01*
X178967190Y-103824617D01*
X179269571Y-104217712D02*
X179269571Y-103794379D01*
X179269571Y-103915331D02*
X179299810Y-103854855D01*
X179330048Y-103824617D01*
X179390524Y-103794379D01*
X179451000Y-103794379D01*
X179934809Y-104217712D02*
X179934809Y-103885093D01*
X179904571Y-103824617D01*
X179844095Y-103794379D01*
X179723143Y-103794379D01*
X179662666Y-103824617D01*
X179934809Y-104187474D02*
X179874333Y-104217712D01*
X179723143Y-104217712D01*
X179662666Y-104187474D01*
X179632428Y-104126998D01*
X179632428Y-104066521D01*
X179662666Y-104006045D01*
X179723143Y-103975807D01*
X179874333Y-103975807D01*
X179934809Y-103945569D01*
X180237190Y-104217712D02*
X180237190Y-103794379D01*
X180237190Y-103854855D02*
X180267429Y-103824617D01*
X180327905Y-103794379D01*
X180418619Y-103794379D01*
X180479095Y-103824617D01*
X180509333Y-103885093D01*
X180509333Y-104217712D01*
X180509333Y-103885093D02*
X180539571Y-103824617D01*
X180600048Y-103794379D01*
X180690762Y-103794379D01*
X180751238Y-103824617D01*
X180781476Y-103885093D01*
X180781476Y-104217712D01*
X181083857Y-104217712D02*
X181083857Y-103794379D01*
X181083857Y-103854855D02*
X181114096Y-103824617D01*
X181174572Y-103794379D01*
X181265286Y-103794379D01*
X181325762Y-103824617D01*
X181356000Y-103885093D01*
X181356000Y-104217712D01*
X181356000Y-103885093D02*
X181386238Y-103824617D01*
X181446715Y-103794379D01*
X181537429Y-103794379D01*
X181597905Y-103824617D01*
X181628143Y-103885093D01*
X181628143Y-104217712D01*
X181930524Y-104217712D02*
X181930524Y-103794379D01*
X181930524Y-103582712D02*
X181900286Y-103612950D01*
X181930524Y-103643188D01*
X181960763Y-103612950D01*
X181930524Y-103582712D01*
X181930524Y-103643188D01*
X182232905Y-103794379D02*
X182232905Y-104217712D01*
X182232905Y-103854855D02*
X182263144Y-103824617D01*
X182323620Y-103794379D01*
X182414334Y-103794379D01*
X182474810Y-103824617D01*
X182505048Y-103885093D01*
X182505048Y-104217712D01*
X183079572Y-103794379D02*
X183079572Y-104308426D01*
X183049334Y-104368902D01*
X183019096Y-104399140D01*
X182958620Y-104429379D01*
X182867906Y-104429379D01*
X182807429Y-104399140D01*
X183079572Y-104187474D02*
X183019096Y-104217712D01*
X182898144Y-104217712D01*
X182837668Y-104187474D01*
X182807429Y-104157236D01*
X182777191Y-104096760D01*
X182777191Y-103915331D01*
X182807429Y-103854855D01*
X182837668Y-103824617D01*
X182898144Y-103794379D01*
X183019096Y-103794379D01*
X183079572Y-103824617D01*
D12*
X164973000Y-130683000D02*
X156083000Y-130683000D01*
X164973000Y-133223000D02*
X164973000Y-130683000D01*
X156083000Y-133223000D02*
X164973000Y-133223000D01*
X156083000Y-130683000D02*
X156083000Y-133223000D01*
D11*
X157232047Y-131482193D02*
X157443714Y-131482193D01*
X157534428Y-131814812D02*
X157232047Y-131814812D01*
X157232047Y-131179812D01*
X157534428Y-131179812D01*
X157776333Y-131784574D02*
X157867048Y-131814812D01*
X158018238Y-131814812D01*
X158078714Y-131784574D01*
X158108952Y-131754336D01*
X158139191Y-131693860D01*
X158139191Y-131633383D01*
X158108952Y-131572907D01*
X158078714Y-131542669D01*
X158018238Y-131512431D01*
X157897286Y-131482193D01*
X157836810Y-131451955D01*
X157806571Y-131421717D01*
X157776333Y-131361240D01*
X157776333Y-131300764D01*
X157806571Y-131240288D01*
X157836810Y-131210050D01*
X157897286Y-131179812D01*
X158048476Y-131179812D01*
X158139191Y-131210050D01*
X158411333Y-131814812D02*
X158411333Y-131179812D01*
X158653238Y-131179812D01*
X158713714Y-131210050D01*
X158743953Y-131240288D01*
X158774191Y-131300764D01*
X158774191Y-131391479D01*
X158743953Y-131451955D01*
X158713714Y-131482193D01*
X158653238Y-131512431D01*
X158411333Y-131512431D01*
X159137048Y-131451955D02*
X159076572Y-131421717D01*
X159046333Y-131391479D01*
X159016095Y-131331002D01*
X159016095Y-131300764D01*
X159046333Y-131240288D01*
X159076572Y-131210050D01*
X159137048Y-131179812D01*
X159258000Y-131179812D01*
X159318476Y-131210050D01*
X159348714Y-131240288D01*
X159378953Y-131300764D01*
X159378953Y-131331002D01*
X159348714Y-131391479D01*
X159318476Y-131421717D01*
X159258000Y-131451955D01*
X159137048Y-131451955D01*
X159076572Y-131482193D01*
X159046333Y-131512431D01*
X159016095Y-131572907D01*
X159016095Y-131693860D01*
X159046333Y-131754336D01*
X159076572Y-131784574D01*
X159137048Y-131814812D01*
X159258000Y-131814812D01*
X159318476Y-131784574D01*
X159348714Y-131754336D01*
X159378953Y-131693860D01*
X159378953Y-131572907D01*
X159348714Y-131512431D01*
X159318476Y-131482193D01*
X159258000Y-131451955D01*
X159620857Y-131240288D02*
X159651095Y-131210050D01*
X159711572Y-131179812D01*
X159862762Y-131179812D01*
X159923238Y-131210050D01*
X159953476Y-131240288D01*
X159983715Y-131300764D01*
X159983715Y-131361240D01*
X159953476Y-131451955D01*
X159590619Y-131814812D01*
X159983715Y-131814812D01*
X160528000Y-131179812D02*
X160407048Y-131179812D01*
X160346572Y-131210050D01*
X160316334Y-131240288D01*
X160255857Y-131331002D01*
X160225619Y-131451955D01*
X160225619Y-131693860D01*
X160255857Y-131754336D01*
X160286096Y-131784574D01*
X160346572Y-131814812D01*
X160467524Y-131814812D01*
X160528000Y-131784574D01*
X160558238Y-131754336D01*
X160588477Y-131693860D01*
X160588477Y-131542669D01*
X160558238Y-131482193D01*
X160528000Y-131451955D01*
X160467524Y-131421717D01*
X160346572Y-131421717D01*
X160286096Y-131451955D01*
X160255857Y-131482193D01*
X160225619Y-131542669D01*
X161132762Y-131179812D02*
X161011810Y-131179812D01*
X160951334Y-131210050D01*
X160921096Y-131240288D01*
X160860619Y-131331002D01*
X160830381Y-131451955D01*
X160830381Y-131693860D01*
X160860619Y-131754336D01*
X160890858Y-131784574D01*
X160951334Y-131814812D01*
X161072286Y-131814812D01*
X161132762Y-131784574D01*
X161163000Y-131754336D01*
X161193239Y-131693860D01*
X161193239Y-131542669D01*
X161163000Y-131482193D01*
X161132762Y-131451955D01*
X161072286Y-131421717D01*
X160951334Y-131421717D01*
X160890858Y-131451955D01*
X160860619Y-131482193D01*
X160830381Y-131542669D01*
X162312049Y-131754336D02*
X162281811Y-131784574D01*
X162191096Y-131814812D01*
X162130620Y-131814812D01*
X162039906Y-131784574D01*
X161979430Y-131724098D01*
X161949191Y-131663621D01*
X161918953Y-131542669D01*
X161918953Y-131451955D01*
X161949191Y-131331002D01*
X161979430Y-131270526D01*
X162039906Y-131210050D01*
X162130620Y-131179812D01*
X162191096Y-131179812D01*
X162281811Y-131210050D01*
X162312049Y-131240288D01*
X162856334Y-131814812D02*
X162856334Y-131482193D01*
X162826096Y-131421717D01*
X162765620Y-131391479D01*
X162644668Y-131391479D01*
X162584191Y-131421717D01*
X162856334Y-131784574D02*
X162795858Y-131814812D01*
X162644668Y-131814812D01*
X162584191Y-131784574D01*
X162553953Y-131724098D01*
X162553953Y-131663621D01*
X162584191Y-131603145D01*
X162644668Y-131572907D01*
X162795858Y-131572907D01*
X162856334Y-131542669D01*
X163158715Y-131814812D02*
X163158715Y-131391479D01*
X163158715Y-131512431D02*
X163188954Y-131451955D01*
X163219192Y-131421717D01*
X163279668Y-131391479D01*
X163340144Y-131391479D01*
X163823953Y-131814812D02*
X163823953Y-131179812D01*
X163823953Y-131784574D02*
X163763477Y-131814812D01*
X163642525Y-131814812D01*
X163582049Y-131784574D01*
X163551810Y-131754336D01*
X163521572Y-131693860D01*
X163521572Y-131512431D01*
X163551810Y-131451955D01*
X163582049Y-131421717D01*
X163642525Y-131391479D01*
X163763477Y-131391479D01*
X163823953Y-131421717D01*
X157428594Y-132738283D02*
X157730975Y-132738283D01*
X157368118Y-132919712D02*
X157579785Y-132284712D01*
X157791452Y-132919712D01*
X158003118Y-132496379D02*
X158003118Y-133131379D01*
X158003118Y-132526617D02*
X158063595Y-132496379D01*
X158184547Y-132496379D01*
X158245023Y-132526617D01*
X158275261Y-132556855D01*
X158305499Y-132617331D01*
X158305499Y-132798760D01*
X158275261Y-132859236D01*
X158245023Y-132889474D01*
X158184547Y-132919712D01*
X158063595Y-132919712D01*
X158003118Y-132889474D01*
X158577642Y-132919712D02*
X158577642Y-132496379D01*
X158577642Y-132617331D02*
X158607881Y-132556855D01*
X158638119Y-132526617D01*
X158698595Y-132496379D01*
X158759071Y-132496379D01*
X158970737Y-132919712D02*
X158970737Y-132496379D01*
X158970737Y-132284712D02*
X158940499Y-132314950D01*
X158970737Y-132345188D01*
X159000976Y-132314950D01*
X158970737Y-132284712D01*
X158970737Y-132345188D01*
X159363833Y-132919712D02*
X159303357Y-132889474D01*
X159273118Y-132828998D01*
X159273118Y-132284712D01*
X160059309Y-132345188D02*
X160089547Y-132314950D01*
X160150024Y-132284712D01*
X160301214Y-132284712D01*
X160361690Y-132314950D01*
X160391928Y-132345188D01*
X160422167Y-132405664D01*
X160422167Y-132466140D01*
X160391928Y-132556855D01*
X160029071Y-132919712D01*
X160422167Y-132919712D01*
X160724548Y-132889474D02*
X160724548Y-132919712D01*
X160694309Y-132980188D01*
X160664071Y-133010426D01*
X161450262Y-132345188D02*
X161480500Y-132314950D01*
X161540977Y-132284712D01*
X161692167Y-132284712D01*
X161752643Y-132314950D01*
X161782881Y-132345188D01*
X161813120Y-132405664D01*
X161813120Y-132466140D01*
X161782881Y-132556855D01*
X161420024Y-132919712D01*
X161813120Y-132919712D01*
X162206215Y-132284712D02*
X162266691Y-132284712D01*
X162327167Y-132314950D01*
X162357405Y-132345188D01*
X162387643Y-132405664D01*
X162417882Y-132526617D01*
X162417882Y-132677807D01*
X162387643Y-132798760D01*
X162357405Y-132859236D01*
X162327167Y-132889474D01*
X162266691Y-132919712D01*
X162206215Y-132919712D01*
X162145739Y-132889474D01*
X162115501Y-132859236D01*
X162085262Y-132798760D01*
X162055024Y-132677807D01*
X162055024Y-132526617D01*
X162085262Y-132405664D01*
X162115501Y-132345188D01*
X162145739Y-132314950D01*
X162206215Y-132284712D01*
X163022644Y-132919712D02*
X162659786Y-132919712D01*
X162841215Y-132919712D02*
X162841215Y-132284712D01*
X162780739Y-132375426D01*
X162720263Y-132435902D01*
X162659786Y-132466140D01*
X163234310Y-132284712D02*
X163657644Y-132284712D01*
X163385501Y-132919712D01*
X157250191Y-114236500D02*
X157189714Y-114206262D01*
X157099000Y-114206262D01*
X157008286Y-114236500D01*
X156947810Y-114296976D01*
X156917571Y-114357452D01*
X156887333Y-114478405D01*
X156887333Y-114569119D01*
X156917571Y-114690071D01*
X156947810Y-114750548D01*
X157008286Y-114811024D01*
X157099000Y-114841262D01*
X157159476Y-114841262D01*
X157250191Y-114811024D01*
X157280429Y-114780786D01*
X157280429Y-114569119D01*
X157159476Y-114569119D01*
X157552571Y-114841262D02*
X157552571Y-114206262D01*
X157915429Y-114841262D01*
X157915429Y-114206262D01*
X158217809Y-114841262D02*
X158217809Y-114206262D01*
X158369000Y-114206262D01*
X158459714Y-114236500D01*
X158520190Y-114296976D01*
X158550429Y-114357452D01*
X158580667Y-114478405D01*
X158580667Y-114569119D01*
X158550429Y-114690071D01*
X158520190Y-114750548D01*
X158459714Y-114811024D01*
X158369000Y-114841262D01*
X158217809Y-114841262D01*
X157159475Y-111793262D02*
X157159475Y-111158262D01*
X157310666Y-111158262D01*
X157401380Y-111188500D01*
X157461856Y-111248976D01*
X157492095Y-111309452D01*
X157522333Y-111430405D01*
X157522333Y-111521119D01*
X157492095Y-111642071D01*
X157461856Y-111702548D01*
X157401380Y-111763024D01*
X157310666Y-111793262D01*
X157159475Y-111793262D01*
X158036380Y-111763024D02*
X157975904Y-111793262D01*
X157854952Y-111793262D01*
X157794475Y-111763024D01*
X157764237Y-111702548D01*
X157764237Y-111460643D01*
X157794475Y-111400167D01*
X157854952Y-111369929D01*
X157975904Y-111369929D01*
X158036380Y-111400167D01*
X158066618Y-111460643D01*
X158066618Y-111521119D01*
X157764237Y-111581595D01*
X158338761Y-111793262D02*
X158338761Y-111158262D01*
X158338761Y-111400167D02*
X158399238Y-111369929D01*
X158520190Y-111369929D01*
X158580666Y-111400167D01*
X158610904Y-111430405D01*
X158641142Y-111490881D01*
X158641142Y-111672310D01*
X158610904Y-111732786D01*
X158580666Y-111763024D01*
X158520190Y-111793262D01*
X158399238Y-111793262D01*
X158338761Y-111763024D01*
X159185428Y-111369929D02*
X159185428Y-111793262D01*
X158913285Y-111369929D02*
X158913285Y-111702548D01*
X158943524Y-111763024D01*
X159004000Y-111793262D01*
X159094714Y-111793262D01*
X159155190Y-111763024D01*
X159185428Y-111732786D01*
X159759952Y-111369929D02*
X159759952Y-111883976D01*
X159729714Y-111944452D01*
X159699476Y-111974690D01*
X159639000Y-112004929D01*
X159548286Y-112004929D01*
X159487809Y-111974690D01*
X159759952Y-111763024D02*
X159699476Y-111793262D01*
X159578524Y-111793262D01*
X159518048Y-111763024D01*
X159487809Y-111732786D01*
X159457571Y-111672310D01*
X159457571Y-111490881D01*
X159487809Y-111430405D01*
X159518048Y-111400167D01*
X159578524Y-111369929D01*
X159699476Y-111369929D01*
X159759952Y-111400167D01*
X159971619Y-111158262D02*
X160334476Y-111158262D01*
X160153048Y-111793262D02*
X160153048Y-111158262D01*
X160485667Y-111158262D02*
X160909001Y-111793262D01*
X160909001Y-111158262D02*
X160485667Y-111793262D01*
X171728190Y-103538262D02*
X172091047Y-103538262D01*
X171909619Y-104173262D02*
X171909619Y-103538262D01*
X172242238Y-103538262D02*
X172665572Y-104173262D01*
X172665572Y-103538262D02*
X172242238Y-104173262D01*
X174646167Y-104173262D02*
X174434500Y-103870881D01*
X174283309Y-104173262D02*
X174283309Y-103538262D01*
X174525214Y-103538262D01*
X174585690Y-103568500D01*
X174615929Y-103598738D01*
X174646167Y-103659214D01*
X174646167Y-103749929D01*
X174615929Y-103810405D01*
X174585690Y-103840643D01*
X174525214Y-103870881D01*
X174283309Y-103870881D01*
X174857833Y-103538262D02*
X175281167Y-104173262D01*
X175281167Y-103538262D02*
X174857833Y-104173262D01*
X163854191Y-103822500D02*
X163793714Y-103792262D01*
X163703000Y-103792262D01*
X163612286Y-103822500D01*
X163551810Y-103882976D01*
X163521571Y-103943452D01*
X163491333Y-104064405D01*
X163491333Y-104155119D01*
X163521571Y-104276071D01*
X163551810Y-104336548D01*
X163612286Y-104397024D01*
X163703000Y-104427262D01*
X163763476Y-104427262D01*
X163854191Y-104397024D01*
X163884429Y-104366786D01*
X163884429Y-104155119D01*
X163763476Y-104155119D01*
X164156571Y-104427262D02*
X164156571Y-103792262D01*
X164519429Y-104427262D01*
X164519429Y-103792262D01*
X164821809Y-104427262D02*
X164821809Y-103792262D01*
X164973000Y-103792262D01*
X165063714Y-103822500D01*
X165124190Y-103882976D01*
X165154429Y-103943452D01*
X165184667Y-104064405D01*
X165184667Y-104155119D01*
X165154429Y-104276071D01*
X165124190Y-104336548D01*
X165063714Y-104397024D01*
X164973000Y-104427262D01*
X164821809Y-104427262D01*
D13*
X161551620Y-116649500D02*
X160845500Y-116649500D01*
X160845500Y-116649500D02*
X160845500Y-118046500D01*
X160845500Y-118046500D02*
X161551620Y-118046500D01*
X163258500Y-116649500D02*
X162552380Y-116649500D01*
X163258500Y-116649500D02*
X163258500Y-118046500D01*
X163258500Y-118046500D02*
X162552380Y-118046500D01*
X161551620Y-114617500D02*
X160845500Y-114617500D01*
X160845500Y-114617500D02*
X160845500Y-116014500D01*
X160845500Y-116014500D02*
X161551620Y-116014500D01*
X163258500Y-114617500D02*
X162552380Y-114617500D01*
X163258500Y-114617500D02*
X163258500Y-116014500D01*
X163258500Y-116014500D02*
X162552380Y-116014500D01*
X161551620Y-118681500D02*
X160845500Y-118681500D01*
X160845500Y-118681500D02*
X160845500Y-120078500D01*
X160845500Y-120078500D02*
X161551620Y-120078500D01*
X163258500Y-118681500D02*
X162552380Y-118681500D01*
X163258500Y-118681500D02*
X163258500Y-120078500D01*
X163258500Y-120078500D02*
X162552380Y-120078500D01*
X186443620Y-122745500D02*
X185737500Y-122745500D01*
X185737500Y-122745500D02*
X185737500Y-124142500D01*
X185737500Y-124142500D02*
X186443620Y-124142500D01*
X188150500Y-122745500D02*
X187444380Y-122745500D01*
X188150500Y-122745500D02*
X188150500Y-124142500D01*
X188150500Y-124142500D02*
X187444380Y-124142500D01*
X186443620Y-126555500D02*
X185737500Y-126555500D01*
X185737500Y-126555500D02*
X185737500Y-127952500D01*
X185737500Y-127952500D02*
X186443620Y-127952500D01*
X188150500Y-126555500D02*
X187444380Y-126555500D01*
X188150500Y-126555500D02*
X188150500Y-127952500D01*
X188150500Y-127952500D02*
X187444380Y-127952500D01*
D11*
X183896000Y-112395000D02*
X183896000Y-111633000D01*
X183896000Y-111633000D02*
X167894000Y-111633000D01*
X167894000Y-111633000D02*
X167894000Y-112395000D01*
D13*
X185521600Y-113893600D02*
X186842400Y-113893600D01*
X185521600Y-111150400D02*
X185521600Y-113893600D01*
X186842400Y-113893600D02*
X186842400Y-111150400D01*
X185521600Y-111150400D02*
X186842400Y-111150400D01*
X187909200Y-106248200D02*
X190042800Y-106248200D01*
X190042800Y-101523800D02*
X190042800Y-106248200D01*
X187909200Y-106222800D02*
X187909200Y-101523800D01*
X187909200Y-101523800D02*
X190042800Y-101523800D01*
D14*
X153600000Y-115376000D02*
X153600000Y-112776000D01*
X153600000Y-112776000D02*
X150980000Y-112776000D01*
X150980000Y-112776000D02*
X150980000Y-115376000D01*
X150980000Y-115376000D02*
X153600000Y-115376000D01*
X150980000Y-114426000D02*
X150980000Y-113666000D01*
X150980000Y-113666000D02*
X144980000Y-113666000D01*
X144980000Y-113666000D02*
X144980000Y-114426000D01*
X144980000Y-114426000D02*
X150980000Y-114426000D01*
X154030000Y-114426000D02*
X153600000Y-114426000D01*
X154030000Y-113666000D02*
X153600000Y-113666000D01*
X150980000Y-114306000D02*
X144980000Y-114306000D01*
X150980000Y-114186000D02*
X144980000Y-114186000D01*
X150980000Y-114066000D02*
X144980000Y-114066000D01*
X150980000Y-113946000D02*
X144980000Y-113946000D01*
X150980000Y-113826000D02*
X144980000Y-113826000D01*
X150980000Y-113706000D02*
X144980000Y-113706000D01*
X153600000Y-112776000D02*
X153600000Y-110176000D01*
X153600000Y-110176000D02*
X150980000Y-110176000D01*
X150980000Y-110176000D02*
X150980000Y-112776000D01*
X150980000Y-112776000D02*
X153600000Y-112776000D01*
X150980000Y-111886000D02*
X150980000Y-111126000D01*
X150980000Y-111126000D02*
X144980000Y-111126000D01*
X144980000Y-111126000D02*
X144980000Y-111886000D01*
X144980000Y-111886000D02*
X150980000Y-111886000D01*
X154030000Y-111886000D02*
X153600000Y-111886000D01*
X154030000Y-111126000D02*
X153600000Y-111126000D01*
X156210000Y-114046000D02*
X156210000Y-115316000D01*
X156210000Y-115316000D02*
X154940000Y-115316000D01*
X183556000Y-102986000D02*
X183556000Y-104786000D01*
X186776000Y-104786000D02*
X186776000Y-102336000D01*
X163262000Y-100260000D02*
X165862000Y-100260000D01*
X165862000Y-100260000D02*
X165862000Y-97640000D01*
X165862000Y-97640000D02*
X163262000Y-97640000D01*
X163262000Y-97640000D02*
X163262000Y-100260000D01*
X164212000Y-97640000D02*
X164972000Y-97640000D01*
X164972000Y-97640000D02*
X164972000Y-91640000D01*
X164972000Y-91640000D02*
X164212000Y-91640000D01*
X164212000Y-91640000D02*
X164212000Y-97640000D01*
X164212000Y-100690000D02*
X164212000Y-100260000D01*
X164972000Y-100690000D02*
X164972000Y-100260000D01*
X164332000Y-97640000D02*
X164332000Y-91640000D01*
X164452000Y-97640000D02*
X164452000Y-91640000D01*
X164572000Y-97640000D02*
X164572000Y-91640000D01*
X164692000Y-97640000D02*
X164692000Y-91640000D01*
X164812000Y-97640000D02*
X164812000Y-91640000D01*
X164932000Y-97640000D02*
X164932000Y-91640000D01*
X165862000Y-100260000D02*
X168402000Y-100260000D01*
X168402000Y-100260000D02*
X168402000Y-97640000D01*
X168402000Y-97640000D02*
X165862000Y-97640000D01*
X165862000Y-97640000D02*
X165862000Y-100260000D01*
X166752000Y-97640000D02*
X167512000Y-97640000D01*
X167512000Y-97640000D02*
X167512000Y-91640000D01*
X167512000Y-91640000D02*
X166752000Y-91640000D01*
X166752000Y-91640000D02*
X166752000Y-97640000D01*
X166752000Y-100690000D02*
X166752000Y-100260000D01*
X167512000Y-100690000D02*
X167512000Y-100260000D01*
X168402000Y-100260000D02*
X170942000Y-100260000D01*
X170942000Y-100260000D02*
X170942000Y-97640000D01*
X170942000Y-97640000D02*
X168402000Y-97640000D01*
X168402000Y-97640000D02*
X168402000Y-100260000D01*
X169292000Y-97640000D02*
X170052000Y-97640000D01*
X170052000Y-97640000D02*
X170052000Y-91640000D01*
X170052000Y-91640000D02*
X169292000Y-91640000D01*
X169292000Y-91640000D02*
X169292000Y-97640000D01*
X169292000Y-100690000D02*
X169292000Y-100260000D01*
X170052000Y-100690000D02*
X170052000Y-100260000D01*
X170942000Y-100260000D02*
X173482000Y-100260000D01*
X173482000Y-100260000D02*
X173482000Y-97640000D01*
X173482000Y-97640000D02*
X170942000Y-97640000D01*
X170942000Y-97640000D02*
X170942000Y-100260000D01*
X171832000Y-97640000D02*
X172592000Y-97640000D01*
X172592000Y-97640000D02*
X172592000Y-91640000D01*
X172592000Y-91640000D02*
X171832000Y-91640000D01*
X171832000Y-91640000D02*
X171832000Y-97640000D01*
X171832000Y-100690000D02*
X171832000Y-100260000D01*
X172592000Y-100690000D02*
X172592000Y-100260000D01*
X173482000Y-100260000D02*
X176022000Y-100260000D01*
X176022000Y-100260000D02*
X176022000Y-97640000D01*
X176022000Y-97640000D02*
X173482000Y-97640000D01*
X173482000Y-97640000D02*
X173482000Y-100260000D01*
X174372000Y-97640000D02*
X175132000Y-97640000D01*
X175132000Y-97640000D02*
X175132000Y-91640000D01*
X175132000Y-91640000D02*
X174372000Y-91640000D01*
X174372000Y-91640000D02*
X174372000Y-97640000D01*
X174372000Y-100690000D02*
X174372000Y-100260000D01*
X175132000Y-100690000D02*
X175132000Y-100260000D01*
X176022000Y-100260000D02*
X178622000Y-100260000D01*
X178622000Y-100260000D02*
X178622000Y-97640000D01*
X178622000Y-97640000D02*
X176022000Y-97640000D01*
X176022000Y-97640000D02*
X176022000Y-100260000D01*
X176912000Y-97640000D02*
X177672000Y-97640000D01*
X177672000Y-97640000D02*
X177672000Y-91640000D01*
X177672000Y-91640000D02*
X176912000Y-91640000D01*
X176912000Y-91640000D02*
X176912000Y-97640000D01*
X176912000Y-100690000D02*
X176912000Y-100260000D01*
X177672000Y-100690000D02*
X177672000Y-100260000D01*
X164592000Y-102870000D02*
X163322000Y-102870000D01*
X163322000Y-102870000D02*
X163322000Y-101600000D01*
D15*
X160381905Y-117481333D02*
X160000952Y-117748000D01*
X160381905Y-117938476D02*
X159581905Y-117938476D01*
X159581905Y-117633714D01*
X159620000Y-117557523D01*
X159658095Y-117519428D01*
X159734286Y-117481333D01*
X159848571Y-117481333D01*
X159924762Y-117519428D01*
X159962857Y-117557523D01*
X160000952Y-117633714D01*
X160000952Y-117938476D01*
X160381905Y-116719428D02*
X160381905Y-117176571D01*
X160381905Y-116948000D02*
X159581905Y-116948000D01*
X159696190Y-117024190D01*
X159772381Y-117100381D01*
X159810476Y-117176571D01*
X160381905Y-115449333D02*
X160000952Y-115716000D01*
X160381905Y-115906476D02*
X159581905Y-115906476D01*
X159581905Y-115601714D01*
X159620000Y-115525523D01*
X159658095Y-115487428D01*
X159734286Y-115449333D01*
X159848571Y-115449333D01*
X159924762Y-115487428D01*
X159962857Y-115525523D01*
X160000952Y-115601714D01*
X160000952Y-115906476D01*
X159658095Y-115144571D02*
X159620000Y-115106476D01*
X159581905Y-115030285D01*
X159581905Y-114839809D01*
X159620000Y-114763619D01*
X159658095Y-114725523D01*
X159734286Y-114687428D01*
X159810476Y-114687428D01*
X159924762Y-114725523D01*
X160381905Y-115182666D01*
X160381905Y-114687428D01*
X160381905Y-119513333D02*
X160000952Y-119780000D01*
X160381905Y-119970476D02*
X159581905Y-119970476D01*
X159581905Y-119665714D01*
X159620000Y-119589523D01*
X159658095Y-119551428D01*
X159734286Y-119513333D01*
X159848571Y-119513333D01*
X159924762Y-119551428D01*
X159962857Y-119589523D01*
X160000952Y-119665714D01*
X160000952Y-119970476D01*
X159581905Y-119246666D02*
X159581905Y-118751428D01*
X159886667Y-119018095D01*
X159886667Y-118903809D01*
X159924762Y-118827619D01*
X159962857Y-118789523D01*
X160039048Y-118751428D01*
X160229524Y-118751428D01*
X160305714Y-118789523D01*
X160343810Y-118827619D01*
X160381905Y-118903809D01*
X160381905Y-119132381D01*
X160343810Y-119208571D01*
X160305714Y-119246666D01*
X185388205Y-123551933D02*
X185007252Y-123818600D01*
X185388205Y-124009076D02*
X184588205Y-124009076D01*
X184588205Y-123704314D01*
X184626300Y-123628123D01*
X184664395Y-123590028D01*
X184740586Y-123551933D01*
X184854871Y-123551933D01*
X184931062Y-123590028D01*
X184969157Y-123628123D01*
X185007252Y-123704314D01*
X185007252Y-124009076D01*
X184854871Y-122866219D02*
X185388205Y-122866219D01*
X184550110Y-123056695D02*
X185121538Y-123247171D01*
X185121538Y-122751933D01*
X189337905Y-127387333D02*
X188956952Y-127654000D01*
X189337905Y-127844476D02*
X188537905Y-127844476D01*
X188537905Y-127539714D01*
X188576000Y-127463523D01*
X188614095Y-127425428D01*
X188690286Y-127387333D01*
X188804571Y-127387333D01*
X188880762Y-127425428D01*
X188918857Y-127463523D01*
X188956952Y-127539714D01*
X188956952Y-127844476D01*
X188537905Y-126663523D02*
X188537905Y-127044476D01*
X188918857Y-127082571D01*
X188880762Y-127044476D01*
X188842667Y-126968285D01*
X188842667Y-126777809D01*
X188880762Y-126701619D01*
X188918857Y-126663523D01*
X188995048Y-126625428D01*
X189185524Y-126625428D01*
X189261714Y-126663523D01*
X189299810Y-126701619D01*
X189337905Y-126777809D01*
X189337905Y-126968285D01*
X189299810Y-127044476D01*
X189261714Y-127082571D01*
X175768095Y-124166381D02*
X175768095Y-124975905D01*
X175815714Y-125071143D01*
X175863333Y-125118762D01*
X175958571Y-125166381D01*
X176149048Y-125166381D01*
X176244286Y-125118762D01*
X176291905Y-125071143D01*
X176339524Y-124975905D01*
X176339524Y-124166381D01*
X176768095Y-124261619D02*
X176815714Y-124214000D01*
X176910952Y-124166381D01*
X177149048Y-124166381D01*
X177244286Y-124214000D01*
X177291905Y-124261619D01*
X177339524Y-124356857D01*
X177339524Y-124452095D01*
X177291905Y-124594952D01*
X176720476Y-125166381D01*
X177339524Y-125166381D01*
X186074067Y-114890514D02*
X186035972Y-114928610D01*
X185921686Y-114966705D01*
X185845496Y-114966705D01*
X185731210Y-114928610D01*
X185655019Y-114852419D01*
X185616924Y-114776229D01*
X185578829Y-114623848D01*
X185578829Y-114509562D01*
X185616924Y-114357181D01*
X185655019Y-114280990D01*
X185731210Y-114204800D01*
X185845496Y-114166705D01*
X185921686Y-114166705D01*
X186035972Y-114204800D01*
X186074067Y-114242895D01*
X186835972Y-114966705D02*
X186378829Y-114966705D01*
X186607400Y-114966705D02*
X186607400Y-114166705D01*
X186531210Y-114280990D01*
X186455019Y-114357181D01*
X186378829Y-114395276D01*
X188956967Y-107283214D02*
X188918872Y-107321310D01*
X188804586Y-107359405D01*
X188728396Y-107359405D01*
X188614110Y-107321310D01*
X188537919Y-107245119D01*
X188499824Y-107168929D01*
X188461729Y-107016548D01*
X188461729Y-106902262D01*
X188499824Y-106749881D01*
X188537919Y-106673690D01*
X188614110Y-106597500D01*
X188728396Y-106559405D01*
X188804586Y-106559405D01*
X188918872Y-106597500D01*
X188956967Y-106635595D01*
X189261729Y-106635595D02*
X189299824Y-106597500D01*
X189376015Y-106559405D01*
X189566491Y-106559405D01*
X189642681Y-106597500D01*
X189680777Y-106635595D01*
X189718872Y-106711786D01*
X189718872Y-106787976D01*
X189680777Y-106902262D01*
X189223634Y-107359405D01*
X189718872Y-107359405D01*
X150291667Y-115768381D02*
X150291667Y-116482667D01*
X150244047Y-116625524D01*
X150148809Y-116720762D01*
X150005952Y-116768381D01*
X149910714Y-116768381D01*
X151291667Y-116768381D02*
X150720238Y-116768381D01*
X151005952Y-116768381D02*
X151005952Y-115768381D01*
X150910714Y-115911238D01*
X150815476Y-116006476D01*
X150720238Y-116054095D01*
X189936857Y-121261143D02*
X189889238Y-121308762D01*
X189746381Y-121356381D01*
X189651143Y-121356381D01*
X189508285Y-121308762D01*
X189413047Y-121213524D01*
X189365428Y-121118286D01*
X189317809Y-120927810D01*
X189317809Y-120784952D01*
X189365428Y-120594476D01*
X189413047Y-120499238D01*
X189508285Y-120404000D01*
X189651143Y-120356381D01*
X189746381Y-120356381D01*
X189889238Y-120404000D01*
X189936857Y-120451619D01*
X190317809Y-121070667D02*
X190794000Y-121070667D01*
X190222571Y-121356381D02*
X190555904Y-120356381D01*
X190889238Y-121356381D01*
X191651143Y-120356381D02*
X191460666Y-120356381D01*
X191365428Y-120404000D01*
X191317809Y-120451619D01*
X191222571Y-120594476D01*
X191174952Y-120784952D01*
X191174952Y-121165905D01*
X191222571Y-121261143D01*
X191270190Y-121308762D01*
X191365428Y-121356381D01*
X191555905Y-121356381D01*
X191651143Y-121308762D01*
X191698762Y-121261143D01*
X191746381Y-121165905D01*
X191746381Y-120927810D01*
X191698762Y-120832571D01*
X191651143Y-120784952D01*
X191555905Y-120737333D01*
X191365428Y-120737333D01*
X191270190Y-120784952D01*
X191222571Y-120832571D01*
X191174952Y-120927810D01*
X191936857Y-121451619D02*
X192698762Y-121451619D01*
X193127333Y-120356381D02*
X193222572Y-120356381D01*
X193317810Y-120404000D01*
X193365429Y-120451619D01*
X193413048Y-120546857D01*
X193460667Y-120737333D01*
X193460667Y-120975429D01*
X193413048Y-121165905D01*
X193365429Y-121261143D01*
X193317810Y-121308762D01*
X193222572Y-121356381D01*
X193127333Y-121356381D01*
X193032095Y-121308762D01*
X192984476Y-121261143D01*
X192936857Y-121165905D01*
X192889238Y-120975429D01*
X192889238Y-120737333D01*
X192936857Y-120546857D01*
X192984476Y-120451619D01*
X193032095Y-120404000D01*
X193127333Y-120356381D01*
X193841619Y-120451619D02*
X193889238Y-120404000D01*
X193984476Y-120356381D01*
X194222572Y-120356381D01*
X194317810Y-120404000D01*
X194365429Y-120451619D01*
X194413048Y-120546857D01*
X194413048Y-120642095D01*
X194365429Y-120784952D01*
X193794000Y-121356381D01*
X194413048Y-121356381D01*
X194746381Y-120356381D02*
X195413048Y-121356381D01*
X195413048Y-120356381D02*
X194746381Y-121356381D01*
X195984476Y-120356381D02*
X196079715Y-120356381D01*
X196174953Y-120404000D01*
X196222572Y-120451619D01*
X196270191Y-120546857D01*
X196317810Y-120737333D01*
X196317810Y-120975429D01*
X196270191Y-121165905D01*
X196222572Y-121261143D01*
X196174953Y-121308762D01*
X196079715Y-121356381D01*
X195984476Y-121356381D01*
X195889238Y-121308762D01*
X195841619Y-121261143D01*
X195794000Y-121165905D01*
X195746381Y-120975429D01*
X195746381Y-120737333D01*
X195794000Y-120546857D01*
X195841619Y-120451619D01*
X195889238Y-120404000D01*
X195984476Y-120356381D01*
X197174953Y-120356381D02*
X196984476Y-120356381D01*
X196889238Y-120404000D01*
X196841619Y-120451619D01*
X196746381Y-120594476D01*
X196698762Y-120784952D01*
X196698762Y-121165905D01*
X196746381Y-121261143D01*
X196794000Y-121308762D01*
X196889238Y-121356381D01*
X197079715Y-121356381D01*
X197174953Y-121308762D01*
X197222572Y-121261143D01*
X197270191Y-121165905D01*
X197270191Y-120927810D01*
X197222572Y-120832571D01*
X197174953Y-120784952D01*
X197079715Y-120737333D01*
X196889238Y-120737333D01*
X196794000Y-120784952D01*
X196746381Y-120832571D01*
X196698762Y-120927810D01*
X187158381Y-104647905D02*
X187967905Y-104647905D01*
X188063143Y-104600286D01*
X188110762Y-104552667D01*
X188158381Y-104457429D01*
X188158381Y-104266952D01*
X188110762Y-104171714D01*
X188063143Y-104124095D01*
X187967905Y-104076476D01*
X187158381Y-104076476D01*
X188158381Y-103076476D02*
X188158381Y-103647905D01*
X188158381Y-103362191D02*
X187158381Y-103362191D01*
X187301238Y-103457429D01*
X187396476Y-103552667D01*
X187444095Y-103647905D01*
X180109905Y-102052381D02*
X180109905Y-101052381D01*
X180490858Y-101052381D01*
X180586096Y-101100000D01*
X180633715Y-101147619D01*
X180681334Y-101242857D01*
X180681334Y-101385714D01*
X180633715Y-101480952D01*
X180586096Y-101528571D01*
X180490858Y-101576190D01*
X180109905Y-101576190D01*
X181633715Y-102052381D02*
X181062286Y-102052381D01*
X181348000Y-102052381D02*
X181348000Y-101052381D01*
X181252762Y-101195238D01*
X181157524Y-101290476D01*
X181062286Y-101338095D01*
M02*
