G04 #@! TF.FileFunction,Soldermask,Top*
%FSLAX46Y46*%
G04 Gerber Fmt 4.6, Leading zero omitted, Abs format (unit mm)*
G04 Created by KiCad (PCBNEW 4.0.5) date 04/03/17 14:36:26*
%MOMM*%
%LPD*%
G01*
G04 APERTURE LIST*
%ADD10C,0.100000*%
%ADD11R,0.635000X1.143000*%
%ADD12R,2.500000X1.100000*%
%ADD13O,2.500000X1.100000*%
%ADD14R,1.000800X0.899200*%
%ADD15R,1.803400X1.600200*%
%ADD16C,7.000000*%
%ADD17R,1.700000X1.700000*%
%ADD18O,1.700000X1.700000*%
%ADD19R,0.650000X1.060000*%
G04 APERTURE END LIST*
D10*
D11*
X161290000Y-117348000D03*
X162814000Y-117348000D03*
X161290000Y-115316000D03*
X162814000Y-115316000D03*
X161290000Y-119380000D03*
X162814000Y-119380000D03*
X186182000Y-123444000D03*
X187706000Y-123444000D03*
X186182000Y-127254000D03*
X187706000Y-127254000D03*
D12*
X183580000Y-127254000D03*
D13*
X183580000Y-125254000D03*
X183580000Y-123254000D03*
X183580000Y-121254000D03*
X183580000Y-119254000D03*
X183580000Y-117254000D03*
X183580000Y-115254000D03*
X183580000Y-113254000D03*
X168180000Y-113254000D03*
X168280000Y-115254000D03*
X168180000Y-117254000D03*
X168180000Y-119254000D03*
X168180000Y-121254000D03*
X168180000Y-123254000D03*
X168180000Y-125254000D03*
X168180000Y-127254000D03*
D14*
X186182000Y-113273800D03*
X186182000Y-111770200D03*
D15*
X188976000Y-105283000D03*
X188976000Y-102489000D03*
D16*
X158750000Y-105410000D03*
D17*
X154940000Y-114046000D03*
D18*
X154940000Y-111506000D03*
D17*
X194564000Y-105410000D03*
D18*
X192024000Y-105410000D03*
X194564000Y-107950000D03*
X192024000Y-107950000D03*
X194564000Y-110490000D03*
X192024000Y-110490000D03*
X194564000Y-113030000D03*
X192024000Y-113030000D03*
X194564000Y-115570000D03*
X192024000Y-115570000D03*
X194564000Y-118110000D03*
X192024000Y-118110000D03*
D19*
X186116000Y-102786000D03*
X185166000Y-102786000D03*
X184216000Y-102786000D03*
X184216000Y-104986000D03*
X186116000Y-104986000D03*
D17*
X164592000Y-101600000D03*
D18*
X167132000Y-101600000D03*
X169672000Y-101600000D03*
X172212000Y-101600000D03*
X174752000Y-101600000D03*
X177292000Y-101600000D03*
M02*
