G04 #@! TF.FileFunction,Soldermask,Top*
%FSLAX46Y46*%
G04 Gerber Fmt 4.6, Leading zero omitted, Abs format (unit mm)*
G04 Created by KiCad (PCBNEW 4.0.5) date 04/03/17 14:37:35*
%MOMM*%
%LPD*%
G01*
G04 APERTURE LIST*
%ADD10C,0.100000*%
%ADD11R,1.600000X0.900000*%
%ADD12R,0.900000X1.600000*%
%ADD13R,0.899200X1.000800*%
%ADD14R,1.803400X1.600200*%
%ADD15C,7.000000*%
%ADD16R,1.060000X0.650000*%
%ADD17R,1.700000X1.700000*%
%ADD18O,1.700000X1.700000*%
%ADD19C,1.400000*%
G04 APERTURE END LIST*
D10*
D11*
X163502000Y-133324000D03*
X163502000Y-132574000D03*
X163502000Y-131074000D03*
X163502000Y-131824000D03*
X163502000Y-128074000D03*
X163502000Y-128824000D03*
X163502000Y-130324000D03*
X163502000Y-129574000D03*
X163502000Y-122074000D03*
X163502000Y-122824000D03*
X163502000Y-124324000D03*
X163502000Y-123574000D03*
X163502000Y-127324000D03*
X163502000Y-126574000D03*
X163502000Y-125074000D03*
X163502000Y-125824000D03*
X173302000Y-128074000D03*
X173302000Y-128824000D03*
X173302000Y-122074000D03*
X173302000Y-122824000D03*
X173302000Y-124324000D03*
X173302000Y-123574000D03*
X173302000Y-127324000D03*
X173302000Y-126574000D03*
X173302000Y-125074000D03*
X173302000Y-125824000D03*
X173302000Y-129574000D03*
X173302000Y-130324000D03*
D12*
X170652000Y-121624000D03*
X171402000Y-121624000D03*
X164652000Y-121624000D03*
X165402000Y-121624000D03*
X166902000Y-121624000D03*
X166152000Y-121624000D03*
X169902000Y-121624000D03*
X169152000Y-121624000D03*
X167652000Y-121624000D03*
X168402000Y-121624000D03*
X172152000Y-121624000D03*
D13*
X172730200Y-119634000D03*
X174233800Y-119634000D03*
D14*
X182880000Y-108077000D03*
X182880000Y-105283000D03*
D15*
X158750000Y-105410000D03*
D16*
X176446000Y-109286000D03*
X176446000Y-110236000D03*
X176446000Y-111186000D03*
X178646000Y-111186000D03*
X178646000Y-109286000D03*
D17*
X165862000Y-101600000D03*
D18*
X168402000Y-101600000D03*
X170942000Y-101600000D03*
X173482000Y-101600000D03*
X176022000Y-101600000D03*
X178562000Y-101600000D03*
D19*
X160274000Y-121666000D03*
X160274000Y-124206000D03*
D17*
X194564000Y-105410000D03*
D18*
X192024000Y-105410000D03*
X194564000Y-107950000D03*
X192024000Y-107950000D03*
X194564000Y-110490000D03*
X192024000Y-110490000D03*
X194564000Y-113030000D03*
X192024000Y-113030000D03*
X194564000Y-115570000D03*
X192024000Y-115570000D03*
X194564000Y-118110000D03*
X192024000Y-118110000D03*
M02*
