M48
;DRILL file {KiCad 4.0.5} date 04/03/17 14:37:42
;FORMAT={-:-/ absolute / inch / decimal}
FMAT,2
INCH,TZ
T1C0.014
T2C0.016
T3C0.032
T4C0.039
%
G90
G05
M72
T1
X6.89Y-4.78
X6.89Y-4.83
X7.36Y-4.54
T2
X6.175Y-5.2972
X6.3638Y-4.7691
X6.9007Y-4.3683
X6.91Y-4.71
X6.9514Y-5.0539
X7.09Y-4.32
X7.1Y-4.54
X7.27Y-4.15
T3
X6.31Y-4.79
X6.31Y-4.89
T4
X6.53Y-4.
X6.63Y-4.
X6.73Y-4.
X6.83Y-4.
X6.93Y-4.
X7.03Y-4.
X7.56Y-4.15
X7.56Y-4.25
X7.56Y-4.35
X7.56Y-4.45
X7.56Y-4.55
X7.56Y-4.65
X7.66Y-4.15
X7.66Y-4.25
X7.66Y-4.35
X7.66Y-4.45
X7.66Y-4.55
X7.66Y-4.65
T0
M30
