G04 #@! TF.FileFunction,Legend,Top*
%FSLAX46Y46*%
G04 Gerber Fmt 4.6, Leading zero omitted, Abs format (unit mm)*
G04 Created by KiCad (PCBNEW 4.0.7) date 06/28/18 16:13:00*
%MOMM*%
%LPD*%
G01*
G04 APERTURE LIST*
%ADD10C,0.150000*%
%ADD11C,0.254000*%
%ADD12C,0.300000*%
%ADD13C,0.203200*%
%ADD14C,0.120000*%
%ADD15C,0.149860*%
G04 APERTURE END LIST*
D10*
D11*
X65495714Y-29754286D02*
X65677143Y-29814762D01*
X65737619Y-29875238D01*
X65798095Y-29996190D01*
X65798095Y-30177619D01*
X65737619Y-30298571D01*
X65677143Y-30359048D01*
X65556190Y-30419524D01*
X65072381Y-30419524D01*
X65072381Y-29149524D01*
X65495714Y-29149524D01*
X65616667Y-29210000D01*
X65677143Y-29270476D01*
X65737619Y-29391429D01*
X65737619Y-29512381D01*
X65677143Y-29633333D01*
X65616667Y-29693810D01*
X65495714Y-29754286D01*
X65072381Y-29754286D01*
X66523810Y-30419524D02*
X66402857Y-30359048D01*
X66342381Y-30238095D01*
X66342381Y-29149524D01*
X67551905Y-30419524D02*
X67551905Y-29754286D01*
X67491428Y-29633333D01*
X67370476Y-29572857D01*
X67128571Y-29572857D01*
X67007619Y-29633333D01*
X67551905Y-30359048D02*
X67430952Y-30419524D01*
X67128571Y-30419524D01*
X67007619Y-30359048D01*
X66947143Y-30238095D01*
X66947143Y-30117143D01*
X67007619Y-29996190D01*
X67128571Y-29935714D01*
X67430952Y-29935714D01*
X67551905Y-29875238D01*
X68700953Y-30359048D02*
X68580000Y-30419524D01*
X68338096Y-30419524D01*
X68217143Y-30359048D01*
X68156667Y-30298571D01*
X68096191Y-30177619D01*
X68096191Y-29814762D01*
X68156667Y-29693810D01*
X68217143Y-29633333D01*
X68338096Y-29572857D01*
X68580000Y-29572857D01*
X68700953Y-29633333D01*
X69245238Y-30419524D02*
X69245238Y-29149524D01*
X69366190Y-29935714D02*
X69729047Y-30419524D01*
X69729047Y-29572857D02*
X69245238Y-30056667D01*
X65798095Y-41849524D02*
X65374762Y-41244762D01*
X65072381Y-41849524D02*
X65072381Y-40579524D01*
X65556190Y-40579524D01*
X65677143Y-40640000D01*
X65737619Y-40700476D01*
X65798095Y-40821429D01*
X65798095Y-41002857D01*
X65737619Y-41123810D01*
X65677143Y-41184286D01*
X65556190Y-41244762D01*
X65072381Y-41244762D01*
X66826190Y-41789048D02*
X66705238Y-41849524D01*
X66463333Y-41849524D01*
X66342381Y-41789048D01*
X66281905Y-41668095D01*
X66281905Y-41184286D01*
X66342381Y-41063333D01*
X66463333Y-41002857D01*
X66705238Y-41002857D01*
X66826190Y-41063333D01*
X66886667Y-41184286D01*
X66886667Y-41305238D01*
X66281905Y-41426190D01*
X67975238Y-41849524D02*
X67975238Y-40579524D01*
X67975238Y-41789048D02*
X67854285Y-41849524D01*
X67612381Y-41849524D01*
X67491428Y-41789048D01*
X67430952Y-41728571D01*
X67370476Y-41607619D01*
X67370476Y-41244762D01*
X67430952Y-41123810D01*
X67491428Y-41063333D01*
X67612381Y-41002857D01*
X67854285Y-41002857D01*
X67975238Y-41063333D01*
D12*
X62471905Y-40023143D02*
X64020095Y-40023143D01*
X63246000Y-40797238D02*
X63246000Y-39249048D01*
X62471905Y-31133143D02*
X64020095Y-31133143D01*
D13*
X44546762Y-26520019D02*
X44885429Y-27536019D01*
X45224095Y-26520019D01*
X45562762Y-27536019D02*
X45562762Y-26858686D01*
X45562762Y-26520019D02*
X45514381Y-26568400D01*
X45562762Y-26616781D01*
X45611143Y-26568400D01*
X45562762Y-26520019D01*
X45562762Y-26616781D01*
X46046572Y-27536019D02*
X46046572Y-26520019D01*
X46046572Y-26907067D02*
X46143334Y-26858686D01*
X46336857Y-26858686D01*
X46433619Y-26907067D01*
X46482000Y-26955448D01*
X46530381Y-27052210D01*
X46530381Y-27342495D01*
X46482000Y-27439257D01*
X46433619Y-27487638D01*
X46336857Y-27536019D01*
X46143334Y-27536019D01*
X46046572Y-27487638D01*
X46965810Y-27536019D02*
X46965810Y-26858686D01*
X46965810Y-27052210D02*
X47014191Y-26955448D01*
X47062572Y-26907067D01*
X47159334Y-26858686D01*
X47256095Y-26858686D01*
X48030190Y-27536019D02*
X48030190Y-27003829D01*
X47981809Y-26907067D01*
X47885047Y-26858686D01*
X47691524Y-26858686D01*
X47594762Y-26907067D01*
X48030190Y-27487638D02*
X47933428Y-27536019D01*
X47691524Y-27536019D01*
X47594762Y-27487638D01*
X47546381Y-27390876D01*
X47546381Y-27294114D01*
X47594762Y-27197352D01*
X47691524Y-27148971D01*
X47933428Y-27148971D01*
X48030190Y-27100590D01*
X48368857Y-26858686D02*
X48755905Y-26858686D01*
X48514000Y-26520019D02*
X48514000Y-27390876D01*
X48562381Y-27487638D01*
X48659143Y-27536019D01*
X48755905Y-27536019D01*
X49094571Y-27536019D02*
X49094571Y-26858686D01*
X49094571Y-26520019D02*
X49046190Y-26568400D01*
X49094571Y-26616781D01*
X49142952Y-26568400D01*
X49094571Y-26520019D01*
X49094571Y-26616781D01*
X49723524Y-27536019D02*
X49626762Y-27487638D01*
X49578381Y-27439257D01*
X49530000Y-27342495D01*
X49530000Y-27052210D01*
X49578381Y-26955448D01*
X49626762Y-26907067D01*
X49723524Y-26858686D01*
X49868666Y-26858686D01*
X49965428Y-26907067D01*
X50013809Y-26955448D01*
X50062190Y-27052210D01*
X50062190Y-27342495D01*
X50013809Y-27439257D01*
X49965428Y-27487638D01*
X49868666Y-27536019D01*
X49723524Y-27536019D01*
X50497619Y-26858686D02*
X50497619Y-27536019D01*
X50497619Y-26955448D02*
X50546000Y-26907067D01*
X50642762Y-26858686D01*
X50787904Y-26858686D01*
X50884666Y-26907067D01*
X50933047Y-27003829D01*
X50933047Y-27536019D01*
X52190952Y-27536019D02*
X52190952Y-26520019D01*
X52529618Y-27245733D01*
X52868285Y-26520019D01*
X52868285Y-27536019D01*
X53497238Y-27536019D02*
X53400476Y-27487638D01*
X53352095Y-27439257D01*
X53303714Y-27342495D01*
X53303714Y-27052210D01*
X53352095Y-26955448D01*
X53400476Y-26907067D01*
X53497238Y-26858686D01*
X53642380Y-26858686D01*
X53739142Y-26907067D01*
X53787523Y-26955448D01*
X53835904Y-27052210D01*
X53835904Y-27342495D01*
X53787523Y-27439257D01*
X53739142Y-27487638D01*
X53642380Y-27536019D01*
X53497238Y-27536019D01*
X54706761Y-27536019D02*
X54706761Y-26520019D01*
X54706761Y-27487638D02*
X54609999Y-27536019D01*
X54416476Y-27536019D01*
X54319714Y-27487638D01*
X54271333Y-27439257D01*
X54222952Y-27342495D01*
X54222952Y-27052210D01*
X54271333Y-26955448D01*
X54319714Y-26907067D01*
X54416476Y-26858686D01*
X54609999Y-26858686D01*
X54706761Y-26907067D01*
X55625999Y-26858686D02*
X55625999Y-27536019D01*
X55190571Y-26858686D02*
X55190571Y-27390876D01*
X55238952Y-27487638D01*
X55335714Y-27536019D01*
X55480856Y-27536019D01*
X55577618Y-27487638D01*
X55625999Y-27439257D01*
X56254952Y-27536019D02*
X56158190Y-27487638D01*
X56109809Y-27390876D01*
X56109809Y-26520019D01*
X57029046Y-27487638D02*
X56932284Y-27536019D01*
X56738761Y-27536019D01*
X56641999Y-27487638D01*
X56593618Y-27390876D01*
X56593618Y-27003829D01*
X56641999Y-26907067D01*
X56738761Y-26858686D01*
X56932284Y-26858686D01*
X57029046Y-26907067D01*
X57077427Y-27003829D01*
X57077427Y-27100590D01*
X56593618Y-27197352D01*
X44643524Y-28343981D02*
X44691905Y-28295600D01*
X44788667Y-28247219D01*
X45030571Y-28247219D01*
X45127333Y-28295600D01*
X45175714Y-28343981D01*
X45224095Y-28440743D01*
X45224095Y-28537505D01*
X45175714Y-28682648D01*
X44595143Y-29263219D01*
X45224095Y-29263219D01*
X45853048Y-28247219D02*
X45949809Y-28247219D01*
X46046571Y-28295600D01*
X46094952Y-28343981D01*
X46143333Y-28440743D01*
X46191714Y-28634267D01*
X46191714Y-28876171D01*
X46143333Y-29069695D01*
X46094952Y-29166457D01*
X46046571Y-29214838D01*
X45949809Y-29263219D01*
X45853048Y-29263219D01*
X45756286Y-29214838D01*
X45707905Y-29166457D01*
X45659524Y-29069695D01*
X45611143Y-28876171D01*
X45611143Y-28634267D01*
X45659524Y-28440743D01*
X45707905Y-28343981D01*
X45756286Y-28295600D01*
X45853048Y-28247219D01*
X47159333Y-29263219D02*
X46578762Y-29263219D01*
X46869048Y-29263219D02*
X46869048Y-28247219D01*
X46772286Y-28392362D01*
X46675524Y-28489124D01*
X46578762Y-28537505D01*
X47739905Y-28682648D02*
X47643143Y-28634267D01*
X47594762Y-28585886D01*
X47546381Y-28489124D01*
X47546381Y-28440743D01*
X47594762Y-28343981D01*
X47643143Y-28295600D01*
X47739905Y-28247219D01*
X47933428Y-28247219D01*
X48030190Y-28295600D01*
X48078571Y-28343981D01*
X48126952Y-28440743D01*
X48126952Y-28489124D01*
X48078571Y-28585886D01*
X48030190Y-28634267D01*
X47933428Y-28682648D01*
X47739905Y-28682648D01*
X47643143Y-28731029D01*
X47594762Y-28779410D01*
X47546381Y-28876171D01*
X47546381Y-29069695D01*
X47594762Y-29166457D01*
X47643143Y-29214838D01*
X47739905Y-29263219D01*
X47933428Y-29263219D01*
X48030190Y-29214838D01*
X48078571Y-29166457D01*
X48126952Y-29069695D01*
X48126952Y-28876171D01*
X48078571Y-28779410D01*
X48030190Y-28731029D01*
X47933428Y-28682648D01*
X48562381Y-29166457D02*
X48610762Y-29214838D01*
X48562381Y-29263219D01*
X48514000Y-29214838D01*
X48562381Y-29166457D01*
X48562381Y-29263219D01*
X48949429Y-28247219D02*
X49626762Y-28247219D01*
X49191334Y-29263219D01*
X50013810Y-29166457D02*
X50062191Y-29214838D01*
X50013810Y-29263219D01*
X49965429Y-29214838D01*
X50013810Y-29166457D01*
X50013810Y-29263219D01*
X51029810Y-29263219D02*
X50449239Y-29263219D01*
X50739525Y-29263219D02*
X50739525Y-28247219D01*
X50642763Y-28392362D01*
X50546001Y-28489124D01*
X50449239Y-28537505D01*
D14*
X46680000Y-36320000D02*
X47610000Y-36320000D01*
X49840000Y-36320000D02*
X48910000Y-36320000D01*
X49840000Y-36320000D02*
X49840000Y-34160000D01*
X46680000Y-36320000D02*
X46680000Y-34860000D01*
D15*
X22152000Y-27430000D02*
X37902000Y-27430000D01*
X37902000Y-27430000D02*
X37902000Y-43690000D01*
X37902000Y-43690000D02*
X22152000Y-43690000D01*
X22152000Y-43690000D02*
X22152000Y-27430000D01*
D14*
X43860000Y-35060000D02*
X43860000Y-36060000D01*
X42500000Y-36060000D02*
X42500000Y-35060000D01*
D10*
X47521905Y-33726381D02*
X47521905Y-32726381D01*
X47760000Y-32726381D01*
X47902858Y-32774000D01*
X47998096Y-32869238D01*
X48045715Y-32964476D01*
X48093334Y-33154952D01*
X48093334Y-33297810D01*
X48045715Y-33488286D01*
X47998096Y-33583524D01*
X47902858Y-33678762D01*
X47760000Y-33726381D01*
X47521905Y-33726381D01*
X49045715Y-33726381D02*
X48474286Y-33726381D01*
X48760000Y-33726381D02*
X48760000Y-32726381D01*
X48664762Y-32869238D01*
X48569524Y-32964476D01*
X48474286Y-33012095D01*
X36817334Y-42487905D02*
X36817334Y-43059333D01*
X36779238Y-43173619D01*
X36703048Y-43249810D01*
X36588762Y-43287905D01*
X36512572Y-43287905D01*
X37617334Y-43287905D02*
X37160191Y-43287905D01*
X37388762Y-43287905D02*
X37388762Y-42487905D01*
X37312572Y-42602190D01*
X37236381Y-42678381D01*
X37160191Y-42716476D01*
X36391905Y-33788000D02*
X36963333Y-33788000D01*
X37077619Y-33826096D01*
X37153810Y-33902286D01*
X37191905Y-34016572D01*
X37191905Y-34092762D01*
X36963333Y-33445143D02*
X36963333Y-33064191D01*
X37191905Y-33521334D02*
X36391905Y-33254667D01*
X37191905Y-32988000D01*
X37115714Y-32264191D02*
X37153810Y-32302286D01*
X37191905Y-32416572D01*
X37191905Y-32492762D01*
X37153810Y-32607048D01*
X37077619Y-32683239D01*
X37001429Y-32721334D01*
X36849048Y-32759429D01*
X36734762Y-32759429D01*
X36582381Y-32721334D01*
X36506190Y-32683239D01*
X36430000Y-32607048D01*
X36391905Y-32492762D01*
X36391905Y-32416572D01*
X36430000Y-32302286D01*
X36468095Y-32264191D01*
X37191905Y-31921334D02*
X36391905Y-31921334D01*
X37191905Y-31464191D02*
X36734762Y-31807048D01*
X36391905Y-31464191D02*
X36849048Y-31921334D01*
X37268095Y-31311810D02*
X37268095Y-30702286D01*
X37191905Y-30054667D02*
X36810952Y-30321334D01*
X37191905Y-30511810D02*
X36391905Y-30511810D01*
X36391905Y-30207048D01*
X36430000Y-30130857D01*
X36468095Y-30092762D01*
X36544286Y-30054667D01*
X36658571Y-30054667D01*
X36734762Y-30092762D01*
X36772857Y-30130857D01*
X36810952Y-30207048D01*
X36810952Y-30511810D01*
X36391905Y-29483238D02*
X36963333Y-29483238D01*
X37077619Y-29521334D01*
X37153810Y-29597524D01*
X37191905Y-29711810D01*
X37191905Y-29788000D01*
X36658571Y-28759429D02*
X37191905Y-28759429D01*
X36353810Y-28949905D02*
X36925238Y-29140381D01*
X36925238Y-28645143D01*
X36391905Y-27959428D02*
X36391905Y-28340381D01*
X36772857Y-28378476D01*
X36734762Y-28340381D01*
X36696667Y-28264190D01*
X36696667Y-28073714D01*
X36734762Y-27997524D01*
X36772857Y-27959428D01*
X36849048Y-27921333D01*
X37039524Y-27921333D01*
X37115714Y-27959428D01*
X37153810Y-27997524D01*
X37191905Y-28073714D01*
X37191905Y-28264190D01*
X37153810Y-28340381D01*
X37115714Y-28378476D01*
X53792381Y-38838095D02*
X52792381Y-38838095D01*
X52792381Y-38457142D01*
X52840000Y-38361904D01*
X52887619Y-38314285D01*
X52982857Y-38266666D01*
X53125714Y-38266666D01*
X53220952Y-38314285D01*
X53268571Y-38361904D01*
X53316190Y-38457142D01*
X53316190Y-38838095D01*
X53792381Y-37314285D02*
X53792381Y-37885714D01*
X53792381Y-37600000D02*
X52792381Y-37600000D01*
X52935238Y-37695238D01*
X53030476Y-37790476D01*
X53078095Y-37885714D01*
X53792381Y-33758095D02*
X52792381Y-33758095D01*
X52792381Y-33377142D01*
X52840000Y-33281904D01*
X52887619Y-33234285D01*
X52982857Y-33186666D01*
X53125714Y-33186666D01*
X53220952Y-33234285D01*
X53268571Y-33281904D01*
X53316190Y-33377142D01*
X53316190Y-33758095D01*
X52887619Y-32805714D02*
X52840000Y-32758095D01*
X52792381Y-32662857D01*
X52792381Y-32424761D01*
X52840000Y-32329523D01*
X52887619Y-32281904D01*
X52982857Y-32234285D01*
X53078095Y-32234285D01*
X53220952Y-32281904D01*
X53792381Y-32853333D01*
X53792381Y-32234285D01*
X43013334Y-33980381D02*
X42680000Y-33504190D01*
X42441905Y-33980381D02*
X42441905Y-32980381D01*
X42822858Y-32980381D01*
X42918096Y-33028000D01*
X42965715Y-33075619D01*
X43013334Y-33170857D01*
X43013334Y-33313714D01*
X42965715Y-33408952D01*
X42918096Y-33456571D01*
X42822858Y-33504190D01*
X42441905Y-33504190D01*
X43965715Y-33980381D02*
X43394286Y-33980381D01*
X43680000Y-33980381D02*
X43680000Y-32980381D01*
X43584762Y-33123238D01*
X43489524Y-33218476D01*
X43394286Y-33266095D01*
M02*
